ply
format ascii 1.0
comment Created by Blender 2.80 (sub 75) - www.blender.org, source file: 'downsample_ccf.blend'
element vertex 420
property float x
property float y
property float z
property float nx
property float ny
property float nz
element face 140
property list uchar uint vertex_indices
end_header
3469.780273 2315.876709 4895.004883 0.227049 0.495594 -0.838353
3012.899902 2512.055908 4887.240723 0.227049 0.495594 -0.838353
3550.352539 2501.303467 5026.441406 0.227049 0.495594 -0.838353
3013.019043 2540.879150 4916.473633 0.192518 0.698366 -0.689364
3550.352539 2501.303467 5026.441406 0.192518 0.698366 -0.689364
3012.899902 2512.055908 4887.240723 0.192518 0.698366 -0.689364
3469.780273 2315.876709 4895.004883 -0.239336 -0.587969 -0.772665
2709.454346 2288.846191 5151.088379 -0.239336 -0.587969 -0.772665
3012.899902 2512.055908 4887.240723 -0.239336 -0.587969 -0.772665
3469.780273 2315.876709 4895.004883 0.243179 0.234750 -0.941146
3717.874512 2460.831543 4995.265137 0.243179 0.234750 -0.941146
4147.714844 2008.343872 4993.465820 0.243179 0.234750 -0.941146
2709.454346 2288.846191 5151.088379 -0.750010 0.472513 -0.462835
3013.019043 2540.879150 4916.473633 -0.750010 0.472513 -0.462835
3012.899902 2512.055908 4887.240723 -0.750010 0.472513 -0.462835
3717.874512 2460.831543 4995.265137 -0.010937 0.581413 -0.813535
3469.780273 2315.876709 4895.004883 -0.010937 0.581413 -0.813535
3550.352539 2501.303467 5026.441406 -0.010937 0.581413 -0.813535
3469.780273 2315.876709 4895.004883 -0.182733 -0.641389 -0.745137
4147.714844 2008.343872 4993.465820 -0.182733 -0.641389 -0.745137
3363.549561 1993.455566 5198.585449 -0.182733 -0.641389 -0.745137
4147.714844 2008.343872 4993.465820 0.139566 0.136481 -0.980762
3717.874512 2460.831543 4995.265137 0.139566 0.136481 -0.980762
4373.394043 2360.623779 5074.603516 0.139566 0.136481 -0.980762
2830.066895 2395.134521 5191.451660 -0.654173 0.755545 -0.034787
3013.019043 2540.879150 4916.473633 -0.654173 0.755545 -0.034787
2709.454346 2288.846191 5151.088379 -0.654173 0.755545 -0.034787
4373.394043 2360.623779 5074.603516 0.158875 0.292775 -0.942890
3717.874512 2460.831543 4995.265137 0.158875 0.292775 -0.942890
3976.937500 2560.234619 5069.782227 0.158875 0.292775 -0.942890
3550.352539 2501.303467 5026.441406 -0.002443 0.603885 -0.797068
3976.937500 2560.234619 5069.782227 -0.002443 0.603885 -0.797068
3717.874512 2460.831543 4995.265137 -0.002443 0.603885 -0.797068
3363.549561 1993.455566 5198.585449 -0.177650 -0.662964 -0.727268
4147.714844 2008.343872 4993.465820 -0.177650 -0.662964 -0.727268
4728.046875 1763.026123 5075.335449 -0.177650 -0.662964 -0.727268
4728.046875 1763.026123 5075.335449 0.183337 0.107607 -0.977143
4147.714844 2008.343872 4993.465820 0.183337 0.107607 -0.977143
4373.394043 2360.623779 5074.603516 0.183337 0.107607 -0.977143
3469.780273 2315.876709 4895.004883 -0.228737 -0.626332 -0.745244
3363.549561 1993.455566 5198.585449 -0.228737 -0.626332 -0.745244
2709.454346 2288.846191 5151.088379 -0.228737 -0.626332 -0.745244
4666.853027 2218.368652 5118.614258 0.124465 0.110449 -0.986058
5522.775879 1433.506836 5138.740723 0.124465 0.110449 -0.986058
4728.046875 1763.026123 5075.335449 0.124465 0.110449 -0.986058
4666.853027 2218.368652 5118.614258 0.203767 0.119738 -0.971670
4728.046875 1763.026123 5075.335449 0.203767 0.119738 -0.971670
4373.394043 2360.623779 5074.603516 0.203767 0.119738 -0.971670
4666.853027 2218.368652 5118.614258 0.047848 0.026576 -0.998501
5584.593750 1677.452393 5148.195801 0.047848 0.026576 -0.998501
5522.775879 1433.506836 5138.740723 0.047848 0.026576 -0.998501
5143.315430 1987.531250 5145.420410 0.160872 0.220328 -0.962068
5584.593750 1677.452393 5148.195801 0.160872 0.220328 -0.962068
4666.853027 2218.368652 5118.614258 0.160872 0.220328 -0.962068
3013.019043 2540.879150 4916.473633 -0.007876 0.928014 0.372461
3345.864990 2361.968994 5369.279785 -0.007876 0.928014 0.372461
3550.352539 2501.303467 5026.441406 -0.007876 0.928014 0.372461
5584.593750 1677.452393 5148.195801 0.078178 0.018823 -0.996762
6100.020020 1495.051270 5185.177246 0.078178 0.018823 -0.996762
5522.775879 1433.506836 5138.740723 0.078178 0.018823 -0.996762
5143.315430 1987.531250 5145.420410 0.264673 0.368685 -0.891078
5716.145996 1702.337524 5197.566406 0.264673 0.368685 -0.891078
5584.593750 1677.452393 5148.195801 0.264673 0.368685 -0.891078
6100.020020 1495.051270 5185.177246 0.085067 -0.046918 -0.995270
6105.441406 1209.792114 5199.087891 0.085067 -0.046918 -0.995270
5522.775879 1433.506836 5138.740723 0.085067 -0.046918 -0.995270
5716.145996 1702.337524 5197.566406 0.229039 0.474943 -0.849688
6100.020020 1495.051270 5185.177246 0.229039 0.474943 -0.849688
5584.593750 1677.452393 5148.195801 0.229039 0.474943 -0.849688
4373.394043 2360.623779 5074.603516 0.447598 0.886085 -0.120456
3976.937500 2560.234619 5069.782227 0.447598 0.886085 -0.120456
4666.853027 2218.368652 5118.614258 0.447598 0.886085 -0.120456
3550.352539 2501.303467 5026.441406 -0.179570 0.944066 0.276576
3345.864990 2361.968994 5369.279785 -0.179570 0.944066 0.276576
3795.837158 2452.584717 5352.121582 -0.179570 0.944066 0.276576
6105.441406 1209.792114 5199.087891 -0.190315 -0.685297 -0.702956
5823.466309 1117.458496 5365.442383 -0.190315 -0.685297 -0.702956
5522.775879 1433.506836 5138.740723 -0.190315 -0.685297 -0.702956
3363.549561 1993.455566 5198.585449 -0.183103 -0.735112 -0.652751
4728.046875 1763.026123 5075.335449 -0.183103 -0.735112 -0.652751
4766.928711 1507.616943 5352.063965 -0.183103 -0.735112 -0.652751
6055.210449 1075.814697 5370.840332 0.952063 0.032925 0.304125
6105.441406 1209.792114 5199.087891 0.952063 0.032925 0.304125
6100.020020 1495.051270 5185.177246 0.952063 0.032925 0.304125
5522.775879 1433.506836 5138.740723 -0.251269 -0.728611 -0.637173
4766.928711 1507.616943 5352.063965 -0.251269 -0.728611 -0.637173
4728.046875 1763.026123 5075.335449 -0.251269 -0.728611 -0.637173
5716.145996 1702.337524 5197.566406 0.458984 0.831250 0.313618
5990.701660 1477.544067 5391.569336 0.458984 0.831250 0.313618
6100.020020 1495.051270 5185.177246 0.458984 0.831250 0.313618
2719.426025 2237.977051 5230.288086 -0.348696 -0.875000 -0.335838
3363.549561 1993.455566 5198.585449 -0.348696 -0.875000 -0.335838
3498.281250 1904.847778 5289.556152 -0.348696 -0.875000 -0.335838
3363.549561 1993.455566 5198.585449 -0.331923 -0.812145 -0.479841
2719.426025 2237.977051 5230.288086 -0.331923 -0.812145 -0.479841
2709.454346 2288.846191 5151.088379 -0.331923 -0.812145 -0.479841
5823.466309 1117.458496 5365.442383 -0.254554 -0.711773 -0.654661
4766.928711 1507.616943 5352.063965 -0.254554 -0.711773 -0.654661
5522.775879 1433.506836 5138.740723 -0.254554 -0.711773 -0.654661
5075.277832 1907.282104 5386.121094 0.384099 0.837851 0.387909
5143.315430 1987.531250 5145.420410 0.384099 0.837851 0.387909
4666.853027 2218.368652 5118.614258 0.384099 0.837851 0.387909
2822.987793 2306.477783 5318.544922 -0.724400 0.534964 0.434808
2709.454346 2288.846191 5151.088379 -0.724400 0.534964 0.434808
2719.426025 2237.977051 5230.288086 -0.724400 0.534964 0.434808
2822.987793 2306.477783 5318.544922 -0.678289 0.619847 0.394607
2830.066895 2395.134521 5191.451660 -0.678289 0.619847 0.394607
2709.454346 2288.846191 5151.088379 -0.678289 0.619847 0.394607
3976.937500 2560.234619 5069.782227 -0.158113 0.952135 0.261610
3550.352539 2501.303467 5026.441406 -0.158113 0.952135 0.261610
3795.837158 2452.584717 5352.121582 -0.158113 0.952135 0.261610
3498.281250 1904.847778 5289.556152 -0.243031 -0.849781 -0.467769
3363.549561 1993.455566 5198.585449 -0.243031 -0.849781 -0.467769
4766.928711 1507.616943 5352.063965 -0.243031 -0.849781 -0.467769
5075.277832 1907.282104 5386.121094 0.382301 0.838767 0.387706
5716.145996 1702.337524 5197.566406 0.382301 0.838767 0.387706
5143.315430 1987.531250 5145.420410 0.382301 0.838767 0.387706
5823.466309 1117.458496 5365.442383 -0.122700 -0.764800 -0.632476
6105.441406 1209.792114 5199.087891 -0.122700 -0.764800 -0.632476
6055.210449 1075.814697 5370.840332 -0.122700 -0.764800 -0.632476
4766.928711 1507.616943 5352.063965 -0.300251 -0.918338 0.257885
4375.789551 1643.204468 5379.500488 -0.300251 -0.918338 0.257885
3498.281250 1904.847778 5289.556152 -0.300251 -0.918338 0.257885
4666.853027 2218.368652 5118.614258 0.381136 0.837363 0.391866
4044.533447 2377.141113 5384.619629 0.381136 0.837363 0.391866
5075.277832 1907.282104 5386.121094 0.381136 0.837363 0.391866
4044.533447 2377.141113 5384.619629 0.383720 0.831700 0.401290
4666.853027 2218.368652 5118.614258 0.383720 0.831700 0.401290
3976.937500 2560.234619 5069.782227 0.383720 0.831700 0.401290
3345.864990 2361.968994 5369.279785 -0.086991 0.903003 0.420734
3013.019043 2540.879150 4916.473633 -0.086991 0.903003 0.420734
2830.066895 2395.134521 5191.451660 -0.086991 0.903003 0.420734
6055.210449 1075.814697 5370.840332 0.947935 0.038672 0.316106
6100.020020 1495.051270 5185.177246 0.947935 0.038672 0.316106
6032.125488 1209.449463 5423.718750 0.947935 0.038672 0.316106
5333.136719 1311.384888 5384.817383 -0.318197 -0.847070 0.425703
4766.928711 1507.616943 5352.063965 -0.318197 -0.847070 0.425703
5823.466309 1117.458496 5365.442383 -0.318197 -0.847070 0.425703
6100.020020 1495.051270 5185.177246 0.860917 0.189633 0.472082
5990.701660 1477.544067 5391.569336 0.860917 0.189633 0.472082
6032.125488 1209.449463 5423.718750 0.860917 0.189633 0.472082
2830.066895 2395.134521 5191.451660 -0.141006 0.815640 0.561114
2822.987793 2306.477783 5318.544922 -0.141006 0.815640 0.561114
3345.864990 2361.968994 5369.279785 -0.141006 0.815640 0.561114
3976.937500 2560.234619 5069.782227 0.202306 0.864828 0.459505
3795.837158 2452.584717 5352.121582 0.202306 0.864828 0.459505
4044.533447 2377.141113 5384.619629 0.202306 0.864828 0.459505
5075.277832 1907.282104 5386.121094 0.385246 0.825868 0.411737
5990.701660 1477.544067 5391.569336 0.385246 0.825868 0.411737
5716.145996 1702.337524 5197.566406 0.385246 0.825868 0.411737
3675.582764 1984.581909 5393.393066 -0.270168 -0.483521 0.832596
2719.426025 2237.977051 5230.288086 -0.270168 -0.483521 0.832596
3498.281250 1904.847778 5289.556152 -0.270168 -0.483521 0.832596
2719.426025 2237.977051 5230.288086 -0.282464 -0.568488 0.772681
3675.582764 1984.581909 5393.393066 -0.282464 -0.568488 0.772681
2822.987793 2306.477783 5318.544922 -0.282464 -0.568488 0.772681
3498.281250 1904.847778 5289.556152 -0.240611 -0.526702 0.815286
4375.789551 1643.204468 5379.500488 -0.240611 -0.526702 0.815286
3675.582764 1984.581909 5393.393066 -0.240611 -0.526702 0.815286
5823.466309 1117.458496 5365.442383 -0.089697 -0.379812 0.920705
6055.210449 1075.814697 5370.840332 -0.089697 -0.379812 0.920705
6032.125488 1209.449463 5423.718750 -0.089697 -0.379812 0.920705
5333.136719 1311.384888 5384.817383 -0.103389 -0.354269 0.929411
5823.466309 1117.458496 5365.442383 -0.103389 -0.354269 0.929411
6032.125488 1209.449463 5423.718750 -0.103389 -0.354269 0.929411
4766.928711 1507.616943 5352.063965 -0.327492 -0.944854 0.000557
5333.136719 1311.384888 5384.817383 -0.327492 -0.944854 0.000557
4375.789551 1643.204468 5379.500488 -0.327492 -0.944854 0.000557
5237.323242 1692.357788 5425.788086 -0.073273 -0.124838 0.989468
5333.136719 1311.384888 5384.817383 -0.073273 -0.124838 0.989468
6032.125488 1209.449463 5423.718750 -0.073273 -0.124838 0.989468
5333.136719 1311.384888 5384.817383 -0.046537 -0.118373 0.991878
5237.323242 1692.357788 5425.788086 -0.046537 -0.118373 0.991878
4375.789551 1643.204468 5379.500488 -0.046537 -0.118373 0.991878
5237.323242 1692.357788 5425.788086 -0.045558 -0.133733 0.989970
3675.582764 1984.581909 5393.393066 -0.045558 -0.133733 0.989970
4375.789551 1643.204468 5379.500488 -0.045558 -0.133733 0.989970
5075.277832 1907.282104 5386.121094 0.120436 0.267259 0.956069
4044.533447 2377.141113 5384.619629 0.120436 0.267259 0.956069
5237.323242 1692.357788 5425.788086 0.120436 0.267259 0.956069
5237.323242 1692.357788 5425.788086 -0.014074 0.035560 0.999268
4044.533447 2377.141113 5384.619629 -0.014074 0.035560 0.999268
3675.582764 1984.581909 5393.393066 -0.014074 0.035560 0.999268
3675.582764 1984.581909 5393.393066 -0.094559 -0.019018 0.995337
3345.864990 2361.968994 5369.279785 -0.094559 -0.019018 0.995337
2822.987793 2306.477783 5318.544922 -0.094559 -0.019018 0.995337
4044.533447 2377.141113 5384.619629 -0.022881 0.043827 0.998777
3345.864990 2361.968994 5369.279785 -0.022881 0.043827 0.998777
3675.582764 1984.581909 5393.393066 -0.022881 0.043827 0.998777
3795.837158 2452.584717 5352.121582 -0.027699 0.317052 0.948003
3345.864990 2361.968994 5369.279785 -0.027699 0.317052 0.948003
4044.533447 2377.141113 5384.619629 -0.027699 0.317052 0.948003
6032.125488 1209.449463 5423.718750 0.082278 0.131185 0.987938
5990.701660 1477.544067 5391.569336 0.082278 0.131185 0.987938
5237.323242 1692.357788 5425.788086 0.082278 0.131185 0.987938
5990.701660 1477.544067 5391.569336 0.119448 0.266573 0.956384
5075.277832 1907.282104 5386.121094 0.119448 0.266573 0.956384
5237.323242 1692.357788 5425.788086 0.119448 0.266573 0.956384
6048.269043 1154.102783 5985.781250 0.024987 -0.034086 -0.999107
5770.695312 1159.799438 5978.645020 0.024987 -0.034086 -0.999107
6001.246094 1400.595093 5976.195801 0.024987 -0.034086 -0.999107
5770.695312 1159.799438 5978.645020 -0.241764 -0.619887 -0.746519
4658.631836 1545.854858 6018.224121 -0.241764 -0.619887 -0.746519
4557.027344 1629.130737 5981.979492 -0.241764 -0.619887 -0.746519
5770.695312 1159.799438 5978.645020 -0.004875 -0.005503 -0.999973
4557.027344 1629.130737 5981.979492 -0.004875 -0.005503 -0.999973
6001.246094 1400.595093 5976.195801 -0.004875 -0.005503 -0.999973
6001.246094 1400.595093 5976.195801 -0.006456 -0.015492 -0.999859
4557.027344 1629.130737 5981.979492 -0.006456 -0.015492 -0.999859
4318.323730 2233.709717 5974.153320 -0.006456 -0.015492 -0.999859
5164.408203 1850.151611 5986.635742 0.152213 0.305171 -0.940054
6001.246094 1400.595093 5976.195801 0.152213 0.305171 -0.940054
4318.323730 2233.709717 5974.153320 0.152213 0.305171 -0.940054
6048.269043 1154.102783 5985.781250 0.014499 -0.426447 -0.904396
6011.178223 1066.730957 6026.384766 0.014499 -0.426447 -0.904396
5770.695312 1159.799438 5978.645020 0.014499 -0.426447 -0.904396
4658.631836 1545.854858 6018.224121 -0.313511 -0.862329 -0.397617
5770.695312 1159.799438 5978.645020 -0.313511 -0.862329 -0.397617
5405.536621 1274.516113 6017.772461 -0.313511 -0.862329 -0.397617
4557.027344 1629.130737 5981.979492 -0.039914 -0.028688 -0.998791
3032.926025 2271.314209 6024.440430 -0.039914 -0.028688 -0.998791
4318.323730 2233.709717 5974.153320 -0.039914 -0.028688 -0.998791
4318.323730 2233.709717 5974.153320 -0.036255 0.091515 -0.995144
3032.926025 2271.314209 6024.440430 -0.036255 0.091515 -0.995144
3839.331787 2436.354248 6010.239258 -0.036255 0.091515 -0.995144
5770.695312 1159.799438 5978.645020 -0.313753 -0.923634 -0.220133
6011.178223 1066.730957 6026.384766 -0.313753 -0.923634 -0.220133
5405.536621 1274.516113 6017.772461 -0.313753 -0.923634 -0.220133
6048.269043 1154.102783 5985.781250 0.886621 0.152155 -0.436752
6001.246094 1400.595093 5976.195801 0.886621 0.152155 -0.436752
6048.178711 1523.735107 6114.370117 0.886621 0.152155 -0.436752
4658.631836 1545.854858 6018.224121 -0.233793 -0.613533 -0.754266
3941.828125 1761.816528 6064.738281 -0.233793 -0.613533 -0.754266
4557.027344 1629.130737 5981.979492 -0.233793 -0.613533 -0.754266
3941.828125 1761.816528 6064.738281 -0.228917 -0.568532 -0.790170
3267.000977 2027.196655 6069.297363 -0.228917 -0.568532 -0.790170
4557.027344 1629.130737 5981.979492 -0.228917 -0.568532 -0.790170
4557.027344 1629.130737 5981.979492 -0.164310 -0.328461 -0.930116
3267.000977 2027.196655 6069.297363 -0.164310 -0.328461 -0.930116
3032.926025 2271.314209 6024.440430 -0.164310 -0.328461 -0.930116
3839.331787 2436.354248 6010.239258 -0.121538 0.521162 -0.844760
3032.926025 2271.314209 6024.440430 -0.121538 0.521162 -0.844760
3354.462402 2365.107666 6036.044434 -0.121538 0.521162 -0.844760
6011.178223 1066.730957 6026.384766 0.827560 -0.483712 -0.284899
6048.269043 1154.102783 5985.781250 0.827560 -0.483712 -0.284899
6114.416992 1175.645020 6141.349121 0.827560 -0.483712 -0.284899
6048.178711 1523.735107 6114.370117 0.336932 0.643159 -0.687622
6001.246094 1400.595093 5976.195801 0.336932 0.643159 -0.687622
5164.408203 1850.151611 5986.635742 0.336932 0.643159 -0.687622
3032.926025 2271.314209 6024.440430 -0.101148 0.456135 -0.884143
2797.234619 2320.252686 6076.651855 -0.101148 0.456135 -0.884143
3354.462402 2365.107666 6036.044434 -0.101148 0.456135 -0.884143
6048.269043 1154.102783 5985.781250 0.864743 0.165200 -0.474266
6048.178711 1523.735107 6114.370117 0.864743 0.165200 -0.474266
6117.044434 1363.575562 6184.146973 0.864743 0.165200 -0.474266
5472.309082 1818.458862 6199.599609 0.367656 0.836109 -0.407126
6048.178711 1523.735107 6114.370117 0.367656 0.836109 -0.407126
5164.408203 1850.151611 5986.635742 0.367656 0.836109 -0.407126
3941.828125 1761.816528 6064.738281 -0.313140 -0.787146 -0.531361
3474.664307 1912.402832 6116.970703 -0.313140 -0.787146 -0.531361
3267.000977 2027.196655 6069.297363 -0.313140 -0.787146 -0.531361
5472.309082 1818.458862 6199.599609 0.379724 0.820731 -0.426862
5164.408203 1850.151611 5986.635742 0.379724 0.820731 -0.426862
4455.704102 2327.601562 6274.189941 0.379724 0.820731 -0.426862
4455.704102 2327.601562 6274.189941 0.378074 0.820001 -0.429719
5164.408203 1850.151611 5986.635742 0.378074 0.820001 -0.429719
4318.323730 2233.709717 5974.153320 0.378074 0.820001 -0.429719
3267.000977 2027.196655 6069.297363 -0.279075 -0.425754 -0.860727
2797.234619 2320.252686 6076.651855 -0.279075 -0.425754 -0.860727
3032.926025 2271.314209 6024.440430 -0.279075 -0.425754 -0.860727
3354.462402 2365.107666 6036.044434 -0.105731 0.857201 -0.504012
2797.234619 2320.252686 6076.651855 -0.105731 0.857201 -0.504012
2989.079346 2511.888672 6362.332520 -0.105731 0.857201 -0.504012
6114.416992 1175.645020 6141.349121 0.913506 0.078150 -0.399248
6048.269043 1154.102783 5985.781250 0.913506 0.078150 -0.399248
6117.044434 1363.575562 6184.146973 0.913506 0.078150 -0.399248
3267.000977 2027.196655 6069.297363 -0.330852 -0.510434 -0.793722
2729.464844 2232.027832 6161.637207 -0.330852 -0.510434 -0.793722
2797.234619 2320.252686 6076.651855 -0.330852 -0.510434 -0.793722
4318.323730 2233.709717 5974.153320 0.311227 0.820911 -0.478793
3839.331787 2436.354248 6010.239258 0.311227 0.820911 -0.478793
3973.355225 2563.994385 6316.202148 0.311227 0.820911 -0.478793
4677.984375 1755.863159 6298.763184 -0.275835 -0.760260 0.588150
4658.631836 1545.854858 6018.224121 -0.275835 -0.760260 0.588150
5405.536621 1274.516113 6017.772461 -0.275835 -0.760260 0.588150
4677.984375 1755.863159 6298.763184 -0.195858 -0.778508 0.596293
3941.828125 1761.816528 6064.738281 -0.195858 -0.778508 0.596293
4658.631836 1545.854858 6018.224121 -0.195858 -0.778508 0.596293
2939.748779 2132.592285 6170.234863 -0.385317 -0.848087 -0.363702
3267.000977 2027.196655 6069.297363 -0.385317 -0.848087 -0.363702
3474.664307 1912.402832 6116.970703 -0.385317 -0.848087 -0.363702
3267.000977 2027.196655 6069.297363 -0.385611 -0.847100 -0.365686
2939.748779 2132.592285 6170.234863 -0.385611 -0.847100 -0.365686
2729.464844 2232.027832 6161.637207 -0.385611 -0.847100 -0.365686
6011.178223 1066.730957 6026.384766 -0.267264 -0.754143 0.599865
4677.984375 1755.863159 6298.763184 -0.267264 -0.754143 0.599865
5405.536621 1274.516113 6017.772461 -0.267264 -0.754143 0.599865
2729.464844 2232.027832 6161.637207 -0.830978 0.113761 -0.544549
2707.649902 2302.436523 6209.635742 -0.830978 0.113761 -0.544549
2797.234619 2320.252686 6076.651855 -0.830978 0.113761 -0.544549
3354.462402 2365.107666 6036.044434 0.010032 0.916082 -0.400866
2989.079346 2511.888672 6362.332520 0.010032 0.916082 -0.400866
3544.829590 2507.850830 6367.013184 0.010032 0.916082 -0.400866
3839.331787 2436.354248 6010.239258 -0.154389 0.934054 -0.322036
3354.462402 2365.107666 6036.044434 -0.154389 0.934054 -0.322036
3973.355225 2563.994385 6316.202148 -0.154389 0.934054 -0.322036
6037.410645 1532.195923 6184.541992 0.900886 0.425255 0.086969
6117.044434 1363.575562 6184.146973 0.900886 0.425255 0.086969
6048.178711 1523.735107 6114.370117 0.900886 0.425255 0.086969
4455.704102 2327.601562 6274.189941 0.367709 0.826163 -0.426901
4318.323730 2233.709717 5974.153320 0.367709 0.826163 -0.426901
3973.355225 2563.994385 6316.202148 0.367709 0.826163 -0.426901
6114.416992 1175.645020 6141.349121 -0.065238 -0.694497 0.716532
5990.173340 1266.313599 6217.917480 -0.065238 -0.694497 0.716532
6011.178223 1066.730957 6026.384766 -0.065238 -0.694497 0.716532
6048.178711 1523.735107 6114.370117 0.450749 0.891826 -0.038361
5472.309082 1818.458862 6199.599609 0.450749 0.891826 -0.038361
6037.410645 1532.195923 6184.541992 0.450749 0.891826 -0.038361
2989.079346 2511.888672 6362.332520 -0.500240 0.836152 -0.224966
2797.234619 2320.252686 6076.651855 -0.500240 0.836152 -0.224966
2707.649902 2302.436523 6209.635742 -0.500240 0.836152 -0.224966
4677.984375 1755.863159 6298.763184 -0.213954 -0.688001 0.693454
6011.178223 1066.730957 6026.384766 -0.213954 -0.688001 0.693454
5990.173340 1266.313599 6217.917480 -0.213954 -0.688001 0.693454
3941.828125 1761.816528 6064.738281 -0.202685 -0.759394 0.618256
4677.984375 1755.863159 6298.763184 -0.202685 -0.759394 0.618256
3687.331787 2059.893311 6347.428711 -0.202685 -0.759394 0.618256
4847.386230 2097.505127 6267.220703 0.315255 0.512450 0.798755
5472.309082 1818.458862 6199.599609 0.315255 0.512450 0.798755
4455.704102 2327.601562 6274.189941 0.315255 0.512450 0.798755
2939.748779 2132.592285 6170.234863 -0.313495 -0.599282 0.736602
2707.649902 2302.436523 6209.635742 -0.313495 -0.599282 0.736602
2729.464844 2232.027832 6161.637207 -0.313495 -0.599282 0.736602
6117.044434 1363.575562 6184.146973 0.397986 -0.208990 0.893269
5990.173340 1266.313599 6217.917480 0.397986 -0.208990 0.893269
6114.416992 1175.645020 6141.349121 0.397986 -0.208990 0.893269
5990.173340 1266.313599 6217.917480 0.192286 0.088521 0.977338
6117.044434 1363.575562 6184.146973 0.192286 0.088521 0.977338
6037.410645 1532.195923 6184.541992 0.192286 0.088521 0.977338
3474.664307 1912.402832 6116.970703 -0.170690 -0.750843 0.638044
3941.828125 1761.816528 6064.738281 -0.170690 -0.750843 0.638044
3687.331787 2059.893311 6347.428711 -0.170690 -0.750843 0.638044
3973.355225 2563.994385 6316.202148 -0.159703 0.936543 -0.312062
3354.462402 2365.107666 6036.044434 -0.159703 0.936543 -0.312062
3544.829590 2507.850830 6367.013184 -0.159703 0.936543 -0.312062
5182.041992 1615.691528 6275.877930 -0.002021 -0.168207 0.985750
4677.984375 1755.863159 6298.763184 -0.002021 -0.168207 0.985750
5990.173340 1266.313599 6217.917480 -0.002021 -0.168207 0.985750
5990.173340 1266.313599 6217.917480 0.115587 0.103472 0.987893
6037.410645 1532.195923 6184.541992 0.115587 0.103472 0.987893
5182.041992 1615.691528 6275.877930 0.115587 0.103472 0.987893
5182.041992 1615.691528 6275.877930 0.115093 0.097703 0.988538
6037.410645 1532.195923 6184.541992 0.115093 0.097703 0.988538
4847.386230 2097.505127 6267.220703 0.115093 0.097703 0.988538
5472.309082 1818.458862 6199.599609 0.390167 0.741502 0.545843
4847.386230 2097.505127 6267.220703 0.390167 0.741502 0.545843
6037.410645 1532.195923 6184.541992 0.390167 0.741502 0.545843
3474.664307 1912.402832 6116.970703 -0.226788 -0.711763 0.664801
3687.331787 2059.893311 6347.428711 -0.226788 -0.711763 0.664801
2939.748779 2132.592285 6170.234863 -0.226788 -0.711763 0.664801
2707.649902 2302.436523 6209.635742 -0.339092 -0.626240 0.702025
2939.748779 2132.592285 6170.234863 -0.339092 -0.626240 0.702025
2871.304199 2417.521240 6391.345215 -0.339092 -0.626240 0.702025
2989.079346 2511.888672 6362.332520 -0.542148 0.828909 -0.137792
2707.649902 2302.436523 6209.635742 -0.542148 0.828909 -0.137792
2968.494141 2514.025391 6456.179688 -0.542148 0.828909 -0.137792
5182.041992 1615.691528 6275.877930 0.170207 0.135758 0.976012
4847.386230 2097.505127 6267.220703 0.170207 0.135758 0.976012
4374.238281 2022.607422 6360.150879 0.170207 0.135758 0.976012
2871.304199 2417.521240 6391.345215 -0.236536 -0.630505 0.739266
2939.748779 2132.592285 6170.234863 -0.236536 -0.630505 0.739266
3687.331787 2059.893311 6347.428711 -0.236536 -0.630505 0.739266
4847.386230 2097.505127 6267.220703 0.152336 0.230204 0.961145
4455.704102 2327.601562 6274.189941 0.152336 0.230204 0.961145
4374.238281 2022.607422 6360.150879 0.152336 0.230204 0.961145
5182.041992 1615.691528 6275.877930 -0.026321 -0.252566 0.967222
4374.238281 2022.607422 6360.150879 -0.026321 -0.252566 0.967222
4677.984375 1755.863159 6298.763184 -0.026321 -0.252566 0.967222
2871.304199 2417.521240 6391.345215 -0.767202 0.536882 0.350939
2968.494141 2514.025391 6456.179688 -0.767202 0.536882 0.350939
2707.649902 2302.436523 6209.635742 -0.767202 0.536882 0.350939
4455.704102 2327.601562 6274.189941 0.190588 0.218811 0.956973
3973.355225 2563.994385 6316.202148 0.190588 0.218811 0.956973
4374.238281 2022.607422 6360.150879 0.190588 0.218811 0.956973
4374.238281 2022.607422 6360.150879 0.194667 0.221710 0.955484
3973.355225 2563.994385 6316.202148 0.194667 0.221710 0.955484
3707.994873 2208.754395 6452.695312 0.194667 0.221710 0.955484
3707.994873 2208.754395 6452.695312 -0.131712 -0.560089 0.817895
3687.331787 2059.893311 6347.428711 -0.131712 -0.560089 0.817895
4677.984375 1755.863159 6298.763184 -0.131712 -0.560089 0.817895
4374.238281 2022.607422 6360.150879 0.108174 -0.104344 0.988641
3707.994873 2208.754395 6452.695312 0.108174 -0.104344 0.988641
4677.984375 1755.863159 6298.763184 0.108174 -0.104344 0.988641
3973.355225 2563.994385 6316.202148 0.071688 0.310631 0.947824
3544.829590 2507.850830 6367.013184 0.071688 0.310631 0.947824
3707.994873 2208.754395 6452.695312 0.071688 0.310631 0.947824
2989.079346 2511.888672 6362.332520 0.008055 0.995157 -0.097966
3096.623535 2522.659912 6480.592285 0.008055 0.995157 -0.097966
3544.829590 2507.850830 6367.013184 0.008055 0.995157 -0.097966
2989.079346 2511.888672 6362.332520 -0.060372 0.997528 -0.035954
2968.494141 2514.025391 6456.179688 -0.060372 0.997528 -0.035954
3096.623535 2522.659912 6480.592285 -0.060372 0.997528 -0.035954
2871.304199 2417.521240 6391.345215 -0.219900 -0.596548 0.771864
3687.331787 2059.893311 6347.428711 -0.219900 -0.596548 0.771864
3252.383789 2420.510498 6502.223145 -0.219900 -0.596548 0.771864
3707.994873 2208.754395 6452.695312 0.282053 0.403250 0.870537
3544.829590 2507.850830 6367.013184 0.282053 0.403250 0.870537
3252.383789 2420.510498 6502.223145 0.282053 0.403250 0.870537
3544.829590 2507.850830 6367.013184 0.226022 0.519182 0.824235
3096.623535 2522.659912 6480.592285 0.226022 0.519182 0.824235
3252.383789 2420.510498 6502.223145 0.226022 0.519182 0.824235
3687.331787 2059.893311 6347.428711 -0.168541 -0.553410 0.815679
3707.994873 2208.754395 6452.695312 -0.168541 -0.553410 0.815679
3252.383789 2420.510498 6502.223145 -0.168541 -0.553410 0.815679
3252.383789 2420.510498 6502.223145 -0.259783 -0.344458 0.902143
2968.494141 2514.025391 6456.179688 -0.259783 -0.344458 0.902143
2871.304199 2417.521240 6391.345215 -0.259783 -0.344458 0.902143
3096.623535 2522.659912 6480.592285 -0.182146 -0.070056 0.980773
2968.494141 2514.025391 6456.179688 -0.182146 -0.070056 0.980773
3252.383789 2420.510498 6502.223145 -0.182146 -0.070056 0.980773
3 0 1 2
3 3 4 5
3 6 7 8
3 9 10 11
3 12 13 14
3 15 16 17
3 18 19 20
3 21 22 23
3 24 25 26
3 27 28 29
3 30 31 32
3 33 34 35
3 36 37 38
3 39 40 41
3 42 43 44
3 45 46 47
3 48 49 50
3 51 52 53
3 54 55 56
3 57 58 59
3 60 61 62
3 63 64 65
3 66 67 68
3 69 70 71
3 72 73 74
3 75 76 77
3 78 79 80
3 81 82 83
3 84 85 86
3 87 88 89
3 90 91 92
3 93 94 95
3 96 97 98
3 99 100 101
3 102 103 104
3 105 106 107
3 108 109 110
3 111 112 113
3 114 115 116
3 117 118 119
3 120 121 122
3 123 124 125
3 126 127 128
3 129 130 131
3 132 133 134
3 135 136 137
3 138 139 140
3 141 142 143
3 144 145 146
3 147 148 149
3 150 151 152
3 153 154 155
3 156 157 158
3 159 160 161
3 162 163 164
3 165 166 167
3 168 169 170
3 171 172 173
3 174 175 176
3 177 178 179
3 180 181 182
3 183 184 185
3 186 187 188
3 189 190 191
3 192 193 194
3 195 196 197
3 198 199 200
3 201 202 203
3 204 205 206
3 207 208 209
3 210 211 212
3 213 214 215
3 216 217 218
3 219 220 221
3 222 223 224
3 225 226 227
3 228 229 230
3 231 232 233
3 234 235 236
3 237 238 239
3 240 241 242
3 243 244 245
3 246 247 248
3 249 250 251
3 252 253 254
3 255 256 257
3 258 259 260
3 261 262 263
3 264 265 266
3 267 268 269
3 270 271 272
3 273 274 275
3 276 277 278
3 279 280 281
3 282 283 284
3 285 286 287
3 288 289 290
3 291 292 293
3 294 295 296
3 297 298 299
3 300 301 302
3 303 304 305
3 306 307 308
3 309 310 311
3 312 313 314
3 315 316 317
3 318 319 320
3 321 322 323
3 324 325 326
3 327 328 329
3 330 331 332
3 333 334 335
3 336 337 338
3 339 340 341
3 342 343 344
3 345 346 347
3 348 349 350
3 351 352 353
3 354 355 356
3 357 358 359
3 360 361 362
3 363 364 365
3 366 367 368
3 369 370 371
3 372 373 374
3 375 376 377
3 378 379 380
3 381 382 383
3 384 385 386
3 387 388 389
3 390 391 392
3 393 394 395
3 396 397 398
3 399 400 401
3 402 403 404
3 405 406 407
3 408 409 410
3 411 412 413
3 414 415 416
3 417 418 419
