ply
format ascii 1.0
comment Created by Blender 2.80 (sub 75) - www.blender.org, source file: 'downsample_ccf.blend'
element vertex 357
property float x
property float y
property float z
property float nx
property float ny
property float nz
element face 119
property list uchar uint vertex_indices
end_header
3984.071045 3220.214600 5142.798828 0.155608 0.186520 -0.970050
5091.453125 2377.140625 5158.331543 0.155608 0.186520 -0.970050
3999.448730 2670.184814 5039.506348 0.155608 0.186520 -0.970050
3999.448730 2670.184814 5039.506348 0.095363 -0.047808 -0.994294
5091.453125 2377.140625 5158.331543 0.095363 -0.047808 -0.994294
4677.392090 2272.595215 5123.645508 0.095363 -0.047808 -0.994294
4892.101562 2744.696777 5225.321777 0.240357 0.298694 -0.923586
5091.453125 2377.140625 5158.331543 0.240357 0.298694 -0.923586
3984.071045 3220.214600 5142.798828 0.240357 0.298694 -0.923586
5137.152344 2065.684814 5145.625488 0.070576 0.050996 -0.996202
4677.392090 2272.595215 5123.645508 0.070576 0.050996 -0.996202
5091.453125 2377.140625 5158.331543 0.070576 0.050996 -0.996202
3882.958740 2543.288086 5276.901855 -0.361315 -0.736978 -0.571240
3999.448730 2670.184814 5039.506348 -0.361315 -0.736978 -0.571240
4677.392090 2272.595215 5123.645508 -0.361315 -0.736978 -0.571240
5995.496094 1656.940918 5184.595215 0.069439 0.050833 -0.996290
5137.152344 2065.684814 5145.625488 0.069439 0.050833 -0.996290
5091.453125 2377.140625 5158.331543 0.069439 0.050833 -0.996290
3984.071045 3220.214600 5142.798828 -0.907383 0.052934 -0.416958
3999.448730 2670.184814 5039.506348 -0.907383 0.052934 -0.416958
3882.958740 2543.288086 5276.901855 -0.907383 0.052934 -0.416958
3866.562012 3611.698486 5302.359863 -0.802999 0.001877 -0.595977
3984.071045 3220.214600 5142.798828 -0.802999 0.001877 -0.595977
3882.958740 2543.288086 5276.901855 -0.802999 0.001877 -0.595977
4505.366211 3062.687988 5272.581543 0.353737 0.543359 -0.761335
4892.101562 2744.696777 5225.321777 0.353737 0.543359 -0.761335
3984.071045 3220.214600 5142.798828 0.353737 0.543359 -0.761335
6044.992676 1567.890381 5261.393066 0.812074 -0.050036 -0.581405
5995.496094 1656.940918 5184.595215 0.812074 -0.050036 -0.581405
6069.264160 1941.018066 5263.182617 0.812074 -0.050036 -0.581405
5995.496094 1656.940918 5184.595215 -0.311513 -0.713950 -0.627085
6044.992676 1567.890381 5261.393066 -0.311513 -0.713950 -0.627085
5137.152344 2065.684814 5145.625488 -0.311513 -0.713950 -0.627085
6069.264160 1941.018066 5263.182617 0.414951 0.140910 -0.898866
5995.496094 1656.940918 5184.595215 0.414951 0.140910 -0.898866
6036.992676 2104.307373 5273.882812 0.414951 0.140910 -0.898866
6036.992676 2104.307373 5273.882812 0.169739 0.177719 -0.969332
5995.496094 1656.940918 5184.595215 0.169739 0.177719 -0.969332
5091.453125 2377.140625 5158.331543 0.169739 0.177719 -0.969332
5137.152344 2065.684814 5145.625488 -0.327826 -0.784376 -0.526578
4781.722656 2100.459961 5315.101562 -0.327826 -0.784376 -0.526578
4677.392090 2272.595215 5123.645508 -0.327826 -0.784376 -0.526578
6036.992676 2104.307373 5273.882812 0.194964 0.277215 -0.940819
5091.453125 2377.140625 5158.331543 0.194964 0.277215 -0.940819
4892.101562 2744.696777 5225.321777 0.194964 0.277215 -0.940819
6036.992676 2104.307373 5273.882812 0.282887 0.441163 -0.851675
4892.101562 2744.696777 5225.321777 0.282887 0.441163 -0.851675
5768.712402 2336.778320 5305.191406 0.282887 0.441163 -0.851675
5137.152344 2065.684814 5145.625488 -0.341559 -0.753541 -0.561706
6044.992676 1567.890381 5261.393066 -0.341559 -0.753541 -0.561706
4781.722656 2100.459961 5315.101562 -0.341559 -0.753541 -0.561706
3882.958740 2543.288086 5276.901855 -0.364071 -0.782492 -0.505133
4677.392090 2272.595215 5123.645508 -0.364071 -0.782492 -0.505133
4781.722656 2100.459961 5315.101562 -0.364071 -0.782492 -0.505133
4448.357910 3129.059814 5398.812012 0.620747 0.773740 -0.126490
4892.101562 2744.696777 5225.321777 0.620747 0.773740 -0.126490
4505.366211 3062.687988 5272.581543 0.620747 0.773740 -0.126490
3984.071045 3220.214600 5142.798828 0.339998 0.440668 -0.830790
3866.562012 3611.698486 5302.359863 0.339998 0.440668 -0.830790
4505.366211 3062.687988 5272.581543 0.339998 0.440668 -0.830790
3866.562012 3611.698486 5302.359863 0.392020 0.498089 -0.773452
4120.042969 3476.650146 5343.866699 0.392020 0.498089 -0.773452
4505.366211 3062.687988 5272.581543 0.392020 0.498089 -0.773452
6069.264160 1941.018066 5263.182617 0.664777 0.178911 -0.725302
6036.992676 2104.307373 5273.882812 0.664777 0.178911 -0.725302
6197.367676 2065.652100 5411.339844 0.664777 0.178911 -0.725302
5001.258301 2758.553711 5405.791504 0.423441 0.847086 -0.321159
5768.712402 2336.778320 5305.191406 0.423441 0.847086 -0.321159
4892.101562 2744.696777 5225.321777 0.423441 0.847086 -0.321159
4781.722656 2100.459961 5315.101562 -0.380878 -0.872622 -0.305716
6044.992676 1567.890381 5261.393066 -0.380878 -0.872622 -0.305716
5274.270020 1853.545410 5406.240723 -0.380878 -0.872622 -0.305716
3882.958740 2543.288086 5276.901855 -0.435289 -0.893194 -0.112816
4781.722656 2100.459961 5315.101562 -0.435289 -0.893194 -0.112816
4523.897949 2217.666016 5381.939941 -0.435289 -0.893194 -0.112816
3866.562012 3611.698486 5302.359863 0.475565 0.752679 -0.455314
3863.401611 3650.149414 5362.622070 0.475565 0.752679 -0.455314
4120.042969 3476.650146 5343.866699 0.475565 0.752679 -0.455314
5718.104004 1646.098877 5416.512695 -0.383489 -0.839535 -0.384860
5274.270020 1853.545410 5406.240723 -0.383489 -0.839535 -0.384860
6044.992676 1567.890381 5261.393066 -0.383489 -0.839535 -0.384860
6069.264160 1941.018066 5263.182617 0.610033 -0.781628 0.130066
6197.367676 2065.652100 5411.339844 0.610033 -0.781628 0.130066
6052.255371 1951.232910 5404.343262 0.610033 -0.781628 0.130066
6036.992676 2104.307373 5273.882812 0.554321 0.700286 -0.449809
5768.712402 2336.778320 5305.191406 0.554321 0.700286 -0.449809
6197.367676 2065.652100 5411.339844 0.554321 0.700286 -0.449809
4892.101562 2744.696777 5225.321777 0.519679 0.768477 -0.373333
4448.357910 3129.059814 5398.812012 0.519679 0.768477 -0.373333
5001.258301 2758.553711 5405.791504 0.519679 0.768477 -0.373333
3840.819580 3602.248047 5415.562500 -0.766184 0.631021 -0.121552
3882.669922 3636.239990 5328.229980 -0.766184 0.631021 -0.121552
3866.562012 3611.698486 5302.359863 -0.766184 0.631021 -0.121552
6044.992676 1567.890381 5261.393066 0.946523 -0.063088 0.316408
6069.264160 1941.018066 5263.182617 0.946523 -0.063088 0.316408
5996.896484 1546.157104 5400.937988 0.946523 -0.063088 0.316408
6052.255371 1951.232910 5404.343262 0.982473 -0.135345 0.128175
5996.896484 1546.157104 5400.937988 0.982473 -0.135345 0.128175
6069.264160 1941.018066 5263.182617 0.982473 -0.135345 0.128175
3882.958740 2543.288086 5276.901855 -0.412443 -0.883487 -0.222129
4523.897949 2217.666016 5381.939941 -0.412443 -0.883487 -0.222129
3961.280518 2478.021973 5391.062988 -0.412443 -0.883487 -0.222129
3890.084229 3150.747070 5408.237305 -0.990070 -0.018515 0.139351
3866.562012 3611.698486 5302.359863 -0.990070 -0.018515 0.139351
3882.958740 2543.288086 5276.901855 -0.990070 -0.018515 0.139351
3863.401611 3650.149414 5362.622070 -0.883973 -0.090270 -0.458741
3882.669922 3636.239990 5328.229980 -0.883973 -0.090270 -0.458741
3840.819580 3602.248047 5415.562500 -0.883973 -0.090270 -0.458741
6044.992676 1567.890381 5261.393066 -0.338781 -0.904887 -0.257696
5996.896484 1546.157104 5400.937988 -0.338781 -0.904887 -0.257696
5718.104004 1646.098877 5416.512695 -0.338781 -0.904887 -0.257696
4781.722656 2100.459961 5315.101562 -0.432151 -0.896859 -0.094284
5274.270020 1853.545410 5406.240723 -0.432151 -0.896859 -0.094284
4523.897949 2217.666016 5381.939941 -0.432151 -0.896859 -0.094284
5907.205566 2271.338135 5432.874023 0.558096 0.807363 -0.191557
6197.367676 2065.652100 5411.339844 0.558096 0.807363 -0.191557
5768.712402 2336.778320 5305.191406 0.558096 0.807363 -0.191557
5001.258301 2758.553711 5405.791504 0.474156 0.878092 -0.064260
5907.205566 2271.338135 5432.874023 0.474156 0.878092 -0.064260
5768.712402 2336.778320 5305.191406 0.474156 0.878092 -0.064260
4448.357910 3129.059814 5398.812012 0.729029 0.683811 -0.030302
4505.366211 3062.687988 5272.581543 0.729029 0.683811 -0.030302
4120.042969 3476.650146 5343.866699 0.729029 0.683811 -0.030302
3866.562012 3611.698486 5302.359863 -0.968154 -0.101928 -0.228669
3890.084229 3150.747070 5408.237305 -0.968154 -0.101928 -0.228669
3840.819580 3602.248047 5415.562500 -0.968154 -0.101928 -0.228669
4448.357910 3129.059814 5398.812012 0.710435 0.691617 0.130182
4120.042969 3476.650146 5343.866699 0.710435 0.691617 0.130182
4058.195312 3521.359131 5443.859375 0.710435 0.691617 0.130182
4120.042969 3476.650146 5343.866699 0.558623 0.829040 -0.025162
3863.401611 3650.149414 5362.622070 0.558623 0.829040 -0.025162
4058.195312 3521.359131 5443.859375 0.558623 0.829040 -0.025162
3961.280518 2478.021973 5391.062988 -0.846690 -0.102935 0.522035
3890.084229 3150.747070 5408.237305 -0.846690 -0.102935 0.522035
3882.958740 2543.288086 5276.901855 -0.846690 -0.102935 0.522035
4523.897949 2217.666016 5381.939941 0.004627 -0.025032 0.999676
3890.084229 3150.747070 5408.237305 0.004627 -0.025032 0.999676
3961.280518 2478.021973 5391.062988 0.004627 -0.025032 0.999676
5996.896484 1546.157104 5400.937988 0.050313 -0.015271 0.998617
6052.255371 1951.232910 5404.343262 0.050313 -0.015271 0.998617
5718.104004 1646.098877 5416.512695 0.050313 -0.015271 0.998617
6052.255371 1951.232910 5404.343262 0.082932 -0.051126 0.995243
5907.205566 2271.338135 5432.874023 0.082932 -0.051126 0.995243
5718.104004 1646.098877 5416.512695 0.082932 -0.051126 0.995243
5907.205566 2271.338135 5432.874023 -0.010437 -0.023003 0.999681
4420.988770 3008.112305 5434.310547 -0.010437 -0.023003 0.999681
5718.104004 1646.098877 5416.512695 -0.010437 -0.023003 0.999681
5718.104004 1646.098877 5416.512695 -0.052539 -0.063059 0.996626
4420.988770 3008.112305 5434.310547 -0.052539 -0.063059 0.996626
5274.270020 1853.545410 5406.240723 -0.052539 -0.063059 0.996626
6197.367676 2065.652100 5411.339844 0.016199 -0.081481 0.996543
5907.205566 2271.338135 5432.874023 0.016199 -0.081481 0.996543
6052.255371 1951.232910 5404.343262 0.016199 -0.081481 0.996543
4523.897949 2217.666016 5381.939941 -0.068532 -0.074835 0.994838
5274.270020 1853.545410 5406.240723 -0.068532 -0.074835 0.994838
4420.988770 3008.112305 5434.310547 -0.068532 -0.074835 0.994838
5907.205566 2271.338135 5432.874023 0.282106 0.567555 0.773497
5001.258301 2758.553711 5405.791504 0.282106 0.567555 0.773497
4420.988770 3008.112305 5434.310547 0.282106 0.567555 0.773497
3890.084229 3150.747070 5408.237305 -0.068976 -0.074890 0.994803
4523.897949 2217.666016 5381.939941 -0.068976 -0.074890 0.994803
4420.988770 3008.112305 5434.310547 -0.068976 -0.074890 0.994803
5001.258301 2758.553711 5405.791504 0.152958 0.246285 0.957051
4448.357910 3129.059814 5398.812012 0.152958 0.246285 0.957051
4420.988770 3008.112305 5434.310547 0.152958 0.246285 0.957051
4058.195312 3521.359131 5443.859375 -0.066502 -0.065531 0.995632
3890.084229 3150.747070 5408.237305 -0.066502 -0.065531 0.995632
4420.988770 3008.112305 5434.310547 -0.066502 -0.065531 0.995632
4448.357910 3129.059814 5398.812012 0.310638 0.202298 0.928752
4058.195312 3521.359131 5443.859375 0.310638 0.202298 0.928752
4420.988770 3008.112305 5434.310547 0.310638 0.202298 0.928752
4058.195312 3521.359131 5443.859375 0.167340 0.694493 0.699769
3863.401611 3650.149414 5362.622070 0.167340 0.694493 0.699769
3840.819580 3602.248047 5415.562500 0.167340 0.694493 0.699769
4058.195312 3521.359131 5443.859375 -0.140498 -0.031385 0.989583
3840.819580 3602.248047 5415.562500 -0.140498 -0.031385 0.989583
3890.084229 3150.747070 5408.237305 -0.140498 -0.031385 0.989583
5989.689941 1548.994507 5983.910645 -0.016404 -0.053030 -0.998458
5183.302734 1911.773926 5977.890625 -0.016404 -0.053030 -0.998458
6053.209473 1973.708862 5960.309570 -0.016404 -0.053030 -0.998458
6053.209473 1973.708862 5960.309570 -0.010567 -0.132910 -0.991072
5183.302734 1911.773926 5977.890625 -0.010567 -0.132910 -0.991072
6203.733887 2069.285156 5945.887207 -0.010567 -0.132910 -0.991072
6203.733887 2069.285156 5945.887207 -0.026338 -0.032375 -0.999129
5183.302734 1911.773926 5977.890625 -0.026338 -0.032375 -0.999129
5442.925781 2498.827148 5952.024414 -0.026338 -0.032375 -0.999129
4364.363770 3183.913330 5957.578125 0.356522 0.351041 -0.865830
3882.728516 3603.723389 5929.462891 0.356522 0.351041 -0.865830
4154.707031 3436.565918 5973.683105 0.356522 0.351041 -0.865830
6053.209473 1973.708862 5960.309570 0.490308 -0.817703 -0.301594
6203.733887 2069.285156 5945.887207 0.490308 -0.817703 -0.301594
6084.597656 1944.765381 6089.811523 0.490308 -0.817703 -0.301594
6203.733887 2069.285156 5945.887207 0.463365 0.825326 -0.322692
5442.925781 2498.827148 5952.024414 0.463365 0.825326 -0.322692
5810.848633 2330.671875 6050.259277 0.463365 0.825326 -0.322692
5442.925781 2498.827148 5952.024414 -0.043030 -0.024976 -0.998762
5183.302734 1911.773926 5977.890625 -0.043030 -0.024976 -0.998762
4808.078125 2864.049072 5970.242676 -0.043030 -0.024976 -0.998762
4296.676270 2328.623291 5976.145020 -0.201265 -0.204491 -0.957954
4019.216064 2440.067627 6010.649414 -0.201265 -0.204491 -0.957954
3892.137207 2690.568359 5983.875000 -0.201265 -0.204491 -0.957954
5183.302734 1911.773926 5977.890625 -0.002218 -0.008905 -0.999958
4296.676270 2328.623291 5976.145020 -0.002218 -0.008905 -0.999958
4808.078125 2864.049072 5970.242676 -0.002218 -0.008905 -0.999958
4808.078125 2864.049072 5970.242676 0.012193 -0.022666 -0.999669
4296.676270 2328.623291 5976.145020 0.012193 -0.022666 -0.999669
4364.363770 3183.913330 5957.578125 0.012193 -0.022666 -0.999669
4296.676270 2328.623291 5976.145020 -0.028740 -0.010775 -0.999529
3892.137207 2690.568359 5983.875000 -0.028740 -0.010775 -0.999529
3870.858643 3284.967041 5978.079102 -0.028740 -0.010775 -0.999529
4808.078125 2864.049072 5970.242676 0.579510 0.797191 -0.169278
4364.363770 3183.913330 5957.578125 0.579510 0.797191 -0.169278
4730.310547 2928.923828 6009.530273 0.579510 0.797191 -0.169278
4296.676270 2328.623291 5976.145020 -0.045200 -0.018105 -0.998814
3870.858643 3284.967041 5978.079102 -0.045200 -0.018105 -0.998814
4364.363770 3183.913330 5957.578125 -0.045200 -0.018105 -0.998814
3882.728516 3603.723389 5929.462891 -0.071243 -0.147799 -0.986448
4364.363770 3183.913330 5957.578125 -0.071243 -0.147799 -0.986448
3870.858643 3284.967041 5978.079102 -0.071243 -0.147799 -0.986448
3843.325439 3655.848145 5978.335938 -0.807179 -0.059516 -0.587299
3882.728516 3603.723389 5929.462891 -0.807179 -0.059516 -0.587299
3870.858643 3284.967041 5978.079102 -0.807179 -0.059516 -0.587299
4154.707031 3436.565918 5973.683105 0.535992 0.803930 -0.257700
3882.728516 3603.723389 5929.462891 0.535992 0.803930 -0.257700
3861.379883 3660.059326 6060.807129 0.535992 0.803930 -0.257700
3861.379883 3660.059326 6060.807129 0.691333 0.697923 -0.186983
3882.728516 3603.723389 5929.462891 0.691333 0.697923 -0.186983
3843.325439 3655.848145 5978.335938 0.691333 0.697923 -0.186983
6084.597656 1944.765381 6089.811523 0.827258 -0.048611 -0.559715
6065.070312 1569.306396 6093.558594 0.827258 -0.048611 -0.559715
5989.689941 1548.994507 5983.910645 0.827258 -0.048611 -0.559715
5989.689941 1548.994507 5983.910645 -0.388157 -0.867938 -0.309869
5944.199219 1555.614502 6022.352051 -0.388157 -0.867938 -0.309869
5183.302734 1911.773926 5977.890625 -0.388157 -0.867938 -0.309869
5183.302734 1911.773926 5977.890625 -0.404037 -0.860671 -0.309837
4751.490723 2100.038330 6018.021484 -0.404037 -0.860671 -0.309837
4296.676270 2328.623291 5976.145020 -0.404037 -0.860671 -0.309837
5810.848633 2330.671875 6050.259277 0.463795 0.822603 -0.328966
5442.925781 2498.827148 5952.024414 0.463795 0.822603 -0.328966
4808.078125 2864.049072 5970.242676 0.463795 0.822603 -0.328966
5989.689941 1548.994507 5983.910645 0.006857 -0.984082 0.177583
6065.070312 1569.306396 6093.558594 0.006857 -0.984082 0.177583
5944.199219 1555.614502 6022.352051 0.006857 -0.984082 0.177583
5989.689941 1548.994507 5983.910645 0.951199 -0.157021 -0.265642
6053.209473 1973.708862 5960.309570 0.951199 -0.157021 -0.265642
6084.597656 1944.765381 6089.811523 0.951199 -0.157021 -0.265642
4296.676270 2328.623291 5976.145020 -0.384548 -0.836607 -0.390143
4751.490723 2100.038330 6018.021484 -0.384548 -0.836607 -0.390143
4019.216064 2440.067627 6010.649414 -0.384548 -0.836607 -0.390143
4364.363770 3183.913330 5957.578125 0.376088 0.366338 -0.851090
4154.707031 3436.565918 5973.683105 0.376088 0.366338 -0.851090
4730.310547 2928.923828 6009.530273 0.376088 0.366338 -0.851090
3892.137207 2690.568359 5983.875000 -0.731790 -0.427931 -0.530433
4019.216064 2440.067627 6010.649414 -0.731790 -0.427931 -0.530433
3885.362061 2565.633057 6094.014648 -0.731790 -0.427931 -0.530433
5810.848633 2330.671875 6050.259277 0.576666 0.695833 0.428104
5997.848145 2130.158936 6124.276855 0.576666 0.695833 0.428104
6203.733887 2069.285156 5945.887207 0.576666 0.695833 0.428104
4730.310547 2928.923828 6009.530273 0.453738 0.791671 -0.409120
5810.848633 2330.671875 6050.259277 0.453738 0.791671 -0.409120
4808.078125 2864.049072 5970.242676 0.453738 0.791671 -0.409120
3892.137207 2690.568359 5983.875000 -0.994045 -0.036586 -0.102649
3885.362061 2565.633057 6094.014648 -0.994045 -0.036586 -0.102649
3870.858643 3284.967041 5978.079102 -0.994045 -0.036586 -0.102649
3870.858643 3284.967041 5978.079102 -0.973522 -0.072422 0.216820
3861.379883 3660.059326 6060.807129 -0.973522 -0.072422 0.216820
3843.325439 3655.848145 5978.335938 -0.973522 -0.072422 0.216820
5183.302734 1911.773926 5977.890625 -0.407158 -0.893498 -0.189430
5944.199219 1555.614502 6022.352051 -0.407158 -0.893498 -0.189430
4751.490723 2100.038330 6018.021484 -0.407158 -0.893498 -0.189430
3921.115234 3487.220703 6143.524414 -0.903174 -0.114096 0.413834
3861.379883 3660.059326 6060.807129 -0.903174 -0.114096 0.413834
3870.858643 3284.967041 5978.079102 -0.903174 -0.114096 0.413834
4751.490723 2100.038330 6018.021484 -0.381750 -0.833145 0.400171
5944.199219 1555.614502 6022.352051 -0.381750 -0.833145 0.400171
5316.680664 1921.099487 6184.648926 -0.381750 -0.833145 0.400171
6084.597656 1944.765381 6089.811523 0.674101 0.182361 0.715774
6203.733887 2069.285156 5945.887207 0.674101 0.182361 0.715774
5997.848145 2130.158936 6124.276855 0.674101 0.182361 0.715774
4646.307617 2914.204590 6142.343262 0.577846 0.686386 0.441552
4730.310547 2928.923828 6009.530273 0.577846 0.686386 0.441552
4154.707031 3436.565918 5973.683105 0.577846 0.686386 0.441552
4154.707031 3436.565918 5973.683105 0.632185 0.701313 0.329396
3861.379883 3660.059326 6060.807129 0.632185 0.701313 0.329396
4646.307617 2914.204590 6142.343262 0.632185 0.701313 0.329396
3973.234619 2592.728760 6281.535645 -0.513353 -0.781967 0.353548
3885.362061 2565.633057 6094.014648 -0.513353 -0.781967 0.353548
4019.216064 2440.067627 6010.649414 -0.513353 -0.781967 0.353548
3921.115234 3487.220703 6143.524414 -0.964104 0.023193 0.264509
3870.858643 3284.967041 5978.079102 -0.964104 0.023193 0.264509
3885.362061 2565.633057 6094.014648 -0.964104 0.023193 0.264509
6051.069824 1654.533081 6182.427734 -0.263749 -0.731864 0.628340
5316.680664 1921.099487 6184.648926 -0.263749 -0.731864 0.628340
5944.199219 1555.614502 6022.352051 -0.263749 -0.731864 0.628340
6065.070312 1569.306396 6093.558594 -0.294492 -0.712490 0.636893
6051.069824 1654.533081 6182.427734 -0.294492 -0.712490 0.636893
5944.199219 1555.614502 6022.352051 -0.294492 -0.712490 0.636893
6051.069824 1654.533081 6182.427734 0.978369 -0.048878 0.201008
6065.070312 1569.306396 6093.558594 0.978369 -0.048878 0.201008
6084.597656 1944.765381 6089.811523 0.978369 -0.048878 0.201008
5810.848633 2330.671875 6050.259277 0.439557 0.819016 0.368784
4730.310547 2928.923828 6009.530273 0.439557 0.819016 0.368784
4646.307617 2914.204590 6142.343262 0.439557 0.819016 0.368784
5316.680664 1921.099487 6184.648926 -0.383291 -0.826241 0.412813
3973.234619 2592.728760 6281.535645 -0.383291 -0.826241 0.412813
4751.490723 2100.038330 6018.021484 -0.383291 -0.826241 0.412813
4019.216064 2440.067627 6010.649414 -0.389083 -0.829215 0.401269
4751.490723 2100.038330 6018.021484 -0.389083 -0.829215 0.401269
3973.234619 2592.728760 6281.535645 -0.389083 -0.829215 0.401269
4646.307617 2914.204590 6142.343262 0.356159 0.597392 0.718522
5997.848145 2130.158936 6124.276855 0.356159 0.597392 0.718522
5810.848633 2330.671875 6050.259277 0.356159 0.597392 0.718522
3975.531006 3051.730713 6296.472168 -0.926952 0.015824 0.374846
3921.115234 3487.220703 6143.524414 -0.926952 0.015824 0.374846
3885.362061 2565.633057 6094.014648 -0.926952 0.015824 0.374846
3973.234619 2592.728760 6281.535645 -0.904954 -0.009316 0.425408
3975.531006 3051.730713 6296.472168 -0.904954 -0.009316 0.425408
3885.362061 2565.633057 6094.014648 -0.904954 -0.009316 0.425408
4646.307617 2914.204590 6142.343262 0.399835 0.504442 0.765291
3861.379883 3660.059326 6060.807129 0.399835 0.504442 0.765291
3921.115234 3487.220703 6143.524414 0.399835 0.504442 0.765291
6084.597656 1944.765381 6089.811523 0.645659 0.163447 0.745928
5997.848145 2130.158936 6124.276855 0.645659 0.163447 0.745928
6051.069824 1654.533081 6182.427734 0.645659 0.163447 0.745928
5997.848145 2130.158936 6124.276855 0.229228 0.374441 0.898470
4646.307617 2914.204590 6142.343262 0.229228 0.374441 0.898470
4811.189941 2586.592041 6236.810547 0.229228 0.374441 0.898470
4811.189941 2586.592041 6236.810547 0.324822 0.409328 0.852608
4646.307617 2914.204590 6142.343262 0.324822 0.409328 0.852608
3921.115234 3487.220703 6143.524414 0.324822 0.409328 0.852608
6051.069824 1654.533081 6182.427734 -0.164197 -0.459634 0.872798
4885.217773 2210.687744 6255.982422 -0.164197 -0.459634 0.872798
5316.680664 1921.099487 6184.648926 -0.164197 -0.459634 0.872798
6051.069824 1654.533081 6182.427734 0.126067 0.134277 0.982892
5997.848145 2130.158936 6124.276855 0.126067 0.134277 0.982892
4885.217773 2210.687744 6255.982422 0.126067 0.134277 0.982892
5997.848145 2130.158936 6124.276855 0.122548 0.074608 0.989654
4811.189941 2586.592041 6236.810547 0.122548 0.074608 0.989654
4885.217773 2210.687744 6255.982422 0.122548 0.074608 0.989654
4811.189941 2586.592041 6236.810547 0.258409 0.348696 0.900909
3921.115234 3487.220703 6143.524414 0.258409 0.348696 0.900909
3975.531006 3051.730713 6296.472168 0.258409 0.348696 0.900909
4215.116699 2596.553955 6330.120605 0.155325 0.153892 0.975803
4811.189941 2586.592041 6236.810547 0.155325 0.153892 0.975803
3975.531006 3051.730713 6296.472168 0.155325 0.153892 0.975803
4215.116699 2596.553955 6330.120605 -0.187182 -0.488779 0.852090
5316.680664 1921.099487 6184.648926 -0.187182 -0.488779 0.852090
4885.217773 2210.687744 6255.982422 -0.187182 -0.488779 0.852090
5316.680664 1921.099487 6184.648926 -0.167720 -0.461179 0.871311
4215.116699 2596.553955 6330.120605 -0.167720 -0.461179 0.871311
3973.234619 2592.728760 6281.535645 -0.167720 -0.461179 0.871311
4811.189941 2586.592041 6236.810547 0.155470 0.080830 0.984528
4215.116699 2596.553955 6330.120605 0.155470 0.080830 0.984528
4885.217773 2210.687744 6255.982422 0.155470 0.080830 0.984528
4215.116699 2596.553955 6330.120605 -0.196365 -0.030909 0.980044
3975.531006 3051.730713 6296.472168 -0.196365 -0.030909 0.980044
3973.234619 2592.728760 6281.535645 -0.196365 -0.030909 0.980044
3 0 1 2
3 3 4 5
3 6 7 8
3 9 10 11
3 12 13 14
3 15 16 17
3 18 19 20
3 21 22 23
3 24 25 26
3 27 28 29
3 30 31 32
3 33 34 35
3 36 37 38
3 39 40 41
3 42 43 44
3 45 46 47
3 48 49 50
3 51 52 53
3 54 55 56
3 57 58 59
3 60 61 62
3 63 64 65
3 66 67 68
3 69 70 71
3 72 73 74
3 75 76 77
3 78 79 80
3 81 82 83
3 84 85 86
3 87 88 89
3 90 91 92
3 93 94 95
3 96 97 98
3 99 100 101
3 102 103 104
3 105 106 107
3 108 109 110
3 111 112 113
3 114 115 116
3 117 118 119
3 120 121 122
3 123 124 125
3 126 127 128
3 129 130 131
3 132 133 134
3 135 136 137
3 138 139 140
3 141 142 143
3 144 145 146
3 147 148 149
3 150 151 152
3 153 154 155
3 156 157 158
3 159 160 161
3 162 163 164
3 165 166 167
3 168 169 170
3 171 172 173
3 174 175 176
3 177 178 179
3 180 181 182
3 183 184 185
3 186 187 188
3 189 190 191
3 192 193 194
3 195 196 197
3 198 199 200
3 201 202 203
3 204 205 206
3 207 208 209
3 210 211 212
3 213 214 215
3 216 217 218
3 219 220 221
3 222 223 224
3 225 226 227
3 228 229 230
3 231 232 233
3 234 235 236
3 237 238 239
3 240 241 242
3 243 244 245
3 246 247 248
3 249 250 251
3 252 253 254
3 255 256 257
3 258 259 260
3 261 262 263
3 264 265 266
3 267 268 269
3 270 271 272
3 273 274 275
3 276 277 278
3 279 280 281
3 282 283 284
3 285 286 287
3 288 289 290
3 291 292 293
3 294 295 296
3 297 298 299
3 300 301 302
3 303 304 305
3 306 307 308
3 309 310 311
3 312 313 314
3 315 316 317
3 318 319 320
3 321 322 323
3 324 325 326
3 327 328 329
3 330 331 332
3 333 334 335
3 336 337 338
3 339 340 341
3 342 343 344
3 345 346 347
3 348 349 350
3 351 352 353
3 354 355 356
