ply
format ascii 1.0
comment Created by Blender 2.80 (sub 75) - www.blender.org, source file: 'downsample_ccf.blend'
element vertex 432
property float x
property float y
property float z
property float nx
property float ny
property float nz
element face 144
property list uchar uint vertex_indices
end_header
4098.208008 5422.574219 4223.743652 0.016989 0.059123 -0.998106
3652.001221 5275.451172 4207.434082 0.016989 0.059123 -0.998106
3762.622559 5559.880371 4226.165039 0.016989 0.059123 -0.998106
4429.743164 5536.478516 4378.743652 0.207544 0.521843 -0.827409
4098.208008 5422.574219 4223.743652 0.207544 0.521843 -0.827409
3762.622559 5559.880371 4226.165039 0.207544 0.521843 -0.827409
3652.001221 5275.451172 4207.434082 0.262615 -0.726026 -0.635546
4098.208008 5422.574219 4223.743652 0.262615 -0.726026 -0.635546
3914.292480 5244.779297 4350.854492 0.262615 -0.726026 -0.635546
3190.467529 5113.272461 4451.334473 -0.520454 0.256062 -0.814592
3762.622559 5559.880371 4226.165039 -0.520454 0.256062 -0.814592
3652.001221 5275.451172 4207.434082 -0.520454 0.256062 -0.814592
3652.001221 5275.451172 4207.434082 0.187269 -0.832993 -0.520627
3914.292480 5244.779297 4350.854492 0.187269 -0.832993 -0.520627
3355.048096 5045.411621 4468.678711 0.187269 -0.832993 -0.520627
3652.001221 5275.451172 4207.434082 -0.179283 -0.628296 -0.757035
3355.048096 5045.411621 4468.678711 -0.179283 -0.628296 -0.757035
3190.467529 5113.272461 4451.334473 -0.179283 -0.628296 -0.757035
3762.622559 5559.880371 4226.165039 -0.654753 0.623124 -0.427803
3190.467529 5113.272461 4451.334473 -0.654753 0.623124 -0.427803
3775.187500 5626.409668 4303.838867 -0.654753 0.623124 -0.427803
4429.743164 5536.478516 4378.743652 0.175908 0.733408 -0.656635
3762.622559 5559.880371 4226.165039 0.175908 0.733408 -0.656635
3775.187500 5626.409668 4303.838867 0.175908 0.733408 -0.656635
3914.292480 5244.779297 4350.854492 0.201337 -0.851206 -0.484677
3253.987793 4944.768555 4603.450684 0.201337 -0.851206 -0.484677
3355.048096 5045.411621 4468.678711 0.201337 -0.851206 -0.484677
3914.292480 5244.779297 4350.854492 0.447676 -0.266699 0.853497
3719.386963 5301.397949 4470.778320 0.447676 -0.266699 0.853497
3253.987793 4944.768555 4603.450684 0.447676 -0.266699 0.853497
3914.292480 5244.779297 4350.854492 0.227750 -0.711128 -0.665152
4098.208008 5422.574219 4223.743652 0.227750 -0.711128 -0.665152
5088.837402 5160.014160 4843.646973 0.227750 -0.711128 -0.665152
5037.506348 5407.771973 4691.555176 0.443570 -0.075855 -0.893024
4098.208008 5422.574219 4223.743652 0.443570 -0.075855 -0.893024
4429.743164 5536.478516 4378.743652 0.443570 -0.075855 -0.893024
3226.306885 5460.077637 4605.454102 0.101402 0.781557 0.615537
3690.881592 5489.038086 4492.149902 0.101402 0.781557 0.615537
3775.187500 5626.409668 4303.838867 0.101402 0.781557 0.615537
4929.025391 5533.633789 4729.430664 0.157108 0.963702 -0.215861
4429.743164 5536.478516 4378.743652 0.157108 0.963702 -0.215861
3775.187500 5626.409668 4303.838867 0.157108 0.963702 -0.215861
1987.476807 4423.993652 4568.496094 0.763069 -0.384356 -0.519612
1983.588989 4329.183105 4632.917969 0.763069 -0.384356 -0.519612
1816.864136 4161.450195 4512.148438 0.763069 -0.384356 -0.519612
2672.860107 4780.079590 4494.426758 0.318684 -0.858375 -0.402036
3355.048096 5045.411621 4468.678711 0.318684 -0.858375 -0.402036
3253.987793 4944.768555 4603.450684 0.318684 -0.858375 -0.402036
2672.860107 4780.079590 4494.426758 0.031222 -0.175757 -0.983938
3190.467529 5113.272461 4451.334473 0.031222 -0.175757 -0.983938
3355.048096 5045.411621 4468.678711 0.031222 -0.175757 -0.983938
5088.837402 5160.014160 4843.646973 0.399714 -0.417980 -0.815795
4098.208008 5422.574219 4223.743652 0.399714 -0.417980 -0.815795
5037.506348 5407.771973 4691.555176 0.399714 -0.417980 -0.815795
3690.881592 5489.038086 4492.149902 0.037446 0.799259 0.599819
4212.711914 5392.464355 4588.256836 0.037446 0.799259 0.599819
3775.187500 5626.409668 4303.838867 0.037446 0.799259 0.599819
3914.292480 5244.779297 4350.854492 0.045414 -0.872837 0.485894
4212.711914 5392.464355 4588.256836 0.045414 -0.872837 0.485894
3719.386963 5301.397949 4470.778320 0.045414 -0.872837 0.485894
4212.711914 5392.464355 4588.256836 -0.204555 -0.141394 0.968589
3690.881592 5489.038086 4492.149902 -0.204555 -0.141394 0.968589
3719.386963 5301.397949 4470.778320 -0.204555 -0.141394 0.968589
3190.467529 5113.272461 4451.334473 -0.531405 0.389273 -0.752380
3226.306885 5460.077637 4605.454102 -0.531405 0.389273 -0.752380
3775.187500 5626.409668 4303.838867 -0.531405 0.389273 -0.752380
1987.476807 4423.993652 4568.496094 0.723411 -0.408075 -0.556912
2245.698486 4643.719727 4742.914551 0.723411 -0.408075 -0.556912
1983.588989 4329.183105 4632.917969 0.723411 -0.408075 -0.556912
2672.860107 4780.079590 4494.426758 0.466793 -0.842610 0.268540
2350.004639 4637.683594 4608.832031 0.466793 -0.842610 0.268540
1987.476807 4423.993652 4568.496094 0.466793 -0.842610 0.268540
2672.860107 4780.079590 4494.426758 -0.335331 0.411312 -0.847570
3226.306885 5460.077637 4605.454102 -0.335331 0.411312 -0.847570
3190.467529 5113.272461 4451.334473 -0.335331 0.411312 -0.847570
3719.386963 5301.397949 4470.778320 0.315823 -0.059874 0.946927
3690.881592 5489.038086 4492.149902 0.315823 -0.059874 0.946927
3253.987793 4944.768555 4603.450684 0.315823 -0.059874 0.946927
5037.506348 5407.771973 4691.555176 0.463526 0.596653 -0.655095
4429.743164 5536.478516 4378.743652 0.463526 0.596653 -0.655095
4929.025391 5533.633789 4729.430664 0.463526 0.596653 -0.655095
2672.860107 4780.079590 4494.426758 0.360273 -0.923376 -0.132589
2976.385986 4861.049805 4755.280762 0.360273 -0.923376 -0.132589
2350.004639 4637.683594 4608.832031 0.360273 -0.923376 -0.132589
3253.987793 4944.768555 4603.450684 0.276708 -0.960660 -0.023780
2976.385986 4861.049805 4755.280762 0.276708 -0.960660 -0.023780
2672.860107 4780.079590 4494.426758 0.276708 -0.960660 -0.023780
4961.306641 5246.144043 4968.777344 -0.226207 -0.894653 0.385262
3914.292480 5244.779297 4350.854492 -0.226207 -0.894653 0.385262
5088.837402 5160.014160 4843.646973 -0.226207 -0.894653 0.385262
4212.711914 5392.464355 4588.256836 -0.458623 0.196021 0.866742
5078.459961 5439.340332 5035.752441 -0.458623 0.196021 0.866742
3775.187500 5626.409668 4303.838867 -0.458623 0.196021 0.866742
2350.004639 4637.683594 4608.832031 0.438578 -0.815383 0.377888
2245.698486 4643.719727 4742.914551 0.438578 -0.815383 0.377888
1987.476807 4423.993652 4568.496094 0.438578 -0.815383 0.377888
1917.914185 4810.645020 4694.428223 -0.127125 0.286424 -0.949632
1987.476807 4423.993652 4568.496094 -0.127125 0.286424 -0.949632
1816.864136 4161.450195 4512.148438 -0.127125 0.286424 -0.949632
1785.683716 5065.179688 4659.493164 -0.763942 -0.319955 0.560376
1987.476807 4423.993652 4568.496094 -0.763942 -0.319955 0.560376
1917.914185 4810.645020 4694.428223 -0.763942 -0.319955 0.560376
2372.341797 5249.055176 4786.542969 0.234155 -0.077465 -0.969108
1785.683716 5065.179688 4659.493164 0.234155 -0.077465 -0.969108
2081.906250 5419.986328 4702.705078 0.234155 -0.077465 -0.969108
1816.864136 4161.450195 4512.148438 -0.457032 -0.173786 0.872307
1983.588989 4329.183105 4632.917969 -0.457032 -0.173786 0.872307
1917.914185 4810.645020 4694.428223 -0.457032 -0.173786 0.872307
2372.341797 5249.055176 4786.542969 0.152057 0.185629 -0.970784
1987.476807 4423.993652 4568.496094 0.152057 0.185629 -0.970784
1785.683716 5065.179688 4659.493164 0.152057 0.185629 -0.970784
1917.914185 4810.645020 4694.428223 -0.547084 -0.386144 -0.742692
1728.800537 5019.980957 4724.894531 -0.547084 -0.386144 -0.742692
1785.683716 5065.179688 4659.493164 -0.547084 -0.386144 -0.742692
1987.476807 4423.993652 4568.496094 -0.286548 0.367495 -0.884781
2372.341797 5249.055176 4786.542969 -0.286548 0.367495 -0.884781
2672.860107 4780.079590 4494.426758 -0.286548 0.367495 -0.884781
1785.683716 5065.179688 4659.493164 -0.740040 0.642187 -0.199840
1728.800537 5019.980957 4724.894531 -0.740040 0.642187 -0.199840
2081.906250 5419.986328 4702.705078 -0.740040 0.642187 -0.199840
2672.860107 4780.079590 4494.426758 -0.279634 0.372103 -0.885067
2372.341797 5249.055176 4786.542969 -0.279634 0.372103 -0.885067
3226.306885 5460.077637 4605.454102 -0.279634 0.372103 -0.885067
2976.385986 4861.049805 4755.280762 0.271853 -0.928411 0.253276
2245.698486 4643.719727 4742.914551 0.271853 -0.928411 0.253276
2350.004639 4637.683594 4608.832031 0.271853 -0.928411 0.253276
2976.385986 4861.049805 4755.280762 0.521780 -0.252187 0.814952
3253.987793 4944.768555 4603.450684 0.521780 -0.252187 0.814952
3690.881592 5489.038086 4492.149902 0.521780 -0.252187 0.814952
4961.306641 5246.144043 4968.777344 -0.478136 -0.337375 0.810903
4212.711914 5392.464355 4588.256836 -0.478136 -0.337375 0.810903
3914.292480 5244.779297 4350.854492 -0.478136 -0.337375 0.810903
2525.861816 5287.358398 4950.002441 0.370445 -0.032518 0.928285
2976.385986 4861.049805 4755.280762 0.370445 -0.032518 0.928285
3690.881592 5489.038086 4492.149902 0.370445 -0.032518 0.928285
3226.306885 5460.077637 4605.454102 -0.004632 0.973235 0.229767
2757.143555 5406.834961 4821.519043 -0.004632 0.973235 0.229767
3690.881592 5489.038086 4492.149902 -0.004632 0.973235 0.229767
4212.711914 5392.464355 4588.256836 -0.457657 -0.030530 0.888605
4961.306641 5246.144043 4968.777344 -0.457657 -0.030530 0.888605
5078.459961 5439.340332 5035.752441 -0.457657 -0.030530 0.888605
4929.025391 5533.633789 4729.430664 -0.038369 0.949623 0.311036
3775.187500 5626.409668 4303.838867 -0.038369 0.949623 0.311036
5078.459961 5439.340332 5035.752441 -0.038369 0.949623 0.311036
1917.914185 4810.645020 4694.428223 -0.022998 0.123606 -0.992065
1983.588989 4329.183105 4632.917969 -0.022998 0.123606 -0.992065
1728.800537 5019.980957 4724.894531 -0.022998 0.123606 -0.992065
1728.800537 5019.980957 4724.894531 -0.457903 0.446848 0.768539
2344.545410 5398.940430 4871.424805 -0.457903 0.446848 0.768539
2081.906250 5419.986328 4702.705078 -0.457903 0.446848 0.768539
2344.545410 5398.940430 4871.424805 0.497221 0.495533 -0.712192
2372.341797 5249.055176 4786.542969 0.497221 0.495533 -0.712192
2081.906250 5419.986328 4702.705078 0.497221 0.495533 -0.712192
2525.861816 5287.358398 4950.002441 -0.314683 0.148824 0.937457
2344.545410 5398.940430 4871.424805 -0.314683 0.148824 0.937457
1728.800537 5019.980957 4724.894531 -0.314683 0.148824 0.937457
3226.306885 5460.077637 4605.454102 -0.303108 0.839290 -0.451351
2372.341797 5249.055176 4786.542969 -0.303108 0.839290 -0.451351
2757.143555 5406.834961 4821.519043 -0.303108 0.839290 -0.451351
2525.861816 5287.358398 4950.002441 0.270694 0.411754 0.870163
3690.881592 5489.038086 4492.149902 0.270694 0.411754 0.870163
2757.143555 5406.834961 4821.519043 0.270694 0.411754 0.870163
2976.385986 4861.049805 4755.280762 0.084802 -0.338440 0.937159
2525.861816 5287.358398 4950.002441 0.084802 -0.338440 0.937159
2245.698486 4643.719727 4742.914551 0.084802 -0.338440 0.937159
2344.545410 5398.940430 4871.424805 -0.114697 0.473337 -0.873383
2757.143555 5406.834961 4821.519043 -0.114697 0.473337 -0.873383
2372.341797 5249.055176 4786.542969 -0.114697 0.473337 -0.873383
2245.698486 4643.719727 4742.914551 -0.067301 -0.278922 0.957952
2525.861816 5287.358398 4950.002441 -0.067301 -0.278922 0.957952
1983.588989 4329.183105 4632.917969 -0.067301 -0.278922 0.957952
1983.588989 4329.183105 4632.917969 -0.202716 -0.202336 0.958106
2525.861816 5287.358398 4950.002441 -0.202716 -0.202336 0.958106
1728.800537 5019.980957 4724.894531 -0.202716 -0.202336 0.958106
2757.143555 5406.834961 4821.519043 0.078262 0.655889 0.750789
2344.545410 5398.940430 4871.424805 0.078262 0.655889 0.750789
2525.861816 5287.358398 4950.002441 0.078262 0.655889 0.750789
5037.506348 5407.771973 4691.555176 0.711677 0.673509 -0.199751
4929.025391 5533.633789 4729.430664 0.711677 0.673509 -0.199751
5365.225098 5352.950195 5674.313477 0.711677 0.673509 -0.199751
5318.048340 5074.296875 5230.728516 0.835533 -0.151162 -0.528237
5088.837402 5160.014160 4843.646973 0.835533 -0.151162 -0.528237
5037.506348 5407.771973 4691.555176 0.835533 -0.151162 -0.528237
5365.225098 5352.950195 5674.313477 -0.903229 -0.202883 0.378174
4929.025391 5533.633789 4729.430664 -0.903229 -0.202883 0.378174
5078.459961 5439.340332 5035.752441 -0.903229 -0.202883 0.378174
5078.459961 5439.340332 5035.752441 -0.818311 0.334077 0.467717
4961.306641 5246.144043 4968.777344 -0.818311 0.334077 0.467717
5128.415527 5252.811035 5256.386719 -0.818311 0.334077 0.467717
4961.306641 5246.144043 4968.777344 -0.372846 -0.897003 0.237427
5088.837402 5160.014160 4843.646973 -0.372846 -0.897003 0.237427
5128.415527 5252.811035 5256.386719 -0.372846 -0.897003 0.237427
5037.506348 5407.771973 4691.555176 0.909297 0.301936 -0.286379
5365.225098 5352.950195 5674.313477 0.909297 0.301936 -0.286379
5318.048340 5074.296875 5230.728516 0.909297 0.301936 -0.286379
5203.186523 5366.235352 5584.867676 -0.975132 0.000990 0.221624
5078.459961 5439.340332 5035.752441 -0.975132 0.000990 0.221624
5128.415527 5252.811035 5256.386719 -0.975132 0.000990 0.221624
5088.837402 5160.014160 4843.646973 -0.948437 -0.277419 0.153319
5292.166016 4977.933105 5771.981445 -0.948437 -0.277419 0.153319
5128.415527 5252.811035 5256.386719 -0.948437 -0.277419 0.153319
5292.166016 4977.933105 5771.981445 -0.066590 -0.981779 -0.177979
5088.837402 5160.014160 4843.646973 -0.066590 -0.981779 -0.177979
5318.048340 5074.296875 5230.728516 -0.066590 -0.981779 -0.177979
5292.166016 4977.933105 5771.981445 -0.827777 -0.559926 -0.035614
5138.389648 5181.722656 6142.205566 -0.827777 -0.559926 -0.035614
5128.415527 5252.811035 5256.386719 -0.827777 -0.559926 -0.035614
5321.941406 5077.531738 6191.950684 0.986854 -0.161580 -0.003453
5318.048340 5074.296875 5230.728516 0.986854 -0.161580 -0.003453
5365.225098 5352.950195 5674.313477 0.986854 -0.161580 -0.003453
5078.459961 5439.340332 5035.752441 -0.623455 -0.780952 0.037642
5203.186523 5366.235352 5584.867676 -0.623455 -0.780952 0.037642
5182.495117 5407.894531 6106.452637 -0.623455 -0.780952 0.037642
5321.941406 5077.531738 6191.950684 0.961464 -0.274915 -0.002969
5292.166016 4977.933105 5771.981445 0.961464 -0.274915 -0.002969
5318.048340 5074.296875 5230.728516 0.961464 -0.274915 -0.002969
5128.415527 5252.811035 5256.386719 -0.890440 0.452734 0.046359
5138.389648 5181.722656 6142.205566 -0.890440 0.452734 0.046359
5203.186523 5366.235352 5584.867676 -0.890440 0.452734 0.046359
5365.225098 5352.950195 5674.313477 0.288209 0.957568 0.000119
5078.459961 5439.340332 5035.752441 0.288209 0.957568 0.000119
5182.495117 5407.894531 6106.452637 0.288209 0.957568 0.000119
5203.186523 5366.235352 5584.867676 -0.981659 0.182966 -0.053556
5138.389648 5181.722656 6142.205566 -0.981659 0.182966 -0.053556
5182.495117 5407.894531 6106.452637 -0.981659 0.182966 -0.053556
5182.495117 5407.894531 6106.452637 -0.475072 0.825105 -0.305792
5111.688965 5466.710938 6375.157227 -0.475072 0.825105 -0.305792
5365.225098 5352.950195 5674.313477 -0.475072 0.825105 -0.305792
5080.247559 5436.132812 6596.448730 0.792177 0.579112 0.192575
5365.225098 5352.950195 5674.313477 0.792177 0.579112 0.192575
5111.688965 5466.710938 6375.157227 0.792177 0.579112 0.192575
5365.225098 5352.950195 5674.313477 0.909991 0.329650 0.251488
5080.247559 5436.132812 6596.448730 0.909991 0.329650 0.251488
5321.941406 5077.531738 6191.950684 0.909991 0.329650 0.251488
4945.788574 5200.251953 6473.895996 -0.824530 0.275582 -0.494171
5138.389648 5181.722656 6142.205566 -0.824530 0.275582 -0.494171
5292.166016 4977.933105 5771.981445 -0.824530 0.275582 -0.494171
4945.788574 5200.251953 6473.895996 -0.859292 0.087918 -0.503872
5182.495117 5407.894531 6106.452637 -0.859292 0.087918 -0.503872
5138.389648 5181.722656 6142.205566 -0.859292 0.087918 -0.503872
5292.166016 4977.933105 5771.981445 -0.135614 -0.961821 0.237717
5321.941406 5077.531738 6191.950684 -0.135614 -0.961821 0.237717
4945.788574 5200.251953 6473.895996 -0.135614 -0.961821 0.237717
4858.111816 5383.729980 6472.960449 -0.694460 -0.335101 -0.636736
5182.495117 5407.894531 6106.452637 -0.694460 -0.335101 -0.636736
4945.788574 5200.251953 6473.895996 -0.694460 -0.335101 -0.636736
5111.688965 5466.710938 6375.157227 -0.398041 0.868634 -0.295022
5182.495117 5407.894531 6106.452637 -0.398041 0.868634 -0.295022
4858.111816 5383.729980 6472.960449 -0.398041 0.868634 -0.295022
5321.941406 5077.531738 6191.950684 -0.265930 -0.961874 0.063882
5031.672363 5186.144043 6618.992188 -0.265930 -0.961874 0.063882
4945.788574 5200.251953 6473.895996 -0.265930 -0.961874 0.063882
5321.941406 5077.531738 6191.950684 0.809781 -0.105297 0.577206
5080.247559 5436.132812 6596.448730 0.809781 -0.105297 0.577206
5031.672363 5186.144043 6618.992188 0.809781 -0.105297 0.577206
3151.178711 5439.599121 6698.791504 0.130871 0.683205 -0.718404
2480.447510 5286.346680 6430.860840 0.130871 0.683205 -0.718404
2432.849854 5372.332520 6503.962891 0.130871 0.683205 -0.718404
2480.447510 5286.346680 6430.860840 0.154876 0.688269 -0.708730
2317.293945 5445.647461 6549.909180 0.154876 0.688269 -0.708730
2432.849854 5372.332520 6503.962891 0.154876 0.688269 -0.708730
2480.447510 5286.346680 6430.860840 0.069352 -0.325039 -0.943154
2905.847168 4851.041016 6612.160645 0.069352 -0.325039 -0.943154
2145.337402 4587.062988 6647.213379 0.069352 -0.325039 -0.943154
2480.447510 5286.346680 6430.860840 -0.273043 -0.162510 -0.948176
2145.337402 4587.062988 6647.213379 -0.273043 -0.162510 -0.948176
1764.966187 5114.642090 6666.324707 -0.273043 -0.162510 -0.948176
4805.058105 5556.676270 6676.042969 -0.450686 0.618079 -0.644097
5111.688965 5466.710938 6375.157227 -0.450686 0.618079 -0.644097
4858.111816 5383.729980 6472.960449 -0.450686 0.618079 -0.644097
2317.293945 5445.647461 6549.909180 -0.361443 0.291646 -0.885608
2480.447510 5286.346680 6430.860840 -0.361443 0.291646 -0.885608
1764.966187 5114.642090 6666.324707 -0.361443 0.291646 -0.885608
4289.220703 5397.940918 6779.100098 -0.465897 -0.226994 -0.855227
4858.111816 5383.729980 6472.960449 -0.465897 -0.226994 -0.855227
4945.788574 5200.251953 6473.895996 -0.465897 -0.226994 -0.855227
3712.261963 5501.502930 6889.990723 0.248100 0.430964 -0.867592
2480.447510 5286.346680 6430.860840 0.248100 0.430964 -0.867592
3151.178711 5439.599121 6698.791504 0.248100 0.430964 -0.867592
2145.337402 4587.062988 6647.213379 -0.247090 -0.143431 -0.958318
1753.728149 4970.350098 6690.818359 -0.247090 -0.143431 -0.958318
1764.966187 5114.642090 6666.324707 -0.247090 -0.143431 -0.958318
4805.058105 5556.676270 6676.042969 -0.338297 0.670989 -0.659795
4858.111816 5383.729980 6472.960449 -0.338297 0.670989 -0.659795
4289.220703 5397.940918 6779.100098 -0.338297 0.670989 -0.659795
4805.058105 5556.676270 6676.042969 0.438526 0.879709 0.183865
5080.247559 5436.132812 6596.448730 0.438526 0.879709 0.183865
5111.688965 5466.710938 6375.157227 0.438526 0.879709 0.183865
2145.337402 4587.062988 6647.213379 -0.654561 -0.619471 -0.433366
1943.303955 4753.675293 6714.204590 -0.654561 -0.619471 -0.433366
1753.728149 4970.350098 6690.818359 -0.654561 -0.619471 -0.433366
2145.337402 4587.062988 6647.213379 -0.392987 -0.109434 -0.913009
1830.222290 4158.054199 6834.270020 -0.392987 -0.109434 -0.913009
1943.303955 4753.675293 6714.204590 -0.392987 -0.109434 -0.913009
3169.237061 4898.914551 6718.499512 0.377011 -0.017256 -0.926048
2905.847168 4851.041016 6612.160645 0.377011 -0.017256 -0.926048
2480.447510 5286.346680 6430.860840 0.377011 -0.017256 -0.926048
4143.260742 5293.410645 6867.842285 -0.125890 -0.991802 -0.021919
4945.788574 5200.251953 6473.895996 -0.125890 -0.991802 -0.021919
5031.672363 5186.144043 6618.992188 -0.125890 -0.991802 -0.021919
2317.293945 5445.647461 6549.909180 -0.498593 0.618293 -0.607551
1764.966187 5114.642090 6666.324707 -0.498593 0.618293 -0.607551
2054.943359 5387.602539 6706.138672 -0.498593 0.618293 -0.607551
3169.237061 4898.914551 6718.499512 0.357380 -0.056749 -0.932233
2480.447510 5286.346680 6430.860840 0.357380 -0.056749 -0.932233
3712.261963 5501.502930 6889.990723 0.357380 -0.056749 -0.932233
4289.220703 5397.940918 6779.100098 -0.448834 -0.124518 -0.884897
4945.788574 5200.251953 6473.895996 -0.448834 -0.124518 -0.884897
4143.260742 5293.410645 6867.842285 -0.448834 -0.124518 -0.884897
2317.293945 5445.647461 6549.909180 0.523178 -0.081342 0.848333
2054.943359 5387.602539 6706.138672 0.523178 -0.081342 0.848333
1943.303955 4753.675293 6714.204590 0.523178 -0.081342 0.848333
2424.050049 4689.488281 6839.548340 0.535319 0.366980 0.760762
2432.849854 5372.332520 6503.962891 0.535319 0.366980 0.760762
2317.293945 5445.647461 6549.909180 0.535319 0.366980 0.760762
3112.419434 5183.742676 6890.528809 -0.360008 0.415225 0.835453
2432.849854 5372.332520 6503.962891 -0.360008 0.415225 0.835453
2424.050049 4689.488281 6839.548340 -0.360008 0.415225 0.835453
4688.270020 5432.139160 6926.243652 0.643124 -0.056096 0.763705
5031.672363 5186.144043 6618.992188 0.643124 -0.056096 0.763705
5080.247559 5436.132812 6596.448730 0.643124 -0.056096 0.763705
2145.337402 4587.062988 6647.213379 0.713585 -0.644194 -0.275337
2039.898071 4411.199219 6785.409668 0.713585 -0.644194 -0.275337
1830.222290 4158.054199 6834.270020 0.713585 -0.644194 -0.275337
2145.337402 4587.062988 6647.213379 0.564679 -0.691988 -0.449768
2424.050049 4689.488281 6839.548340 0.564679 -0.691988 -0.449768
2039.898071 4411.199219 6785.409668 0.564679 -0.691988 -0.449768
2424.050049 4689.488281 6839.548340 0.328877 -0.944011 0.026143
2145.337402 4587.062988 6647.213379 0.328877 -0.944011 0.026143
2905.847168 4851.041016 6612.160645 0.328877 -0.944011 0.026143
2317.293945 5445.647461 6549.909180 -0.197472 0.326218 0.924439
1943.303955 4753.675293 6714.204590 -0.197472 0.326218 0.924439
2424.050049 4689.488281 6839.548340 -0.197472 0.326218 0.924439
1943.303955 4753.675293 6714.204590 -0.090179 0.028548 0.995516
2054.943359 5387.602539 6706.138672 -0.090179 0.028548 0.995516
1753.728149 4970.350098 6690.818359 -0.090179 0.028548 0.995516
1753.728149 4970.350098 6690.818359 -0.300172 0.182316 0.936300
2054.943359 5387.602539 6706.138672 -0.300172 0.182316 0.936300
1764.966187 5114.642090 6666.324707 -0.300172 0.182316 0.936300
4688.270020 5432.139160 6926.243652 0.463011 0.688141 0.558644
5080.247559 5436.132812 6596.448730 0.463011 0.688141 0.558644
4805.058105 5556.676270 6676.042969 0.463011 0.688141 0.558644
1830.222290 4158.054199 6834.270020 -0.966244 0.212738 0.145312
1842.159668 4168.411621 6898.483398 -0.966244 0.212738 0.145312
1943.303955 4753.675293 6714.204590 -0.966244 0.212738 0.145312
3712.261963 5501.502930 6889.990723 0.750317 -0.657992 -0.063809
3281.970947 5009.266602 6906.174805 0.750317 -0.657992 -0.063809
3169.237061 4898.914551 6718.499512 0.750317 -0.657992 -0.063809
2039.898071 4411.199219 6785.409668 0.765853 -0.641841 -0.038846
1842.159668 4168.411621 6898.483398 0.765853 -0.641841 -0.038846
1830.222290 4158.054199 6834.270020 0.765853 -0.641841 -0.038846
2039.898071 4411.199219 6785.409668 0.558348 -0.677641 -0.478591
2424.050049 4689.488281 6839.548340 0.558348 -0.677641 -0.478591
1842.159668 4168.411621 6898.483398 0.558348 -0.677641 -0.478591
2424.050049 4689.488281 6839.548340 -0.197663 0.325320 0.924714
1943.303955 4753.675293 6714.204590 -0.197663 0.325320 0.924714
1842.159668 4168.411621 6898.483398 -0.197663 0.325320 0.924714
2432.849854 5372.332520 6503.962891 -0.260828 0.603924 0.753157
3112.419434 5183.742676 6890.528809 -0.260828 0.603924 0.753157
3151.178711 5439.599121 6698.791504 -0.260828 0.603924 0.753157
3169.237061 4898.914551 6718.499512 0.241402 -0.955841 -0.167608
2424.050049 4689.488281 6839.548340 0.241402 -0.955841 -0.167608
2905.847168 4851.041016 6612.160645 0.241402 -0.955841 -0.167608
3169.237061 4898.914551 6718.499512 0.305206 -0.889615 0.339756
3281.970947 5009.266602 6906.174805 0.305206 -0.889615 0.339756
2424.050049 4689.488281 6839.548340 0.305206 -0.889615 0.339756
3712.261963 5501.502930 6889.990723 0.128341 0.769409 -0.625730
3151.178711 5439.599121 6698.791504 0.128341 0.769409 -0.625730
3708.723633 5626.205566 7042.601562 0.128341 0.769409 -0.625730
4805.058105 5556.676270 6676.042969 -0.191367 -0.015283 -0.981400
4289.220703 5397.940918 6779.100098 -0.191367 -0.015283 -0.981400
3712.261963 5501.502930 6889.990723 -0.191367 -0.015283 -0.981400
4301.422852 5550.182129 7049.500488 0.399184 0.732783 0.551072
4688.270020 5432.139160 6926.243652 0.399184 0.732783 0.551072
4805.058105 5556.676270 6676.042969 0.399184 0.732783 0.551072
3743.524414 5250.932129 6962.749023 0.242156 -0.242569 -0.939426
3281.970947 5009.266602 6906.174805 0.242156 -0.242569 -0.939426
3712.261963 5501.502930 6889.990723 0.242156 -0.242569 -0.939426
4143.260742 5293.410645 6867.842285 -0.190828 -0.295611 -0.936055
3743.524414 5250.932129 6962.749023 -0.190828 -0.295611 -0.936055
3712.261963 5501.502930 6889.990723 -0.190828 -0.295611 -0.936055
3151.178711 5439.599121 6698.791504 -0.564196 0.548159 0.617418
3112.419434 5183.742676 6890.528809 -0.564196 0.548159 0.617418
3708.723633 5626.205566 7042.601562 -0.564196 0.548159 0.617418
3712.261963 5501.502930 6889.990723 -0.242454 -0.408508 -0.879964
4289.220703 5397.940918 6779.100098 -0.242454 -0.408508 -0.879964
4143.260742 5293.410645 6867.842285 -0.242454 -0.408508 -0.879964
4805.058105 5556.676270 6676.042969 -0.161190 0.762397 -0.626713
3712.261963 5501.502930 6889.990723 -0.161190 0.762397 -0.626713
3708.723633 5626.205566 7042.601562 -0.161190 0.762397 -0.626713
4301.422852 5550.182129 7049.500488 0.122986 0.975424 0.182818
4805.058105 5556.676270 6676.042969 0.122986 0.975424 0.182818
3708.723633 5626.205566 7042.601562 0.122986 0.975424 0.182818
3281.970947 5009.266602 6906.174805 -0.081273 0.010393 0.996638
3112.419434 5183.742676 6890.528809 -0.081273 0.010393 0.996638
2424.050049 4689.488281 6839.548340 -0.081273 0.010393 0.996638
4143.260742 5293.410645 6867.842285 -0.182480 -0.953334 -0.240533
5031.672363 5186.144043 6618.992188 -0.182480 -0.953334 -0.240533
4027.130859 5266.954590 7060.800781 -0.182480 -0.953334 -0.240533
4143.260742 5293.410645 6867.842285 0.085378 -0.992739 -0.084728
4027.130859 5266.954590 7060.800781 0.085378 -0.992739 -0.084728
3743.524414 5250.932129 6962.749023 0.085378 -0.992739 -0.084728
3743.524414 5250.932129 6962.749023 0.460782 -0.887013 0.029787
3587.857178 5174.987305 7109.276367 0.460782 -0.887013 0.029787
3281.970947 5009.266602 6906.174805 0.460782 -0.887013 0.029787
3814.098389 5482.608398 7204.882812 -0.517211 0.445980 0.730475
3708.723633 5626.205566 7042.601562 -0.517211 0.445980 0.730475
3112.419434 5183.742676 6890.528809 -0.517211 0.445980 0.730475
3743.524414 5250.932129 6962.749023 0.161299 -0.935744 -0.313634
4027.130859 5266.954590 7060.800781 0.161299 -0.935744 -0.313634
3587.857178 5174.987305 7109.276367 0.161299 -0.935744 -0.313634
3587.857178 5174.987305 7109.276367 -0.401703 -0.313196 0.860548
3112.419434 5183.742676 6890.528809 -0.401703 -0.313196 0.860548
3281.970947 5009.266602 6906.174805 -0.401703 -0.313196 0.860548
4027.130859 5266.954590 7060.800781 0.296880 -0.555600 0.776641
5031.672363 5186.144043 6618.992188 0.296880 -0.555600 0.776641
4688.270020 5432.139160 6926.243652 0.296880 -0.555600 0.776641
3587.857178 5174.987305 7109.276367 -0.417475 0.024724 0.908352
3814.098389 5482.608398 7204.882812 -0.417475 0.024724 0.908352
3112.419434 5183.742676 6890.528809 -0.417475 0.024724 0.908352
4688.270020 5432.139160 6926.243652 0.303718 0.000491 0.952762
4301.422852 5550.182129 7049.500488 0.303718 0.000491 0.952762
3814.098389 5482.608398 7204.882812 0.303718 0.000491 0.952762
4688.270020 5432.139160 6926.243652 0.268054 -0.337965 0.902179
3814.098389 5482.608398 7204.882812 0.268054 -0.337965 0.902179
4027.130859 5266.954590 7060.800781 0.268054 -0.337965 0.902179
4301.422852 5550.182129 7049.500488 0.092078 0.774640 0.625663
3708.723633 5626.205566 7042.601562 0.092078 0.774640 0.625663
3814.098389 5482.608398 7204.882812 0.092078 0.774640 0.625663
4027.130859 5266.954590 7060.800781 0.184895 -0.413119 0.891710
3814.098389 5482.608398 7204.882812 0.184895 -0.413119 0.891710
3587.857178 5174.987305 7109.276367 0.184895 -0.413119 0.891710
3 0 1 2
3 3 4 5
3 6 7 8
3 9 10 11
3 12 13 14
3 15 16 17
3 18 19 20
3 21 22 23
3 24 25 26
3 27 28 29
3 30 31 32
3 33 34 35
3 36 37 38
3 39 40 41
3 42 43 44
3 45 46 47
3 48 49 50
3 51 52 53
3 54 55 56
3 57 58 59
3 60 61 62
3 63 64 65
3 66 67 68
3 69 70 71
3 72 73 74
3 75 76 77
3 78 79 80
3 81 82 83
3 84 85 86
3 87 88 89
3 90 91 92
3 93 94 95
3 96 97 98
3 99 100 101
3 102 103 104
3 105 106 107
3 108 109 110
3 111 112 113
3 114 115 116
3 117 118 119
3 120 121 122
3 123 124 125
3 126 127 128
3 129 130 131
3 132 133 134
3 135 136 137
3 138 139 140
3 141 142 143
3 144 145 146
3 147 148 149
3 150 151 152
3 153 154 155
3 156 157 158
3 159 160 161
3 162 163 164
3 165 166 167
3 168 169 170
3 171 172 173
3 174 175 176
3 177 178 179
3 180 181 182
3 183 184 185
3 186 187 188
3 189 190 191
3 192 193 194
3 195 196 197
3 198 199 200
3 201 202 203
3 204 205 206
3 207 208 209
3 210 211 212
3 213 214 215
3 216 217 218
3 219 220 221
3 222 223 224
3 225 226 227
3 228 229 230
3 231 232 233
3 234 235 236
3 237 238 239
3 240 241 242
3 243 244 245
3 246 247 248
3 249 250 251
3 252 253 254
3 255 256 257
3 258 259 260
3 261 262 263
3 264 265 266
3 267 268 269
3 270 271 272
3 273 274 275
3 276 277 278
3 279 280 281
3 282 283 284
3 285 286 287
3 288 289 290
3 291 292 293
3 294 295 296
3 297 298 299
3 300 301 302
3 303 304 305
3 306 307 308
3 309 310 311
3 312 313 314
3 315 316 317
3 318 319 320
3 321 322 323
3 324 325 326
3 327 328 329
3 330 331 332
3 333 334 335
3 336 337 338
3 339 340 341
3 342 343 344
3 345 346 347
3 348 349 350
3 351 352 353
3 354 355 356
3 357 358 359
3 360 361 362
3 363 364 365
3 366 367 368
3 369 370 371
3 372 373 374
3 375 376 377
3 378 379 380
3 381 382 383
3 384 385 386
3 387 388 389
3 390 391 392
3 393 394 395
3 396 397 398
3 399 400 401
3 402 403 404
3 405 406 407
3 408 409 410
3 411 412 413
3 414 415 416
3 417 418 419
3 420 421 422
3 423 424 425
3 426 427 428
3 429 430 431
