ply
format ascii 1.0
comment Created by Blender 2.80 (sub 75) - www.blender.org, source file: 'downsample_ccf.blend'
element vertex 78
property float x
property float y
property float z
property float nx
property float ny
property float nz
element face 26
property list uchar uint vertex_indices
end_header
4524.657227 4554.661621 2663.996582 -0.511655 0.856444 0.068655
4481.730469 4519.708496 2780.108643 -0.511655 0.856444 0.068655
4633.062988 4620.421387 2651.568848 -0.511655 0.856444 0.068655
4633.062988 4620.421387 2651.568848 -0.720952 0.267300 -0.639358
4481.730469 4519.708496 2780.108643 -0.720952 0.267300 -0.639358
4375.702637 4525.160156 2901.946777 -0.720952 0.267300 -0.639358
4524.657227 4554.661621 2663.996582 0.840104 0.082465 0.536121
4375.702637 4525.160156 2901.946777 0.840104 0.082465 0.536121
4397.619629 4418.686523 2883.980225 0.840104 0.082465 0.536121
3983.584229 4357.213379 3346.906738 -0.738374 -0.074410 -0.670273
4481.730469 4519.708496 2780.108643 -0.738374 -0.074410 -0.670273
4397.619629 4418.686523 2883.980225 -0.738374 -0.074410 -0.670273
3913.608887 4252.362793 3371.784180 0.705247 0.025618 0.708498
4397.619629 4418.686523 2883.980225 0.705247 0.025618 0.708498
4375.702637 4525.160156 2901.946777 0.705247 0.025618 0.708498
3983.584229 4357.213379 3346.906738 0.760020 -0.382572 0.525364
3913.608887 4252.362793 3371.784180 0.760020 -0.382572 0.525364
4375.702637 4525.160156 2901.946777 0.760020 -0.382572 0.525364
3983.584229 4357.213379 3346.906738 -0.747441 0.133543 -0.650768
4397.619629 4418.686523 2883.980225 -0.747441 0.133543 -0.650768
3963.671631 4062.000488 3309.197266 -0.747441 0.133543 -0.650768
3983.584229 4357.213379 3346.906738 -0.894265 0.115548 -0.432363
3963.671631 4062.000488 3309.197266 -0.894265 0.115548 -0.432363
3775.060547 3907.633545 3658.050781 -0.894265 0.115548 -0.432363
3728.466064 3739.087158 3755.468506 0.863530 0.062577 0.500400
3963.671631 4062.000488 3309.197266 0.863530 0.062577 0.500400
3913.608887 4252.362793 3371.784180 0.863530 0.062577 0.500400
3728.466064 3739.087158 3755.468506 0.895455 0.009685 0.445047
3913.608887 4252.362793 3371.784180 0.895455 0.009685 0.445047
3775.060547 3907.633545 3658.050781 0.895455 0.009685 0.445047
3728.466064 3739.087158 3755.468506 0.911563 -0.014503 0.410905
3775.060547 3907.633545 3658.050781 0.911563 -0.014503 0.410905
3654.388184 3612.833008 3915.348877 0.911563 -0.014503 0.410905
3684.479736 3604.248047 3930.237061 0.093614 0.780868 0.617642
3963.671631 4062.000488 3309.197266 0.093614 0.780868 0.617642
3645.943848 3608.389160 3930.842285 0.093614 0.780868 0.617642
3684.479736 3604.248047 3930.237061 -0.802011 -0.248040 -0.543373
3775.060547 3907.633545 3658.050781 -0.802011 -0.248040 -0.543373
3963.671631 4062.000488 3309.197266 -0.802011 -0.248040 -0.543373
3963.671631 4062.000488 3309.197266 -0.867975 -0.066478 -0.492138
3654.388184 3612.833008 3915.348877 -0.867975 -0.066478 -0.492138
3645.943848 3608.389160 3930.842285 -0.867975 -0.066478 -0.492138
3654.388184 3612.833008 3915.348877 0.540061 0.520574 0.661315
3963.671631 4062.000488 3309.197266 0.540061 0.520574 0.661315
3728.466064 3739.087158 3755.468506 0.540061 0.520574 0.661315
3654.388184 3612.833008 3915.348877 0.156568 -0.685052 -0.711471
3775.060547 3907.633545 3658.050781 0.156568 -0.685052 -0.711471
3684.479736 3604.248047 3930.237061 0.156568 -0.685052 -0.711471
4244.903320 4350.114258 8419.688477 0.894554 -0.338292 -0.292115
3656.581299 3570.176514 7521.277344 0.894554 -0.338292 -0.292115
3593.774414 3533.330811 7371.611816 0.894554 -0.338292 -0.292115
3656.562744 3551.372559 7569.368164 -0.886750 0.391459 0.245833
4244.903320 4350.114258 8419.688477 -0.886750 0.391459 0.245833
3593.774414 3533.330811 7371.611816 -0.886750 0.391459 0.245833
3656.581299 3570.176514 7521.277344 -0.796674 -0.087875 0.597987
4244.903320 4350.114258 8419.688477 -0.796674 -0.087875 0.597987
3889.969971 4223.426758 7928.208008 -0.796674 -0.087875 0.597987
4079.279541 4405.475098 8195.780273 0.803224 0.038433 -0.594436
3656.562744 3551.372559 7569.368164 0.803224 0.038433 -0.594436
3889.969971 4223.426758 7928.208008 0.803224 0.038433 -0.594436
4079.279541 4405.475098 8195.780273 -0.620490 -0.370578 0.691132
3889.969971 4223.426758 7928.208008 -0.620490 -0.370578 0.691132
4370.134277 4505.843750 8510.722656 -0.620490 -0.370578 0.691132
4244.903320 4350.114258 8419.688477 -0.798134 0.358978 0.483857
4370.134277 4505.843750 8510.722656 -0.798134 0.358978 0.483857
3889.969971 4223.426758 7928.208008 -0.798134 0.358978 0.483857
4079.279541 4405.475098 8195.780273 0.807361 0.032517 -0.589161
4244.903320 4350.114258 8419.688477 0.807361 0.032517 -0.589161
3656.562744 3551.372559 7569.368164 0.807361 0.032517 -0.589161
4244.903320 4350.114258 8419.688477 0.767774 -0.184584 -0.613557
4079.279541 4405.475098 8195.780273 0.767774 -0.184584 -0.613557
4451.761719 4501.810059 8632.904297 0.767774 -0.184584 -0.613557
4370.134277 4505.843750 8510.722656 0.705973 -0.512734 -0.488576
4451.761719 4501.810059 8632.904297 0.705973 -0.512734 -0.488576
4079.279541 4405.475098 8195.780273 0.705973 -0.512734 -0.488576
4563.392578 4542.666992 8659.624023 -0.613899 0.032618 0.788710
4370.134277 4505.843750 8510.722656 -0.613899 0.032618 0.788710
4244.903320 4350.114258 8419.688477 -0.613899 0.032618 0.788710
3 0 1 2
3 3 4 5
3 6 7 8
3 9 10 11
3 12 13 14
3 15 16 17
3 18 19 20
3 21 22 23
3 24 25 26
3 27 28 29
3 30 31 32
3 33 34 35
3 36 37 38
3 39 40 41
3 42 43 44
3 45 46 47
3 48 49 50
3 51 52 53
3 54 55 56
3 57 58 59
3 60 61 62
3 63 64 65
3 66 67 68
3 69 70 71
3 72 73 74
3 75 76 77
