ply
format ascii 1.0
comment Created by Blender 2.80 (sub 75) - www.blender.org, source file: 'downsample_ccf.blend'
element vertex 336
property float x
property float y
property float z
property float nx
property float ny
property float nz
element face 112
property list uchar uint vertex_indices
end_header
6963.915039 4834.972168 900.611267 0.104143 0.223707 -0.969077
6883.156250 4794.657715 882.626038 0.104143 0.223707 -0.969077
6763.239746 4936.577637 902.500732 0.104143 0.223707 -0.969077
6883.156250 4794.657715 882.626038 0.479583 -0.807519 -0.343384
6963.915039 4834.972168 900.611267 0.479583 -0.807519 -0.343384
6959.848633 4760.104004 1070.995605 0.479583 -0.807519 -0.343384
6763.239746 4936.577637 902.500732 -0.181519 -0.015679 -0.983262
6883.156250 4794.657715 882.626038 -0.181519 -0.015679 -0.983262
6205.735840 4936.364258 1005.424377 -0.181519 -0.015679 -0.983262
7019.690430 5139.749512 1023.367615 0.164669 0.342431 -0.925000
6963.915039 4834.972168 900.611267 0.164669 0.342431 -0.925000
6763.239746 4936.577637 902.500732 0.164669 0.342431 -0.925000
5814.904785 5066.941895 1123.860962 -0.171575 0.328796 -0.928685
6763.239746 4936.577637 902.500732 -0.171575 0.328796 -0.928685
6205.735840 4936.364258 1005.424377 -0.171575 0.328796 -0.928685
6763.239746 4936.577637 902.500732 0.040642 0.472459 -0.880415
6875.542480 5294.409180 1099.708740 0.040642 0.472459 -0.880415
7019.690430 5139.749512 1023.367615 0.040642 0.472459 -0.880415
6763.239746 4936.577637 902.500732 -0.128606 0.509318 -0.850915
5814.904785 5066.941895 1123.860962 -0.128606 0.509318 -0.850915
6875.542480 5294.409180 1099.708740 -0.128606 0.509318 -0.850915
6243.696777 4868.235352 1133.969727 -0.158218 -0.980630 -0.115466
6883.156250 4794.657715 882.626038 -0.158218 -0.980630 -0.115466
6959.848633 4760.104004 1070.995605 -0.158218 -0.980630 -0.115466
6205.735840 4936.364258 1005.424377 -0.255957 -0.883375 -0.392601
6883.156250 4794.657715 882.626038 -0.255957 -0.883375 -0.392601
6243.696777 4868.235352 1133.969727 -0.255957 -0.883375 -0.392601
5905.273926 4959.707520 1072.287598 -0.185754 0.294331 -0.937478
5814.904785 5066.941895 1123.860962 -0.185754 0.294331 -0.937478
6205.735840 4936.364258 1005.424377 -0.185754 0.294331 -0.937478
5905.273926 4959.707520 1072.287598 -0.163533 -0.890845 -0.423854
6205.735840 4936.364258 1005.424377 -0.163533 -0.890845 -0.423854
6243.696777 4868.235352 1133.969727 -0.163533 -0.890845 -0.423854
5905.273926 4959.707520 1072.287598 -0.341529 0.157791 -0.926531
5419.560059 5003.398438 1258.767700 -0.341529 0.157791 -0.926531
5814.904785 5066.941895 1123.860962 -0.341529 0.157791 -0.926531
6959.848633 4760.104004 1070.995605 0.953434 -0.283842 -0.101968
6963.915039 4834.972168 900.611267 0.953434 -0.283842 -0.101968
7056.652832 5035.573242 1209.338989 0.953434 -0.283842 -0.101968
6963.915039 4834.972168 900.611267 0.967878 -0.081301 -0.237911
7019.690430 5139.749512 1023.367615 0.967878 -0.081301 -0.237911
7056.652832 5035.573242 1209.338989 0.967878 -0.081301 -0.237911
7019.690430 5139.749512 1023.367615 0.743678 0.666330 0.054299
6875.542480 5294.409180 1099.708740 0.743678 0.666330 0.054299
6968.065430 5174.373535 1305.533081 0.743678 0.666330 0.054299
6968.065430 5174.373535 1305.533081 0.868570 0.485508 0.099338
7056.652832 5035.573242 1209.338989 0.868570 0.485508 0.099338
7019.690430 5139.749512 1023.367615 0.868570 0.485508 0.099338
6875.542480 5294.409180 1099.708740 0.320548 0.938957 0.124937
6436.209961 5418.424805 1294.860229 0.320548 0.938957 0.124937
6720.977051 5298.505371 1465.487427 0.320548 0.938957 0.124937
6243.696777 4868.235352 1133.969727 -0.142903 -0.987253 0.070069
6959.848633 4760.104004 1070.995605 -0.142903 -0.987253 0.070069
6134.889160 4891.427246 1238.827637 -0.142903 -0.987253 0.070069
5419.560059 5003.398438 1258.767700 -0.349651 -0.496787 -0.794322
5905.273926 4959.707520 1072.287598 -0.349651 -0.496787 -0.794322
4846.083984 4948.641602 1545.451172 -0.349651 -0.496787 -0.794322
5905.273926 4959.707520 1072.287598 -0.170022 -0.899875 -0.401644
6243.696777 4868.235352 1133.969727 -0.170022 -0.899875 -0.401644
4846.083984 4948.641602 1545.451172 -0.170022 -0.899875 -0.401644
6959.848633 4760.104004 1070.995605 0.102228 -0.474898 0.874083
7056.652832 5035.573242 1209.338989 0.102228 -0.474898 0.874083
6134.889160 4891.427246 1238.827637 0.102228 -0.474898 0.874083
6968.065430 5174.373535 1305.533081 0.549020 0.805518 0.222976
6875.542480 5294.409180 1099.708740 0.549020 0.805518 0.222976
6720.977051 5298.505371 1465.487427 0.549020 0.805518 0.222976
6436.209961 5418.424805 1294.860229 -0.154239 0.639190 -0.753423
6875.542480 5294.409180 1099.708740 -0.154239 0.639190 -0.753423
5814.904785 5066.941895 1123.860962 -0.154239 0.639190 -0.753423
6243.696777 4868.235352 1133.969727 0.015288 -0.972827 0.231028
6134.889160 4891.427246 1238.827637 0.015288 -0.972827 0.231028
5565.864258 4922.087891 1405.588989 0.015288 -0.972827 0.231028
6436.209961 5418.424805 1294.860229 -0.171954 0.659828 -0.731477
5814.904785 5066.941895 1123.860962 -0.171954 0.659828 -0.731477
5435.643555 5444.154297 1553.280884 -0.171954 0.659828 -0.731477
5565.864258 4922.087891 1405.588989 0.003107 -0.979395 0.201932
4846.083984 4948.641602 1545.451172 0.003107 -0.979395 0.201932
6243.696777 4868.235352 1133.969727 0.003107 -0.979395 0.201932
7056.652832 5035.573242 1209.338989 0.108243 -0.518676 0.848091
6968.065430 5174.373535 1305.533081 0.108243 -0.518676 0.848091
6134.889160 4891.427246 1238.827637 0.108243 -0.518676 0.848091
4839.188965 5424.921387 1785.054199 -0.350416 0.503531 -0.789725
5814.904785 5066.941895 1123.860962 -0.350416 0.503531 -0.789725
5419.560059 5003.398438 1258.767700 -0.350416 0.503531 -0.789725
6720.977051 5298.505371 1465.487427 0.208626 0.929251 0.304907
6436.209961 5418.424805 1294.860229 0.208626 0.929251 0.304907
6026.219727 5456.784668 1458.479736 0.208626 0.929251 0.304907
4839.188965 5424.921387 1785.054199 -0.316482 0.556408 -0.768277
5435.643555 5444.154297 1553.280884 -0.316482 0.556408 -0.768277
5814.904785 5066.941895 1123.860962 -0.316482 0.556408 -0.768277
6968.065430 5174.373535 1305.533081 0.162963 -0.654023 0.738713
6412.670898 5318.276855 1555.460815 0.162963 -0.654023 0.738713
6134.889160 4891.427246 1238.827637 0.162963 -0.654023 0.738713
4846.083984 4948.641602 1545.451172 -0.082436 -0.967109 -0.240633
5565.864258 4922.087891 1405.588989 -0.082436 -0.967109 -0.240633
5097.403320 4912.475098 1604.708130 -0.082436 -0.967109 -0.240633
4846.083984 4948.641602 1545.451172 -0.440278 0.398411 -0.804627
4839.188965 5424.921387 1785.054199 -0.440278 0.398411 -0.804627
5419.560059 5003.398438 1258.767700 -0.440278 0.398411 -0.804627
6436.209961 5418.424805 1294.860229 -0.088597 0.897329 -0.432378
5435.643555 5444.154297 1553.280884 -0.088597 0.897329 -0.432378
6026.219727 5456.784668 1458.479736 -0.088597 0.897329 -0.432378
6412.670898 5318.276855 1555.460815 0.183084 -0.619355 0.763466
6968.065430 5174.373535 1305.533081 0.183084 -0.619355 0.763466
6720.977051 5298.505371 1465.487427 0.183084 -0.619355 0.763466
5848.447754 5393.076172 1671.299805 0.196618 0.882002 0.428268
6720.977051 5298.505371 1465.487427 0.196618 0.882002 0.428268
6026.219727 5456.784668 1458.479736 0.196618 0.882002 0.428268
5097.403320 4912.475098 1604.708130 -0.030259 -0.905115 -0.424089
4661.308594 4895.439453 1672.182007 -0.030259 -0.905115 -0.424089
4846.083984 4948.641602 1545.451172 -0.030259 -0.905115 -0.424089
4846.083984 4948.641602 1545.451172 -0.462740 0.393042 -0.794600
4660.646484 5345.680176 1849.833374 -0.462740 0.393042 -0.794600
4839.188965 5424.921387 1785.054199 -0.462740 0.393042 -0.794600
6134.889160 4891.427246 1238.827637 0.076449 -0.625643 0.776354
6412.670898 5318.276855 1555.460815 0.076449 -0.625643 0.776354
5848.447754 5393.076172 1671.299805 0.076449 -0.625643 0.776354
6720.977051 5298.505371 1465.487427 0.225391 0.764117 0.604420
5848.447754 5393.076172 1671.299805 0.225391 0.764117 0.604420
6412.670898 5318.276855 1555.460815 0.225391 0.764117 0.604420
5565.864258 4922.087891 1405.588989 0.186071 -0.633156 0.751326
6134.889160 4891.427246 1238.827637 0.186071 -0.633156 0.751326
5213.895996 5348.354004 1851.978638 0.186071 -0.633156 0.751326
4846.083984 4948.641602 1545.451172 -0.596739 0.293760 -0.746732
4661.308594 4895.439453 1672.182007 -0.596739 0.293760 -0.746732
4660.646484 5345.680176 1849.833374 -0.596739 0.293760 -0.746732
5213.895996 5348.354004 1851.978638 0.265702 -0.537964 0.799998
6134.889160 4891.427246 1238.827637 0.265702 -0.537964 0.799998
5848.447754 5393.076172 1671.299805 0.265702 -0.537964 0.799998
4774.801270 4871.159668 1754.279053 -0.005299 -0.960897 -0.276855
4661.308594 4895.439453 1672.182007 -0.005299 -0.960897 -0.276855
5097.403320 4912.475098 1604.708130 -0.005299 -0.960897 -0.276855
4839.188965 5424.921387 1785.054199 -0.013727 0.998774 0.047555
6026.219727 5456.784668 1458.479736 -0.013727 0.998774 0.047555
5435.643555 5444.154297 1553.280884 -0.013727 0.998774 0.047555
5848.447754 5393.076172 1671.299805 0.110290 0.923080 0.368455
6026.219727 5456.784668 1458.479736 0.110290 0.923080 0.368455
5198.954590 5405.244629 1835.228760 0.110290 0.923080 0.368455
6026.219727 5456.784668 1458.479736 0.026743 0.980853 0.192904
4839.188965 5424.921387 1785.054199 0.026743 0.980853 0.192904
5198.954590 5405.244629 1835.228760 0.026743 0.980853 0.192904
5097.403320 4912.475098 1604.708130 0.340648 -0.531140 0.775789
5565.864258 4922.087891 1405.588989 0.340648 -0.531140 0.775789
5213.895996 5348.354004 1851.978638 0.340648 -0.531140 0.775789
4774.801270 4871.159668 1754.279053 -0.587295 -0.432934 0.683851
4738.231934 5316.333008 2004.704346 -0.587295 -0.432934 0.683851
4661.308594 4895.439453 1672.182007 -0.587295 -0.432934 0.683851
4774.801270 4871.159668 1754.279053 0.411549 -0.530427 0.741131
5097.403320 4912.475098 1604.708130 0.411549 -0.530427 0.741131
5213.895996 5348.354004 1851.978638 0.411549 -0.530427 0.741131
5198.954590 5405.244629 1835.228760 0.236744 0.331106 0.913412
5213.895996 5348.354004 1851.978638 0.236744 0.331106 0.913412
5848.447754 5393.076172 1671.299805 0.236744 0.331106 0.913412
4660.646484 5345.680176 1849.833374 -0.893943 -0.165633 0.416451
4661.308594 4895.439453 1672.182007 -0.893943 -0.165633 0.416451
4738.231934 5316.333008 2004.704346 -0.893943 -0.165633 0.416451
4738.231934 5316.333008 2004.704346 0.013994 -0.489362 0.871968
4774.801270 4871.159668 1754.279053 0.013994 -0.489362 0.871968
4803.933105 5333.966797 2013.546265 0.013994 -0.489362 0.871968
4738.231934 5316.333008 2004.704346 -0.287088 0.904550 0.315229
4839.188965 5424.921387 1785.054199 -0.287088 0.904550 0.315229
4660.646484 5345.680176 1849.833374 -0.287088 0.904550 0.315229
4839.188965 5424.921387 1785.054199 -0.000748 0.929135 0.369740
4803.933105 5333.966797 2013.546265 -0.000748 0.929135 0.369740
5198.954590 5405.244629 1835.228760 -0.000748 0.929135 0.369740
4803.933105 5333.966797 2013.546265 0.336824 -0.476230 0.812253
4774.801270 4871.159668 1754.279053 0.336824 -0.476230 0.812253
5213.895996 5348.354004 1851.978638 0.336824 -0.476230 0.812253
5213.895996 5348.354004 1851.978638 0.333506 0.345809 0.877035
5198.954590 5405.244629 1835.228760 0.333506 0.345809 0.877035
4803.933105 5333.966797 2013.546265 0.333506 0.345809 0.877035
4738.231934 5316.333008 2004.704346 -0.285380 0.904777 0.316126
4803.933105 5333.966797 2013.546265 -0.285380 0.904777 0.316126
4839.188965 5424.921387 1785.054199 -0.285380 0.904777 0.316126
4779.156738 5326.431641 9363.240234 0.159523 0.770622 -0.617004
4703.689941 5389.178223 9422.097656 0.159523 0.770622 -0.617004
5122.704102 5361.318848 9495.635742 0.159523 0.770622 -0.617004
4755.042480 5149.548340 9463.366211 -0.720236 -0.264775 -0.641214
4703.689941 5389.178223 9422.097656 -0.720236 -0.264775 -0.641214
4779.156738 5326.431641 9363.240234 -0.720236 -0.264775 -0.641214
4755.042480 5149.548340 9463.366211 0.355567 -0.496661 -0.791770
4779.156738 5326.431641 9363.240234 0.355567 -0.496661 -0.791770
5122.704102 5361.318848 9495.635742 0.355567 -0.496661 -0.791770
4635.566895 5091.855469 9656.787109 -0.900160 0.377604 0.217090
4739.963379 5403.866699 9546.956055 -0.900160 0.377604 0.217090
4703.689941 5389.178223 9422.097656 -0.900160 0.377604 0.217090
4755.042480 5149.548340 9463.366211 -0.697706 -0.264196 -0.665888
4736.660645 4895.967773 9583.236328 -0.697706 -0.264196 -0.665888
4703.689941 5389.178223 9422.097656 -0.697706 -0.264196 -0.665888
4703.689941 5389.178223 9422.097656 -0.820501 -0.226349 -0.524923
4736.660645 4895.967773 9583.236328 -0.820501 -0.226349 -0.524923
4635.566895 5091.855469 9656.787109 -0.820501 -0.226349 -0.524923
5643.969727 5386.605957 9659.078125 0.301615 -0.073162 -0.950619
5122.704102 5361.318848 9495.635742 0.301615 -0.073162 -0.950619
5922.011230 5405.131348 9745.870117 0.301615 -0.073162 -0.950619
5122.704102 5361.318848 9495.635742 0.133373 0.897741 -0.419848
4703.689941 5389.178223 9422.097656 0.133373 0.897741 -0.419848
5313.941895 5461.793457 9771.226562 0.133373 0.897741 -0.419848
4755.042480 5149.548340 9463.366211 0.416267 -0.413069 -0.809998
5416.756836 4935.119629 9912.779297 0.416267 -0.413069 -0.809998
4736.660645 4895.967773 9583.236328 0.416267 -0.413069 -0.809998
5416.756836 4935.119629 9912.779297 0.363063 -0.511667 -0.778705
4755.042480 5149.548340 9463.366211 0.363063 -0.511667 -0.778705
5122.704102 5361.318848 9495.635742 0.363063 -0.511667 -0.778705
4736.660645 4895.967773 9583.236328 -0.886465 -0.339323 -0.314705
4686.863770 4893.205078 9726.483398 -0.886465 -0.339323 -0.314705
4635.566895 5091.855469 9656.787109 -0.886465 -0.339323 -0.314705
4703.689941 5389.178223 9422.097656 -0.061570 0.993186 -0.098952
4739.963379 5403.866699 9546.956055 -0.061570 0.993186 -0.098952
5313.941895 5461.793457 9771.226562 -0.061570 0.993186 -0.098952
5922.011230 5405.131348 9745.870117 0.069775 0.920663 -0.384072
5122.704102 5361.318848 9495.635742 0.069775 0.920663 -0.384072
5313.941895 5461.793457 9771.226562 0.069775 0.920663 -0.384072
4635.566895 5091.855469 9656.787109 -0.437803 0.425315 0.792108
5429.566406 5035.827637 10125.719727 -0.437803 0.425315 0.792108
4739.963379 5403.866699 9546.956055 -0.437803 0.425315 0.792108
4736.660645 4895.967773 9583.236328 0.057173 -0.998364 0.000620
5416.756836 4935.119629 9912.779297 0.057173 -0.998364 0.000620
4686.863770 4893.205078 9726.483398 0.057173 -0.998364 0.000620
5313.941895 5461.793457 9771.226562 -0.353031 0.540013 0.764038
4739.963379 5403.866699 9546.956055 -0.353031 0.540013 0.764038
5429.566406 5035.827637 10125.719727 -0.353031 0.540013 0.764038
6523.235840 5315.120605 9854.280273 0.225892 0.506939 -0.831857
5643.969727 5386.605957 9659.078125 0.225892 0.506939 -0.831857
5922.011230 5405.131348 9745.870117 0.225892 0.506939 -0.831857
5122.704102 5361.318848 9495.635742 0.270627 -0.571509 -0.774686
5643.969727 5386.605957 9659.078125 0.270627 -0.571509 -0.774686
5416.756836 4935.119629 9912.779297 0.270627 -0.571509 -0.774686
4686.863770 4893.205078 9726.483398 -0.500596 0.168637 0.849097
5087.195312 4957.278809 9949.778320 -0.500596 0.168637 0.849097
4635.566895 5091.855469 9656.787109 -0.500596 0.168637 0.849097
6523.235840 5315.120605 9854.280273 0.206243 0.891324 -0.403739
5922.011230 5405.131348 9745.870117 0.206243 0.891324 -0.403739
6340.569824 5437.349121 10030.809570 0.206243 0.891324 -0.403739
5922.011230 5405.131348 9745.870117 0.080876 0.970179 -0.228499
5313.941895 5461.793457 9771.226562 0.080876 0.970179 -0.228499
6340.569824 5437.349121 10030.809570 0.080876 0.970179 -0.228499
5087.195312 4957.278809 9949.778320 -0.485076 0.216625 0.847216
5429.566406 5035.827637 10125.719727 -0.485076 0.216625 0.847216
4635.566895 5091.855469 9656.787109 -0.485076 0.216625 0.847216
6811.631348 5260.068848 9959.965820 0.290365 0.900691 -0.323178
6523.235840 5315.120605 9854.280273 0.290365 0.900691 -0.323178
6340.569824 5437.349121 10030.809570 0.290365 0.900691 -0.323178
6811.631348 5260.068848 9959.965820 0.113473 -0.719960 -0.684676
6930.441406 5186.731445 10056.773438 0.113473 -0.719960 -0.684676
6523.235840 5315.120605 9854.280273 0.113473 -0.719960 -0.684676
5416.756836 4935.119629 9912.779297 -0.027600 -0.946638 0.321116
5087.195312 4957.278809 9949.778320 -0.027600 -0.946638 0.321116
4686.863770 4893.205078 9726.483398 -0.027600 -0.946638 0.321116
6523.235840 5315.120605 9854.280273 0.081569 -0.759382 -0.645511
6930.441406 5186.731445 10056.773438 0.081569 -0.759382 -0.645511
5643.969727 5386.605957 9659.078125 0.081569 -0.759382 -0.645511
5643.969727 5386.605957 9659.078125 0.147162 -0.606881 -0.781050
6930.441406 5186.731445 10056.773438 0.147162 -0.606881 -0.781050
6302.464355 4861.621582 10191.065430 0.147162 -0.606881 -0.781050
6302.464355 4861.621582 10191.065430 0.206720 -0.556302 -0.804857
5416.756836 4935.119629 9912.779297 0.206720 -0.556302 -0.804857
5643.969727 5386.605957 9659.078125 0.206720 -0.556302 -0.804857
5876.227539 5108.724609 10252.979492 -0.159901 0.697904 0.698113
6340.569824 5437.349121 10030.809570 -0.159901 0.697904 0.698113
5313.941895 5461.793457 9771.226562 -0.159901 0.697904 0.698113
5416.756836 4935.119629 9912.779297 -0.071154 -0.996786 -0.036799
6302.464355 4861.621582 10191.065430 -0.071154 -0.996786 -0.036799
5087.195312 4957.278809 9949.778320 -0.071154 -0.996786 -0.036799
6833.342285 5319.453125 10265.083008 0.318027 0.926121 -0.202878
6811.631348 5260.068848 9959.965820 0.318027 0.926121 -0.202878
6340.569824 5437.349121 10030.809570 0.318027 0.926121 -0.202878
5313.941895 5461.793457 9771.226562 -0.310387 0.556892 0.770410
5429.566406 5035.827637 10125.719727 -0.310387 0.556892 0.770410
5876.227539 5108.724609 10252.979492 -0.310387 0.556892 0.770410
6930.441406 5186.731445 10056.773438 0.644384 -0.250766 -0.722417
7070.698730 5111.224121 10208.090820 0.644384 -0.250766 -0.722417
7013.495605 4890.395996 10233.720703 0.644384 -0.250766 -0.722417
5429.566406 5035.827637 10125.719727 -0.414656 -0.187268 0.890500
5087.195312 4957.278809 9949.778320 -0.414656 -0.187268 0.890500
5716.307617 4976.300781 10246.720703 -0.414656 -0.187268 0.890500
6930.441406 5186.731445 10056.773438 0.623932 0.757566 -0.191840
6811.631348 5260.068848 9959.965820 0.623932 0.757566 -0.191840
6833.342285 5319.453125 10265.083008 0.623932 0.757566 -0.191840
6833.342285 5319.453125 10265.083008 -0.162951 0.700187 0.695115
6340.569824 5437.349121 10030.809570 -0.162951 0.700187 0.695115
5876.227539 5108.724609 10252.979492 -0.162951 0.700187 0.695115
6302.464355 4861.621582 10191.065430 0.090965 -0.525203 -0.846101
6930.441406 5186.731445 10056.773438 0.090965 -0.525203 -0.846101
6911.128906 4752.711426 10324.107422 0.090965 -0.525203 -0.846101
6540.181152 4890.120117 10463.046875 -0.224234 -0.819390 0.527560
5716.307617 4976.300781 10246.720703 -0.224234 -0.819390 0.527560
5087.195312 4957.278809 9949.778320 -0.224234 -0.819390 0.527560
6930.441406 5186.731445 10056.773438 0.619859 0.760021 -0.195303
6833.342285 5319.453125 10265.083008 0.619859 0.760021 -0.195303
7070.698730 5111.224121 10208.090820 0.619859 0.760021 -0.195303
7013.495605 4890.395996 10233.720703 -0.049364 -0.522213 -0.851385
6911.128906 4752.711426 10324.107422 -0.049364 -0.522213 -0.851385
6930.441406 5186.731445 10056.773438 -0.049364 -0.522213 -0.851385
6540.181152 4890.120117 10463.046875 -0.117032 -0.971924 0.204127
5087.195312 4957.278809 9949.778320 -0.117032 -0.971924 0.204127
6302.464355 4861.621582 10191.065430 -0.117032 -0.971924 0.204127
5429.566406 5035.827637 10125.719727 -0.308076 0.329869 0.892342
5716.307617 4976.300781 10246.720703 -0.308076 0.329869 0.892342
5876.227539 5108.724609 10252.979492 -0.308076 0.329869 0.892342
7013.495605 4890.395996 10233.720703 0.965837 -0.238396 0.101617
7070.698730 5111.224121 10208.090820 0.965837 -0.238396 0.101617
6969.664551 4808.969727 10459.293945 0.965837 -0.238396 0.101617
6969.664551 4808.969727 10459.293945 0.775913 -0.626328 -0.075321
6911.128906 4752.711426 10324.107422 0.775913 -0.626328 -0.075321
7013.495605 4890.395996 10233.720703 0.775913 -0.626328 -0.075321
7070.698730 5111.224121 10208.090820 0.665750 0.667717 0.333063
6833.342285 5319.453125 10265.083008 0.665750 0.667717 0.333063
6987.380371 5087.879395 10421.434570 0.665750 0.667717 0.333063
6911.128906 4752.711426 10324.107422 -0.207363 -0.965349 0.158432
6826.453125 4798.000488 10489.232422 -0.207363 -0.965349 0.158432
6302.464355 4861.621582 10191.065430 -0.207363 -0.965349 0.158432
6826.453125 4798.000488 10489.232422 -0.315191 -0.875119 0.367179
6540.181152 4890.120117 10463.046875 -0.315191 -0.875119 0.367179
6302.464355 4861.621582 10191.065430 -0.315191 -0.875119 0.367179
6540.181152 4890.120117 10463.046875 -0.225052 0.226997 0.947536
5876.227539 5108.724609 10252.979492 -0.225052 0.226997 0.947536
5716.307617 4976.300781 10246.720703 -0.225052 0.226997 0.947536
6969.664551 4808.969727 10459.293945 0.931808 -0.009938 0.362817
7070.698730 5111.224121 10208.090820 0.931808 -0.009938 0.362817
6987.380371 5087.879395 10421.434570 0.931808 -0.009938 0.362817
6540.181152 4890.120117 10463.046875 -0.116787 0.480519 0.869173
6833.342285 5319.453125 10265.083008 -0.116787 0.480519 0.869173
5876.227539 5108.724609 10252.979492 -0.116787 0.480519 0.869173
6911.128906 4752.711426 10324.107422 0.140141 -0.934194 0.328087
6969.664551 4808.969727 10459.293945 0.140141 -0.934194 0.328087
6826.453125 4798.000488 10489.232422 0.140141 -0.934194 0.328087
6833.342285 5319.453125 10265.083008 -0.136700 0.490252 0.860794
6540.181152 4890.120117 10463.046875 -0.136700 0.490252 0.860794
6987.380371 5087.879395 10421.434570 -0.136700 0.490252 0.860794
6987.380371 5087.879395 10421.434570 -0.013367 0.234747 0.971965
6540.181152 4890.120117 10463.046875 -0.013367 0.234747 0.971965
6826.453125 4798.000488 10489.232422 -0.013367 0.234747 0.971965
6969.664551 4808.969727 10459.293945 0.194352 0.119810 0.973587
6987.380371 5087.879395 10421.434570 0.194352 0.119810 0.973587
6826.453125 4798.000488 10489.232422 0.194352 0.119810 0.973587
3 0 1 2
3 3 4 5
3 6 7 8
3 9 10 11
3 12 13 14
3 15 16 17
3 18 19 20
3 21 22 23
3 24 25 26
3 27 28 29
3 30 31 32
3 33 34 35
3 36 37 38
3 39 40 41
3 42 43 44
3 45 46 47
3 48 49 50
3 51 52 53
3 54 55 56
3 57 58 59
3 60 61 62
3 63 64 65
3 66 67 68
3 69 70 71
3 72 73 74
3 75 76 77
3 78 79 80
3 81 82 83
3 84 85 86
3 87 88 89
3 90 91 92
3 93 94 95
3 96 97 98
3 99 100 101
3 102 103 104
3 105 106 107
3 108 109 110
3 111 112 113
3 114 115 116
3 117 118 119
3 120 121 122
3 123 124 125
3 126 127 128
3 129 130 131
3 132 133 134
3 135 136 137
3 138 139 140
3 141 142 143
3 144 145 146
3 147 148 149
3 150 151 152
3 153 154 155
3 156 157 158
3 159 160 161
3 162 163 164
3 165 166 167
3 168 169 170
3 171 172 173
3 174 175 176
3 177 178 179
3 180 181 182
3 183 184 185
3 186 187 188
3 189 190 191
3 192 193 194
3 195 196 197
3 198 199 200
3 201 202 203
3 204 205 206
3 207 208 209
3 210 211 212
3 213 214 215
3 216 217 218
3 219 220 221
3 222 223 224
3 225 226 227
3 228 229 230
3 231 232 233
3 234 235 236
3 237 238 239
3 240 241 242
3 243 244 245
3 246 247 248
3 249 250 251
3 252 253 254
3 255 256 257
3 258 259 260
3 261 262 263
3 264 265 266
3 267 268 269
3 270 271 272
3 273 274 275
3 276 277 278
3 279 280 281
3 282 283 284
3 285 286 287
3 288 289 290
3 291 292 293
3 294 295 296
3 297 298 299
3 300 301 302
3 303 304 305
3 306 307 308
3 309 310 311
3 312 313 314
3 315 316 317
3 318 319 320
3 321 322 323
3 324 325 326
3 327 328 329
3 330 331 332
3 333 334 335
