ply
format ascii 1.0
comment Created by Blender 2.80 (sub 75) - www.blender.org, source file: 'downsample_ccf.blend'
element vertex 294
property float x
property float y
property float z
property float nx
property float ny
property float nz
element face 98
property list uchar uint vertex_indices
end_header
6946.083984 5161.446777 1344.366211 -0.075307 0.449983 -0.889856
6950.820312 4768.384766 1145.201782 -0.075307 0.449983 -0.889856
6513.836426 4831.327148 1214.011475 -0.075307 0.449983 -0.889856
7014.643066 4728.694336 1234.586060 0.784728 -0.111344 -0.609758
6950.820312 4768.384766 1145.201782 0.784728 -0.111344 -0.609758
7076.051758 5016.704590 1261.024048 0.784728 -0.111344 -0.609758
7076.051758 5016.704590 1261.024048 -0.069435 0.450231 -0.890208
6950.820312 4768.384766 1145.201782 -0.069435 0.450231 -0.890208
6946.083984 5161.446777 1344.366211 -0.069435 0.450231 -0.890208
6950.820312 4768.384766 1145.201782 -0.180848 -0.940278 -0.288393
7014.643066 4728.694336 1234.586060 -0.180848 -0.940278 -0.288393
6513.836426 4831.327148 1214.011475 -0.180848 -0.940278 -0.288393
5900.489258 4901.127930 1356.548462 -0.171039 0.365477 -0.914971
5663.045410 5013.291504 1445.737671 -0.171039 0.365477 -0.914971
6513.836426 4831.327148 1214.011475 -0.171039 0.365477 -0.914971
5663.045410 5013.291504 1445.737671 -0.125594 0.502276 -0.855538
6946.083984 5161.446777 1344.366211 -0.125594 0.502276 -0.855538
6513.836426 4831.327148 1214.011475 -0.125594 0.502276 -0.855538
7076.051758 5016.704590 1261.024048 0.925002 -0.165845 -0.341857
7148.538086 4989.678711 1470.270020 0.925002 -0.165845 -0.341857
7014.643066 4728.694336 1234.586060 0.925002 -0.165845 -0.341857
6513.836426 4831.327148 1214.011475 -0.190195 -0.964647 -0.182435
7014.643066 4728.694336 1234.586060 -0.190195 -0.964647 -0.182435
6176.303711 4828.697266 1579.807129 -0.190195 -0.964647 -0.182435
7076.051758 5016.704590 1261.024048 0.691826 0.706652 -0.148390
6946.083984 5161.446777 1344.366211 0.691826 0.706652 -0.148390
7148.538086 4989.678711 1470.270020 0.691826 0.706652 -0.148390
5900.489258 4901.127930 1356.548462 -0.217443 -0.815534 -0.536304
6513.836426 4831.327148 1214.011475 -0.217443 -0.815534 -0.536304
5162.426758 4910.764160 1641.140503 -0.217443 -0.815534 -0.536304
5663.045410 5013.291504 1445.737671 -0.133497 0.636121 -0.759953
5924.024902 5358.772949 1689.079224 -0.133497 0.636121 -0.759953
6946.083984 5161.446777 1344.366211 -0.133497 0.636121 -0.759953
6894.875488 4749.741699 1457.362427 -0.102614 -0.993967 0.038741
6176.303711 4828.697266 1579.807129 -0.102614 -0.993967 0.038741
7014.643066 4728.694336 1234.586060 -0.102614 -0.993967 0.038741
6946.083984 5161.446777 1344.366211 0.673394 0.734923 -0.080181
6881.686523 5237.769043 1503.084595 0.673394 0.734923 -0.080181
7148.538086 4989.678711 1470.270020 0.673394 0.734923 -0.080181
7014.643066 4728.694336 1234.586060 0.302928 -0.919706 0.249750
7099.849121 4818.889160 1463.380859 0.302928 -0.919706 0.249750
6894.875488 4749.741699 1457.362427 0.302928 -0.919706 0.249750
6176.303711 4828.697266 1579.807129 -0.085553 -0.992608 -0.086079
5162.426758 4910.764160 1641.140503 -0.085553 -0.992608 -0.086079
6513.836426 4831.327148 1214.011475 -0.085553 -0.992608 -0.086079
7014.643066 4728.694336 1234.586060 0.934487 -0.256445 -0.246920
7148.538086 4989.678711 1470.270020 0.934487 -0.256445 -0.246920
7099.849121 4818.889160 1463.380859 0.934487 -0.256445 -0.246920
5900.489258 4901.127930 1356.548462 -0.359930 -0.020249 -0.932759
5162.426758 4910.764160 1641.140503 -0.359930 -0.020249 -0.932759
5663.045410 5013.291504 1445.737671 -0.359930 -0.020249 -0.932759
6946.083984 5161.446777 1344.366211 0.032411 0.905817 -0.422427
5924.024902 5358.772949 1689.079224 0.032411 0.905817 -0.422427
6881.686523 5237.769043 1503.084595 0.032411 0.905817 -0.422427
6979.625000 5089.708496 1617.075684 0.574632 -0.195870 0.794627
7099.849121 4818.889160 1463.380859 0.574632 -0.195870 0.794627
7148.538086 4989.678711 1470.270020 0.574632 -0.195870 0.794627
6894.875488 4749.741699 1457.362427 0.124859 -0.447207 0.885673
7099.849121 4818.889160 1463.380859 0.124859 -0.447207 0.885673
6979.625000 5089.708496 1617.075684 0.124859 -0.447207 0.885673
6979.625000 5089.708496 1617.075684 0.668039 0.677995 0.306670
7148.538086 4989.678711 1470.270020 0.668039 0.677995 0.306670
6881.686523 5237.769043 1503.084595 0.668039 0.677995 0.306670
5663.045410 5013.291504 1445.737671 -0.200479 0.660859 -0.723238
5306.467285 5358.048340 1859.601440 -0.200479 0.660859 -0.723238
5924.024902 5358.772949 1689.079224 -0.200479 0.660859 -0.723238
6176.303711 4828.697266 1579.807129 0.102916 -0.443850 0.890172
6894.875488 4749.741699 1457.362427 0.102916 -0.443850 0.890172
6979.625000 5089.708496 1617.075684 0.102916 -0.443850 0.890172
6176.303711 4828.697266 1579.807129 -0.077376 -0.995588 0.053077
5529.867188 4888.025879 1750.284058 -0.077376 -0.995588 0.053077
5162.426758 4910.764160 1641.140503 -0.077376 -0.995588 0.053077
6979.625000 5089.708496 1617.075684 0.390289 0.709711 0.586501
6881.686523 5237.769043 1503.084595 0.390289 0.709711 0.586501
6481.556152 5290.182617 1705.928345 0.390289 0.709711 0.586501
6176.303711 4828.697266 1579.807129 0.103630 -0.445891 0.889068
6979.625000 5089.708496 1617.075684 0.103630 -0.445891 0.889068
6223.410156 5185.856934 1753.441284 0.103630 -0.445891 0.889068
5162.426758 4910.764160 1641.140503 -0.403339 0.421062 -0.812419
4771.542969 5064.608887 1914.936401 -0.403339 0.421062 -0.812419
5663.045410 5013.291504 1445.737671 -0.403339 0.421062 -0.812419
6881.686523 5237.769043 1503.084595 0.122529 0.992356 -0.014717
5924.024902 5358.772949 1689.079224 0.122529 0.992356 -0.014717
6481.556152 5290.182617 1705.928345 0.122529 0.992356 -0.014717
5162.426758 4910.764160 1641.140503 0.011335 -0.977778 -0.209334
4904.535645 4832.835938 1991.170166 0.011335 -0.977778 -0.209334
4800.167480 4865.812012 1831.490967 0.011335 -0.977778 -0.209334
5529.867188 4888.025879 1750.284058 0.003403 -0.976625 -0.214922
4904.535645 4832.835938 1991.170166 0.003403 -0.976625 -0.214922
5162.426758 4910.764160 1641.140503 0.003403 -0.976625 -0.214922
4800.167480 4865.812012 1831.490967 -0.473456 0.282081 -0.834428
4771.542969 5064.608887 1914.936401 -0.473456 0.282081 -0.834428
5162.426758 4910.764160 1641.140503 -0.473456 0.282081 -0.834428
5534.354004 5296.752930 1946.915771 0.193733 -0.427037 0.883237
5529.867188 4888.025879 1750.284058 0.193733 -0.427037 0.883237
6176.303711 4828.697266 1579.807129 0.193733 -0.427037 0.883237
5663.045410 5013.291504 1445.737671 -0.370354 0.531476 -0.761821
4771.542969 5064.608887 1914.936401 -0.370354 0.531476 -0.761821
5306.467285 5358.048340 1859.601440 -0.370354 0.531476 -0.761821
6979.625000 5089.708496 1617.075684 0.178310 0.006904 0.983950
6481.556152 5290.182617 1705.928345 0.178310 0.006904 0.983950
6223.410156 5185.856934 1753.441284 0.178310 0.006904 0.983950
6223.410156 5185.856934 1753.441284 0.173828 -0.449016 0.876452
5534.354004 5296.752930 1946.915771 0.173828 -0.449016 0.876452
6176.303711 4828.697266 1579.807129 0.173828 -0.449016 0.876452
5924.024902 5358.772949 1689.079224 0.101968 0.921125 0.375673
5534.354004 5296.752930 1946.915771 0.101968 0.921125 0.375673
6481.556152 5290.182617 1705.928345 0.101968 0.921125 0.375673
5534.354004 5296.752930 1946.915771 0.242173 -0.163700 0.956324
6223.410156 5185.856934 1753.441284 0.242173 -0.163700 0.956324
6481.556152 5290.182617 1705.928345 0.242173 -0.163700 0.956324
5534.354004 5296.752930 1946.915771 0.103060 0.920401 0.377148
5924.024902 5358.772949 1689.079224 0.103060 0.920401 0.377148
5306.467285 5358.048340 1859.601440 0.103060 0.920401 0.377148
4771.542969 5064.608887 1914.936401 -0.385408 0.565006 -0.729540
4816.115234 5272.359863 2052.286133 -0.385408 0.565006 -0.729540
5306.467285 5358.048340 1859.601440 -0.385408 0.565006 -0.729540
4904.535645 4832.835938 1991.170166 0.359339 -0.407768 0.839405
5529.867188 4888.025879 1750.284058 0.359339 -0.407768 0.839405
5534.354004 5296.752930 1946.915771 0.359339 -0.407768 0.839405
4910.448242 5308.225586 2147.848877 0.124191 0.934985 0.332234
5534.354004 5296.752930 1946.915771 0.124191 0.934985 0.332234
5306.467285 5358.048340 1859.601440 0.124191 0.934985 0.332234
4904.535645 4832.835938 1991.170166 -0.822605 -0.316680 0.472265
4771.542969 5064.608887 1914.936401 -0.822605 -0.316680 0.472265
4800.167480 4865.812012 1831.490967 -0.822605 -0.316680 0.472265
4878.480957 5152.320801 2151.733154 -0.818083 -0.310120 0.484320
4771.542969 5064.608887 1914.936401 -0.818083 -0.310120 0.484320
4904.535645 4832.835938 1991.170166 -0.818083 -0.310120 0.484320
5534.354004 5296.752930 1946.915771 0.352125 -0.397204 0.847488
4878.480957 5152.320801 2151.733154 0.352125 -0.397204 0.847488
4904.535645 4832.835938 1991.170166 0.352125 -0.397204 0.847488
5534.354004 5296.752930 1946.915771 0.305669 -0.038973 0.951340
4910.448242 5308.225586 2147.848877 0.305669 -0.038973 0.951340
4878.480957 5152.320801 2151.733154 0.305669 -0.038973 0.951340
5306.467285 5358.048340 1859.601440 -0.223898 0.964371 -0.140922
4816.115234 5272.359863 2052.286133 -0.223898 0.964371 -0.140922
4910.448242 5308.225586 2147.848877 -0.223898 0.964371 -0.140922
4878.480957 5152.320801 2151.733154 -0.892555 -0.099313 0.439867
4816.115234 5272.359863 2052.286133 -0.892555 -0.099313 0.439867
4771.542969 5064.608887 1914.936401 -0.892555 -0.099313 0.439867
4910.448242 5308.225586 2147.848877 -0.732271 0.166599 0.660321
4816.115234 5272.359863 2052.286133 -0.732271 0.166599 0.660321
4878.480957 5152.320801 2151.733154 -0.732271 0.166599 0.660321
4906.201172 5244.593750 9201.898438 0.197912 0.702970 -0.683128
4832.663086 5315.634277 9253.697266 0.197912 0.702970 -0.683128
5538.955078 5302.397461 9444.699219 0.197912 0.702970 -0.683128
4832.663086 5315.634277 9253.697266 -0.700988 -0.234554 -0.673499
4906.201172 5244.593750 9201.898438 -0.700988 -0.234554 -0.673499
4889.171875 4871.837402 9349.439453 -0.700988 -0.234554 -0.673499
4906.201172 5244.593750 9201.898438 0.362880 -0.357230 -0.860642
5538.955078 5302.397461 9444.699219 0.362880 -0.357230 -0.860642
4889.171875 4871.837402 9349.439453 0.362880 -0.357230 -0.860642
5538.955078 5302.397461 9444.699219 0.391093 -0.407661 -0.825142
5384.263184 4885.783203 9577.208008 0.391093 -0.407661 -0.825142
4889.171875 4871.837402 9349.439453 0.391093 -0.407661 -0.825142
4832.663086 5315.634277 9253.697266 -0.960334 0.234172 0.151401
4773.064453 4913.549316 9497.568359 -0.960334 0.234172 0.151401
4851.081055 5339.326660 9333.876953 -0.960334 0.234172 0.151401
4889.171875 4871.837402 9349.439453 0.173644 -0.931222 -0.320427
5384.263184 4885.783203 9577.208008 0.173644 -0.931222 -0.320427
4855.517090 4825.665527 9465.385742 0.173644 -0.931222 -0.320427
4855.517090 4825.665527 9465.385742 -0.732683 -0.531953 -0.424503
4773.064453 4913.549316 9497.568359 -0.732683 -0.531953 -0.424503
4889.171875 4871.837402 9349.439453 -0.732683 -0.531953 -0.424503
4889.171875 4871.837402 9349.439453 -0.796741 -0.222651 -0.561810
4773.064453 4913.549316 9497.568359 -0.796741 -0.222651 -0.561810
4832.663086 5315.634277 9253.697266 -0.796741 -0.222651 -0.561810
5538.955078 5302.397461 9444.699219 0.142119 0.873844 -0.464972
4832.663086 5315.634277 9253.697266 0.142119 0.873844 -0.464972
5919.883789 5364.539551 9677.916992 0.142119 0.873844 -0.464972
4832.663086 5315.634277 9253.697266 0.073507 0.951699 -0.298104
4851.081055 5339.326660 9333.876953 0.073507 0.951699 -0.298104
5919.883789 5364.539551 9677.916992 0.073507 0.951699 -0.298104
4891.958984 4901.928711 9621.112305 -0.650611 0.373434 0.661251
4851.081055 5339.326660 9333.876953 -0.650611 0.373434 0.661251
4773.064453 4913.549316 9497.568359 -0.650611 0.373434 0.661251
5384.263184 4885.783203 9577.208008 0.103965 -0.993667 0.042621
5314.228516 4886.239746 9758.688477 0.103965 -0.993667 0.042621
4855.517090 4825.665527 9465.385742 0.103965 -0.993667 0.042621
4855.517090 4825.665527 9465.385742 -0.552946 -0.689878 0.467246
4891.958984 4901.928711 9621.112305 -0.552946 -0.689878 0.467246
4773.064453 4913.549316 9497.568359 -0.552946 -0.689878 0.467246
6051.974609 5278.637695 9572.169922 0.208424 -0.365878 -0.907024
5384.263184 4885.783203 9577.208008 0.208424 -0.365878 -0.907024
5538.955078 5302.397461 9444.699219 0.208424 -0.365878 -0.907024
4855.517090 4825.665527 9465.385742 -0.184197 -0.865010 0.466721
5314.228516 4886.239746 9758.688477 -0.184197 -0.865010 0.466721
4891.958984 4901.928711 9621.112305 -0.184197 -0.865010 0.466721
5654.137695 5069.806152 9904.027344 -0.396262 0.477817 0.784007
4851.081055 5339.326660 9333.876953 -0.396262 0.477817 0.784007
4891.958984 4901.928711 9621.112305 -0.396262 0.477817 0.784007
6863.278809 5110.910156 9730.889648 0.239072 0.275229 -0.931179
6051.974609 5278.637695 9572.169922 0.239072 0.275229 -0.931179
6567.892090 5287.544922 9707.259766 0.239072 0.275229 -0.931179
5538.955078 5302.397461 9444.699219 0.161951 0.855175 -0.492390
5919.883789 5364.539551 9677.916992 0.161951 0.855175 -0.492390
6051.974609 5278.637695 9572.169922 0.161951 0.855175 -0.492390
5919.883789 5364.539551 9677.916992 0.123738 0.840205 -0.527963
6567.892090 5287.544922 9707.259766 0.123738 0.840205 -0.527963
6051.974609 5278.637695 9572.169922 0.123738 0.840205 -0.527963
5923.099121 4872.724121 9739.715820 0.250120 -0.436200 -0.864390
5384.263184 4885.783203 9577.208008 0.250120 -0.436200 -0.864390
6051.974609 5278.637695 9572.169922 0.250120 -0.436200 -0.864390
6863.278809 5110.910156 9730.889648 0.094125 -0.405232 -0.909356
5923.099121 4872.724121 9739.715820 0.094125 -0.405232 -0.909356
6051.974609 5278.637695 9572.169922 0.094125 -0.405232 -0.909356
5919.883789 5364.539551 9677.916992 -0.229660 0.714265 0.661122
4851.081055 5339.326660 9333.876953 -0.229660 0.714265 0.661122
5654.137695 5069.806152 9904.027344 -0.229660 0.714265 0.661122
5923.099121 4872.724121 9739.715820 0.230484 -0.542495 -0.807822
6115.563965 4824.962891 9826.703125 0.230484 -0.542495 -0.807822
5384.263184 4885.783203 9577.208008 0.230484 -0.542495 -0.807822
6950.612305 5179.477539 9816.191406 0.365311 0.506418 -0.781082
6863.278809 5110.910156 9730.889648 0.365311 0.506418 -0.781082
6567.892090 5287.544922 9707.259766 0.365311 0.506418 -0.781082
7080.889160 4793.086914 9904.460938 0.098944 -0.423919 -0.900279
5923.099121 4872.724121 9739.715820 0.098944 -0.423919 -0.900279
6863.278809 5110.910156 9730.889648 0.098944 -0.423919 -0.900279
7080.889160 4793.086914 9904.460938 0.323417 -0.273309 -0.905927
6863.278809 5110.910156 9730.889648 0.323417 -0.273309 -0.905927
7144.480469 4942.965332 9881.946289 0.323417 -0.273309 -0.905927
6863.278809 5110.910156 9730.889648 0.569541 0.249074 -0.783317
6950.612305 5179.477539 9816.191406 0.569541 0.249074 -0.783317
7144.480469 4942.965332 9881.946289 0.569541 0.249074 -0.783317
6938.092285 5176.337402 10028.792969 -0.126650 0.673143 0.728586
5919.883789 5364.539551 9677.916992 -0.126650 0.673143 0.728586
5654.137695 5069.806152 9904.027344 -0.126650 0.673143 0.728586
6115.563965 4824.962891 9826.703125 -0.074021 -0.996916 -0.026057
5314.228516 4886.239746 9758.688477 -0.074021 -0.996916 -0.026057
5384.263184 4885.783203 9577.208008 -0.074021 -0.996916 -0.026057
7080.889160 4793.086914 9904.460938 0.011799 -0.865259 -0.501186
6115.563965 4824.962891 9826.703125 0.011799 -0.865259 -0.501186
5923.099121 4872.724121 9739.715820 0.011799 -0.865259 -0.501186
6115.563965 4824.962891 9826.703125 0.038824 -0.658232 -0.751813
7080.889160 4793.086914 9904.460938 0.038824 -0.658232 -0.751813
6892.254395 4732.727051 9947.566406 0.038824 -0.658232 -0.751813
6567.892090 5287.544922 9707.259766 0.105680 0.971060 0.214181
5919.883789 5364.539551 9677.916992 0.105680 0.971060 0.214181
6938.092285 5176.337402 10028.792969 0.105680 0.971060 0.214181
5314.228516 4886.239746 9758.688477 -0.095222 -0.962251 0.254963
6115.563965 4824.962891 9826.703125 -0.095222 -0.962251 0.254963
5767.000977 4903.349609 9992.361328 -0.095222 -0.962251 0.254963
4891.958984 4901.928711 9621.112305 -0.152163 -0.919608 0.362171
5314.228516 4886.239746 9758.688477 -0.152163 -0.919608 0.362171
5767.000977 4903.349609 9992.361328 -0.152163 -0.919608 0.362171
5767.000977 4903.349609 9992.361328 -0.381469 0.218052 0.898296
5654.137695 5069.806152 9904.027344 -0.381469 0.218052 0.898296
4891.958984 4901.928711 9621.112305 -0.381469 0.218052 0.898296
7106.493652 5043.924805 10072.644531 0.784768 0.598622 -0.160598
7144.480469 4942.965332 9881.946289 0.784768 0.598622 -0.160598
6950.612305 5179.477539 9816.191406 0.784768 0.598622 -0.160598
6567.892090 5287.544922 9707.259766 0.263763 0.964128 0.029773
6938.092285 5176.337402 10028.792969 0.263763 0.964128 0.029773
6950.612305 5179.477539 9816.191406 0.263763 0.964128 0.029773
6950.612305 5179.477539 9816.191406 0.609714 0.791191 0.047592
6938.092285 5176.337402 10028.792969 0.609714 0.791191 0.047592
7106.493652 5043.924805 10072.644531 0.609714 0.791191 0.047592
7080.889160 4793.086914 9904.460938 0.314586 -0.947950 0.049267
6915.349609 4754.852051 10225.804688 0.314586 -0.947950 0.049267
6892.254395 4732.727051 9947.566406 0.314586 -0.947950 0.049267
7017.940430 4866.004395 10217.780273 0.902099 -0.343513 0.261184
7080.889160 4793.086914 9904.460938 0.902099 -0.343513 0.261184
7144.480469 4942.965332 9881.946289 0.902099 -0.343513 0.261184
7106.493652 5043.924805 10072.644531 0.928785 -0.217441 0.300130
7017.940430 4866.004395 10217.780273 0.928785 -0.217441 0.300130
7144.480469 4942.965332 9881.946289 0.928785 -0.217441 0.300130
6115.563965 4824.962891 9826.703125 -0.131161 -0.987322 0.089397
6892.254395 4732.727051 9947.566406 -0.131161 -0.987322 0.089397
6915.349609 4754.852051 10225.804688 -0.131161 -0.987322 0.089397
6115.563965 4824.962891 9826.703125 -0.128338 -0.973263 0.190496
6322.501953 4857.419922 10131.944336 -0.128338 -0.973263 0.190496
5767.000977 4903.349609 9992.361328 -0.128338 -0.973263 0.190496
6915.349609 4754.852051 10225.804688 -0.202041 -0.950021 0.237992
6322.501953 4857.419922 10131.944336 -0.202041 -0.950021 0.237992
6115.563965 4824.962891 9826.703125 -0.202041 -0.950021 0.237992
6322.501953 4857.419922 10131.944336 -0.201077 0.349321 0.915174
5654.137695 5069.806152 9904.027344 -0.201077 0.349321 0.915174
5767.000977 4903.349609 9992.361328 -0.201077 0.349321 0.915174
7017.940430 4866.004395 10217.780273 -0.124563 0.492499 0.861353
6938.092285 5176.337402 10028.792969 -0.124563 0.492499 0.861353
5654.137695 5069.806152 9904.027344 -0.124563 0.492499 0.861353
7106.493652 5043.924805 10072.644531 0.220908 0.548109 0.806707
6938.092285 5176.337402 10028.792969 0.220908 0.548109 0.806707
7017.940430 4866.004395 10217.780273 0.220908 0.548109 0.806707
7017.940430 4866.004395 10217.780273 -0.109192 0.547031 0.829960
5654.137695 5069.806152 9904.027344 -0.109192 0.547031 0.829960
6322.501953 4857.419922 10131.944336 -0.109192 0.547031 0.829960
7017.940430 4866.004395 10217.780273 0.713300 -0.637305 0.291626
6915.349609 4754.852051 10225.804688 0.713300 -0.637305 0.291626
7080.889160 4793.086914 9904.460938 0.713300 -0.637305 0.291626
6915.349609 4754.852051 10225.804688 -0.122647 0.183611 0.975318
7017.940430 4866.004395 10217.780273 -0.122647 0.183611 0.975318
6322.501953 4857.419922 10131.944336 -0.122647 0.183611 0.975318
3 0 1 2
3 3 4 5
3 6 7 8
3 9 10 11
3 12 13 14
3 15 16 17
3 18 19 20
3 21 22 23
3 24 25 26
3 27 28 29
3 30 31 32
3 33 34 35
3 36 37 38
3 39 40 41
3 42 43 44
3 45 46 47
3 48 49 50
3 51 52 53
3 54 55 56
3 57 58 59
3 60 61 62
3 63 64 65
3 66 67 68
3 69 70 71
3 72 73 74
3 75 76 77
3 78 79 80
3 81 82 83
3 84 85 86
3 87 88 89
3 90 91 92
3 93 94 95
3 96 97 98
3 99 100 101
3 102 103 104
3 105 106 107
3 108 109 110
3 111 112 113
3 114 115 116
3 117 118 119
3 120 121 122
3 123 124 125
3 126 127 128
3 129 130 131
3 132 133 134
3 135 136 137
3 138 139 140
3 141 142 143
3 144 145 146
3 147 148 149
3 150 151 152
3 153 154 155
3 156 157 158
3 159 160 161
3 162 163 164
3 165 166 167
3 168 169 170
3 171 172 173
3 174 175 176
3 177 178 179
3 180 181 182
3 183 184 185
3 186 187 188
3 189 190 191
3 192 193 194
3 195 196 197
3 198 199 200
3 201 202 203
3 204 205 206
3 207 208 209
3 210 211 212
3 213 214 215
3 216 217 218
3 219 220 221
3 222 223 224
3 225 226 227
3 228 229 230
3 231 232 233
3 234 235 236
3 237 238 239
3 240 241 242
3 243 244 245
3 246 247 248
3 249 250 251
3 252 253 254
3 255 256 257
3 258 259 260
3 261 262 263
3 264 265 266
3 267 268 269
3 270 271 272
3 273 274 275
3 276 277 278
3 279 280 281
3 282 283 284
3 285 286 287
3 288 289 290
3 291 292 293
