ply
format ascii 1.0
comment Created by Blender 2.80 (sub 75) - www.blender.org, source file: 'downsample_ccf.blend'
element vertex 210
property float x
property float y
property float z
property float nx
property float ny
property float nz
element face 70
property list uchar uint vertex_indices
end_header
4459.391602 5239.310059 2595.068359 -0.558173 0.363762 -0.745735
4862.831055 5170.997070 2259.777100 -0.558173 0.363762 -0.745735
4562.552246 5077.982910 2439.160400 -0.558173 0.363762 -0.745735
4459.391602 5239.310059 2595.068359 0.143043 0.989278 -0.029441
4945.580566 5162.419922 2373.619141 0.143043 0.989278 -0.029441
4862.831055 5170.997070 2259.777100 0.143043 0.989278 -0.029441
4862.831055 5170.997070 2259.777100 0.225888 -0.945281 -0.235413
4945.580566 5162.419922 2373.619141 0.225888 -0.945281 -0.235413
4515.718750 4958.111816 2781.531982 0.225888 -0.945281 -0.235413
4862.831055 5170.997070 2259.777100 0.103320 -0.943095 -0.316063
4515.718750 4958.111816 2781.531982 0.103320 -0.943095 -0.316063
4562.552246 5077.982910 2439.160400 0.103320 -0.943095 -0.316063
4726.317383 5121.006836 2650.846191 0.703470 -0.526168 0.477784
4515.718750 4958.111816 2781.531982 0.703470 -0.526168 0.477784
4945.580566 5162.419922 2373.619141 0.703470 -0.526168 0.477784
4459.391602 5239.310059 2595.068359 -0.716928 0.189831 -0.670804
4562.552246 5077.982910 2439.160400 -0.716928 0.189831 -0.670804
4216.485352 4916.583008 2763.348389 -0.716928 0.189831 -0.670804
3970.324951 5116.423828 3302.535400 0.331265 0.859016 0.390326
4726.317383 5121.006836 2650.846191 0.331265 0.859016 0.390326
4945.580566 5162.419922 2373.619141 0.331265 0.859016 0.390326
4945.580566 5162.419922 2373.619141 0.304838 0.880254 0.363631
4459.391602 5239.310059 2595.068359 0.304838 0.880254 0.363631
3970.324951 5116.423828 3302.535400 0.304838 0.880254 0.363631
4562.552246 5077.982910 2439.160400 0.149129 -0.939454 -0.308522
4515.718750 4958.111816 2781.531982 0.149129 -0.939454 -0.308522
4216.485352 4916.583008 2763.348389 0.149129 -0.939454 -0.308522
3987.558594 4788.358887 3063.390381 -0.808208 0.368998 -0.458956
4459.391602 5239.310059 2595.068359 -0.808208 0.368998 -0.458956
4216.485352 4916.583008 2763.348389 -0.808208 0.368998 -0.458956
4216.485352 4916.583008 2763.348389 0.148834 -0.945259 -0.290403
4515.718750 4958.111816 2781.531982 0.148834 -0.945259 -0.290403
3987.558594 4788.358887 3063.390381 0.148834 -0.945259 -0.290403
4184.532227 5049.994629 3234.536865 0.393148 0.795174 0.461664
4726.317383 5121.006836 2650.846191 0.393148 0.795174 0.461664
3970.324951 5116.423828 3302.535400 0.393148 0.795174 0.461664
4515.718750 4958.111816 2781.531982 -0.026493 -0.833620 -0.551703
4081.343750 4676.075195 3228.546631 -0.026493 -0.833620 -0.551703
3987.558594 4788.358887 3063.390381 -0.026493 -0.833620 -0.551703
4515.718750 4958.111816 2781.531982 0.677267 -0.703932 0.213982
4726.317383 5121.006836 2650.846191 0.677267 -0.703932 0.213982
4081.343750 4676.075195 3228.546631 0.677267 -0.703932 0.213982
3987.558594 4788.358887 3063.390381 -0.803988 0.322126 -0.499838
3970.324951 5116.423828 3302.535400 -0.803988 0.322126 -0.499838
4459.391602 5239.310059 2595.068359 -0.803988 0.322126 -0.499838
3768.306641 4429.577148 3401.438232 -0.907653 0.215062 -0.360436
3970.324951 5116.423828 3302.535400 -0.907653 0.215062 -0.360436
3987.558594 4788.358887 3063.390381 -0.907653 0.215062 -0.360436
4184.532227 5049.994629 3234.536865 0.729032 -0.211615 0.650947
4081.343750 4676.075195 3228.546631 0.729032 -0.211615 0.650947
4726.317383 5121.006836 2650.846191 0.729032 -0.211615 0.650947
4081.343750 4676.075195 3228.546631 0.231538 -0.738333 -0.633446
3768.306641 4429.577148 3401.438232 0.231538 -0.738333 -0.633446
3987.558594 4788.358887 3063.390381 0.231538 -0.738333 -0.633446
3812.169922 4460.693359 3721.432617 0.891401 -0.252029 0.376678
4081.343750 4676.075195 3228.546631 0.891401 -0.252029 0.376678
4184.532227 5049.994629 3234.536865 0.891401 -0.252029 0.376678
3970.324951 5116.423828 3302.535400 -0.958389 0.267554 -0.099528
3768.306641 4429.577148 3401.438232 -0.958389 0.267554 -0.099528
3807.343506 4703.006348 3760.580322 -0.958389 0.267554 -0.099528
3576.724609 3917.285645 3759.232666 0.714249 -0.652342 -0.253570
4081.343750 4676.075195 3228.546631 0.714249 -0.652342 -0.253570
3706.573242 4084.230469 3695.499756 0.714249 -0.652342 -0.253570
3535.890869 4126.095215 3599.728027 -0.082088 -0.500314 -0.861944
3768.306641 4429.577148 3401.438232 -0.082088 -0.500314 -0.861944
4081.343750 4676.075195 3228.546631 -0.082088 -0.500314 -0.861944
4184.532227 5049.994629 3234.536865 0.832491 -0.072165 0.549319
3807.343506 4703.006348 3760.580322 0.832491 -0.072165 0.549319
3812.169922 4460.693359 3721.432617 0.832491 -0.072165 0.549319
4184.532227 5049.994629 3234.536865 0.405129 0.602331 0.687799
3970.324951 5116.423828 3302.535400 0.405129 0.602331 0.687799
3807.343506 4703.006348 3760.580322 0.405129 0.602331 0.687799
3706.573242 4084.230469 3695.499756 0.889309 -0.274637 0.365656
4081.343750 4676.075195 3228.546631 0.889309 -0.274637 0.365656
3812.169922 4460.693359 3721.432617 0.889309 -0.274637 0.365656
3535.890869 4126.095215 3599.728027 -0.778416 0.626074 0.045822
3812.169922 4460.693359 3721.432617 -0.778416 0.626074 0.045822
3768.306641 4429.577148 3401.438232 -0.778416 0.626074 0.045822
3812.169922 4460.693359 3721.432617 -0.989288 -0.042277 0.139718
3807.343506 4703.006348 3760.580322 -0.989288 -0.042277 0.139718
3768.306641 4429.577148 3401.438232 -0.989288 -0.042277 0.139718
4081.343750 4676.075195 3228.546631 0.089247 -0.616483 -0.782294
3344.012451 3909.593994 3748.450439 0.089247 -0.616483 -0.782294
3535.890869 4126.095215 3599.728027 0.089247 -0.616483 -0.782294
3344.012451 3909.593994 3748.450439 -0.385250 -0.265645 -0.883751
3367.810547 3971.807861 3719.375488 -0.385250 -0.265645 -0.883751
3535.890869 4126.095215 3599.728027 -0.385250 -0.265645 -0.883751
3535.890869 4126.095215 3599.728027 -0.474437 0.072646 0.877287
3706.573242 4084.230469 3695.499756 -0.474437 0.072646 0.877287
3812.169922 4460.693359 3721.432617 -0.474437 0.072646 0.877287
3576.724609 3917.285645 3759.232666 0.056809 -0.597293 -0.800008
3344.012451 3909.593994 3748.450439 0.056809 -0.597293 -0.800008
4081.343750 4676.075195 3228.546631 0.056809 -0.597293 -0.800008
3367.810547 3971.807861 3719.375488 0.695861 -0.230634 0.680136
3408.847412 3986.829346 3682.483643 0.695861 -0.230634 0.680136
3535.890869 4126.095215 3599.728027 0.695861 -0.230634 0.680136
3344.012451 3909.593994 3748.450439 0.668958 -0.719830 -0.185313
3335.377197 3907.914307 3723.802734 0.668958 -0.719830 -0.185313
3408.847412 3986.829346 3682.483643 0.668958 -0.719830 -0.185313
3344.012451 3909.593994 3748.450439 -0.584880 0.751555 0.305091
3408.847412 3986.829346 3682.483643 -0.584880 0.751555 0.305091
3365.290039 3954.479980 3678.669922 -0.584880 0.751555 0.305091
3408.847412 3986.829346 3682.483643 -0.244180 0.650246 0.719414
3706.573242 4084.230469 3695.499756 -0.244180 0.650246 0.719414
3535.890869 4126.095215 3599.728027 -0.244180 0.650246 0.719414
3335.377197 3907.914307 3723.802734 -0.233450 0.612685 0.755061
3706.573242 4084.230469 3695.499756 -0.233450 0.612685 0.755061
3408.847412 3986.829346 3682.483643 -0.233450 0.612685 0.755061
3335.377197 3907.914307 3723.802734 -0.146774 0.450374 0.880693
3576.724609 3917.285645 3759.232666 -0.146774 0.450374 0.880693
3706.573242 4084.230469 3695.499756 -0.146774 0.450374 0.880693
3419.530762 3889.299805 7625.289551 0.243966 0.955102 -0.168107
3341.285156 3915.212158 7658.956543 0.243966 0.955102 -0.168107
3517.276367 3863.872314 7622.676758 0.243966 0.955102 -0.168107
3517.276367 3863.872314 7622.676758 -0.793180 0.555583 0.249386
3719.208984 4105.918457 7725.698242 -0.793180 0.555583 0.249386
3522.054443 3887.136963 7586.044434 -0.793180 0.555583 0.249386
3419.530762 3889.299805 7625.289551 0.252370 -0.671900 0.696318
3522.054443 3887.136963 7586.044434 0.252370 -0.671900 0.696318
3719.208984 4105.918457 7725.698242 0.252370 -0.671900 0.696318
3557.026123 4140.654785 7785.842285 -0.028187 0.510634 -0.859336
3517.276367 3863.872314 7622.676758 -0.028187 0.510634 -0.859336
3341.285156 3915.212158 7658.956543 -0.028187 0.510634 -0.859336
3719.208984 4105.918457 7725.698242 -0.197381 0.518726 -0.831844
3517.276367 3863.872314 7622.676758 -0.197381 0.518726 -0.831844
3557.026123 4140.654785 7785.842285 -0.197381 0.518726 -0.831844
3557.026123 4140.654785 7785.842285 -0.366522 -0.112053 -0.923637
3812.917480 4548.632324 7634.803711 -0.366522 -0.112053 -0.923637
3719.208984 4105.918457 7725.698242 -0.366522 -0.112053 -0.923637
3419.530762 3889.299805 7625.289551 0.147239 -0.588387 0.795061
3557.026123 4140.654785 7785.842285 0.147239 -0.588387 0.795061
3341.285156 3915.212158 7658.956543 0.147239 -0.588387 0.795061
3812.917480 4548.632324 7634.803711 0.833410 -0.033953 -0.551611
3805.192139 4692.643555 7614.267578 0.833410 -0.033953 -0.551611
4101.960449 5041.395508 8041.177734 0.833410 -0.033953 -0.551611
4140.417480 4757.893066 8198.217773 0.877621 -0.135629 -0.459767
3812.917480 4548.632324 7634.803711 0.877621 -0.135629 -0.459767
4101.960449 5041.395508 8041.177734 0.877621 -0.135629 -0.459767
3719.208984 4105.918457 7725.698242 0.872797 -0.268436 -0.407636
3812.917480 4548.632324 7634.803711 0.872797 -0.268436 -0.407636
4140.417480 4757.893066 8198.217773 0.872797 -0.268436 -0.407636
3909.605225 5054.550781 7999.277832 0.199278 0.686469 -0.699320
4101.960449 5041.395508 8041.177734 0.199278 0.686469 -0.699320
3805.192139 4692.643555 7614.267578 0.199278 0.686469 -0.699320
3774.412109 4418.791504 7982.676758 -0.988001 -0.072451 -0.136402
3805.192139 4692.643555 7614.267578 -0.988001 -0.072451 -0.136402
3812.917480 4548.632324 7634.803711 -0.988001 -0.072451 -0.136402
3774.412109 4418.791504 7982.676758 -0.976014 0.205685 0.071348
3909.605225 5054.550781 7999.277832 -0.976014 0.205685 0.071348
3805.192139 4692.643555 7614.267578 -0.976014 0.205685 0.071348
3557.026123 4140.654785 7785.842285 -0.256318 -0.416839 0.872093
3419.530762 3889.299805 7625.289551 -0.256318 -0.416839 0.872093
3774.412109 4418.791504 7982.676758 -0.256318 -0.416839 0.872093
3557.026123 4140.654785 7785.842285 -0.821100 0.558541 0.117585
3774.412109 4418.791504 7982.676758 -0.821100 0.558541 0.117585
3812.917480 4548.632324 7634.803711 -0.821100 0.558541 0.117585
3719.208984 4105.918457 7725.698242 0.217891 -0.642124 0.734983
3774.412109 4418.791504 7982.676758 0.217891 -0.642124 0.734983
3419.530762 3889.299805 7625.289551 0.217891 -0.642124 0.734983
4140.417480 4757.893066 8198.217773 0.154272 -0.643217 0.749981
3774.412109 4418.791504 7982.676758 0.154272 -0.643217 0.749981
3719.208984 4105.918457 7725.698242 0.154272 -0.643217 0.749981
3774.412109 4418.791504 7982.676758 -0.895202 0.179714 0.407819
3906.703125 4645.488281 8173.169434 -0.895202 0.179714 0.407819
3909.605225 5054.550781 7999.277832 -0.895202 0.179714 0.407819
4101.960449 5041.395508 8041.177734 0.142971 0.918819 -0.367873
3909.605225 5054.550781 7999.277832 0.142971 0.918819 -0.367873
4207.001465 5191.124512 8455.971680 0.142971 0.918819 -0.367873
4140.417480 4757.893066 8198.217773 0.269909 -0.706893 0.653798
3906.703125 4645.488281 8173.169434 0.269909 -0.706893 0.653798
3774.412109 4418.791504 7982.676758 0.269909 -0.706893 0.653798
4228.307617 4938.535156 8646.494141 -0.840718 0.279079 0.464013
4207.001465 5191.124512 8455.971680 -0.840718 0.279079 0.464013
3909.605225 5054.550781 7999.277832 -0.840718 0.279079 0.464013
4228.307617 4938.535156 8646.494141 -0.863713 0.202345 0.461581
3909.605225 5054.550781 7999.277832 -0.863713 0.202345 0.461581
3906.703125 4645.488281 8173.169434 -0.863713 0.202345 0.461581
4140.417480 4757.893066 8198.217773 0.729664 -0.252935 -0.635306
4101.960449 5041.395508 8041.177734 0.729664 -0.252935 -0.635306
4929.993652 5146.954102 8950.167969 0.729664 -0.252935 -0.635306
3906.703125 4645.488281 8173.169434 0.392279 -0.877273 0.276604
4140.417480 4757.893066 8198.217773 0.392279 -0.877273 0.276604
4228.307617 4938.535156 8646.494141 0.392279 -0.877273 0.276604
4101.960449 5041.395508 8041.177734 0.378288 0.814850 -0.439223
4909.574219 5213.430664 9055.909180 0.378288 0.814850 -0.439223
4929.993652 5146.954102 8950.167969 0.378288 0.814850 -0.439223
4228.307617 4938.535156 8646.494141 -0.717412 0.379930 0.583929
4664.998535 5241.754395 8985.722656 -0.717412 0.379930 0.583929
4207.001465 5191.124512 8455.971680 -0.717412 0.379930 0.583929
4929.993652 5146.954102 8950.167969 0.310341 -0.937225 0.159053
4813.066406 5133.784180 9100.709961 0.310341 -0.937225 0.159053
4140.417480 4757.893066 8198.217773 0.310341 -0.937225 0.159053
4909.574219 5213.430664 9055.909180 0.306214 0.868015 -0.390874
4101.960449 5041.395508 8041.177734 0.306214 0.868015 -0.390874
4207.001465 5191.124512 8455.971680 0.306214 0.868015 -0.390874
4140.417480 4757.893066 8198.217773 0.022885 -0.928828 0.369803
4813.066406 5133.784180 9100.709961 0.022885 -0.928828 0.369803
4228.307617 4938.535156 8646.494141 0.022885 -0.928828 0.369803
4664.998535 5241.754395 8985.722656 -0.613412 -0.000128 0.789763
4228.307617 4938.535156 8646.494141 -0.613412 -0.000128 0.789763
4813.066406 5133.784180 9100.709961 -0.613412 -0.000128 0.789763
4909.574219 5213.430664 9055.909180 0.181300 0.951721 -0.247702
4207.001465 5191.124512 8455.971680 0.181300 0.951721 -0.247702
4664.998535 5241.754395 8985.722656 0.181300 0.951721 -0.247702
4813.066406 5133.784180 9100.709961 0.680148 -0.554258 0.479788
4929.993652 5146.954102 8950.167969 0.680148 -0.554258 0.479788
4909.574219 5213.430664 9055.909180 0.680148 -0.554258 0.479788
4909.574219 5213.430664 9055.909180 -0.150310 0.616755 0.772671
4664.998535 5241.754395 8985.722656 -0.150310 0.616755 0.772671
4813.066406 5133.784180 9100.709961 -0.150310 0.616755 0.772671
3 0 1 2
3 3 4 5
3 6 7 8
3 9 10 11
3 12 13 14
3 15 16 17
3 18 19 20
3 21 22 23
3 24 25 26
3 27 28 29
3 30 31 32
3 33 34 35
3 36 37 38
3 39 40 41
3 42 43 44
3 45 46 47
3 48 49 50
3 51 52 53
3 54 55 56
3 57 58 59
3 60 61 62
3 63 64 65
3 66 67 68
3 69 70 71
3 72 73 74
3 75 76 77
3 78 79 80
3 81 82 83
3 84 85 86
3 87 88 89
3 90 91 92
3 93 94 95
3 96 97 98
3 99 100 101
3 102 103 104
3 105 106 107
3 108 109 110
3 111 112 113
3 114 115 116
3 117 118 119
3 120 121 122
3 123 124 125
3 126 127 128
3 129 130 131
3 132 133 134
3 135 136 137
3 138 139 140
3 141 142 143
3 144 145 146
3 147 148 149
3 150 151 152
3 153 154 155
3 156 157 158
3 159 160 161
3 162 163 164
3 165 166 167
3 168 169 170
3 171 172 173
3 174 175 176
3 177 178 179
3 180 181 182
3 183 184 185
3 186 187 188
3 189 190 191
3 192 193 194
3 195 196 197
3 198 199 200
3 201 202 203
3 204 205 206
3 207 208 209
