ply
format ascii 1.0
comment Created by Blender 2.80 (sub 75) - www.blender.org, source file: 'downsample_ccf.blend'
element vertex 18
property float x
property float y
property float z
property float nx
property float ny
property float nz
element face 6
property list uchar uint vertex_indices
end_header
11439.087891 6538.678223 4291.392578 -0.106699 -0.331152 -0.937525
11653.968750 6603.272461 4244.121094 -0.106699 -0.331152 -0.937525
11621.757812 6487.686523 4288.614258 -0.106699 -0.331152 -0.937525
11810.576172 6566.985352 4295.176270 0.199028 -0.399867 -0.894703
11621.757812 6487.686523 4288.614258 0.199028 -0.399867 -0.894703
11653.968750 6603.272461 4244.121094 0.199028 -0.399867 -0.894703
11810.576172 6566.985352 4295.176270 -0.004728 -0.071282 0.997445
11439.087891 6538.678223 4291.392578 -0.004728 -0.071282 0.997445
11621.757812 6487.686523 4288.614258 -0.004728 -0.071282 0.997445
11653.968750 6603.272461 4244.121094 -0.061554 0.714665 0.696753
11439.087891 6538.678223 4291.392578 -0.061554 0.714665 0.696753
11810.576172 6566.985352 4295.176270 -0.061554 0.714665 0.696753
11796.511719 6539.685547 7113.001465 0.000604 0.126666 -0.991945
11437.962891 6527.236328 7111.193359 0.000604 0.126666 -0.991945
11720.061523 6618.231934 7122.984863 0.000604 0.126666 -0.991945
11437.962891 6527.236328 7111.193359 -0.000604 -0.126666 0.991945
11796.511719 6539.685547 7113.001465 -0.000604 -0.126666 0.991945
11720.061523 6618.231934 7122.984863 -0.000604 -0.126666 0.991945
3 0 1 2
3 3 4 5
3 6 7 8
3 9 10 11
3 12 13 14
3 15 16 17
