ply
format ascii 1.0
comment Created by Blender 2.80 (sub 75) - www.blender.org, source file: 'downsample_ccf.blend'
element vertex 240
property float x
property float y
property float z
property float nx
property float ny
property float nz
element face 80
property list uchar uint vertex_indices
end_header
7674.357422 4669.680664 1677.905518 -0.101117 -0.071161 -0.992326
7460.034668 4400.521973 1719.046509 -0.101117 -0.071161 -0.992326
7165.052734 4800.492188 1720.422363 -0.101117 -0.071161 -0.992326
7075.140137 4748.269043 1784.310059 -0.424396 -0.310070 -0.850732
7165.052734 4800.492188 1720.422363 -0.424396 -0.310070 -0.850732
7460.034668 4400.521973 1719.046509 -0.424396 -0.310070 -0.850732
7460.034668 4400.521973 1719.046509 0.620762 -0.390371 0.679901
7674.357422 4669.680664 1677.905518 0.620762 -0.390371 0.679901
7722.898438 4969.142578 1805.525146 0.620762 -0.390371 0.679901
7285.874023 5361.685059 1845.824585 0.230338 0.349669 -0.908117
7722.898438 4969.142578 1805.525146 0.230338 0.349669 -0.908117
7674.357422 4669.680664 1677.905518 0.230338 0.349669 -0.908117
7674.357422 4669.680664 1677.905518 -0.024090 0.222952 -0.974532
7165.052734 4800.492188 1720.422363 -0.024090 0.222952 -0.974532
7285.874023 5361.685059 1845.824585 -0.024090 0.222952 -0.974532
7075.140137 4748.269043 1784.310059 0.022382 -0.160424 0.986794
7460.034668 4400.521973 1719.046509 0.022382 -0.160424 0.986794
7722.898438 4969.142578 1805.525146 0.022382 -0.160424 0.986794
7722.898438 4969.142578 1805.525146 0.040741 -0.213243 0.976149
7236.968750 5500.961426 1941.983765 0.040741 -0.213243 0.976149
7075.140137 4748.269043 1784.310059 0.040741 -0.213243 0.976149
7236.968750 5500.961426 1941.983765 -0.081471 -0.316905 0.944952
7722.898438 4969.142578 1805.525146 -0.081471 -0.316905 0.944952
7731.705078 5321.876465 1924.579468 -0.081471 -0.316905 0.944952
7722.898438 4969.142578 1805.525146 0.070450 0.179175 -0.981292
7285.874023 5361.685059 1845.824585 0.070450 0.179175 -0.981292
7497.407227 5599.367676 1904.409912 0.070450 0.179175 -0.981292
6628.407227 5247.031250 2077.895264 -0.362413 0.276888 -0.889938
7285.874023 5361.685059 1845.824585 -0.362413 0.276888 -0.889938
7165.052734 4800.492188 1720.422363 -0.362413 0.276888 -0.889938
7731.705078 5321.876465 1924.579468 0.409355 0.282581 -0.867511
7722.898438 4969.142578 1805.525146 0.409355 0.282581 -0.867511
7497.407227 5599.367676 1904.409912 0.409355 0.282581 -0.867511
7165.052734 4800.492188 1720.422363 -0.569010 -0.025845 -0.821925
7075.140137 4748.269043 1784.310059 -0.569010 -0.025845 -0.821925
6628.407227 5247.031250 2077.895264 -0.569010 -0.025845 -0.821925
7285.874023 5361.685059 1845.824585 -0.010535 0.248139 -0.968667
7115.397461 5851.553711 1973.165894 -0.010535 0.248139 -0.968667
7497.407227 5599.367676 1904.409912 -0.010535 0.248139 -0.968667
7075.140137 4748.269043 1784.310059 0.312071 -0.258599 0.914187
7236.968750 5500.961426 1941.983765 0.312071 -0.258599 0.914187
6628.407227 5247.031250 2077.895264 0.312071 -0.258599 0.914187
7285.874023 5361.685059 1845.824585 -0.341670 0.060979 -0.937840
6628.407227 5247.031250 2077.895264 -0.341670 0.060979 -0.937840
6662.686035 5731.127930 2096.883301 -0.341670 0.060979 -0.937840
7285.874023 5361.685059 1845.824585 -0.394406 0.100198 -0.913457
6997.482910 5992.735840 2039.564575 -0.394406 0.100198 -0.913457
7115.397461 5851.553711 1973.165894 -0.394406 0.100198 -0.913457
7236.968750 5500.961426 1941.983765 0.133141 0.025929 0.990758
7497.407227 5599.367676 1904.409912 0.133141 0.025929 0.990758
7191.268555 5795.741699 1940.410400 0.133141 0.025929 0.990758
7236.968750 5500.961426 1941.983765 0.087274 0.145322 0.985528
7731.705078 5321.876465 1924.579468 0.087274 0.145322 0.985528
7497.407227 5599.367676 1904.409912 0.087274 0.145322 0.985528
6997.482910 5992.735840 2039.564575 -0.286216 0.159274 -0.944835
7285.874023 5361.685059 1845.824585 -0.286216 0.159274 -0.944835
6662.686035 5731.127930 2096.883301 -0.286216 0.159274 -0.944835
7191.268555 5795.741699 1940.410400 0.440090 0.073005 0.894981
7115.397461 5851.553711 1973.165894 0.440090 0.073005 0.894981
7236.968750 5500.961426 1941.983765 0.440090 0.073005 0.894981
7115.397461 5851.553711 1973.165894 0.609195 0.141849 0.780231
6997.482910 5992.735840 2039.564575 0.609195 0.141849 0.780231
7236.968750 5500.961426 1941.983765 0.609195 0.141849 0.780231
7236.968750 5500.961426 1941.983765 0.298985 -0.043552 0.953264
6997.482910 5992.735840 2039.564575 0.298985 -0.043552 0.953264
6769.569824 5894.552734 2106.562256 0.298985 -0.043552 0.953264
7236.968750 5500.961426 1941.983765 0.255817 -0.098346 0.961710
6769.569824 5894.552734 2106.562256 0.255817 -0.098346 0.961710
6628.407227 5247.031250 2077.895264 0.255817 -0.098346 0.961710
6662.686035 5731.127930 2096.883301 -0.537571 0.547446 -0.641342
6958.862793 5996.187988 2074.882568 -0.537571 0.547446 -0.641342
6997.482910 5992.735840 2039.564575 -0.537571 0.547446 -0.641342
6628.407227 5247.031250 2077.895264 -0.398757 0.064118 -0.914813
6381.661133 5392.742676 2195.661865 -0.398757 0.064118 -0.914813
6662.686035 5731.127930 2096.883301 -0.398757 0.064118 -0.914813
6769.569824 5894.552734 2106.562256 0.374527 -0.262586 0.889257
6997.482910 5992.735840 2039.564575 0.374527 -0.262586 0.889257
6907.546387 5989.018066 2076.345215 0.374527 -0.262586 0.889257
6769.569824 5894.552734 2106.562256 -0.284769 0.241193 -0.927757
6958.862793 5996.187988 2074.882568 -0.284769 0.241193 -0.927757
6662.686035 5731.127930 2096.883301 -0.284769 0.241193 -0.927757
6769.569824 5894.552734 2106.562256 0.019198 -0.329941 -0.943806
6907.546387 5989.018066 2076.345215 0.019198 -0.329941 -0.943806
6958.862793 5996.187988 2074.882568 0.019198 -0.329941 -0.943806
6691.055664 5932.555176 2157.725342 0.491561 -0.144919 0.858701
6190.162109 5788.712891 2420.184814 0.491561 -0.144919 0.858701
6628.407227 5247.031250 2077.895264 0.491561 -0.144919 0.858701
6628.407227 5247.031250 2077.895264 0.490018 -0.144882 0.859588
6769.569824 5894.552734 2106.562256 0.490018 -0.144882 0.859588
6691.055664 5932.555176 2157.725342 0.490018 -0.144882 0.859588
6662.686035 5731.127930 2096.883301 -0.435664 0.334428 -0.835676
6708.856934 5928.105957 2151.641357 -0.435664 0.334428 -0.835676
6769.569824 5894.552734 2106.562256 -0.435664 0.334428 -0.835676
6662.686035 5731.127930 2096.883301 -0.494379 0.338454 -0.800649
6678.352539 6061.236328 2226.754395 -0.494379 0.338454 -0.800649
6708.856934 5928.105957 2151.641357 -0.494379 0.338454 -0.800649
6495.576172 5989.577148 2291.509033 -0.431323 0.347952 -0.832400
6678.352539 6061.236328 2226.754395 -0.431323 0.347952 -0.832400
6662.686035 5731.127930 2096.883301 -0.431323 0.347952 -0.832400
6381.661133 5392.742676 2195.661865 0.177532 -0.419040 0.890442
6628.407227 5247.031250 2077.895264 0.177532 -0.419040 0.890442
6190.162109 5788.712891 2420.184814 0.177532 -0.419040 0.890442
6662.686035 5731.127930 2096.883301 -0.535436 0.205545 -0.819182
6381.661133 5392.742676 2195.661865 -0.535436 0.205545 -0.819182
6190.162109 5788.712891 2420.184814 -0.535436 0.205545 -0.819182
6691.055664 5932.555176 2157.725342 0.485244 -0.106105 0.867917
6655.667969 6055.785156 2192.575439 0.485244 -0.106105 0.867917
6190.162109 5788.712891 2420.184814 0.485244 -0.106105 0.867917
6662.686035 5731.127930 2096.883301 -0.520377 0.272874 -0.809165
6190.162109 5788.712891 2420.184814 -0.520377 0.272874 -0.809165
6495.576172 5989.577148 2291.509033 -0.520377 0.272874 -0.809165
6321.423828 6004.102539 2406.305908 -0.545007 0.069262 -0.835566
6655.667969 6055.785156 2192.575439 -0.545007 0.069262 -0.835566
6495.576172 5989.577148 2291.509033 -0.545007 0.069262 -0.835566
6655.667969 6055.785156 2192.575439 0.547385 -0.282832 0.787640
6321.423828 6004.102539 2406.305908 0.547385 -0.282832 0.787640
6190.162109 5788.712891 2420.184814 0.547385 -0.282832 0.787640
6190.162109 5788.712891 2420.184814 -0.530888 0.299326 -0.792819
6347.898438 6023.568848 2403.230469 -0.530888 0.299326 -0.792819
6495.576172 5989.577148 2291.509033 -0.530888 0.299326 -0.792819
6321.423828 6004.102539 2406.305908 0.449517 -0.493745 0.744413
6495.576172 5989.577148 2291.509033 0.449517 -0.493745 0.744413
6347.898438 6023.568848 2403.230469 0.449517 -0.493745 0.744413
6190.162109 5788.712891 2420.184814 0.646422 -0.350262 0.677831
6321.423828 6004.102539 2406.305908 0.646422 -0.350262 0.677831
6188.562500 5886.815430 2472.403809 0.646422 -0.350262 0.677831
6188.562500 5886.815430 2472.403809 -0.615148 0.362613 -0.700075
6347.898438 6023.568848 2403.230469 -0.615148 0.362613 -0.700075
6190.162109 5788.712891 2420.184814 -0.615148 0.362613 -0.700075
6325.447754 5992.804199 8977.289062 0.477040 -0.193804 -0.857247
6402.414062 6043.753906 9008.600586 0.477040 -0.193804 -0.857247
6165.667969 5831.705078 8924.795898 0.477040 -0.193804 -0.857247
6325.447754 5992.804199 8977.289062 -0.520504 0.293524 0.801823
6457.139648 5951.824707 9077.778320 -0.520504 0.293524 0.801823
6402.414062 6043.753906 9008.600586 -0.520504 0.293524 0.801823
6457.139648 5951.824707 9077.778320 -0.529859 0.269286 0.804198
6325.447754 5992.804199 8977.289062 -0.529859 0.269286 0.804198
6201.826660 5871.736328 8936.378906 -0.529859 0.269286 0.804198
6165.667969 5831.705078 8924.795898 0.516173 -0.252888 -0.818299
6402.414062 6043.753906 9008.600586 0.516173 -0.252888 -0.818299
6468.104492 5965.722168 9074.152344 0.516173 -0.252888 -0.818299
6165.667969 5831.705078 8924.795898 0.141536 -0.455920 -0.878695
6613.804688 5268.679688 9289.111328 0.141536 -0.455920 -0.878695
6356.392578 5423.494629 9167.321289 0.141536 -0.455920 -0.878695
6201.826660 5871.736328 8936.378906 -0.526106 0.239067 0.816124
6165.667969 5831.705078 8924.795898 -0.526106 0.239067 0.816124
6356.392578 5423.494629 9167.321289 -0.526106 0.239067 0.816124
6678.441406 5974.454102 9207.548828 0.522244 -0.281358 -0.805046
6165.667969 5831.705078 8924.795898 0.522244 -0.281358 -0.805046
6468.104492 5965.722168 9074.152344 0.522244 -0.281358 -0.805046
6615.635742 6059.395996 9123.516602 0.504849 -0.389035 -0.770571
6678.441406 5974.454102 9207.548828 0.504849 -0.389035 -0.770571
6468.104492 5965.722168 9074.152344 0.504849 -0.389035 -0.770571
6201.826660 5871.736328 8936.378906 -0.568475 0.213344 0.794556
6356.392578 5423.494629 9167.321289 -0.568475 0.213344 0.794556
6594.520508 5703.291016 9262.565430 -0.568475 0.213344 0.794556
6678.441406 5974.454102 9207.548828 0.508371 -0.144661 -0.848900
6613.804688 5268.679688 9289.111328 0.508371 -0.144661 -0.848900
6165.667969 5831.705078 8924.795898 0.508371 -0.144661 -0.848900
6457.139648 5951.824707 9077.778320 -0.468922 0.345246 0.812968
6594.520508 5703.291016 9262.565430 -0.468922 0.345246 0.812968
6615.635742 6059.395996 9123.516602 -0.468922 0.345246 0.812968
6728.812988 5915.429199 9249.704102 0.529482 -0.145083 -0.835823
6613.804688 5268.679688 9289.111328 0.529482 -0.145083 -0.835823
6678.441406 5974.454102 9207.548828 0.529482 -0.145083 -0.835823
6201.826660 5871.736328 8936.378906 -0.532134 0.295710 0.793340
6594.520508 5703.291016 9262.565430 -0.532134 0.295710 0.793340
6457.139648 5951.824707 9077.778320 -0.532134 0.295710 0.793340
6678.441406 5974.454102 9207.548828 -0.566550 0.328654 0.755651
6615.635742 6059.395996 9123.516602 -0.566550 0.328654 0.755651
6594.520508 5703.291016 9262.565430 -0.566550 0.328654 0.755651
6678.441406 5974.454102 9207.548828 -0.162355 0.244217 0.956033
6594.520508 5703.291016 9262.565430 -0.162355 0.244217 0.956033
6726.296387 5916.180664 9230.561523 -0.162355 0.244217 0.956033
6726.296387 5916.180664 9230.561523 -0.489664 0.418117 0.765120
6594.520508 5703.291016 9262.565430 -0.489664 0.418117 0.765120
6930.832031 5995.197754 9318.280273 -0.489664 0.418117 0.765120
6613.804688 5268.679688 9289.111328 -0.408833 0.037554 0.911836
6594.520508 5703.291016 9262.565430 -0.408833 0.037554 0.911836
6356.392578 5423.494629 9167.321289 -0.408833 0.037554 0.911836
6728.812988 5915.429199 9249.704102 0.361467 -0.120612 -0.924551
6930.832031 5995.197754 9318.280273 0.361467 -0.120612 -0.924551
6613.804688 5268.679688 9289.111328 0.361467 -0.120612 -0.924551
7235.388184 5527.613770 9448.226562 0.279677 -0.083641 -0.956444
6613.804688 5268.679688 9289.111328 0.279677 -0.083641 -0.956444
6930.832031 5995.197754 9318.280273 0.279677 -0.083641 -0.956444
7018.864746 4807.372070 9579.370117 -0.562950 0.025479 0.826098
6594.520508 5703.291016 9262.565430 -0.562950 0.025479 0.826098
6613.804688 5268.679688 9289.111328 -0.562950 0.025479 0.826098
6930.832031 5995.197754 9318.280273 -0.312275 0.181810 0.932432
6594.520508 5703.291016 9262.565430 -0.312275 0.181810 0.932432
7018.864746 4807.372070 9579.370117 -0.312275 0.181810 0.932432
6613.804688 5268.679688 9289.111328 0.341819 -0.266832 -0.901088
7235.388184 5527.613770 9448.226562 0.341819 -0.266832 -0.901088
7018.864746 4807.372070 9579.370117 0.341819 -0.266832 -0.901088
7235.388184 5527.613770 9448.226562 0.371803 -0.015779 -0.928177
6930.832031 5995.197754 9318.280273 0.371803 -0.015779 -0.928177
7304.112305 5698.725586 9472.846680 0.371803 -0.015779 -0.928177
7306.916504 5280.520996 9555.275391 -0.235600 0.191948 0.952706
6930.832031 5995.197754 9318.280273 -0.235600 0.191948 0.952706
7018.864746 4807.372070 9579.370117 -0.235600 0.191948 0.952706
7304.112305 5698.725586 9472.846680 0.023214 0.133238 -0.990812
7705.564941 5412.508789 9443.763672 0.023214 0.133238 -0.990812
7235.388184 5527.613770 9448.226562 0.023214 0.133238 -0.990812
7306.916504 5280.520996 9555.275391 -0.246279 0.185835 0.951216
7304.112305 5698.725586 9472.846680 -0.246279 0.185835 0.951216
6930.832031 5995.197754 9318.280273 -0.246279 0.185835 0.951216
7705.564941 5412.508789 9443.763672 -0.049613 -0.164461 -0.985135
7018.864746 4807.372070 9579.370117 -0.049613 -0.164461 -0.985135
7235.388184 5527.613770 9448.226562 -0.049613 -0.164461 -0.985135
7306.916504 5280.520996 9555.275391 -0.369992 0.270510 0.888780
7018.864746 4807.372070 9579.370117 -0.369992 0.270510 0.888780
7300.518555 4827.111816 9690.612305 -0.369992 0.270510 0.888780
7725.565430 4810.327148 9657.800781 0.105491 -0.329929 -0.938093
7018.864746 4807.372070 9579.370117 0.105491 -0.329929 -0.938093
7705.564941 5412.508789 9443.763672 0.105491 -0.329929 -0.938093
7725.565430 4810.327148 9657.800781 0.149085 0.335559 0.930147
7705.564941 5412.508789 9443.763672 0.149085 0.335559 0.930147
7306.916504 5280.520996 9555.275391 0.149085 0.335559 0.930147
7705.564941 5412.508789 9443.763672 0.205419 0.190583 0.959938
7304.112305 5698.725586 9472.846680 0.205419 0.190583 0.959938
7306.916504 5280.520996 9555.275391 0.205419 0.190583 0.959938
7526.014648 4450.348633 9658.423828 -0.135394 -0.393653 -0.909234
7319.958008 4477.872070 9677.191406 -0.135394 -0.393653 -0.909234
7018.864746 4807.372070 9579.370117 -0.135394 -0.393653 -0.909234
7526.014648 4450.348633 9658.423828 0.110346 -0.062886 -0.991902
7018.864746 4807.372070 9579.370117 0.110346 -0.062886 -0.991902
7725.565430 4810.327148 9657.800781 0.110346 -0.062886 -0.991902
7300.518555 4827.111816 9690.612305 -0.363376 -0.055964 0.929960
7018.864746 4807.372070 9579.370117 -0.363376 -0.055964 0.929960
7319.958008 4477.872070 9677.191406 -0.363376 -0.055964 0.929960
7725.565430 4810.327148 9657.800781 0.084938 0.283884 0.955089
7306.916504 5280.520996 9555.275391 0.084938 0.283884 0.955089
7300.518555 4827.111816 9690.612305 0.084938 0.283884 0.955089
7526.014648 4450.348633 9658.423828 0.084624 -0.045188 0.995388
7725.565430 4810.327148 9657.800781 0.084624 -0.045188 0.995388
7319.958008 4477.872070 9677.191406 0.084624 -0.045188 0.995388
7725.565430 4810.327148 9657.800781 0.075583 -0.034089 0.996557
7300.518555 4827.111816 9690.612305 0.075583 -0.034089 0.996557
7319.958008 4477.872070 9677.191406 0.075583 -0.034089 0.996557
3 0 1 2
3 3 4 5
3 6 7 8
3 9 10 11
3 12 13 14
3 15 16 17
3 18 19 20
3 21 22 23
3 24 25 26
3 27 28 29
3 30 31 32
3 33 34 35
3 36 37 38
3 39 40 41
3 42 43 44
3 45 46 47
3 48 49 50
3 51 52 53
3 54 55 56
3 57 58 59
3 60 61 62
3 63 64 65
3 66 67 68
3 69 70 71
3 72 73 74
3 75 76 77
3 78 79 80
3 81 82 83
3 84 85 86
3 87 88 89
3 90 91 92
3 93 94 95
3 96 97 98
3 99 100 101
3 102 103 104
3 105 106 107
3 108 109 110
3 111 112 113
3 114 115 116
3 117 118 119
3 120 121 122
3 123 124 125
3 126 127 128
3 129 130 131
3 132 133 134
3 135 136 137
3 138 139 140
3 141 142 143
3 144 145 146
3 147 148 149
3 150 151 152
3 153 154 155
3 156 157 158
3 159 160 161
3 162 163 164
3 165 166 167
3 168 169 170
3 171 172 173
3 174 175 176
3 177 178 179
3 180 181 182
3 183 184 185
3 186 187 188
3 189 190 191
3 192 193 194
3 195 196 197
3 198 199 200
3 201 202 203
3 204 205 206
3 207 208 209
3 210 211 212
3 213 214 215
3 216 217 218
3 219 220 221
3 222 223 224
3 225 226 227
3 228 229 230
3 231 232 233
3 234 235 236
3 237 238 239
