ply
format ascii 1.0
comment Created by Blender 2.80 (sub 75) - www.blender.org, source file: 'downsample_ccf.blend'
element vertex 102
property float x
property float y
property float z
property float nx
property float ny
property float nz
element face 34
property list uchar uint vertex_indices
end_header
6693.258789 7196.645020 5202.756348 0.032690 -0.133941 -0.990450
6773.482910 7242.463379 5199.208008 0.032690 -0.133941 -0.990450
7408.862793 7098.270020 5239.678223 0.032690 -0.133941 -0.990450
7278.692383 7224.745117 5302.751465 0.182711 0.582892 -0.791741
7408.862793 7098.270020 5239.678223 0.182711 0.582892 -0.791741
6773.482910 7242.463379 5199.208008 0.182711 0.582892 -0.791741
7410.417969 6807.457031 5428.979980 -0.031759 -0.545386 -0.837583
6693.258789 7196.645020 5202.756348 -0.031759 -0.545386 -0.837583
7408.862793 7098.270020 5239.678223 -0.031759 -0.545386 -0.837583
6693.258789 7196.645020 5202.756348 -0.471943 0.797173 -0.376543
6367.818359 7115.085938 5437.982422 -0.471943 0.797173 -0.376543
6773.482910 7242.463379 5199.208008 -0.471943 0.797173 -0.376543
7278.692383 7224.745117 5302.751465 0.041406 0.998657 -0.031140
6773.482910 7242.463379 5199.208008 0.041406 0.998657 -0.031140
6885.234863 7249.750977 5581.519043 0.041406 0.998657 -0.031140
6367.818359 7115.085938 5437.982422 -0.265315 -0.736370 -0.622388
6693.258789 7196.645020 5202.756348 -0.265315 -0.736370 -0.622388
6711.362793 6781.858887 5685.787598 -0.265315 -0.736370 -0.622388
6404.901855 7194.686523 5950.075195 -0.359942 0.925508 -0.117797
6773.482910 7242.463379 5199.208008 -0.359942 0.925508 -0.117797
6367.818359 7115.085938 5437.982422 -0.359942 0.925508 -0.117797
7278.692383 7224.745117 5302.751465 0.683806 0.728041 -0.048636
7403.925781 7157.502441 6056.926758 0.683806 0.728041 -0.048636
7408.862793 7098.270020 5239.678223 0.683806 0.728041 -0.048636
7278.692383 7224.745117 5302.751465 0.154844 0.979254 0.130709
6885.234863 7249.750977 5581.519043 0.154844 0.979254 0.130709
7240.448730 7170.863770 5751.728516 0.154844 0.979254 0.130709
7410.417969 6807.457031 5428.979980 -0.205274 -0.746300 -0.633165
6711.362793 6781.858887 5685.787598 -0.205274 -0.746300 -0.633165
6693.258789 7196.645020 5202.756348 -0.205274 -0.746300 -0.633165
7425.767578 6734.355469 5781.916504 0.998747 0.049986 0.002411
7408.862793 7098.270020 5239.678223 0.998747 0.049986 0.002411
7403.925781 7157.502441 6056.926758 0.998747 0.049986 0.002411
7240.448730 7170.863770 5751.728516 -0.121159 0.986730 0.108096
7403.925781 7157.502441 6056.926758 -0.121159 0.986730 0.108096
7278.692383 7224.745117 5302.751465 -0.121159 0.986730 0.108096
7410.417969 6807.457031 5428.979980 0.998451 -0.026500 -0.048912
7408.862793 7098.270020 5239.678223 0.998451 -0.026500 -0.048912
7425.767578 6734.355469 5781.916504 0.998451 -0.026500 -0.048912
7410.417969 6807.457031 5428.979980 -0.038029 -0.978835 -0.201086
7425.767578 6734.355469 5781.916504 -0.038029 -0.978835 -0.201086
6711.362793 6781.858887 5685.787598 -0.038029 -0.978835 -0.201086
6885.234863 7249.750977 5581.519043 -0.320777 0.403992 0.856675
7016.747070 7138.797852 5683.086426 -0.320777 0.403992 0.856675
7240.448730 7170.863770 5751.728516 -0.320777 0.403992 0.856675
6773.482910 7242.463379 5199.208008 -0.104993 0.994404 0.011735
6404.901855 7194.686523 5950.075195 -0.104993 0.994404 0.011735
6885.234863 7249.750977 5581.519043 -0.104993 0.994404 0.011735
7016.747070 7138.797852 5683.086426 0.573966 0.807085 0.138480
6885.234863 7249.750977 5581.519043 0.573966 0.807085 0.138480
6853.127930 7246.668457 5732.560059 0.573966 0.807085 0.138480
6399.371582 6997.806152 5846.458496 -0.619040 -0.766252 -0.172184
6367.818359 7115.085938 5437.982422 -0.619040 -0.766252 -0.172184
6711.362793 6781.858887 5685.787598 -0.619040 -0.766252 -0.172184
6399.371582 6997.806152 5846.458496 -0.997206 -0.010885 0.073905
6404.901855 7194.686523 5950.075195 -0.997206 -0.010885 0.073905
6367.818359 7115.085938 5437.982422 -0.997206 -0.010885 0.073905
6853.127930 7246.668457 5732.560059 0.155822 0.597211 -0.786803
7240.448730 7170.863770 5751.728516 0.155822 0.597211 -0.786803
7016.747070 7138.797852 5683.086426 0.155822 0.597211 -0.786803
6885.234863 7249.750977 5581.519043 -0.101552 0.994697 0.016263
6404.901855 7194.686523 5950.075195 -0.101552 0.994697 0.016263
6987.251465 7250.573730 6168.238281 -0.101552 0.994697 0.016263
6853.127930 7246.668457 5732.560059 0.056348 -0.998376 -0.008397
6885.234863 7249.750977 5581.519043 0.056348 -0.998376 -0.008397
6987.251465 7250.573730 6168.238281 0.056348 -0.998376 -0.008397
6853.127930 7246.668457 5732.560059 0.194893 0.978411 -0.068768
6987.251465 7250.573730 6168.238281 0.194893 0.978411 -0.068768
7240.448730 7170.863770 5751.728516 0.194893 0.978411 -0.068768
7403.925781 7157.502441 6056.926758 0.493013 0.839802 -0.227313
7240.448730 7170.863770 5751.728516 0.493013 0.839802 -0.227313
7256.943848 7232.968750 6016.949707 0.493013 0.839802 -0.227313
7240.448730 7170.863770 5751.728516 -0.062105 0.972633 -0.223892
6987.251465 7250.573730 6168.238281 -0.062105 0.972633 -0.223892
7256.943848 7232.968750 6016.949707 -0.062105 0.972633 -0.223892
7425.767578 6734.355469 5781.916504 -0.131597 -0.803103 0.581126
7389.782227 6975.135742 6106.520508 -0.131597 -0.803103 0.581126
6711.362793 6781.858887 5685.787598 -0.131597 -0.803103 0.581126
6399.371582 6997.806152 5846.458496 -0.185374 -0.744778 0.641048
6711.362793 6781.858887 5685.787598 -0.185374 -0.744778 0.641048
7389.782227 6975.135742 6106.520508 -0.185374 -0.744778 0.641048
7389.782227 6975.135742 6106.520508 -0.173557 -0.786739 0.592384
6668.327637 7185.188477 6174.117676 -0.173557 -0.786739 0.592384
6399.371582 6997.806152 5846.458496 -0.173557 -0.786739 0.592384
6404.901855 7194.686523 5950.075195 -0.613215 -0.354331 0.705987
6399.371582 6997.806152 5846.458496 -0.613215 -0.354331 0.705987
6668.327637 7185.188477 6174.117676 -0.613215 -0.354331 0.705987
6404.901855 7194.686523 5950.075195 -0.189150 0.946207 0.262514
6668.327637 7185.188477 6174.117676 -0.189150 0.946207 0.262514
6987.251465 7250.573730 6168.238281 -0.189150 0.946207 0.262514
7425.767578 6734.355469 5781.916504 0.989570 -0.039039 0.138661
7403.925781 7157.502441 6056.926758 0.989570 -0.039039 0.138661
7389.782227 6975.135742 6106.520508 0.989570 -0.039039 0.138661
7256.943848 7232.968750 6016.949707 0.307604 0.837929 0.450838
6987.251465 7250.573730 6168.238281 0.307604 0.837929 0.450838
7403.925781 7157.502441 6056.926758 0.307604 0.837929 0.450838
7389.782227 6975.135742 6106.520508 0.298625 0.228807 0.926537
7403.925781 7157.502441 6056.926758 0.298625 0.228807 0.926537
6987.251465 7250.573730 6168.238281 0.298625 0.228807 0.926537
6987.251465 7250.573730 6168.238281 0.048914 -0.149788 0.987507
6668.327637 7185.188477 6174.117676 0.048914 -0.149788 0.987507
7389.782227 6975.135742 6106.520508 0.048914 -0.149788 0.987507
3 0 1 2
3 3 4 5
3 6 7 8
3 9 10 11
3 12 13 14
3 15 16 17
3 18 19 20
3 21 22 23
3 24 25 26
3 27 28 29
3 30 31 32
3 33 34 35
3 36 37 38
3 39 40 41
3 42 43 44
3 45 46 47
3 48 49 50
3 51 52 53
3 54 55 56
3 57 58 59
3 60 61 62
3 63 64 65
3 66 67 68
3 69 70 71
3 72 73 74
3 75 76 77
3 78 79 80
3 81 82 83
3 84 85 86
3 87 88 89
3 90 91 92
3 93 94 95
3 96 97 98
3 99 100 101
