ply
format ascii 1.0
comment Created by Blender 2.80 (sub 75) - www.blender.org, source file: 'downsample_ccf.blend'
element vertex 6
property float x
property float y
property float z
property float nx
property float ny
property float nz
element face 2
property list uchar uint vertex_indices
end_header
6208.628906 6203.869629 6113.413086 -0.393649 -0.869487 -0.298382
6180.631348 6213.578613 6122.057617 -0.393649 -0.869487 -0.298382
6206.605957 6217.310547 6076.915039 -0.393649 -0.869487 -0.298382
6208.628906 6203.869629 6113.413086 0.393649 0.869487 0.298382
6206.605957 6217.310547 6076.915039 0.393649 0.869487 0.298382
6180.631348 6213.578613 6122.057617 0.393649 0.869487 0.298382
3 0 1 2
3 3 4 5
