ply
format ascii 1.0
comment Created by Blender 2.80 (sub 75) - www.blender.org, source file: 'downsample_ccf.blend'
element vertex 114
property float x
property float y
property float z
property float nx
property float ny
property float nz
element face 38
property list uchar uint vertex_indices
end_header
7534.645020 2509.929443 1309.830688 0.619207 0.586669 0.521922
7251.828613 2960.841064 1138.513184 0.619207 0.586669 0.521922
7395.911621 2687.137451 1275.231812 0.619207 0.586669 0.521922
7251.828613 2960.841064 1138.513184 -0.444282 -0.443864 -0.778202
7260.703613 2444.895996 1427.726929 -0.444282 -0.443864 -0.778202
7044.388184 3009.892334 1228.965332 -0.444282 -0.443864 -0.778202
7044.388184 3009.892334 1228.965332 -0.378352 -0.432725 -0.818290
7260.703613 2444.895996 1427.726929 -0.378352 -0.432725 -0.818290
7038.503418 2865.391602 1308.100586 -0.378352 -0.432725 -0.818290
7534.645020 2509.929443 1309.830688 -0.249561 -0.476761 -0.842863
7260.703613 2444.895996 1427.726929 -0.249561 -0.476761 -0.842863
7251.828613 2960.841064 1138.513184 -0.249561 -0.476761 -0.842863
7395.911621 2687.137451 1275.231812 0.437394 0.575443 0.691052
7251.828613 2960.841064 1138.513184 0.437394 0.575443 0.691052
7044.388184 3009.892334 1228.965332 0.437394 0.575443 0.691052
7647.349121 2044.845337 1602.913696 -0.161746 -0.553879 -0.816735
7534.645020 2509.929443 1309.830688 -0.161746 -0.553879 -0.816735
7917.199219 2242.891602 1415.164917 -0.161746 -0.553879 -0.816735
7647.349121 2044.845337 1602.913696 -0.213056 -0.557335 -0.802487
7260.703613 2444.895996 1427.726929 -0.213056 -0.557335 -0.802487
7534.645020 2509.929443 1309.830688 -0.213056 -0.557335 -0.802487
7534.645020 2509.929443 1309.830688 0.292879 0.042795 -0.955191
7395.911621 2687.137451 1275.231812 0.292879 0.042795 -0.955191
7917.199219 2242.891602 1415.164917 0.292879 0.042795 -0.955191
7395.911621 2687.137451 1275.231812 0.301111 0.448578 0.841493
7044.388184 3009.892334 1228.965332 0.301111 0.448578 0.841493
7038.503418 2865.391602 1308.100586 0.301111 0.448578 0.841493
7038.503418 2865.391602 1308.100586 0.344109 0.549580 0.761283
7321.620605 2429.387939 1494.884888 0.344109 0.549580 0.761283
7395.911621 2687.137451 1275.231812 0.344109 0.549580 0.761283
7260.703613 2444.895996 1427.726929 -0.747486 -0.216310 0.628072
7321.620605 2429.387939 1494.884888 -0.747486 -0.216310 0.628072
7038.503418 2865.391602 1308.100586 -0.747486 -0.216310 0.628072
7917.199219 2242.891602 1415.164917 -0.052430 -0.648490 -0.759415
8079.493164 1881.150269 1712.863159 -0.052430 -0.648490 -0.759415
7647.349121 2044.845337 1602.913696 -0.052430 -0.648490 -0.759415
8079.493164 1881.150269 1712.863159 0.302829 0.682930 0.664756
7917.199219 2242.891602 1415.164917 0.302829 0.682930 0.664756
7321.620605 2429.387939 1494.884888 0.302829 0.682930 0.664756
7917.199219 2242.891602 1415.164917 0.282552 0.573710 0.768779
7395.911621 2687.137451 1275.231812 0.282552 0.573710 0.768779
7321.620605 2429.387939 1494.884888 0.282552 0.573710 0.768779
7260.703613 2444.895996 1427.726929 -0.709449 -0.454588 0.538547
7894.570312 1857.661499 1767.059204 -0.709449 -0.454588 0.538547
7321.620605 2429.387939 1494.884888 -0.709449 -0.454588 0.538547
7260.703613 2444.895996 1427.726929 -0.702372 -0.430644 0.566762
7647.349121 2044.845337 1602.913696 -0.702372 -0.430644 0.566762
7894.570312 1857.661499 1767.059204 -0.702372 -0.430644 0.566762
7647.349121 2044.845337 1602.913696 -0.104996 -0.730455 -0.674841
8079.493164 1881.150269 1712.863159 -0.104996 -0.730455 -0.674841
7894.570312 1857.661499 1767.059204 -0.104996 -0.730455 -0.674841
8079.493164 1881.150269 1712.863159 0.167982 0.555899 0.814100
7321.620605 2429.387939 1494.884888 0.167982 0.555899 0.814100
7894.570312 1857.661499 1767.059204 0.167982 0.555899 0.814100
8065.195801 1879.951782 9656.771484 0.036971 -0.771031 0.635724
8027.355469 2009.790283 9816.445312 0.036971 -0.771031 0.635724
7917.107422 1835.970947 9612.041992 0.036971 -0.771031 0.635724
7917.107422 1835.970947 9612.041992 0.106248 0.510229 -0.853451
7368.239746 2369.608887 9862.743164 0.106248 0.510229 -0.853451
8065.195801 1879.951782 9656.771484 0.106248 0.510229 -0.853451
7895.017090 2258.803467 9972.116211 0.752635 0.586758 -0.298758
8027.355469 2009.790283 9816.445312 0.752635 0.586758 -0.298758
8065.195801 1879.951782 9656.771484 0.752635 0.586758 -0.298758
7368.239746 2369.608887 9862.743164 -0.687297 -0.432881 -0.583298
7917.107422 1835.970947 9612.041992 -0.687297 -0.432881 -0.583298
7453.645020 2221.346924 9872.139648 -0.687297 -0.432881 -0.583298
7895.017090 2258.803467 9972.116211 0.283434 0.685520 -0.670618
8065.195801 1879.951782 9656.771484 0.283434 0.685520 -0.670618
7368.239746 2369.608887 9862.743164 0.283434 0.685520 -0.670618
7917.107422 1835.970947 9612.041992 -0.189112 -0.695369 0.693324
8027.355469 2009.790283 9816.445312 -0.189112 -0.695369 0.693324
7453.645020 2221.346924 9872.139648 -0.189112 -0.695369 0.693324
7537.782227 2524.122070 10055.256836 0.282113 0.611498 -0.739244
7895.017090 2258.803467 9972.116211 0.282113 0.611498 -0.739244
7368.239746 2369.608887 9862.743164 0.282113 0.611498 -0.739244
7453.645020 2221.346924 9872.139648 -0.801880 -0.484111 -0.350179
7121.024902 2668.921143 10015.054688 -0.801880 -0.484111 -0.350179
7368.239746 2369.608887 9862.743164 -0.801880 -0.484111 -0.350179
7011.257324 2997.663574 10145.237305 0.361420 0.545539 -0.756150
7537.782227 2524.122070 10055.256836 0.361420 0.545539 -0.756150
7368.239746 2369.608887 9862.743164 0.361420 0.545539 -0.756150
7011.257324 2997.663574 10145.237305 -0.213478 0.297250 -0.930629
7368.239746 2369.608887 9862.743164 -0.213478 0.297250 -0.930629
7121.024902 2668.921143 10015.054688 -0.213478 0.297250 -0.930629
7453.645020 2221.346924 9872.139648 -0.133902 -0.575509 0.806759
8027.355469 2009.790283 9816.445312 -0.133902 -0.575509 0.806759
7895.017090 2258.803467 9972.116211 -0.133902 -0.575509 0.806759
7453.645020 2221.346924 9872.139648 -0.447657 -0.556243 0.700140
7196.655273 2843.352051 10201.992188 -0.447657 -0.556243 0.700140
7121.024902 2668.921143 10015.054688 -0.447657 -0.556243 0.700140
7011.257324 2997.663574 10145.237305 0.263277 0.454435 -0.850984
7237.847656 2969.488525 10200.293945 0.263277 0.454435 -0.850984
7537.782227 2524.122070 10055.256836 0.263277 0.454435 -0.850984
7537.782227 2524.122070 10055.256836 0.841548 0.500843 0.202368
7237.847656 2969.488525 10200.293945 0.841548 0.500843 0.202368
7324.443848 2828.587646 10188.900391 0.841548 0.500843 0.202368
7895.017090 2258.803467 9972.116211 -0.148522 -0.510506 0.846950
7196.655273 2843.352051 10201.992188 -0.148522 -0.510506 0.846950
7453.645020 2221.346924 9872.139648 -0.148522 -0.510506 0.846950
7895.017090 2258.803467 9972.116211 0.345509 0.670835 -0.656204
7537.782227 2524.122070 10055.256836 0.345509 0.670835 -0.656204
7196.655273 2843.352051 10201.992188 0.345509 0.670835 -0.656204
7537.782227 2524.122070 10055.256836 0.052203 -0.370486 0.927370
7324.443848 2828.587646 10188.900391 0.052203 -0.370486 0.927370
7196.655273 2843.352051 10201.992188 0.052203 -0.370486 0.927370
7121.024902 2668.921143 10015.054688 -0.586784 -0.459860 0.666493
7196.655273 2843.352051 10201.992188 -0.586784 -0.459860 0.666493
7011.257324 2997.663574 10145.237305 -0.586784 -0.459860 0.666493
7011.257324 2997.663574 10145.237305 -0.225047 0.086560 0.970495
7196.655273 2843.352051 10201.992188 -0.225047 0.086560 0.970495
7237.847656 2969.488525 10200.293945 -0.225047 0.086560 0.970495
7324.443848 2828.587646 10188.900391 0.099705 -0.019167 0.994832
7237.847656 2969.488525 10200.293945 0.099705 -0.019167 0.994832
7196.655273 2843.352051 10201.992188 0.099705 -0.019167 0.994832
3 0 1 2
3 3 4 5
3 6 7 8
3 9 10 11
3 12 13 14
3 15 16 17
3 18 19 20
3 21 22 23
3 24 25 26
3 27 28 29
3 30 31 32
3 33 34 35
3 36 37 38
3 39 40 41
3 42 43 44
3 45 46 47
3 48 49 50
3 51 52 53
3 54 55 56
3 57 58 59
3 60 61 62
3 63 64 65
3 66 67 68
3 69 70 71
3 72 73 74
3 75 76 77
3 78 79 80
3 81 82 83
3 84 85 86
3 87 88 89
3 90 91 92
3 93 94 95
3 96 97 98
3 99 100 101
3 102 103 104
3 105 106 107
3 108 109 110
3 111 112 113
