ply
format ascii 1.0
comment Created by Blender 2.80 (sub 75) - www.blender.org, source file: 'downsample_ccf.blend'
element vertex 90
property float x
property float y
property float z
property float nx
property float ny
property float nz
element face 30
property list uchar uint vertex_indices
end_header
8809.294922 2716.119873 890.200378 -0.837991 0.506402 -0.203295
8761.772461 2622.813721 853.666931 -0.837991 0.506402 -0.203295
8518.062500 2306.925537 1071.381592 -0.837991 0.506402 -0.203295
8809.294922 2716.119873 890.200378 0.881013 -0.308169 -0.358954
8749.975586 2308.646729 1094.431641 0.881013 -0.308169 -0.358954
8761.772461 2622.813721 853.666931 0.881013 -0.308169 -0.358954
8098.115723 1938.257202 1180.448120 -0.507876 0.718915 0.474577
8518.062500 2306.925537 1071.381592 -0.507876 0.718915 0.474577
8761.772461 2622.813721 853.666931 -0.507876 0.718915 0.474577
8761.772461 2622.813721 853.666931 0.237741 -0.596446 -0.766636
8749.975586 2308.646729 1094.431641 0.237741 -0.596446 -0.766636
8098.115723 1938.257202 1180.448120 0.237741 -0.596446 -0.766636
8518.062500 2306.925537 1071.381592 -0.091338 0.456804 0.884866
8749.975586 2308.646729 1094.431641 -0.091338 0.456804 0.884866
8809.294922 2716.119873 890.200378 -0.091338 0.456804 0.884866
8749.975586 2308.646729 1094.431641 0.184974 -0.519300 -0.834333
8478.248047 1822.380737 1336.847290 0.184974 -0.519300 -0.834333
8098.115723 1938.257202 1180.448120 0.184974 -0.519300 -0.834333
8098.115723 1938.257202 1180.448120 -0.011819 0.068250 -0.997598
8008.896973 2012.865479 1186.609375 -0.011819 0.068250 -0.997598
8295.218750 2117.088623 1190.347534 -0.011819 0.068250 -0.997598
8098.115723 1938.257202 1180.448120 -0.668348 0.740524 -0.070259
8295.218750 2117.088623 1190.347534 -0.668348 0.740524 -0.070259
8518.062500 2306.925537 1071.381592 -0.668348 0.740524 -0.070259
8185.956055 1714.197754 1450.965942 -0.608821 -0.696717 -0.379372
8008.896973 2012.865479 1186.609375 -0.608821 -0.696717 -0.379372
8098.115723 1938.257202 1180.448120 -0.608821 -0.696717 -0.379372
8749.975586 2308.646729 1094.431641 -0.083675 0.597834 0.797241
8518.062500 2306.925537 1071.381592 -0.083675 0.597834 0.797241
8295.218750 2117.088623 1190.347534 -0.083675 0.597834 0.797241
8473.379883 1817.235840 1430.442627 0.876835 -0.480408 0.019199
8478.248047 1822.380737 1336.847290 0.876835 -0.480408 0.019199
8749.975586 2308.646729 1094.431641 0.876835 -0.480408 0.019199
8295.218750 2117.088623 1190.347534 -0.080953 0.593231 0.800952
8473.379883 1817.235840 1430.442627 -0.080953 0.593231 0.800952
8749.975586 2308.646729 1094.431641 -0.080953 0.593231 0.800952
8098.115723 1938.257202 1180.448120 0.031722 -0.764667 -0.643645
8478.248047 1822.380737 1336.847290 0.031722 -0.764667 -0.643645
8185.956055 1714.197754 1450.965942 0.031722 -0.764667 -0.643645
8185.956055 1714.197754 1450.965942 -0.218211 0.571084 0.791358
8295.218750 2117.088623 1190.347534 -0.218211 0.571084 0.791358
8008.896973 2012.865479 1186.609375 -0.218211 0.571084 0.791358
8478.248047 1822.380737 1336.847290 0.335088 -0.941561 -0.034328
8473.379883 1817.235840 1430.442627 0.335088 -0.941561 -0.034328
8185.956055 1714.197754 1450.965942 0.335088 -0.941561 -0.034328
8473.379883 1817.235840 1430.442627 -0.144444 0.564764 0.812513
8295.218750 2117.088623 1190.347534 -0.144444 0.564764 0.812513
8185.956055 1714.197754 1450.965942 -0.144444 0.564764 0.812513
8438.522461 1759.250366 9943.283203 -0.081141 0.652429 -0.753494
8200.235352 1722.525757 9937.144531 -0.081141 0.652429 -0.753494
8006.367188 1994.264893 10193.312500 -0.081141 0.652429 -0.753494
8438.522461 1759.250366 9943.283203 0.090934 -0.707217 0.701124
8319.508789 2067.319336 10269.464844 0.090934 -0.707217 0.701124
8200.235352 1722.525757 9937.144531 0.090934 -0.707217 0.701124
8006.367188 1994.264893 10193.312500 -0.182326 0.539356 -0.822103
8432.366211 2186.264160 10224.798828 -0.182326 0.539356 -0.822103
8438.522461 1759.250366 9943.283203 -0.182326 0.539356 -0.822103
8651.553711 2149.083496 10178.447266 -0.083158 0.547673 -0.832550
8438.522461 1759.250366 9943.283203 -0.083158 0.547673 -0.832550
8432.366211 2186.264160 10224.798828 -0.083158 0.547673 -0.832550
8006.367188 1994.264893 10193.312500 -0.014407 -0.691303 0.722421
8200.235352 1722.525757 9937.144531 -0.014407 -0.691303 0.722421
8319.508789 2067.319336 10269.464844 -0.014407 -0.691303 0.722421
8726.743164 2247.211670 10298.653320 0.899482 -0.299743 -0.317940
8438.522461 1759.250366 9943.283203 0.899482 -0.299743 -0.317940
8651.553711 2149.083496 10178.447266 0.899482 -0.299743 -0.317940
8726.743164 2247.211670 10298.653320 0.240677 -0.660269 0.711421
8319.508789 2067.319336 10269.464844 0.240677 -0.660269 0.711421
8438.522461 1759.250366 9943.283203 0.240677 -0.660269 0.711421
8006.367188 1994.264893 10193.312500 -0.317828 0.582495 0.748121
8319.508789 2067.319336 10269.464844 -0.317828 0.582495 0.748121
8432.366211 2186.264160 10224.798828 -0.317828 0.582495 0.748121
8432.366211 2186.264160 10224.798828 -0.096487 0.502377 -0.859249
8825.530273 2708.930176 10486.236328 -0.096487 0.502377 -0.859249
8651.553711 2149.083496 10178.447266 -0.096487 0.502377 -0.859249
8726.743164 2247.211670 10298.653320 0.163244 -0.506882 0.846417
8718.079102 2577.043213 10497.845703 0.163244 -0.506882 0.846417
8319.508789 2067.319336 10269.464844 0.163244 -0.506882 0.846417
8825.530273 2708.930176 10486.236328 0.827987 0.049764 -0.558534
8726.743164 2247.211670 10298.653320 0.827987 0.049764 -0.558534
8651.553711 2149.083496 10178.447266 0.827987 0.049764 -0.558534
8718.079102 2577.043213 10497.845703 -0.744795 0.650002 -0.150925
8432.366211 2186.264160 10224.798828 -0.744795 0.650002 -0.150925
8319.508789 2067.319336 10269.464844 -0.744795 0.650002 -0.150925
8825.530273 2708.930176 10486.236328 -0.776172 0.625106 -0.082461
8432.366211 2186.264160 10224.798828 -0.776172 0.625106 -0.082461
8718.079102 2577.043213 10497.845703 -0.776172 0.625106 -0.082461
8726.743164 2247.211670 10298.653320 0.579471 -0.410113 0.704287
8825.530273 2708.930176 10486.236328 0.579471 -0.410113 0.704287
8718.079102 2577.043213 10497.845703 0.579471 -0.410113 0.704287
3 0 1 2
3 3 4 5
3 6 7 8
3 9 10 11
3 12 13 14
3 15 16 17
3 18 19 20
3 21 22 23
3 24 25 26
3 27 28 29
3 30 31 32
3 33 34 35
3 36 37 38
3 39 40 41
3 42 43 44
3 45 46 47
3 48 49 50
3 51 52 53
3 54 55 56
3 57 58 59
3 60 61 62
3 63 64 65
3 66 67 68
3 69 70 71
3 72 73 74
3 75 76 77
3 78 79 80
3 81 82 83
3 84 85 86
3 87 88 89
