ply
format ascii 1.0
comment Created by Blender 2.80 (sub 75) - www.blender.org, source file: 'downsample_ccf.blend'
element vertex 132
property float x
property float y
property float z
property float nx
property float ny
property float nz
element face 44
property list uchar uint vertex_indices
end_header
8481.191406 3460.833252 1381.410522 -0.242616 -0.141906 -0.959688
8295.948242 3383.419434 1439.688232 -0.242616 -0.141906 -0.959688
7748.043457 3704.480713 1530.728027 -0.242616 -0.141906 -0.959688
8481.191406 3460.833252 1381.410522 -0.129042 -0.380566 -0.915706
8625.051758 3239.767822 1453.012085 -0.129042 -0.380566 -0.915706
8295.948242 3383.419434 1439.688232 -0.129042 -0.380566 -0.915706
8625.051758 3239.767822 1453.012085 -0.104276 -0.326042 -0.939587
8596.279297 3163.609863 1482.632568 -0.104276 -0.326042 -0.939587
8295.948242 3383.419434 1439.688232 -0.104276 -0.326042 -0.939587
8047.896484 3489.296631 1461.038330 0.339931 0.868936 -0.359719
8044.422852 3506.694580 1499.782227 0.339931 0.868936 -0.359719
8295.948242 3383.419434 1439.688232 0.339931 0.868936 -0.359719
8481.191406 3460.833252 1381.410522 0.248993 0.397227 0.883297
8168.561035 3550.538086 1429.196899 0.248993 0.397227 0.883297
8596.279297 3163.609863 1482.632568 0.248993 0.397227 0.883297
7471.763672 3742.238037 1666.383789 -0.431247 -0.528615 -0.731158
7748.043457 3704.480713 1530.728027 -0.431247 -0.528615 -0.731158
8295.948242 3383.419434 1439.688232 -0.431247 -0.528615 -0.731158
8481.191406 3460.833252 1381.410522 -0.111450 -0.741106 0.662073
7748.043457 3704.480713 1530.728027 -0.111450 -0.741106 0.662073
8168.561035 3550.538086 1429.196899 -0.111450 -0.741106 0.662073
8596.279297 3163.609863 1482.632568 -0.605690 0.036173 0.794878
8617.706055 3164.558838 1498.916382 -0.605690 0.036173 0.794878
8481.191406 3460.833252 1381.410522 -0.605690 0.036173 0.794878
8625.051758 3239.767822 1453.012085 0.315175 0.471811 0.823443
8481.191406 3460.833252 1381.410522 0.315175 0.471811 0.823443
8617.706055 3164.558838 1498.916382 0.315175 0.471811 0.823443
8168.561035 3550.538086 1429.196899 -0.213287 -0.101579 0.971695
8295.948242 3383.419434 1439.688232 -0.213287 -0.101579 0.971695
8596.279297 3163.609863 1482.632568 -0.213287 -0.101579 0.971695
8295.948242 3383.419434 1439.688232 0.162174 0.184473 0.969366
8168.561035 3550.538086 1429.196899 0.162174 0.184473 0.969366
8047.896484 3489.296631 1461.038330 0.162174 0.184473 0.969366
8044.422852 3506.694580 1499.782227 0.070305 -0.317532 0.945638
7850.278320 3562.963623 1533.110474 0.070305 -0.317532 0.945638
8295.948242 3383.419434 1439.688232 0.070305 -0.317532 0.945638
8295.948242 3383.419434 1439.688232 0.258473 0.865182 -0.429711
7850.278320 3562.963623 1533.110474 0.258473 0.865182 -0.429711
7471.763672 3742.238037 1666.383789 0.258473 0.865182 -0.429711
8047.896484 3489.296631 1461.038330 0.304706 -0.108373 0.946261
8168.561035 3550.538086 1429.196899 0.304706 -0.108373 0.946261
7850.278320 3562.963623 1533.110474 0.304706 -0.108373 0.946261
8168.561035 3550.538086 1429.196899 0.309773 0.239278 0.920210
7748.043457 3704.480713 1530.728027 0.309773 0.239278 0.920210
7850.278320 3562.963623 1533.110474 0.309773 0.239278 0.920210
7850.278320 3562.963623 1533.110474 0.491544 0.368386 0.789098
7748.043457 3704.480713 1530.728027 0.491544 0.368386 0.789098
7626.667480 3739.391113 1590.037720 0.491544 0.368386 0.789098
7850.278320 3562.963623 1533.110474 -0.378071 -0.115389 -0.918557
7274.469238 3413.863770 1788.838989 -0.378071 -0.115389 -0.918557
7471.763672 3742.238037 1666.383789 -0.378071 -0.115389 -0.918557
7378.777344 3333.675537 1793.825928 -0.277455 -0.414804 -0.866577
7274.469238 3413.863770 1788.838989 -0.277455 -0.414804 -0.866577
7850.278320 3562.963623 1533.110474 -0.277455 -0.414804 -0.866577
7850.278320 3562.963623 1533.110474 0.387834 0.201325 0.899474
7626.667480 3739.391113 1590.037720 0.387834 0.201325 0.899474
7333.079590 3314.490723 1811.730103 0.387834 0.201325 0.899474
7378.777344 3333.675537 1793.825928 -0.232174 0.899180 0.370905
7850.278320 3562.963623 1533.110474 -0.232174 0.899180 0.370905
7333.079590 3314.490723 1811.730103 -0.232174 0.899180 0.370905
7333.079590 3314.490723 1811.730103 0.438850 0.158269 0.884512
7626.667480 3739.391113 1590.037720 0.438850 0.158269 0.884512
7471.763672 3742.238037 1666.383789 0.438850 0.158269 0.884512
7333.079590 3314.490723 1811.730103 0.113907 0.286328 0.951337
7471.763672 3742.238037 1666.383789 0.113907 0.286328 0.951337
7274.469238 3413.863770 1788.838989 0.113907 0.286328 0.951337
7319.111816 3449.786133 9649.789062 -0.067975 0.130946 -0.989056
7304.922852 3700.223877 9683.920898 -0.067975 0.130946 -0.989056
7378.017578 3324.971436 9629.215820 -0.067975 0.130946 -0.989056
7658.294434 3720.332764 9811.000000 0.321746 0.197661 -0.925964
7378.017578 3324.971436 9629.215820 0.321746 0.197661 -0.925964
7304.922852 3700.223877 9683.920898 0.321746 0.197661 -0.925964
7378.017578 3324.971436 9629.215820 0.730669 -0.220961 -0.645987
7658.294434 3720.332764 9811.000000 0.730669 -0.220961 -0.645987
7610.421875 3580.166748 9804.795898 0.730669 -0.220961 -0.645987
7319.111816 3449.786133 9649.789062 -0.165789 -0.142387 0.975828
7437.470215 3735.449951 9711.580078 -0.165789 -0.142387 0.975828
7304.922852 3700.223877 9683.920898 -0.165789 -0.142387 0.975828
7658.294434 3720.332764 9811.000000 -0.411891 -0.026366 0.910852
7437.470215 3735.449951 9711.580078 -0.411891 -0.026366 0.910852
7319.111816 3449.786133 9649.789062 -0.411891 -0.026366 0.910852
7890.704590 3720.836426 9878.016602 -0.269819 -0.220284 0.937375
7658.294434 3720.332764 9811.000000 -0.269819 -0.220284 0.937375
7319.111816 3449.786133 9649.789062 -0.269819 -0.220284 0.937375
7658.294434 3720.332764 9811.000000 0.225711 -0.033996 -0.973601
8085.840820 3491.644775 9918.103516 0.225711 -0.033996 -0.973601
7610.421875 3580.166748 9804.795898 0.225711 -0.033996 -0.973601
7319.111816 3449.786133 9649.789062 -0.395127 0.061487 0.916566
7975.493164 3669.291748 9918.026367 -0.395127 0.061487 0.916566
7890.704590 3720.836426 9878.016602 -0.395127 0.061487 0.916566
8553.080078 3166.486084 9914.749023 -0.386995 0.280506 -0.878380
8544.312500 3394.860352 9991.541992 -0.386995 0.280506 -0.878380
8679.501953 3121.583740 9844.710938 -0.386995 0.280506 -0.878380
7319.111816 3449.786133 9649.789062 0.243070 0.467414 -0.849965
7610.421875 3580.166748 9804.795898 0.243070 0.467414 -0.849965
8010.728027 3513.098633 9882.391602 0.243070 0.467414 -0.849965
8085.840820 3491.644775 9918.103516 0.342937 0.212623 -0.914979
7658.294434 3720.332764 9811.000000 0.342937 0.212623 -0.914979
7975.493164 3669.291748 9918.026367 0.342937 0.212623 -0.914979
8553.080078 3166.486084 9914.749023 0.109154 0.320581 -0.940911
8364.253906 3333.043701 9949.591797 0.109154 0.320581 -0.940911
8544.312500 3394.860352 9991.541992 0.109154 0.320581 -0.940911
8364.253906 3333.043701 9949.591797 0.183150 0.127989 -0.974718
8085.840820 3491.644775 9918.103516 0.183150 0.127989 -0.974718
8544.312500 3394.860352 9991.541992 0.183150 0.127989 -0.974718
8544.312500 3394.860352 9991.541992 0.246517 0.576847 -0.778766
8085.840820 3491.644775 9918.103516 0.246517 0.576847 -0.778766
8561.862305 3408.913574 10007.506836 0.246517 0.576847 -0.778766
7319.111816 3449.786133 9649.789062 -0.275188 -0.321964 0.905876
8010.728027 3513.098633 9882.391602 -0.275188 -0.321964 0.905876
8080.708008 3648.970215 9951.941406 -0.275188 -0.321964 0.905876
8085.840820 3491.644775 9918.103516 0.204293 0.126478 -0.970705
7975.493164 3669.291748 9918.026367 0.204293 0.126478 -0.970705
8561.862305 3408.913574 10007.506836 0.204293 0.126478 -0.970705
7975.493164 3669.291748 9918.026367 -0.329760 -0.152442 0.931676
7319.111816 3449.786133 9649.789062 -0.329760 -0.152442 0.931676
8080.708008 3648.970215 9951.941406 -0.329760 -0.152442 0.931676
8080.708008 3648.970215 9951.941406 0.351295 0.524614 -0.775482
8561.862305 3408.913574 10007.506836 0.351295 0.524614 -0.775482
7975.493164 3669.291748 9918.026367 0.351295 0.524614 -0.775482
8085.840820 3491.644775 9918.103516 -0.466785 -0.200489 0.861345
8080.708008 3648.970215 9951.941406 -0.466785 -0.200489 0.861345
8010.728027 3513.098633 9882.391602 -0.466785 -0.200489 0.861345
8080.708008 3648.970215 9951.941406 -0.228153 -0.211836 0.950301
8085.840820 3491.644775 9918.103516 -0.228153 -0.211836 0.950301
8364.253906 3333.043701 9949.591797 -0.228153 -0.211836 0.950301
8679.501953 3121.583740 9844.710938 -0.056057 -0.509457 0.858668
8561.862305 3408.913574 10007.506836 -0.056057 -0.509457 0.858668
8364.253906 3333.043701 9949.591797 -0.056057 -0.509457 0.858668
8364.253906 3333.043701 9949.591797 -0.207023 -0.192938 0.959123
8561.862305 3408.913574 10007.506836 -0.207023 -0.192938 0.959123
8080.708008 3648.970215 9951.941406 -0.207023 -0.192938 0.959123
3 0 1 2
3 3 4 5
3 6 7 8
3 9 10 11
3 12 13 14
3 15 16 17
3 18 19 20
3 21 22 23
3 24 25 26
3 27 28 29
3 30 31 32
3 33 34 35
3 36 37 38
3 39 40 41
3 42 43 44
3 45 46 47
3 48 49 50
3 51 52 53
3 54 55 56
3 57 58 59
3 60 61 62
3 63 64 65
3 66 67 68
3 69 70 71
3 72 73 74
3 75 76 77
3 78 79 80
3 81 82 83
3 84 85 86
3 87 88 89
3 90 91 92
3 93 94 95
3 96 97 98
3 99 100 101
3 102 103 104
3 105 106 107
3 108 109 110
3 111 112 113
3 114 115 116
3 117 118 119
3 120 121 122
3 123 124 125
3 126 127 128
3 129 130 131
