ply
format ascii 1.0
comment Created by Blender 2.80 (sub 75) - www.blender.org, source file: 'downsample_ccf.blend'
element vertex 162
property float x
property float y
property float z
property float nx
property float ny
property float nz
element face 54
property list uchar uint vertex_indices
end_header
8104.229004 3647.600098 854.623169 0.363022 0.511788 -0.778645
8674.178711 3299.120117 891.297729 0.363022 0.511788 -0.778645
8148.926270 3545.028564 808.043884 0.363022 0.511788 -0.778645
8394.638672 3050.720947 922.821533 0.459670 0.616628 -0.639120
7979.988281 3313.536621 878.162231 0.459670 0.616628 -0.639120
7460.401855 3699.605469 876.946228 0.459670 0.616628 -0.639120
8394.638672 3050.720947 922.821533 -0.161161 -0.298538 -0.940692
7460.401855 3699.605469 876.946228 -0.161161 -0.298538 -0.940692
8148.926270 3545.028564 808.043884 -0.161161 -0.298538 -0.940692
8394.638672 3050.720947 922.821533 0.063508 -0.195664 -0.978612
8148.926270 3545.028564 808.043884 0.063508 -0.195664 -0.978612
8674.178711 3299.120117 891.297729 0.063508 -0.195664 -0.978612
8148.926270 3545.028564 808.043884 0.001895 0.414162 -0.910201
7460.401855 3699.605469 876.946228 0.001895 0.414162 -0.910201
8104.229004 3647.600098 854.623169 0.001895 0.414162 -0.910201
8782.972656 3033.808594 1004.852051 0.182130 -0.322831 -0.928767
8394.638672 3050.720947 922.821533 0.182130 -0.322831 -0.928767
8674.178711 3299.120117 891.297729 0.182130 -0.322831 -0.928767
7979.988281 3313.536621 878.162231 -0.125288 -0.171696 -0.977151
7326.648438 3223.252930 977.795898 -0.125288 -0.171696 -0.977151
7460.401855 3699.605469 876.946228 -0.125288 -0.171696 -0.977151
7326.648438 3223.252930 977.795898 0.193204 -0.419110 0.887141
7979.988281 3313.536621 878.162231 0.193204 -0.419110 0.887141
7817.760742 3369.978516 940.157288 0.193204 -0.419110 0.887141
7460.401855 3699.605469 876.946228 -0.247561 -0.133649 -0.959610
7326.648438 3223.252930 977.795898 -0.247561 -0.133649 -0.959610
7070.935059 3659.271484 983.038879 -0.247561 -0.133649 -0.959610
7817.760742 3369.978516 940.157288 0.073918 0.223186 0.971969
8674.178711 3299.120117 891.297729 0.073918 0.223186 0.971969
8104.229004 3647.600098 854.623169 0.073918 0.223186 0.971969
7460.401855 3699.605469 876.946228 -0.225525 0.828210 -0.513036
7070.935059 3659.271484 983.038879 -0.225525 0.828210 -0.513036
7108.511230 3705.375488 1040.947998 -0.225525 0.828210 -0.513036
7460.401855 3699.605469 876.946228 0.084703 0.985493 0.147070
7108.511230 3705.375488 1040.947998 0.084703 0.985493 0.147070
8104.229004 3647.600098 854.623169 0.084703 0.985493 0.147070
8782.972656 3033.808594 1004.852051 0.166378 -0.445778 -0.879545
8686.986328 2853.201416 1078.231689 0.166378 -0.445778 -0.879545
8394.638672 3050.720947 922.821533 0.166378 -0.445778 -0.879545
8782.972656 3033.808594 1004.852051 -0.328862 -0.944378 -0.000774
7817.760742 3369.978516 940.157288 -0.328862 -0.944378 -0.000774
7979.988281 3313.536621 878.162231 -0.328862 -0.944378 -0.000774
7440.328125 3292.629395 1036.602295 0.287502 -0.848192 0.444874
7326.648438 3223.252930 977.795898 0.287502 -0.848192 0.444874
7817.760742 3369.978516 940.157288 0.287502 -0.848192 0.444874
8674.178711 3299.120117 891.297729 0.086388 0.421738 0.902593
7817.760742 3369.978516 940.157288 0.086388 0.421738 0.902593
8782.972656 3033.808594 1004.852051 0.086388 0.421738 0.902593
8686.986328 2853.201416 1078.231689 -0.527058 -0.845726 -0.083412
7979.988281 3313.536621 878.162231 -0.527058 -0.845726 -0.083412
8394.638672 3050.720947 922.821533 -0.527058 -0.845726 -0.083412
8782.972656 3033.808594 1004.852051 -0.012659 0.382149 0.924014
7979.988281 3313.536621 878.162231 -0.012659 0.382149 0.924014
8686.986328 2853.201416 1078.231689 -0.012659 0.382149 0.924014
7326.648438 3223.252930 977.795898 0.620330 -0.667899 -0.411221
7440.328125 3292.629395 1036.602295 0.620330 -0.667899 -0.411221
7250.257324 3056.684326 1133.097534 0.620330 -0.667899 -0.411221
7326.648438 3223.252930 977.795898 -0.479562 -0.271215 -0.834543
7015.075195 3106.498291 1194.782104 -0.479562 -0.271215 -0.834543
7070.935059 3659.271484 983.038879 -0.479562 -0.271215 -0.834543
7817.760742 3369.978516 940.157288 0.236676 0.054651 0.970050
8104.229004 3647.600098 854.623169 0.236676 0.054651 0.970050
7440.328125 3292.629395 1036.602295 0.236676 0.054651 0.970050
7015.075195 3106.498291 1194.782104 -0.890337 0.238529 0.387820
7108.511230 3705.375488 1040.947998 -0.890337 0.238529 0.387820
7070.935059 3659.271484 983.038879 -0.890337 0.238529 0.387820
7015.075195 3106.498291 1194.782104 -0.319209 -0.563807 -0.761726
7326.648438 3223.252930 977.795898 -0.319209 -0.563807 -0.761726
7250.257324 3056.684326 1133.097534 -0.319209 -0.563807 -0.761726
8104.229004 3647.600098 854.623169 0.190040 0.142551 0.971372
7108.511230 3705.375488 1040.947998 0.190040 0.142551 0.971372
7440.328125 3292.629395 1036.602295 0.190040 0.142551 0.971372
7440.328125 3292.629395 1036.602295 0.247665 0.189100 0.950212
7108.511230 3705.375488 1040.947998 0.247665 0.189100 0.950212
7250.257324 3056.684326 1133.097534 0.247665 0.189100 0.950212
7250.257324 3056.684326 1133.097534 0.287414 0.195985 0.937541
7108.511230 3705.375488 1040.947998 0.287414 0.195985 0.937541
7015.075195 3106.498291 1194.782104 0.287414 0.195985 0.937541
7209.680176 3029.989746 10247.958984 -0.359362 -0.920948 -0.150710
7025.285156 3101.514404 10250.574219 -0.359362 -0.920948 -0.150710
7032.234375 3111.433594 10173.390625 -0.359362 -0.920948 -0.150710
7344.206055 3217.061523 10313.208984 0.399700 0.032097 -0.916084
7209.680176 3029.989746 10247.958984 0.399700 0.032097 -0.916084
7032.234375 3111.433594 10173.390625 0.399700 0.032097 -0.916084
7663.035645 3692.769531 10434.162109 0.423538 -0.053945 -0.904271
7344.206055 3217.061523 10313.208984 0.423538 -0.053945 -0.904271
7032.234375 3111.433594 10173.390625 0.423538 -0.053945 -0.904271
7032.234375 3111.433594 10173.390625 -0.993916 0.076000 -0.079720
7025.285156 3101.514404 10250.574219 -0.993916 0.076000 -0.079720
7060.771973 3668.801758 10348.953125 -0.993916 0.076000 -0.079720
7789.853027 3370.857422 10448.733398 0.270396 0.063037 -0.960683
7344.206055 3217.061523 10313.208984 0.270396 0.063037 -0.960683
7663.035645 3692.769531 10434.162109 0.270396 0.063037 -0.960683
7663.035645 3692.769531 10434.162109 0.122541 0.292456 -0.948395
7032.234375 3111.433594 10173.390625 0.122541 0.292456 -0.948395
7060.771973 3668.801758 10348.953125 0.122541 0.292456 -0.948395
8685.781250 2825.873047 10291.320312 -0.037853 0.448700 -0.892881
8303.024414 3123.312988 10457.019531 -0.037853 0.448700 -0.892881
8781.290039 3034.017334 10391.870117 -0.037853 0.448700 -0.892881
8685.781250 2825.873047 10291.320312 0.313802 -0.525888 0.790551
8781.290039 3034.017334 10391.870117 0.313802 -0.525888 0.790551
8737.525391 3132.616699 10474.832031 0.313802 -0.525888 0.790551
7209.680176 3029.989746 10247.958984 -0.200987 -0.547849 0.812075
7261.644531 3216.621826 10386.727539 -0.200987 -0.547849 0.812075
7025.285156 3101.514404 10250.574219 -0.200987 -0.547849 0.812075
8303.024414 3123.312988 10457.019531 -0.081593 0.264145 -0.961025
8589.670898 3358.935791 10497.445312 -0.081593 0.264145 -0.961025
8781.290039 3034.017334 10391.870117 -0.081593 0.264145 -0.961025
8737.525391 3132.616699 10474.832031 0.804712 0.548430 -0.227296
8781.290039 3034.017334 10391.870117 0.804712 0.548430 -0.227296
8589.670898 3358.935791 10497.445312 0.804712 0.548430 -0.227296
7344.206055 3217.061523 10313.208984 0.536437 -0.594641 0.598864
7261.644531 3216.621826 10386.727539 0.536437 -0.594641 0.598864
7209.680176 3029.989746 10247.958984 0.536437 -0.594641 0.598864
7344.206055 3217.061523 10313.208984 0.314832 -0.948268 0.040847
7789.853027 3370.857422 10448.733398 0.314832 -0.948268 0.040847
7768.785156 3366.774414 10516.328125 0.314832 -0.948268 0.040847
7270.784180 3723.051758 10459.455078 0.035256 0.868965 -0.493616
7663.035645 3692.769531 10434.162109 0.035256 0.868965 -0.493616
7060.771973 3668.801758 10348.953125 0.035256 0.868965 -0.493616
7261.644531 3216.621826 10386.727539 -0.451523 -0.118845 0.884309
7270.784180 3723.051758 10459.455078 -0.451523 -0.118845 0.884309
7025.285156 3101.514404 10250.574219 -0.451523 -0.118845 0.884309
7060.771973 3668.801758 10348.953125 -0.435920 -0.127239 0.890946
7025.285156 3101.514404 10250.574219 -0.435920 -0.127239 0.890946
7270.784180 3723.051758 10459.455078 -0.435920 -0.127239 0.890946
8303.024414 3123.312988 10457.019531 0.061928 0.095123 -0.993537
7789.853027 3370.857422 10448.733398 0.061928 0.095123 -0.993537
8589.670898 3358.935791 10497.445312 0.061928 0.095123 -0.993537
8589.670898 3358.935791 10497.445312 0.060460 -0.021353 -0.997942
7789.853027 3370.857422 10448.733398 0.060460 -0.021353 -0.997942
7663.035645 3692.769531 10434.162109 0.060460 -0.021353 -0.997942
8106.009766 3640.780029 10545.083984 0.084437 0.988421 0.126073
7663.035645 3692.769531 10434.162109 0.084437 0.988421 0.126073
7270.784180 3723.051758 10459.455078 0.084437 0.988421 0.126073
7789.853027 3370.857422 10448.733398 -0.424471 -0.886168 -0.185827
8303.024414 3123.312988 10457.019531 -0.424471 -0.886168 -0.185827
7768.785156 3366.774414 10516.328125 -0.424471 -0.886168 -0.185827
7261.644531 3216.621826 10386.727539 0.218714 -0.945824 0.239960
7344.206055 3217.061523 10313.208984 0.218714 -0.945824 0.239960
7768.785156 3366.774414 10516.328125 0.218714 -0.945824 0.239960
8106.009766 3640.780029 10545.083984 0.261341 0.579014 -0.772298
8589.670898 3358.935791 10497.445312 0.261341 0.579014 -0.772298
7663.035645 3692.769531 10434.162109 0.261341 0.579014 -0.772298
8303.024414 3123.312988 10457.019531 -0.024319 -0.510220 0.859700
8685.781250 2825.873047 10291.320312 -0.024319 -0.510220 0.859700
8737.525391 3132.616699 10474.832031 -0.024319 -0.510220 0.859700
7270.784180 3723.051758 10459.455078 -0.207499 -0.135386 0.968821
7261.644531 3216.621826 10386.727539 -0.207499 -0.135386 0.968821
7768.785156 3366.774414 10516.328125 -0.207499 -0.135386 0.968821
8737.525391 3132.616699 10474.832031 -0.032544 -0.303400 0.952308
7768.785156 3366.774414 10516.328125 -0.032544 -0.303400 0.952308
8303.024414 3123.312988 10457.019531 -0.032544 -0.303400 0.952308
8737.525391 3132.616699 10474.832031 0.064783 -0.057221 0.996258
8589.670898 3358.935791 10497.445312 0.064783 -0.057221 0.996258
8106.009766 3640.780029 10545.083984 0.064783 -0.057221 0.996258
8106.009766 3640.780029 10545.083984 -0.100133 0.018836 0.994796
7270.784180 3723.051758 10459.455078 -0.100133 0.018836 0.994796
7768.785156 3366.774414 10516.328125 -0.100133 0.018836 0.994796
8106.009766 3640.780029 10545.083984 0.013364 -0.120618 0.992609
7768.785156 3366.774414 10516.328125 0.013364 -0.120618 0.992609
8737.525391 3132.616699 10474.832031 0.013364 -0.120618 0.992609
3 0 1 2
3 3 4 5
3 6 7 8
3 9 10 11
3 12 13 14
3 15 16 17
3 18 19 20
3 21 22 23
3 24 25 26
3 27 28 29
3 30 31 32
3 33 34 35
3 36 37 38
3 39 40 41
3 42 43 44
3 45 46 47
3 48 49 50
3 51 52 53
3 54 55 56
3 57 58 59
3 60 61 62
3 63 64 65
3 66 67 68
3 69 70 71
3 72 73 74
3 75 76 77
3 78 79 80
3 81 82 83
3 84 85 86
3 87 88 89
3 90 91 92
3 93 94 95
3 96 97 98
3 99 100 101
3 102 103 104
3 105 106 107
3 108 109 110
3 111 112 113
3 114 115 116
3 117 118 119
3 120 121 122
3 123 124 125
3 126 127 128
3 129 130 131
3 132 133 134
3 135 136 137
3 138 139 140
3 141 142 143
3 144 145 146
3 147 148 149
3 150 151 152
3 153 154 155
3 156 157 158
3 159 160 161
