ply
format ascii 1.0
comment Created by Blender 2.80 (sub 75) - www.blender.org, source file: 'downsample_ccf.blend'
element vertex 150
property float x
property float y
property float z
property float nx
property float ny
property float nz
element face 50
property list uchar uint vertex_indices
end_header
7586.703125 6270.301758 2154.647949 0.013657 -0.231231 -0.972803
7332.415039 6311.685547 2141.241211 0.013657 -0.231231 -0.972803
7497.513184 6591.180176 2077.124512 0.013657 -0.231231 -0.972803
6851.587402 6403.837891 2370.223145 -0.422971 0.042204 -0.905160
7497.513184 6591.180176 2077.124512 -0.422971 0.042204 -0.905160
7332.415039 6311.685547 2141.241211 -0.422971 0.042204 -0.905160
7586.703125 6270.301758 2154.647949 0.686291 0.015076 -0.727171
7497.513184 6591.180176 2077.124512 0.686291 0.015076 -0.727171
7678.703125 6347.153320 2243.069092 0.686291 0.015076 -0.727171
7075.783203 6897.003906 2275.561768 -0.416774 0.015011 -0.908886
7497.513184 6591.180176 2077.124512 -0.416774 0.015011 -0.908886
6851.587402 6403.837891 2370.223145 -0.416774 0.015011 -0.908886
7497.513184 6591.180176 2077.124512 0.812312 0.242418 -0.530456
7600.692871 6746.292480 2306.014404 0.812312 0.242418 -0.530456
7678.703125 6347.153320 2243.069092 0.812312 0.242418 -0.530456
7497.513184 6591.180176 2077.124512 0.249897 0.745516 -0.617865
7075.783203 6897.003906 2275.561768 0.249897 0.745516 -0.617865
7600.692871 6746.292480 2306.014404 0.249897 0.745516 -0.617865
7109.441406 6259.971680 2434.347168 -0.140335 -0.951265 -0.274592
7332.415039 6311.685547 2141.241211 -0.140335 -0.951265 -0.274592
7586.703125 6270.301758 2154.647949 -0.140335 -0.951265 -0.274592
7586.703125 6270.301758 2154.647949 0.280253 -0.849590 0.446828
7678.703125 6347.153320 2243.069092 0.280253 -0.849590 0.446828
7109.441406 6259.971680 2434.347168 0.280253 -0.849590 0.446828
6679.565918 6653.740723 2502.587646 -0.532140 0.080130 -0.842856
7075.783203 6897.003906 2275.561768 -0.532140 0.080130 -0.842856
6851.587402 6403.837891 2370.223145 -0.532140 0.080130 -0.842856
7075.783203 6897.003906 2275.561768 0.280577 0.951066 -0.129419
6907.382812 6988.778320 2584.900391 0.280577 0.951066 -0.129419
7600.692871 6746.292480 2306.014404 0.280577 0.951066 -0.129419
6851.587402 6403.837891 2370.223145 -0.359962 -0.832704 -0.420751
7332.415039 6311.685547 2141.241211 -0.359962 -0.832704 -0.420751
7109.441406 6259.971680 2434.347168 -0.359962 -0.832704 -0.420751
6851.587402 6403.837891 2370.223145 -0.469567 -0.878920 -0.083702
7109.441406 6259.971680 2434.347168 -0.469567 -0.878920 -0.083702
6768.420898 6425.216797 2612.295166 -0.469567 -0.878920 -0.083702
7109.441406 6259.971680 2434.347168 0.336422 -0.594715 0.730160
7678.703125 6347.153320 2243.069092 0.336422 -0.594715 0.730160
7033.621094 6607.749512 2752.546387 0.336422 -0.594715 0.730160
6782.570312 6921.437500 2687.123779 -0.642581 0.586852 -0.492640
7075.783203 6897.003906 2275.561768 -0.642581 0.586852 -0.492640
6679.565918 6653.740723 2502.587646 -0.642581 0.586852 -0.492640
7075.783203 6897.003906 2275.561768 -0.694929 0.492110 -0.524310
6782.570312 6921.437500 2687.123779 -0.694929 0.492110 -0.524310
6907.382812 6988.778320 2584.900391 -0.694929 0.492110 -0.524310
6679.565918 6653.740723 2502.587646 -0.854294 -0.453828 -0.253422
6851.587402 6403.837891 2370.223145 -0.854294 -0.453828 -0.253422
6768.420898 6425.216797 2612.295166 -0.854294 -0.453828 -0.253422
7135.135254 6777.110840 2739.806152 0.682235 0.018074 0.730910
7678.703125 6347.153320 2243.069092 0.682235 0.018074 0.730910
7600.692871 6746.292480 2306.014404 0.682235 0.018074 0.730910
7135.135254 6777.110840 2739.806152 0.445938 0.789052 0.422536
7600.692871 6746.292480 2306.014404 0.445938 0.789052 0.422536
6907.382812 6988.778320 2584.900391 0.445938 0.789052 0.422536
6768.420898 6425.216797 2612.295166 -0.832555 -0.059313 0.550758
6782.570312 6921.437500 2687.123779 -0.832555 -0.059313 0.550758
6679.565918 6653.740723 2502.587646 -0.832555 -0.059313 0.550758
7033.621094 6607.749512 2752.546387 0.065205 -0.665824 0.743254
6768.420898 6425.216797 2612.295166 0.065205 -0.665824 0.743254
7109.441406 6259.971680 2434.347168 0.065205 -0.665824 0.743254
7678.703125 6347.153320 2243.069092 0.532297 -0.258413 0.806153
7135.135254 6777.110840 2739.806152 0.532297 -0.258413 0.806153
7033.621094 6607.749512 2752.546387 0.532297 -0.258413 0.806153
6782.570312 6921.437500 2687.123779 -0.394619 -0.125998 0.910165
6768.420898 6425.216797 2612.295166 -0.394619 -0.125998 0.910165
7033.621094 6607.749512 2752.546387 -0.394619 -0.125998 0.910165
7135.135254 6777.110840 2739.806152 0.184593 0.702003 0.687836
6907.382812 6988.778320 2584.900391 0.184593 0.702003 0.687836
6782.570312 6921.437500 2687.123779 0.184593 0.702003 0.687836
7033.621094 6607.749512 2752.546387 -0.094017 0.130598 0.986968
7135.135254 6777.110840 2739.806152 -0.094017 0.130598 0.986968
6782.570312 6921.437500 2687.123779 -0.094017 0.130598 0.986968
7100.025879 6700.011719 8616.669922 -0.292757 -0.164123 -0.941996
6930.201172 6425.169922 8717.333984 -0.292757 -0.164123 -0.941996
6833.300293 6937.869629 8658.122070 -0.292757 -0.164123 -0.941996
7100.025879 6700.011719 8616.669922 0.484778 0.646312 -0.589297
6833.300293 6937.869629 8658.122070 0.484778 0.646312 -0.589297
7157.636719 6970.291992 8960.493164 0.484778 0.646312 -0.589297
6930.201172 6425.169922 8717.333984 -0.388536 -0.177849 -0.904107
6722.599121 6497.065918 8792.407227 -0.388536 -0.177849 -0.904107
6833.300293 6937.869629 8658.122070 -0.388536 -0.177849 -0.904107
6833.300293 6937.869629 8658.122070 -0.788422 0.010635 -0.615043
6722.599121 6497.065918 8792.407227 -0.788422 0.010635 -0.615043
6692.514648 6796.622559 8836.152344 -0.788422 0.010635 -0.615043
6930.201172 6425.169922 8717.333984 -0.435932 -0.766803 -0.471144
6970.525391 6278.092773 8919.396484 -0.435932 -0.766803 -0.471144
6722.599121 6497.065918 8792.407227 -0.435932 -0.766803 -0.471144
7602.037109 6651.843262 9007.123047 0.513150 0.630897 -0.581933
7100.025879 6700.011719 8616.669922 0.513150 0.630897 -0.581933
7157.636719 6970.291992 8960.493164 0.513150 0.630897 -0.581933
7100.025879 6700.011719 8616.669922 0.372139 -0.513208 -0.773389
7587.504883 6249.278320 9150.333984 0.372139 -0.513208 -0.773389
6930.201172 6425.169922 8717.333984 0.372139 -0.513208 -0.773389
7157.636719 6970.291992 8960.493164 -0.408082 0.844351 0.347189
6833.300293 6937.869629 8658.122070 -0.408082 0.844351 0.347189
6692.514648 6796.622559 8836.152344 -0.408082 0.844351 0.347189
6970.525391 6278.092773 8919.396484 0.189210 -0.775549 -0.602265
6930.201172 6425.169922 8717.333984 0.189210 -0.775549 -0.602265
7587.504883 6249.278320 9150.333984 0.189210 -0.775549 -0.602265
6722.599121 6497.065918 8792.407227 -0.701501 -0.689311 0.180959
6970.525391 6278.092773 8919.396484 -0.701501 -0.689311 0.180959
6841.249512 6433.718750 9011.061523 -0.701501 -0.689311 0.180959
6722.599121 6497.065918 8792.407227 -0.886496 -0.152814 0.436775
6841.249512 6433.718750 9011.061523 -0.886496 -0.152814 0.436775
6692.514648 6796.622559 8836.152344 -0.886496 -0.152814 0.436775
7100.025879 6700.011719 8616.669922 0.569134 -0.293752 -0.767982
7602.037109 6651.843262 9007.123047 0.569134 -0.293752 -0.767982
7587.504883 6249.278320 9150.333984 0.569134 -0.293752 -0.767982
6692.514648 6796.622559 8836.152344 -0.383829 0.908099 0.167428
6866.109375 6837.915039 9010.155273 -0.383829 0.908099 0.167428
7157.636719 6970.291992 8960.493164 -0.383829 0.908099 0.167428
6841.249512 6433.718750 9011.061523 -0.712573 0.045396 0.700128
6866.109375 6837.915039 9010.155273 -0.712573 0.045396 0.700128
6692.514648 6796.622559 8836.152344 -0.712573 0.045396 0.700128
6866.109375 6837.915039 9010.155273 -0.217906 0.724999 0.653371
7275.236328 6748.382324 9245.951172 -0.217906 0.724999 0.653371
7157.636719 6970.291992 8960.493164 -0.217906 0.724999 0.653371
7602.037109 6651.843262 9007.123047 0.585196 0.809362 -0.049779
7157.636719 6970.291992 8960.493164 0.585196 0.809362 -0.049779
7565.397949 6691.917969 9227.974609 0.585196 0.809362 -0.049779
7587.504883 6249.278320 9150.333984 0.851446 -0.202792 -0.483648
7602.037109 6651.843262 9007.123047 0.851446 -0.202792 -0.483648
7661.933594 6406.877930 9215.282227 0.851446 -0.202792 -0.483648
7661.933594 6406.877930 9215.282227 0.943802 0.315216 0.099379
7602.037109 6651.843262 9007.123047 0.943802 0.315216 0.099379
7565.397949 6691.917969 9227.974609 0.943802 0.315216 0.099379
7275.236328 6748.382324 9245.951172 -0.493764 0.032317 0.868995
6866.109375 6837.915039 9010.155273 -0.493764 0.032317 0.868995
6841.249512 6433.718750 9011.061523 -0.493764 0.032317 0.868995
7587.504883 6249.278320 9150.333984 -0.186567 -0.903565 0.385698
7443.026855 6331.361328 9272.742188 -0.186567 -0.903565 0.385698
6970.525391 6278.092773 8919.396484 -0.186567 -0.903565 0.385698
6841.249512 6433.718750 9011.061523 -0.385467 -0.684597 0.618661
6970.525391 6278.092773 8919.396484 -0.385467 -0.684597 0.618661
7443.026855 6331.361328 9272.742188 -0.385467 -0.684597 0.618661
7275.236328 6748.382324 9245.951172 0.192113 0.811575 0.551759
7565.397949 6691.917969 9227.974609 0.192113 0.811575 0.551759
7157.636719 6970.291992 8960.493164 0.192113 0.811575 0.551759
7443.026855 6331.361328 9272.742188 -0.411790 -0.107551 0.904910
7275.236328 6748.382324 9245.951172 -0.411790 -0.107551 0.904910
6841.249512 6433.718750 9011.061523 -0.411790 -0.107551 0.904910
7661.933594 6406.877930 9215.282227 0.377041 -0.499494 0.779965
7443.026855 6331.361328 9272.742188 0.377041 -0.499494 0.779965
7587.504883 6249.278320 9150.333984 0.377041 -0.499494 0.779965
7443.026855 6331.361328 9272.742188 0.241243 0.038524 0.969700
7661.933594 6406.877930 9215.282227 0.241243 0.038524 0.969700
7565.397949 6691.917969 9227.974609 0.241243 0.038524 0.969700
7443.026855 6331.361328 9272.742188 0.080146 0.095987 0.992151
7565.397949 6691.917969 9227.974609 0.080146 0.095987 0.992151
7275.236328 6748.382324 9245.951172 0.080146 0.095987 0.992151
3 0 1 2
3 3 4 5
3 6 7 8
3 9 10 11
3 12 13 14
3 15 16 17
3 18 19 20
3 21 22 23
3 24 25 26
3 27 28 29
3 30 31 32
3 33 34 35
3 36 37 38
3 39 40 41
3 42 43 44
3 45 46 47
3 48 49 50
3 51 52 53
3 54 55 56
3 57 58 59
3 60 61 62
3 63 64 65
3 66 67 68
3 69 70 71
3 72 73 74
3 75 76 77
3 78 79 80
3 81 82 83
3 84 85 86
3 87 88 89
3 90 91 92
3 93 94 95
3 96 97 98
3 99 100 101
3 102 103 104
3 105 106 107
3 108 109 110
3 111 112 113
3 114 115 116
3 117 118 119
3 120 121 122
3 123 124 125
3 126 127 128
3 129 130 131
3 132 133 134
3 135 136 137
3 138 139 140
3 141 142 143
3 144 145 146
3 147 148 149
