ply
format ascii 1.0
comment Created by Blender 2.80 (sub 75) - www.blender.org, source file: 'downsample_ccf.blend'
element vertex 240
property float x
property float y
property float z
property float nx
property float ny
property float nz
element face 80
property list uchar uint vertex_indices
end_header
6897.809082 6276.947754 2701.507324 -0.079242 -0.106516 -0.991148
6501.329590 6468.790039 2712.589111 -0.079242 -0.106516 -0.991148
6574.770020 6845.674316 2666.214844 -0.079242 -0.106516 -0.991148
6501.329590 6468.790039 2712.589111 -0.154392 -0.090970 -0.983813
6307.472168 6574.633789 2733.224609 -0.154392 -0.090970 -0.983813
6574.770020 6845.674316 2666.214844 -0.154392 -0.090970 -0.983813
6724.724121 6971.043457 2813.608887 0.353869 0.503450 -0.788235
7153.356934 6673.036133 2815.699463 0.353869 0.503450 -0.788235
6574.770020 6845.674316 2666.214844 0.353869 0.503450 -0.788235
6897.809082 6276.947754 2701.507324 0.276130 0.097508 -0.956161
6574.770020 6845.674316 2666.214844 0.276130 0.097508 -0.956161
7153.356934 6673.036133 2815.699463 0.276130 0.097508 -0.956161
6897.809082 6276.947754 2701.507324 -0.354354 -0.696286 -0.624195
6751.354980 6118.249023 2961.676758 -0.354354 -0.696286 -0.624195
6501.329590 6468.790039 2712.589111 -0.354354 -0.696286 -0.624195
6574.770020 6845.674316 2666.214844 -0.327710 0.857715 -0.396146
5826.610352 6757.046387 3093.234863 -0.327710 0.857715 -0.396146
6724.724121 6971.043457 2813.608887 -0.327710 0.857715 -0.396146
6109.428711 6347.626465 2974.332764 -0.274274 -0.577458 -0.768971
5827.471680 6369.770020 3058.271484 -0.274274 -0.577458 -0.768971
6307.472168 6574.633789 2733.224609 -0.274274 -0.577458 -0.768971
6307.472168 6574.633789 2733.224609 -0.469122 -0.246410 -0.848060
5827.471680 6369.770020 3058.271484 -0.469122 -0.246410 -0.848060
5737.621094 6563.716309 3051.621826 -0.469122 -0.246410 -0.848060
5737.621094 6563.716309 3051.621826 -0.474742 0.260329 -0.840743
6574.770020 6845.674316 2666.214844 -0.474742 0.260329 -0.840743
6307.472168 6574.633789 2733.224609 -0.474742 0.260329 -0.840743
7133.604492 6721.817383 3109.635498 0.568450 0.816935 -0.097378
7153.356934 6673.036133 2815.699463 0.568450 0.816935 -0.097378
6724.724121 6971.043457 2813.608887 0.568450 0.816935 -0.097378
6897.809082 6276.947754 2701.507324 0.841774 -0.463136 -0.277348
7153.356934 6673.036133 2815.699463 0.841774 -0.463136 -0.277348
7120.969238 6416.575684 3145.656738 0.841774 -0.463136 -0.277348
6501.329590 6468.790039 2712.589111 -0.864456 -0.415488 0.282994
6751.354980 6118.249023 2961.676758 -0.864456 -0.415488 0.282994
6740.711426 6323.200195 3230.070312 -0.864456 -0.415488 0.282994
5737.621094 6563.716309 3051.621826 -0.490471 0.393163 -0.777728
5826.610352 6757.046387 3093.234863 -0.490471 0.393163 -0.777728
6574.770020 6845.674316 2666.214844 -0.490471 0.393163 -0.777728
6109.428711 6347.626465 2974.332764 0.332015 -0.807498 -0.487559
6307.472168 6574.633789 2733.224609 0.332015 -0.807498 -0.487559
6613.336426 6367.518066 3284.535889 0.332015 -0.807498 -0.487559
6501.329590 6468.790039 2712.589111 -0.362497 -0.927313 -0.093206
6740.711426 6323.200195 3230.070312 -0.362497 -0.927313 -0.093206
6613.336426 6367.518066 3284.535889 -0.362497 -0.927313 -0.093206
6307.472168 6574.633789 2733.224609 -0.483263 -0.873416 -0.060012
6501.329590 6468.790039 2712.589111 -0.483263 -0.873416 -0.060012
6613.336426 6367.518066 3284.535889 -0.483263 -0.873416 -0.060012
6897.809082 6276.947754 2701.507324 0.652606 -0.752160 -0.091440
7120.969238 6416.575684 3145.656738 0.652606 -0.752160 -0.091440
6751.354980 6118.249023 2961.676758 0.652606 -0.752160 -0.091440
7120.969238 6416.575684 3145.656738 0.996838 -0.032718 0.072417
7153.356934 6673.036133 2815.699463 0.996838 -0.032718 0.072417
7133.604492 6721.817383 3109.635498 0.996838 -0.032718 0.072417
5826.610352 6757.046387 3093.234863 -0.140290 0.950601 0.276904
6097.876953 6744.956543 3272.172363 -0.140290 0.950601 0.276904
6724.724121 6971.043457 2813.608887 -0.140290 0.950601 0.276904
5827.471680 6369.770020 3058.271484 -0.114535 -0.985557 -0.124738
6109.428711 6347.626465 2974.332764 -0.114535 -0.985557 -0.124738
6296.630859 6280.568848 3332.267090 -0.114535 -0.985557 -0.124738
5737.621094 6563.716309 3051.621826 -0.905492 -0.421251 -0.051295
5827.471680 6369.770020 3058.271484 -0.905492 -0.421251 -0.051295
5705.556641 6604.998047 3278.625244 -0.905492 -0.421251 -0.051295
6109.428711 6347.626465 2974.332764 0.213252 -0.934039 -0.286521
6613.336426 6367.518066 3284.535889 0.213252 -0.934039 -0.286521
6296.630859 6280.568848 3332.267090 0.213252 -0.934039 -0.286521
5705.556641 6604.998047 3278.625244 -0.871837 0.445239 -0.204117
5826.610352 6757.046387 3093.234863 -0.871837 0.445239 -0.204117
5737.621094 6563.716309 3051.621826 -0.871837 0.445239 -0.204117
6439.100098 6729.093262 3373.430908 0.187025 0.863400 0.468575
7133.604492 6721.817383 3109.635498 0.187025 0.863400 0.468575
6724.724121 6971.043457 2813.608887 0.187025 0.863400 0.468575
7120.969238 6416.575684 3145.656738 0.313513 -0.748666 0.584131
6740.711426 6323.200195 3230.070312 0.313513 -0.748666 0.584131
6751.354980 6118.249023 2961.676758 0.313513 -0.748666 0.584131
6097.876953 6744.956543 3272.172363 -0.114788 0.964171 0.239161
5826.610352 6757.046387 3093.234863 -0.114788 0.964171 0.239161
5830.246582 6696.902344 3337.448975 -0.114788 0.964171 0.239161
6097.876953 6744.956543 3272.172363 -0.065882 0.927746 0.367351
6439.100098 6729.093262 3373.430908 -0.065882 0.927746 0.367351
6724.724121 6971.043457 2813.608887 -0.065882 0.927746 0.367351
7120.969238 6416.575684 3145.656738 0.278652 -0.314388 0.907477
6613.336426 6367.518066 3284.535889 0.278652 -0.314388 0.907477
6740.711426 6323.200195 3230.070312 0.278652 -0.314388 0.907477
7120.969238 6416.575684 3145.656738 0.271806 -0.104229 0.956691
6439.100098 6729.093262 3373.430908 0.271806 -0.104229 0.956691
6613.336426 6367.518066 3284.535889 0.271806 -0.104229 0.956691
7120.969238 6416.575684 3145.656738 0.354342 0.095112 0.930266
7133.604492 6721.817383 3109.635498 0.354342 0.095112 0.930266
6439.100098 6729.093262 3373.430908 0.354342 0.095112 0.930266
5705.556641 6604.998047 3278.625244 -0.639498 0.744224 0.192806
5830.246582 6696.902344 3337.448975 -0.639498 0.744224 0.192806
5826.610352 6757.046387 3093.234863 -0.639498 0.744224 0.192806
5827.471680 6369.770020 3058.271484 -0.445259 -0.724133 0.526665
6296.630859 6280.568848 3332.267090 -0.445259 -0.724133 0.526665
5705.556641 6604.998047 3278.625244 -0.445259 -0.724133 0.526665
6613.336426 6367.518066 3284.535889 0.665591 0.140532 0.732966
6439.100098 6729.093262 3373.430908 0.665591 0.140532 0.732966
6382.202637 6588.256348 3452.101074 0.665591 0.140532 0.732966
6094.300293 6465.369629 3399.871582 0.146131 0.409451 0.900553
6097.876953 6744.956543 3272.172363 0.146131 0.409451 0.900553
5830.246582 6696.902344 3337.448975 0.146131 0.409451 0.900553
5705.556641 6604.998047 3278.625244 -0.429563 -0.685401 0.587963
6296.630859 6280.568848 3332.267090 -0.429563 -0.685401 0.587963
6094.300293 6465.369629 3399.871582 -0.429563 -0.685401 0.587963
6382.202637 6588.256348 3452.101074 -0.216000 0.541213 0.812670
6439.100098 6729.093262 3373.430908 -0.216000 0.541213 0.812670
6097.876953 6744.956543 3272.172363 -0.216000 0.541213 0.812670
6094.300293 6465.369629 3399.871582 -0.324950 0.396348 0.858671
6382.202637 6588.256348 3452.101074 -0.324950 0.396348 0.858671
6097.876953 6744.956543 3272.172363 -0.324950 0.396348 0.858671
5830.246582 6696.902344 3337.448975 -0.339102 -0.135756 0.930903
5705.556641 6604.998047 3278.625244 -0.339102 -0.135756 0.930903
6094.300293 6465.369629 3399.871582 -0.339102 -0.135756 0.930903
6296.630859 6280.568848 3332.267090 0.245025 -0.410265 0.878433
6613.336426 6367.518066 3284.535889 0.245025 -0.410265 0.878433
6382.202637 6588.256348 3452.101074 0.245025 -0.410265 0.878433
6296.630859 6280.568848 3332.267090 -0.016070 -0.358983 0.933206
6382.202637 6588.256348 3452.101074 -0.016070 -0.358983 0.933206
6094.300293 6465.369629 3399.871582 -0.016070 -0.358983 0.933206
6075.203613 6431.766113 7979.998535 -0.372584 0.443822 -0.814987
6382.135742 6710.158691 7991.285645 -0.372584 0.443822 -0.814987
6362.520020 6551.640625 7913.928223 -0.372584 0.443822 -0.814987
6362.520020 6551.640625 7913.928223 0.044493 -0.561905 -0.826005
6392.211426 6269.110840 8107.723633 0.044493 -0.561905 -0.826005
6075.203613 6431.766113 7979.998535 0.044493 -0.561905 -0.826005
6362.520020 6551.640625 7913.928223 0.452632 -0.122632 -0.883224
7055.579590 6726.545898 8244.820312 0.452632 -0.122632 -0.883224
6685.978516 6384.888184 8102.846191 0.452632 -0.122632 -0.883224
7055.579590 6726.545898 8244.820312 0.317131 0.383947 -0.867186
6362.520020 6551.640625 7913.928223 0.317131 0.383947 -0.867186
6382.135742 6710.158691 7991.285645 0.317131 0.383947 -0.867186
6392.211426 6269.110840 8107.723633 0.199237 -0.539984 -0.817754
6362.520020 6551.640625 7913.928223 0.199237 -0.539984 -0.817754
6685.978516 6384.888184 8102.846191 0.199237 -0.539984 -0.817754
6075.203613 6431.766113 7979.998535 -0.580764 -0.616973 -0.531091
5679.322754 6648.047363 8161.650879 -0.580764 -0.616973 -0.531091
5779.380859 6668.603516 8028.354004 -0.580764 -0.616973 -0.531091
5679.322754 6648.047363 8161.650879 -0.580509 -0.602954 -0.547225
6075.203613 6431.766113 7979.998535 -0.580509 -0.602954 -0.547225
5840.541504 6356.888672 8311.436523 -0.580509 -0.602954 -0.547225
6382.135742 6710.158691 7991.285645 -0.068944 0.116184 -0.990832
6075.203613 6431.766113 7979.998535 -0.068944 0.116184 -0.990832
5779.380859 6668.603516 8028.354004 -0.068944 0.116184 -0.990832
5840.541504 6356.888672 8311.436523 -0.286047 -0.871050 -0.399310
6075.203613 6431.766113 7979.998535 -0.286047 -0.871050 -0.399310
6392.211426 6269.110840 8107.723633 -0.286047 -0.871050 -0.399310
6685.978516 6384.888184 8102.846191 0.269222 0.106506 -0.957171
7055.579590 6726.545898 8244.820312 0.269222 0.106506 -0.957171
7144.779297 6448.131348 8238.929688 0.269222 0.106506 -0.957171
7055.579590 6726.545898 8244.820312 0.184151 0.819863 -0.542138
6382.135742 6710.158691 7991.285645 0.184151 0.819863 -0.542138
7051.930176 6855.432617 8438.493164 0.184151 0.819863 -0.542138
5840.541504 6356.888672 8311.436523 -0.185045 -0.979546 -0.079040
6392.211426 6269.110840 8107.723633 -0.185045 -0.979546 -0.079040
6087.122070 6307.460449 8346.718750 -0.185045 -0.979546 -0.079040
7144.779297 6448.131348 8238.929688 0.308375 -0.511974 -0.801741
6913.586426 6213.668457 8299.728516 0.308375 -0.511974 -0.801741
6685.978516 6384.888184 8102.846191 0.308375 -0.511974 -0.801741
5679.322754 6648.047363 8161.650879 -0.805388 -0.554169 -0.210350
5840.541504 6356.888672 8311.436523 -0.805388 -0.554169 -0.210350
5693.998535 6574.879395 8298.221680 -0.805388 -0.554169 -0.210350
6500.682617 6473.876953 8649.926758 -0.266459 -0.961573 0.066161
6252.123535 6540.088379 8611.175781 -0.266459 -0.961573 0.066161
6685.978516 6384.888184 8102.846191 -0.266459 -0.961573 0.066161
6374.733398 6936.424316 8538.241211 -0.086918 0.920140 -0.381822
6382.135742 6710.158691 7991.285645 -0.086918 0.920140 -0.381822
5779.380859 6668.603516 8028.354004 -0.086918 0.920140 -0.381822
6685.978516 6384.888184 8102.846191 0.321361 -0.793640 0.516588
6252.123535 6540.088379 8611.175781 0.321361 -0.793640 0.516588
6392.211426 6269.110840 8107.723633 0.321361 -0.793640 0.516588
7144.779297 6448.131348 8238.929688 0.934864 0.303415 -0.184303
7055.579590 6726.545898 8244.820312 0.934864 0.303415 -0.184303
7051.930176 6855.432617 8438.493164 0.934864 0.303415 -0.184303
5779.380859 6668.603516 8028.354004 -0.332050 0.937435 -0.104685
5679.322754 6648.047363 8161.650879 -0.332050 0.937435 -0.104685
6374.733398 6936.424316 8538.241211 -0.332050 0.937435 -0.104685
6087.122070 6307.460449 8346.718750 0.303238 -0.801324 0.515681
6392.211426 6269.110840 8107.723633 0.303238 -0.801324 0.515681
6252.123535 6540.088379 8611.175781 0.303238 -0.801324 0.515681
6723.705566 6144.063477 8486.296875 -0.191773 -0.839507 -0.508381
6685.978516 6384.888184 8102.846191 -0.191773 -0.839507 -0.508381
6913.586426 6213.668457 8299.728516 -0.191773 -0.839507 -0.508381
7144.779297 6448.131348 8238.929688 0.915283 0.325149 -0.237770
7051.930176 6855.432617 8438.493164 0.915283 0.325149 -0.237770
7150.474121 6651.443359 8538.878906 0.915283 0.325149 -0.237770
5679.322754 6648.047363 8161.650879 -0.537334 0.718011 0.442417
5693.998535 6574.879395 8298.221680 -0.537334 0.718011 0.442417
6374.733398 6936.424316 8538.241211 -0.537334 0.718011 0.442417
7051.930176 6855.432617 8438.493164 0.054253 0.922951 -0.381074
6382.135742 6710.158691 7991.285645 0.054253 0.922951 -0.381074
6374.733398 6936.424316 8538.241211 0.054253 0.922951 -0.381074
6723.705566 6144.063477 8486.296875 -0.855151 -0.472711 -0.212747
6500.682617 6473.876953 8649.926758 -0.855151 -0.472711 -0.212747
6685.978516 6384.888184 8102.846191 -0.855151 -0.472711 -0.212747
6935.423340 6297.796387 8641.855469 0.722343 -0.680813 0.121305
6913.586426 6213.668457 8299.728516 0.722343 -0.680813 0.121305
7144.779297 6448.131348 8238.929688 0.722343 -0.680813 0.121305
6252.123535 6540.088379 8611.175781 -0.483261 -0.274473 0.831338
5693.998535 6574.879395 8298.221680 -0.483261 -0.274473 0.831338
5840.541504 6356.888672 8311.436523 -0.483261 -0.274473 0.831338
6913.586426 6213.668457 8299.728516 0.488699 -0.853937 0.178788
6935.423340 6297.796387 8641.855469 0.488699 -0.853937 0.178788
6723.705566 6144.063477 8486.296875 0.488699 -0.853937 0.178788
6087.122070 6307.460449 8346.718750 -0.233961 -0.652963 0.720349
6252.123535 6540.088379 8611.175781 -0.233961 -0.652963 0.720349
5840.541504 6356.888672 8311.436523 -0.233961 -0.652963 0.720349
6935.423340 6297.796387 8641.855469 0.854213 -0.437763 0.280507
7144.779297 6448.131348 8238.929688 0.854213 -0.437763 0.280507
7150.474121 6651.443359 8538.878906 0.854213 -0.437763 0.280507
6374.733398 6936.424316 8538.241211 -0.453261 0.295009 0.841145
5693.998535 6574.879395 8298.221680 -0.453261 0.295009 0.841145
6252.123535 6540.088379 8611.175781 -0.453261 0.295009 0.841145
7051.930176 6855.432617 8438.493164 0.137658 0.980791 0.138203
6374.733398 6936.424316 8538.241211 0.137658 0.980791 0.138203
6645.876465 6874.657715 8706.509766 0.137658 0.980791 0.138203
6645.876465 6874.657715 8706.509766 0.473885 0.562387 0.677610
7150.474121 6651.443359 8538.878906 0.473885 0.562387 0.677610
7051.930176 6855.432617 8438.493164 0.473885 0.562387 0.677610
6779.918457 6424.565918 8742.050781 -0.063269 -0.665453 0.743753
6723.705566 6144.063477 8486.296875 -0.063269 -0.665453 0.743753
6935.423340 6297.796387 8641.855469 -0.063269 -0.665453 0.743753
6935.423340 6297.796387 8641.855469 0.506966 -0.057858 0.860022
7150.474121 6651.443359 8538.878906 0.506966 -0.057858 0.860022
6779.918457 6424.565918 8742.050781 0.506966 -0.057858 0.860022
7150.474121 6651.443359 8538.878906 0.382702 0.185440 0.905070
6645.876465 6874.657715 8706.509766 0.382702 0.185440 0.905070
6779.918457 6424.565918 8742.050781 0.382702 0.185440 0.905070
6645.876465 6874.657715 8706.509766 -0.454344 0.295223 0.840485
6374.733398 6936.424316 8538.241211 -0.454344 0.295223 0.840485
6252.123535 6540.088379 8611.175781 -0.454344 0.295223 0.840485
6723.705566 6144.063477 8486.296875 -0.344718 -0.593801 0.727028
6779.918457 6424.565918 8742.050781 -0.344718 -0.593801 0.727028
6500.682617 6473.876953 8649.926758 -0.344718 -0.593801 0.727028
6645.876465 6874.657715 8706.509766 -0.173293 -0.075853 0.981945
6252.123535 6540.088379 8611.175781 -0.173293 -0.075853 0.981945
6500.682617 6473.876953 8649.926758 -0.173293 -0.075853 0.981945
6779.918457 6424.565918 8742.050781 -0.316320 -0.019309 0.948456
6645.876465 6874.657715 8706.509766 -0.316320 -0.019309 0.948456
6500.682617 6473.876953 8649.926758 -0.316320 -0.019309 0.948456
3 0 1 2
3 3 4 5
3 6 7 8
3 9 10 11
3 12 13 14
3 15 16 17
3 18 19 20
3 21 22 23
3 24 25 26
3 27 28 29
3 30 31 32
3 33 34 35
3 36 37 38
3 39 40 41
3 42 43 44
3 45 46 47
3 48 49 50
3 51 52 53
3 54 55 56
3 57 58 59
3 60 61 62
3 63 64 65
3 66 67 68
3 69 70 71
3 72 73 74
3 75 76 77
3 78 79 80
3 81 82 83
3 84 85 86
3 87 88 89
3 90 91 92
3 93 94 95
3 96 97 98
3 99 100 101
3 102 103 104
3 105 106 107
3 108 109 110
3 111 112 113
3 114 115 116
3 117 118 119
3 120 121 122
3 123 124 125
3 126 127 128
3 129 130 131
3 132 133 134
3 135 136 137
3 138 139 140
3 141 142 143
3 144 145 146
3 147 148 149
3 150 151 152
3 153 154 155
3 156 157 158
3 159 160 161
3 162 163 164
3 165 166 167
3 168 169 170
3 171 172 173
3 174 175 176
3 177 178 179
3 180 181 182
3 183 184 185
3 186 187 188
3 189 190 191
3 192 193 194
3 195 196 197
3 198 199 200
3 201 202 203
3 204 205 206
3 207 208 209
3 210 211 212
3 213 214 215
3 216 217 218
3 219 220 221
3 222 223 224
3 225 226 227
3 228 229 230
3 231 232 233
3 234 235 236
3 237 238 239
