ply
format ascii 1.0
comment Created by Blender 2.80 (sub 75) - www.blender.org, source file: 'downsample_ccf.blend'
element vertex 348
property float x
property float y
property float z
property float nx
property float ny
property float nz
element face 116
property list uchar uint vertex_indices
end_header
7097.793457 5299.126465 2461.914307 -0.179821 -0.372290 -0.910530
6554.653320 5352.018066 2547.553467 -0.179821 -0.372290 -0.910530
6316.085938 5518.536621 2526.583496 -0.179821 -0.372290 -0.910530
7215.882324 5123.920898 2757.187744 0.222995 -0.796607 -0.561863
7097.793457 5299.126465 2461.914307 0.222995 -0.796607 -0.561863
7367.569824 5325.673828 2531.345947 0.222995 -0.796607 -0.561863
6316.085938 5518.536621 2526.583496 0.096335 0.581351 -0.807930
6943.935547 5687.593750 2723.092773 0.096335 0.581351 -0.807930
7097.793457 5299.126465 2461.914307 0.096335 0.581351 -0.807930
6943.935547 5687.593750 2723.092773 0.145984 0.591143 -0.793246
7367.569824 5325.673828 2531.345947 0.145984 0.591143 -0.793246
7097.793457 5299.126465 2461.914307 0.145984 0.591143 -0.793246
7367.569824 5325.673828 2531.345947 0.332121 -0.803231 -0.494486
7440.562012 5278.786621 2656.533447 0.332121 -0.803231 -0.494486
7215.882324 5123.920898 2757.187744 0.332121 -0.803231 -0.494486
6554.653320 5352.018066 2547.553467 -0.159558 -0.863335 -0.478743
7097.793457 5299.126465 2461.914307 -0.159558 -0.863335 -0.478743
6862.644531 5106.811523 2887.094727 -0.159558 -0.863335 -0.478743
6862.644531 5106.811523 2887.094727 -0.129455 -0.874623 -0.467200
7097.793457 5299.126465 2461.914307 -0.129455 -0.874623 -0.467200
7215.882324 5123.920898 2757.187744 -0.129455 -0.874623 -0.467200
7218.166016 5803.425781 2988.951172 0.808795 0.518583 -0.277350
7440.562012 5278.786621 2656.533447 0.808795 0.518583 -0.277350
7367.569824 5325.673828 2531.345947 0.808795 0.518583 -0.277350
6257.297852 6152.635254 2873.266602 0.139629 0.484952 -0.863322
6943.935547 5687.593750 2723.092773 0.139629 0.484952 -0.863322
6316.085938 5518.536621 2526.583496 0.139629 0.484952 -0.863322
6157.764648 5780.919922 2724.531250 -0.900382 -0.325292 -0.288958
6316.085938 5518.536621 2526.583496 -0.900382 -0.325292 -0.288958
6243.357910 5333.650391 2961.336182 -0.900382 -0.325292 -0.288958
7367.569824 5325.673828 2531.345947 0.316237 0.705931 -0.633763
6943.935547 5687.593750 2723.092773 0.316237 0.705931 -0.633763
7218.166016 5803.425781 2988.951172 0.316237 0.705931 -0.633763
6157.764648 5780.919922 2724.531250 -0.340743 0.426492 -0.837854
6257.297852 6152.635254 2873.266602 -0.340743 0.426492 -0.837854
6316.085938 5518.536621 2526.583496 -0.340743 0.426492 -0.837854
6554.653320 5352.018066 2547.553467 -0.497979 -0.764898 -0.408591
6243.357910 5333.650391 2961.336182 -0.497979 -0.764898 -0.408591
6316.085938 5518.536621 2526.583496 -0.497979 -0.764898 -0.408591
6821.312012 6143.624512 3050.307617 0.246626 0.607877 -0.754759
6943.935547 5687.593750 2723.092773 0.246626 0.607877 -0.754759
6257.297852 6152.635254 2873.266602 0.246626 0.607877 -0.754759
7218.166016 5803.425781 2988.951172 0.502319 0.604609 -0.618161
7406.852051 5555.526367 2899.813232 0.502319 0.604609 -0.618161
7440.562012 5278.786621 2656.533447 0.502319 0.604609 -0.618161
7440.562012 5278.786621 2656.533447 0.634980 -0.654742 0.410017
7303.854004 5322.949707 2938.770752 0.634980 -0.654742 0.410017
7215.882324 5123.920898 2757.187744 0.634980 -0.654742 0.410017
6243.357910 5333.650391 2961.336182 -0.359550 -0.880278 -0.309570
6554.653320 5352.018066 2547.553467 -0.359550 -0.880278 -0.309570
6862.644531 5106.811523 2887.094727 -0.359550 -0.880278 -0.309570
7406.852051 5555.526367 2899.813232 0.840563 -0.296285 0.453507
7303.854004 5322.949707 2938.770752 0.840563 -0.296285 0.453507
7440.562012 5278.786621 2656.533447 0.840563 -0.296285 0.453507
6943.935547 5687.593750 2723.092773 0.410057 0.601930 -0.685225
6821.312012 6143.624512 3050.307617 0.410057 0.601930 -0.685225
7218.166016 5803.425781 2988.951172 0.410057 0.601930 -0.685225
6157.764648 5780.919922 2724.531250 -0.966697 -0.236622 -0.097510
6243.357910 5333.650391 2961.336182 -0.966697 -0.236622 -0.097510
6095.718262 5878.626465 3102.548340 -0.966697 -0.236622 -0.097510
6157.764648 5780.919922 2724.531250 -0.821372 0.387438 -0.418616
6073.021973 6066.059570 3154.708984 -0.821372 0.387438 -0.418616
6257.297852 6152.635254 2873.266602 -0.821372 0.387438 -0.418616
6187.153320 6222.587402 3066.317871 0.110219 0.946609 -0.302956
6821.312012 6143.624512 3050.307617 0.110219 0.946609 -0.302956
6257.297852 6152.635254 2873.266602 0.110219 0.946609 -0.302956
7215.882324 5123.920898 2757.187744 0.272657 -0.711439 0.647698
7303.854004 5322.949707 2938.770752 0.272657 -0.711439 0.647698
6862.644531 5106.811523 2887.094727 0.272657 -0.711439 0.647698
7303.854004 5322.949707 2938.770752 0.229721 -0.643507 0.730155
6825.831055 5389.347168 3147.683838 0.229721 -0.643507 0.730155
6862.644531 5106.811523 2887.094727 0.229721 -0.643507 0.730155
7303.854004 5322.949707 2938.770752 0.711104 -0.202118 0.673409
7406.852051 5555.526367 2899.813232 0.711104 -0.202118 0.673409
7309.356934 5706.794922 3048.167725 0.711104 -0.202118 0.673409
7218.166016 5803.425781 2988.951172 0.762070 0.631489 -0.143078
7309.356934 5706.794922 3048.167725 0.762070 0.631489 -0.143078
7406.852051 5555.526367 2899.813232 0.762070 0.631489 -0.143078
6157.764648 5780.919922 2724.531250 -0.986724 -0.080179 -0.141234
6095.718262 5878.626465 3102.548340 -0.986724 -0.080179 -0.141234
6073.021973 6066.059570 3154.708984 -0.986724 -0.080179 -0.141234
6073.021973 6066.059570 3154.708984 -0.827440 0.359904 -0.431059
6187.153320 6222.587402 3066.317871 -0.827440 0.359904 -0.431059
6257.297852 6152.635254 2873.266602 -0.827440 0.359904 -0.431059
6243.357910 5333.650391 2961.336182 -0.325083 -0.934649 0.144059
6862.644531 5106.811523 2887.094727 -0.325083 -0.934649 0.144059
6390.276367 5318.718262 3195.992676 -0.325083 -0.934649 0.144059
6243.357910 5333.650391 2961.336182 -0.965945 -0.231994 -0.114583
6175.689453 5495.755859 3203.575195 -0.965945 -0.231994 -0.114583
6095.718262 5878.626465 3102.548340 -0.965945 -0.231994 -0.114583
6390.276367 5318.718262 3195.992676 -0.594827 -0.734936 0.325654
6175.689453 5495.755859 3203.575195 -0.594827 -0.734936 0.325654
6243.357910 5333.650391 2961.336182 -0.594827 -0.734936 0.325654
7303.854004 5322.949707 2938.770752 0.355946 -0.260853 0.897362
7309.356934 5706.794922 3048.167725 0.355946 -0.260853 0.897362
6825.831055 5389.347168 3147.683838 0.355946 -0.260853 0.897362
6821.312012 6143.624512 3050.307617 0.655955 0.731958 0.184284
7309.356934 5706.794922 3048.167725 0.655955 0.731958 0.184284
7218.166016 5803.425781 2988.951172 0.655955 0.731958 0.184284
6825.831055 5389.347168 3147.683838 0.348634 -0.610495 0.711161
6194.703613 5622.745117 3657.442627 0.348634 -0.610495 0.711161
6862.644531 5106.811523 2887.094727 0.348634 -0.610495 0.711161
7309.356934 5706.794922 3048.167725 0.320605 -0.197951 0.926298
6836.462402 5769.398926 3225.221680 0.320605 -0.197951 0.926298
6825.831055 5389.347168 3147.683838 0.320605 -0.197951 0.926298
6175.689453 5495.755859 3203.575195 -0.772562 -0.307891 -0.555294
5858.089844 5893.735352 3424.775635 -0.772562 -0.307891 -0.555294
6095.718262 5878.626465 3102.548340 -0.772562 -0.307891 -0.555294
7309.356934 5706.794922 3048.167725 0.623191 0.694494 0.359598
6821.312012 6143.624512 3050.307617 0.623191 0.694494 0.359598
6703.092773 6156.863770 3229.615234 0.623191 0.694494 0.359598
6821.312012 6143.624512 3050.307617 0.125849 0.981639 0.143340
6187.153320 6222.587402 3066.317871 0.125849 0.981639 0.143340
6347.594238 6163.179199 3332.302734 0.125849 0.981639 0.143340
6821.312012 6143.624512 3050.307617 -0.004388 0.997059 -0.076511
6347.594238 6163.179199 3332.302734 -0.004388 0.997059 -0.076511
6703.092773 6156.863770 3229.615234 -0.004388 0.997059 -0.076511
6862.644531 5106.811523 2887.094727 -0.020610 -0.838864 0.543951
6194.703613 5622.745117 3657.442627 -0.020610 -0.838864 0.543951
6390.276367 5318.718262 3195.992676 -0.020610 -0.838864 0.543951
6073.021973 6066.059570 3154.708984 -0.801407 0.068319 -0.594205
6095.718262 5878.626465 3102.548340 -0.801407 0.068319 -0.594205
5858.089844 5893.735352 3424.775635 -0.801407 0.068319 -0.594205
6703.092773 6156.863770 3229.615234 0.361547 0.113955 0.925364
6836.462402 5769.398926 3225.221680 0.361547 0.113955 0.925364
7309.356934 5706.794922 3048.167725 0.361547 0.113955 0.925364
6175.689453 5495.755859 3203.575195 -0.794414 -0.363523 -0.486577
5866.369141 5759.358398 3511.651855 -0.794414 -0.363523 -0.486577
5858.089844 5893.735352 3424.775635 -0.794414 -0.363523 -0.486577
6073.021973 6066.059570 3154.708984 -0.779788 0.571276 -0.256073
5858.089844 5893.735352 3424.775635 -0.779788 0.571276 -0.256073
5894.112305 5995.402344 3541.890625 -0.779788 0.571276 -0.256073
6073.021973 6066.059570 3154.708984 -0.341346 0.939837 0.013782
5894.112305 5995.402344 3541.890625 -0.341346 0.939837 0.013782
6347.594238 6163.179199 3332.302734 -0.341346 0.939837 0.013782
6187.153320 6222.587402 3066.317871 -0.553251 0.677273 0.484989
6073.021973 6066.059570 3154.708984 -0.553251 0.677273 0.484989
6347.594238 6163.179199 3332.302734 -0.553251 0.677273 0.484989
6825.831055 5389.347168 3147.683838 0.715361 -0.158838 0.680462
6836.462402 5769.398926 3225.221680 0.715361 -0.158838 0.680462
6404.536621 5745.935547 3673.822754 0.715361 -0.158838 0.680462
6836.462402 5769.398926 3225.221680 0.694739 0.231414 0.681018
6703.092773 6156.863770 3229.615234 0.694739 0.231414 0.681018
6404.536621 5745.935547 3673.822754 0.694739 0.231414 0.681018
6825.831055 5389.347168 3147.683838 0.323194 -0.642845 0.694476
6404.536621 5745.935547 3673.822754 0.323194 -0.642845 0.694476
6194.703613 5622.745117 3657.442627 0.323194 -0.642845 0.694476
6122.416016 6024.661621 3650.578125 0.431225 0.499156 0.751590
6404.536621 5745.935547 3673.822754 0.431225 0.499156 0.751590
6703.092773 6156.863770 3229.615234 0.431225 0.499156 0.751590
6703.092773 6156.863770 3229.615234 0.155247 0.860899 0.484511
6347.594238 6163.179199 3332.302734 0.155247 0.860899 0.484511
6122.416016 6024.661621 3650.578125 0.155247 0.860899 0.484511
5894.112305 5995.402344 3541.890625 -0.236054 0.940989 0.242524
6122.416016 6024.661621 3650.578125 -0.236054 0.940989 0.242524
6347.594238 6163.179199 3332.302734 -0.236054 0.940989 0.242524
5866.369141 5759.358398 3511.651855 -0.635779 -0.771562 0.021833
6175.689453 5495.755859 3203.575195 -0.635779 -0.771562 0.021833
6390.276367 5318.718262 3195.992676 -0.635779 -0.771562 0.021833
6390.276367 5318.718262 3195.992676 -0.483646 -0.810949 0.329315
6194.703613 5622.745117 3657.442627 -0.483646 -0.810949 0.329315
5866.369141 5759.358398 3511.651855 -0.483646 -0.810949 0.329315
5866.369141 5759.358398 3511.651855 -0.970730 0.085334 0.224501
5894.112305 5995.402344 3541.890625 -0.970730 0.085334 0.224501
5858.089844 5893.735352 3424.775635 -0.970730 0.085334 0.224501
6194.703613 5622.745117 3657.442627 -0.513043 -0.694036 0.505075
5998.963379 5786.653320 3683.844727 -0.513043 -0.694036 0.505075
5866.369141 5759.358398 3511.651855 -0.513043 -0.694036 0.505075
5866.369141 5759.358398 3511.651855 -0.793395 0.015296 0.608516
5998.963379 5786.653320 3683.844727 -0.793395 0.015296 0.608516
5894.112305 5995.402344 3541.890625 -0.793395 0.015296 0.608516
5998.963379 5786.653320 3683.844727 -0.439197 0.343817 0.829998
6122.416016 6024.661621 3650.578125 -0.439197 0.343817 0.829998
5894.112305 5995.402344 3541.890625 -0.439197 0.343817 0.829998
6404.536621 5745.935547 3673.822754 0.009595 -0.147842 0.988964
5998.963379 5786.653320 3683.844727 0.009595 -0.147842 0.988964
6194.703613 5622.745117 3657.442627 0.009595 -0.147842 0.988964
6404.536621 5745.935547 3673.822754 0.036536 0.119721 0.992135
6122.416016 6024.661621 3650.578125 0.036536 0.119721 0.992135
5998.963379 5786.653320 3683.844727 0.036536 0.119721 0.992135
6207.047363 5678.340332 7674.680664 -0.132574 0.074265 -0.988387
6003.626465 6006.291992 7726.607422 -0.132574 0.074265 -0.988387
6261.034180 5846.041504 7680.040039 -0.132574 0.074265 -0.988387
6466.334473 5731.145020 7765.884766 0.345418 -0.081320 -0.934919
6207.047363 5678.340332 7674.680664 0.345418 -0.081320 -0.934919
6261.034180 5846.041504 7680.040039 0.345418 -0.081320 -0.934919
6207.047363 5678.340332 7674.680664 -0.501357 -0.176874 -0.846969
5854.269043 5777.208008 7862.858398 -0.501357 -0.176874 -0.846969
6003.626465 6006.291992 7726.607422 -0.501357 -0.176874 -0.846969
6207.047363 5678.340332 7674.680664 -0.449839 -0.781190 -0.432883
6330.778809 5372.926758 8097.258789 -0.449839 -0.781190 -0.432883
5854.269043 5777.208008 7862.858398 -0.449839 -0.781190 -0.432883
6003.626465 6006.291992 7726.607422 -0.824658 0.230420 -0.516571
5854.269043 5777.208008 7862.858398 -0.824658 0.230420 -0.516571
5875.562012 5965.665527 7912.928711 -0.824658 0.230420 -0.516571
6261.034180 5846.041504 7680.040039 0.303259 0.680854 -0.666687
6003.626465 6006.291992 7726.607422 0.303259 0.680854 -0.666687
6584.258789 6038.083008 8023.188965 0.303259 0.680854 -0.666687
5854.269043 5777.208008 7862.858398 -0.665995 -0.742318 0.073582
6330.778809 5372.926758 8097.258789 -0.665995 -0.742318 0.073582
6161.525879 5531.199219 8162.043457 -0.665995 -0.742318 0.073582
6003.626465 6006.291992 7726.607422 -0.358359 0.932595 -0.042964
5875.562012 5965.665527 7912.928711 -0.358359 0.932595 -0.042964
6052.511719 6044.280273 8143.454102 -0.358359 0.932595 -0.042964
6003.626465 6006.291992 7726.607422 -0.446244 0.894435 -0.029179
6052.511719 6044.280273 8143.454102 -0.446244 0.894435 -0.029179
6343.002930 6187.837891 8101.405762 -0.446244 0.894435 -0.029179
6466.334473 5731.145020 7765.884766 0.801155 0.172571 -0.573035
6584.258789 6038.083008 8023.188965 0.801155 0.172571 -0.573035
6793.214355 5508.923340 8155.970215 0.801155 0.172571 -0.573035
6466.334473 5731.145020 7765.884766 0.537729 0.410675 -0.736338
6261.034180 5846.041504 7680.040039 0.537729 0.410675 -0.736338
6584.258789 6038.083008 8023.188965 0.537729 0.410675 -0.736338
6584.258789 6038.083008 8023.188965 0.268457 0.748919 -0.605848
6003.626465 6006.291992 7726.607422 0.268457 0.748919 -0.605848
6343.002930 6187.837891 8101.405762 0.268457 0.748919 -0.605848
6466.334473 5731.145020 7765.884766 0.367502 -0.641475 -0.673388
6793.214355 5508.923340 8155.970215 0.367502 -0.641475 -0.673388
6207.047363 5678.340332 7674.680664 0.367502 -0.641475 -0.673388
5854.269043 5777.208008 7862.858398 -0.777857 -0.077797 0.623608
6052.511719 6044.280273 8143.454102 -0.777857 -0.077797 0.623608
5875.562012 5965.665527 7912.928711 -0.777857 -0.077797 0.623608
6343.002930 6187.837891 8101.405762 0.148688 0.635330 -0.757791
6765.683594 6154.384766 8156.293945 0.148688 0.635330 -0.757791
6584.258789 6038.083008 8023.188965 0.148688 0.635330 -0.757791
6052.511719 6044.280273 8143.454102 -0.881813 0.410334 0.232449
5854.269043 5777.208008 7862.858398 -0.881813 0.410334 0.232449
6067.117676 5993.859375 8287.869141 -0.881813 0.410334 0.232449
7231.347168 5795.535156 8303.833984 0.462815 0.251031 -0.850168
6584.258789 6038.083008 8023.188965 0.462815 0.251031 -0.850168
6765.683594 6154.384766 8156.293945 0.462815 0.251031 -0.850168
6793.214355 5508.923340 8155.970215 0.368924 -0.086533 -0.925422
6584.258789 6038.083008 8023.188965 0.368924 -0.086533 -0.925422
7231.347168 5795.535156 8303.833984 0.368924 -0.086533 -0.925422
6802.527344 6156.945801 8308.412109 0.083621 0.995810 -0.037019
6765.683594 6154.384766 8156.293945 0.083621 0.995810 -0.037019
6343.002930 6187.837891 8101.405762 0.083621 0.995810 -0.037019
6207.047363 5678.340332 7674.680664 0.009276 -0.809154 -0.587523
6911.465820 5096.026367 8487.782227 0.009276 -0.809154 -0.587523
6330.778809 5372.926758 8097.258789 0.009276 -0.809154 -0.587523
6207.047363 5678.340332 7674.680664 0.478986 -0.462435 -0.746141
6793.214355 5508.923340 8155.970215 0.478986 -0.462435 -0.746141
6911.465820 5096.026367 8487.782227 0.478986 -0.462435 -0.746141
6330.778809 5372.926758 8097.258789 -0.710669 -0.644655 -0.281726
6229.688477 5345.096191 8415.947266 -0.710669 -0.644655 -0.281726
6161.525879 5531.199219 8162.043457 -0.710669 -0.644655 -0.281726
5854.269043 5777.208008 7862.858398 -0.778715 -0.307607 0.546791
6161.525879 5531.199219 8162.043457 -0.778715 -0.307607 0.546791
6067.117676 5993.859375 8287.869141 -0.778715 -0.307607 0.546791
6052.511719 6044.280273 8143.454102 -0.436298 0.727934 -0.528919
6137.462891 6226.922852 8324.744141 -0.436298 0.727934 -0.528919
6343.002930 6187.837891 8101.405762 -0.436298 0.727934 -0.528919
7231.347168 5795.535156 8303.833984 0.406335 -0.156745 -0.900179
7262.386719 5363.223145 8393.122070 0.406335 -0.156745 -0.900179
6793.214355 5508.923340 8155.970215 0.406335 -0.156745 -0.900179
6765.683594 6154.384766 8156.293945 0.634427 0.754866 -0.166370
6802.527344 6156.945801 8308.412109 0.634427 0.754866 -0.166370
7231.347168 5795.535156 8303.833984 0.634427 0.754866 -0.166370
6802.527344 6156.945801 8308.412109 0.004431 0.990427 0.137968
6343.002930 6187.837891 8101.405762 0.004431 0.990427 0.137968
6289.547363 6128.782227 8527.063477 0.004431 0.990427 0.137968
7231.347168 5795.535156 8303.833984 0.552869 -0.130288 -0.823019
7405.545898 5620.824219 8448.510742 0.552869 -0.130288 -0.823019
7262.386719 5363.223145 8393.122070 0.552869 -0.130288 -0.823019
6067.117676 5993.859375 8287.869141 -0.948445 0.256900 0.185618
6137.462891 6226.922852 8324.744141 -0.948445 0.256900 0.185618
6052.511719 6044.280273 8143.454102 -0.948445 0.256900 0.185618
7262.386719 5363.223145 8393.122070 0.221932 -0.571384 -0.790105
6911.465820 5096.026367 8487.782227 0.221932 -0.571384 -0.790105
6793.214355 5508.923340 8155.970215 0.221932 -0.571384 -0.790105
6289.547363 6128.782227 8527.063477 0.361696 0.916192 0.172535
6343.002930 6187.837891 8101.405762 0.361696 0.916192 0.172535
6137.462891 6226.922852 8324.744141 0.361696 0.916192 0.172535
7231.347168 5795.535156 8303.833984 0.547583 0.642932 0.535529
6802.527344 6156.945801 8308.412109 0.547583 0.642932 0.535529
6983.065918 5761.861328 8598.130859 0.547583 0.642932 0.535529
6330.778809 5372.926758 8097.258789 -0.320314 -0.929511 -0.182779
6911.465820 5096.026367 8487.782227 -0.320314 -0.929511 -0.182779
6229.688477 5345.096191 8415.947266 -0.320314 -0.929511 -0.182779
6161.525879 5531.199219 8162.043457 -0.969825 -0.224044 0.096141
6229.688477 5345.096191 8415.947266 -0.969825 -0.224044 0.096141
6067.117676 5993.859375 8287.869141 -0.969825 -0.224044 0.096141
6067.117676 5993.859375 8287.869141 -0.965781 -0.212717 0.148386
6229.688477 5345.096191 8415.947266 -0.965781 -0.212717 0.148386
6215.370605 5669.267090 8787.467773 -0.965781 -0.212717 0.148386
7231.347168 5795.535156 8303.833984 0.294023 0.766259 0.571312
7422.204102 5347.354004 8806.723633 0.294023 0.766259 0.571312
7405.545898 5620.824219 8448.510742 0.294023 0.766259 0.571312
6911.465820 5096.026367 8487.782227 0.323490 -0.663763 -0.674369
7262.386719 5363.223145 8393.122070 0.323490 -0.663763 -0.674369
7274.477539 5146.211426 8612.520508 0.323490 -0.663763 -0.674369
6067.117676 5993.859375 8287.869141 -0.893306 0.206461 0.399222
6215.370605 5669.267090 8787.467773 -0.893306 0.206461 0.399222
6137.462891 6226.922852 8324.744141 -0.893306 0.206461 0.399222
7422.204102 5347.354004 8806.723633 0.469962 0.740019 0.481153
7231.347168 5795.535156 8303.833984 0.469962 0.740019 0.481153
6983.065918 5761.861328 8598.130859 0.469962 0.740019 0.481153
7262.386719 5363.223145 8393.122070 0.830486 -0.372476 -0.414191
7405.545898 5620.824219 8448.510742 0.830486 -0.372476 -0.414191
7274.477539 5146.211426 8612.520508 0.830486 -0.372476 -0.414191
6802.527344 6156.945801 8308.412109 0.268850 0.646450 0.714018
6289.547363 6128.782227 8527.063477 0.268850 0.646450 0.714018
6983.065918 5761.861328 8598.130859 0.268850 0.646450 0.714018
6911.465820 5096.026367 8487.782227 -0.354514 -0.876401 0.325946
6689.524902 5334.255859 8886.938477 -0.354514 -0.876401 0.325946
6229.688477 5345.096191 8415.947266 -0.354514 -0.876401 0.325946
6215.370605 5669.267090 8787.467773 -0.580599 0.470343 0.664592
6289.547363 6128.782227 8527.063477 -0.580599 0.470343 0.664592
6137.462891 6226.922852 8324.744141 -0.580599 0.470343 0.664592
7274.477539 5146.211426 8612.520508 0.039423 -0.961464 0.272091
7170.765137 5203.798828 8831.039062 0.039423 -0.961464 0.272091
6911.465820 5096.026367 8487.782227 0.039423 -0.961464 0.272091
7274.477539 5146.211426 8612.520508 0.883969 -0.350891 -0.308989
7405.545898 5620.824219 8448.510742 0.883969 -0.350891 -0.308989
7422.204102 5347.354004 8806.723633 0.883969 -0.350891 -0.308989
6215.370605 5669.267090 8787.467773 -0.920824 -0.310733 0.235644
6229.688477 5345.096191 8415.947266 -0.920824 -0.310733 0.235644
6275.523438 5514.420898 8818.337891 -0.920824 -0.310733 0.235644
6215.370605 5669.267090 8787.467773 0.158146 0.467380 0.869797
6983.065918 5761.861328 8598.130859 0.158146 0.467380 0.869797
6289.547363 6128.782227 8527.063477 0.158146 0.467380 0.869797
7170.765137 5203.798828 8831.039062 -0.191096 -0.885977 0.422526
6689.524902 5334.255859 8886.938477 -0.191096 -0.885977 0.422526
6911.465820 5096.026367 8487.782227 -0.191096 -0.885977 0.422526
6689.524902 5334.255859 8886.938477 -0.420933 -0.817950 0.392138
6275.523438 5514.420898 8818.337891 -0.420933 -0.817950 0.392138
6229.688477 5345.096191 8415.947266 -0.420933 -0.817950 0.392138
7422.204102 5347.354004 8806.723633 0.277977 0.650283 0.707008
6983.065918 5761.861328 8598.130859 0.277977 0.650283 0.707008
7199.486328 5341.669922 8899.518555 0.277977 0.650283 0.707008
7274.477539 5146.211426 8612.520508 0.478789 -0.765926 0.429090
7422.204102 5347.354004 8806.723633 0.478789 -0.765926 0.429090
7170.765137 5203.798828 8831.039062 0.478789 -0.765926 0.429090
6215.370605 5669.267090 8787.467773 0.117198 0.617974 0.777414
7199.486328 5341.669922 8899.518555 0.117198 0.617974 0.777414
6983.065918 5761.861328 8598.130859 0.117198 0.617974 0.777414
7170.765137 5203.798828 8831.039062 0.348897 -0.474181 0.808346
7422.204102 5347.354004 8806.723633 0.348897 -0.474181 0.808346
7199.486328 5341.669922 8899.518555 0.348897 -0.474181 0.808346
7199.486328 5341.669922 8899.518555 -0.015694 -0.442163 0.896798
6689.524902 5334.255859 8886.938477 -0.015694 -0.442163 0.896798
7170.765137 5203.798828 8831.039062 -0.015694 -0.442163 0.896798
7199.486328 5341.669922 8899.518555 -0.027499 0.248563 0.968225
6215.370605 5669.267090 8787.467773 -0.027499 0.248563 0.968225
6689.524902 5334.255859 8886.938477 -0.027499 0.248563 0.968225
6689.524902 5334.255859 8886.938477 -0.093366 0.159651 0.982748
6215.370605 5669.267090 8787.467773 -0.093366 0.159651 0.982748
6275.523438 5514.420898 8818.337891 -0.093366 0.159651 0.982748
3 0 1 2
3 3 4 5
3 6 7 8
3 9 10 11
3 12 13 14
3 15 16 17
3 18 19 20
3 21 22 23
3 24 25 26
3 27 28 29
3 30 31 32
3 33 34 35
3 36 37 38
3 39 40 41
3 42 43 44
3 45 46 47
3 48 49 50
3 51 52 53
3 54 55 56
3 57 58 59
3 60 61 62
3 63 64 65
3 66 67 68
3 69 70 71
3 72 73 74
3 75 76 77
3 78 79 80
3 81 82 83
3 84 85 86
3 87 88 89
3 90 91 92
3 93 94 95
3 96 97 98
3 99 100 101
3 102 103 104
3 105 106 107
3 108 109 110
3 111 112 113
3 114 115 116
3 117 118 119
3 120 121 122
3 123 124 125
3 126 127 128
3 129 130 131
3 132 133 134
3 135 136 137
3 138 139 140
3 141 142 143
3 144 145 146
3 147 148 149
3 150 151 152
3 153 154 155
3 156 157 158
3 159 160 161
3 162 163 164
3 165 166 167
3 168 169 170
3 171 172 173
3 174 175 176
3 177 178 179
3 180 181 182
3 183 184 185
3 186 187 188
3 189 190 191
3 192 193 194
3 195 196 197
3 198 199 200
3 201 202 203
3 204 205 206
3 207 208 209
3 210 211 212
3 213 214 215
3 216 217 218
3 219 220 221
3 222 223 224
3 225 226 227
3 228 229 230
3 231 232 233
3 234 235 236
3 237 238 239
3 240 241 242
3 243 244 245
3 246 247 248
3 249 250 251
3 252 253 254
3 255 256 257
3 258 259 260
3 261 262 263
3 264 265 266
3 267 268 269
3 270 271 272
3 273 274 275
3 276 277 278
3 279 280 281
3 282 283 284
3 285 286 287
3 288 289 290
3 291 292 293
3 294 295 296
3 297 298 299
3 300 301 302
3 303 304 305
3 306 307 308
3 309 310 311
3 312 313 314
3 315 316 317
3 318 319 320
3 321 322 323
3 324 325 326
3 327 328 329
3 330 331 332
3 333 334 335
3 336 337 338
3 339 340 341
3 342 343 344
3 345 346 347
