ply
format ascii 1.0
comment Created by Blender 2.80 (sub 75) - www.blender.org, source file: 'downsample_ccf.blend'
element vertex 270
property float x
property float y
property float z
property float nx
property float ny
property float nz
element face 90
property list uchar uint vertex_indices
end_header
6771.229980 6074.360352 2944.471680 0.218132 0.444954 -0.868582
7390.335449 5519.819336 2815.872803 0.218132 0.444954 -0.868582
6657.003418 5933.962402 2843.862793 0.218132 0.444954 -0.868582
7390.335449 5519.819336 2815.872803 -0.224495 -0.335689 -0.914831
6746.199219 5560.779785 2958.910645 -0.224495 -0.335689 -0.914831
6657.003418 5933.962402 2843.862793 -0.224495 -0.335689 -0.914831
6740.719238 5162.663086 2902.605713 0.048865 -0.653363 -0.755466
7299.520996 5246.186035 2866.515625 0.048865 -0.653363 -0.755466
6894.983398 5128.474121 2942.152100 0.048865 -0.653363 -0.755466
7390.335449 5519.819336 2815.872803 -0.221968 -0.105727 -0.969305
7299.520996 5246.186035 2866.515625 -0.221968 -0.105727 -0.969305
6746.199219 5560.779785 2958.910645 -0.221968 -0.105727 -0.969305
7390.335449 5519.819336 2815.872803 0.531711 0.703109 -0.472145
6771.229980 6074.360352 2944.471680 0.531711 0.703109 -0.472145
7315.108887 5728.715820 3042.239746 0.531711 0.703109 -0.472145
6771.229980 6074.360352 2944.471680 -0.028466 0.597445 -0.801405
6657.003418 5933.962402 2843.862793 -0.028466 0.597445 -0.801405
6517.945801 6125.925781 2991.910400 -0.028466 0.597445 -0.801405
7299.520996 5246.186035 2866.515625 -0.084734 0.140674 -0.986423
6740.719238 5162.663086 2902.605713 -0.084734 0.140674 -0.986423
6746.199219 5560.779785 2958.910645 -0.084734 0.140674 -0.986423
7315.108887 5728.715820 3042.239746 0.860398 -0.198698 0.469291
7299.520996 5246.186035 2866.515625 0.860398 -0.198698 0.469291
7390.335449 5519.819336 2815.872803 0.860398 -0.198698 0.469291
6517.945801 6125.925781 2991.910400 -0.491104 0.280326 -0.824763
6657.003418 5933.962402 2843.862793 -0.491104 0.280326 -0.824763
6219.214844 5869.042480 3082.478271 -0.491104 0.280326 -0.824763
6894.983398 5128.474121 2942.152100 -0.249784 -0.957088 0.146938
6502.837891 5259.229492 3127.215332 -0.249784 -0.957088 0.146938
6740.719238 5162.663086 2902.605713 -0.249784 -0.957088 0.146938
6746.199219 5560.779785 2958.910645 -0.405838 -0.356447 -0.841570
6219.214844 5869.042480 3082.478271 -0.405838 -0.356447 -0.841570
6657.003418 5933.962402 2843.862793 -0.405838 -0.356447 -0.841570
6771.229980 6074.360352 2944.471680 0.116351 0.918709 -0.377408
6517.945801 6125.925781 2991.910400 0.116351 0.918709 -0.377408
6492.188477 6209.920410 3188.434570 0.116351 0.918709 -0.377408
6315.556152 5397.612793 3132.111816 -0.575407 -0.768863 -0.278849
6740.719238 5162.663086 2902.605713 -0.575407 -0.768863 -0.278849
6502.837891 5259.229492 3127.215332 -0.575407 -0.768863 -0.278849
6740.719238 5162.663086 2902.605713 -0.412823 0.133114 -0.901031
6315.556152 5397.612793 3132.111816 -0.412823 0.133114 -0.901031
6746.199219 5560.779785 2958.910645 -0.412823 0.133114 -0.901031
6746.199219 5560.779785 2958.910645 -0.314478 -0.162729 -0.935213
6315.556152 5397.612793 3132.111816 -0.314478 -0.162729 -0.935213
6219.214844 5869.042480 3082.478271 -0.314478 -0.162729 -0.935213
7315.108887 5728.715820 3042.239746 0.548318 0.771540 -0.322604
6771.229980 6074.360352 2944.471680 0.548318 0.771540 -0.322604
6940.689453 6043.914551 3159.681396 0.548318 0.771540 -0.322604
6894.983398 5128.474121 2942.152100 0.266951 -0.337372 0.902727
7299.520996 5246.186035 2866.515625 0.266951 -0.337372 0.902727
7315.108887 5728.715820 3042.239746 0.266951 -0.337372 0.902727
7315.108887 5728.715820 3042.239746 0.413298 -0.423680 0.806028
6832.666016 5558.811035 3200.307861 0.413298 -0.423680 0.806028
6894.983398 5128.474121 2942.152100 0.413298 -0.423680 0.806028
6219.214844 5869.042480 3082.478271 -0.651728 -0.209920 -0.728824
6315.556152 5397.612793 3132.111816 -0.651728 -0.209920 -0.728824
5940.276855 5745.590332 3367.467285 -0.651728 -0.209920 -0.728824
6645.366699 6188.616699 3217.339600 0.187361 0.933867 -0.304610
6771.229980 6074.360352 2944.471680 0.187361 0.933867 -0.304610
6492.188477 6209.920410 3188.434570 0.187361 0.933867 -0.304610
6771.229980 6074.360352 2944.471680 0.401891 0.895817 -0.189724
6645.366699 6188.616699 3217.339600 0.401891 0.895817 -0.189724
6940.689453 6043.914551 3159.681396 0.401891 0.895817 -0.189724
6940.689453 6043.914551 3159.681396 0.307792 0.011138 0.951389
6832.666016 5558.811035 3200.307861 0.307792 0.011138 0.951389
7315.108887 5728.715820 3042.239746 0.307792 0.011138 0.951389
6219.214844 5869.042480 3082.478271 -0.731505 0.093757 -0.675359
5940.276855 5745.590332 3367.467285 -0.731505 0.093757 -0.675359
5865.785645 5986.542969 3481.601807 -0.731505 0.093757 -0.675359
6219.214844 5869.042480 3082.478271 -0.594287 0.458023 -0.661089
5865.785645 5986.542969 3481.601807 -0.594287 0.458023 -0.661089
6517.945801 6125.925781 2991.910400 -0.594287 0.458023 -0.661089
6315.556152 5397.612793 3132.111816 -0.592254 -0.803608 0.058722
6502.837891 5259.229492 3127.215332 -0.592254 -0.803608 0.058722
5890.789551 5741.795898 3558.158936 -0.592254 -0.803608 0.058722
6517.945801 6125.925781 2991.910400 -0.467821 0.788892 -0.398488
5865.785645 5986.542969 3481.601807 -0.467821 0.788892 -0.398488
6492.188477 6209.920410 3188.434570 -0.467821 0.788892 -0.398488
6595.982422 5922.604492 3377.601807 0.546587 -0.051718 0.835804
6832.666016 5558.811035 3200.307861 0.546587 -0.051718 0.835804
6940.689453 6043.914551 3159.681396 0.546587 -0.051718 0.835804
6940.689453 6043.914551 3159.681396 0.370591 0.427858 0.824378
6645.366699 6188.616699 3217.339600 0.370591 0.427858 0.824378
6595.982422 5922.604492 3377.601807 0.370591 0.427858 0.824378
6894.983398 5128.474121 2942.152100 0.024031 -0.791772 0.610344
6131.685059 5699.250488 3712.648682 0.024031 -0.791772 0.610344
6502.837891 5259.229492 3127.215332 0.024031 -0.791772 0.610344
6315.556152 5397.612793 3132.111816 -0.731146 -0.651411 -0.202705
5890.789551 5741.795898 3558.158936 -0.731146 -0.651411 -0.202705
5940.276855 5745.590332 3367.467285 -0.731146 -0.651411 -0.202705
5865.785645 5986.542969 3481.601807 -0.952035 -0.175638 -0.250562
5940.276855 5745.590332 3367.467285 -0.952035 -0.175638 -0.250562
5890.789551 5741.795898 3558.158936 -0.952035 -0.175638 -0.250562
6832.666016 5558.811035 3200.307861 0.610210 -0.340701 0.715238
6395.015137 5755.587891 3667.426514 0.610210 -0.340701 0.715238
6894.983398 5128.474121 2942.152100 0.610210 -0.340701 0.715238
6595.982422 5922.604492 3377.601807 0.754790 0.184252 0.629558
6395.015137 5755.587891 3667.426514 0.754790 0.184252 0.629558
6832.666016 5558.811035 3200.307861 0.754790 0.184252 0.629558
6114.688965 6012.565430 3646.630615 0.504745 0.374806 0.777659
6595.982422 5922.604492 3377.601807 0.504745 0.374806 0.777659
6645.366699 6188.616699 3217.339600 0.504745 0.374806 0.777659
6645.366699 6188.616699 3217.339600 0.045192 0.903425 0.426358
6492.188477 6209.920410 3188.434570 0.045192 0.903425 0.426358
6114.688965 6012.565430 3646.630615 0.045192 0.903425 0.426358
6894.983398 5128.474121 2942.152100 0.260679 -0.634104 0.727982
6395.015137 5755.587891 3667.426514 0.260679 -0.634104 0.727982
6131.685059 5699.250488 3712.648682 0.260679 -0.634104 0.727982
6502.837891 5259.229492 3127.215332 -0.392113 -0.837396 0.380808
6131.685059 5699.250488 3712.648682 -0.392113 -0.837396 0.380808
5890.789551 5741.795898 3558.158936 -0.392113 -0.837396 0.380808
6114.688965 6012.565430 3646.630615 0.478346 0.575487 0.663324
6395.015137 5755.587891 3667.426514 0.478346 0.575487 0.663324
6595.982422 5922.604492 3377.601807 0.478346 0.575487 0.663324
6492.188477 6209.920410 3188.434570 -0.239120 0.947741 0.211206
5865.785645 5986.542969 3481.601807 -0.239120 0.947741 0.211206
6114.688965 6012.565430 3646.630615 -0.239120 0.947741 0.211206
5865.785645 5986.542969 3481.601807 -0.500920 0.211356 0.839290
5890.789551 5741.795898 3558.158936 -0.500920 0.211356 0.839290
6131.685059 5699.250488 3712.648682 -0.500920 0.211356 0.839290
6131.685059 5699.250488 3712.648682 -0.557265 0.142146 0.818077
6114.688965 6012.565430 3646.630615 -0.557265 0.142146 0.818077
5865.785645 5986.542969 3481.601807 -0.557265 0.142146 0.818077
6395.015137 5755.587891 3667.426514 0.121434 0.210958 0.969923
6114.688965 6012.565430 3646.630615 0.121434 0.210958 0.969923
6131.685059 5699.250488 3712.648682 0.121434 0.210958 0.969923
6190.429199 5647.111328 7695.187500 -0.129784 -0.004736 -0.991531
5973.343262 5810.227539 7722.823242 -0.129784 -0.004736 -0.991531
6109.133789 5981.459961 7704.231445 -0.129784 -0.004736 -0.991531
6488.662598 5752.725098 7795.894043 0.287851 0.095764 -0.952875
6190.429199 5647.111328 7695.187500 0.287851 0.095764 -0.952875
6109.133789 5981.459961 7704.231445 0.287851 0.095764 -0.952875
5973.343262 5810.227539 7722.823242 -0.574461 0.376653 -0.726724
5884.537109 5989.301758 7885.834961 -0.574461 0.376653 -0.726724
6109.133789 5981.459961 7704.231445 -0.574461 0.376653 -0.726724
6190.429199 5647.111328 7695.187500 -0.543614 -0.629400 -0.555284
5873.065430 5764.913086 7872.356445 -0.543614 -0.629400 -0.555284
5973.343262 5810.227539 7722.823242 -0.543614 -0.629400 -0.555284
5973.343262 5810.227539 7722.823242 -0.838584 0.075281 -0.539546
5873.065430 5764.913086 7872.356445 -0.838584 0.075281 -0.539546
5884.537109 5989.301758 7885.834961 -0.838584 0.075281 -0.539546
6488.662598 5752.725098 7795.894043 0.467127 0.476646 -0.744716
6109.133789 5981.459961 7704.231445 0.467127 0.476646 -0.744716
6482.399414 6021.837891 7964.207520 0.467127 0.476646 -0.744716
6190.429199 5647.111328 7695.187500 0.436033 -0.558118 -0.705960
6488.662598 5752.725098 7795.894043 0.436033 -0.558118 -0.705960
6830.497070 5500.278320 8206.606445 0.436033 -0.558118 -0.705960
6190.429199 5647.111328 7695.187500 0.492481 -0.449318 -0.745370
6830.497070 5500.278320 8206.606445 0.492481 -0.449318 -0.745370
6710.657715 5281.387695 8259.375977 0.492481 -0.449318 -0.745370
6511.952637 5218.394531 8363.044922 -0.475240 -0.826492 -0.301756
5873.065430 5764.913086 7872.356445 -0.475240 -0.826492 -0.301756
6190.429199 5647.111328 7695.187500 -0.475240 -0.826492 -0.301756
6488.662598 5752.725098 7795.894043 0.694605 0.393020 -0.602544
6482.399414 6021.837891 7964.207520 0.694605 0.393020 -0.602544
6678.836914 5808.059570 8051.217285 0.694605 0.393020 -0.602544
6109.133789 5981.459961 7704.231445 -0.214654 0.927672 -0.305529
5884.537109 5989.301758 7885.834961 -0.214654 0.927672 -0.305529
6397.834473 6191.718750 8139.804688 -0.214654 0.927672 -0.305529
5873.065430 5764.913086 7872.356445 -0.687166 -0.720643 0.092067
6511.952637 5218.394531 8363.044922 -0.687166 -0.720643 0.092067
6304.792969 5402.344727 8256.704102 -0.687166 -0.720643 0.092067
6488.662598 5752.725098 7795.894043 0.790487 0.083157 -0.606807
6678.836914 5808.059570 8051.217285 0.790487 0.083157 -0.606807
6830.497070 5500.278320 8206.606445 0.790487 0.083157 -0.606807
6109.133789 5981.459961 7704.231445 0.319070 0.753290 -0.575108
6397.834473 6191.718750 8139.804688 0.319070 0.753290 -0.575108
6482.399414 6021.837891 7964.207520 0.319070 0.753290 -0.575108
6397.834473 6191.718750 8139.804688 -0.394632 0.916377 0.067226
5884.537109 5989.301758 7885.834961 -0.394632 0.916377 0.067226
6239.255859 6118.584961 8205.820312 -0.394632 0.916377 0.067226
6190.429199 5647.111328 7695.187500 -0.012070 -0.844104 -0.536044
6710.657715 5281.387695 8259.375977 -0.012070 -0.844104 -0.536044
6511.952637 5218.394531 8363.044922 -0.012070 -0.844104 -0.536044
5873.065430 5764.913086 7872.356445 -0.875535 0.015754 0.482898
6061.592285 5875.547852 8210.562500 -0.875535 0.015754 0.482898
5884.537109 5989.301758 7885.834961 -0.875535 0.015754 0.482898
7225.188965 5797.297852 8308.805664 0.426714 0.024138 -0.904064
6678.836914 5808.059570 8051.217285 0.426714 0.024138 -0.904064
6482.399414 6021.837891 7964.207520 0.426714 0.024138 -0.904064
6824.059570 6163.475098 8237.294922 0.480781 0.371569 -0.794221
7225.188965 5797.297852 8308.805664 0.480781 0.371569 -0.794221
6482.399414 6021.837891 7964.207520 0.480781 0.371569 -0.794221
6824.059570 6163.475098 8237.294922 0.194292 0.750112 -0.632125
6482.399414 6021.837891 7964.207520 0.194292 0.750112 -0.632125
6397.834473 6191.718750 8139.804688 0.194292 0.750112 -0.632125
6304.792969 5402.344727 8256.704102 -0.768604 -0.342324 0.540427
6061.592285 5875.547852 8210.562500 -0.768604 -0.342324 0.540427
5873.065430 5764.913086 7872.356445 -0.768604 -0.342324 0.540427
7225.188965 5797.297852 8308.805664 0.409865 -0.242043 -0.879446
6830.497070 5500.278320 8206.606445 0.409865 -0.242043 -0.879446
6678.836914 5808.059570 8051.217285 0.409865 -0.242043 -0.879446
6061.592285 5875.547852 8210.562500 -0.672881 0.502479 0.542905
6239.255859 6118.584961 8205.820312 -0.672881 0.502479 0.542905
5884.537109 5989.301758 7885.834961 -0.672881 0.502479 0.542905
7367.360840 5328.845215 8491.513672 0.399615 -0.225284 -0.888569
6830.497070 5500.278320 8206.606445 0.399615 -0.225284 -0.888569
7225.188965 5797.297852 8308.805664 0.399615 -0.225284 -0.888569
6397.834473 6191.718750 8139.804688 -0.007074 0.951790 0.306669
6552.428223 6096.017090 8440.394531 -0.007074 0.951790 0.306669
6824.059570 6163.475098 8237.294922 -0.007074 0.951790 0.306669
6304.792969 5402.344727 8256.704102 -0.430966 -0.134487 0.892290
6403.801270 5864.379395 8374.162109 -0.430966 -0.134487 0.892290
6061.592285 5875.547852 8210.562500 -0.430966 -0.134487 0.892290
6830.497070 5500.278320 8206.606445 0.331900 -0.388897 -0.859419
7367.360840 5328.845215 8491.513672 0.331900 -0.388897 -0.859419
6710.657715 5281.387695 8259.375977 0.331900 -0.388897 -0.859419
6304.792969 5402.344727 8256.704102 -0.312093 -0.170712 0.934588
6854.160156 5446.673340 8448.254883 -0.312093 -0.170712 0.934588
6403.801270 5864.379395 8374.162109 -0.312093 -0.170712 0.934588
6403.801270 5864.379395 8374.162109 -0.401732 0.310482 0.861517
6239.255859 6118.584961 8205.820312 -0.401732 0.310482 0.861517
6061.592285 5875.547852 8210.562500 -0.401732 0.310482 0.861517
6239.255859 6118.584961 8205.820312 -0.239008 0.882965 0.404040
6552.428223 6096.017090 8440.394531 -0.239008 0.882965 0.404040
6397.834473 6191.718750 8139.804688 -0.239008 0.882965 0.404040
6710.657715 5281.387695 8259.375977 -0.015434 -0.841096 -0.540665
6863.164551 5117.458008 8510.042969 -0.015434 -0.841096 -0.540665
6511.952637 5218.394531 8363.044922 -0.015434 -0.841096 -0.540665
6710.657715 5281.387695 8259.375977 0.199237 -0.760210 -0.618374
7189.888672 5200.862793 8512.776367 0.199237 -0.760210 -0.618374
6863.164551 5117.458008 8510.042969 0.199237 -0.760210 -0.618374
7367.360840 5328.845215 8491.513672 0.311814 -0.559922 -0.767633
7189.888672 5200.862793 8512.776367 0.311814 -0.559922 -0.767633
6710.657715 5281.387695 8259.375977 0.311814 -0.559922 -0.767633
7367.360840 5328.845215 8491.513672 0.591757 -0.130654 -0.795458
7225.188965 5797.297852 8308.805664 0.591757 -0.130654 -0.795458
7385.262695 5637.041504 8454.209961 0.591757 -0.130654 -0.795458
6854.160156 5446.673340 8448.254883 -0.336440 0.157808 0.928388
6304.792969 5402.344727 8256.704102 -0.336440 0.157808 0.928388
6511.952637 5218.394531 8363.044922 -0.336440 0.157808 0.928388
7225.188965 5797.297852 8308.805664 0.477563 0.640579 0.601325
6824.059570 6163.475098 8237.294922 0.477563 0.640579 0.601325
6754.012695 5918.932129 8553.431641 0.477563 0.640579 0.601325
7225.188965 5797.297852 8308.805664 0.424387 0.803203 0.418043
6754.012695 5918.932129 8553.431641 0.424387 0.803203 0.418043
7385.262695 5637.041504 8454.209961 0.424387 0.803203 0.418043
6754.012695 5918.932129 8553.431641 0.287116 0.725838 0.625078
6824.059570 6163.475098 8237.294922 0.287116 0.725838 0.625078
6552.428223 6096.017090 8440.394531 0.287116 0.725838 0.625078
6854.160156 5446.673340 8448.254883 -0.340243 0.164459 0.925844
6511.952637 5218.394531 8363.044922 -0.340243 0.164459 0.925844
6863.164551 5117.458008 8510.042969 -0.340243 0.164459 0.925844
6552.428223 6096.017090 8440.394531 -0.586014 0.148226 0.796628
6239.255859 6118.584961 8205.820312 -0.586014 0.148226 0.796628
6403.801270 5864.379395 8374.162109 -0.586014 0.148226 0.796628
7278.011230 5573.534180 8572.117188 -0.251334 -0.100218 0.962698
6403.801270 5864.379395 8374.162109 -0.251334 -0.100218 0.962698
6854.160156 5446.673340 8448.254883 -0.251334 -0.100218 0.962698
7385.262695 5637.041504 8454.209961 0.384441 0.620221 0.683762
6754.012695 5918.932129 8553.431641 0.384441 0.620221 0.683762
7278.011230 5573.534180 8572.117188 0.384441 0.620221 0.683762
7189.888672 5200.862793 8512.776367 -0.054860 0.182735 0.981631
6854.160156 5446.673340 8448.254883 -0.054860 0.182735 0.981631
6863.164551 5117.458008 8510.042969 -0.054860 0.182735 0.981631
6754.012695 5918.932129 8553.431641 -0.341517 -0.474211 0.811474
6403.801270 5864.379395 8374.162109 -0.341517 -0.474211 0.811474
7278.011230 5573.534180 8572.117188 -0.341517 -0.474211 0.811474
7189.888672 5200.862793 8512.776367 -0.253419 -0.093390 0.962838
7278.011230 5573.534180 8572.117188 -0.253419 -0.093390 0.962838
6854.160156 5446.673340 8448.254883 -0.253419 -0.093390 0.962838
7385.262695 5637.041504 8454.209961 0.728176 0.040517 0.684191
7278.011230 5573.534180 8572.117188 0.728176 0.040517 0.684191
7367.360840 5328.845215 8491.513672 0.728176 0.040517 0.684191
6754.012695 5918.932129 8553.431641 -0.460423 0.041885 0.886711
6552.428223 6096.017090 8440.394531 -0.460423 0.041885 0.886711
6403.801270 5864.379395 8374.162109 -0.460423 0.041885 0.886711
7367.360840 5328.845215 8491.513672 0.265969 -0.212607 0.940244
7278.011230 5573.534180 8572.117188 0.265969 -0.212607 0.940244
7189.888672 5200.862793 8512.776367 0.265969 -0.212607 0.940244
3 0 1 2
3 3 4 5
3 6 7 8
3 9 10 11
3 12 13 14
3 15 16 17
3 18 19 20
3 21 22 23
3 24 25 26
3 27 28 29
3 30 31 32
3 33 34 35
3 36 37 38
3 39 40 41
3 42 43 44
3 45 46 47
3 48 49 50
3 51 52 53
3 54 55 56
3 57 58 59
3 60 61 62
3 63 64 65
3 66 67 68
3 69 70 71
3 72 73 74
3 75 76 77
3 78 79 80
3 81 82 83
3 84 85 86
3 87 88 89
3 90 91 92
3 93 94 95
3 96 97 98
3 99 100 101
3 102 103 104
3 105 106 107
3 108 109 110
3 111 112 113
3 114 115 116
3 117 118 119
3 120 121 122
3 123 124 125
3 126 127 128
3 129 130 131
3 132 133 134
3 135 136 137
3 138 139 140
3 141 142 143
3 144 145 146
3 147 148 149
3 150 151 152
3 153 154 155
3 156 157 158
3 159 160 161
3 162 163 164
3 165 166 167
3 168 169 170
3 171 172 173
3 174 175 176
3 177 178 179
3 180 181 182
3 183 184 185
3 186 187 188
3 189 190 191
3 192 193 194
3 195 196 197
3 198 199 200
3 201 202 203
3 204 205 206
3 207 208 209
3 210 211 212
3 213 214 215
3 216 217 218
3 219 220 221
3 222 223 224
3 225 226 227
3 228 229 230
3 231 232 233
3 234 235 236
3 237 238 239
3 240 241 242
3 243 244 245
3 246 247 248
3 249 250 251
3 252 253 254
3 255 256 257
3 258 259 260
3 261 262 263
3 264 265 266
3 267 268 269
