ply
format ascii 1.0
comment Created by Blender 2.80 (sub 75) - www.blender.org, source file: 'downsample_ccf.blend'
element vertex 186
property float x
property float y
property float z
property float nx
property float ny
property float nz
element face 62
property list uchar uint vertex_indices
end_header
6554.412109 3837.226074 4588.922363 -0.586653 0.694264 -0.416937
6327.329102 3835.836182 4906.125977 -0.586653 0.694264 -0.416937
6603.399902 4004.641113 4798.765625 -0.586653 0.694264 -0.416937
7118.907715 4030.918701 4707.084961 0.184398 0.061026 -0.980955
7280.047852 3566.624023 4708.491699 0.184398 0.061026 -0.980955
6554.412109 3837.226074 4588.922363 0.184398 0.061026 -0.980955
6554.412109 3837.226074 4588.922363 -0.810169 0.087633 -0.579609
6362.847168 3631.848389 4825.637695 -0.810169 0.087633 -0.579609
6327.329102 3835.836182 4906.125977 -0.810169 0.087633 -0.579609
7045.137207 4179.138184 4870.665527 -0.216971 0.787147 -0.577342
6554.412109 3837.226074 4588.922363 -0.216971 0.787147 -0.577342
6603.399902 4004.641113 4798.765625 -0.216971 0.787147 -0.577342
7118.907715 4030.918701 4707.084961 -0.100177 0.714420 -0.692509
6554.412109 3837.226074 4588.922363 -0.100177 0.714420 -0.692509
7045.137207 4179.138184 4870.665527 -0.100177 0.714420 -0.692509
7336.647949 3925.413330 4835.238770 0.565687 0.193901 -0.801499
7280.047852 3566.624023 4708.491699 0.565687 0.193901 -0.801499
7118.907715 4030.918701 4707.084961 0.565687 0.193901 -0.801499
6554.412109 3837.226074 4588.922363 0.016383 -0.367031 -0.930064
7280.047852 3566.624023 4708.491699 0.016383 -0.367031 -0.930064
6744.672363 3212.850830 4838.670898 0.016383 -0.367031 -0.930064
6362.847168 3631.848389 4825.637695 -0.551134 -0.355835 -0.754740
6554.412109 3837.226074 4588.922363 -0.551134 -0.355835 -0.754740
6514.154297 3160.768555 4937.247559 -0.551134 -0.355835 -0.754740
7336.647949 3925.413330 4835.238770 0.577158 0.717550 -0.389885
7118.907715 4030.918701 4707.084961 0.577158 0.717550 -0.389885
7045.137207 4179.138184 4870.665527 0.577158 0.717550 -0.389885
7308.707031 2944.568359 5032.948242 0.087171 -0.457540 -0.884906
6744.672363 3212.850830 4838.670898 0.087171 -0.457540 -0.884906
7280.047852 3566.624023 4708.491699 0.087171 -0.457540 -0.884906
6514.154297 3160.768555 4937.247559 -0.271999 -0.427693 -0.862029
6554.412109 3837.226074 4588.922363 -0.271999 -0.427693 -0.862029
6744.672363 3212.850830 4838.670898 -0.271999 -0.427693 -0.862029
7308.707031 2944.568359 5032.948242 0.971298 -0.073283 -0.226295
7280.047852 3566.624023 4708.491699 0.971298 -0.073283 -0.226295
7336.647949 3925.413330 4835.238770 0.971298 -0.073283 -0.226295
6514.154297 3160.768555 4937.247559 -0.684476 -0.368837 -0.628850
6353.333984 3398.090576 4973.097656 -0.684476 -0.368837 -0.628850
6362.847168 3631.848389 4825.637695 -0.684476 -0.368837 -0.628850
7269.014160 3687.132080 4893.867676 -0.074626 0.139318 0.987432
6603.399902 4004.641113 4798.765625 -0.074626 0.139318 0.987432
6705.838867 3637.996094 4858.237793 -0.074626 0.139318 0.987432
7045.137207 4179.138184 4870.665527 -0.151933 -0.022535 0.988134
6603.399902 4004.641113 4798.765625 -0.151933 -0.022535 0.988134
7269.014160 3687.132080 4893.867676 -0.151933 -0.022535 0.988134
6514.154297 3160.768555 4937.247559 -0.125197 -0.725910 -0.676299
6744.672363 3212.850830 4838.670898 -0.125197 -0.725910 -0.676299
7088.922852 3044.019531 4956.159180 -0.125197 -0.725910 -0.676299
6744.672363 3212.850830 4838.670898 0.399769 0.191323 -0.896426
7308.707031 2944.568359 5032.948242 0.399769 0.191323 -0.896426
7088.922852 3044.019531 4956.159180 0.399769 0.191323 -0.896426
6705.838867 3637.996094 4858.237793 0.234354 0.219109 0.947137
6603.399902 4004.641113 4798.765625 0.234354 0.219109 0.947137
6327.329102 3835.836182 4906.125977 0.234354 0.219109 0.947137
7308.707031 2944.568359 5032.948242 0.987792 -0.057335 -0.144842
7336.647949 3925.413330 4835.238770 0.987792 -0.057335 -0.144842
7326.575684 3325.230225 5004.126465 0.987792 -0.057335 -0.144842
7326.575684 3325.230225 5004.126465 0.039683 0.485994 0.873061
6705.838867 3637.996094 4858.237793 0.039683 0.485994 0.873061
6527.681152 3385.002930 5007.165527 0.039683 0.485994 0.873061
7326.575684 3325.230225 5004.126465 -0.126306 0.270668 0.954351
7336.647949 3925.413330 4835.238770 -0.126306 0.270668 0.954351
7269.014160 3687.132080 4893.867676 -0.126306 0.270668 0.954351
7336.647949 3925.413330 4835.238770 0.256512 0.161658 0.952926
7045.137207 4179.138184 4870.665527 0.256512 0.161658 0.952926
7269.014160 3687.132080 4893.867676 0.256512 0.161658 0.952926
7269.014160 3687.132080 4893.867676 -0.084792 0.278024 0.956824
6705.838867 3637.996094 4858.237793 -0.084792 0.278024 0.956824
7326.575684 3325.230225 5004.126465 -0.084792 0.278024 0.956824
6353.333984 3398.090576 4973.097656 -0.974855 -0.089158 -0.204227
6327.329102 3835.836182 4906.125977 -0.974855 -0.089158 -0.204227
6362.847168 3631.848389 4825.637695 -0.974855 -0.089158 -0.204227
6527.681152 3385.002930 5007.165527 0.285701 0.328712 0.900180
6705.838867 3637.996094 4858.237793 0.285701 0.328712 0.900180
6327.329102 3835.836182 4906.125977 0.285701 0.328712 0.900180
6527.681152 3385.002930 5007.165527 -0.179922 0.138312 0.973909
6327.329102 3835.836182 4906.125977 -0.179922 0.138312 0.973909
6353.333984 3398.090576 4973.097656 -0.179922 0.138312 0.973909
6514.154297 3160.768555 4937.247559 -0.090537 -0.291468 0.952286
7088.922852 3044.019531 4956.159180 -0.090537 -0.291468 0.952286
6527.681152 3385.002930 5007.165527 -0.090537 -0.291468 0.952286
6353.333984 3398.090576 4973.097656 -0.204310 -0.280140 0.937965
6514.154297 3160.768555 4937.247559 -0.204310 -0.280140 0.937965
6527.681152 3385.002930 5007.165527 -0.204310 -0.280140 0.937965
7308.707031 2944.568359 5032.948242 -0.293762 0.085871 0.952014
7326.575684 3325.230225 5004.126465 -0.293762 0.085871 0.952014
7088.922852 3044.019531 4956.159180 -0.293762 0.085871 0.952014
7088.922852 3044.019531 4956.159180 -0.008315 -0.161308 0.986869
7326.575684 3325.230225 5004.126465 -0.008315 -0.161308 0.986869
6527.681152 3385.002930 5007.165527 -0.008315 -0.161308 0.986869
6309.588379 3747.470947 6480.604980 0.011584 0.220865 -0.975236
6780.885742 3310.560303 6387.254395 0.011584 0.220865 -0.975236
6364.890137 3375.395020 6396.996582 0.011584 0.220865 -0.975236
7057.664551 3060.225342 6426.049316 -0.071128 -0.229088 -0.970803
6414.825684 3218.583984 6435.778809 -0.071128 -0.229088 -0.970803
6780.885742 3310.560303 6387.254395 -0.071128 -0.229088 -0.970803
6780.885742 3310.560303 6387.254395 -0.062852 -0.258426 -0.963984
6414.825684 3218.583984 6435.778809 -0.062852 -0.258426 -0.963984
6364.890137 3375.395020 6396.996582 -0.062852 -0.258426 -0.963984
7328.266602 3323.830078 6395.090332 0.017438 -0.134265 -0.990792
7057.664551 3060.225342 6426.049316 0.017438 -0.134265 -0.990792
6780.885742 3310.560303 6387.254395 0.017438 -0.134265 -0.990792
7315.307617 2938.293945 6355.911133 -0.214235 0.105879 -0.971027
7057.664551 3060.225342 6426.049316 -0.214235 0.105879 -0.971027
7328.266602 3323.830078 6395.090332 -0.214235 0.105879 -0.971027
6309.588379 3747.470947 6480.604980 0.242277 0.445495 -0.861879
6669.245605 3635.810303 6523.989746 0.242277 0.445495 -0.861879
6780.885742 3310.560303 6387.254395 0.242277 0.445495 -0.861879
6414.825684 3218.583984 6435.778809 -0.215530 -0.844831 -0.489702
7057.664551 3060.225342 6426.049316 -0.215530 -0.844831 -0.489702
6680.892090 3124.544678 6480.912598 -0.215530 -0.844831 -0.489702
7315.307617 2938.293945 6355.911133 0.999172 -0.030893 -0.026487
7328.266602 3323.830078 6395.090332 0.999172 -0.030893 -0.026487
7343.199707 3586.910889 6651.569824 0.999172 -0.030893 -0.026487
6669.245605 3635.810303 6523.989746 0.003768 0.388643 -0.921381
7328.266602 3323.830078 6395.090332 0.003768 0.388643 -0.921381
6780.885742 3310.560303 6387.254395 0.003768 0.388643 -0.921381
6386.591797 3878.851807 6494.743652 0.129170 0.030955 -0.991139
6669.245605 3635.810303 6523.989746 0.129170 0.030955 -0.991139
6309.588379 3747.470947 6480.604980 0.129170 0.030955 -0.991139
7309.148926 3918.015625 6513.179688 -0.100651 0.190823 -0.976451
7328.266602 3323.830078 6395.090332 -0.100651 0.190823 -0.976451
6669.245605 3635.810303 6523.989746 -0.100651 0.190823 -0.976451
6309.588379 3747.470947 6480.604980 -0.919764 -0.211058 0.330890
6364.890137 3375.395020 6396.996582 -0.919764 -0.211058 0.330890
6414.825684 3218.583984 6435.778809 -0.919764 -0.211058 0.330890
7309.148926 3918.015625 6513.179688 -0.096266 -0.083916 -0.991812
6697.803223 4007.367920 6564.957031 -0.096266 -0.083916 -0.991812
7059.599121 4179.115723 6515.309570 -0.096266 -0.083916 -0.991812
7315.307617 2938.293945 6355.911133 -0.068261 0.385158 -0.920323
6680.892090 3124.544678 6480.912598 -0.068261 0.385158 -0.920323
7057.664551 3060.225342 6426.049316 -0.068261 0.385158 -0.920323
6669.245605 3635.810303 6523.989746 0.182041 0.093929 -0.978794
6386.591797 3878.851807 6494.743652 0.182041 0.093929 -0.978794
6697.803223 4007.367920 6564.957031 0.182041 0.093929 -0.978794
7315.307617 2938.293945 6355.911133 0.658389 -0.335448 0.673795
7343.199707 3586.910889 6651.569824 0.658389 -0.335448 0.673795
7280.654297 3456.449951 6647.735352 0.658389 -0.335448 0.673795
7328.266602 3323.830078 6395.090332 0.992022 0.054509 -0.113671
7309.148926 3918.015625 6513.179688 0.992022 0.054509 -0.113671
7343.199707 3586.910889 6651.569824 0.992022 0.054509 -0.113671
7309.148926 3918.015625 6513.179688 -0.067217 0.114449 -0.991153
6669.245605 3635.810303 6523.989746 -0.067217 0.114449 -0.991153
6697.803223 4007.367920 6564.957031 -0.067217 0.114449 -0.991153
7233.604004 3993.935791 6648.391113 0.722888 0.690779 0.016023
7309.148926 3918.015625 6513.179688 0.722888 0.690779 0.016023
7059.599121 4179.115723 6515.309570 0.722888 0.690779 0.016023
6680.892090 3124.544678 6480.912598 0.028181 -0.489097 0.871774
7315.307617 2938.293945 6355.911133 0.028181 -0.489097 0.871774
7280.654297 3456.449951 6647.735352 0.028181 -0.489097 0.871774
6697.803223 4007.367920 6564.957031 -0.424297 0.904733 0.037805
6523.038574 3917.386963 6756.905273 -0.424297 0.904733 0.037805
7059.599121 4179.115723 6515.309570 -0.424297 0.904733 0.037805
6414.825684 3218.583984 6435.778809 -0.296569 -0.429766 0.852847
6680.892090 3124.544678 6480.912598 -0.296569 -0.429766 0.852847
6594.153320 3793.017334 6787.606445 -0.296569 -0.429766 0.852847
6309.588379 3747.470947 6480.604980 -0.704082 -0.197900 0.681986
6414.825684 3218.583984 6435.778809 -0.704082 -0.197900 0.681986
6594.153320 3793.017334 6787.606445 -0.704082 -0.197900 0.681986
7309.148926 3918.015625 6513.179688 0.898443 0.244762 0.364543
7233.604004 3993.935791 6648.391113 0.898443 0.244762 0.364543
7343.199707 3586.910889 6651.569824 0.898443 0.244762 0.364543
6697.803223 4007.367920 6564.957031 -0.394293 0.916274 0.070534
6386.591797 3878.851807 6494.743652 -0.394293 0.916274 0.070534
6523.038574 3917.386963 6756.905273 -0.394293 0.916274 0.070534
6594.153320 3793.017334 6787.606445 -0.696385 -0.230413 0.679675
6523.038574 3917.386963 6756.905273 -0.696385 -0.230413 0.679675
6309.588379 3747.470947 6480.604980 -0.696385 -0.230413 0.679675
6680.892090 3124.544678 6480.912598 -0.020539 -0.419116 0.907700
7280.654297 3456.449951 6647.735352 -0.020539 -0.419116 0.907700
6594.153320 3793.017334 6787.606445 -0.020539 -0.419116 0.907700
6309.588379 3747.470947 6480.604980 -0.820651 0.442017 0.362151
6523.038574 3917.386963 6756.905273 -0.820651 0.442017 0.362151
6386.591797 3878.851807 6494.743652 -0.820651 0.442017 0.362151
7343.199707 3586.910889 6651.569824 0.150755 -0.101178 0.983380
6594.153320 3793.017334 6787.606445 0.150755 -0.101178 0.983380
7280.654297 3456.449951 6647.735352 0.150755 -0.101178 0.983380
6594.153320 3793.017334 6787.606445 0.194319 0.059969 0.979104
7343.199707 3586.910889 6651.569824 0.194319 0.059969 0.979104
7233.604004 3993.935791 6648.391113 0.194319 0.059969 0.979104
7059.599121 4179.115723 6515.309570 0.053758 0.615563 0.786252
6523.038574 3917.386963 6756.905273 0.053758 0.615563 0.786252
7233.604004 3993.935791 6648.391113 0.053758 0.615563 0.786252
6594.153320 3793.017334 6787.606445 0.112601 0.298352 0.947791
7233.604004 3993.935791 6648.391113 0.112601 0.298352 0.947791
6523.038574 3917.386963 6756.905273 0.112601 0.298352 0.947791
3 0 1 2
3 3 4 5
3 6 7 8
3 9 10 11
3 12 13 14
3 15 16 17
3 18 19 20
3 21 22 23
3 24 25 26
3 27 28 29
3 30 31 32
3 33 34 35
3 36 37 38
3 39 40 41
3 42 43 44
3 45 46 47
3 48 49 50
3 51 52 53
3 54 55 56
3 57 58 59
3 60 61 62
3 63 64 65
3 66 67 68
3 69 70 71
3 72 73 74
3 75 76 77
3 78 79 80
3 81 82 83
3 84 85 86
3 87 88 89
3 90 91 92
3 93 94 95
3 96 97 98
3 99 100 101
3 102 103 104
3 105 106 107
3 108 109 110
3 111 112 113
3 114 115 116
3 117 118 119
3 120 121 122
3 123 124 125
3 126 127 128
3 129 130 131
3 132 133 134
3 135 136 137
3 138 139 140
3 141 142 143
3 144 145 146
3 147 148 149
3 150 151 152
3 153 154 155
3 156 157 158
3 159 160 161
3 162 163 164
3 165 166 167
3 168 169 170
3 171 172 173
3 174 175 176
3 177 178 179
3 180 181 182
3 183 184 185
