ply
format ascii 1.0
comment Created by Blender 2.80 (sub 75) - www.blender.org, source file: 'downsample_ccf.blend'
element vertex 153
property float x
property float y
property float z
property float nx
property float ny
property float nz
element face 51
property list uchar uint vertex_indices
end_header
9684.966797 4717.514160 5301.417969 -0.242915 -0.276974 -0.929665
9301.294922 4778.168457 5383.598145 -0.242915 -0.276974 -0.929665
9305.268555 5224.808594 5249.493164 -0.242915 -0.276974 -0.929665
10131.030273 4956.444824 5408.127930 0.205129 0.053505 -0.977271
9684.966797 4717.514160 5301.417969 0.205129 0.053505 -0.977271
9305.268555 5224.808594 5249.493164 0.205129 0.053505 -0.977271
9301.294922 4778.168457 5383.598145 -0.366254 -0.264598 -0.892102
9075.661133 4963.682617 5421.208984 -0.366254 -0.264598 -0.892102
9305.268555 5224.808594 5249.493164 -0.366254 -0.264598 -0.892102
9305.268555 5224.808594 5249.493164 -0.475708 -0.151493 -0.866459
9075.661133 4963.682617 5421.208984 -0.475708 -0.151493 -0.866459
9076.845703 5372.806152 5349.026855 -0.475708 -0.151493 -0.866459
9634.583984 5710.772461 5477.327148 0.262481 0.258043 -0.929794
10131.030273 4956.444824 5408.127930 0.262481 0.258043 -0.929794
9305.268555 5224.808594 5249.493164 0.262481 0.258043 -0.929794
10131.030273 4956.444824 5408.127930 0.381767 -0.326564 -0.864644
10107.569336 4726.100098 5484.767090 0.381767 -0.326564 -0.864644
9684.966797 4717.514160 5301.417969 0.381767 -0.326564 -0.864644
9093.278320 4984.122559 5449.915039 -0.875369 0.086456 0.475662
9076.845703 5372.806152 5349.026855 -0.875369 0.086456 0.475662
9075.661133 4963.682617 5421.208984 -0.875369 0.086456 0.475662
9634.583984 5710.772461 5477.327148 -0.080740 0.467438 -0.880331
9305.268555 5224.808594 5249.493164 -0.080740 0.467438 -0.880331
9076.845703 5372.806152 5349.026855 -0.080740 0.467438 -0.880331
9960.670898 4704.671387 5631.920898 -0.139374 -0.987171 0.077905
9301.294922 4778.168457 5383.598145 -0.139374 -0.987171 0.077905
9684.966797 4717.514160 5301.417969 -0.139374 -0.987171 0.077905
10179.936523 5277.306641 5516.830078 0.280775 0.269296 -0.921219
10131.030273 4956.444824 5408.127930 0.280775 0.269296 -0.921219
9634.583984 5710.772461 5477.327148 0.280775 0.269296 -0.921219
9634.583984 5710.772461 5477.327148 -0.166379 0.577884 -0.798979
9076.845703 5372.806152 5349.026855 -0.166379 0.577884 -0.798979
9118.486328 5636.106445 5530.794922 -0.166379 0.577884 -0.798979
10107.569336 4726.100098 5484.767090 0.057943 -0.994523 -0.086981
9960.670898 4704.671387 5631.920898 0.057943 -0.994523 -0.086981
9684.966797 4717.514160 5301.417969 0.057943 -0.994523 -0.086981
10131.030273 4956.444824 5408.127930 0.989286 -0.125548 -0.074503
10179.936523 5277.306641 5516.830078 0.989286 -0.125548 -0.074503
10107.569336 4726.100098 5484.767090 0.989286 -0.125548 -0.074503
9093.278320 4984.122559 5449.915039 -0.998918 -0.045139 -0.011200
9090.213867 5035.409180 5516.529785 -0.998918 -0.045139 -0.011200
9076.845703 5372.806152 5349.026855 -0.998918 -0.045139 -0.011200
10107.569336 4726.100098 5484.767090 0.711038 -0.133509 0.690362
10179.936523 5277.306641 5516.830078 0.711038 -0.133509 0.690362
9960.670898 4704.671387 5631.920898 0.711038 -0.133509 0.690362
9960.670898 4704.671387 5631.920898 -0.197096 0.265167 0.943843
10179.936523 5277.306641 5516.830078 -0.197096 0.265167 0.943843
9923.884766 4882.185059 5574.367676 -0.197096 0.265167 0.943843
10179.936523 5277.306641 5516.830078 0.614159 0.750424 -0.244281
9634.583984 5710.772461 5477.327148 0.614159 0.750424 -0.244281
10128.769531 5377.420898 5695.736816 0.614159 0.750424 -0.244281
9886.091797 4907.206543 5762.459473 0.955560 -0.198067 0.218347
9923.884766 4882.185059 5574.367676 0.955560 -0.198067 0.218347
9964.637695 5243.539551 5723.810547 0.955560 -0.198067 0.218347
10179.936523 5277.306641 5516.830078 0.678069 -0.344896 0.649053
9964.637695 5243.539551 5723.810547 0.678069 -0.344896 0.649053
9923.884766 4882.185059 5574.367676 0.678069 -0.344896 0.649053
9555.266602 4747.417480 5783.732910 -0.573745 -0.759816 0.305772
9075.661133 4963.682617 5421.208984 -0.573745 -0.759816 0.305772
9301.294922 4778.168457 5383.598145 -0.573745 -0.759816 0.305772
10128.769531 5377.420898 5695.736816 0.592790 -0.618594 0.515695
9964.637695 5243.539551 5723.810547 0.592790 -0.618594 0.515695
10179.936523 5277.306641 5516.830078 0.592790 -0.618594 0.515695
9634.583984 5710.772461 5477.327148 0.590192 0.798868 -0.116115
9671.816406 5735.483887 5836.585938 0.590192 0.798868 -0.116115
10128.769531 5377.420898 5695.736816 0.590192 0.798868 -0.116115
9960.670898 4704.671387 5631.920898 0.955288 0.249438 0.158762
9923.884766 4882.185059 5574.367676 0.955288 0.249438 0.158762
9886.091797 4907.206543 5762.459473 0.955288 0.249438 0.158762
9960.670898 4704.671387 5631.920898 -0.079803 -0.993422 -0.082125
9788.714844 4690.897949 5965.626465 -0.079803 -0.993422 -0.082125
9301.294922 4778.168457 5383.598145 -0.079803 -0.993422 -0.082125
9555.266602 4747.417480 5783.732910 -0.229800 -0.938936 -0.256110
9186.720703 4784.222656 5979.485352 -0.229800 -0.938936 -0.256110
9075.661133 4963.682617 5421.208984 -0.229800 -0.938936 -0.256110
9075.661133 4963.682617 5421.208984 -0.982419 -0.042320 0.181832
9186.720703 4784.222656 5979.485352 -0.982419 -0.042320 0.181832
9090.213867 5035.409180 5516.529785 -0.982419 -0.042320 0.181832
9076.845703 5372.806152 5349.026855 -0.985531 0.168502 -0.018312
9065.691406 5381.498535 6029.323242 -0.985531 0.168502 -0.018312
9118.486328 5636.106445 5530.794922 -0.985531 0.168502 -0.018312
9301.294922 4778.168457 5383.598145 -0.335740 -0.931261 0.141531
9788.714844 4690.897949 5965.626465 -0.335740 -0.931261 0.141531
9555.266602 4747.417480 5783.732910 -0.335740 -0.931261 0.141531
10139.935547 4750.888184 5908.257812 0.644079 0.567657 -0.512765
9960.670898 4704.671387 5631.920898 0.644079 0.567657 -0.512765
9886.091797 4907.206543 5762.459473 0.644079 0.567657 -0.512765
9118.486328 5636.106445 5530.794922 -0.148317 0.987542 -0.052557
9671.816406 5735.483887 5836.585938 -0.148317 0.987542 -0.052557
9634.583984 5710.772461 5477.327148 -0.148317 0.987542 -0.052557
10184.548828 5256.024414 5887.446289 0.460440 -0.683299 -0.566655
9964.637695 5243.539551 5723.810547 0.460440 -0.683299 -0.566655
10128.769531 5377.420898 5695.736816 0.460440 -0.683299 -0.566655
9118.486328 5636.106445 5530.794922 -0.132998 0.987852 -0.080377
9134.149414 5664.463379 5853.391113 -0.132998 0.987852 -0.080377
9671.816406 5735.483887 5836.585938 -0.132998 0.987852 -0.080377
9960.670898 4704.671387 5631.920898 0.176112 -0.983091 0.050173
10139.935547 4750.888184 5908.257812 0.176112 -0.983091 0.050173
9788.714844 4690.897949 5965.626465 0.176112 -0.983091 0.050173
9090.213867 5035.409180 5516.529785 -0.998751 -0.047401 -0.015770
9065.691406 5381.498535 6029.323242 -0.998751 -0.047401 -0.015770
9076.845703 5372.806152 5349.026855 -0.998751 -0.047401 -0.015770
9886.091797 4907.206543 5762.459473 0.460448 -0.077101 -0.884332
10184.548828 5256.024414 5887.446289 0.460448 -0.077101 -0.884332
10139.935547 4750.888184 5908.257812 0.460448 -0.077101 -0.884332
10184.548828 5256.024414 5887.446289 0.589666 -0.226783 -0.775154
9886.091797 4907.206543 5762.459473 0.589666 -0.226783 -0.775154
9964.637695 5243.539551 5723.810547 0.589666 -0.226783 -0.775154
9671.816406 5735.483887 5836.585938 -0.100263 0.872294 0.478592
9134.149414 5664.463379 5853.391113 -0.100263 0.872294 0.478592
9611.912109 5663.006348 5956.135742 -0.100263 0.872294 0.478592
9611.912109 5663.006348 5956.135742 0.575007 0.756445 0.311702
10184.548828 5256.024414 5887.446289 0.575007 0.756445 0.311702
10128.769531 5377.420898 5695.736816 0.575007 0.756445 0.311702
9671.816406 5735.483887 5836.585938 0.595638 0.518973 0.613093
9611.912109 5663.006348 5956.135742 0.595638 0.518973 0.613093
10128.769531 5377.420898 5695.736816 0.595638 0.518973 0.613093
9118.486328 5636.106445 5530.794922 -0.967985 0.249757 0.025045
9065.691406 5381.498535 6029.323242 -0.967985 0.249757 0.025045
9134.149414 5664.463379 5853.391113 -0.967985 0.249757 0.025045
9186.720703 4784.222656 5979.485352 -0.974420 -0.205115 0.091836
9065.691406 5381.498535 6029.323242 -0.974420 -0.205115 0.091836
9090.213867 5035.409180 5516.529785 -0.974420 -0.205115 0.091836
9788.714844 4690.897949 5965.626465 0.205115 -0.939932 0.272866
10139.935547 4750.888184 5908.257812 0.205115 -0.939932 0.272866
9729.042969 4708.243652 6070.232422 0.205115 -0.939932 0.272866
9729.042969 4708.243652 6070.232422 -0.248918 -0.968346 0.018577
9555.266602 4747.417480 5783.732910 -0.248918 -0.968346 0.018577
9788.714844 4690.897949 5965.626465 -0.248918 -0.968346 0.018577
9611.912109 5663.006348 5956.135742 -0.173991 0.549972 0.816859
9134.149414 5664.463379 5853.391113 -0.173991 0.549972 0.816859
9065.691406 5381.498535 6029.323242 -0.173991 0.549972 0.816859
9555.266602 4747.417480 5783.732910 -0.129154 -0.989983 -0.057025
9729.042969 4708.243652 6070.232422 -0.129154 -0.989983 -0.057025
9186.720703 4784.222656 5979.485352 -0.129154 -0.989983 -0.057025
10184.548828 5256.024414 5887.446289 0.249326 0.190558 0.949486
9611.912109 5663.006348 5956.135742 0.249326 0.190558 0.949486
9379.337891 5035.320312 6143.181152 0.249326 0.190558 0.949486
10139.935547 4750.888184 5908.257812 0.366191 0.005996 0.930521
10184.548828 5256.024414 5887.446289 0.366191 0.005996 0.930521
9729.042969 4708.243652 6070.232422 0.366191 0.005996 0.930521
9065.691406 5381.498535 6029.323242 -0.498203 -0.171867 0.849856
9186.720703 4784.222656 5979.485352 -0.498203 -0.171867 0.849856
9379.337891 5035.320312 6143.181152 -0.498203 -0.171867 0.849856
9729.042969 4708.243652 6070.232422 0.280042 0.086172 0.956112
10184.548828 5256.024414 5887.446289 0.280042 0.086172 0.956112
9379.337891 5035.320312 6143.181152 0.280042 0.086172 0.956112
9379.337891 5035.320312 6143.181152 -0.206600 -0.418179 0.884558
9186.720703 4784.222656 5979.485352 -0.206600 -0.418179 0.884558
9729.042969 4708.243652 6070.232422 -0.206600 -0.418179 0.884558
9611.912109 5663.006348 5956.135742 -0.023140 0.293370 0.955719
9065.691406 5381.498535 6029.323242 -0.023140 0.293370 0.955719
9379.337891 5035.320312 6143.181152 -0.023140 0.293370 0.955719
3 0 1 2
3 3 4 5
3 6 7 8
3 9 10 11
3 12 13 14
3 15 16 17
3 18 19 20
3 21 22 23
3 24 25 26
3 27 28 29
3 30 31 32
3 33 34 35
3 36 37 38
3 39 40 41
3 42 43 44
3 45 46 47
3 48 49 50
3 51 52 53
3 54 55 56
3 57 58 59
3 60 61 62
3 63 64 65
3 66 67 68
3 69 70 71
3 72 73 74
3 75 76 77
3 78 79 80
3 81 82 83
3 84 85 86
3 87 88 89
3 90 91 92
3 93 94 95
3 96 97 98
3 99 100 101
3 102 103 104
3 105 106 107
3 108 109 110
3 111 112 113
3 114 115 116
3 117 118 119
3 120 121 122
3 123 124 125
3 126 127 128
3 129 130 131
3 132 133 134
3 135 136 137
3 138 139 140
3 141 142 143
3 144 145 146
3 147 148 149
3 150 151 152
