ply
format ascii 1.0
comment Created by Blender 2.80 (sub 75) - www.blender.org, source file: 'downsample_ccf.blend'
element vertex 624
property float x
property float y
property float z
property float nx
property float ny
property float nz
element face 208
property list uchar uint vertex_indices
end_header
12610.757812 2061.929443 4193.985352 0.539359 -0.339752 -0.770494
12380.147461 1746.224121 4171.765625 0.539359 -0.339752 -0.770494
12425.053711 1887.803101 4140.770996 0.539359 -0.339752 -0.770494
12610.757812 2061.929443 4193.985352 0.150724 0.138395 -0.978841
12425.053711 1887.803101 4140.770996 0.150724 0.138395 -0.978841
12639.366211 2214.754883 4219.998047 0.150724 0.138395 -0.978841
12380.147461 1746.224121 4171.765625 -0.212631 -0.144132 -0.966444
12081.848633 1751.991821 4236.535156 -0.212631 -0.144132 -0.966444
12425.053711 1887.803101 4140.770996 -0.212631 -0.144132 -0.966444
12081.848633 1751.991821 4236.535156 -0.357615 0.274261 -0.892688
12327.764648 2357.681396 4324.106445 -0.357615 0.274261 -0.892688
12425.053711 1887.803101 4140.770996 -0.357615 0.274261 -0.892688
12380.147461 1746.224121 4171.765625 0.358274 -0.543688 -0.758975
12128.730469 1413.491821 4291.435547 0.358274 -0.543688 -0.758975
12056.386719 1451.279419 4230.216797 0.358274 -0.543688 -0.758975
12380.147461 1746.224121 4171.765625 -0.211320 0.038414 -0.976662
12056.386719 1451.279419 4230.216797 -0.211320 0.038414 -0.976662
12081.848633 1751.991821 4236.535156 -0.211320 0.038414 -0.976662
12206.947266 2172.161133 4262.832031 -0.039783 0.074209 -0.996449
12081.848633 1751.991821 4236.535156 -0.039783 0.074209 -0.996449
11905.627930 2077.311035 4267.798340 -0.039783 0.074209 -0.996449
12327.764648 2357.681396 4324.106445 0.598679 -0.128768 -0.790571
12081.848633 1751.991821 4236.535156 0.598679 -0.128768 -0.790571
12206.947266 2172.161133 4262.832031 0.598679 -0.128768 -0.790571
12425.053711 1887.803101 4140.770996 -0.159491 0.330001 -0.930410
12327.764648 2357.681396 4324.106445 -0.159491 0.330001 -0.930410
12639.366211 2214.754883 4219.998047 -0.159491 0.330001 -0.930410
12206.947266 2172.161133 4262.832031 -0.016687 0.000660 -0.999861
11905.627930 2077.311035 4267.798340 -0.016687 0.000660 -0.999861
11937.702148 2779.018311 4267.726562 -0.016687 0.000660 -0.999861
12169.261719 2790.462646 4293.509766 0.107764 0.055818 -0.992608
12206.947266 2172.161133 4262.832031 0.107764 0.055818 -0.992608
11937.702148 2779.018311 4267.726562 0.107764 0.055818 -0.992608
11807.766602 1197.989746 4415.661621 0.082397 -0.640122 -0.763842
11719.747070 1281.803833 4335.928223 0.082397 -0.640122 -0.763842
12056.386719 1451.279419 4230.216797 0.082397 -0.640122 -0.763842
12128.730469 1413.491821 4291.435547 0.208553 -0.702722 -0.680211
11807.766602 1197.989746 4415.661621 0.208553 -0.702722 -0.680211
12056.386719 1451.279419 4230.216797 0.208553 -0.702722 -0.680211
12056.386719 1451.279419 4230.216797 -0.302415 0.006167 -0.953157
11719.747070 1281.803833 4335.928223 -0.302415 0.006167 -0.953157
11624.158203 1649.085083 4368.632812 -0.302415 0.006167 -0.953157
12056.386719 1451.279419 4230.216797 -0.312491 -0.018239 -0.949745
11624.158203 1649.085083 4368.632812 -0.312491 -0.018239 -0.949745
11905.627930 2077.311035 4267.798340 -0.312491 -0.018239 -0.949745
12056.386719 1451.279419 4230.216797 -0.118972 0.030926 -0.992416
11905.627930 2077.311035 4267.798340 -0.118972 0.030926 -0.992416
12081.848633 1751.991821 4236.535156 -0.118972 0.030926 -0.992416
11905.627930 2077.311035 4267.798340 -0.623592 0.029851 -0.781180
11829.609375 2082.227051 4328.669434 -0.623592 0.029851 -0.781180
11897.297852 2412.131348 4287.242188 -0.623592 0.029851 -0.781180
12206.947266 2172.161133 4262.832031 0.365792 0.068348 -0.928184
12169.261719 2790.462646 4293.509766 0.365792 0.068348 -0.928184
12327.764648 2357.681396 4324.106445 0.365792 0.068348 -0.928184
11897.297852 2412.131348 4287.242188 -0.635723 0.028979 -0.771373
11937.702148 2779.018311 4267.726562 -0.635723 0.028979 -0.771373
11905.627930 2077.311035 4267.798340 -0.635723 0.028979 -0.771373
11624.158203 1649.085083 4368.632812 -0.601995 0.214580 -0.769128
11829.609375 2082.227051 4328.669434 -0.601995 0.214580 -0.769128
11905.627930 2077.311035 4267.798340 -0.601995 0.214580 -0.769128
11937.702148 2779.018311 4267.726562 -0.910015 0.078565 -0.407062
11897.297852 2412.131348 4287.242188 -0.910015 0.078565 -0.407062
11906.380859 3067.819336 4393.487305 -0.910015 0.078565 -0.407062
11937.702148 2779.018311 4267.726562 0.096160 0.406145 -0.908735
11906.380859 3067.819336 4393.487305 0.096160 0.406145 -0.908735
12101.290039 3014.592529 4390.323242 0.096160 0.406145 -0.908735
12169.261719 2790.462646 4293.509766 0.080329 0.415690 -0.905952
11937.702148 2779.018311 4267.726562 0.080329 0.415690 -0.905952
12101.290039 3014.592529 4390.323242 0.080329 0.415690 -0.905952
12639.366211 2214.754883 4219.998047 -0.082769 0.462535 -0.882729
12327.764648 2357.681396 4324.106445 -0.082769 0.462535 -0.882729
12366.916992 2597.441162 4446.065430 -0.082769 0.462535 -0.882729
12639.366211 2214.754883 4219.998047 0.654258 0.538188 -0.531319
12574.744141 2487.961426 4417.162109 0.654258 0.538188 -0.531319
12879.936523 2277.997314 4580.292969 0.654258 0.538188 -0.531319
12639.366211 2214.754883 4219.998047 0.279639 0.604463 -0.745940
12493.488281 2589.263916 4468.790039 0.279639 0.604463 -0.745940
12574.744141 2487.961426 4417.162109 0.279639 0.604463 -0.745940
12366.916992 2597.441162 4446.065430 0.179326 0.591884 -0.785822
12493.488281 2589.263916 4468.790039 0.179326 0.591884 -0.785822
12639.366211 2214.754883 4219.998047 0.179326 0.591884 -0.785822
11719.747070 1281.803833 4335.928223 -0.810441 -0.160764 -0.563329
11638.082031 1290.457275 4450.947266 -0.810441 -0.160764 -0.563329
11624.158203 1649.085083 4368.632812 -0.810441 -0.160764 -0.563329
12366.916992 2597.441162 4446.065430 -0.899443 -0.072363 0.431006
12327.764648 2357.681396 4324.106445 -0.899443 -0.072363 0.431006
12418.296875 2648.520996 4561.863281 -0.899443 -0.072363 0.431006
12169.261719 2790.462646 4293.509766 0.771648 0.240996 -0.588627
12418.296875 2648.520996 4561.863281 0.771648 0.240996 -0.588627
12327.764648 2357.681396 4324.106445 0.771648 0.240996 -0.588627
11807.766602 1197.989746 4415.661621 -0.503791 -0.811287 -0.296661
11638.082031 1290.457275 4450.947266 -0.503791 -0.811287 -0.296661
11719.747070 1281.803833 4335.928223 -0.503791 -0.811287 -0.296661
11897.297852 2412.131348 4287.242188 -0.879452 0.232592 0.415289
11829.609375 2082.227051 4328.669434 -0.879452 0.232592 0.415289
12038.596680 2091.497803 4766.046875 -0.879452 0.232592 0.415289
12639.366211 2214.754883 4219.998047 0.876526 -0.083389 -0.474076
12936.350586 2079.995361 4792.800293 0.876526 -0.083389 -0.474076
12610.757812 2061.929443 4193.985352 0.876526 -0.083389 -0.474076
11807.766602 1197.989746 4415.661621 0.402903 -0.826593 -0.392955
12128.730469 1413.491821 4291.435547 0.402903 -0.826593 -0.392955
11947.789062 1139.157104 4682.985352 0.402903 -0.826593 -0.392955
12936.350586 2079.995361 4792.800293 0.817394 -0.296932 -0.493657
12639.366211 2214.754883 4219.998047 0.817394 -0.296932 -0.493657
12879.936523 2277.997314 4580.292969 0.817394 -0.296932 -0.493657
11906.380859 3067.819336 4393.487305 -0.910259 -0.053909 0.410514
11897.297852 2412.131348 4287.242188 -0.910259 -0.053909 0.410514
12061.000977 2339.554443 4640.701172 -0.910259 -0.053909 0.410514
12493.488281 2589.263916 4468.790039 0.137840 0.882174 -0.450298
12366.916992 2597.441162 4446.065430 0.137840 0.882174 -0.450298
12418.296875 2648.520996 4561.863281 0.137840 0.882174 -0.450298
11807.766602 1197.989746 4415.661621 0.035574 -0.971937 -0.232537
11947.789062 1139.157104 4682.985352 0.035574 -0.971937 -0.232537
11822.092773 1122.395630 4733.813965 0.035574 -0.971937 -0.232537
11638.082031 1290.457275 4450.947266 -0.975177 0.012876 0.221053
11707.349609 1499.401123 4744.350586 -0.975177 0.012876 0.221053
11624.158203 1649.085083 4368.632812 -0.975177 0.012876 0.221053
12038.596680 2091.497803 4766.046875 -0.839231 0.303719 0.451050
12061.000977 2339.554443 4640.701172 -0.839231 0.303719 0.451050
11897.297852 2412.131348 4287.242188 -0.839231 0.303719 0.451050
12418.296875 2648.520996 4561.863281 0.771833 0.347492 -0.532469
12169.261719 2790.462646 4293.509766 0.771833 0.347492 -0.532469
12347.119141 2941.020264 4649.575195 0.771833 0.347492 -0.532469
12169.261719 2790.462646 4293.509766 0.708331 0.449801 -0.544009
12101.290039 3014.592529 4390.323242 0.708331 0.449801 -0.544009
12347.119141 2941.020264 4649.575195 0.708331 0.449801 -0.544009
12775.568359 1789.439209 4907.686035 0.690637 -0.641766 -0.333403
12128.730469 1413.491821 4291.435547 0.690637 -0.641766 -0.333403
12380.147461 1746.224121 4171.765625 0.690637 -0.641766 -0.333403
12347.119141 2941.020264 4649.575195 0.684919 0.531201 -0.498710
12101.290039 3014.592529 4390.323242 0.684919 0.531201 -0.498710
12255.201172 3165.567627 4762.513184 0.684919 0.531201 -0.498710
12380.147461 1746.224121 4171.765625 0.760235 -0.528758 -0.377436
12610.757812 2061.929443 4193.985352 0.760235 -0.528758 -0.377436
12775.568359 1789.439209 4907.686035 0.760235 -0.528758 -0.377436
12101.290039 3014.592529 4390.323242 0.217415 0.826967 -0.518514
11906.380859 3067.819336 4393.487305 0.217415 0.826967 -0.518514
12090.866211 3266.923584 4788.390137 0.217415 0.826967 -0.518514
12090.866211 3266.923584 4788.390137 -0.307655 0.899632 -0.309855
11906.380859 3067.819336 4393.487305 -0.307655 0.899632 -0.309855
11975.091797 3168.650879 4618.018066 -0.307655 0.899632 -0.309855
11638.082031 1290.457275 4450.947266 -0.499212 -0.847798 -0.178961
11807.766602 1197.989746 4415.661621 -0.499212 -0.847798 -0.178961
11822.092773 1122.395630 4733.813965 -0.499212 -0.847798 -0.178961
11947.789062 1139.157104 4682.985352 0.575343 -0.770631 -0.274059
12128.730469 1413.491821 4291.435547 0.575343 -0.770631 -0.274059
12136.479492 1132.847534 5096.853027 0.575343 -0.770631 -0.274059
11803.485352 1635.956787 4962.005859 -0.860205 0.432888 0.269546
11829.609375 2082.227051 4328.669434 -0.860205 0.432888 0.269546
11624.158203 1649.085083 4368.632812 -0.860205 0.432888 0.269546
12775.568359 1789.439209 4907.686035 0.735656 -0.558578 -0.383145
12610.757812 2061.929443 4193.985352 0.735656 -0.558578 -0.383145
12936.350586 2079.995361 4792.800293 0.735656 -0.558578 -0.383145
11829.609375 2082.227051 4328.669434 -0.761282 0.544420 0.352216
11803.485352 1635.956787 4962.005859 -0.761282 0.544420 0.352216
12038.596680 2091.497803 4766.046875 -0.761282 0.544420 0.352216
12061.000977 2339.554443 4640.701172 -0.919064 -0.063071 0.389030
12142.610352 2616.148193 4878.341797 -0.919064 -0.063071 0.389030
11906.380859 3067.819336 4393.487305 -0.919064 -0.063071 0.389030
11707.349609 1499.401123 4744.350586 -0.936447 0.201084 0.287459
11803.485352 1635.956787 4962.005859 -0.936447 0.201084 0.287459
11624.158203 1649.085083 4368.632812 -0.936447 0.201084 0.287459
13006.466797 2279.741699 4896.390137 0.637632 0.725411 -0.259240
12879.936523 2277.997314 4580.292969 0.637632 0.725411 -0.259240
12574.744141 2487.961426 4417.162109 0.637632 0.725411 -0.259240
11975.091797 3168.650879 4618.018066 -0.932335 -0.122361 0.340263
11906.380859 3067.819336 4393.487305 -0.932335 -0.122361 0.340263
12142.610352 2616.148193 4878.341797 -0.932335 -0.122361 0.340263
12090.866211 3266.923584 4788.390137 0.403594 0.777504 -0.482285
12255.201172 3165.567627 4762.513184 0.403594 0.777504 -0.482285
12101.290039 3014.592529 4390.323242 0.403594 0.777504 -0.482285
12038.596680 2091.497803 4766.046875 -0.937819 0.220270 0.268285
12143.478516 2236.166748 5013.894531 -0.937819 0.220270 0.268285
12061.000977 2339.554443 4640.701172 -0.937819 0.220270 0.268285
12936.350586 2079.995361 4792.800293 0.920462 -0.132404 -0.367720
12879.936523 2277.997314 4580.292969 0.920462 -0.132404 -0.367720
13006.466797 2279.741699 4896.390137 0.920462 -0.132404 -0.367720
12493.488281 2589.263916 4468.790039 0.663616 0.685239 -0.300103
13006.466797 2279.741699 4896.390137 0.663616 0.685239 -0.300103
12574.744141 2487.961426 4417.162109 0.663616 0.685239 -0.300103
11638.082031 1290.457275 4450.947266 -0.738595 -0.669023 0.082981
11822.092773 1122.395630 4733.813965 -0.738595 -0.669023 0.082981
11801.165039 1176.753296 4985.792969 -0.738595 -0.669023 0.082981
11947.789062 1139.157104 4682.985352 0.056714 -0.981405 -0.183381
11971.276367 1063.863281 5093.201172 0.056714 -0.981405 -0.183381
11822.092773 1122.395630 4733.813965 0.056714 -0.981405 -0.183381
11797.614258 1453.473389 5287.052246 -0.917012 0.354640 0.182534
11803.485352 1635.956787 4962.005859 -0.917012 0.354640 0.182534
11707.349609 1499.401123 4744.350586 -0.917012 0.354640 0.182534
11707.349609 1499.401123 4744.350586 -0.958216 -0.071325 0.277012
11638.082031 1290.457275 4450.947266 -0.958216 -0.071325 0.277012
11801.165039 1176.753296 4985.792969 -0.958216 -0.071325 0.277012
12775.568359 1789.439209 4907.686035 0.655456 -0.711197 -0.254120
12136.479492 1132.847534 5096.853027 0.655456 -0.711197 -0.254120
12128.730469 1413.491821 4291.435547 0.655456 -0.711197 -0.254120
12418.296875 2648.520996 4561.863281 0.946807 0.278663 -0.160948
12347.119141 2941.020264 4649.575195 0.946807 0.278663 -0.160948
12500.742188 2933.946777 5541.047363 0.946807 0.278663 -0.160948
12142.610352 2616.148193 4878.341797 -0.960622 -0.200739 0.192119
12037.561523 3293.251709 5060.565918 -0.960622 -0.200739 0.192119
11975.091797 3168.650879 4618.018066 -0.960622 -0.200739 0.192119
12536.556641 2579.405029 5061.732910 0.595591 0.802731 -0.029914
12493.488281 2589.263916 4468.790039 0.595591 0.802731 -0.029914
12418.296875 2648.520996 4561.863281 0.595591 0.802731 -0.029914
12143.478516 2236.166748 5013.894531 -0.968087 0.082240 0.236735
12142.610352 2616.148193 4878.341797 -0.968087 0.082240 0.236735
12061.000977 2339.554443 4640.701172 -0.968087 0.082240 0.236735
12090.866211 3266.923584 4788.390137 -0.473334 0.863083 -0.176189
11975.091797 3168.650879 4618.018066 -0.473334 0.863083 -0.176189
12037.561523 3293.251709 5060.565918 -0.473334 0.863083 -0.176189
13066.526367 2175.195312 5199.039551 0.945846 -0.199021 -0.256449
12936.350586 2079.995361 4792.800293 0.945846 -0.199021 -0.256449
13006.466797 2279.741699 4896.390137 0.945846 -0.199021 -0.256449
12347.119141 2941.020264 4649.575195 0.878449 0.445934 -0.171670
12255.201172 3165.567627 4762.513184 0.878449 0.445934 -0.171670
12393.601562 3237.166504 5656.708008 0.878449 0.445934 -0.171670
12775.568359 1789.439209 4907.686035 0.825605 -0.531622 -0.189087
12936.350586 2079.995361 4792.800293 0.825605 -0.531622 -0.189087
13003.735352 1979.777100 5368.785156 0.825605 -0.531622 -0.189087
12536.556641 2579.405029 5061.732910 0.928116 0.329088 -0.174073
12418.296875 2648.520996 4561.863281 0.928116 0.329088 -0.174073
12500.742188 2933.946777 5541.047363 0.928116 0.329088 -0.174073
12136.479492 1132.847534 5096.853027 0.381995 -0.904850 -0.187954
11971.276367 1063.863281 5093.201172 0.381995 -0.904850 -0.187954
11947.789062 1139.157104 4682.985352 0.381995 -0.904850 -0.187954
12347.119141 2941.020264 4649.575195 0.911683 0.380911 -0.154083
12393.601562 3237.166504 5656.708008 0.911683 0.380911 -0.154083
12500.742188 2933.946777 5541.047363 0.911683 0.380911 -0.154083
12425.677734 1371.912598 5258.554688 0.682013 -0.711986 -0.167136
12136.479492 1132.847534 5096.853027 0.682013 -0.711986 -0.167136
12775.568359 1789.439209 4907.686035 0.682013 -0.711986 -0.167136
11707.349609 1499.401123 4744.350586 -0.973855 -0.172906 0.147343
11801.165039 1176.753296 4985.792969 -0.973855 -0.172906 0.147343
11797.614258 1453.473389 5287.052246 -0.973855 -0.172906 0.147343
13066.526367 2175.195312 5199.039551 0.953425 0.287977 -0.089726
13006.466797 2279.741699 4896.390137 0.953425 0.287977 -0.089726
13059.167969 2277.654053 5449.693359 0.953425 0.287977 -0.089726
12116.869141 3454.636963 5591.077637 0.488226 0.846150 -0.213693
12255.201172 3165.567627 4762.513184 0.488226 0.846150 -0.213693
12090.866211 3266.923584 4788.390137 0.488226 0.846150 -0.213693
13006.466797 2279.741699 4896.390137 0.545517 0.836678 -0.048803
12493.488281 2589.263916 4468.790039 0.545517 0.836678 -0.048803
13059.167969 2277.654053 5449.693359 0.545517 0.836678 -0.048803
11898.734375 1090.793823 5527.559570 -0.816841 -0.574137 0.056013
11801.165039 1176.753296 4985.792969 -0.816841 -0.574137 0.056013
11822.092773 1122.395630 4733.813965 -0.816841 -0.574137 0.056013
13003.735352 1979.777100 5368.785156 0.880543 -0.438721 -0.179350
12936.350586 2079.995361 4792.800293 0.880543 -0.438721 -0.179350
13066.526367 2175.195312 5199.039551 0.880543 -0.438721 -0.179350
11898.734375 1090.793823 5527.559570 -0.360342 -0.932817 -0.002345
11822.092773 1122.395630 4733.813965 -0.360342 -0.932817 -0.002345
11971.276367 1063.863281 5093.201172 -0.360342 -0.932817 -0.002345
12143.478516 2236.166748 5013.894531 -0.986685 0.052642 0.153886
12252.302734 2572.902344 5596.458496 -0.986685 0.052642 0.153886
12142.610352 2616.148193 4878.341797 -0.986685 0.052642 0.153886
12090.866211 3266.923584 4788.390137 -0.514993 0.837674 -0.181890
12037.561523 3293.251709 5060.565918 -0.514993 0.837674 -0.181890
12057.346680 3398.062744 5487.243652 -0.514993 0.837674 -0.181890
12775.568359 1789.439209 4907.686035 0.729553 -0.679152 -0.080658
13003.735352 1979.777100 5368.785156 0.729553 -0.679152 -0.080658
12425.677734 1371.912598 5258.554688 0.729553 -0.679152 -0.080658
12493.488281 2589.263916 4468.790039 0.315482 0.948905 -0.007138
12536.556641 2579.405029 5061.732910 0.315482 0.948905 -0.007138
12597.782227 2563.498535 5653.229004 0.315482 0.948905 -0.007138
12252.302734 2572.902344 5596.458496 -0.972566 -0.187825 0.137248
12037.561523 3293.251709 5060.565918 -0.972566 -0.187825 0.137248
12142.610352 2616.148193 4878.341797 -0.972566 -0.187825 0.137248
12037.561523 3293.251709 5060.565918 -0.971331 -0.216491 0.098221
12252.302734 2572.902344 5596.458496 -0.971331 -0.216491 0.098221
12057.346680 3398.062744 5487.243652 -0.971331 -0.216491 0.098221
12090.866211 3266.923584 4788.390137 -0.490023 0.852195 -0.183417
12057.346680 3398.062744 5487.243652 -0.490023 0.852195 -0.183417
12116.869141 3454.636963 5591.077637 -0.490023 0.852195 -0.183417
12500.742188 2933.946777 5541.047363 0.969679 0.225451 -0.094308
12597.782227 2563.498535 5653.229004 0.969679 0.225451 -0.094308
12536.556641 2579.405029 5061.732910 0.969679 0.225451 -0.094308
12038.596680 2091.497803 4766.046875 -0.878215 0.468023 0.098450
12216.586914 2239.428955 5650.546387 -0.878215 0.468023 0.098450
12143.478516 2236.166748 5013.894531 -0.878215 0.468023 0.098450
12143.478516 2236.166748 5013.894531 -0.985894 0.123851 0.112578
12216.586914 2239.428955 5650.546387 -0.985894 0.123851 0.112578
12252.302734 2572.902344 5596.458496 -0.985894 0.123851 0.112578
12493.488281 2589.263916 4468.790039 0.517829 0.855058 -0.026996
12597.782227 2563.498535 5653.229004 0.517829 0.855058 -0.026996
13059.167969 2277.654053 5449.693359 0.517829 0.855058 -0.026996
11801.165039 1176.753296 4985.792969 -0.912339 -0.396689 0.101367
11898.734375 1090.793823 5527.559570 -0.912339 -0.396689 0.101367
11829.412109 1284.433594 5661.424316 -0.912339 -0.396689 0.101367
11838.730469 1531.308350 5851.492676 -0.868239 0.487586 0.091768
12038.596680 2091.497803 4766.046875 -0.868239 0.487586 0.091768
11803.485352 1635.956787 4962.005859 -0.868239 0.487586 0.091768
11801.165039 1176.753296 4985.792969 -0.996123 -0.070323 0.052854
11829.412109 1284.433594 5661.424316 -0.996123 -0.070323 0.052854
11797.614258 1453.473389 5287.052246 -0.996123 -0.070323 0.052854
11971.276367 1063.863281 5093.201172 -0.423195 -0.905922 -0.014510
11920.347656 1066.858887 6391.570312 -0.423195 -0.905922 -0.014510
11898.734375 1090.793823 5527.559570 -0.423195 -0.905922 -0.014510
12038.596680 2091.497803 4766.046875 -0.867285 0.489100 0.092725
11838.730469 1531.308350 5851.492676 -0.867285 0.489100 0.092725
12216.586914 2239.428955 5650.546387 -0.867285 0.489100 0.092725
12136.479492 1132.847534 5096.853027 0.639132 -0.769073 -0.006044
12425.677734 1371.912598 5258.554688 0.639132 -0.769073 -0.006044
12244.581055 1213.124634 6313.328125 0.639132 -0.769073 -0.006044
11797.614258 1453.473389 5287.052246 -0.990189 0.128720 0.054379
11838.730469 1531.308350 5851.492676 -0.990189 0.128720 0.054379
11803.485352 1635.956787 4962.005859 -0.990189 0.128720 0.054379
12057.346680 3398.062744 5487.243652 -0.635058 0.770451 -0.055738
12060.257812 3424.135742 5814.476562 -0.635058 0.770451 -0.055738
12116.869141 3454.636963 5591.077637 -0.635058 0.770451 -0.055738
12393.601562 3237.166504 5656.708008 0.672332 0.722328 -0.161899
12255.201172 3165.567627 4762.513184 0.672332 0.722328 -0.161899
12220.209961 3412.953613 5720.940918 0.672332 0.722328 -0.161899
12255.201172 3165.567627 4762.513184 0.561001 0.806271 -0.187630
12116.869141 3454.636963 5591.077637 0.561001 0.806271 -0.187630
12220.209961 3412.953613 5720.940918 0.561001 0.806271 -0.187630
13066.526367 2175.195312 5199.039551 0.996266 0.086131 -0.005960
13059.167969 2277.654053 5449.693359 0.996266 0.086131 -0.005960
13065.573242 2258.565186 6244.473633 0.996266 0.086131 -0.005960
11829.412109 1284.433594 5661.424316 -0.996940 -0.020453 0.075442
11838.730469 1531.308350 5851.492676 -0.996940 -0.020453 0.075442
11797.614258 1453.473389 5287.052246 -0.996940 -0.020453 0.075442
11898.734375 1090.793823 5527.559570 -0.954197 -0.289553 -0.075286
11803.500977 1205.807495 6292.228027 -0.954197 -0.289553 -0.075286
11829.412109 1284.433594 5661.424316 -0.954197 -0.289553 -0.075286
12074.648438 3365.987305 6206.471680 0.198166 0.968144 0.153060
12220.209961 3412.953613 5720.940918 0.198166 0.968144 0.153060
12116.869141 3454.636963 5591.077637 0.198166 0.968144 0.153060
12715.453125 1664.192383 6293.442383 0.725413 -0.688258 -0.008738
12425.677734 1371.912598 5258.554688 0.725413 -0.688258 -0.008738
13003.735352 1979.777100 5368.785156 0.725413 -0.688258 -0.008738
12252.302734 2572.902344 5596.458496 -0.970850 -0.235371 -0.045285
12183.217773 2751.542969 6149.055664 -0.970850 -0.235371 -0.045285
12057.346680 3398.062744 5487.243652 -0.970850 -0.235371 -0.045285
12060.257812 3424.135742 5814.476562 0.040233 0.988588 0.145170
12074.648438 3365.987305 6206.471680 0.040233 0.988588 0.145170
12116.869141 3454.636963 5591.077637 0.040233 0.988588 0.145170
11829.412109 1284.433594 5661.424316 -0.997456 0.063135 -0.033102
11803.500977 1205.807495 6292.228027 -0.997456 0.063135 -0.033102
11838.730469 1531.308350 5851.492676 -0.997456 0.063135 -0.033102
12216.586914 2239.428955 5650.546387 -0.888074 0.454709 -0.067558
11838.730469 1531.308350 5851.492676 -0.888074 0.454709 -0.067558
12193.239258 2272.365967 6179.147461 -0.888074 0.454709 -0.067558
13003.735352 1979.777100 5368.785156 0.957619 -0.287056 0.023765
13066.526367 2175.195312 5199.039551 0.957619 -0.287056 0.023765
13065.573242 2258.565186 6244.473633 0.957619 -0.287056 0.023765
12500.742188 2933.946777 5541.047363 0.949146 0.303653 0.083161
12393.601562 3237.166504 5656.708008 0.949146 0.303653 0.083161
12401.754883 3005.605225 6409.172363 0.949146 0.303653 0.083161
12183.217773 2751.542969 6149.055664 -0.985352 -0.169075 0.022237
12060.257812 3424.135742 5814.476562 -0.985352 -0.169075 0.022237
12057.346680 3398.062744 5487.243652 -0.985352 -0.169075 0.022237
11971.276367 1063.863281 5093.201172 0.384946 -0.922778 0.017229
12136.479492 1132.847534 5096.853027 0.384946 -0.922778 0.017229
11920.347656 1066.858887 6391.570312 0.384946 -0.922778 0.017229
12220.209961 3412.953613 5720.940918 0.731072 0.664441 0.155087
12243.157227 3177.760498 6620.409668 0.731072 0.664441 0.155087
12393.601562 3237.166504 5656.708008 0.731072 0.664441 0.155087
12597.782227 2563.498535 5653.229004 0.955696 0.278874 0.094201
12500.742188 2933.946777 5541.047363 0.955696 0.278874 0.094201
12533.924805 2583.221680 6242.692383 0.955696 0.278874 0.094201
12244.581055 1213.124634 6313.328125 0.691945 -0.721879 0.010129
12425.677734 1371.912598 5258.554688 0.691945 -0.721879 0.010129
12715.453125 1664.192383 6293.442383 0.691945 -0.721879 0.010129
13003.735352 1979.777100 5368.785156 0.915848 -0.396764 0.061642
13065.573242 2258.565186 6244.473633 0.915848 -0.396764 0.061642
12926.648438 1965.406494 6421.611328 0.915848 -0.396764 0.061642
12216.586914 2239.428955 5650.546387 -0.993895 0.098335 -0.050026
12193.239258 2272.365967 6179.147461 -0.993895 0.098335 -0.050026
12252.302734 2572.902344 5596.458496 -0.993895 0.098335 -0.050026
12220.209961 3412.953613 5720.940918 0.374389 0.905483 0.199831
12074.648438 3365.987305 6206.471680 0.374389 0.905483 0.199831
12110.694336 3270.169189 6573.114746 0.374389 0.905483 0.199831
12110.694336 3270.169189 6573.114746 0.509534 0.835555 0.205482
12243.157227 3177.760498 6620.409668 0.509534 0.835555 0.205482
12220.209961 3412.953613 5720.940918 0.509534 0.835555 0.205482
11898.734375 1090.793823 5527.559570 -0.765825 -0.643048 0.001343
11920.347656 1066.858887 6391.570312 -0.765825 -0.643048 0.001343
11803.500977 1205.807495 6292.228027 -0.765825 -0.643048 0.001343
12136.479492 1132.847534 5096.853027 0.415716 -0.909202 0.023057
12244.581055 1213.124634 6313.328125 0.415716 -0.909202 0.023057
11920.347656 1066.858887 6391.570312 0.415716 -0.909202 0.023057
13059.167969 2277.654053 5449.693359 0.531694 0.846784 0.016053
12597.782227 2563.498535 5653.229004 0.531694 0.846784 0.016053
13065.573242 2258.565186 6244.473633 0.531694 0.846784 0.016053
12252.302734 2572.902344 5596.458496 -0.992961 -0.027994 -0.115089
12193.239258 2272.365967 6179.147461 -0.992961 -0.027994 -0.115089
12183.217773 2751.542969 6149.055664 -0.992961 -0.027994 -0.115089
12243.157227 3177.760498 6620.409668 0.816665 0.554014 0.161642
12401.754883 3005.605225 6409.172363 0.816665 0.554014 0.161642
12393.601562 3237.166504 5656.708008 0.816665 0.554014 0.161642
12926.648438 1965.406494 6421.611328 0.807372 -0.587826 0.051091
12715.453125 1664.192383 6293.442383 0.807372 -0.587826 0.051091
13003.735352 1979.777100 5368.785156 0.807372 -0.587826 0.051091
12500.742188 2933.946777 5541.047363 0.960017 0.265909 0.087516
12401.754883 3005.605225 6409.172363 0.960017 0.265909 0.087516
12533.924805 2583.221680 6242.692383 0.960017 0.265909 0.087516
12003.122070 3213.987305 6608.795410 -0.724614 0.677337 0.127078
12074.648438 3365.987305 6206.471680 -0.724614 0.677337 0.127078
12060.257812 3424.135742 5814.476562 -0.724614 0.677337 0.127078
12597.782227 2563.498535 5653.229004 0.520899 0.853163 0.027883
12533.924805 2583.221680 6242.692383 0.520899 0.853163 0.027883
13065.573242 2258.565186 6244.473633 0.520899 0.853163 0.027883
11838.730469 1531.308350 5851.492676 -0.868642 0.476120 -0.137008
12064.666016 2169.640625 6637.328613 -0.868642 0.476120 -0.137008
12193.239258 2272.365967 6179.147461 -0.868642 0.476120 -0.137008
11803.500977 1205.807495 6292.228027 -0.988901 -0.070241 -0.130922
11738.478516 1587.989624 6578.321289 -0.988901 -0.070241 -0.130922
11838.730469 1531.308350 5851.492676 -0.988901 -0.070241 -0.130922
12244.581055 1213.124634 6313.328125 0.440065 -0.880057 0.178441
11990.508789 1171.404663 6734.152344 0.440065 -0.880057 0.178441
11920.347656 1066.858887 6391.570312 0.440065 -0.880057 0.178441
12060.257812 3424.135742 5814.476562 -0.961114 -0.241937 -0.133141
12183.217773 2751.542969 6149.055664 -0.961114 -0.241937 -0.133141
12003.122070 3213.987305 6608.795410 -0.961114 -0.241937 -0.133141
13065.573242 2258.565186 6244.473633 0.925491 -0.347443 0.150830
12982.868164 2181.023682 6573.331543 0.925491 -0.347443 0.150830
12926.648438 1965.406494 6421.611328 0.925491 -0.347443 0.150830
12487.991211 2643.246338 6556.049805 0.960055 0.264951 0.089978
12533.924805 2583.221680 6242.692383 0.960055 0.264951 0.089978
12401.754883 3005.605225 6409.172363 0.960055 0.264951 0.089978
12193.239258 2272.365967 6179.147461 -0.984990 -0.031260 -0.169755
12101.059570 2570.832031 6659.051270 -0.984990 -0.031260 -0.169755
12183.217773 2751.542969 6149.055664 -0.984990 -0.031260 -0.169755
11803.500977 1205.807495 6292.228027 -0.723792 -0.682290 -0.102983
11920.347656 1066.858887 6391.570312 -0.723792 -0.682290 -0.102983
11637.778320 1279.292725 6970.114258 -0.723792 -0.682290 -0.102983
11738.478516 1587.989624 6578.321289 -0.854606 0.495135 -0.156489
12064.666016 2169.640625 6637.328613 -0.854606 0.495135 -0.156489
11838.730469 1531.308350 5851.492676 -0.854606 0.495135 -0.156489
12064.666016 2169.640625 6637.328613 -0.963555 0.100824 -0.247784
12101.059570 2570.832031 6659.051270 -0.963555 0.100824 -0.247784
12193.239258 2272.365967 6179.147461 -0.963555 0.100824 -0.247784
11803.500977 1205.807495 6292.228027 -0.970962 0.013600 -0.238845
11637.778320 1279.292725 6970.114258 -0.970962 0.013600 -0.238845
11738.478516 1587.989624 6578.321289 -0.970962 0.013600 -0.238845
13065.573242 2258.565186 6244.473633 0.924573 0.246386 0.290618
12893.449219 2293.585938 6762.378906 0.924573 0.246386 0.290618
12982.868164 2181.023682 6573.331543 0.924573 0.246386 0.290618
12101.059570 2570.832031 6659.051270 -0.963290 -0.163335 -0.213058
12003.122070 3213.987305 6608.795410 -0.963290 -0.163335 -0.213058
12183.217773 2751.542969 6149.055664 -0.963290 -0.163335 -0.213058
12244.581055 1213.124634 6313.328125 0.607263 -0.738326 0.293438
12285.118164 1564.627441 7113.861328 0.607263 -0.738326 0.293438
11990.508789 1171.404663 6734.152344 0.607263 -0.738326 0.293438
13065.573242 2258.565186 6244.473633 0.520647 0.852819 0.040322
12533.924805 2583.221680 6242.692383 0.520647 0.852819 0.040322
12508.714844 2565.559082 6941.770996 0.520647 0.852819 0.040322
12533.924805 2583.221680 6242.692383 0.890080 0.453719 0.043561
12487.991211 2643.246338 6556.049805 0.890080 0.453719 0.043561
12508.714844 2565.559082 6941.770996 0.890080 0.453719 0.043561
12401.754883 3005.605225 6409.172363 0.848146 0.460925 0.261144
12243.157227 3177.760498 6620.409668 0.848146 0.460925 0.261144
12317.570312 2931.911865 6812.658691 0.848146 0.460925 0.261144
12487.991211 2643.246338 6556.049805 0.914598 0.318596 0.249013
12401.754883 3005.605225 6409.172363 0.914598 0.318596 0.249013
12317.570312 2931.911865 6812.658691 0.914598 0.318596 0.249013
12244.581055 1213.124634 6313.328125 0.672183 -0.689843 0.268862
12715.453125 1664.192383 6293.442383 0.672183 -0.689843 0.268862
12285.118164 1564.627441 7113.861328 0.672183 -0.689843 0.268862
12893.449219 2293.585938 6762.378906 0.616994 0.771980 0.152855
13065.573242 2258.565186 6244.473633 0.616994 0.771980 0.152855
12508.714844 2565.559082 6941.770996 0.616994 0.771980 0.152855
12487.991211 2643.246338 6556.049805 0.914497 0.281948 0.290172
12317.570312 2931.911865 6812.658691 0.914497 0.281948 0.290172
12373.631836 2656.280273 6903.796875 0.914497 0.281948 0.290172
12715.453125 1664.192383 6293.442383 0.716636 -0.629888 0.299455
12926.648438 1965.406494 6421.611328 0.716636 -0.629888 0.299455
12285.118164 1564.627441 7113.861328 0.716636 -0.629888 0.299455
12074.648438 3365.987305 6206.471680 -0.374369 0.887484 0.268739
12003.122070 3213.987305 6608.795410 -0.374369 0.887484 0.268739
12110.694336 3270.169189 6573.114746 -0.374369 0.887484 0.268739
12101.059570 2570.832031 6659.051270 -0.936800 -0.166689 -0.307605
11908.885742 3077.403076 6969.802246 -0.936800 -0.166689 -0.307605
12003.122070 3213.987305 6608.795410 -0.936800 -0.166689 -0.307605
12487.991211 2643.246338 6556.049805 0.524349 0.839755 0.140961
12373.631836 2656.280273 6903.796875 0.524349 0.839755 0.140961
12508.714844 2565.559082 6941.770996 0.524349 0.839755 0.140961
11761.380859 1210.917358 6952.127930 -0.471788 -0.876943 0.091574
11637.778320 1279.292725 6970.114258 -0.471788 -0.876943 0.091574
11920.347656 1066.858887 6391.570312 -0.471788 -0.876943 0.091574
12064.666016 2169.640625 6637.328613 -0.803945 0.485668 -0.343217
11738.478516 1587.989624 6578.321289 -0.803945 0.485668 -0.343217
11810.272461 2034.050537 7041.349121 -0.803945 0.485668 -0.343217
11984.103516 3090.546387 6968.449707 0.379750 0.790382 0.480715
12243.157227 3177.760498 6620.409668 0.379750 0.790382 0.480715
12110.694336 3270.169189 6573.114746 0.379750 0.790382 0.480715
12110.694336 3270.169189 6573.114746 -0.387155 0.891262 0.236140
12003.122070 3213.987305 6608.795410 -0.387155 0.891262 0.236140
11908.885742 3077.403076 6969.802246 -0.387155 0.891262 0.236140
11920.347656 1066.858887 6391.570312 0.094447 -0.957415 0.272831
11990.508789 1171.404663 6734.152344 0.094447 -0.957415 0.272831
11761.380859 1210.917358 6952.127930 0.094447 -0.957415 0.272831
11637.778320 1279.292725 6970.114258 -0.904035 -0.190662 -0.382583
11604.412109 1469.606445 6954.114258 -0.904035 -0.190662 -0.382583
11738.478516 1587.989624 6578.321289 -0.904035 -0.190662 -0.382583
12243.157227 3177.760498 6620.409668 0.640023 0.584092 0.499207
12160.170898 2914.495850 7034.834473 0.640023 0.584092 0.499207
12317.570312 2931.911865 6812.658691 0.640023 0.584092 0.499207
11908.885742 3077.403076 6969.802246 -0.153664 0.917224 0.367541
11984.103516 3090.546387 6968.449707 -0.153664 0.917224 0.367541
12110.694336 3270.169189 6573.114746 -0.153664 0.917224 0.367541
12064.666016 2169.640625 6637.328613 -0.920693 0.103889 -0.376206
11896.742188 2332.694092 7093.318359 -0.920693 0.103889 -0.376206
12101.059570 2570.832031 6659.051270 -0.920693 0.103889 -0.376206
12101.059570 2570.832031 6659.051270 -0.890025 -0.060436 -0.451887
11896.742188 2332.694092 7093.318359 -0.890025 -0.060436 -0.451887
11908.885742 3077.403076 6969.802246 -0.890025 -0.060436 -0.451887
12926.648438 1965.406494 6421.611328 0.737414 -0.578676 0.348360
12551.654297 1956.241455 7200.180176 0.737414 -0.578676 0.348360
12285.118164 1564.627441 7113.861328 0.737414 -0.578676 0.348360
11641.187500 1696.923340 7012.697754 -0.938621 0.220266 -0.265470
11738.478516 1587.989624 6578.321289 -0.938621 0.220266 -0.265470
11604.412109 1469.606445 6954.114258 -0.938621 0.220266 -0.265470
11810.272461 2034.050537 7041.349121 -0.841957 0.447852 -0.300894
11738.478516 1587.989624 6578.321289 -0.841957 0.447852 -0.300894
11641.187500 1696.923340 7012.697754 -0.841957 0.447852 -0.300894
12982.868164 2181.023682 6573.331543 0.852686 -0.158617 0.497762
12893.449219 2293.585938 6762.378906 0.852686 -0.158617 0.497762
12648.109375 2213.799561 7157.230957 0.852686 -0.158617 0.497762
12243.157227 3177.760498 6620.409668 0.487496 0.689520 0.535639
11984.103516 3090.546387 6968.449707 0.487496 0.689520 0.535639
12160.170898 2914.495850 7034.834473 0.487496 0.689520 0.535639
11990.508789 1171.404663 6734.152344 0.578877 -0.747751 0.325223
12285.118164 1564.627441 7113.861328 0.578877 -0.747751 0.325223
12069.491211 1393.568970 7104.367188 0.578877 -0.747751 0.325223
11990.508789 1171.404663 6734.152344 0.288541 -0.841948 0.455925
11836.573242 1312.420898 7091.985840 0.288541 -0.841948 0.455925
11761.380859 1210.917358 6952.127930 0.288541 -0.841948 0.455925
11896.742188 2332.694092 7093.318359 -0.846574 0.319235 -0.425914
12064.666016 2169.640625 6637.328613 -0.846574 0.319235 -0.425914
11810.272461 2034.050537 7041.349121 -0.846574 0.319235 -0.425914
12317.570312 2931.911865 6812.658691 0.378349 0.359061 0.853186
12325.445312 2294.520508 7077.411133 0.378349 0.359061 0.853186
12373.631836 2656.280273 6903.796875 0.378349 0.359061 0.853186
12317.570312 2931.911865 6812.658691 0.781306 0.247628 0.572924
12160.170898 2914.495850 7034.834473 0.781306 0.247628 0.572924
12325.445312 2294.520508 7077.411133 0.781306 0.247628 0.572924
11836.573242 1312.420898 7091.985840 -0.288321 -0.694581 0.659112
11637.778320 1279.292725 6970.114258 -0.288321 -0.694581 0.659112
11761.380859 1210.917358 6952.127930 -0.288321 -0.694581 0.659112
11604.412109 1469.606445 6954.114258 -0.710435 -0.065647 0.700694
11637.778320 1279.292725 6970.114258 -0.710435 -0.065647 0.700694
11641.187500 1696.923340 7012.697754 -0.710435 -0.065647 0.700694
12551.654297 1956.241455 7200.180176 0.795813 -0.473290 0.377728
12926.648438 1965.406494 6421.611328 0.795813 -0.473290 0.377728
12982.868164 2181.023682 6573.331543 0.795813 -0.473290 0.377728
12069.491211 1393.568970 7104.367188 0.271990 -0.849629 0.451832
11836.573242 1312.420898 7091.985840 0.271990 -0.849629 0.451832
11990.508789 1171.404663 6734.152344 0.271990 -0.849629 0.451832
11836.573242 1312.420898 7091.985840 -0.510747 -0.083082 0.855707
11641.187500 1696.923340 7012.697754 -0.510747 -0.083082 0.855707
11637.778320 1279.292725 6970.114258 -0.510747 -0.083082 0.855707
12648.109375 2213.799561 7157.230957 0.641916 0.569122 0.513852
12893.449219 2293.585938 6762.378906 0.641916 0.569122 0.513852
12508.714844 2565.559082 6941.770996 0.641916 0.569122 0.513852
11908.885742 3077.403076 6969.802246 -0.982308 0.046122 0.181505
11896.742188 2332.694092 7093.318359 -0.982308 0.046122 0.181505
11921.461914 2776.259766 7114.387695 -0.982308 0.046122 0.181505
11984.103516 3090.546387 6968.449707 -0.058949 0.430066 0.900871
11908.885742 3077.403076 6969.802246 -0.058949 0.430066 0.900871
11921.461914 2776.259766 7114.387695 -0.058949 0.430066 0.900871
11991.996094 1923.916504 7130.512207 -0.332889 0.025221 0.942629
11641.187500 1696.923340 7012.697754 -0.332889 0.025221 0.942629
11836.573242 1312.420898 7091.985840 -0.332889 0.025221 0.942629
11991.996094 1923.916504 7130.512207 -0.381442 0.113342 0.917418
11810.272461 2034.050537 7041.349121 -0.381442 0.113342 0.917418
11641.187500 1696.923340 7012.697754 -0.381442 0.113342 0.917418
11921.461914 2776.259766 7114.387695 0.066210 0.409347 0.909973
12160.170898 2914.495850 7034.834473 0.066210 0.409347 0.909973
11984.103516 3090.546387 6968.449707 0.066210 0.409347 0.909973
11991.996094 1923.916504 7130.512207 -0.452158 -0.024237 0.891608
11896.742188 2332.694092 7093.318359 -0.452158 -0.024237 0.891608
11810.272461 2034.050537 7041.349121 -0.452158 -0.024237 0.891608
12551.654297 1956.241455 7200.180176 0.838278 -0.231623 0.493600
12982.868164 2181.023682 6573.331543 0.838278 -0.231623 0.493600
12648.109375 2213.799561 7157.230957 0.838278 -0.231623 0.493600
12648.109375 2213.799561 7157.230957 -0.109699 0.441897 0.890333
12373.631836 2656.280273 6903.796875 -0.109699 0.441897 0.890333
12325.445312 2294.520508 7077.411133 -0.109699 0.441897 0.890333
12508.714844 2565.559082 6941.770996 0.145023 0.557959 0.817099
12373.631836 2656.280273 6903.796875 0.145023 0.557959 0.817099
12648.109375 2213.799561 7157.230957 0.145023 0.557959 0.817099
12164.245117 2562.111084 7127.951172 0.594736 0.211805 0.775518
12325.445312 2294.520508 7077.411133 0.594736 0.211805 0.775518
12160.170898 2914.495850 7034.834473 0.594736 0.211805 0.775518
12164.245117 2562.111084 7127.951172 0.170478 0.253580 0.952174
12160.170898 2914.495850 7034.834473 0.170478 0.253580 0.952174
11921.461914 2776.259766 7114.387695 0.170478 0.253580 0.952174
12405.482422 1975.758911 7211.583008 -0.221331 0.330597 0.917452
12325.445312 2294.520508 7077.411133 -0.221331 0.330597 0.917452
11991.996094 1923.916504 7130.512207 -0.221331 0.330597 0.917452
11991.996094 1923.916504 7130.512207 0.215584 -0.054274 0.974976
12325.445312 2294.520508 7077.411133 0.215584 -0.054274 0.974976
12164.245117 2562.111084 7127.951172 0.215584 -0.054274 0.974976
11991.996094 1923.916504 7130.512207 -0.432370 -0.018726 0.901502
11921.461914 2776.259766 7114.387695 -0.432370 -0.018726 0.901502
11896.742188 2332.694092 7093.318359 -0.432370 -0.018726 0.901502
12381.681641 1808.388184 7221.749512 0.058385 -0.312255 0.948203
11836.573242 1312.420898 7091.985840 0.058385 -0.312255 0.948203
12069.491211 1393.568970 7104.367188 0.058385 -0.312255 0.948203
11836.573242 1312.420898 7091.985840 -0.190774 -0.013352 0.981543
12405.482422 1975.758911 7211.583008 -0.190774 -0.013352 0.981543
11991.996094 1923.916504 7130.512207 -0.190774 -0.013352 0.981543
12164.245117 2562.111084 7127.951172 -0.042222 0.015405 0.998989
11921.461914 2776.259766 7114.387695 -0.042222 0.015405 0.998989
11991.996094 1923.916504 7130.512207 -0.042222 0.015405 0.998989
12381.681641 1808.388184 7221.749512 -0.317596 0.102424 0.942678
12405.482422 1975.758911 7211.583008 -0.317596 0.102424 0.942678
11836.573242 1312.420898 7091.985840 -0.317596 0.102424 0.942678
12285.118164 1564.627441 7113.861328 0.355710 -0.492475 0.794317
12381.681641 1808.388184 7221.749512 0.355710 -0.492475 0.794317
12069.491211 1393.568970 7104.367188 0.355710 -0.492475 0.794317
12648.109375 2213.799561 7157.230957 -0.140180 0.354013 0.924675
12325.445312 2294.520508 7077.411133 -0.140180 0.354013 0.924675
12405.482422 1975.758911 7211.583008 -0.140180 0.354013 0.924675
12551.654297 1956.241455 7200.180176 0.094270 0.129303 0.987114
12648.109375 2213.799561 7157.230957 0.094270 0.129303 0.987114
12405.482422 1975.758911 7211.583008 0.094270 0.129303 0.987114
12285.118164 1564.627441 7113.861328 0.529529 -0.509842 0.677982
12551.654297 1956.241455 7200.180176 0.529529 -0.509842 0.677982
12381.681641 1808.388184 7221.749512 0.529529 -0.509842 0.677982
12381.681641 1808.388184 7221.749512 0.084116 0.048494 0.995275
12551.654297 1956.241455 7200.180176 0.084116 0.048494 0.995275
12405.482422 1975.758911 7211.583008 0.084116 0.048494 0.995275
3 0 1 2
3 3 4 5
3 6 7 8
3 9 10 11
3 12 13 14
3 15 16 17
3 18 19 20
3 21 22 23
3 24 25 26
3 27 28 29
3 30 31 32
3 33 34 35
3 36 37 38
3 39 40 41
3 42 43 44
3 45 46 47
3 48 49 50
3 51 52 53
3 54 55 56
3 57 58 59
3 60 61 62
3 63 64 65
3 66 67 68
3 69 70 71
3 72 73 74
3 75 76 77
3 78 79 80
3 81 82 83
3 84 85 86
3 87 88 89
3 90 91 92
3 93 94 95
3 96 97 98
3 99 100 101
3 102 103 104
3 105 106 107
3 108 109 110
3 111 112 113
3 114 115 116
3 117 118 119
3 120 121 122
3 123 124 125
3 126 127 128
3 129 130 131
3 132 133 134
3 135 136 137
3 138 139 140
3 141 142 143
3 144 145 146
3 147 148 149
3 150 151 152
3 153 154 155
3 156 157 158
3 159 160 161
3 162 163 164
3 165 166 167
3 168 169 170
3 171 172 173
3 174 175 176
3 177 178 179
3 180 181 182
3 183 184 185
3 186 187 188
3 189 190 191
3 192 193 194
3 195 196 197
3 198 199 200
3 201 202 203
3 204 205 206
3 207 208 209
3 210 211 212
3 213 214 215
3 216 217 218
3 219 220 221
3 222 223 224
3 225 226 227
3 228 229 230
3 231 232 233
3 234 235 236
3 237 238 239
3 240 241 242
3 243 244 245
3 246 247 248
3 249 250 251
3 252 253 254
3 255 256 257
3 258 259 260
3 261 262 263
3 264 265 266
3 267 268 269
3 270 271 272
3 273 274 275
3 276 277 278
3 279 280 281
3 282 283 284
3 285 286 287
3 288 289 290
3 291 292 293
3 294 295 296
3 297 298 299
3 300 301 302
3 303 304 305
3 306 307 308
3 309 310 311
3 312 313 314
3 315 316 317
3 318 319 320
3 321 322 323
3 324 325 326
3 327 328 329
3 330 331 332
3 333 334 335
3 336 337 338
3 339 340 341
3 342 343 344
3 345 346 347
3 348 349 350
3 351 352 353
3 354 355 356
3 357 358 359
3 360 361 362
3 363 364 365
3 366 367 368
3 369 370 371
3 372 373 374
3 375 376 377
3 378 379 380
3 381 382 383
3 384 385 386
3 387 388 389
3 390 391 392
3 393 394 395
3 396 397 398
3 399 400 401
3 402 403 404
3 405 406 407
3 408 409 410
3 411 412 413
3 414 415 416
3 417 418 419
3 420 421 422
3 423 424 425
3 426 427 428
3 429 430 431
3 432 433 434
3 435 436 437
3 438 439 440
3 441 442 443
3 444 445 446
3 447 448 449
3 450 451 452
3 453 454 455
3 456 457 458
3 459 460 461
3 462 463 464
3 465 466 467
3 468 469 470
3 471 472 473
3 474 475 476
3 477 478 479
3 480 481 482
3 483 484 485
3 486 487 488
3 489 490 491
3 492 493 494
3 495 496 497
3 498 499 500
3 501 502 503
3 504 505 506
3 507 508 509
3 510 511 512
3 513 514 515
3 516 517 518
3 519 520 521
3 522 523 524
3 525 526 527
3 528 529 530
3 531 532 533
3 534 535 536
3 537 538 539
3 540 541 542
3 543 544 545
3 546 547 548
3 549 550 551
3 552 553 554
3 555 556 557
3 558 559 560
3 561 562 563
3 564 565 566
3 567 568 569
3 570 571 572
3 573 574 575
3 576 577 578
3 579 580 581
3 582 583 584
3 585 586 587
3 588 589 590
3 591 592 593
3 594 595 596
3 597 598 599
3 600 601 602
3 603 604 605
3 606 607 608
3 609 610 611
3 612 613 614
3 615 616 617
3 618 619 620
3 621 622 623
