ply
format ascii 1.0
comment Created by Blender 2.80 (sub 75) - www.blender.org, source file: 'downsample_ccf.blend'
element vertex 210
property float x
property float y
property float z
property float nx
property float ny
property float nz
element face 70
property list uchar uint vertex_indices
end_header
8700.645508 3821.923340 1234.952515 -0.108273 -0.214957 -0.970603
8207.494141 4110.431152 1226.069702 -0.108273 -0.214957 -0.970603
8476.511719 4174.823242 1181.799316 -0.108273 -0.214957 -0.970603
9061.055664 3590.208008 1286.126587 0.075701 -0.101329 -0.991969
8700.645508 3821.923340 1234.952515 0.075701 -0.101329 -0.991969
8476.511719 4174.823242 1181.799316 0.075701 -0.101329 -0.991969
8972.867188 3937.275635 1288.815796 0.241663 0.068905 -0.967911
9061.055664 3590.208008 1286.126587 0.241663 0.068905 -0.967911
8476.511719 4174.823242 1181.799316 0.241663 0.068905 -0.967911
8207.494141 4110.431152 1226.069702 -0.169009 0.028751 -0.985195
7105.427246 4481.454102 1425.954834 -0.169009 0.028751 -0.985195
8476.511719 4174.823242 1181.799316 -0.169009 0.028751 -0.985195
8700.645508 3821.923340 1234.952515 -0.454175 -0.795161 -0.401801
9061.055664 3590.208008 1286.126587 -0.454175 -0.795161 -0.401801
9221.630859 3411.154541 1458.966431 -0.454175 -0.795161 -0.401801
8972.867188 3937.275635 1288.815796 0.528570 0.140794 -0.837132
9241.768555 3632.702881 1407.376831 0.528570 0.140794 -0.837132
9061.055664 3590.208008 1286.126587 0.528570 0.140794 -0.837132
8513.919922 3957.556396 1302.219116 -0.484818 -0.819282 0.306151
8207.494141 4110.431152 1226.069702 -0.484818 -0.819282 0.306151
8700.645508 3821.923340 1234.952515 -0.484818 -0.819282 0.306151
8476.511719 4174.823242 1181.799316 0.445875 0.658545 -0.606230
8397.061523 4364.234863 1329.121704 0.445875 0.658545 -0.606230
8972.867188 3937.275635 1288.815796 0.445875 0.658545 -0.606230
8207.494141 4110.431152 1226.069702 -0.442189 -0.896681 -0.020772
8513.919922 3957.556396 1302.219116 -0.442189 -0.896681 -0.020772
8047.969238 4184.219727 1436.700684 -0.442189 -0.896681 -0.020772
8397.061523 4364.234863 1329.121704 0.373707 0.662043 -0.649648
8476.511719 4174.823242 1181.799316 0.373707 0.662043 -0.649648
7937.298340 4740.058105 1447.639282 0.373707 0.662043 -0.649648
9221.630859 3411.154541 1458.966431 0.579050 -0.234461 -0.780851
9061.055664 3590.208008 1286.126587 0.579050 -0.234461 -0.780851
9241.768555 3632.702881 1407.376831 0.579050 -0.234461 -0.780851
9241.768555 3632.702881 1407.376831 0.533831 0.671408 0.514038
8972.867188 3937.275635 1288.815796 0.533831 0.671408 0.514038
8397.061523 4364.234863 1329.121704 0.533831 0.671408 0.514038
7105.427246 4481.454102 1425.954834 -0.300184 -0.948108 0.104793
8207.494141 4110.431152 1226.069702 -0.300184 -0.948108 0.104793
8047.969238 4184.219727 1436.700684 -0.300184 -0.948108 0.104793
8700.645508 3821.923340 1234.952515 -0.418180 -0.794283 0.440727
9241.768555 3632.702881 1407.376831 -0.418180 -0.794283 0.440727
8513.919922 3957.556396 1302.219116 -0.418180 -0.794283 0.440727
8397.061523 4364.234863 1329.121704 -0.194320 -0.120239 0.973541
8513.919922 3957.556396 1302.219116 -0.194320 -0.120239 0.973541
9241.768555 3632.702881 1407.376831 -0.194320 -0.120239 0.973541
8476.511719 4174.823242 1181.799316 -0.100494 0.304783 -0.947105
7105.427246 4481.454102 1425.954834 -0.100494 0.304783 -0.947105
7462.206543 4896.692383 1521.723999 -0.100494 0.304783 -0.947105
8476.511719 4174.823242 1181.799316 -0.001159 0.424691 -0.905338
7462.206543 4896.692383 1521.723999 -0.001159 0.424691 -0.905338
7937.298340 4740.058105 1447.639282 -0.001159 0.424691 -0.905338
9241.768555 3632.702881 1407.376831 0.156780 0.871598 0.464476
8700.645508 3821.923340 1234.952515 0.156780 0.871598 0.464476
9236.508789 3600.700928 1469.204468 0.156780 0.871598 0.464476
8513.919922 3957.556396 1302.219116 0.285634 0.018692 0.958157
8397.061523 4364.234863 1329.121704 0.285634 0.018692 0.958157
8047.969238 4184.219727 1436.700684 0.285634 0.018692 0.958157
9221.630859 3411.154541 1458.966431 0.995825 -0.080490 0.043055
9241.768555 3632.702881 1407.376831 0.995825 -0.080490 0.043055
9236.508789 3600.700928 1469.204468 0.995825 -0.080490 0.043055
8700.645508 3821.923340 1234.952515 -0.406521 -0.017431 0.913475
9221.630859 3411.154541 1458.966431 -0.406521 -0.017431 0.913475
9236.508789 3600.700928 1469.204468 -0.406521 -0.017431 0.913475
8397.061523 4364.234863 1329.121704 0.347922 -0.118957 0.929946
7824.568359 4759.659668 1593.891113 0.347922 -0.118957 0.929946
8047.969238 4184.219727 1436.700684 0.347922 -0.118957 0.929946
7824.568359 4759.659668 1593.891113 0.638995 0.654035 0.404875
8397.061523 4364.234863 1329.121704 0.638995 0.654035 0.404875
7937.298340 4740.058105 1447.639282 0.638995 0.654035 0.404875
7462.206543 4896.692383 1521.723999 -0.376479 0.502919 -0.778033
7105.427246 4481.454102 1425.954834 -0.376479 0.502919 -0.778033
7231.239746 4863.872559 1612.270630 -0.376479 0.502919 -0.778033
7105.427246 4481.454102 1425.954834 -0.298739 -0.950432 -0.086221
8047.969238 4184.219727 1436.700684 -0.298739 -0.950432 -0.086221
7099.294922 4462.227051 1659.144897 -0.298739 -0.950432 -0.086221
7604.733887 4344.013184 1582.486694 0.252826 -0.168001 0.952814
8047.969238 4184.219727 1436.700684 0.252826 -0.168001 0.952814
7525.970215 4720.735352 1669.810425 0.252826 -0.168001 0.952814
8047.969238 4184.219727 1436.700684 0.262619 -0.158062 0.951865
7824.568359 4759.659668 1593.891113 0.262619 -0.158062 0.951865
7525.970215 4720.735352 1669.810425 0.262619 -0.158062 0.951865
7231.239746 4863.872559 1612.270630 -0.950022 0.312181 0.000757
7105.427246 4481.454102 1425.954834 -0.950022 0.312181 0.000757
7099.294922 4462.227051 1659.144897 -0.950022 0.312181 0.000757
7462.206543 4896.692383 1521.723999 0.328460 0.935839 0.127748
7824.568359 4759.659668 1593.891113 0.328460 0.935839 0.127748
7937.298340 4740.058105 1447.639282 0.328460 0.935839 0.127748
7604.733887 4344.013184 1582.486694 -0.101609 -0.809462 0.578314
7099.294922 4462.227051 1659.144897 -0.101609 -0.809462 0.578314
8047.969238 4184.219727 1436.700684 -0.101609 -0.809462 0.578314
7231.239746 4863.872559 1612.270630 0.150582 0.742144 0.653106
7824.568359 4759.659668 1593.891113 0.150582 0.742144 0.653106
7462.206543 4896.692383 1521.723999 0.150582 0.742144 0.653106
7099.294922 4462.227051 1659.144897 0.099768 -0.204843 0.973697
7604.733887 4344.013184 1582.486694 0.099768 -0.204843 0.973697
7525.970215 4720.735352 1669.810425 0.099768 -0.204843 0.973697
7824.568359 4759.659668 1593.891113 0.127503 0.584623 0.801223
7231.239746 4863.872559 1612.270630 0.127503 0.584623 0.801223
7525.970215 4720.735352 1669.810425 0.127503 0.584623 0.801223
7525.970215 4720.735352 1669.810425 -0.117245 0.153033 0.981241
7231.239746 4863.872559 1612.270630 -0.117245 0.153033 0.981241
7099.294922 4462.227051 1659.144897 -0.117245 0.153033 0.981241
7281.891602 4847.231445 9729.749023 0.124808 -0.009990 -0.992131
7494.295410 4382.490723 9761.148438 0.124808 -0.009990 -0.992131
7110.579102 4453.854492 9712.159180 0.124808 -0.009990 -0.992131
7649.177246 4803.552734 9748.667969 0.045876 -0.046452 -0.997867
7494.295410 4382.490723 9761.148438 0.045876 -0.046452 -0.997867
7281.891602 4847.231445 9729.749023 0.045876 -0.046452 -0.997867
7227.926270 4887.517578 9831.413086 -0.759992 0.355305 -0.544215
7281.891602 4847.231445 9729.749023 -0.759992 0.355305 -0.544215
7110.579102 4453.854492 9712.159180 -0.759992 0.355305 -0.544215
7281.891602 4847.231445 9729.749023 0.127952 0.943418 -0.305926
7227.926270 4887.517578 9831.413086 0.127952 0.943418 -0.305926
7649.177246 4803.552734 9748.667969 0.127952 0.943418 -0.305926
8302.138672 4069.155029 10051.380859 0.288528 -0.134231 -0.948016
7494.295410 4382.490723 9761.148438 0.288528 -0.134231 -0.948016
7649.177246 4803.552734 9748.667969 0.288528 -0.134231 -0.948016
8302.138672 4069.155029 10051.380859 0.284907 -0.137696 -0.948613
7649.177246 4803.552734 9748.667969 0.284907 -0.137696 -0.948613
8043.264648 4667.681641 9886.750977 0.284907 -0.137696 -0.948613
7227.926270 4887.517578 9831.413086 -0.947269 0.292384 -0.131120
7110.579102 4453.854492 9712.159180 -0.947269 0.292384 -0.131120
7086.723145 4475.946289 9933.767578 -0.947269 0.292384 -0.131120
7110.579102 4453.854492 9712.159180 -0.056212 -0.752612 -0.656061
7494.295410 4382.490723 9761.148438 -0.056212 -0.752612 -0.656061
8302.138672 4069.155029 10051.380859 -0.056212 -0.752612 -0.656061
7649.177246 4803.552734 9748.667969 0.380160 0.904042 -0.195412
7914.534668 4738.820312 9965.427734 0.380160 0.904042 -0.195412
8043.264648 4667.681641 9886.750977 0.380160 0.904042 -0.195412
7649.177246 4803.552734 9748.667969 0.203427 0.978142 0.043074
7227.926270 4887.517578 9831.413086 0.203427 0.978142 0.043074
7914.534668 4738.820312 9965.427734 0.203427 0.978142 0.043074
8292.601562 4377.678711 10000.752930 0.263371 -0.148281 -0.953231
8302.138672 4069.155029 10051.380859 0.263371 -0.148281 -0.953231
8043.264648 4667.681641 9886.750977 0.263371 -0.148281 -0.953231
9215.640625 3417.854736 9981.164062 -0.545375 -0.472191 -0.692533
8752.583008 3821.728271 10070.451172 -0.545375 -0.472191 -0.692533
9261.990234 3489.701904 9895.675781 -0.545375 -0.472191 -0.692533
7944.146484 4206.512695 10100.816406 -0.310055 -0.948747 0.061202
7086.723145 4475.946289 9933.767578 -0.310055 -0.948747 0.061202
7110.579102 4453.854492 9712.159180 -0.310055 -0.948747 0.061202
8960.754883 3959.722412 10060.340820 0.334482 0.495259 -0.801773
9261.990234 3489.701904 9895.675781 0.334482 0.495259 -0.801773
8631.532227 4188.603027 10064.376953 0.334482 0.495259 -0.801773
8302.138672 4069.155029 10051.380859 -0.338811 -0.931263 0.134003
7944.146484 4206.512695 10100.816406 -0.338811 -0.931263 0.134003
7110.579102 4453.854492 9712.159180 -0.338811 -0.931263 0.134003
8546.598633 4205.154297 10154.377930 0.613412 0.230446 -0.755394
8292.601562 4377.678711 10000.752930 0.613412 0.230446 -0.755394
8043.264648 4667.681641 9886.750977 0.613412 0.230446 -0.755394
9215.640625 3417.854736 9981.164062 0.880484 -0.003946 0.474060
9261.990234 3489.701904 9895.675781 0.880484 -0.003946 0.474060
9185.267578 3696.652344 10039.897461 0.880484 -0.003946 0.474060
9261.990234 3489.701904 9895.675781 0.639768 0.584758 -0.498754
8960.754883 3959.722412 10060.340820 0.639768 0.584758 -0.498754
9185.267578 3696.652344 10039.897461 0.639768 0.584758 -0.498754
9261.990234 3489.701904 9895.675781 -0.406416 -0.149023 -0.901453
8752.583008 3821.728271 10070.451172 -0.406416 -0.149023 -0.901453
8631.532227 4188.603027 10064.376953 -0.406416 -0.149023 -0.901453
8631.532227 4188.603027 10064.376953 0.096171 -0.158285 -0.982699
8302.138672 4069.155029 10051.380859 0.096171 -0.158285 -0.982699
8292.601562 4377.678711 10000.752930 0.096171 -0.158285 -0.982699
8752.583008 3821.728271 10070.451172 0.040567 -0.003158 -0.999172
8302.138672 4069.155029 10051.380859 0.040567 -0.003158 -0.999172
8631.532227 4188.603027 10064.376953 0.040567 -0.003158 -0.999172
7914.534668 4738.820312 9965.427734 -0.125222 0.279689 0.951890
7227.926270 4887.517578 9831.413086 -0.125222 0.279689 0.951890
7086.723145 4475.946289 9933.767578 -0.125222 0.279689 0.951890
8261.797852 4208.479492 10174.832031 -0.128456 0.290311 0.948271
7914.534668 4738.820312 9965.427734 -0.128456 0.290311 0.948271
7086.723145 4475.946289 9933.767578 -0.128456 0.290311 0.948271
8631.532227 4188.603027 10064.376953 0.435065 0.864538 0.251579
8292.601562 4377.678711 10000.752930 0.435065 0.864538 0.251579
8546.598633 4205.154297 10154.377930 0.435065 0.864538 0.251579
8546.598633 4205.154297 10154.377930 0.580432 0.775452 0.248541
8043.264648 4667.681641 9886.750977 0.580432 0.775452 0.248541
7914.534668 4738.820312 9965.427734 0.580432 0.775452 0.248541
9215.640625 3417.854736 9981.164062 -0.664827 -0.740472 -0.098518
8701.572266 3852.266846 10185.155273 -0.664827 -0.740472 -0.098518
8752.583008 3821.728271 10070.451172 -0.664827 -0.740472 -0.098518
7944.146484 4206.512695 10100.816406 -0.224739 -0.115297 0.967574
8261.797852 4208.479492 10174.832031 -0.224739 -0.115297 0.967574
7086.723145 4475.946289 9933.767578 -0.224739 -0.115297 0.967574
7944.146484 4206.512695 10100.816406 -0.351983 -0.689574 -0.632926
8302.138672 4069.155029 10051.380859 -0.351983 -0.689574 -0.632926
8752.583008 3821.728271 10070.451172 -0.351983 -0.689574 -0.632926
9215.640625 3417.854736 9981.164062 0.230596 -0.176468 0.956914
9185.267578 3696.652344 10039.897461 0.230596 -0.176468 0.956914
8701.572266 3852.266846 10185.155273 0.230596 -0.176468 0.956914
8752.583008 3821.728271 10070.451172 -0.427691 -0.902536 0.050088
8701.572266 3852.266846 10185.155273 -0.427691 -0.902536 0.050088
7944.146484 4206.512695 10100.816406 -0.427691 -0.902536 0.050088
9185.267578 3696.652344 10039.897461 0.335819 0.215340 0.916981
8960.754883 3959.722412 10060.340820 0.335819 0.215340 0.916981
8546.598633 4205.154297 10154.377930 0.335819 0.215340 0.916981
8960.754883 3959.722412 10060.340820 0.534609 0.762560 0.364273
8631.532227 4188.603027 10064.376953 0.534609 0.762560 0.364273
8546.598633 4205.154297 10154.377930 0.534609 0.762560 0.364273
9185.267578 3696.652344 10039.897461 0.347441 0.231826 0.908593
8546.598633 4205.154297 10154.377930 0.347441 0.231826 0.908593
8701.572266 3852.266846 10185.155273 0.347441 0.231826 0.908593
7914.534668 4738.820312 9965.427734 0.070184 0.405772 0.911276
8261.797852 4208.479492 10174.832031 0.070184 0.405772 0.911276
8546.598633 4205.154297 10154.377930 0.070184 0.405772 0.911276
7944.146484 4206.512695 10100.816406 -0.218723 -0.242642 0.945138
8701.572266 3852.266846 10185.155273 -0.218723 -0.242642 0.945138
8261.797852 4208.479492 10174.832031 -0.218723 -0.242642 0.945138
8546.598633 4205.154297 10154.377930 0.072505 0.118214 0.990337
8261.797852 4208.479492 10174.832031 0.072505 0.118214 0.990337
8701.572266 3852.266846 10185.155273 0.072505 0.118214 0.990337
3 0 1 2
3 3 4 5
3 6 7 8
3 9 10 11
3 12 13 14
3 15 16 17
3 18 19 20
3 21 22 23
3 24 25 26
3 27 28 29
3 30 31 32
3 33 34 35
3 36 37 38
3 39 40 41
3 42 43 44
3 45 46 47
3 48 49 50
3 51 52 53
3 54 55 56
3 57 58 59
3 60 61 62
3 63 64 65
3 66 67 68
3 69 70 71
3 72 73 74
3 75 76 77
3 78 79 80
3 81 82 83
3 84 85 86
3 87 88 89
3 90 91 92
3 93 94 95
3 96 97 98
3 99 100 101
3 102 103 104
3 105 106 107
3 108 109 110
3 111 112 113
3 114 115 116
3 117 118 119
3 120 121 122
3 123 124 125
3 126 127 128
3 129 130 131
3 132 133 134
3 135 136 137
3 138 139 140
3 141 142 143
3 144 145 146
3 147 148 149
3 150 151 152
3 153 154 155
3 156 157 158
3 159 160 161
3 162 163 164
3 165 166 167
3 168 169 170
3 171 172 173
3 174 175 176
3 177 178 179
3 180 181 182
3 183 184 185
3 186 187 188
3 189 190 191
3 192 193 194
3 195 196 197
3 198 199 200
3 201 202 203
3 204 205 206
3 207 208 209
