ply
format ascii 1.0
comment Created by Blender 2.80 (sub 75) - www.blender.org, source file: 'downsample_ccf.blend'
element vertex 102
property float x
property float y
property float z
property float nx
property float ny
property float nz
element face 34
property list uchar uint vertex_indices
end_header
12338.467773 4689.871094 4096.484863 -0.128416 -0.594539 -0.793746
11982.425781 4813.609863 4061.403076 -0.128416 -0.594539 -0.793746
12176.565430 4895.309570 3968.798828 -0.128416 -0.594539 -0.793746
12771.580078 4766.359375 4285.385254 0.422069 -0.214788 -0.880752
12338.467773 4689.871094 4096.484863 0.422069 -0.214788 -0.880752
12176.565430 4895.309570 3968.798828 0.422069 -0.214788 -0.880752
12176.565430 4895.309570 3968.798828 -0.421780 -0.025064 -0.906352
11982.425781 4813.609863 4061.403076 -0.421780 -0.025064 -0.906352
12001.825195 4947.530762 4048.671875 -0.421780 -0.025064 -0.906352
12023.896484 4742.561035 4211.398926 -0.277048 -0.895743 -0.347691
11982.425781 4813.609863 4061.403076 -0.277048 -0.895743 -0.347691
12338.467773 4689.871094 4096.484863 -0.277048 -0.895743 -0.347691
11982.425781 4813.609863 4061.403076 -0.927397 0.166199 0.335130
12023.896484 4742.561035 4211.398926 -0.927397 0.166199 0.335130
12001.825195 4947.530762 4048.671875 -0.927397 0.166199 0.335130
12001.825195 4947.530762 4048.671875 0.124500 0.933008 -0.337632
12865.212891 5021.287109 4570.857910 0.124500 0.933008 -0.337632
12176.565430 4895.309570 3968.798828 0.124500 0.933008 -0.337632
12771.580078 4766.359375 4285.385254 0.478616 0.571063 -0.666943
12176.565430 4895.309570 3968.798828 0.478616 0.571063 -0.666943
12865.212891 5021.287109 4570.857910 0.478616 0.571063 -0.666943
12669.796875 4907.109375 4699.151367 -0.607949 0.452494 0.652416
12001.825195 4947.530762 4048.671875 -0.607949 0.452494 0.652416
12023.896484 4742.561035 4211.398926 -0.607949 0.452494 0.652416
12338.467773 4689.871094 4096.484863 -0.104782 -0.981048 0.162990
12575.314453 4754.752441 4639.271973 -0.104782 -0.981048 0.162990
12023.896484 4742.561035 4211.398926 -0.104782 -0.981048 0.162990
12865.212891 5021.287109 4570.857910 -0.288996 0.890234 0.352087
12001.825195 4947.530762 4048.671875 -0.288996 0.890234 0.352087
12669.796875 4907.109375 4699.151367 -0.288996 0.890234 0.352087
12338.467773 4689.871094 4096.484863 0.151734 -0.987064 0.051778
12771.580078 4766.359375 4285.385254 0.151734 -0.987064 0.051778
12575.314453 4754.752441 4639.271973 0.151734 -0.987064 0.051778
12669.796875 4907.109375 4699.151367 -0.612491 0.070390 0.787337
12023.896484 4742.561035 4211.398926 -0.612491 0.070390 0.787337
12575.314453 4754.752441 4639.271973 -0.612491 0.070390 0.787337
12771.580078 4766.359375 4285.385254 0.811305 0.277957 -0.514318
12865.212891 5021.287109 4570.857910 0.811305 0.277957 -0.514318
12952.139648 4951.061523 4670.026855 0.811305 0.277957 -0.514318
12952.139648 4951.061523 4670.026855 0.437521 -0.873371 0.214004
12575.314453 4754.752441 4639.271973 0.437521 -0.873371 0.214004
12771.580078 4766.359375 4285.385254 0.437521 -0.873371 0.214004
12952.139648 4951.061523 4670.026855 -0.059796 0.789169 0.611258
12865.212891 5021.287109 4570.857910 -0.059796 0.789169 0.611258
12669.796875 4907.109375 4699.151367 -0.059796 0.789169 0.611258
12575.314453 4754.752441 4639.271973 0.160214 -0.445533 0.880813
12952.139648 4951.061523 4670.026855 0.160214 -0.445533 0.880813
12669.796875 4907.109375 4699.151367 0.160214 -0.445533 0.880813
12883.977539 5022.812500 6714.180664 0.540917 -0.380686 -0.749991
12957.392578 4901.720215 6828.594727 0.540917 -0.380686 -0.749991
12661.940430 4800.539551 6666.863281 0.540917 -0.380686 -0.749991
12661.940430 4800.539551 6666.863281 0.439251 -0.858233 -0.265508
12957.392578 4901.720215 6828.594727 0.439251 -0.858233 -0.265508
12585.328125 4666.570801 6973.161133 0.439251 -0.858233 -0.265508
12883.977539 5022.812500 6714.180664 -0.475555 0.609984 -0.633851
12661.940430 4800.539551 6666.863281 -0.475555 0.609984 -0.633851
12118.210938 4774.859375 7050.089844 -0.475555 0.609984 -0.633851
12160.569336 4968.693848 7190.802246 -0.477256 0.582159 -0.658269
12883.977539 5022.812500 6714.180664 -0.477256 0.582159 -0.658269
12118.210938 4774.859375 7050.089844 -0.477256 0.582159 -0.658269
12118.210938 4774.859375 7050.089844 -0.271015 -0.855183 -0.441828
12661.940430 4800.539551 6666.863281 -0.271015 -0.855183 -0.441828
12585.328125 4666.570801 6973.161133 -0.271015 -0.855183 -0.441828
12883.977539 5022.812500 6714.180664 0.508224 0.733913 0.450643
12750.954102 4882.548828 7092.633301 0.508224 0.733913 0.450643
12957.392578 4901.720215 6828.594727 0.508224 0.733913 0.450643
12585.328125 4666.570801 6973.161133 0.590055 -0.750258 0.298242
12957.392578 4901.720215 6828.594727 0.590055 -0.750258 0.298242
12568.181641 4764.834961 7254.278320 0.590055 -0.750258 0.298242
12957.392578 4901.720215 6828.594727 0.738113 -0.392750 0.548577
12750.954102 4882.548828 7092.633301 0.738113 -0.392750 0.548577
12568.181641 4764.834961 7254.278320 0.738113 -0.392750 0.548577
12118.210938 4774.859375 7050.089844 -0.594805 0.553309 -0.583143
11947.743164 4879.493652 7323.248047 -0.594805 0.553309 -0.583143
12160.569336 4968.693848 7190.802246 -0.594805 0.553309 -0.583143
12118.210938 4774.859375 7050.089844 -0.255216 -0.939970 -0.226543
12585.328125 4666.570801 6973.161133 -0.255216 -0.939970 -0.226543
12151.292969 4710.476562 7279.957031 -0.255216 -0.939970 -0.226543
12883.977539 5022.812500 6714.180664 0.222058 0.886247 0.406517
12210.038086 4881.312012 7390.803223 0.222058 0.886247 0.406517
12750.954102 4882.548828 7092.633301 0.222058 0.886247 0.406517
12883.977539 5022.812500 6714.180664 0.168152 0.917892 0.359442
12160.569336 4968.693848 7190.802246 0.168152 0.917892 0.359442
12210.038086 4881.312012 7390.803223 0.168152 0.917892 0.359442
12151.292969 4710.476562 7279.957031 -0.649057 -0.751670 -0.117122
11947.743164 4879.493652 7323.248047 -0.649057 -0.751670 -0.117122
12118.210938 4774.859375 7050.089844 -0.649057 -0.751670 -0.117122
12585.328125 4666.570801 6973.161133 0.142077 -0.931684 0.334335
12568.181641 4764.834961 7254.278320 0.142077 -0.931684 0.334335
12151.292969 4710.476562 7279.957031 0.142077 -0.931684 0.334335
12568.181641 4764.834961 7254.278320 0.438694 0.414060 0.797560
12750.954102 4882.548828 7092.633301 0.438694 0.414060 0.797560
12210.038086 4881.312012 7390.803223 0.438694 0.414060 0.797560
11947.743164 4879.493652 7323.248047 -0.114774 0.899574 0.421419
12210.038086 4881.312012 7390.803223 -0.114774 0.899574 0.421419
12160.569336 4968.693848 7190.802246 -0.114774 0.899574 0.421419
12210.038086 4881.312012 7390.803223 0.124334 -0.569820 0.812309
12151.292969 4710.476562 7279.957031 0.124334 -0.569820 0.812309
12568.181641 4764.834961 7254.278320 0.124334 -0.569820 0.812309
12210.038086 4881.312012 7390.803223 -0.215949 -0.478125 0.851330
11947.743164 4879.493652 7323.248047 -0.215949 -0.478125 0.851330
12151.292969 4710.476562 7279.957031 -0.215949 -0.478125 0.851330
3 0 1 2
3 3 4 5
3 6 7 8
3 9 10 11
3 12 13 14
3 15 16 17
3 18 19 20
3 21 22 23
3 24 25 26
3 27 28 29
3 30 31 32
3 33 34 35
3 36 37 38
3 39 40 41
3 42 43 44
3 45 46 47
3 48 49 50
3 51 52 53
3 54 55 56
3 57 58 59
3 60 61 62
3 63 64 65
3 66 67 68
3 69 70 71
3 72 73 74
3 75 76 77
3 78 79 80
3 81 82 83
3 84 85 86
3 87 88 89
3 90 91 92
3 93 94 95
3 96 97 98
3 99 100 101
