ply
format ascii 1.0
comment Created by Blender 2.80 (sub 75) - www.blender.org, source file: 'downsample_ccf.blend'
element vertex 24
property float x
property float y
property float z
property float nx
property float ny
property float nz
element face 8
property list uchar uint vertex_indices
end_header
9016.247070 3665.840332 5655.775879 -0.428093 -0.474934 -0.768878
8464.415039 4054.676270 5722.840332 -0.428093 -0.474934 -0.768878
8270.214844 4369.212891 5636.678223 -0.428093 -0.474934 -0.768878
8227.616211 4477.206055 5729.006836 0.614031 0.638681 -0.463738
9016.247070 3665.840332 5655.775879 0.614031 0.638681 -0.463738
8270.214844 4369.212891 5636.678223 0.614031 0.638681 -0.463738
8464.415039 4054.676270 5722.840332 -0.562090 -0.730972 -0.386956
9016.247070 3665.840332 5655.775879 -0.562090 -0.730972 -0.386956
8869.614258 3729.517334 5748.485840 -0.562090 -0.730972 -0.386956
8227.616211 4477.206055 5729.006836 -0.858652 -0.483690 0.169588
8270.214844 4369.212891 5636.678223 -0.858652 -0.483690 0.169588
8464.415039 4054.676270 5722.840332 -0.858652 -0.483690 0.169588
9016.247070 3665.840332 5655.775879 0.153647 -0.684185 0.712940
9057.905273 3731.674072 5709.976562 0.153647 -0.684185 0.712940
8869.614258 3729.517334 5748.485840 0.153647 -0.684185 0.712940
9057.905273 3731.674072 5709.976562 0.373707 0.437075 -0.818113
9016.247070 3665.840332 5655.775879 0.373707 0.437075 -0.818113
8227.616211 4477.206055 5729.006836 0.373707 0.437075 -0.818113
8464.415039 4054.676270 5722.840332 -0.134507 -0.089784 0.986837
8869.614258 3729.517334 5748.485840 -0.134507 -0.089784 0.986837
8227.616211 4477.206055 5729.006836 -0.134507 -0.089784 0.986837
8869.614258 3729.517334 5748.485840 0.194528 0.192090 0.961904
9057.905273 3731.674072 5709.976562 0.194528 0.192090 0.961904
8227.616211 4477.206055 5729.006836 0.194528 0.192090 0.961904
3 0 1 2
3 3 4 5
3 6 7 8
3 9 10 11
3 12 13 14
3 15 16 17
3 18 19 20
3 21 22 23
