ply
format ascii 1.0
comment Created by Blender 2.80 (sub 75) - www.blender.org, source file: 'downsample_ccf.blend'
element vertex 114
property float x
property float y
property float z
property float nx
property float ny
property float nz
element face 38
property list uchar uint vertex_indices
end_header
7943.648438 5068.435059 4417.614746 0.138441 0.600624 -0.787455
8031.628418 4525.259277 4018.780273 0.138441 0.600624 -0.787455
7857.987305 4483.900391 3956.706543 0.138441 0.600624 -0.787455
7943.648438 5068.435059 4417.614746 -0.173930 0.625329 -0.760731
7857.987305 4483.900391 3956.706543 -0.173930 0.625329 -0.760731
7577.466797 4670.313965 4174.077148 -0.173930 0.625329 -0.760731
8031.628418 4525.259277 4018.780273 0.071468 -0.910690 0.406861
7733.543945 4834.400879 4763.103027 0.071468 -0.910690 0.406861
7857.987305 4483.900391 3956.706543 0.071468 -0.910690 0.406861
7577.466797 4670.313965 4174.077148 -0.726736 -0.676744 0.117783
7581.638184 4744.137207 4623.979492 -0.726736 -0.676744 0.117783
7456.698242 4842.940430 4420.777344 -0.726736 -0.676744 0.117783
7551.507812 5088.407227 4503.482422 -0.631371 0.455357 -0.627711
7577.466797 4670.313965 4174.077148 -0.631371 0.455357 -0.627711
7456.698242 4842.940430 4420.777344 -0.631371 0.455357 -0.627711
7857.987305 4483.900391 3956.706543 -0.465585 -0.872624 0.147503
7581.638184 4744.137207 4623.979492 -0.465585 -0.872624 0.147503
7577.466797 4670.313965 4174.077148 -0.465585 -0.872624 0.147503
7551.507812 5088.407227 4503.482422 -0.140289 0.607361 -0.781941
7943.648438 5068.435059 4417.614746 -0.140289 0.607361 -0.781941
7577.466797 4670.313965 4174.077148 -0.140289 0.607361 -0.781941
8031.628418 4525.259277 4018.780273 0.954367 0.261062 -0.145016
7943.648438 5068.435059 4417.614746 0.954367 0.261062 -0.145016
8017.475586 4908.240723 4615.094238 0.954367 0.261062 -0.145016
7733.543945 4834.400879 4763.103027 0.154184 -0.897228 0.413774
7581.638184 4744.137207 4623.979492 0.154184 -0.897228 0.413774
7857.987305 4483.900391 3956.706543 0.154184 -0.897228 0.413774
8017.475586 4908.240723 4615.094238 0.449705 -0.746638 0.490200
7733.543945 4834.400879 4763.103027 0.449705 -0.746638 0.490200
8031.628418 4525.259277 4018.780273 0.449705 -0.746638 0.490200
7551.507812 5088.407227 4503.482422 -0.913911 0.390419 -0.111085
7456.698242 4842.940430 4420.777344 -0.913911 0.390419 -0.111085
7545.289062 5145.734863 4756.127930 -0.913911 0.390419 -0.111085
7943.648438 5068.435059 4417.614746 -0.037740 0.921445 -0.386671
7551.507812 5088.407227 4503.482422 -0.037740 0.921445 -0.386671
7654.055664 5209.009766 4780.871582 -0.037740 0.921445 -0.386671
7456.698242 4842.940430 4420.777344 -0.875075 -0.220907 0.430633
7581.638184 4744.137207 4623.979492 -0.875075 -0.220907 0.430633
7545.289062 5145.734863 4756.127930 -0.875075 -0.220907 0.430633
8017.475586 4908.240723 4615.094238 0.685061 0.669555 0.287032
7943.648438 5068.435059 4417.614746 0.685061 0.669555 0.287032
7654.055664 5209.009766 4780.871582 0.685061 0.669555 0.287032
7551.507812 5088.407227 4503.482422 -0.456185 0.865335 -0.207581
7545.289062 5145.734863 4756.127930 -0.456185 0.865335 -0.207581
7654.055664 5209.009766 4780.871582 -0.456185 0.865335 -0.207581
7545.289062 5145.734863 4756.127930 -0.537044 -0.307133 0.785654
7581.638184 4744.137207 4623.979492 -0.537044 -0.307133 0.785654
7733.543945 4834.400879 4763.103027 -0.537044 -0.307133 0.785654
8017.475586 4908.240723 4615.094238 0.450644 0.053355 0.891108
7654.055664 5209.009766 4780.871582 0.450644 0.053355 0.891108
7733.543945 4834.400879 4763.103027 0.450644 0.053355 0.891108
7545.289062 5145.734863 4756.127930 -0.174570 -0.083577 0.981091
7733.543945 4834.400879 4763.103027 -0.174570 -0.083577 0.981091
7654.055664 5209.009766 4780.871582 -0.174570 -0.083577 0.981091
7767.513672 4886.806152 6582.886719 0.261045 0.296065 -0.918804
7567.902344 5198.637207 6626.655273 0.261045 0.296065 -0.918804
7756.700195 5209.291504 6683.728516 0.261045 0.296065 -0.918804
7598.229492 4763.142090 6724.240234 -0.525067 -0.220743 -0.821935
7567.902344 5198.637207 6626.655273 -0.525067 -0.220743 -0.821935
7767.513672 4886.806152 6582.886719 -0.525067 -0.220743 -0.821935
7767.513672 4886.806152 6582.886719 0.540816 0.267505 -0.797471
7756.700195 5209.291504 6683.728516 0.540816 0.267505 -0.797471
8022.583008 4953.284180 6778.165039 0.540816 0.267505 -0.797471
8022.583008 4953.284180 6778.165039 0.687460 0.725545 0.031353
7756.700195 5209.291504 6683.728516 0.687460 0.725545 0.031353
7947.848145 5014.042969 7010.806152 0.687460 0.725545 0.031353
7598.229492 4763.142090 6724.240234 0.215788 -0.848238 -0.483661
7767.513672 4886.806152 6582.886719 0.215788 -0.848238 -0.483661
8033.527344 4648.399902 7119.684082 0.215788 -0.848238 -0.483661
7598.229492 4763.142090 6724.240234 -0.911711 -0.149258 -0.382760
7466.214355 4869.826172 6997.090332 -0.911711 -0.149258 -0.382760
7567.902344 5198.637207 6626.655273 -0.911711 -0.149258 -0.382760
8033.527344 4648.399902 7119.684082 0.147840 -0.894346 -0.422243
7873.287598 4484.116211 7411.545410 0.147840 -0.894346 -0.422243
7598.229492 4763.142090 6724.240234 0.147840 -0.894346 -0.422243
7767.513672 4886.806152 6582.886719 0.579427 -0.598683 -0.553031
8022.583008 4953.284180 6778.165039 0.579427 -0.598683 -0.553031
8033.527344 4648.399902 7119.684082 0.579427 -0.598683 -0.553031
7756.700195 5209.291504 6683.728516 -0.098671 0.984857 0.142554
7567.902344 5198.637207 6626.655273 -0.098671 0.984857 0.142554
7638.684082 5175.058594 6838.545410 -0.098671 0.984857 0.142554
7466.214355 4869.826172 6997.090332 -0.779755 -0.610564 -0.138545
7598.229492 4763.142090 6724.240234 -0.779755 -0.610564 -0.138545
7628.007812 4604.527344 7255.652832 -0.779755 -0.610564 -0.138545
7466.214355 4869.826172 6997.090332 -0.747035 0.585574 0.314708
7638.684082 5175.058594 6838.545410 -0.747035 0.585574 0.314708
7567.902344 5198.637207 6626.655273 -0.747035 0.585574 0.314708
7638.684082 5175.058594 6838.545410 0.248018 0.888718 0.385575
7947.848145 5014.042969 7010.806152 0.248018 0.888718 0.385575
7756.700195 5209.291504 6683.728516 0.248018 0.888718 0.385575
8032.282715 4594.942383 7344.776855 0.998177 0.057242 0.019114
8033.527344 4648.399902 7119.684082 0.998177 0.057242 0.019114
8022.583008 4953.284180 6778.165039 0.998177 0.057242 0.019114
7638.684082 5175.058594 6838.545410 -0.183017 0.532626 0.826326
7466.214355 4869.826172 6997.090332 -0.183017 0.532626 0.826326
7947.848145 5014.042969 7010.806152 -0.183017 0.532626 0.826326
7628.007812 4604.527344 7255.652832 -0.287954 -0.921943 -0.259044
7598.229492 4763.142090 6724.240234 -0.287954 -0.921943 -0.259044
7873.287598 4484.116211 7411.545410 -0.287954 -0.921943 -0.259044
8022.583008 4953.284180 6778.165039 0.915615 0.346701 0.203589
7947.848145 5014.042969 7010.806152 0.915615 0.346701 0.203589
8032.282715 4594.942383 7344.776855 0.915615 0.346701 0.203589
7873.287598 4484.116211 7411.545410 -0.169417 0.632938 0.755439
7466.214355 4869.826172 6997.090332 -0.169417 0.632938 0.755439
7628.007812 4604.527344 7255.652832 -0.169417 0.632938 0.755439
7466.214355 4869.826172 6997.090332 -0.204066 0.608581 0.766803
7873.287598 4484.116211 7411.545410 -0.204066 0.608581 0.766803
7947.848145 5014.042969 7010.806152 -0.204066 0.608581 0.766803
7873.287598 4484.116211 7411.545410 0.503610 -0.841174 -0.196987
8033.527344 4648.399902 7119.684082 0.503610 -0.841174 -0.196987
8032.282715 4594.942383 7344.776855 0.503610 -0.841174 -0.196987
7873.287598 4484.116211 7411.545410 -0.093604 0.608866 0.787732
8032.282715 4594.942383 7344.776855 -0.093604 0.608866 0.787732
7947.848145 5014.042969 7010.806152 -0.093604 0.608866 0.787732
3 0 1 2
3 3 4 5
3 6 7 8
3 9 10 11
3 12 13 14
3 15 16 17
3 18 19 20
3 21 22 23
3 24 25 26
3 27 28 29
3 30 31 32
3 33 34 35
3 36 37 38
3 39 40 41
3 42 43 44
3 45 46 47
3 48 49 50
3 51 52 53
3 54 55 56
3 57 58 59
3 60 61 62
3 63 64 65
3 66 67 68
3 69 70 71
3 72 73 74
3 75 76 77
3 78 79 80
3 81 82 83
3 84 85 86
3 87 88 89
3 90 91 92
3 93 94 95
3 96 97 98
3 99 100 101
3 102 103 104
3 105 106 107
3 108 109 110
3 111 112 113
