ply
format ascii 1.0
comment Created by Blender 2.80 (sub 75) - www.blender.org, source file: 'downsample_ccf.blend'
element vertex 150
property float x
property float y
property float z
property float nx
property float ny
property float nz
element face 50
property list uchar uint vertex_indices
end_header
1939.104614 3135.581299 3974.386719 0.529546 0.357662 -0.769193
2022.382080 3189.966064 4057.006592 0.529546 0.357662 -0.769193
1980.932739 2882.190186 3885.360352 0.529546 0.357662 -0.769193
1929.060913 2663.691895 3990.914307 0.734286 -0.428623 -0.526410
1980.932739 2882.190186 3885.360352 0.734286 -0.428623 -0.526410
1980.210815 2491.086182 4202.805176 0.734286 -0.428623 -0.526410
1929.060913 2663.691895 3990.914307 -0.900693 0.003955 -0.434437
1939.104614 3135.581299 3974.386719 -0.900693 0.003955 -0.434437
1980.932739 2882.190186 3885.360352 -0.900693 0.003955 -0.434437
1980.932739 2882.190186 3885.360352 0.992143 -0.079944 -0.096238
2022.382080 3189.966064 4057.006592 0.992143 -0.079944 -0.096238
1980.210815 2491.086182 4202.805176 0.992143 -0.079944 -0.096238
1929.060913 2663.691895 3990.914307 -0.989915 0.016140 -0.140737
1817.283569 2554.685791 4764.632324 -0.989915 0.016140 -0.140737
1939.104614 3135.581299 3974.386719 -0.989915 0.016140 -0.140737
1980.210815 2491.086182 4202.805176 0.997364 -0.049023 0.053489
2022.382080 3189.966064 4057.006592 0.997364 -0.049023 0.053489
1969.665039 2856.109619 4733.991699 0.997364 -0.049023 0.053489
1980.210815 2491.086182 4202.805176 -0.762254 -0.579607 -0.288140
1944.592651 2339.950439 4601.046875 -0.762254 -0.579607 -0.288140
1929.060913 2663.691895 3990.914307 -0.762254 -0.579607 -0.288140
1905.086304 2895.975342 4684.218750 -0.965295 0.257955 0.040812
1939.104614 3135.581299 3974.386719 -0.965295 0.257955 0.040812
1817.283569 2554.685791 4764.632324 -0.965295 0.257955 0.040812
1944.592651 2339.950439 4601.046875 -0.900754 -0.392741 -0.185462
1817.283569 2554.685791 4764.632324 -0.900754 -0.392741 -0.185462
1929.060913 2663.691895 3990.914307 -0.900754 -0.392741 -0.185462
2022.382080 3189.966064 4057.006592 0.195477 0.873445 0.445963
1905.086304 2895.975342 4684.218750 0.195477 0.873445 0.445963
1969.665039 2856.109619 4733.991699 0.195477 0.873445 0.445963
2022.382080 3189.966064 4057.006592 -0.671096 0.711584 0.208035
1939.104614 3135.581299 3974.386719 -0.671096 0.711584 0.208035
1905.086304 2895.975342 4684.218750 -0.671096 0.711584 0.208035
1944.592651 2339.950439 4601.046875 0.856510 -0.503293 -0.114398
1980.210815 2491.086182 4202.805176 0.856510 -0.503293 -0.114398
1998.009644 2355.780518 4931.340332 0.856510 -0.503293 -0.114398
1817.283569 2554.685791 4764.632324 -0.968439 0.222839 -0.111662
1834.059204 2903.868408 5315.986816 -0.968439 0.222839 -0.111662
1905.086304 2895.975342 4684.218750 -0.968439 0.222839 -0.111662
1944.592651 2339.950439 4601.046875 -0.792729 -0.589158 0.156441
1998.009644 2355.780518 4931.340332 -0.792729 -0.589158 0.156441
1817.283569 2554.685791 4764.632324 -0.792729 -0.589158 0.156441
1969.665039 2856.109619 4733.991699 0.605665 0.779093 -0.161814
1905.086304 2895.975342 4684.218750 0.605665 0.779093 -0.161814
1925.782715 3013.628418 5328.154785 0.605665 0.779093 -0.161814
1817.283569 2554.685791 4764.632324 -0.994739 -0.070125 0.074678
1855.163208 2552.312988 5266.978027 -0.994739 -0.070125 0.074678
1834.059204 2903.868408 5315.986816 -0.994739 -0.070125 0.074678
1980.210815 2491.086182 4202.805176 0.975851 0.188589 -0.110222
1969.665039 2856.109619 4733.991699 0.975851 0.188589 -0.110222
2023.870605 2922.534912 5327.555176 0.975851 0.188589 -0.110222
1998.009644 2355.780518 4931.340332 0.999257 -0.025251 -0.029102
1980.210815 2491.086182 4202.805176 0.999257 -0.025251 -0.029102
2023.870605 2922.534912 5327.555176 0.999257 -0.025251 -0.029102
1905.086304 2895.975342 4684.218750 -0.758868 0.644517 -0.093369
1834.059204 2903.868408 5315.986816 -0.758868 0.644517 -0.093369
1925.782715 3013.628418 5328.154785 -0.758868 0.644517 -0.093369
1855.163208 2552.312988 5266.978027 -0.761277 -0.646145 0.054352
1817.283569 2554.685791 4764.632324 -0.761277 -0.646145 0.054352
1998.009644 2355.780518 4931.340332 -0.761277 -0.646145 0.054352
1969.665039 2856.109619 4733.991699 0.673068 0.725687 -0.142677
1925.782715 3013.628418 5328.154785 0.673068 0.725687 -0.142677
2023.870605 2922.534912 5327.555176 0.673068 0.725687 -0.142677
1855.163208 2552.312988 5266.978027 0.537778 -0.607492 0.584593
1998.009644 2355.780518 4931.340332 0.537778 -0.607492 0.584593
1913.645630 2744.962402 5413.374512 0.537778 -0.607492 0.584593
1998.009644 2355.780518 4931.340332 0.849623 -0.327668 0.413249
2023.870605 2922.534912 5327.555176 0.849623 -0.327668 0.413249
1913.645630 2744.962402 5413.374512 0.849623 -0.327668 0.413249
2023.870605 2922.534912 5327.555176 0.266137 0.280502 0.922220
1925.782715 3013.628418 5328.154785 0.266137 0.280502 0.922220
1913.645630 2744.962402 5413.374512 0.266137 0.280502 0.922220
1855.163208 2552.312988 5266.978027 -0.856408 -0.121369 0.501832
1913.645630 2744.962402 5413.374512 -0.856408 -0.121369 0.501832
1834.059204 2903.868408 5315.986816 -0.856408 -0.121369 0.501832
1834.059204 2903.868408 5315.986816 -0.456034 0.287733 0.842166
1913.645630 2744.962402 5413.374512 -0.456034 0.287733 0.842166
1925.782715 3013.628418 5328.154785 -0.456034 0.287733 0.842166
2010.789429 2967.487793 6043.807617 0.292498 -0.022581 -0.955999
1847.924683 2678.739014 6000.797852 0.292498 -0.022581 -0.955999
1844.101196 2900.404785 5994.392090 0.292498 -0.022581 -0.955999
2000.781860 2674.739746 6095.245605 0.515266 -0.165371 -0.840924
1847.924683 2678.739014 6000.797852 0.515266 -0.165371 -0.840924
2010.789429 2967.487793 6043.807617 0.515266 -0.165371 -0.840924
1844.101196 2900.404785 5994.392090 0.089837 0.436288 -0.895311
1910.348755 2998.365234 6048.775879 0.089837 0.436288 -0.895311
2010.789429 2967.487793 6043.807617 0.089837 0.436288 -0.895311
1847.924683 2678.739014 6000.797852 0.390400 -0.642833 -0.659055
2000.781860 2674.739746 6095.245605 0.390400 -0.642833 -0.659055
1992.295654 2332.832520 6423.709961 0.390400 -0.642833 -0.659055
2000.781860 2674.739746 6095.245605 0.997716 -0.022943 0.063534
2010.789429 2967.487793 6043.807617 0.997716 -0.022943 0.063534
1965.682129 2863.894775 6714.750488 0.997716 -0.022943 0.063534
1910.348755 2998.365234 6048.775879 -0.846884 0.524695 0.086508
1844.101196 2900.404785 5994.392090 -0.846884 0.524695 0.086508
1903.413452 2882.324463 6684.702148 -0.846884 0.524695 0.086508
1847.924683 2678.739014 6000.797852 -0.999846 -0.017141 0.003657
1854.845337 2442.214111 6784.391113 -0.999846 -0.017141 0.003657
1844.101196 2900.404785 5994.392090 -0.999846 -0.017141 0.003657
1844.101196 2900.404785 5994.392090 -0.391015 0.918577 0.057655
1899.529053 2834.951660 7413.109863 -0.391015 0.918577 0.057655
1903.413452 2882.324463 6684.702148 -0.391015 0.918577 0.057655
1992.295654 2332.832520 6423.709961 -0.830543 -0.535180 -0.154207
1854.845337 2442.214111 6784.391113 -0.830543 -0.535180 -0.154207
1847.924683 2678.739014 6000.797852 -0.830543 -0.535180 -0.154207
2000.781860 2674.739746 6095.245605 0.998508 0.022860 0.049593
1965.682129 2863.894775 6714.750488 0.998508 0.022860 0.049593
1992.295654 2332.832520 6423.709961 0.998508 0.022860 0.049593
1910.348755 2998.365234 6048.775879 0.297267 0.940397 0.165182
1965.682129 2863.894775 6714.750488 0.297267 0.940397 0.165182
2010.789429 2967.487793 6043.807617 0.297267 0.940397 0.165182
1854.845337 2442.214111 6784.391113 -0.998016 0.047613 0.041188
1899.529053 2834.951660 7413.109863 -0.998016 0.047613 0.041188
1844.101196 2900.404785 5994.392090 -0.998016 0.047613 0.041188
1965.682129 2863.894775 6714.750488 0.199305 0.963633 0.178013
1910.348755 2998.365234 6048.775879 0.199305 0.963633 0.178013
1903.413452 2882.324463 6684.702148 0.199305 0.963633 0.178013
1992.295654 2332.832520 6423.709961 0.998990 0.043093 0.012719
1965.682129 2863.894775 6714.750488 0.998990 0.043093 0.012719
1976.051392 2484.455566 7185.890625 0.998990 0.043093 0.012719
1965.682129 2863.894775 6714.750488 0.454929 0.747235 -0.484437
1903.413452 2882.324463 6684.702148 0.454929 0.747235 -0.484437
2037.344604 3157.162598 7234.408203 0.454929 0.747235 -0.484437
1899.529053 2834.951660 7413.109863 -0.988079 0.153874 0.004738
1945.595459 3130.282715 7428.642090 -0.988079 0.153874 0.004738
1903.413452 2882.324463 6684.702148 -0.988079 0.153874 0.004738
1992.295654 2332.832520 6423.709961 -0.273863 -0.944385 0.182033
1976.051392 2484.455566 7185.890625 -0.273863 -0.944385 0.182033
1854.845337 2442.214111 6784.391113 -0.273863 -0.944385 0.182033
1903.413452 2882.324463 6684.702148 -0.651133 0.730330 -0.206502
1945.595459 3130.282715 7428.642090 -0.651133 0.730330 -0.206502
2037.344604 3157.162598 7234.408203 -0.651133 0.730330 -0.206502
1854.845337 2442.214111 6784.391113 -0.870725 -0.386895 0.303562
1976.051392 2484.455566 7185.890625 -0.870725 -0.386895 0.303562
1899.529053 2834.951660 7413.109863 -0.870725 -0.386895 0.303562
1976.051392 2484.455566 7185.890625 0.992443 -0.083973 -0.089471
1965.682129 2863.894775 6714.750488 0.992443 -0.083973 -0.089471
2037.344604 3157.162598 7234.408203 0.992443 -0.083973 -0.089471
2037.344604 3157.162598 7234.408203 0.993316 -0.095211 0.065248
1986.017700 2776.495361 7460.316895 0.993316 -0.095211 0.065248
1976.051392 2484.455566 7185.890625 0.993316 -0.095211 0.065248
1976.051392 2484.455566 7185.890625 -0.651109 -0.507826 0.564066
1986.017700 2776.495361 7460.316895 -0.651109 -0.507826 0.564066
1899.529053 2834.951660 7413.109863 -0.651109 -0.507826 0.564066
1986.017700 2776.495361 7460.316895 0.887546 0.140686 0.438714
2037.344604 3157.162598 7234.408203 0.887546 0.140686 0.438714
1945.595459 3130.282715 7428.642090 0.887546 0.140686 0.438714
1986.017700 2776.495361 7460.316895 -0.465313 0.026049 0.884763
1945.595459 3130.282715 7428.642090 -0.465313 0.026049 0.884763
1899.529053 2834.951660 7413.109863 -0.465313 0.026049 0.884763
3 0 1 2
3 3 4 5
3 6 7 8
3 9 10 11
3 12 13 14
3 15 16 17
3 18 19 20
3 21 22 23
3 24 25 26
3 27 28 29
3 30 31 32
3 33 34 35
3 36 37 38
3 39 40 41
3 42 43 44
3 45 46 47
3 48 49 50
3 51 52 53
3 54 55 56
3 57 58 59
3 60 61 62
3 63 64 65
3 66 67 68
3 69 70 71
3 72 73 74
3 75 76 77
3 78 79 80
3 81 82 83
3 84 85 86
3 87 88 89
3 90 91 92
3 93 94 95
3 96 97 98
3 99 100 101
3 102 103 104
3 105 106 107
3 108 109 110
3 111 112 113
3 114 115 116
3 117 118 119
3 120 121 122
3 123 124 125
3 126 127 128
3 129 130 131
3 132 133 134
3 135 136 137
3 138 139 140
3 141 142 143
3 144 145 146
3 147 148 149
