ply
format ascii 1.0
comment Created by Blender 2.80 (sub 75) - www.blender.org, source file: 'downsample_ccf.blend'
element vertex 84
property float x
property float y
property float z
property float nx
property float ny
property float nz
element face 28
property list uchar uint vertex_indices
end_header
2809.585449 3042.871338 4108.713867 0.356463 -0.485061 -0.798530
3316.899658 3149.149170 4270.621094 0.356463 -0.485061 -0.798530
2820.276611 2853.956787 4228.241211 0.356463 -0.485061 -0.798530
2738.419678 2890.551270 4446.612305 -0.295576 0.892704 0.340167
3316.899658 3149.149170 4270.621094 -0.295576 0.892704 0.340167
2809.585449 3042.871338 4108.713867 -0.295576 0.892704 0.340167
2809.585449 3042.871338 4108.713867 -0.927100 -0.227552 -0.297836
2742.560059 2721.698975 4562.729980 -0.927100 -0.227552 -0.297836
2738.419678 2890.551270 4446.612305 -0.927100 -0.227552 -0.297836
2738.419678 2890.551270 4446.612305 -0.286854 0.887359 0.360984
3351.686523 3073.534424 4484.138184 -0.286854 0.887359 0.360984
3316.899658 3149.149170 4270.621094 -0.286854 0.887359 0.360984
2809.585449 3042.871338 4108.713867 -0.917035 -0.249000 -0.311523
2820.276611 2853.956787 4228.241211 -0.917035 -0.249000 -0.311523
2742.560059 2721.698975 4562.729980 -0.917035 -0.249000 -0.311523
3351.686523 3073.534424 4484.138184 0.499150 -0.788015 -0.360390
2820.276611 2853.956787 4228.241211 0.499150 -0.788015 -0.360390
3316.899658 3149.149170 4270.621094 0.499150 -0.788015 -0.360390
3113.408691 2861.636963 4527.068848 0.524873 -0.690933 -0.497111
2820.276611 2853.956787 4228.241211 0.524873 -0.690933 -0.497111
3351.686523 3073.534424 4484.138184 0.524873 -0.690933 -0.497111
2742.560059 2721.698975 4562.729980 0.314289 -0.905529 -0.285026
2820.276611 2853.956787 4228.241211 0.314289 -0.905529 -0.285026
3113.408691 2861.636963 4527.068848 0.314289 -0.905529 -0.285026
2738.419678 2890.551270 4446.612305 -0.993930 -0.077837 -0.077746
2742.560059 2721.698975 4562.729980 -0.993930 -0.077837 -0.077746
2719.674072 2782.642578 4794.296875 -0.993930 -0.077837 -0.077746
3351.686523 3073.534424 4484.138184 -0.290888 0.947100 0.135599
2738.419678 2890.551270 4446.612305 -0.290888 0.947100 0.135599
2823.587646 2866.855469 4794.820312 -0.290888 0.947100 0.135599
2742.560059 2721.698975 4562.729980 0.362545 -0.891834 0.270543
3113.408691 2861.636963 4527.068848 0.362545 -0.891834 0.270543
2719.674072 2782.642578 4794.296875 0.362545 -0.891834 0.270543
3113.408691 2861.636963 4527.068848 0.555130 -0.487739 0.673752
3351.686523 3073.534424 4484.138184 0.555130 -0.487739 0.673752
2719.674072 2782.642578 4794.296875 0.555130 -0.487739 0.673752
2719.674072 2782.642578 4794.296875 0.550295 -0.682024 0.481682
3351.686523 3073.534424 4484.138184 0.550295 -0.682024 0.481682
2823.587646 2866.855469 4794.820312 0.550295 -0.682024 0.481682
2719.674072 2782.642578 4794.296875 -0.617163 0.760281 0.202689
2823.587646 2866.855469 4794.820312 -0.617163 0.760281 0.202689
2738.419678 2890.551270 4446.612305 -0.617163 0.760281 0.202689
2689.313477 2808.874023 6760.189941 -0.931054 -0.277045 -0.237452
2734.954834 2838.575928 6546.575195 -0.931054 -0.277045 -0.237452
2739.259033 2702.139160 6688.884277 -0.931054 -0.277045 -0.237452
2739.259033 2702.139160 6688.884277 0.509036 -0.613580 -0.603657
2734.954834 2838.575928 6546.575195 0.509036 -0.613580 -0.603657
3156.259033 2880.420410 6859.309570 0.509036 -0.613580 -0.603657
2734.954834 2838.575928 6546.575195 0.536161 -0.538203 -0.650284
3336.178467 3047.535889 6869.341797 0.536161 -0.538203 -0.650284
3156.259033 2880.420410 6859.309570 0.536161 -0.538203 -0.650284
2734.954834 2838.575928 6546.575195 -0.353681 0.933790 0.054270
2689.313477 2808.874023 6760.189941 -0.353681 0.933790 0.054270
3336.178467 3047.535889 6869.341797 -0.353681 0.933790 0.054270
2739.259033 2702.139160 6688.884277 -0.772832 -0.560483 0.297642
2799.762207 2871.155273 7164.252441 -0.772832 -0.560483 0.297642
2689.313477 2808.874023 6760.189941 -0.772832 -0.560483 0.297642
3156.259033 2880.420410 6859.309570 0.272962 -0.916877 0.291252
2799.762207 2871.155273 7164.252441 0.272962 -0.916877 0.291252
2739.259033 2702.139160 6688.884277 0.272962 -0.916877 0.291252
3156.259033 2880.420410 6859.309570 0.626428 -0.695546 0.351859
3336.178467 3047.535889 6869.341797 0.626428 -0.695546 0.351859
3320.323242 3150.697754 7101.497070 0.626428 -0.695546 0.351859
3336.178467 3047.535889 6869.341797 -0.254895 0.877073 -0.407150
2689.313477 2808.874023 6760.189941 -0.254895 0.877073 -0.407150
3320.323242 3150.697754 7101.497070 -0.254895 0.877073 -0.407150
3320.323242 3150.697754 7101.497070 -0.274000 0.884002 -0.378768
2689.313477 2808.874023 6760.189941 -0.274000 0.884002 -0.378768
2806.046875 3052.259766 7243.780273 -0.274000 0.884002 -0.378768
3156.259033 2880.420410 6859.309570 0.440762 -0.750464 0.492476
2983.691406 3040.021729 7256.965820 0.440762 -0.750464 0.492476
2799.762207 2871.155273 7164.252441 0.440762 -0.750464 0.492476
2689.313477 2808.874023 6760.189941 -0.957384 -0.087626 0.275203
2799.762207 2871.155273 7164.252441 -0.957384 -0.087626 0.275203
2806.046875 3052.259766 7243.780273 -0.957384 -0.087626 0.275203
3320.323242 3150.697754 7101.497070 0.469411 -0.730025 0.496706
2983.691406 3040.021729 7256.965820 0.469411 -0.730025 0.496706
3156.259033 2880.420410 6859.309570 0.469411 -0.730025 0.496706
2983.691406 3040.021729 7256.965820 0.011106 0.803089 0.595755
3320.323242 3150.697754 7101.497070 0.011106 0.803089 0.595755
2806.046875 3052.259766 7243.780273 0.011106 0.803089 0.595755
2983.691406 3040.021729 7256.965820 -0.095125 -0.397476 0.912669
2806.046875 3052.259766 7243.780273 -0.095125 -0.397476 0.912669
2799.762207 2871.155273 7164.252441 -0.095125 -0.397476 0.912669
3 0 1 2
3 3 4 5
3 6 7 8
3 9 10 11
3 12 13 14
3 15 16 17
3 18 19 20
3 21 22 23
3 24 25 26
3 27 28 29
3 30 31 32
3 33 34 35
3 36 37 38
3 39 40 41
3 42 43 44
3 45 46 47
3 48 49 50
3 51 52 53
3 54 55 56
3 57 58 59
3 60 61 62
3 63 64 65
3 66 67 68
3 69 70 71
3 72 73 74
3 75 76 77
3 78 79 80
3 81 82 83
