ply
format ascii 1.0
comment Created by Blender 2.80 (sub 75) - www.blender.org, source file: 'downsample_ccf.blend'
element vertex 207
property float x
property float y
property float z
property float nx
property float ny
property float nz
element face 69
property list uchar uint vertex_indices
end_header
6879.723145 6259.752441 4719.246582 0.016971 -0.190149 -0.981609
6419.110352 6044.076172 4753.062012 0.016971 -0.190149 -0.981609
6611.473633 6344.640137 4698.165039 0.016971 -0.190149 -0.981609
7206.365723 6419.717285 4731.536621 0.062308 -0.050649 -0.996771
6879.723145 6259.752441 4719.246582 0.062308 -0.050649 -0.996771
6611.473633 6344.640137 4698.165039 0.062308 -0.050649 -0.996771
6419.110352 6044.076172 4753.062012 -0.106994 -0.111966 -0.987935
6182.036133 5942.769531 4790.218750 -0.106994 -0.111966 -0.987935
6611.473633 6344.640137 4698.165039 -0.106994 -0.111966 -0.987935
7623.907715 6266.326660 4884.956055 0.206445 -0.351394 -0.913183
6879.723145 6259.752441 4719.246582 0.206445 -0.351394 -0.913183
7206.365723 6419.717285 4731.536621 0.206445 -0.351394 -0.913183
6611.473633 6344.640137 4698.165039 -0.666918 0.616956 -0.417835
6182.036133 5942.769531 4790.218750 -0.666918 0.616956 -0.417835
6384.878418 6169.618164 4801.410645 -0.666918 0.616956 -0.417835
7206.365723 6419.717285 4731.536621 -0.121422 0.616232 0.778149
6611.473633 6344.640137 4698.165039 -0.121422 0.616232 0.778149
6384.878418 6169.618164 4801.410645 -0.121422 0.616232 0.778149
6419.110352 6044.076172 4753.062012 0.209330 -0.301198 0.930301
6879.723145 6259.752441 4719.246582 0.209330 -0.301198 0.930301
6384.878418 6169.618164 4801.410645 0.209330 -0.301198 0.930301
6384.878418 6169.618164 4801.410645 0.098267 -0.908910 -0.405249
6879.723145 6259.752441 4719.246582 0.098267 -0.908910 -0.405249
7623.907715 6266.326660 4884.956055 0.098267 -0.908910 -0.405249
7623.907715 6266.326660 4884.956055 -0.099039 0.555894 0.825332
7206.365723 6419.717285 4731.536621 -0.099039 0.555894 0.825332
6384.878418 6169.618164 4801.410645 -0.099039 0.555894 0.825332
6419.110352 6044.076172 4753.062012 0.015020 -0.375099 -0.926863
5777.522949 5242.302246 5067.141113 0.015020 -0.375099 -0.926863
6182.036133 5942.769531 4790.218750 0.015020 -0.375099 -0.926863
6419.110352 6044.076172 4753.062012 0.717721 -0.071067 0.692694
6384.878418 6169.618164 4801.410645 0.717721 -0.071067 0.692694
6054.431641 5613.460938 5086.737793 0.717721 -0.071067 0.692694
5777.522949 5242.302246 5067.141113 0.795284 -0.598448 0.096867
6419.110352 6044.076172 4753.062012 0.795284 -0.598448 0.096867
6054.431641 5613.460938 5086.737793 0.795284 -0.598448 0.096867
5738.754883 5345.203125 5258.625977 -0.741874 0.656672 0.135664
6384.878418 6169.618164 4801.410645 -0.741874 0.656672 0.135664
6182.036133 5942.769531 4790.218750 -0.741874 0.656672 0.135664
5738.754883 5345.203125 5258.625977 0.200582 0.350217 0.914940
6054.431641 5613.460938 5086.737793 0.200582 0.350217 0.914940
6384.878418 6169.618164 4801.410645 0.200582 0.350217 0.914940
6182.036133 5942.769531 4790.218750 -0.555474 -0.007942 -0.831496
5777.522949 5242.302246 5067.141113 -0.555474 -0.007942 -0.831496
5357.776855 4993.665527 5349.923828 -0.555474 -0.007942 -0.831496
5357.776855 4993.665527 5349.923828 -0.577733 0.724000 0.376894
5738.754883 5345.203125 5258.625977 -0.577733 0.724000 0.376894
6182.036133 5942.769531 4790.218750 -0.577733 0.724000 0.376894
5491.913086 4874.104004 5130.824219 -0.663738 0.406236 -0.628032
5357.776855 4993.665527 5349.923828 -0.663738 0.406236 -0.628032
5777.522949 5242.302246 5067.141113 -0.663738 0.406236 -0.628032
5491.913086 4874.104004 5130.824219 0.640930 -0.583440 -0.498805
5777.522949 5242.302246 5067.141113 0.640930 -0.583440 -0.498805
5514.184570 4722.349609 5336.944824 0.640930 -0.583440 -0.498805
5305.996094 4506.129395 5312.709961 0.653598 -0.574034 -0.493249
5491.913086 4874.104004 5130.824219 0.653598 -0.574034 -0.493249
5514.184570 4722.349609 5336.944824 0.653598 -0.574034 -0.493249
5357.776855 4993.665527 5349.923828 -0.812581 0.129677 -0.568239
5491.913086 4874.104004 5130.824219 -0.812581 0.129677 -0.568239
5305.996094 4506.129395 5312.709961 -0.812581 0.129677 -0.568239
5514.184570 4722.349609 5336.944824 0.767026 -0.555279 -0.321461
5777.522949 5242.302246 5067.141113 0.767026 -0.555279 -0.321461
6054.431641 5613.460938 5086.737793 0.767026 -0.555279 -0.321461
5305.996094 4506.129395 5312.709961 0.733949 -0.191531 -0.651640
5225.650391 4089.098145 5344.790527 0.733949 -0.191531 -0.651640
5190.104980 4134.187988 5291.502441 0.733949 -0.191531 -0.651640
5738.754883 5345.203125 5258.625977 0.531666 -0.085742 0.842603
5514.184570 4722.349609 5336.944824 0.531666 -0.085742 0.842603
6054.431641 5613.460938 5086.737793 0.531666 -0.085742 0.842603
5225.650391 4089.098145 5344.790527 0.236619 -0.119759 -0.964193
5305.996094 4506.129395 5312.709961 0.236619 -0.119759 -0.964193
5514.184570 4722.349609 5336.944824 0.236619 -0.119759 -0.964193
5514.184570 4722.349609 5336.944824 0.897177 -0.406654 0.172354
5311.270020 4375.867676 5575.710449 0.897177 -0.406654 0.172354
5225.650391 4089.098145 5344.790527 0.897177 -0.406654 0.172354
5357.776855 4993.665527 5349.923828 -0.370672 0.588353 0.718640
5305.161621 4687.029785 5573.828613 -0.370672 0.588353 0.718640
5738.754883 5345.203125 5258.625977 -0.370672 0.588353 0.718640
5305.996094 4506.129395 5312.709961 -0.990534 0.111333 -0.080296
5305.161621 4687.029785 5573.828613 -0.990534 0.111333 -0.080296
5357.776855 4993.665527 5349.923828 -0.990534 0.111333 -0.080296
5311.270020 4375.867676 5575.710449 -0.870612 -0.123530 0.476209
5190.104980 4134.187988 5291.502441 -0.870612 -0.123530 0.476209
5225.650391 4089.098145 5344.790527 -0.870612 -0.123530 0.476209
5190.104980 4134.187988 5291.502441 -0.929530 0.301715 -0.211995
5305.161621 4687.029785 5573.828613 -0.929530 0.301715 -0.211995
5305.996094 4506.129395 5312.709961 -0.929530 0.301715 -0.211995
5514.184570 4722.349609 5336.944824 0.892314 -0.276895 0.356518
5738.754883 5345.203125 5258.625977 0.892314 -0.276895 0.356518
5311.270020 4375.867676 5575.710449 0.892314 -0.276895 0.356518
5738.754883 5345.203125 5258.625977 0.571737 0.016185 0.820277
5305.161621 4687.029785 5573.828613 0.571737 0.016185 0.820277
5311.270020 4375.867676 5575.710449 0.571737 0.016185 0.820277
5190.104980 4134.187988 5291.502441 -0.914951 -0.015522 0.403266
5311.270020 4375.867676 5575.710449 -0.914951 -0.015522 0.403266
5305.161621 4687.029785 5573.828613 -0.914951 -0.015522 0.403266
5194.673828 4125.687988 6052.351562 -0.966902 0.113265 -0.228629
5319.712891 4903.527344 5908.892578 -0.966902 0.113265 -0.228629
5295.417969 4440.707031 5782.354492 -0.966902 0.113265 -0.228629
5295.417969 4440.707031 5782.354492 0.189969 0.249634 -0.949523
5319.712891 4903.527344 5908.892578 0.189969 0.249634 -0.949523
5733.693359 5297.641113 6095.331055 0.189969 0.249634 -0.949523
5447.356445 4512.702637 5968.712891 0.795777 -0.197970 -0.572317
5295.417969 4440.707031 5782.354492 0.795777 -0.197970 -0.572317
5733.693359 5297.641113 6095.331055 0.795777 -0.197970 -0.572317
5223.336914 4074.976074 6058.083496 0.761854 -0.478942 -0.436112
5295.417969 4440.707031 5782.354492 0.761854 -0.478942 -0.436112
5447.356445 4512.702637 5968.712891 0.761854 -0.478942 -0.436112
5223.336914 4074.976074 6058.083496 -0.586783 -0.410547 -0.697952
5194.673828 4125.687988 6052.351562 -0.586783 -0.410547 -0.697952
5295.417969 4440.707031 5782.354492 -0.586783 -0.410547 -0.697952
5194.673828 4125.687988 6052.351562 -0.885112 0.237757 0.400059
5205.324219 4123.692383 6077.101074 -0.885112 0.237757 0.400059
5229.643066 4161.550293 6108.406250 -0.885112 0.237757 0.400059
5194.673828 4125.687988 6052.351562 -0.884566 0.218222 0.412216
5229.643066 4161.550293 6108.406250 -0.884566 0.218222 0.412216
5319.712891 4903.527344 5908.892578 -0.884566 0.218222 0.412216
5397.105957 4670.746094 6157.355469 -0.962764 -0.033802 0.268220
5396.543945 4925.614258 6187.457520 -0.962764 -0.033802 0.268220
5319.712891 4903.527344 5908.892578 -0.962764 -0.033802 0.268220
5755.000977 5176.015625 6264.461426 0.906718 -0.279869 -0.315492
5447.356445 4512.702637 5968.712891 0.906718 -0.279869 -0.315492
5733.693359 5297.641113 6095.331055 0.906718 -0.279869 -0.315492
5229.643066 4161.550293 6108.406250 0.824658 -0.327950 0.460857
5223.336914 4074.976074 6058.083496 0.824658 -0.327950 0.460857
5447.356445 4512.702637 5968.712891 0.824658 -0.327950 0.460857
5229.643066 4161.550293 6108.406250 -0.845668 0.231912 0.480690
5397.105957 4670.746094 6157.355469 -0.845668 0.231912 0.480690
5319.712891 4903.527344 5908.892578 -0.845668 0.231912 0.480690
5229.643066 4161.550293 6108.406250 0.817587 -0.315208 0.481867
5447.356445 4512.702637 5968.712891 0.817587 -0.315208 0.481867
5397.105957 4670.746094 6157.355469 0.817587 -0.315208 0.481867
5397.105957 4670.746094 6157.355469 0.581452 -0.540718 0.607896
5447.356445 4512.702637 5968.712891 0.581452 -0.540718 0.607896
5755.000977 5176.015625 6264.461426 0.581452 -0.540718 0.607896
5319.712891 4903.527344 5908.892578 -0.330092 0.664081 -0.670847
6075.924316 5831.110840 6455.024414 -0.330092 0.664081 -0.670847
5733.693359 5297.641113 6095.331055 -0.330092 0.664081 -0.670847
5319.712891 4903.527344 5908.892578 -0.766137 0.621926 0.161997
5396.543945 4925.614258 6187.457520 -0.766137 0.621926 0.161997
5896.566895 5479.883301 6424.324219 -0.766137 0.621926 0.161997
6075.924316 5831.110840 6455.024414 -0.795949 0.364191 0.483561
5319.712891 4903.527344 5908.892578 -0.795949 0.364191 0.483561
5896.566895 5479.883301 6424.324219 -0.795949 0.364191 0.483561
5755.000977 5176.015625 6264.461426 0.796342 -0.439031 -0.416043
5733.693359 5297.641113 6095.331055 0.796342 -0.439031 -0.416043
6314.238770 5958.829102 6508.824219 0.796342 -0.439031 -0.416043
5755.000977 5176.015625 6264.461426 -0.130081 -0.116579 0.984626
5396.543945 4925.614258 6187.457520 -0.130081 -0.116579 0.984626
5397.105957 4670.746094 6157.355469 -0.130081 -0.116579 0.984626
5755.000977 5176.015625 6264.461426 0.187965 -0.524454 0.830432
5896.566895 5479.883301 6424.324219 0.187965 -0.524454 0.830432
5396.543945 4925.614258 6187.457520 0.187965 -0.524454 0.830432
6075.924316 5831.110840 6455.024414 -0.158783 0.619958 -0.768401
6314.238770 5958.829102 6508.824219 -0.158783 0.619958 -0.768401
5733.693359 5297.641113 6095.331055 -0.158783 0.619958 -0.768401
6424.268066 6083.574707 6666.960938 0.825941 -0.544816 -0.144903
5755.000977 5176.015625 6264.461426 0.825941 -0.544816 -0.144903
6314.238770 5958.829102 6508.824219 0.825941 -0.544816 -0.144903
7614.738281 6263.633301 6457.944336 0.134860 0.892409 0.430603
7606.524414 6276.648438 6433.543457 0.134860 0.892409 0.430603
6957.950195 6291.160156 6606.595215 0.134860 0.892409 0.430603
6522.529785 6295.092773 6648.280762 0.004833 0.380525 -0.924758
6314.238770 5958.829102 6508.824219 0.004833 0.380525 -0.924758
6075.924316 5831.110840 6455.024414 0.004833 0.380525 -0.924758
5755.000977 5176.015625 6264.461426 0.245222 -0.538394 0.806225
6424.268066 6083.574707 6666.960938 0.245222 -0.538394 0.806225
5896.566895 5479.883301 6424.324219 0.245222 -0.538394 0.806225
6957.950195 6291.160156 6606.595215 -0.077675 -0.974746 -0.209374
7606.524414 6276.648438 6433.543457 -0.077675 -0.974746 -0.209374
7611.643555 6256.007812 6527.737305 -0.077675 -0.974746 -0.209374
7614.738281 6263.633301 6457.944336 0.014614 -0.969634 0.244124
6957.950195 6291.160156 6606.595215 0.014614 -0.969634 0.244124
6522.529785 6295.092773 6648.280762 0.014614 -0.969634 0.244124
6314.238770 5958.829102 6508.824219 0.371062 -0.837031 0.402109
6957.950195 6291.160156 6606.595215 0.371062 -0.837031 0.402109
6424.268066 6083.574707 6666.960938 0.371062 -0.837031 0.402109
6314.238770 5958.829102 6508.824219 -0.082464 0.424937 -0.901459
6522.529785 6295.092773 6648.280762 -0.082464 0.424937 -0.901459
6957.950195 6291.160156 6606.595215 -0.082464 0.424937 -0.901459
7611.643555 6256.007812 6527.737305 0.366225 0.923129 0.117099
7614.738281 6263.633301 6457.944336 0.366225 0.923129 0.117099
7091.695312 6441.919434 6688.265137 0.366225 0.923129 0.117099
6522.529785 6295.092773 6648.280762 -0.113187 0.644652 -0.756050
7091.695312 6441.919434 6688.265137 -0.113187 0.644652 -0.756050
7614.738281 6263.633301 6457.944336 -0.113187 0.644652 -0.756050
6424.268066 6083.574707 6666.960938 -0.632036 0.258911 0.730408
6075.924316 5831.110840 6455.024414 -0.632036 0.258911 0.730408
5896.566895 5479.883301 6424.324219 -0.632036 0.258911 0.730408
6522.529785 6295.092773 6648.280762 -0.662638 0.365560 0.653664
6075.924316 5831.110840 6455.024414 -0.662638 0.365560 0.653664
6424.268066 6083.574707 6666.960938 -0.662638 0.365560 0.653664
7611.643555 6256.007812 6527.737305 0.426778 0.710745 0.559197
7091.695312 6441.919434 6688.265137 0.426778 0.710745 0.559197
7256.530762 6337.554199 6695.112305 0.426778 0.710745 0.559197
7611.643555 6256.007812 6527.737305 0.006006 -0.893888 0.448251
7256.530762 6337.554199 6695.112305 0.006006 -0.893888 0.448251
6957.950195 6291.160156 6606.595215 0.006006 -0.893888 0.448251
6957.950195 6291.160156 6606.595215 0.271275 -0.836085 -0.476835
7256.530762 6337.554199 6695.112305 0.271275 -0.836085 -0.476835
6424.268066 6083.574707 6666.960938 0.271275 -0.836085 -0.476835
7091.695312 6441.919434 6688.265137 -0.104147 0.135399 0.985302
6522.529785 6295.092773 6648.280762 -0.104147 0.135399 0.985302
6424.268066 6083.574707 6666.960938 -0.104147 0.135399 0.985302
6424.268066 6083.574707 6666.960938 -0.036309 0.008216 0.999307
7256.530762 6337.554199 6695.112305 -0.036309 0.008216 0.999307
7091.695312 6441.919434 6688.265137 -0.036309 0.008216 0.999307
3 0 1 2
3 3 4 5
3 6 7 8
3 9 10 11
3 12 13 14
3 15 16 17
3 18 19 20
3 21 22 23
3 24 25 26
3 27 28 29
3 30 31 32
3 33 34 35
3 36 37 38
3 39 40 41
3 42 43 44
3 45 46 47
3 48 49 50
3 51 52 53
3 54 55 56
3 57 58 59
3 60 61 62
3 63 64 65
3 66 67 68
3 69 70 71
3 72 73 74
3 75 76 77
3 78 79 80
3 81 82 83
3 84 85 86
3 87 88 89
3 90 91 92
3 93 94 95
3 96 97 98
3 99 100 101
3 102 103 104
3 105 106 107
3 108 109 110
3 111 112 113
3 114 115 116
3 117 118 119
3 120 121 122
3 123 124 125
3 126 127 128
3 129 130 131
3 132 133 134
3 135 136 137
3 138 139 140
3 141 142 143
3 144 145 146
3 147 148 149
3 150 151 152
3 153 154 155
3 156 157 158
3 159 160 161
3 162 163 164
3 165 166 167
3 168 169 170
3 171 172 173
3 174 175 176
3 177 178 179
3 180 181 182
3 183 184 185
3 186 187 188
3 189 190 191
3 192 193 194
3 195 196 197
3 198 199 200
3 201 202 203
3 204 205 206
