ply
format ascii 1.0
comment Created by Blender 2.80 (sub 75) - www.blender.org, source file: 'downsample_ccf.blend'
element vertex 228
property float x
property float y
property float z
property float nx
property float ny
property float nz
element face 76
property list uchar uint vertex_indices
end_header
5553.801758 4921.836426 1165.815308 0.634837 -0.288739 -0.716667
5592.083984 4802.506836 1247.803223 0.634837 -0.288739 -0.716667
5466.410156 4791.811035 1140.788208 0.634837 -0.288739 -0.716667
5466.410156 4791.811035 1140.788208 -0.460389 0.290700 -0.838770
5009.821289 4563.408203 1312.243896 -0.460389 0.290700 -0.838770
4770.243652 4835.479004 1538.038574 -0.460389 0.290700 -0.838770
4770.243652 4835.479004 1538.038574 -0.424677 0.437945 -0.792372
5553.801758 4921.836426 1165.815308 -0.424677 0.437945 -0.792372
5466.410156 4791.811035 1140.788208 -0.424677 0.437945 -0.792372
5466.410156 4791.811035 1140.788208 0.214211 -0.823069 -0.525996
5244.461426 4603.884277 1344.464355 0.214211 -0.823069 -0.525996
5009.821289 4563.408203 1312.243896 0.214211 -0.823069 -0.525996
5466.410156 4791.811035 1140.788208 0.383198 -0.848396 -0.365217
5592.083984 4802.506836 1247.803223 0.383198 -0.848396 -0.365217
5244.461426 4603.884277 1344.464355 0.383198 -0.848396 -0.365217
5592.083984 4802.506836 1247.803223 0.919015 0.024495 -0.393460
5553.801758 4921.836426 1165.815308 0.919015 0.024495 -0.393460
5614.598145 4895.444824 1306.176025 0.919015 0.024495 -0.393460
4770.243652 4835.479004 1538.038574 -0.338835 0.774982 -0.533473
4968.284180 4907.885742 1517.439453 -0.338835 0.774982 -0.533473
5553.801758 4921.836426 1165.815308 -0.338835 0.774982 -0.533473
5244.461426 4603.884277 1344.464355 0.498632 -0.544437 0.674503
5592.083984 4802.506836 1247.803223 0.498632 -0.544437 0.674503
5614.598145 4895.444824 1306.176025 0.498632 -0.544437 0.674503
5244.461426 4603.884277 1344.464355 0.212423 -0.855481 -0.472259
4648.832031 4350.652344 1535.270142 0.212423 -0.855481 -0.472259
5009.821289 4563.408203 1312.243896 0.212423 -0.855481 -0.472259
5553.801758 4921.836426 1165.815308 0.069671 0.985437 0.155111
4968.284180 4907.885742 1517.439453 0.069671 0.985437 0.155111
5614.598145 4895.444824 1306.176025 0.069671 0.985437 0.155111
5253.234863 4885.789062 1451.001587 0.185709 0.834356 0.519001
5614.598145 4895.444824 1306.176025 0.185709 0.834356 0.519001
4968.284180 4907.885742 1517.439453 0.185709 0.834356 0.519001
5009.821289 4563.408203 1312.243896 -0.582251 0.150371 -0.798982
4648.832031 4350.652344 1535.270142 -0.582251 0.150371 -0.798982
4770.243652 4835.479004 1538.038574 -0.582251 0.150371 -0.798982
5244.461426 4603.884277 1344.464355 0.357679 -0.339849 0.869809
5614.598145 4895.444824 1306.176025 0.357679 -0.339849 0.869809
5253.234863 4885.789062 1451.001587 0.357679 -0.339849 0.869809
4648.832031 4350.652344 1535.270142 0.315515 -0.919319 -0.235164
5244.461426 4603.884277 1344.464355 0.315515 -0.919319 -0.235164
4528.601562 4260.982422 1724.502563 0.315515 -0.919319 -0.235164
4749.942383 4827.411621 1705.673096 0.194362 0.800097 0.567510
5253.234863 4885.789062 1451.001587 0.194362 0.800097 0.567510
4968.284180 4907.885742 1517.439453 0.194362 0.800097 0.567510
4770.243652 4835.479004 1538.038574 -0.345699 0.937969 -0.026562
4491.578613 4738.926758 1755.312988 -0.345699 0.937969 -0.026562
4968.284180 4907.885742 1517.439453 -0.345699 0.937969 -0.026562
4164.226562 4173.132812 1780.096680 0.173471 -0.928063 -0.329557
4648.832031 4350.652344 1535.270142 0.173471 -0.928063 -0.329557
4528.601562 4260.982422 1724.502563 0.173471 -0.928063 -0.329557
4491.578613 4738.926758 1755.312988 -0.317434 0.947562 0.036897
4749.942383 4827.411621 1705.673096 -0.317434 0.947562 0.036897
4968.284180 4907.885742 1517.439453 -0.317434 0.947562 0.036897
5253.234863 4885.789062 1451.001587 0.544214 -0.311349 0.779033
4314.903809 4532.165527 1965.168335 0.544214 -0.311349 0.779033
5244.461426 4603.884277 1344.464355 0.544214 -0.311349 0.779033
4528.601562 4260.982422 1724.502563 0.549073 -0.269440 0.791152
5244.461426 4603.884277 1344.464355 0.549073 -0.269440 0.791152
4314.903809 4532.165527 1965.168335 0.549073 -0.269440 0.791152
4648.832031 4350.652344 1535.270142 -0.483739 0.126085 -0.866083
4164.226562 4173.132812 1780.096680 -0.483739 0.126085 -0.866083
4770.243652 4835.479004 1538.038574 -0.483739 0.126085 -0.866083
4164.226562 4173.132812 1780.096680 -0.530443 0.182817 -0.827773
3986.322510 4510.335449 1968.571167 -0.530443 0.182817 -0.827773
4770.243652 4835.479004 1538.038574 -0.530443 0.182817 -0.827773
3986.322510 4510.335449 1968.571167 -0.484390 0.838816 -0.248501
4491.578613 4738.926758 1755.312988 -0.484390 0.838816 -0.248501
4770.243652 4835.479004 1538.038574 -0.484390 0.838816 -0.248501
5253.234863 4885.789062 1451.001587 0.433594 0.143058 0.889680
4749.942383 4827.411621 1705.673096 0.433594 0.143058 0.889680
4314.903809 4532.165527 1965.168335 0.433594 0.143058 0.889680
4164.226562 4173.132812 1780.096680 -0.583947 0.138959 -0.799810
3595.132812 4169.699707 2194.999268 -0.583947 0.138959 -0.799810
3986.322510 4510.335449 1968.571167 -0.583947 0.138959 -0.799810
4491.578613 4738.926758 1755.312988 -0.247972 0.910178 0.331792
3876.976318 4396.179688 2236.208252 -0.247972 0.910178 0.331792
4749.942383 4827.411621 1705.673096 -0.247972 0.910178 0.331792
4491.578613 4738.926758 1755.312988 -0.301278 0.915300 0.267314
3986.322510 4510.335449 1968.571167 -0.301278 0.915300 0.267314
3876.976318 4396.179688 2236.208252 -0.301278 0.915300 0.267314
4314.903809 4532.165527 1965.168335 0.537048 -0.051294 0.841991
4749.942383 4827.411621 1705.673096 0.537048 -0.051294 0.841991
3876.976318 4396.179688 2236.208252 0.537048 -0.051294 0.841991
4164.226562 4173.132812 1780.096680 -0.589049 0.023120 -0.807767
3648.346924 3974.428711 2150.604736 -0.589049 0.023120 -0.807767
3595.132812 4169.699707 2194.999268 -0.589049 0.023120 -0.807767
4164.226562 4173.132812 1780.096680 0.182280 -0.939527 -0.289937
4528.601562 4260.982422 1724.502563 0.182280 -0.939527 -0.289937
3732.592285 3936.903076 2274.224365 0.182280 -0.939527 -0.289937
3986.322510 4510.335449 1968.571167 -0.685133 0.369565 -0.627705
3595.132812 4169.699707 2194.999268 -0.685133 0.369565 -0.627705
3651.438232 4334.474609 2230.554688 -0.685133 0.369565 -0.627705
4164.226562 4173.132812 1780.096680 0.104335 -0.929669 -0.353311
3732.592285 3936.903076 2274.224365 0.104335 -0.929669 -0.353311
3648.346924 3974.428711 2150.604736 0.104335 -0.929669 -0.353311
4528.601562 4260.982422 1724.502563 0.618994 -0.268289 0.738151
3743.094238 4162.471191 2347.402832 0.618994 -0.268289 0.738151
3732.592285 3936.903076 2274.224365 0.618994 -0.268289 0.738151
3651.438232 4334.474609 2230.554688 -0.259462 0.922038 0.287273
3876.976318 4396.179688 2236.208252 -0.259462 0.922038 0.287273
3986.322510 4510.335449 1968.571167 -0.259462 0.922038 0.287273
3743.094238 4162.471191 2347.402832 0.624897 -0.181448 0.759329
4528.601562 4260.982422 1724.502563 0.624897 -0.181448 0.759329
4314.903809 4532.165527 1965.168335 0.624897 -0.181448 0.759329
3876.976318 4396.179688 2236.208252 0.493227 0.126906 0.860594
3743.094238 4162.471191 2347.402832 0.493227 0.126906 0.860594
4314.903809 4532.165527 1965.168335 0.493227 0.126906 0.860594
3732.592285 3936.903076 2274.224365 -0.823776 -0.329390 0.461405
3595.132812 4169.699707 2194.999268 -0.823776 -0.329390 0.461405
3648.346924 3974.428711 2150.604736 -0.823776 -0.329390 0.461405
3732.592285 3936.903076 2274.224365 -0.709194 -0.187467 0.679632
3743.094238 4162.471191 2347.402832 -0.709194 -0.187467 0.679632
3595.132812 4169.699707 2194.999268 -0.709194 -0.187467 0.679632
3651.438232 4334.474609 2230.554688 -0.712150 0.093206 0.695813
3595.132812 4169.699707 2194.999268 -0.712150 0.093206 0.695813
3743.094238 4162.471191 2347.402832 -0.712150 0.093206 0.695813
3743.094238 4162.471191 2347.402832 -0.157179 0.496274 0.853819
3876.976318 4396.179688 2236.208252 -0.157179 0.496274 0.853819
3651.438232 4334.474609 2230.554688 -0.157179 0.496274 0.853819
3597.322510 4163.092773 9160.249023 -0.663153 -0.179481 -0.726647
3715.599609 4260.117676 9028.341797 -0.663153 -0.179481 -0.726647
3741.877686 3959.701660 9078.562500 -0.663153 -0.179481 -0.726647
3597.322510 4163.092773 9160.249023 -0.795152 0.183583 -0.577953
3640.182861 4330.004395 9154.299805 -0.795152 0.183583 -0.577953
3715.599609 4260.117676 9028.341797 -0.795152 0.183583 -0.577953
3597.322510 4163.092773 9160.249023 -0.751956 -0.298346 -0.587836
3741.877686 3959.701660 9078.562500 -0.751956 -0.298346 -0.587836
3678.819580 3935.248535 9171.636719 -0.751956 -0.298346 -0.587836
4126.424805 4494.900391 9309.913086 0.594786 -0.081663 -0.799726
3741.877686 3959.701660 9078.562500 0.594786 -0.081663 -0.799726
3715.599609 4260.117676 9028.341797 0.594786 -0.081663 -0.799726
3715.599609 4260.117676 9028.341797 -0.113658 0.838326 -0.533190
3640.182861 4330.004395 9154.299805 -0.113658 0.838326 -0.533190
4126.424805 4494.900391 9309.913086 -0.113658 0.838326 -0.533190
3678.819580 3935.248535 9171.636719 -0.940919 -0.337765 -0.024199
3662.857422 3972.838623 9267.612305 -0.940919 -0.337765 -0.024199
3597.322510 4163.092773 9160.249023 -0.940919 -0.337765 -0.024199
4474.798828 4736.034668 9631.649414 -0.130005 0.855829 -0.500656
4126.424805 4494.900391 9309.913086 -0.130005 0.855829 -0.500656
3640.182861 4330.004395 9154.299805 -0.130005 0.855829 -0.500656
3640.182861 4330.004395 9154.299805 -0.729531 0.210527 0.650740
3597.322510 4163.092773 9160.249023 -0.729531 0.210527 0.650740
3852.906250 4434.686035 9358.913086 -0.729531 0.210527 0.650740
3852.906250 4434.686035 9358.913086 -0.701761 0.151145 0.696194
3597.322510 4163.092773 9160.249023 -0.701761 0.151145 0.696194
3662.857422 3972.838623 9267.612305 -0.701761 0.151145 0.696194
4126.424805 4494.900391 9309.913086 0.626249 -0.116761 -0.770830
4277.989746 4166.538086 9482.788086 0.626249 -0.116761 -0.770830
3741.877686 3959.701660 9078.562500 0.626249 -0.116761 -0.770830
4474.798828 4736.034668 9631.649414 -0.431413 0.902061 -0.012989
3640.182861 4330.004395 9154.299805 -0.431413 0.902061 -0.012989
3852.906250 4434.686035 9358.913086 -0.431413 0.902061 -0.012989
3741.877686 3959.701660 9078.562500 0.388740 -0.921099 0.021375
4331.237793 4222.251953 9673.967773 0.388740 -0.921099 0.021375
3678.819580 3935.248535 9171.636719 0.388740 -0.921099 0.021375
4331.237793 4222.251953 9673.967773 0.112669 -0.918695 0.378557
3662.857422 3972.838623 9267.612305 0.112669 -0.918695 0.378557
3678.819580 3935.248535 9171.636719 0.112669 -0.918695 0.378557
3741.877686 3959.701660 9078.562500 0.200587 -0.954147 0.222191
4277.989746 4166.538086 9482.788086 0.200587 -0.954147 0.222191
4331.237793 4222.251953 9673.967773 0.200587 -0.954147 0.222191
4713.359863 4810.034668 9641.706055 0.553550 -0.173348 -0.814575
4277.989746 4166.538086 9482.788086 0.553550 -0.173348 -0.814575
4126.424805 4494.900391 9309.913086 0.553550 -0.173348 -0.814575
4713.359863 4810.034668 9641.706055 -0.258731 0.886296 -0.384107
4126.424805 4494.900391 9309.913086 -0.258731 0.886296 -0.384107
4474.798828 4736.034668 9631.649414 -0.258731 0.886296 -0.384107
4331.237793 4222.251953 9673.967773 -0.532978 0.052372 0.844507
3852.906250 4434.686035 9358.913086 -0.532978 0.052372 0.844507
3662.857422 3972.838623 9267.612305 -0.532978 0.052372 0.844507
4277.989746 4166.538086 9482.788086 0.261914 -0.943700 0.202065
4935.966309 4438.506348 9900.094727 0.261914 -0.943700 0.202065
4331.237793 4222.251953 9673.967773 0.261914 -0.943700 0.202065
4713.359863 4810.034668 9641.706055 -0.288365 0.947967 -0.134926
4474.798828 4736.034668 9631.649414 -0.288365 0.947967 -0.134926
4839.067871 4880.612305 9868.908203 -0.288365 0.947967 -0.134926
4277.989746 4166.538086 9482.788086 0.582268 -0.199293 -0.788191
4713.359863 4810.034668 9641.706055 0.582268 -0.199293 -0.788191
4935.966309 4438.506348 9900.094727 0.582268 -0.199293 -0.788191
3852.906250 4434.686035 9358.913086 -0.540482 0.030008 0.840820
4331.237793 4222.251953 9673.967773 -0.540482 0.030008 0.840820
4804.147949 4445.532715 9969.987305 -0.540482 0.030008 0.840820
3852.906250 4434.686035 9358.913086 -0.523922 0.787534 0.324493
4839.067871 4880.612305 9868.908203 -0.523922 0.787534 0.324493
4474.798828 4736.034668 9631.649414 -0.523922 0.787534 0.324493
4839.067871 4880.612305 9868.908203 -0.527585 0.232189 0.817155
3852.906250 4434.686035 9358.913086 -0.527585 0.232189 0.817155
4804.147949 4445.532715 9969.987305 -0.527585 0.232189 0.817155
4839.067871 4880.612305 9868.908203 0.001091 0.954813 -0.297205
5305.736816 4906.770996 9954.659180 0.001091 0.954813 -0.297205
4713.359863 4810.034668 9641.706055 0.001091 0.954813 -0.297205
4935.966309 4438.506348 9900.094727 0.168409 -0.897389 0.407837
4804.147949 4445.532715 9969.987305 0.168409 -0.897389 0.407837
4331.237793 4222.251953 9673.967773 0.168409 -0.897389 0.407837
5305.736816 4906.770996 9954.659180 0.483712 -0.285564 -0.827330
4935.966309 4438.506348 9900.094727 0.483712 -0.285564 -0.827330
4713.359863 4810.034668 9641.706055 0.483712 -0.285564 -0.827330
5305.736816 4906.770996 9954.659180 0.357899 -0.175758 -0.917070
5640.235352 4868.109375 10092.611328 0.357899 -0.175758 -0.917070
4935.966309 4438.506348 9900.094727 0.357899 -0.175758 -0.917070
5305.736816 4906.770996 9954.659180 -0.044956 0.997213 -0.059546
4839.067871 4880.612305 9868.908203 -0.044956 0.997213 -0.059546
5502.106934 4930.295410 10200.365234 -0.044956 0.997213 -0.059546
4935.966309 4438.506348 9900.094727 0.189378 -0.875200 0.445153
5308.683594 4660.505859 10177.998047 0.189378 -0.875200 0.445153
4804.147949 4445.532715 9969.987305 0.189378 -0.875200 0.445153
5640.235352 4868.109375 10092.611328 0.525730 -0.850258 -0.025879
5308.683594 4660.505859 10177.998047 0.525730 -0.850258 -0.025879
4935.966309 4438.506348 9900.094727 0.525730 -0.850258 -0.025879
5308.683594 4660.505859 10177.998047 -0.454644 0.236017 0.858833
4839.067871 4880.612305 9868.908203 -0.454644 0.236017 0.858833
4804.147949 4445.532715 9969.987305 -0.454644 0.236017 0.858833
5640.235352 4868.109375 10092.611328 0.217379 0.939790 -0.263708
5305.736816 4906.770996 9954.659180 0.217379 0.939790 -0.263708
5502.106934 4930.295410 10200.365234 0.217379 0.939790 -0.263708
5502.106934 4930.295410 10200.365234 -0.447874 0.249929 0.858455
4839.067871 4880.612305 9868.908203 -0.447874 0.249929 0.858455
5308.683594 4660.505859 10177.998047 -0.447874 0.249929 0.858455
5619.498535 4889.006836 10205.170898 0.333782 0.935941 -0.112271
5640.235352 4868.109375 10092.611328 0.333782 0.935941 -0.112271
5502.106934 4930.295410 10200.365234 0.333782 0.935941 -0.112271
5308.683594 4660.505859 10177.998047 0.559277 -0.790452 0.249788
5640.235352 4868.109375 10092.611328 0.559277 -0.790452 0.249788
5619.498535 4889.006836 10205.170898 0.559277 -0.790452 0.249788
5502.106934 4930.295410 10200.365234 -0.055842 -0.042666 0.997528
5308.683594 4660.505859 10177.998047 -0.055842 -0.042666 0.997528
5619.498535 4889.006836 10205.170898 -0.055842 -0.042666 0.997528
3 0 1 2
3 3 4 5
3 6 7 8
3 9 10 11
3 12 13 14
3 15 16 17
3 18 19 20
3 21 22 23
3 24 25 26
3 27 28 29
3 30 31 32
3 33 34 35
3 36 37 38
3 39 40 41
3 42 43 44
3 45 46 47
3 48 49 50
3 51 52 53
3 54 55 56
3 57 58 59
3 60 61 62
3 63 64 65
3 66 67 68
3 69 70 71
3 72 73 74
3 75 76 77
3 78 79 80
3 81 82 83
3 84 85 86
3 87 88 89
3 90 91 92
3 93 94 95
3 96 97 98
3 99 100 101
3 102 103 104
3 105 106 107
3 108 109 110
3 111 112 113
3 114 115 116
3 117 118 119
3 120 121 122
3 123 124 125
3 126 127 128
3 129 130 131
3 132 133 134
3 135 136 137
3 138 139 140
3 141 142 143
3 144 145 146
3 147 148 149
3 150 151 152
3 153 154 155
3 156 157 158
3 159 160 161
3 162 163 164
3 165 166 167
3 168 169 170
3 171 172 173
3 174 175 176
3 177 178 179
3 180 181 182
3 183 184 185
3 186 187 188
3 189 190 191
3 192 193 194
3 195 196 197
3 198 199 200
3 201 202 203
3 204 205 206
3 207 208 209
3 210 211 212
3 213 214 215
3 216 217 218
3 219 220 221
3 222 223 224
3 225 226 227
