ply
format ascii 1.0
comment Created by Blender 2.80 (sub 75) - www.blender.org, source file: 'downsample_ccf.blend'
element vertex 93
property float x
property float y
property float z
property float nx
property float ny
property float nz
element face 31
property list uchar uint vertex_indices
end_header
6249.074707 3804.911621 4936.368652 -0.547389 -0.005097 -0.836863
6001.830078 3968.802246 5097.092285 -0.547389 -0.005097 -0.836863
6363.971680 4061.648438 4859.651367 -0.547389 -0.005097 -0.836863
6363.971680 4061.648438 4859.651367 -0.565043 0.470303 -0.677895
6001.830078 3968.802246 5097.092285 -0.565043 0.470303 -0.677895
6163.961426 4369.267090 5239.781738 -0.565043 0.470303 -0.677895
6376.138184 4365.577148 5326.305664 0.914922 -0.348715 0.203262
6249.074707 3804.911621 4936.368652 0.914922 -0.348715 0.203262
6363.971680 4061.648438 4859.651367 0.914922 -0.348715 0.203262
6163.961426 4369.267090 5239.781738 0.234285 0.240751 -0.941886
6001.830078 3968.802246 5097.092285 0.234285 0.240751 -0.941886
5833.072754 4271.970215 5132.606934 0.234285 0.240751 -0.941886
6376.138184 4365.577148 5326.305664 0.232320 0.812240 -0.535064
6363.971680 4061.648438 4859.651367 0.232320 0.812240 -0.535064
6163.961426 4369.267090 5239.781738 0.232320 0.812240 -0.535064
6249.074707 3804.911621 4936.368652 0.131422 -0.585924 0.799638
6376.138184 4365.577148 5326.305664 0.131422 -0.585924 0.799638
6001.830078 3968.802246 5097.092285 0.131422 -0.585924 0.799638
6163.961426 4369.267090 5239.781738 0.249093 0.197310 -0.948167
5833.072754 4271.970215 5132.606934 0.249093 0.197310 -0.948167
5869.496094 4531.918457 5196.270020 0.249093 0.197310 -0.948167
6376.138184 4365.577148 5326.305664 0.503131 -0.736158 0.452693
6206.983398 4283.054199 5380.110352 0.503131 -0.736158 0.452693
6001.830078 3968.802246 5097.092285 0.503131 -0.736158 0.452693
5869.496094 4531.918457 5196.270020 -0.739206 -0.060693 0.670739
5833.072754 4271.970215 5132.606934 -0.739206 -0.060693 0.670739
6048.085449 4559.914062 5395.622559 -0.739206 -0.060693 0.670739
6001.830078 3968.802246 5097.092285 -0.485686 -0.363483 0.794977
6048.085449 4559.914062 5395.622559 -0.485686 -0.363483 0.794977
5833.072754 4271.970215 5132.606934 -0.485686 -0.363483 0.794977
6163.961426 4369.267090 5239.781738 0.470335 0.712032 -0.521341
5869.496094 4531.918457 5196.270020 0.470335 0.712032 -0.521341
6048.085449 4559.914062 5395.622559 0.470335 0.712032 -0.521341
6001.830078 3968.802246 5097.092285 -0.531553 -0.348333 0.772085
6206.983398 4283.054199 5380.110352 -0.531553 -0.348333 0.772085
6048.085449 4559.914062 5395.622559 -0.531553 -0.348333 0.772085
6048.085449 4559.914062 5395.622559 0.278755 0.703671 -0.653562
6376.138184 4365.577148 5326.305664 0.278755 0.703671 -0.653562
6163.961426 4369.267090 5239.781738 0.278755 0.703671 -0.653562
6206.983398 4283.054199 5380.110352 0.259358 0.095003 0.961097
6376.138184 4365.577148 5326.305664 0.259358 0.095003 0.961097
6048.085449 4559.914062 5395.622559 0.259358 0.095003 0.961097
6086.438477 4543.220215 5973.471191 0.393038 0.196353 -0.898313
6382.750977 4384.361328 6068.393066 0.393038 0.196353 -0.898313
6223.903320 4307.446289 5982.080566 0.393038 0.196353 -0.898313
6382.750977 4384.361328 6068.393066 0.588427 -0.545021 -0.597248
6249.204590 3809.301758 6461.592285 0.588427 -0.545021 -0.597248
6223.903320 4307.446289 5982.080566 0.588427 -0.545021 -0.597248
6382.750977 4384.361328 6068.393066 0.141759 0.689073 0.710692
6086.438477 4543.220215 5973.471191 0.141759 0.689073 0.710692
6073.575684 4362.185059 6151.564941 0.141759 0.689073 0.710692
6086.438477 4543.220215 5973.471191 -0.506747 -0.324615 -0.798645
6223.903320 4307.446289 5982.080566 -0.506747 -0.324615 -0.798645
5913.805176 4065.568359 6277.153320 -0.506747 -0.324615 -0.798645
5856.593262 4403.473633 6191.729492 -0.714006 0.089912 -0.694343
5883.852539 4525.838379 6179.543457 -0.714006 0.089912 -0.694343
6086.438477 4543.220215 5973.471191 -0.714006 0.089912 -0.694343
5913.805176 4065.568359 6277.153320 -0.559848 -0.290926 -0.775843
5856.593262 4403.473633 6191.729492 -0.559848 -0.290926 -0.775843
6086.438477 4543.220215 5973.471191 -0.559848 -0.290926 -0.775843
6375.074219 4148.248535 6467.404785 0.075389 0.857526 0.508886
6382.750977 4384.361328 6068.393066 0.075389 0.857526 0.508886
6073.575684 4362.185059 6151.564941 0.075389 0.857526 0.508886
6073.575684 4362.185059 6151.564941 0.568871 0.555866 0.606134
6086.438477 4543.220215 5973.471191 0.568871 0.555866 0.606134
5883.852539 4525.838379 6179.543457 0.568871 0.555866 0.606134
6249.204590 3809.301758 6461.592285 -0.137110 -0.690561 -0.710160
5913.805176 4065.568359 6277.153320 -0.137110 -0.690561 -0.710160
6223.903320 4307.446289 5982.080566 -0.137110 -0.690561 -0.710160
5913.805176 4065.568359 6277.153320 -0.706781 -0.283519 -0.648134
5815.338867 4363.438965 6254.229492 -0.706781 -0.283519 -0.648134
5856.593262 4403.473633 6191.729492 -0.706781 -0.283519 -0.648134
5856.593262 4403.473633 6191.729492 -0.292590 0.881197 0.371325
5815.338867 4363.438965 6254.229492 -0.292590 0.881197 0.371325
5831.790039 4364.270020 6265.220215 -0.292590 0.881197 0.371325
5883.852539 4525.838379 6179.543457 -0.956406 0.191064 -0.220866
5856.593262 4403.473633 6191.729492 -0.956406 0.191064 -0.220866
5831.790039 4364.270020 6265.220215 -0.956406 0.191064 -0.220866
5913.805176 4065.568359 6277.153320 0.322563 0.216410 0.921477
6073.575684 4362.185059 6151.564941 0.322563 0.216410 0.921477
5883.852539 4525.838379 6179.543457 0.322563 0.216410 0.921477
6073.575684 4362.185059 6151.564941 -0.402580 0.532191 0.744784
5913.805176 4065.568359 6277.153320 -0.402580 0.532191 0.744784
6375.074219 4148.248535 6467.404785 -0.402580 0.532191 0.744784
5913.805176 4065.568359 6277.153320 0.443101 0.213482 0.870682
5883.852539 4525.838379 6179.543457 0.443101 0.213482 0.870682
5815.338867 4363.438965 6254.229492 0.443101 0.213482 0.870682
6382.750977 4384.361328 6068.393066 0.922615 -0.339477 -0.183133
6375.074219 4148.248535 6467.404785 0.922615 -0.339477 -0.183133
6249.204590 3809.301758 6461.592285 0.922615 -0.339477 -0.183133
6249.204590 3809.301758 6461.592285 -0.398113 0.132275 0.907750
6375.074219 4148.248535 6467.404785 -0.398113 0.132275 0.907750
5913.805176 4065.568359 6277.153320 -0.398113 0.132275 0.907750
3 0 1 2
3 3 4 5
3 6 7 8
3 9 10 11
3 12 13 14
3 15 16 17
3 18 19 20
3 21 22 23
3 24 25 26
3 27 28 29
3 30 31 32
3 33 34 35
3 36 37 38
3 39 40 41
3 42 43 44
3 45 46 47
3 48 49 50
3 51 52 53
3 54 55 56
3 57 58 59
3 60 61 62
3 63 64 65
3 66 67 68
3 69 70 71
3 72 73 74
3 75 76 77
3 78 79 80
3 81 82 83
3 84 85 86
3 87 88 89
3 90 91 92
