ply
format ascii 1.0
comment Created by Blender 2.80 (sub 75) - www.blender.org, source file: 'downsample_ccf.blend'
element vertex 24
property float x
property float y
property float z
property float nx
property float ny
property float nz
element face 8
property list uchar uint vertex_indices
end_header
6428.390137 4543.062012 5394.203125 -0.202800 -0.177719 -0.962958
6240.692871 4441.942383 5452.394531 -0.202800 -0.177719 -0.962958
6189.649902 4640.036133 5426.584961 -0.202800 -0.177719 -0.962958
6240.692871 4441.942383 5452.394531 -0.898630 -0.275983 -0.341024
6094.500977 4531.201660 5765.388184 -0.898630 -0.275983 -0.341024
6189.649902 4640.036133 5426.584961 -0.898630 -0.275983 -0.341024
6094.500977 4531.201660 5765.388184 -0.647167 0.759797 0.062322
6254.079102 4651.622559 5954.380371 -0.647167 0.759797 0.062322
6189.649902 4640.036133 5426.584961 -0.647167 0.759797 0.062322
6189.649902 4640.036133 5426.584961 0.367915 0.927565 -0.065275
6254.079102 4651.622559 5954.380371 0.367915 0.927565 -0.065275
6428.390137 4543.062012 5394.203125 0.367915 0.927565 -0.065275
6240.692871 4441.942383 5452.394531 0.451929 -0.887965 -0.085320
6428.390137 4543.062012 5394.203125 0.451929 -0.887965 -0.085320
6395.401855 4472.295898 5955.966309 0.451929 -0.887965 -0.085320
6240.692871 4441.942383 5452.394531 -0.276100 -0.950563 0.142121
6395.401855 4472.295898 5955.966309 -0.276100 -0.950563 0.142121
6094.500977 4531.201660 5765.388184 -0.276100 -0.950563 0.142121
6395.401855 4472.295898 5955.966309 0.778903 0.614923 0.123202
6428.390137 4543.062012 5394.203125 0.778903 0.614923 0.123202
6254.079102 4651.622559 5954.380371 0.778903 0.614923 0.123202
6094.500977 4531.201660 5765.388184 -0.542697 -0.421260 0.726650
6395.401855 4472.295898 5955.966309 -0.542697 -0.421260 0.726650
6254.079102 4651.622559 5954.380371 -0.542697 -0.421260 0.726650
3 0 1 2
3 3 4 5
3 6 7 8
3 9 10 11
3 12 13 14
3 15 16 17
3 18 19 20
3 21 22 23
