ply
format ascii 1.0
comment Created by Blender 2.80 (sub 75) - www.blender.org, source file: 'downsample_ccf.blend'
element vertex 234
property float x
property float y
property float z
property float nx
property float ny
property float nz
element face 78
property list uchar uint vertex_indices
end_header
3525.446533 3379.325928 4738.791504 0.226354 -0.944986 -0.236146
3959.378906 3407.034668 5043.849609 0.226354 -0.944986 -0.236146
3350.371094 3294.824951 4909.123535 0.226354 -0.944986 -0.236146
3545.306641 3749.504150 4871.637207 -0.572428 0.303997 -0.761520
3639.740234 4092.973877 4937.764648 -0.572428 0.303997 -0.761520
3525.446533 3379.325928 4738.791504 -0.572428 0.303997 -0.761520
3350.371094 3294.824951 4909.123535 -0.735016 0.263621 -0.624704
3545.306641 3749.504150 4871.637207 -0.735016 0.263621 -0.624704
3525.446533 3379.325928 4738.791504 -0.735016 0.263621 -0.624704
3959.378906 3407.034668 5043.849609 0.574514 0.012890 -0.818393
3525.446533 3379.325928 4738.791504 0.574514 0.012890 -0.818393
3972.905762 3469.792725 5054.333984 0.574514 0.012890 -0.818393
3639.740234 4092.973877 4937.764648 0.551359 0.140957 -0.822274
3972.905762 3469.792725 5054.333984 0.551359 0.140957 -0.822274
3525.446533 3379.325928 4738.791504 0.551359 0.140957 -0.822274
3639.740234 4092.973877 4937.764648 -0.262250 0.251473 -0.931658
3545.306641 3749.504150 4871.637207 -0.262250 0.251473 -0.931658
3510.404785 4248.700195 5016.204590 -0.262250 0.251473 -0.931658
3959.378906 3407.034668 5043.849609 0.208200 -0.968833 -0.134221
3794.355225 3310.835693 5482.250488 0.208200 -0.968833 -0.134221
3350.371094 3294.824951 4909.123535 0.208200 -0.968833 -0.134221
3972.905762 3469.792725 5054.333984 0.884867 0.451933 -0.112988
3639.740234 4092.973877 4937.764648 0.884867 0.451933 -0.112988
3871.875488 3674.554688 5082.127930 0.884867 0.451933 -0.112988
3545.306641 3749.504150 4871.637207 -0.756753 0.275572 -0.592777
3350.371094 3294.824951 4909.123535 -0.756753 0.275572 -0.592777
3059.126221 3286.521240 5277.073242 -0.756753 0.275572 -0.592777
3510.404785 4248.700195 5016.204590 0.701968 0.683623 -0.199754
3431.881104 4386.939941 5213.360352 0.701968 0.683623 -0.199754
3639.740234 4092.973877 4937.764648 0.701968 0.683623 -0.199754
3059.126221 3286.521240 5277.073242 -0.712971 0.148605 -0.685265
3510.404785 4248.700195 5016.204590 -0.712971 0.148605 -0.685265
3545.306641 3749.504150 4871.637207 -0.712971 0.148605 -0.685265
3350.371094 3294.824951 4909.123535 -0.099334 -0.989918 -0.100966
3021.682129 3264.659424 5528.254883 -0.099334 -0.989918 -0.100966
3059.126221 3286.521240 5277.073242 -0.099334 -0.989918 -0.100966
3639.740234 4092.973877 4937.764648 0.789702 0.610926 -0.056041
3431.881104 4386.939941 5213.360352 0.789702 0.610926 -0.056041
3522.515625 4308.865723 5639.420410 0.789702 0.610926 -0.056041
3871.875488 3674.554688 5082.127930 0.873150 0.487377 0.008583
3639.740234 4092.973877 4937.764648 0.873150 0.487377 0.008583
3796.036133 3800.786133 5629.373535 0.873150 0.487377 0.008583
3972.905762 3469.792725 5054.333984 0.857061 0.374907 0.353401
3871.875488 3674.554688 5082.127930 0.857061 0.374907 0.353401
3803.453857 3352.035156 5590.208984 0.857061 0.374907 0.353401
3796.036133 3800.786133 5629.373535 0.880525 0.473998 0.001264
3639.740234 4092.973877 4937.764648 0.880525 0.473998 0.001264
3522.515625 4308.865723 5639.420410 0.880525 0.473998 0.001264
3803.453857 3352.035156 5590.208984 0.783053 -0.600200 0.163055
3794.355225 3310.835693 5482.250488 0.783053 -0.600200 0.163055
3959.378906 3407.034668 5043.849609 0.783053 -0.600200 0.163055
3959.378906 3407.034668 5043.849609 0.938951 -0.243060 0.243499
3972.905762 3469.792725 5054.333984 0.938951 -0.243060 0.243499
3803.453857 3352.035156 5590.208984 0.938951 -0.243060 0.243499
3350.371094 3294.824951 4909.123535 0.022554 -0.999691 0.010455
3794.355225 3310.835693 5482.250488 0.022554 -0.999691 0.010455
3134.785645 3297.926025 5670.730469 0.022554 -0.999691 0.010455
3803.453857 3352.035156 5590.208984 0.990664 0.004484 0.136256
3871.875488 3674.554688 5082.127930 0.990664 0.004484 0.136256
3796.036133 3800.786133 5629.373535 0.990664 0.004484 0.136256
3350.371094 3294.824951 4909.123535 0.207946 -0.976120 0.062837
3134.785645 3297.926025 5670.730469 0.207946 -0.976120 0.062837
3021.682129 3264.659424 5528.254883 0.207946 -0.976120 0.062837
3059.126221 3286.521240 5277.073242 -0.884273 0.323412 -0.336848
3174.114258 3964.021973 5625.690430 -0.884273 0.323412 -0.336848
3510.404785 4248.700195 5016.204590 -0.884273 0.323412 -0.336848
3431.881104 4386.939941 5213.360352 -0.891667 0.117143 -0.437272
3510.404785 4248.700195 5016.204590 -0.891667 0.117143 -0.437272
3174.114258 3964.021973 5625.690430 -0.891667 0.117143 -0.437272
3174.114258 3964.021973 5625.690430 -0.912178 0.352941 -0.208241
3370.766113 4427.646484 5550.060059 -0.912178 0.352941 -0.208241
3431.881104 4386.939941 5213.360352 -0.912178 0.352941 -0.208241
3431.881104 4386.939941 5213.360352 0.610757 0.791673 0.015147
3370.766113 4427.646484 5550.060059 0.610757 0.791673 0.015147
3522.515625 4308.865723 5639.420410 0.610757 0.791673 0.015147
3803.453857 3352.035156 5590.208984 0.968587 -0.005687 0.248608
3796.036133 3800.786133 5629.373535 0.968587 -0.005687 0.248608
3781.332520 3507.394531 5679.948242 0.968587 -0.005687 0.248608
3021.682129 3264.659424 5528.254883 -0.988409 0.051325 -0.142877
3010.931396 3401.881592 5651.921387 -0.988409 0.051325 -0.142877
3059.126221 3286.521240 5277.073242 -0.988409 0.051325 -0.142877
3174.114258 3964.021973 5625.690430 -0.902854 0.406025 0.141417
3328.563965 4294.161621 5663.878418 -0.902854 0.406025 0.141417
3370.766113 4427.646484 5550.060059 -0.902854 0.406025 0.141417
3059.126221 3286.521240 5277.073242 -0.942936 0.264271 -0.202565
3010.931396 3401.881592 5651.921387 -0.942936 0.264271 -0.202565
3174.114258 3964.021973 5625.690430 -0.942936 0.264271 -0.202565
3794.355225 3310.835693 5482.250488 0.116949 -0.931111 0.345477
3803.453857 3352.035156 5590.208984 0.116949 -0.931111 0.345477
3134.785645 3297.926025 5670.730469 0.116949 -0.931111 0.345477
3134.785645 3297.926025 5670.730469 -0.570859 -0.573891 0.587171
3010.931396 3401.881592 5651.921387 -0.570859 -0.573891 0.587171
3021.682129 3264.659424 5528.254883 -0.570859 -0.573891 0.587171
3522.515625 4308.865723 5639.420410 0.048332 0.639177 0.767540
3370.766113 4427.646484 5550.060059 0.048332 0.639177 0.767540
3328.563965 4294.161621 5663.878418 0.048332 0.639177 0.767540
3134.785645 3297.926025 5670.730469 0.143064 -0.479679 0.865702
3803.453857 3352.035156 5590.208984 0.143064 -0.479679 0.865702
3781.332520 3507.394531 5679.948242 0.143064 -0.479679 0.865702
3174.114258 3964.021973 5625.690430 -0.657575 0.224445 0.719179
3010.931396 3401.881592 5651.921387 -0.657575 0.224445 0.719179
3328.563965 4294.161621 5663.878418 -0.657575 0.224445 0.719179
3328.563965 4294.161621 5663.878418 -0.124549 0.031047 0.991728
3010.931396 3401.881592 5651.921387 -0.124549 0.031047 0.991728
3134.785645 3297.926025 5670.730469 -0.124549 0.031047 0.991728
3781.332520 3507.394531 5679.948242 -0.017590 0.010298 0.999792
3328.563965 4294.161621 5663.878418 -0.017590 0.010298 0.999792
3134.785645 3297.926025 5670.730469 -0.017590 0.010298 0.999792
3781.332520 3507.394531 5679.948242 0.307050 0.146704 0.940318
3796.036133 3800.786133 5629.373535 0.307050 0.146704 0.940318
3522.515625 4308.865723 5639.420410 0.307050 0.146704 0.940318
3781.332520 3507.394531 5679.948242 0.118046 0.088135 0.989089
3522.515625 4308.865723 5639.420410 0.118046 0.088135 0.989089
3328.563965 4294.161621 5663.878418 0.118046 0.088135 0.989089
3767.274902 3370.686768 5700.970703 -0.011182 -0.132075 -0.991177
3072.250244 3267.176270 5722.604492 -0.011182 -0.132075 -0.991177
2991.633789 3329.755127 5715.175293 -0.011182 -0.132075 -0.991177
3767.274902 3370.686768 5700.970703 -0.018553 0.004602 -0.999817
2991.633789 3329.755127 5715.175293 -0.018553 0.004602 -0.999817
3321.999512 4309.039062 5713.552734 -0.018553 0.004602 -0.999817
3784.975342 3713.593262 5730.750000 0.220642 0.073076 -0.972613
3767.274902 3370.686768 5700.970703 0.220642 0.073076 -0.972613
3612.290771 4144.596680 5723.958496 0.220642 0.073076 -0.972613
3767.274902 3370.686768 5700.970703 0.059256 0.041492 -0.997380
3321.999512 4309.039062 5713.552734 0.059256 0.041492 -0.997380
3612.290771 4144.596680 5723.958496 0.059256 0.041492 -0.997380
3072.250244 3267.176270 5722.604492 0.102066 -0.806916 -0.581781
3767.274902 3370.686768 5700.970703 0.102066 -0.806916 -0.581781
3727.825195 3311.083008 5776.718750 0.102066 -0.806916 -0.581781
3612.290771 4144.596680 5723.958496 0.158496 0.218870 -0.962795
3321.999512 4309.039062 5713.552734 0.158496 0.218870 -0.962795
3461.211182 4391.537598 5755.224121 0.158496 0.218870 -0.962795
2991.633789 3329.755127 5715.175293 -0.939689 0.316794 -0.128943
3334.628418 4397.997070 5840.074707 -0.939689 0.316794 -0.128943
3321.999512 4309.039062 5713.552734 -0.939689 0.316794 -0.128943
3334.628418 4397.997070 5840.074707 -0.311830 0.791614 -0.525461
3461.211182 4391.537598 5755.224121 -0.311830 0.791614 -0.525461
3321.999512 4309.039062 5713.552734 -0.311830 0.791614 -0.525461
3767.274902 3370.686768 5700.970703 0.967559 -0.028140 -0.251072
3784.975342 3713.593262 5730.750000 0.967559 -0.028140 -0.251072
3882.360596 3347.232178 6147.106445 0.967559 -0.028140 -0.251072
3882.360596 3347.232178 6147.106445 0.983504 0.073691 -0.165198
3784.975342 3713.593262 5730.750000 0.983504 0.073691 -0.165198
3858.104492 3666.064697 6144.922852 0.983504 0.073691 -0.165198
3858.104492 3666.064697 6144.922852 0.922141 0.367561 -0.120640
3784.975342 3713.593262 5730.750000 0.922141 0.367561 -0.120640
3612.290771 4144.596680 5723.958496 0.922141 0.367561 -0.120640
2991.633789 3329.755127 5715.175293 -0.613181 -0.789943 -0.000169
3072.250244 3267.176270 5722.604492 -0.613181 -0.789943 -0.000169
3031.097656 3299.057129 6017.271484 -0.613181 -0.789943 -0.000169
2991.633789 3329.755127 5715.175293 -0.946023 0.285906 0.152635
3031.097656 3299.057129 6017.271484 -0.946023 0.285906 0.152635
3334.628418 4397.997070 5840.074707 -0.946023 0.285906 0.152635
3461.211182 4391.537598 5755.224121 -0.031975 0.991865 -0.123209
3334.628418 4397.997070 5840.074707 -0.031975 0.991865 -0.123209
3425.332520 4418.479980 5981.428223 -0.031975 0.991865 -0.123209
3072.250244 3267.176270 5722.604492 0.060749 -0.995566 0.071819
3727.825195 3311.083008 5776.718750 0.060749 -0.995566 0.071819
3882.360596 3347.232178 6147.106445 0.060749 -0.995566 0.071819
3767.274902 3370.686768 5700.970703 0.670673 -0.711287 -0.210402
3882.360596 3347.232178 6147.106445 0.670673 -0.711287 -0.210402
3727.825195 3311.083008 5776.718750 0.670673 -0.711287 -0.210402
3858.104492 3666.064697 6144.922852 0.891481 0.453024 -0.005587
3612.290771 4144.596680 5723.958496 0.891481 0.453024 -0.005587
3636.117188 4106.393066 6428.084473 0.891481 0.453024 -0.005587
3334.628418 4397.997070 5840.074707 -0.934506 0.239786 0.263061
3306.325439 3931.161377 6165.061523 -0.934506 0.239786 0.263061
3428.835693 4360.378418 6209.030273 -0.934506 0.239786 0.263061
3636.117188 4106.393066 6428.084473 0.852988 0.521931 -0.000545
3612.290771 4144.596680 5723.958496 0.852988 0.521931 -0.000545
3461.211182 4391.537598 5755.224121 0.852988 0.521931 -0.000545
3031.097656 3299.057129 6017.271484 -0.884287 0.301707 0.356383
3306.325439 3931.161377 6165.061523 -0.884287 0.301707 0.356383
3334.628418 4397.997070 5840.074707 -0.884287 0.301707 0.356383
3531.342773 4256.485840 6360.225098 0.779185 0.624863 0.049163
3461.211182 4391.537598 5755.224121 0.779185 0.624863 0.049163
3425.332520 4418.479980 5981.428223 0.779185 0.624863 0.049163
3334.628418 4397.997070 5840.074707 -0.525486 0.822392 0.218026
3428.835693 4360.378418 6209.030273 -0.525486 0.822392 0.218026
3425.332520 4418.479980 5981.428223 -0.525486 0.822392 0.218026
3031.097656 3299.057129 6017.271484 -0.169067 -0.982133 0.082648
3072.250244 3267.176270 5722.604492 -0.169067 -0.982133 0.082648
3243.962891 3292.104004 6370.087402 -0.169067 -0.982133 0.082648
3858.104492 3666.064697 6144.922852 0.833536 0.059652 -0.549235
3985.227295 3432.602539 6312.492188 0.833536 0.059652 -0.549235
3882.360596 3347.232178 6147.106445 0.833536 0.059652 -0.549235
3858.104492 3666.064697 6144.922852 0.885741 0.463436 -0.026277
3636.117188 4106.393066 6428.084473 0.885741 0.463436 -0.026277
3985.227295 3432.602539 6312.492188 0.885741 0.463436 -0.026277
3306.325439 3931.161377 6165.061523 -0.828497 0.242751 0.504643
3031.097656 3299.057129 6017.271484 -0.828497 0.242751 0.504643
3243.962891 3292.104004 6370.087402 -0.828497 0.242751 0.504643
3531.342773 4256.485840 6360.225098 0.534868 0.820618 0.201252
3425.332520 4418.479980 5981.428223 0.534868 0.820618 0.201252
3428.835693 4360.378418 6209.030273 0.534868 0.820618 0.201252
3072.250244 3267.176270 5722.604492 0.077999 -0.996190 0.039018
3882.360596 3347.232178 6147.106445 0.077999 -0.996190 0.039018
3470.743652 3332.017822 6581.507324 0.077999 -0.996190 0.039018
3461.211182 4391.537598 5755.224121 0.811726 0.582926 0.036029
3531.342773 4256.485840 6360.225098 0.811726 0.582926 0.036029
3636.117188 4106.393066 6428.084473 0.811726 0.582926 0.036029
3882.360596 3347.232178 6147.106445 0.355963 -0.882851 0.306372
3665.644043 3407.624268 6572.929199 0.355963 -0.882851 0.306372
3470.743652 3332.017822 6581.507324 0.355963 -0.882851 0.306372
3882.360596 3347.232178 6147.106445 0.301450 -0.910649 0.282571
3985.227295 3432.602539 6312.492188 0.301450 -0.910649 0.282571
3665.644043 3407.624268 6572.929199 0.301450 -0.910649 0.282571
3072.250244 3267.176270 5722.604492 0.182975 -0.983060 -0.010678
3470.743652 3332.017822 6581.507324 0.182975 -0.983060 -0.010678
3243.962891 3292.104004 6370.087402 0.182975 -0.983060 -0.010678
3306.325439 3931.161377 6165.061523 -0.765258 0.154408 0.624930
3531.342773 4256.485840 6360.225098 -0.765258 0.154408 0.624930
3428.835693 4360.378418 6209.030273 -0.765258 0.154408 0.624930
3558.534180 3537.751221 6592.070312 -0.690154 0.281265 0.666767
3306.325439 3931.161377 6165.061523 -0.690154 0.281265 0.666767
3243.962891 3292.104004 6370.087402 -0.690154 0.281265 0.666767
3531.342773 4256.485840 6360.225098 -0.773226 0.167992 0.611473
3306.325439 3931.161377 6165.061523 -0.773226 0.167992 0.611473
3558.534180 3537.751221 6592.070312 -0.773226 0.167992 0.611473
3558.534180 3537.751221 6592.070312 -0.183941 0.295449 0.937484
3636.117188 4106.393066 6428.084473 -0.183941 0.295449 0.937484
3531.342773 4256.485840 6360.225098 -0.183941 0.295449 0.937484
3636.117188 4106.393066 6428.084473 0.612053 0.185228 0.768818
3665.644043 3407.624268 6572.929199 0.612053 0.185228 0.768818
3985.227295 3432.602539 6312.492188 0.612053 0.185228 0.768818
3558.534180 3537.751221 6592.070312 0.404749 0.201969 0.891845
3665.644043 3407.624268 6572.929199 0.404749 0.201969 0.891845
3636.117188 4106.393066 6428.084473 0.404749 0.201969 0.891845
3243.962891 3292.104004 6370.087402 -0.682876 0.256272 0.684109
3470.743652 3332.017822 6581.507324 -0.682876 0.256272 0.684109
3558.534180 3537.751221 6592.070312 -0.682876 0.256272 0.684109
3665.644043 3407.624268 6572.929199 0.076121 -0.083497 0.993596
3558.534180 3537.751221 6592.070312 0.076121 -0.083497 0.993596
3470.743652 3332.017822 6581.507324 0.076121 -0.083497 0.993596
3 0 1 2
3 3 4 5
3 6 7 8
3 9 10 11
3 12 13 14
3 15 16 17
3 18 19 20
3 21 22 23
3 24 25 26
3 27 28 29
3 30 31 32
3 33 34 35
3 36 37 38
3 39 40 41
3 42 43 44
3 45 46 47
3 48 49 50
3 51 52 53
3 54 55 56
3 57 58 59
3 60 61 62
3 63 64 65
3 66 67 68
3 69 70 71
3 72 73 74
3 75 76 77
3 78 79 80
3 81 82 83
3 84 85 86
3 87 88 89
3 90 91 92
3 93 94 95
3 96 97 98
3 99 100 101
3 102 103 104
3 105 106 107
3 108 109 110
3 111 112 113
3 114 115 116
3 117 118 119
3 120 121 122
3 123 124 125
3 126 127 128
3 129 130 131
3 132 133 134
3 135 136 137
3 138 139 140
3 141 142 143
3 144 145 146
3 147 148 149
3 150 151 152
3 153 154 155
3 156 157 158
3 159 160 161
3 162 163 164
3 165 166 167
3 168 169 170
3 171 172 173
3 174 175 176
3 177 178 179
3 180 181 182
3 183 184 185
3 186 187 188
3 189 190 191
3 192 193 194
3 195 196 197
3 198 199 200
3 201 202 203
3 204 205 206
3 207 208 209
3 210 211 212
3 213 214 215
3 216 217 218
3 219 220 221
3 222 223 224
3 225 226 227
3 228 229 230
3 231 232 233
