ply
format ascii 1.0
comment Created by Blender 2.80 (sub 75) - www.blender.org, source file: 'downsample_ccf.blend'
element vertex 18
property float x
property float y
property float z
property float nx
property float ny
property float nz
element face 6
property list uchar uint vertex_indices
end_header
7822.225098 3963.493896 3303.716553 -0.259331 0.603006 -0.754408
7877.886719 4129.346680 3417.150391 -0.259331 0.603006 -0.754408
8050.658203 3991.991455 3247.970215 -0.259331 0.603006 -0.754408
8050.658203 3991.991455 3247.970215 -0.181666 0.664413 -0.724950
7877.886719 4129.346680 3417.150391 -0.181666 0.664413 -0.724950
8030.375977 4133.091797 3382.370361 -0.181666 0.664413 -0.724950
7822.225098 3963.493896 3303.716553 0.255975 -0.647182 0.718075
8050.658203 3991.991455 3247.970215 0.255975 -0.647182 0.718075
8030.375977 4133.091797 3382.370361 0.255975 -0.647182 0.718075
7822.225098 3963.493896 3303.716553 0.192283 -0.597148 0.778744
8030.375977 4133.091797 3382.370361 0.192283 -0.597148 0.778744
7877.886719 4129.346680 3417.150391 0.192283 -0.597148 0.778744
7793.541992 4014.751709 8042.987305 0.206191 -0.640201 -0.740019
7950.083984 4159.464355 7961.411621 0.206191 -0.640201 -0.740019
8055.070801 4003.088623 8125.946777 0.206191 -0.640201 -0.740019
7793.541992 4014.751709 8042.987305 -0.206191 0.640201 0.740019
8055.070801 4003.088623 8125.946777 -0.206191 0.640201 0.740019
7950.083984 4159.464355 7961.411621 -0.206191 0.640201 0.740019
3 0 1 2
3 3 4 5
3 6 7 8
3 9 10 11
3 12 13 14
3 15 16 17
