ply
format ascii 1.0
comment Created by Blender 2.80 (sub 75) - www.blender.org, source file: 'downsample_ccf.blend'
element vertex 18
property float x
property float y
property float z
property float nx
property float ny
property float nz
element face 6
property list uchar uint vertex_indices
end_header
8827.859375 5296.621094 5541.107422 -0.148136 -0.535730 -0.831294
9065.271484 5007.940918 5684.841797 -0.148136 -0.535730 -0.831294
8779.834961 5089.227539 5683.320801 -0.148136 -0.535730 -0.831294
8827.859375 5296.621094 5541.107422 0.801929 0.487738 -0.344994
8910.829102 5340.188477 5795.562012 0.801929 0.487738 -0.344994
9065.271484 5007.940918 5684.841797 0.801929 0.487738 -0.344994
8779.834961 5089.227539 5683.320801 -0.964211 0.043984 -0.261464
8753.856445 5267.729004 5809.150879 -0.964211 0.043984 -0.261464
8827.859375 5296.621094 5541.107422 -0.964211 0.043984 -0.261464
8827.859375 5296.621094 5541.107422 -0.420342 0.907182 -0.018266
8753.856445 5267.729004 5809.150879 -0.420342 0.907182 -0.018266
8910.829102 5340.188477 5795.562012 -0.420342 0.907182 -0.018266
8753.856445 5267.729004 5809.150879 -0.170591 -0.584180 0.793493
8779.834961 5089.227539 5683.320801 -0.170591 -0.584180 0.793493
9065.271484 5007.940918 5684.841797 -0.170591 -0.584180 0.793493
8753.856445 5267.729004 5809.150879 0.188942 -0.230290 0.954603
9065.271484 5007.940918 5684.841797 0.188942 -0.230290 0.954603
8910.829102 5340.188477 5795.562012 0.188942 -0.230290 0.954603
3 0 1 2
3 3 4 5
3 6 7 8
3 9 10 11
3 12 13 14
3 15 16 17
