ply
format ascii 1.0
comment Created by Blender 2.80 (sub 75) - www.blender.org, source file: 'downsample_ccf.blend'
element vertex 18
property float x
property float y
property float z
property float nx
property float ny
property float nz
element face 6
property list uchar uint vertex_indices
end_header
8850.657227 5146.340820 5550.788086 -0.036886 -0.381543 -0.923615
8998.381836 5030.536133 5592.727051 -0.036886 -0.381543 -0.923615
8661.967773 5120.342773 5569.063477 -0.036886 -0.381543 -0.923615
8850.657227 5146.340820 5550.788086 0.610408 0.791316 0.034952
8998.695312 5022.620605 5766.462891 0.610408 0.791316 0.034952
8998.381836 5030.536133 5592.727051 0.610408 0.791316 0.034952
8998.381836 5030.536133 5592.727051 -0.254815 -0.966009 -0.043552
8998.695312 5022.620605 5766.462891 -0.254815 -0.966009 -0.043552
8661.967773 5120.342773 5569.063477 -0.254815 -0.966009 -0.043552
8661.967773 5120.342773 5569.063477 -0.149926 0.975666 -0.159997
8720.875000 5176.839355 5858.381836 -0.149926 0.975666 -0.159997
8850.657227 5146.340820 5550.788086 -0.149926 0.975666 -0.159997
8998.695312 5022.620605 5766.462891 -0.403880 -0.878884 0.253857
8720.875000 5176.839355 5858.381836 -0.403880 -0.878884 0.253857
8661.967773 5120.342773 5569.063477 -0.403880 -0.878884 0.253857
8720.875000 5176.839355 5858.381836 0.514303 0.847233 0.132994
8998.695312 5022.620605 5766.462891 0.514303 0.847233 0.132994
8850.657227 5146.340820 5550.788086 0.514303 0.847233 0.132994
3 0 1 2
3 3 4 5
3 6 7 8
3 9 10 11
3 12 13 14
3 15 16 17
