ply
format ascii 1.0
comment Created by Blender 2.80 (sub 75) - www.blender.org, source file: 'downsample_ccf.blend'
element vertex 90
property float x
property float y
property float z
property float nx
property float ny
property float nz
element face 30
property list uchar uint vertex_indices
end_header
10391.571289 4299.915039 4826.621582 -0.562839 0.719275 -0.407254
10260.671875 4337.138184 5073.270996 -0.562839 0.719275 -0.407254
10390.669922 4393.641602 4993.403320 -0.562839 0.719275 -0.407254
10564.132812 3997.584717 4965.246582 -0.007359 -0.420252 -0.907377
10085.664062 3787.226807 5066.554199 -0.007359 -0.420252 -0.907377
10391.571289 4299.915039 4826.621582 -0.007359 -0.420252 -0.907377
10260.671875 4337.138184 5073.270996 -0.832751 0.270918 -0.482835
10391.571289 4299.915039 4826.621582 -0.832751 0.270918 -0.482835
10085.664062 3787.226807 5066.554199 -0.832751 0.270918 -0.482835
10564.132812 3997.584717 4965.246582 0.100914 -0.608576 -0.787052
10247.845703 3592.119141 5238.212891 0.100914 -0.608576 -0.787052
10085.664062 3787.226807 5066.554199 0.100914 -0.608576 -0.787052
10564.132812 3997.584717 4965.246582 0.886687 0.398860 -0.233873
10391.571289 4299.915039 4826.621582 0.886687 0.398860 -0.233873
10524.858398 4215.776855 5188.461426 0.886687 0.398860 -0.233873
10391.571289 4299.915039 4826.621582 0.881005 0.414459 -0.228153
10390.669922 4393.641602 4993.403320 0.881005 0.414459 -0.228153
10524.858398 4215.776855 5188.461426 0.881005 0.414459 -0.228153
10564.132812 3997.584717 4965.246582 0.741685 -0.659803 -0.120681
10514.413086 3894.300781 5224.364258 0.741685 -0.659803 -0.120681
10247.845703 3592.119141 5238.212891 0.741685 -0.659803 -0.120681
10514.413086 3894.300781 5224.364258 0.982850 -0.011379 0.184054
10564.132812 3997.584717 4965.246582 0.982850 -0.011379 0.184054
10524.858398 4215.776855 5188.461426 0.982850 -0.011379 0.184054
10085.664062 3787.226807 5066.554199 -0.345808 -0.765209 -0.543022
10247.845703 3592.119141 5238.212891 -0.345808 -0.765209 -0.543022
10051.542969 3617.359863 5327.654297 -0.345808 -0.765209 -0.543022
10390.669922 4393.641602 4993.403320 0.067065 0.759799 0.646690
10260.671875 4337.138184 5073.270996 0.067065 0.759799 0.646690
10524.858398 4215.776855 5188.461426 0.067065 0.759799 0.646690
10085.664062 3787.226807 5066.554199 -0.950687 0.301674 0.072026
10051.542969 3617.359863 5327.654297 -0.950687 0.301674 0.072026
10260.671875 4337.138184 5073.270996 -0.950687 0.301674 0.072026
10524.858398 4215.776855 5188.461426 -0.165648 0.464909 0.869724
10260.671875 4337.138184 5073.270996 -0.165648 0.464909 0.869724
10245.477539 3696.115723 5413.033691 -0.165648 0.464909 0.869724
10247.845703 3592.119141 5238.212891 0.122170 -0.852264 0.508646
10245.477539 3696.115723 5413.033691 0.122170 -0.852264 0.508646
10051.542969 3617.359863 5327.654297 0.122170 -0.852264 0.508646
10245.477539 3696.115723 5413.033691 0.705173 -0.605128 0.369528
10247.845703 3592.119141 5238.212891 0.705173 -0.605128 0.369528
10514.413086 3894.300781 5224.364258 0.705173 -0.605128 0.369528
10514.413086 3894.300781 5224.364258 0.534137 0.076671 0.841914
10524.858398 4215.776855 5188.461426 0.534137 0.076671 0.841914
10245.477539 3696.115723 5413.033691 0.534137 0.076671 0.841914
10245.477539 3696.115723 5413.033691 -0.502353 0.414201 0.758999
10260.671875 4337.138184 5073.270996 -0.502353 0.414201 0.758999
10051.542969 3617.359863 5327.654297 -0.502353 0.414201 0.758999
10296.418945 3597.710938 6049.784668 0.009853 -0.595717 -0.803134
10080.161133 3577.865234 6061.852051 0.009853 -0.595717 -0.803134
10144.550781 3712.529785 5962.755859 0.009853 -0.595717 -0.803134
10144.550781 3712.529785 5962.755859 0.514376 0.030766 -0.857013
10586.376953 4171.627441 6244.419922 0.514376 0.030766 -0.857013
10296.418945 3597.710938 6049.784668 0.514376 0.030766 -0.857013
10586.376953 4171.627441 6244.419922 0.218190 0.349128 -0.911319
10144.550781 3712.529785 5962.755859 0.218190 0.349128 -0.911319
10343.040039 4370.587402 6262.381836 0.218190 0.349128 -0.911319
10075.443359 3730.875977 6311.209473 -0.933082 0.298413 -0.200766
10144.550781 3712.529785 5962.755859 -0.933082 0.298413 -0.200766
10080.161133 3577.865234 6061.852051 -0.933082 0.298413 -0.200766
10343.040039 4370.587402 6262.381836 -0.909311 0.365140 -0.199565
10144.550781 3712.529785 5962.755859 -0.909311 0.365140 -0.199565
10075.443359 3730.875977 6311.209473 -0.909311 0.365140 -0.199565
10586.376953 4171.627441 6244.419922 0.867171 -0.304465 -0.394101
10562.603516 3937.233154 6373.191895 0.867171 -0.304465 -0.394101
10296.418945 3597.710938 6049.784668 0.867171 -0.304465 -0.394101
10296.418945 3597.710938 6049.784668 0.106786 -0.846553 0.521483
10075.443359 3730.875977 6311.209473 0.106786 -0.846553 0.521483
10080.161133 3577.865234 6061.852051 0.106786 -0.846553 0.521483
10075.443359 3730.875977 6311.209473 -0.893274 0.352360 -0.279113
10269.394531 4322.345703 6437.175293 -0.893274 0.352360 -0.279113
10343.040039 4370.587402 6262.381836 -0.893274 0.352360 -0.279113
10075.443359 3730.875977 6311.209473 0.247123 -0.762860 0.597474
10296.418945 3597.710938 6049.784668 0.247123 -0.762860 0.597474
10562.603516 3937.233154 6373.191895 0.247123 -0.762860 0.597474
10372.104492 4307.999512 6540.105469 0.634088 0.765926 0.106250
10586.376953 4171.627441 6244.419922 0.634088 0.765926 0.106250
10343.040039 4370.587402 6262.381836 0.634088 0.765926 0.106250
10372.104492 4307.999512 6540.105469 -0.700191 0.078472 0.709630
10269.394531 4322.345703 6437.175293 -0.700191 0.078472 0.709630
10075.443359 3730.875977 6311.209473 -0.700191 0.078472 0.709630
10269.394531 4322.345703 6437.175293 -0.093292 0.969142 0.228169
10372.104492 4307.999512 6540.105469 -0.093292 0.969142 0.228169
10343.040039 4370.587402 6262.381836 -0.093292 0.969142 0.228169
10372.104492 4307.999512 6540.105469 0.834824 0.197614 0.513826
10562.603516 3937.233154 6373.191895 0.834824 0.197614 0.513826
10586.376953 4171.627441 6244.419922 0.834824 0.197614 0.513826
10562.603516 3937.233154 6373.191895 0.047939 -0.389449 0.919800
10372.104492 4307.999512 6540.105469 0.047939 -0.389449 0.919800
10075.443359 3730.875977 6311.209473 0.047939 -0.389449 0.919800
3 0 1 2
3 3 4 5
3 6 7 8
3 9 10 11
3 12 13 14
3 15 16 17
3 18 19 20
3 21 22 23
3 24 25 26
3 27 28 29
3 30 31 32
3 33 34 35
3 36 37 38
3 39 40 41
3 42 43 44
3 45 46 47
3 48 49 50
3 51 52 53
3 54 55 56
3 57 58 59
3 60 61 62
3 63 64 65
3 66 67 68
3 69 70 71
3 72 73 74
3 75 76 77
3 78 79 80
3 81 82 83
3 84 85 86
3 87 88 89
