ply
format ascii 1.0
comment Created by Blender 2.80 (sub 75) - www.blender.org, source file: 'downsample_ccf.blend'
element vertex 150
property float x
property float y
property float z
property float nx
property float ny
property float nz
element face 50
property list uchar uint vertex_indices
end_header
7921.315918 3532.708984 3047.365967 -0.243909 0.280736 -0.928276
7296.804199 3158.519043 3098.294434 -0.243909 0.280736 -0.928276
7793.070801 3509.398926 3074.013428 -0.243909 0.280736 -0.928276
7749.896973 3172.157471 3139.250977 0.094807 -0.287929 -0.952947
7296.804199 3158.519043 3098.294434 0.094807 -0.287929 -0.952947
7921.315918 3532.708984 3047.365967 0.094807 -0.287929 -0.952947
8152.949219 3584.693848 3165.287598 0.484595 -0.425207 -0.764439
7749.896973 3172.157471 3139.250977 0.484595 -0.425207 -0.764439
7921.315918 3532.708984 3047.365967 0.484595 -0.425207 -0.764439
7749.896973 3172.157471 3139.250977 0.089673 -0.606362 -0.790116
7167.153320 2948.315674 3244.896973 0.089673 -0.606362 -0.790116
7296.804199 3158.519043 3098.294434 0.089673 -0.606362 -0.790116
7793.070801 3509.398926 3074.013428 -0.265606 0.587084 -0.764713
8003.980957 3745.374756 3181.921387 -0.265606 0.587084 -0.764713
7921.315918 3532.708984 3047.365967 -0.265606 0.587084 -0.764713
7921.315918 3532.708984 3047.365967 0.341282 0.404252 -0.848591
8003.980957 3745.374756 3181.921387 0.341282 0.404252 -0.848591
8152.949219 3584.693848 3165.287598 0.341282 0.404252 -0.848591
7167.153320 2948.315674 3244.896973 0.173065 -0.751192 -0.636992
7749.896973 3172.157471 3139.250977 0.173065 -0.751192 -0.636992
7745.154785 2854.095215 3513.047363 0.173065 -0.751192 -0.636992
8152.949219 3584.693848 3165.287598 0.542223 -0.486522 -0.685048
8027.274414 3119.919189 3395.898193 0.542223 -0.486522 -0.685048
7749.896973 3172.157471 3139.250977 0.542223 -0.486522 -0.685048
7739.089355 3158.275635 3304.753906 -0.352691 0.551157 0.756198
7793.070801 3509.398926 3074.013428 -0.352691 0.551157 0.756198
7296.804199 3158.519043 3098.294434 -0.352691 0.551157 0.756198
8073.377930 3661.483643 3292.175537 0.735012 0.676074 0.051780
8152.949219 3584.693848 3165.287598 0.735012 0.676074 0.051780
8003.980957 3745.374756 3181.921387 0.735012 0.676074 0.051780
8027.274414 3119.919189 3395.898193 0.897804 -0.365020 -0.246392
8152.949219 3584.693848 3165.287598 0.897804 -0.365020 -0.246392
8114.177246 3334.515625 3394.639160 0.897804 -0.365020 -0.246392
8073.377930 3661.483643 3292.175537 -0.682653 0.306879 0.663181
8003.980957 3745.374756 3181.921387 -0.682653 0.306879 0.663181
7793.070801 3509.398926 3074.013428 -0.682653 0.306879 0.663181
7739.089355 3158.275635 3304.753906 -0.315238 0.665969 0.676100
7296.804199 3158.519043 3098.294434 -0.315238 0.665969 0.676100
7167.153320 2948.315674 3244.896973 -0.315238 0.665969 0.676100
7745.154785 2854.095215 3513.047363 0.412304 -0.696430 -0.587359
7749.896973 3172.157471 3139.250977 0.412304 -0.696430 -0.587359
8027.274414 3119.919189 3395.898193 0.412304 -0.696430 -0.587359
8114.177246 3334.515625 3394.639160 0.881163 0.237983 0.408554
8152.949219 3584.693848 3165.287598 0.881163 0.237983 0.408554
8073.377930 3661.483643 3292.175537 0.881163 0.237983 0.408554
7793.070801 3509.398926 3074.013428 -0.686659 0.470021 0.554599
7739.089355 3158.275635 3304.753906 -0.686659 0.470021 0.554599
8073.377930 3661.483643 3292.175537 -0.686659 0.470021 0.554599
7603.333984 2837.628906 3639.451416 -0.333850 0.744643 0.577971
7739.089355 3158.275635 3304.753906 -0.333850 0.744643 0.577971
7167.153320 2948.315674 3244.896973 -0.333850 0.744643 0.577971
7739.089355 3158.275635 3304.753906 -0.659136 0.452881 0.600366
7880.350586 3020.541504 3563.741943 -0.659136 0.452881 0.600366
8073.377930 3661.483643 3292.175537 -0.659136 0.452881 0.600366
7745.154785 2854.095215 3513.047363 0.035969 -0.916066 -0.399411
7382.769531 2785.788818 3637.076660 0.035969 -0.916066 -0.399411
7167.153320 2948.315674 3244.896973 0.035969 -0.916066 -0.399411
7739.089355 3158.275635 3304.753906 -0.333712 0.744654 0.578037
7603.333984 2837.628906 3639.451416 -0.333712 0.744654 0.578037
7880.350586 3020.541504 3563.741943 -0.333712 0.744654 0.578037
8114.177246 3334.515625 3394.639160 0.798654 -0.320434 0.509386
7880.350586 3020.541504 3563.741943 0.798654 -0.320434 0.509386
8027.274414 3119.919189 3395.898193 0.798654 -0.320434 0.509386
8073.377930 3661.483643 3292.175537 0.237776 0.317353 0.918014
7880.350586 3020.541504 3563.741943 0.237776 0.317353 0.918014
8114.177246 3334.515625 3394.639160 0.237776 0.317353 0.918014
7745.154785 2854.095215 3513.047363 0.716643 -0.655033 0.239486
8027.274414 3119.919189 3395.898193 0.716643 -0.655033 0.239486
7880.350586 3020.541504 3563.741943 0.716643 -0.655033 0.239486
7603.333984 2837.628906 3639.451416 -0.206808 0.858404 0.469440
7167.153320 2948.315674 3244.896973 -0.206808 0.858404 0.469440
7382.769531 2785.788818 3637.076660 -0.206808 0.858404 0.469440
7880.350586 3020.541504 3563.741943 0.560138 -0.621713 0.547466
7603.333984 2837.628906 3639.451416 0.560138 -0.621713 0.547466
7745.154785 2854.095215 3513.047363 0.560138 -0.621713 0.547466
7745.154785 2854.095215 3513.047363 0.225637 -0.965853 0.127338
7603.333984 2837.628906 3639.451416 0.225637 -0.965853 0.127338
7382.769531 2785.788818 3637.076660 0.225637 -0.965853 0.127338
7846.298340 2951.000000 7813.428223 0.373968 -0.516989 -0.769980
7619.655762 2807.366211 7799.791504 0.373968 -0.516989 -0.769980
7406.235352 2786.308105 7710.275391 0.373968 -0.516989 -0.769980
7406.235352 2786.308105 7710.275391 -0.221146 0.868620 -0.443388
7188.321777 2898.266357 8038.294434 -0.221146 0.868620 -0.443388
7846.298340 2951.000000 7813.428223 -0.221146 0.868620 -0.443388
7979.254395 3214.526367 7916.210938 0.161065 0.287035 -0.944282
8112.151855 3294.906982 7963.312500 0.161065 0.287035 -0.944282
7846.298340 2951.000000 7813.428223 0.161065 0.287035 -0.944282
7846.298340 2951.000000 7813.428223 0.811912 -0.566900 -0.139366
8112.151855 3294.906982 7963.312500 0.811912 -0.566900 -0.139366
7980.781250 3090.155273 8030.849121 0.811912 -0.566900 -0.139366
7619.655762 2807.366211 7799.791504 0.513674 -0.830857 0.214045
7846.298340 2951.000000 7813.428223 0.513674 -0.830857 0.214045
7980.781250 3090.155273 8030.849121 0.513674 -0.830857 0.214045
7619.655762 2807.366211 7799.791504 -0.033139 -0.952397 0.303054
7188.321777 2898.266357 8038.294434 -0.033139 -0.952397 0.303054
7406.235352 2786.308105 7710.275391 -0.033139 -0.952397 0.303054
7980.781250 3090.155273 8030.849121 0.270613 -0.792336 0.546784
7395.218262 3065.497559 8284.923828 0.270613 -0.792336 0.546784
7619.655762 2807.366211 7799.791504 0.270613 -0.792336 0.546784
7846.298340 2951.000000 7813.428223 -0.279368 0.704695 -0.652195
7188.321777 2898.266357 8038.294434 -0.279368 0.704695 -0.652195
7264.212402 3131.400635 8257.687500 -0.279368 0.704695 -0.652195
7846.298340 2951.000000 7813.428223 -0.513568 0.524092 -0.679394
7799.404297 3498.437744 8271.175781 -0.513568 0.524092 -0.679394
7979.254395 3214.526367 7916.210938 -0.513568 0.524092 -0.679394
7619.655762 2807.366211 7799.791504 0.096405 -0.859516 0.501935
7395.218262 3065.497559 8284.923828 0.096405 -0.859516 0.501935
7188.321777 2898.266357 8038.294434 0.096405 -0.859516 0.501935
8112.151855 3294.906982 7963.312500 0.066132 0.420817 -0.904732
7979.254395 3214.526367 7916.210938 0.066132 0.420817 -0.904732
8041.372070 3756.838623 8172.996582 0.066132 0.420817 -0.904732
8112.151855 3294.906982 7963.312500 0.837586 -0.423619 0.344959
8168.950684 3592.541260 8190.903809 0.837586 -0.423619 0.344959
7980.781250 3090.155273 8030.849121 0.837586 -0.423619 0.344959
8041.372070 3756.838623 8172.996582 -0.666247 0.380106 -0.641587
7979.254395 3214.526367 7916.210938 -0.666247 0.380106 -0.641587
7799.404297 3498.437744 8271.175781 -0.666247 0.380106 -0.641587
8112.151855 3294.906982 7963.312500 0.613592 0.402412 -0.679389
8041.372070 3756.838623 8172.996582 0.613592 0.402412 -0.679389
8168.950684 3592.541260 8190.903809 0.613592 0.402412 -0.679389
7799.404297 3498.437744 8271.175781 -0.376153 0.575179 -0.726414
7846.298340 2951.000000 7813.428223 -0.376153 0.575179 -0.726414
7264.212402 3131.400635 8257.687500 -0.376153 0.575179 -0.726414
7980.781250 3090.155273 8030.849121 0.665534 -0.441093 0.602081
8168.950684 3592.541260 8190.903809 0.665534 -0.441093 0.602081
7967.473145 3437.735840 8300.202148 0.665534 -0.441093 0.602081
7395.218262 3065.497559 8284.923828 -0.424055 -0.543607 0.724340
7264.212402 3131.400635 8257.687500 -0.424055 -0.543607 0.724340
7188.321777 2898.266357 8038.294434 -0.424055 -0.543607 0.724340
7967.473145 3437.735840 8300.202148 0.348125 -0.565861 0.747403
7395.218262 3065.497559 8284.923828 0.348125 -0.565861 0.747403
7980.781250 3090.155273 8030.849121 0.348125 -0.565861 0.747403
8168.950684 3592.541260 8190.903809 0.388493 0.392532 0.833662
8041.372070 3756.838623 8172.996582 0.388493 0.392532 0.833662
7905.148438 3569.075439 8324.886719 0.388493 0.392532 0.833662
7967.473145 3437.735840 8300.202148 0.449150 0.045433 0.892300
8168.950684 3592.541260 8190.903809 0.449150 0.045433 0.892300
7905.148438 3569.075439 8324.886719 0.449150 0.045433 0.892300
7799.404297 3498.437744 8271.175781 -0.632047 0.709909 0.310718
7905.148438 3569.075439 8324.886719 -0.632047 0.709909 0.310718
8041.372070 3756.838623 8172.996582 -0.632047 0.709909 0.310718
7799.404297 3498.437744 8271.175781 -0.565839 0.823956 0.030380
7264.212402 3131.400635 8257.687500 -0.565839 0.823956 0.030380
7905.148438 3569.075439 8324.886719 -0.565839 0.823956 0.030380
7905.148438 3569.075439 8324.886719 -0.161425 0.085438 0.983180
7264.212402 3131.400635 8257.687500 -0.161425 0.085438 0.983180
7395.218262 3065.497559 8284.923828 -0.161425 0.085438 0.983180
7967.473145 3437.735840 8300.202148 0.071987 -0.151133 0.985889
7905.148438 3569.075439 8324.886719 0.071987 -0.151133 0.985889
7395.218262 3065.497559 8284.923828 0.071987 -0.151133 0.985889
3 0 1 2
3 3 4 5
3 6 7 8
3 9 10 11
3 12 13 14
3 15 16 17
3 18 19 20
3 21 22 23
3 24 25 26
3 27 28 29
3 30 31 32
3 33 34 35
3 36 37 38
3 39 40 41
3 42 43 44
3 45 46 47
3 48 49 50
3 51 52 53
3 54 55 56
3 57 58 59
3 60 61 62
3 63 64 65
3 66 67 68
3 69 70 71
3 72 73 74
3 75 76 77
3 78 79 80
3 81 82 83
3 84 85 86
3 87 88 89
3 90 91 92
3 93 94 95
3 96 97 98
3 99 100 101
3 102 103 104
3 105 106 107
3 108 109 110
3 111 112 113
3 114 115 116
3 117 118 119
3 120 121 122
3 123 124 125
3 126 127 128
3 129 130 131
3 132 133 134
3 135 136 137
3 138 139 140
3 141 142 143
3 144 145 146
3 147 148 149
