ply
format ascii 1.0
comment Created by Blender 2.80 (sub 75) - www.blender.org, source file: 'downsample_ccf.blend'
element vertex 234
property float x
property float y
property float z
property float nx
property float ny
property float nz
element face 78
property list uchar uint vertex_indices
end_header
7826.711914 3579.169678 3085.763184 0.418696 -0.497094 -0.759994
7706.475098 3187.550537 3275.670654 0.418696 -0.497094 -0.759994
7370.255371 3273.852783 3033.992188 0.418696 -0.497094 -0.759994
7826.711914 3579.169678 3085.763184 -0.315446 0.596713 -0.737853
7370.255371 3273.852783 3033.992188 -0.315446 0.596713 -0.737853
7529.018066 3650.092773 3270.389160 -0.315446 0.596713 -0.737853
7529.018066 3650.092773 3270.389160 -0.477764 0.603002 -0.638851
7370.255371 3273.852783 3033.992188 -0.477764 0.603002 -0.638851
7239.099609 3358.638428 3212.104980 -0.477764 0.603002 -0.638851
7529.018066 3650.092773 3270.389160 -0.218396 0.739839 -0.636350
7870.395020 3787.313965 3312.765625 -0.218396 0.739839 -0.636350
7826.711914 3579.169678 3085.763184 -0.218396 0.739839 -0.636350
7069.234863 2949.596191 3288.866455 0.261388 -0.734710 -0.626001
7370.255371 3273.852783 3033.992188 0.261388 -0.734710 -0.626001
7706.475098 3187.550537 3275.670654 0.261388 -0.734710 -0.626001
7870.395020 3787.313965 3312.765625 -0.159527 0.742721 -0.650321
7993.316895 3747.069824 3236.650146 -0.159527 0.742721 -0.650321
7826.711914 3579.169678 3085.763184 -0.159527 0.742721 -0.650321
7069.234863 2949.596191 3288.866455 -0.745373 0.189597 -0.639118
7239.099609 3358.638428 3212.104980 -0.745373 0.189597 -0.639118
7370.255371 3273.852783 3033.992188 -0.745373 0.189597 -0.639118
7069.234863 2949.596191 3288.866455 -0.699492 0.159765 -0.696553
6826.936035 3045.042480 3554.079590 -0.699492 0.159765 -0.696553
7239.099609 3358.638428 3212.104980 -0.699492 0.159765 -0.696553
8063.993164 3252.192139 3514.041992 0.768982 -0.225477 -0.598187
7826.711914 3579.169678 3085.763184 0.768982 -0.225477 -0.598187
7993.316895 3747.069824 3236.650146 0.768982 -0.225477 -0.598187
7069.234863 2949.596191 3288.866455 0.275326 -0.769293 -0.576527
7706.475098 3187.550537 3275.670654 0.275326 -0.769293 -0.576527
7170.003906 2866.803467 3447.464844 0.275326 -0.769293 -0.576527
7069.234863 2949.596191 3288.866455 -0.742578 -0.406913 -0.531978
6810.547363 2942.002930 3655.771729 -0.742578 -0.406913 -0.531978
6826.936035 3045.042480 3554.079590 -0.742578 -0.406913 -0.531978
7529.018066 3650.092773 3270.389160 -0.714612 0.671981 0.194348
7239.099609 3358.638428 3212.104980 -0.714612 0.671981 0.194348
7092.583984 3068.384766 3676.957275 -0.714612 0.671981 0.194348
7736.842285 3376.187256 3383.890869 -0.369105 0.256687 0.893238
7543.477051 2986.340576 3416.017334 -0.369105 0.256687 0.893238
7926.964844 3293.890869 3486.102783 -0.369105 0.256687 0.893238
7706.475098 3187.550537 3275.670654 0.542088 -0.495538 -0.678663
7826.711914 3579.169678 3085.763184 0.542088 -0.495538 -0.678663
8063.993164 3252.192139 3514.041992 0.542088 -0.495538 -0.678663
7993.316895 3747.069824 3236.650146 0.571314 0.461873 0.678434
7870.395020 3787.313965 3312.765625 0.571314 0.461873 0.678434
8063.993164 3252.192139 3514.041992 0.571314 0.461873 0.678434
7706.475098 3187.550537 3275.670654 0.141621 -0.640939 -0.754414
7543.477051 2986.340576 3416.017334 0.141621 -0.640939 -0.754414
7170.003906 2866.803467 3447.464844 0.141621 -0.640939 -0.754414
7736.842285 3376.187256 3383.890869 0.624313 -0.248634 0.740551
7326.332520 2987.803223 3599.569580 0.624313 -0.248634 0.740551
7543.477051 2986.340576 3416.017334 0.624313 -0.248634 0.740551
7239.099609 3358.638428 3212.104980 -0.279931 0.851474 0.443430
6826.936035 3045.042480 3554.079590 -0.279931 0.851474 0.443430
7092.583984 3068.384766 3676.957275 -0.279931 0.851474 0.443430
7706.475098 3187.550537 3275.670654 0.441226 -0.725675 -0.527936
7681.549805 2924.797852 3616.006104 0.441226 -0.725675 -0.527936
7543.477051 2986.340576 3416.017334 0.441226 -0.725675 -0.527936
6810.547363 2942.002930 3655.771729 -0.244633 -0.950386 -0.192148
7069.234863 2949.596191 3288.866455 -0.244633 -0.950386 -0.192148
7312.938477 2799.548340 3720.750244 -0.244633 -0.950386 -0.192148
7312.938477 2799.548340 3720.750244 -0.862402 -0.351142 0.364640
7069.234863 2949.596191 3288.866455 -0.862402 -0.351142 0.364640
7170.003906 2866.803467 3447.464844 -0.862402 -0.351142 0.364640
7816.565918 3419.391113 3516.834473 -0.561701 -0.626447 0.540423
7736.842285 3376.187256 3383.890869 -0.561701 -0.626447 0.540423
7926.964844 3293.890869 3486.102783 -0.561701 -0.626447 0.540423
7527.164551 2890.980713 3639.355469 0.142757 -0.913979 -0.379819
7543.477051 2986.340576 3416.017334 0.142757 -0.913979 -0.379819
7681.549805 2924.797852 3616.006104 0.142757 -0.913979 -0.379819
7170.003906 2866.803467 3447.464844 0.311084 -0.873281 0.374975
7543.477051 2986.340576 3416.017334 0.311084 -0.873281 0.374975
7326.332520 2987.803223 3599.569580 0.311084 -0.873281 0.374975
7543.477051 2986.340576 3416.017334 -0.632300 0.728101 0.264698
7527.164551 2890.980713 3639.355469 -0.632300 0.728101 0.264698
7926.964844 3293.890869 3486.102783 -0.632300 0.728101 0.264698
7706.475098 3187.550537 3275.670654 0.473308 -0.713702 -0.516343
8063.993164 3252.192139 3514.041992 0.473308 -0.713702 -0.516343
7681.549805 2924.797852 3616.006104 0.473308 -0.713702 -0.516343
7736.842285 3376.187256 3383.890869 0.641029 -0.754803 -0.139117
7816.565918 3419.391113 3516.834473 0.641029 -0.754803 -0.139117
7326.332520 2987.803223 3599.569580 0.641029 -0.754803 -0.139117
7870.395020 3787.313965 3312.765625 -0.358147 0.700295 0.617509
7529.018066 3650.092773 3270.389160 -0.358147 0.700295 0.617509
7092.583984 3068.384766 3676.957275 -0.358147 0.700295 0.617509
7774.158203 3246.505371 3639.091064 0.348896 0.437878 0.828574
8063.993164 3252.192139 3514.041992 0.348896 0.437878 0.828574
7870.395020 3787.313965 3312.765625 0.348896 0.437878 0.828574
7170.003906 2866.803467 3447.464844 0.779126 -0.377554 -0.500416
7326.332520 2987.803223 3599.569580 0.779126 -0.377554 -0.500416
7312.938477 2799.548340 3720.750244 0.779126 -0.377554 -0.500416
7527.164551 2890.980713 3639.355469 0.065798 -0.259444 -0.963514
7326.332520 2987.803223 3599.569580 0.065798 -0.259444 -0.963514
7816.565918 3419.391113 3516.834473 0.065798 -0.259444 -0.963514
7926.964844 3293.890869 3486.102783 -0.316459 -0.046369 -0.947472
7527.164551 2890.980713 3639.355469 -0.316459 -0.046369 -0.947472
7816.565918 3419.391113 3516.834473 -0.316459 -0.046369 -0.947472
7681.549805 2924.797852 3616.006104 0.060331 -0.738843 -0.671171
7312.938477 2799.548340 3720.750244 0.060331 -0.738843 -0.671171
7527.164551 2890.980713 3639.355469 0.060331 -0.738843 -0.671171
7092.583984 3068.384766 3676.957275 -0.354661 0.684746 0.636662
6826.936035 3045.042480 3554.079590 -0.354661 0.684746 0.636662
6810.547363 2942.002930 3655.771729 -0.354661 0.684746 0.636662
7681.549805 2924.797852 3616.006104 0.392777 -0.177812 0.902280
8063.993164 3252.192139 3514.041992 0.392777 -0.177812 0.902280
7774.158203 3246.505371 3639.091064 0.392777 -0.177812 0.902280
7527.164551 2890.980713 3639.355469 -0.091178 -0.534413 -0.840291
7312.938477 2799.548340 3720.750244 -0.091178 -0.534413 -0.840291
7326.332520 2987.803223 3599.569580 -0.091178 -0.534413 -0.840291
7870.395020 3787.313965 3312.765625 -0.090564 0.526278 0.845476
7092.583984 3068.384766 3676.957275 -0.090564 0.526278 0.845476
7774.158203 3246.505371 3639.091064 -0.090564 0.526278 0.845476
7312.938477 2799.548340 3720.750244 0.319476 -0.158999 0.934160
7681.549805 2924.797852 3616.006104 0.319476 -0.158999 0.934160
7774.158203 3246.505371 3639.091064 0.319476 -0.158999 0.934160
7312.938477 2799.548340 3720.750244 0.010540 0.169180 0.985529
7774.158203 3246.505371 3639.091064 0.010540 0.169180 0.985529
7092.583984 3068.384766 3676.957275 0.010540 0.169180 0.985529
7092.583984 3068.384766 3676.957275 -0.107404 0.073479 0.991497
6810.547363 2942.002930 3655.771729 -0.107404 0.073479 0.991497
7312.938477 2799.548340 3720.750244 -0.107404 0.073479 0.991497
7387.146973 2816.303955 7639.730957 -0.105515 0.068220 -0.992075
6803.437012 2966.863281 7712.166016 -0.105515 0.068220 -0.992075
7212.591309 3077.677734 7676.269531 -0.105515 0.068220 -0.992075
7387.146973 2816.303955 7639.730957 0.076955 0.188266 -0.979098
7212.591309 3077.677734 7676.269531 0.076955 0.188266 -0.979098
7756.552734 3351.375732 7771.651855 0.076955 0.188266 -0.979098
6803.437012 2966.863281 7712.166016 -0.265982 -0.726207 -0.633937
7387.146973 2816.303955 7639.730957 -0.265982 -0.726207 -0.633937
7204.740723 2805.056152 7729.148438 -0.265982 -0.726207 -0.633937
7387.146973 2816.303955 7639.730957 0.196651 -0.938721 0.283074
7509.901855 2870.648682 7734.669922 0.196651 -0.938721 0.283074
7204.740723 2805.056152 7729.148438 0.196651 -0.938721 0.283074
7204.740723 2805.056152 7729.148438 -0.373215 -0.903515 0.210644
7008.429688 2964.336914 8064.532227 -0.373215 -0.903515 0.210644
6803.437012 2966.863281 7712.166016 -0.373215 -0.903515 0.210644
7788.010742 2980.465332 7809.237793 0.345224 -0.934342 0.088464
7509.901855 2870.648682 7734.669922 0.345224 -0.934342 0.088464
7387.146973 2816.303955 7639.730957 0.345224 -0.934342 0.088464
7928.071289 3311.274414 7874.587402 -0.058767 -0.251036 0.966192
7682.284180 3299.781494 7856.651855 -0.058767 -0.251036 0.966192
7509.901855 2870.648682 7734.669922 -0.058767 -0.251036 0.966192
7682.284180 3299.781494 7856.651855 0.044999 -0.289827 0.956021
7204.740723 2805.056152 7729.148438 0.044999 -0.289827 0.956021
7509.901855 2870.648682 7734.669922 0.044999 -0.289827 0.956021
7788.010742 2980.465332 7809.237793 0.460433 -0.242628 -0.853893
7387.146973 2816.303955 7639.730957 0.460433 -0.242628 -0.853893
8051.220703 3254.855713 7873.198730 0.460433 -0.242628 -0.853893
7756.552734 3351.375732 7771.651855 0.327750 0.006650 -0.944741
8051.220703 3254.855713 7873.198730 0.327750 0.006650 -0.944741
7387.146973 2816.303955 7639.730957 0.327750 0.006650 -0.944741
7788.010742 2980.465332 7809.237793 0.254427 -0.894291 0.368118
7540.343262 2971.434570 7958.475586 0.254427 -0.894291 0.368118
7509.901855 2870.648682 7734.669922 0.254427 -0.894291 0.368118
7212.591309 3077.677734 7676.269531 -0.174391 0.614677 -0.769259
7767.576660 3769.232422 8103.041504 -0.174391 0.614677 -0.769259
7756.552734 3351.375732 7771.651855 -0.174391 0.614677 -0.769259
7169.871094 2859.987061 7915.313477 0.637004 -0.698769 0.325497
7204.740723 2805.056152 7729.148438 0.637004 -0.698769 0.325497
7682.284180 3299.781494 7856.651855 0.637004 -0.698769 0.325497
7212.591309 3077.677734 7676.269531 -0.273703 0.905874 -0.323232
6803.437012 2966.863281 7712.166016 -0.273703 0.905874 -0.323232
7029.465820 3147.878906 8028.077148 -0.273703 0.905874 -0.323232
7682.284180 3299.781494 7856.651855 0.352575 -0.515008 -0.781318
7380.113281 2968.040039 7938.963379 0.352575 -0.515008 -0.781318
7169.871094 2859.987061 7915.313477 0.352575 -0.515008 -0.781318
7794.795898 3423.239990 7984.396973 -0.018055 -0.710958 0.703003
7682.284180 3299.781494 7856.651855 -0.018055 -0.710958 0.703003
7928.071289 3311.274414 7874.587402 -0.018055 -0.710958 0.703003
7794.795898 3423.239990 7984.396973 0.739254 -0.673426 -0.000271
7380.113281 2968.040039 7938.963379 0.739254 -0.673426 -0.000271
7682.284180 3299.781494 7856.651855 0.739254 -0.673426 -0.000271
8051.220703 3254.855713 7873.198730 0.419929 0.457193 -0.783986
7756.552734 3351.375732 7771.651855 0.419929 0.457193 -0.783986
8003.502441 3749.520020 8136.110352 0.419929 0.457193 -0.783986
7169.871094 2859.987061 7915.313477 -0.404410 -0.894977 0.188329
7008.429688 2964.336914 8064.532227 -0.404410 -0.894977 0.188329
7204.740723 2805.056152 7729.148438 -0.404410 -0.894977 0.188329
7928.071289 3311.274414 7874.587402 -0.669227 0.707368 -0.227521
7509.901855 2870.648682 7734.669922 -0.669227 0.707368 -0.227521
7540.343262 2971.434570 7958.475586 -0.669227 0.707368 -0.227521
7212.591309 3077.677734 7676.269531 -0.415509 0.695333 -0.586400
7432.109863 3587.534180 8125.293945 -0.415509 0.695333 -0.586400
7767.576660 3769.232422 8103.041504 -0.415509 0.695333 -0.586400
7756.552734 3351.375732 7771.651855 0.159734 0.610810 -0.775497
7767.576660 3769.232422 8103.041504 0.159734 0.610810 -0.775497
8003.502441 3749.520020 8136.110352 0.159734 0.610810 -0.775497
7029.465820 3147.878906 8028.077148 -0.847124 0.195253 0.494223
6803.437012 2966.863281 7712.166016 -0.847124 0.195253 0.494223
7008.429688 2964.336914 8064.532227 -0.847124 0.195253 0.494223
7432.109863 3587.534180 8125.293945 -0.608076 0.655813 -0.447384
7212.591309 3077.677734 7676.269531 -0.608076 0.655813 -0.447384
7029.465820 3147.878906 8028.077148 -0.608076 0.655813 -0.447384
7928.071289 3311.274414 7874.587402 -0.444637 0.298860 -0.844382
7540.343262 2971.434570 7958.475586 -0.444637 0.298860 -0.844382
7794.795898 3423.239990 7984.396973 -0.444637 0.298860 -0.844382
7540.343262 2971.434570 7958.475586 -0.049614 -0.832234 0.552200
7328.562988 3230.835205 8330.396484 -0.049614 -0.832234 0.552200
7380.113281 2968.040039 7938.963379 -0.049614 -0.832234 0.552200
7540.343262 2971.434570 7958.475586 0.121111 -0.011261 -0.992575
7380.113281 2968.040039 7938.963379 0.121111 -0.011261 -0.992575
7794.795898 3423.239990 7984.396973 0.121111 -0.011261 -0.992575
7540.343262 2971.434570 7958.475586 0.424811 -0.610967 0.668023
7788.010742 2980.465332 7809.237793 0.424811 -0.610967 0.668023
7328.562988 3230.835205 8330.396484 0.424811 -0.610967 0.668023
7782.883789 3521.321045 8320.300781 0.472373 -0.602979 0.642869
7788.010742 2980.465332 7809.237793 0.472373 -0.602979 0.642869
8051.220703 3254.855713 7873.198730 0.472373 -0.602979 0.642869
7380.113281 2968.040039 7938.963379 0.329702 -0.763156 0.555778
7328.562988 3230.835205 8330.396484 0.329702 -0.763156 0.555778
7169.871094 2859.987061 7915.313477 0.329702 -0.763156 0.555778
7328.562988 3230.835205 8330.396484 0.100861 -0.760771 0.641136
7008.429688 2964.336914 8064.532227 0.100861 -0.760771 0.641136
7169.871094 2859.987061 7915.313477 0.100861 -0.760771 0.641136
8051.220703 3254.855713 7873.198730 0.758765 -0.247119 0.602667
8003.502441 3749.520020 8136.110352 0.758765 -0.247119 0.602667
7782.883789 3521.321045 8320.300781 0.758765 -0.247119 0.602667
7008.429688 2964.336914 8064.532227 -0.452338 0.223338 0.863429
7432.109863 3587.534180 8125.293945 -0.452338 0.223338 0.863429
7029.465820 3147.878906 8028.077148 -0.452338 0.223338 0.863429
7788.010742 2980.465332 7809.237793 0.413298 -0.623329 0.663812
7782.883789 3521.321045 8320.300781 0.413298 -0.623329 0.663812
7328.562988 3230.835205 8330.396484 0.413298 -0.623329 0.663812
7432.109863 3587.534180 8125.293945 -0.288017 0.621035 0.728946
7782.883789 3521.321045 8320.300781 -0.288017 0.621035 0.728946
7767.576660 3769.232422 8103.041504 -0.288017 0.621035 0.728946
7008.429688 2964.336914 8064.532227 -0.761577 0.474745 0.441155
7328.562988 3230.835205 8330.396484 -0.761577 0.474745 0.441155
7432.109863 3587.534180 8125.293945 -0.761577 0.474745 0.441155
8003.502441 3749.520020 8136.110352 -0.050647 0.656467 0.752653
7767.576660 3769.232422 8103.041504 -0.050647 0.656467 0.752653
7782.883789 3521.321045 8320.300781 -0.050647 0.656467 0.752653
7328.562988 3230.835205 8330.396484 -0.328485 0.540668 0.774452
7782.883789 3521.321045 8320.300781 -0.328485 0.540668 0.774452
7432.109863 3587.534180 8125.293945 -0.328485 0.540668 0.774452
3 0 1 2
3 3 4 5
3 6 7 8
3 9 10 11
3 12 13 14
3 15 16 17
3 18 19 20
3 21 22 23
3 24 25 26
3 27 28 29
3 30 31 32
3 33 34 35
3 36 37 38
3 39 40 41
3 42 43 44
3 45 46 47
3 48 49 50
3 51 52 53
3 54 55 56
3 57 58 59
3 60 61 62
3 63 64 65
3 66 67 68
3 69 70 71
3 72 73 74
3 75 76 77
3 78 79 80
3 81 82 83
3 84 85 86
3 87 88 89
3 90 91 92
3 93 94 95
3 96 97 98
3 99 100 101
3 102 103 104
3 105 106 107
3 108 109 110
3 111 112 113
3 114 115 116
3 117 118 119
3 120 121 122
3 123 124 125
3 126 127 128
3 129 130 131
3 132 133 134
3 135 136 137
3 138 139 140
3 141 142 143
3 144 145 146
3 147 148 149
3 150 151 152
3 153 154 155
3 156 157 158
3 159 160 161
3 162 163 164
3 165 166 167
3 168 169 170
3 171 172 173
3 174 175 176
3 177 178 179
3 180 181 182
3 183 184 185
3 186 187 188
3 189 190 191
3 192 193 194
3 195 196 197
3 198 199 200
3 201 202 203
3 204 205 206
3 207 208 209
3 210 211 212
3 213 214 215
3 216 217 218
3 219 220 221
3 222 223 224
3 225 226 227
3 228 229 230
3 231 232 233
