ply
format ascii 1.0
comment Created by Blender 2.80 (sub 75) - www.blender.org, source file: 'downsample_ccf.blend'
element vertex 78
property float x
property float y
property float z
property float nx
property float ny
property float nz
element face 26
property list uchar uint vertex_indices
end_header
11026.053711 4197.098145 5319.179688 -0.718655 0.398504 -0.569851
11064.982422 4080.798584 5188.755859 -0.718655 0.398504 -0.569851
10847.658203 4102.478027 5477.990234 -0.718655 0.398504 -0.569851
11266.721680 4140.097168 5341.003418 -0.409767 0.113406 -0.905113
11406.522461 4248.519531 5291.296875 -0.409767 0.113406 -0.905113
11493.727539 3929.658203 5211.865234 -0.409767 0.113406 -0.905113
11064.982422 4080.798584 5188.755859 0.599178 -0.553661 -0.578311
11266.721680 4140.097168 5341.003418 0.599178 -0.553661 -0.578311
11324.695312 3980.263428 5554.089844 0.599178 -0.553661 -0.578311
11026.053711 4197.098145 5319.179688 0.234863 0.759258 -0.606932
11266.721680 4140.097168 5341.003418 0.234863 0.759258 -0.606932
11064.982422 4080.798584 5188.755859 0.234863 0.759258 -0.606932
11266.721680 4140.097168 5341.003418 -0.732659 -0.624981 -0.269460
11493.727539 3929.658203 5211.865234 -0.732659 -0.624981 -0.269460
11324.695312 3980.263428 5554.089844 -0.732659 -0.624981 -0.269460
11493.727539 3929.658203 5211.865234 -0.597661 -0.781361 -0.179657
11628.077148 3708.038818 5728.790527 -0.597661 -0.781361 -0.179657
11324.695312 3980.263428 5554.089844 -0.597661 -0.781361 -0.179657
11493.727539 3929.658203 5211.865234 0.949158 0.290058 -0.122332
11406.522461 4248.519531 5291.296875 0.949158 0.290058 -0.122332
11628.077148 3708.038818 5728.790527 0.949158 0.290058 -0.122332
11266.721680 4140.097168 5341.003418 0.237401 0.967018 -0.092282
11026.053711 4197.098145 5319.179688 0.237401 0.967018 -0.092282
11082.644531 4239.331055 5907.319336 0.237401 0.967018 -0.092282
11406.667969 4299.513184 6007.029785 -0.624127 0.779357 -0.055400
11406.522461 4248.519531 5291.296875 -0.624127 0.779357 -0.055400
11266.721680 4140.097168 5341.003418 -0.624127 0.779357 -0.055400
11064.982422 4080.798584 5188.755859 -0.231664 -0.967481 -0.101550
11324.695312 3980.263428 5554.089844 -0.231664 -0.967481 -0.101550
10847.658203 4102.478027 5477.990234 -0.231664 -0.967481 -0.101550
10970.954102 4127.855469 6165.472168 -0.436456 0.898594 0.045106
11026.053711 4197.098145 5319.179688 -0.436456 0.898594 0.045106
10847.658203 4102.478027 5477.990234 -0.436456 0.898594 0.045106
11406.522461 4248.519531 5291.296875 0.927685 0.373265 -0.008664
11567.193359 3866.998535 6058.090332 0.927685 0.373265 -0.008664
11628.077148 3708.038818 5728.790527 0.927685 0.373265 -0.008664
11266.721680 4140.097168 5341.003418 0.217857 0.970914 -0.099317
11082.644531 4239.331055 5907.319336 0.217857 0.970914 -0.099317
11291.531250 4196.528320 5947.087891 0.217857 0.970914 -0.099317
11406.522461 4248.519531 5291.296875 0.938175 0.345272 -0.024790
11406.667969 4299.513184 6007.029785 0.938175 0.345272 -0.024790
11567.193359 3866.998535 6058.090332 0.938175 0.345272 -0.024790
11291.531250 4196.528320 5947.087891 -0.653330 0.755815 -0.043629
11406.667969 4299.513184 6007.029785 -0.653330 0.755815 -0.043629
11266.721680 4140.097168 5341.003418 -0.653330 0.755815 -0.043629
11026.053711 4197.098145 5319.179688 -0.689541 0.724105 0.014351
10970.954102 4127.855469 6165.472168 -0.689541 0.724105 0.014351
11082.644531 4239.331055 5907.319336 -0.689541 0.724105 0.014351
11628.077148 3708.038818 5728.790527 -0.683360 -0.728230 0.051957
11314.525391 4023.678955 6028.844727 -0.683360 -0.728230 0.051957
11324.695312 3980.263428 5554.089844 -0.683360 -0.728230 0.051957
11324.695312 3980.263428 5554.089844 -0.259654 -0.962177 0.082427
11314.525391 4023.678955 6028.844727 -0.259654 -0.962177 0.082427
10847.658203 4102.478027 5477.990234 -0.259654 -0.962177 0.082427
11628.077148 3708.038818 5728.790527 -0.371513 -0.806415 0.460079
11408.591797 4061.887939 6171.774902 -0.371513 -0.806415 0.460079
11314.525391 4023.678955 6028.844727 -0.371513 -0.806415 0.460079
11314.525391 4023.678955 6028.844727 -0.259186 -0.962340 0.082007
10970.954102 4127.855469 6165.472168 -0.259186 -0.962340 0.082007
10847.658203 4102.478027 5477.990234 -0.259186 -0.962340 0.082007
11314.525391 4023.678955 6028.844727 0.443233 0.430788 0.786108
11291.531250 4196.528320 5947.087891 0.443233 0.430788 0.786108
10970.954102 4127.855469 6165.472168 0.443233 0.430788 0.786108
11291.531250 4196.528320 5947.087891 -0.843865 0.133543 0.519672
11314.525391 4023.678955 6028.844727 -0.843865 0.133543 0.519672
11408.591797 4061.887939 6171.774902 -0.843865 0.133543 0.519672
11406.667969 4299.513184 6007.029785 0.791332 0.352658 0.499427
11408.591797 4061.887939 6171.774902 0.791332 0.352658 0.499427
11567.193359 3866.998535 6058.090332 0.791332 0.352658 0.499427
11567.193359 3866.998535 6058.090332 -0.698534 -0.686416 0.202196
11408.591797 4061.887939 6171.774902 -0.698534 -0.686416 0.202196
11628.077148 3708.038818 5728.790527 -0.698534 -0.686416 0.202196
11291.531250 4196.528320 5947.087891 -0.682863 0.412495 0.602948
11408.591797 4061.887939 6171.774902 -0.682863 0.412495 0.602948
11406.667969 4299.513184 6007.029785 -0.682863 0.412495 0.602948
11291.531250 4196.528320 5947.087891 0.101633 0.896552 0.431121
11082.644531 4239.331055 5907.319336 0.101633 0.896552 0.431121
10970.954102 4127.855469 6165.472168 0.101633 0.896552 0.431121
3 0 1 2
3 3 4 5
3 6 7 8
3 9 10 11
3 12 13 14
3 15 16 17
3 18 19 20
3 21 22 23
3 24 25 26
3 27 28 29
3 30 31 32
3 33 34 35
3 36 37 38
3 39 40 41
3 42 43 44
3 45 46 47
3 48 49 50
3 51 52 53
3 54 55 56
3 57 58 59
3 60 61 62
3 63 64 65
3 66 67 68
3 69 70 71
3 72 73 74
3 75 76 77
