ply
format ascii 1.0
comment Created by Blender 2.80 (sub 75) - www.blender.org, source file: 'downsample_ccf.blend'
element vertex 198
property float x
property float y
property float z
property float nx
property float ny
property float nz
element face 66
property list uchar uint vertex_indices
end_header
12448.595703 6853.457520 3918.269287 0.028758 -0.636895 -0.770414
12163.644531 6739.467773 4001.867188 0.028758 -0.636895 -0.770414
12157.602539 6910.197266 3860.500977 0.028758 -0.636895 -0.770414
12157.602539 6910.197266 3860.500977 0.249114 0.363766 -0.897561
12702.983398 7218.471191 4136.807129 0.249114 0.363766 -0.897561
12448.595703 6853.457520 3918.269287 0.249114 0.363766 -0.897561
12163.644531 6739.467773 4001.867188 -0.713380 -0.461735 -0.527153
12049.337891 6896.882812 4018.674316 -0.713380 -0.461735 -0.527153
12157.602539 6910.197266 3860.500977 -0.713380 -0.461735 -0.527153
12157.602539 6910.197266 3860.500977 -0.513032 0.810398 -0.282938
12049.337891 6896.882812 4018.674316 -0.513032 0.810398 -0.282938
12247.163086 7068.939941 4152.781738 -0.513032 0.810398 -0.282938
12702.983398 7218.471191 4136.807129 0.530148 0.131988 -0.837569
12898.041992 7138.921875 4247.735840 0.530148 0.131988 -0.837569
12448.595703 6853.457520 3918.269287 0.530148 0.131988 -0.837569
12702.983398 7218.471191 4136.807129 -0.206265 0.829752 -0.518621
12157.602539 6910.197266 3860.500977 -0.206265 0.829752 -0.518621
12379.840820 7333.831543 4449.894043 -0.206265 0.829752 -0.518621
12157.602539 6910.197266 3860.500977 -0.924699 0.371905 0.081358
12247.163086 7068.939941 4152.781738 -0.924699 0.371905 0.081358
12379.840820 7333.831543 4449.894043 -0.924699 0.371905 0.081358
12163.644531 6739.467773 4001.867188 -0.639172 -0.524215 0.562723
12259.844727 6918.578613 4277.990723 -0.639172 -0.524215 0.562723
12049.337891 6896.882812 4018.674316 -0.639172 -0.524215 0.562723
12049.337891 6896.882812 4018.674316 -0.727024 0.402122 0.556537
12259.844727 6918.578613 4277.990723 -0.727024 0.402122 0.556537
12247.163086 7068.939941 4152.781738 -0.727024 0.402122 0.556537
12259.844727 6918.578613 4277.990723 0.437256 -0.816398 0.377229
12163.644531 6739.467773 4001.867188 0.437256 -0.816398 0.377229
12448.595703 6853.457520 3918.269287 0.437256 -0.816398 0.377229
12898.041992 7138.921875 4247.735840 0.695718 -0.498778 -0.516910
12926.692383 7002.671387 4417.768066 0.695718 -0.498778 -0.516910
12448.595703 6853.457520 3918.269287 0.695718 -0.498778 -0.516910
12702.983398 7218.471191 4136.807129 0.024139 0.945883 -0.323607
12379.840820 7333.831543 4449.894043 0.024139 0.945883 -0.323607
12627.692383 7352.354004 4522.521973 0.024139 0.945883 -0.323607
12247.163086 7068.939941 4152.781738 -0.557193 -0.558616 -0.614397
12259.844727 6918.578613 4277.990723 -0.557193 -0.558616 -0.614397
12090.874023 6849.892090 4493.679688 -0.557193 -0.558616 -0.614397
12379.840820 7333.831543 4449.894043 -0.753781 0.620425 -0.216536
12247.163086 7068.939941 4152.781738 -0.753781 0.620425 -0.216536
12012.943359 6988.229492 4736.868164 -0.753781 0.620425 -0.216536
12448.595703 6853.457520 3918.269287 0.291229 -0.956628 0.007020
12926.692383 7002.671387 4417.768066 0.291229 -0.956628 0.007020
12543.554688 6888.091309 4698.399414 0.291229 -0.956628 0.007020
12448.595703 6853.457520 3918.269287 -0.206316 -0.976089 0.068446
12543.554688 6888.091309 4698.399414 -0.206316 -0.976089 0.068446
12259.844727 6918.578613 4277.990723 -0.206316 -0.976089 0.068446
12012.943359 6988.229492 4736.868164 -0.927916 0.105712 -0.357488
12247.163086 7068.939941 4152.781738 -0.927916 0.105712 -0.357488
12090.874023 6849.892090 4493.679688 -0.927916 0.105712 -0.357488
12898.041992 7138.921875 4247.735840 0.468026 0.859163 -0.206860
12702.983398 7218.471191 4136.807129 0.468026 0.859163 -0.206860
12627.692383 7352.354004 4522.521973 0.468026 0.859163 -0.206860
12926.692383 7002.671387 4417.768066 0.985251 0.168247 -0.031195
12898.041992 7138.921875 4247.735840 0.985251 0.168247 -0.031195
12906.758789 7150.048340 4583.057129 0.985251 0.168247 -0.031195
12627.692383 7352.354004 4522.521973 0.592384 0.804555 -0.042096
12906.758789 7150.048340 4583.057129 0.592384 0.804555 -0.042096
12898.041992 7138.921875 4247.735840 0.592384 0.804555 -0.042096
12259.844727 6918.578613 4277.990723 0.163564 -0.969840 -0.180711
12543.554688 6888.091309 4698.399414 0.163564 -0.969840 -0.180711
12090.874023 6849.892090 4493.679688 0.163564 -0.969840 -0.180711
12228.366211 6577.500977 4794.899414 0.371655 -0.597833 -0.710259
12090.874023 6849.892090 4493.679688 0.371655 -0.597833 -0.710259
12543.554688 6888.091309 4698.399414 0.371655 -0.597833 -0.710259
11798.356445 6649.809082 4615.686523 0.177413 -0.688295 -0.703402
12090.874023 6849.892090 4493.679688 0.177413 -0.688295 -0.703402
12228.366211 6577.500977 4794.899414 0.177413 -0.688295 -0.703402
12926.692383 7002.671387 4417.768066 0.590681 -0.565574 0.575519
12906.758789 7150.048340 4583.057129 0.590681 -0.565574 0.575519
12543.554688 6888.091309 4698.399414 0.590681 -0.565574 0.575519
11798.356445 6649.809082 4615.686523 -0.618273 0.581413 -0.528864
12012.943359 6988.229492 4736.868164 -0.618273 0.581413 -0.528864
12090.874023 6849.892090 4493.679688 -0.618273 0.581413 -0.528864
12128.394531 6620.868164 4947.403809 -0.217727 -0.967007 0.132258
11798.356445 6649.809082 4615.686523 -0.217727 -0.967007 0.132258
12228.366211 6577.500977 4794.899414 -0.217727 -0.967007 0.132258
12627.692383 7352.354004 4522.521973 -0.243124 0.724562 0.644903
12379.840820 7333.831543 4449.894043 -0.243124 0.724562 0.644903
12094.785156 6760.901367 4986.128906 -0.243124 0.724562 0.644903
12012.943359 6988.229492 4736.868164 -0.129358 0.711144 0.691043
12094.785156 6760.901367 4986.128906 -0.129358 0.711144 0.691043
12379.840820 7333.831543 4449.894043 -0.129358 0.711144 0.691043
12906.758789 7150.048340 4583.057129 0.047790 0.346273 0.936916
12627.692383 7352.354004 4522.521973 0.047790 0.346273 0.936916
12543.554688 6888.091309 4698.399414 0.047790 0.346273 0.936916
12128.394531 6620.868164 4947.403809 -0.680804 -0.342455 0.647480
12094.785156 6760.901367 4986.128906 -0.680804 -0.342455 0.647480
11798.356445 6649.809082 4615.686523 -0.680804 -0.342455 0.647480
12094.785156 6760.901367 4986.128906 0.476704 0.234552 0.847195
12543.554688 6888.091309 4698.399414 0.476704 0.234552 0.847195
12627.692383 7352.354004 4522.521973 0.476704 0.234552 0.847195
12094.785156 6760.901367 4986.128906 -0.785993 0.306033 0.537177
12012.943359 6988.229492 4736.868164 -0.785993 0.306033 0.537177
11798.356445 6649.809082 4615.686523 -0.785993 0.306033 0.537177
12228.366211 6577.500977 4794.899414 0.658244 -0.490579 0.571005
12543.554688 6888.091309 4698.399414 0.658244 -0.490579 0.571005
12128.394531 6620.868164 4947.403809 0.658244 -0.490579 0.571005
12128.394531 6620.868164 4947.403809 0.556216 -0.094819 0.825611
12543.554688 6888.091309 4698.399414 0.556216 -0.094819 0.825611
12094.785156 6760.901367 4986.128906 0.556216 -0.094819 0.825611
12488.072266 6960.728027 6622.210938 0.085817 0.573362 -0.814795
12140.156250 6677.783691 6386.462402 0.085817 0.573362 -0.814795
12008.974609 6910.013672 6536.063477 0.085817 0.573362 -0.814795
12140.156250 6677.783691 6386.462402 0.329333 -0.943976 -0.021195
12353.588867 6743.674805 6768.198242 0.329333 -0.943976 -0.021195
11882.003906 6579.857910 6736.615723 0.329333 -0.943976 -0.021195
11882.003906 6579.857910 6736.615723 -0.610349 -0.521863 -0.595930
11799.366211 6683.687500 6730.328125 -0.610349 -0.521863 -0.595930
12140.156250 6677.783691 6386.462402 -0.610349 -0.521863 -0.595930
11799.366211 6683.687500 6730.328125 -0.708836 0.052720 -0.703401
12008.974609 6910.013672 6536.063477 -0.708836 0.052720 -0.703401
12140.156250 6677.783691 6386.462402 -0.708836 0.052720 -0.703401
12353.588867 6743.674805 6768.198242 0.714299 -0.637207 -0.289385
12140.156250 6677.783691 6386.462402 0.714299 -0.637207 -0.289385
12488.072266 6960.728027 6622.210938 0.714299 -0.637207 -0.289385
12008.974609 6910.013672 6536.063477 0.102939 0.494043 -0.863322
12665.477539 7351.093750 6866.753906 0.102939 0.494043 -0.863322
12488.072266 6960.728027 6622.210938 0.102939 0.494043 -0.863322
12665.477539 7351.093750 6866.753906 0.180128 0.462106 -0.868338
12915.217773 7109.091309 6789.772949 0.180128 0.462106 -0.868338
12488.072266 6960.728027 6622.210938 0.180128 0.462106 -0.868338
12370.174805 7328.463379 6915.916016 -0.165534 0.737372 -0.654890
12665.477539 7351.093750 6866.753906 -0.165534 0.737372 -0.654890
12008.974609 6910.013672 6536.063477 -0.165534 0.737372 -0.654890
12488.072266 6960.728027 6622.210938 0.460661 -0.673913 -0.577610
12915.217773 7109.091309 6789.772949 0.460661 -0.673913 -0.577610
12353.588867 6743.674805 6768.198242 0.460661 -0.673913 -0.577610
11799.366211 6683.687500 6730.328125 -0.691515 0.716855 0.089032
12024.379883 6885.947754 6849.487793 -0.691515 0.716855 0.089032
12008.974609 6910.013672 6536.063477 -0.691515 0.716855 0.089032
12915.217773 7109.091309 6789.772949 0.531545 -0.800638 -0.276476
12870.505859 7003.137695 7010.638672 0.531545 -0.800638 -0.276476
12353.588867 6743.674805 6768.198242 0.531545 -0.800638 -0.276476
12008.974609 6910.013672 6536.063477 -0.791256 0.605494 0.085384
12024.379883 6885.947754 6849.487793 -0.791256 0.605494 0.085384
12370.174805 7328.463379 6915.916016 -0.791256 0.605494 0.085384
11882.003906 6579.857910 6736.615723 -0.316069 -0.195337 0.928409
12024.379883 6885.947754 6849.487793 -0.316069 -0.195337 0.928409
11799.366211 6683.687500 6730.328125 -0.316069 -0.195337 0.928409
12665.477539 7351.093750 6866.753906 0.648666 0.733724 -0.202191
12888.364258 7221.827637 7112.727051 0.648666 0.733724 -0.202191
12915.217773 7109.091309 6789.772949 0.648666 0.733724 -0.202191
12353.588867 6743.674805 6768.198242 0.067474 -0.372671 0.925507
12024.379883 6885.947754 6849.487793 0.067474 -0.372671 0.925507
11882.003906 6579.857910 6736.615723 0.067474 -0.372671 0.925507
12870.505859 7003.137695 7010.638672 0.981284 -0.141237 0.130896
12915.217773 7109.091309 6789.772949 0.981284 -0.141237 0.130896
12888.364258 7221.827637 7112.727051 0.981284 -0.141237 0.130896
12353.588867 6743.674805 6768.198242 0.205000 -0.854458 0.477363
12870.505859 7003.137695 7010.638672 0.205000 -0.854458 0.477363
12239.129883 6914.056152 7122.326660 0.205000 -0.854458 0.477363
12239.129883 6914.056152 7122.326660 -0.304146 -0.893122 0.331403
12024.379883 6885.947754 6849.487793 -0.304146 -0.893122 0.331403
12353.588867 6743.674805 6768.198242 -0.304146 -0.893122 0.331403
12239.129883 6914.056152 7122.326660 -0.761442 -0.192093 0.619117
12296.054688 7130.450684 7259.478027 -0.761442 -0.192093 0.619117
12024.379883 6885.947754 6849.487793 -0.761442 -0.192093 0.619117
12024.379883 6885.947754 6849.487793 -0.788685 0.590734 0.170320
12296.054688 7130.450684 7259.478027 -0.788685 0.590734 0.170320
12370.174805 7328.463379 6915.916016 -0.788685 0.590734 0.170320
12370.174805 7328.463379 6915.916016 0.017324 0.864648 0.502079
12296.054688 7130.450684 7259.478027 0.017324 0.864648 0.502079
12665.477539 7351.093750 6866.753906 0.017324 0.864648 0.502079
12239.129883 6914.056152 7122.326660 -0.024529 -0.709346 -0.704434
12870.505859 7003.137695 7010.638672 -0.024529 -0.709346 -0.704434
12199.821289 6758.827637 7280.006348 -0.024529 -0.709346 -0.704434
12888.364258 7221.827637 7112.727051 -0.017267 0.878545 0.477348
12665.477539 7351.093750 6866.753906 -0.017267 0.878545 0.477348
12296.054688 7130.450684 7259.478027 -0.017267 0.878545 0.477348
12239.129883 6914.056152 7122.326660 -0.725021 0.494538 -0.479351
12045.853516 6882.619141 7382.225098 -0.725021 0.494538 -0.479351
12296.054688 7130.450684 7259.478027 -0.725021 0.494538 -0.479351
12239.129883 6914.056152 7122.326660 -0.709130 -0.405990 -0.576461
12199.821289 6758.827637 7280.006348 -0.709130 -0.405990 -0.576461
12045.853516 6882.619141 7382.225098 -0.709130 -0.405990 -0.576461
12199.821289 6758.827637 7280.006348 0.384943 -0.913786 0.129667
12870.505859 7003.137695 7010.638672 0.384943 -0.913786 0.129667
12508.689453 6917.323730 7480.018555 0.384943 -0.913786 0.129667
12870.505859 7003.137695 7010.638672 0.778371 -0.316630 0.542111
12888.364258 7221.827637 7112.727051 0.778371 -0.316630 0.542111
12508.689453 6917.323730 7480.018555 0.778371 -0.316630 0.542111
12296.054688 7130.450684 7259.478027 0.074725 0.682810 0.726764
12168.166016 6859.520508 7527.171875 0.074725 0.682810 0.726764
12888.364258 7221.827637 7112.727051 0.074725 0.682810 0.726764
12199.821289 6758.827637 7280.006348 -0.484138 -0.830246 0.276229
12168.166016 6859.520508 7527.171875 -0.484138 -0.830246 0.276229
12045.853516 6882.619141 7382.225098 -0.484138 -0.830246 0.276229
12045.853516 6882.619141 7382.225098 -0.466665 0.723251 0.509050
12168.166016 6859.520508 7527.171875 -0.466665 0.723251 0.509050
12296.054688 7130.450684 7259.478027 -0.466665 0.723251 0.509050
12888.364258 7221.827637 7112.727051 -0.050920 0.794071 0.605689
12168.166016 6859.520508 7527.171875 -0.050920 0.794071 0.605689
12508.689453 6917.323730 7480.018555 -0.050920 0.794071 0.605689
12199.821289 6758.827637 7280.006348 0.206443 -0.896627 0.391717
12508.689453 6917.323730 7480.018555 0.206443 -0.896627 0.391717
12168.166016 6859.520508 7527.171875 0.206443 -0.896627 0.391717
3 0 1 2
3 3 4 5
3 6 7 8
3 9 10 11
3 12 13 14
3 15 16 17
3 18 19 20
3 21 22 23
3 24 25 26
3 27 28 29
3 30 31 32
3 33 34 35
3 36 37 38
3 39 40 41
3 42 43 44
3 45 46 47
3 48 49 50
3 51 52 53
3 54 55 56
3 57 58 59
3 60 61 62
3 63 64 65
3 66 67 68
3 69 70 71
3 72 73 74
3 75 76 77
3 78 79 80
3 81 82 83
3 84 85 86
3 87 88 89
3 90 91 92
3 93 94 95
3 96 97 98
3 99 100 101
3 102 103 104
3 105 106 107
3 108 109 110
3 111 112 113
3 114 115 116
3 117 118 119
3 120 121 122
3 123 124 125
3 126 127 128
3 129 130 131
3 132 133 134
3 135 136 137
3 138 139 140
3 141 142 143
3 144 145 146
3 147 148 149
3 150 151 152
3 153 154 155
3 156 157 158
3 159 160 161
3 162 163 164
3 165 166 167
3 168 169 170
3 171 172 173
3 174 175 176
3 177 178 179
3 180 181 182
3 183 184 185
3 186 187 188
3 189 190 191
3 192 193 194
3 195 196 197
