ply
format ascii 1.0
comment Created by Blender 2.80 (sub 75) - www.blender.org, source file: 'downsample_ccf.blend'
element vertex 222
property float x
property float y
property float z
property float nx
property float ny
property float nz
element face 74
property list uchar uint vertex_indices
end_header
5292.021484 3328.666992 4768.744141 -0.088991 0.148475 -0.984904
4941.736816 3590.619873 4839.883789 -0.088991 0.148475 -0.984904
5059.111328 3669.896973 4841.229492 -0.088991 0.148475 -0.984904
5403.951660 3417.836182 4813.655762 0.141900 0.297414 -0.944145
5292.021484 3328.666992 4768.744141 0.141900 0.297414 -0.944145
5059.111328 3669.896973 4841.229492 0.141900 0.297414 -0.944145
5733.457520 3016.150879 4939.488281 0.366231 0.008939 -0.930481
5292.021484 3328.666992 4768.744141 0.366231 0.008939 -0.930481
5403.951660 3417.836182 4813.655762 0.366231 0.008939 -0.930481
5292.021484 3328.666992 4768.744141 -0.195995 -0.458572 -0.866774
5711.680176 2534.618652 5093.947266 -0.195995 -0.458572 -0.866774
5508.976074 2611.564941 5099.073730 -0.195995 -0.458572 -0.866774
5059.111328 3669.896973 4841.229492 -0.373340 0.565239 -0.735610
4941.736816 3590.619873 4839.883789 -0.373340 0.565239 -0.735610
4707.308105 3683.200684 5030.000977 -0.373340 0.565239 -0.735610
5059.111328 3669.896973 4841.229492 0.541313 0.687628 0.483889
5297.229980 3256.476807 5162.341309 0.541313 0.687628 0.483889
5403.951660 3417.836182 4813.655762 0.541313 0.687628 0.483889
5733.457520 3016.150879 4939.488281 0.145489 -0.308147 -0.940148
5711.680176 2534.618652 5093.947266 0.145489 -0.308147 -0.940148
5292.021484 3328.666992 4768.744141 0.145489 -0.308147 -0.940148
5403.951660 3417.836182 4813.655762 0.779270 0.625049 -0.045308
5649.425293 3138.992188 5188.848145 0.779270 0.625049 -0.045308
5733.457520 3016.150879 4939.488281 0.779270 0.625049 -0.045308
5292.021484 3328.666992 4768.744141 -0.489087 -0.451307 -0.746402
4971.497070 3018.916504 5166.059570 -0.489087 -0.451307 -0.746402
4941.736816 3590.619873 4839.883789 -0.489087 -0.451307 -0.746402
5800.082520 2606.091797 5090.734375 0.214599 -0.307107 -0.927164
5711.680176 2534.618652 5093.947266 0.214599 -0.307107 -0.927164
5733.457520 3016.150879 4939.488281 0.214599 -0.307107 -0.927164
4941.736816 3590.619873 4839.883789 -0.637547 -0.406550 -0.654409
4971.497070 3018.916504 5166.059570 -0.637547 -0.406550 -0.654409
4669.978027 3396.009521 5225.541504 -0.637547 -0.406550 -0.654409
4707.308105 3683.200684 5030.000977 -0.669376 -0.356707 -0.651686
4941.736816 3590.619873 4839.883789 -0.669376 -0.356707 -0.651686
4669.978027 3396.009521 5225.541504 -0.669376 -0.356707 -0.651686
4971.497070 3018.916504 5166.059570 -0.458682 -0.482501 -0.746193
5292.021484 3328.666992 4768.744141 -0.458682 -0.482501 -0.746193
5508.976074 2611.564941 5099.073730 -0.458682 -0.482501 -0.746193
5297.229980 3256.476807 5162.341309 0.247678 0.848146 0.468299
5649.425293 3138.992188 5188.848145 0.247678 0.848146 0.468299
5403.951660 3417.836182 4813.655762 0.247678 0.848146 0.468299
5800.082520 2606.091797 5090.734375 0.958304 0.052070 -0.280967
5733.457520 3016.150879 4939.488281 0.958304 0.052070 -0.280967
5829.472656 2707.934082 5209.850098 0.958304 0.052070 -0.280967
4743.663086 3437.324219 5459.653809 0.503805 0.691884 0.517182
5297.229980 3256.476807 5162.341309 0.503805 0.691884 0.517182
5059.111328 3669.896973 4841.229492 0.503805 0.691884 0.517182
5800.082520 2606.091797 5090.734375 0.629050 -0.777047 0.022252
5753.983398 2575.286377 5318.188477 0.629050 -0.777047 0.022252
5711.680176 2534.618652 5093.947266 0.629050 -0.777047 0.022252
5733.457520 3016.150879 4939.488281 0.914343 0.387618 0.117175
5649.425293 3138.992188 5188.848145 0.914343 0.387618 0.117175
5829.472656 2707.934082 5209.850098 0.914343 0.387618 0.117175
5829.472656 2707.934082 5209.850098 0.903199 -0.409832 0.127549
5753.983398 2575.286377 5318.188477 0.903199 -0.409832 0.127549
5800.082520 2606.091797 5090.734375 0.903199 -0.409832 0.127549
5829.472656 2707.934082 5209.850098 0.807536 0.360059 0.467165
5649.425293 3138.992188 5188.848145 0.807536 0.360059 0.467165
5667.512207 2712.085938 5486.613281 0.807536 0.360059 0.467165
5711.680176 2534.618652 5093.947266 -0.340331 -0.911850 0.229574
5753.983398 2575.286377 5318.188477 -0.340331 -0.911850 0.229574
5508.976074 2611.564941 5099.073730 -0.340331 -0.911850 0.229574
5059.111328 3669.896973 4841.229492 0.278309 0.843602 0.459217
4707.308105 3683.200684 5030.000977 0.278309 0.843602 0.459217
4743.663086 3437.324219 5459.653809 0.278309 0.843602 0.459217
5297.229980 3256.476807 5162.341309 0.197921 0.738700 0.644321
5303.805176 2962.688721 5497.143066 0.197921 0.738700 0.644321
5649.425293 3138.992188 5188.848145 0.197921 0.738700 0.644321
5404.241699 2788.100586 5514.108887 -0.577510 -0.793534 0.191795
4971.497070 3018.916504 5166.059570 -0.577510 -0.793534 0.191795
5508.976074 2611.564941 5099.073730 -0.577510 -0.793534 0.191795
4971.497070 3018.916504 5166.059570 -0.752415 -0.631281 0.188030
4827.895020 3288.075195 5495.084473 -0.752415 -0.631281 0.188030
4669.978027 3396.009521 5225.541504 -0.752415 -0.631281 0.188030
4669.978027 3396.009521 5225.541504 -0.927547 0.285084 0.241628
4743.663086 3437.324219 5459.653809 -0.927547 0.285084 0.241628
4707.308105 3683.200684 5030.000977 -0.927547 0.285084 0.241628
5508.976074 2611.564941 5099.073730 -0.380194 -0.881783 0.279125
5753.983398 2575.286377 5318.188477 -0.380194 -0.881783 0.279125
5404.241699 2788.100586 5514.108887 -0.380194 -0.881783 0.279125
5753.983398 2575.286377 5318.188477 0.859981 -0.077434 0.504418
5829.472656 2707.934082 5209.850098 0.859981 -0.077434 0.504418
5667.512207 2712.085938 5486.613281 0.859981 -0.077434 0.504418
4669.978027 3396.009521 5225.541504 -0.851560 -0.400204 0.338648
4827.895020 3288.075195 5495.084473 -0.851560 -0.400204 0.338648
4743.663086 3437.324219 5459.653809 -0.851560 -0.400204 0.338648
5753.983398 2575.286377 5318.188477 -0.173694 -0.806168 0.565617
5667.512207 2712.085938 5486.613281 -0.173694 -0.806168 0.565617
5404.241699 2788.100586 5514.108887 -0.173694 -0.806168 0.565617
5297.229980 3256.476807 5162.341309 0.513307 0.650038 0.560327
4743.663086 3437.324219 5459.653809 0.513307 0.650038 0.560327
5303.805176 2962.688721 5497.143066 0.513307 0.650038 0.560327
4827.895020 3288.075195 5495.084473 -0.629014 -0.713338 0.309015
4971.497070 3018.916504 5166.059570 -0.629014 -0.713338 0.309015
5404.241699 2788.100586 5514.108887 -0.629014 -0.713338 0.309015
5667.512207 2712.085938 5486.613281 0.391919 0.537429 0.746706
5649.425293 3138.992188 5188.848145 0.391919 0.537429 0.746706
5303.805176 2962.688721 5497.143066 0.391919 0.537429 0.746706
5303.805176 2962.688721 5497.143066 0.233616 0.347432 0.908138
4743.663086 3437.324219 5459.653809 0.233616 0.347432 0.908138
4827.895020 3288.075195 5495.084473 0.233616 0.347432 0.908138
4827.895020 3288.075195 5495.084473 0.100648 0.153427 0.983021
5404.241699 2788.100586 5514.108887 0.100648 0.153427 0.983021
5303.805176 2962.688721 5497.143066 0.100648 0.153427 0.983021
5667.512207 2712.085938 5486.613281 0.154267 0.183096 0.970916
5303.805176 2962.688721 5497.143066 0.154267 0.183096 0.970916
5404.241699 2788.100586 5514.108887 0.154267 0.183096 0.970916
5611.276855 2711.617432 5861.998535 0.113661 0.260736 -0.958696
5256.229492 2900.194580 5871.191895 0.113661 0.260736 -0.958696
5286.101074 3011.562256 5905.021973 0.113661 0.260736 -0.958696
4779.836914 3384.426270 5886.164062 0.207062 0.233089 -0.950155
5286.101074 3011.562256 5905.021973 0.207062 0.233089 -0.950155
5256.229492 2900.194580 5871.191895 0.207062 0.233089 -0.950155
5649.068359 2558.944580 6131.260254 -0.438732 -0.806734 -0.395846
5256.229492 2900.194580 5871.191895 -0.438732 -0.806734 -0.395846
5611.276855 2711.617432 5861.998535 -0.438732 -0.806734 -0.395846
5286.101074 3011.562256 5905.021973 0.370624 0.512870 -0.774339
5678.379883 3054.459717 6121.191895 0.370624 0.512870 -0.774339
5611.276855 2711.617432 5861.998535 0.370624 0.512870 -0.774339
4675.353516 3400.581055 5982.166992 -0.600545 -0.573599 -0.557073
4779.836914 3384.426270 5886.164062 -0.600545 -0.573599 -0.557073
5256.229492 2900.194580 5871.191895 -0.600545 -0.573599 -0.557073
5611.276855 2711.617432 5861.998535 0.730202 0.315316 -0.606120
5678.379883 3054.459717 6121.191895 0.730202 0.315316 -0.606120
5820.525879 2717.975586 6117.391602 0.730202 0.315316 -0.606120
4675.353516 3400.581055 5982.166992 -0.660532 -0.718385 -0.218220
5256.229492 2900.194580 5871.191895 -0.660532 -0.718385 -0.218220
5290.314453 2750.061035 6262.263184 -0.660532 -0.718385 -0.218220
4742.821289 3589.076172 6149.877930 -0.436119 0.680255 -0.589113
4779.836914 3384.426270 5886.164062 -0.436119 0.680255 -0.589113
4675.353516 3400.581055 5982.166992 -0.436119 0.680255 -0.589113
5820.525879 2717.975586 6117.391602 0.709385 -0.413300 -0.570925
5789.110352 2558.683105 6193.670898 0.709385 -0.413300 -0.570925
5611.276855 2711.617432 5861.998535 0.709385 -0.413300 -0.570925
5611.276855 2711.617432 5861.998535 0.223192 -0.834180 -0.504310
5789.110352 2558.683105 6193.670898 0.223192 -0.834180 -0.504310
5649.068359 2558.944580 6131.260254 0.223192 -0.834180 -0.504310
5290.314453 2750.061035 6262.263184 -0.526843 -0.807852 -0.264218
5256.229492 2900.194580 5871.191895 -0.526843 -0.807852 -0.264218
5649.068359 2558.944580 6131.260254 -0.526843 -0.807852 -0.264218
5286.101074 3011.562256 5905.021973 0.534741 0.702288 -0.469939
4779.836914 3384.426270 5886.164062 0.534741 0.702288 -0.469939
4742.821289 3589.076172 6149.877930 0.534741 0.702288 -0.469939
4759.820801 3264.991943 6209.791504 -0.676823 -0.715091 -0.174802
4675.353516 3400.581055 5982.166992 -0.676823 -0.715091 -0.174802
5290.314453 2750.061035 6262.263184 -0.676823 -0.715091 -0.174802
5820.525879 2717.975586 6117.391602 0.916684 0.388314 -0.094358
5678.379883 3054.459717 6121.191895 0.916684 0.388314 -0.094358
5648.457520 3186.991455 6375.908691 0.916684 0.388314 -0.094358
4742.821289 3589.076172 6149.877930 -0.710431 0.592368 -0.379983
4675.353516 3400.581055 5982.166992 -0.710431 0.592368 -0.379983
4701.441895 3670.050537 6353.476074 -0.710431 0.592368 -0.379983
5649.068359 2558.944580 6131.260254 -0.000197 -0.999993 -0.003748
5789.110352 2558.683105 6193.670898 -0.000197 -0.999993 -0.003748
5700.286621 2558.368408 6282.312012 -0.000197 -0.999993 -0.003748
5820.525879 2717.975586 6117.391602 0.881870 0.430061 -0.193269
5648.457520 3186.991455 6375.908691 0.881870 0.430061 -0.193269
5726.992188 3052.218506 6434.359863 0.881870 0.430061 -0.193269
4675.353516 3400.581055 5982.166992 -0.950325 -0.216345 0.223778
4759.820801 3264.991943 6209.791504 -0.950325 -0.216345 0.223778
4701.441895 3670.050537 6353.476074 -0.950325 -0.216345 0.223778
5781.746582 2785.088379 6372.376465 0.978895 0.176907 0.102313
5820.525879 2717.975586 6117.391602 0.978895 0.176907 0.102313
5726.992188 3052.218506 6434.359863 0.978895 0.176907 0.102313
5290.314453 2750.061035 6262.263184 -0.424985 -0.894200 0.140692
5649.068359 2558.944580 6131.260254 -0.424985 -0.894200 0.140692
5700.286621 2558.368408 6282.312012 -0.424985 -0.894200 0.140692
5286.101074 3011.562256 5905.021973 0.197047 0.829728 -0.522230
5453.052246 3386.439209 6563.626465 0.197047 0.829728 -0.522230
5678.379883 3054.459717 6121.191895 0.197047 0.829728 -0.522230
4742.821289 3589.076172 6149.877930 0.502617 0.692333 -0.517736
5002.751465 3676.738770 6519.442383 0.502617 0.692333 -0.517736
5286.101074 3011.562256 5905.021973 0.502617 0.692333 -0.517736
5781.746582 2785.088379 6372.376465 0.978222 -0.108062 0.177215
5789.110352 2558.683105 6193.670898 0.978222 -0.108062 0.177215
5820.525879 2717.975586 6117.391602 0.978222 -0.108062 0.177215
5648.457520 3186.991455 6375.908691 0.471816 0.803635 -0.362714
5678.379883 3054.459717 6121.191895 0.471816 0.803635 -0.362714
5453.052246 3386.439209 6563.626465 0.471816 0.803635 -0.362714
5700.286621 2558.368408 6282.312012 0.623693 -0.471699 0.623303
5789.110352 2558.683105 6193.670898 0.623693 -0.471699 0.623303
5781.746582 2785.088379 6372.376465 0.623693 -0.471699 0.623303
4701.441895 3670.050537 6353.476074 0.164232 0.927598 -0.335543
5002.751465 3676.738770 6519.442383 0.164232 0.927598 -0.335543
4742.821289 3589.076172 6149.877930 0.164232 0.927598 -0.335543
5700.286621 2558.368408 6282.312012 -0.280057 -0.514170 0.810677
5193.462402 3296.323975 6575.270508 -0.280057 -0.514170 0.810677
5290.314453 2750.061035 6262.263184 -0.280057 -0.514170 0.810677
5193.462402 3296.323975 6575.270508 -0.541551 -0.488177 0.684402
4759.820801 3264.991943 6209.791504 -0.541551 -0.488177 0.684402
5290.314453 2750.061035 6262.263184 -0.541551 -0.488177 0.684402
5286.101074 3011.562256 5905.021973 0.498053 0.693282 -0.520868
5002.751465 3676.738770 6519.442383 0.498053 0.693282 -0.520868
5453.052246 3386.439209 6563.626465 0.498053 0.693282 -0.520868
5700.286621 2558.368408 6282.312012 -0.000234 -0.369114 0.929384
5781.746582 2785.088379 6372.376465 -0.000234 -0.369114 0.929384
5193.462402 3296.323975 6575.270508 -0.000234 -0.369114 0.929384
4759.820801 3264.991943 6209.791504 -0.590446 -0.344069 0.730062
5193.462402 3296.323975 6575.270508 -0.590446 -0.344069 0.730062
4701.441895 3670.050537 6353.476074 -0.590446 -0.344069 0.730062
5648.457520 3186.991455 6375.908691 0.794406 0.562403 0.229393
5453.052246 3386.439209 6563.626465 0.794406 0.562403 0.229393
5726.992188 3052.218506 6434.359863 0.794406 0.562403 0.229393
5193.462402 3296.323975 6575.270508 -0.532297 -0.214823 0.818848
5139.569336 3539.704834 6604.087402 -0.532297 -0.214823 0.818848
4701.441895 3670.050537 6353.476074 -0.532297 -0.214823 0.818848
5139.569336 3539.704834 6604.087402 -0.482644 0.057919 0.873899
5002.751465 3676.738770 6519.442383 -0.482644 0.057919 0.873899
4701.441895 3670.050537 6353.476074 -0.482644 0.057919 0.873899
5781.746582 2785.088379 6372.376465 0.125694 -0.237624 0.963190
5453.052246 3386.439209 6563.626465 0.125694 -0.237624 0.963190
5193.462402 3296.323975 6575.270508 0.125694 -0.237624 0.963190
5726.992188 3052.218506 6434.359863 0.240470 -0.172357 0.955232
5453.052246 3386.439209 6563.626465 0.240470 -0.172357 0.955232
5781.746582 2785.088379 6372.376465 0.240470 -0.172357 0.955232
5453.052246 3386.439209 6563.626465 0.429957 0.744637 0.510541
5002.751465 3676.738770 6519.442383 0.429957 0.744637 0.510541
5139.569336 3539.704834 6604.087402 0.429957 0.744637 0.510541
5139.569336 3539.704834 6604.087402 0.079171 -0.099905 0.991842
5193.462402 3296.323975 6575.270508 0.079171 -0.099905 0.991842
5453.052246 3386.439209 6563.626465 0.079171 -0.099905 0.991842
3 0 1 2
3 3 4 5
3 6 7 8
3 9 10 11
3 12 13 14
3 15 16 17
3 18 19 20
3 21 22 23
3 24 25 26
3 27 28 29
3 30 31 32
3 33 34 35
3 36 37 38
3 39 40 41
3 42 43 44
3 45 46 47
3 48 49 50
3 51 52 53
3 54 55 56
3 57 58 59
3 60 61 62
3 63 64 65
3 66 67 68
3 69 70 71
3 72 73 74
3 75 76 77
3 78 79 80
3 81 82 83
3 84 85 86
3 87 88 89
3 90 91 92
3 93 94 95
3 96 97 98
3 99 100 101
3 102 103 104
3 105 106 107
3 108 109 110
3 111 112 113
3 114 115 116
3 117 118 119
3 120 121 122
3 123 124 125
3 126 127 128
3 129 130 131
3 132 133 134
3 135 136 137
3 138 139 140
3 141 142 143
3 144 145 146
3 147 148 149
3 150 151 152
3 153 154 155
3 156 157 158
3 159 160 161
3 162 163 164
3 165 166 167
3 168 169 170
3 171 172 173
3 174 175 176
3 177 178 179
3 180 181 182
3 183 184 185
3 186 187 188
3 189 190 191
3 192 193 194
3 195 196 197
3 198 199 200
3 201 202 203
3 204 205 206
3 207 208 209
3 210 211 212
3 213 214 215
3 216 217 218
3 219 220 221
