ply
format ascii 1.0
comment Created by Blender 2.80 (sub 75) - www.blender.org, source file: 'downsample_ccf.blend'
element vertex 501
property float x
property float y
property float z
property float nx
property float ny
property float nz
element face 167
property list uchar uint vertex_indices
end_header
5375.230957 3551.215088 4759.319824 -0.036709 0.026997 -0.998961
4732.738281 4305.820801 4803.323242 -0.036709 0.026997 -0.998961
5295.245605 4127.302246 4777.828125 -0.036709 0.026997 -0.998961
5408.448242 3711.018799 4818.129883 0.690882 0.118835 -0.713135
5375.230957 3551.215088 4759.319824 0.690882 0.118835 -0.713135
5295.245605 4127.302246 4777.828125 0.690882 0.118835 -0.713135
5295.245605 4127.302246 4777.828125 -0.041915 0.010610 -0.999065
4732.738281 4305.820801 4803.323242 -0.041915 0.010610 -0.999065
5169.936523 4220.975098 4784.080078 -0.041915 0.010610 -0.999065
5375.230957 3551.215088 4759.319824 0.709017 0.109022 -0.696713
5408.448242 3711.018799 4818.129883 0.709017 0.109022 -0.696713
5491.326172 3418.648193 4856.721191 0.709017 0.109022 -0.696713
5375.230957 3551.215088 4759.319824 -0.326185 -0.224172 -0.918341
4251.129395 4284.140137 4979.678223 -0.326185 -0.224172 -0.918341
4732.738281 4305.820801 4803.323242 -0.326185 -0.224172 -0.918341
5295.245605 4127.302246 4777.828125 0.574340 0.784027 -0.235448
5169.936523 4220.975098 4784.080078 0.574340 0.784027 -0.235448
5278.653320 4201.876953 4985.683105 0.574340 0.784027 -0.235448
5169.936523 4220.975098 4784.080078 0.516041 0.833039 -0.199366
5181.980957 4301.217773 5150.544922 0.516041 0.833039 -0.199366
5278.653320 4201.876953 4985.683105 0.516041 0.833039 -0.199366
5408.448242 3711.018799 4818.129883 0.965230 0.260879 -0.016548
5295.245605 4127.302246 4777.828125 0.965230 0.260879 -0.016548
5278.653320 4201.876953 4985.683105 0.965230 0.260879 -0.016548
5375.230957 3551.215088 4759.319824 -0.428645 -0.416349 -0.801821
4645.805664 3885.599365 4975.632324 -0.428645 -0.416349 -0.801821
4251.129395 4284.140137 4979.678223 -0.428645 -0.416349 -0.801821
4251.129395 4284.140137 4979.678223 -0.318387 -0.284045 -0.904405
4291.552734 4410.505371 4925.760254 -0.318387 -0.284045 -0.904405
4732.738281 4305.820801 4803.323242 -0.318387 -0.284045 -0.904405
5169.936523 4220.975098 4784.080078 0.148705 0.872022 -0.466331
4732.738281 4305.820801 4803.323242 0.148705 0.872022 -0.466331
4907.719727 4382.892578 5003.243164 0.148705 0.872022 -0.466331
5531.179199 3261.850830 5110.659668 0.961262 0.274987 0.018934
5491.326172 3418.648193 4856.721191 0.961262 0.274987 0.018934
5408.448242 3711.018799 4818.129883 0.961262 0.274987 0.018934
5356.167969 3620.216064 5144.826172 0.961268 0.184198 0.205025
5408.448242 3711.018799 4818.129883 0.961268 0.184198 0.205025
5278.653320 4201.876953 4985.683105 0.961268 0.184198 0.205025
4907.719727 4382.892578 5003.243164 0.094187 0.898471 -0.428810
4732.738281 4305.820801 4803.323242 0.094187 0.898471 -0.428810
4291.552734 4410.505371 4925.760254 0.094187 0.898471 -0.428810
4291.552734 4410.505371 4925.760254 -0.487876 -0.205882 -0.848287
4251.129395 4284.140137 4979.678223 -0.487876 -0.205882 -0.848287
4064.768555 4680.225098 4990.729004 -0.487876 -0.205882 -0.848287
5181.980957 4301.217773 5150.544922 0.380815 0.900557 -0.209706
5169.936523 4220.975098 4784.080078 0.380815 0.900557 -0.209706
4907.719727 4382.892578 5003.243164 0.380815 0.900557 -0.209706
4291.552734 4410.505371 4925.760254 0.351037 0.487695 -0.799329
4064.768555 4680.225098 4990.729004 0.351037 0.487695 -0.799329
4348.609863 4823.239258 5202.639160 0.351037 0.487695 -0.799329
4145.389160 5066.875488 5166.103027 0.481401 0.276830 -0.831636
4348.609863 4823.239258 5202.639160 0.481401 0.276830 -0.831636
4064.768555 4680.225098 4990.729004 0.481401 0.276830 -0.831636
5580.127930 2961.403320 5414.177246 0.988906 0.011502 -0.148096
5491.326172 3418.648193 4856.721191 0.988906 0.011502 -0.148096
5531.179199 3261.850830 5110.659668 0.988906 0.011502 -0.148096
5375.230957 3551.215088 4759.319824 -0.388506 -0.741828 -0.546585
5491.326172 3418.648193 4856.721191 -0.388506 -0.741828 -0.546585
5580.127930 2961.403320 5414.177246 -0.388506 -0.741828 -0.546585
4291.552734 4410.505371 4925.760254 0.128788 0.540119 -0.831676
4348.609863 4823.239258 5202.639160 0.128788 0.540119 -0.831676
4907.719727 4382.892578 5003.243164 0.128788 0.540119 -0.831676
5408.448242 3711.018799 4818.129883 0.839175 0.474305 0.266120
5356.167969 3620.216064 5144.826172 0.839175 0.474305 0.266120
5594.123047 3080.063477 5357.176758 0.839175 0.474305 0.266120
5278.653320 4201.876953 4985.683105 0.893597 0.225305 0.388229
5181.980957 4301.217773 5150.544922 0.893597 0.225305 0.388229
5356.167969 3620.216064 5144.826172 0.893597 0.225305 0.388229
4251.129395 4284.140137 4979.678223 -0.872438 -0.402765 -0.276824
3927.852783 4864.228516 5154.516602 -0.872438 -0.402765 -0.276824
4064.768555 4680.225098 4990.729004 -0.872438 -0.402765 -0.276824
4064.768555 4680.225098 4990.729004 -0.113861 0.429975 -0.895632
3884.969971 5293.624023 5308.067383 -0.113861 0.429975 -0.895632
4145.389160 5066.875488 5166.103027 -0.113861 0.429975 -0.895632
4907.719727 4382.892578 5003.243164 0.323346 0.699254 -0.637566
4348.609863 4823.239258 5202.639160 0.323346 0.699254 -0.637566
4796.620117 4874.893066 5486.502441 0.323346 0.699254 -0.637566
3884.969971 5293.624023 5308.067383 -0.623279 0.207383 -0.754000
4064.768555 4680.225098 4990.729004 -0.623279 0.207383 -0.754000
3927.852783 4864.228516 5154.516602 -0.623279 0.207383 -0.754000
5594.123047 3080.063477 5357.176758 0.974474 0.200524 -0.100944
5531.179199 3261.850830 5110.659668 0.974474 0.200524 -0.100944
5408.448242 3711.018799 4818.129883 0.974474 0.200524 -0.100944
5181.980957 4301.217773 5150.544922 0.800578 0.200029 0.564856
4992.631348 3901.302979 5560.531738 0.800578 0.200029 0.564856
5356.167969 3620.216064 5144.826172 0.800578 0.200029 0.564856
4251.129395 4284.140137 4979.678223 -0.876880 -0.416152 -0.240622
4050.522705 4525.615723 5293.105957 -0.876880 -0.416152 -0.240622
3927.852783 4864.228516 5154.516602 -0.876880 -0.416152 -0.240622
5580.127930 2961.403320 5414.177246 -0.364547 -0.745762 -0.557624
5140.669434 3241.574463 5326.775391 -0.364547 -0.745762 -0.557624
5375.230957 3551.215088 4759.319824 -0.364547 -0.745762 -0.557624
5375.230957 3551.215088 4759.319824 -0.476401 -0.673938 -0.564668
5140.669434 3241.574463 5326.775391 -0.476401 -0.673938 -0.564668
4645.805664 3885.599365 4975.632324 -0.476401 -0.673938 -0.564668
4645.805664 3885.599365 4975.632324 -0.670667 -0.660742 -0.337084
4531.579102 3751.547607 5465.663574 -0.670667 -0.660742 -0.337084
4251.129395 4284.140137 4979.678223 -0.670667 -0.660742 -0.337084
5011.797852 4640.894043 5394.379883 0.499278 0.656254 -0.565732
5181.980957 4301.217773 5150.544922 0.499278 0.656254 -0.565732
4907.719727 4382.892578 5003.243164 0.499278 0.656254 -0.565732
4907.719727 4382.892578 5003.243164 0.482024 0.666943 -0.568191
4796.620117 4874.893066 5486.502441 0.482024 0.666943 -0.568191
5011.797852 4640.894043 5394.379883 0.482024 0.666943 -0.568191
4348.609863 4823.239258 5202.639160 0.401362 0.200770 -0.893644
4145.389160 5066.875488 5166.103027 0.401362 0.200770 -0.893644
4537.706055 4969.801758 5320.495117 0.401362 0.200770 -0.893644
4513.620605 5245.159668 5271.900879 0.333625 -0.135457 -0.932923
4537.706055 4969.801758 5320.495117 0.333625 -0.135457 -0.932923
4145.389160 5066.875488 5166.103027 0.333625 -0.135457 -0.932923
5580.127930 2961.403320 5414.177246 0.839242 -0.312681 -0.444864
5531.179199 3261.850830 5110.659668 0.839242 -0.312681 -0.444864
5594.123047 3080.063477 5357.176758 0.839242 -0.312681 -0.444864
5011.797852 4640.894043 5394.379883 0.869563 0.086682 0.486154
4992.631348 3901.302979 5560.531738 0.869563 0.086682 0.486154
5181.980957 4301.217773 5150.544922 0.869563 0.086682 0.486154
4321.969727 5472.800781 5375.968750 0.041941 0.444397 -0.894848
4513.620605 5245.159668 5271.900879 0.041941 0.444397 -0.894848
4145.389160 5066.875488 5166.103027 0.041941 0.444397 -0.894848
4263.038086 4242.756836 5472.121582 -0.789099 -0.613407 -0.032466
4050.522705 4525.615723 5293.105957 -0.789099 -0.613407 -0.032466
4251.129395 4284.140137 4979.678223 -0.789099 -0.613407 -0.032466
3927.852783 4864.228516 5154.516602 -0.925900 -0.205760 0.316815
4050.522705 4525.615723 5293.105957 -0.925900 -0.205760 0.316815
3884.969971 5293.624023 5308.067383 -0.925900 -0.205760 0.316815
4263.038086 4242.756836 5472.121582 -0.877384 -0.479410 -0.019070
4251.129395 4284.140137 4979.678223 -0.877384 -0.479410 -0.019070
4531.579102 3751.547607 5465.663574 -0.877384 -0.479410 -0.019070
4513.620605 5245.159668 5271.900879 0.445248 0.654299 -0.611267
4321.969727 5472.800781 5375.968750 0.445248 0.654299 -0.611267
4530.510742 5369.305664 5417.089355 0.445248 0.654299 -0.611267
4321.969727 5472.800781 5375.968750 -0.060326 0.479004 -0.875737
4145.389160 5066.875488 5166.103027 -0.060326 0.479004 -0.875737
3884.969971 5293.624023 5308.067383 -0.060326 0.479004 -0.875737
5140.669434 3241.574463 5326.775391 -0.648322 -0.682335 -0.337782
4531.579102 3751.547607 5465.663574 -0.648322 -0.682335 -0.337782
4645.805664 3885.599365 4975.632324 -0.648322 -0.682335 -0.337782
4348.609863 4823.239258 5202.639160 0.647795 -0.755193 -0.100229
4537.706055 4969.801758 5320.495117 0.647795 -0.755193 -0.100229
4669.514160 5061.490723 5481.543945 0.647795 -0.755193 -0.100229
4050.522705 4525.615723 5293.105957 -0.932063 -0.206713 0.297538
3995.691650 5032.206543 5473.293945 -0.932063 -0.206713 0.297538
3884.969971 5293.624023 5308.067383 -0.932063 -0.206713 0.297538
4669.514160 5061.490723 5481.543945 0.483684 0.307701 -0.819371
4796.620117 4874.893066 5486.502441 0.483684 0.307701 -0.819371
4348.609863 4823.239258 5202.639160 0.483684 0.307701 -0.819371
4029.890137 5472.267578 5423.189941 -0.127746 0.608398 -0.783283
4321.969727 5472.800781 5375.968750 -0.127746 0.608398 -0.783283
3884.969971 5293.624023 5308.067383 -0.127746 0.608398 -0.783283
4992.631348 3901.302979 5560.531738 0.809083 0.292828 0.509546
5078.665039 3450.450195 5683.020996 0.809083 0.292828 0.509546
5356.167969 3620.216064 5144.826172 0.809083 0.292828 0.509546
5525.441406 2806.881836 5559.208008 -0.244040 -0.616350 -0.748704
5140.669434 3241.574463 5326.775391 -0.244040 -0.616350 -0.748704
5580.127930 2961.403320 5414.177246 -0.244040 -0.616350 -0.748704
4669.514160 5061.490723 5481.543945 0.872736 0.316232 -0.371927
4513.620605 5245.159668 5271.900879 0.872736 0.316232 -0.371927
4530.510742 5369.305664 5417.089355 0.872736 0.316232 -0.371927
5525.441406 2806.881836 5559.208008 -0.351178 -0.663887 -0.660249
5199.050781 2970.211182 5568.581543 -0.351178 -0.663887 -0.660249
5140.669434 3241.574463 5326.775391 -0.351178 -0.663887 -0.660249
4537.706055 4969.801758 5320.495117 0.784429 -0.040605 -0.618887
4513.620605 5245.159668 5271.900879 0.784429 -0.040605 -0.618887
4669.514160 5061.490723 5481.543945 0.784429 -0.040605 -0.618887
4045.290527 5323.491699 5536.447266 -0.819307 0.015244 0.573152
3884.969971 5293.624023 5308.067383 -0.819307 0.015244 0.573152
3995.691650 5032.206543 5473.293945 -0.819307 0.015244 0.573152
4045.290527 5323.491699 5536.447266 -0.796307 0.312049 0.518190
4029.890137 5472.267578 5423.189941 -0.796307 0.312049 0.518190
3884.969971 5293.624023 5308.067383 -0.796307 0.312049 0.518190
4321.969727 5472.800781 5375.968750 0.278537 0.782503 0.556872
4218.694824 5385.215820 5550.697266 0.278537 0.782503 0.556872
4530.510742 5369.305664 5417.089355 0.278537 0.782503 0.556872
5580.127930 2961.403320 5414.177246 0.952852 0.032538 0.301685
5594.123047 3080.063477 5357.176758 0.952852 0.032538 0.301685
5501.207520 2823.063965 5678.362305 0.952852 0.032538 0.301685
5594.123047 3080.063477 5357.176758 0.690467 0.507007 0.515945
5356.167969 3620.216064 5144.826172 0.690467 0.507007 0.515945
5078.665039 3450.450195 5683.020996 0.690467 0.507007 0.515945
4531.579102 3751.547607 5465.663574 -0.615470 -0.594011 -0.518022
5140.669434 3241.574463 5326.775391 -0.615470 -0.594011 -0.518022
5199.050781 2970.211182 5568.581543 -0.615470 -0.594011 -0.518022
4029.890137 5472.267578 5423.189941 0.076420 0.872535 0.482538
4218.694824 5385.215820 5550.697266 0.076420 0.872535 0.482538
4321.969727 5472.800781 5375.968750 0.076420 0.872535 0.482538
3995.691650 5032.206543 5473.293945 -0.806214 -0.273802 0.524454
4050.522705 4525.615723 5293.105957 -0.806214 -0.273802 0.524454
4263.038086 4242.756836 5472.121582 -0.806214 -0.273802 0.524454
4992.631348 3901.302979 5560.531738 0.539251 0.171263 0.824547
5011.797852 4640.894043 5394.379883 0.539251 0.171263 0.824547
4796.620117 4874.893066 5486.502441 0.539251 0.171263 0.824547
4669.514160 5061.490723 5481.543945 0.383756 0.352055 0.853691
4530.510742 5369.305664 5417.089355 0.383756 0.352055 0.853691
4218.694824 5385.215820 5550.697266 0.383756 0.352055 0.853691
5580.127930 2961.403320 5414.177246 0.966446 -0.139737 0.215536
5501.207520 2823.063965 5678.362305 0.966446 -0.139737 0.215536
5525.441406 2806.881836 5559.208008 0.966446 -0.139737 0.215536
4664.165527 3501.685547 5773.647461 -0.728579 -0.650615 -0.214181
4531.579102 3751.547607 5465.663574 -0.728579 -0.650615 -0.214181
5199.050781 2970.211182 5568.581543 -0.728579 -0.650615 -0.214181
4263.038086 4242.756836 5472.121582 -0.685661 -0.382985 0.619025
4531.579102 3751.547607 5465.663574 -0.685661 -0.382985 0.619025
4426.065918 4268.038574 5668.340332 -0.685661 -0.382985 0.619025
4263.038086 4242.756836 5472.121582 -0.632668 -0.215357 0.743877
4444.243164 4376.264648 5664.888184 -0.632668 -0.215357 0.743877
3995.691650 5032.206543 5473.293945 -0.632668 -0.215357 0.743877
4669.514160 5061.490723 5481.543945 0.310830 0.236195 0.920650
4218.694824 5385.215820 5550.697266 0.310830 0.236195 0.920650
4796.620117 4874.893066 5486.502441 0.310830 0.236195 0.920650
4218.694824 5385.215820 5550.697266 -0.265716 0.566380 0.780134
4029.890137 5472.267578 5423.189941 -0.265716 0.566380 0.780134
4045.290527 5323.491699 5536.447266 -0.265716 0.566380 0.780134
5594.123047 3080.063477 5357.176758 0.686281 0.458012 0.565016
5078.665039 3450.450195 5683.020996 0.686281 0.458012 0.565016
5501.207520 2823.063965 5678.362305 0.686281 0.458012 0.565016
4796.620117 4874.893066 5486.502441 0.262030 0.177412 0.948612
4218.694824 5385.215820 5550.697266 0.262030 0.177412 0.948612
4503.249512 4384.288086 5659.292969 0.262030 0.177412 0.948612
4444.243164 4376.264648 5664.888184 -0.509363 -0.098614 0.854883
4045.290527 5323.491699 5536.447266 -0.509363 -0.098614 0.854883
3995.691650 5032.206543 5473.293945 -0.509363 -0.098614 0.854883
5501.207520 2823.063965 5678.362305 0.683802 0.464716 -0.562543
5078.665039 3450.450195 5683.020996 0.683802 0.464716 -0.562543
5402.495117 3007.594238 5710.812012 0.683802 0.464716 -0.562543
4263.038086 4242.756836 5472.121582 -0.769921 0.149105 0.620475
4426.065918 4268.038574 5668.340332 -0.769921 0.149105 0.620475
4444.243164 4376.264648 5664.888184 -0.769921 0.149105 0.620475
4444.243164 4376.264648 5664.888184 -0.112288 0.086929 0.989866
4218.694824 5385.215820 5550.697266 -0.112288 0.086929 0.989866
4045.290527 5323.491699 5536.447266 -0.112288 0.086929 0.989866
5525.441406 2806.881836 5559.208008 0.603765 -0.764280 0.226591
5501.207520 2823.063965 5678.362305 0.603765 -0.764280 0.226591
5440.097168 2808.437988 5791.861816 0.603765 -0.764280 0.226591
5525.441406 2806.881836 5559.208008 -0.445534 -0.881295 -0.157540
5440.097168 2808.437988 5791.861816 -0.445534 -0.881295 -0.157540
5199.050781 2970.211182 5568.581543 -0.445534 -0.881295 -0.157540
5073.496582 3070.628906 5782.996582 -0.720389 -0.686259 -0.100437
4664.165527 3501.685547 5773.647461 -0.720389 -0.686259 -0.100437
5199.050781 2970.211182 5568.581543 -0.720389 -0.686259 -0.100437
4531.579102 3751.547607 5465.663574 -0.978293 -0.206526 0.017002
4533.123535 3774.871826 5837.859375 -0.978293 -0.206526 0.017002
4426.065918 4268.038574 5668.340332 -0.978293 -0.206526 0.017002
4503.249512 4384.288086 5659.292969 0.323511 0.136330 0.936352
4992.631348 3901.302979 5560.531738 0.323511 0.136330 0.936352
4796.620117 4874.893066 5486.502441 0.323511 0.136330 0.936352
4444.243164 4376.264648 5664.888184 0.076221 0.128940 0.988719
4503.249512 4384.288086 5659.292969 0.076221 0.128940 0.988719
4218.694824 5385.215820 5550.697266 0.076221 0.128940 0.988719
4992.631348 3901.302979 5560.531738 0.792300 0.296121 0.533454
4910.409668 3834.354004 5719.812988 0.792300 0.296121 0.533454
5078.665039 3450.450195 5683.020996 0.792300 0.296121 0.533454
4910.409668 3834.354004 5719.812988 0.672557 0.491113 0.553601
4992.631348 3901.302979 5560.531738 0.672557 0.491113 0.553601
4670.382324 4180.421387 5704.411621 0.672557 0.491113 0.553601
4992.631348 3901.302979 5560.531738 0.697849 0.642267 0.317018
4503.249512 4384.288086 5659.292969 0.697849 0.642267 0.317018
4670.382324 4180.421387 5704.411621 0.697849 0.642267 0.317018
4670.382324 4180.421387 5704.411621 0.775427 0.580951 -0.247405
4503.249512 4384.288086 5659.292969 0.775427 0.580951 -0.247405
4513.120117 4388.366699 5699.807129 0.775427 0.580951 -0.247405
5501.207520 2823.063965 5678.362305 0.109654 -0.991590 -0.068740
5551.031738 2818.343018 5825.941406 0.109654 -0.991590 -0.068740
5440.097168 2808.437988 5791.861816 0.109654 -0.991590 -0.068740
5402.495117 3007.594238 5710.812012 0.700036 0.478631 -0.529964
5078.665039 3450.450195 5683.020996 0.700036 0.478631 -0.529964
5321.383789 3736.884277 6262.320312 0.700036 0.478631 -0.529964
4533.123535 3774.871826 5837.859375 -0.780817 -0.347881 -0.518945
4223.074707 4272.233887 5970.953125 -0.780817 -0.347881 -0.518945
4426.065918 4268.038574 5668.340332 -0.780817 -0.347881 -0.518945
4223.074707 4272.233887 5970.953125 -0.719459 0.492774 -0.489441
4457.602051 4365.463379 5720.071777 -0.719459 0.492774 -0.489441
4426.065918 4268.038574 5668.340332 -0.719459 0.492774 -0.489441
5501.207520 2823.063965 5678.362305 0.947300 -0.010828 -0.320165
5609.501465 3022.533447 5992.035156 0.947300 -0.010828 -0.320165
5551.031738 2818.343018 5825.941406 0.947300 -0.010828 -0.320165
4223.074707 4272.233887 5970.953125 -0.488246 -0.563972 -0.665996
4224.252930 4414.976562 5849.213379 -0.488246 -0.563972 -0.665996
4457.602051 4365.463379 5720.071777 -0.488246 -0.563972 -0.665996
4670.382324 4180.421387 5704.411621 0.279259 0.190355 -0.941159
4513.120117 4388.366699 5699.807129 0.279259 0.190355 -0.941159
4708.827148 4969.473633 5875.409180 0.279259 0.190355 -0.941159
4708.827148 4969.473633 5875.409180 -0.454272 0.394380 -0.798813
4513.120117 4388.366699 5699.807129 -0.454272 0.394380 -0.798813
4457.602051 4365.463379 5720.071777 -0.454272 0.394380 -0.798813
4708.827148 4969.473633 5875.409180 0.194836 0.167505 -0.966427
4457.602051 4365.463379 5720.071777 0.194836 0.167505 -0.966427
4096.095215 5329.387207 5814.261230 0.194836 0.167505 -0.966427
5440.097168 2808.437988 5791.861816 -0.581904 -0.812289 0.039678
5073.496582 3070.628906 5782.996582 -0.581904 -0.812289 0.039678
5199.050781 2970.211182 5568.581543 -0.581904 -0.812289 0.039678
5501.207520 2823.063965 5678.362305 0.699230 0.468935 -0.539609
5402.495117 3007.594238 5710.812012 0.699230 0.468935 -0.539609
5609.501465 3022.533447 5992.035156 0.699230 0.468935 -0.539609
4096.095215 5329.387207 5814.261230 -0.498256 -0.102740 -0.860921
4457.602051 4365.463379 5720.071777 -0.498256 -0.102740 -0.860921
4224.252930 4414.976562 5849.213379 -0.498256 -0.102740 -0.860921
5609.501465 3022.533447 5992.035156 0.693077 0.482261 -0.535788
5402.495117 3007.594238 5710.812012 0.693077 0.482261 -0.535788
5321.383789 3736.884277 6262.320312 0.693077 0.482261 -0.535788
4533.123535 3774.871826 5837.859375 -0.898318 -0.438237 0.031190
4531.579102 3751.547607 5465.663574 -0.898318 -0.438237 0.031190
4664.165527 3501.685547 5773.647461 -0.898318 -0.438237 0.031190
4708.827148 4969.473633 5875.409180 0.544364 0.208064 -0.812636
5022.310547 4607.031738 5992.605469 0.544364 0.208064 -0.812636
4910.409668 3834.354004 5719.812988 0.544364 0.208064 -0.812636
4708.827148 4969.473633 5875.409180 0.326215 0.185002 -0.927016
4910.409668 3834.354004 5719.812988 0.326215 0.185002 -0.927016
4670.382324 4180.421387 5704.411621 0.326215 0.185002 -0.927016
4224.252930 4414.976562 5849.213379 -0.641001 -0.118823 -0.758287
3898.383789 5265.873047 5991.344727 -0.641001 -0.118823 -0.758287
4096.095215 5329.387207 5814.261230 -0.641001 -0.118823 -0.758287
4096.095215 5329.387207 5814.261230 0.236493 0.242776 -0.940814
4562.008301 5308.456055 5925.977051 0.236493 0.242776 -0.940814
4708.827148 4969.473633 5875.409180 0.236493 0.242776 -0.940814
4096.095215 5329.387207 5814.261230 0.226161 0.464578 -0.856165
4312.252930 5487.029297 5956.901367 0.226161 0.464578 -0.856165
4562.008301 5308.456055 5925.977051 0.226161 0.464578 -0.856165
4312.252930 5487.029297 5956.901367 -0.129791 0.757203 -0.640155
4096.095215 5329.387207 5814.261230 -0.129791 0.757203 -0.640155
4008.910889 5468.854980 5996.906250 -0.129791 0.757203 -0.640155
5551.031738 2818.343018 5825.941406 -0.149762 -0.705620 0.692584
5372.746094 3100.307373 6074.661133 -0.149762 -0.705620 0.692584
5440.097168 2808.437988 5791.861816 -0.149762 -0.705620 0.692584
5073.496582 3070.628906 5782.996582 -0.487833 -0.662893 0.567972
5440.097168 2808.437988 5791.861816 -0.487833 -0.662893 0.567972
5372.746094 3100.307373 6074.661133 -0.487833 -0.662893 0.567972
5078.665039 3450.450195 5683.020996 0.767521 0.385470 -0.512176
4910.409668 3834.354004 5719.812988 0.767521 0.385470 -0.512176
5321.383789 3736.884277 6262.320312 0.767521 0.385470 -0.512176
4096.095215 5329.387207 5814.261230 -0.680967 0.387818 -0.621193
3898.383789 5265.873047 5991.344727 -0.680967 0.387818 -0.621193
4008.910889 5468.854980 5996.906250 -0.680967 0.387818 -0.621193
5321.383789 3736.884277 6262.320312 0.801614 0.092437 -0.590652
4910.409668 3834.354004 5719.812988 0.801614 0.092437 -0.590652
5022.310547 4607.031738 5992.605469 0.801614 0.092437 -0.590652
4708.827148 4969.473633 5875.409180 0.897519 0.348405 0.270322
4562.008301 5308.456055 5925.977051 0.897519 0.348405 0.270322
4519.188965 5279.513672 6105.447266 0.897519 0.348405 0.270322
5551.031738 2818.343018 5825.941406 0.057289 -0.639810 0.766395
5609.501465 3022.533447 5992.035156 0.057289 -0.639810 0.766395
5372.746094 3100.307373 6074.661133 0.057289 -0.639810 0.766395
5073.496582 3070.628906 5782.996582 -0.566962 -0.524612 0.635088
5372.746094 3100.307373 6074.661133 -0.566962 -0.524612 0.635088
4664.165527 3501.685547 5773.647461 -0.566962 -0.524612 0.635088
4664.165527 3501.685547 5773.647461 -0.574665 -0.712345 0.402894
5372.746094 3100.307373 6074.661133 -0.574665 -0.712345 0.402894
4650.435547 3841.762451 6355.343750 -0.574665 -0.712345 0.402894
4708.827148 4969.473633 5875.409180 0.821804 0.084600 0.563455
4519.188965 5279.513672 6105.447266 0.821804 0.084600 0.563455
4590.234863 4899.411133 6058.896484 0.821804 0.084600 0.563455
4519.188965 5279.513672 6105.447266 0.582480 0.769120 0.263005
4562.008301 5308.456055 5925.977051 0.582480 0.769120 0.263005
4312.252930 5487.029297 5956.901367 0.582480 0.769120 0.263005
4664.165527 3501.685547 5773.647461 -0.905698 -0.405025 -0.125167
4208.606445 4332.012695 6383.199219 -0.905698 -0.405025 -0.125167
4533.123535 3774.871826 5837.859375 -0.905698 -0.405025 -0.125167
4312.252930 5487.029297 5956.901367 0.065447 0.623152 0.779358
4008.910889 5468.854980 5996.906250 0.065447 0.623152 0.779358
4519.188965 5279.513672 6105.447266 0.065447 0.623152 0.779358
4533.123535 3774.871826 5837.859375 -0.841748 -0.537694 0.048428
4208.606445 4332.012695 6383.199219 -0.841748 -0.537694 0.048428
4223.074707 4272.233887 5970.953125 -0.841748 -0.537694 0.048428
3898.383789 5265.873047 5991.344727 -0.847688 -0.246144 -0.469934
4224.252930 4414.976562 5849.213379 -0.847688 -0.246144 -0.469934
3908.315674 4851.489746 6190.476562 -0.847688 -0.246144 -0.469934
3909.249023 5255.536621 6103.261230 -0.872460 0.471555 0.128253
4008.910889 5468.854980 5996.906250 -0.872460 0.471555 0.128253
3898.383789 5265.873047 5991.344727 -0.872460 0.471555 0.128253
4223.074707 4272.233887 5970.953125 -0.863813 -0.322784 -0.386831
3908.315674 4851.489746 6190.476562 -0.863813 -0.322784 -0.386831
4224.252930 4414.976562 5849.213379 -0.863813 -0.322784 -0.386831
4813.268555 4418.624512 6372.811035 0.527347 0.622322 0.578464
4708.827148 4969.473633 5875.409180 0.527347 0.622322 0.578464
4590.234863 4899.411133 6058.896484 0.527347 0.622322 0.578464
3908.315674 4851.489746 6190.476562 -0.994831 0.023616 0.098763
3909.249023 5255.536621 6103.261230 -0.994831 0.023616 0.098763
3898.383789 5265.873047 5991.344727 -0.994831 0.023616 0.098763
5231.760254 4258.845703 6300.358887 0.896711 0.183329 -0.402865
5321.383789 3736.884277 6262.320312 0.896711 0.183329 -0.402865
5022.310547 4607.031738 5992.605469 0.896711 0.183329 -0.402865
4144.174805 5065.822266 6231.263184 -0.024183 0.538392 0.842347
4519.188965 5279.513672 6105.447266 -0.024183 0.538392 0.842347
3909.249023 5255.536621 6103.261230 -0.024183 0.538392 0.842347
4519.188965 5279.513672 6105.447266 -0.021038 0.453948 0.890780
4008.910889 5468.854980 5996.906250 -0.021038 0.453948 0.890780
3909.249023 5255.536621 6103.261230 -0.021038 0.453948 0.890780
5556.486328 3202.336182 6170.839844 0.893765 0.420023 -0.157369
5609.501465 3022.533447 5992.035156 0.893765 0.420023 -0.157369
5321.383789 3736.884277 6262.320312 0.893765 0.420023 -0.157369
4223.074707 4272.233887 5970.953125 -0.871460 -0.488809 0.040296
4208.606445 4332.012695 6383.199219 -0.871460 -0.488809 0.040296
3908.315674 4851.489746 6190.476562 -0.871460 -0.488809 0.040296
4590.234863 4899.411133 6058.896484 0.315592 -0.057012 0.947181
4519.188965 5279.513672 6105.447266 0.315592 -0.057012 0.947181
4280.685547 4921.292480 6163.352539 0.315592 -0.057012 0.947181
4208.606445 4332.012695 6383.199219 -0.684000 -0.636675 0.356074
4664.165527 3501.685547 5773.647461 -0.684000 -0.636675 0.356074
4650.435547 3841.762451 6355.343750 -0.684000 -0.636675 0.356074
4280.685547 4921.292480 6163.352539 0.363544 -0.092200 0.927003
4519.188965 5279.513672 6105.447266 0.363544 -0.092200 0.927003
4144.174805 5065.822266 6231.263184 0.363544 -0.092200 0.927003
5372.746094 3100.307373 6074.661133 0.017583 -0.702416 0.711550
5609.501465 3022.533447 5992.035156 0.017583 -0.702416 0.711550
5556.486328 3202.336182 6170.839844 0.017583 -0.702416 0.711550
5556.486328 3202.336182 6170.839844 0.191067 -0.833219 0.518883
5525.331055 3345.929199 6412.892578 0.191067 -0.833219 0.518883
5372.746094 3100.307373 6074.661133 0.191067 -0.833219 0.518883
5022.310547 4607.031738 5992.605469 0.506422 0.628804 0.590035
4708.827148 4969.473633 5875.409180 0.506422 0.628804 0.590035
4813.268555 4418.624512 6372.811035 0.506422 0.628804 0.590035
3908.315674 4851.489746 6190.476562 -0.780812 0.133545 0.610326
4021.846191 4754.216797 6357.004395 -0.780812 0.133545 0.610326
3909.249023 5255.536621 6103.261230 -0.780812 0.133545 0.610326
3909.249023 5255.536621 6103.261230 -0.148877 0.419743 0.895350
4021.846191 4754.216797 6357.004395 -0.148877 0.419743 0.895350
4144.174805 5065.822266 6231.263184 -0.148877 0.419743 0.895350
5372.746094 3100.307373 6074.661133 -0.487032 -0.681318 0.546448
5347.514160 3531.783936 6590.143555 -0.487032 -0.681318 0.546448
4650.435547 3841.762451 6355.343750 -0.487032 -0.681318 0.546448
4208.606445 4332.012695 6383.199219 -0.855835 -0.355250 0.375957
4021.846191 4754.216797 6357.004395 -0.855835 -0.355250 0.375957
3908.315674 4851.489746 6190.476562 -0.855835 -0.355250 0.375957
4280.685547 4921.292480 6163.352539 0.311034 0.477589 0.821686
4274.005371 4434.163086 6449.015625 0.311034 0.477589 0.821686
4590.234863 4899.411133 6058.896484 0.311034 0.477589 0.821686
4590.234863 4899.411133 6058.896484 0.130081 0.583664 0.801508
4274.005371 4434.163086 6449.015625 0.130081 0.583664 0.801508
4813.268555 4418.624512 6372.811035 0.130081 0.583664 0.801508
5525.331055 3345.929199 6412.892578 0.029640 -0.815106 0.578554
5475.757812 3439.800537 6547.684570 0.029640 -0.815106 0.578554
5372.746094 3100.307373 6074.661133 0.029640 -0.815106 0.578554
5556.486328 3202.336182 6170.839844 0.909401 0.410945 -0.064138
5321.383789 3736.884277 6262.320312 0.909401 0.410945 -0.064138
5475.757812 3439.800537 6547.684570 0.909401 0.410945 -0.064138
5022.310547 4607.031738 5992.605469 0.377407 0.730307 0.569400
4813.268555 4418.624512 6372.811035 0.377407 0.730307 0.569400
5231.760254 4258.845703 6300.358887 0.377407 0.730307 0.569400
5321.383789 3736.884277 6262.320312 0.931752 0.182848 -0.313695
5231.760254 4258.845703 6300.358887 0.931752 0.182848 -0.313695
5475.757812 3439.800537 6547.684570 0.931752 0.182848 -0.313695
4274.005371 4434.163086 6449.015625 0.691460 0.358360 0.627266
4280.685547 4921.292480 6163.352539 0.691460 0.358360 0.627266
4144.174805 5065.822266 6231.263184 0.691460 0.358360 0.627266
5525.331055 3345.929199 6412.892578 0.355348 0.823277 -0.442655
5556.486328 3202.336182 6170.839844 0.355348 0.823277 -0.442655
5475.757812 3439.800537 6547.684570 0.355348 0.823277 -0.442655
4650.435547 3841.762451 6355.343750 -0.577328 -0.554368 0.599474
4404.414551 4233.714355 6480.871582 -0.577328 -0.554368 0.599474
4208.606445 4332.012695 6383.199219 -0.577328 -0.554368 0.599474
4274.005371 4434.163086 6449.015625 0.091954 0.341369 0.935421
4144.174805 5065.822266 6231.263184 0.091954 0.341369 0.935421
4021.846191 4754.216797 6357.004395 0.091954 0.341369 0.935421
4021.846191 4754.216797 6357.004395 -0.536866 -0.186431 0.822811
4208.606445 4332.012695 6383.199219 -0.536866 -0.186431 0.822811
4274.005371 4434.163086 6449.015625 -0.536866 -0.186431 0.822811
5475.757812 3439.800537 6547.684570 0.961442 0.256352 -0.099569
5231.760254 4258.845703 6300.358887 0.961442 0.256352 -0.099569
5279.209473 4189.072754 6578.892090 0.961442 0.256352 -0.099569
4813.268555 4418.624512 6372.811035 0.376530 0.911728 0.164246
5279.209473 4189.072754 6578.892090 0.376530 0.911728 0.164246
5231.760254 4258.845703 6300.358887 0.376530 0.911728 0.164246
4404.414551 4233.714355 6480.871582 -0.517179 -0.204386 0.831115
4274.005371 4434.163086 6449.015625 -0.517179 -0.204386 0.831115
4208.606445 4332.012695 6383.199219 -0.517179 -0.204386 0.831115
5347.514160 3531.783936 6590.143555 -0.327630 -0.732332 0.596950
5372.746094 3100.307373 6074.661133 -0.327630 -0.732332 0.596950
5475.757812 3439.800537 6547.684570 -0.327630 -0.732332 0.596950
4650.435547 3841.762451 6355.343750 -0.471751 -0.523369 0.709602
5347.514160 3531.783936 6590.143555 -0.471751 -0.523369 0.709602
4404.414551 4233.714355 6480.871582 -0.471751 -0.523369 0.709602
4813.268555 4418.624512 6372.811035 0.090317 0.883887 0.458897
4274.005371 4434.163086 6449.015625 0.090317 0.883887 0.458897
4751.110840 4321.551758 6572.017578 0.090317 0.883887 0.458897
4751.110840 4321.551758 6572.017578 0.207561 0.852309 0.480092
5279.209473 4189.072754 6578.892090 0.207561 0.852309 0.480092
4813.268555 4418.624512 6372.811035 0.207561 0.852309 0.480092
4751.110840 4321.551758 6572.017578 -0.251860 -0.010065 0.967711
4274.005371 4434.163086 6449.015625 -0.251860 -0.010065 0.967711
4404.414551 4233.714355 6480.871582 -0.251860 -0.010065 0.967711
5278.000000 4017.443604 6624.941406 0.744042 0.168245 0.646603
5475.757812 3439.800537 6547.684570 0.744042 0.168245 0.646603
5279.209473 4189.072754 6578.892090 0.744042 0.168245 0.646603
5013.204590 4049.320068 6633.826172 -0.249396 -0.020287 0.968189
4751.110840 4321.551758 6572.017578 -0.249396 -0.020287 0.968189
4404.414551 4233.714355 6480.871582 -0.249396 -0.020287 0.968189
4404.414551 4233.714355 6480.871582 -0.312533 -0.278537 0.908152
5347.514160 3531.783936 6590.143555 -0.312533 -0.278537 0.908152
5013.204590 4049.320068 6633.826172 -0.312533 -0.278537 0.908152
5278.000000 4017.443604 6624.941406 0.063428 0.258203 0.964006
5279.209473 4189.072754 6578.892090 0.063428 0.258203 0.964006
5013.204590 4049.320068 6633.826172 0.063428 0.258203 0.964006
5279.209473 4189.072754 6578.892090 0.055657 0.271721 0.960765
4751.110840 4321.551758 6572.017578 0.055657 0.271721 0.960765
5013.204590 4049.320068 6633.826172 0.055657 0.271721 0.960765
5475.757812 3439.800537 6547.684570 0.297469 -0.025804 0.954383
5278.000000 4017.443604 6624.941406 0.297469 -0.025804 0.954383
5347.514160 3531.783936 6590.143555 0.297469 -0.025804 0.954383
5347.514160 3531.783936 6590.143555 0.025298 -0.067842 0.997375
5278.000000 4017.443604 6624.941406 0.025298 -0.067842 0.997375
5013.204590 4049.320068 6633.826172 0.025298 -0.067842 0.997375
3 0 1 2
3 3 4 5
3 6 7 8
3 9 10 11
3 12 13 14
3 15 16 17
3 18 19 20
3 21 22 23
3 24 25 26
3 27 28 29
3 30 31 32
3 33 34 35
3 36 37 38
3 39 40 41
3 42 43 44
3 45 46 47
3 48 49 50
3 51 52 53
3 54 55 56
3 57 58 59
3 60 61 62
3 63 64 65
3 66 67 68
3 69 70 71
3 72 73 74
3 75 76 77
3 78 79 80
3 81 82 83
3 84 85 86
3 87 88 89
3 90 91 92
3 93 94 95
3 96 97 98
3 99 100 101
3 102 103 104
3 105 106 107
3 108 109 110
3 111 112 113
3 114 115 116
3 117 118 119
3 120 121 122
3 123 124 125
3 126 127 128
3 129 130 131
3 132 133 134
3 135 136 137
3 138 139 140
3 141 142 143
3 144 145 146
3 147 148 149
3 150 151 152
3 153 154 155
3 156 157 158
3 159 160 161
3 162 163 164
3 165 166 167
3 168 169 170
3 171 172 173
3 174 175 176
3 177 178 179
3 180 181 182
3 183 184 185
3 186 187 188
3 189 190 191
3 192 193 194
3 195 196 197
3 198 199 200
3 201 202 203
3 204 205 206
3 207 208 209
3 210 211 212
3 213 214 215
3 216 217 218
3 219 220 221
3 222 223 224
3 225 226 227
3 228 229 230
3 231 232 233
3 234 235 236
3 237 238 239
3 240 241 242
3 243 244 245
3 246 247 248
3 249 250 251
3 252 253 254
3 255 256 257
3 258 259 260
3 261 262 263
3 264 265 266
3 267 268 269
3 270 271 272
3 273 274 275
3 276 277 278
3 279 280 281
3 282 283 284
3 285 286 287
3 288 289 290
3 291 292 293
3 294 295 296
3 297 298 299
3 300 301 302
3 303 304 305
3 306 307 308
3 309 310 311
3 312 313 314
3 315 316 317
3 318 319 320
3 321 322 323
3 324 325 326
3 327 328 329
3 330 331 332
3 333 334 335
3 336 337 338
3 339 340 341
3 342 343 344
3 345 346 347
3 348 349 350
3 351 352 353
3 354 355 356
3 357 358 359
3 360 361 362
3 363 364 365
3 366 367 368
3 369 370 371
3 372 373 374
3 375 376 377
3 378 379 380
3 381 382 383
3 384 385 386
3 387 388 389
3 390 391 392
3 393 394 395
3 396 397 398
3 399 400 401
3 402 403 404
3 405 406 407
3 408 409 410
3 411 412 413
3 414 415 416
3 417 418 419
3 420 421 422
3 423 424 425
3 426 427 428
3 429 430 431
3 432 433 434
3 435 436 437
3 438 439 440
3 441 442 443
3 444 445 446
3 447 448 449
3 450 451 452
3 453 454 455
3 456 457 458
3 459 460 461
3 462 463 464
3 465 466 467
3 468 469 470
3 471 472 473
3 474 475 476
3 477 478 479
3 480 481 482
3 483 484 485
3 486 487 488
3 489 490 491
3 492 493 494
3 495 496 497
3 498 499 500
