ply
format ascii 1.0
comment Created by Blender 2.80 (sub 75) - www.blender.org, source file: 'downsample_ccf.blend'
element vertex 174
property float x
property float y
property float z
property float nx
property float ny
property float nz
element face 58
property list uchar uint vertex_indices
end_header
5786.344727 6227.217773 3772.364990 0.715844 0.050794 -0.696410
5467.922363 6335.912109 3452.984863 0.715844 0.050794 -0.696410
5398.323242 6446.395996 3389.501953 0.715844 0.050794 -0.696410
5398.323242 6446.395996 3389.501953 0.725754 0.539774 -0.426527
5727.357910 6582.964844 4122.197266 0.725754 0.539774 -0.426527
5786.344727 6227.217773 3772.364990 0.725754 0.539774 -0.426527
5398.323242 6446.395996 3389.501953 0.840654 0.422260 -0.339113
5331.438965 6769.431641 3625.938232 0.840654 0.422260 -0.339113
5401.222168 6922.758789 3989.851074 0.840654 0.422260 -0.339113
5727.357910 6582.964844 4122.197266 0.729662 0.533945 -0.427196
5398.323242 6446.395996 3389.501953 0.729662 0.533945 -0.427196
5401.222168 6922.758789 3989.851074 0.729662 0.533945 -0.427196
5467.922363 6335.912109 3452.984863 0.107247 -0.903714 -0.414486
5786.344727 6227.217773 3772.364990 0.107247 -0.903714 -0.414486
5749.225586 6155.849121 3918.367432 0.107247 -0.903714 -0.414486
5467.922363 6335.912109 3452.984863 -0.805822 -0.578988 -0.124195
5226.297363 6495.609863 4276.234375 -0.805822 -0.578988 -0.124195
5398.323242 6446.395996 3389.501953 -0.805822 -0.578988 -0.124195
5786.344727 6227.217773 3772.364990 0.015341 0.702364 -0.711653
5727.357910 6582.964844 4122.197266 0.015341 0.702364 -0.711653
5858.474121 6379.433105 3924.148438 0.015341 0.702364 -0.711653
5398.323242 6446.395996 3389.501953 -0.787983 -0.604019 -0.119345
5226.297363 6495.609863 4276.234375 -0.787983 -0.604019 -0.119345
5058.518555 6727.531250 4210.223633 -0.787983 -0.604019 -0.119345
5398.323242 6446.395996 3389.501953 -0.903104 0.115694 -0.413544
5058.518555 6727.531250 4210.223633 -0.903104 0.115694 -0.413544
5331.438965 6769.431641 3625.938232 -0.903104 0.115694 -0.413544
4919.286133 6861.352051 4521.078125 -0.906439 0.034653 -0.420914
5331.438965 6769.431641 3625.938232 -0.906439 0.034653 -0.420914
5058.518555 6727.531250 4210.223633 -0.906439 0.034653 -0.420914
5858.474121 6379.433105 3924.148438 0.898255 -0.439262 0.013650
5749.225586 6155.849121 3918.367432 0.898255 -0.439262 0.013650
5786.344727 6227.217773 3772.364990 0.898255 -0.439262 0.013650
5858.474121 6379.433105 3924.148438 0.859974 -0.427414 0.278858
5760.126953 6342.247559 4170.447266 0.859974 -0.427414 0.278858
5749.225586 6155.849121 3918.367432 0.859974 -0.427414 0.278858
5226.297363 6495.609863 4276.234375 -0.543161 -0.839622 0.003455
5467.922363 6335.912109 3452.984863 -0.543161 -0.839622 0.003455
5749.225586 6155.849121 3918.367432 -0.543161 -0.839622 0.003455
5760.126953 6342.247559 4170.447266 0.899064 0.200413 0.389254
5858.474121 6379.433105 3924.148438 0.899064 0.200413 0.389254
5727.357910 6582.964844 4122.197266 0.899064 0.200413 0.389254
5401.222168 6922.758789 3989.851074 0.633506 0.719190 0.285369
5429.969238 6803.028320 4227.779785 0.633506 0.719190 0.285369
5727.357910 6582.964844 4122.197266 0.633506 0.719190 0.285369
5331.438965 6769.431641 3625.938232 -0.421110 0.861925 -0.282403
4919.286133 6861.352051 4521.078125 -0.421110 0.861925 -0.282403
5401.222168 6922.758789 3989.851074 -0.421110 0.861925 -0.282403
5760.126953 6342.247559 4170.447266 0.474794 0.234657 0.848237
5727.357910 6582.964844 4122.197266 0.474794 0.234657 0.848237
5429.969238 6803.028320 4227.779785 0.474794 0.234657 0.848237
4816.159180 6761.515625 4562.169434 -0.690956 0.498096 -0.523908
4919.286133 6861.352051 4521.078125 -0.690956 0.498096 -0.523908
5058.518555 6727.531250 4210.223633 -0.690956 0.498096 -0.523908
5760.126953 6342.247559 4170.447266 -0.111195 -0.796765 0.593970
5226.297363 6495.609863 4276.234375 -0.111195 -0.796765 0.593970
5749.225586 6155.849121 3918.367432 -0.111195 -0.796765 0.593970
5760.126953 6342.247559 4170.447266 0.392748 0.168931 0.903998
5429.969238 6803.028320 4227.779785 0.392748 0.168931 0.903998
5320.292480 6565.420898 4319.831543 0.392748 0.168931 0.903998
5226.297363 6495.609863 4276.234375 0.011376 -0.540636 0.841180
5760.126953 6342.247559 4170.447266 0.011376 -0.540636 0.841180
5320.292480 6565.420898 4319.831543 0.011376 -0.540636 0.841180
4816.159180 6761.515625 4562.169434 -0.679879 -0.608380 -0.409437
5058.518555 6727.531250 4210.223633 -0.679879 -0.608380 -0.409437
5226.297363 6495.609863 4276.234375 -0.679879 -0.608380 -0.409437
4919.286133 6861.352051 4521.078125 0.324322 0.860145 0.393657
5429.969238 6803.028320 4227.779785 0.324322 0.860145 0.393657
5401.222168 6922.758789 3989.851074 0.324322 0.860145 0.393657
5226.297363 6495.609863 4276.234375 0.281139 -0.751363 0.597004
5320.292480 6565.420898 4319.831543 0.281139 -0.751363 0.597004
4963.158203 6616.499512 4552.297363 0.281139 -0.751363 0.597004
4963.158203 6616.499512 4552.297363 -0.669361 -0.654593 -0.351374
4816.159180 6761.515625 4562.169434 -0.669361 -0.654593 -0.351374
5226.297363 6495.609863 4276.234375 -0.669361 -0.654593 -0.351374
5429.969238 6803.028320 4227.779785 0.616210 0.020578 0.787313
4980.208496 6752.042969 4581.128906 0.616210 0.020578 0.787313
5320.292480 6565.420898 4319.831543 0.616210 0.020578 0.787313
5429.969238 6803.028320 4227.779785 0.446193 0.608959 0.655805
4919.286133 6861.352051 4521.078125 0.446193 0.608959 0.655805
4980.208496 6752.042969 4581.128906 0.446193 0.608959 0.655805
4963.158203 6616.499512 4552.297363 0.505270 -0.239885 0.828949
5320.292480 6565.420898 4319.831543 0.505270 -0.239885 0.828949
4980.208496 6752.042969 4581.128906 0.505270 -0.239885 0.828949
4980.208496 6752.042969 4581.128906 -0.077227 0.446648 0.891371
4919.286133 6861.352051 4521.078125 -0.077227 0.446648 0.891371
4816.159180 6761.515625 4562.169434 -0.077227 0.446648 0.891371
4963.158203 6616.499512 4552.297363 -0.123590 -0.191563 0.973668
4980.208496 6752.042969 4581.128906 -0.123590 -0.191563 0.973668
4816.159180 6761.515625 4562.169434 -0.123590 -0.191563 0.973668
4958.316406 6637.229492 6798.532715 -0.117565 0.086071 -0.989328
4832.192383 6708.053711 6819.682129 -0.117565 0.086071 -0.989328
4876.971191 6851.120117 6826.807617 -0.117565 0.086071 -0.989328
4876.971191 6851.120117 6826.807617 0.509157 0.300265 -0.806598
5521.644043 6808.295898 7217.809570 0.509157 0.300265 -0.806598
4958.316406 6637.229492 6798.532715 0.509157 0.300265 -0.806598
5181.335449 6535.274414 7079.472168 -0.480449 -0.874687 0.063966
4832.192383 6708.053711 6819.682129 -0.480449 -0.874687 0.063966
4958.316406 6637.229492 6798.532715 -0.480449 -0.874687 0.063966
5521.644043 6808.295898 7217.809570 0.603674 -0.035920 -0.796422
5311.709473 6553.834961 7070.159668 0.603674 -0.035920 -0.796422
4958.316406 6637.229492 6798.532715 0.603674 -0.035920 -0.796422
5181.335449 6535.274414 7079.472168 -0.661203 -0.512848 0.547538
5045.570801 6789.276367 7153.433105 -0.661203 -0.512848 0.547538
4832.192383 6708.053711 6819.682129 -0.661203 -0.512848 0.547538
4832.192383 6708.053711 6819.682129 -0.843355 0.240019 0.480774
5045.570801 6789.276367 7153.433105 -0.843355 0.240019 0.480774
4876.971191 6851.120117 6826.807617 -0.843355 0.240019 0.480774
4958.316406 6637.229492 6798.532715 0.099970 -0.907223 -0.408598
5311.709473 6553.834961 7070.159668 0.099970 -0.907223 -0.408598
5181.335449 6535.274414 7079.472168 0.099970 -0.907223 -0.408598
5727.068359 6328.161621 7193.019043 0.004244 -0.472106 -0.881532
5181.335449 6535.274414 7079.472168 0.004244 -0.472106 -0.881532
5311.709473 6553.834961 7070.159668 0.004244 -0.472106 -0.881532
5727.068359 6328.161621 7193.019043 0.380140 0.209161 -0.900969
5311.709473 6553.834961 7070.159668 0.380140 0.209161 -0.900969
5521.644043 6808.295898 7217.809570 0.380140 0.209161 -0.900969
4876.971191 6851.120117 6826.807617 0.236780 0.927649 -0.288795
5368.096191 6916.415039 7439.210938 0.236780 0.927649 -0.288795
5521.644043 6808.295898 7217.809570 0.236780 0.927649 -0.288795
5727.068359 6328.161621 7193.019043 0.636380 0.308772 -0.706881
5521.644043 6808.295898 7217.809570 0.636380 0.308772 -0.706881
5858.308594 6444.835449 7362.134277 0.636380 0.308772 -0.706881
5045.570801 6789.276367 7153.433105 -0.642695 0.620577 0.449251
5368.096191 6916.415039 7439.210938 -0.642695 0.620577 0.449251
4876.971191 6851.120117 6826.807617 -0.642695 0.620577 0.449251
5262.422852 6540.315430 7549.681152 -0.852497 -0.500030 0.152374
5045.570801 6789.276367 7153.433105 -0.852497 -0.500030 0.152374
5181.335449 6535.274414 7079.472168 -0.852497 -0.500030 0.152374
5181.335449 6535.274414 7079.472168 -0.232917 -0.861296 -0.451573
5727.068359 6328.161621 7193.019043 -0.232917 -0.861296 -0.451573
5760.529785 6149.860352 7515.837891 -0.232917 -0.861296 -0.451573
5858.308594 6444.835449 7362.134277 0.499616 0.677251 0.540107
5521.644043 6808.295898 7217.809570 0.499616 0.677251 0.540107
5753.716309 6300.058105 7640.424805 0.499616 0.677251 0.540107
5858.308594 6444.835449 7362.134277 0.829006 -0.448718 -0.333768
5760.529785 6149.860352 7515.837891 0.829006 -0.448718 -0.333768
5727.068359 6328.161621 7193.019043 0.829006 -0.448718 -0.333768
5760.529785 6149.860352 7515.837891 0.948097 -0.176429 0.264546
5858.308594 6444.835449 7362.134277 0.948097 -0.176429 0.264546
5753.716309 6300.058105 7640.424805 0.948097 -0.176429 0.264546
5760.529785 6149.860352 7515.837891 -0.557933 -0.829852 0.007597
5612.982910 6251.344238 7765.337891 -0.557933 -0.829852 0.007597
5181.335449 6535.274414 7079.472168 -0.557933 -0.829852 0.007597
5521.644043 6808.295898 7217.809570 0.810654 0.487673 0.324060
5368.096191 6916.415039 7439.210938 0.810654 0.487673 0.324060
5334.528809 6693.131348 7859.197266 0.810654 0.487673 0.324060
5262.422852 6540.315430 7549.681152 -0.906732 -0.253993 0.336638
5334.528809 6693.131348 7859.197266 -0.906732 -0.253993 0.336638
5045.570801 6789.276367 7153.433105 -0.906732 -0.253993 0.336638
5521.644043 6808.295898 7217.809570 0.731554 0.601283 0.321383
5334.528809 6693.131348 7859.197266 0.731554 0.601283 0.321383
5753.716309 6300.058105 7640.424805 0.731554 0.601283 0.321383
5612.982910 6251.344238 7765.337891 -0.675544 -0.726768 0.124289
5262.422852 6540.315430 7549.681152 -0.675544 -0.726768 0.124289
5181.335449 6535.274414 7079.472168 -0.675544 -0.726768 0.124289
5045.570801 6789.276367 7153.433105 -0.590729 0.731061 0.341451
5334.528809 6693.131348 7859.197266 -0.590729 0.731061 0.341451
5368.096191 6916.415039 7439.210938 -0.590729 0.731061 0.341451
5434.820801 6380.123047 7963.441406 -0.618351 -0.784548 -0.046105
5262.422852 6540.315430 7549.681152 -0.618351 -0.784548 -0.046105
5612.982910 6251.344238 7765.337891 -0.618351 -0.784548 -0.046105
5612.982910 6251.344238 7765.337891 0.674356 -0.453063 0.583077
5760.529785 6149.860352 7515.837891 0.674356 -0.453063 0.583077
5753.716309 6300.058105 7640.424805 0.674356 -0.453063 0.583077
5334.528809 6693.131348 7859.197266 -0.929948 -0.193929 0.312392
5262.422852 6540.315430 7549.681152 -0.929948 -0.193929 0.312392
5434.820801 6380.123047 7963.441406 -0.929948 -0.193929 0.312392
5753.716309 6300.058105 7640.424805 0.684817 -0.149674 0.713179
5434.820801 6380.123047 7963.441406 0.684817 -0.149674 0.713179
5612.982910 6251.344238 7765.337891 0.684817 -0.149674 0.713179
5434.820801 6380.123047 7963.441406 0.696246 0.417538 0.583870
5753.716309 6300.058105 7640.424805 0.696246 0.417538 0.583870
5334.528809 6693.131348 7859.197266 0.696246 0.417538 0.583870
3 0 1 2
3 3 4 5
3 6 7 8
3 9 10 11
3 12 13 14
3 15 16 17
3 18 19 20
3 21 22 23
3 24 25 26
3 27 28 29
3 30 31 32
3 33 34 35
3 36 37 38
3 39 40 41
3 42 43 44
3 45 46 47
3 48 49 50
3 51 52 53
3 54 55 56
3 57 58 59
3 60 61 62
3 63 64 65
3 66 67 68
3 69 70 71
3 72 73 74
3 75 76 77
3 78 79 80
3 81 82 83
3 84 85 86
3 87 88 89
3 90 91 92
3 93 94 95
3 96 97 98
3 99 100 101
3 102 103 104
3 105 106 107
3 108 109 110
3 111 112 113
3 114 115 116
3 117 118 119
3 120 121 122
3 123 124 125
3 126 127 128
3 129 130 131
3 132 133 134
3 135 136 137
3 138 139 140
3 141 142 143
3 144 145 146
3 147 148 149
3 150 151 152
3 153 154 155
3 156 157 158
3 159 160 161
3 162 163 164
3 165 166 167
3 168 169 170
3 171 172 173
