ply
format ascii 1.0
comment Created by Blender 2.80 (sub 75) - www.blender.org, source file: 'downsample_ccf.blend'
element vertex 306
property float x
property float y
property float z
property float nx
property float ny
property float nz
element face 102
property list uchar uint vertex_indices
end_header
7309.615234 3775.804932 4896.616211 0.089323 -0.135646 -0.986723
6692.089355 3524.533447 4875.257324 0.089323 -0.135646 -0.986723
6688.204590 3926.968018 4819.582520 0.089323 -0.135646 -0.986723
7309.615234 3775.804932 4896.616211 0.107648 -0.181466 -0.977488
7340.343750 3503.784180 4950.499512 0.107648 -0.181466 -0.977488
6692.089355 3524.533447 4875.257324 0.107648 -0.181466 -0.977488
7309.615234 3775.804932 4896.616211 0.156396 0.145046 -0.976986
6688.204590 3926.968018 4819.582520 0.156396 0.145046 -0.976986
7247.829590 4314.925293 4966.764648 0.156396 0.145046 -0.976986
6208.803711 3648.307617 5000.982422 -0.281533 -0.134163 -0.950126
6688.204590 3926.968018 4819.582520 -0.281533 -0.134163 -0.950126
6692.089355 3524.533447 4875.257324 -0.281533 -0.134163 -0.950126
6688.204590 3926.968018 4819.582520 -0.036643 0.400243 -0.915676
6756.488770 4189.154785 4931.452148 -0.036643 0.400243 -0.915676
7247.829590 4314.925293 4966.764648 -0.036643 0.400243 -0.915676
6489.889648 3425.257324 5030.951660 0.027022 -0.858407 -0.512257
6692.089355 3524.533447 4875.257324 0.027022 -0.858407 -0.512257
7298.955078 3430.690186 5064.525879 0.027022 -0.858407 -0.512257
7340.343750 3503.784180 4950.499512 0.034458 -0.847014 -0.530452
7298.955078 3430.690186 5064.525879 0.034458 -0.847014 -0.530452
6692.089355 3524.533447 4875.257324 0.034458 -0.847014 -0.530452
5945.913086 3987.132812 5189.716797 -0.429895 0.161287 -0.888356
6688.204590 3926.968018 4819.582520 -0.429895 0.161287 -0.888356
6208.803711 3648.307617 5000.982422 -0.429895 0.161287 -0.888356
6688.204590 3926.968018 4819.582520 -0.370621 0.444489 -0.815518
5945.913086 3987.132812 5189.716797 -0.370621 0.444489 -0.815518
6756.488770 4189.154785 4931.452148 -0.370621 0.444489 -0.815518
7247.829590 4314.925293 4966.764648 0.891497 0.157442 -0.424788
7355.032227 4396.514648 5221.989258 0.891497 0.157442 -0.424788
7309.615234 3775.804932 4896.616211 0.891497 0.157442 -0.424788
6692.089355 3524.533447 4875.257324 -0.338090 -0.530502 -0.777343
6489.889648 3425.257324 5030.951660 -0.338090 -0.530502 -0.777343
6208.803711 3648.307617 5000.982422 -0.338090 -0.530502 -0.777343
7355.901855 3746.224854 5144.242676 0.995304 0.012802 -0.095945
7340.343750 3503.784180 4950.499512 0.995304 0.012802 -0.095945
7355.032227 4396.514648 5221.989258 0.995304 0.012802 -0.095945
7340.343750 3503.784180 4950.499512 0.966626 0.059850 -0.249102
7309.615234 3775.804932 4896.616211 0.966626 0.059850 -0.249102
7355.032227 4396.514648 5221.989258 0.966626 0.059850 -0.249102
6305.072754 4214.538574 5323.301758 -0.349195 0.818985 -0.455331
6756.488770 4189.154785 4931.452148 -0.349195 0.818985 -0.455331
5945.913086 3987.132812 5189.716797 -0.349195 0.818985 -0.455331
7298.955078 3430.690186 5064.525879 -0.004586 -0.963833 0.266468
6840.179199 3448.950684 5122.680176 -0.004586 -0.963833 0.266468
6489.889648 3425.257324 5030.951660 -0.004586 -0.963833 0.266468
6099.678711 3537.225342 5353.956055 -0.543089 -0.738167 -0.400205
6208.803711 3648.307617 5000.982422 -0.543089 -0.738167 -0.400205
6489.889648 3425.257324 5030.951660 -0.543089 -0.738167 -0.400205
6305.072754 4214.538574 5323.301758 -0.403218 0.757400 -0.513576
6998.435059 4551.536621 5275.920898 -0.403218 0.757400 -0.513576
6756.488770 4189.154785 4931.452148 -0.403218 0.757400 -0.513576
6756.488770 4189.154785 4931.452148 -0.138544 0.729349 -0.669967
6998.435059 4551.536621 5275.920898 -0.138544 0.729349 -0.669967
7247.829590 4314.925293 4966.764648 -0.138544 0.729349 -0.669967
7298.955078 3430.690186 5064.525879 0.953393 -0.223326 0.202899
7340.343750 3503.784180 4950.499512 0.953393 -0.223326 0.202899
7355.901855 3746.224854 5144.242676 0.953393 -0.223326 0.202899
6840.179199 3448.950684 5122.680176 0.084635 -0.540167 0.837291
7298.955078 3430.690186 5064.525879 0.084635 -0.540167 0.837291
7156.733887 3559.495117 5161.998535 0.084635 -0.540167 0.837291
7355.901855 3746.224854 5144.242676 0.349780 -0.288321 0.891361
7156.733887 3559.495117 5161.998535 0.349780 -0.288321 0.891361
7298.955078 3430.690186 5064.525879 0.349780 -0.288321 0.891361
6208.803711 3648.307617 5000.982422 -0.801451 -0.453090 -0.390365
6099.678711 3537.225342 5353.956055 -0.801451 -0.453090 -0.390365
5861.934082 3972.614746 5336.715820 -0.801451 -0.453090 -0.390365
5861.934082 3972.614746 5336.715820 -0.799273 -0.346725 -0.490860
5945.913086 3987.132812 5189.716797 -0.799273 -0.346725 -0.490860
6208.803711 3648.307617 5000.982422 -0.799273 -0.346725 -0.490860
7355.032227 4396.514648 5221.989258 0.081883 0.938827 -0.334514
7247.829590 4314.925293 4966.764648 0.081883 0.938827 -0.334514
7337.629883 4459.851562 5395.486816 0.081883 0.938827 -0.334514
7156.733887 3559.495117 5161.998535 0.654218 -0.663232 0.363486
7355.901855 3746.224854 5144.242676 0.654218 -0.663232 0.363486
7243.090332 3800.715820 5446.711914 0.654218 -0.663232 0.363486
6305.072754 4214.538574 5323.301758 -0.475112 0.859935 -0.186497
5945.913086 3987.132812 5189.716797 -0.475112 0.859935 -0.186497
5861.934082 3972.614746 5336.715820 -0.475112 0.859935 -0.186497
7355.901855 3746.224854 5144.242676 0.994537 -0.011080 0.103800
7355.032227 4396.514648 5221.989258 0.994537 -0.011080 0.103800
7337.629883 4459.851562 5395.486816 0.994537 -0.011080 0.103800
7337.629883 4459.851562 5395.486816 0.360795 0.857995 -0.365611
7247.829590 4314.925293 4966.764648 0.360795 0.857995 -0.365611
6998.435059 4551.536621 5275.920898 0.360795 0.857995 -0.365611
6489.889648 3425.257324 5030.951660 0.054660 -0.997308 0.048871
6840.179199 3448.950684 5122.680176 0.054660 -0.997308 0.048871
6538.182617 3449.279053 5467.145996 0.054660 -0.997308 0.048871
6489.889648 3425.257324 5030.951660 -0.215232 -0.973488 0.077440
6538.182617 3449.279053 5467.145996 -0.215232 -0.973488 0.077440
6099.678711 3537.225342 5353.956055 -0.215232 -0.973488 0.077440
6840.179199 3448.950684 5122.680176 0.270823 -0.932662 0.238322
6810.613281 3544.590332 5530.559082 0.270823 -0.932662 0.238322
6538.182617 3449.279053 5467.145996 0.270823 -0.932662 0.238322
6840.179199 3448.950684 5122.680176 0.293666 -0.925716 0.238349
7156.733887 3559.495117 5161.998535 0.293666 -0.925716 0.238349
6810.613281 3544.590332 5530.559082 0.293666 -0.925716 0.238349
6099.678711 3537.225342 5353.956055 -0.260847 -0.918631 0.296777
6538.182617 3449.279053 5467.145996 -0.260847 -0.918631 0.296777
6132.476074 3561.216064 5457.042480 -0.260847 -0.918631 0.296777
6099.678711 3537.225342 5353.956055 -0.823659 -0.435371 0.363372
6132.476074 3561.216064 5457.042480 -0.823659 -0.435371 0.363372
5861.934082 3972.614746 5336.715820 -0.823659 -0.435371 0.363372
7156.733887 3559.495117 5161.998535 0.517240 -0.723945 0.456471
7243.090332 3800.715820 5446.711914 0.517240 -0.723945 0.456471
6810.613281 3544.590332 5530.559082 0.517240 -0.723945 0.456471
7337.629883 4459.851562 5395.486816 0.060627 0.867701 0.493375
6998.435059 4551.536621 5275.920898 0.060627 0.867701 0.493375
7076.096680 4418.395996 5500.532715 0.060627 0.867701 0.493375
7337.629883 4459.851562 5395.486816 0.925520 -0.104458 0.364008
7243.090332 3800.715820 5446.711914 0.925520 -0.104458 0.364008
7355.901855 3746.224854 5144.242676 0.925520 -0.104458 0.364008
6133.639648 4007.444824 5527.573242 -0.348580 0.788447 0.506797
6998.435059 4551.536621 5275.920898 -0.348580 0.788447 0.506797
6305.072754 4214.538574 5323.301758 -0.348580 0.788447 0.506797
6132.476074 3561.216064 5457.042480 -0.559031 -0.128025 0.819203
6133.639648 4007.444824 5527.573242 -0.559031 -0.128025 0.819203
5861.934082 3972.614746 5336.715820 -0.559031 -0.128025 0.819203
7087.157715 4070.718994 5613.167969 0.692967 -0.043463 0.719658
7243.090332 3800.715820 5446.711914 0.692967 -0.043463 0.719658
7337.629883 4459.851562 5395.486816 0.692967 -0.043463 0.719658
6133.639648 4007.444824 5527.573242 -0.417361 0.789449 0.450089
6305.072754 4214.538574 5323.301758 -0.417361 0.789449 0.450089
5861.934082 3972.614746 5336.715820 -0.417361 0.789449 0.450089
7337.629883 4459.851562 5395.486816 0.313795 0.301649 0.900300
7076.096680 4418.395996 5500.532715 0.313795 0.301649 0.900300
7087.157715 4070.718994 5613.167969 0.313795 0.301649 0.900300
6132.476074 3561.216064 5457.042480 -0.157633 -0.494157 0.854962
6538.182617 3449.279053 5467.145996 -0.157633 -0.494157 0.854962
6377.692383 3674.780273 5567.892578 -0.157633 -0.494157 0.854962
7076.096680 4418.395996 5500.532715 -0.316910 0.763786 0.562315
6998.435059 4551.536621 5275.920898 -0.316910 0.763786 0.562315
6133.639648 4007.444824 5527.573242 -0.316910 0.763786 0.562315
6133.639648 4007.444824 5527.573242 -0.350888 -0.145302 0.925075
6132.476074 3561.216064 5457.042480 -0.350888 -0.145302 0.925075
6377.692383 3674.780273 5567.892578 -0.350888 -0.145302 0.925075
6810.613281 3544.590332 5530.559082 0.363249 -0.327862 0.872099
7243.090332 3800.715820 5446.711914 0.363249 -0.327862 0.872099
7087.157715 4070.718994 5613.167969 0.363249 -0.327862 0.872099
7087.157715 4070.718994 5613.167969 -0.105149 0.303458 0.947025
7076.096680 4418.395996 5500.532715 -0.105149 0.303458 0.947025
6133.639648 4007.444824 5527.573242 -0.105149 0.303458 0.947025
6377.692383 3674.780273 5567.892578 -0.054885 -0.439596 0.896517
6538.182617 3449.279053 5467.145996 -0.054885 -0.439596 0.896517
6810.613281 3544.590332 5530.559082 -0.054885 -0.439596 0.896517
6810.613281 3544.590332 5530.559082 0.033172 -0.172020 0.984535
7087.157715 4070.718994 5613.167969 0.033172 -0.172020 0.984535
6377.692383 3674.780273 5567.892578 0.033172 -0.172020 0.984535
7087.157715 4070.718994 5613.167969 -0.092738 0.052475 0.994307
6133.639648 4007.444824 5527.573242 -0.092738 0.052475 0.994307
6377.692383 3674.780273 5567.892578 -0.092738 0.052475 0.994307
7155.291016 3784.173584 5850.186035 0.126979 -0.146988 -0.980954
6549.674316 3743.866943 5777.832031 0.126979 -0.146988 -0.980954
7178.827148 4073.766846 5809.839355 0.126979 -0.146988 -0.980954
6906.281738 4329.483887 5840.884766 -0.114971 0.175287 -0.977781
6549.674316 3743.866943 5777.832031 -0.114971 0.175287 -0.977781
6053.757812 3986.885742 5879.709473 -0.114971 0.175287 -0.977781
7178.827148 4073.766846 5809.839355 -0.008150 0.111951 -0.993680
6549.674316 3743.866943 5777.832031 -0.008150 0.111951 -0.993680
6906.281738 4329.483887 5840.884766 -0.008150 0.111951 -0.993680
6549.674316 3743.866943 5777.832031 0.135427 -0.453796 -0.880755
7155.291016 3784.173584 5850.186035 0.135427 -0.453796 -0.880755
6487.385254 3448.796143 5920.285156 0.135427 -0.453796 -0.880755
6549.674316 3743.866943 5777.832031 -0.147242 -0.404643 -0.902543
6487.385254 3448.796143 5920.285156 -0.147242 -0.404643 -0.902543
6137.845215 3693.130859 5867.765137 -0.147242 -0.404643 -0.902543
6137.845215 3693.130859 5867.765137 -0.210876 -0.020626 -0.977295
6053.757812 3986.885742 5879.709473 -0.210876 -0.020626 -0.977295
6549.674316 3743.866943 5777.832031 -0.210876 -0.020626 -0.977295
7343.088867 4157.773926 5931.822266 0.553036 0.116529 -0.824968
7178.827148 4073.766846 5809.839355 0.553036 0.116529 -0.824968
7339.775391 4436.578613 5968.982910 0.553036 0.116529 -0.824968
7178.827148 4073.766846 5809.839355 0.194846 0.320222 -0.927089
6906.281738 4329.483887 5840.884766 0.194846 0.320222 -0.927089
7339.775391 4436.578613 5968.982910 0.194846 0.320222 -0.927089
6832.605469 3489.559570 5939.476074 0.096380 -0.383888 -0.918336
6487.385254 3448.796143 5920.285156 0.096380 -0.383888 -0.918336
7155.291016 3784.173584 5850.186035 0.096380 -0.383888 -0.918336
6487.385254 3448.796143 5920.285156 -0.290368 -0.579137 -0.761766
6086.528809 3542.980469 6001.478516 -0.290368 -0.579137 -0.761766
6137.845215 3693.130859 5867.765137 -0.290368 -0.579137 -0.761766
6906.281738 4329.483887 5840.884766 -0.320823 0.729943 -0.603536
6053.757812 3986.885742 5879.709473 -0.320823 0.729943 -0.603536
6336.574707 4213.002930 6002.848145 -0.320823 0.729943 -0.603536
5884.189453 3896.846680 6044.047363 -0.644275 -0.153963 -0.749136
6053.757812 3986.885742 5879.709473 -0.644275 -0.153963 -0.749136
6137.845215 3693.130859 5867.765137 -0.644275 -0.153963 -0.749136
7339.775391 4436.578613 5968.982910 0.015518 0.740643 -0.671719
6906.281738 4329.483887 5840.884766 0.015518 0.740643 -0.671719
7025.071777 4553.768555 6090.927246 0.015518 0.740643 -0.671719
6086.528809 3542.980469 6001.478516 -0.701646 -0.324915 -0.634132
5884.189453 3896.846680 6044.047363 -0.701646 -0.324915 -0.634132
6137.845215 3693.130859 5867.765137 -0.701646 -0.324915 -0.634132
7155.291016 3784.173584 5850.186035 0.639266 -0.156840 -0.752821
7178.827148 4073.766846 5809.839355 0.639266 -0.156840 -0.752821
7343.088867 4157.773926 5931.822266 0.639266 -0.156840 -0.752821
6906.281738 4329.483887 5840.884766 -0.314139 0.776051 -0.546866
6336.574707 4213.002930 6002.848145 -0.314139 0.776051 -0.546866
7025.071777 4553.768555 6090.927246 -0.314139 0.776051 -0.546866
6487.385254 3448.796143 5920.285156 -0.232316 -0.972456 -0.018909
6293.374023 3487.110596 6333.461426 -0.232316 -0.972456 -0.018909
6086.528809 3542.980469 6001.478516 -0.232316 -0.972456 -0.018909
7302.473633 3718.326172 6174.052734 0.554933 -0.729173 -0.400445
6832.605469 3489.559570 5939.476074 0.554933 -0.729173 -0.400445
7155.291016 3784.173584 5850.186035 0.554933 -0.729173 -0.400445
5934.145508 4009.888428 6144.862793 -0.687012 0.628641 -0.364451
6053.757812 3986.885742 5879.709473 -0.687012 0.628641 -0.364451
5884.189453 3896.846680 6044.047363 -0.687012 0.628641 -0.364451
6053.757812 3986.885742 5879.709473 -0.512192 0.804458 -0.300842
5934.145508 4009.888428 6144.862793 -0.512192 0.804458 -0.300842
6336.574707 4213.002930 6002.848145 -0.512192 0.804458 -0.300842
7339.775391 4436.578613 5968.982910 0.316624 0.944242 -0.090312
7025.071777 4553.768555 6090.927246 0.316624 0.944242 -0.090312
7283.774414 4477.602051 6201.562500 0.316624 0.944242 -0.090312
7155.291016 3784.173584 5850.186035 0.835302 -0.322601 -0.445196
7343.088867 4157.773926 5931.822266 0.835302 -0.322601 -0.445196
7302.473633 3718.326172 6174.052734 0.835302 -0.322601 -0.445196
6832.605469 3489.559570 5939.476074 0.123346 -0.983973 -0.128776
6996.864258 3468.791260 6255.497559 0.123346 -0.983973 -0.128776
6487.385254 3448.796143 5920.285156 0.123346 -0.983973 -0.128776
7302.473633 3718.326172 6174.052734 0.914456 -0.256882 -0.312700
7343.088867 4157.773926 5931.822266 0.914456 -0.256882 -0.312700
7333.281738 3503.621826 6440.526855 0.914456 -0.256882 -0.312700
7025.071777 4553.768555 6090.927246 -0.445379 0.895157 0.018207
6336.574707 4213.002930 6002.848145 -0.445379 0.895157 0.018207
5934.145508 4009.888428 6144.862793 -0.445379 0.895157 0.018207
6487.385254 3448.796143 5920.285156 -0.016567 -0.996277 0.084607
6996.864258 3468.791260 6255.497559 -0.016567 -0.996277 0.084607
6293.374023 3487.110596 6333.461426 -0.016567 -0.996277 0.084607
6832.605469 3489.559570 5939.476074 0.541793 -0.772015 -0.332344
7302.473633 3718.326172 6174.052734 0.541793 -0.772015 -0.332344
6996.864258 3468.791260 6255.497559 0.541793 -0.772015 -0.332344
6086.528809 3542.980469 6001.478516 -0.765784 -0.488226 0.418580
6083.378906 3825.257812 6324.960449 -0.765784 -0.488226 0.418580
5884.189453 3896.846680 6044.047363 -0.765784 -0.488226 0.418580
7333.281738 3503.621826 6440.526855 0.999533 0.007948 0.029491
7343.088867 4157.773926 5931.822266 0.999533 0.007948 0.029491
7339.775391 4436.578613 5968.982910 0.999533 0.007948 0.029491
6083.378906 3825.257812 6324.960449 -0.824127 -0.127896 0.551777
5934.145508 4009.888428 6144.862793 -0.824127 -0.127896 0.551777
5884.189453 3896.846680 6044.047363 -0.824127 -0.127896 0.551777
7283.774414 4477.602051 6201.562500 0.092718 0.908096 0.408370
7025.071777 4553.768555 6090.927246 0.092718 0.908096 0.408370
7141.026367 4423.428711 6354.438477 0.092718 0.908096 0.408370
6086.528809 3542.980469 6001.478516 -0.780689 -0.474601 0.406545
6293.374023 3487.110596 6333.461426 -0.780689 -0.474601 0.406545
6083.378906 3825.257812 6324.960449 -0.780689 -0.474601 0.406545
5934.145508 4009.888428 6144.862793 -0.364878 0.781993 0.505323
6704.644043 4171.950684 6450.423340 -0.364878 0.781993 0.505323
7025.071777 4553.768555 6090.927246 -0.364878 0.781993 0.505323
7330.234863 3451.319092 6304.651855 0.109903 -0.427474 -0.897323
6996.864258 3468.791260 6255.497559 0.109903 -0.427474 -0.897323
7302.473633 3718.326172 6174.052734 0.109903 -0.427474 -0.897323
7333.281738 3503.621826 6440.526855 0.999974 -0.007231 -0.000535
7339.775391 4436.578613 5968.982910 0.999974 -0.007231 -0.000535
7337.896973 4144.267578 6408.591797 0.999974 -0.007231 -0.000535
6996.864258 3468.791260 6255.497559 -0.091140 -0.759680 -0.643879
6722.288574 3390.671631 6386.532715 -0.091140 -0.759680 -0.643879
6293.374023 3487.110596 6333.461426 -0.091140 -0.759680 -0.643879
7302.473633 3718.326172 6174.052734 0.995586 0.077922 -0.052320
7333.281738 3503.621826 6440.526855 0.995586 0.077922 -0.052320
7330.234863 3451.319092 6304.651855 0.995586 0.077922 -0.052320
7025.071777 4553.768555 6090.927246 -0.332116 0.779197 0.531555
6704.644043 4171.950684 6450.423340 -0.332116 0.779197 0.531555
7141.026367 4423.428711 6354.438477 -0.332116 0.779197 0.531555
6722.288574 3390.671631 6386.532715 0.023859 -0.879892 -0.474574
6996.864258 3468.791260 6255.497559 0.023859 -0.879892 -0.474574
7330.234863 3451.319092 6304.651855 0.023859 -0.879892 -0.474574
7283.774414 4477.602051 6201.562500 0.946780 0.266156 0.181022
7337.896973 4144.267578 6408.591797 0.946780 0.266156 0.181022
7339.775391 4436.578613 5968.982910 0.946780 0.266156 0.181022
6083.378906 3825.257812 6324.960449 -0.409444 0.445614 0.796105
6704.644043 4171.950684 6450.423340 -0.409444 0.445614 0.796105
5934.145508 4009.888428 6144.862793 -0.409444 0.445614 0.796105
7330.234863 3451.319092 6304.651855 0.139829 -0.925125 0.352975
7333.281738 3503.621826 6440.526855 0.139829 -0.925125 0.352975
6722.288574 3390.671631 6386.532715 0.139829 -0.925125 0.352975
7337.896973 4144.267578 6408.591797 0.532896 0.507201 0.677325
7283.774414 4477.602051 6201.562500 0.532896 0.507201 0.677325
7141.026367 4423.428711 6354.438477 0.532896 0.507201 0.677325
6644.800781 3740.597900 6567.691895 -0.415400 -0.235885 0.878522
6083.378906 3825.257812 6324.960449 -0.415400 -0.235885 0.878522
6293.374023 3487.110596 6333.461426 -0.415400 -0.235885 0.878522
6975.241211 3936.257080 6549.356445 -0.012239 0.375031 0.926931
7141.026367 4423.428711 6354.438477 -0.012239 0.375031 0.926931
6704.644043 4171.950684 6450.423340 -0.012239 0.375031 0.926931
6293.374023 3487.110596 6333.461426 -0.214126 -0.486062 0.847286
6722.288574 3390.671631 6386.532715 -0.214126 -0.486062 0.847286
6644.800781 3740.597900 6567.691895 -0.214126 -0.486062 0.847286
6083.378906 3825.257812 6324.960449 -0.342510 0.290426 0.893498
6644.800781 3740.597900 6567.691895 -0.342510 0.290426 0.893498
6704.644043 4171.950684 6450.423340 -0.342510 0.290426 0.893498
7141.026367 4423.428711 6354.438477 0.183854 0.310569 0.932601
6975.241211 3936.257080 6549.356445 0.183854 0.310569 0.932601
7337.896973 4144.267578 6408.591797 0.183854 0.310569 0.932601
6722.288574 3390.671631 6386.532715 0.006261 -0.458646 0.888597
7333.281738 3503.621826 6440.526855 0.006261 -0.458646 0.888597
6644.800781 3740.597900 6567.691895 0.006261 -0.458646 0.888597
7333.281738 3503.621826 6440.526855 0.339258 0.044396 0.939645
7337.896973 4144.267578 6408.591797 0.339258 0.044396 0.939645
6975.241211 3936.257080 6549.356445 0.339258 0.044396 0.939645
6644.800781 3740.597900 6567.691895 -0.109776 0.274908 0.955183
6975.241211 3936.257080 6549.356445 -0.109776 0.274908 0.955183
6704.644043 4171.950684 6450.423340 -0.109776 0.274908 0.955183
7333.281738 3503.621826 6440.526855 0.134676 -0.135463 0.981587
6975.241211 3936.257080 6549.356445 0.134676 -0.135463 0.981587
6644.800781 3740.597900 6567.691895 0.134676 -0.135463 0.981587
3 0 1 2
3 3 4 5
3 6 7 8
3 9 10 11
3 12 13 14
3 15 16 17
3 18 19 20
3 21 22 23
3 24 25 26
3 27 28 29
3 30 31 32
3 33 34 35
3 36 37 38
3 39 40 41
3 42 43 44
3 45 46 47
3 48 49 50
3 51 52 53
3 54 55 56
3 57 58 59
3 60 61 62
3 63 64 65
3 66 67 68
3 69 70 71
3 72 73 74
3 75 76 77
3 78 79 80
3 81 82 83
3 84 85 86
3 87 88 89
3 90 91 92
3 93 94 95
3 96 97 98
3 99 100 101
3 102 103 104
3 105 106 107
3 108 109 110
3 111 112 113
3 114 115 116
3 117 118 119
3 120 121 122
3 123 124 125
3 126 127 128
3 129 130 131
3 132 133 134
3 135 136 137
3 138 139 140
3 141 142 143
3 144 145 146
3 147 148 149
3 150 151 152
3 153 154 155
3 156 157 158
3 159 160 161
3 162 163 164
3 165 166 167
3 168 169 170
3 171 172 173
3 174 175 176
3 177 178 179
3 180 181 182
3 183 184 185
3 186 187 188
3 189 190 191
3 192 193 194
3 195 196 197
3 198 199 200
3 201 202 203
3 204 205 206
3 207 208 209
3 210 211 212
3 213 214 215
3 216 217 218
3 219 220 221
3 222 223 224
3 225 226 227
3 228 229 230
3 231 232 233
3 234 235 236
3 237 238 239
3 240 241 242
3 243 244 245
3 246 247 248
3 249 250 251
3 252 253 254
3 255 256 257
3 258 259 260
3 261 262 263
3 264 265 266
3 267 268 269
3 270 271 272
3 273 274 275
3 276 277 278
3 279 280 281
3 282 283 284
3 285 286 287
3 288 289 290
3 291 292 293
3 294 295 296
3 297 298 299
3 300 301 302
3 303 304 305
