ply
format ascii 1.0
comment Created by Blender 2.80 (sub 75) - www.blender.org, source file: 'downsample_ccf.blend'
element vertex 42
property float x
property float y
property float z
property float nx
property float ny
property float nz
element face 14
property list uchar uint vertex_indices
end_header
7551.158203 7328.962891 5517.507812 0.215521 -0.326933 -0.920144
7545.567383 7147.171387 5580.790039 0.215521 -0.326933 -0.920144
6934.859863 7253.520020 5399.960449 0.215521 -0.326933 -0.920144
6934.859863 7253.520020 5399.960449 -0.219885 0.778435 -0.587953
6698.912109 7294.240723 5542.114258 -0.219885 0.778435 -0.587953
6849.165039 7415.848145 5646.927246 -0.219885 0.778435 -0.587953
6849.165039 7415.848145 5646.927246 0.002315 0.836016 -0.548700
7551.158203 7328.962891 5517.507812 0.002315 0.836016 -0.548700
6934.859863 7253.520020 5399.960449 0.002315 0.836016 -0.548700
6766.435547 7290.089355 5913.056152 -0.218053 -0.975935 -0.002019
6934.859863 7253.520020 5399.960449 -0.218053 -0.975935 -0.002019
7025.198242 7232.141113 5977.362305 -0.218053 -0.975935 -0.002019
6934.859863 7253.520020 5399.960449 -0.159507 -0.987033 0.017989
6766.435547 7290.089355 5913.056152 -0.159507 -0.987033 0.017989
6698.912109 7294.240723 5542.114258 -0.159507 -0.987033 0.017989
7025.198242 7232.141113 5977.362305 -0.168644 -0.985625 -0.010108
6934.859863 7253.520020 5399.960449 -0.168644 -0.985625 -0.010108
7545.567383 7147.171387 5580.790039 -0.168644 -0.985625 -0.010108
6849.165039 7415.848145 5646.927246 0.079709 0.972168 -0.220308
7335.815430 7406.623047 5782.291992 0.079709 0.972168 -0.220308
7551.158203 7328.962891 5517.507812 0.079709 0.972168 -0.220308
7545.567383 7147.171387 5580.790039 0.996821 -0.051747 -0.060588
7551.158203 7328.962891 5517.507812 0.996821 -0.051747 -0.060588
7566.777344 7227.790039 5860.890137 0.996821 -0.051747 -0.060588
6766.435547 7290.089355 5913.056152 -0.677437 0.723746 0.131415
6849.165039 7415.848145 5646.927246 -0.677437 0.723746 0.131415
6698.912109 7294.240723 5542.114258 -0.677437 0.723746 0.131415
7545.567383 7147.171387 5580.790039 0.050922 -0.960759 0.272671
7566.777344 7227.790039 5860.890137 0.050922 -0.960759 0.272671
7025.198242 7232.141113 5977.362305 0.050922 -0.960759 0.272671
6766.435547 7290.089355 5913.056152 -0.094331 0.911111 0.401220
7335.815430 7406.623047 5782.291992 -0.094331 0.911111 0.401220
6849.165039 7415.848145 5646.927246 -0.094331 0.911111 0.401220
7566.777344 7227.790039 5860.890137 0.552021 0.806309 0.212458
7551.158203 7328.962891 5517.507812 0.552021 0.806309 0.212458
7335.815430 7406.623047 5782.291992 0.552021 0.806309 0.212458
7566.777344 7227.790039 5860.890137 0.176055 0.577682 0.797050
7335.815430 7406.623047 5782.291992 0.176055 0.577682 0.797050
7025.198242 7232.141113 5977.362305 0.176055 0.577682 0.797050
6766.435547 7290.089355 5913.056152 0.000885 0.744644 0.667461
7025.198242 7232.141113 5977.362305 0.000885 0.744644 0.667461
7335.815430 7406.623047 5782.291992 0.000885 0.744644 0.667461
3 0 1 2
3 3 4 5
3 6 7 8
3 9 10 11
3 12 13 14
3 15 16 17
3 18 19 20
3 21 22 23
3 24 25 26
3 27 28 29
3 30 31 32
3 33 34 35
3 36 37 38
3 39 40 41
