ply
format ascii 1.0
comment Created by Blender 2.80 (sub 75) - www.blender.org, source file: 'downsample_ccf.blend'
element vertex 480
property float x
property float y
property float z
property float nx
property float ny
property float nz
element face 160
property list uchar uint vertex_indices
end_header
6352.695801 5813.974121 4250.562012 0.139264 -0.002406 -0.990252
6451.206543 6257.167969 4263.339355 0.139264 -0.002406 -0.990252
7129.468750 6313.901855 4358.588867 0.139264 -0.002406 -0.990252
6352.695801 5813.974121 4250.562012 -0.109086 0.052865 -0.992626
5636.866699 6542.582520 4368.032715 -0.109086 0.052865 -0.992626
6451.206543 6257.167969 4263.339355 -0.109086 0.052865 -0.992626
6352.695801 5813.974121 4250.562012 -0.264302 -0.105099 -0.958696
5873.912598 5713.901855 4393.527832 -0.264302 -0.105099 -0.958696
5636.866699 6542.582520 4368.032715 -0.264302 -0.105099 -0.958696
7129.468750 6313.901855 4358.588867 0.091925 0.418208 -0.903688
6451.206543 6257.167969 4263.339355 0.091925 0.418208 -0.903688
6939.862793 6393.452637 4376.116211 0.091925 0.418208 -0.903688
6752.347168 5636.208008 4471.093262 -0.016297 -0.792675 -0.609427
5873.912598 5713.901855 4393.527832 -0.016297 -0.792675 -0.609427
6352.695801 5813.974121 4250.562012 -0.016297 -0.792675 -0.609427
6451.206543 6257.167969 4263.339355 0.062017 0.494877 -0.866747
5636.866699 6542.582520 4368.032715 0.062017 0.494877 -0.866747
6939.862793 6393.452637 4376.116211 0.062017 0.494877 -0.866747
5873.912598 5713.901855 4393.527832 -0.271051 -0.106965 -0.956603
5295.931152 6370.358887 4483.893555 -0.271051 -0.106965 -0.956603
5636.866699 6542.582520 4368.032715 -0.271051 -0.106965 -0.956603
5873.912598 5713.901855 4393.527832 -0.063659 -0.966805 -0.247459
6752.347168 5636.208008 4471.093262 -0.063659 -0.966805 -0.247459
5895.557617 5672.068848 4551.397949 -0.063659 -0.966805 -0.247459
6752.347168 5636.208008 4471.093262 0.337252 -0.333804 -0.880248
6352.695801 5813.974121 4250.562012 0.337252 -0.333804 -0.880248
7129.468750 6313.901855 4358.588867 0.337252 -0.333804 -0.880248
7606.223633 5761.852051 4743.473633 0.330627 -0.330726 -0.883915
6752.347168 5636.208008 4471.093262 0.330627 -0.330726 -0.883915
7129.468750 6313.901855 4358.588867 0.330627 -0.330726 -0.883915
7129.468750 6313.901855 4358.588867 0.248539 0.732118 -0.634217
6939.862793 6393.452637 4376.116211 0.248539 0.732118 -0.634217
7248.770020 6395.240723 4499.235840 0.248539 0.732118 -0.634217
5295.931152 6370.358887 4483.893555 -0.366441 0.103342 -0.924685
5141.387695 6665.592285 4578.132324 -0.366441 0.103342 -0.924685
5636.866699 6542.582520 4368.032715 -0.366441 0.103342 -0.924685
5636.866699 6542.582520 4368.032715 0.108314 0.926897 -0.359347
6450.835938 6512.940918 4536.921387 0.108314 0.926897 -0.359347
6939.862793 6393.452637 4376.116211 0.108314 0.926897 -0.359347
6450.835938 6512.940918 4536.921387 0.137987 0.844949 -0.516740
5636.866699 6542.582520 4368.032715 0.137987 0.844949 -0.516740
5839.250488 6586.754883 4494.304688 0.137987 0.844949 -0.516740
5839.250488 6586.754883 4494.304688 0.131177 0.851285 -0.508041
5636.866699 6542.582520 4368.032715 0.131177 0.851285 -0.508041
5281.895508 6809.012207 4722.814453 0.131177 0.851285 -0.508041
7544.528809 6265.300293 4641.070312 0.538705 0.445901 -0.714821
7129.468750 6313.901855 4358.588867 0.538705 0.445901 -0.714821
7248.770020 6395.240723 4499.235840 0.538705 0.445901 -0.714821
6798.576172 6398.861328 4549.178711 0.005029 0.999619 -0.027135
7248.770020 6395.240723 4499.235840 0.005029 0.999619 -0.027135
6939.862793 6393.452637 4376.116211 0.005029 0.999619 -0.027135
6939.862793 6393.452637 4376.116211 0.297680 0.930384 0.213946
6450.835938 6512.940918 4536.921387 0.297680 0.930384 0.213946
6798.576172 6398.861328 4549.178711 0.297680 0.930384 0.213946
5295.931152 6370.358887 4483.893555 -0.617908 -0.455856 -0.640613
5873.912598 5713.901855 4393.527832 -0.617908 -0.455856 -0.640613
5336.047852 6042.568848 4678.451660 -0.617908 -0.455856 -0.640613
5636.866699 6542.582520 4368.032715 -0.091434 0.750200 -0.654859
5141.387695 6665.592285 4578.132324 -0.091434 0.750200 -0.654859
5281.895508 6809.012207 4722.814453 -0.091434 0.750200 -0.654859
5873.912598 5713.901855 4393.527832 -0.568349 -0.811292 -0.137055
5895.557617 5672.068848 4551.397949 -0.568349 -0.811292 -0.137055
5336.047852 6042.568848 4678.451660 -0.568349 -0.811292 -0.137055
5863.537109 6489.068848 4625.215332 0.056035 0.805154 0.590413
6450.835938 6512.940918 4536.921387 0.056035 0.805154 0.590413
5839.250488 6586.754883 4494.304688 0.056035 0.805154 0.590413
5839.250488 6586.754883 4494.304688 0.485554 0.741423 0.463173
5281.895508 6809.012207 4722.814453 0.485554 0.741423 0.463173
5863.537109 6489.068848 4625.215332 0.485554 0.741423 0.463173
6752.347168 5636.208008 4471.093262 -0.009900 -0.948118 0.317764
6713.708984 5690.971680 4633.288574 -0.009900 -0.948118 0.317764
5895.557617 5672.068848 4551.397949 -0.009900 -0.948118 0.317764
5336.047852 6042.568848 4678.451660 -0.575560 -0.468334 -0.670369
4746.698242 6472.926270 4883.793945 -0.575560 -0.468334 -0.670369
5295.931152 6370.358887 4483.893555 -0.575560 -0.468334 -0.670369
6359.876953 5999.728516 4624.654297 0.019414 0.165128 0.986081
6798.576172 6398.861328 4549.178711 0.019414 0.165128 0.986081
6450.835938 6512.940918 4536.921387 0.019414 0.165128 0.986081
6798.576172 6398.861328 4549.178711 0.052059 0.913705 0.403031
7531.730957 6274.296875 4736.875977 0.052059 0.913705 0.403031
7248.770020 6395.240723 4499.235840 0.052059 0.913705 0.403031
6359.876953 5999.728516 4624.654297 -0.024322 0.211497 0.977076
6641.403320 5852.503906 4663.530273 -0.024322 0.211497 0.977076
6798.576172 6398.861328 4549.178711 -0.024322 0.211497 0.977076
6359.876953 5999.728516 4624.654297 0.141491 0.142392 0.979645
6450.835938 6512.940918 4536.921387 0.141491 0.142392 0.979645
5863.537109 6489.068848 4625.215332 0.141491 0.142392 0.979645
7544.528809 6265.300293 4641.070312 0.414122 0.909723 -0.030108
7248.770020 6395.240723 4499.235840 0.414122 0.909723 -0.030108
7531.730957 6274.296875 4736.875977 0.414122 0.909723 -0.030108
5295.931152 6370.358887 4483.893555 -0.594420 -0.055072 -0.802266
4746.698242 6472.926270 4883.793945 -0.594420 -0.055072 -0.802266
5141.387695 6665.592285 4578.132324 -0.594420 -0.055072 -0.802266
6713.708984 5690.971680 4633.288574 -0.070392 -0.552196 0.830737
5818.975098 5848.077637 4661.902832 -0.070392 -0.552196 0.830737
5895.557617 5672.068848 4551.397949 -0.070392 -0.552196 0.830737
7502.499512 6118.943359 4882.814453 -0.067342 0.689824 0.720838
7531.730957 6274.296875 4736.875977 -0.067342 0.689824 0.720838
6798.576172 6398.861328 4549.178711 -0.067342 0.689824 0.720838
5818.975098 5848.077637 4661.902832 -0.208062 -0.583423 0.785066
5336.047852 6042.568848 4678.451660 -0.208062 -0.583423 0.785066
5895.557617 5672.068848 4551.397949 -0.208062 -0.583423 0.785066
6641.403320 5852.503906 4663.530273 -0.000952 -0.184432 0.982845
5818.975098 5848.077637 4661.902832 -0.000952 -0.184432 0.982845
6713.708984 5690.971680 4633.288574 -0.000952 -0.184432 0.982845
6798.576172 6398.861328 4549.178711 -0.317555 0.280909 0.905676
6641.403320 5852.503906 4663.530273 -0.317555 0.280909 0.905676
7502.499512 6118.943359 4882.814453 -0.317555 0.280909 0.905676
5343.843262 6181.935547 4810.618652 -0.241675 -0.660567 0.710805
5336.047852 6042.568848 4678.451660 -0.241675 -0.660567 0.710805
5818.975098 5848.077637 4661.902832 -0.241675 -0.660567 0.710805
7129.468750 6313.901855 4358.588867 0.541669 -0.164883 -0.824262
7544.528809 6265.300293 4641.070312 0.541669 -0.164883 -0.824262
7770.174805 5950.614258 4852.303711 0.541669 -0.164883 -0.824262
6641.403320 5852.503906 4663.530273 -0.003259 0.249476 0.968375
6359.876953 5999.728516 4624.654297 -0.003259 0.249476 0.968375
5818.975098 5848.077637 4661.902832 -0.003259 0.249476 0.968375
5015.961426 6800.620117 4888.101074 -0.662252 0.550843 -0.507932
5141.387695 6665.592285 4578.132324 -0.662252 0.550843 -0.507932
4746.698242 6472.926270 4883.793945 -0.662252 0.550843 -0.507932
7606.223633 5761.852051 4743.473633 0.301390 -0.737160 -0.604780
7550.784180 5644.058594 4859.422852 0.301390 -0.737160 -0.604780
6752.347168 5636.208008 4471.093262 0.301390 -0.737160 -0.604780
7606.223633 5761.852051 4743.473633 0.591675 -0.050002 -0.804624
7129.468750 6313.901855 4358.588867 0.591675 -0.050002 -0.804624
7770.174805 5950.614258 4852.303711 0.591675 -0.050002 -0.804624
6359.876953 5999.728516 4624.654297 0.133212 -0.238880 0.961868
5343.843262 6181.935547 4810.618652 0.133212 -0.238880 0.961868
5818.975098 5848.077637 4661.902832 0.133212 -0.238880 0.961868
6359.876953 5999.728516 4624.654297 0.212996 0.214950 0.953116
5863.537109 6489.068848 4625.215332 0.212996 0.214950 0.953116
5343.843262 6181.935547 4810.618652 0.212996 0.214950 0.953116
5863.537109 6489.068848 4625.215332 0.247467 0.158290 0.955879
5281.895508 6809.012207 4722.814453 0.247467 0.158290 0.955879
5343.843262 6181.935547 4810.618652 0.247467 0.158290 0.955879
5281.895508 6809.012207 4722.814453 0.516482 0.168576 0.839541
5015.961426 6800.620117 4888.101074 0.516482 0.168576 0.839541
5343.843262 6181.935547 4810.618652 0.516482 0.168576 0.839541
5141.387695 6665.592285 4578.132324 -0.327380 0.810580 -0.485574
5015.961426 6800.620117 4888.101074 -0.327380 0.810580 -0.485574
5281.895508 6809.012207 4722.814453 -0.327380 0.810580 -0.485574
7770.174805 5950.614258 4852.303711 0.795611 0.603776 0.049582
7544.528809 6265.300293 4641.070312 0.795611 0.603776 0.049582
7531.730957 6274.296875 4736.875977 0.795611 0.603776 0.049582
7982.624023 5444.892578 5009.546875 0.567101 -0.017801 -0.823456
7606.223633 5761.852051 4743.473633 0.567101 -0.017801 -0.823456
7770.174805 5950.614258 4852.303711 0.567101 -0.017801 -0.823456
7606.223633 5761.852051 4743.473633 -0.040867 -0.691085 -0.721617
7936.736816 5370.845703 5099.218750 -0.040867 -0.691085 -0.721617
7550.784180 5644.058594 4859.422852 -0.040867 -0.691085 -0.721617
7982.624023 5444.892578 5009.546875 -0.138096 -0.727848 -0.671690
7936.736816 5370.845703 5099.218750 -0.138096 -0.727848 -0.671690
7606.223633 5761.852051 4743.473633 -0.138096 -0.727848 -0.671690
6752.347168 5636.208008 4471.093262 -0.089092 -0.949925 0.299509
7595.215820 5727.353027 5010.890137 -0.089092 -0.949925 0.299509
6713.708984 5690.971680 4633.288574 -0.089092 -0.949925 0.299509
7550.784180 5644.058594 4859.422852 -0.245567 -0.817198 0.521426
7595.215820 5727.353027 5010.890137 -0.245567 -0.817198 0.521426
6752.347168 5636.208008 4471.093262 -0.245567 -0.817198 0.521426
6641.403320 5852.503906 4663.530273 -0.360977 -0.325216 0.874031
6713.708984 5690.971680 4633.288574 -0.360977 -0.325216 0.874031
7595.215820 5727.353027 5010.890137 -0.360977 -0.325216 0.874031
7770.174805 5950.614258 4852.303711 0.671272 0.632378 0.386641
7531.730957 6274.296875 4736.875977 0.671272 0.632378 0.386641
7706.391602 5936.875000 4985.513184 0.671272 0.632378 0.386641
5336.047852 6042.568848 4678.451660 0.434131 -0.632555 0.641408
5343.843262 6181.935547 4810.618652 0.434131 -0.632555 0.641408
4858.562500 6131.745117 5089.579102 0.434131 -0.632555 0.641408
7706.391602 5936.875000 4985.513184 0.210043 0.648117 0.732001
7531.730957 6274.296875 4736.875977 0.210043 0.648117 0.732001
7502.499512 6118.943359 4882.814453 0.210043 0.648117 0.732001
4858.562500 6131.745117 5089.579102 -0.602300 -0.547735 -0.580707
4746.698242 6472.926270 4883.793945 -0.602300 -0.547735 -0.580707
5336.047852 6042.568848 4678.451660 -0.602300 -0.547735 -0.580707
7770.174805 5950.614258 4852.303711 0.399692 0.872400 0.281360
7706.391602 5936.875000 4985.513184 0.399692 0.872400 0.281360
7964.299316 5760.985352 5164.509766 0.399692 0.872400 0.281360
4907.292969 6571.281250 4991.383301 0.491564 0.153150 0.857269
5343.843262 6181.935547 4810.618652 0.491564 0.153150 0.857269
5015.961426 6800.620117 4888.101074 0.491564 0.153150 0.857269
7982.624023 5444.892578 5009.546875 0.622737 0.018394 -0.782215
7770.174805 5950.614258 4852.303711 0.622737 0.018394 -0.782215
8074.798828 5639.981934 5087.516602 0.622737 0.018394 -0.782215
7595.215820 5727.353027 5010.890137 -0.306308 0.229626 0.923822
7502.499512 6118.943359 4882.814453 -0.306308 0.229626 0.923822
6641.403320 5852.503906 4663.530273 -0.306308 0.229626 0.923822
4746.698242 6472.926270 4883.793945 -0.670803 0.544576 0.503448
4907.292969 6571.281250 4991.383301 -0.670803 0.544576 0.503448
5015.961426 6800.620117 4888.101074 -0.670803 0.544576 0.503448
7706.391602 5936.875000 4985.513184 -0.251195 0.246653 0.935983
7502.499512 6118.943359 4882.814453 -0.251195 0.246653 0.935983
7595.215820 5727.353027 5010.890137 -0.251195 0.246653 0.935983
8074.798828 5639.981934 5087.516602 0.726725 0.686027 -0.035184
7770.174805 5950.614258 4852.303711 0.726725 0.686027 -0.035184
7964.299316 5760.985352 5164.509766 0.726725 0.686027 -0.035184
4784.472656 6328.309570 5131.714844 -0.665784 0.595898 0.449040
4907.292969 6571.281250 4991.383301 -0.665784 0.595898 0.449040
4746.698242 6472.926270 4883.793945 -0.665784 0.595898 0.449040
7936.736816 5370.845703 5099.218750 0.197064 -0.803097 -0.562318
7982.624023 5444.892578 5009.546875 0.197064 -0.803097 -0.562318
8051.591797 5364.786621 5148.123047 0.197064 -0.803097 -0.562318
7550.784180 5644.058594 4859.422852 -0.685505 -0.534097 0.494796
7936.736816 5370.845703 5099.218750 -0.685505 -0.534097 0.494796
7595.215820 5727.353027 5010.890137 -0.685505 -0.534097 0.494796
4907.292969 6571.281250 4991.383301 0.619853 0.374960 0.689338
4892.004883 6227.900879 5191.909180 0.619853 0.374960 0.689338
5343.843262 6181.935547 4810.618652 0.619853 0.374960 0.689338
7982.624023 5444.892578 5009.546875 0.832915 -0.185096 -0.521529
8074.798828 5639.981934 5087.516602 0.832915 -0.185096 -0.521529
8051.591797 5364.786621 5148.123047 0.832915 -0.185096 -0.521529
5343.843262 6181.935547 4810.618652 0.395664 -0.730277 0.556907
4892.004883 6227.900879 5191.909180 0.395664 -0.730277 0.556907
4858.562500 6131.745117 5089.579102 0.395664 -0.730277 0.556907
4858.562500 6131.745117 5089.579102 -0.938175 -0.341554 -0.056290
4784.472656 6328.309570 5131.714844 -0.938175 -0.341554 -0.056290
4746.698242 6472.926270 4883.793945 -0.938175 -0.341554 -0.056290
7964.299316 5760.985352 5164.509766 -0.389199 0.311511 0.866882
7706.391602 5936.875000 4985.513184 -0.389199 0.311511 0.866882
7595.215820 5727.353027 5010.890137 -0.389199 0.311511 0.866882
8051.591797 5364.786621 5148.123047 0.996173 -0.073635 0.047093
8074.798828 5639.981934 5087.516602 0.996173 -0.073635 0.047093
8057.322754 5480.737305 5208.196777 0.996173 -0.073635 0.047093
4858.562500 6131.745117 5089.579102 -0.700057 -0.391837 0.596979
4892.004883 6227.900879 5191.909180 -0.700057 -0.391837 0.596979
4784.472656 6328.309570 5131.714844 -0.700057 -0.391837 0.596979
4784.472656 6328.309570 5131.714844 -0.012009 0.504647 0.863242
4892.004883 6227.900879 5191.909180 -0.012009 0.504647 0.863242
4907.292969 6571.281250 4991.383301 -0.012009 0.504647 0.863242
8057.322754 5480.737305 5208.196777 0.758624 0.338585 0.556642
8074.798828 5639.981934 5087.516602 0.758624 0.338585 0.556642
7964.299316 5760.985352 5164.509766 0.758624 0.338585 0.556642
7936.736816 5370.845703 5099.218750 -0.375316 -0.411701 0.830446
8051.591797 5364.786621 5148.123047 -0.375316 -0.411701 0.830446
8057.322754 5480.737305 5208.196777 -0.375316 -0.411701 0.830446
7595.215820 5727.353027 5010.890137 -0.496963 -0.271898 0.824075
7936.736816 5370.845703 5099.218750 -0.496963 -0.271898 0.824075
8057.322754 5480.737305 5208.196777 -0.496963 -0.271898 0.824075
8057.322754 5480.737305 5208.196777 -0.385448 0.015878 0.922593
7964.299316 5760.985352 5164.509766 -0.385448 0.015878 0.922593
7595.215820 5727.353027 5010.890137 -0.385448 0.015878 0.922593
8081.527344 5385.432617 6264.705078 0.603150 -0.058883 -0.795451
7976.354492 5384.355957 6185.037598 0.603150 -0.058883 -0.795451
8101.379883 5589.420898 6264.658203 0.603150 -0.058883 -0.795451
7976.354492 5384.355957 6185.037598 0.516343 0.017630 -0.856201
7983.560059 5720.414062 6196.302734 0.516343 0.017630 -0.856201
8101.379883 5589.420898 6264.658203 0.516343 0.017630 -0.856201
4910.779297 6174.285645 6215.089355 -0.710686 -0.363820 -0.602130
4845.572754 6145.547363 6309.416016 -0.710686 -0.363820 -0.602130
4818.743652 6331.640137 6228.640625 -0.710686 -0.363820 -0.602130
7668.884277 5779.698730 6333.953125 -0.653117 -0.237045 -0.719200
7976.354492 5384.355957 6185.037598 -0.653117 -0.237045 -0.719200
7569.677246 5643.783203 6468.841797 -0.653117 -0.237045 -0.719200
7976.354492 5384.355957 6185.037598 -0.394248 0.039231 -0.918167
7668.884277 5779.698730 6333.953125 -0.394248 0.039231 -0.918167
7983.560059 5720.414062 6196.302734 -0.394248 0.039231 -0.918167
7983.560059 5720.414062 6196.302734 -0.232676 0.579124 -0.781331
7668.884277 5779.698730 6333.953125 -0.232676 0.579124 -0.781331
7772.474121 5946.697266 6426.884277 -0.232676 0.579124 -0.781331
4845.572754 6145.547363 6309.416016 -0.810350 -0.327676 -0.485757
4719.299805 6379.112305 6362.511719 -0.810350 -0.327676 -0.485757
4818.743652 6331.640137 6228.640625 -0.810350 -0.327676 -0.485757
7772.474121 5946.697266 6426.884277 0.739235 0.673257 0.016026
8101.379883 5589.420898 6264.658203 0.739235 0.673257 0.016026
7983.560059 5720.414062 6196.302734 0.739235 0.673257 0.016026
5312.862305 6094.657227 6608.404297 0.679197 -0.134393 -0.721547
4910.779297 6174.285645 6215.089355 0.679197 -0.134393 -0.721547
5238.677734 6250.034180 6509.633789 0.679197 -0.134393 -0.721547
4910.779297 6174.285645 6215.089355 0.563020 0.391966 -0.727579
4818.743652 6331.640137 6228.640625 0.563020 0.391966 -0.727579
5238.677734 6250.034180 6509.633789 0.563020 0.391966 -0.727579
7976.354492 5384.355957 6185.037598 -0.217871 -0.928671 0.300172
8081.527344 5385.432617 6264.705078 -0.217871 -0.928671 0.300172
7835.416016 5504.825195 6455.449219 -0.217871 -0.928671 0.300172
4719.299805 6379.112305 6362.511719 -0.558861 0.558339 -0.613133
4988.959473 6778.636719 6480.541016 -0.558861 0.558339 -0.613133
4818.743652 6331.640137 6228.640625 -0.558861 0.558339 -0.613133
7976.354492 5384.355957 6185.037598 -0.451519 -0.878510 0.156047
7835.416016 5504.825195 6455.449219 -0.451519 -0.878510 0.156047
7569.677246 5643.783203 6468.841797 -0.451519 -0.878510 0.156047
7750.264648 5900.764160 6572.266113 0.572568 -0.116305 0.811566
7835.416016 5504.825195 6455.449219 0.572568 -0.116305 0.811566
8081.527344 5385.432617 6264.705078 0.572568 -0.116305 0.811566
8081.527344 5385.432617 6264.705078 0.626697 -0.060813 0.776887
8101.379883 5589.420898 6264.658203 0.626697 -0.060813 0.776887
7750.264648 5900.764160 6572.266113 0.626697 -0.060813 0.776887
8101.379883 5589.420898 6264.658203 0.765908 0.570165 0.297148
7772.474121 5946.697266 6426.884277 0.765908 0.570165 0.297148
7750.264648 5900.764160 6572.266113 0.765908 0.570165 0.297148
7570.009277 6269.674316 6691.755371 0.566695 0.704977 -0.426455
7772.474121 5946.697266 6426.884277 0.566695 0.704977 -0.426455
7522.365234 6260.332520 6613.000488 0.566695 0.704977 -0.426455
7772.474121 5946.697266 6426.884277 -0.022603 0.496804 -0.867568
7668.884277 5779.698730 6333.953125 -0.022603 0.496804 -0.867568
7522.365234 6260.332520 6613.000488 -0.022603 0.496804 -0.867568
5350.990723 6034.624512 6727.984863 -0.620342 -0.476927 0.622669
4719.299805 6379.112305 6362.511719 -0.620342 -0.476927 0.622669
4845.572754 6145.547363 6309.416016 -0.620342 -0.476927 0.622669
7835.416016 5504.825195 6455.449219 -0.365483 -0.751830 0.548794
7631.443359 5720.719727 6615.376953 -0.365483 -0.751830 0.548794
7569.677246 5643.783203 6468.841797 -0.365483 -0.751830 0.548794
4910.779297 6174.285645 6215.089355 0.057585 -0.965404 -0.254320
5312.862305 6094.657227 6608.404297 0.057585 -0.965404 -0.254320
4845.572754 6145.547363 6309.416016 0.057585 -0.965404 -0.254320
4719.299805 6379.112305 6362.511719 -0.621986 -0.512115 0.592344
5350.990723 6034.624512 6727.984863 -0.621986 -0.512115 0.592344
4810.157715 6528.421875 6587.002930 -0.621986 -0.512115 0.592344
4988.959473 6778.636719 6480.541016 0.393373 0.333108 -0.856911
5302.073242 6782.674316 6625.848145 0.393373 0.333108 -0.856911
4818.743652 6331.640137 6228.640625 0.393373 0.333108 -0.856911
4810.157715 6528.421875 6587.002930 -0.821779 0.568011 -0.045188
4988.959473 6778.636719 6480.541016 -0.821779 0.568011 -0.045188
4719.299805 6379.112305 6362.511719 -0.821779 0.568011 -0.045188
5238.677734 6250.034180 6509.633789 0.567457 0.110490 -0.815956
4818.743652 6331.640137 6228.640625 0.567457 0.110490 -0.815956
5302.073242 6782.674316 6625.848145 0.567457 0.110490 -0.815956
7835.416016 5504.825195 6455.449219 0.516261 -0.138333 0.845185
7750.264648 5900.764160 6572.266113 0.516261 -0.138333 0.845185
7631.443359 5720.719727 6615.376953 0.516261 -0.138333 0.845185
7570.009277 6269.674316 6691.755371 0.899358 0.358276 0.250588
7750.264648 5900.764160 6572.266113 0.899358 0.358276 0.250588
7772.474121 5946.697266 6426.884277 0.899358 0.358276 0.250588
4810.157715 6528.421875 6587.002930 -0.714480 0.635287 0.293136
5075.487793 6787.872070 6671.427246 -0.714480 0.635287 0.293136
4988.959473 6778.636719 6480.541016 -0.714480 0.635287 0.293136
5302.073242 6782.674316 6625.848145 0.012085 0.998479 -0.053786
4988.959473 6778.636719 6480.541016 0.012085 0.998479 -0.053786
5075.487793 6787.872070 6671.427246 0.012085 0.998479 -0.053786
5312.862305 6094.657227 6608.404297 0.224163 -0.840426 -0.493391
5350.990723 6034.624512 6727.984863 0.224163 -0.840426 -0.493391
4845.572754 6145.547363 6309.416016 0.224163 -0.840426 -0.493391
5312.862305 6094.657227 6608.404297 0.819483 0.027364 -0.572450
5238.677734 6250.034180 6509.633789 0.819483 0.027364 -0.572450
5302.073242 6782.674316 6625.848145 0.819483 0.027364 -0.572450
7569.677246 5643.783203 6468.841797 -0.308663 -0.546984 -0.778162
6816.365234 5707.165527 6723.095703 -0.308663 -0.546984 -0.778162
7668.884277 5779.698730 6333.953125 -0.308663 -0.546984 -0.778162
7359.534180 6230.536621 6906.688477 0.553814 -0.170337 0.815031
7631.443359 5720.719727 6615.376953 0.553814 -0.170337 0.815031
7750.264648 5900.764160 6572.266113 0.553814 -0.170337 0.815031
7668.884277 5779.698730 6333.953125 -0.401298 -0.139829 -0.905212
6816.365234 5707.165527 6723.095703 -0.401298 -0.139829 -0.905212
6890.606445 5922.887695 6656.860352 -0.401298 -0.139829 -0.905212
6890.606445 5922.887695 6656.860352 -0.282171 0.415908 -0.864523
7522.365234 6260.332520 6613.000488 -0.282171 0.415908 -0.864523
7668.884277 5779.698730 6333.953125 -0.282171 0.415908 -0.864523
5825.511719 6025.367188 6682.727539 0.147048 0.027374 -0.988751
5312.862305 6094.657227 6608.404297 0.147048 0.027374 -0.988751
5302.073242 6782.674316 6625.848145 0.147048 0.027374 -0.988751
5312.862305 6094.657227 6608.404297 -0.058831 -0.899549 -0.432840
5825.511719 6025.367188 6682.727539 -0.058831 -0.899549 -0.432840
5350.990723 6034.624512 6727.984863 -0.058831 -0.899549 -0.432840
5825.511719 6025.367188 6682.727539 0.345212 0.169270 -0.923134
5302.073242 6782.674316 6625.848145 0.345212 0.169270 -0.923134
5784.659668 6509.311035 6756.188965 0.345212 0.169270 -0.923134
6784.746582 5639.918945 6872.104004 -0.221666 -0.870309 -0.439802
6816.365234 5707.165527 6723.095703 -0.221666 -0.870309 -0.439802
7569.677246 5643.783203 6468.841797 -0.221666 -0.870309 -0.439802
6890.606445 5922.887695 6656.860352 -0.072960 -0.269703 -0.960176
6816.365234 5707.165527 6723.095703 -0.072960 -0.269703 -0.960176
6388.347656 5777.924805 6735.743652 -0.072960 -0.269703 -0.960176
6388.347656 5777.924805 6735.743652 -0.009920 -0.231013 -0.972900
5974.204102 5723.270020 6752.943848 -0.009920 -0.231013 -0.972900
5825.511719 6025.367188 6682.727539 -0.009920 -0.231013 -0.972900
6550.166504 5718.734863 7062.348145 0.363723 -0.612172 0.702104
6784.746582 5639.918945 6872.104004 0.363723 -0.612172 0.702104
7569.677246 5643.783203 6468.841797 0.363723 -0.612172 0.702104
7569.677246 5643.783203 6468.841797 0.167789 -0.900178 0.401903
7631.443359 5720.719727 6615.376953 0.167789 -0.900178 0.401903
6550.166504 5718.734863 7062.348145 0.167789 -0.900178 0.401903
5350.990723 6034.624512 6727.984863 -0.096635 -0.270217 -0.957938
5825.511719 6025.367188 6682.727539 -0.096635 -0.270217 -0.957938
5974.204102 5723.270020 6752.943848 -0.096635 -0.270217 -0.957938
7570.009277 6269.674316 6691.755371 0.699496 0.113240 0.705608
7359.534180 6230.536621 6906.688477 0.699496 0.113240 0.705608
7750.264648 5900.764160 6572.266113 0.699496 0.113240 0.705608
4810.157715 6528.421875 6587.002930 -0.586977 -0.450911 0.672411
5350.990723 6034.624512 6727.984863 -0.586977 -0.450911 0.672411
5937.107422 5740.997070 7042.728516 -0.586977 -0.450911 0.672411
5825.511719 6025.367188 6682.727539 0.162682 0.161488 -0.973373
5784.659668 6509.311035 6756.188965 0.162682 0.161488 -0.973373
6388.347656 5777.924805 6735.743652 0.162682 0.161488 -0.973373
5249.463379 6562.846680 6890.949707 -0.556040 0.318884 0.767550
5075.487793 6787.872070 6671.427246 -0.556040 0.318884 0.767550
4810.157715 6528.421875 6587.002930 -0.556040 0.318884 0.767550
5974.204102 5723.270020 6752.943848 -0.356992 -0.758290 -0.545484
5812.382812 5698.074219 6893.873047 -0.356992 -0.758290 -0.545484
5350.990723 6034.624512 6727.984863 -0.356992 -0.758290 -0.545484
6781.011230 6413.306152 6846.908691 0.100698 0.110756 -0.988733
6388.347656 5777.924805 6735.743652 0.100698 0.110756 -0.988733
5784.659668 6509.311035 6756.188965 0.100698 0.110756 -0.988733
6890.606445 5922.887695 6656.860352 -0.228156 0.307060 -0.923937
6781.011230 6413.306152 6846.908691 -0.228156 0.307060 -0.923937
7522.365234 6260.332520 6613.000488 -0.228156 0.307060 -0.923937
7570.009277 6269.674316 6691.755371 0.154913 0.965725 -0.208270
7522.365234 6260.332520 6613.000488 0.154913 0.965725 -0.208270
7165.312988 6395.601562 6974.648926 0.154913 0.965725 -0.208270
6388.347656 5777.924805 6735.743652 -0.159413 -0.886702 -0.433990
6816.365234 5707.165527 6723.095703 -0.159413 -0.886702 -0.433990
6784.746582 5639.918945 6872.104004 -0.159413 -0.886702 -0.433990
6890.606445 5922.887695 6656.860352 -0.233199 0.305629 -0.923152
6388.347656 5777.924805 6735.743652 -0.233199 0.305629 -0.923152
6781.011230 6413.306152 6846.908691 -0.233199 0.305629 -0.923152
6380.979004 6523.162109 6877.056152 0.131168 0.676504 -0.724664
6781.011230 6413.306152 6846.908691 0.131168 0.676504 -0.724664
5784.659668 6509.311035 6756.188965 0.131168 0.676504 -0.724664
5302.073242 6782.674316 6625.848145 0.525176 0.688942 -0.499549
5850.914551 6575.760254 6917.484863 0.525176 0.688942 -0.499549
5784.659668 6509.311035 6756.188965 0.525176 0.688942 -0.499549
5812.382812 5698.074219 6893.873047 -0.063351 -0.967280 -0.245676
5974.204102 5723.270020 6752.943848 -0.063351 -0.967280 -0.245676
6784.746582 5639.918945 6872.104004 -0.063351 -0.967280 -0.245676
6388.347656 5777.924805 6735.743652 0.050182 -0.625325 -0.778749
6784.746582 5639.918945 6872.104004 0.050182 -0.625325 -0.778749
5974.204102 5723.270020 6752.943848 0.050182 -0.625325 -0.778749
7570.009277 6269.674316 6691.755371 0.602977 0.433850 0.669472
7165.312988 6395.601562 6974.648926 0.602977 0.433850 0.669472
7359.534180 6230.536621 6906.688477 0.602977 0.433850 0.669472
5302.073242 6782.674316 6625.848145 0.092895 0.929951 0.355754
5075.487793 6787.872070 6671.427246 0.092895 0.929951 0.355754
5577.098633 6625.639160 6964.527832 0.092895 0.929951 0.355754
7522.365234 6260.332520 6613.000488 0.123586 0.963298 -0.238292
6781.011230 6413.306152 6846.908691 0.123586 0.963298 -0.238292
7165.312988 6395.601562 6974.648926 0.123586 0.963298 -0.238292
5784.659668 6509.311035 6756.188965 0.060094 0.914005 -0.401228
5850.914551 6575.760254 6917.484863 0.060094 0.914005 -0.401228
6380.979004 6523.162109 6877.056152 0.060094 0.914005 -0.401228
5075.487793 6787.872070 6671.427246 -0.281933 0.549370 0.786579
5249.463379 6562.846680 6890.949707 -0.281933 0.549370 0.786579
5577.098633 6625.639160 6964.527832 -0.281933 0.549370 0.786579
6550.166504 5718.734863 7062.348145 0.363912 -0.308161 0.878979
7631.443359 5720.719727 6615.376953 0.363912 -0.308161 0.878979
7359.534180 6230.536621 6906.688477 0.363912 -0.308161 0.878979
5812.382812 5698.074219 6893.873047 -0.590352 -0.495147 0.637427
5937.107422 5740.997070 7042.728516 -0.590352 -0.495147 0.637427
5350.990723 6034.624512 6727.984863 -0.590352 -0.495147 0.637427
5302.073242 6782.674316 6625.848145 0.216188 0.940900 0.260710
5577.098633 6625.639160 6964.527832 0.216188 0.940900 0.260710
5850.914551 6575.760254 6917.484863 0.216188 0.940900 0.260710
5812.382812 5698.074219 6893.873047 -0.049638 -0.947826 0.314899
6784.746582 5639.918945 6872.104004 -0.049638 -0.947826 0.314899
5937.107422 5740.997070 7042.728516 -0.049638 -0.947826 0.314899
5937.107422 5740.997070 7042.728516 -0.527986 -0.294672 0.796492
5249.463379 6562.846680 6890.949707 -0.527986 -0.294672 0.796492
4810.157715 6528.421875 6587.002930 -0.527986 -0.294672 0.796492
6380.979004 6523.162109 6877.056152 0.198667 0.854932 -0.479189
7165.312988 6395.601562 6974.648926 0.198667 0.854932 -0.479189
6781.011230 6413.306152 6846.908691 0.198667 0.854932 -0.479189
6380.979004 6523.162109 6877.056152 0.116792 0.947020 0.299187
5850.914551 6575.760254 6917.484863 0.116792 0.947020 0.299187
7165.312988 6395.601562 6974.648926 0.116792 0.947020 0.299187
6784.746582 5639.918945 6872.104004 -0.044890 -0.941286 0.334613
6550.166504 5718.734863 7062.348145 -0.044890 -0.941286 0.334613
5937.107422 5740.997070 7042.728516 -0.044890 -0.941286 0.334613
5937.107422 5740.997070 7042.728516 -0.294943 -0.070801 0.952888
6073.163086 6188.117188 7118.062988 -0.294943 -0.070801 0.952888
5249.463379 6562.846680 6890.949707 -0.294943 -0.070801 0.952888
6073.163086 6188.117188 7118.062988 -0.232442 0.076701 0.969581
5577.098633 6625.639160 6964.527832 -0.232442 0.076701 0.969581
5249.463379 6562.846680 6890.949707 -0.232442 0.076701 0.969581
7359.534180 6230.536621 6906.688477 0.269108 -0.135565 0.953521
6691.384766 6289.808594 7103.684082 0.269108 -0.135565 0.953521
6550.166504 5718.734863 7062.348145 0.269108 -0.135565 0.953521
7165.312988 6395.601562 6974.648926 0.276456 -0.069354 0.958521
6691.384766 6289.808594 7103.684082 0.276456 -0.069354 0.958521
7359.534180 6230.536621 6906.688477 0.276456 -0.069354 0.958521
5577.098633 6625.639160 6964.527832 0.237764 0.550424 0.800313
6073.163086 6188.117188 7118.062988 0.237764 0.550424 0.800313
5850.914551 6575.760254 6917.484863 0.237764 0.550424 0.800313
6073.163086 6188.117188 7118.062988 -0.050791 0.435838 0.898591
6691.384766 6289.808594 7103.684082 -0.050791 0.435838 0.898591
5850.914551 6575.760254 6917.484863 -0.050791 0.435838 0.898591
7165.312988 6395.601562 6974.648926 0.057537 0.658007 0.750810
5850.914551 6575.760254 6917.484863 0.057537 0.658007 0.750810
6691.384766 6289.808594 7103.684082 0.057537 0.658007 0.750810
6550.166504 5718.734863 7062.348145 -0.037222 -0.155007 0.987212
6073.163086 6188.117188 7118.062988 -0.037222 -0.155007 0.987212
5937.107422 5740.997070 7042.728516 -0.037222 -0.155007 0.987212
6691.384766 6289.808594 7103.684082 0.036510 -0.081124 0.996035
6073.163086 6188.117188 7118.062988 0.036510 -0.081124 0.996035
6550.166504 5718.734863 7062.348145 0.036510 -0.081124 0.996035
3 0 1 2
3 3 4 5
3 6 7 8
3 9 10 11
3 12 13 14
3 15 16 17
3 18 19 20
3 21 22 23
3 24 25 26
3 27 28 29
3 30 31 32
3 33 34 35
3 36 37 38
3 39 40 41
3 42 43 44
3 45 46 47
3 48 49 50
3 51 52 53
3 54 55 56
3 57 58 59
3 60 61 62
3 63 64 65
3 66 67 68
3 69 70 71
3 72 73 74
3 75 76 77
3 78 79 80
3 81 82 83
3 84 85 86
3 87 88 89
3 90 91 92
3 93 94 95
3 96 97 98
3 99 100 101
3 102 103 104
3 105 106 107
3 108 109 110
3 111 112 113
3 114 115 116
3 117 118 119
3 120 121 122
3 123 124 125
3 126 127 128
3 129 130 131
3 132 133 134
3 135 136 137
3 138 139 140
3 141 142 143
3 144 145 146
3 147 148 149
3 150 151 152
3 153 154 155
3 156 157 158
3 159 160 161
3 162 163 164
3 165 166 167
3 168 169 170
3 171 172 173
3 174 175 176
3 177 178 179
3 180 181 182
3 183 184 185
3 186 187 188
3 189 190 191
3 192 193 194
3 195 196 197
3 198 199 200
3 201 202 203
3 204 205 206
3 207 208 209
3 210 211 212
3 213 214 215
3 216 217 218
3 219 220 221
3 222 223 224
3 225 226 227
3 228 229 230
3 231 232 233
3 234 235 236
3 237 238 239
3 240 241 242
3 243 244 245
3 246 247 248
3 249 250 251
3 252 253 254
3 255 256 257
3 258 259 260
3 261 262 263
3 264 265 266
3 267 268 269
3 270 271 272
3 273 274 275
3 276 277 278
3 279 280 281
3 282 283 284
3 285 286 287
3 288 289 290
3 291 292 293
3 294 295 296
3 297 298 299
3 300 301 302
3 303 304 305
3 306 307 308
3 309 310 311
3 312 313 314
3 315 316 317
3 318 319 320
3 321 322 323
3 324 325 326
3 327 328 329
3 330 331 332
3 333 334 335
3 336 337 338
3 339 340 341
3 342 343 344
3 345 346 347
3 348 349 350
3 351 352 353
3 354 355 356
3 357 358 359
3 360 361 362
3 363 364 365
3 366 367 368
3 369 370 371
3 372 373 374
3 375 376 377
3 378 379 380
3 381 382 383
3 384 385 386
3 387 388 389
3 390 391 392
3 393 394 395
3 396 397 398
3 399 400 401
3 402 403 404
3 405 406 407
3 408 409 410
3 411 412 413
3 414 415 416
3 417 418 419
3 420 421 422
3 423 424 425
3 426 427 428
3 429 430 431
3 432 433 434
3 435 436 437
3 438 439 440
3 441 442 443
3 444 445 446
3 447 448 449
3 450 451 452
3 453 454 455
3 456 457 458
3 459 460 461
3 462 463 464
3 465 466 467
3 468 469 470
3 471 472 473
3 474 475 476
3 477 478 479
