ply
format ascii 1.0
comment Created by Blender 2.80 (sub 75) - www.blender.org, source file: 'downsample_ccf.blend'
element vertex 426
property float x
property float y
property float z
property float nx
property float ny
property float nz
element face 142
property list uchar uint vertex_indices
end_header
7776.464355 4736.401855 4576.800293 0.438398 0.788048 -0.432190
7711.416016 4360.645996 3825.670654 0.438398 0.788048 -0.432190
7406.236816 4613.317871 3976.825439 0.438398 0.788048 -0.432190
8006.604492 4512.585449 4250.399902 0.203444 0.868470 -0.452074
7711.416016 4360.645996 3825.670654 0.203444 0.868470 -0.452074
7776.464355 4736.401855 4576.800293 0.203444 0.868470 -0.452074
7670.209961 4613.041992 4631.818359 -0.553832 -0.802247 0.222866
7406.236816 4613.317871 3976.825439 -0.553832 -0.802247 0.222866
7711.416016 4360.645996 3825.670654 -0.553832 -0.802247 0.222866
7711.416016 4360.645996 3825.670654 0.056958 -0.951937 0.300952
8006.604492 4512.585449 4250.399902 0.056958 -0.951937 0.300952
7670.209961 4613.041992 4631.818359 0.056958 -0.951937 0.300952
8006.604492 4512.585449 4250.399902 -0.176393 0.749370 -0.638224
7776.464355 4736.401855 4576.800293 -0.176393 0.749370 -0.638224
8226.494141 4718.380859 4431.261230 -0.176393 0.749370 -0.638224
7591.706055 4664.833984 4590.793945 -0.620814 -0.743066 0.249885
7406.236816 4613.317871 3976.825439 -0.620814 -0.743066 0.249885
7670.209961 4613.041992 4631.818359 -0.620814 -0.743066 0.249885
7670.209961 4613.041992 4631.818359 0.116581 -0.930280 0.347833
8006.604492 4512.585449 4250.399902 0.116581 -0.930280 0.347833
8327.524414 4658.775391 4533.825195 0.116581 -0.930280 0.347833
7406.236816 4613.317871 3976.825439 -0.359053 0.932829 0.030193
7591.706055 4664.833984 4590.793945 -0.359053 0.932829 0.030193
7776.464355 4736.401855 4576.800293 -0.359053 0.932829 0.030193
8006.604492 4512.585449 4250.399902 0.682295 -0.091585 -0.725317
8226.494141 4718.380859 4431.261230 0.682295 -0.091585 -0.725317
8327.524414 4658.775391 4533.825195 0.682295 -0.091585 -0.725317
8226.494141 4718.380859 4431.261230 0.348873 -0.619179 -0.703495
8681.653320 4854.829590 4536.886230 0.348873 -0.619179 -0.703495
8327.524414 4658.775391 4533.825195 0.348873 -0.619179 -0.703495
8226.494141 4718.380859 4431.261230 0.152585 0.234248 -0.960128
8730.625000 5128.888672 4611.532715 0.152585 0.234248 -0.960128
8681.653320 4854.829590 4536.886230 0.152585 0.234248 -0.960128
8226.494141 4718.380859 4431.261230 -0.182991 0.731834 -0.656455
7776.464355 4736.401855 4576.800293 -0.182991 0.731834 -0.656455
8423.729492 5198.714355 4911.769043 -0.182991 0.731834 -0.656455
8226.494141 4718.380859 4431.261230 -0.388960 0.726460 -0.566539
8423.729492 5198.714355 4911.769043 -0.388960 0.726460 -0.566539
8730.625000 5128.888672 4611.532715 -0.388960 0.726460 -0.566539
8327.524414 4658.775391 4533.825195 0.419444 -0.765257 0.488312
8681.653320 4854.829590 4536.886230 0.419444 -0.765257 0.488312
8417.655273 5038.700195 5051.803711 0.419444 -0.765257 0.488312
7591.706055 4664.833984 4590.793945 -0.125419 0.492207 0.861395
7670.209961 4613.041992 4631.818359 -0.125419 0.492207 0.861395
7776.464355 4736.401855 4576.800293 -0.125419 0.492207 0.861395
8327.524414 4658.775391 4533.825195 0.141233 -0.809828 0.569414
8417.655273 5038.700195 5051.803711 0.141233 -0.809828 0.569414
7670.209961 4613.041992 4631.818359 0.141233 -0.809828 0.569414
8681.653320 4854.829590 4536.886230 0.591496 -0.614074 0.522538
8662.637695 5123.750977 4874.441406 0.591496 -0.614074 0.522538
8417.655273 5038.700195 5051.803711 0.591496 -0.614074 0.522538
8730.625000 5128.888672 4611.532715 0.942474 -0.233551 0.239157
8662.637695 5123.750977 4874.441406 0.942474 -0.233551 0.239157
8681.653320 4854.829590 4536.886230 0.942474 -0.233551 0.239157
8417.655273 5038.700195 5051.803711 -0.459697 -0.066560 0.885578
8470.399414 5211.584961 5092.176758 -0.459697 -0.066560 0.885578
7670.209961 4613.041992 4631.818359 -0.459697 -0.066560 0.885578
8730.625000 5128.888672 4611.532715 -0.691601 0.460859 -0.556145
8799.289062 5772.070801 5059.128418 -0.691601 0.460859 -0.556145
8951.151367 5562.803223 4696.865234 -0.691601 0.460859 -0.556145
7776.464355 4736.401855 4576.800293 -0.670217 0.694268 0.262300
7670.209961 4613.041992 4631.818359 -0.670217 0.694268 0.262300
8470.399414 5211.584961 5092.176758 -0.670217 0.694268 0.262300
7776.464355 4736.401855 4576.800293 -0.612774 0.783568 0.102618
8470.399414 5211.584961 5092.176758 -0.612774 0.783568 0.102618
8423.729492 5198.714355 4911.769043 -0.612774 0.783568 0.102618
8730.625000 5128.888672 4611.532715 0.879082 -0.466258 0.099088
8951.151367 5562.803223 4696.865234 0.879082 -0.466258 0.099088
8966.965820 5716.599609 5280.254395 0.879082 -0.466258 0.099088
8730.625000 5128.888672 4611.532715 -0.533519 0.520754 -0.666463
8423.729492 5198.714355 4911.769043 -0.533519 0.520754 -0.666463
8799.289062 5772.070801 5059.128418 -0.533519 0.520754 -0.666463
8730.625000 5128.888672 4611.532715 0.668618 -0.726473 0.158706
8761.875977 5278.262207 5163.628906 0.668618 -0.726473 0.158706
8662.637695 5123.750977 4874.441406 0.668618 -0.726473 0.158706
8951.151367 5562.803223 4696.865234 0.926269 -0.369846 0.072392
9044.750977 5905.785156 5251.515625 0.926269 -0.369846 0.072392
8966.965820 5716.599609 5280.254395 0.926269 -0.369846 0.072392
8730.625000 5128.888672 4611.532715 0.896661 -0.437522 0.067620
8966.965820 5716.599609 5280.254395 0.896661 -0.437522 0.067620
8761.875977 5278.262207 5163.628906 0.896661 -0.437522 0.067620
8423.729492 5198.714355 4911.769043 -0.830345 0.555437 -0.044918
8750.087891 5711.803711 5223.412598 -0.830345 0.555437 -0.044918
8799.289062 5772.070801 5059.128418 -0.830345 0.555437 -0.044918
9044.750977 5905.785156 5251.515625 -0.059090 0.853465 -0.517790
8951.151367 5562.803223 4696.865234 -0.059090 0.853465 -0.517790
8799.289062 5772.070801 5059.128418 -0.059090 0.853465 -0.517790
8662.637695 5123.750977 4874.441406 0.487197 -0.828674 0.275568
8761.875977 5278.262207 5163.628906 0.487197 -0.828674 0.275568
8417.655273 5038.700195 5051.803711 0.487197 -0.828674 0.275568
8470.399414 5211.584961 5092.176758 -0.876939 0.439025 0.195536
8750.087891 5711.803711 5223.412598 -0.876939 0.439025 0.195536
8423.729492 5198.714355 4911.769043 -0.876939 0.439025 0.195536
9111.843750 6123.923828 5335.998535 0.561015 0.143215 -0.815323
9044.750977 5905.785156 5251.515625 0.561015 0.143215 -0.815323
8799.289062 5772.070801 5059.128418 0.561015 0.143215 -0.815323
8761.875977 5278.262207 5163.628906 -0.199097 -0.164848 0.966015
8470.399414 5211.584961 5092.176758 -0.199097 -0.164848 0.966015
8417.655273 5038.700195 5051.803711 -0.199097 -0.164848 0.966015
8761.875977 5278.262207 5163.628906 -0.199375 -0.163771 0.966141
8966.965820 5716.599609 5280.254395 -0.199375 -0.163771 0.966141
8470.399414 5211.584961 5092.176758 -0.199375 -0.163771 0.966141
9046.046875 6125.291504 5415.336426 -0.489509 0.764656 -0.419144
9111.843750 6123.923828 5335.998535 -0.489509 0.764656 -0.419144
8799.289062 5772.070801 5059.128418 -0.489509 0.764656 -0.419144
8750.087891 5711.803711 5223.412598 -0.807270 0.589633 -0.025463
9046.046875 6125.291504 5415.336426 -0.807270 0.589633 -0.025463
8799.289062 5772.070801 5059.128418 -0.807270 0.589633 -0.025463
8750.087891 5711.803711 5223.412598 -0.249576 -0.112780 0.961765
8470.399414 5211.584961 5092.176758 -0.249576 -0.112780 0.961765
8966.965820 5716.599609 5280.254395 -0.249576 -0.112780 0.961765
9077.978516 5898.311523 5538.364258 -0.142657 -0.779404 0.610065
8750.087891 5711.803711 5223.412598 -0.142657 -0.779404 0.610065
8966.965820 5716.599609 5280.254395 -0.142657 -0.779404 0.610065
8966.965820 5716.599609 5280.254395 0.092054 -0.832423 0.546442
9442.056641 5923.536621 5515.458008 0.092054 -0.832423 0.546442
9077.978516 5898.311523 5538.364258 0.092054 -0.832423 0.546442
8966.965820 5716.599609 5280.254395 0.531452 -0.336595 -0.777343
9044.750977 5905.785156 5251.515625 0.531452 -0.336595 -0.777343
9442.056641 5923.536621 5515.458008 0.531452 -0.336595 -0.777343
9044.750977 5905.785156 5251.515625 0.387148 0.227020 -0.893632
9111.843750 6123.923828 5335.998535 0.387148 0.227020 -0.893632
9430.548828 6298.383789 5518.391113 0.387148 0.227020 -0.893632
10090.553711 6829.189941 5422.743652 0.459006 -0.500540 -0.734012
9743.147461 6318.068848 5554.042480 0.459006 -0.500540 -0.734012
9648.986328 6494.381348 5374.928223 0.459006 -0.500540 -0.734012
10090.553711 6829.189941 5422.743652 -0.383814 0.605737 -0.696972
9648.986328 6494.381348 5374.928223 -0.383814 0.605737 -0.696972
9534.603516 6592.491211 5523.184570 -0.383814 0.605737 -0.696972
9442.056641 5923.536621 5515.458008 0.532512 -0.330170 -0.779371
9044.750977 5905.785156 5251.515625 0.532512 -0.330170 -0.779371
9743.147461 6318.068848 5554.042480 0.532512 -0.330170 -0.779371
9743.147461 6318.068848 5554.042480 0.064835 0.516637 -0.853746
9044.750977 5905.785156 5251.515625 0.064835 0.516637 -0.853746
9430.548828 6298.383789 5518.391113 0.064835 0.516637 -0.853746
10396.224609 6733.838379 5541.876465 0.228425 -0.384969 -0.894215
9743.147461 6318.068848 5554.042480 0.228425 -0.384969 -0.894215
10090.553711 6829.189941 5422.743652 0.228425 -0.384969 -0.894215
9743.147461 6318.068848 5554.042480 0.125502 -0.673245 -0.728691
9430.548828 6298.383789 5518.391113 0.125502 -0.673245 -0.728691
9648.986328 6494.381348 5374.928223 0.125502 -0.673245 -0.728691
10396.224609 6733.838379 5541.876465 0.171942 -0.505328 -0.845623
10090.553711 6829.189941 5422.743652 0.171942 -0.505328 -0.845623
11080.254883 7036.846191 5499.889648 0.171942 -0.505328 -0.845623
8750.087891 5711.803711 5223.412598 -0.739758 0.237224 0.629669
9077.978516 5898.311523 5538.364258 -0.739758 0.237224 0.629669
9046.046875 6125.291504 5415.336426 -0.739758 0.237224 0.629669
9111.843750 6123.923828 5335.998535 -0.328018 0.899846 -0.287545
9046.046875 6125.291504 5415.336426 -0.328018 0.899846 -0.287545
9430.548828 6298.383789 5518.391113 -0.328018 0.899846 -0.287545
10090.553711 6829.189941 5422.743652 -0.419778 0.834695 -0.356470
9534.603516 6592.491211 5523.184570 -0.419778 0.834695 -0.356470
10012.260742 6833.592285 5525.249512 -0.419778 0.834695 -0.356470
10396.224609 6733.838379 5541.876465 0.154741 -0.469756 -0.869129
11080.254883 7036.846191 5499.889648 0.154741 -0.469756 -0.869129
11232.169922 6933.640137 5582.718750 0.154741 -0.469756 -0.869129
10090.553711 6829.189941 5422.743652 -0.187969 0.964595 -0.184995
10012.260742 6833.592285 5525.249512 -0.187969 0.964595 -0.184995
11080.254883 7036.846191 5499.889648 -0.187969 0.964595 -0.184995
9534.603516 6592.491211 5523.184570 -0.678738 0.251383 -0.690015
9648.986328 6494.381348 5374.928223 -0.678738 0.251383 -0.690015
9430.548828 6298.383789 5518.391113 -0.678738 0.251383 -0.690015
11080.254883 7036.846191 5499.889648 0.563530 0.182967 -0.805579
11205.937500 7036.694336 5587.774414 0.563530 0.182967 -0.805579
11232.169922 6933.640137 5582.718750 0.563530 0.182967 -0.805579
9347.688477 6013.651855 5613.168945 0.092928 -0.685584 0.722038
9077.978516 5898.311523 5538.364258 0.092928 -0.685584 0.722038
9442.056641 5923.536621 5515.458008 0.092928 -0.685584 0.722038
11205.937500 7036.694336 5587.774414 -0.260893 0.889709 0.374636
11080.254883 7036.846191 5499.889648 -0.260893 0.889709 0.374636
11050.318359 6951.280762 5682.248047 -0.260893 0.889709 0.374636
10012.260742 6833.592285 5525.249512 -0.178151 0.961944 0.207186
10260.178711 6846.237305 5679.714844 -0.178151 0.961944 0.207186
11080.254883 7036.846191 5499.889648 -0.178151 0.961944 0.207186
9077.978516 5898.311523 5538.364258 -0.398952 0.392946 0.828511
9430.548828 6298.383789 5518.391113 -0.398952 0.392946 0.828511
9046.046875 6125.291504 5415.336426 -0.398952 0.392946 0.828511
10396.224609 6733.838379 5541.876465 0.510607 -0.792270 0.334049
9860.943359 6468.760742 5731.385742 0.510607 -0.792270 0.334049
9743.147461 6318.068848 5554.042480 0.510607 -0.792270 0.334049
9347.688477 6013.651855 5613.168945 -0.397685 0.391885 0.829622
9430.548828 6298.383789 5518.391113 -0.397685 0.391885 0.829622
9077.978516 5898.311523 5538.364258 -0.397685 0.391885 0.829622
9442.056641 5923.536621 5515.458008 0.436174 -0.411151 0.800442
9743.147461 6318.068848 5554.042480 0.436174 -0.411151 0.800442
9347.688477 6013.651855 5613.168945 0.436174 -0.411151 0.800442
9534.603516 6592.491211 5523.184570 -0.930306 0.326414 0.167286
9430.548828 6298.383789 5518.391113 -0.930306 0.326414 0.167286
9347.688477 6013.651855 5613.168945 -0.930306 0.326414 0.167286
9860.943359 6468.760742 5731.385742 -0.728697 -0.200881 0.654712
9802.033203 6542.975586 5688.589355 -0.728697 -0.200881 0.654712
9743.147461 6318.068848 5554.042480 -0.728697 -0.200881 0.654712
10012.260742 6833.592285 5525.249512 -0.320928 0.629748 0.707405
9534.603516 6592.491211 5523.184570 -0.320928 0.629748 0.707405
9802.033203 6542.975586 5688.589355 -0.320928 0.629748 0.707405
10434.400391 6780.887695 5670.302246 0.485013 -0.857807 0.170086
9860.943359 6468.760742 5731.385742 0.485013 -0.857807 0.170086
10396.224609 6733.838379 5541.876465 0.485013 -0.857807 0.170086
11232.169922 6933.640137 5582.718750 0.210131 -0.936529 0.280638
10434.400391 6780.887695 5670.302246 0.210131 -0.936529 0.280638
10396.224609 6733.838379 5541.876465 0.210131 -0.936529 0.280638
11080.254883 7036.846191 5499.889648 -0.121758 0.906098 0.405167
10260.178711 6846.237305 5679.714844 -0.121758 0.906098 0.405167
11050.318359 6951.280762 5682.248047 -0.121758 0.906098 0.405167
9802.033203 6542.975586 5688.589355 -0.466638 0.281051 0.838606
9534.603516 6592.491211 5523.184570 -0.466638 0.281051 0.838606
9347.688477 6013.651855 5613.168945 -0.466638 0.281051 0.838606
9347.688477 6013.651855 5613.168945 0.512659 -0.535650 0.671014
9743.147461 6318.068848 5554.042480 0.512659 -0.535650 0.671014
9802.033203 6542.975586 5688.589355 0.512659 -0.535650 0.671014
10012.260742 6833.592285 5525.249512 -0.422626 0.656749 0.624554
9802.033203 6542.975586 5688.589355 -0.422626 0.656749 0.624554
10260.178711 6846.237305 5679.714844 -0.422626 0.656749 0.624554
10434.400391 6780.887695 5670.302246 0.215129 -0.815313 0.537573
11232.169922 6933.640137 5582.718750 0.215129 -0.815313 0.537573
11050.318359 6951.280762 5682.248047 0.215129 -0.815313 0.537573
11205.937500 7036.694336 5587.774414 0.484550 0.080610 0.871042
11050.318359 6951.280762 5682.248047 0.484550 0.080610 0.871042
11232.169922 6933.640137 5582.718750 0.484550 0.080610 0.871042
11050.318359 6951.280762 5682.248047 -0.118918 0.904384 -0.409814
10260.178711 6846.237305 5679.714844 -0.118918 0.904384 -0.409814
10821.037109 7012.126953 5883.056152 -0.118918 0.904384 -0.409814
9433.581055 5917.419922 5842.240234 0.117692 -0.282636 -0.951980
9314.771484 6163.147949 5754.597168 0.117692 -0.282636 -0.951980
9860.943359 6468.760742 5731.385742 0.117692 -0.282636 -0.951980
9860.943359 6468.760742 5731.385742 0.175910 -0.383243 -0.906741
9314.771484 6163.147949 5754.597168 0.175910 -0.383243 -0.906741
9802.033203 6542.975586 5688.589355 0.175910 -0.383243 -0.906741
9860.943359 6468.760742 5731.385742 0.466125 -0.877879 -0.109798
10434.400391 6780.887695 5670.302246 0.466125 -0.877879 -0.109798
10360.152344 6718.360840 5855.024414 0.466125 -0.877879 -0.109798
10360.152344 6718.360840 5855.024414 0.264383 -0.940787 -0.212181
10434.400391 6780.887695 5670.302246 0.264383 -0.940787 -0.212181
11050.318359 6951.280762 5682.248047 0.264383 -0.940787 -0.212181
9543.470703 6570.537598 5852.655273 -0.447617 0.438822 -0.779149
9802.033203 6542.975586 5688.589355 -0.447617 0.438822 -0.779149
9314.771484 6163.147949 5754.597168 -0.447617 0.438822 -0.779149
10047.530273 6838.609863 5949.440430 -0.290435 0.757295 -0.584937
9802.033203 6542.975586 5688.589355 -0.290435 0.757295 -0.584937
9543.470703 6570.537598 5852.655273 -0.290435 0.757295 -0.584937
9802.033203 6542.975586 5688.589355 -0.514772 0.766437 -0.384166
10047.530273 6838.609863 5949.440430 -0.514772 0.766437 -0.384166
10260.178711 6846.237305 5679.714844 -0.514772 0.766437 -0.384166
11285.349609 6997.111328 5819.349121 -0.010443 0.953607 -0.300873
11050.318359 6951.280762 5682.248047 -0.010443 0.953607 -0.300873
10821.037109 7012.126953 5883.056152 -0.010443 0.953607 -0.300873
9433.581055 5917.419922 5842.240234 0.767857 -0.519946 0.374235
9860.943359 6468.760742 5731.385742 0.767857 -0.519946 0.374235
9662.549805 6279.790039 5875.902832 0.767857 -0.519946 0.374235
10360.152344 6718.360840 5855.024414 0.278954 -0.946579 -0.161784
11050.318359 6951.280762 5682.248047 0.278954 -0.946579 -0.161784
11285.349609 6997.111328 5819.349121 0.278954 -0.946579 -0.161784
10821.037109 7012.126953 5883.056152 -0.228801 0.961343 -0.153199
10260.178711 6846.237305 5679.714844 -0.228801 0.961343 -0.153199
10047.530273 6838.609863 5949.440430 -0.228801 0.961343 -0.153199
9433.581055 5917.419922 5842.240234 -0.190343 -0.410154 -0.891933
8919.449219 5778.009766 6016.065918 -0.190343 -0.410154 -0.891933
9314.771484 6163.147949 5754.597168 -0.190343 -0.410154 -0.891933
9314.771484 6163.147949 5754.597168 -0.564807 0.019660 -0.824989
8919.449219 5778.009766 6016.065918 -0.564807 0.019660 -0.824989
9065.856445 6129.462402 5924.207520 -0.564807 0.019660 -0.824989
9314.771484 6163.147949 5754.597168 -0.781344 0.307972 0.542822
9447.130859 6279.310547 5879.211426 -0.781344 0.307972 0.542822
9543.470703 6570.537598 5852.655273 -0.781344 0.307972 0.542822
9065.856445 6129.462402 5924.207520 -0.376572 0.842445 -0.385331
9447.130859 6279.310547 5879.211426 -0.376572 0.842445 -0.385331
9314.771484 6163.147949 5754.597168 -0.376572 0.842445 -0.385331
9860.943359 6468.760742 5731.385742 0.487130 -0.792328 -0.367316
10360.152344 6718.360840 5855.024414 0.487130 -0.792328 -0.367316
9662.549805 6279.790039 5875.902832 0.487130 -0.792328 -0.367316
9447.130859 6279.310547 5879.211426 -0.871482 0.322022 0.369894
9589.689453 6528.963867 5997.741211 -0.871482 0.322022 0.369894
9543.470703 6570.537598 5852.655273 -0.871482 0.322022 0.369894
10047.530273 6838.609863 5949.440430 -0.490112 0.784078 0.380805
9543.470703 6570.537598 5852.655273 -0.490112 0.784078 0.380805
9589.689453 6528.963867 5997.741211 -0.490112 0.784078 0.380805
9447.130859 6279.310547 5879.211426 -0.340571 0.921944 0.184474
9065.856445 6129.462402 5924.207520 -0.340571 0.921944 0.184474
9127.624023 6128.379395 6043.653809 -0.340571 0.921944 0.184474
10360.152344 6718.360840 5855.024414 0.121499 -0.281446 0.951854
11285.349609 6997.111328 5819.349121 0.121499 -0.281446 0.951854
10821.037109 7012.126953 5883.056152 0.121499 -0.281446 0.951854
8919.449219 5778.009766 6016.065918 0.301118 -0.944216 0.133360
9433.581055 5917.419922 5842.240234 0.301118 -0.944216 0.133360
9057.194336 5833.431152 6097.440918 0.301118 -0.944216 0.133360
9447.130859 6279.310547 5879.211426 0.014792 -0.435726 0.899958
9662.549805 6279.790039 5875.902832 0.014792 -0.435726 0.899958
9589.689453 6528.963867 5997.741211 0.014792 -0.435726 0.899958
9127.624023 6128.379395 6043.653809 0.434146 0.060243 0.898826
9057.194336 5833.431152 6097.440918 0.434146 0.060243 0.898826
9447.130859 6279.310547 5879.211426 0.434146 0.060243 0.898826
9662.549805 6279.790039 5875.902832 0.012904 0.430444 0.902525
9447.130859 6279.310547 5879.211426 0.012904 0.430444 0.902525
9057.194336 5833.431152 6097.440918 0.012904 0.430444 0.902525
10821.037109 7012.126953 5883.056152 0.154064 -0.330558 0.931126
10047.530273 6838.609863 5949.440430 0.154064 -0.330558 0.931126
10360.152344 6718.360840 5855.024414 0.154064 -0.330558 0.931126
9433.581055 5917.419922 5842.240234 0.570929 -0.425949 0.701860
9662.549805 6279.790039 5875.902832 0.570929 -0.425949 0.701860
9057.194336 5833.431152 6097.440918 0.570929 -0.425949 0.701860
8682.878906 5616.405762 6243.494629 -0.731893 0.130063 -0.668892
9065.856445 6129.462402 5924.207520 -0.731893 0.130063 -0.668892
8919.449219 5778.009766 6016.065918 -0.731893 0.130063 -0.668892
9589.689453 6528.963867 5997.741211 0.255304 -0.363441 0.895952
9662.549805 6279.790039 5875.902832 0.255304 -0.363441 0.895952
10360.152344 6718.360840 5855.024414 0.255304 -0.363441 0.895952
10360.152344 6718.360840 5855.024414 0.221283 -0.177611 0.958899
10047.530273 6838.609863 5949.440430 0.221283 -0.177611 0.958899
9589.689453 6528.963867 5997.741211 0.221283 -0.177611 0.958899
9127.624023 6128.379395 6043.653809 0.898433 -0.138547 0.416680
9008.736328 5861.402344 6211.225098 0.898433 -0.138547 0.416680
9057.194336 5833.431152 6097.440918 0.898433 -0.138547 0.416680
9065.856445 6129.462402 5924.207520 -0.560684 0.772953 0.296947
8827.293945 5825.459473 6265.083008 -0.560684 0.772953 0.296947
9127.624023 6128.379395 6043.653809 -0.560684 0.772953 0.296947
8827.293945 5825.459473 6265.083008 -0.818107 0.571632 -0.062756
9065.856445 6129.462402 5924.207520 -0.818107 0.571632 -0.062756
8682.878906 5616.405762 6243.494629 -0.818107 0.571632 -0.062756
8759.424805 5309.585449 6189.935547 -0.105643 -0.314114 -0.943489
8426.760742 5067.128906 6307.904785 -0.105643 -0.314114 -0.943489
8919.449219 5778.009766 6016.065918 -0.105643 -0.314114 -0.943489
8426.760742 5067.128906 6307.904785 -0.758299 0.284819 -0.586396
8682.878906 5616.405762 6243.494629 -0.758299 0.284819 -0.586396
8919.449219 5778.009766 6016.065918 -0.758299 0.284819 -0.586396
8919.449219 5778.009766 6016.065918 0.581470 -0.450179 -0.677666
9057.194336 5833.431152 6097.440918 0.581470 -0.450179 -0.677666
8759.424805 5309.585449 6189.935547 0.581470 -0.450179 -0.677666
9008.736328 5861.402344 6211.225098 0.163976 0.471008 0.866754
9127.624023 6128.379395 6043.653809 0.163976 0.471008 0.866754
8827.293945 5825.459473 6265.083008 0.163976 0.471008 0.866754
9057.194336 5833.431152 6097.440918 0.894161 0.333426 0.298837
9008.736328 5861.402344 6211.225098 0.894161 0.333426 0.298837
8954.546875 5602.343262 6662.411133 0.894161 0.333426 0.298837
8438.724609 5249.907715 6381.413574 -0.758823 0.285162 -0.585551
8682.878906 5616.405762 6243.494629 -0.758823 0.285162 -0.585551
8426.760742 5067.128906 6307.904785 -0.758823 0.285162 -0.585551
8777.606445 5167.037109 6717.407715 0.514696 -0.823048 -0.240168
8426.760742 5067.128906 6307.904785 0.514696 -0.823048 -0.240168
8759.424805 5309.585449 6189.935547 0.514696 -0.823048 -0.240168
8777.606445 5167.037109 6717.407715 0.844254 -0.509342 -0.166750
8759.424805 5309.585449 6189.935547 0.844254 -0.509342 -0.166750
9057.194336 5833.431152 6097.440918 0.844254 -0.509342 -0.166750
9057.194336 5833.431152 6097.440918 0.926952 -0.374876 0.015080
8954.546875 5602.343262 6662.411133 0.926952 -0.374876 0.015080
8777.606445 5167.037109 6717.407715 0.926952 -0.374876 0.015080
8438.724609 5249.907715 6381.413574 -0.824072 0.564903 0.042308
8827.293945 5825.459473 6265.083008 -0.824072 0.564903 0.042308
8682.878906 5616.405762 6243.494629 -0.824072 0.564903 0.042308
9008.736328 5861.402344 6211.225098 -0.024905 0.868236 0.495527
8827.293945 5825.459473 6265.083008 -0.024905 0.868236 0.495527
8954.546875 5602.343262 6662.411133 -0.024905 0.868236 0.495527
8426.760742 5067.128906 6307.904785 -0.621543 0.326981 -0.711876
7946.973633 4816.030273 6611.474121 -0.621543 0.326981 -0.711876
8438.724609 5249.907715 6381.413574 -0.621543 0.326981 -0.711876
8438.724609 5249.907715 6381.413574 -0.656684 0.548057 0.518074
8954.546875 5602.343262 6662.411133 -0.656684 0.548057 0.518074
8827.293945 5825.459473 6265.083008 -0.656684 0.548057 0.518074
7946.973633 4816.030273 6611.474121 -0.634346 0.470842 -0.613117
8426.760742 5067.128906 6307.904785 -0.634346 0.470842 -0.613117
7702.138184 4622.129395 6715.881348 -0.634346 0.470842 -0.613117
8954.546875 5602.343262 6662.411133 -0.657217 0.557499 0.507209
8438.724609 5249.907715 6381.413574 -0.657217 0.557499 0.507209
8529.612305 4947.809570 6831.233398 -0.657217 0.557499 0.507209
8660.379883 4820.548340 6818.417480 0.740457 -0.406542 -0.535208
8426.760742 5067.128906 6307.904785 0.740457 -0.406542 -0.535208
8777.606445 5167.037109 6717.407715 0.740457 -0.406542 -0.535208
7946.973633 4816.030273 6611.474121 -0.702554 0.671805 -0.234724
7781.186523 4723.148438 6841.854980 -0.702554 0.671805 -0.234724
8438.724609 5249.907715 6381.413574 -0.702554 0.671805 -0.234724
7702.138184 4622.129395 6715.881348 -0.580191 0.332162 -0.743672
7576.633789 4683.443359 6841.182129 -0.580191 0.332162 -0.743672
7946.973633 4816.030273 6611.474121 -0.580191 0.332162 -0.743672
7946.973633 4816.030273 6611.474121 -0.185300 0.950396 0.249822
7576.633789 4683.443359 6841.182129 -0.185300 0.950396 0.249822
7781.186523 4723.148438 6841.854980 -0.185300 0.950396 0.249822
8291.101562 4638.473145 6908.308105 0.273969 -0.810923 -0.517053
8426.760742 5067.128906 6307.904785 0.273969 -0.810923 -0.517053
8660.379883 4820.548340 6818.417480 0.273969 -0.810923 -0.517053
8291.101562 4638.473145 6908.308105 0.198902 -0.818300 -0.539281
7702.138184 4622.129395 6715.881348 0.198902 -0.818300 -0.539281
8426.760742 5067.128906 6307.904785 0.198902 -0.818300 -0.539281
7781.186523 4723.148438 6841.854980 -0.227903 0.786373 0.574175
8529.612305 4947.809570 6831.233398 -0.227903 0.786373 0.574175
8438.724609 5249.907715 6381.413574 -0.227903 0.786373 0.574175
8954.546875 5602.343262 6662.411133 0.474948 -0.082361 0.876151
8529.612305 4947.809570 6831.233398 0.474948 -0.082361 0.876151
8777.606445 5167.037109 6717.407715 0.474948 -0.082361 0.876151
7702.138184 4622.129395 6715.881348 0.178213 -0.863326 -0.472131
8291.101562 4638.473145 6908.308105 0.178213 -0.863326 -0.472131
7949.710449 4480.721680 7067.905273 0.178213 -0.863326 -0.472131
8660.379883 4820.548340 6818.417480 0.271314 0.183642 0.944809
8777.606445 5167.037109 6717.407715 0.271314 0.183642 0.944809
8529.612305 4947.809570 6831.233398 0.271314 0.183642 0.944809
8660.379883 4820.548340 6818.417480 0.190045 0.096894 0.976982
8529.612305 4947.809570 6831.233398 0.190045 0.096894 0.976982
8291.101562 4638.473145 6908.308105 0.190045 0.096894 0.976982
7900.477051 4480.234863 7269.458984 -0.237083 0.814817 0.529022
8529.612305 4947.809570 6831.233398 -0.237083 0.814817 0.529022
7781.186523 4723.148438 6841.854980 -0.237083 0.814817 0.529022
7576.633789 4683.443359 6841.182129 -0.190289 0.979123 0.071475
7412.887207 4612.501953 7377.047852 -0.190289 0.979123 0.071475
7781.186523 4723.148438 6841.854980 -0.190289 0.979123 0.071475
7702.138184 4622.129395 6715.881348 -0.133785 -0.948559 -0.286946
7949.710449 4480.721680 7067.905273 -0.133785 -0.948559 -0.286946
7711.159180 4373.375488 7533.980957 -0.133785 -0.948559 -0.286946
8529.612305 4947.809570 6831.233398 0.704630 -0.396712 0.588316
7900.477051 4480.234863 7269.458984 0.704630 -0.396712 0.588316
8291.101562 4638.473145 6908.308105 0.704630 -0.396712 0.588316
7900.477051 4480.234863 7269.458984 0.458819 -0.881701 0.109946
7949.710449 4480.721680 7067.905273 0.458819 -0.881701 0.109946
8291.101562 4638.473145 6908.308105 0.458819 -0.881701 0.109946
7702.138184 4622.129395 6715.881348 -0.637664 -0.713900 -0.289364
7412.887207 4612.501953 7377.047852 -0.637664 -0.713900 -0.289364
7576.633789 4683.443359 6841.182129 -0.637664 -0.713900 -0.289364
7781.186523 4723.148438 6841.854980 0.320995 0.859153 0.398519
7412.887207 4612.501953 7377.047852 0.320995 0.859153 0.398519
7900.477051 4480.234863 7269.458984 0.320995 0.859153 0.398519
7702.138184 4622.129395 6715.881348 -0.526182 -0.815191 -0.242067
7711.159180 4373.375488 7533.980957 -0.526182 -0.815191 -0.242067
7412.887207 4612.501953 7377.047852 -0.526182 -0.815191 -0.242067
7949.710449 4480.721680 7067.905273 0.640634 -0.752107 0.154671
7900.477051 4480.234863 7269.458984 0.640634 -0.752107 0.154671
7711.159180 4373.375488 7533.980957 0.640634 -0.752107 0.154671
7711.159180 4373.375488 7533.980957 0.329452 0.769758 0.546749
7900.477051 4480.234863 7269.458984 0.329452 0.769758 0.546749
7412.887207 4612.501953 7377.047852 0.329452 0.769758 0.546749
3 0 1 2
3 3 4 5
3 6 7 8
3 9 10 11
3 12 13 14
3 15 16 17
3 18 19 20
3 21 22 23
3 24 25 26
3 27 28 29
3 30 31 32
3 33 34 35
3 36 37 38
3 39 40 41
3 42 43 44
3 45 46 47
3 48 49 50
3 51 52 53
3 54 55 56
3 57 58 59
3 60 61 62
3 63 64 65
3 66 67 68
3 69 70 71
3 72 73 74
3 75 76 77
3 78 79 80
3 81 82 83
3 84 85 86
3 87 88 89
3 90 91 92
3 93 94 95
3 96 97 98
3 99 100 101
3 102 103 104
3 105 106 107
3 108 109 110
3 111 112 113
3 114 115 116
3 117 118 119
3 120 121 122
3 123 124 125
3 126 127 128
3 129 130 131
3 132 133 134
3 135 136 137
3 138 139 140
3 141 142 143
3 144 145 146
3 147 148 149
3 150 151 152
3 153 154 155
3 156 157 158
3 159 160 161
3 162 163 164
3 165 166 167
3 168 169 170
3 171 172 173
3 174 175 176
3 177 178 179
3 180 181 182
3 183 184 185
3 186 187 188
3 189 190 191
3 192 193 194
3 195 196 197
3 198 199 200
3 201 202 203
3 204 205 206
3 207 208 209
3 210 211 212
3 213 214 215
3 216 217 218
3 219 220 221
3 222 223 224
3 225 226 227
3 228 229 230
3 231 232 233
3 234 235 236
3 237 238 239
3 240 241 242
3 243 244 245
3 246 247 248
3 249 250 251
3 252 253 254
3 255 256 257
3 258 259 260
3 261 262 263
3 264 265 266
3 267 268 269
3 270 271 272
3 273 274 275
3 276 277 278
3 279 280 281
3 282 283 284
3 285 286 287
3 288 289 290
3 291 292 293
3 294 295 296
3 297 298 299
3 300 301 302
3 303 304 305
3 306 307 308
3 309 310 311
3 312 313 314
3 315 316 317
3 318 319 320
3 321 322 323
3 324 325 326
3 327 328 329
3 330 331 332
3 333 334 335
3 336 337 338
3 339 340 341
3 342 343 344
3 345 346 347
3 348 349 350
3 351 352 353
3 354 355 356
3 357 358 359
3 360 361 362
3 363 364 365
3 366 367 368
3 369 370 371
3 372 373 374
3 375 376 377
3 378 379 380
3 381 382 383
3 384 385 386
3 387 388 389
3 390 391 392
3 393 394 395
3 396 397 398
3 399 400 401
3 402 403 404
3 405 406 407
3 408 409 410
3 411 412 413
3 414 415 416
3 417 418 419
3 420 421 422
3 423 424 425
