ply
format ascii 1.0
comment Created by Blender 2.80 (sub 75) - www.blender.org, source file: 'downsample_ccf.blend'
element vertex 72
property float x
property float y
property float z
property float nx
property float ny
property float nz
element face 24
property list uchar uint vertex_indices
end_header
8096.979980 6386.041016 5246.020020 0.172894 -0.140500 -0.974868
7765.838867 6098.645020 5228.711914 0.172894 -0.140500 -0.974868
7937.327148 6456.045898 5207.616211 0.172894 -0.140500 -0.974868
8096.979980 6386.041016 5246.020020 0.428667 -0.446618 -0.785352
7792.060547 5856.518555 5380.718262 0.428667 -0.446618 -0.785352
7765.838867 6098.645020 5228.711914 0.428667 -0.446618 -0.785352
7913.819824 6469.939453 5482.384766 -0.899458 0.425766 -0.098480
7937.327148 6456.045898 5207.616211 -0.899458 0.425766 -0.098480
7765.838867 6098.645020 5228.711914 -0.899458 0.425766 -0.098480
8096.979980 6386.041016 5246.020020 0.373295 -0.424758 -0.824762
8306.473633 6150.662109 5462.060547 0.373295 -0.424758 -0.824762
7792.060547 5856.518555 5380.718262 0.373295 -0.424758 -0.824762
7792.060547 5856.518555 5380.718262 -0.960402 -0.215147 -0.177029
7751.766113 5969.585938 5461.906738 -0.960402 -0.215147 -0.177029
7765.838867 6098.645020 5228.711914 -0.960402 -0.215147 -0.177029
7765.838867 6098.645020 5228.711914 -0.946877 0.302167 0.110089
7751.766113 5969.585938 5461.906738 -0.946877 0.302167 0.110089
7913.819824 6469.939453 5482.384766 -0.946877 0.302167 0.110089
7937.327148 6456.045898 5207.616211 0.403905 0.914726 -0.011697
7913.819824 6469.939453 5482.384766 0.403905 0.914726 -0.011697
8096.979980 6386.041016 5246.020020 0.403905 0.914726 -0.011697
7913.819824 6469.939453 5482.384766 0.622743 0.752138 0.215592
8306.473633 6150.662109 5462.060547 0.622743 0.752138 0.215592
8096.979980 6386.041016 5246.020020 0.622743 0.752138 0.215592
8306.473633 6150.662109 5462.060547 0.426949 -0.839566 0.335923
8055.729492 6056.516602 5545.453613 0.426949 -0.839566 0.335923
7792.060547 5856.518555 5380.718262 0.426949 -0.839566 0.335923
7751.766113 5969.585938 5461.906738 -0.050623 -0.594356 0.802607
7792.060547 5856.518555 5380.718262 -0.050623 -0.594356 0.802607
8055.729492 6056.516602 5545.453613 -0.050623 -0.594356 0.802607
8055.729492 6056.516602 5545.453613 -0.278179 0.050840 0.959183
7913.819824 6469.939453 5482.384766 -0.278179 0.050840 0.959183
7751.766113 5969.585938 5461.906738 -0.278179 0.050840 0.959183
8306.473633 6150.662109 5462.060547 0.230925 0.223719 0.946902
7913.819824 6469.939453 5482.384766 0.230925 0.223719 0.946902
8055.729492 6056.516602 5545.453613 0.230925 0.223719 0.946902
8153.985840 6053.683594 5846.897461 -0.190187 0.013732 -0.981652
7823.166992 5885.259277 5908.634766 -0.190187 0.013732 -0.981652
7907.157715 6473.976074 5900.597656 -0.190187 0.013732 -0.981652
8297.588867 6160.239746 5910.717773 0.228804 0.254428 -0.939636
8153.985840 6053.683594 5846.897461 0.228804 0.254428 -0.939636
7907.157715 6473.976074 5900.597656 0.228804 0.254428 -0.939636
7823.166992 5885.259277 5908.634766 0.476671 -0.824703 0.304382
8153.985840 6053.683594 5846.897461 0.476671 -0.824703 0.304382
8297.588867 6160.239746 5910.717773 0.476671 -0.824703 0.304382
7823.166992 5885.259277 5908.634766 -0.851899 0.114562 -0.511022
7725.140137 5933.947266 6082.965332 -0.851899 0.114562 -0.511022
7907.157715 6473.976074 5900.597656 -0.851899 0.114562 -0.511022
8297.588867 6160.239746 5910.717773 0.617748 0.762565 -0.192048
7907.157715 6473.976074 5900.597656 0.617748 0.762565 -0.192048
8049.598145 6420.425781 6146.144043 0.617748 0.762565 -0.192048
7823.166992 5885.259277 5908.634766 0.497378 -0.859040 0.121099
8297.588867 6160.239746 5910.717773 0.497378 -0.859040 0.121099
8080.967773 6053.407715 6042.589355 0.497378 -0.859040 0.121099
7823.166992 5885.259277 5908.634766 0.331215 -0.843953 0.421948
8080.967773 6053.407715 6042.589355 0.331215 -0.843953 0.421948
7725.140137 5933.947266 6082.965332 0.331215 -0.843953 0.421948
8080.967773 6053.407715 6042.589355 0.573893 -0.176576 0.799667
8297.588867 6160.239746 5910.717773 0.573893 -0.176576 0.799667
8049.598145 6420.425781 6146.144043 0.573893 -0.176576 0.799667
7907.157715 6473.976074 5900.597656 -0.942330 0.331973 0.042520
7725.140137 5933.947266 6082.965332 -0.942330 0.331973 0.042520
7861.818359 6310.379395 6173.059570 -0.942330 0.331973 0.042520
8049.598145 6420.425781 6146.144043 -0.414384 0.809040 0.416823
7907.157715 6473.976074 5900.597656 -0.414384 0.809040 0.416823
7861.818359 6310.379395 6173.059570 -0.414384 0.809040 0.416823
7725.140137 5933.947266 6082.965332 0.205760 -0.297816 0.932185
8080.967773 6053.407715 6042.589355 0.205760 -0.297816 0.932185
7861.818359 6310.379395 6173.059570 0.205760 -0.297816 0.932185
8080.967773 6053.407715 6042.589355 0.273827 -0.239420 0.931502
8049.598145 6420.425781 6146.144043 0.273827 -0.239420 0.931502
7861.818359 6310.379395 6173.059570 0.273827 -0.239420 0.931502
3 0 1 2
3 3 4 5
3 6 7 8
3 9 10 11
3 12 13 14
3 15 16 17
3 18 19 20
3 21 22 23
3 24 25 26
3 27 28 29
3 30 31 32
3 33 34 35
3 36 37 38
3 39 40 41
3 42 43 44
3 45 46 47
3 48 49 50
3 51 52 53
3 54 55 56
3 57 58 59
3 60 61 62
3 63 64 65
3 66 67 68
3 69 70 71
