ply
format ascii 1.0
comment Created by Blender 2.80 (sub 75) - www.blender.org, source file: 'downsample_ccf.blend'
element vertex 48
property float x
property float y
property float z
property float nx
property float ny
property float nz
element face 16
property list uchar uint vertex_indices
end_header
8519.625000 4806.311523 4393.461426 -0.138474 -0.626923 0.766676
8428.968750 5107.072754 4623.024414 -0.138474 -0.626923 0.766676
8319.476562 5097.843750 4595.701660 -0.138474 -0.626923 0.766676
8519.625000 4806.311523 4393.461426 0.871109 0.435622 -0.226721
8247.740234 5578.957520 4833.387207 0.871109 0.435622 -0.226721
8428.968750 5107.072754 4623.024414 0.871109 0.435622 -0.226721
8319.476562 5097.843750 4595.701660 -0.641895 0.087754 -0.761754
8144.526855 5813.602051 4825.578613 -0.641895 0.087754 -0.761754
8519.625000 4806.311523 4393.461426 -0.641895 0.087754 -0.761754
8247.740234 5578.957520 4833.387207 -0.178883 -0.457094 0.871244
8319.476562 5097.843750 4595.701660 -0.178883 -0.457094 0.871244
8428.968750 5107.072754 4623.024414 -0.178883 -0.457094 0.871244
8519.625000 4806.311523 4393.461426 0.908884 0.395376 -0.132691
8144.526855 5813.602051 4825.578613 0.908884 0.395376 -0.132691
8247.740234 5578.957520 4833.387207 0.908884 0.395376 -0.132691
8319.476562 5097.843750 4595.701660 -0.821513 -0.346285 0.452994
8247.740234 5578.957520 4833.387207 -0.821513 -0.346285 0.452994
8144.526855 5813.602051 4825.578613 -0.821513 -0.346285 0.452994
8171.596191 5573.398438 6606.251465 -0.973903 -0.074854 -0.214268
8145.135742 5858.597656 6626.887695 -0.973903 -0.074854 -0.214268
8183.969238 5744.639160 6490.190430 -0.973903 -0.074854 -0.214268
8145.135742 5858.597656 6626.887695 0.937553 0.347082 -0.023003
8265.515625 5532.635742 6615.018555 0.937553 0.347082 -0.023003
8183.969238 5744.639160 6490.190430 0.937553 0.347082 -0.023003
8343.086914 5184.808594 6699.698730 -0.586904 -0.424768 -0.689287
8171.596191 5573.398438 6606.251465 -0.586904 -0.424768 -0.689287
8183.969238 5744.639160 6490.190430 -0.586904 -0.424768 -0.689287
8343.086914 5184.808594 6699.698730 0.901325 0.098312 -0.421839
8183.969238 5744.639160 6490.190430 0.901325 0.098312 -0.421839
8265.515625 5532.635742 6615.018555 0.901325 0.098312 -0.421839
8265.515625 5532.635742 6615.018555 -0.128452 -0.083421 0.988201
8145.135742 5858.597656 6626.887695 -0.128452 -0.083421 0.988201
8171.596191 5573.398438 6606.251465 -0.128452 -0.083421 0.988201
8343.086914 5184.808594 6699.698730 0.786029 0.024919 -0.617687
8265.515625 5532.635742 6615.018555 0.786029 0.024919 -0.617687
8472.221680 5057.999023 6858.911621 0.786029 0.024919 -0.617687
8472.221680 5057.999023 6858.911621 0.136808 0.499232 0.855600
8265.515625 5532.635742 6615.018555 0.136808 0.499232 0.855600
8171.596191 5573.398438 6606.251465 0.136808 0.499232 0.855600
8343.086914 5184.808594 6699.698730 -0.905562 -0.417592 -0.074656
8501.855469 4790.597656 6978.904785 -0.905562 -0.417592 -0.074656
8171.596191 5573.398438 6606.251465 -0.905562 -0.417592 -0.074656
8472.221680 5057.999023 6858.911621 0.642762 -0.253210 -0.723009
8501.855469 4790.597656 6978.904785 0.642762 -0.253210 -0.723009
8343.086914 5184.808594 6699.698730 0.642762 -0.253210 -0.723009
8472.221680 5057.999023 6858.911621 -0.080139 0.400684 0.912705
8171.596191 5573.398438 6606.251465 -0.080139 0.400684 0.912705
8501.855469 4790.597656 6978.904785 -0.080139 0.400684 0.912705
3 0 1 2
3 3 4 5
3 6 7 8
3 9 10 11
3 12 13 14
3 15 16 17
3 18 19 20
3 21 22 23
3 24 25 26
3 27 28 29
3 30 31 32
3 33 34 35
3 36 37 38
3 39 40 41
3 42 43 44
3 45 46 47
