ply
format ascii 1.0
comment Created by Blender 2.80 (sub 75) - www.blender.org, source file: 'downsample_ccf.blend'
element vertex 96
property float x
property float y
property float z
property float nx
property float ny
property float nz
element face 32
property list uchar uint vertex_indices
end_header
9444.653320 4181.995605 5483.738770 -0.162664 -0.215150 -0.962939
8676.322266 4238.680176 5600.863770 -0.162664 -0.215150 -0.962939
9565.932617 4330.388672 5430.096191 -0.162664 -0.215150 -0.962939
9565.932617 4330.388672 5430.096191 -0.133748 -0.395005 -0.908891
8676.322266 4238.680176 5600.863770 -0.133748 -0.395005 -0.908891
8945.880859 4436.375977 5475.277832 -0.133748 -0.395005 -0.908891
8143.278809 4887.612793 5546.105957 -0.682807 -0.729503 0.039995
7735.373047 5256.201172 5305.212891 -0.682807 -0.729503 0.039995
8210.352539 4825.379395 5556.081055 -0.682807 -0.729503 0.039995
9565.932617 4330.388672 5430.096191 0.113474 0.254437 0.960409
8945.880859 4436.375977 5475.277832 0.113474 0.254437 0.960409
9444.653320 4181.995605 5483.738770 0.113474 0.254437 0.960409
8945.880859 4436.375977 5475.277832 0.355082 0.508440 0.784478
8143.278809 4887.612793 5546.105957 0.355082 0.508440 0.784478
8210.352539 4825.379395 5556.081055 0.355082 0.508440 0.784478
8945.880859 4436.375977 5475.277832 -0.235256 -0.271980 -0.933103
8676.322266 4238.680176 5600.863770 -0.235256 -0.271980 -0.933103
8143.278809 4887.612793 5546.105957 -0.235256 -0.271980 -0.933103
7735.373047 5256.201172 5305.212891 0.666677 0.288688 -0.687169
8143.278809 4887.612793 5546.105957 0.666677 0.288688 -0.687169
8278.888672 4677.301270 5589.317383 0.666677 0.288688 -0.687169
8676.322266 4238.680176 5600.863770 -0.165998 -0.524336 -0.835174
9444.653320 4181.995605 5483.738770 -0.165998 -0.524336 -0.835174
9029.350586 4138.643555 5593.500977 -0.165998 -0.524336 -0.835174
8676.322266 4238.680176 5600.863770 -0.498781 -0.471095 -0.727521
8278.888672 4677.301270 5589.317383 -0.498781 -0.471095 -0.727521
8143.278809 4887.612793 5546.105957 -0.498781 -0.471095 -0.727521
7735.373047 5256.201172 5305.212891 -0.488010 -0.030076 0.872320
8278.888672 4677.301270 5589.317383 -0.488010 -0.030076 0.872320
8210.352539 4825.379395 5556.081055 -0.488010 -0.030076 0.872320
9444.653320 4181.995605 5483.738770 0.193155 0.408398 0.892134
8945.880859 4436.375977 5475.277832 0.193155 0.408398 0.892134
9029.350586 4138.643555 5593.500977 0.193155 0.408398 0.892134
9029.350586 4138.643555 5593.500977 0.299148 0.423416 0.855120
8945.880859 4436.375977 5475.277832 0.299148 0.423416 0.855120
8278.888672 4677.301270 5589.317383 0.299148 0.423416 0.855120
8945.880859 4436.375977 5475.277832 0.273503 0.329424 0.903701
8210.352539 4825.379395 5556.081055 0.273503 0.329424 0.903701
8278.888672 4677.301270 5589.317383 0.273503 0.329424 0.903701
9029.350586 4138.643555 5593.500977 0.038000 0.060688 0.997433
8278.888672 4677.301270 5589.317383 0.038000 0.060688 0.997433
8676.322266 4238.680176 5600.863770 0.038000 0.060688 0.997433
8796.252930 4159.924805 5764.639648 -0.201071 -0.082727 -0.976077
8221.113281 4760.117676 5832.248535 -0.201071 -0.082727 -0.976077
8360.446289 4693.423828 5809.198730 -0.201071 -0.082727 -0.976077
8796.252930 4159.924805 5764.639648 0.205245 0.246764 -0.947091
8360.446289 4693.423828 5809.198730 0.205245 0.246764 -0.947091
9331.167969 4160.908691 5880.817871 0.205245 0.246764 -0.947091
9331.167969 4160.908691 5880.817871 0.483898 0.871707 -0.077264
8360.446289 4693.423828 5809.198730 0.483898 0.871707 -0.077264
8611.931641 4558.229004 5858.938477 0.483898 0.871707 -0.077264
8221.113281 4760.117676 5832.248535 0.664400 0.172888 0.727105
8184.145020 4858.902344 5842.540039 0.664400 0.172888 0.727105
8163.676758 4875.862305 5857.210449 0.664400 0.172888 0.727105
8221.113281 4760.117676 5832.248535 -0.080094 0.172001 -0.981835
8163.676758 4875.862305 5857.210449 -0.080094 0.172001 -0.981835
8360.446289 4693.423828 5809.198730 -0.080094 0.172001 -0.981835
8360.446289 4693.423828 5809.198730 0.471059 0.661601 -0.583427
8163.676758 4875.862305 5857.210449 0.471059 0.661601 -0.583427
8611.931641 4558.229004 5858.938477 0.471059 0.661601 -0.583427
8611.931641 4558.229004 5858.938477 -0.229884 -0.323676 0.917816
8221.113281 4760.117676 5832.248535 -0.229884 -0.323676 0.917816
8796.252930 4159.924805 5764.639648 -0.229884 -0.323676 0.917816
9035.163086 4415.857422 5944.585938 -0.297000 -0.347965 0.889220
8611.931641 4558.229004 5858.938477 -0.297000 -0.347965 0.889220
8796.252930 4159.924805 5764.639648 -0.297000 -0.347965 0.889220
8611.931641 4558.229004 5858.938477 -0.147812 -0.157045 0.976467
8184.145020 4858.902344 5842.540039 -0.147812 -0.157045 0.976467
8221.113281 4760.117676 5832.248535 -0.147812 -0.157045 0.976467
8611.931641 4558.229004 5858.938477 -0.546253 -0.757716 0.357035
8149.613281 4888.360352 5852.224609 -0.546253 -0.757716 0.357035
8184.145020 4858.902344 5842.540039 -0.546253 -0.757716 0.357035
8163.676758 4875.862305 5857.210449 -0.532174 -0.753125 -0.386773
8149.613281 4888.360352 5852.224609 -0.532174 -0.753125 -0.386773
8611.931641 4558.229004 5858.938477 -0.532174 -0.753125 -0.386773
8163.676758 4875.862305 5857.210449 0.721474 0.638077 0.268948
8184.145020 4858.902344 5842.540039 0.721474 0.638077 0.268948
7725.205566 5273.565918 6089.896484 0.721474 0.638077 0.268948
9331.167969 4160.908691 5880.817871 -0.189827 -0.439936 0.877737
9035.163086 4415.857422 5944.585938 -0.189827 -0.439936 0.877737
8796.252930 4159.924805 5764.639648 -0.189827 -0.439936 0.877737
9629.208008 4275.963379 5926.270020 0.100912 0.128344 -0.986582
9331.167969 4160.908691 5880.817871 0.100912 0.128344 -0.986582
8611.931641 4558.229004 5858.938477 0.100912 0.128344 -0.986582
8184.145020 4858.902344 5842.540039 0.616768 0.772568 -0.150782
8149.613281 4888.360352 5852.224609 0.616768 0.772568 -0.150782
7725.205566 5273.565918 6089.896484 0.616768 0.772568 -0.150782
9629.208008 4275.963379 5926.270020 0.222642 0.894742 0.387128
8611.931641 4558.229004 5858.938477 0.222642 0.894742 0.387128
9035.163086 4415.857422 5944.585938 0.222642 0.894742 0.387128
8149.613281 4888.360352 5852.224609 -0.667251 -0.744673 0.015424
8163.676758 4875.862305 5857.210449 -0.667251 -0.744673 0.015424
7725.205566 5273.565918 6089.896484 -0.667251 -0.744673 0.015424
9629.208008 4275.963379 5926.270020 -0.037028 -0.282729 0.958485
9035.163086 4415.857422 5944.585938 -0.037028 -0.282729 0.958485
9331.167969 4160.908691 5880.817871 -0.037028 -0.282729 0.958485
3 0 1 2
3 3 4 5
3 6 7 8
3 9 10 11
3 12 13 14
3 15 16 17
3 18 19 20
3 21 22 23
3 24 25 26
3 27 28 29
3 30 31 32
3 33 34 35
3 36 37 38
3 39 40 41
3 42 43 44
3 45 46 47
3 48 49 50
3 51 52 53
3 54 55 56
3 57 58 59
3 60 61 62
3 63 64 65
3 66 67 68
3 69 70 71
3 72 73 74
3 75 76 77
3 78 79 80
3 81 82 83
3 84 85 86
3 87 88 89
3 90 91 92
3 93 94 95
