ply
format ascii 1.0
comment Created by Blender 2.80 (sub 75) - www.blender.org, source file: 'downsample_ccf.blend'
element vertex 60
property float x
property float y
property float z
property float nx
property float ny
property float nz
element face 20
property list uchar uint vertex_indices
end_header
8710.279297 3629.636719 5383.443848 -0.197245 -0.045576 -0.979294
8309.763672 3735.233398 5459.199707 -0.197245 -0.045576 -0.979294
8099.905762 4195.786621 5480.034668 -0.197245 -0.045576 -0.979294
8710.279297 3629.636719 5383.443848 -0.282712 -0.941801 -0.181892
8692.728516 3599.653076 5565.972168 -0.282712 -0.941801 -0.181892
8309.763672 3735.233398 5459.199707 -0.282712 -0.941801 -0.181892
8710.279297 3629.636719 5383.443848 0.361046 0.521184 -0.773313
8099.905762 4195.786621 5480.034668 0.361046 0.521184 -0.773313
8747.834961 3778.786865 5501.499512 0.361046 0.521184 -0.773313
8692.728516 3599.653076 5565.972168 0.959344 -0.278379 0.046516
8710.279297 3629.636719 5383.443848 0.959344 -0.278379 0.046516
8747.834961 3778.786865 5501.499512 0.959344 -0.278379 0.046516
8304.365234 3878.921387 5672.631348 -0.875694 -0.410524 0.254226
8099.905762 4195.786621 5480.034668 -0.875694 -0.410524 0.254226
8309.763672 3735.233398 5459.199707 -0.875694 -0.410524 0.254226
8304.365234 3878.921387 5672.631348 -0.875139 -0.393753 0.281229
8216.025391 4074.554443 5671.641113 -0.875139 -0.393753 0.281229
8099.905762 4195.786621 5480.034668 -0.875139 -0.393753 0.281229
8309.763672 3735.233398 5459.199707 -0.409638 -0.761503 0.502304
8692.728516 3599.653076 5565.972168 -0.409638 -0.761503 0.502304
8304.365234 3878.921387 5672.631348 -0.409638 -0.761503 0.502304
8304.365234 3878.921387 5672.631348 -0.145393 -0.522956 0.839868
8692.728516 3599.653076 5565.972168 -0.145393 -0.522956 0.839868
8464.969727 3852.260498 5683.833496 -0.145393 -0.522956 0.839868
8692.728516 3599.653076 5565.972168 0.560009 0.122625 0.819361
8747.834961 3778.786865 5501.499512 0.560009 0.122625 0.819361
8464.969727 3852.260498 5683.833496 0.560009 0.122625 0.819361
8747.834961 3778.786865 5501.499512 0.530874 0.625859 0.571379
8216.025391 4074.554443 5671.641113 0.530874 0.625859 0.571379
8464.969727 3852.260498 5683.833496 0.530874 0.625859 0.571379
8747.834961 3778.786865 5501.499512 0.524942 0.826180 0.204605
8099.905762 4195.786621 5480.034668 0.524942 0.826180 0.204605
8216.025391 4074.554443 5671.641113 0.524942 0.826180 0.204605
8792.829102 3692.203857 5853.452637 -0.162200 -0.854751 -0.493044
8310.327148 3733.337402 5940.874512 -0.162200 -0.854751 -0.493044
8464.969727 3852.260498 5683.833496 -0.162200 -0.854751 -0.493044
8464.969727 3852.260498 5683.833496 -0.112225 -0.874391 -0.472065
8310.327148 3733.337402 5940.874512 -0.112225 -0.874391 -0.472065
8304.365234 3878.921387 5672.631348 -0.112225 -0.874391 -0.472065
8792.829102 3692.203857 5853.452637 0.577644 0.617622 -0.533733
8464.969727 3852.260498 5683.833496 0.577644 0.617622 -0.533733
8216.025391 4074.554443 5671.641113 0.577644 0.617622 -0.533733
8310.327148 3733.337402 5940.874512 -0.892692 -0.404113 -0.199484
8216.025391 4074.554443 5671.641113 -0.892692 -0.404113 -0.199484
8304.365234 3878.921387 5672.631348 -0.892692 -0.404113 -0.199484
8216.025391 4074.554443 5671.641113 0.591267 0.744188 -0.310785
8144.759766 4221.908203 5888.903809 0.591267 0.744188 -0.310785
8792.829102 3692.203857 5853.452637 0.591267 0.744188 -0.310785
8792.829102 3692.203857 5853.452637 -0.169123 -0.819223 -0.547969
8721.298828 3613.888428 5992.612305 -0.169123 -0.819223 -0.547969
8310.327148 3733.337402 5940.874512 -0.169123 -0.819223 -0.547969
8310.327148 3733.337402 5940.874512 -0.940753 -0.327967 -0.086145
8144.759766 4221.908203 5888.903809 -0.940753 -0.327967 -0.086145
8216.025391 4074.554443 5671.641113 -0.940753 -0.327967 -0.086145
8144.759766 4221.908203 5888.903809 0.522986 0.599287 0.606086
8721.298828 3613.888428 5992.612305 0.522986 0.599287 0.606086
8792.829102 3692.203857 5853.452637 0.522986 0.599287 0.606086
8721.298828 3613.888428 5992.612305 -0.104513 0.070110 0.992049
8144.759766 4221.908203 5888.903809 -0.104513 0.070110 0.992049
8310.327148 3733.337402 5940.874512 -0.104513 0.070110 0.992049
3 0 1 2
3 3 4 5
3 6 7 8
3 9 10 11
3 12 13 14
3 15 16 17
3 18 19 20
3 21 22 23
3 24 25 26
3 27 28 29
3 30 31 32
3 33 34 35
3 36 37 38
3 39 40 41
3 42 43 44
3 45 46 47
3 48 49 50
3 51 52 53
3 54 55 56
3 57 58 59
