ply
format ascii 1.0
comment Created by Blender 2.80 (sub 75) - www.blender.org, source file: 'downsample_ccf.blend'
element vertex 66
property float x
property float y
property float z
property float nx
property float ny
property float nz
element face 22
property list uchar uint vertex_indices
end_header
6155.214844 7008.125977 3378.099609 -0.363887 0.391412 -0.845212
6068.380371 6771.029785 3305.686523 -0.363887 0.391412 -0.845212
5927.194824 7057.860352 3499.300293 -0.363887 0.391412 -0.845212
6312.321289 6723.354004 3678.437256 0.821678 -0.131560 -0.554561
6068.380371 6771.029785 3305.686523 0.821678 -0.131560 -0.554561
6155.214844 7008.125977 3378.099609 0.821678 -0.131560 -0.554561
6068.380371 6771.029785 3305.686523 -0.754090 -0.560971 -0.341555
5957.055664 6680.767090 3699.718750 -0.754090 -0.560971 -0.341555
5805.406738 6894.355469 3683.733643 -0.754090 -0.560971 -0.341555
5805.406738 6894.355469 3683.733643 -0.824335 -0.023977 -0.565594
5927.194824 7057.860352 3499.300293 -0.824335 -0.023977 -0.565594
6068.380371 6771.029785 3305.686523 -0.824335 -0.023977 -0.565594
5957.055664 6680.767090 3699.718750 0.105322 -0.975395 -0.193682
6068.380371 6771.029785 3305.686523 0.105322 -0.975395 -0.193682
6312.321289 6723.354004 3678.437256 0.105322 -0.975395 -0.193682
6120.465332 6862.839355 3840.434814 0.702067 0.662566 0.260976
6312.321289 6723.354004 3678.437256 0.702067 0.662566 0.260976
6155.214844 7008.125977 3378.099609 0.702067 0.662566 0.260976
5927.194824 7057.860352 3499.300293 0.354653 0.884039 0.304461
6120.465332 6862.839355 3840.434814 0.354653 0.884039 0.304461
6155.214844 7008.125977 3378.099609 0.354653 0.884039 0.304461
6120.465332 6862.839355 3840.434814 -0.204152 0.795546 0.570463
5927.194824 7057.860352 3499.300293 -0.204152 0.795546 0.570463
5805.406738 6894.355469 3683.733643 -0.204152 0.795546 0.570463
5957.055664 6680.767090 3699.718750 0.124432 -0.674265 0.727931
6312.321289 6723.354004 3678.437256 0.124432 -0.674265 0.727931
6120.465332 6862.839355 3840.434814 0.124432 -0.674265 0.727931
5805.406738 6894.355469 3683.733643 -0.450893 -0.256145 0.855035
5957.055664 6680.767090 3699.718750 -0.450893 -0.256145 0.855035
6120.465332 6862.839355 3840.434814 -0.450893 -0.256145 0.855035
6122.224121 6901.227539 7560.211914 0.528978 -0.308479 -0.790584
6343.666504 6818.935059 7740.488281 0.528978 -0.308479 -0.790584
6034.783203 6668.115723 7592.663574 0.528978 -0.308479 -0.790584
6034.783203 6668.115723 7592.663574 -0.350789 0.001218 -0.936454
5843.249023 6958.837891 7664.789062 -0.350789 0.001218 -0.936454
6122.224121 6901.227539 7560.211914 -0.350789 0.001218 -0.936454
5843.249023 6958.837891 7664.789062 -0.833951 -0.483381 -0.266209
6034.783203 6668.115723 7592.663574 -0.833951 -0.483381 -0.266209
5854.914551 6794.118652 7927.340820 -0.833951 -0.483381 -0.266209
6122.224121 6901.227539 7560.211914 0.048393 0.923796 -0.379814
5843.249023 6958.837891 7664.789062 0.048393 0.923796 -0.379814
5992.693848 7063.120605 7937.469727 0.048393 0.923796 -0.379814
6034.783203 6668.115723 7592.663574 0.475946 -0.873370 -0.103439
6343.666504 6818.935059 7740.488281 0.475946 -0.873370 -0.103439
6197.088867 6714.394531 7948.722656 0.475946 -0.873370 -0.103439
5992.693848 7063.120605 7937.469727 0.480875 0.853411 -0.201118
6343.666504 6818.935059 7740.488281 0.480875 0.853411 -0.201118
6122.224121 6901.227539 7560.211914 0.480875 0.853411 -0.201118
5854.914551 6794.118652 7927.340820 -0.852364 0.425102 0.304571
5992.693848 7063.120605 7937.469727 -0.852364 0.425102 0.304571
5843.249023 6958.837891 7664.789062 -0.852364 0.425102 0.304571
6034.783203 6668.115723 7592.663574 -0.234439 -0.944618 0.229643
6197.088867 6714.394531 7948.722656 -0.234439 -0.944618 0.229643
5854.914551 6794.118652 7927.340820 -0.234439 -0.944618 0.229643
6197.088867 6714.394531 7948.722656 0.816297 0.005984 0.577601
6343.666504 6818.935059 7740.488281 0.816297 0.005984 0.577601
6119.270996 6897.165039 8056.805664 0.816297 0.005984 0.577601
6343.666504 6818.935059 7740.488281 0.650491 0.702954 0.287607
5992.693848 7063.120605 7937.469727 0.650491 0.702954 0.287607
6119.270996 6897.165039 8056.805664 0.650491 0.702954 0.287607
5854.914551 6794.118652 7927.340820 -0.497536 0.223269 0.838218
6119.270996 6897.165039 8056.805664 -0.497536 0.223269 0.838218
5992.693848 7063.120605 7937.469727 -0.497536 0.223269 0.838218
6197.088867 6714.394531 7948.722656 -0.180327 -0.556425 0.811094
6119.270996 6897.165039 8056.805664 -0.180327 -0.556425 0.811094
5854.914551 6794.118652 7927.340820 -0.180327 -0.556425 0.811094
3 0 1 2
3 3 4 5
3 6 7 8
3 9 10 11
3 12 13 14
3 15 16 17
3 18 19 20
3 21 22 23
3 24 25 26
3 27 28 29
3 30 31 32
3 33 34 35
3 36 37 38
3 39 40 41
3 42 43 44
3 45 46 47
3 48 49 50
3 51 52 53
3 54 55 56
3 57 58 59
3 60 61 62
3 63 64 65
