ply
format ascii 1.0
comment Created by Blender 2.80 (sub 75) - www.blender.org, source file: 'downsample_ccf.blend'
element vertex 33
property float x
property float y
property float z
property float nx
property float ny
property float nz
element face 11
property list uchar uint vertex_indices
end_header
12770.993164 5904.124512 5308.835449 -0.304254 0.921871 -0.239966
12295.778320 5738.028809 5273.278320 -0.304254 0.921871 -0.239966
12764.457031 5910.508789 5341.648926 -0.304254 0.921871 -0.239966
12379.214844 5902.541504 5440.758789 -0.649155 0.678763 -0.343335
12295.778320 5738.028809 5273.278320 -0.649155 0.678763 -0.343335
12122.579102 5649.303711 5425.344727 -0.649155 0.678763 -0.343335
12379.214844 5902.541504 5440.758789 -0.180572 0.745149 -0.641986
12764.457031 5910.508789 5341.648926 -0.180572 0.745149 -0.641986
12295.778320 5738.028809 5273.278320 -0.180572 0.745149 -0.641986
12295.778320 5738.028809 5273.278320 0.336322 -0.928301 -0.158569
12770.993164 5904.124512 5308.835449 0.336322 -0.928301 -0.158569
12122.579102 5649.303711 5425.344727 0.336322 -0.928301 -0.158569
12770.993164 5904.124512 5308.835449 0.299362 -0.357231 0.884742
12379.214844 5902.541504 5440.758789 0.299362 -0.357231 0.884742
12122.579102 5649.303711 5425.344727 0.299362 -0.357231 0.884742
12379.214844 5902.541504 5440.758789 0.309563 -0.254193 0.916273
12770.993164 5904.124512 5308.835449 0.309563 -0.254193 0.916273
12758.929688 5936.027832 5321.761719 0.309563 -0.254193 0.916273
12764.457031 5910.508789 5341.648926 -0.181546 -0.628642 -0.756208
12379.214844 5902.541504 5440.758789 -0.181546 -0.628642 -0.756208
12758.929688 5936.027832 5321.761719 -0.181546 -0.628642 -0.756208
12698.200195 5911.799316 6066.960449 -0.060589 0.892729 -0.446502
12257.932617 5799.210938 5901.596191 -0.060589 0.892729 -0.446502
12328.309570 5864.072754 6021.729980 -0.060589 0.892729 -0.446502
12698.200195 5911.799316 6066.960449 0.356268 -0.861387 -0.362057
12206.216797 5702.914551 6079.810547 0.356268 -0.861387 -0.362057
12257.932617 5799.210938 5901.596191 0.356268 -0.861387 -0.362057
12206.216797 5702.914551 6079.810547 -0.771630 0.625738 0.114193
12328.309570 5864.072754 6021.729980 -0.771630 0.625738 0.114193
12257.932617 5799.210938 5901.596191 -0.771630 0.625738 0.114193
12698.200195 5911.799316 6066.960449 -0.164889 0.442584 0.881437
12328.309570 5864.072754 6021.729980 -0.164889 0.442584 0.881437
12206.216797 5702.914551 6079.810547 -0.164889 0.442584 0.881437
3 0 1 2
3 3 4 5
3 6 7 8
3 9 10 11
3 12 13 14
3 15 16 17
3 18 19 20
3 21 22 23
3 24 25 26
3 27 28 29
3 30 31 32
