ply
format ascii 1.0
comment Created by Blender 2.80 (sub 75) - www.blender.org, source file: 'downsample_ccf.blend'
element vertex 402
property float x
property float y
property float z
property float nx
property float ny
property float nz
element face 134
property list uchar uint vertex_indices
end_header
7499.957031 4324.536133 2848.739990 -0.095247 0.019456 -0.995264
7384.747559 4863.069824 2870.292969 -0.095247 0.019456 -0.995264
7680.247559 4376.503906 2832.501953 -0.095247 0.019456 -0.995264
7680.247559 4376.503906 2832.501953 0.272947 -0.960978 -0.044966
7931.611328 4441.855957 2961.646240 0.272947 -0.960978 -0.044966
7499.957031 4324.536133 2848.739990 0.272947 -0.960978 -0.044966
7384.747559 4863.069824 2870.292969 -0.608678 -0.098709 -0.787253
7499.957031 4324.536133 2848.739990 -0.608678 -0.098709 -0.787253
7264.452637 4874.626465 2961.852051 -0.608678 -0.098709 -0.787253
7680.247559 4376.503906 2832.501953 0.374591 0.295748 -0.878757
7384.747559 4863.069824 2870.292969 0.374591 0.295748 -0.878757
7931.611328 4441.855957 2961.646240 0.374591 0.295748 -0.878757
7676.718262 5086.367188 3122.877686 0.426034 0.374510 -0.823552
7931.611328 4441.855957 2961.646240 0.426034 0.374510 -0.823552
7384.747559 4863.069824 2870.292969 0.426034 0.374510 -0.823552
7384.747559 4863.069824 2870.292969 -0.607362 -0.033939 -0.793700
7264.452637 4874.626465 2961.852051 -0.607362 -0.033939 -0.793700
7072.657715 5236.924805 3093.126953 -0.607362 -0.033939 -0.793700
7676.718262 5086.367188 3122.877686 0.351169 0.462025 -0.814379
7384.747559 4863.069824 2870.292969 0.351169 0.462025 -0.814379
7287.338379 5196.099121 3017.227783 0.351169 0.462025 -0.814379
7287.338379 5196.099121 3017.227783 -0.259623 0.325247 -0.909291
7384.747559 4863.069824 2870.292969 -0.259623 0.325247 -0.909291
7072.657715 5236.924805 3093.126953 -0.259623 0.325247 -0.909291
7931.611328 4441.855957 2961.646240 0.148491 -0.912705 0.380683
7989.391113 4482.642090 3036.895020 0.148491 -0.912705 0.380683
7499.957031 4324.536133 2848.739990 0.148491 -0.912705 0.380683
7989.391113 4482.642090 3036.895020 0.602676 0.409660 -0.684807
7931.611328 4441.855957 2961.646240 0.602676 0.409660 -0.684807
7676.718262 5086.367188 3122.877686 0.602676 0.409660 -0.684807
7989.391113 4482.642090 3036.895020 -0.213572 -0.399701 0.891418
7453.470703 4942.984375 3114.907227 -0.213572 -0.399701 0.891418
7499.957031 4324.536133 2848.739990 -0.213572 -0.399701 0.891418
7499.957031 4324.536133 2848.739990 -0.498124 -0.374107 0.782251
7453.470703 4942.984375 3114.907227 -0.498124 -0.374107 0.782251
7264.452637 4874.626465 2961.852051 -0.498124 -0.374107 0.782251
6864.251465 5465.256836 3342.219971 -0.847706 -0.287150 -0.446026
7072.657715 5236.924805 3093.126953 -0.847706 -0.287150 -0.446026
7264.452637 4874.626465 2961.852051 -0.847706 -0.287150 -0.446026
7989.391113 4482.642090 3036.895020 0.041511 -0.119773 0.991933
7676.718262 5086.367188 3122.877686 0.041511 -0.119773 0.991933
7453.470703 4942.984375 3114.907227 0.041511 -0.119773 0.991933
7485.713867 5456.533203 3340.614746 0.362778 0.604405 -0.709286
7676.718262 5086.367188 3122.877686 0.362778 0.604405 -0.709286
7287.338379 5196.099121 3017.227783 0.362778 0.604405 -0.709286
7676.718262 5086.367188 3122.877686 0.288234 -0.494368 0.820074
7524.795410 5229.979004 3262.848389 0.288234 -0.494368 0.820074
7453.470703 4942.984375 3114.907227 0.288234 -0.494368 0.820074
7072.657715 5236.924805 3093.126953 -0.178562 0.562222 -0.807479
6759.635254 6075.479492 3746.206299 -0.178562 0.562222 -0.807479
7287.338379 5196.099121 3017.227783 -0.178562 0.562222 -0.807479
7676.718262 5086.367188 3122.877686 0.571504 -0.176497 0.801394
7485.713867 5456.533203 3340.614746 0.571504 -0.176497 0.801394
7524.795410 5229.979004 3262.848389 0.571504 -0.176497 0.801394
7264.452637 4874.626465 2961.852051 -0.280333 -0.698665 0.658241
7453.470703 4942.984375 3114.907227 -0.280333 -0.698665 0.658241
6672.758789 5894.861328 3792.750000 -0.280333 -0.698665 0.658241
6864.251465 5465.256836 3342.219971 -0.450210 0.437967 -0.778136
6759.635254 6075.479492 3746.206299 -0.450210 0.437967 -0.778136
7072.657715 5236.924805 3093.126953 -0.450210 0.437967 -0.778136
6672.758789 5894.861328 3792.750000 0.158421 -0.483225 0.861044
7453.470703 4942.984375 3114.907227 0.158421 -0.483225 0.861044
7524.795410 5229.979004 3262.848389 0.158421 -0.483225 0.861044
6759.635254 6075.479492 3746.206299 0.138318 0.679943 -0.720101
7028.941406 5977.986816 3705.879150 0.138318 0.679943 -0.720101
7287.338379 5196.099121 3017.227783 0.138318 0.679943 -0.720101
7264.452637 4874.626465 2961.852051 -0.642379 -0.672256 0.367996
6672.758789 5894.861328 3792.750000 -0.642379 -0.672256 0.367996
6864.251465 5465.256836 3342.219971 -0.642379 -0.672256 0.367996
7485.713867 5456.533203 3340.614746 0.228650 0.684899 -0.691833
7287.338379 5196.099121 3017.227783 0.228650 0.684899 -0.691833
7028.941406 5977.986816 3705.879150 0.228650 0.684899 -0.691833
7485.713867 5456.533203 3340.614746 0.872026 -0.017475 0.489148
7270.104004 5789.497559 3736.887939 0.872026 -0.017475 0.489148
7524.795410 5229.979004 3262.848389 0.872026 -0.017475 0.489148
6672.758789 5894.861328 3792.750000 -0.045714 -0.657776 0.751825
7524.795410 5229.979004 3262.848389 -0.045714 -0.657776 0.751825
7270.104004 5789.497559 3736.887939 -0.045714 -0.657776 0.751825
6759.635254 6075.479492 3746.206299 -0.396475 0.458555 -0.795320
6864.251465 5465.256836 3342.219971 -0.396475 0.458555 -0.795320
6600.529785 6139.143066 3862.228271 -0.396475 0.458555 -0.795320
7485.713867 5456.533203 3340.614746 0.429071 0.739338 -0.518919
7028.941406 5977.986816 3705.879150 0.429071 0.739338 -0.518919
7102.864746 6078.951660 3910.854492 0.429071 0.739338 -0.518919
6864.251465 5465.256836 3342.219971 -0.955170 -0.229084 -0.187540
6672.758789 5894.861328 3792.750000 -0.955170 -0.229084 -0.187540
6600.529785 6139.143066 3862.228271 -0.955170 -0.229084 -0.187540
7485.713867 5456.533203 3340.614746 0.887125 0.449412 0.105065
7102.864746 6078.951660 3910.854492 0.887125 0.449412 0.105065
7270.104004 5789.497559 3736.887939 0.887125 0.449412 0.105065
6759.635254 6075.479492 3746.206299 0.050896 0.498544 -0.865369
6694.960938 6584.652832 4035.740234 0.050896 0.498544 -0.865369
7028.941406 5977.986816 3705.879150 0.050896 0.498544 -0.865369
6373.029297 6635.719727 4061.358643 -0.570203 0.067096 -0.818759
6759.635254 6075.479492 3746.206299 -0.570203 0.067096 -0.818759
6600.529785 6139.143066 3862.228271 -0.570203 0.067096 -0.818759
7102.864746 6078.951660 3910.854492 0.698342 0.509435 -0.502786
7028.941406 5977.986816 3705.879150 0.698342 0.509435 -0.502786
6987.589844 6341.342285 4016.604736 0.698342 0.509435 -0.502786
7270.104004 5789.497559 3736.887939 -0.029929 -0.595362 0.802900
6449.094727 6326.573730 4104.533691 -0.029929 -0.595362 0.802900
6672.758789 5894.861328 3792.750000 -0.029929 -0.595362 0.802900
6373.029297 6635.719727 4061.358643 0.009419 0.495189 -0.868734
6694.960938 6584.652832 4035.740234 0.009419 0.495189 -0.868734
6759.635254 6075.479492 3746.206299 0.009419 0.495189 -0.868734
6987.589844 6341.342285 4016.604736 0.461740 0.606257 -0.647494
7028.941406 5977.986816 3705.879150 0.461740 0.606257 -0.647494
6694.960938 6584.652832 4035.740234 0.461740 0.606257 -0.647494
6510.140625 6494.511719 4283.518066 -0.141564 -0.697358 0.702603
6449.094727 6326.573730 4104.533691 -0.141564 -0.697358 0.702603
7270.104004 5789.497559 3736.887939 -0.141564 -0.697358 0.702603
6510.140625 6494.511719 4283.518066 0.307930 -0.353067 0.883472
7270.104004 5789.497559 3736.887939 0.307930 -0.353067 0.883472
7102.864746 6078.951660 3910.854492 0.307930 -0.353067 0.883472
6672.758789 5894.861328 3792.750000 -0.883556 -0.133582 -0.448872
6449.094727 6326.573730 4104.533691 -0.883556 -0.133582 -0.448872
6600.529785 6139.143066 3862.228271 -0.883556 -0.133582 -0.448872
6373.029297 6635.719727 4061.358643 -0.896445 -0.269682 -0.351650
6600.529785 6139.143066 3862.228271 -0.896445 -0.269682 -0.351650
6449.094727 6326.573730 4104.533691 -0.896445 -0.269682 -0.351650
6510.140625 6494.511719 4283.518066 0.441503 -0.161732 0.882563
7102.864746 6078.951660 3910.854492 0.441503 -0.161732 0.882563
6987.589844 6341.342285 4016.604736 0.441503 -0.161732 0.882563
6609.782715 6639.166016 4274.366699 0.417016 -0.231651 0.878883
6510.140625 6494.511719 4283.518066 0.417016 -0.231651 0.878883
6987.589844 6341.342285 4016.604736 0.417016 -0.231651 0.878883
6694.960938 6584.652832 4035.740234 0.072726 0.774011 -0.628981
6373.029297 6635.719727 4061.358643 0.072726 0.774011 -0.628981
5998.401855 6878.900391 4317.295410 0.072726 0.774011 -0.628981
6373.029297 6635.719727 4061.358643 -0.672032 -0.262081 -0.692594
6449.094727 6326.573730 4104.533691 -0.672032 -0.262081 -0.692594
6028.469727 6722.358887 4362.904297 -0.672032 -0.262081 -0.692594
6694.960938 6584.652832 4035.740234 0.148364 0.844155 -0.515160
5998.401855 6878.900391 4317.295410 0.148364 0.844155 -0.515160
6331.339355 7007.277832 4623.542969 0.148364 0.844155 -0.515160
6694.960938 6584.652832 4035.740234 0.640487 0.766095 0.053612
6609.782715 6639.166016 4274.366699 0.640487 0.766095 0.053612
6987.589844 6341.342285 4016.604736 0.640487 0.766095 0.053612
5998.401855 6878.900391 4317.295410 -0.667914 -0.323562 -0.670223
6373.029297 6635.719727 4061.358643 -0.667914 -0.323562 -0.670223
6028.469727 6722.358887 4362.904297 -0.667914 -0.323562 -0.670223
6510.140625 6494.511719 4283.518066 0.086990 -0.741121 0.665712
6094.270996 6695.712891 4561.853027 0.086990 -0.741121 0.665712
6449.094727 6326.573730 4104.533691 0.086990 -0.741121 0.665712
6028.469727 6722.358887 4362.904297 -0.643800 -0.757021 0.111543
6449.094727 6326.573730 4104.533691 -0.643800 -0.757021 0.111543
6094.270996 6695.712891 4561.853027 -0.643800 -0.757021 0.111543
6694.960938 6584.652832 4035.740234 0.863935 0.460828 0.203110
6331.339355 7007.277832 4623.542969 0.863935 0.460828 0.203110
6609.782715 6639.166016 4274.366699 0.863935 0.460828 0.203110
5760.838867 6930.729004 4496.561523 -0.613640 -0.327228 -0.718587
5998.401855 6878.900391 4317.295410 -0.613640 -0.327228 -0.718587
6028.469727 6722.358887 4362.904297 -0.613640 -0.327228 -0.718587
5998.401855 6878.900391 4317.295410 -0.317883 0.711296 -0.626904
5760.838867 6930.729004 4496.561523 -0.317883 0.711296 -0.626904
5595.205566 7149.666992 4828.959473 -0.317883 0.711296 -0.626904
6510.140625 6494.511719 4283.518066 0.616840 -0.381337 0.688542
6609.782715 6639.166016 4274.366699 0.616840 -0.381337 0.688542
6166.505859 7071.508789 4910.927734 0.616840 -0.381337 0.688542
5998.401855 6878.900391 4317.295410 0.052747 0.899225 -0.434294
5595.205566 7149.666992 4828.959473 0.052747 0.899225 -0.434294
6331.339355 7007.277832 4623.542969 0.052747 0.899225 -0.434294
5760.838867 6930.729004 4496.561523 -0.664451 -0.715935 -0.214340
6028.469727 6722.358887 4362.904297 -0.664451 -0.715935 -0.214340
5504.536621 7046.285156 4905.116699 -0.664451 -0.715935 -0.214340
6166.505859 7071.508789 4910.927734 0.865118 0.233133 0.444095
6609.782715 6639.166016 4274.366699 0.865118 0.233133 0.444095
6331.339355 7007.277832 4623.542969 0.865118 0.233133 0.444095
5760.838867 6930.729004 4496.561523 -0.780221 0.267892 -0.565233
5504.536621 7046.285156 4905.116699 -0.780221 0.267892 -0.565233
5595.205566 7149.666992 4828.959473 -0.780221 0.267892 -0.565233
6028.469727 6722.358887 4362.904297 -0.490649 -0.870156 0.045736
6094.270996 6695.712891 4561.853027 -0.490649 -0.870156 0.045736
5504.536621 7046.285156 4905.116699 -0.490649 -0.870156 0.045736
5595.205566 7149.666992 4828.959473 0.047622 0.892697 -0.448134
5985.971191 7166.296875 4903.612305 0.047622 0.892697 -0.448134
6331.339355 7007.277832 4623.542969 0.047622 0.892697 -0.448134
5888.799316 6898.490723 4895.355957 -0.114931 -0.878648 0.463430
6094.270996 6695.712891 4561.853027 -0.114931 -0.878648 0.463430
6510.140625 6494.511719 4283.518066 -0.114931 -0.878648 0.463430
5888.799316 6898.490723 4895.355957 -0.331138 -0.882933 0.332830
5504.536621 7046.285156 4905.116699 -0.331138 -0.882933 0.332830
6094.270996 6695.712891 4561.853027 -0.331138 -0.882933 0.332830
6166.505859 7071.508789 4910.927734 0.461681 0.884503 0.067115
6331.339355 7007.277832 4623.542969 0.461681 0.884503 0.067115
5985.971191 7166.296875 4903.612305 0.461681 0.884503 0.067115
6166.505859 7071.508789 4910.927734 0.331106 -0.597200 0.730562
5888.799316 6898.490723 4895.355957 0.331106 -0.597200 0.730562
6510.140625 6494.511719 4283.518066 0.331106 -0.597200 0.730562
5595.205566 7149.666992 4828.959473 -0.650580 0.728538 0.214427
5504.536621 7046.285156 4905.116699 -0.650580 0.728538 0.214427
5595.238770 7111.414062 4959.028320 -0.650580 0.728538 0.214427
5985.971191 7166.296875 4903.612305 -0.094312 0.955088 0.280913
5595.205566 7149.666992 4828.959473 -0.094312 0.955088 0.280913
5595.238770 7111.414062 4959.028320 -0.094312 0.955088 0.280913
5595.238770 7111.414062 4959.028320 0.068504 -0.197957 0.977814
5888.799316 6898.490723 4895.355957 0.068504 -0.197957 0.977814
6166.505859 7071.508789 4910.927734 0.068504 -0.197957 0.977814
5504.536621 7046.285156 4905.116699 -0.164058 -0.483340 0.859923
5888.799316 6898.490723 4895.355957 -0.164058 -0.483340 0.859923
5595.238770 7111.414062 4959.028320 -0.164058 -0.483340 0.859923
6166.505859 7071.508789 4910.927734 0.099175 0.262956 0.959697
5985.971191 7166.296875 4903.612305 0.099175 0.262956 0.959697
5595.238770 7111.414062 4959.028320 0.099175 0.262956 0.959697
6138.225586 7102.085449 6440.652344 -0.026914 0.129499 -0.991214
5961.617676 6958.251953 6426.656250 -0.026914 0.129499 -0.991214
5516.626465 7117.406738 6459.531738 -0.026914 0.129499 -0.991214
5961.617676 6958.251953 6426.656250 -0.092688 -0.053779 -0.994242
5545.160156 7011.393555 6462.605957 -0.092688 -0.053779 -0.994242
5516.626465 7117.406738 6459.531738 -0.092688 -0.053779 -0.994242
6138.225586 7102.085449 6440.652344 -0.011530 0.556190 -0.830975
5516.626465 7117.406738 6459.531738 -0.011530 0.556190 -0.830975
5707.590332 7184.721680 6501.937500 -0.011530 0.556190 -0.830975
5545.160156 7011.393555 6462.605957 -0.152093 -0.844217 -0.513970
5961.617676 6958.251953 6426.656250 -0.152093 -0.844217 -0.513970
6061.761719 6700.713379 6820.040039 -0.152093 -0.844217 -0.513970
5961.617676 6958.251953 6426.656250 0.553057 -0.625529 -0.550310
6138.225586 7102.085449 6440.652344 0.553057 -0.625529 -0.550310
6061.761719 6700.713379 6820.040039 0.553057 -0.625529 -0.550310
6138.225586 7102.085449 6440.652344 0.207612 0.965545 0.156910
5707.590332 7184.721680 6501.937500 0.207612 0.965545 0.156910
6327.293457 7013.981445 6732.637695 0.207612 0.965545 0.156910
5516.626465 7117.406738 6459.531738 -0.384050 0.752124 0.535551
5904.114746 6936.212402 6991.871582 -0.384050 0.752124 0.535551
5707.590332 7184.721680 6501.937500 -0.384050 0.752124 0.535551
5904.114746 6936.212402 6991.871582 0.091967 0.902452 0.420860
6327.293457 7013.981445 6732.637695 0.091967 0.902452 0.420860
5707.590332 7184.721680 6501.937500 0.091967 0.902452 0.420860
6061.761719 6700.713379 6820.040039 0.139522 -0.694114 -0.706215
6138.225586 7102.085449 6440.652344 0.139522 -0.694114 -0.706215
6566.229492 6494.458984 7122.424316 0.139522 -0.694114 -0.706215
5545.160156 7011.393555 6462.605957 -0.895634 -0.230022 0.380695
5712.519043 6952.086914 6820.504883 -0.895634 -0.230022 0.380695
5516.626465 7117.406738 6459.531738 -0.895634 -0.230022 0.380695
5516.626465 7117.406738 6459.531738 -0.443781 0.698885 0.560909
5712.519043 6952.086914 6820.504883 -0.443781 0.698885 0.560909
5904.114746 6936.212402 6991.871582 -0.443781 0.698885 0.560909
6061.761719 6700.713379 6820.040039 -0.578528 -0.804025 0.137295
5712.519043 6952.086914 6820.504883 -0.578528 -0.804025 0.137295
5545.160156 7011.393555 6462.605957 -0.578528 -0.804025 0.137295
6138.225586 7102.085449 6440.652344 0.849458 0.120108 -0.513804
6327.293457 7013.981445 6732.637695 0.849458 0.120108 -0.513804
6606.438477 6652.921387 7109.738281 0.849458 0.120108 -0.513804
6138.225586 7102.085449 6440.652344 0.715616 -0.234264 -0.658038
6606.438477 6652.921387 7109.738281 0.715616 -0.234264 -0.658038
6566.229492 6494.458984 7122.424316 0.715616 -0.234264 -0.658038
6320.823730 6483.166504 7247.673828 -0.583220 -0.810180 -0.058840
5712.519043 6952.086914 6820.504883 -0.583220 -0.810180 -0.058840
6061.761719 6700.713379 6820.040039 -0.583220 -0.810180 -0.058840
6061.761719 6700.713379 6820.040039 0.165748 -0.663814 -0.729300
6566.229492 6494.458984 7122.424316 0.165748 -0.663814 -0.729300
6473.690918 6318.196289 7261.828613 0.165748 -0.663814 -0.729300
6606.438477 6652.921387 7109.738281 0.881554 0.345023 -0.322215
6327.293457 7013.981445 6732.637695 0.881554 0.345023 -0.322215
6731.938965 6571.717773 7366.145996 0.881554 0.345023 -0.322215
6320.823730 6483.166504 7247.673828 -0.662202 -0.201600 0.721697
5904.114746 6936.212402 6991.871582 -0.662202 -0.201600 0.721697
5712.519043 6952.086914 6820.504883 -0.662202 -0.201600 0.721697
5904.114746 6936.212402 6991.871582 0.149530 0.853020 0.499998
6731.938965 6571.717773 7366.145996 0.149530 0.853020 0.499998
6327.293457 7013.981445 6732.637695 0.149530 0.853020 0.499998
6606.438477 6652.921387 7109.738281 0.686208 0.719334 -0.108058
6731.938965 6571.717773 7366.145996 0.686208 0.719334 -0.108058
6967.967285 6343.609375 7346.511230 0.686208 0.719334 -0.108058
6320.823730 6483.166504 7247.673828 -0.733985 -0.671286 0.103153
6061.761719 6700.713379 6820.040039 -0.733985 -0.671286 0.103153
6473.690918 6318.196289 7261.828613 -0.733985 -0.671286 0.103153
6967.967285 6343.609375 7346.511230 0.427032 -0.179310 -0.886280
6566.229492 6494.458984 7122.424316 0.427032 -0.179310 -0.886280
6606.438477 6652.921387 7109.738281 0.427032 -0.179310 -0.886280
6731.938965 6571.717773 7366.145996 0.125276 0.834883 0.535981
5904.114746 6936.212402 6991.871582 0.125276 0.834883 0.535981
6464.869629 6623.756836 7347.508789 0.125276 0.834883 0.535981
5904.114746 6936.212402 6991.871582 -0.738570 -0.674113 0.009243
6320.823730 6483.166504 7247.673828 -0.738570 -0.674113 0.009243
6572.311035 6211.022461 7494.883789 -0.738570 -0.674113 0.009243
6566.229492 6494.458984 7122.424316 0.416220 -0.206837 -0.885426
6967.967285 6343.609375 7346.511230 0.416220 -0.206837 -0.885426
7159.419434 5956.024414 7527.049316 0.416220 -0.206837 -0.885426
6572.311035 6211.022461 7494.883789 -0.444866 0.196216 0.873838
6464.869629 6623.756836 7347.508789 -0.444866 0.196216 0.873838
5904.114746 6936.212402 6991.871582 -0.444866 0.196216 0.873838
6572.311035 6211.022461 7494.883789 -0.733403 -0.679791 -0.002264
6320.823730 6483.166504 7247.673828 -0.733403 -0.679791 -0.002264
6473.690918 6318.196289 7261.828613 -0.733403 -0.679791 -0.002264
7159.419434 5956.024414 7527.049316 0.027753 -0.580808 -0.813567
6725.184570 5857.159668 7582.816406 0.027753 -0.580808 -0.813567
6566.229492 6494.458984 7122.424316 0.027753 -0.580808 -0.813567
6566.229492 6494.458984 7122.424316 -0.070750 -0.595659 -0.800116
6725.184570 5857.159668 7582.816406 -0.070750 -0.595659 -0.800116
6473.690918 6318.196289 7261.828613 -0.070750 -0.595659 -0.800116
6838.242676 6204.648926 7568.883789 0.034906 0.490906 0.870513
6731.938965 6571.717773 7366.145996 0.034906 0.490906 0.870513
6464.869629 6623.756836 7347.508789 0.034906 0.490906 0.870513
6838.242676 6204.648926 7568.883789 -0.252460 0.266429 0.930204
6464.869629 6623.756836 7347.508789 -0.252460 0.266429 0.930204
6572.311035 6211.022461 7494.883789 -0.252460 0.266429 0.930204
6572.311035 6211.022461 7494.883789 -0.932843 -0.118607 0.340200
6473.690918 6318.196289 7261.828613 -0.932843 -0.118607 0.340200
6857.052734 5454.083984 8011.757812 -0.932843 -0.118607 0.340200
7304.359375 5789.389648 7694.258301 0.811903 0.136674 -0.567568
7159.419434 5956.024414 7527.049316 0.811903 0.136674 -0.567568
6967.967285 6343.609375 7346.511230 0.811903 0.136674 -0.567568
6967.967285 6343.609375 7346.511230 0.555973 0.519419 0.648920
6731.938965 6571.717773 7366.145996 0.555973 0.519419 0.648920
6838.242676 6204.648926 7568.883789 0.555973 0.519419 0.648920
6725.184570 5857.159668 7582.816406 0.061005 -0.680065 -0.730610
7159.419434 5956.024414 7527.049316 0.061005 -0.680065 -0.730610
7304.359375 5789.389648 7694.258301 0.061005 -0.680065 -0.730610
6725.184570 5857.159668 7582.816406 -0.663555 -0.636117 -0.393763
6857.052734 5454.083984 8011.757812 -0.663555 -0.636117 -0.393763
6473.690918 6318.196289 7261.828613 -0.663555 -0.636117 -0.393763
7304.359375 5789.389648 7694.258301 0.405903 0.649680 0.642774
6967.967285 6343.609375 7346.511230 0.405903 0.649680 0.642774
6838.242676 6204.648926 7568.883789 0.405903 0.649680 0.642774
7304.359375 5789.389648 7694.258301 0.087031 -0.583716 -0.807280
7508.539551 5287.763184 8078.979004 0.087031 -0.583716 -0.807280
6725.184570 5857.159668 7582.816406 0.087031 -0.583716 -0.807280
6932.951660 5383.870605 8140.161133 -0.851191 0.037295 0.523530
6572.311035 6211.022461 7494.883789 -0.851191 0.037295 0.523530
6857.052734 5454.083984 8011.757812 -0.851191 0.037295 0.523530
6838.242676 6204.648926 7568.883789 -0.213322 0.541416 0.813241
6572.311035 6211.022461 7494.883789 -0.213322 0.541416 0.813241
6932.951660 5383.870605 8140.161133 -0.213322 0.541416 0.813241
7304.359375 5789.389648 7694.258301 0.225589 0.787640 0.573353
6945.922852 5710.216309 7944.051270 0.225589 0.787640 0.573353
7476.481934 5429.833496 8120.473633 0.225589 0.787640 0.573353
7304.359375 5789.389648 7694.258301 0.356218 0.612814 0.705385
6838.242676 6204.648926 7568.883789 0.356218 0.612814 0.705385
6945.922852 5710.216309 7944.051270 0.356218 0.612814 0.705385
6932.951660 5383.870605 8140.161133 -0.461159 0.470434 0.752346
6945.922852 5710.216309 7944.051270 -0.461159 0.470434 0.752346
6838.242676 6204.648926 7568.883789 -0.461159 0.470434 0.752346
7476.481934 5429.833496 8120.473633 0.951160 0.262209 -0.162916
7508.539551 5287.763184 8078.979004 0.951160 0.262209 -0.162916
7304.359375 5789.389648 7694.258301 0.951160 0.262209 -0.162916
7508.539551 5287.763184 8078.979004 -0.121283 -0.741693 -0.659683
6857.052734 5454.083984 8011.757812 -0.121283 -0.741693 -0.659683
6725.184570 5857.159668 7582.816406 -0.121283 -0.741693 -0.659683
7689.148438 5059.964844 8259.302734 0.136924 -0.545808 -0.826647
7338.264648 4876.156250 8322.545898 0.136924 -0.545808 -0.826647
7508.539551 5287.763184 8078.979004 0.136924 -0.545808 -0.826647
7508.539551 5287.763184 8078.979004 -0.037542 -0.497356 -0.866734
7338.264648 4876.156250 8322.545898 -0.037542 -0.497356 -0.866734
6857.052734 5454.083984 8011.757812 -0.037542 -0.497356 -0.866734
7689.148438 5059.964844 8259.302734 0.840000 0.317956 -0.439663
7508.539551 5287.763184 8078.979004 0.840000 0.317956 -0.439663
7476.481934 5429.833496 8120.473633 0.840000 0.317956 -0.439663
7285.323730 4859.018066 8479.777344 -0.870378 -0.389132 0.301694
6932.951660 5383.870605 8140.161133 -0.870378 -0.389132 0.301694
6857.052734 5454.083984 8011.757812 -0.870378 -0.389132 0.301694
7964.981934 4531.677734 8337.594727 -0.078903 -0.186331 -0.979313
7338.264648 4876.156250 8322.545898 -0.078903 -0.186331 -0.979313
7689.148438 5059.964844 8259.302734 -0.078903 -0.186331 -0.979313
7338.264648 4876.156250 8322.545898 -0.650150 -0.700107 -0.295221
7285.323730 4859.018066 8479.777344 -0.650150 -0.700107 -0.295221
6857.052734 5454.083984 8011.757812 -0.650150 -0.700107 -0.295221
6945.922852 5710.216309 7944.051270 0.082994 0.638489 0.765143
7300.045410 5063.296875 8445.475586 0.082994 0.638489 0.765143
7476.481934 5429.833496 8120.473633 0.082994 0.638489 0.765143
7964.981934 4531.677734 8337.594727 -0.158639 -0.329279 -0.930811
7552.699707 4421.807617 8446.727539 -0.158639 -0.329279 -0.930811
7338.264648 4876.156250 8322.545898 -0.158639 -0.329279 -0.930811
6945.922852 5710.216309 7944.051270 -0.245212 0.506496 0.826640
6932.951660 5383.870605 8140.161133 -0.245212 0.506496 0.826640
7300.045410 5063.296875 8445.475586 -0.245212 0.506496 0.826640
7964.981934 4531.677734 8337.594727 0.053982 -0.750728 -0.658402
7912.089355 4437.838867 8440.255859 0.053982 -0.750728 -0.658402
7498.451172 4333.390625 8525.436523 0.053982 -0.750728 -0.658402
7964.981934 4531.677734 8337.594727 -0.024769 -0.656186 -0.754192
7498.451172 4333.390625 8525.436523 -0.024769 -0.656186 -0.754192
7552.699707 4421.807617 8446.727539 -0.024769 -0.656186 -0.754192
7300.045410 5063.296875 8445.475586 -0.533154 0.177327 0.827226
6932.951660 5383.870605 8140.161133 -0.533154 0.177327 0.827226
7285.323730 4859.018066 8479.777344 -0.533154 0.177327 0.827226
7689.148438 5059.964844 8259.302734 0.375525 0.507104 0.775775
7476.481934 5429.833496 8120.473633 0.375525 0.507104 0.775775
7300.045410 5063.296875 8445.475586 0.375525 0.507104 0.775775
7552.699707 4421.807617 8446.727539 -0.447013 -0.425964 -0.786597
7498.451172 4333.390625 8525.436523 -0.447013 -0.425964 -0.786597
7338.264648 4876.156250 8322.545898 -0.447013 -0.425964 -0.786597
7964.981934 4531.677734 8337.594727 0.597925 0.413919 0.686409
7689.148438 5059.964844 8259.302734 0.597925 0.413919 0.686409
7912.089355 4437.838867 8440.255859 0.597925 0.413919 0.686409
7338.264648 4876.156250 8322.545898 -0.863712 -0.379063 -0.332135
7498.451172 4333.390625 8525.436523 -0.863712 -0.379063 -0.332135
7285.323730 4859.018066 8479.777344 -0.863712 -0.379063 -0.332135
7912.089355 4437.838867 8440.255859 0.346780 0.374405 0.859979
7689.148438 5059.964844 8259.302734 0.346780 0.374405 0.859979
7616.501465 4409.908203 8571.609375 0.346780 0.374405 0.859979
7300.045410 5063.296875 8445.475586 0.405388 0.358663 0.840846
7616.501465 4409.908203 8571.609375 0.405388 0.358663 0.840846
7689.148438 5059.964844 8259.302734 0.405388 0.358663 0.840846
7912.089355 4437.838867 8440.255859 0.308436 -0.792935 0.525472
7616.501465 4409.908203 8571.609375 0.308436 -0.792935 0.525472
7498.451172 4333.390625 8525.436523 0.308436 -0.792935 0.525472
7616.501465 4409.908203 8571.609375 -0.044473 0.168550 0.984689
7300.045410 5063.296875 8445.475586 -0.044473 0.168550 0.984689
7285.323730 4859.018066 8479.777344 -0.044473 0.168550 0.984689
7498.451172 4333.390625 8525.436523 -0.333492 -0.053461 0.941236
7616.501465 4409.908203 8571.609375 -0.333492 -0.053461 0.941236
7285.323730 4859.018066 8479.777344 -0.333492 -0.053461 0.941236
3 0 1 2
3 3 4 5
3 6 7 8
3 9 10 11
3 12 13 14
3 15 16 17
3 18 19 20
3 21 22 23
3 24 25 26
3 27 28 29
3 30 31 32
3 33 34 35
3 36 37 38
3 39 40 41
3 42 43 44
3 45 46 47
3 48 49 50
3 51 52 53
3 54 55 56
3 57 58 59
3 60 61 62
3 63 64 65
3 66 67 68
3 69 70 71
3 72 73 74
3 75 76 77
3 78 79 80
3 81 82 83
3 84 85 86
3 87 88 89
3 90 91 92
3 93 94 95
3 96 97 98
3 99 100 101
3 102 103 104
3 105 106 107
3 108 109 110
3 111 112 113
3 114 115 116
3 117 118 119
3 120 121 122
3 123 124 125
3 126 127 128
3 129 130 131
3 132 133 134
3 135 136 137
3 138 139 140
3 141 142 143
3 144 145 146
3 147 148 149
3 150 151 152
3 153 154 155
3 156 157 158
3 159 160 161
3 162 163 164
3 165 166 167
3 168 169 170
3 171 172 173
3 174 175 176
3 177 178 179
3 180 181 182
3 183 184 185
3 186 187 188
3 189 190 191
3 192 193 194
3 195 196 197
3 198 199 200
3 201 202 203
3 204 205 206
3 207 208 209
3 210 211 212
3 213 214 215
3 216 217 218
3 219 220 221
3 222 223 224
3 225 226 227
3 228 229 230
3 231 232 233
3 234 235 236
3 237 238 239
3 240 241 242
3 243 244 245
3 246 247 248
3 249 250 251
3 252 253 254
3 255 256 257
3 258 259 260
3 261 262 263
3 264 265 266
3 267 268 269
3 270 271 272
3 273 274 275
3 276 277 278
3 279 280 281
3 282 283 284
3 285 286 287
3 288 289 290
3 291 292 293
3 294 295 296
3 297 298 299
3 300 301 302
3 303 304 305
3 306 307 308
3 309 310 311
3 312 313 314
3 315 316 317
3 318 319 320
3 321 322 323
3 324 325 326
3 327 328 329
3 330 331 332
3 333 334 335
3 336 337 338
3 339 340 341
3 342 343 344
3 345 346 347
3 348 349 350
3 351 352 353
3 354 355 356
3 357 358 359
3 360 361 362
3 363 364 365
3 366 367 368
3 369 370 371
3 372 373 374
3 375 376 377
3 378 379 380
3 381 382 383
3 384 385 386
3 387 388 389
3 390 391 392
3 393 394 395
3 396 397 398
3 399 400 401
