ply
format ascii 1.0
comment Created by Blender 2.80 (sub 75) - www.blender.org, source file: 'downsample_ccf.blend'
element vertex 6
property float x
property float y
property float z
property float nx
property float ny
property float nz
element face 2
property list uchar uint vertex_indices
end_header
4855.944336 6550.238281 5721.090332 -0.570664 -0.258508 -0.779433
4900.081543 6633.140137 5661.279785 -0.570664 -0.258508 -0.779433
4988.634766 6329.748535 5697.068848 -0.570664 -0.258508 -0.779433
4988.634766 6329.748535 5697.068848 0.570664 0.258508 0.779433
4900.081543 6633.140137 5661.279785 0.570664 0.258508 0.779433
4855.944336 6550.238281 5721.090332 0.570664 0.258508 0.779433
3 0 1 2
3 3 4 5
