ply
format ascii 1.0
comment Created by Blender 2.80 (sub 75) - www.blender.org, source file: 'downsample_ccf.blend'
element vertex 546
property float x
property float y
property float z
property float nx
property float ny
property float nz
element face 182
property list uchar uint vertex_indices
end_header
5374.353027 6455.506836 4311.474609 -0.237807 -0.243553 -0.940282
5551.377930 6789.958984 4180.072754 -0.237807 -0.243553 -0.940282
5793.297363 6619.916016 4162.933594 -0.237807 -0.243553 -0.940282
5671.176758 6453.254883 4308.030273 -0.013746 -0.650816 -0.759111
5374.353027 6455.506836 4311.474609 -0.013746 -0.650816 -0.759111
5793.297363 6619.916016 4162.933594 -0.013746 -0.650816 -0.759111
5551.377930 6789.958984 4180.072754 0.505563 0.760360 -0.407748
5521.090332 6932.031738 4407.454102 0.505563 0.760360 -0.407748
5793.297363 6619.916016 4162.933594 0.505563 0.760360 -0.407748
5287.660645 6452.500977 4445.737793 -0.007903 -0.999591 -0.027481
5374.353027 6455.506836 4311.474609 -0.007903 -0.999591 -0.027481
5671.176758 6453.254883 4308.030273 -0.007903 -0.999591 -0.027481
5743.608398 6710.683105 4544.108398 0.868141 -0.445288 0.219203
5671.176758 6453.254883 4308.030273 0.868141 -0.445288 0.219203
5793.297363 6619.916016 4162.933594 0.868141 -0.445288 0.219203
5793.297363 6619.916016 4162.933594 0.724507 0.685819 -0.068866
5521.090332 6932.031738 4407.454102 0.724507 0.685819 -0.068866
5743.608398 6710.683105 4544.108398 0.724507 0.685819 -0.068866
5374.353027 6455.506836 4311.474609 -0.555755 -0.032219 -0.830721
4813.129395 6796.925293 4673.693359 -0.555755 -0.032219 -0.830721
5551.377930 6789.958984 4180.072754 -0.555755 -0.032219 -0.830721
5551.377930 6789.958984 4180.072754 -0.346929 0.773933 -0.529781
4813.129395 6796.925293 4673.693359 -0.346929 0.773933 -0.529781
5521.090332 6932.031738 4407.454102 -0.346929 0.773933 -0.529781
5521.090332 6932.031738 4407.454102 -0.356914 0.735573 -0.575799
4813.129395 6796.925293 4673.693359 -0.356914 0.735573 -0.575799
4887.777344 6942.893555 4813.894043 -0.356914 0.735573 -0.575799
5743.608398 6710.683105 4544.108398 0.677288 0.731189 0.081511
5521.090332 6932.031738 4407.454102 0.677288 0.731189 0.081511
5580.225098 6849.301270 4658.221191 0.677288 0.731189 0.081511
5521.090332 6932.031738 4407.454102 -0.183613 0.932496 -0.311026
4887.777344 6942.893555 4813.894043 -0.183613 0.932496 -0.311026
5225.133789 6979.362305 4724.074707 -0.183613 0.932496 -0.311026
4776.047852 6565.383789 4930.145508 -0.497072 -0.798817 -0.338838
5374.353027 6455.506836 4311.474609 -0.497072 -0.798817 -0.338838
5287.660645 6452.500977 4445.737793 -0.497072 -0.798817 -0.338838
4951.871094 6562.814941 4934.338379 0.424021 -0.674028 0.604890
5671.176758 6453.254883 4308.030273 0.424021 -0.674028 0.604890
5743.608398 6710.683105 4544.108398 0.424021 -0.674028 0.604890
5225.133789 6979.362305 4724.074707 0.370457 0.904552 0.211061
5580.225098 6849.301270 4658.221191 0.370457 0.904552 0.211061
5521.090332 6932.031738 4407.454102 0.370457 0.904552 0.211061
5671.176758 6453.254883 4308.030273 0.104960 -0.952132 0.287102
4951.871094 6562.814941 4934.338379 0.104960 -0.952132 0.287102
5287.660645 6452.500977 4445.737793 0.104960 -0.952132 0.287102
5055.416992 6717.276367 4959.485840 0.513662 -0.096409 0.852559
5743.608398 6710.683105 4544.108398 0.513662 -0.096409 0.852559
5580.225098 6849.301270 4658.221191 0.513662 -0.096409 0.852559
5374.353027 6455.506836 4311.474609 -0.663503 -0.505081 -0.551958
4776.047852 6565.383789 4930.145508 -0.663503 -0.505081 -0.551958
4813.129395 6796.925293 4673.693359 -0.663503 -0.505081 -0.551958
5055.416992 6717.276367 4959.485840 0.462096 -0.435544 0.772508
4951.871094 6562.814941 4934.338379 0.462096 -0.435544 0.772508
5743.608398 6710.683105 4544.108398 0.462096 -0.435544 0.772508
5287.660645 6452.500977 4445.737793 -0.019240 -0.978026 0.207592
4951.871094 6562.814941 4934.338379 -0.019240 -0.978026 0.207592
4776.047852 6565.383789 4930.145508 -0.019240 -0.978026 0.207592
5055.416992 6717.276367 4959.485840 0.332023 0.502199 0.798472
5580.225098 6849.301270 4658.221191 0.332023 0.502199 0.798472
5225.133789 6979.362305 4724.074707 0.332023 0.502199 0.798472
4813.129395 6796.925293 4673.693359 -0.642437 0.675731 -0.361472
4463.416992 6770.499512 5245.830078 -0.642437 0.675731 -0.361472
4887.777344 6942.893555 4813.894043 -0.642437 0.675731 -0.361472
4463.416992 6770.499512 5245.830078 -0.712052 0.570795 -0.408870
4813.129395 6796.925293 4673.693359 -0.712052 0.570795 -0.408870
4472.242188 6665.926270 5084.473633 -0.712052 0.570795 -0.408870
4776.047852 6565.383789 4930.145508 -0.511189 -0.599862 -0.615509
4472.242188 6665.926270 5084.473633 -0.511189 -0.599862 -0.615509
4813.129395 6796.925293 4673.693359 -0.511189 -0.599862 -0.615509
5463.655762 4188.119629 4874.916016 -0.826932 -0.355199 -0.435909
5525.438477 3598.344482 5238.289062 -0.826932 -0.355199 -0.435909
5397.197754 3519.424805 5545.873047 -0.826932 -0.355199 -0.435909
5463.655762 4188.119629 4874.916016 0.905254 0.357235 -0.229997
5420.278809 4444.743652 5102.779785 0.905254 0.357235 -0.229997
5566.553711 4106.332520 5152.882812 0.905254 0.357235 -0.229997
5225.133789 6979.362305 4724.074707 -0.002314 0.929537 0.368723
4887.777344 6942.893555 4813.894043 -0.002314 0.929537 0.368723
4463.416992 6770.499512 5245.830078 -0.002314 0.929537 0.368723
5397.197754 3519.424805 5545.873047 -0.877352 -0.293617 -0.379528
5222.310547 4055.592285 5535.359375 -0.877352 -0.293617 -0.379528
5463.655762 4188.119629 4874.916016 -0.877352 -0.293617 -0.379528
5566.553711 4106.332520 5152.882812 0.916291 0.375384 -0.139636
5420.278809 4444.743652 5102.779785 0.916291 0.375384 -0.139636
5450.518066 4489.535156 5421.623047 0.916291 0.375384 -0.139636
5463.655762 4188.119629 4874.916016 0.121419 -0.511421 -0.850709
5602.812500 3576.676758 5262.358398 0.121419 -0.511421 -0.850709
5525.438477 3598.344482 5238.289062 0.121419 -0.511421 -0.850709
5463.655762 4188.119629 4874.916016 0.937004 -0.008037 -0.349226
5566.553711 4106.332520 5152.882812 0.937004 -0.008037 -0.349226
5602.812500 3576.676758 5262.358398 0.937004 -0.008037 -0.349226
5055.416992 6717.276367 4959.485840 0.742777 0.111937 0.660116
5225.133789 6979.362305 4724.074707 0.742777 0.111937 0.660116
4493.030762 6521.523438 5625.488770 0.742777 0.111937 0.660116
4951.871094 6562.814941 4934.338379 0.797307 -0.567811 0.204676
5055.416992 6717.276367 4959.485840 0.797307 -0.567811 0.204676
4700.801758 6353.233887 5330.949219 0.797307 -0.567811 0.204676
4766.155762 6551.694824 5296.460449 0.770752 -0.054596 0.634792
5055.416992 6717.276367 4959.485840 0.770752 -0.054596 0.634792
4493.030762 6521.523438 5625.488770 0.770752 -0.054596 0.634792
5420.278809 4444.743652 5102.779785 -0.939766 0.123991 -0.318537
5463.655762 4188.119629 4874.916016 -0.939766 0.123991 -0.318537
5222.310547 4055.592285 5535.359375 -0.939766 0.123991 -0.318537
4776.047852 6565.383789 4930.145508 -0.001749 -0.883688 -0.468074
4951.871094 6562.814941 4934.338379 -0.001749 -0.883688 -0.468074
4700.801758 6353.233887 5330.949219 -0.001749 -0.883688 -0.468074
4499.542480 6175.978027 5394.300781 -0.518394 -0.477495 -0.709413
4472.242188 6665.926270 5084.473633 -0.518394 -0.477495 -0.709413
4776.047852 6565.383789 4930.145508 -0.518394 -0.477495 -0.709413
4776.047852 6565.383789 4930.145508 0.577759 -0.761239 -0.294465
4700.801758 6353.233887 5330.949219 0.577759 -0.761239 -0.294465
4499.542480 6175.978027 5394.300781 0.577759 -0.761239 -0.294465
4472.242188 6665.926270 5084.473633 -0.817310 0.462104 -0.344186
4111.445312 6337.430176 5500.190430 -0.817310 0.462104 -0.344186
4463.416992 6770.499512 5245.830078 -0.817310 0.462104 -0.344186
4493.030762 6521.523438 5625.488770 0.138395 0.833094 0.535539
5225.133789 6979.362305 4724.074707 0.138395 0.833094 0.535539
4463.416992 6770.499512 5245.830078 0.138395 0.833094 0.535539
4766.155762 6551.694824 5296.460449 0.785948 -0.154790 0.598603
4700.801758 6353.233887 5330.949219 0.785948 -0.154790 0.598603
5055.416992 6717.276367 4959.485840 0.785948 -0.154790 0.598603
5602.812500 3576.676758 5262.358398 0.258206 -0.139833 -0.955917
5777.990723 2979.780029 5396.991211 0.258206 -0.139833 -0.955917
5525.438477 3598.344482 5238.289062 0.258206 -0.139833 -0.955917
5885.564941 2580.370605 5288.525879 0.831166 0.342755 -0.437814
5777.990723 2979.780029 5396.991211 0.831166 0.342755 -0.437814
5966.835449 2538.466064 5410.007324 0.831166 0.342755 -0.437814
5777.990723 2979.780029 5396.991211 -0.682519 0.014613 -0.730722
5885.564941 2580.370605 5288.525879 -0.682519 0.014613 -0.730722
5725.441895 2871.186035 5443.901855 -0.682519 0.014613 -0.730722
4499.542480 6175.978027 5394.300781 -0.049590 -0.535784 -0.842898
4187.570801 6063.868164 5483.916992 -0.049590 -0.535784 -0.842898
4472.242188 6665.926270 5084.473633 -0.049590 -0.535784 -0.842898
5725.441895 2871.186035 5443.901855 -0.183175 -0.313816 -0.931647
5525.438477 3598.344482 5238.289062 -0.183175 -0.313816 -0.931647
5777.990723 2979.780029 5396.991211 -0.183175 -0.313816 -0.931647
5222.310547 4055.592285 5535.359375 -0.882996 0.469041 0.017852
5450.518066 4489.535156 5421.623047 -0.882996 0.469041 0.017852
5420.278809 4444.743652 5102.779785 -0.882996 0.469041 0.017852
4499.542480 6175.978027 5394.300781 0.152351 -0.481463 -0.863124
4700.801758 6353.233887 5330.949219 0.152351 -0.481463 -0.863124
4777.948242 6010.356445 5535.828613 0.152351 -0.481463 -0.863124
4187.570801 6063.868164 5483.916992 -0.685790 -0.148454 -0.712498
4111.445312 6337.430176 5500.190430 -0.685790 -0.148454 -0.712498
4472.242188 6665.926270 5084.473633 -0.685790 -0.148454 -0.712498
5131.763672 4773.343262 5521.924316 0.242244 0.087263 -0.966283
5072.287109 4387.028320 5472.126465 0.242244 0.087263 -0.966283
4715.091797 5491.341309 5482.306641 0.242244 0.087263 -0.966283
4715.091797 5491.341309 5482.306641 0.468992 0.034211 -0.882540
4499.542480 6175.978027 5394.300781 0.468992 0.034211 -0.882540
4777.948242 6010.356445 5535.828613 0.468992 0.034211 -0.882540
5525.438477 3598.344482 5238.289062 -0.828800 -0.351144 -0.435647
5725.441895 2871.186035 5443.901855 -0.828800 -0.351144 -0.435647
5397.197754 3519.424805 5545.873047 -0.828800 -0.351144 -0.435647
5602.812500 3576.676758 5262.358398 0.997647 0.068556 0.001256
5566.553711 4106.332520 5152.882812 0.997647 0.068556 0.001256
5603.421875 3552.295654 6109.044434 0.997647 0.068556 0.001256
5566.553711 4106.332520 5152.882812 0.955286 0.092252 0.280925
5450.518066 4489.535156 5421.623047 0.955286 0.092252 0.280925
5384.758789 4387.817383 5678.640137 0.955286 0.092252 0.280925
5072.287109 4387.028320 5472.126465 -0.360090 -0.107930 -0.926653
4737.985352 4136.723633 5631.187012 -0.360090 -0.107930 -0.926653
4715.091797 5491.341309 5482.306641 -0.360090 -0.107930 -0.926653
5131.763672 4773.343262 5521.924316 0.219546 0.073730 -0.972812
4715.091797 5491.341309 5482.306641 0.219546 0.073730 -0.972812
4777.948242 6010.356445 5535.828613 0.219546 0.073730 -0.972812
4715.091797 5491.341309 5482.306641 -0.207849 -0.188811 -0.959765
4187.570801 6063.868164 5483.916992 -0.207849 -0.188811 -0.959765
4499.542480 6175.978027 5394.300781 -0.207849 -0.188811 -0.959765
4724.667480 6168.246582 5586.579102 0.877014 -0.346624 -0.332714
4700.801758 6353.233887 5330.949219 0.877014 -0.346624 -0.332714
4766.155762 6551.694824 5296.460449 0.877014 -0.346624 -0.332714
4171.366699 6384.390625 5668.598145 -0.748883 0.657468 0.083126
4463.416992 6770.499512 5245.830078 -0.748883 0.657468 0.083126
4111.445312 6337.430176 5500.190430 -0.748883 0.657468 0.083126
5203.769531 4235.917480 5547.156250 0.587090 0.112807 -0.801624
5222.310547 4055.592285 5535.359375 0.587090 0.112807 -0.801624
5072.287109 4387.028320 5472.126465 0.587090 0.112807 -0.801624
5450.518066 4489.535156 5421.623047 -0.461981 0.010515 -0.886827
5222.310547 4055.592285 5535.359375 -0.461981 0.010515 -0.886827
5203.769531 4235.917480 5547.156250 -0.461981 0.010515 -0.886827
5072.287109 4387.028320 5472.126465 0.520982 0.029752 -0.853049
5131.763672 4773.343262 5521.924316 0.520982 0.029752 -0.853049
5203.769531 4235.917480 5547.156250 0.520982 0.029752 -0.853049
4715.091797 5491.341309 5482.306641 -0.122908 -0.110472 -0.986250
4737.985352 4136.723633 5631.187012 -0.122908 -0.110472 -0.986250
4187.570801 6063.868164 5483.916992 -0.122908 -0.110472 -0.986250
4777.948242 6010.356445 5535.828613 0.951798 0.283750 0.116476
4700.801758 6353.233887 5330.949219 0.951798 0.283750 0.116476
4724.667480 6168.246582 5586.579102 0.951798 0.283750 0.116476
4171.366699 6384.390625 5668.598145 -0.266696 0.796266 0.542985
4493.030762 6521.523438 5625.488770 -0.266696 0.796266 0.542985
4463.416992 6770.499512 5245.830078 -0.266696 0.796266 0.542985
5885.564941 2580.370605 5288.525879 -0.894480 -0.433033 -0.111305
5715.820312 2801.974121 5790.494629 -0.894480 -0.433033 -0.111305
5725.441895 2871.186035 5443.901855 -0.894480 -0.433033 -0.111305
5222.310547 4055.592285 5535.359375 -0.218767 -0.277501 -0.935486
5025.266602 3802.477295 5656.522461 -0.218767 -0.277501 -0.935486
5072.287109 4387.028320 5472.126465 -0.218767 -0.277501 -0.935486
4111.445312 6337.430176 5500.190430 -0.522136 -0.094878 -0.847569
4187.570801 6063.868164 5483.916992 -0.522136 -0.094878 -0.847569
3966.305908 5485.904297 5684.922852 -0.522136 -0.094878 -0.847569
4766.155762 6551.694824 5296.460449 0.691918 0.386514 0.609801
4493.030762 6521.523438 5625.488770 0.691918 0.386514 0.609801
4724.667480 6168.246582 5586.579102 0.691918 0.386514 0.609801
5222.310547 4055.592285 5535.359375 -0.892609 -0.297789 -0.338483
5397.197754 3519.424805 5545.873047 -0.892609 -0.297789 -0.338483
5216.469727 3949.435059 5644.156738 -0.892609 -0.297789 -0.338483
5025.266602 3802.477295 5656.522461 -0.237551 -0.274794 -0.931696
4737.985352 4136.723633 5631.187012 -0.237551 -0.274794 -0.931696
5072.287109 4387.028320 5472.126465 -0.237551 -0.274794 -0.931696
4737.985352 4136.723633 5631.187012 -0.370312 -0.175473 -0.912183
3966.305908 5485.904297 5684.922852 -0.370312 -0.175473 -0.912183
4187.570801 6063.868164 5483.916992 -0.370312 -0.175473 -0.912183
5777.990723 2979.780029 5396.991211 0.959441 0.253986 -0.122330
5602.812500 3576.676758 5262.358398 0.959441 0.253986 -0.122330
5899.584961 2764.500977 5903.691895 0.959441 0.253986 -0.122330
5222.310547 4055.592285 5535.359375 0.458845 -0.648132 -0.607771
5216.469727 3949.435059 5644.156738 0.458845 -0.648132 -0.607771
5025.266602 3802.477295 5656.522461 0.458845 -0.648132 -0.607771
3969.406250 5973.583984 5701.575684 -0.836859 0.023995 -0.546893
4111.445312 6337.430176 5500.190430 -0.836859 0.023995 -0.546893
3966.305908 5485.904297 5684.922852 -0.836859 0.023995 -0.546893
5966.835449 2538.466064 5410.007324 0.918593 0.391483 -0.054110
5777.990723 2979.780029 5396.991211 0.918593 0.391483 -0.054110
5899.584961 2764.500977 5903.691895 0.918593 0.391483 -0.054110
5384.758789 4387.817383 5678.640137 -0.684637 0.720537 0.109994
5450.518066 4489.535156 5421.623047 -0.684637 0.720537 0.109994
5203.769531 4235.917480 5547.156250 -0.684637 0.720537 0.109994
3966.305908 5485.904297 5684.922852 -0.791527 -0.435653 -0.428592
4737.985352 4136.723633 5631.187012 -0.791527 -0.435653 -0.428592
4447.894531 4589.704590 5706.485352 -0.791527 -0.435653 -0.428592
5131.763672 4773.343262 5521.924316 0.948242 0.273042 -0.162129
4777.948242 6010.356445 5535.828613 0.948242 0.273042 -0.162129
5147.446289 4867.479492 5772.181641 0.948242 0.273042 -0.162129
5566.553711 4106.332520 5152.882812 0.870068 0.491488 0.037712
5384.758789 4387.817383 5678.640137 0.870068 0.491488 0.037712
5525.226562 4125.715820 5853.733398 0.870068 0.491488 0.037712
5715.820312 2801.974121 5790.494629 -0.893535 -0.434890 -0.111649
5397.197754 3519.424805 5545.873047 -0.893535 -0.434890 -0.111649
5725.441895 2871.186035 5443.901855 -0.893535 -0.434890 -0.111649
5025.266602 3802.477295 5656.522461 -0.668207 -0.606931 -0.430271
4929.538574 3847.030273 5742.341797 -0.668207 -0.606931 -0.430271
4737.985352 4136.723633 5631.187012 -0.668207 -0.606931 -0.430271
5203.769531 4235.917480 5547.156250 -0.627172 0.778068 -0.035571
5198.666016 4244.882812 5833.242188 -0.627172 0.778068 -0.035571
5384.758789 4387.817383 5678.640137 -0.627172 0.778068 -0.035571
4749.083984 6071.859863 5854.083984 0.949673 0.312178 0.025802
4777.948242 6010.356445 5535.828613 0.949673 0.312178 0.025802
4724.667480 6168.246582 5586.579102 0.949673 0.312178 0.025802
4536.565430 6513.434570 5761.936035 0.803595 0.551539 -0.223697
4724.667480 6168.246582 5586.579102 0.803595 0.551539 -0.223697
4493.030762 6521.523438 5625.488770 0.803595 0.551539 -0.223697
4737.985352 4136.723633 5631.187012 -0.839284 -0.542764 0.031780
4929.538574 3847.030273 5742.341797 -0.839284 -0.542764 0.031780
4447.894531 4589.704590 5706.485352 -0.839284 -0.542764 0.031780
5203.769531 4235.917480 5547.156250 0.990969 0.133407 0.013497
5131.763672 4773.343262 5521.924316 0.990969 0.133407 0.013497
5198.666016 4244.882812 5833.242188 0.990969 0.133407 0.013497
5131.763672 4773.343262 5521.924316 0.993298 0.072922 -0.089676
5147.446289 4867.479492 5772.181641 0.993298 0.072922 -0.089676
5198.666016 4244.882812 5833.242188 0.993298 0.072922 -0.089676
3966.305908 5485.904297 5684.922852 -0.720467 -0.373091 0.584577
4447.894531 4589.704590 5706.485352 -0.720467 -0.373091 0.584577
4119.926270 5328.095215 5773.536133 -0.720467 -0.373091 0.584577
5147.446289 4867.479492 5772.181641 0.949619 0.312345 0.025765
4777.948242 6010.356445 5535.828613 0.949619 0.312345 0.025765
4749.083984 6071.859863 5854.083984 0.949619 0.312345 0.025765
4075.324707 6266.993652 5857.120117 -0.720032 0.691030 0.063502
4171.366699 6384.390625 5668.598145 -0.720032 0.691030 0.063502
4111.445312 6337.430176 5500.190430 -0.720032 0.691030 0.063502
5214.256348 3967.800293 5796.952148 0.610326 -0.785393 0.103241
5025.266602 3802.477295 5656.522461 0.610326 -0.785393 0.103241
5216.469727 3949.435059 5644.156738 0.610326 -0.785393 0.103241
4493.030762 6521.523438 5625.488770 -0.366867 0.914374 0.171258
4171.366699 6384.390625 5668.598145 -0.366867 0.914374 0.171258
4536.565430 6513.434570 5761.936035 -0.366867 0.914374 0.171258
5025.266602 3802.477295 5656.522461 0.202728 -0.758172 0.619739
5214.256348 3967.800293 5796.952148 0.202728 -0.758172 0.619739
4929.538574 3847.030273 5742.341797 0.202728 -0.758172 0.619739
5384.758789 4387.817383 5678.640137 -0.684371 0.709577 -0.167743
5198.666016 4244.882812 5833.242188 -0.684371 0.709577 -0.167743
5430.513184 4477.175293 5869.964844 -0.684371 0.709577 -0.167743
4075.324707 6266.993652 5857.120117 -0.935914 0.351314 -0.025384
4111.445312 6337.430176 5500.190430 -0.935914 0.351314 -0.025384
3969.406250 5973.583984 5701.575684 -0.935914 0.351314 -0.025384
4724.667480 6168.246582 5586.579102 0.891686 0.445672 0.079195
4536.565430 6513.434570 5761.936035 0.891686 0.445672 0.079195
4749.083984 6071.859863 5854.083984 0.891686 0.445672 0.079195
5885.564941 2580.370605 5288.525879 -0.780287 -0.625302 0.012191
5869.936035 2615.411621 6085.504883 -0.780287 -0.625302 0.012191
5715.820312 2801.974121 5790.494629 -0.780287 -0.625302 0.012191
5214.256348 3967.800293 5796.952148 -0.918551 -0.393834 0.034031
5216.469727 3949.435059 5644.156738 -0.918551 -0.393834 0.034031
5397.197754 3519.424805 5545.873047 -0.918551 -0.393834 0.034031
4171.366699 6384.390625 5668.598145 -0.807307 0.588424 -0.044855
4075.324707 6266.993652 5857.120117 -0.807307 0.588424 -0.044855
4322.413574 6622.577637 6074.658691 -0.807307 0.588424 -0.044855
5934.578125 2535.577637 6027.914551 -0.426554 -0.904074 -0.026494
5885.564941 2580.370605 5288.525879 -0.426554 -0.904074 -0.026494
5966.835449 2538.466064 5410.007324 -0.426554 -0.904074 -0.026494
5566.553711 4106.332520 5152.882812 -0.995037 0.078728 -0.060852
5525.226562 4125.715820 5853.733398 -0.995037 0.078728 -0.060852
5506.163574 4322.736816 6420.346680 -0.995037 0.078728 -0.060852
5525.226562 4125.715820 5853.733398 0.904848 0.259433 -0.337558
5384.758789 4387.817383 5678.640137 0.904848 0.259433 -0.337558
5430.513184 4477.175293 5869.964844 0.904848 0.259433 -0.337558
4929.538574 3847.030273 5742.341797 -0.535100 -0.309068 0.786222
4119.926270 5328.095215 5773.536133 -0.535100 -0.309068 0.786222
4447.894531 4589.704590 5706.485352 -0.535100 -0.309068 0.786222
4075.324707 6266.993652 5857.120117 -0.813364 -0.014688 0.581569
3969.406250 5973.583984 5701.575684 -0.813364 -0.014688 0.581569
3966.305908 5485.904297 5684.922852 -0.813364 -0.014688 0.581569
4461.479980 6754.437012 6101.982910 -0.129638 0.795257 -0.592250
4536.565430 6513.434570 5761.936035 -0.129638 0.795257 -0.592250
4171.366699 6384.390625 5668.598145 -0.129638 0.795257 -0.592250
5934.578125 2535.577637 6027.914551 -0.772591 -0.634776 0.012759
5869.936035 2615.411621 6085.504883 -0.772591 -0.634776 0.012759
5885.564941 2580.370605 5288.525879 -0.772591 -0.634776 0.012759
4929.538574 3847.030273 5742.341797 0.033013 -0.475374 0.879164
5214.256348 3967.800293 5796.952148 0.033013 -0.475374 0.879164
5250.095703 4143.188965 5890.440918 0.033013 -0.475374 0.879164
4119.926270 5328.095215 5773.536133 -0.306150 -0.187014 0.933433
4929.538574 3847.030273 5742.341797 -0.306150 -0.187014 0.933433
5087.091309 4450.859863 5914.994141 -0.306150 -0.187014 0.933433
4119.926270 5328.095215 5773.536133 -0.572011 -0.099653 0.814170
4075.324707 6266.993652 5857.120117 -0.572011 -0.099653 0.814170
3966.305908 5485.904297 5684.922852 -0.572011 -0.099653 0.814170
4749.083984 6071.859863 5854.083984 0.804269 0.277403 -0.525546
4536.565430 6513.434570 5761.936035 0.804269 0.277403 -0.525546
4706.894531 6403.145508 5964.384277 0.804269 0.277403 -0.525546
5250.095703 4143.188965 5890.440918 -0.246822 -0.206328 0.946841
5087.091309 4450.859863 5914.994141 -0.246822 -0.206328 0.946841
4929.538574 3847.030273 5742.341797 -0.246822 -0.206328 0.946841
5198.666016 4244.882812 5833.242188 0.884252 0.465833 0.033140
5087.091309 4450.859863 5914.994141 0.884252 0.465833 0.033140
5250.095703 4143.188965 5890.440918 0.884252 0.465833 0.033140
4503.284668 5508.038086 5893.209473 -0.245959 -0.115997 0.962314
4119.926270 5328.095215 5773.536133 -0.245959 -0.115997 0.962314
5087.091309 4450.859863 5914.994141 -0.245959 -0.115997 0.962314
4256.666504 6104.772949 5922.929688 -0.417426 -0.100232 0.903166
4075.324707 6266.993652 5857.120117 -0.417426 -0.100232 0.903166
4119.926270 5328.095215 5773.536133 -0.417426 -0.100232 0.903166
4171.366699 6384.390625 5668.598145 -0.656920 0.731049 -0.184457
4322.413574 6622.577637 6074.658691 -0.656920 0.731049 -0.184457
4461.479980 6754.437012 6101.982910 -0.656920 0.731049 -0.184457
5715.820312 2801.974121 5790.494629 -0.913655 -0.257868 0.314227
5869.936035 2615.411621 6085.504883 -0.913655 -0.257868 0.314227
5750.665527 2921.475586 5989.879883 -0.913655 -0.257868 0.314227
5397.197754 3519.424805 5545.873047 -0.917900 -0.395104 0.036774
5715.820312 2801.974121 5790.494629 -0.917900 -0.395104 0.036774
5214.256348 3967.800293 5796.952148 -0.917900 -0.395104 0.036774
5899.584961 2764.500977 5903.691895 0.936803 0.349732 0.009397
5602.812500 3576.676758 5262.358398 0.936803 0.349732 0.009397
5603.421875 3552.295654 6109.044434 0.936803 0.349732 0.009397
5250.095703 4143.188965 5890.440918 -0.415150 0.277381 0.866435
5430.513184 4477.175293 5869.964844 -0.415150 0.277381 0.866435
5198.666016 4244.882812 5833.242188 -0.415150 0.277381 0.866435
5087.091309 4450.859863 5914.994141 0.727099 0.126004 0.674870
5198.666016 4244.882812 5833.242188 0.727099 0.126004 0.674870
5147.446289 4867.479492 5772.181641 0.727099 0.126004 0.674870
5147.446289 4867.479492 5772.181641 0.644947 0.162542 0.746742
4749.083984 6071.859863 5854.083984 0.644947 0.162542 0.746742
5087.091309 4450.859863 5914.994141 0.644947 0.162542 0.746742
4256.666504 6104.772949 5922.929688 -0.232642 -0.144050 0.961835
4119.926270 5328.095215 5773.536133 -0.232642 -0.144050 0.961835
4503.284668 5508.038086 5893.209473 -0.232642 -0.144050 0.961835
5934.578125 2535.577637 6027.914551 0.982562 0.178481 0.052128
5966.835449 2538.466064 5410.007324 0.982562 0.178481 0.052128
5899.584961 2764.500977 5903.691895 0.982562 0.178481 0.052128
5087.091309 4450.859863 5914.994141 0.049254 0.047757 0.997644
4749.083984 6071.859863 5854.083984 0.049254 0.047757 0.997644
4503.284668 5508.038086 5893.209473 0.049254 0.047757 0.997644
4749.083984 6071.859863 5854.083984 0.593211 -0.394846 0.701568
4677.213379 6331.888672 6061.199707 0.593211 -0.394846 0.701568
4631.915039 6079.426270 5957.414551 0.593211 -0.394846 0.701568
4503.284668 5508.038086 5893.209473 -0.097140 -0.089514 0.991237
4631.915039 6079.426270 5957.414551 -0.097140 -0.089514 0.991237
4256.666504 6104.772949 5922.929688 -0.097140 -0.089514 0.991237
4749.083984 6071.859863 5854.083984 0.636048 -0.226089 0.737785
4631.915039 6079.426270 5957.414551 0.636048 -0.226089 0.737785
4503.284668 5508.038086 5893.209473 0.636048 -0.226089 0.737785
4677.213379 6331.888672 6061.199707 0.951826 0.019325 0.306029
4749.083984 6071.859863 5854.083984 0.951826 0.019325 0.306029
4706.894531 6403.145508 5964.384277 0.951826 0.019325 0.306029
5899.584961 2764.500977 5903.691895 0.751224 0.445040 0.487444
5750.665527 2921.475586 5989.879883 0.751224 0.445040 0.487444
5869.936035 2615.411621 6085.504883 0.751224 0.445040 0.487444
5250.095703 4143.188965 5890.440918 -0.880093 0.474621 -0.013050
5421.354980 4468.785645 6182.479492 -0.880093 0.474621 -0.013050
5430.513184 4477.175293 5869.964844 -0.880093 0.474621 -0.013050
4706.894531 6403.145508 5964.384277 0.786650 0.095115 -0.610029
4536.565430 6513.434570 5761.936035 0.786650 0.095115 -0.610029
4990.606934 6769.119629 6387.301758 0.786650 0.095115 -0.610029
5899.584961 2764.500977 5903.691895 0.827854 0.359986 0.430195
5869.936035 2615.411621 6085.504883 0.827854 0.359986 0.430195
5934.578125 2535.577637 6027.914551 0.827854 0.359986 0.430195
4503.706055 6678.639648 6324.885254 -0.553681 -0.304522 0.775051
4075.324707 6266.993652 5857.120117 -0.553681 -0.304522 0.775051
4256.666504 6104.772949 5922.929688 -0.553681 -0.304522 0.775051
5899.584961 2764.500977 5903.691895 0.525318 -0.024226 0.850561
5603.421875 3552.295654 6109.044434 0.525318 -0.024226 0.850561
5634.355469 3345.033447 6084.036133 0.525318 -0.024226 0.850561
5750.665527 2921.475586 5989.879883 -0.882486 -0.319137 0.345501
5634.355469 3345.033447 6084.036133 -0.882486 -0.319137 0.345501
5715.820312 2801.974121 5790.494629 -0.882486 -0.319137 0.345501
5715.820312 2801.974121 5790.494629 -0.849371 -0.367516 0.378814
5429.922852 4136.712891 6444.391113 -0.849371 -0.367516 0.378814
5214.256348 3967.800293 5796.952148 -0.849371 -0.367516 0.378814
5214.256348 3967.800293 5796.952148 -0.967841 0.068788 0.241976
5358.612305 4326.397949 6272.395996 -0.967841 0.068788 0.241976
5250.095703 4143.188965 5890.440918 -0.967841 0.068788 0.241976
4631.915039 6079.426270 5957.414551 -0.113258 -0.562030 0.819326
4524.499512 6468.351562 6209.355957 -0.113258 -0.562030 0.819326
4256.666504 6104.772949 5922.929688 -0.113258 -0.562030 0.819326
4677.213379 6331.888672 6061.199707 0.420799 -0.408480 0.809983
4524.499512 6468.351562 6209.355957 0.420799 -0.408480 0.809983
4631.915039 6079.426270 5957.414551 0.420799 -0.408480 0.809983
4503.706055 6678.639648 6324.885254 -0.239870 -0.485560 0.840651
4256.666504 6104.772949 5922.929688 -0.239870 -0.485560 0.840651
4524.499512 6468.351562 6209.355957 -0.239870 -0.485560 0.840651
4075.324707 6266.993652 5857.120117 -0.811226 0.236562 0.534744
4503.706055 6678.639648 6324.885254 -0.811226 0.236562 0.534744
4322.413574 6622.577637 6074.658691 -0.811226 0.236562 0.534744
5750.665527 2921.475586 5989.879883 0.434801 -0.079997 0.896967
5899.584961 2764.500977 5903.691895 0.434801 -0.079997 0.896967
5634.355469 3345.033447 6084.036133 0.434801 -0.079997 0.896967
5715.820312 2801.974121 5790.494629 -0.550054 -0.459468 0.697374
5634.355469 3345.033447 6084.036133 -0.550054 -0.459468 0.697374
5429.922852 4136.712891 6444.391113 -0.550054 -0.459468 0.697374
5603.421875 3552.295654 6109.044434 0.993077 0.114117 0.027832
5566.553711 4106.332520 5152.882812 0.993077 0.114117 0.027832
5506.163574 4322.736816 6420.346680 0.993077 0.114117 0.027832
5358.612305 4326.397949 6272.395996 -0.901815 0.429179 0.050353
5421.354980 4468.785645 6182.479492 -0.901815 0.429179 0.050353
5250.095703 4143.188965 5890.440918 -0.901815 0.429179 0.050353
5525.226562 4125.715820 5853.733398 0.963198 0.262284 -0.058795
5430.513184 4477.175293 5869.964844 0.963198 0.262284 -0.058795
5506.163574 4322.736816 6420.346680 0.963198 0.262284 -0.058795
4536.565430 6513.434570 5761.936035 0.128438 0.822272 -0.554411
4461.479980 6754.437012 6101.982910 0.128438 0.822272 -0.554411
5119.092285 6970.084961 6574.166504 0.128438 0.822272 -0.554411
4677.213379 6331.888672 6061.199707 0.792674 -0.581019 -0.184620
4706.894531 6403.145508 5964.384277 0.792674 -0.581019 -0.184620
4933.176270 6560.588867 6440.442871 0.792674 -0.581019 -0.184620
4990.606934 6769.119629 6387.301758 0.891109 -0.325890 -0.315785
4933.176270 6560.588867 6440.442871 0.891109 -0.325890 -0.315785
4706.894531 6403.145508 5964.384277 0.891109 -0.325890 -0.315785
4536.565430 6513.434570 5761.936035 0.799291 0.046112 -0.599172
5119.092285 6970.084961 6574.166504 0.799291 0.046112 -0.599172
4990.606934 6769.119629 6387.301758 0.799291 0.046112 -0.599172
5634.355469 3345.033447 6084.036133 0.945664 0.103967 0.308075
5603.421875 3552.295654 6109.044434 0.945664 0.103967 0.308075
5429.922852 4136.712891 6444.391113 0.945664 0.103967 0.308075
5430.513184 4477.175293 5869.964844 0.835061 0.548758 0.039203
5421.354980 4468.785645 6182.479492 0.835061 0.548758 0.039203
5506.163574 4322.736816 6420.346680 0.835061 0.548758 0.039203
4933.176270 6560.588867 6440.442871 -0.148993 -0.799095 0.582450
4524.499512 6468.351562 6209.355957 -0.148993 -0.799095 0.582450
4677.213379 6331.888672 6061.199707 -0.148993 -0.799095 0.582450
5603.421875 3552.295654 6109.044434 0.965135 0.016278 0.261245
5506.163574 4322.736816 6420.346680 0.965135 0.016278 0.261245
5507.295898 4071.361816 6431.826660 0.965135 0.016278 0.261245
5214.256348 3967.800293 5796.952148 -0.942741 -0.056341 0.328733
5429.922852 4136.712891 6444.391113 -0.942741 -0.056341 0.328733
5358.612305 4326.397949 6272.395996 -0.942741 -0.056341 0.328733
5429.922852 4136.712891 6444.391113 -0.332130 -0.541689 0.772180
5603.421875 3552.295654 6109.044434 -0.332130 -0.541689 0.772180
5507.295898 4071.361816 6431.826660 -0.332130 -0.541689 0.772180
5506.163574 4322.736816 6420.346680 -0.556286 0.604919 0.569753
5421.354980 4468.785645 6182.479492 -0.556286 0.604919 0.569753
5358.612305 4326.397949 6272.395996 -0.556286 0.604919 0.569753
4461.479980 6754.437012 6101.982910 -0.688744 0.667991 0.281814
4322.413574 6622.577637 6074.658691 -0.688744 0.667991 0.281814
4787.837891 6853.031250 6665.890625 -0.688744 0.667991 0.281814
5506.163574 4322.736816 6420.346680 -0.657442 0.355333 0.664461
5358.612305 4326.397949 6272.395996 -0.657442 0.355333 0.664461
5429.922852 4136.712891 6444.391113 -0.657442 0.355333 0.664461
4879.163086 6538.975586 6536.437988 0.258022 -0.963472 -0.071745
4524.499512 6468.351562 6209.355957 0.258022 -0.963472 -0.071745
4933.176270 6560.588867 6440.442871 0.258022 -0.963472 -0.071745
4461.479980 6754.437012 6101.982910 -0.327126 0.944672 0.024154
4787.837891 6853.031250 6665.890625 -0.327126 0.944672 0.024154
5119.092285 6970.084961 6574.166504 -0.327126 0.944672 0.024154
4879.163086 6538.975586 6536.437988 -0.559471 -0.440907 0.701850
4503.706055 6678.639648 6324.885254 -0.559471 -0.440907 0.701850
4524.499512 6468.351562 6209.355957 -0.559471 -0.440907 0.701850
5507.295898 4071.361816 6431.826660 0.197539 0.045610 0.979233
5506.163574 4322.736816 6420.346680 0.197539 0.045610 0.979233
5429.922852 4136.712891 6444.391113 0.197539 0.045610 0.979233
4322.413574 6622.577637 6074.658691 -0.802599 0.303614 0.513471
4503.706055 6678.639648 6324.885254 -0.802599 0.303614 0.513471
4787.837891 6853.031250 6665.890625 -0.802599 0.303614 0.513471
4990.606934 6769.119629 6387.301758 0.471652 -0.337496 -0.814642
5757.401855 6695.704102 6861.666992 0.471652 -0.337496 -0.814642
4933.176270 6560.588867 6440.442871 0.471652 -0.337496 -0.814642
4990.606934 6769.119629 6387.301758 0.377196 0.489741 -0.786051
5119.092285 6970.084961 6574.166504 0.377196 0.489741 -0.786051
5562.003906 6893.748047 6739.142090 0.377196 0.489741 -0.786051
5562.003906 6893.748047 6739.142090 0.525544 -0.007804 -0.850731
5757.401855 6695.704102 6861.666992 0.525544 -0.007804 -0.850731
4990.606934 6769.119629 6387.301758 0.525544 -0.007804 -0.850731
4933.176270 6560.588867 6440.442871 0.415866 -0.690005 -0.592409
5757.401855 6695.704102 6861.666992 0.415866 -0.690005 -0.592409
5605.797363 6420.103027 7076.246582 0.415866 -0.690005 -0.592409
4879.163086 6538.975586 6536.437988 -0.471880 -0.833590 0.287153
5327.371582 6458.877930 7040.461914 -0.471880 -0.833590 0.287153
4503.706055 6678.639648 6324.885254 -0.471880 -0.833590 0.287153
4503.706055 6678.639648 6324.885254 -0.671854 -0.260884 0.693218
5327.371582 6458.877930 7040.461914 -0.671854 -0.260884 0.693218
4787.837891 6853.031250 6665.890625 -0.671854 -0.260884 0.693218
5327.371582 6458.877930 7040.461914 -0.132881 -0.990356 -0.039218
4879.163086 6538.975586 6536.437988 -0.132881 -0.990356 -0.039218
5605.797363 6420.103027 7076.246582 -0.132881 -0.990356 -0.039218
5605.797363 6420.103027 7076.246582 0.002524 -0.975879 -0.218299
4879.163086 6538.975586 6536.437988 0.002524 -0.975879 -0.218299
4933.176270 6560.588867 6440.442871 0.002524 -0.975879 -0.218299
5119.092285 6970.084961 6574.166504 -0.257753 0.931250 0.257559
4787.837891 6853.031250 6665.890625 -0.257753 0.931250 0.257559
5312.702637 6902.515625 7012.231445 -0.257753 0.931250 0.257559
5562.003906 6893.748047 6739.142090 0.135679 0.986454 0.092190
5119.092285 6970.084961 6574.166504 0.135679 0.986454 0.092190
5312.702637 6902.515625 7012.231445 0.135679 0.986454 0.092190
4787.837891 6853.031250 6665.890625 -0.552711 0.034709 0.832650
5327.371582 6458.877930 7040.461914 -0.552711 0.034709 0.832650
5312.702637 6902.515625 7012.231445 -0.552711 0.034709 0.832650
5312.702637 6902.515625 7012.231445 0.202275 0.967208 0.153603
5633.841797 6804.290039 7207.838867 0.202275 0.967208 0.153603
5562.003906 6893.748047 6739.142090 0.202275 0.967208 0.153603
5757.401855 6695.704102 6861.666992 0.702876 0.710764 0.027929
5562.003906 6893.748047 6739.142090 0.702876 0.710764 0.027929
5633.841797 6804.290039 7207.838867 0.702876 0.710764 0.027929
5327.371582 6458.877930 7040.461914 -0.511391 0.037722 0.858520
5633.841797 6804.290039 7207.838867 -0.511391 0.037722 0.858520
5312.702637 6902.515625 7012.231445 -0.511391 0.037722 0.858520
5770.347656 6612.111816 7213.607422 0.809014 0.577876 0.107497
5757.401855 6695.704102 6861.666992 0.809014 0.577876 0.107497
5633.841797 6804.290039 7207.838867 0.809014 0.577876 0.107497
5605.797363 6420.103027 7076.246582 0.804168 -0.570984 -0.165200
5757.401855 6695.704102 6861.666992 0.804168 -0.570984 -0.165200
5770.347656 6612.111816 7213.607422 0.804168 -0.570984 -0.165200
5327.371582 6458.877930 7040.461914 -0.176481 -0.468167 0.865837
5605.797363 6420.103027 7076.246582 -0.176481 -0.468167 0.865837
5770.347656 6612.111816 7213.607422 -0.176481 -0.468167 0.865837
5633.841797 6804.290039 7207.838867 -0.301250 -0.185907 0.935247
5327.371582 6458.877930 7040.461914 -0.301250 -0.185907 0.935247
5770.347656 6612.111816 7213.607422 -0.301250 -0.185907 0.935247
3 0 1 2
3 3 4 5
3 6 7 8
3 9 10 11
3 12 13 14
3 15 16 17
3 18 19 20
3 21 22 23
3 24 25 26
3 27 28 29
3 30 31 32
3 33 34 35
3 36 37 38
3 39 40 41
3 42 43 44
3 45 46 47
3 48 49 50
3 51 52 53
3 54 55 56
3 57 58 59
3 60 61 62
3 63 64 65
3 66 67 68
3 69 70 71
3 72 73 74
3 75 76 77
3 78 79 80
3 81 82 83
3 84 85 86
3 87 88 89
3 90 91 92
3 93 94 95
3 96 97 98
3 99 100 101
3 102 103 104
3 105 106 107
3 108 109 110
3 111 112 113
3 114 115 116
3 117 118 119
3 120 121 122
3 123 124 125
3 126 127 128
3 129 130 131
3 132 133 134
3 135 136 137
3 138 139 140
3 141 142 143
3 144 145 146
3 147 148 149
3 150 151 152
3 153 154 155
3 156 157 158
3 159 160 161
3 162 163 164
3 165 166 167
3 168 169 170
3 171 172 173
3 174 175 176
3 177 178 179
3 180 181 182
3 183 184 185
3 186 187 188
3 189 190 191
3 192 193 194
3 195 196 197
3 198 199 200
3 201 202 203
3 204 205 206
3 207 208 209
3 210 211 212
3 213 214 215
3 216 217 218
3 219 220 221
3 222 223 224
3 225 226 227
3 228 229 230
3 231 232 233
3 234 235 236
3 237 238 239
3 240 241 242
3 243 244 245
3 246 247 248
3 249 250 251
3 252 253 254
3 255 256 257
3 258 259 260
3 261 262 263
3 264 265 266
3 267 268 269
3 270 271 272
3 273 274 275
3 276 277 278
3 279 280 281
3 282 283 284
3 285 286 287
3 288 289 290
3 291 292 293
3 294 295 296
3 297 298 299
3 300 301 302
3 303 304 305
3 306 307 308
3 309 310 311
3 312 313 314
3 315 316 317
3 318 319 320
3 321 322 323
3 324 325 326
3 327 328 329
3 330 331 332
3 333 334 335
3 336 337 338
3 339 340 341
3 342 343 344
3 345 346 347
3 348 349 350
3 351 352 353
3 354 355 356
3 357 358 359
3 360 361 362
3 363 364 365
3 366 367 368
3 369 370 371
3 372 373 374
3 375 376 377
3 378 379 380
3 381 382 383
3 384 385 386
3 387 388 389
3 390 391 392
3 393 394 395
3 396 397 398
3 399 400 401
3 402 403 404
3 405 406 407
3 408 409 410
3 411 412 413
3 414 415 416
3 417 418 419
3 420 421 422
3 423 424 425
3 426 427 428
3 429 430 431
3 432 433 434
3 435 436 437
3 438 439 440
3 441 442 443
3 444 445 446
3 447 448 449
3 450 451 452
3 453 454 455
3 456 457 458
3 459 460 461
3 462 463 464
3 465 466 467
3 468 469 470
3 471 472 473
3 474 475 476
3 477 478 479
3 480 481 482
3 483 484 485
3 486 487 488
3 489 490 491
3 492 493 494
3 495 496 497
3 498 499 500
3 501 502 503
3 504 505 506
3 507 508 509
3 510 511 512
3 513 514 515
3 516 517 518
3 519 520 521
3 522 523 524
3 525 526 527
3 528 529 530
3 531 532 533
3 534 535 536
3 537 538 539
3 540 541 542
3 543 544 545
