ply
format ascii 1.0
comment Created by Blender 2.80 (sub 75) - www.blender.org, source file: 'downsample_ccf.blend'
element vertex 30
property float x
property float y
property float z
property float nx
property float ny
property float nz
element face 10
property list uchar uint vertex_indices
end_header
12329.663086 5124.245117 4637.797852 0.531443 -0.700133 -0.476846
12470.842773 5186.175781 4704.211914 0.531443 -0.700133 -0.476846
12345.892578 4946.921387 4916.242188 0.531443 -0.700133 -0.476846
12345.892578 4946.921387 4916.242188 0.460065 -0.711258 -0.531463
12470.842773 5186.175781 4704.211914 0.460065 -0.711258 -0.531463
12517.332031 5021.462402 4964.891602 0.460065 -0.711258 -0.531463
12329.663086 5124.245117 4637.797852 -0.579821 0.671488 0.461424
12345.892578 4946.921387 4916.242188 -0.579821 0.671488 0.461424
12555.483398 5133.917480 4907.485840 -0.579821 0.671488 0.461424
12555.483398 5133.917480 4907.485840 -0.521122 0.748827 0.409499
12470.842773 5186.175781 4704.211914 -0.521122 0.748827 0.409499
12329.663086 5124.245117 4637.797852 -0.521122 0.748827 0.409499
12517.332031 5021.462402 4964.891602 0.758213 -0.481596 -0.439520
12470.842773 5186.175781 4704.211914 0.758213 -0.481596 -0.439520
12555.483398 5133.917480 4907.485840 0.758213 -0.481596 -0.439520
12555.483398 5133.917480 4907.485840 -0.435154 0.522082 0.733534
12345.892578 4946.921387 4916.242188 -0.435154 0.522082 0.733534
12517.332031 5021.462402 4964.891602 -0.435154 0.522082 0.733534
12571.393555 5079.555664 6419.074219 -0.487480 0.713230 -0.503652
12359.518555 4947.549805 6437.210449 -0.487480 0.713230 -0.503652
12448.327148 5191.604004 6696.862793 -0.487480 0.713230 -0.503652
12359.518555 4947.549805 6437.210449 0.511771 -0.768706 0.383642
12571.393555 5079.555664 6419.074219 0.511771 -0.768706 0.383642
12337.678711 5066.451172 6704.587891 0.511771 -0.768706 0.383642
12571.393555 5079.555664 6419.074219 0.658303 -0.550307 0.513614
12448.327148 5191.604004 6696.862793 0.658303 -0.550307 0.513614
12337.678711 5066.451172 6704.587891 0.658303 -0.550307 0.513614
12359.518555 4947.549805 6437.210449 -0.716924 0.613385 -0.331329
12337.678711 5066.451172 6704.587891 -0.716924 0.613385 -0.331329
12448.327148 5191.604004 6696.862793 -0.716924 0.613385 -0.331329
3 0 1 2
3 3 4 5
3 6 7 8
3 9 10 11
3 12 13 14
3 15 16 17
3 18 19 20
3 21 22 23
3 24 25 26
3 27 28 29
