ply
format ascii 1.0
comment Created by Blender 2.80 (sub 75) - www.blender.org, source file: 'downsample_ccf.blend'
element vertex 96
property float x
property float y
property float z
property float nx
property float ny
property float nz
element face 32
property list uchar uint vertex_indices
end_header
8235.418945 4179.490723 3290.377686 0.148432 0.735856 -0.660669
8824.156250 4188.076660 3432.211914 0.148432 0.735856 -0.660669
8705.867188 4095.910156 3302.980469 0.148432 0.735856 -0.660669
8824.156250 4188.076660 3432.211914 0.771271 -0.111090 -0.626737
8824.183594 3860.666504 3490.279297 0.771271 -0.111090 -0.626737
8705.867188 4095.910156 3302.980469 0.771271 -0.111090 -0.626737
8115.440918 4260.023438 3632.012939 -0.176803 -0.970048 0.166576
8235.418945 4179.490723 3290.377686 -0.176803 -0.970048 0.166576
8705.867188 4095.910156 3302.980469 -0.176803 -0.970048 0.166576
8235.418945 4179.490723 3290.377686 0.137319 0.774963 -0.616908
8288.467773 4376.096680 3549.163574 0.137319 0.774963 -0.616908
8824.156250 4188.076660 3432.211914 0.137319 0.774963 -0.616908
8288.467773 4376.096680 3549.163574 -0.633944 0.672878 -0.381249
8235.418945 4179.490723 3290.377686 -0.633944 0.672878 -0.381249
8115.440918 4260.023438 3632.012939 -0.633944 0.672878 -0.381249
8288.467773 4376.096680 3549.163574 0.254274 0.916516 -0.308777
8379.477539 4434.344238 3797.000488 0.254274 0.916516 -0.308777
8824.156250 4188.076660 3432.211914 0.254274 0.916516 -0.308777
8705.867188 4095.910156 3302.980469 -0.491935 -0.680151 -0.543502
8824.183594 3860.666504 3490.279297 -0.491935 -0.680151 -0.543502
8115.440918 4260.023438 3632.012939 -0.491935 -0.680151 -0.543502
8288.467773 4376.096680 3549.163574 -0.554431 0.832191 0.008011
8115.440918 4260.023438 3632.012939 -0.554431 0.832191 0.008011
8379.477539 4434.344238 3797.000488 -0.554431 0.832191 0.008011
8378.562500 4094.248047 3769.258545 -0.501368 -0.861576 -0.079474
8115.440918 4260.023438 3632.012939 -0.501368 -0.861576 -0.079474
8824.183594 3860.666504 3490.279297 -0.501368 -0.861576 -0.079474
8824.183594 3860.666504 3490.279297 0.152664 -0.624032 0.766340
8421.541016 4291.798828 3921.562744 0.152664 -0.624032 0.766340
8378.562500 4094.248047 3769.258545 0.152664 -0.624032 0.766340
8824.156250 4188.076660 3432.211914 0.778845 0.109593 0.617568
8421.541016 4291.798828 3921.562744 0.778845 0.109593 0.617568
8824.183594 3860.666504 3490.279297 0.778845 0.109593 0.617568
8824.156250 4188.076660 3432.211914 0.683041 0.584394 0.438107
8379.477539 4434.344238 3797.000488 0.683041 0.584394 0.438107
8421.541016 4291.798828 3921.562744 0.683041 0.584394 0.438107
8271.240234 4294.706055 3895.119873 -0.646887 0.705256 0.290089
8379.477539 4434.344238 3797.000488 -0.646887 0.705256 0.290089
8115.440918 4260.023438 3632.012939 -0.646887 0.705256 0.290089
8378.562500 4094.248047 3769.258545 -0.632425 -0.625492 0.456944
8271.240234 4294.706055 3895.119873 -0.632425 -0.625492 0.456944
8115.440918 4260.023438 3632.012939 -0.632425 -0.625492 0.456944
8271.240234 4294.706055 3895.119873 -0.122350 0.632350 0.764960
8421.541016 4291.798828 3921.562744 -0.122350 0.632350 0.764960
8379.477539 4434.344238 3797.000488 -0.122350 0.632350 0.764960
8421.541016 4291.798828 3921.562744 -0.151748 -0.582584 0.798479
8271.240234 4294.706055 3895.119873 -0.151748 -0.582584 0.798479
8378.562500 4094.248047 3769.258545 -0.151748 -0.582584 0.798479
8308.866211 4258.604004 7434.900391 -0.282038 0.734106 -0.617691
8291.625977 4416.899414 7630.901367 -0.282038 0.734106 -0.617691
8440.353516 4376.275391 7514.711914 -0.282038 0.734106 -0.617691
8440.353516 4376.275391 7514.711914 0.597335 -0.130794 -0.791255
8798.275391 3878.516602 7867.193848 0.597335 -0.130794 -0.791255
8308.866211 4258.604004 7434.900391 0.597335 -0.130794 -0.791255
8130.001465 4261.215820 7686.510254 -0.685600 0.535688 -0.492941
8291.625977 4416.899414 7630.901367 -0.685600 0.535688 -0.492941
8308.866211 4258.604004 7434.900391 -0.685600 0.535688 -0.492941
8308.866211 4258.604004 7434.900391 -0.023153 -0.763650 -0.645215
8798.275391 3878.516602 7867.193848 -0.023153 -0.763650 -0.645215
8472.910156 4035.021484 7693.636719 -0.023153 -0.763650 -0.645215
8130.001465 4261.215820 7686.510254 -0.509779 -0.783982 -0.354255
8308.866211 4258.604004 7434.900391 -0.509779 -0.783982 -0.354255
8472.910156 4035.021484 7693.636719 -0.509779 -0.783982 -0.354255
8440.353516 4376.275391 7514.711914 0.363885 0.920239 0.144040
8291.625977 4416.899414 7630.901367 0.363885 0.920239 0.144040
8433.489258 4302.302734 8004.645996 0.363885 0.920239 0.144040
8472.910156 4035.021484 7693.636719 -0.532882 -0.799073 0.278424
8798.275391 3878.516602 7867.193848 -0.532882 -0.799073 0.278424
8130.001465 4261.215820 7686.510254 -0.532882 -0.799073 0.278424
8440.353516 4376.275391 7514.711914 0.354186 0.923949 0.144465
8433.489258 4302.302734 8004.645996 0.354186 0.923949 0.144465
8838.479492 4158.037109 7934.402344 0.354186 0.923949 0.144465
8798.275391 3878.516602 7867.193848 0.738593 0.055314 -0.671879
8440.353516 4376.275391 7514.711914 0.738593 0.055314 -0.671879
8838.479492 4158.037109 7934.402344 0.738593 0.055314 -0.671879
8798.275391 3878.516602 7867.193848 -0.530767 -0.704149 0.471656
8718.519531 4083.140625 8082.931641 -0.530767 -0.704149 0.471656
8130.001465 4261.215820 7686.510254 -0.530767 -0.704149 0.471656
8291.625977 4416.899414 7630.901367 -0.605977 0.736485 0.300633
8130.001465 4261.215820 7686.510254 -0.605977 0.736485 0.300633
8225.484375 4186.643555 8061.657715 -0.605977 0.736485 0.300633
8291.625977 4416.899414 7630.901367 -0.360983 0.844360 0.395915
8225.484375 4186.643555 8061.657715 -0.360983 0.844360 0.395915
8433.489258 4302.302734 8004.645996 -0.360983 0.844360 0.395915
8798.275391 3878.516602 7867.193848 0.810910 -0.244468 0.531659
8838.479492 4158.037109 7934.402344 0.810910 -0.244468 0.531659
8718.519531 4083.140625 8082.931641 0.810910 -0.244468 0.531659
8718.519531 4083.140625 8082.931641 -0.197459 -0.969893 -0.142539
8225.484375 4186.643555 8061.657715 -0.197459 -0.969893 -0.142539
8130.001465 4261.215820 7686.510254 -0.197459 -0.969893 -0.142539
8838.479492 4158.037109 7934.402344 0.354831 0.687713 0.633361
8433.489258 4302.302734 8004.645996 0.354831 0.687713 0.633361
8718.519531 4083.140625 8082.931641 0.354831 0.687713 0.633361
8718.519531 4083.140625 8082.931641 0.040430 0.382331 0.923140
8433.489258 4302.302734 8004.645996 0.040430 0.382331 0.923140
8225.484375 4186.643555 8061.657715 0.040430 0.382331 0.923140
3 0 1 2
3 3 4 5
3 6 7 8
3 9 10 11
3 12 13 14
3 15 16 17
3 18 19 20
3 21 22 23
3 24 25 26
3 27 28 29
3 30 31 32
3 33 34 35
3 36 37 38
3 39 40 41
3 42 43 44
3 45 46 47
3 48 49 50
3 51 52 53
3 54 55 56
3 57 58 59
3 60 61 62
3 63 64 65
3 66 67 68
3 69 70 71
3 72 73 74
3 75 76 77
3 78 79 80
3 81 82 83
3 84 85 86
3 87 88 89
3 90 91 92
3 93 94 95
