ply
format ascii 1.0
comment Created by Blender 2.80 (sub 75) - www.blender.org, source file: 'downsample_ccf.blend'
element vertex 174
property float x
property float y
property float z
property float nx
property float ny
property float nz
element face 58
property list uchar uint vertex_indices
end_header
3420.040039 3015.815674 4526.588867 0.117339 -0.596132 -0.794266
3979.100586 2812.595215 4761.706543 0.117339 -0.596132 -0.794266
2902.080322 2691.707031 4693.327637 0.117339 -0.596132 -0.794266
3420.040039 3015.815674 4526.588867 -0.546394 0.546848 -0.634358
2902.080322 2691.707031 4693.327637 -0.546394 0.546848 -0.634358
3478.613281 3276.251221 4700.645996 -0.546394 0.546848 -0.634358
2902.080322 2691.707031 4693.327637 -0.543739 0.544285 -0.638829
2761.907959 2800.079102 4904.968750 -0.543739 0.544285 -0.638829
3478.613281 3276.251221 4700.645996 -0.543739 0.544285 -0.638829
2902.080322 2691.707031 4693.327637 0.127836 -0.877932 -0.461403
3979.100586 2812.595215 4761.706543 0.127836 -0.877932 -0.461403
2856.609863 2612.366211 4831.694824 0.127836 -0.877932 -0.461403
2856.609863 2612.366211 4831.694824 -0.860846 -0.264639 -0.434639
2761.907959 2800.079102 4904.968750 -0.860846 -0.264639 -0.434639
2902.080322 2691.707031 4693.327637 -0.860846 -0.264639 -0.434639
3979.100586 2812.595215 4761.706543 0.476413 0.411967 -0.776733
3420.040039 3015.815674 4526.588867 0.476413 0.411967 -0.776733
3478.613281 3276.251221 4700.645996 0.476413 0.411967 -0.776733
3978.371826 3291.290527 4987.084473 0.716543 0.298022 -0.630673
4024.446533 2825.750977 4819.443359 0.716543 0.298022 -0.630673
3979.100586 2812.595215 4761.706543 0.716543 0.298022 -0.630673
3979.100586 2812.595215 4761.706543 0.099172 -0.774388 -0.624890
3685.592041 2596.771484 4982.583008 0.099172 -0.774388 -0.624890
2856.609863 2612.366211 4831.694824 0.099172 -0.774388 -0.624890
3979.100586 2812.595215 4761.706543 0.451169 0.380711 -0.807159
3478.613281 3276.251221 4700.645996 0.451169 0.380711 -0.807159
3978.371826 3291.290527 4987.084473 0.451169 0.380711 -0.807159
3478.613281 3276.251221 4700.645996 -0.585835 0.739246 -0.332135
2761.907959 2800.079102 4904.968750 -0.585835 0.739246 -0.332135
2979.745605 3029.351807 5031.038086 -0.585835 0.739246 -0.332135
4024.446533 2825.750977 4819.443359 0.580616 -0.763790 -0.281975
3936.567627 2694.804932 4993.187012 0.580616 -0.763790 -0.281975
3979.100586 2812.595215 4761.706543 0.580616 -0.763790 -0.281975
3685.592041 2596.771484 4982.583008 0.351261 -0.858966 -0.372549
3979.100586 2812.595215 4761.706543 0.351261 -0.858966 -0.372549
3936.567627 2694.804932 4993.187012 0.351261 -0.858966 -0.372549
3478.613281 3276.251221 4700.645996 -0.598255 0.708902 -0.373563
2979.745605 3029.351807 5031.038086 -0.598255 0.708902 -0.373563
3215.820312 3227.094971 5028.221191 -0.598255 0.708902 -0.373563
3478.613281 3276.251221 4700.645996 0.276408 0.805269 -0.524538
3830.648438 3381.583740 5047.858887 0.276408 0.805269 -0.524538
3978.371826 3291.290527 4987.084473 0.276408 0.805269 -0.524538
2856.609863 2612.366211 4831.694824 -0.568514 -0.531825 0.627658
2906.580322 2693.536865 4945.733887 -0.568514 -0.531825 0.627658
2761.907959 2800.079102 4904.968750 -0.568514 -0.531825 0.627658
3953.552002 3289.332031 5087.639648 0.914204 -0.088930 0.395376
3936.567627 2694.804932 4993.187012 0.914204 -0.088930 0.395376
4024.446533 2825.750977 4819.443359 0.914204 -0.088930 0.395376
2856.609863 2612.366211 4831.694824 -0.125966 -0.781301 0.611311
3685.592041 2596.771484 4982.583008 -0.125966 -0.781301 0.611311
2906.580322 2693.536865 4945.733887 -0.125966 -0.781301 0.611311
3953.552002 3289.332031 5087.639648 0.970773 0.009725 0.239803
4024.446533 2825.750977 4819.443359 0.970773 0.009725 0.239803
3978.371826 3291.290527 4987.084473 0.970773 0.009725 0.239803
3478.613281 3276.251221 4700.645996 -0.241944 0.969068 -0.048677
3215.820312 3227.094971 5028.221191 -0.241944 0.969068 -0.048677
3830.648438 3381.583740 5047.858887 -0.241944 0.969068 -0.048677
2906.580322 2693.536865 4945.733887 -0.370243 -0.152118 0.916395
2979.745605 3029.351807 5031.038086 -0.370243 -0.152118 0.916395
2761.907959 2800.079102 4904.968750 -0.370243 -0.152118 0.916395
3685.592041 2596.771484 4982.583008 -0.074496 -0.230241 0.970278
2979.745605 3029.351807 5031.038086 -0.074496 -0.230241 0.970278
2906.580322 2693.536865 4945.733887 -0.074496 -0.230241 0.970278
3953.552002 3289.332031 5087.639648 0.019775 -0.157423 0.987333
3685.592041 2596.771484 4982.583008 0.019775 -0.157423 0.987333
3936.567627 2694.804932 4993.187012 0.019775 -0.157423 0.987333
3953.552002 3289.332031 5087.639648 0.560707 0.813521 0.154243
3978.371826 3291.290527 4987.084473 0.560707 0.813521 0.154243
3830.648438 3381.583740 5047.858887 0.560707 0.813521 0.154243
3685.592041 2596.771484 4982.583008 -0.019452 -0.142588 0.989591
3953.552002 3289.332031 5087.639648 -0.019452 -0.142588 0.989591
2979.745605 3029.351807 5031.038086 -0.019452 -0.142588 0.989591
3215.820312 3227.094971 5028.221191 -0.050535 0.074518 0.995938
2979.745605 3029.351807 5031.038086 -0.050535 0.074518 0.995938
3830.648438 3381.583740 5047.858887 -0.050535 0.074518 0.995938
3953.552002 3289.332031 5087.639648 -0.122719 0.250599 0.960281
3830.648438 3381.583740 5047.858887 -0.122719 0.250599 0.960281
2979.745605 3029.351807 5031.038086 -0.122719 0.250599 0.960281
3843.014160 2642.363037 6381.911133 -0.025902 -0.135164 -0.990485
3102.803711 3145.436523 6332.617676 -0.025902 -0.135164 -0.990485
3944.416260 3314.688477 6287.512207 -0.025902 -0.135164 -0.990485
3944.416260 3314.688477 6287.512207 -0.107033 0.277813 -0.954654
3102.803711 3145.436523 6332.617676 -0.107033 0.277813 -0.954654
3542.167725 3317.041260 6333.295898 -0.107033 0.277813 -0.954654
3843.014160 2642.363037 6381.911133 -0.039478 -0.154812 -0.987155
2929.373291 2766.150635 6399.035645 -0.039478 -0.154812 -0.987155
3102.803711 3145.436523 6332.617676 -0.039478 -0.154812 -0.987155
2929.373291 2766.150635 6399.035645 -0.359324 0.000885 -0.933213
2794.946777 2862.140869 6450.886230 -0.359324 0.000885 -0.933213
3102.803711 3145.436523 6332.617676 -0.359324 0.000885 -0.933213
3944.416260 3314.688477 6287.512207 0.604688 -0.199466 -0.771081
3971.076904 2710.480225 6464.718262 0.604688 -0.199466 -0.771081
3843.014160 2642.363037 6381.911133 0.604688 -0.199466 -0.771081
3993.537354 3219.452148 6404.641602 0.748550 0.632170 0.200086
3944.416260 3314.688477 6287.512207 0.748550 0.632170 0.200086
3859.647461 3371.150635 6426.252441 0.748550 0.632170 0.200086
3944.416260 3314.688477 6287.512207 -0.039875 0.916757 -0.397450
3542.167725 3317.041260 6333.295898 -0.039875 0.916757 -0.397450
3859.647461 3371.150635 6426.252441 -0.039875 0.916757 -0.397450
2929.373291 2766.150635 6399.035645 -0.075574 -0.433572 -0.897944
3843.014160 2642.363037 6381.911133 -0.075574 -0.433572 -0.897944
3068.643066 2609.332520 6463.033691 -0.075574 -0.433572 -0.897944
3102.803711 3145.436523 6332.617676 -0.363601 0.931058 -0.030403
3478.437012 3301.586914 6622.208008 -0.363601 0.931058 -0.030403
3542.167725 3317.041260 6333.295898 -0.363601 0.931058 -0.030403
3439.079346 2591.411621 6437.168945 -0.082241 -0.357090 -0.930443
3068.643066 2609.332520 6463.033691 -0.082241 -0.357090 -0.930443
3843.014160 2642.363037 6381.911133 -0.082241 -0.357090 -0.930443
3971.076904 2710.480225 6464.718262 0.889345 -0.092110 -0.447862
3944.416260 3314.688477 6287.512207 0.889345 -0.092110 -0.447862
3993.537354 3219.452148 6404.641602 0.889345 -0.092110 -0.447862
2773.096924 2660.606689 6606.423828 -0.422871 -0.638127 -0.643408
2929.373291 2766.150635 6399.035645 -0.422871 -0.638127 -0.643408
3068.643066 2609.332520 6463.033691 -0.422871 -0.638127 -0.643408
2929.373291 2766.150635 6399.035645 -0.584224 -0.455217 -0.671908
2773.096924 2660.606689 6606.423828 -0.584224 -0.455217 -0.671908
2794.946777 2862.140869 6450.886230 -0.584224 -0.455217 -0.671908
3859.647461 3371.150635 6426.252441 -0.172176 0.984956 0.014707
3542.167725 3317.041260 6333.295898 -0.172176 0.984956 0.014707
3478.437012 3301.586914 6622.208008 -0.172176 0.984956 0.014707
3439.079346 2591.411621 6437.168945 0.172305 -0.874681 0.453039
3843.014160 2642.363037 6381.911133 0.172305 -0.874681 0.453039
3971.076904 2710.480225 6464.718262 0.172305 -0.874681 0.453039
3971.076904 2710.480225 6464.718262 0.150224 -0.804242 0.575003
3881.380615 2839.724121 6668.922363 0.150224 -0.804242 0.575003
3439.079346 2591.411621 6437.168945 0.150224 -0.804242 0.575003
3971.076904 2710.480225 6464.718262 0.959259 -0.074499 -0.272530
3993.537354 3219.452148 6404.641602 0.959259 -0.074499 -0.272530
4013.197754 2861.593506 6571.667969 0.959259 -0.074499 -0.272530
3439.079346 2591.411621 6437.168945 -0.044995 -0.997882 0.046974
2972.322510 2620.435303 6606.628418 -0.044995 -0.997882 0.046974
3068.643066 2609.332520 6463.033691 -0.044995 -0.997882 0.046974
2794.946777 2862.140869 6450.886230 -0.526339 0.743893 0.411814
3423.712158 3100.132812 6824.605469 -0.526339 0.743893 0.411814
3102.803711 3145.436523 6332.617676 -0.526339 0.743893 0.411814
4013.197754 2861.593506 6571.667969 0.548768 0.378133 0.745566
3993.537354 3219.452148 6404.641602 0.548768 0.378133 0.745566
3859.647461 3371.150635 6426.252441 0.548768 0.378133 0.745566
4013.197754 2861.593506 6571.667969 0.543575 -0.580553 0.606205
3881.380615 2839.724121 6668.922363 0.543575 -0.580553 0.606205
3971.076904 2710.480225 6464.718262 0.543575 -0.580553 0.606205
2972.322510 2620.435303 6606.628418 -0.197286 -0.978707 -0.056662
2773.096924 2660.606689 6606.423828 -0.197286 -0.978707 -0.056662
3068.643066 2609.332520 6463.033691 -0.197286 -0.978707 -0.056662
3859.647461 3371.150635 6426.252441 0.249205 0.651871 0.716213
3478.437012 3301.586914 6622.208008 0.249205 0.651871 0.716213
3423.712158 3100.132812 6824.605469 0.249205 0.651871 0.716213
3336.128174 2930.721680 6829.717285 0.198863 -0.715031 0.670212
2972.322510 2620.435303 6606.628418 0.198863 -0.715031 0.670212
3439.079346 2591.411621 6437.168945 0.198863 -0.715031 0.670212
3881.380615 2839.724121 6668.922363 0.071099 -0.745330 0.662894
3336.128174 2930.721680 6829.717285 0.071099 -0.745330 0.662894
3439.079346 2591.411621 6437.168945 0.071099 -0.745330 0.662894
4013.197754 2861.593506 6571.667969 0.509427 0.374593 0.774703
3859.647461 3371.150635 6426.252441 0.509427 0.374593 0.774703
3881.380615 2839.724121 6668.922363 0.509427 0.374593 0.774703
3881.380615 2839.724121 6668.922363 0.484207 0.379747 0.788249
3859.647461 3371.150635 6426.252441 0.484207 0.379747 0.788249
3423.712158 3100.132812 6824.605469 0.484207 0.379747 0.788249
3102.803711 3145.436523 6332.617676 -0.620124 0.633440 0.462817
3423.712158 3100.132812 6824.605469 -0.620124 0.633440 0.462817
3478.437012 3301.586914 6622.208008 -0.620124 0.633440 0.462817
2972.322510 2620.435303 6606.628418 -0.101594 -0.499461 0.860359
3336.128174 2930.721680 6829.717285 -0.101594 -0.499461 0.860359
2773.096924 2660.606689 6606.423828 -0.101594 -0.499461 0.860359
2794.946777 2862.140869 6450.886230 -0.571665 0.539240 0.618401
2773.096924 2660.606689 6606.423828 -0.571665 0.539240 0.618401
3423.712158 3100.132812 6824.605469 -0.571665 0.539240 0.618401
3423.712158 3100.132812 6824.605469 -0.462557 0.264670 0.846163
2773.096924 2660.606689 6606.423828 -0.462557 0.264670 0.846163
3336.128174 2930.721680 6829.717285 -0.462557 0.264670 0.846163
3881.380615 2839.724121 6668.922363 0.264600 -0.107880 0.958305
3423.712158 3100.132812 6824.605469 0.264600 -0.107880 0.958305
3336.128174 2930.721680 6829.717285 0.264600 -0.107880 0.958305
3 0 1 2
3 3 4 5
3 6 7 8
3 9 10 11
3 12 13 14
3 15 16 17
3 18 19 20
3 21 22 23
3 24 25 26
3 27 28 29
3 30 31 32
3 33 34 35
3 36 37 38
3 39 40 41
3 42 43 44
3 45 46 47
3 48 49 50
3 51 52 53
3 54 55 56
3 57 58 59
3 60 61 62
3 63 64 65
3 66 67 68
3 69 70 71
3 72 73 74
3 75 76 77
3 78 79 80
3 81 82 83
3 84 85 86
3 87 88 89
3 90 91 92
3 93 94 95
3 96 97 98
3 99 100 101
3 102 103 104
3 105 106 107
3 108 109 110
3 111 112 113
3 114 115 116
3 117 118 119
3 120 121 122
3 123 124 125
3 126 127 128
3 129 130 131
3 132 133 134
3 135 136 137
3 138 139 140
3 141 142 143
3 144 145 146
3 147 148 149
3 150 151 152
3 153 154 155
3 156 157 158
3 159 160 161
3 162 163 164
3 165 166 167
3 168 169 170
3 171 172 173
