ply
format ascii 1.0
comment Created by Blender 2.80 (sub 75) - www.blender.org, source file: 'downsample_ccf.blend'
element vertex 96
property float x
property float y
property float z
property float nx
property float ny
property float nz
element face 32
property list uchar uint vertex_indices
end_header
6277.353027 5208.249512 4962.804688 -0.756098 0.337786 -0.560550
6100.527832 4932.900879 5035.391113 -0.756098 0.337786 -0.560550
6126.623047 5293.731445 5217.627930 -0.756098 0.337786 -0.560550
6100.527832 4932.900879 5035.391113 0.705136 -0.565573 -0.427681
6277.353027 5208.249512 4962.804688 0.705136 -0.565573 -0.427681
6408.664551 5150.131348 5256.159668 0.705136 -0.565573 -0.427681
6862.257812 5456.799805 5242.432617 -0.184339 0.893784 -0.408863
6277.353027 5208.249512 4962.804688 -0.184339 0.893784 -0.408863
6126.623047 5293.731445 5217.627930 -0.184339 0.893784 -0.408863
6408.664551 5150.131348 5256.159668 0.430196 -0.829213 -0.356844
6277.353027 5208.249512 4962.804688 0.430196 -0.829213 -0.356844
6634.102051 5181.552246 5454.923340 0.430196 -0.829213 -0.356844
7010.809082 5334.410645 5277.142090 0.361363 0.179097 -0.915064
6277.353027 5208.249512 4962.804688 0.361363 0.179097 -0.915064
6862.257812 5456.799805 5242.432617 0.361363 0.179097 -0.915064
6277.353027 5208.249512 4962.804688 0.264418 -0.933468 -0.242323
7010.809082 5334.410645 5277.142090 0.264418 -0.933468 -0.242323
6634.102051 5181.552246 5454.923340 0.264418 -0.933468 -0.242323
6126.623047 5293.731445 5217.627930 -0.324191 -0.407682 0.853637
6100.527832 4932.900879 5035.391113 -0.324191 -0.407682 0.853637
6408.664551 5150.131348 5256.159668 -0.324191 -0.407682 0.853637
6862.257812 5456.799805 5242.432617 -0.198752 0.939202 -0.279994
6126.623047 5293.731445 5217.627930 -0.198752 0.939202 -0.279994
6769.439941 5484.428223 5400.994629 -0.198752 0.939202 -0.279994
6126.623047 5293.731445 5217.627930 -0.428124 -0.681661 0.593336
6408.664551 5150.131348 5256.159668 -0.428124 -0.681661 0.593336
6634.102051 5181.552246 5454.923340 -0.428124 -0.681661 0.593336
6974.875488 5129.059570 5466.695801 -0.077494 -0.668883 -0.739318
6634.102051 5181.552246 5454.923340 -0.077494 -0.668883 -0.739318
7010.809082 5334.410645 5277.142090 -0.077494 -0.668883 -0.739318
7010.809082 5334.410645 5277.142090 0.617376 0.779466 0.106204
6862.257812 5456.799805 5242.432617 0.617376 0.779466 0.106204
7031.470703 5294.650879 5448.843262 0.617376 0.779466 0.106204
6974.875488 5129.059570 5466.695801 0.922834 -0.335757 -0.188798
7010.809082 5334.410645 5277.142090 0.922834 -0.335757 -0.188798
7031.470703 5294.650879 5448.843262 0.922834 -0.335757 -0.188798
6634.102051 5181.552246 5454.923340 -0.345032 0.311805 0.885286
6769.439941 5484.428223 5400.994629 -0.345032 0.311805 0.885286
6126.623047 5293.731445 5217.627930 -0.345032 0.311805 0.885286
6769.439941 5484.428223 5400.994629 0.554497 0.811784 0.183139
7031.470703 5294.650879 5448.843262 0.554497 0.811784 0.183139
6862.257812 5456.799805 5242.432617 0.554497 0.811784 0.183139
7031.470703 5294.650879 5448.843262 -0.039742 0.192346 0.980522
6769.439941 5484.428223 5400.994629 -0.039742 0.192346 0.980522
6634.102051 5181.552246 5454.923340 -0.039742 0.192346 0.980522
6974.875488 5129.059570 5466.695801 -0.016931 0.112893 0.993463
7031.470703 5294.650879 5448.843262 -0.016931 0.112893 0.993463
6634.102051 5181.552246 5454.923340 -0.016931 0.112893 0.993463
7072.581543 5185.272949 5972.991699 0.191130 0.050340 -0.980273
6720.741211 5151.346680 5902.648926 0.191130 0.050340 -0.980273
6839.562012 5444.339355 5940.862305 0.191130 0.050340 -0.980273
6839.562012 5444.339355 5940.862305 -0.290616 0.238706 -0.926586
6720.741211 5151.346680 5902.648926 -0.290616 0.238706 -0.926586
6315.484375 5431.163574 6101.840332 -0.290616 0.238706 -0.926586
6938.187988 5452.621582 6125.837891 0.704990 0.584248 -0.402049
7072.581543 5185.272949 5972.991699 0.704990 0.584248 -0.402049
6839.562012 5444.339355 5940.862305 0.704990 0.584248 -0.402049
6720.741211 5151.346680 5902.648926 -0.565451 -0.262287 -0.781966
6414.323730 5191.910645 6110.618164 -0.565451 -0.262287 -0.781966
6315.484375 5431.163574 6101.840332 -0.565451 -0.262287 -0.781966
6315.484375 5431.163574 6101.840332 -0.171950 -0.106964 -0.979281
6414.323730 5191.910645 6110.618164 -0.171950 -0.106964 -0.979281
6136.927734 5266.721680 6151.154297 -0.171950 -0.106964 -0.979281
6315.484375 5431.163574 6101.840332 -0.033390 0.999080 -0.026931
6938.187988 5452.621582 6125.837891 -0.033390 0.999080 -0.026931
6839.562012 5444.339355 5940.862305 -0.033390 0.999080 -0.026931
6414.323730 5191.910645 6110.618164 0.101933 -0.937393 0.333022
6720.741211 5151.346680 5902.648926 0.101933 -0.937393 0.333022
6398.447266 5282.174805 6369.553711 0.101933 -0.937393 0.333022
6398.447266 5282.174805 6369.553711 0.695180 -0.664461 0.274254
6117.377930 5008.407715 6418.728027 0.695180 -0.664461 0.274254
6414.323730 5191.910645 6110.618164 0.695180 -0.664461 0.274254
7072.581543 5185.272949 5972.991699 0.033944 -0.956026 0.291312
6398.447266 5282.174805 6369.553711 0.033944 -0.956026 0.291312
6720.741211 5151.346680 5902.648926 0.033944 -0.956026 0.291312
6414.323730 5191.910645 6110.618164 -0.236679 -0.397131 -0.886719
6132.917480 4968.898926 6285.609375 -0.236679 -0.397131 -0.886719
6136.927734 5266.721680 6151.154297 -0.236679 -0.397131 -0.886719
6117.377930 5008.407715 6418.728027 0.696779 -0.661378 0.277631
6132.917480 4968.898926 6285.609375 0.696779 -0.661378 0.277631
6414.323730 5191.910645 6110.618164 0.696779 -0.661378 0.277631
6938.187988 5452.621582 6125.837891 0.463335 -0.252693 0.849392
6398.447266 5282.174805 6369.553711 0.463335 -0.252693 0.849392
7072.581543 5185.272949 5972.991699 0.463335 -0.252693 0.849392
6136.927734 5266.721680 6151.154297 -0.441671 0.661379 0.606221
6117.377930 5008.407715 6418.728027 -0.441671 0.661379 0.606221
6315.484375 5431.163574 6101.840332 -0.441671 0.661379 0.606221
6132.917480 4968.898926 6285.609375 -0.993792 -0.034385 -0.105805
6117.377930 5008.407715 6418.728027 -0.993792 -0.034385 -0.105805
6136.927734 5266.721680 6151.154297 -0.993792 -0.034385 -0.105805
6315.484375 5431.163574 6101.840332 -0.049013 0.866217 0.497259
6398.447266 5282.174805 6369.553711 -0.049013 0.866217 0.497259
6938.187988 5452.621582 6125.837891 -0.049013 0.866217 0.497259
6315.484375 5431.163574 6101.840332 -0.541941 0.651710 0.530636
6117.377930 5008.407715 6418.728027 -0.541941 0.651710 0.530636
6398.447266 5282.174805 6369.553711 -0.541941 0.651710 0.530636
3 0 1 2
3 3 4 5
3 6 7 8
3 9 10 11
3 12 13 14
3 15 16 17
3 18 19 20
3 21 22 23
3 24 25 26
3 27 28 29
3 30 31 32
3 33 34 35
3 36 37 38
3 39 40 41
3 42 43 44
3 45 46 47
3 48 49 50
3 51 52 53
3 54 55 56
3 57 58 59
3 60 61 62
3 63 64 65
3 66 67 68
3 69 70 71
3 72 73 74
3 75 76 77
3 78 79 80
3 81 82 83
3 84 85 86
3 87 88 89
3 90 91 92
3 93 94 95
