ply
format ascii 1.0
comment Created by Blender 2.80 (sub 75) - www.blender.org, source file: 'downsample_ccf.blend'
element vertex 180
property float x
property float y
property float z
property float nx
property float ny
property float nz
element face 60
property list uchar uint vertex_indices
end_header
7321.249512 3786.831543 5352.593262 -0.503392 0.585327 -0.635601
7190.985352 3642.625977 5322.962402 -0.503392 0.585327 -0.635601
6878.123047 3486.957031 5427.391602 -0.503392 0.585327 -0.635601
6048.901855 3569.626709 5430.575684 0.419763 0.215308 -0.881726
5602.754883 4320.078613 5401.431152 0.419763 0.215308 -0.881726
5969.741211 4352.263672 5584.001465 0.419763 0.215308 -0.881726
6588.058594 3556.625244 5550.936523 -0.235891 0.497839 -0.834573
6878.123047 3486.957031 5427.391602 -0.235891 0.497839 -0.834573
6392.270996 3408.877930 5518.141602 -0.235891 0.497839 -0.834573
7321.249512 3786.831543 5352.593262 0.560677 -0.352520 -0.749247
7261.902832 3272.129395 5550.349609 0.560677 -0.352520 -0.749247
7190.985352 3642.625977 5322.962402 0.560677 -0.352520 -0.749247
7321.249512 3786.831543 5352.593262 -0.567892 0.760854 -0.314007
6878.123047 3486.957031 5427.391602 -0.567892 0.760854 -0.314007
7398.652344 3925.352783 5548.251465 -0.567892 0.760854 -0.314007
5548.318848 4552.899414 5470.993652 -0.202790 0.236498 -0.950234
5795.828613 4913.814941 5507.998535 -0.202790 0.236498 -0.950234
5602.754883 4320.078613 5401.431152 -0.202790 0.236498 -0.950234
5795.828613 4913.814941 5507.998535 -0.010659 0.109221 -0.993960
5548.318848 4552.899414 5470.993652 -0.010659 0.109221 -0.993960
5618.829102 4969.273926 5515.990723 -0.010659 0.109221 -0.993960
7261.902832 3272.129395 5550.349609 -0.022056 -0.526014 -0.850190
6878.123047 3486.957031 5427.391602 -0.022056 -0.526014 -0.850190
7190.985352 3642.625977 5322.962402 -0.022056 -0.526014 -0.850190
6048.901855 3569.626709 5430.575684 -0.417999 -0.908022 -0.027814
6392.270996 3408.877930 5518.141602 -0.417999 -0.908022 -0.027814
6168.024414 3500.409180 5900.045410 -0.417999 -0.908022 -0.027814
7321.249512 3786.831543 5352.593262 0.643791 -0.337997 -0.686507
7454.238770 3543.844238 5596.940918 0.643791 -0.337997 -0.686507
7261.902832 3272.129395 5550.349609 0.643791 -0.337997 -0.686507
6588.058594 3556.625244 5550.936523 -0.008730 0.227696 -0.973693
6392.270996 3408.877930 5518.141602 -0.008730 0.227696 -0.973693
6332.879395 3803.170166 5610.878418 -0.008730 0.227696 -0.973693
6332.879395 3803.170166 5610.878418 0.468331 0.268524 -0.841760
6392.270996 3408.877930 5518.141602 0.468331 0.268524 -0.841760
5969.741211 4352.263672 5584.001465 0.468331 0.268524 -0.841760
6048.901855 3569.626709 5430.575684 0.334166 0.213753 -0.917956
5969.741211 4352.263672 5584.001465 0.334166 0.213753 -0.917956
6392.270996 3408.877930 5518.141602 0.334166 0.213753 -0.917956
7321.249512 3786.831543 5352.593262 0.906524 0.079161 -0.414667
7398.652344 3925.352783 5548.251465 0.906524 0.079161 -0.414667
7454.238770 3543.844238 5596.940918 0.906524 0.079161 -0.414667
5969.741211 4352.263672 5584.001465 0.444204 0.016331 -0.895777
5602.754883 4320.078613 5401.431152 0.444204 0.016331 -0.895777
5795.828613 4913.814941 5507.998535 0.444204 0.016331 -0.895777
7261.902832 3272.129395 5550.349609 -0.060122 -0.574583 -0.816235
6392.270996 3408.877930 5518.141602 -0.060122 -0.574583 -0.816235
6878.123047 3486.957031 5427.391602 -0.060122 -0.574583 -0.816235
5925.508789 4819.223145 5692.344238 0.846493 0.195115 -0.495358
5969.741211 4352.263672 5584.001465 0.846493 0.195115 -0.495358
5795.828613 4913.814941 5507.998535 0.846493 0.195115 -0.495358
7261.902832 3272.129395 5550.349609 0.819703 -0.569090 -0.064992
7454.238770 3543.844238 5596.940918 0.819703 -0.569090 -0.064992
7287.793945 3279.087158 5815.974121 0.819703 -0.569090 -0.064992
7398.652344 3925.352783 5548.251465 -0.644240 0.764823 0.000418
6878.123047 3486.957031 5427.391602 -0.644240 0.764823 0.000418
7377.128418 3907.041992 5878.016113 -0.644240 0.764823 0.000418
6048.901855 3569.626709 5430.575684 -0.652328 -0.756006 0.054057
6168.024414 3500.409180 5900.045410 -0.652328 -0.756006 0.054057
5998.559570 3651.397217 5966.663574 -0.652328 -0.756006 0.054057
6332.879395 3803.170166 5610.878418 0.680783 0.726790 -0.091168
6419.131836 3738.349121 5738.202637 0.680783 0.726790 -0.091168
6588.058594 3556.625244 5550.936523 0.680783 0.726790 -0.091168
6588.058594 3556.625244 5550.936523 0.172854 0.780195 -0.601179
6419.131836 3738.349121 5738.202637 0.172854 0.780195 -0.601179
6821.049805 3645.616699 5733.417969 0.172854 0.780195 -0.601179
6588.058594 3556.625244 5550.936523 0.018699 0.889045 -0.457439
6821.049805 3645.616699 5733.417969 0.018699 0.889045 -0.457439
6878.123047 3486.957031 5427.391602 0.018699 0.889045 -0.457439
6878.123047 3486.957031 5427.391602 -0.266828 0.834358 -0.482337
6821.049805 3645.616699 5733.417969 -0.266828 0.834358 -0.482337
7377.128418 3907.041992 5878.016113 -0.266828 0.834358 -0.482337
5554.168457 4405.258301 5947.230469 -0.859620 -0.510923 0.003214
5602.754883 4320.078613 5401.431152 -0.859620 -0.510923 0.003214
6048.901855 3569.626709 5430.575684 -0.859620 -0.510923 0.003214
6678.673828 3315.247559 5807.742676 -0.146949 -0.974473 -0.169729
6392.270996 3408.877930 5518.141602 -0.146949 -0.974473 -0.169729
7261.902832 3272.129395 5550.349609 -0.146949 -0.974473 -0.169729
5717.366211 4957.490234 5879.471191 0.296593 0.953721 -0.049486
5795.828613 4913.814941 5507.998535 0.296593 0.953721 -0.049486
5618.829102 4969.273926 5515.990723 0.296593 0.953721 -0.049486
7454.238770 3543.844238 5596.940918 0.879997 -0.462003 0.110268
7438.687500 3579.823975 5871.797363 0.879997 -0.462003 0.110268
7287.793945 3279.087158 5815.974121 0.879997 -0.462003 0.110268
7454.238770 3543.844238 5596.940918 0.988219 0.148638 0.036456
7398.652344 3925.352783 5548.251465 0.988219 0.148638 0.036456
7438.687500 3579.823975 5871.797363 0.988219 0.148638 0.036456
5972.279297 4360.465820 5799.392090 0.834392 0.550311 -0.030788
6332.879395 3803.170166 5610.878418 0.834392 0.550311 -0.030788
5969.741211 4352.263672 5584.001465 0.834392 0.550311 -0.030788
5602.754883 4320.078613 5401.431152 -0.975772 -0.212082 -0.053764
5554.168457 4405.258301 5947.230469 -0.975772 -0.212082 -0.053764
5548.318848 4552.899414 5470.993652 -0.975772 -0.212082 -0.053764
5925.508789 4819.223145 5692.344238 0.567508 0.823044 0.023101
5795.828613 4913.814941 5507.998535 0.567508 0.823044 0.023101
5717.366211 4957.490234 5879.471191 0.567508 0.823044 0.023101
6392.270996 3408.877930 5518.141602 -0.336241 -0.941354 0.028181
6678.673828 3315.247559 5807.742676 -0.336241 -0.941354 0.028181
6168.024414 3500.409180 5900.045410 -0.336241 -0.941354 0.028181
5972.279297 4360.465820 5799.392090 0.995082 0.097843 -0.015452
5969.741211 4352.263672 5584.001465 0.995082 0.097843 -0.015452
5925.508789 4819.223145 5692.344238 0.995082 0.097843 -0.015452
5554.168457 4405.258301 5947.230469 -0.999479 0.025254 0.020106
5565.598145 4930.812500 5855.291992 -0.999479 0.025254 0.020106
5548.318848 4552.899414 5470.993652 -0.999479 0.025254 0.020106
5548.318848 4552.899414 5470.993652 -0.974799 0.179405 -0.132594
5565.598145 4930.812500 5855.291992 -0.974799 0.179405 -0.132594
5618.829102 4969.273926 5515.990723 -0.974799 0.179405 -0.132594
7261.902832 3272.129395 5550.349609 -0.059661 -0.997707 0.031949
7287.793945 3279.087158 5815.974121 -0.059661 -0.997707 0.031949
6678.673828 3315.247559 5807.742676 -0.059661 -0.997707 0.031949
6332.879395 3803.170166 5610.878418 0.779240 0.582465 -0.231342
5972.279297 4360.465820 5799.392090 0.779240 0.582465 -0.231342
6419.131836 3738.349121 5738.202637 0.779240 0.582465 -0.231342
5998.559570 3651.397217 5966.663574 -0.861419 -0.507883 -0.003425
5554.168457 4405.258301 5947.230469 -0.861419 -0.507883 -0.003425
6048.901855 3569.626709 5430.575684 -0.861419 -0.507883 -0.003425
5618.829102 4969.273926 5515.990723 -0.185194 0.979279 0.081952
5565.598145 4930.812500 5855.291992 -0.185194 0.979279 0.081952
5717.366211 4957.490234 5879.471191 -0.185194 0.979279 0.081952
6821.049805 3645.616699 5733.417969 -0.466882 0.681207 0.563896
7085.874023 3575.049561 6037.928711 -0.466882 0.681207 0.563896
7377.128418 3907.041992 5878.016113 -0.466882 0.681207 0.563896
7377.128418 3907.041992 5878.016113 -0.626044 0.707334 0.328250
7085.874023 3575.049561 6037.928711 -0.626044 0.707334 0.328250
7319.237305 3789.356689 6021.200684 -0.626044 0.707334 0.328250
7438.687500 3579.823975 5871.797363 0.980310 0.183015 0.074148
7398.652344 3925.352783 5548.251465 0.980310 0.183015 0.074148
7377.128418 3907.041992 5878.016113 0.980310 0.183015 0.074148
6168.024414 3500.409180 5900.045410 0.071070 0.508627 0.858049
6689.042480 3418.193115 5905.625977 0.071070 0.508627 0.858049
6419.131836 3738.349121 5738.202637 0.071070 0.508627 0.858049
5925.508789 4819.223145 5692.344238 0.729835 0.225035 0.645523
5717.366211 4957.490234 5879.471191 0.729835 0.225035 0.645523
5972.279297 4360.465820 5799.392090 0.729835 0.225035 0.645523
6689.042480 3418.193115 5905.625977 -0.050510 -0.685508 0.726311
6678.673828 3315.247559 5807.742676 -0.050510 -0.685508 0.726311
7287.793945 3279.087158 5815.974121 -0.050510 -0.685508 0.726311
6689.042480 3418.193115 5905.625977 -0.114824 -0.678408 0.725657
6168.024414 3500.409180 5900.045410 -0.114824 -0.678408 0.725657
6678.673828 3315.247559 5807.742676 -0.114824 -0.678408 0.725657
6821.049805 3645.616699 5733.417969 0.135972 0.546697 0.826217
6419.131836 3738.349121 5738.202637 0.135972 0.546697 0.826217
6689.042480 3418.193115 5905.625977 0.135972 0.546697 0.826217
6419.131836 3738.349121 5738.202637 0.429477 0.222396 0.875265
5972.279297 4360.465820 5799.392090 0.429477 0.222396 0.875265
5998.559570 3651.397217 5966.663574 0.429477 0.222396 0.875265
6689.042480 3418.193115 5905.625977 -0.023065 -0.609835 0.792193
7287.793945 3279.087158 5815.974121 -0.023065 -0.609835 0.792193
7085.874023 3575.049561 6037.928711 -0.023065 -0.609835 0.792193
6689.042480 3418.193115 5905.625977 -0.459256 0.690101 0.559325
7085.874023 3575.049561 6037.928711 -0.459256 0.690101 0.559325
6821.049805 3645.616699 5733.417969 -0.459256 0.690101 0.559325
6168.024414 3500.409180 5900.045410 0.454464 0.120683 0.882552
6419.131836 3738.349121 5738.202637 0.454464 0.120683 0.882552
5998.559570 3651.397217 5966.663574 0.454464 0.120683 0.882552
5717.366211 4957.490234 5879.471191 0.334898 0.016627 0.942108
5554.168457 4405.258301 5947.230469 0.334898 0.016627 0.942108
5972.279297 4360.465820 5799.392090 0.334898 0.016627 0.942108
7438.687500 3579.823975 5871.797363 0.401732 -0.358023 0.842871
7085.874023 3575.049561 6037.928711 0.401732 -0.358023 0.842871
7287.793945 3279.087158 5815.974121 0.401732 -0.358023 0.842871
5972.279297 4360.465820 5799.392090 0.338423 0.471808 0.814166
5554.168457 4405.258301 5947.230469 0.338423 0.471808 0.814166
5641.273926 4273.796875 5987.205078 0.338423 0.471808 0.814166
5717.366211 4957.490234 5879.471191 -0.184581 0.173252 0.967426
5565.598145 4930.812500 5855.291992 -0.184581 0.173252 0.967426
5554.168457 4405.258301 5947.230469 -0.184581 0.173252 0.967426
7377.128418 3907.041992 5878.016113 0.865666 0.153802 0.476411
7319.237305 3789.356689 6021.200684 0.865666 0.153802 0.476411
7438.687500 3579.823975 5871.797363 0.865666 0.153802 0.476411
5998.559570 3651.397217 5966.663574 -0.842582 -0.490985 0.221337
5641.273926 4273.796875 5987.205078 -0.842582 -0.490985 0.221337
5554.168457 4405.258301 5947.230469 -0.842582 -0.490985 0.221337
5998.559570 3651.397217 5966.663574 0.436608 0.221858 0.871867
5972.279297 4360.465820 5799.392090 0.436608 0.221858 0.871867
5641.273926 4273.796875 5987.205078 0.436608 0.221858 0.871867
7319.237305 3789.356689 6021.200684 0.399874 -0.369975 0.838582
7085.874023 3575.049561 6037.928711 0.399874 -0.369975 0.838582
7438.687500 3579.823975 5871.797363 0.399874 -0.369975 0.838582
3 0 1 2
3 3 4 5
3 6 7 8
3 9 10 11
3 12 13 14
3 15 16 17
3 18 19 20
3 21 22 23
3 24 25 26
3 27 28 29
3 30 31 32
3 33 34 35
3 36 37 38
3 39 40 41
3 42 43 44
3 45 46 47
3 48 49 50
3 51 52 53
3 54 55 56
3 57 58 59
3 60 61 62
3 63 64 65
3 66 67 68
3 69 70 71
3 72 73 74
3 75 76 77
3 78 79 80
3 81 82 83
3 84 85 86
3 87 88 89
3 90 91 92
3 93 94 95
3 96 97 98
3 99 100 101
3 102 103 104
3 105 106 107
3 108 109 110
3 111 112 113
3 114 115 116
3 117 118 119
3 120 121 122
3 123 124 125
3 126 127 128
3 129 130 131
3 132 133 134
3 135 136 137
3 138 139 140
3 141 142 143
3 144 145 146
3 147 148 149
3 150 151 152
3 153 154 155
3 156 157 158
3 159 160 161
3 162 163 164
3 165 166 167
3 168 169 170
3 171 172 173
3 174 175 176
3 177 178 179
