ply
format ascii 1.0
comment Created by Blender 2.80 (sub 75) - www.blender.org, source file: 'downsample_ccf.blend'
element vertex 78
property float x
property float y
property float z
property float nx
property float ny
property float nz
element face 26
property list uchar uint vertex_indices
end_header
9823.720703 6047.769531 5638.260742 0.021596 0.010492 -0.999712
9706.255859 6307.968750 5638.454102 0.021596 0.010492 -0.999712
9997.526367 6630.450195 5648.130859 0.021596 0.010492 -0.999712
11266.599609 6341.848633 5693.721680 0.044331 -0.116974 -0.992145
10257.946289 6202.270996 5665.108887 0.044331 -0.116974 -0.992145
11306.560547 6884.705078 5631.504395 0.044331 -0.116974 -0.992145
11306.560547 6884.705078 5631.504395 0.164545 -0.299120 -0.939921
10257.946289 6202.270996 5665.108887 0.164545 -0.299120 -0.939921
9823.720703 6047.769531 5638.260742 0.164545 -0.299120 -0.939921
11306.560547 6884.705078 5631.504395 -0.016968 0.021994 -0.999614
9823.720703 6047.769531 5638.260742 -0.016968 0.021994 -0.999614
9997.526367 6630.450195 5648.130859 -0.016968 0.021994 -0.999614
11178.898438 7065.989746 5693.906738 -0.337769 0.930836 -0.139489
9997.526367 6630.450195 5648.130859 -0.337769 0.930836 -0.139489
10606.094727 6860.272949 5708.148926 -0.337769 0.930836 -0.139489
11178.898438 7065.989746 5693.906738 -0.066978 0.282255 -0.956999
11306.560547 6884.705078 5631.504395 -0.066978 0.282255 -0.956999
9997.526367 6630.450195 5648.130859 -0.066978 0.282255 -0.956999
9823.720703 6047.769531 5638.260742 0.304862 -0.756201 -0.578981
10257.946289 6202.270996 5665.108887 0.304862 -0.756201 -0.578981
9903.256836 6024.205566 5710.916992 0.304862 -0.756201 -0.578981
10383.763672 6237.131836 5719.297363 0.120691 -0.938490 0.323529
10257.946289 6202.270996 5665.108887 0.120691 -0.938490 0.323529
11266.599609 6341.848633 5693.721680 0.120691 -0.938490 0.323529
9706.255859 6307.968750 5638.454102 -0.626488 0.581431 -0.519087
9721.427734 6406.765137 5730.805176 -0.626488 0.581431 -0.519087
9997.526367 6630.450195 5648.130859 -0.626488 0.581431 -0.519087
10606.094727 6860.272949 5708.148926 -0.060920 0.400120 -0.914436
9997.526367 6630.450195 5648.130859 -0.060920 0.400120 -0.914436
10149.480469 6769.524414 5698.860840 -0.060920 0.400120 -0.914436
9706.255859 6307.968750 5638.454102 -0.813534 -0.366928 -0.451138
9823.720703 6047.769531 5638.260742 -0.813534 -0.366928 -0.451138
9753.432617 6087.277344 5732.877441 -0.813534 -0.366928 -0.451138
11266.599609 6341.848633 5693.721680 0.947962 -0.104260 -0.300830
11306.560547 6884.705078 5631.504395 0.947962 -0.104260 -0.300830
11334.319336 6950.067383 5696.323730 0.947962 -0.104260 -0.300830
11178.898438 7065.989746 5693.906738 0.417342 0.544372 -0.727658
11334.319336 6950.067383 5696.323730 0.417342 0.544372 -0.727658
11306.560547 6884.705078 5631.504395 0.417342 0.544372 -0.727658
9823.720703 6047.769531 5638.260742 -0.372162 -0.921811 0.108439
9903.256836 6024.205566 5710.916992 -0.372162 -0.921811 0.108439
9753.432617 6087.277344 5732.877441 -0.372162 -0.921811 0.108439
9753.432617 6087.277344 5732.877441 -0.961200 -0.094608 0.259121
9721.427734 6406.765137 5730.805176 -0.961200 -0.094608 0.259121
9706.255859 6307.968750 5638.454102 -0.961200 -0.094608 0.259121
11266.599609 6341.848633 5693.721680 0.961538 -0.108139 0.252490
11334.319336 6950.067383 5696.323730 0.961538 -0.108139 0.252490
11298.381836 6770.023438 5756.070801 0.961538 -0.108139 0.252490
10257.946289 6202.270996 5665.108887 0.385411 -0.856208 -0.344044
10383.763672 6237.131836 5719.297363 0.385411 -0.856208 -0.344044
9903.256836 6024.205566 5710.916992 0.385411 -0.856208 -0.344044
9997.526367 6630.450195 5648.130859 -0.646873 0.752313 -0.124823
9721.427734 6406.765137 5730.805176 -0.646873 0.752313 -0.124823
10149.480469 6769.524414 5698.860840 -0.646873 0.752313 -0.124823
11298.381836 6770.023438 5756.070801 0.190290 0.274780 0.942489
11334.319336 6950.067383 5696.323730 0.190290 0.274780 0.942489
11178.898438 7065.989746 5693.906738 0.190290 0.274780 0.942489
11178.898438 7065.989746 5693.906738 -0.043331 0.188575 0.981102
10606.094727 6860.272949 5708.148926 -0.043331 0.188575 0.981102
11298.381836 6770.023438 5756.070801 -0.043331 0.188575 0.981102
9903.256836 6024.205566 5710.916992 0.065360 -0.186082 0.980358
10383.763672 6237.131836 5719.297363 0.065360 -0.186082 0.980358
9753.432617 6087.277344 5732.877441 0.065360 -0.186082 0.980358
10383.763672 6237.131836 5719.297363 0.062980 -0.175888 0.982393
11298.381836 6770.023438 5756.070801 0.062980 -0.175888 0.982393
9753.432617 6087.277344 5732.877441 0.062980 -0.175888 0.982393
11298.381836 6770.023438 5756.070801 -0.017118 0.004770 0.999842
9721.427734 6406.765137 5730.805176 -0.017118 0.004770 0.999842
9753.432617 6087.277344 5732.877441 -0.017118 0.004770 0.999842
11266.599609 6341.848633 5693.721680 0.046094 -0.147293 0.988018
11298.381836 6770.023438 5756.070801 0.046094 -0.147293 0.988018
10383.763672 6237.131836 5719.297363 0.046094 -0.147293 0.988018
11298.381836 6770.023438 5756.070801 -0.049400 0.145729 0.988090
10606.094727 6860.272949 5708.148926 -0.049400 0.145729 0.988090
9721.427734 6406.765137 5730.805176 -0.049400 0.145729 0.988090
10606.094727 6860.272949 5708.148926 -0.048856 0.144676 0.988272
10149.480469 6769.524414 5698.860840 -0.048856 0.144676 0.988272
9721.427734 6406.765137 5730.805176 -0.048856 0.144676 0.988272
3 0 1 2
3 3 4 5
3 6 7 8
3 9 10 11
3 12 13 14
3 15 16 17
3 18 19 20
3 21 22 23
3 24 25 26
3 27 28 29
3 30 31 32
3 33 34 35
3 36 37 38
3 39 40 41
3 42 43 44
3 45 46 47
3 48 49 50
3 51 52 53
3 54 55 56
3 57 58 59
3 60 61 62
3 63 64 65
3 66 67 68
3 69 70 71
3 72 73 74
3 75 76 77
