ply
format ascii 1.0
comment Created by Blender 2.80 (sub 75) - www.blender.org, source file: 'downsample_ccf.blend'
element vertex 42
property float x
property float y
property float z
property float nx
property float ny
property float nz
element face 14
property list uchar uint vertex_indices
end_header
11814.395508 6721.260254 5684.677246 0.105627 0.351446 -0.930230
11386.524414 6771.142578 5654.938477 0.105627 0.351446 -0.930230
11408.923828 6873.917969 5696.311035 0.105627 0.351446 -0.930230
12544.425781 6415.898438 5662.363281 -0.022002 -0.092520 -0.995468
11461.610352 6327.235840 5694.536133 -0.022002 -0.092520 -0.995468
11386.524414 6771.142578 5654.938477 -0.022002 -0.092520 -0.995468
12712.573242 6334.982422 5694.455078 0.182936 -0.009745 -0.983077
12544.425781 6415.898438 5662.363281 0.182936 -0.009745 -0.983077
12774.396484 6568.713379 5703.642578 0.182936 -0.009745 -0.983077
12544.425781 6415.898438 5662.363281 0.030857 0.217115 -0.975658
12368.218750 6548.782227 5686.361328 0.030857 0.217115 -0.975658
12774.396484 6568.713379 5703.642578 0.030857 0.217115 -0.975658
12368.218750 6548.782227 5686.361328 0.095892 0.298636 -0.949537
12544.425781 6415.898438 5662.363281 0.095892 0.298636 -0.949537
11814.395508 6721.260254 5684.677246 0.095892 0.298636 -0.949537
11814.395508 6721.260254 5684.677246 0.102135 0.313171 -0.944189
12544.425781 6415.898438 5662.363281 0.102135 0.313171 -0.944189
11386.524414 6771.142578 5654.938477 0.102135 0.313171 -0.944189
12544.425781 6415.898438 5662.363281 0.002198 -0.364718 -0.931115
12712.573242 6334.982422 5694.455078 0.002198 -0.364718 -0.931115
11461.610352 6327.235840 5694.536133 0.002198 -0.364718 -0.931115
11474.091797 6646.746582 5734.326660 -0.715066 -0.058815 0.696578
11386.524414 6771.142578 5654.938477 -0.715066 -0.058815 0.696578
11461.610352 6327.235840 5694.536133 -0.715066 -0.058815 0.696578
12712.573242 6334.982422 5694.455078 0.000830 -0.123613 0.992330
11474.091797 6646.746582 5734.326660 0.000830 -0.123613 0.992330
11461.610352 6327.235840 5694.536133 0.000830 -0.123613 0.992330
12712.573242 6334.982422 5694.455078 0.020881 -0.044783 0.998779
12774.396484 6568.713379 5703.642578 0.020881 -0.044783 0.998779
11474.091797 6646.746582 5734.326660 0.020881 -0.044783 0.998779
12774.396484 6568.713379 5703.642578 0.010937 0.518464 -0.855030
12368.218750 6548.782227 5686.361328 0.010937 0.518464 -0.855030
11474.091797 6646.746582 5734.326660 0.010937 0.518464 -0.855030
12368.218750 6548.782227 5686.361328 0.137924 0.434178 -0.890206
11814.395508 6721.260254 5684.677246 0.137924 0.434178 -0.890206
11408.923828 6873.917969 5696.311035 0.137924 0.434178 -0.890206
11408.923828 6873.917969 5696.311035 -0.744559 -0.103222 0.659528
11386.524414 6771.142578 5654.938477 -0.744559 -0.103222 0.659528
11474.091797 6646.746582 5734.326660 -0.744559 -0.103222 0.659528
12368.218750 6548.782227 5686.361328 0.072833 0.184899 0.980055
11408.923828 6873.917969 5696.311035 0.072833 0.184899 0.980055
11474.091797 6646.746582 5734.326660 0.072833 0.184899 0.980055
3 0 1 2
3 3 4 5
3 6 7 8
3 9 10 11
3 12 13 14
3 15 16 17
3 18 19 20
3 21 22 23
3 24 25 26
3 27 28 29
3 30 31 32
3 33 34 35
3 36 37 38
3 39 40 41
