ply
format ascii 1.0
comment Created by Blender 2.80 (sub 75) - www.blender.org, source file: 'downsample_ccf.blend'
element vertex 300
property float x
property float y
property float z
property float nx
property float ny
property float nz
element face 100
property list uchar uint vertex_indices
end_header
9799.710938 1604.234985 3417.291016 0.944941 -0.246453 -0.215283
9811.570312 1969.181763 3051.559326 0.944941 -0.246453 -0.215283
9833.942383 1877.014160 3255.269043 0.944941 -0.246453 -0.215283
9675.067383 2039.401611 3135.949707 0.496500 0.774202 0.392554
9669.085938 1968.155640 3284.027588 0.496500 0.774202 0.392554
9833.942383 1877.014160 3255.269043 0.496500 0.774202 0.392554
9675.067383 2039.401611 3135.949707 0.571953 0.769121 0.285172
9833.942383 1877.014160 3255.269043 0.571953 0.769121 0.285172
9811.570312 1969.181763 3051.559326 0.571953 0.769121 0.285172
9811.570312 1969.181763 3051.559326 -0.196405 -0.690887 -0.695773
9799.710938 1604.234985 3417.291016 -0.196405 -0.690887 -0.695773
9436.589844 1457.294434 3665.702637 -0.196405 -0.690887 -0.695773
9729.512695 1551.562378 3574.886475 0.431929 0.557590 0.708894
9833.942383 1877.014160 3255.269043 0.431929 0.557590 0.708894
9669.085938 1968.155640 3284.027588 0.431929 0.557590 0.708894
9811.570312 1969.181763 3051.559326 -0.619276 -0.374389 -0.690167
9436.589844 1457.294434 3665.702637 -0.619276 -0.374389 -0.690167
9675.067383 2039.401611 3135.949707 -0.619276 -0.374389 -0.690167
9436.589844 1457.294434 3665.702637 -0.811689 0.538473 0.226293
9669.085938 1968.155640 3284.027588 -0.811689 0.538473 0.226293
9675.067383 2039.401611 3135.949707 -0.811689 0.538473 0.226293
9729.512695 1551.562378 3574.886475 0.882658 0.153168 0.444358
9799.710938 1604.234985 3417.291016 0.882658 0.153168 0.444358
9833.942383 1877.014160 3255.269043 0.882658 0.153168 0.444358
9729.512695 1551.562378 3574.886475 0.066339 0.577653 0.813582
9669.085938 1968.155640 3284.027588 0.066339 0.577653 0.813582
9436.589844 1457.294434 3665.702637 0.066339 0.577653 0.813582
9799.710938 1604.234985 3417.291016 -0.259614 -0.615903 -0.743817
9258.772461 1213.996460 3929.224609 -0.259614 -0.615903 -0.743817
9436.589844 1457.294434 3665.702637 -0.259614 -0.615903 -0.743817
9799.710938 1604.234985 3417.291016 0.263684 -0.827090 -0.496379
9467.459961 1170.950806 3962.752441 0.263684 -0.827090 -0.496379
9355.019531 1080.217407 4054.206543 0.263684 -0.827090 -0.496379
9799.710938 1604.234985 3417.291016 0.900506 -0.320353 0.294045
9729.512695 1551.562378 3574.886475 0.900506 -0.320353 0.294045
9467.459961 1170.950806 3962.752441 0.900506 -0.320353 0.294045
9355.019531 1080.217407 4054.206543 -0.121945 -0.723009 -0.679991
9258.772461 1213.996460 3929.224609 -0.121945 -0.723009 -0.679991
9799.710938 1604.234985 3417.291016 -0.121945 -0.723009 -0.679991
9436.589844 1457.294434 3665.702637 -0.033540 0.745503 0.665658
9258.772461 1213.996460 3929.224609 -0.033540 0.745503 0.665658
9729.512695 1551.562378 3574.886475 -0.033540 0.745503 0.665658
9467.459961 1170.950806 3962.752441 0.030825 0.702921 0.710600
9729.512695 1551.562378 3574.886475 0.030825 0.702921 0.710600
9258.772461 1213.996460 3929.224609 0.030825 0.702921 0.710600
9258.772461 1213.996460 3929.224609 -0.178042 -0.737115 -0.651891
9355.019531 1080.217407 4054.206543 -0.178042 -0.737115 -0.651891
8968.352539 1090.250000 4148.467285 -0.178042 -0.737115 -0.651891
8968.352539 1090.250000 4148.467285 0.078179 0.820303 0.566561
9467.459961 1170.950806 3962.752441 0.078179 0.820303 0.566561
9258.772461 1213.996460 3929.224609 0.078179 0.820303 0.566561
9355.019531 1080.217407 4054.206543 -0.203615 -0.603368 -0.771030
8616.238281 959.685120 4343.627441 -0.203615 -0.603368 -0.771030
8968.352539 1090.250000 4148.467285 -0.203615 -0.603368 -0.771030
8926.955078 823.964661 4499.719238 0.753025 -0.485189 0.444460
9355.019531 1080.217407 4054.206543 0.753025 -0.485189 0.444460
9467.459961 1170.950806 3962.752441 0.753025 -0.485189 0.444460
8622.321289 878.985046 4345.154785 0.066641 -0.891244 -0.448601
9355.019531 1080.217407 4054.206543 0.066641 -0.891244 -0.448601
8926.955078 823.964661 4499.719238 0.066641 -0.891244 -0.448601
9355.019531 1080.217407 4054.206543 -0.358076 -0.044642 -0.932624
8622.321289 878.985046 4345.154785 -0.358076 -0.044642 -0.932624
8616.238281 959.685120 4343.627441 -0.358076 -0.044642 -0.932624
8968.352539 1090.250000 4148.467285 -0.548799 0.579595 -0.602404
8616.238281 959.685120 4343.627441 -0.548799 0.579595 -0.602404
8454.756836 940.437561 4472.220703 -0.548799 0.579595 -0.602404
8454.756836 940.437561 4472.220703 0.022866 0.892991 0.449493
9467.459961 1170.950806 3962.752441 0.022866 0.892991 0.449493
8968.352539 1090.250000 4148.467285 0.022866 0.892991 0.449493
8454.756836 940.437561 4472.220703 0.149137 0.755296 0.638190
8926.955078 823.964661 4499.719238 0.149137 0.755296 0.638190
9467.459961 1170.950806 3962.752441 0.149137 0.755296 0.638190
8622.321289 878.985046 4345.154785 -0.121147 -0.027911 -0.992242
8174.289551 993.595520 4396.632812 -0.121147 -0.027911 -0.992242
8616.238281 959.685120 4343.627441 -0.121147 -0.027911 -0.992242
7265.961426 961.267578 4430.960938 -0.051085 0.181939 -0.981982
7171.247559 1137.798218 4468.595215 -0.051085 0.181939 -0.981982
8622.321289 878.985046 4345.154785 -0.051085 0.181939 -0.981982
8622.321289 878.985046 4345.154785 -0.015276 0.359375 -0.933068
7171.247559 1137.798218 4468.595215 -0.015276 0.359375 -0.933068
8174.289551 993.595520 4396.632812 -0.015276 0.359375 -0.933068
8622.321289 878.985046 4345.154785 -0.084934 -0.838044 -0.538951
8287.885742 781.321838 4549.721191 -0.084934 -0.838044 -0.538951
7265.961426 961.267578 4430.960938 -0.084934 -0.838044 -0.538951
8616.238281 959.685120 4343.627441 0.106460 0.955059 0.276638
8174.289551 993.595520 4396.632812 0.106460 0.955059 0.276638
8454.756836 940.437561 4472.220703 0.106460 0.955059 0.276638
6418.601074 1183.866333 4623.242676 -0.194077 0.103832 -0.975476
7171.247559 1137.798218 4468.595215 -0.194077 0.103832 -0.975476
7265.961426 961.267578 4430.960938 -0.194077 0.103832 -0.975476
8287.885742 781.321838 4549.721191 0.031012 -0.920763 -0.388887
8622.321289 878.985046 4345.154785 0.031012 -0.920763 -0.388887
8926.955078 823.964661 4499.719238 0.031012 -0.920763 -0.388887
8174.289551 993.595520 4396.632812 0.142591 0.989773 0.004118
7171.247559 1137.798218 4468.595215 0.142591 0.989773 0.004118
7152.859863 1139.600098 4672.207031 0.142591 0.989773 0.004118
8454.756836 940.437561 4472.220703 0.163407 0.982898 0.084916
8174.289551 993.595520 4396.632812 0.163407 0.982898 0.084916
7152.859863 1139.600098 4672.207031 0.163407 0.982898 0.084916
7171.247559 1137.798218 4468.595215 -0.187140 0.182669 -0.965200
6418.601074 1183.866333 4623.242676 -0.187140 0.182669 -0.965200
6491.929688 1379.409912 4646.032715 -0.187140 0.182669 -0.965200
8287.885742 781.321838 4549.721191 -0.144786 -0.965398 -0.216896
7075.492676 931.495483 4690.620117 -0.144786 -0.965398 -0.216896
7265.961426 961.267578 4430.960938 -0.144786 -0.965398 -0.216896
8926.955078 823.964661 4499.719238 0.152331 0.765239 0.625464
8454.756836 940.437561 4472.220703 0.152331 0.765239 0.625464
7953.821289 937.620789 4597.668945 0.152331 0.765239 0.625464
7152.859863 1139.600098 4672.207031 0.206286 0.509825 0.835180
7953.821289 937.620789 4597.668945 0.206286 0.509825 0.835180
8454.756836 940.437561 4472.220703 0.206286 0.509825 0.835180
7953.821289 937.620789 4597.668945 0.085440 -0.120779 0.988996
8287.885742 781.321838 4549.721191 0.085440 -0.120779 0.988996
8926.955078 823.964661 4499.719238 0.085440 -0.120779 0.988996
6721.569336 982.883057 4743.873047 -0.174488 -0.955574 -0.237557
7265.961426 961.267578 4430.960938 -0.174488 -0.955574 -0.237557
7075.492676 931.495483 4690.620117 -0.174488 -0.955574 -0.237557
6418.601074 1183.866333 4623.242676 -0.324969 -0.796191 -0.510368
7265.961426 961.267578 4430.960938 -0.324969 -0.796191 -0.510368
6721.569336 982.883057 4743.873047 -0.324969 -0.796191 -0.510368
7171.247559 1137.798218 4468.595215 0.340209 0.940083 0.022404
6491.929688 1379.409912 4646.032715 0.340209 0.940083 0.022404
7152.859863 1139.600098 4672.207031 0.340209 0.940083 0.022404
6418.601074 1183.866333 4623.242676 -0.914148 0.363677 -0.179090
6347.228027 1116.460693 4850.679199 -0.914148 0.363677 -0.179090
6491.929688 1379.409912 4646.032715 -0.914148 0.363677 -0.179090
7075.492676 931.495483 4690.620117 0.105456 -0.078706 0.991304
8287.885742 781.321838 4549.721191 0.105456 -0.078706 0.991304
7953.821289 937.620789 4597.668945 0.105456 -0.078706 0.991304
6347.228027 1116.460693 4850.679199 -0.892658 0.447165 -0.056621
6468.403320 1352.852417 4807.199219 -0.892658 0.447165 -0.056621
6491.929688 1379.409912 4646.032715 -0.892658 0.447165 -0.056621
7953.821289 937.620789 4597.668945 0.104776 0.048934 0.993291
7152.859863 1139.600098 4672.207031 0.104776 0.048934 0.993291
7075.492676 931.495483 4690.620117 0.104776 0.048934 0.993291
6468.403320 1352.852417 4807.199219 0.327185 0.923564 0.199949
7152.859863 1139.600098 4672.207031 0.327185 0.923564 0.199949
6491.929688 1379.409912 4646.032715 0.327185 0.923564 0.199949
6347.228027 1116.460693 4850.679199 -0.404536 -0.834437 -0.374253
6418.601074 1183.866333 4623.242676 -0.404536 -0.834437 -0.374253
6721.569336 982.883057 4743.873047 -0.404536 -0.834437 -0.374253
6721.569336 982.883057 4743.873047 0.006066 -0.699135 0.714964
7075.492676 931.495483 4690.620117 0.006066 -0.699135 0.714964
6449.623047 1118.702148 4878.992676 0.006066 -0.699135 0.714964
7152.859863 1139.600098 4672.207031 0.197472 0.013315 0.980218
6468.403320 1352.852417 4807.199219 0.197472 0.013315 0.980218
7075.492676 931.495483 4690.620117 0.197472 0.013315 0.980218
6468.403320 1352.852417 4807.199219 0.346746 0.249424 0.904187
6449.623047 1118.702148 4878.992676 0.346746 0.249424 0.904187
7075.492676 931.495483 4690.620117 0.346746 0.249424 0.904187
6347.228027 1116.460693 4850.679199 -0.135155 -0.821590 0.553826
6721.569336 982.883057 4743.873047 -0.135155 -0.821590 0.553826
6449.623047 1118.702148 4878.992676 -0.135155 -0.821590 0.553826
6347.228027 1116.460693 4850.679199 -0.260199 0.302061 0.917091
6449.623047 1118.702148 4878.992676 -0.260199 0.302061 0.917091
6468.403320 1352.852417 4807.199219 -0.260199 0.302061 0.917091
6358.642578 1099.675415 6497.158203 0.228637 -0.320515 -0.919236
7098.647461 1105.771729 6679.090332 0.228637 -0.320515 -0.919236
6860.083008 967.411682 6667.996094 0.228637 -0.320515 -0.919236
6465.696289 1335.592529 6546.898438 0.236884 0.096335 -0.966750
7098.647461 1105.771729 6679.090332 0.236884 0.096335 -0.966750
6358.642578 1099.675415 6497.158203 0.236884 0.096335 -0.966750
6358.642578 1099.675415 6497.158203 -0.889640 0.433788 -0.142716
6366.590332 1193.204712 6731.898926 -0.889640 0.433788 -0.142716
6465.696289 1335.592529 6546.898438 -0.889640 0.433788 -0.142716
6860.083008 967.411682 6667.996094 -0.350043 -0.866068 0.356925
6366.590332 1193.204712 6731.898926 -0.350043 -0.866068 0.356925
6358.642578 1099.675415 6497.158203 -0.350043 -0.866068 0.356925
6366.590332 1193.204712 6731.898926 -0.847861 0.528062 -0.047776
6496.319824 1399.872192 6713.911621 -0.847861 0.528062 -0.047776
6465.696289 1335.592529 6546.898438 -0.847861 0.528062 -0.047776
7098.647461 1105.771729 6679.090332 0.124348 -0.135589 -0.982931
7445.295410 857.731079 6757.159180 0.124348 -0.135589 -0.982931
6860.083008 967.411682 6667.996094 0.124348 -0.135589 -0.982931
7176.765625 1171.677246 6886.222168 0.385695 0.827187 -0.408657
7098.647461 1105.771729 6679.090332 0.385695 0.827187 -0.408657
6465.696289 1335.592529 6546.898438 0.385695 0.827187 -0.408657
6496.319824 1399.872192 6713.911621 0.380216 0.837664 -0.392115
7176.765625 1171.677246 6886.222168 0.380216 0.837664 -0.392115
6465.696289 1335.592529 6546.898438 0.380216 0.837664 -0.392115
8421.411133 785.029602 6834.533203 0.060645 -0.221571 -0.973257
7445.295410 857.731079 6757.159180 0.060645 -0.221571 -0.973257
7098.647461 1105.771729 6679.090332 0.060645 -0.221571 -0.973257
8421.411133 785.029602 6834.533203 0.172914 0.251612 -0.952256
7098.647461 1105.771729 6679.090332 0.172914 0.251612 -0.952256
8149.990234 927.042908 6822.771484 0.172914 0.251612 -0.952256
6366.590332 1193.204712 6731.898926 -0.314081 -0.821261 0.476322
6860.083008 967.411682 6667.996094 -0.314081 -0.821261 0.476322
7378.680176 934.395752 6953.027832 -0.314081 -0.821261 0.476322
8310.486328 975.015137 6983.385254 0.209824 0.859359 -0.466344
8149.990234 927.042908 6822.771484 0.209824 0.859359 -0.466344
7098.647461 1105.771729 6679.090332 0.209824 0.859359 -0.466344
8310.486328 975.015137 6983.385254 0.189352 0.912804 -0.361850
7098.647461 1105.771729 6679.090332 0.189352 0.912804 -0.361850
7176.765625 1171.677246 6886.222168 0.189352 0.912804 -0.361850
8421.411133 785.029602 6834.533203 0.037340 -0.011393 -0.999238
8149.990234 927.042908 6822.771484 0.037340 -0.011393 -0.999238
8882.805664 815.971741 6851.421875 0.037340 -0.011393 -0.999238
6860.083008 967.411682 6667.996094 -0.218820 -0.931607 0.290218
7445.295410 857.731079 6757.159180 -0.218820 -0.931607 0.290218
7378.680176 934.395752 6953.027832 -0.218820 -0.931607 0.290218
7161.750000 1109.680908 6936.756836 -0.221385 0.221623 0.949669
6496.319824 1399.872192 6713.911621 -0.221385 0.221623 0.949669
6366.590332 1193.204712 6731.898926 -0.221385 0.221623 0.949669
7378.680176 934.395752 6953.027832 -0.096322 -0.937563 0.334211
7445.295410 857.731079 6757.159180 -0.096322 -0.937563 0.334211
8421.411133 785.029602 6834.533203 -0.096322 -0.937563 0.334211
8149.990234 927.042908 6822.771484 0.142121 0.780705 -0.608524
8644.212891 996.367859 7027.137695 0.142121 0.780705 -0.608524
8882.805664 815.971741 6851.421875 0.142121 0.780705 -0.608524
7176.765625 1171.677246 6886.222168 0.014460 0.629644 0.776749
6496.319824 1399.872192 6713.911621 0.014460 0.629644 0.776749
7161.750000 1109.680908 6936.756836 0.014460 0.629644 0.776749
8421.411133 785.029602 6834.533203 0.050369 -0.938109 0.342659
8882.805664 815.971741 6851.421875 0.050369 -0.938109 0.342659
8765.886719 889.338806 7069.467773 0.050369 -0.938109 0.342659
8644.212891 996.367859 7027.137695 -0.027568 0.965029 -0.260688
8149.990234 927.042908 6822.771484 -0.027568 0.965029 -0.260688
8310.486328 975.015137 6983.385254 -0.027568 0.965029 -0.260688
7378.680176 934.395752 6953.027832 -0.265843 -0.242392 0.933046
7161.750000 1109.680908 6936.756836 -0.265843 -0.242392 0.933046
6366.590332 1193.204712 6731.898926 -0.265843 -0.242392 0.933046
8310.486328 975.015137 6983.385254 0.041655 0.625187 0.779362
7176.765625 1171.677246 6886.222168 0.041655 0.625187 0.779362
7161.750000 1109.680908 6936.756836 0.041655 0.625187 0.779362
7378.680176 934.395752 6953.027832 -0.069212 -0.870185 0.487839
8421.411133 785.029602 6834.533203 -0.069212 -0.870185 0.487839
8765.886719 889.338806 7069.467773 -0.069212 -0.870185 0.487839
9182.488281 1169.546021 7392.281738 0.153318 0.786068 -0.598825
8882.805664 815.971741 6851.421875 0.153318 0.786068 -0.598825
8644.212891 996.367859 7027.137695 0.153318 0.786068 -0.598825
8882.805664 815.971741 6851.421875 0.103178 -0.924694 0.366462
9236.478516 991.209351 7194.021484 0.103178 -0.924694 0.366462
8765.886719 889.338806 7069.467773 0.103178 -0.924694 0.366462
8765.886719 889.338806 7069.467773 -0.051326 0.558813 0.827704
8310.486328 975.015137 6983.385254 -0.051326 0.558813 0.827704
7378.680176 934.395752 6953.027832 -0.051326 0.558813 0.827704
8310.486328 975.015137 6983.385254 -0.034687 0.049727 0.998160
7161.750000 1109.680908 6936.756836 -0.034687 0.049727 0.998160
7378.680176 934.395752 6953.027832 -0.034687 0.049727 0.998160
8644.212891 996.367859 7027.137695 -0.140687 0.221687 0.964915
8310.486328 975.015137 6983.385254 -0.140687 0.221687 0.964915
8765.886719 889.338806 7069.467773 -0.140687 0.221687 0.964915
8644.212891 996.367859 7027.137695 -0.494374 -0.230542 0.838120
8765.886719 889.338806 7069.467773 -0.494374 -0.230542 0.838120
9182.488281 1169.546021 7392.281738 -0.494374 -0.230542 0.838120
9182.488281 1169.546021 7392.281738 0.224282 0.754116 -0.617257
9236.478516 991.209351 7194.021484 0.224282 0.754116 -0.617257
8882.805664 815.971741 6851.421875 0.224282 0.754116 -0.617257
9236.478516 991.209351 7194.021484 0.000035 -0.774134 0.633022
9572.624023 1271.088379 7536.272461 0.000035 -0.774134 0.633022
8765.886719 889.338806 7069.467773 0.000035 -0.774134 0.633022
9572.624023 1271.088379 7536.272461 0.048819 0.749163 -0.660584
9236.478516 991.209351 7194.021484 0.048819 0.749163 -0.660584
9182.488281 1169.546021 7392.281738 0.048819 0.749163 -0.660584
9563.203125 1313.389648 7615.405273 0.132994 -0.867400 0.479511
8765.886719 889.338806 7069.467773 0.132994 -0.867400 0.479511
9572.624023 1271.088379 7536.272461 0.132994 -0.867400 0.479511
9563.203125 1313.389648 7615.405273 -0.278281 -0.518058 0.808812
9182.488281 1169.546021 7392.281738 -0.278281 -0.518058 0.808812
8765.886719 889.338806 7069.467773 -0.278281 -0.518058 0.808812
9415.780273 1427.626709 7677.863770 0.074353 0.708903 -0.701376
9572.624023 1271.088379 7536.272461 0.074353 0.708903 -0.701376
9182.488281 1169.546021 7392.281738 0.074353 0.708903 -0.701376
9415.780273 1427.626709 7677.863770 -0.188457 -0.647106 0.738741
9182.488281 1169.546021 7392.281738 -0.188457 -0.647106 0.738741
9563.203125 1313.389648 7615.405273 -0.188457 -0.647106 0.738741
9820.385742 1914.734375 8288.283203 -0.231782 -0.679633 0.695972
9415.780273 1427.626709 7677.863770 -0.231782 -0.679633 0.695972
9563.203125 1313.389648 7615.405273 -0.231782 -0.679633 0.695972
9811.335938 1633.237793 7994.206543 0.326871 -0.816731 0.475506
9563.203125 1313.389648 7615.405273 0.326871 -0.816731 0.475506
9572.624023 1271.088379 7536.272461 0.326871 -0.816731 0.475506
9811.335938 1633.237793 7994.206543 0.876859 0.028822 -0.479883
9572.624023 1271.088379 7536.272461 0.876859 0.028822 -0.479883
9850.267578 1852.844727 8078.533691 0.876859 0.028822 -0.479883
9811.335938 1633.237793 7994.206543 -0.129136 -0.714352 0.687768
9820.385742 1914.734375 8288.283203 -0.129136 -0.714352 0.687768
9563.203125 1313.389648 7615.405273 -0.129136 -0.714352 0.687768
9850.267578 1852.844727 8078.533691 0.013706 0.678268 -0.734687
9572.624023 1271.088379 7536.272461 0.013706 0.678268 -0.734687
9415.780273 1427.626709 7677.863770 0.013706 0.678268 -0.734687
9820.385742 1914.734375 8288.283203 -0.739501 -0.193655 0.644699
9626.743164 1906.891846 8063.810059 -0.739501 -0.193655 0.644699
9415.780273 1427.626709 7677.863770 -0.739501 -0.193655 0.644699
9415.780273 1427.626709 7677.863770 0.189311 0.563965 -0.803807
9626.743164 1906.891846 8063.810059 0.189311 0.563965 -0.803807
9850.267578 1852.844727 8078.533691 0.189311 0.563965 -0.803807
9820.385742 1914.734375 8288.283203 0.946307 -0.247579 0.207867
9811.335938 1633.237793 7994.206543 0.946307 -0.247579 0.207867
9850.267578 1852.844727 8078.533691 0.946307 -0.247579 0.207867
9626.743164 1906.891846 8063.810059 -0.596900 -0.597200 0.535783
9820.385742 1914.734375 8288.283203 -0.596900 -0.597200 0.535783
9689.158203 2043.145874 8285.217773 -0.596900 -0.597200 0.535783
9626.743164 1906.891846 8063.810059 0.229745 0.798631 -0.556242
9689.158203 2043.145874 8285.217773 0.229745 0.798631 -0.556242
9850.267578 1852.844727 8078.533691 0.229745 0.798631 -0.556242
9850.267578 1852.844727 8078.533691 0.696463 0.709110 -0.110012
9689.158203 2043.145874 8285.217773 0.696463 0.709110 -0.110012
9820.385742 1914.734375 8288.283203 0.696463 0.709110 -0.110012
3 0 1 2
3 3 4 5
3 6 7 8
3 9 10 11
3 12 13 14
3 15 16 17
3 18 19 20
3 21 22 23
3 24 25 26
3 27 28 29
3 30 31 32
3 33 34 35
3 36 37 38
3 39 40 41
3 42 43 44
3 45 46 47
3 48 49 50
3 51 52 53
3 54 55 56
3 57 58 59
3 60 61 62
3 63 64 65
3 66 67 68
3 69 70 71
3 72 73 74
3 75 76 77
3 78 79 80
3 81 82 83
3 84 85 86
3 87 88 89
3 90 91 92
3 93 94 95
3 96 97 98
3 99 100 101
3 102 103 104
3 105 106 107
3 108 109 110
3 111 112 113
3 114 115 116
3 117 118 119
3 120 121 122
3 123 124 125
3 126 127 128
3 129 130 131
3 132 133 134
3 135 136 137
3 138 139 140
3 141 142 143
3 144 145 146
3 147 148 149
3 150 151 152
3 153 154 155
3 156 157 158
3 159 160 161
3 162 163 164
3 165 166 167
3 168 169 170
3 171 172 173
3 174 175 176
3 177 178 179
3 180 181 182
3 183 184 185
3 186 187 188
3 189 190 191
3 192 193 194
3 195 196 197
3 198 199 200
3 201 202 203
3 204 205 206
3 207 208 209
3 210 211 212
3 213 214 215
3 216 217 218
3 219 220 221
3 222 223 224
3 225 226 227
3 228 229 230
3 231 232 233
3 234 235 236
3 237 238 239
3 240 241 242
3 243 244 245
3 246 247 248
3 249 250 251
3 252 253 254
3 255 256 257
3 258 259 260
3 261 262 263
3 264 265 266
3 267 268 269
3 270 271 272
3 273 274 275
3 276 277 278
3 279 280 281
3 282 283 284
3 285 286 287
3 288 289 290
3 291 292 293
3 294 295 296
3 297 298 299
