ply
format ascii 1.0
comment Created by Blender 2.80 (sub 75) - www.blender.org, source file: 'downsample_ccf.blend'
element vertex 396
property float x
property float y
property float z
property float nx
property float ny
property float nz
element face 132
property list uchar uint vertex_indices
end_header
10186.903320 1915.537476 3020.541016 -0.303594 0.932741 -0.194485
10078.515625 1888.134521 3058.312500 -0.303594 0.932741 -0.194485
10069.173828 1934.418945 3294.873047 -0.303594 0.932741 -0.194485
10078.515625 1888.134521 3058.312500 -0.037936 -0.753945 -0.655842
10186.903320 1915.537476 3020.541016 -0.037936 -0.753945 -0.655842
10003.899414 1529.696167 3474.683350 -0.037936 -0.753945 -0.655842
10003.899414 1529.696167 3474.683350 -0.151380 -0.722372 -0.674731
10186.903320 1915.537476 3020.541016 -0.151380 -0.722372 -0.674731
10102.030273 1460.349243 3526.910400 -0.151380 -0.722372 -0.674731
10078.515625 1888.134521 3058.312500 -0.989294 0.130826 -0.064664
10003.899414 1529.696167 3474.683350 -0.989294 0.130826 -0.064664
10069.173828 1934.418945 3294.873047 -0.989294 0.130826 -0.064664
9996.135742 1577.645020 3690.688965 0.900517 0.227057 0.370829
10186.903320 1915.537476 3020.541016 0.900517 0.227057 0.370829
10069.173828 1934.418945 3294.873047 0.900517 0.227057 0.370829
9996.135742 1577.645020 3690.688965 -0.989295 0.130853 -0.064604
10069.173828 1934.418945 3294.873047 -0.989295 0.130853 -0.064604
10003.899414 1529.696167 3474.683350 -0.989295 0.130853 -0.064604
10102.030273 1460.349243 3526.910400 0.843821 0.321025 0.430011
10186.903320 1915.537476 3020.541016 0.843821 0.321025 0.430011
9898.643555 1201.096069 4119.566406 0.843821 0.321025 0.430011
9898.643555 1201.096069 4119.566406 0.930647 0.142779 0.336913
10186.903320 1915.537476 3020.541016 0.930647 0.142779 0.336913
9996.135742 1577.645020 3690.688965 0.930647 0.142779 0.336913
9810.067383 1135.405151 3999.097900 -0.940745 0.322332 -0.105363
9996.135742 1577.645020 3690.688965 -0.940745 0.322332 -0.105363
10003.899414 1529.696167 3474.683350 -0.940745 0.322332 -0.105363
10102.030273 1460.349243 3526.910400 -0.191860 -0.749062 -0.634111
9810.067383 1135.405151 3999.097900 -0.191860 -0.749062 -0.634111
10003.899414 1529.696167 3474.683350 -0.191860 -0.749062 -0.634111
9898.643555 1201.096069 4119.566406 0.937470 -0.287734 0.195852
9773.744141 898.705200 4273.158203 0.937470 -0.287734 0.195852
10102.030273 1460.349243 3526.910400 0.937470 -0.287734 0.195852
9810.067383 1135.405151 3999.097900 -0.257970 -0.714016 -0.650871
10102.030273 1460.349243 3526.910400 -0.257970 -0.714016 -0.650871
9773.744141 898.705200 4273.158203 -0.257970 -0.714016 -0.650871
9811.652344 1230.351074 4054.481201 -0.936658 0.188010 -0.295507
9996.135742 1577.645020 3690.688965 -0.936658 0.188010 -0.295507
9810.067383 1135.405151 3999.097900 -0.936658 0.188010 -0.295507
9811.652344 1230.351074 4054.481201 -0.207689 0.758001 0.618304
9898.643555 1201.096069 4119.566406 -0.207689 0.758001 0.618304
9996.135742 1577.645020 3690.688965 -0.207689 0.758001 0.618304
9537.749023 854.804382 4283.096191 0.114269 -0.759292 -0.640639
9810.067383 1135.405151 3999.097900 0.114269 -0.759292 -0.640639
9773.744141 898.705200 4273.158203 0.114269 -0.759292 -0.640639
9811.652344 1230.351074 4054.481201 -0.818977 0.299267 -0.489608
9810.067383 1135.405151 3999.097900 -0.818977 0.299267 -0.489608
9537.749023 854.804382 4283.096191 -0.818977 0.299267 -0.489608
9898.643555 1201.096069 4119.566406 -0.095826 0.853731 0.511821
9811.652344 1230.351074 4054.481201 -0.095826 0.853731 0.511821
9624.150391 941.318420 4501.490234 -0.095826 0.853731 0.511821
8518.269531 534.869263 4354.089844 0.067731 0.233441 -0.970009
9250.193359 502.381805 4397.377930 0.067731 0.233441 -0.970009
8120.149902 377.772217 4288.484375 0.067731 0.233441 -0.970009
8518.269531 534.869263 4354.089844 0.022727 0.335671 -0.941705
8120.149902 377.772217 4288.484375 0.022727 0.335671 -0.941705
7460.931641 585.277039 4346.540039 0.022727 0.335671 -0.941705
8120.149902 377.772217 4288.484375 -0.119527 -0.103462 -0.987425
6765.649414 481.636322 4441.562988 -0.119527 -0.103462 -0.987425
7460.931641 585.277039 4346.540039 -0.119527 -0.103462 -0.987425
9537.749023 854.804382 4283.096191 -0.074671 -0.251951 -0.964855
9250.193359 502.381805 4397.377930 -0.074671 -0.251951 -0.964855
9100.738281 591.750061 4385.607910 -0.074671 -0.251951 -0.964855
9537.749023 854.804382 4283.096191 -0.786059 0.614446 0.067577
9624.150391 941.318420 4501.490234 -0.786059 0.614446 0.067577
9811.652344 1230.351074 4054.481201 -0.786059 0.614446 0.067577
8518.269531 534.869263 4354.089844 0.057439 -0.035344 -0.997723
9100.738281 591.750061 4385.607910 0.057439 -0.035344 -0.997723
9250.193359 502.381805 4397.377930 0.057439 -0.035344 -0.997723
9773.744141 898.705200 4273.158203 0.020313 -0.323357 -0.946059
9250.193359 502.381805 4397.377930 0.020313 -0.323357 -0.946059
9537.749023 854.804382 4283.096191 0.020313 -0.323357 -0.946059
9898.643555 1201.096069 4119.566406 0.829675 -0.060830 0.554922
9624.150391 941.318420 4501.490234 0.829675 -0.060830 0.554922
9773.744141 898.705200 4273.158203 0.829675 -0.060830 0.554922
8676.074219 331.594421 4642.673828 0.135026 -0.933004 -0.333574
8120.149902 377.772217 4288.484375 0.135026 -0.933004 -0.333574
9250.193359 502.381805 4397.377930 0.135026 -0.933004 -0.333574
7460.931641 585.277039 4346.540039 -0.153047 0.128358 -0.979847
6765.649414 481.636322 4441.562988 -0.153047 0.128358 -0.979847
6705.243652 685.569824 4477.712891 -0.153047 0.128358 -0.979847
9537.749023 854.804382 4283.096191 -0.592801 0.801080 -0.082813
9038.262695 529.890320 4715.558105 -0.592801 0.801080 -0.082813
9624.150391 941.318420 4501.490234 -0.592801 0.801080 -0.082813
8120.149902 377.772217 4288.484375 0.013069 -0.988688 -0.149415
8676.074219 331.594421 4642.673828 0.013069 -0.988688 -0.149415
7757.643066 324.803314 4607.274902 0.013069 -0.988688 -0.149415
8120.149902 377.772217 4288.484375 -0.104604 -0.954978 -0.277624
7757.643066 324.803314 4607.274902 -0.104604 -0.954978 -0.277624
6765.649414 481.636322 4441.562988 -0.104604 -0.954978 -0.277624
9537.749023 854.804382 4283.096191 -0.503125 0.861668 0.066281
9100.738281 591.750061 4385.607910 -0.503125 0.861668 0.066281
9038.262695 529.890320 4715.558105 -0.503125 0.861668 0.066281
9250.193359 502.381805 4397.377930 0.615911 -0.780838 0.104623
9773.744141 898.705200 4273.158203 0.615911 -0.780838 0.104623
9184.995117 500.067902 4763.928711 0.615911 -0.780838 0.104623
6705.243652 685.569824 4477.712891 0.176938 0.936263 0.303486
7320.628906 525.288330 4613.405762 0.176938 0.936263 0.303486
7460.931641 585.277039 4346.540039 0.176938 0.936263 0.303486
7460.931641 585.277039 4346.540039 0.044494 0.969428 0.241310
7320.628906 525.288330 4613.405762 0.044494 0.969428 0.241310
8518.269531 534.869263 4354.089844 0.044494 0.969428 0.241310
9038.262695 529.890320 4715.558105 -0.104666 0.980879 0.164079
9100.738281 591.750061 4385.607910 -0.104666 0.980879 0.164079
8518.269531 534.869263 4354.089844 -0.104666 0.980879 0.164079
6705.243652 685.569824 4477.712891 -0.311257 0.075727 -0.947304
6765.649414 481.636322 4441.562988 -0.311257 0.075727 -0.947304
6158.617188 610.584961 4651.324219 -0.311257 0.075727 -0.947304
9773.744141 898.705200 4273.158203 0.802196 -0.199402 0.562780
9624.150391 941.318420 4501.490234 0.802196 -0.199402 0.562780
9393.875977 673.221680 4734.736328 0.802196 -0.199402 0.562780
8518.269531 534.869263 4354.089844 0.065058 0.939901 0.335192
7320.628906 525.288330 4613.405762 0.065058 0.939901 0.335192
8490.244141 429.986877 4653.626465 0.065058 0.939901 0.335192
6158.617188 610.584961 4651.324219 -0.306516 0.031844 -0.951333
6207.787109 766.717773 4640.708008 -0.306516 0.031844 -0.951333
6705.243652 685.569824 4477.712891 -0.306516 0.031844 -0.951333
6207.787109 766.717773 4640.708008 0.212901 0.962026 0.170818
7320.628906 525.288330 4613.405762 0.212901 0.962026 0.170818
6705.243652 685.569824 4477.712891 0.212901 0.962026 0.170818
7757.643066 324.803314 4607.274902 -0.134726 -0.983103 -0.123924
6632.339355 453.960052 4806.053223 -0.134726 -0.983103 -0.123924
6765.649414 481.636322 4441.562988 -0.134726 -0.983103 -0.123924
9038.262695 529.890320 4715.558105 -0.204124 0.929743 0.306450
8518.269531 534.869263 4354.089844 -0.204124 0.929743 0.306450
8490.244141 429.986877 4653.626465 -0.204124 0.929743 0.306450
9773.744141 898.705200 4273.158203 0.643044 -0.748117 0.163751
9393.875977 673.221680 4734.736328 0.643044 -0.748117 0.163751
9184.995117 500.067902 4763.928711 0.643044 -0.748117 0.163751
6765.649414 481.636322 4441.562988 -0.259821 -0.951064 -0.167244
6632.339355 453.960052 4806.053223 -0.259821 -0.951064 -0.167244
6158.617188 610.584961 4651.324219 -0.259821 -0.951064 -0.167244
7757.643066 324.803314 4607.274902 0.202148 0.413491 0.887785
7320.628906 525.288330 4613.405762 0.202148 0.413491 0.887785
7301.731934 429.973419 4662.102051 0.202148 0.413491 0.887785
8490.244141 429.986877 4653.626465 -0.044436 -0.127162 0.990886
7320.628906 525.288330 4613.405762 -0.044436 -0.127162 0.990886
7757.643066 324.803314 4607.274902 -0.044436 -0.127162 0.990886
9250.193359 502.381805 4397.377930 0.303583 -0.951596 0.047991
9184.995117 500.067902 4763.928711 0.303583 -0.951596 0.047991
8676.074219 331.594421 4642.673828 0.303583 -0.951596 0.047991
9038.262695 529.890320 4715.558105 -0.338239 0.766054 0.546586
9393.875977 673.221680 4734.736328 -0.338239 0.766054 0.546586
9624.150391 941.318420 4501.490234 -0.338239 0.766054 0.546586
8676.074219 331.594421 4642.673828 -0.036577 -0.178534 0.983254
8490.244141 429.986877 4653.626465 -0.036577 -0.178534 0.983254
7757.643066 324.803314 4607.274902 -0.036577 -0.178534 0.983254
6158.617188 610.584961 4651.324219 -0.953930 0.299953 -0.006790
6150.682129 595.256287 5088.977539 -0.953930 0.299953 -0.006790
6207.787109 766.717773 4640.708008 -0.953930 0.299953 -0.006790
6192.548828 717.961182 5043.965332 -0.946036 0.324044 0.003430
6207.787109 766.717773 4640.708008 -0.946036 0.324044 0.003430
6150.682129 595.256287 5088.977539 -0.946036 0.324044 0.003430
6632.339355 453.960052 4806.053223 0.204631 0.428202 0.880210
7757.643066 324.803314 4607.274902 0.204631 0.428202 0.880210
7301.731934 429.973419 4662.102051 0.204631 0.428202 0.880210
9184.995117 500.067902 4763.928711 -0.116342 -0.324233 0.938796
8490.244141 429.986877 4653.626465 -0.116342 -0.324233 0.938796
8676.074219 331.594421 4642.673828 -0.116342 -0.324233 0.938796
9184.995117 500.067902 4763.928711 -0.184597 0.481454 0.856812
9038.262695 529.890320 4715.558105 -0.184597 0.481454 0.856812
8490.244141 429.986877 4653.626465 -0.184597 0.481454 0.856812
7301.731934 429.973419 4662.102051 0.320609 0.379768 0.867748
7320.628906 525.288330 4613.405762 0.320609 0.379768 0.867748
6598.169434 603.711853 4846.012695 0.320609 0.379768 0.867748
6632.339355 453.960052 4806.053223 0.198339 -0.210195 0.957329
7301.731934 429.973419 4662.102051 0.198339 -0.210195 0.957329
6598.169434 603.711853 4846.012695 0.198339 -0.210195 0.957329
6632.339355 453.960052 4806.053223 -0.302218 -0.952447 -0.038839
6150.682129 595.256287 5088.977539 -0.302218 -0.952447 -0.038839
6158.617188 610.584961 4651.324219 -0.302218 -0.952447 -0.038839
9393.875977 673.221680 4734.736328 -0.211078 0.404640 0.889782
9038.262695 529.890320 4715.558105 -0.211078 0.404640 0.889782
9184.995117 500.067902 4763.928711 -0.211078 0.404640 0.889782
7320.628906 525.288330 4613.405762 0.207610 0.919078 0.334954
6207.787109 766.717773 4640.708008 0.207610 0.919078 0.334954
6598.169434 603.711853 4846.012695 0.207610 0.919078 0.334954
6598.169434 603.711853 4846.012695 0.325288 0.937235 0.125610
6207.787109 766.717773 4640.708008 0.325288 0.937235 0.125610
6192.548828 717.961182 5043.965332 0.325288 0.937235 0.125610
6632.339355 453.960052 4806.053223 0.475284 -0.123981 0.871053
6598.169434 603.711853 4846.012695 0.475284 -0.123981 0.871053
6150.682129 595.256287 5088.977539 0.475284 -0.123981 0.871053
6192.548828 717.961182 5043.965332 0.468783 0.158801 0.868921
6150.682129 595.256287 5088.977539 0.468783 0.158801 0.868921
6598.169434 603.711853 4846.012695 0.468783 0.158801 0.868921
6141.583496 582.398865 6290.147461 0.471458 -0.158932 -0.867449
6161.533691 688.409485 6281.567383 0.471458 -0.158932 -0.867449
6684.835449 598.114807 6582.525391 0.471458 -0.158932 -0.867449
6141.583496 582.398865 6290.147461 -0.982830 0.184370 -0.007275
6145.789551 621.428406 6711.022949 -0.982830 0.184370 -0.007275
6161.533691 688.409485 6281.567383 -0.982830 0.184370 -0.007275
6775.753906 429.804016 6647.186523 -0.231654 -0.972789 -0.004297
6498.649414 494.921539 6844.271973 -0.231654 -0.972789 -0.004297
6141.583496 582.398865 6290.147461 -0.231654 -0.972789 -0.004297
6684.835449 598.114807 6582.525391 0.474185 -0.080670 -0.876722
6775.753906 429.804016 6647.186523 0.474185 -0.080670 -0.876722
6141.583496 582.398865 6290.147461 0.474185 -0.080670 -0.876722
6225.906250 772.022522 6720.874512 0.287141 0.932391 -0.219537
6684.835449 598.114807 6582.525391 0.287141 0.932391 -0.219537
6161.533691 688.409485 6281.567383 0.287141 0.932391 -0.219537
9350.247070 736.490723 6688.898438 -0.249158 0.483129 -0.839349
9312.828125 587.922363 6614.490234 -0.249158 0.483129 -0.839349
8977.932617 506.873077 6667.250977 -0.249158 0.483129 -0.839349
9059.511719 427.003418 6664.503906 -0.079276 -0.179938 -0.980478
8541.255859 344.251312 6721.593750 -0.079276 -0.179938 -0.980478
9312.828125 587.922363 6614.490234 -0.079276 -0.179938 -0.980478
8977.932617 506.873077 6667.250977 -0.207618 0.240665 -0.948143
9312.828125 587.922363 6614.490234 -0.207618 0.240665 -0.948143
8541.255859 344.251312 6721.593750 -0.207618 0.240665 -0.948143
7384.539551 492.122986 6756.002441 0.195522 -0.257885 -0.946185
6775.753906 429.804016 6647.186523 0.195522 -0.257885 -0.946185
6684.835449 598.114807 6582.525391 0.195522 -0.257885 -0.946185
8371.969727 439.194061 6751.736816 -0.144081 0.056755 -0.987937
8977.932617 506.873077 6667.250977 -0.144081 0.056755 -0.987937
8541.255859 344.251312 6721.593750 -0.144081 0.056755 -0.987937
6498.649414 494.921539 6844.271973 -0.365925 -0.926325 0.089559
6145.789551 621.428406 6711.022949 -0.365925 -0.926325 0.089559
6141.583496 582.398865 6290.147461 -0.365925 -0.926325 0.089559
6161.533691 688.409485 6281.567383 -0.883212 0.467223 0.040492
6145.789551 621.428406 6711.022949 -0.883212 0.467223 0.040492
6225.906250 772.022522 6720.874512 -0.883212 0.467223 0.040492
6684.835449 598.114807 6582.525391 0.237314 0.874585 -0.422827
7569.811035 578.245483 7038.125000 0.237314 0.874585 -0.422827
7384.539551 492.122986 6756.002441 0.237314 0.874585 -0.422827
9059.511719 427.003418 6664.503906 0.147961 -0.985328 -0.085061
8624.667969 339.707458 6919.320801 0.147961 -0.985328 -0.085061
8541.255859 344.251312 6721.593750 0.147961 -0.985328 -0.085061
8541.255859 344.251312 6721.593750 -0.047730 -0.143340 -0.988522
7444.733887 351.507935 6773.485840 -0.047730 -0.143340 -0.988522
7384.539551 492.122986 6756.002441 -0.047730 -0.143340 -0.988522
6775.753906 429.804016 6647.186523 0.180239 -0.045014 -0.982592
7384.539551 492.122986 6756.002441 0.180239 -0.045014 -0.982592
7444.733887 351.507935 6773.485840 0.180239 -0.045014 -0.982592
8541.255859 344.251312 6721.593750 0.013281 0.324011 -0.945960
7384.539551 492.122986 6756.002441 0.013281 0.324011 -0.945960
8371.969727 439.194061 6751.736816 0.013281 0.324011 -0.945960
8977.932617 506.873077 6667.250977 -0.140216 0.961771 -0.235236
8371.969727 439.194061 6751.736816 -0.140216 0.961771 -0.235236
9072.204102 600.663147 6994.522461 -0.140216 0.961771 -0.235236
9350.247070 736.490723 6688.898438 -0.525729 0.850366 0.022054
8977.932617 506.873077 6667.250977 -0.525729 0.850366 0.022054
9446.327148 786.367554 7056.112793 -0.525729 0.850366 0.022054
8624.667969 339.707458 6919.320801 -0.007553 -0.999776 -0.019789
7444.733887 351.507935 6773.485840 -0.007553 -0.999776 -0.019789
8541.255859 344.251312 6721.593750 -0.007553 -0.999776 -0.019789
7444.733887 351.507935 6773.485840 -0.139210 -0.981867 0.128680
6498.649414 494.921539 6844.271973 -0.139210 -0.981867 0.128680
6775.753906 429.804016 6647.186523 -0.139210 -0.981867 0.128680
9312.828125 587.922363 6614.490234 0.491146 -0.842240 -0.222279
9446.476562 574.520020 6960.581055 0.491146 -0.842240 -0.222279
9059.511719 427.003418 6664.503906 0.491146 -0.842240 -0.222279
7569.811035 578.245483 7038.125000 0.221013 0.893755 -0.390327
6684.835449 598.114807 6582.525391 0.221013 0.893755 -0.390327
6225.906250 772.022522 6720.874512 0.221013 0.893755 -0.390327
9312.828125 587.922363 6614.490234 0.780823 -0.261523 -0.567382
9827.237305 1071.207031 7099.652832 0.780823 -0.261523 -0.567382
9714.319336 827.596558 7056.543945 0.780823 -0.261523 -0.567382
8977.932617 506.873077 6667.250977 -0.422603 0.896189 -0.135100
9072.204102 600.663147 6994.522461 -0.422603 0.896189 -0.135100
9446.327148 786.367554 7056.112793 -0.422603 0.896189 -0.135100
9350.247070 736.490723 6688.898438 0.505122 0.281401 -0.815883
9827.237305 1071.207031 7099.652832 0.505122 0.281401 -0.815883
9312.828125 587.922363 6614.490234 0.505122 0.281401 -0.815883
9312.828125 587.922363 6614.490234 0.709789 -0.637902 -0.298799
9714.319336 827.596558 7056.543945 0.709789 -0.637902 -0.298799
9446.476562 574.520020 6960.581055 0.709789 -0.637902 -0.298799
7444.733887 351.507935 6773.485840 -0.028687 -0.987939 0.152164
8624.667969 339.707458 6919.320801 -0.028687 -0.987939 0.152164
7701.375488 387.834564 7057.724609 -0.028687 -0.987939 0.152164
6790.704102 520.244141 6961.130371 -0.367571 -0.046937 0.928810
6145.789551 621.428406 6711.022949 -0.367571 -0.046937 0.928810
6498.649414 494.921539 6844.271973 -0.367571 -0.046937 0.928810
6790.704102 520.244141 6961.130371 -0.342330 0.121169 0.931734
6225.906250 772.022522 6720.874512 -0.342330 0.121169 0.931734
6145.789551 621.428406 6711.022949 -0.342330 0.121169 0.931734
9059.511719 427.003418 6664.503906 0.266558 -0.955335 0.127599
9446.476562 574.520020 6960.581055 0.266558 -0.955335 0.127599
8624.667969 339.707458 6919.320801 0.266558 -0.955335 0.127599
6760.196289 677.020325 6920.386230 -0.315714 0.180648 0.931499
6225.906250 772.022522 6720.874512 -0.315714 0.180648 0.931499
6790.704102 520.244141 6961.130371 -0.315714 0.180648 0.931499
6225.906250 772.022522 6720.874512 0.083633 0.967920 0.236931
6760.196289 677.020325 6920.386230 0.083633 0.967920 0.236931
7569.811035 578.245483 7038.125000 0.083633 0.967920 0.236931
8371.969727 439.194061 6751.736816 0.022678 0.922827 -0.384546
7569.811035 578.245483 7038.125000 0.022678 0.922827 -0.384546
8695.844727 536.620789 7004.640137 0.022678 0.922827 -0.384546
8371.969727 439.194061 6751.736816 -0.169771 0.972839 -0.157356
8695.844727 536.620789 7004.640137 -0.169771 0.972839 -0.157356
9072.204102 600.663147 6994.522461 -0.169771 0.972839 -0.157356
8371.969727 439.194061 6751.736816 0.049308 0.945764 -0.321091
7384.539551 492.122986 6756.002441 0.049308 0.945764 -0.321091
7569.811035 578.245483 7038.125000 0.049308 0.945764 -0.321091
9446.327148 786.367554 7056.112793 -0.795301 0.592635 0.127593
9770.561523 1176.080688 7266.989746 -0.795301 0.592635 0.127593
9350.247070 736.490723 6688.898438 -0.795301 0.592635 0.127593
9770.561523 1176.080688 7266.989746 -0.103692 0.826594 -0.553164
9827.237305 1071.207031 7099.652832 -0.103692 0.826594 -0.553164
9350.247070 736.490723 6688.898438 -0.103692 0.826594 -0.553164
7701.375488 387.834564 7057.724609 -0.128064 -0.962623 0.238657
6498.649414 494.921539 6844.271973 -0.128064 -0.962623 0.238657
7444.733887 351.507935 6773.485840 -0.128064 -0.962623 0.238657
9446.476562 574.520020 6960.581055 0.178109 -0.737768 0.651134
8366.460938 417.290161 7077.854980 0.178109 -0.737768 0.651134
8624.667969 339.707458 6919.320801 0.178109 -0.737768 0.651134
6498.649414 494.921539 6844.271973 -0.177006 -0.772549 0.609785
7701.375488 387.834564 7057.724609 -0.177006 -0.772549 0.609785
6790.704102 520.244141 6961.130371 -0.177006 -0.772549 0.609785
9446.327148 786.367554 7056.112793 0.053880 -0.410453 0.910289
9072.204102 600.663147 6994.522461 0.053880 -0.410453 0.910289
9446.476562 574.520020 6960.581055 0.053880 -0.410453 0.910289
7569.811035 578.245483 7038.125000 -0.112618 0.229346 0.966808
6760.196289 677.020325 6920.386230 -0.112618 0.229346 0.966808
6790.704102 520.244141 6961.130371 -0.112618 0.229346 0.966808
7701.375488 387.834564 7057.724609 -0.100708 0.032770 0.994376
7569.811035 578.245483 7038.125000 -0.100708 0.032770 0.994376
6790.704102 520.244141 6961.130371 -0.100708 0.032770 0.994376
8366.460938 417.290161 7077.854980 0.095717 0.082419 0.991991
9446.476562 574.520020 6960.581055 0.095717 0.082419 0.991991
9072.204102 600.663147 6994.522461 0.095717 0.082419 0.991991
8695.844727 536.620789 7004.640137 -0.101953 0.709339 0.697455
8366.460938 417.290161 7077.854980 -0.101953 0.709339 0.697455
9072.204102 600.663147 6994.522461 -0.101953 0.709339 0.697455
9714.319336 827.596558 7056.543945 0.896113 -0.372727 -0.240950
9827.237305 1071.207031 7099.652832 0.896113 -0.372727 -0.240950
9971.018555 1196.476562 7440.606934 0.896113 -0.372727 -0.240950
7701.375488 387.834564 7057.724609 0.024761 -0.881425 0.471675
8624.667969 339.707458 6919.320801 0.024761 -0.881425 0.471675
8366.460938 417.290161 7077.854980 0.024761 -0.881425 0.471675
8695.844727 536.620789 7004.640137 0.042803 0.433985 0.899903
7569.811035 578.245483 7038.125000 0.042803 0.433985 0.899903
8366.460938 417.290161 7077.854980 0.042803 0.433985 0.899903
9714.319336 827.596558 7056.543945 0.061653 -0.410263 0.909881
9446.327148 786.367554 7056.112793 0.061653 -0.410263 0.909881
9446.476562 574.520020 6960.581055 0.061653 -0.410263 0.909881
8366.460938 417.290161 7077.854980 -0.033666 0.079289 0.996283
7569.811035 578.245483 7038.125000 -0.033666 0.079289 0.996283
7701.375488 387.834564 7057.724609 -0.033666 0.079289 0.996283
9714.319336 827.596558 7056.543945 0.110251 -0.723764 0.681183
9768.951172 1065.242920 7300.203613 0.110251 -0.723764 0.681183
9446.327148 786.367554 7056.112793 0.110251 -0.723764 0.681183
9446.327148 786.367554 7056.112793 -0.700335 0.214219 0.680912
9768.951172 1065.242920 7300.203613 -0.700335 0.214219 0.680912
9770.561523 1176.080688 7266.989746 -0.700335 0.214219 0.680912
9971.018555 1196.476562 7440.606934 -0.023844 -0.713004 0.700754
9768.951172 1065.242920 7300.203613 -0.023844 -0.713004 0.700754
9714.319336 827.596558 7056.543945 -0.023844 -0.713004 0.700754
9770.561523 1176.080688 7266.989746 -0.244820 0.782084 -0.573068
9950.622070 1517.374878 7655.841309 -0.244820 0.782084 -0.573068
9827.237305 1071.207031 7099.652832 -0.244820 0.782084 -0.573068
9768.951172 1065.242920 7300.203613 -0.938909 0.111239 0.325693
9980.086914 1417.855469 7788.432617 -0.938909 0.111239 0.325693
9770.561523 1176.080688 7266.989746 -0.938909 0.111239 0.325693
9770.561523 1176.080688 7266.989746 -0.939506 0.138960 0.313080
9980.086914 1417.855469 7788.432617 -0.939506 0.138960 0.313080
9950.622070 1517.374878 7655.841309 -0.939506 0.138960 0.313080
10121.848633 1478.151367 7871.974609 0.219834 -0.850227 0.478316
9768.951172 1065.242920 7300.203613 0.219834 -0.850227 0.478316
9971.018555 1196.476562 7440.606934 0.219834 -0.850227 0.478316
9768.951172 1065.242920 7300.203613 -0.000310 -0.810613 0.585582
10121.848633 1478.151367 7871.974609 -0.000310 -0.810613 0.585582
9980.086914 1417.855469 7788.432617 -0.000310 -0.810613 0.585582
9971.018555 1196.476562 7440.606934 0.867680 0.218908 -0.446331
9827.237305 1071.207031 7099.652832 0.867680 0.218908 -0.446331
10121.848633 1478.151367 7871.974609 0.867680 0.218908 -0.446331
9827.237305 1071.207031 7099.652832 -0.977803 0.009477 0.209313
9950.622070 1517.374878 7655.841309 -0.977803 0.009477 0.209313
10044.306641 1926.404541 8074.967285 -0.977803 0.009477 0.209313
10190.939453 1766.963379 8167.188477 0.841234 0.274741 -0.465663
10121.848633 1478.151367 7871.974609 0.841234 0.274741 -0.465663
9827.237305 1071.207031 7099.652832 0.841234 0.274741 -0.465663
9827.237305 1071.207031 7099.652832 0.757772 0.397666 -0.517343
10044.306641 1926.404541 8074.967285 0.757772 0.397666 -0.517343
10190.939453 1766.963379 8167.188477 0.757772 0.397666 -0.517343
9950.622070 1517.374878 7655.841309 -0.977049 0.005587 0.212941
10100.907227 1870.552734 8336.136719 -0.977049 0.005587 0.212941
10044.306641 1926.404541 8074.967285 -0.977049 0.005587 0.212941
10190.939453 1766.963379 8167.188477 0.782339 0.535655 -0.317835
10044.306641 1926.404541 8074.967285 0.782339 0.535655 -0.317835
10143.247070 1934.288818 8331.792969 0.782339 0.535655 -0.317835
9980.086914 1417.855469 7788.432617 -0.976346 -0.001008 0.216210
10100.907227 1870.552734 8336.136719 -0.976346 -0.001008 0.216210
9950.622070 1517.374878 7655.841309 -0.976346 -0.001008 0.216210
10100.907227 1870.552734 8336.136719 -0.054214 -0.763753 0.643228
9980.086914 1417.855469 7788.432617 -0.054214 -0.763753 0.643228
10121.848633 1478.151367 7871.974609 -0.054214 -0.763753 0.643228
10190.939453 1766.963379 8167.188477 0.338536 -0.710993 0.616346
10100.907227 1870.552734 8336.136719 0.338536 -0.710993 0.616346
10121.848633 1478.151367 7871.974609 0.338536 -0.710993 0.616346
10044.306641 1926.404541 8074.967285 -0.788738 0.543530 0.287171
10100.907227 1870.552734 8336.136719 -0.788738 0.543530 0.287171
10143.247070 1934.288818 8331.792969 -0.788738 0.543530 0.287171
10190.939453 1766.963379 8167.188477 0.677619 -0.408463 0.611548
10143.247070 1934.288818 8331.792969 0.677619 -0.408463 0.611548
10100.907227 1870.552734 8336.136719 0.677619 -0.408463 0.611548
3 0 1 2
3 3 4 5
3 6 7 8
3 9 10 11
3 12 13 14
3 15 16 17
3 18 19 20
3 21 22 23
3 24 25 26
3 27 28 29
3 30 31 32
3 33 34 35
3 36 37 38
3 39 40 41
3 42 43 44
3 45 46 47
3 48 49 50
3 51 52 53
3 54 55 56
3 57 58 59
3 60 61 62
3 63 64 65
3 66 67 68
3 69 70 71
3 72 73 74
3 75 76 77
3 78 79 80
3 81 82 83
3 84 85 86
3 87 88 89
3 90 91 92
3 93 94 95
3 96 97 98
3 99 100 101
3 102 103 104
3 105 106 107
3 108 109 110
3 111 112 113
3 114 115 116
3 117 118 119
3 120 121 122
3 123 124 125
3 126 127 128
3 129 130 131
3 132 133 134
3 135 136 137
3 138 139 140
3 141 142 143
3 144 145 146
3 147 148 149
3 150 151 152
3 153 154 155
3 156 157 158
3 159 160 161
3 162 163 164
3 165 166 167
3 168 169 170
3 171 172 173
3 174 175 176
3 177 178 179
3 180 181 182
3 183 184 185
3 186 187 188
3 189 190 191
3 192 193 194
3 195 196 197
3 198 199 200
3 201 202 203
3 204 205 206
3 207 208 209
3 210 211 212
3 213 214 215
3 216 217 218
3 219 220 221
3 222 223 224
3 225 226 227
3 228 229 230
3 231 232 233
3 234 235 236
3 237 238 239
3 240 241 242
3 243 244 245
3 246 247 248
3 249 250 251
3 252 253 254
3 255 256 257
3 258 259 260
3 261 262 263
3 264 265 266
3 267 268 269
3 270 271 272
3 273 274 275
3 276 277 278
3 279 280 281
3 282 283 284
3 285 286 287
3 288 289 290
3 291 292 293
3 294 295 296
3 297 298 299
3 300 301 302
3 303 304 305
3 306 307 308
3 309 310 311
3 312 313 314
3 315 316 317
3 318 319 320
3 321 322 323
3 324 325 326
3 327 328 329
3 330 331 332
3 333 334 335
3 336 337 338
3 339 340 341
3 342 343 344
3 345 346 347
3 348 349 350
3 351 352 353
3 354 355 356
3 357 358 359
3 360 361 362
3 363 364 365
3 366 367 368
3 369 370 371
3 372 373 374
3 375 376 377
3 378 379 380
3 381 382 383
3 384 385 386
3 387 388 389
3 390 391 392
3 393 394 395
