ply
format ascii 1.0
comment Created by Blender 2.80 (sub 75) - www.blender.org, source file: 'downsample_ccf.blend'
element vertex 66
property float x
property float y
property float z
property float nx
property float ny
property float nz
element face 22
property list uchar uint vertex_indices
end_header
8471.908203 982.375610 4424.659180 0.234530 0.110953 0.965756
8489.972656 1012.796509 4416.777344 0.234530 0.110953 0.965756
8175.488281 1021.527283 4492.145508 0.234530 0.110953 0.965756
8341.086914 994.460327 4459.712402 -0.295548 0.226772 -0.928023
8489.972656 1012.796509 4416.777344 -0.295548 0.226772 -0.928023
8457.759766 981.916016 4419.490234 -0.295548 0.226772 -0.928023
8175.488281 1021.527283 4492.145508 -0.230239 -0.298957 -0.926075
8489.972656 1012.796509 4416.777344 -0.230239 -0.298957 -0.926075
8341.086914 994.460327 4459.712402 -0.230239 -0.298957 -0.926075
8471.908203 982.375610 4424.659180 -0.038771 -0.980375 0.193293
8341.086914 994.460327 4459.712402 -0.038771 -0.980375 0.193293
8457.759766 981.916016 4419.490234 -0.038771 -0.980375 0.193293
8175.488281 1021.527283 4492.145508 0.111313 -0.565668 0.817086
7967.467285 1020.539734 4519.800781 0.111313 -0.565668 0.817086
8471.908203 982.375610 4424.659180 0.111313 -0.565668 0.817086
7967.467285 1020.539734 4519.800781 0.110820 0.511915 0.851858
8175.488281 1021.527283 4492.145508 0.110820 0.511915 0.851858
7245.523926 1183.708740 4515.665039 0.110820 0.511915 0.851858
8175.488281 1021.527283 4492.145508 -0.170952 -0.935341 -0.309696
7852.261719 1055.226562 4568.787598 -0.170952 -0.935341 -0.309696
7245.523926 1183.708740 4515.665039 -0.170952 -0.935341 -0.309696
8175.488281 1021.527283 4492.145508 -0.223845 -0.236594 -0.945472
8341.086914 994.460327 4459.712402 -0.223845 -0.236594 -0.945472
8146.080078 1020.960022 4499.250000 -0.223845 -0.236594 -0.945472
8175.488281 1021.527283 4492.145508 -0.234042 -0.035123 -0.971592
8146.080078 1020.960022 4499.250000 -0.234042 -0.035123 -0.971592
7852.261719 1055.226562 4568.787598 -0.234042 -0.035123 -0.971592
8471.908203 982.375610 4424.659180 0.035117 0.977905 -0.206078
7967.467285 1020.539734 4519.800781 0.035117 0.977905 -0.206078
8341.086914 994.460327 4459.712402 0.035117 0.977905 -0.206078
6887.959473 1286.183594 4612.232422 -0.219700 -0.954887 0.199808
7245.523926 1183.708740 4515.665039 -0.219700 -0.954887 0.199808
7852.261719 1055.226562 4568.787598 -0.219700 -0.954887 0.199808
7172.568848 1158.822388 4532.133789 0.079845 0.376668 0.922901
7967.467285 1020.539734 4519.800781 0.079845 0.376668 0.922901
7245.523926 1183.708740 4515.665039 0.079845 0.376668 0.922901
7172.568848 1158.822388 4532.133789 0.109475 0.692868 -0.712706
6887.959473 1286.183594 4612.232422 0.109475 0.692868 -0.712706
7967.467285 1020.539734 4519.800781 0.109475 0.692868 -0.712706
8146.080078 1020.960022 4499.250000 -0.097946 0.533076 -0.840379
8341.086914 994.460327 4459.712402 -0.097946 0.533076 -0.840379
7967.467285 1020.539734 4519.800781 -0.097946 0.533076 -0.840379
6887.959473 1286.183594 4612.232422 0.223427 0.962179 -0.155857
7852.261719 1055.226562 4568.787598 0.223427 0.962179 -0.155857
7967.467285 1020.539734 4519.800781 0.223427 0.962179 -0.155857
6693.049316 1366.312256 6625.364258 -0.471011 -0.878323 0.081835
6869.055664 1277.625000 6686.522461 -0.471011 -0.878323 0.081835
6960.809570 1238.048950 6789.859375 -0.471011 -0.878323 0.081835
7702.762207 1065.561035 6798.013184 -0.216931 -0.380131 0.899134
8165.946289 1020.581360 6890.748047 -0.216931 -0.380131 0.899134
6869.055664 1277.625000 6686.522461 -0.216931 -0.380131 0.899134
6960.809570 1238.048950 6789.859375 0.030791 -0.763308 -0.645301
6611.742188 1326.652954 6668.396484 0.030791 -0.763308 -0.645301
6693.049316 1366.312256 6625.364258 0.030791 -0.763308 -0.645301
7702.762207 1065.561035 6798.013184 0.225367 0.972324 0.061611
6611.742188 1326.652954 6668.396484 0.225367 0.972324 0.061611
6960.809570 1238.048950 6789.859375 0.225367 0.972324 0.061611
7966.256836 1027.267456 6845.709961 0.207295 0.870581 -0.446225
7702.762207 1065.561035 6798.013184 0.207295 0.870581 -0.446225
6960.809570 1238.048950 6789.859375 0.207295 0.870581 -0.446225
8165.946289 1020.581360 6890.748047 -0.153996 -0.960647 -0.231174
6960.809570 1238.048950 6789.859375 -0.153996 -0.960647 -0.231174
6869.055664 1277.625000 6686.522461 -0.153996 -0.960647 -0.231174
6960.809570 1238.048950 6789.859375 0.182432 0.682751 -0.707509
8165.946289 1020.581360 6890.748047 0.182432 0.682751 -0.707509
7966.256836 1027.267456 6845.709961 0.182432 0.682751 -0.707509
3 0 1 2
3 3 4 5
3 6 7 8
3 9 10 11
3 12 13 14
3 15 16 17
3 18 19 20
3 21 22 23
3 24 25 26
3 27 28 29
3 30 31 32
3 33 34 35
3 36 37 38
3 39 40 41
3 42 43 44
3 45 46 47
3 48 49 50
3 51 52 53
3 54 55 56
3 57 58 59
3 60 61 62
3 63 64 65
