ply
format ascii 1.0
comment Created by Blender 2.80 (sub 75) - www.blender.org, source file: 'downsample_ccf.blend'
element vertex 39
property float x
property float y
property float z
property float nx
property float ny
property float nz
element face 13
property list uchar uint vertex_indices
end_header
7262.061523 1093.934937 4790.289062 0.249093 0.949391 0.191337
7071.230957 1142.308228 4798.700195 0.249093 0.949391 0.191337
7026.620117 1145.770020 4839.600098 0.249093 0.949391 0.191337
7799.118164 997.337585 4761.548340 0.158715 0.955918 -0.247044
7262.061523 1093.934937 4790.289062 0.158715 0.955918 -0.247044
7026.620117 1145.770020 4839.600098 0.158715 0.955918 -0.247044
7026.620117 1145.770020 4839.600098 0.027494 0.573587 -0.818683
6973.952637 1183.620361 4864.350098 0.027494 0.573587 -0.818683
7799.118164 997.337585 4761.548340 0.027494 0.573587 -0.818683
6927.947266 1203.700195 4923.097656 -0.175217 -0.947917 0.265993
7071.230957 1142.308228 4798.700195 -0.175217 -0.947917 0.265993
7799.118164 997.337585 4761.548340 -0.175217 -0.947917 0.265993
7071.230957 1142.308228 4798.700195 -0.380453 -0.924623 0.018101
6927.947266 1203.700195 4923.097656 -0.380453 -0.924623 0.018101
6973.952637 1183.620361 4864.350098 -0.380453 -0.924623 0.018101
6787.439453 1228.041992 4893.628906 0.163963 0.921126 -0.353048
7799.118164 997.337585 4761.548340 0.163963 0.921126 -0.353048
6973.952637 1183.620361 4864.350098 0.163963 0.921126 -0.353048
6973.952637 1183.620361 4864.350098 -0.583465 -0.790372 -0.186765
6927.947266 1203.700195 4923.097656 -0.583465 -0.790372 -0.186765
6774.991211 1320.174072 4908.035156 -0.583465 -0.790372 -0.186765
7799.118164 997.337585 4761.548340 0.200244 0.967284 -0.155771
6787.439453 1228.041992 4893.628906 0.200244 0.967284 -0.155771
6927.947266 1203.700195 4923.097656 0.200244 0.967284 -0.155771
7353.195312 1082.446533 6501.614258 0.243720 0.928030 -0.281710
6800.992188 1221.967163 6483.497559 0.243720 0.928030 -0.281710
7828.550781 985.121033 6592.249023 0.243720 0.928030 -0.281710
7868.331543 997.995056 6579.414551 -0.193686 -0.947679 0.253751
8125.285156 983.808655 6722.563477 -0.193686 -0.947679 0.253751
7353.195312 1082.446533 6501.614258 -0.193686 -0.947679 0.253751
7353.195312 1082.446533 6501.614258 -0.234408 -0.871935 0.429863
8125.285156 983.808655 6722.563477 -0.234408 -0.871935 0.429863
6800.992188 1221.967163 6483.497559 -0.234408 -0.871935 0.429863
7868.331543 997.995056 6579.414551 -0.167243 0.905525 0.389942
7828.550781 985.121033 6592.249023 -0.167243 0.905525 0.389942
8125.285156 983.808655 6722.563477 -0.167243 0.905525 0.389942
7828.550781 985.121033 6592.249023 0.242686 0.802867 -0.544526
6800.992188 1221.967163 6483.497559 0.242686 0.802867 -0.544526
8125.285156 983.808655 6722.563477 0.242686 0.802867 -0.544526
3 0 1 2
3 3 4 5
3 6 7 8
3 9 10 11
3 12 13 14
3 15 16 17
3 18 19 20
3 21 22 23
3 24 25 26
3 27 28 29
3 30 31 32
3 33 34 35
3 36 37 38
