ply
format ascii 1.0
comment Created by Blender 2.80 (sub 75) - www.blender.org, source file: 'downsample_ccf.blend'
element vertex 678
property float x
property float y
property float z
property float nx
property float ny
property float nz
element face 226
property list uchar uint vertex_indices
end_header
9027.595703 2678.584961 3931.661133 -0.226393 -0.274678 -0.934504
8880.073242 3003.260498 3871.968262 -0.226393 -0.274678 -0.934504
9393.125000 2580.711426 3871.875732 -0.226393 -0.274678 -0.934504
9393.125000 2580.711426 3871.875732 0.296267 0.359916 -0.884695
8880.073242 3003.260498 3871.968262 0.296267 0.359916 -0.884695
9214.675781 2831.083252 3913.974121 0.296267 0.359916 -0.884695
8874.121094 3182.499268 3924.010742 0.258825 0.277252 -0.925279
9214.675781 2831.083252 3913.974121 0.258825 0.277252 -0.925279
8880.073242 3003.260498 3871.968262 0.258825 0.277252 -0.925279
9393.125000 2580.711426 3871.875732 -0.268703 -0.501000 -0.822677
9538.279297 2355.221436 3961.785889 -0.268703 -0.501000 -0.822677
9027.595703 2678.584961 3931.661133 -0.268703 -0.501000 -0.822677
8664.568359 3277.769043 4002.602783 -0.606326 -0.100610 -0.788826
8880.073242 3003.260498 3871.968262 -0.606326 -0.100610 -0.788826
8698.326172 2926.812256 4021.417480 -0.606326 -0.100610 -0.788826
8880.073242 3003.260498 3871.968262 -0.231068 0.264206 -0.936377
8664.568359 3277.769043 4002.602783 -0.231068 0.264206 -0.936377
8874.121094 3182.499268 3924.010742 -0.231068 0.264206 -0.936377
9538.279297 2355.221436 3961.785889 -0.316579 -0.570564 -0.757783
9241.321289 2343.981445 4094.309082 -0.316579 -0.570564 -0.757783
9027.595703 2678.584961 3931.661133 -0.316579 -0.570564 -0.757783
9538.279297 2355.221436 3961.785889 0.797611 0.306245 -0.519645
9393.125000 2580.711426 3871.875732 0.797611 0.306245 -0.519645
9497.283203 2613.196045 4050.894043 0.797611 0.306245 -0.519645
9027.595703 2678.584961 3931.661133 -0.492873 -0.368834 -0.788060
8698.326172 2926.812256 4021.417480 -0.492873 -0.368834 -0.788060
8880.073242 3003.260498 3871.968262 -0.492873 -0.368834 -0.788060
9393.125000 2580.711426 3871.875732 0.668584 0.558988 -0.490436
9214.675781 2831.083252 3913.974121 0.668584 0.558988 -0.490436
9497.283203 2613.196045 4050.894043 0.668584 0.558988 -0.490436
9214.675781 2831.083252 3913.974121 0.687547 0.674013 -0.270159
8874.121094 3182.499268 3924.010742 0.687547 0.674013 -0.270159
8916.650391 3247.139648 4193.516602 0.687547 0.674013 -0.270159
9027.595703 2678.584961 3931.661133 -0.565006 -0.516946 -0.643067
8739.350586 2577.855957 4265.890625 -0.565006 -0.516946 -0.643067
8698.326172 2926.812256 4021.417480 -0.565006 -0.516946 -0.643067
9074.097656 3036.757568 4170.007324 0.659663 0.719836 -0.216057
9497.283203 2613.196045 4050.894043 0.659663 0.719836 -0.216057
9214.675781 2831.083252 3913.974121 0.659663 0.719836 -0.216057
9214.675781 2831.083252 3913.974121 0.797330 0.601814 -0.045660
8916.650391 3247.139648 4193.516602 0.797330 0.601814 -0.045660
9074.097656 3036.757568 4170.007324 0.797330 0.601814 -0.045660
8916.650391 3247.139648 4193.516602 0.313640 0.910942 -0.267981
8874.121094 3182.499268 3924.010742 0.313640 0.910942 -0.267981
8664.568359 3277.769043 4002.602783 0.313640 0.910942 -0.267981
8916.650391 3247.139648 4193.516602 0.320482 0.905580 -0.277876
8664.568359 3277.769043 4002.602783 0.320482 0.905580 -0.277876
8696.224609 3378.563477 4367.595215 0.320482 0.905580 -0.277876
9241.321289 2343.981445 4094.309082 -0.496039 -0.614863 -0.613098
8739.350586 2577.855957 4265.890625 -0.496039 -0.614863 -0.613098
9027.595703 2678.584961 3931.661133 -0.496039 -0.614863 -0.613098
9241.321289 2343.981445 4094.309082 -0.253336 -0.734161 -0.629943
9538.279297 2355.221436 3961.785889 -0.253336 -0.734161 -0.629943
9712.068359 2133.755859 4150.000488 -0.253336 -0.734161 -0.629943
9712.068359 2133.755859 4150.000488 0.838205 0.242715 -0.488367
9538.279297 2355.221436 3961.785889 0.838205 0.242715 -0.488367
9894.235352 2221.151367 4506.096191 0.838205 0.242715 -0.488367
8463.081055 2733.331299 4566.642578 -0.898003 -0.109226 -0.426217
8664.568359 3277.769043 4002.602783 -0.898003 -0.109226 -0.426217
8698.326172 2926.812256 4021.417480 -0.898003 -0.109226 -0.426217
9538.279297 2355.221436 3961.785889 0.831371 0.294829 -0.471062
9497.283203 2613.196045 4050.894043 0.831371 0.294829 -0.471062
9894.235352 2221.151367 4506.096191 0.831371 0.294829 -0.471062
8664.568359 3277.769043 4002.602783 0.026026 0.963012 -0.268198
8565.285156 3350.846680 4255.366699 0.026026 0.963012 -0.268198
8696.224609 3378.563477 4367.595215 0.026026 0.963012 -0.268198
9560.783203 2571.531250 4196.562988 0.690533 0.716907 -0.095965
9497.283203 2613.196045 4050.894043 0.690533 0.716907 -0.095965
9074.097656 3036.757568 4170.007324 0.690533 0.716907 -0.095965
9241.321289 2343.981445 4094.309082 -0.284750 -0.783819 -0.551856
9712.068359 2133.755859 4150.000488 -0.284750 -0.783819 -0.551856
9846.358398 1933.155273 4365.628418 -0.284750 -0.783819 -0.551856
9497.283203 2613.196045 4050.894043 0.784998 0.595152 -0.171969
9560.783203 2571.531250 4196.562988 0.784998 0.595152 -0.171969
9894.235352 2221.151367 4506.096191 0.784998 0.595152 -0.171969
8463.081055 2733.331299 4566.642578 -0.933026 -0.026457 -0.358835
8565.285156 3350.846680 4255.366699 -0.933026 -0.026457 -0.358835
8664.568359 3277.769043 4002.602783 -0.933026 -0.026457 -0.358835
8463.081055 2733.331299 4566.642578 -0.935983 -0.022192 -0.351345
8430.703125 3199.495361 4623.452637 -0.935983 -0.022192 -0.351345
8565.285156 3350.846680 4255.366699 -0.935983 -0.022192 -0.351345
8565.285156 3350.846680 4255.366699 -0.213436 0.976926 0.007752
8525.811523 3339.679688 4575.848633 -0.213436 0.976926 0.007752
8696.224609 3378.563477 4367.595215 -0.213436 0.976926 0.007752
9560.783203 2571.531250 4196.562988 0.557689 0.615220 0.557214
9074.097656 3036.757568 4170.007324 0.557689 0.615220 0.557214
8853.888672 2755.196289 4701.275391 0.557689 0.615220 0.557214
9894.235352 2221.151367 4506.096191 0.848273 0.210962 -0.485725
10085.144531 2037.602539 4759.781738 0.848273 0.210962 -0.485725
9712.068359 2133.755859 4150.000488 0.848273 0.210962 -0.485725
9231.728516 2458.227783 4647.514648 0.384614 0.789119 0.478918
9894.235352 2221.151367 4506.096191 0.384614 0.789119 0.478918
9560.783203 2571.531250 4196.562988 0.384614 0.789119 0.478918
8698.326172 2926.812256 4021.417480 -0.764991 -0.427441 -0.481750
8739.350586 2577.855957 4265.890625 -0.764991 -0.427441 -0.481750
8463.081055 2733.331299 4566.642578 -0.764991 -0.427441 -0.481750
9074.097656 3036.757568 4170.007324 0.768562 0.536180 0.349032
8916.650391 3247.139648 4193.516602 0.768562 0.536180 0.349032
8698.275391 3261.125977 4652.889160 0.768562 0.536180 0.349032
8698.275391 3261.125977 4652.889160 0.647251 0.706519 0.286177
8916.650391 3247.139648 4193.516602 0.647251 0.706519 0.286177
8696.224609 3378.563477 4367.595215 0.647251 0.706519 0.286177
9846.358398 1933.155273 4365.628418 0.851305 0.030387 -0.523790
10085.144531 2037.602539 4759.781738 0.851305 0.030387 -0.523790
10007.087891 1786.861206 4618.371582 0.851305 0.030387 -0.523790
9846.358398 1933.155273 4365.628418 0.853800 0.012118 -0.520461
9712.068359 2133.755859 4150.000488 0.853800 0.012118 -0.520461
10085.144531 2037.602539 4759.781738 0.853800 0.012118 -0.520461
8739.350586 2577.855957 4265.890625 -0.499270 -0.735045 -0.458736
9241.321289 2343.981445 4094.309082 -0.499270 -0.735045 -0.458736
8939.244141 2015.572876 4949.295410 -0.499270 -0.735045 -0.458736
8430.703125 3199.495361 4623.452637 -0.837648 0.539654 -0.084369
8525.811523 3339.679688 4575.848633 -0.837648 0.539654 -0.084369
8565.285156 3350.846680 4255.366699 -0.837648 0.539654 -0.084369
9515.555664 1730.273926 4924.544922 -0.329621 -0.807982 -0.488381
9241.321289 2343.981445 4094.309082 -0.329621 -0.807982 -0.488381
9846.358398 1933.155273 4365.628418 -0.329621 -0.807982 -0.488381
8371.965820 2920.427246 4693.386719 -0.799273 0.017692 -0.600707
8430.703125 3199.495361 4623.452637 -0.799273 0.017692 -0.600707
8463.081055 2733.331299 4566.642578 -0.799273 0.017692 -0.600707
9231.728516 2458.227783 4647.514648 0.384603 0.797958 0.464051
9688.277344 2251.775391 4624.133789 0.384603 0.797958 0.464051
9894.235352 2221.151367 4506.096191 0.384603 0.797958 0.464051
10007.087891 1786.861206 4618.371582 -0.407066 -0.878608 -0.249690
10074.452148 1690.497070 4847.633789 -0.407066 -0.878608 -0.249690
9846.358398 1933.155273 4365.628418 -0.407066 -0.878608 -0.249690
8939.244141 2015.572876 4949.295410 -0.411669 -0.792554 -0.449875
9241.321289 2343.981445 4094.309082 -0.411669 -0.792554 -0.449875
9515.555664 1730.273926 4924.544922 -0.411669 -0.792554 -0.449875
10074.452148 1690.497070 4847.633789 -0.119781 -0.908378 -0.400627
9515.555664 1730.273926 4924.544922 -0.119781 -0.908378 -0.400627
9846.358398 1933.155273 4365.628418 -0.119781 -0.908378 -0.400627
9231.728516 2458.227783 4647.514648 0.559289 0.609971 0.561365
9560.783203 2571.531250 4196.562988 0.559289 0.609971 0.561365
8853.888672 2755.196289 4701.275391 0.559289 0.609971 0.561365
9074.097656 3036.757568 4170.007324 0.815448 0.298258 0.496071
8698.275391 3261.125977 4652.889160 0.815448 0.298258 0.496071
8853.888672 2755.196289 4701.275391 0.815448 0.298258 0.496071
8696.224609 3378.563477 4367.595215 0.244484 0.897275 0.367594
8525.811523 3339.679688 4575.848633 0.244484 0.897275 0.367594
8698.275391 3261.125977 4652.889160 0.244484 0.897275 0.367594
8525.811523 3339.679688 4575.848633 0.198313 0.872792 0.445988
8538.380859 3250.122070 4745.522461 0.198313 0.872792 0.445988
8698.275391 3261.125977 4652.889160 0.198313 0.872792 0.445988
8385.908203 3110.254395 4867.937500 -0.816438 0.574303 0.060041
8525.811523 3339.679688 4575.848633 -0.816438 0.574303 0.060041
8430.703125 3199.495361 4623.452637 -0.816438 0.574303 0.060041
8525.811523 3339.679688 4575.848633 -0.376222 0.807598 0.454139
8385.908203 3110.254395 4867.937500 -0.376222 0.807598 0.454139
8538.380859 3250.122070 4745.522461 -0.376222 0.807598 0.454139
10149.942383 1851.330444 5235.079102 0.456286 0.847858 0.270075
10085.144531 2037.602539 4759.781738 0.456286 0.847858 0.270075
9894.235352 2221.151367 4506.096191 0.456286 0.847858 0.270075
8371.965820 2920.427246 4693.386719 -0.960889 0.142780 -0.237290
8269.256836 2878.537109 5084.092773 -0.960889 0.142780 -0.237290
8430.703125 3199.495361 4623.452637 -0.960889 0.142780 -0.237290
10074.452148 1690.497070 4847.633789 0.940011 -0.110633 -0.322706
10007.087891 1786.861206 4618.371582 0.940011 -0.110633 -0.322706
10085.144531 2037.602539 4759.781738 0.940011 -0.110633 -0.322706
10149.942383 1851.330444 5235.079102 0.323716 0.884752 0.335294
9894.235352 2221.151367 4506.096191 0.323716 0.884752 0.335294
9688.277344 2251.775391 4624.133789 0.323716 0.884752 0.335294
8853.888672 2755.196289 4701.275391 0.533818 0.565352 0.628820
8528.217773 2525.104248 5184.612305 0.533818 0.565352 0.628820
9231.728516 2458.227783 4647.514648 0.533818 0.565352 0.628820
9003.010742 2168.060059 5202.551270 0.368385 0.752881 0.545402
9688.277344 2251.775391 4624.133789 0.368385 0.752881 0.545402
9231.728516 2458.227783 4647.514648 0.368385 0.752881 0.545402
8269.256836 2878.537109 5084.092773 -0.892930 0.450196 0.000725
8385.908203 3110.254395 4867.937500 -0.892930 0.450196 0.000725
8430.703125 3199.495361 4623.452637 -0.892930 0.450196 0.000725
8739.350586 2577.855957 4265.890625 -0.726197 -0.581747 -0.366344
8262.950195 2595.681641 5181.942871 -0.726197 -0.581747 -0.366344
8463.081055 2733.331299 4566.642578 -0.726197 -0.581747 -0.366344
8853.888672 2755.196289 4701.275391 0.727318 0.283483 0.625017
8698.275391 3261.125977 4652.889160 0.727318 0.283483 0.625017
8528.217773 2525.104248 5184.612305 0.727318 0.283483 0.625017
8739.350586 2577.855957 4265.890625 -0.656374 -0.665425 -0.355503
8939.244141 2015.572876 4949.295410 -0.656374 -0.665425 -0.355503
8323.925781 2426.913818 5315.432129 -0.656374 -0.665425 -0.355503
8262.950195 2595.681641 5181.942871 -0.738355 -0.561839 -0.373054
8739.350586 2577.855957 4265.890625 -0.738355 -0.561839 -0.373054
8323.925781 2426.913818 5315.432129 -0.738355 -0.561839 -0.373054
8698.275391 3261.125977 4652.889160 0.392397 0.543697 0.741902
8538.380859 3250.122070 4745.522461 0.392397 0.543697 0.741902
8327.885742 2893.703857 5118.052734 0.392397 0.543697 0.741902
8385.908203 3110.254395 4867.937500 -0.208301 0.762825 0.612134
8327.885742 2893.703857 5118.052734 -0.208301 0.762825 0.612134
8538.380859 3250.122070 4745.522461 -0.208301 0.762825 0.612134
8463.081055 2733.331299 4566.642578 -0.914473 -0.211761 -0.344812
8262.950195 2595.681641 5181.942871 -0.914473 -0.211761 -0.344812
8371.965820 2920.427246 4693.386719 -0.914473 -0.211761 -0.344812
9502.674805 1990.632568 5163.240234 0.135686 0.872519 0.469361
10149.942383 1851.330444 5235.079102 0.135686 0.872519 0.469361
9688.277344 2251.775391 4624.133789 0.135686 0.872519 0.469361
9231.728516 2458.227783 4647.514648 0.486986 0.675411 0.553774
8528.217773 2525.104248 5184.612305 0.486986 0.675411 0.553774
9003.010742 2168.060059 5202.551270 0.486986 0.675411 0.553774
8371.965820 2920.427246 4693.386719 -0.963024 -0.068652 -0.260521
8262.950195 2595.681641 5181.942871 -0.963024 -0.068652 -0.260521
8269.256836 2878.537109 5084.092773 -0.963024 -0.068652 -0.260521
9502.674805 1990.632568 5163.240234 0.324398 0.802666 0.500494
9688.277344 2251.775391 4624.133789 0.324398 0.802666 0.500494
9003.010742 2168.060059 5202.551270 0.324398 0.802666 0.500494
8528.217773 2525.104248 5184.612305 0.520871 0.417537 0.744551
8698.275391 3261.125977 4652.889160 0.520871 0.417537 0.744551
8327.885742 2893.703857 5118.052734 0.520871 0.417537 0.744551
9058.854492 1879.061768 5214.542480 -0.438405 -0.864157 -0.247050
8939.244141 2015.572876 4949.295410 -0.438405 -0.864157 -0.247050
9515.555664 1730.273926 4924.544922 -0.438405 -0.864157 -0.247050
8528.217773 2525.104248 5184.612305 0.739781 0.486078 0.465244
8327.885742 2893.703857 5118.052734 0.739781 0.486078 0.465244
8353.927734 2739.233154 5238.031738 0.739781 0.486078 0.465244
8385.908203 3110.254395 4867.937500 -0.479449 0.715440 0.508206
8269.256836 2878.537109 5084.092773 -0.479449 0.715440 0.508206
8327.885742 2893.703857 5118.052734 -0.479449 0.715440 0.508206
10074.452148 1690.497070 4847.633789 0.984873 -0.070412 -0.158330
10085.144531 2037.602539 4759.781738 0.984873 -0.070412 -0.158330
10146.416016 1601.500244 5334.854492 0.984873 -0.070412 -0.158330
9412.043945 1705.223267 5259.368652 -0.413224 -0.889657 -0.194311
9058.854492 1879.061768 5214.542480 -0.413224 -0.889657 -0.194311
9515.555664 1730.273926 4924.544922 -0.413224 -0.889657 -0.194311
10074.452148 1690.497070 4847.633789 -0.088202 -0.987557 -0.130201
9883.184570 1646.270020 5312.660645 -0.088202 -0.987557 -0.130201
9515.555664 1730.273926 4924.544922 -0.088202 -0.987557 -0.130201
9515.555664 1730.273926 4924.544922 -0.111355 -0.987858 -0.108335
9883.184570 1646.270020 5312.660645 -0.111355 -0.987858 -0.108335
9412.043945 1705.223267 5259.368652 -0.111355 -0.987858 -0.108335
10074.452148 1690.497070 4847.633789 -0.152854 -0.975909 -0.155685
10146.416016 1601.500244 5334.854492 -0.152854 -0.975909 -0.155685
9883.184570 1646.270020 5312.660645 -0.152854 -0.975909 -0.155685
10146.416016 1601.500244 5334.854492 0.982997 -0.079902 -0.165327
10085.144531 2037.602539 4759.781738 0.982997 -0.079902 -0.165327
10149.942383 1851.330444 5235.079102 0.982997 -0.079902 -0.165327
9058.854492 1879.061768 5214.542480 -0.604018 -0.785944 -0.132116
8323.925781 2426.913818 5315.432129 -0.604018 -0.785944 -0.132116
8939.244141 2015.572876 4949.295410 -0.604018 -0.785944 -0.132116
8267.309570 2699.818359 5360.275391 -0.468832 0.743070 0.477538
8327.885742 2893.703857 5118.052734 -0.468832 0.743070 0.477538
8269.256836 2878.537109 5084.092773 -0.468832 0.743070 0.477538
9502.674805 1990.632568 5163.240234 0.341634 0.923815 0.172778
9003.010742 2168.060059 5202.551270 0.341634 0.923815 0.172778
9382.405273 2004.039673 5329.363770 0.341634 0.923815 0.172778
8262.950195 2595.681641 5181.942871 -0.999628 0.025575 0.009502
8267.309570 2699.818359 5360.275391 -0.999628 0.025575 0.009502
8269.256836 2878.537109 5084.092773 -0.999628 0.025575 0.009502
8353.927734 2739.233154 5238.031738 0.581639 0.557875 0.592006
8327.885742 2893.703857 5118.052734 0.581639 0.557875 0.592006
8267.309570 2699.818359 5360.275391 0.581639 0.557875 0.592006
10149.942383 1851.330444 5235.079102 0.202543 0.976822 0.069239
9502.674805 1990.632568 5163.240234 0.202543 0.976822 0.069239
10090.748047 1846.394775 5477.871582 0.202543 0.976822 0.069239
8323.925781 2426.913818 5315.432129 -0.573561 -0.801004 0.171525
9058.854492 1879.061768 5214.542480 -0.573561 -0.801004 0.171525
8652.419922 2226.123047 5476.209473 -0.573561 -0.801004 0.171525
8528.217773 2525.104248 5184.612305 0.584287 0.786941 0.198324
8518.545898 2441.584229 5544.511719 0.584287 0.786941 0.198324
9003.010742 2168.060059 5202.551270 0.584287 0.786941 0.198324
8353.927734 2739.233154 5238.031738 0.771562 0.546980 0.324815
8293.598633 2654.357666 5524.265137 0.771562 0.546980 0.324815
8528.217773 2525.104248 5184.612305 0.771562 0.546980 0.324815
8652.419922 2226.123047 5476.209473 -0.446847 -0.809855 0.380083
9058.854492 1879.061768 5214.542480 -0.446847 -0.809855 0.380083
9412.043945 1705.223267 5259.368652 -0.446847 -0.809855 0.380083
9502.674805 1990.632568 5163.240234 0.203089 0.976782 0.068200
9382.405273 2004.039673 5329.363770 0.203089 0.976782 0.068200
10090.748047 1846.394775 5477.871582 0.203089 0.976782 0.068200
9412.043945 1705.223267 5259.368652 -0.148429 -0.955391 0.255336
9883.184570 1646.270020 5312.660645 -0.148429 -0.955391 0.255336
9800.313477 1712.752563 5513.244629 -0.148429 -0.955391 0.255336
10146.416016 1601.500244 5334.854492 -0.170904 -0.984425 0.041217
10047.271484 1632.400024 5661.769043 -0.170904 -0.984425 0.041217
9883.184570 1646.270020 5312.660645 -0.170904 -0.984425 0.041217
9382.405273 2004.039673 5329.363770 0.428949 0.894435 -0.126449
9003.010742 2168.060059 5202.551270 0.428949 0.894435 -0.126449
9093.515625 2191.260742 5673.676270 0.428949 0.894435 -0.126449
8323.427734 2420.722656 5734.662598 -0.516757 -0.856030 -0.013256
8323.925781 2426.913818 5315.432129 -0.516757 -0.856030 -0.013256
8652.419922 2226.123047 5476.209473 -0.516757 -0.856030 -0.013256
8528.217773 2525.104248 5184.612305 0.666386 0.722164 0.185497
8293.598633 2654.357666 5524.265137 0.666386 0.722164 0.185497
8518.545898 2441.584229 5544.511719 0.666386 0.722164 0.185497
9093.515625 2191.260742 5673.676270 0.419501 0.899126 -0.124865
9003.010742 2168.060059 5202.551270 0.419501 0.899126 -0.124865
8518.545898 2441.584229 5544.511719 0.419501 0.899126 -0.124865
8353.927734 2739.233154 5238.031738 -0.049972 0.960362 0.274239
8267.309570 2699.818359 5360.275391 -0.049972 0.960362 0.274239
8293.598633 2654.357666 5524.265137 -0.049972 0.960362 0.274239
8275.179688 2471.336914 6002.506836 -0.999007 0.039379 0.020856
8278.791992 2655.081055 5828.605469 -0.999007 0.039379 0.020856
8262.950195 2595.681641 5181.942871 -0.999007 0.039379 0.020856
8262.950195 2595.681641 5181.942871 -0.999700 -0.000107 0.024500
8278.791992 2655.081055 5828.605469 -0.999700 -0.000107 0.024500
8267.309570 2699.818359 5360.275391 -0.999700 -0.000107 0.024500
9800.313477 1712.752563 5513.244629 -0.348538 -0.754993 0.555434
9441.125000 1952.416626 5613.623535 -0.348538 -0.754993 0.555434
9412.043945 1705.223267 5259.368652 -0.348538 -0.754993 0.555434
9412.043945 1705.223267 5259.368652 -0.357448 -0.751880 0.553993
9441.125000 1952.416626 5613.623535 -0.357448 -0.751880 0.553993
8652.419922 2226.123047 5476.209473 -0.357448 -0.751880 0.553993
10146.416016 1601.500244 5334.854492 0.998366 0.008474 0.056505
10149.942383 1851.330444 5235.079102 0.998366 0.008474 0.056505
10126.236328 1709.910400 5675.145020 0.998366 0.008474 0.056505
10126.236328 1709.910400 5675.145020 0.826486 0.521473 0.212103
10149.942383 1851.330444 5235.079102 0.826486 0.521473 0.212103
10090.748047 1846.394775 5477.871582 0.826486 0.521473 0.212103
9883.184570 1646.270020 5312.660645 -0.383414 -0.912287 0.143966
10047.271484 1632.400024 5661.769043 -0.383414 -0.912287 0.143966
9800.313477 1712.752563 5513.244629 -0.383414 -0.912287 0.143966
8262.950195 2595.681641 5181.942871 -0.928579 -0.368746 -0.042039
8323.925781 2426.913818 5315.432129 -0.928579 -0.368746 -0.042039
8275.179688 2471.336914 6002.506836 -0.928579 -0.368746 -0.042039
10090.748047 1846.394775 5477.871582 0.264138 0.922886 -0.280202
9382.405273 2004.039673 5329.363770 0.264138 0.922886 -0.280202
9093.515625 2191.260742 5673.676270 0.264138 0.922886 -0.280202
10047.271484 1632.400024 5661.769043 0.652243 -0.710203 0.264936
10146.416016 1601.500244 5334.854492 0.652243 -0.710203 0.264936
10126.236328 1709.910400 5675.145020 0.652243 -0.710203 0.264936
9800.313477 1712.752563 5513.244629 -0.288468 -0.956737 -0.037952
10047.271484 1632.400024 5661.769043 -0.288468 -0.956737 -0.037952
9956.919922 1651.128052 5876.401855 -0.288468 -0.956737 -0.037952
8652.419922 2226.123047 5476.209473 -0.356119 -0.900012 0.251313
9441.125000 1952.416626 5613.623535 -0.356119 -0.900012 0.251313
8929.963867 2173.479248 5680.968750 -0.356119 -0.900012 0.251313
8267.309570 2699.818359 5360.275391 0.800445 0.598231 0.037521
8278.791992 2655.081055 5828.605469 0.800445 0.598231 0.037521
8293.598633 2654.357666 5524.265137 0.800445 0.598231 0.037521
9800.313477 1712.752563 5513.244629 -0.535626 -0.839808 0.088474
9956.919922 1651.128052 5876.401855 -0.535626 -0.839808 0.088474
9441.125000 1952.416626 5613.623535 -0.535626 -0.839808 0.088474
9716.084961 1996.357178 5708.488281 0.302750 0.945134 -0.122738
10090.748047 1846.394775 5477.871582 0.302750 0.945134 -0.122738
9093.515625 2191.260742 5673.676270 0.302750 0.945134 -0.122738
8929.963867 2173.479248 5680.968750 -0.348304 -0.906379 0.239083
8323.427734 2420.722656 5734.662598 -0.348304 -0.906379 0.239083
8652.419922 2226.123047 5476.209473 -0.348304 -0.906379 0.239083
8293.598633 2654.357666 5524.265137 0.685328 0.727548 0.031613
8278.791992 2655.081055 5828.605469 0.685328 0.727548 0.031613
8518.545898 2441.584229 5544.511719 0.685328 0.727548 0.031613
10126.236328 1709.910400 5675.145020 0.970051 0.242814 -0.006515
10090.748047 1846.394775 5477.871582 0.970051 0.242814 -0.006515
10095.098633 1840.420288 5902.996094 0.970051 0.242814 -0.006515
10090.748047 1846.394775 5477.871582 0.376441 0.926395 0.009167
9716.084961 1996.357178 5708.488281 0.376441 0.926395 0.009167
10095.098633 1840.420288 5902.996094 0.376441 0.926395 0.009167
9441.125000 1952.416626 5613.623535 -0.401739 -0.914533 -0.047283
9521.626953 1908.592163 5777.278320 -0.401739 -0.914533 -0.047283
8929.963867 2173.479248 5680.968750 -0.401739 -0.914533 -0.047283
9441.125000 1952.416626 5613.623535 -0.512733 -0.858256 0.022385
9956.919922 1651.128052 5876.401855 -0.512733 -0.858256 0.022385
9521.626953 1908.592163 5777.278320 -0.512733 -0.858256 0.022385
8323.925781 2426.913818 5315.432129 -0.751296 -0.659880 -0.010638
8323.427734 2420.722656 5734.662598 -0.751296 -0.659880 -0.010638
8275.179688 2471.336914 6002.506836 -0.751296 -0.659880 -0.010638
10047.271484 1632.400024 5661.769043 0.698224 -0.666036 -0.262448
10126.236328 1709.910400 5675.145020 0.698224 -0.666036 -0.262448
10155.318359 1607.583252 6012.199707 0.698224 -0.666036 -0.262448
10126.236328 1709.910400 5675.145020 0.889681 0.437907 -0.129245
10095.098633 1840.420288 5902.996094 0.889681 0.437907 -0.129245
10174.205078 1748.221069 6135.150879 0.889681 0.437907 -0.129245
8518.545898 2441.584229 5544.511719 0.615852 0.784745 -0.070004
8278.791992 2655.081055 5828.605469 0.615852 0.784745 -0.070004
8757.525391 2295.519043 6009.517578 0.615852 0.784745 -0.070004
10155.318359 1607.583252 6012.199707 0.993933 -0.046233 -0.099795
10126.236328 1709.910400 5675.145020 0.993933 -0.046233 -0.099795
10174.205078 1748.221069 6135.150879 0.993933 -0.046233 -0.099795
8929.963867 2173.479248 5680.968750 -0.361148 -0.898025 -0.251244
9521.626953 1908.592163 5777.278320 -0.361148 -0.898025 -0.251244
8596.413086 2242.389404 5914.121582 -0.361148 -0.898025 -0.251244
9093.515625 2191.260742 5673.676270 0.379577 0.920370 0.094026
8518.545898 2441.584229 5544.511719 0.379577 0.920370 0.094026
8757.525391 2295.519043 6009.517578 0.379577 0.920370 0.094026
9367.587891 2001.000977 6079.328613 0.276721 0.928284 0.248424
9716.084961 1996.357178 5708.488281 0.276721 0.928284 0.248424
9093.515625 2191.260742 5673.676270 0.276721 0.928284 0.248424
8929.963867 2173.479248 5680.968750 -0.383199 -0.877320 -0.288910
8596.413086 2242.389404 5914.121582 -0.383199 -0.877320 -0.288910
8323.427734 2420.722656 5734.662598 -0.383199 -0.877320 -0.288910
10047.271484 1632.400024 5661.769043 -0.211832 -0.977298 -0.003897
10155.318359 1607.583252 6012.199707 -0.211832 -0.977298 -0.003897
9956.919922 1651.128052 5876.401855 -0.211832 -0.977298 -0.003897
9521.626953 1908.592163 5777.278320 -0.310056 -0.749432 -0.584994
9956.919922 1651.128052 5876.401855 -0.310056 -0.749432 -0.584994
9308.087891 1750.392944 6093.125488 -0.310056 -0.749432 -0.584994
9521.626953 1908.592163 5777.278320 -0.348858 -0.722011 -0.597493
9308.087891 1750.392944 6093.125488 -0.348858 -0.722011 -0.597493
8596.413086 2242.389404 5914.121582 -0.348858 -0.722011 -0.597493
9093.515625 2191.260742 5673.676270 0.417587 0.897939 0.139017
8757.525391 2295.519043 6009.517578 0.417587 0.897939 0.139017
9367.587891 2001.000977 6079.328613 0.417587 0.897939 0.139017
8278.791992 2655.081055 5828.605469 0.719886 0.650813 -0.241261
8254.969727 2829.090576 6226.921875 0.719886 0.650813 -0.241261
8298.351562 2703.373535 6017.239258 0.719886 0.650813 -0.241261
10095.098633 1840.420288 5902.996094 0.263658 0.935286 0.236061
9716.084961 1996.357178 5708.488281 0.263658 0.935286 0.236061
9367.587891 2001.000977 6079.328613 0.263658 0.935286 0.236061
9367.587891 2001.000977 6079.328613 0.186333 0.975213 -0.119326
10106.345703 1868.776978 6152.308105 0.186333 0.975213 -0.119326
10095.098633 1840.420288 5902.996094 0.186333 0.975213 -0.119326
10095.098633 1840.420288 5902.996094 0.861566 0.498567 -0.095574
10106.345703 1868.776978 6152.308105 0.861566 0.498567 -0.095574
10174.205078 1748.221069 6135.150879 0.861566 0.498567 -0.095574
8275.179688 2471.336914 6002.506836 -0.998491 -0.026098 -0.048316
8254.969727 2829.090576 6226.921875 -0.998491 -0.026098 -0.048316
8278.791992 2655.081055 5828.605469 -0.998491 -0.026098 -0.048316
8278.791992 2655.081055 5828.605469 0.696021 0.674943 -0.244964
8298.351562 2703.373535 6017.239258 0.696021 0.674943 -0.244964
8591.954102 2465.784424 6196.834473 0.696021 0.674943 -0.244964
8275.179688 2471.336914 6002.506836 -0.570020 -0.819966 0.052268
8323.427734 2420.722656 5734.662598 -0.570020 -0.819966 0.052268
8596.413086 2242.389404 5914.121582 -0.570020 -0.819966 0.052268
8757.525391 2295.519043 6009.517578 0.628007 0.765397 -0.140621
8278.791992 2655.081055 5828.605469 0.628007 0.765397 -0.140621
8591.954102 2465.784424 6196.834473 0.628007 0.765397 -0.140621
9221.851562 2076.329590 6210.391113 0.437361 0.898777 -0.030247
9367.587891 2001.000977 6079.328613 0.437361 0.898777 -0.030247
8757.525391 2295.519043 6009.517578 0.437361 0.898777 -0.030247
9308.087891 1750.392944 6093.125488 -0.162035 -0.986220 -0.033390
9956.919922 1651.128052 5876.401855 -0.162035 -0.986220 -0.033390
9502.478516 1708.565308 6385.222656 -0.162035 -0.986220 -0.033390
8946.212891 1965.433228 6314.569336 -0.587977 -0.807627 -0.044958
8275.179688 2471.336914 6002.506836 -0.587977 -0.807627 -0.044958
8596.413086 2242.389404 5914.121582 -0.587977 -0.807627 -0.044958
9221.851562 2076.329590 6210.391113 0.507984 0.811556 -0.288668
8757.525391 2295.519043 6009.517578 0.507984 0.811556 -0.288668
8591.954102 2465.784424 6196.834473 0.507984 0.811556 -0.288668
10116.790039 1652.097168 6376.725098 -0.270901 -0.958538 0.088419
9956.919922 1651.128052 5876.401855 -0.270901 -0.958538 0.088419
10155.318359 1607.583252 6012.199707 -0.270901 -0.958538 0.088419
8298.351562 2703.373535 6017.239258 -0.217050 0.816757 -0.534600
8254.969727 2829.090576 6226.921875 -0.217050 0.816757 -0.534600
8362.272461 2881.624756 6263.617676 -0.217050 0.816757 -0.534600
8946.212891 1965.433228 6314.569336 -0.550197 -0.829807 -0.093299
8596.413086 2242.389404 5914.121582 -0.550197 -0.829807 -0.093299
9308.087891 1750.392944 6093.125488 -0.550197 -0.829807 -0.093299
8275.179688 2471.336914 6002.506836 -0.978158 -0.147274 0.146689
8299.739258 2741.947998 6437.965332 -0.978158 -0.147274 0.146689
8254.969727 2829.090576 6226.921875 -0.978158 -0.147274 0.146689
10106.345703 1868.776978 6152.308105 0.844988 0.501907 -0.184621
10096.333984 2022.657593 6524.822266 0.844988 0.501907 -0.184621
10174.205078 1748.221069 6135.150879 0.844988 0.501907 -0.184621
10116.790039 1652.097168 6376.725098 0.960876 -0.243860 0.131338
10155.318359 1607.583252 6012.199707 0.960876 -0.243860 0.131338
10174.205078 1748.221069 6135.150879 0.960876 -0.243860 0.131338
9308.087891 1750.392944 6093.125488 -0.430484 -0.888436 0.159265
9502.478516 1708.565308 6385.222656 -0.430484 -0.888436 0.159265
8946.212891 1965.433228 6314.569336 -0.430484 -0.888436 0.159265
10106.345703 1868.776978 6152.308105 0.197254 0.928582 -0.314367
9367.587891 2001.000977 6079.328613 0.197254 0.928582 -0.314367
9221.851562 2076.329590 6210.391113 0.197254 0.928582 -0.314367
9004.333008 2269.158203 6328.905762 0.493893 0.785859 -0.372150
9221.851562 2076.329590 6210.391113 0.493893 0.785859 -0.372150
8591.954102 2465.784424 6196.834473 0.493893 0.785859 -0.372150
8362.272461 2881.624756 6263.617676 0.705741 0.474319 -0.526262
8591.954102 2465.784424 6196.834473 0.705741 0.474319 -0.526262
8298.351562 2703.373535 6017.239258 0.705741 0.474319 -0.526262
9956.919922 1651.128052 5876.401855 -0.091065 -0.995361 0.031026
10116.790039 1652.097168 6376.725098 -0.091065 -0.995361 0.031026
9502.478516 1708.565308 6385.222656 -0.091065 -0.995361 0.031026
8447.500000 2491.028320 6501.523926 -0.654820 -0.711751 0.254208
8275.179688 2471.336914 6002.506836 -0.654820 -0.711751 0.254208
8946.212891 1965.433228 6314.569336 -0.654820 -0.711751 0.254208
8591.954102 2465.784424 6196.834473 0.637623 0.452323 -0.623571
8362.272461 2881.624756 6263.617676 0.637623 0.452323 -0.623571
8853.758789 2703.457031 6636.940918 0.637623 0.452323 -0.623571
10022.136719 1750.118042 6697.551270 -0.084500 -0.959633 0.268263
9502.478516 1708.565308 6385.222656 -0.084500 -0.959633 0.268263
10116.790039 1652.097168 6376.725098 -0.084500 -0.959633 0.268263
10106.345703 1868.776978 6152.308105 0.179338 0.884682 -0.430320
9221.851562 2076.329590 6210.391113 0.179338 0.884682 -0.430320
9767.994141 2306.385742 6910.964844 0.179338 0.884682 -0.430320
8669.914062 3226.089355 6680.915039 0.643196 0.286017 -0.710277
8853.758789 2703.457031 6636.940918 0.643196 0.286017 -0.710277
8362.272461 2881.624756 6263.617676 0.643196 0.286017 -0.710277
10096.333984 2022.657593 6524.822266 0.340719 0.872141 -0.351113
10106.345703 1868.776978 6152.308105 0.340719 0.872141 -0.351113
9767.994141 2306.385742 6910.964844 0.340719 0.872141 -0.351113
8275.179688 2471.336914 6002.506836 -0.851375 -0.422660 0.310675
8447.500000 2491.028320 6501.523926 -0.851375 -0.422660 0.310675
8299.739258 2741.947998 6437.965332 -0.851375 -0.422660 0.310675
8460.848633 3222.586670 6608.171875 -0.121095 0.722676 -0.680496
8362.272461 2881.624756 6263.617676 -0.121095 0.722676 -0.680496
8254.969727 2829.090576 6226.921875 -0.121095 0.722676 -0.680496
10174.205078 1748.221069 6135.150879 0.976344 -0.064577 0.206353
10063.723633 1808.052612 6676.610840 0.976344 -0.064577 0.206353
10116.790039 1652.097168 6376.725098 0.976344 -0.064577 0.206353
9767.994141 2306.385742 6910.964844 0.374495 0.754070 -0.539567
9221.851562 2076.329590 6210.391113 0.374495 0.754070 -0.539567
9004.333008 2269.158203 6328.905762 0.374495 0.754070 -0.539567
10096.333984 2022.657593 6524.822266 0.979637 -0.006939 0.200655
10063.723633 1808.052612 6676.610840 0.979637 -0.006939 0.200655
10174.205078 1748.221069 6135.150879 0.979637 -0.006939 0.200655
8460.848633 3222.586670 6608.171875 0.238399 0.655347 -0.716719
8669.914062 3226.089355 6680.915039 0.238399 0.655347 -0.716719
8362.272461 2881.624756 6263.617676 0.238399 0.655347 -0.716719
10063.723633 1808.052612 6676.610840 0.811777 -0.446806 0.376009
10022.136719 1750.118042 6697.551270 0.811777 -0.446806 0.376009
10116.790039 1652.097168 6376.725098 0.811777 -0.446806 0.376009
8447.500000 2491.028320 6501.523926 -0.605919 -0.705610 0.367392
8946.212891 1965.433228 6314.569336 -0.605919 -0.705610 0.367392
8969.110352 2169.241211 6743.765137 -0.605919 -0.705610 0.367392
9502.478516 1708.565308 6385.222656 -0.425070 -0.808659 0.406677
8969.110352 2169.241211 6743.765137 -0.425070 -0.808659 0.406677
8946.212891 1965.433228 6314.569336 -0.425070 -0.808659 0.406677
9004.333008 2269.158203 6328.905762 0.490351 0.610884 -0.621592
8591.954102 2465.784424 6196.834473 0.490351 0.610884 -0.621592
8853.758789 2703.457031 6636.940918 0.490351 0.610884 -0.621592
8254.969727 2829.090576 6226.921875 -0.782633 0.592973 -0.189391
8417.035156 3199.049805 6715.532715 -0.782633 0.592973 -0.189391
8460.848633 3222.586670 6608.171875 -0.782633 0.592973 -0.189391
8417.035156 3199.049805 6715.532715 -0.964432 0.098540 0.245277
8254.969727 2829.090576 6226.921875 -0.964432 0.098540 0.245277
8299.739258 2741.947998 6437.965332 -0.964432 0.098540 0.245277
9502.478516 1708.565308 6385.222656 -0.167055 -0.902064 0.397961
10022.136719 1750.118042 6697.551270 -0.167055 -0.902064 0.397961
9855.489258 1904.395752 6977.299805 -0.167055 -0.902064 0.397961
9286.824219 2256.605225 7205.461914 -0.405706 -0.805664 0.431635
8969.110352 2169.241211 6743.765137 -0.405706 -0.805664 0.431635
9502.478516 1708.565308 6385.222656 -0.405706 -0.805664 0.431635
9947.792969 2172.595947 6820.936035 0.542038 0.827389 -0.147046
10096.333984 2022.657593 6524.822266 0.542038 0.827389 -0.147046
9767.994141 2306.385742 6910.964844 0.542038 0.827389 -0.147046
8447.500000 2491.028320 6501.523926 -0.832763 -0.391151 0.391799
8462.791992 2815.070068 6857.532227 -0.832763 -0.391151 0.391799
8299.739258 2741.947998 6437.965332 -0.832763 -0.391151 0.391799
8669.914062 3226.089355 6680.915039 0.171126 0.829426 -0.531759
8460.848633 3222.586670 6608.171875 0.171126 0.829426 -0.531759
8582.469727 3383.801270 6898.770020 0.171126 0.829426 -0.531759
10096.333984 2022.657593 6524.822266 0.911433 0.136129 0.388277
9947.792969 2172.595947 6820.936035 0.911433 0.136129 0.388277
10063.723633 1808.052612 6676.610840 0.911433 0.136129 0.388277
8460.848633 3222.586670 6608.171875 -0.678713 0.724851 -0.118070
8417.035156 3199.049805 6715.532715 -0.678713 0.724851 -0.118070
8582.469727 3383.801270 6898.770020 -0.678713 0.724851 -0.118070
8299.739258 2741.947998 6437.965332 -0.933134 0.021523 0.358885
8462.791992 2815.070068 6857.532227 -0.933134 0.021523 0.358885
8417.035156 3199.049805 6715.532715 -0.933134 0.021523 0.358885
8969.110352 2169.241211 6743.765137 -0.608144 -0.689027 0.394211
8772.785156 2577.201416 7153.956055 -0.608144 -0.689027 0.394211
8447.500000 2491.028320 6501.523926 -0.608144 -0.689027 0.394211
9058.415039 3036.773926 7175.720703 0.800355 0.323982 -0.504448
8853.758789 2703.457031 6636.940918 0.800355 0.323982 -0.504448
8669.914062 3226.089355 6680.915039 0.800355 0.323982 -0.504448
9537.677734 2600.547363 7183.969238 0.362256 0.770461 -0.524557
9767.994141 2306.385742 6910.964844 0.362256 0.770461 -0.524557
9004.333008 2269.158203 6328.905762 0.362256 0.770461 -0.524557
9502.478516 1708.565308 6385.222656 -0.323537 -0.823853 0.465391
9855.489258 1904.395752 6977.299805 -0.323537 -0.823853 0.465391
9286.824219 2256.605225 7205.461914 -0.323537 -0.823853 0.465391
8809.248047 3300.021973 6933.817871 0.370138 0.816720 -0.442680
8669.914062 3226.089355 6680.915039 0.370138 0.816720 -0.442680
8582.469727 3383.801270 6898.770020 0.370138 0.816720 -0.442680
9004.333008 2269.158203 6328.905762 0.552376 0.601128 -0.577517
8853.758789 2703.457031 6636.940918 0.552376 0.601128 -0.577517
9537.677734 2600.547363 7183.969238 0.552376 0.601128 -0.577517
8669.914062 3226.089355 6680.915039 0.804249 0.279093 -0.524681
8809.248047 3300.021973 6933.817871 0.804249 0.279093 -0.524681
9058.415039 3036.773926 7175.720703 0.804249 0.279093 -0.524681
8447.500000 2491.028320 6501.523926 -0.772778 -0.452486 0.445051
8772.785156 2577.201416 7153.956055 -0.772778 -0.452486 0.445051
8462.791992 2815.070068 6857.532227 -0.772778 -0.452486 0.445051
9537.677734 2600.547363 7183.969238 0.526584 0.661556 -0.533903
8853.758789 2703.457031 6636.940918 0.526584 0.661556 -0.533903
9291.085938 2805.661133 7194.913086 0.526584 0.661556 -0.533903
10063.723633 1808.052612 6676.610840 0.733266 -0.307085 0.606646
9797.354492 2018.377075 7105.043457 0.733266 -0.307085 0.606646
10022.136719 1750.118042 6697.551270 0.733266 -0.307085 0.606646
9947.792969 2172.595947 6820.936035 0.863235 0.077007 0.498894
9797.354492 2018.377075 7105.043457 0.863235 0.077007 0.498894
10063.723633 1808.052612 6676.610840 0.863235 0.077007 0.498894
9947.792969 2172.595947 6820.936035 0.529560 0.829883 -0.175672
9767.994141 2306.385742 6910.964844 0.529560 0.829883 -0.175672
9689.107422 2406.710205 7147.100098 0.529560 0.829883 -0.175672
8853.758789 2703.457031 6636.940918 0.600859 0.557324 -0.573026
9058.415039 3036.773926 7175.720703 0.600859 0.557324 -0.573026
9291.085938 2805.661133 7194.913086 0.600859 0.557324 -0.573026
10022.136719 1750.118042 6697.551270 0.735607 -0.303533 0.605599
9797.354492 2018.377075 7105.043457 0.735607 -0.303533 0.605599
9855.489258 1904.395752 6977.299805 0.735607 -0.303533 0.605599
9947.792969 2172.595947 6820.936035 0.838772 0.261308 0.477681
9689.107422 2406.710205 7147.100098 0.838772 0.261308 0.477681
9670.952148 2206.169189 7288.682129 0.838772 0.261308 0.477681
8417.035156 3199.049805 6715.532715 -0.803414 0.578131 0.142448
8598.320312 3309.651367 7289.106934 -0.803414 0.578131 0.142448
8582.469727 3383.801270 6898.770020 -0.803414 0.578131 0.142448
9797.354492 2018.377075 7105.043457 0.860018 0.087246 0.502749
9947.792969 2172.595947 6820.936035 0.860018 0.087246 0.502749
9670.952148 2206.169189 7288.682129 0.860018 0.087246 0.502749
8772.785156 2577.201416 7153.956055 -0.774671 -0.415356 0.476826
8747.618164 2932.243408 7422.340332 -0.774671 -0.415356 0.476826
8462.791992 2815.070068 6857.532227 -0.774671 -0.415356 0.476826
9855.489258 1904.395752 6977.299805 -0.248181 -0.776179 0.579614
9797.354492 2018.377075 7105.043457 -0.248181 -0.776179 0.579614
9286.824219 2256.605225 7205.461914 -0.248181 -0.776179 0.579614
8969.110352 2169.241211 6743.765137 -0.498446 -0.722142 0.479649
9286.824219 2256.605225 7205.461914 -0.498446 -0.722142 0.479649
8772.785156 2577.201416 7153.956055 -0.498446 -0.722142 0.479649
8809.248047 3300.021973 6933.817871 0.345788 0.938297 0.005497
8582.469727 3383.801270 6898.770020 0.345788 0.938297 0.005497
8853.834961 3281.327393 7320.089844 0.345788 0.938297 0.005497
8462.791992 2815.070068 6857.532227 -0.953393 -0.002031 0.301723
8598.320312 3309.651367 7289.106934 -0.953393 -0.002031 0.301723
8417.035156 3199.049805 6715.532715 -0.953393 -0.002031 0.301723
9689.107422 2406.710205 7147.100098 0.788205 0.615410 0.001856
9767.994141 2306.385742 6910.964844 0.788205 0.615410 0.001856
9537.677734 2600.547363 7183.969238 0.788205 0.615410 0.001856
8582.469727 3383.801270 6898.770020 0.086432 0.979392 0.182539
8598.320312 3309.651367 7289.106934 0.086432 0.979392 0.182539
8853.834961 3281.327393 7320.089844 0.086432 0.979392 0.182539
9291.085938 2805.661133 7194.913086 0.637444 0.759394 0.130331
9395.502930 2679.446777 7419.621582 0.637444 0.759394 0.130331
9537.677734 2600.547363 7183.969238 0.637444 0.759394 0.130331
9291.085938 2805.661133 7194.913086 0.700898 0.690912 -0.177151
9058.415039 3036.773926 7175.720703 0.700898 0.690912 -0.177151
8853.834961 3281.327393 7320.089844 0.700898 0.690912 -0.177151
9058.415039 3036.773926 7175.720703 0.749757 0.659455 -0.054628
8809.248047 3300.021973 6933.817871 0.749757 0.659455 -0.054628
8853.834961 3281.327393 7320.089844 0.749757 0.659455 -0.054628
9537.677734 2600.547363 7183.969238 0.780897 0.555838 0.285033
9395.502930 2679.446777 7419.621582 0.780897 0.555838 0.285033
9689.107422 2406.710205 7147.100098 0.780897 0.555838 0.285033
9797.354492 2018.377075 7105.043457 -0.231953 -0.755404 0.612831
9670.952148 2206.169189 7288.682129 -0.231953 -0.755404 0.612831
9286.824219 2256.605225 7205.461914 -0.231953 -0.755404 0.612831
8747.618164 2932.243408 7422.340332 -0.864002 -0.175147 0.472042
8598.320312 3309.651367 7289.106934 -0.864002 -0.175147 0.472042
8462.791992 2815.070068 6857.532227 -0.864002 -0.175147 0.472042
9291.085938 2805.661133 7194.913086 0.740153 0.671614 0.033300
8853.834961 3281.327393 7320.089844 0.740153 0.671614 0.033300
9395.502930 2679.446777 7419.621582 0.740153 0.671614 0.033300
9286.824219 2256.605225 7205.461914 -0.446370 -0.610609 0.654149
9208.722656 2642.724854 7512.587402 -0.446370 -0.610609 0.654149
8772.785156 2577.201416 7153.956055 -0.446370 -0.610609 0.654149
8853.834961 3281.327393 7320.089844 0.082354 0.973966 0.211209
8598.320312 3309.651367 7289.106934 0.082354 0.973966 0.211209
8663.833984 3289.117432 7358.251953 0.082354 0.973966 0.211209
9689.107422 2406.710205 7147.100098 0.801653 0.294640 0.520134
9456.671875 2462.243164 7473.882324 0.801653 0.294640 0.520134
9670.952148 2206.169189 7288.682129 0.801653 0.294640 0.520134
8747.618164 2932.243408 7422.340332 -0.479442 -0.550568 0.683381
8772.785156 2577.201416 7153.956055 -0.479442 -0.550568 0.683381
9208.722656 2642.724854 7512.587402 -0.479442 -0.550568 0.683381
8663.833984 3289.117432 7358.251953 0.141434 0.833561 0.534015
8845.764648 3185.321289 7472.086426 0.141434 0.833561 0.534015
8853.834961 3281.327393 7320.089844 0.141434 0.833561 0.534015
9670.952148 2206.169189 7288.682129 -0.238461 -0.692192 0.681181
9456.671875 2462.243164 7473.882324 -0.238461 -0.692192 0.681181
9286.824219 2256.605225 7205.461914 -0.238461 -0.692192 0.681181
9286.824219 2256.605225 7205.461914 -0.346496 -0.625870 0.698733
9456.671875 2462.243164 7473.882324 -0.346496 -0.625870 0.698733
9208.722656 2642.724854 7512.587402 -0.346496 -0.625870 0.698733
9689.107422 2406.710205 7147.100098 0.790779 0.348421 0.503260
9395.502930 2679.446777 7419.621582 0.790779 0.348421 0.503260
9456.671875 2462.243164 7473.882324 0.790779 0.348421 0.503260
8853.834961 3281.327393 7320.089844 0.631024 0.640319 0.437951
8845.764648 3185.321289 7472.086426 0.631024 0.640319 0.437951
9395.502930 2679.446777 7419.621582 0.631024 0.640319 0.437951
8598.320312 3309.651367 7289.106934 -0.732374 -0.049993 0.679065
8747.618164 2932.243408 7422.340332 -0.732374 -0.049993 0.679065
8663.833984 3289.117432 7358.251953 -0.732374 -0.049993 0.679065
8845.764648 3185.321289 7472.086426 -0.516849 0.032285 0.855468
8663.833984 3289.117432 7358.251953 -0.516849 0.032285 0.855468
8747.618164 2932.243408 7422.340332 -0.516849 0.032285 0.855468
9395.502930 2679.446777 7419.621582 0.814364 0.345780 0.466099
9377.122070 2612.236328 7501.597168 0.814364 0.345780 0.466099
9456.671875 2462.243164 7473.882324 0.814364 0.345780 0.466099
9377.122070 2612.236328 7501.597168 0.575721 0.564272 0.591728
9395.502930 2679.446777 7419.621582 0.575721 0.564272 0.591728
8845.764648 3185.321289 7472.086426 0.575721 0.564272 0.591728
9208.722656 2642.724854 7512.587402 0.034692 -0.163768 0.985889
9456.671875 2462.243164 7473.882324 0.034692 -0.163768 0.985889
9377.122070 2612.236328 7501.597168 0.034692 -0.163768 0.985889
8747.618164 2932.243408 7422.340332 -0.247498 -0.093576 0.964359
9208.722656 2642.724854 7512.587402 -0.247498 -0.093576 0.964359
8845.764648 3185.321289 7472.086426 -0.247498 -0.093576 0.964359
9377.122070 2612.236328 7501.597168 0.088483 0.132874 0.987175
8845.764648 3185.321289 7472.086426 0.088483 0.132874 0.987175
9208.722656 2642.724854 7512.587402 0.088483 0.132874 0.987175
3 0 1 2
3 3 4 5
3 6 7 8
3 9 10 11
3 12 13 14
3 15 16 17
3 18 19 20
3 21 22 23
3 24 25 26
3 27 28 29
3 30 31 32
3 33 34 35
3 36 37 38
3 39 40 41
3 42 43 44
3 45 46 47
3 48 49 50
3 51 52 53
3 54 55 56
3 57 58 59
3 60 61 62
3 63 64 65
3 66 67 68
3 69 70 71
3 72 73 74
3 75 76 77
3 78 79 80
3 81 82 83
3 84 85 86
3 87 88 89
3 90 91 92
3 93 94 95
3 96 97 98
3 99 100 101
3 102 103 104
3 105 106 107
3 108 109 110
3 111 112 113
3 114 115 116
3 117 118 119
3 120 121 122
3 123 124 125
3 126 127 128
3 129 130 131
3 132 133 134
3 135 136 137
3 138 139 140
3 141 142 143
3 144 145 146
3 147 148 149
3 150 151 152
3 153 154 155
3 156 157 158
3 159 160 161
3 162 163 164
3 165 166 167
3 168 169 170
3 171 172 173
3 174 175 176
3 177 178 179
3 180 181 182
3 183 184 185
3 186 187 188
3 189 190 191
3 192 193 194
3 195 196 197
3 198 199 200
3 201 202 203
3 204 205 206
3 207 208 209
3 210 211 212
3 213 214 215
3 216 217 218
3 219 220 221
3 222 223 224
3 225 226 227
3 228 229 230
3 231 232 233
3 234 235 236
3 237 238 239
3 240 241 242
3 243 244 245
3 246 247 248
3 249 250 251
3 252 253 254
3 255 256 257
3 258 259 260
3 261 262 263
3 264 265 266
3 267 268 269
3 270 271 272
3 273 274 275
3 276 277 278
3 279 280 281
3 282 283 284
3 285 286 287
3 288 289 290
3 291 292 293
3 294 295 296
3 297 298 299
3 300 301 302
3 303 304 305
3 306 307 308
3 309 310 311
3 312 313 314
3 315 316 317
3 318 319 320
3 321 322 323
3 324 325 326
3 327 328 329
3 330 331 332
3 333 334 335
3 336 337 338
3 339 340 341
3 342 343 344
3 345 346 347
3 348 349 350
3 351 352 353
3 354 355 356
3 357 358 359
3 360 361 362
3 363 364 365
3 366 367 368
3 369 370 371
3 372 373 374
3 375 376 377
3 378 379 380
3 381 382 383
3 384 385 386
3 387 388 389
3 390 391 392
3 393 394 395
3 396 397 398
3 399 400 401
3 402 403 404
3 405 406 407
3 408 409 410
3 411 412 413
3 414 415 416
3 417 418 419
3 420 421 422
3 423 424 425
3 426 427 428
3 429 430 431
3 432 433 434
3 435 436 437
3 438 439 440
3 441 442 443
3 444 445 446
3 447 448 449
3 450 451 452
3 453 454 455
3 456 457 458
3 459 460 461
3 462 463 464
3 465 466 467
3 468 469 470
3 471 472 473
3 474 475 476
3 477 478 479
3 480 481 482
3 483 484 485
3 486 487 488
3 489 490 491
3 492 493 494
3 495 496 497
3 498 499 500
3 501 502 503
3 504 505 506
3 507 508 509
3 510 511 512
3 513 514 515
3 516 517 518
3 519 520 521
3 522 523 524
3 525 526 527
3 528 529 530
3 531 532 533
3 534 535 536
3 537 538 539
3 540 541 542
3 543 544 545
3 546 547 548
3 549 550 551
3 552 553 554
3 555 556 557
3 558 559 560
3 561 562 563
3 564 565 566
3 567 568 569
3 570 571 572
3 573 574 575
3 576 577 578
3 579 580 581
3 582 583 584
3 585 586 587
3 588 589 590
3 591 592 593
3 594 595 596
3 597 598 599
3 600 601 602
3 603 604 605
3 606 607 608
3 609 610 611
3 612 613 614
3 615 616 617
3 618 619 620
3 621 622 623
3 624 625 626
3 627 628 629
3 630 631 632
3 633 634 635
3 636 637 638
3 639 640 641
3 642 643 644
3 645 646 647
3 648 649 650
3 651 652 653
3 654 655 656
3 657 658 659
3 660 661 662
3 663 664 665
3 666 667 668
3 669 670 671
3 672 673 674
3 675 676 677
