ply
format ascii 1.0
comment Created by Blender 2.80 (sub 75) - www.blender.org, source file: 'downsample_ccf.blend'
element vertex 504
property float x
property float y
property float z
property float nx
property float ny
property float nz
element face 168
property list uchar uint vertex_indices
end_header
9528.734375 1834.058350 4124.602539 0.031341 -0.238116 -0.970731
9155.430664 1818.947510 4116.256836 0.031341 -0.238116 -0.970731
9230.902344 1914.918823 4095.152100 0.031341 -0.238116 -0.970731
9155.430664 1818.947510 4116.256836 -0.130872 -0.113660 -0.984862
8946.112305 1982.808350 4125.161133 -0.130872 -0.113660 -0.984862
9230.902344 1914.918823 4095.152100 -0.130872 -0.113660 -0.984862
9528.734375 1834.058350 4124.602539 0.040444 -0.532042 -0.845751
9636.596680 1665.203857 4235.982910 0.040444 -0.532042 -0.845751
9155.430664 1818.947510 4116.256836 0.040444 -0.532042 -0.845751
9155.430664 1818.947510 4116.256836 -0.456115 -0.544394 -0.703984
8622.436523 2107.339844 4238.571777 -0.456115 -0.544394 -0.703984
8946.112305 1982.808350 4125.161133 -0.456115 -0.544394 -0.703984
8622.436523 2107.339844 4238.571777 0.148935 0.848921 -0.507102
9230.902344 1914.918823 4095.152100 0.148935 0.848921 -0.507102
8946.112305 1982.808350 4125.161133 0.148935 0.848921 -0.507102
9528.734375 1834.058350 4124.602539 0.595222 -0.141540 -0.790998
9859.573242 1641.980347 4407.927246 0.595222 -0.141540 -0.790998
9636.596680 1665.203857 4235.982910 0.595222 -0.141540 -0.790998
9155.430664 1818.947510 4116.256836 -0.280767 -0.736197 -0.615779
9516.404297 1283.425415 4591.915527 -0.280767 -0.736197 -0.615779
8932.916016 1617.191162 4458.924316 -0.280767 -0.736197 -0.615779
9636.596680 1665.203857 4235.982910 -0.032820 -0.676000 -0.736170
9516.404297 1283.425415 4591.915527 -0.032820 -0.676000 -0.736170
9155.430664 1818.947510 4116.256836 -0.032820 -0.676000 -0.736170
9859.573242 1641.980347 4407.927246 0.541198 -0.375279 -0.752509
9897.802734 1467.112183 4522.628906 0.541198 -0.375279 -0.752509
9636.596680 1665.203857 4235.982910 0.541198 -0.375279 -0.752509
9155.430664 1818.947510 4116.256836 -0.470528 -0.592149 -0.654189
8932.916016 1617.191162 4458.924316 -0.470528 -0.592149 -0.654189
8622.436523 2107.339844 4238.571777 -0.470528 -0.592149 -0.654189
9083.390625 1661.176025 4685.632812 0.363573 0.819500 0.442984
9230.902344 1914.918823 4095.152100 0.363573 0.819500 0.442984
8622.436523 2107.339844 4238.571777 0.363573 0.819500 0.442984
8622.436523 2107.339844 4238.571777 -0.589234 -0.645997 -0.485275
8380.845703 2045.467773 4614.281738 -0.589234 -0.645997 -0.485275
8476.902344 2130.568848 4384.360840 -0.589234 -0.645997 -0.485275
9230.902344 1914.918823 4095.152100 0.185033 0.856817 0.481277
9452.862305 1454.714233 4829.117676 0.185033 0.856817 0.481277
9528.734375 1834.058350 4124.602539 0.185033 0.856817 0.481277
9528.734375 1834.058350 4124.602539 0.382148 0.908403 0.169610
9991.044922 1519.709595 4766.570312 0.382148 0.908403 0.169610
9859.573242 1641.980347 4407.927246 0.382148 0.908403 0.169610
9083.390625 1661.176025 4685.632812 0.495448 0.814457 0.301977
8622.436523 2107.339844 4238.571777 0.495448 0.814457 0.301977
8419.900391 1970.614258 4939.628906 0.495448 0.814457 0.301977
8419.900391 1970.614258 4939.628906 0.427625 0.856010 0.290487
8622.436523 2107.339844 4238.571777 0.427625 0.856010 0.290487
8476.902344 2130.568848 4384.360840 0.427625 0.856010 0.290487
9528.734375 1834.058350 4124.602539 -0.051951 0.881612 0.469107
9452.862305 1454.714233 4829.117676 -0.051951 0.881612 0.469107
9991.044922 1519.709595 4766.570312 -0.051951 0.881612 0.469107
8932.916016 1617.191162 4458.924316 -0.614995 -0.612706 -0.496358
8380.845703 2045.467773 4614.281738 -0.614995 -0.612706 -0.496358
8622.436523 2107.339844 4238.571777 -0.614995 -0.612706 -0.496358
9083.390625 1661.176025 4685.632812 0.302267 0.846072 0.439087
9452.862305 1454.714233 4829.117676 0.302267 0.846072 0.439087
9230.902344 1914.918823 4095.152100 0.302267 0.846072 0.439087
9636.596680 1665.203857 4235.982910 0.214251 -0.701315 -0.679892
9897.802734 1467.112183 4522.628906 0.214251 -0.701315 -0.679892
9516.404297 1283.425415 4591.915527 0.214251 -0.701315 -0.679892
9516.404297 1283.425415 4591.915527 -0.314524 -0.770674 -0.554198
9276.742188 1158.657227 4901.435059 -0.314524 -0.770674 -0.554198
8932.916016 1617.191162 4458.924316 -0.314524 -0.770674 -0.554198
9859.573242 1641.980347 4407.927246 0.903922 -0.078197 -0.420488
10136.907227 1361.324097 5056.304688 0.903922 -0.078197 -0.420488
9897.802734 1467.112183 4522.628906 0.903922 -0.078197 -0.420488
9837.732422 1160.536621 4892.041504 0.260251 -0.763377 -0.591207
9516.404297 1283.425415 4591.915527 0.260251 -0.763377 -0.591207
9897.802734 1467.112183 4522.628906 0.260251 -0.763377 -0.591207
8380.845703 2045.467773 4614.281738 -0.244322 0.938186 0.245180
8419.900391 1970.614258 4939.628906 -0.244322 0.938186 0.245180
8476.902344 2130.568848 4384.360840 -0.244322 0.938186 0.245180
8851.869141 1355.114014 5103.133301 -0.633083 -0.685955 -0.358708
8380.845703 2045.467773 4614.281738 -0.633083 -0.685955 -0.358708
8932.916016 1617.191162 4458.924316 -0.633083 -0.685955 -0.358708
9837.732422 1160.536621 4892.041504 0.518973 -0.697349 -0.494339
9897.802734 1467.112183 4522.628906 0.518973 -0.697349 -0.494339
10038.900391 1243.343628 4986.420898 0.518973 -0.697349 -0.494339
10136.907227 1361.324097 5056.304688 0.827028 0.550143 -0.115614
9859.573242 1641.980347 4407.927246 0.827028 0.550143 -0.115614
9991.044922 1519.709595 4766.570312 0.827028 0.550143 -0.115614
8932.916016 1617.191162 4458.924316 -0.529948 -0.760158 -0.375919
9276.742188 1158.657227 4901.435059 -0.529948 -0.760158 -0.375919
8851.869141 1355.114014 5103.133301 -0.529948 -0.760158 -0.375919
10038.900391 1243.343628 4986.420898 0.801513 -0.405499 -0.439485
9897.802734 1467.112183 4522.628906 0.801513 -0.405499 -0.439485
10136.907227 1361.324097 5056.304688 0.801513 -0.405499 -0.439485
9627.645508 1330.835693 5241.442871 -0.077348 0.945333 0.316802
9991.044922 1519.709595 4766.570312 -0.077348 0.945333 0.316802
9452.862305 1454.714233 4829.117676 -0.077348 0.945333 0.316802
9042.835938 1467.434814 5244.624512 0.497695 0.807718 0.316055
9083.390625 1661.176025 4685.632812 0.497695 0.807718 0.316055
8419.900391 1970.614258 4939.628906 0.497695 0.807718 0.316055
9644.580078 1063.250488 5075.128906 -0.046177 -0.913583 -0.404023
9276.742188 1158.657227 4901.435059 -0.046177 -0.913583 -0.404023
9516.404297 1283.425415 4591.915527 -0.046177 -0.913583 -0.404023
9837.732422 1160.536621 4892.041504 0.051817 -0.903508 -0.425426
9644.580078 1063.250488 5075.128906 0.051817 -0.903508 -0.425426
9516.404297 1283.425415 4591.915527 0.051817 -0.903508 -0.425426
8419.210938 1697.761963 5409.338867 -0.704857 -0.661775 -0.255404
8380.845703 2045.467773 4614.281738 -0.704857 -0.661775 -0.255404
8851.869141 1355.114014 5103.133301 -0.704857 -0.661775 -0.255404
8392.696289 1906.000366 5272.789551 0.553709 0.807865 0.201892
9042.835938 1467.434814 5244.624512 0.553709 0.807865 0.201892
8419.900391 1970.614258 4939.628906 0.553709 0.807865 0.201892
8380.845703 2045.467773 4614.281738 -0.843444 -0.505961 -0.180574
8419.210938 1697.761963 5409.338867 -0.843444 -0.505961 -0.180574
8306.740234 1918.969727 5314.863770 -0.843444 -0.505961 -0.180574
8380.845703 2045.467773 4614.281738 0.210047 0.958007 0.195197
8306.740234 1918.969727 5314.863770 0.210047 0.958007 0.195197
8419.900391 1970.614258 4939.628906 0.210047 0.958007 0.195197
9276.742188 1158.657227 4901.435059 -0.131035 -0.959464 -0.249517
9644.580078 1063.250488 5075.128906 -0.131035 -0.959464 -0.249517
9264.092773 1080.664062 5207.983887 -0.131035 -0.959464 -0.249517
10136.907227 1361.324097 5056.304688 0.845321 0.514382 -0.144373
9991.044922 1519.709595 4766.570312 0.845321 0.514382 -0.144373
10140.858398 1418.156006 5281.923340 0.845321 0.514382 -0.144373
9042.835938 1467.434814 5244.624512 0.360199 0.873041 0.328720
9452.862305 1454.714233 4829.117676 0.360199 0.873041 0.328720
9083.390625 1661.176025 4685.632812 0.360199 0.873041 0.328720
8851.869141 1355.114014 5103.133301 -0.497131 -0.835764 -0.233151
9276.742188 1158.657227 4901.435059 -0.497131 -0.835764 -0.233151
9264.092773 1080.664062 5207.983887 -0.497131 -0.835764 -0.233151
9042.835938 1467.434814 5244.624512 0.224215 0.955438 0.192007
9627.645508 1330.835693 5241.442871 0.224215 0.955438 0.192007
9452.862305 1454.714233 4829.117676 0.224215 0.955438 0.192007
9837.732422 1160.536621 4892.041504 0.413759 -0.906239 -0.086801
10038.900391 1243.343628 4986.420898 0.413759 -0.906239 -0.086801
9926.407227 1151.606079 5407.973145 0.413759 -0.906239 -0.086801
9837.732422 1160.536621 4892.041504 0.385147 -0.919195 -0.082107
9926.407227 1151.606079 5407.973145 0.385147 -0.919195 -0.082107
9644.580078 1063.250488 5075.128906 0.385147 -0.919195 -0.082107
9627.645508 1330.835693 5241.442871 -0.181220 0.953561 0.240586
10140.858398 1418.156006 5281.923340 -0.181220 0.953561 0.240586
9991.044922 1519.709595 4766.570312 -0.181220 0.953561 0.240586
8306.740234 1918.969727 5314.863770 0.242843 0.948423 0.203768
8392.696289 1906.000366 5272.789551 0.242843 0.948423 0.203768
8419.900391 1970.614258 4939.628906 0.242843 0.948423 0.203768
10038.900391 1243.343628 4986.420898 0.789983 -0.607606 -0.082109
10136.907227 1361.324097 5056.304688 0.789983 -0.607606 -0.082109
10129.869141 1300.758179 5436.776855 0.789983 -0.607606 -0.082109
10038.900391 1243.343628 4986.420898 0.592711 -0.805235 -0.017066
10129.869141 1300.758179 5436.776855 0.592711 -0.805235 -0.017066
9926.407227 1151.606079 5407.973145 0.592711 -0.805235 -0.017066
10140.858398 1418.156006 5281.923340 0.996175 -0.087266 0.004536
10129.869141 1300.758179 5436.776855 0.996175 -0.087266 0.004536
10136.907227 1361.324097 5056.304688 0.996175 -0.087266 0.004536
9644.580078 1063.250488 5075.128906 0.035235 -0.972922 0.228434
9926.407227 1151.606079 5407.973145 0.035235 -0.972922 0.228434
9264.092773 1080.664062 5207.983887 0.035235 -0.972922 0.228434
8851.869141 1355.114014 5103.133301 -0.542168 -0.837987 -0.061908
9264.092773 1080.664062 5207.983887 -0.542168 -0.837987 -0.061908
8721.404297 1412.267700 5472.065430 -0.542168 -0.837987 -0.061908
8851.869141 1355.114014 5103.133301 -0.668008 -0.733999 -0.122518
8721.404297 1412.267700 5472.065430 -0.668008 -0.733999 -0.122518
8419.210938 1697.761963 5409.338867 -0.668008 -0.733999 -0.122518
9627.645508 1330.835693 5241.442871 0.223884 0.962118 -0.155582
9042.835938 1467.434814 5244.624512 0.223884 0.962118 -0.155582
9010.249023 1501.365479 5407.558105 0.223884 0.962118 -0.155582
9513.471680 1163.705566 5484.237305 0.021631 -0.962660 0.269848
9264.092773 1080.664062 5207.983887 0.021631 -0.962660 0.269848
9926.407227 1151.606079 5407.973145 0.021631 -0.962660 0.269848
9264.092773 1080.664062 5207.983887 -0.491236 -0.867376 0.079660
9027.875977 1235.232422 5434.328613 -0.491236 -0.867376 0.079660
8721.404297 1412.267700 5472.065430 -0.491236 -0.867376 0.079660
9264.092773 1080.664062 5207.983887 -0.174499 -0.888416 0.424580
9513.471680 1163.705566 5484.237305 -0.174499 -0.888416 0.424580
9027.875977 1235.232422 5434.328613 -0.174499 -0.888416 0.424580
9627.645508 1330.835693 5241.442871 0.226174 0.962811 -0.147783
9010.249023 1501.365479 5407.558105 0.226174 0.962811 -0.147783
9422.152344 1408.423462 5432.433105 0.226174 0.962811 -0.147783
9042.835938 1467.434814 5244.624512 0.611423 0.790174 -0.042267
8569.555664 1849.311035 5537.383301 0.611423 0.790174 -0.042267
9010.249023 1501.365479 5407.558105 0.611423 0.790174 -0.042267
8306.740234 1918.969727 5314.863770 0.005207 0.958561 -0.284838
8344.236328 1981.916138 5527.381836 0.005207 0.958561 -0.284838
8392.696289 1906.000366 5272.789551 0.005207 0.958561 -0.284838
10140.858398 1418.156006 5281.923340 -0.142201 0.955531 -0.258339
9627.645508 1330.835693 5241.442871 -0.142201 0.955531 -0.258339
10012.389648 1462.746338 5517.566895 -0.142201 0.955531 -0.258339
8392.696289 1906.000366 5272.789551 0.543630 0.817971 -0.188122
8569.555664 1849.311035 5537.383301 0.543630 0.817971 -0.188122
9042.835938 1467.434814 5244.624512 0.543630 0.817971 -0.188122
9627.645508 1330.835693 5241.442871 -0.026513 0.915874 -0.400590
9422.152344 1408.423462 5432.433105 -0.026513 0.915874 -0.400590
10012.389648 1462.746338 5517.566895 -0.026513 0.915874 -0.400590
10140.858398 1418.156006 5281.923340 0.493299 0.863432 0.105553
10012.389648 1462.746338 5517.566895 0.493299 0.863432 0.105553
10085.608398 1416.723022 5551.855469 0.493299 0.863432 0.105553
8344.236328 1981.916138 5527.381836 0.506100 0.848144 -0.156572
8569.555664 1849.311035 5537.383301 0.506100 0.848144 -0.156572
8392.696289 1906.000366 5272.789551 0.506100 0.848144 -0.156572
8306.740234 1918.969727 5314.863770 -0.900907 -0.346355 0.261542
8419.210938 1697.761963 5409.338867 -0.900907 -0.346355 0.261542
8344.236328 1981.916138 5527.381836 -0.900907 -0.346355 0.261542
10129.869141 1300.758179 5436.776855 0.965011 0.171406 0.198429
10140.858398 1418.156006 5281.923340 0.965011 0.171406 0.198429
10085.608398 1416.723022 5551.855469 0.965011 0.171406 0.198429
10012.389648 1462.746338 5517.566895 0.025906 0.751551 -0.659166
9422.152344 1408.423462 5432.433105 0.025906 0.751551 -0.659166
9766.110352 1536.970093 5592.514160 0.025906 0.751551 -0.659166
9010.249023 1501.365479 5407.558105 0.200077 0.704451 -0.680969
9116.223633 1665.107910 5608.083496 0.200077 0.704451 -0.680969
9422.152344 1408.423462 5432.433105 0.200077 0.704451 -0.680969
8569.555664 1849.311035 5537.383301 0.308862 0.650194 -0.694156
9116.223633 1665.107910 5608.083496 0.308862 0.650194 -0.694156
9010.249023 1501.365479 5407.558105 0.308862 0.650194 -0.694156
9116.223633 1665.107910 5608.083496 0.109469 0.646900 -0.754677
9766.110352 1536.970093 5592.514160 0.109469 0.646900 -0.754677
9422.152344 1408.423462 5432.433105 0.109469 0.646900 -0.754677
9926.407227 1151.606079 5407.973145 0.114797 -0.675156 0.728688
9722.967773 1412.543701 5681.791016 0.114797 -0.675156 0.728688
9513.471680 1163.705566 5484.237305 0.114797 -0.675156 0.728688
10085.608398 1416.723022 5551.855469 0.280141 -0.582379 0.763122
9722.967773 1412.543701 5681.791016 0.280141 -0.582379 0.763122
9926.407227 1151.606079 5407.973145 0.280141 -0.582379 0.763122
9926.407227 1151.606079 5407.973145 0.334060 -0.596616 0.729694
10129.869141 1300.758179 5436.776855 0.334060 -0.596616 0.729694
10085.608398 1416.723022 5551.855469 0.334060 -0.596616 0.729694
9188.172852 1418.748047 5686.243652 -0.000686 -0.621425 0.783473
9513.471680 1163.705566 5484.237305 -0.000686 -0.621425 0.783473
9722.967773 1412.543701 5681.791016 -0.000686 -0.621425 0.783473
8786.958008 1584.990234 5685.952637 -0.317057 -0.688013 0.652773
8721.404297 1412.267700 5472.065430 -0.317057 -0.688013 0.652773
9027.875977 1235.232422 5434.328613 -0.317057 -0.688013 0.652773
8419.210938 1697.761963 5409.338867 -0.601951 -0.500441 0.622265
8721.404297 1412.267700 5472.065430 -0.601951 -0.500441 0.622265
8511.387695 1903.718994 5664.142578 -0.601951 -0.500441 0.622265
8511.387695 1903.718994 5664.142578 -0.683873 -0.426386 0.592042
8344.236328 1981.916138 5527.381836 -0.683873 -0.426386 0.592042
8419.210938 1697.761963 5409.338867 -0.683873 -0.426386 0.592042
8511.387695 1903.718994 5664.142578 0.507081 0.851601 -0.132834
8569.555664 1849.311035 5537.383301 0.507081 0.851601 -0.132834
8344.236328 1981.916138 5527.381836 0.507081 0.851601 -0.132834
9027.875977 1235.232422 5434.328613 -0.175702 -0.739129 0.650244
9513.471680 1163.705566 5484.237305 -0.175702 -0.739129 0.650244
9188.172852 1418.748047 5686.243652 -0.175702 -0.739129 0.650244
9188.172852 1418.748047 5686.243652 -0.282579 -0.680804 0.675763
8786.958008 1584.990234 5685.952637 -0.282579 -0.680804 0.675763
9027.875977 1235.232422 5434.328613 -0.282579 -0.680804 0.675763
10012.389648 1462.746338 5517.566895 0.445633 0.869046 0.214873
9873.116211 1492.569336 5685.793457 0.445633 0.869046 0.214873
10085.608398 1416.723022 5551.855469 0.445633 0.869046 0.214873
10012.389648 1462.746338 5517.566895 0.312721 0.945448 0.091292
9766.110352 1536.970093 5592.514160 0.312721 0.945448 0.091292
9873.116211 1492.569336 5685.793457 0.312721 0.945448 0.091292
9072.696289 1687.099365 5750.220215 0.324399 0.944760 -0.046831
9116.223633 1665.107910 5608.083496 0.324399 0.944760 -0.046831
8569.555664 1849.311035 5537.383301 0.324399 0.944760 -0.046831
9722.967773 1412.543701 5681.791016 0.283039 -0.569645 0.771618
10085.608398 1416.723022 5551.855469 0.283039 -0.569645 0.771618
9873.116211 1492.569336 5685.793457 0.283039 -0.569645 0.771618
9766.110352 1536.970093 5592.514160 0.190467 0.977290 -0.092879
9116.223633 1665.107910 5608.083496 0.190467 0.977290 -0.092879
9072.696289 1687.099365 5750.220215 0.190467 0.977290 -0.092879
8721.404297 1412.267700 5472.065430 -0.626772 -0.501069 0.596731
8786.958008 1584.990234 5685.952637 -0.626772 -0.501069 0.596731
8511.387695 1903.718994 5664.142578 -0.626772 -0.501069 0.596731
8511.387695 1903.718994 5664.142578 0.379986 0.900351 -0.212081
9072.696289 1687.099365 5750.220215 0.379986 0.900351 -0.212081
8569.555664 1849.311035 5537.383301 0.379986 0.900351 -0.212081
9873.116211 1492.569336 5685.793457 0.244793 -0.415479 -0.876044
9970.852539 1311.790527 5798.841309 0.244793 -0.415479 -0.876044
9722.967773 1412.543701 5681.791016 0.244793 -0.415479 -0.876044
9766.110352 1536.970093 5592.514160 0.225069 0.972234 0.064074
9072.696289 1687.099365 5750.220215 0.225069 0.972234 0.064074
9929.080078 1483.893066 5825.429688 0.225069 0.972234 0.064074
8481.067383 1946.235107 5763.547363 0.382182 0.886050 -0.262397
9072.696289 1687.099365 5750.220215 0.382182 0.886050 -0.262397
8511.387695 1903.718994 5664.142578 0.382182 0.886050 -0.262397
9766.110352 1536.970093 5592.514160 0.480253 0.866101 -0.138662
9929.080078 1483.893066 5825.429688 0.480253 0.866101 -0.138662
9873.116211 1492.569336 5685.793457 0.480253 0.866101 -0.138662
8887.535156 1313.344116 5900.094238 -0.659018 -0.600748 -0.452545
8511.387695 1903.718994 5664.142578 -0.659018 -0.600748 -0.452545
8786.958008 1584.990234 5685.952637 -0.659018 -0.600748 -0.452545
8304.645508 1959.245605 5900.954102 -0.287700 0.845700 -0.449466
8481.067383 1946.235107 5763.547363 -0.287700 0.845700 -0.449466
8511.387695 1903.718994 5664.142578 -0.287700 0.845700 -0.449466
9970.852539 1311.790527 5798.841309 0.542561 -0.214543 -0.812157
9873.116211 1492.569336 5685.793457 0.542561 -0.214543 -0.812157
10145.721680 1374.114136 5899.198730 0.542561 -0.214543 -0.812157
9970.852539 1311.790527 5798.841309 0.045655 -0.707262 -0.705475
9629.679688 1099.694458 5989.395508 0.045655 -0.707262 -0.705475
9722.967773 1412.543701 5681.791016 0.045655 -0.707262 -0.705475
9722.967773 1412.543701 5681.791016 -0.014062 -0.698900 -0.715081
9629.679688 1099.694458 5989.395508 -0.014062 -0.698900 -0.715081
9188.172852 1418.748047 5686.243652 -0.014062 -0.698900 -0.715081
9629.679688 1099.694458 5989.395508 -0.153240 -0.783831 -0.601769
8887.535156 1313.344116 5900.094238 -0.153240 -0.783831 -0.601769
9188.172852 1418.748047 5686.243652 -0.153240 -0.783831 -0.601769
9188.172852 1418.748047 5686.243652 -0.271220 -0.655806 -0.704527
8887.535156 1313.344116 5900.094238 -0.271220 -0.655806 -0.704527
8786.958008 1584.990234 5685.952637 -0.271220 -0.655806 -0.704527
8887.535156 1313.344116 5900.094238 -0.568924 -0.591028 -0.571849
8330.993164 1821.977539 5928.097656 -0.568924 -0.591028 -0.571849
8511.387695 1903.718994 5664.142578 -0.568924 -0.591028 -0.571849
9929.080078 1483.893066 5825.429688 0.440271 0.889651 -0.121175
10075.232422 1432.109253 5976.262207 0.440271 0.889651 -0.121175
9873.116211 1492.569336 5685.793457 0.440271 0.889651 -0.121175
10145.721680 1374.114136 5899.198730 0.504395 0.845559 -0.174972
9873.116211 1492.569336 5685.793457 0.504395 0.845559 -0.174972
10075.232422 1432.109253 5976.262207 0.504395 0.845559 -0.174972
8511.387695 1903.718994 5664.142578 -0.756448 -0.263563 -0.598599
8330.993164 1821.977539 5928.097656 -0.756448 -0.263563 -0.598599
8304.645508 1959.245605 5900.954102 -0.756448 -0.263563 -0.598599
8304.645508 1959.245605 5900.954102 -0.615661 -0.114862 -0.779595
8343.548828 1985.532715 5866.358398 -0.615661 -0.114862 -0.779595
8481.067383 1946.235107 5763.547363 -0.615661 -0.114862 -0.779595
9929.080078 1483.893066 5825.429688 0.095791 0.674598 0.731944
9072.696289 1687.099365 5750.220215 0.095791 0.674598 0.731944
9116.164062 1459.206299 5954.569824 0.095791 0.674598 0.731944
9116.164062 1459.206299 5954.569824 0.307478 0.667100 0.678553
9072.696289 1687.099365 5750.220215 0.307478 0.667100 0.678553
8481.067383 1946.235107 5763.547363 0.307478 0.667100 0.678553
9970.852539 1311.790527 5798.841309 0.199582 -0.812776 -0.547322
10017.751953 1183.627441 6006.266113 0.199582 -0.812776 -0.547322
9629.679688 1099.694458 5989.395508 0.199582 -0.812776 -0.547322
9970.852539 1311.790527 5798.841309 0.537361 -0.657710 -0.527883
10145.721680 1374.114136 5899.198730 0.537361 -0.657710 -0.527883
10017.751953 1183.627441 6006.266113 0.537361 -0.657710 -0.527883
8343.548828 1985.532715 5866.358398 0.496206 0.789088 0.362104
9116.164062 1459.206299 5954.569824 0.496206 0.789088 0.362104
8481.067383 1946.235107 5763.547363 0.496206 0.789088 0.362104
9116.164062 1459.206299 5954.569824 0.058033 0.847664 0.527349
9571.614258 1329.958984 6112.202148 0.058033 0.847664 0.527349
9929.080078 1483.893066 5825.429688 0.058033 0.847664 0.527349
8887.535156 1313.344116 5900.094238 -0.657471 -0.704717 -0.266657
8781.890625 1350.962158 6061.155273 -0.657471 -0.704717 -0.266657
8330.993164 1821.977539 5928.097656 -0.657471 -0.704717 -0.266657
9571.614258 1329.958984 6112.202148 -0.080023 0.916409 0.392161
10075.232422 1432.109253 5976.262207 -0.080023 0.916409 0.392161
9929.080078 1483.893066 5825.429688 -0.080023 0.916409 0.392161
9371.377930 1052.874146 6214.362793 -0.204332 -0.884811 -0.418757
8887.535156 1313.344116 5900.094238 -0.204332 -0.884811 -0.418757
9629.679688 1099.694458 5989.395508 -0.204332 -0.884811 -0.418757
9103.518555 1449.917480 6241.636230 0.558246 0.828083 0.051386
9116.164062 1459.206299 5954.569824 0.558246 0.828083 0.051386
8343.548828 1985.532715 5866.358398 0.558246 0.828083 0.051386
8343.548828 1985.532715 5866.358398 0.531725 0.838399 0.119816
8352.465820 1936.055176 6172.999023 0.531725 0.838399 0.119816
9103.518555 1449.917480 6241.636230 0.531725 0.838399 0.119816
8304.645508 1959.245605 5900.954102 -0.454968 0.876962 0.154731
8352.465820 1936.055176 6172.999023 -0.454968 0.876962 0.154731
8343.548828 1985.532715 5866.358398 -0.454968 0.876962 0.154731
8781.890625 1350.962158 6061.155273 -0.466545 -0.878737 -0.100779
8887.535156 1313.344116 5900.094238 -0.466545 -0.878737 -0.100779
9140.447266 1138.022583 6257.974121 -0.466545 -0.878737 -0.100779
8330.993164 1821.977539 5928.097656 -0.975039 -0.155888 0.158105
8352.465820 1936.055176 6172.999023 -0.975039 -0.155888 0.158105
8304.645508 1959.245605 5900.954102 -0.975039 -0.155888 0.158105
9371.377930 1052.874146 6214.362793 -0.370466 -0.910401 -0.184189
9140.447266 1138.022583 6257.974121 -0.370466 -0.910401 -0.184189
8887.535156 1313.344116 5900.094238 -0.370466 -0.910401 -0.184189
9103.518555 1449.917480 6241.636230 0.259068 0.964918 0.042635
9571.614258 1329.958984 6112.202148 0.259068 0.964918 0.042635
9116.164062 1459.206299 5954.569824 0.259068 0.964918 0.042635
8781.890625 1350.962158 6061.155273 -0.735477 -0.652485 0.182584
8381.473633 1978.619629 6691.221680 -0.735477 -0.652485 0.182584
8330.993164 1821.977539 5928.097656 -0.735477 -0.652485 0.182584
10017.751953 1183.627441 6006.266113 0.833458 -0.552421 0.013343
10145.721680 1374.114136 5899.198730 0.833458 -0.552421 0.013343
10046.059570 1235.465210 6384.220215 0.833458 -0.552421 0.013343
10150.014648 1389.241699 6211.668457 0.603628 0.795890 -0.046824
10145.721680 1374.114136 5899.198730 0.603628 0.795890 -0.046824
10075.232422 1432.109253 5976.262207 0.603628 0.795890 -0.046824
9743.218750 1095.636841 6364.820312 0.213918 -0.973951 -0.075221
9629.679688 1099.694458 5989.395508 0.213918 -0.973951 -0.075221
10017.751953 1183.627441 6006.266113 0.213918 -0.973951 -0.075221
10046.059570 1235.465210 6384.220215 0.836124 -0.548334 0.015059
10145.721680 1374.114136 5899.198730 0.836124 -0.548334 0.015059
10150.014648 1389.241699 6211.668457 0.836124 -0.548334 0.015059
10075.232422 1432.109253 5976.262207 -0.230967 0.964071 -0.131228
9571.614258 1329.958984 6112.202148 -0.230967 0.964071 -0.131228
10024.268555 1493.897705 6519.892090 -0.230967 0.964071 -0.131228
8381.473633 1978.619629 6691.221680 -0.995408 0.082251 0.048963
8352.465820 1936.055176 6172.999023 -0.995408 0.082251 0.048963
8330.993164 1821.977539 5928.097656 -0.995408 0.082251 0.048963
10017.751953 1183.627441 6006.266113 0.412426 -0.906191 0.093398
10046.059570 1235.465210 6384.220215 0.412426 -0.906191 0.093398
9743.218750 1095.636841 6364.820312 0.412426 -0.906191 0.093398
9629.679688 1099.694458 5989.395508 0.134602 -0.989566 -0.051403
9743.218750 1095.636841 6364.820312 0.134602 -0.989566 -0.051403
9371.377930 1052.874146 6214.362793 0.134602 -0.989566 -0.051403
10075.232422 1432.109253 5976.262207 0.583291 0.811395 -0.037540
10024.268555 1493.897705 6519.892090 0.583291 0.811395 -0.037540
10150.014648 1389.241699 6211.668457 0.583291 0.811395 -0.037540
9571.614258 1329.958984 6112.202148 0.174982 0.952352 -0.249814
9103.518555 1449.917480 6241.636230 0.174982 0.952352 -0.249814
9425.140625 1490.318359 6620.934082 0.174982 0.952352 -0.249814
9571.614258 1329.958984 6112.202148 -0.058865 0.947102 -0.315488
9425.140625 1490.318359 6620.934082 -0.058865 0.947102 -0.315488
10024.268555 1493.897705 6519.892090 -0.058865 0.947102 -0.315488
9371.377930 1052.874146 6214.362793 -0.279657 -0.912059 0.299901
9290.248047 1198.948120 6582.950195 -0.279657 -0.912059 0.299901
9140.447266 1138.022583 6257.974121 -0.279657 -0.912059 0.299901
9140.447266 1138.022583 6257.974121 -0.609430 -0.720634 0.330577
8381.473633 1978.619629 6691.221680 -0.609430 -0.720634 0.330577
8781.890625 1350.962158 6061.155273 -0.609430 -0.720634 0.330577
9743.218750 1095.636841 6364.820312 -0.023160 -0.945134 0.325861
9643.251953 1202.512695 6667.700684 -0.023160 -0.945134 0.325861
9371.377930 1052.874146 6214.362793 -0.023160 -0.945134 0.325861
9643.251953 1202.512695 6667.700684 -0.075334 -0.932583 0.353008
9290.248047 1198.948120 6582.950195 -0.075334 -0.932583 0.353008
9371.377930 1052.874146 6214.362793 -0.075334 -0.932583 0.353008
8656.925781 1791.659058 6851.611328 -0.642801 -0.717996 0.266999
8381.473633 1978.619629 6691.221680 -0.642801 -0.717996 0.266999
9140.447266 1138.022583 6257.974121 -0.642801 -0.717996 0.266999
10046.059570 1235.465210 6384.220215 0.911192 -0.241242 0.333962
10150.014648 1389.241699 6211.668457 0.911192 -0.241242 0.333962
9953.788086 1512.895874 6836.382812 0.911192 -0.241242 0.333962
8352.465820 1936.055176 6172.999023 0.538929 0.792179 -0.286371
8523.723633 2144.923096 7073.077148 0.538929 0.792179 -0.286371
9103.518555 1449.917480 6241.636230 0.538929 0.792179 -0.286371
8352.465820 1936.055176 6172.999023 -0.955403 0.293844 0.029344
8381.473633 1978.619629 6691.221680 -0.955403 0.293844 0.029344
8417.370117 2080.154785 6843.215820 -0.955403 0.293844 0.029344
10150.014648 1389.241699 6211.668457 0.823997 0.546181 0.150713
10024.268555 1493.897705 6519.892090 0.823997 0.546181 0.150713
9953.788086 1512.895874 6836.382812 0.823997 0.546181 0.150713
9743.218750 1095.636841 6364.820312 0.359638 -0.836316 0.413806
10046.059570 1235.465210 6384.220215 0.359638 -0.836316 0.413806
9643.251953 1202.512695 6667.700684 0.359638 -0.836316 0.413806
10024.268555 1493.897705 6519.892090 -0.070343 0.920445 -0.384490
9425.140625 1490.318359 6620.934082 -0.070343 0.920445 -0.384490
9827.728516 1671.905518 6981.989258 -0.070343 0.920445 -0.384490
8523.723633 2144.923096 7073.077148 -0.176245 0.965724 -0.190567
8352.465820 1936.055176 6172.999023 -0.176245 0.965724 -0.190567
8417.370117 2080.154785 6843.215820 -0.176245 0.965724 -0.190567
8656.925781 1791.659058 6851.611328 -0.536722 -0.749316 0.387886
9140.447266 1138.022583 6257.974121 -0.536722 -0.749316 0.387886
9290.248047 1198.948120 6582.950195 -0.536722 -0.749316 0.387886
10046.059570 1235.465210 6384.220215 0.422967 -0.746064 0.514284
9766.968750 1458.879272 6937.858398 0.422967 -0.746064 0.514284
9643.251953 1202.512695 6667.700684 0.422967 -0.746064 0.514284
10046.059570 1235.465210 6384.220215 0.487459 -0.696368 0.526740
9953.788086 1512.895874 6836.382812 0.487459 -0.696368 0.526740
9766.968750 1458.879272 6937.858398 0.487459 -0.696368 0.526740
9290.248047 1198.948120 6582.950195 -0.135991 -0.788661 0.599601
9643.251953 1202.512695 6667.700684 -0.135991 -0.788661 0.599601
9198.357422 1564.236450 7042.576660 -0.135991 -0.788661 0.599601
8523.723633 2144.923096 7073.077148 0.448989 0.814393 -0.367658
8772.330078 2061.770996 7192.489746 0.448989 0.814393 -0.367658
9103.518555 1449.917480 6241.636230 0.448989 0.814393 -0.367658
9953.788086 1512.895874 6836.382812 0.838415 0.522423 0.155350
10024.268555 1493.897705 6519.892090 0.838415 0.522423 0.155350
9827.728516 1671.905518 6981.989258 0.838415 0.522423 0.155350
9198.357422 1564.236450 7042.576660 -0.478561 -0.731499 0.485683
8656.925781 1791.659058 6851.611328 -0.478561 -0.731499 0.485683
9290.248047 1198.948120 6582.950195 -0.478561 -0.731499 0.485683
8523.723633 2144.923096 7073.077148 -0.666579 -0.559876 0.492150
8381.473633 1978.619629 6691.221680 -0.666579 -0.559876 0.492150
8656.925781 1791.659058 6851.611328 -0.666579 -0.559876 0.492150
9827.728516 1671.905518 6981.989258 0.077641 0.853245 -0.515699
9425.140625 1490.318359 6620.934082 0.077641 0.853245 -0.515699
9266.339844 1909.593506 7290.733398 0.077641 0.853245 -0.515699
9425.140625 1490.318359 6620.934082 0.391967 0.818731 -0.419572
9103.518555 1449.917480 6241.636230 0.391967 0.818731 -0.419572
9266.339844 1909.593506 7290.733398 0.391967 0.818731 -0.419572
8381.473633 1978.619629 6691.221680 -0.758486 -0.444814 0.476276
8523.723633 2144.923096 7073.077148 -0.758486 -0.444814 0.476276
8417.370117 2080.154785 6843.215820 -0.758486 -0.444814 0.476276
9953.788086 1512.895874 6836.382812 0.726958 -0.050762 0.684803
9827.728516 1671.905518 6981.989258 0.726958 -0.050762 0.684803
9643.550781 1780.266113 7185.537109 0.726958 -0.050762 0.684803
9198.357422 1564.236450 7042.576660 -0.007025 -0.723753 0.690023
9643.251953 1202.512695 6667.700684 -0.007025 -0.723753 0.690023
9766.968750 1458.879272 6937.858398 -0.007025 -0.723753 0.690023
9643.550781 1780.266113 7185.537109 0.523986 -0.384484 0.760007
9766.968750 1458.879272 6937.858398 0.523986 -0.384484 0.760007
9953.788086 1512.895874 6836.382812 0.523986 -0.384484 0.760007
9001.116211 1935.860107 7279.053711 -0.480278 -0.637954 0.601954
8656.925781 1791.659058 6851.611328 -0.480278 -0.637954 0.601954
9198.357422 1564.236450 7042.576660 -0.480278 -0.637954 0.601954
9001.116211 1935.860107 7279.053711 -0.523479 -0.585464 0.619033
8523.723633 2144.923096 7073.077148 -0.523479 -0.585464 0.619033
8656.925781 1791.659058 6851.611328 -0.523479 -0.585464 0.619033
9827.728516 1671.905518 6981.989258 0.241830 0.930134 -0.276349
9266.339844 1909.593506 7290.733398 0.241830 0.930134 -0.276349
9643.550781 1780.266113 7185.537109 0.241830 0.930134 -0.276349
9103.518555 1449.917480 6241.636230 0.342466 0.839854 -0.421144
8772.330078 2061.770996 7192.489746 0.342466 0.839854 -0.421144
9266.339844 1909.593506 7290.733398 0.342466 0.839854 -0.421144
9198.357422 1564.236450 7042.576660 0.014168 -0.665380 0.746370
9766.968750 1458.879272 6937.858398 0.014168 -0.665380 0.746370
9467.594727 1830.575073 7274.903320 0.014168 -0.665380 0.746370
9766.968750 1458.879272 6937.858398 0.261786 -0.524052 0.810455
9643.550781 1780.266113 7185.537109 0.261786 -0.524052 0.810455
9467.594727 1830.575073 7274.903320 0.261786 -0.524052 0.810455
9001.116211 1935.860107 7279.053711 -0.499881 -0.369908 0.783126
8772.330078 2061.770996 7192.489746 -0.499881 -0.369908 0.783126
8523.723633 2144.923096 7073.077148 -0.499881 -0.369908 0.783126
9001.116211 1935.860107 7279.053711 -0.123406 -0.578549 0.806258
9198.357422 1564.236450 7042.576660 -0.123406 -0.578549 0.806258
9467.594727 1830.575073 7274.903320 -0.123406 -0.578549 0.806258
9467.594727 1830.575073 7274.903320 0.371396 0.901047 0.224008
9643.550781 1780.266113 7185.537109 0.371396 0.901047 0.224008
9266.339844 1909.593506 7290.733398 0.371396 0.901047 0.224008
8772.330078 2061.770996 7192.489746 0.023559 0.595089 0.803315
9001.116211 1935.860107 7279.053711 0.023559 0.595089 0.803315
9266.339844 1909.593506 7290.733398 0.023559 0.595089 0.803315
9001.116211 1935.860107 7279.053711 -0.078575 -0.384397 0.919818
9467.594727 1830.575073 7274.903320 -0.078575 -0.384397 0.919818
9266.339844 1909.593506 7290.733398 -0.078575 -0.384397 0.919818
3 0 1 2
3 3 4 5
3 6 7 8
3 9 10 11
3 12 13 14
3 15 16 17
3 18 19 20
3 21 22 23
3 24 25 26
3 27 28 29
3 30 31 32
3 33 34 35
3 36 37 38
3 39 40 41
3 42 43 44
3 45 46 47
3 48 49 50
3 51 52 53
3 54 55 56
3 57 58 59
3 60 61 62
3 63 64 65
3 66 67 68
3 69 70 71
3 72 73 74
3 75 76 77
3 78 79 80
3 81 82 83
3 84 85 86
3 87 88 89
3 90 91 92
3 93 94 95
3 96 97 98
3 99 100 101
3 102 103 104
3 105 106 107
3 108 109 110
3 111 112 113
3 114 115 116
3 117 118 119
3 120 121 122
3 123 124 125
3 126 127 128
3 129 130 131
3 132 133 134
3 135 136 137
3 138 139 140
3 141 142 143
3 144 145 146
3 147 148 149
3 150 151 152
3 153 154 155
3 156 157 158
3 159 160 161
3 162 163 164
3 165 166 167
3 168 169 170
3 171 172 173
3 174 175 176
3 177 178 179
3 180 181 182
3 183 184 185
3 186 187 188
3 189 190 191
3 192 193 194
3 195 196 197
3 198 199 200
3 201 202 203
3 204 205 206
3 207 208 209
3 210 211 212
3 213 214 215
3 216 217 218
3 219 220 221
3 222 223 224
3 225 226 227
3 228 229 230
3 231 232 233
3 234 235 236
3 237 238 239
3 240 241 242
3 243 244 245
3 246 247 248
3 249 250 251
3 252 253 254
3 255 256 257
3 258 259 260
3 261 262 263
3 264 265 266
3 267 268 269
3 270 271 272
3 273 274 275
3 276 277 278
3 279 280 281
3 282 283 284
3 285 286 287
3 288 289 290
3 291 292 293
3 294 295 296
3 297 298 299
3 300 301 302
3 303 304 305
3 306 307 308
3 309 310 311
3 312 313 314
3 315 316 317
3 318 319 320
3 321 322 323
3 324 325 326
3 327 328 329
3 330 331 332
3 333 334 335
3 336 337 338
3 339 340 341
3 342 343 344
3 345 346 347
3 348 349 350
3 351 352 353
3 354 355 356
3 357 358 359
3 360 361 362
3 363 364 365
3 366 367 368
3 369 370 371
3 372 373 374
3 375 376 377
3 378 379 380
3 381 382 383
3 384 385 386
3 387 388 389
3 390 391 392
3 393 394 395
3 396 397 398
3 399 400 401
3 402 403 404
3 405 406 407
3 408 409 410
3 411 412 413
3 414 415 416
3 417 418 419
3 420 421 422
3 423 424 425
3 426 427 428
3 429 430 431
3 432 433 434
3 435 436 437
3 438 439 440
3 441 442 443
3 444 445 446
3 447 448 449
3 450 451 452
3 453 454 455
3 456 457 458
3 459 460 461
3 462 463 464
3 465 466 467
3 468 469 470
3 471 472 473
3 474 475 476
3 477 478 479
3 480 481 482
3 483 484 485
3 486 487 488
3 489 490 491
3 492 493 494
3 495 496 497
3 498 499 500
3 501 502 503
