ply
format ascii 1.0
comment Created by Blender 2.80 (sub 75) - www.blender.org, source file: 'downsample_ccf.blend'
element vertex 30
property float x
property float y
property float z
property float nx
property float ny
property float nz
element face 10
property list uchar uint vertex_indices
end_header
4309.488770 4151.615723 5589.098633 0.571521 0.248745 -0.781978
4508.787109 3773.295654 5614.416504 0.571521 0.248745 -0.781978
4121.718750 4053.924072 5420.788574 0.571521 0.248745 -0.781978
4508.787109 3773.295654 5614.416504 -0.627424 -0.764947 0.145589
4256.229492 3989.210938 5660.457520 -0.627424 -0.764947 0.145589
4121.718750 4053.924072 5420.788574 -0.627424 -0.764947 0.145589
4309.488770 4151.615723 5589.098633 -0.712744 0.464625 0.525471
4121.718750 4053.924072 5420.788574 -0.712744 0.464625 0.525471
4256.229492 3989.210938 5660.457520 -0.712744 0.464625 0.525471
4508.787109 3773.295654 5614.416504 0.883521 0.459288 -0.091897
4309.488770 4151.615723 5589.098633 0.883521 0.459288 -0.091897
4417.842773 3995.593262 5851.065430 0.883521 0.459288 -0.091897
4256.229492 3989.210938 5660.457520 -0.657441 -0.725986 -0.201784
4508.787109 3773.295654 5614.416504 -0.657441 -0.725986 -0.201784
4166.622070 3984.360840 5969.861816 -0.657441 -0.725986 -0.201784
4309.488770 4151.615723 5589.098633 -0.918154 0.137887 -0.371457
4256.229492 3989.210938 5660.457520 -0.918154 0.137887 -0.371457
4192.296875 4169.757324 5885.503418 -0.918154 0.137887 -0.371457
4309.488770 4151.615723 5589.098633 0.617850 0.761035 0.197705
4192.296875 4169.757324 5885.503418 0.617850 0.761035 0.197705
4417.842773 3995.593262 5851.065430 0.617850 0.761035 0.197705
4256.229492 3989.210938 5660.457520 -0.960536 0.006489 -0.278082
4166.622070 3984.360840 5969.861816 -0.960536 0.006489 -0.278082
4192.296875 4169.757324 5885.503418 -0.960536 0.006489 -0.278082
4417.842773 3995.593262 5851.065430 0.362050 -0.605950 0.708339
4166.622070 3984.360840 5969.861816 0.362050 -0.605950 0.708339
4508.787109 3773.295654 5614.416504 0.362050 -0.605950 0.708339
4166.622070 3984.360840 5969.861816 0.390321 0.335979 0.857186
4417.842773 3995.593262 5851.065430 0.390321 0.335979 0.857186
4192.296875 4169.757324 5885.503418 0.390321 0.335979 0.857186
3 0 1 2
3 3 4 5
3 6 7 8
3 9 10 11
3 12 13 14
3 15 16 17
3 18 19 20
3 21 22 23
3 24 25 26
3 27 28 29
