ply
format ascii 1.0
comment Created by Blender 2.80 (sub 75) - www.blender.org, source file: 'downsample_ccf.blend'
element vertex 18
property float x
property float y
property float z
property float nx
property float ny
property float nz
element face 6
property list uchar uint vertex_indices
end_header
10730.283203 4622.731445 4724.341309 0.011607 0.189511 -0.981810
10555.133789 4575.460938 4713.146484 0.011607 0.189511 -0.981810
10624.426758 4882.878906 4773.304199 0.011607 0.189511 -0.981810
10555.133789 4575.460938 4713.146484 -0.011607 -0.189511 0.981810
10730.283203 4622.731445 4724.341309 -0.011607 -0.189511 0.981810
10624.426758 4882.878906 4773.304199 -0.011607 -0.189511 0.981810
10710.278320 4593.616211 6631.024902 -0.032316 -0.100447 -0.994417
10538.861328 4587.629395 6637.200195 -0.032316 -0.100447 -0.994417
10654.397461 4873.188477 6604.601074 -0.032316 -0.100447 -0.994417
10538.861328 4587.629395 6637.200195 -0.795275 0.376051 0.475524
10622.888672 4637.636230 6738.183105 -0.795275 0.376051 0.475524
10654.397461 4873.188477 6604.601074 -0.795275 0.376051 0.475524
10622.888672 4637.636230 6738.183105 0.046621 -0.910051 0.411865
10538.861328 4587.629395 6637.200195 0.046621 -0.910051 0.411865
10710.278320 4593.616211 6631.024902 0.046621 -0.910051 0.411865
10710.278320 4593.616211 6631.024902 0.798210 0.212809 0.563536
10654.397461 4873.188477 6604.601074 0.798210 0.212809 0.563536
10622.888672 4637.636230 6738.183105 0.798210 0.212809 0.563536
3 0 1 2
3 3 4 5
3 6 7 8
3 9 10 11
3 12 13 14
3 15 16 17
