ply
format ascii 1.0
comment Created by Blender 2.80 (sub 75) - www.blender.org, source file: 'downsample_ccf.blend'
element vertex 96
property float x
property float y
property float z
property float nx
property float ny
property float nz
element face 32
property list uchar uint vertex_indices
end_header
9944.687500 6846.084473 4500.536133 -0.435673 0.383509 -0.814316
9739.844727 6427.768066 4413.121094 -0.435673 0.383509 -0.814316
9582.487305 6448.971191 4507.295898 -0.435673 0.383509 -0.814316
9739.844727 6427.768066 4413.121094 -0.046415 -0.988347 0.144967
9695.954102 6475.176758 4722.288574 -0.046415 -0.988347 0.144967
9582.487305 6448.971191 4507.295898 -0.046415 -0.988347 0.144967
10432.276367 6812.036621 4602.594238 0.210535 0.100115 -0.972446
9739.844727 6427.768066 4413.121094 0.210535 0.100115 -0.972446
9944.687500 6846.084473 4500.536133 0.210535 0.100115 -0.972446
9582.487305 6448.971191 4507.295898 -0.641474 0.576461 -0.506166
9847.053711 6927.941406 4717.494141 -0.641474 0.576461 -0.506166
9944.687500 6846.084473 4500.536133 -0.641474 0.576461 -0.506166
9944.687500 6846.084473 4500.536133 0.204916 0.587140 -0.783119
10416.249023 6976.025879 4721.350586 0.204916 0.587140 -0.783119
10432.276367 6812.036621 4602.594238 0.204916 0.587140 -0.783119
9695.954102 6475.176758 4722.288574 -0.608185 -0.683149 0.404251
9581.262695 6554.897461 4684.459473 -0.608185 -0.683149 0.404251
9582.487305 6448.971191 4507.295898 -0.608185 -0.683149 0.404251
9739.844727 6427.768066 4413.121094 0.434142 -0.879164 0.196446
10432.276367 6812.036621 4602.594238 0.434142 -0.879164 0.196446
9695.954102 6475.176758 4722.288574 0.434142 -0.879164 0.196446
10416.249023 6976.025879 4721.350586 -0.075246 0.921314 -0.381468
9944.687500 6846.084473 4500.536133 -0.075246 0.921314 -0.381468
9847.053711 6927.941406 4717.494141 -0.075246 0.921314 -0.381468
9582.487305 6448.971191 4507.295898 -0.750392 0.565024 -0.343015
9581.262695 6554.897461 4684.459473 -0.750392 0.565024 -0.343015
9847.053711 6927.941406 4717.494141 -0.750392 0.565024 -0.343015
9844.530273 6869.160156 4812.697266 -0.787369 0.533664 0.308630
9847.053711 6927.941406 4717.494141 -0.787369 0.533664 0.308630
9581.262695 6554.897461 4684.459473 -0.787369 0.533664 0.308630
10432.276367 6812.036621 4602.594238 0.966011 -0.082900 0.244849
10416.249023 6976.025879 4721.350586 0.966011 -0.082900 0.244849
10376.038086 6908.301270 4857.066406 0.966011 -0.082900 0.244849
10416.249023 6976.025879 4721.350586 -0.079014 0.901137 0.426273
9847.053711 6927.941406 4717.494141 -0.079014 0.901137 0.426273
10376.038086 6908.301270 4857.066406 -0.079014 0.901137 0.426273
10376.038086 6908.301270 4857.066406 0.434208 -0.806593 0.401087
9695.954102 6475.176758 4722.288574 0.434208 -0.806593 0.401087
10432.276367 6812.036621 4602.594238 0.434208 -0.806593 0.401087
9695.954102 6475.176758 4722.288574 -0.360406 -0.077400 0.929579
9844.530273 6869.160156 4812.697266 -0.360406 -0.077400 0.929579
9581.262695 6554.897461 4684.459473 -0.360406 -0.077400 0.929579
10376.038086 6908.301270 4857.066406 -0.105840 0.847353 0.520376
9847.053711 6927.941406 4717.494141 -0.105840 0.847353 0.520376
9844.530273 6869.160156 4812.697266 -0.105840 0.847353 0.520376
10376.038086 6908.301270 4857.066406 -0.066953 -0.199105 0.977688
9844.530273 6869.160156 4812.697266 -0.066953 -0.199105 0.977688
9695.954102 6475.176758 4722.288574 -0.066953 -0.199105 0.977688
9734.097656 6858.678223 6634.991699 -0.221673 0.060022 -0.973272
10320.612305 6908.665527 6504.489746 -0.221673 0.060022 -0.973272
9666.226562 6522.508789 6629.718262 -0.221673 0.060022 -0.973272
10320.612305 6908.665527 6504.489746 0.508138 -0.718704 -0.474617
10450.939453 6925.065430 6619.187500 0.508138 -0.718704 -0.474617
10239.483398 6678.035645 6766.869629 0.508138 -0.718704 -0.474617
9666.226562 6522.508789 6629.718262 0.339059 -0.756105 -0.559772
10320.612305 6908.665527 6504.489746 0.339059 -0.756105 -0.559772
10239.483398 6678.035645 6766.869629 0.339059 -0.756105 -0.559772
9734.097656 6858.678223 6634.991699 -0.194017 0.802159 -0.564711
10208.473633 7009.231934 6685.869141 -0.194017 0.802159 -0.564711
10320.612305 6908.665527 6504.489746 -0.194017 0.802159 -0.564711
10450.939453 6925.065430 6619.187500 0.212093 0.904373 -0.370305
10320.612305 6908.665527 6504.489746 0.212093 0.904373 -0.370305
10208.473633 7009.231934 6685.869141 0.212093 0.904373 -0.370305
9666.226562 6522.508789 6629.718262 -0.975292 0.198430 -0.097109
9617.162109 6407.161133 6886.786133 -0.975292 0.198430 -0.097109
9734.097656 6858.678223 6634.991699 -0.975292 0.198430 -0.097109
10208.473633 7009.231934 6685.869141 0.396073 0.830192 0.392311
10401.490234 6864.577148 6797.113770 0.396073 0.830192 0.392311
10450.939453 6925.065430 6619.187500 0.396073 0.830192 0.392311
10401.490234 6864.577148 6797.113770 0.755950 -0.654512 -0.012416
10239.483398 6678.035645 6766.869629 0.755950 -0.654512 -0.012416
10450.939453 6925.065430 6619.187500 0.755950 -0.654512 -0.012416
9617.162109 6407.161133 6886.786133 0.320672 -0.885539 -0.336142
9666.226562 6522.508789 6629.718262 0.320672 -0.885539 -0.336142
10239.483398 6678.035645 6766.869629 0.320672 -0.885539 -0.336142
9734.097656 6858.678223 6634.991699 -0.316170 0.863199 0.393605
9995.888672 6843.589844 6878.369629 -0.316170 0.863199 0.393605
10208.473633 7009.231934 6685.869141 -0.316170 0.863199 0.393605
9995.888672 6843.589844 6878.369629 0.107203 0.692030 0.713864
10401.490234 6864.577148 6797.113770 0.107203 0.692030 0.713864
10208.473633 7009.231934 6685.869141 0.107203 0.692030 0.713864
10239.483398 6678.035645 6766.869629 0.497621 -0.541972 0.677230
10401.490234 6864.577148 6797.113770 0.497621 -0.541972 0.677230
9810.724609 6537.497559 6969.447266 0.497621 -0.541972 0.677230
9810.724609 6537.497559 6969.447266 -0.561284 0.528939 0.636540
9995.888672 6843.589844 6878.369629 -0.561284 0.528939 0.636540
9734.097656 6858.678223 6634.991699 -0.561284 0.528939 0.636540
9734.097656 6858.678223 6634.991699 -0.602846 0.501970 0.620164
9617.162109 6407.161133 6886.786133 -0.602846 0.501970 0.620164
9810.724609 6537.497559 6969.447266 -0.602846 0.501970 0.620164
10401.490234 6864.577148 6797.113770 0.184598 0.176038 0.966920
9995.888672 6843.589844 6878.369629 0.184598 0.176038 0.966920
9810.724609 6537.497559 6969.447266 0.184598 0.176038 0.966920
10239.483398 6678.035645 6766.869629 0.429363 -0.843058 0.323883
9810.724609 6537.497559 6969.447266 0.429363 -0.843058 0.323883
9617.162109 6407.161133 6886.786133 0.429363 -0.843058 0.323883
3 0 1 2
3 3 4 5
3 6 7 8
3 9 10 11
3 12 13 14
3 15 16 17
3 18 19 20
3 21 22 23
3 24 25 26
3 27 28 29
3 30 31 32
3 33 34 35
3 36 37 38
3 39 40 41
3 42 43 44
3 45 46 47
3 48 49 50
3 51 52 53
3 54 55 56
3 57 58 59
3 60 61 62
3 63 64 65
3 66 67 68
3 69 70 71
3 72 73 74
3 75 76 77
3 78 79 80
3 81 82 83
3 84 85 86
3 87 88 89
3 90 91 92
3 93 94 95
