ply
format ascii 1.0
comment Created by Blender 2.80 (sub 75) - www.blender.org, source file: 'downsample_ccf.blend'
element vertex 132
property float x
property float y
property float z
property float nx
property float ny
property float nz
element face 44
property list uchar uint vertex_indices
end_header
8241.718750 4373.548828 3946.211914 0.875100 0.060429 -0.480155
8184.027344 4286.498535 3830.111572 0.875100 0.060429 -0.480155
8171.065918 4381.634766 3818.462158 0.875100 0.060429 -0.480155
8184.027344 4286.498535 3830.111572 -0.686110 -0.179795 -0.704931
7765.369629 4396.388184 4209.563965 -0.686110 -0.179795 -0.704931
8171.065918 4381.634766 3818.462158 -0.686110 -0.179795 -0.704931
7900.636719 4233.016602 4473.096191 -0.471111 -0.837356 -0.277288
7765.369629 4396.388184 4209.563965 -0.471111 -0.837356 -0.277288
8184.027344 4286.498535 3830.111572 -0.471111 -0.837356 -0.277288
7900.636719 4233.016602 4473.096191 0.647165 -0.728503 0.224638
8184.027344 4286.498535 3830.111572 0.647165 -0.728503 0.224638
8241.718750 4373.548828 3946.211914 0.647165 -0.728503 0.224638
8171.065918 4381.634766 3818.462158 0.063366 0.997595 0.028098
7765.369629 4396.388184 4209.563965 0.063366 0.997595 0.028098
8241.718750 4373.548828 3946.211914 0.063366 0.997595 0.028098
8241.718750 4373.548828 3946.211914 -0.128176 0.940916 -0.313445
7765.369629 4396.388184 4209.563965 -0.128176 0.940916 -0.313445
7809.012695 4520.740723 4565.005371 -0.128176 0.940916 -0.313445
7900.636719 4233.016602 4473.096191 0.701891 -0.655093 0.279646
8241.718750 4373.548828 3946.211914 0.701891 -0.655093 0.279646
8038.716797 4405.090332 4529.621582 0.701891 -0.655093 0.279646
7809.012695 4520.740723 4565.005371 0.460624 0.880414 0.112679
8038.716797 4405.090332 4529.621582 0.460624 0.880414 0.112679
8241.718750 4373.548828 3946.211914 0.460624 0.880414 0.112679
7765.369629 4396.388184 4209.563965 -0.690964 -0.717265 -0.089993
7900.636719 4233.016602 4473.096191 -0.690964 -0.717265 -0.089993
7720.584473 4354.304688 4888.839844 -0.690964 -0.717265 -0.089993
7765.369629 4396.388184 4209.563965 -0.841877 0.533220 -0.083179
7724.091309 4439.060547 4900.906738 -0.841877 0.533220 -0.083179
7809.012695 4520.740723 4565.005371 -0.841877 0.533220 -0.083179
7809.012695 4520.740723 4565.005371 0.464963 0.826083 0.318427
7724.091309 4439.060547 4900.906738 0.464963 0.826083 0.318427
8038.716797 4405.090332 4529.621582 0.464963 0.826083 0.318427
7720.584473 4354.304688 4888.839844 -0.996777 0.050156 -0.062611
7724.091309 4439.060547 4900.906738 -0.996777 0.050156 -0.062611
7765.369629 4396.388184 4209.563965 -0.996777 0.050156 -0.062611
8038.716797 4405.090332 4529.621582 0.615900 -0.643520 0.454476
7720.584473 4354.304688 4888.839844 0.615900 -0.643520 0.454476
7900.636719 4233.016602 4473.096191 0.615900 -0.643520 0.454476
8038.716797 4405.090332 4529.621582 0.751496 -0.123365 0.648101
7724.091309 4439.060547 4900.906738 0.751496 -0.123365 0.648101
7720.584473 4354.304688 4888.839844 0.751496 -0.123365 0.648101
7636.395020 4496.123047 5278.331055 0.977787 0.209332 0.010619
7604.381348 4651.218750 5168.723145 0.977787 0.209332 0.010619
7552.002930 4878.732910 5506.708008 0.977787 0.209332 0.010619
7604.381348 4651.218750 5168.723145 0.648400 0.674295 -0.353417
7338.954102 5016.723633 5379.112305 0.648400 0.674295 -0.353417
7552.002930 4878.732910 5506.708008 0.648400 0.674295 -0.353417
7604.381348 4651.218750 5168.723145 -0.829932 -0.425923 -0.360281
7636.395020 4496.123047 5278.331055 -0.829932 -0.425923 -0.360281
7352.046875 4828.775391 5540.086914 -0.829932 -0.425923 -0.360281
7604.381348 4651.218750 5168.723145 -0.838032 -0.387430 -0.384188
7352.046875 4828.775391 5540.086914 -0.838032 -0.387430 -0.384188
7338.954102 5016.723633 5379.112305 -0.838032 -0.387430 -0.384188
7636.395020 4496.123047 5278.331055 0.894566 0.357453 -0.268288
7552.002930 4878.732910 5506.708008 0.894566 0.357453 -0.268288
7638.084473 4622.490723 5452.330078 0.894566 0.357453 -0.268288
7339.559570 5068.332031 5478.456055 0.648498 0.673880 -0.354028
7552.002930 4878.732910 5506.708008 0.648498 0.673880 -0.354028
7338.954102 5016.723633 5379.112305 0.648498 0.673880 -0.354028
7636.395020 4496.123047 5278.331055 -0.372287 -0.749243 0.547756
7638.084473 4622.490723 5452.330078 -0.372287 -0.749243 0.547756
7352.046875 4828.775391 5540.086914 -0.372287 -0.749243 0.547756
7352.046875 4828.775391 5540.086914 -0.998580 -0.044535 0.029222
7339.559570 5068.332031 5478.456055 -0.998580 -0.044535 0.029222
7338.954102 5016.723633 5379.112305 -0.998580 -0.044535 0.029222
7552.002930 4878.732910 5506.708008 0.196914 -0.139782 0.970405
7352.046875 4828.775391 5540.086914 0.196914 -0.139782 0.970405
7638.084473 4622.490723 5452.330078 0.196914 -0.139782 0.970405
7552.002930 4878.732910 5506.708008 0.097545 0.252735 0.962606
7339.559570 5068.332031 5478.456055 0.097545 0.252735 0.962606
7352.046875 4828.775391 5540.086914 0.097545 0.252735 0.962606
7331.888672 4912.175293 5822.711914 0.504008 0.348641 -0.790206
7336.011719 5080.298340 5899.518066 0.504008 0.348641 -0.790206
7662.206055 4642.409668 5914.373047 0.504008 0.348641 -0.790206
7662.206055 4642.409668 5914.373047 -0.358061 -0.662118 -0.658325
7586.235352 4509.395996 6089.473145 -0.358061 -0.662118 -0.658325
7331.888672 4912.175293 5822.711914 -0.358061 -0.662118 -0.658325
7331.888672 4912.175293 5822.711914 -0.922334 -0.141619 0.359505
7471.645020 4821.857422 6145.687988 -0.922334 -0.141619 0.359505
7336.011719 5080.298340 5899.518066 -0.922334 -0.141619 0.359505
7471.645020 4821.857422 6145.687988 -0.884580 -0.374432 0.278063
7331.888672 4912.175293 5822.711914 -0.884580 -0.374432 0.278063
7586.235352 4509.395996 6089.473145 -0.884580 -0.374432 0.278063
7336.011719 5080.298340 5899.518066 0.798030 0.590372 -0.120868
7651.564453 4707.079102 6159.985840 0.798030 0.590372 -0.120868
7662.206055 4642.409668 5914.373047 0.798030 0.590372 -0.120868
7336.011719 5080.298340 5899.518066 0.424105 0.731335 0.534120
7471.645020 4821.857422 6145.687988 0.424105 0.731335 0.534120
7651.564453 4707.079102 6159.985840 0.424105 0.731335 0.534120
7651.564453 4707.079102 6159.985840 0.925905 -0.353496 0.133191
7586.235352 4509.395996 6089.473145 0.925905 -0.353496 0.133191
7662.206055 4642.409668 5914.373047 0.925905 -0.353496 0.133191
7651.564453 4707.079102 6159.985840 -0.237611 -0.255732 0.937092
7471.645020 4821.857422 6145.687988 -0.237611 -0.255732 0.937092
7586.235352 4509.395996 6089.473145 -0.237611 -0.255732 0.937092
7791.932617 4409.075195 6466.540527 -0.145830 -0.929870 -0.337750
7902.244141 4222.472656 6932.652344 -0.145830 -0.929870 -0.337750
7683.516602 4402.828125 6530.550293 -0.145830 -0.929870 -0.337750
7791.932617 4409.075195 6466.540527 -0.271072 0.887558 -0.372505
7683.516602 4402.828125 6530.550293 -0.271072 0.887558 -0.372505
7725.980957 4516.569336 6770.657227 -0.271072 0.887558 -0.372505
7902.244141 4222.472656 6932.652344 -0.681773 -0.730281 0.043304
7732.080078 4388.092773 7046.635742 -0.681773 -0.730281 0.043304
7683.516602 4402.828125 6530.550293 -0.681773 -0.730281 0.043304
7791.932617 4409.075195 6466.540527 0.381273 0.894492 -0.233486
7725.980957 4516.569336 6770.657227 0.381273 0.894492 -0.233486
8093.100098 4411.752930 6968.592285 0.381273 0.894492 -0.233486
7791.932617 4409.075195 6466.540527 0.681083 -0.609794 -0.405311
8093.100098 4411.752930 6968.592285 0.681083 -0.609794 -0.405311
7902.244141 4222.472656 6932.652344 0.681083 -0.609794 -0.405311
7683.516602 4402.828125 6530.550293 -0.982040 0.161808 0.097030
7732.080078 4388.092773 7046.635742 -0.982040 0.161808 0.097030
7725.980957 4516.569336 6770.657227 -0.982040 0.161808 0.097030
7902.244141 4222.472656 6932.652344 0.703854 -0.659696 -0.263421
8093.100098 4411.752930 6968.592285 0.703854 -0.659696 -0.263421
8252.844727 4362.434082 7518.937500 0.703854 -0.659696 -0.263421
7725.980957 4516.569336 6770.657227 0.270694 0.962635 0.007693
8252.844727 4362.434082 7518.937500 0.270694 0.962635 0.007693
8093.100098 4411.752930 6968.592285 0.270694 0.962635 0.007693
8029.200684 4337.338379 7494.695312 -0.563256 -0.775324 0.285685
7732.080078 4388.092773 7046.635742 -0.563256 -0.775324 0.285685
7902.244141 4222.472656 6932.652344 -0.563256 -0.775324 0.285685
7725.980957 4516.569336 6770.657227 -0.444237 0.808415 0.386160
7732.080078 4388.092773 7046.635742 -0.444237 0.808415 0.386160
8029.200684 4337.338379 7494.695312 -0.444237 0.808415 0.386160
8252.844727 4362.434082 7518.937500 -0.137854 0.946427 0.292014
7725.980957 4516.569336 6770.657227 -0.137854 0.946427 0.292014
8029.200684 4337.338379 7494.695312 -0.137854 0.946427 0.292014
7902.244141 4222.472656 6932.652344 0.090432 -0.979544 0.179764
8252.844727 4362.434082 7518.937500 0.090432 -0.979544 0.179764
8029.200684 4337.338379 7494.695312 0.090432 -0.979544 0.179764
3 0 1 2
3 3 4 5
3 6 7 8
3 9 10 11
3 12 13 14
3 15 16 17
3 18 19 20
3 21 22 23
3 24 25 26
3 27 28 29
3 30 31 32
3 33 34 35
3 36 37 38
3 39 40 41
3 42 43 44
3 45 46 47
3 48 49 50
3 51 52 53
3 54 55 56
3 57 58 59
3 60 61 62
3 63 64 65
3 66 67 68
3 69 70 71
3 72 73 74
3 75 76 77
3 78 79 80
3 81 82 83
3 84 85 86
3 87 88 89
3 90 91 92
3 93 94 95
3 96 97 98
3 99 100 101
3 102 103 104
3 105 106 107
3 108 109 110
3 111 112 113
3 114 115 116
3 117 118 119
3 120 121 122
3 123 124 125
3 126 127 128
3 129 130 131
