ply
format ascii 1.0
comment Created by Blender 2.80 (sub 75) - www.blender.org, source file: 'downsample_ccf.blend'
element vertex 78
property float x
property float y
property float z
property float nx
property float ny
property float nz
element face 26
property list uchar uint vertex_indices
end_header
8224.357422 4297.005371 4011.511963 0.937957 -0.232880 -0.256911
8176.291016 4344.290039 3793.164795 0.937957 -0.232880 -0.256911
8220.441406 4393.813965 3909.461914 0.937957 -0.232880 -0.256911
7957.925293 4240.285156 4316.357422 -0.027264 -0.978207 -0.205836
8176.291016 4344.290039 3793.164795 -0.027264 -0.978207 -0.205836
8224.357422 4297.005371 4011.511963 -0.027264 -0.978207 -0.205836
7804.560059 4385.324707 4148.303711 -0.419831 -0.840570 -0.342322
8176.291016 4344.290039 3793.164795 -0.419831 -0.840570 -0.342322
7957.925293 4240.285156 4316.357422 -0.419831 -0.840570 -0.342322
8220.441406 4393.813965 3909.461914 -0.201537 0.926423 -0.317997
8176.291016 4344.290039 3793.164795 -0.201537 0.926423 -0.317997
7804.560059 4385.324707 4148.303711 -0.201537 0.926423 -0.317997
8220.441406 4393.813965 3909.461914 -0.179030 0.943694 -0.278192
7804.560059 4385.324707 4148.303711 -0.179030 0.943694 -0.278192
7808.813477 4521.277832 4606.751465 -0.179030 0.943694 -0.278192
7804.560059 4385.324707 4148.303711 -0.515958 -0.822577 -0.239068
7957.925293 4240.285156 4316.357422 -0.515958 -0.822577 -0.239068
7723.529297 4341.183594 4475.064941 -0.515958 -0.822577 -0.239068
8224.357422 4297.005371 4011.511963 0.503391 -0.814504 0.288410
7821.956055 4343.350586 4844.746582 0.503391 -0.814504 0.288410
7957.925293 4240.285156 4316.357422 0.503391 -0.814504 0.288410
8224.357422 4297.005371 4011.511963 0.877542 0.364236 0.311854
8220.441406 4393.813965 3909.461914 0.877542 0.364236 0.311854
7898.133789 4453.564941 4746.632324 0.877542 0.364236 0.311854
7688.751465 4425.636230 4890.691406 -0.887646 0.431138 -0.161879
7804.560059 4385.324707 4148.303711 -0.887646 0.431138 -0.161879
7723.529297 4341.183594 4475.064941 -0.887646 0.431138 -0.161879
7898.133789 4453.564941 4746.632324 0.473518 0.872568 0.120026
8220.441406 4393.813965 3909.461914 0.473518 0.872568 0.120026
7808.813477 4521.277832 4606.751465 0.473518 0.872568 0.120026
7804.560059 4385.324707 4148.303711 -0.815760 0.556541 -0.157474
7688.751465 4425.636230 4890.691406 -0.815760 0.556541 -0.157474
7808.813477 4521.277832 4606.751465 -0.815760 0.556541 -0.157474
8224.357422 4297.005371 4011.511963 0.874117 -0.217597 0.434248
7898.133789 4453.564941 4746.632324 0.874117 -0.217597 0.434248
7821.956055 4343.350586 4844.746582 0.874117 -0.217597 0.434248
7723.529297 4341.183594 4475.064941 -0.338288 -0.936178 0.095556
7957.925293 4240.285156 4316.357422 -0.338288 -0.936178 0.095556
7821.956055 4343.350586 4844.746582 -0.338288 -0.936178 0.095556
7821.956055 4343.350586 4844.746582 -0.486733 -0.863111 0.134651
7688.751465 4425.636230 4890.691406 -0.486733 -0.863111 0.134651
7723.529297 4341.183594 4475.064941 -0.486733 -0.863111 0.134651
7688.751465 4425.636230 4890.691406 0.127939 0.922272 0.364754
7898.133789 4453.564941 4746.632324 0.127939 0.922272 0.364754
7808.813477 4521.277832 4606.751465 0.127939 0.922272 0.364754
7688.751465 4425.636230 4890.691406 0.495466 0.360904 0.790102
7821.956055 4343.350586 4844.746582 0.495466 0.360904 0.790102
7898.133789 4453.564941 4746.632324 0.495466 0.360904 0.790102
7753.280273 4398.545898 6440.897949 0.229681 0.947885 -0.220820
7693.967773 4499.621094 6813.078125 0.229681 0.947885 -0.220820
8033.120117 4419.267090 6820.915527 0.229681 0.947885 -0.220820
7753.280273 4398.545898 6440.897949 -0.971331 -0.217617 -0.095697
7756.925781 4275.026855 6684.782227 -0.971331 -0.217617 -0.095697
7693.967773 4499.621094 6813.078125 -0.971331 -0.217617 -0.095697
7753.280273 4398.545898 6440.897949 0.568171 -0.730671 -0.378552
8033.120117 4419.267090 6820.915527 0.568171 -0.730671 -0.378552
7756.925781 4275.026855 6684.782227 0.568171 -0.730671 -0.378552
7756.925781 4275.026855 6684.782227 -0.898407 -0.378786 0.222230
7881.697266 4346.632812 7311.245605 -0.898407 -0.378786 0.222230
7693.967773 4499.621094 6813.078125 -0.898407 -0.378786 0.222230
7693.967773 4499.621094 6813.078125 0.230872 0.972846 -0.016405
8228.308594 4384.901855 7529.910156 0.230872 0.972846 -0.016405
8033.120117 4419.267090 6820.915527 0.230872 0.972846 -0.016405
7756.925781 4275.026855 6684.782227 0.554362 -0.774897 -0.303675
8033.120117 4419.267090 6820.915527 0.554362 -0.774897 -0.303675
8176.848633 4277.117676 7446.020508 0.554362 -0.774897 -0.303675
8033.120117 4419.267090 6820.915527 0.933714 -0.236787 -0.268532
8228.308594 4384.901855 7529.910156 0.933714 -0.236787 -0.268532
8176.848633 4277.117676 7446.020508 0.933714 -0.236787 -0.268532
7693.967773 4499.621094 6813.078125 -0.341084 0.854832 0.391055
7881.697266 4346.632812 7311.245605 -0.341084 0.854832 0.391055
8228.308594 4384.901855 7529.910156 -0.341084 0.854832 0.391055
7881.697266 4346.632812 7311.245605 -0.297526 -0.940046 0.166707
7756.925781 4275.026855 6684.782227 -0.297526 -0.940046 0.166707
8176.848633 4277.117676 7446.020508 -0.297526 -0.940046 0.166707
8176.848633 4277.117676 7446.020508 -0.456984 -0.400112 0.794403
8228.308594 4384.901855 7529.910156 -0.456984 -0.400112 0.794403
7881.697266 4346.632812 7311.245605 -0.456984 -0.400112 0.794403
3 0 1 2
3 3 4 5
3 6 7 8
3 9 10 11
3 12 13 14
3 15 16 17
3 18 19 20
3 21 22 23
3 24 25 26
3 27 28 29
3 30 31 32
3 33 34 35
3 36 37 38
3 39 40 41
3 42 43 44
3 45 46 47
3 48 49 50
3 51 52 53
3 54 55 56
3 57 58 59
3 60 61 62
3 63 64 65
3 66 67 68
3 69 70 71
3 72 73 74
3 75 76 77
