ply
format ascii 1.0
comment Created by Blender 2.80 (sub 75) - www.blender.org, source file: 'downsample_ccf.blend'
element vertex 282
property float x
property float y
property float z
property float nx
property float ny
property float nz
element face 94
property list uchar uint vertex_indices
end_header
5044.867188 2094.388916 2865.642090 0.315085 0.377997 -0.870540
5480.781250 1723.410522 2862.334961 0.315085 0.377997 -0.870540
4919.221191 2006.539551 2782.020508 0.315085 0.377997 -0.870540
4465.759277 2219.277588 2862.093750 0.129959 0.579768 -0.804351
5044.867188 2094.388916 2865.642090 0.129959 0.579768 -0.804351
4919.221191 2006.539551 2782.020508 0.129959 0.579768 -0.804351
4481.874023 2114.575195 3009.128662 -0.439816 -0.753639 -0.488457
4465.759277 2219.277588 2862.093750 -0.439816 -0.753639 -0.488457
4919.221191 2006.539551 2782.020508 -0.439816 -0.753639 -0.488457
4555.271973 2275.848389 2925.065918 0.140343 0.629046 -0.764594
5044.867188 2094.388916 2865.642090 0.140343 0.629046 -0.764594
4465.759277 2219.277588 2862.093750 0.140343 0.629046 -0.764594
5480.781250 1723.410522 2862.334961 0.400020 0.477015 -0.782586
5044.867188 2094.388916 2865.642090 0.400020 0.477015 -0.782586
5727.216309 1706.835938 2978.197754 0.400020 0.477015 -0.782586
4555.271973 2275.848389 2925.065918 -0.140559 0.827502 -0.543584
4465.759277 2219.277588 2862.093750 -0.140559 0.827502 -0.543584
4445.881836 2275.638428 2953.032227 -0.140559 0.827502 -0.543584
4465.759277 2219.277588 2862.093750 -0.968978 -0.238763 -0.063823
4481.874023 2114.575195 3009.128662 -0.968978 -0.238763 -0.063823
4445.881836 2275.638428 2953.032227 -0.968978 -0.238763 -0.063823
5241.813477 1639.436646 3148.550293 -0.328734 -0.796129 -0.508047
4919.221191 2006.539551 2782.020508 -0.328734 -0.796129 -0.508047
5480.781250 1723.410522 2862.334961 -0.328734 -0.796129 -0.508047
4481.874023 2114.575195 3009.128662 -0.420613 -0.798892 -0.429949
4919.221191 2006.539551 2782.020508 -0.420613 -0.798892 -0.429949
5241.813477 1639.436646 3148.550293 -0.420613 -0.798892 -0.429949
5727.216309 1706.835938 2978.197754 0.429010 0.123453 -0.894824
6041.880371 1411.719482 3088.343262 0.429010 0.123453 -0.894824
5480.781250 1723.410522 2862.334961 0.429010 0.123453 -0.894824
5480.781250 1723.410522 2862.334961 -0.136655 -0.730875 -0.668691
6041.880371 1411.719482 3088.343262 -0.136655 -0.730875 -0.668691
6193.615723 1286.996948 3193.655029 -0.136655 -0.730875 -0.668691
5241.813477 1639.436646 3148.550293 -0.284354 -0.829458 -0.480772
5480.781250 1723.410522 2862.334961 -0.284354 -0.829458 -0.480772
6193.615723 1286.996948 3193.655029 -0.284354 -0.829458 -0.480772
6041.880371 1411.719482 3088.343262 0.571595 0.328886 -0.751740
5727.216309 1706.835938 2978.197754 0.571595 0.328886 -0.751740
6153.833496 1430.461182 3181.667725 0.571595 0.328886 -0.751740
5044.867188 2094.388916 2865.642090 0.453848 0.863247 0.220968
6153.833496 1430.461182 3181.667725 0.453848 0.863247 0.220968
5727.216309 1706.835938 2978.197754 0.453848 0.863247 0.220968
6041.880371 1411.719482 3088.343262 0.625670 0.108954 -0.772442
6153.833496 1430.461182 3181.667725 0.625670 0.108954 -0.772442
6193.615723 1286.996948 3193.655029 0.625670 0.108954 -0.772442
5241.813477 1639.436646 3148.550293 -0.452936 -0.824183 -0.339958
4701.636719 1900.718506 3234.799561 -0.452936 -0.824183 -0.339958
4481.874023 2114.575195 3009.128662 -0.452936 -0.824183 -0.339958
6032.808105 1362.821411 3429.985352 0.379333 0.829105 0.410721
6153.833496 1430.461182 3181.667725 0.379333 0.829105 0.410721
5044.867188 2094.388916 2865.642090 0.379333 0.829105 0.410721
6193.615723 1286.996948 3193.655029 0.379762 0.028046 -0.924659
6153.833496 1430.461182 3181.667725 0.379762 0.028046 -0.924659
6600.470215 1135.123901 3356.145508 0.379762 0.028046 -0.924659
6600.470215 1135.123901 3356.145508 -0.089145 -0.829195 -0.551806
6500.950195 1042.470947 3511.452148 -0.089145 -0.829195 -0.551806
6193.615723 1286.996948 3193.655029 -0.089145 -0.829195 -0.551806
5241.813477 1639.436646 3148.550293 -0.298830 -0.859970 -0.413705
6193.615723 1286.996948 3193.655029 -0.298830 -0.859970 -0.413705
5993.378418 1276.348145 3360.427490 -0.298830 -0.859970 -0.413705
5044.867188 2094.388916 2865.642090 0.360467 0.839286 0.407017
4555.271973 2275.848389 2925.065918 0.360467 0.839286 0.407017
5333.042480 1589.946655 3650.606934 0.360467 0.839286 0.407017
6153.833496 1430.461182 3181.667725 0.600852 0.757035 -0.256662
6575.472168 1184.304565 3442.684814 0.600852 0.757035 -0.256662
6600.470215 1135.123901 3356.145508 0.600852 0.757035 -0.256662
4445.881836 2275.638428 2953.032227 -0.671149 0.105583 0.733765
4481.874023 2114.575195 3009.128662 -0.671149 0.105583 0.733765
5023.154785 1735.138428 3558.816895 -0.671149 0.105583 0.733765
6500.950195 1042.470947 3511.452148 -0.284098 -0.872817 -0.396836
5993.378418 1276.348145 3360.427490 -0.284098 -0.872817 -0.396836
6193.615723 1286.996948 3193.655029 -0.284098 -0.872817 -0.396836
4701.636719 1900.718506 3234.799561 -0.453878 -0.846913 -0.277007
5241.813477 1639.436646 3148.550293 -0.453878 -0.846913 -0.277007
5381.190430 1414.103394 3609.106689 -0.453878 -0.846913 -0.277007
5333.042480 1589.946655 3650.606934 0.393284 0.832360 0.390518
6032.808105 1362.821411 3429.985352 0.393284 0.832360 0.390518
5044.867188 2094.388916 2865.642090 0.393284 0.832360 0.390518
4481.874023 2114.575195 3009.128662 -0.649261 0.124555 0.750297
4701.636719 1900.718506 3234.799561 -0.649261 0.124555 0.750297
5073.797363 1597.888428 3607.116455 -0.649261 0.124555 0.750297
4445.881836 2275.638428 2953.032227 0.146090 0.803241 0.577462
5023.154785 1735.138428 3558.816895 0.146090 0.803241 0.577462
4555.271973 2275.848389 2925.065918 0.146090 0.803241 0.577462
5023.154785 1735.138428 3558.816895 -0.719699 -0.021345 0.693958
4481.874023 2114.575195 3009.128662 -0.719699 -0.021345 0.693958
5073.797363 1597.888428 3607.116455 -0.719699 -0.021345 0.693958
6153.833496 1430.461182 3181.667725 0.281391 0.882238 0.377459
6032.808105 1362.821411 3429.985352 0.281391 0.882238 0.377459
6575.472168 1184.304565 3442.684814 0.281391 0.882238 0.377459
5241.813477 1639.436646 3148.550293 -0.333155 -0.882822 -0.331110
5993.378418 1276.348145 3360.427490 -0.333155 -0.882822 -0.331110
5381.190430 1414.103394 3609.106689 -0.333155 -0.882822 -0.331110
5333.042480 1589.946655 3650.606934 0.225691 0.817084 0.530506
4555.271973 2275.848389 2925.065918 0.225691 0.817084 0.530506
5023.154785 1735.138428 3558.816895 0.225691 0.817084 0.530506
6521.745605 1067.582031 3584.291016 0.948995 -0.061703 0.309196
6600.470215 1135.123901 3356.145508 0.948995 -0.061703 0.309196
6575.472168 1184.304565 3442.684814 0.948995 -0.061703 0.309196
6600.470215 1135.123901 3356.145508 0.712253 -0.700878 0.038279
6521.745605 1067.582031 3584.291016 0.712253 -0.700878 0.038279
6500.950195 1042.470947 3511.452148 0.712253 -0.700878 0.038279
5993.378418 1276.348145 3360.427490 -0.479290 -0.778507 0.405226
6500.950195 1042.470947 3511.452148 -0.479290 -0.778507 0.405226
6521.745605 1067.582031 3584.291016 -0.479290 -0.778507 0.405226
5993.378418 1276.348145 3360.427490 -0.438724 -0.870284 0.223893
6521.745605 1067.582031 3584.291016 -0.438724 -0.870284 0.223893
5941.452148 1324.726196 3446.724854 -0.438724 -0.870284 0.223893
5381.190430 1414.103394 3609.106689 -0.503588 -0.844270 -0.183325
5073.797363 1597.888428 3607.116455 -0.503588 -0.844270 -0.183325
4701.636719 1900.718506 3234.799561 -0.503588 -0.844270 -0.183325
5941.452148 1324.726196 3446.724854 -0.018443 0.438959 0.898318
6521.745605 1067.582031 3584.291016 -0.018443 0.438959 0.898318
6032.808105 1362.821411 3429.985352 -0.018443 0.438959 0.898318
6032.808105 1362.821411 3429.985352 0.263503 0.835331 0.482481
6510.017578 1133.530762 3566.338135 0.263503 0.835331 0.482481
6575.472168 1184.304565 3442.684814 0.263503 0.835331 0.482481
5941.452148 1324.726196 3446.724854 0.041815 -0.860579 0.507598
5547.326660 1434.240723 3664.862305 0.041815 -0.860579 0.507598
5993.378418 1276.348145 3360.427490 0.041815 -0.860579 0.507598
6575.472168 1184.304565 3442.684814 0.792733 0.287325 0.537605
6510.017578 1133.530762 3566.338135 0.792733 0.287325 0.537605
6521.745605 1067.582031 3584.291016 0.792733 0.287325 0.537605
5941.452148 1324.726196 3446.724854 0.336884 -0.442749 0.830953
6032.808105 1362.821411 3429.985352 0.336884 -0.442749 0.830953
5547.326660 1434.240723 3664.862305 0.336884 -0.442749 0.830953
5333.042480 1589.946655 3650.606934 0.411973 0.627455 0.660741
5547.326660 1434.240723 3664.862305 0.411973 0.627455 0.660741
6032.808105 1362.821411 3429.985352 0.411973 0.627455 0.660741
6521.745605 1067.582031 3584.291016 -0.162462 0.232175 0.959010
6510.017578 1133.530762 3566.338135 -0.162462 0.232175 0.959010
6032.808105 1362.821411 3429.985352 -0.162462 0.232175 0.959010
5993.378418 1276.348145 3360.427490 -0.032086 -0.905693 0.422718
5547.326660 1434.240723 3664.862305 -0.032086 -0.905693 0.422718
5381.190430 1414.103394 3609.106689 -0.032086 -0.905693 0.422718
5023.154785 1735.138428 3558.816895 -0.150615 0.278256 0.948625
5073.797363 1597.888428 3607.116455 -0.150615 0.278256 0.948625
5333.042480 1589.946655 3650.606934 -0.150615 0.278256 0.948625
5381.190430 1414.103394 3609.106689 -0.246831 -0.403300 0.881149
5547.326660 1434.240723 3664.862305 -0.246831 -0.403300 0.881149
5073.797363 1597.888428 3607.116455 -0.246831 -0.403300 0.881149
5073.797363 1597.888428 3607.116455 -0.167998 -0.141889 0.975522
5547.326660 1434.240723 3664.862305 -0.167998 -0.141889 0.975522
5333.042480 1589.946655 3650.606934 -0.167998 -0.141889 0.975522
5456.056152 1525.698242 7713.855469 -0.139381 -0.019119 -0.990054
5511.121582 1427.910156 7707.991699 -0.139381 -0.019119 -0.990054
5100.979492 1573.655518 7762.917480 -0.139381 -0.019119 -0.990054
5456.056152 1525.698242 7713.855469 -0.064445 0.439441 -0.895957
5100.979492 1573.655518 7762.917480 -0.064445 0.439441 -0.895957
4973.996094 1783.154907 7874.804688 -0.064445 0.439441 -0.895957
5511.121582 1427.910156 7707.991699 -0.344913 -0.766391 -0.541922
5509.050781 1366.844360 7795.669434 -0.344913 -0.766391 -0.541922
5100.979492 1573.655518 7762.917480 -0.344913 -0.766391 -0.541922
5456.056152 1525.698242 7713.855469 0.478178 0.318350 -0.818535
5870.113770 1390.459351 7903.145020 0.478178 0.318350 -0.818535
5511.121582 1427.910156 7707.991699 0.478178 0.318350 -0.818535
5511.121582 1427.910156 7707.991699 0.070717 -0.819315 -0.568966
5990.792480 1279.956421 7980.664062 0.070717 -0.819315 -0.568966
5509.050781 1366.844360 7795.669434 0.070717 -0.819315 -0.568966
6428.448242 1069.171509 7867.514648 0.094851 -0.991960 -0.083781
6523.967285 1085.042725 7787.740234 0.094851 -0.991960 -0.083781
6590.769531 1078.680176 7938.701660 0.094851 -0.991960 -0.083781
6523.967285 1085.042725 7787.740234 0.914340 0.040800 -0.402887
6612.924805 1172.296387 7998.462891 0.914340 0.040800 -0.402887
6590.769531 1078.680176 7938.701660 0.914340 0.040800 -0.402887
5990.792480 1279.956421 7980.664062 0.466241 -0.106877 -0.878178
5511.121582 1427.910156 7707.991699 0.466241 -0.106877 -0.878178
5870.113770 1390.459351 7903.145020 0.466241 -0.106877 -0.878178
5990.792480 1279.956421 7980.664062 -0.456681 -0.591512 -0.664496
6523.967285 1085.042725 7787.740234 -0.456681 -0.591512 -0.664496
6428.448242 1069.171509 7867.514648 -0.456681 -0.591512 -0.664496
6612.924805 1172.296387 7998.462891 0.303609 0.828185 -0.471095
6523.967285 1085.042725 7787.740234 0.303609 0.828185 -0.471095
6122.733887 1315.709961 7934.668457 0.303609 0.828185 -0.471095
6176.362305 1420.805176 8192.190430 0.479780 0.660388 -0.577667
5870.113770 1390.459351 7903.145020 0.479780 0.660388 -0.577667
5456.056152 1525.698242 7713.855469 0.479780 0.660388 -0.577667
4973.996094 1783.154907 7874.804688 -0.687081 -0.028718 -0.726013
5100.979492 1573.655518 7762.917480 -0.687081 -0.028718 -0.726013
4657.397949 1934.957397 8168.420898 -0.687081 -0.028718 -0.726013
5990.792480 1279.956421 7980.664062 -0.333844 0.019592 -0.942425
6122.733887 1315.709961 7934.668457 -0.333844 0.019592 -0.942425
6523.967285 1085.042725 7787.740234 -0.333844 0.019592 -0.942425
5990.792480 1279.956421 7980.664062 -0.093472 -0.638173 -0.764198
5870.113770 1390.459351 7903.145020 -0.093472 -0.638173 -0.764198
6122.733887 1315.709961 7934.668457 -0.093472 -0.638173 -0.764198
6176.362305 1420.805176 8192.190430 0.305404 0.857695 -0.413627
6122.733887 1315.709961 7934.668457 0.305404 0.857695 -0.413627
5870.113770 1390.459351 7903.145020 0.305404 0.857695 -0.413627
6590.769531 1078.680176 7938.701660 -0.150677 -0.874816 0.460427
6242.530273 1269.837402 8187.939453 -0.150677 -0.874816 0.460427
6428.448242 1069.171509 7867.514648 -0.150677 -0.874816 0.460427
6176.362305 1420.805176 8192.190430 0.304824 0.857916 -0.413596
6612.924805 1172.296387 7998.462891 0.304824 0.857916 -0.413596
6122.733887 1315.709961 7934.668457 0.304824 0.857916 -0.413596
5100.979492 1573.655518 7762.917480 -0.451554 -0.846169 0.283015
5509.050781 1366.844360 7795.669434 -0.451554 -0.846169 0.283015
4609.919434 2098.192871 8547.706055 -0.451554 -0.846169 0.283015
5266.245117 1986.411011 8482.053711 0.308362 0.847483 -0.432071
5456.056152 1525.698242 7713.855469 0.308362 0.847483 -0.432071
4973.996094 1783.154907 7874.804688 0.308362 0.847483 -0.432071
4704.195801 1990.757812 8127.236328 -0.674438 0.020906 -0.738036
4973.996094 1783.154907 7874.804688 -0.674438 0.020906 -0.738036
4657.397949 1934.957397 8168.420898 -0.674438 0.020906 -0.738036
4609.919434 2098.192871 8547.706055 -0.407187 -0.856352 0.317583
4657.397949 1934.957397 8168.420898 -0.407187 -0.856352 0.317583
5100.979492 1573.655518 7762.917480 -0.407187 -0.856352 0.317583
6242.530273 1269.837402 8187.939453 -0.277232 -0.915353 0.292013
5509.050781 1366.844360 7795.669434 -0.277232 -0.915353 0.292013
5990.792480 1279.956421 7980.664062 -0.277232 -0.915353 0.292013
6176.362305 1420.805176 8192.190430 0.387630 0.829645 -0.401786
5456.056152 1525.698242 7713.855469 0.387630 0.829645 -0.401786
5266.245117 1986.411011 8482.053711 0.387630 0.829645 -0.401786
6242.530273 1269.837402 8187.939453 0.254353 -0.562429 0.786751
6590.769531 1078.680176 7938.701660 0.254353 -0.562429 0.786751
6612.924805 1172.296387 7998.462891 0.254353 -0.562429 0.786751
5753.319336 1549.458130 8407.565430 -0.320915 -0.864792 0.386197
5509.050781 1366.844360 7795.669434 -0.320915 -0.864792 0.386197
6242.530273 1269.837402 8187.939453 -0.320915 -0.864792 0.386197
6242.530273 1269.837402 8187.939453 -0.328892 -0.874389 0.356755
5990.792480 1279.956421 7980.664062 -0.328892 -0.874389 0.356755
6428.448242 1069.171509 7867.514648 -0.328892 -0.874389 0.356755
5509.050781 1366.844360 7795.669434 -0.357609 -0.846097 0.395266
5753.319336 1549.458130 8407.565430 -0.357609 -0.846097 0.395266
4609.919434 2098.192871 8547.706055 -0.357609 -0.846097 0.395266
4704.195801 1990.757812 8127.236328 -0.324533 0.530466 -0.783125
4463.845215 2280.648438 8423.203125 -0.324533 0.530466 -0.783125
4973.996094 1783.154907 7874.804688 -0.324533 0.530466 -0.783125
6242.530273 1269.837402 8187.939453 0.486218 0.189083 0.853135
6612.924805 1172.296387 7998.462891 0.486218 0.189083 0.853135
6176.362305 1420.805176 8192.190430 0.486218 0.189083 0.853135
4657.397949 1934.957397 8168.420898 -0.722022 0.100279 -0.684564
4463.845215 2280.648438 8423.203125 -0.722022 0.100279 -0.684564
4704.195801 1990.757812 8127.236328 -0.722022 0.100279 -0.684564
4463.845215 2280.648438 8423.203125 0.337351 0.831812 -0.440777
5266.245117 1986.411011 8482.053711 0.337351 0.831812 -0.440777
4973.996094 1783.154907 7874.804688 0.337351 0.831812 -0.440777
6242.530273 1269.837402 8187.939453 0.490885 0.191217 0.849981
6176.362305 1420.805176 8192.190430 0.490885 0.191217 0.849981
5753.319336 1549.458130 8407.565430 0.490885 0.191217 0.849981
5789.955078 1668.503906 8372.885742 0.498313 0.859631 -0.112774
6176.362305 1420.805176 8192.190430 0.498313 0.859631 -0.112774
5266.245117 1986.411011 8482.053711 0.498313 0.859631 -0.112774
4463.845215 2280.648438 8423.203125 -0.757242 0.055645 -0.650760
4657.397949 1934.957397 8168.420898 -0.757242 0.055645 -0.650760
4406.867188 2249.283203 8486.822266 -0.757242 0.055645 -0.650760
6176.362305 1420.805176 8192.190430 0.476819 0.107408 0.872415
5789.955078 1668.503906 8372.885742 0.476819 0.107408 0.872415
5753.319336 1549.458130 8407.565430 0.476819 0.107408 0.872415
4657.397949 1934.957397 8168.420898 -0.624857 -0.742503 0.241337
4609.919434 2098.192871 8547.706055 -0.624857 -0.742503 0.241337
4406.867188 2249.283203 8486.822266 -0.624857 -0.742503 0.241337
5753.319336 1549.458130 8407.565430 0.453549 0.117774 0.883416
5789.955078 1668.503906 8372.885742 0.453549 0.117774 0.883416
5496.251953 1758.845703 8511.629883 0.453549 0.117774 0.883416
5753.319336 1549.458130 8407.565430 -0.343682 -0.828867 0.441431
4985.529785 1966.733643 8593.303711 -0.343682 -0.828867 0.441431
4609.919434 2098.192871 8547.706055 -0.343682 -0.828867 0.441431
5266.245117 1986.411011 8482.053711 0.350266 0.917685 -0.187530
4463.845215 2280.648438 8423.203125 0.350266 0.917685 -0.187530
4816.888672 2169.213379 8537.301758 0.350266 0.917685 -0.187530
5496.251953 1758.845703 8511.629883 0.487122 0.577495 0.655142
5789.955078 1668.503906 8372.885742 0.487122 0.577495 0.655142
5266.245117 1986.411011 8482.053711 0.487122 0.577495 0.655142
4406.867188 2249.283203 8486.822266 0.103316 0.852309 0.512733
4816.888672 2169.213379 8537.301758 0.103316 0.852309 0.512733
4463.845215 2280.648438 8423.203125 0.103316 0.852309 0.512733
4985.529785 1966.733643 8593.303711 -0.072423 -0.513776 0.854862
5753.319336 1549.458130 8407.565430 -0.072423 -0.513776 0.854862
5496.251953 1758.845703 8511.629883 -0.072423 -0.513776 0.854862
4816.888672 2169.213379 8537.301758 -0.057237 0.306016 0.950304
4406.867188 2249.283203 8486.822266 -0.057237 0.306016 0.950304
4609.919434 2098.192871 8547.706055 -0.057237 0.306016 0.950304
5496.251953 1758.845703 8511.629883 0.308224 0.422320 0.852434
5266.245117 1986.411011 8482.053711 0.308224 0.422320 0.852434
4985.529785 1966.733643 8593.303711 0.308224 0.422320 0.852434
5266.245117 1986.411011 8482.053711 0.295203 0.475131 0.828919
4816.888672 2169.213379 8537.301758 0.295203 0.475131 0.828919
4985.529785 1966.733643 8593.303711 0.295203 0.475131 0.828919
4985.529785 1966.733643 8593.303711 -0.033679 0.240267 0.970122
4816.888672 2169.213379 8537.301758 -0.033679 0.240267 0.970122
4609.919434 2098.192871 8547.706055 -0.033679 0.240267 0.970122
3 0 1 2
3 3 4 5
3 6 7 8
3 9 10 11
3 12 13 14
3 15 16 17
3 18 19 20
3 21 22 23
3 24 25 26
3 27 28 29
3 30 31 32
3 33 34 35
3 36 37 38
3 39 40 41
3 42 43 44
3 45 46 47
3 48 49 50
3 51 52 53
3 54 55 56
3 57 58 59
3 60 61 62
3 63 64 65
3 66 67 68
3 69 70 71
3 72 73 74
3 75 76 77
3 78 79 80
3 81 82 83
3 84 85 86
3 87 88 89
3 90 91 92
3 93 94 95
3 96 97 98
3 99 100 101
3 102 103 104
3 105 106 107
3 108 109 110
3 111 112 113
3 114 115 116
3 117 118 119
3 120 121 122
3 123 124 125
3 126 127 128
3 129 130 131
3 132 133 134
3 135 136 137
3 138 139 140
3 141 142 143
3 144 145 146
3 147 148 149
3 150 151 152
3 153 154 155
3 156 157 158
3 159 160 161
3 162 163 164
3 165 166 167
3 168 169 170
3 171 172 173
3 174 175 176
3 177 178 179
3 180 181 182
3 183 184 185
3 186 187 188
3 189 190 191
3 192 193 194
3 195 196 197
3 198 199 200
3 201 202 203
3 204 205 206
3 207 208 209
3 210 211 212
3 213 214 215
3 216 217 218
3 219 220 221
3 222 223 224
3 225 226 227
3 228 229 230
3 231 232 233
3 234 235 236
3 237 238 239
3 240 241 242
3 243 244 245
3 246 247 248
3 249 250 251
3 252 253 254
3 255 256 257
3 258 259 260
3 261 262 263
3 264 265 266
3 267 268 269
3 270 271 272
3 273 274 275
3 276 277 278
3 279 280 281
