ply
format ascii 1.0
comment Created by Blender 2.80 (sub 75) - www.blender.org, source file: 'downsample_ccf.blend'
element vertex 306
property float x
property float y
property float z
property float nx
property float ny
property float nz
element face 102
property list uchar uint vertex_indices
end_header
5078.409668 1573.196167 2624.064453 0.326776 0.819318 -0.471100
4812.574219 1643.488647 2561.919189 0.326776 0.819318 -0.471100
4506.983887 1778.306396 2584.417969 0.326776 0.819318 -0.471100
5158.954590 1418.883423 2614.669678 0.272811 0.199692 -0.941115
4812.574219 1643.488647 2561.919189 0.272811 0.199692 -0.941115
5078.409668 1573.196167 2624.064453 0.272811 0.199692 -0.941115
4812.574219 1643.488647 2561.919189 -0.351007 -0.689984 -0.633021
5158.954590 1418.883423 2614.669678 -0.351007 -0.689984 -0.633021
4506.983887 1778.306396 2584.417969 -0.351007 -0.689984 -0.633021
5078.409668 1573.196167 2624.064453 0.312362 0.760077 -0.569836
4506.983887 1778.306396 2584.417969 0.312362 0.760077 -0.569836
4220.886719 1968.192749 2680.871094 0.312362 0.760077 -0.569836
5078.409668 1573.196167 2624.064453 0.396822 0.260706 -0.880094
5651.099121 1188.034668 2768.187500 0.396822 0.260706 -0.880094
5158.954590 1418.883423 2614.669678 0.396822 0.260706 -0.880094
5575.804199 1179.640869 2748.818848 0.257567 -0.090640 -0.962000
5158.954590 1418.883423 2614.669678 0.257567 -0.090640 -0.962000
5651.099121 1188.034668 2768.187500 0.257567 -0.090640 -0.962000
4506.983887 1778.306396 2584.417969 -0.588851 -0.630065 -0.506234
4312.421387 1754.788208 2840.003662 -0.588851 -0.630065 -0.506234
4220.886719 1968.192749 2680.871094 -0.588851 -0.630065 -0.506234
4220.886719 1968.192749 2680.871094 -0.608689 -0.625272 -0.488397
4312.421387 1754.788208 2840.003662 -0.608689 -0.625272 -0.488397
4225.578125 1949.493408 2698.964111 -0.608689 -0.625272 -0.488397
5158.954590 1418.883423 2614.669678 -0.329986 -0.828574 -0.452299
5575.804199 1179.640869 2748.818848 -0.329986 -0.828574 -0.452299
5223.310059 1099.364868 3153.048340 -0.329986 -0.828574 -0.452299
5873.846191 1095.487183 2911.437744 0.573631 0.684675 -0.449631
5651.099121 1188.034668 2768.187500 0.573631 0.684675 -0.449631
5078.409668 1573.196167 2624.064453 0.573631 0.684675 -0.449631
5158.954590 1418.883423 2614.669678 -0.419319 -0.797178 -0.434372
4531.661621 1498.587769 3073.946777 -0.419319 -0.797178 -0.434372
4506.983887 1778.306396 2584.417969 -0.419319 -0.797178 -0.434372
4531.661621 1498.587769 3073.946777 -0.460895 -0.780344 -0.422657
4312.421387 1754.788208 2840.003662 -0.460895 -0.780344 -0.422657
4506.983887 1778.306396 2584.417969 -0.460895 -0.780344 -0.422657
6008.938477 938.727478 2953.645020 0.268781 -0.296044 -0.916578
5575.804199 1179.640869 2748.818848 0.268781 -0.296044 -0.916578
5651.099121 1188.034668 2768.187500 0.268781 -0.296044 -0.916578
5158.954590 1418.883423 2614.669678 -0.414851 -0.803369 -0.427196
5223.310059 1099.364868 3153.048340 -0.414851 -0.803369 -0.427196
4531.661621 1498.587769 3073.946777 -0.414851 -0.803369 -0.427196
5996.749023 798.102600 3212.288574 -0.247591 -0.846244 -0.471773
5575.804199 1179.640869 2748.818848 -0.247591 -0.846244 -0.471773
6008.938477 938.727478 2953.645020 -0.247591 -0.846244 -0.471773
5651.099121 1188.034668 2768.187500 0.603246 0.323594 -0.728959
5873.846191 1095.487183 2911.437744 0.603246 0.323594 -0.728959
6008.938477 938.727478 2953.645020 0.603246 0.323594 -0.728959
5996.749023 798.102600 3212.288574 -0.298928 -0.851974 -0.429863
5223.310059 1099.364868 3153.048340 -0.298928 -0.851974 -0.429863
5575.804199 1179.640869 2748.818848 -0.298928 -0.851974 -0.429863
5996.749023 798.102600 3212.288574 -0.182966 -0.860068 -0.476243
6008.938477 938.727478 2953.645020 -0.182966 -0.860068 -0.476243
6467.020020 712.314026 3186.546387 -0.182966 -0.860068 -0.476243
4878.384277 1167.978882 3425.343506 -0.438778 -0.828919 -0.346941
4531.661621 1498.587769 3073.946777 -0.438778 -0.828919 -0.346941
5223.310059 1099.364868 3153.048340 -0.438778 -0.828919 -0.346941
4220.886719 1968.192749 2680.871094 -0.129484 0.672536 0.728649
4225.578125 1949.493408 2698.964111 -0.129484 0.672536 0.728649
4632.685547 1482.530762 3202.311523 -0.129484 0.672536 0.728649
4225.578125 1949.493408 2698.964111 -0.616356 0.262807 0.742319
4312.421387 1754.788208 2840.003662 -0.616356 0.262807 0.742319
4632.685547 1482.530762 3202.311523 -0.616356 0.262807 0.742319
4220.886719 1968.192749 2680.871094 0.416688 0.863946 0.282787
5873.846191 1095.487183 2911.437744 0.416688 0.863946 0.282787
5078.409668 1573.196167 2624.064453 0.416688 0.863946 0.282787
5873.846191 1095.487183 2911.437744 0.533342 0.241332 -0.810744
6509.223633 752.665161 3227.369385 0.533342 0.241332 -0.810744
6008.938477 938.727478 2953.645020 0.533342 0.241332 -0.810744
6509.223633 752.665161 3227.369385 0.535355 0.254772 -0.805287
6467.020020 712.314026 3186.546387 0.535355 0.254772 -0.805287
6008.938477 938.727478 2953.645020 0.535355 0.254772 -0.805287
4220.886719 1968.192749 2680.871094 0.371898 0.819562 0.435902
4858.537598 1286.571411 3418.399658 0.371898 0.819562 0.435902
5873.846191 1095.487183 2911.437744 0.371898 0.819562 0.435902
4632.685547 1482.530762 3202.311523 -0.067518 0.702944 0.708033
4858.537598 1286.571411 3418.399658 -0.067518 0.702944 0.708033
4220.886719 1968.192749 2680.871094 -0.067518 0.702944 0.708033
4531.661621 1498.587769 3073.946777 -0.787319 -0.121862 0.604382
4632.685547 1482.530762 3202.311523 -0.787319 -0.121862 0.604382
4312.421387 1754.788208 2840.003662 -0.787319 -0.121862 0.604382
5709.407715 889.531616 3257.880371 -0.330802 -0.903113 -0.273783
5223.310059 1099.364868 3153.048340 -0.330802 -0.903113 -0.273783
5996.749023 798.102600 3212.288574 -0.330802 -0.903113 -0.273783
5873.690430 935.246216 3264.981689 0.275055 0.875636 0.396996
6509.223633 752.665161 3227.369385 0.275055 0.875636 0.396996
5873.846191 1095.487183 2911.437744 0.275055 0.875636 0.396996
6467.020020 712.314026 3186.546387 -0.185759 -0.899869 -0.394625
6364.545898 645.026978 3388.218994 -0.185759 -0.899869 -0.394625
5996.749023 798.102600 3212.288574 -0.185759 -0.899869 -0.394625
5873.846191 1095.487183 2911.437744 0.359327 0.842072 0.402242
4858.537598 1286.571411 3418.399658 0.359327 0.842072 0.402242
5052.496094 1165.261230 3499.090576 0.359327 0.842072 0.402242
6467.020020 712.314026 3186.546387 0.648968 -0.756887 0.077223
6509.223633 752.665161 3227.369385 0.648968 -0.756887 0.077223
6364.545898 645.026978 3388.218994 0.648968 -0.756887 0.077223
6005.113770 828.198242 3295.588623 -0.232876 -0.906935 0.351053
5709.407715 889.531616 3257.880371 -0.232876 -0.906935 0.351053
5996.749023 798.102600 3212.288574 -0.232876 -0.906935 0.351053
5873.846191 1095.487183 2911.437744 0.349337 0.853371 0.386938
5052.496094 1165.261230 3499.090576 0.349337 0.853371 0.386938
5873.690430 935.246216 3264.981689 0.349337 0.853371 0.386938
5873.690430 935.246216 3264.981689 -0.089809 0.170309 0.981290
5709.407715 889.531616 3257.880371 -0.089809 0.170309 0.981290
6005.113770 828.198242 3295.588623 -0.089809 0.170309 0.981290
6005.113770 828.198242 3295.588623 -0.495048 -0.800097 0.338780
5996.749023 798.102600 3212.288574 -0.495048 -0.800097 0.338780
6364.545898 645.026978 3388.218994 -0.495048 -0.800097 0.338780
5873.690430 935.246216 3264.981689 0.137634 -0.615194 0.776269
5665.459961 967.395203 3327.379395 0.137634 -0.615194 0.776269
5709.407715 889.531616 3257.880371 0.137634 -0.615194 0.776269
6438.139160 679.661316 3428.448730 0.274014 0.868857 0.412315
6509.223633 752.665161 3227.369385 0.274014 0.868857 0.412315
5873.690430 935.246216 3264.981689 0.274014 0.868857 0.412315
5873.690430 935.246216 3264.981689 -0.460803 -0.330193 0.823792
6005.113770 828.198242 3295.588623 -0.460803 -0.330193 0.823792
6346.158691 699.856873 3434.916260 -0.460803 -0.330193 0.823792
6509.223633 752.665161 3227.369385 0.484107 -0.863358 -0.142312
6438.139160 679.661316 3428.448730 0.484107 -0.863358 -0.142312
6364.545898 645.026978 3388.218994 0.484107 -0.863358 -0.142312
6346.158691 699.856873 3434.916260 0.217185 0.819164 0.530849
6438.139160 679.661316 3428.448730 0.217185 0.819164 0.530849
5873.690430 935.246216 3264.981689 0.217185 0.819164 0.530849
6346.158691 699.856873 3434.916260 -0.483610 -0.655847 0.579644
6005.113770 828.198242 3295.588623 -0.483610 -0.655847 0.579644
6364.545898 645.026978 3388.218994 -0.483610 -0.655847 0.579644
5665.459961 967.395203 3327.379395 0.421111 -0.460031 0.781688
5398.630371 989.268921 3483.998779 0.421111 -0.460031 0.781688
5709.407715 889.531616 3257.880371 0.421111 -0.460031 0.781688
5243.489258 998.142273 3492.847656 -0.337718 -0.907373 -0.250241
5223.310059 1099.364868 3153.048340 -0.337718 -0.907373 -0.250241
5709.407715 889.531616 3257.880371 -0.337718 -0.907373 -0.250241
5223.310059 1099.364868 3153.048340 -0.371377 -0.895644 -0.244748
5243.489258 998.142273 3492.847656 -0.371377 -0.895644 -0.244748
4878.384277 1167.978882 3425.343506 -0.371377 -0.895644 -0.244748
4632.685547 1482.530762 3202.311523 -0.782770 -0.191618 0.592076
4531.661621 1498.587769 3073.946777 -0.782770 -0.191618 0.592076
4878.384277 1167.978882 3425.343506 -0.782770 -0.191618 0.592076
6364.545898 645.026978 3388.218994 -0.093495 -0.663535 0.742280
6438.139160 679.661316 3428.448730 -0.093495 -0.663535 0.742280
6346.158691 699.856873 3434.916260 -0.093495 -0.663535 0.742280
5709.407715 889.531616 3257.880371 -0.032333 -0.930122 0.365824
5398.630371 989.268921 3483.998779 -0.032333 -0.930122 0.365824
5243.489258 998.142273 3492.847656 -0.032333 -0.930122 0.365824
5052.496094 1165.261230 3499.090576 0.300831 0.109827 0.947332
5665.459961 967.395203 3327.379395 0.300831 0.109827 0.947332
5873.690430 935.246216 3264.981689 0.300831 0.109827 0.947332
4632.685547 1482.530762 3202.311523 -0.724942 -0.081271 0.683998
4878.384277 1167.978882 3425.343506 -0.724942 -0.081271 0.683998
4858.537598 1286.571411 3418.399658 -0.724942 -0.081271 0.683998
5665.459961 967.395203 3327.379395 0.392610 0.723474 0.567840
5052.496094 1165.261230 3499.090576 0.392610 0.723474 0.567840
5398.630371 989.268921 3483.998779 0.392610 0.723474 0.567840
5052.496094 1165.261230 3499.090576 -0.390144 -0.011383 0.920684
4858.537598 1286.571411 3418.399658 -0.390144 -0.011383 0.920684
4878.384277 1167.978882 3425.343506 -0.390144 -0.011383 0.920684
5052.496094 1165.261230 3499.090576 -0.356383 -0.438123 0.825251
4878.384277 1167.978882 3425.343506 -0.356383 -0.438123 0.825251
5243.489258 998.142273 3492.847656 -0.356383 -0.438123 0.825251
5398.630371 989.268921 3483.998779 0.058614 0.029712 0.997838
5052.496094 1165.261230 3499.090576 0.058614 0.029712 0.997838
5243.489258 998.142273 3492.847656 0.058614 0.029712 0.997838
5248.096680 983.052368 7896.920410 -0.145104 -0.187874 -0.971416
4970.185547 1198.102783 7896.841797 -0.145104 -0.187874 -0.971416
5321.541992 1037.423706 7875.434082 -0.145104 -0.187874 -0.971416
5248.096680 983.052368 7896.920410 -0.301439 -0.389869 -0.870136
4878.283203 1185.178101 7934.470215 -0.301439 -0.389869 -0.870136
4970.185547 1198.102783 7896.841797 -0.301439 -0.389869 -0.870136
5646.807617 898.992432 8080.366699 0.224121 -0.604751 -0.764229
5248.096680 983.052368 7896.920410 0.224121 -0.604751 -0.764229
5321.541992 1037.423706 7875.434082 0.224121 -0.604751 -0.764229
6379.999512 641.328918 7975.500977 -0.473376 -0.434391 -0.766302
5936.643066 874.094360 8117.433594 -0.473376 -0.434391 -0.766302
6420.853027 682.991516 7926.646973 -0.473376 -0.434391 -0.766302
5646.807617 898.992432 8080.366699 0.432574 -0.261118 -0.862958
5321.541992 1037.423706 7875.434082 0.432574 -0.261118 -0.862958
5677.704590 982.730286 8070.516602 0.432574 -0.261118 -0.862958
5248.096680 983.052368 7896.920410 -0.464661 -0.875181 0.134717
4757.655273 1274.929321 8101.467773 -0.464661 -0.875181 0.134717
4878.283203 1185.178101 7934.470215 -0.464661 -0.875181 0.134717
5646.807617 898.992432 8080.366699 -0.277352 -0.945705 0.169462
5694.265137 907.416321 8205.048828 -0.277352 -0.945705 0.169462
5248.096680 983.052368 7896.920410 -0.277352 -0.945705 0.169462
4554.406250 1583.277344 8272.062500 -0.395547 0.385229 -0.833751
4970.185547 1198.102783 7896.841797 -0.395547 0.385229 -0.833751
4878.283203 1185.178101 7934.470215 -0.395547 0.385229 -0.833751
6420.853027 682.991516 7926.646973 0.123377 0.840041 -0.528307
5936.643066 874.094360 8117.433594 0.123377 0.840041 -0.528307
5917.570312 1077.238403 8435.991211 0.123377 0.840041 -0.528307
6495.059570 718.443115 8173.426270 0.656454 -0.749002 -0.089796
6379.999512 641.328918 7975.500977 0.656454 -0.749002 -0.089796
6420.853027 682.991516 7926.646973 0.656454 -0.749002 -0.089796
5694.265137 907.416321 8205.048828 -0.376134 -0.864916 0.332330
4757.655273 1274.929321 8101.467773 -0.376134 -0.864916 0.332330
5248.096680 983.052368 7896.920410 -0.376134 -0.864916 0.332330
6495.059570 718.443115 8173.426270 0.875849 -0.439057 -0.200294
6420.853027 682.991516 7926.646973 0.875849 -0.439057 -0.200294
6507.092285 755.978333 8143.763672 0.875849 -0.439057 -0.200294
6507.092285 755.978333 8143.763672 0.275835 0.872678 -0.402925
6420.853027 682.991516 7926.646973 0.275835 0.872678 -0.402925
5917.570312 1077.238403 8435.991211 0.275835 0.872678 -0.402925
5646.807617 898.992432 8080.366699 0.112027 -0.156761 -0.981262
5677.704590 982.730286 8070.516602 0.112027 -0.156761 -0.981262
5936.643066 874.094360 8117.433594 0.112027 -0.156761 -0.981262
6379.999512 641.328918 7975.500977 -0.350325 -0.099376 -0.931341
5694.265137 907.416321 8205.048828 -0.350325 -0.099376 -0.931341
5936.643066 874.094360 8117.433594 -0.350325 -0.099376 -0.931341
5646.807617 898.992432 8080.366699 -0.098356 -0.989670 0.104302
5936.643066 874.094360 8117.433594 -0.098356 -0.989670 0.104302
5694.265137 907.416321 8205.048828 -0.098356 -0.989670 0.104302
5917.570312 1077.238403 8435.991211 0.412414 0.779101 -0.472140
5936.643066 874.094360 8117.433594 0.412414 0.779101 -0.472140
5677.704590 982.730286 8070.516602 0.412414 0.779101 -0.472140
4878.283203 1185.178101 7934.470215 -0.818410 -0.460561 -0.343641
4757.655273 1274.929321 8101.467773 -0.818410 -0.460561 -0.343641
4382.159668 1684.732666 8446.507812 -0.818410 -0.460561 -0.343641
4554.406250 1583.277344 8272.062500 -0.701561 0.032896 -0.711850
4878.283203 1185.178101 7934.470215 -0.701561 0.032896 -0.711850
4382.159668 1684.732666 8446.507812 -0.701561 0.032896 -0.711850
6379.999512 641.328918 7975.500977 -0.229394 -0.903496 0.362039
6126.274414 860.476135 8361.634766 -0.229394 -0.903496 0.362039
5694.265137 907.416321 8205.048828 -0.229394 -0.903496 0.362039
6495.059570 718.443115 8173.426270 -0.128790 -0.896402 0.424119
6126.274414 860.476135 8361.634766 -0.128790 -0.896402 0.424119
6379.999512 641.328918 7975.500977 -0.128790 -0.896402 0.424119
5321.541992 1037.423706 7875.434082 0.350328 0.845742 -0.402481
5387.056641 1390.539917 8674.468750 0.350328 0.845742 -0.402481
5677.704590 982.730286 8070.516602 0.350328 0.845742 -0.402481
4970.185547 1198.102783 7896.841797 0.360525 0.841865 -0.401604
5387.056641 1390.539917 8674.468750 0.360525 0.841865 -0.401604
5321.541992 1037.423706 7875.434082 0.360525 0.841865 -0.401604
4382.159668 1684.732666 8446.507812 -0.740467 -0.672049 -0.007635
4757.655273 1274.929321 8101.467773 -0.740467 -0.672049 -0.007635
4489.969727 1565.960327 8445.327148 -0.740467 -0.672049 -0.007635
6495.059570 718.443115 8173.426270 0.570494 0.388817 0.723434
6507.092285 755.978333 8143.763672 0.570494 0.388817 0.723434
5917.570312 1077.238403 8435.991211 0.570494 0.388817 0.723434
5917.570312 1077.238403 8435.991211 0.311432 0.850295 -0.424274
5677.704590 982.730286 8070.516602 0.311432 0.850295 -0.424274
5387.056641 1390.539917 8674.468750 0.311432 0.850295 -0.424274
6126.274414 860.476135 8361.634766 0.443703 -0.034576 0.895507
6495.059570 718.443115 8173.426270 0.443703 -0.034576 0.895507
5713.690430 1112.718384 8575.799805 0.443703 -0.034576 0.895507
4970.185547 1198.102783 7896.841797 0.392687 0.823247 -0.409953
4554.406250 1583.277344 8272.062500 0.392687 0.823247 -0.409953
4753.865723 1747.118530 8792.139648 0.392687 0.823247 -0.409953
5387.056641 1390.539917 8674.468750 0.387798 0.824569 -0.411945
4970.185547 1198.102783 7896.841797 0.387798 0.824569 -0.411945
4753.865723 1747.118530 8792.139648 0.387798 0.824569 -0.411945
5694.265137 907.416321 8205.048828 -0.371822 -0.830955 0.413838
4489.969727 1565.960327 8445.327148 -0.371822 -0.830955 0.413838
4757.655273 1274.929321 8101.467773 -0.371822 -0.830955 0.413838
5917.570312 1077.238403 8435.991211 0.567432 0.377941 0.731561
5713.690430 1112.718384 8575.799805 0.567432 0.377941 0.731561
6495.059570 718.443115 8173.426270 0.567432 0.377941 0.731561
4382.159668 1684.732666 8446.507812 -0.539603 0.377678 -0.752455
4210.602051 1935.530029 8695.417969 -0.539603 0.377678 -0.752455
4554.406250 1583.277344 8272.062500 -0.539603 0.377678 -0.752455
6126.274414 860.476135 8361.634766 -0.264207 -0.837809 0.477777
5713.690430 1112.718384 8575.799805 -0.264207 -0.837809 0.477777
5694.265137 907.416321 8205.048828 -0.264207 -0.837809 0.477777
4554.406250 1583.277344 8272.062500 -0.069765 0.738247 -0.670913
4210.602051 1935.530029 8695.417969 -0.069765 0.738247 -0.670913
4286.995117 1943.023438 8695.719727 -0.069765 0.738247 -0.670913
5694.265137 907.416321 8205.048828 -0.281516 -0.833120 0.476087
5713.690430 1112.718384 8575.799805 -0.281516 -0.833120 0.476087
5332.401367 1330.863892 8732.079102 -0.281516 -0.833120 0.476087
5694.265137 907.416321 8205.048828 -0.372387 -0.831443 0.412347
5332.401367 1330.863892 8732.079102 -0.372387 -0.831443 0.412347
4489.969727 1565.960327 8445.327148 -0.372387 -0.831443 0.412347
4210.602051 1935.530029 8695.417969 -0.729353 -0.663687 0.166023
4382.159668 1684.732666 8446.507812 -0.729353 -0.663687 0.166023
4489.969727 1565.960327 8445.327148 -0.729353 -0.663687 0.166023
4753.865723 1747.118530 8792.139648 0.423574 0.804713 -0.415959
4554.406250 1583.277344 8272.062500 0.423574 0.804713 -0.415959
4286.995117 1943.023438 8695.719727 0.423574 0.804713 -0.415959
5917.570312 1077.238403 8435.991211 0.563633 0.407475 0.718527
5387.056641 1390.539917 8674.468750 0.563633 0.407475 0.718527
5713.690430 1112.718384 8575.799805 0.563633 0.407475 0.718527
5713.690430 1112.718384 8575.799805 0.507370 0.311109 0.803609
5387.056641 1390.539917 8674.468750 0.507370 0.311109 0.803609
5332.401367 1330.863892 8732.079102 0.507370 0.311109 0.803609
4342.381836 1864.640991 8754.835938 -0.568944 -0.710415 0.414263
4210.602051 1935.530029 8695.417969 -0.568944 -0.710415 0.414263
4489.969727 1565.960327 8445.327148 -0.568944 -0.710415 0.414263
4489.969727 1565.960327 8445.327148 -0.380814 -0.800854 0.462184
5332.401367 1330.863892 8732.079102 -0.380814 -0.800854 0.462184
4818.433594 1618.609253 8807.191406 -0.380814 -0.800854 0.462184
4818.433594 1618.609253 8807.191406 -0.439170 -0.741958 0.506584
4342.381836 1864.640991 8754.835938 -0.439170 -0.741958 0.506584
4489.969727 1565.960327 8445.327148 -0.439170 -0.741958 0.506584
4286.995117 1943.023438 8695.719727 -0.059523 0.573927 0.816740
4210.602051 1935.530029 8695.417969 -0.059523 0.573927 0.816740
4342.381836 1864.640991 8754.835938 -0.059523 0.573927 0.816740
5332.401367 1330.863892 8732.079102 0.392062 0.427368 0.814643
5387.056641 1390.539917 8674.468750 0.392062 0.427368 0.814643
4753.865723 1747.118530 8792.139648 0.392062 0.427368 0.814643
4286.995117 1943.023438 8695.719727 0.117408 0.649531 0.751216
4342.381836 1864.640991 8754.835938 0.117408 0.649531 0.751216
4753.865723 1747.118530 8792.139648 0.117408 0.649531 0.751216
5332.401367 1330.863892 8732.079102 0.273853 0.246480 0.929651
4753.865723 1747.118530 8792.139648 0.273853 0.246480 0.929651
4818.433594 1618.609253 8807.191406 0.273853 0.246480 0.929651
4342.381836 1864.640991 8754.835938 -0.066410 0.083095 0.994326
4818.433594 1618.609253 8807.191406 -0.066410 0.083095 0.994326
4753.865723 1747.118530 8792.139648 -0.066410 0.083095 0.994326
3 0 1 2
3 3 4 5
3 6 7 8
3 9 10 11
3 12 13 14
3 15 16 17
3 18 19 20
3 21 22 23
3 24 25 26
3 27 28 29
3 30 31 32
3 33 34 35
3 36 37 38
3 39 40 41
3 42 43 44
3 45 46 47
3 48 49 50
3 51 52 53
3 54 55 56
3 57 58 59
3 60 61 62
3 63 64 65
3 66 67 68
3 69 70 71
3 72 73 74
3 75 76 77
3 78 79 80
3 81 82 83
3 84 85 86
3 87 88 89
3 90 91 92
3 93 94 95
3 96 97 98
3 99 100 101
3 102 103 104
3 105 106 107
3 108 109 110
3 111 112 113
3 114 115 116
3 117 118 119
3 120 121 122
3 123 124 125
3 126 127 128
3 129 130 131
3 132 133 134
3 135 136 137
3 138 139 140
3 141 142 143
3 144 145 146
3 147 148 149
3 150 151 152
3 153 154 155
3 156 157 158
3 159 160 161
3 162 163 164
3 165 166 167
3 168 169 170
3 171 172 173
3 174 175 176
3 177 178 179
3 180 181 182
3 183 184 185
3 186 187 188
3 189 190 191
3 192 193 194
3 195 196 197
3 198 199 200
3 201 202 203
3 204 205 206
3 207 208 209
3 210 211 212
3 213 214 215
3 216 217 218
3 219 220 221
3 222 223 224
3 225 226 227
3 228 229 230
3 231 232 233
3 234 235 236
3 237 238 239
3 240 241 242
3 243 244 245
3 246 247 248
3 249 250 251
3 252 253 254
3 255 256 257
3 258 259 260
3 261 262 263
3 264 265 266
3 267 268 269
3 270 271 272
3 273 274 275
3 276 277 278
3 279 280 281
3 282 283 284
3 285 286 287
3 288 289 290
3 291 292 293
3 294 295 296
3 297 298 299
3 300 301 302
3 303 304 305
