ply
format ascii 1.0
comment Created by Blender 2.80 (sub 75) - www.blender.org, source file: 'downsample_ccf.blend'
element vertex 714
property float x
property float y
property float z
property float nx
property float ny
property float nz
element face 238
property list uchar uint vertex_indices
end_header
6992.225098 3730.367432 1145.962402 0.005771 0.186426 -0.982452
6998.967285 3646.553711 1130.097900 0.005771 0.186426 -0.982452
6187.574219 4176.570312 1225.905029 0.005771 0.186426 -0.982452
7082.553711 3695.754883 1395.098022 0.937274 0.136140 -0.320911
6998.967285 3646.553711 1130.097900 0.937274 0.136140 -0.320911
6992.225098 3730.367432 1145.962402 0.937274 0.136140 -0.320911
6998.967285 3646.553711 1130.097900 -0.251520 -0.214445 -0.943796
6964.357422 3349.870361 1206.732544 -0.251520 -0.214445 -0.943796
6187.574219 4176.570312 1225.905029 -0.251520 -0.214445 -0.943796
6992.225098 3730.367432 1145.962402 0.030623 0.229516 -0.972823
6187.574219 4176.570312 1225.905029 0.030623 0.229516 -0.972823
6420.219727 4098.536133 1214.817871 0.030623 0.229516 -0.972823
7005.028809 3032.117188 1348.310669 0.954432 -0.091468 -0.284065
6998.967285 3646.553711 1130.097900 0.954432 -0.091468 -0.284065
7082.553711 3695.754883 1395.098022 0.954432 -0.091468 -0.284065
6992.225098 3730.367432 1145.962402 0.513682 0.834984 -0.197311
6420.219727 4098.536133 1214.817871 0.513682 0.834984 -0.197311
6959.337891 3817.151123 1427.595825 0.513682 0.834984 -0.197311
6420.219727 4098.536133 1214.817871 0.233349 0.778477 -0.582685
6187.574219 4176.570312 1225.905029 0.233349 0.778477 -0.582685
5883.243652 4320.298340 1296.052490 0.233349 0.778477 -0.582685
6187.574219 4176.570312 1225.905029 -0.208863 -0.173933 -0.962353
6964.357422 3349.870361 1206.732544 -0.208863 -0.173933 -0.962353
5618.522949 3746.375732 1427.160034 -0.208863 -0.173933 -0.962353
6187.574219 4176.570312 1225.905029 -0.232761 -0.018281 -0.972362
5432.979492 4189.798828 1406.288696 -0.232761 -0.018281 -0.972362
5883.243652 4320.298340 1296.052490 -0.232761 -0.018281 -0.972362
7005.028809 3032.117188 1348.310669 0.585886 -0.266071 -0.765470
6964.357422 3349.870361 1206.732544 0.585886 -0.266071 -0.765470
6998.967285 3646.553711 1130.097900 0.585886 -0.266071 -0.765470
6187.574219 4176.570312 1225.905029 -0.232485 -0.142564 -0.962095
5618.522949 3746.375732 1427.160034 -0.232485 -0.142564 -0.962095
5432.979492 4189.798828 1406.288696 -0.232485 -0.142564 -0.962095
7063.088379 2727.367920 1448.041382 0.841744 0.305937 0.444825
6964.357422 3349.870361 1206.732544 0.841744 0.305937 0.444825
7005.028809 3032.117188 1348.310669 0.841744 0.305937 0.444825
6420.219727 4098.536133 1214.817871 0.351926 0.918395 -0.180827
5883.243652 4320.298340 1296.052490 0.351926 0.918395 -0.180827
6383.023438 4157.926758 1444.062988 0.351926 0.918395 -0.180827
6959.337891 3817.151123 1427.595825 0.501003 0.854052 -0.139969
6420.219727 4098.536133 1214.817871 0.501003 0.854052 -0.139969
6383.023438 4157.926758 1444.062988 0.501003 0.854052 -0.139969
5432.979492 4189.798828 1406.288696 -0.276498 0.152498 -0.948838
5441.419434 4346.123047 1428.953735 -0.276498 0.152498 -0.948838
5883.243652 4320.298340 1296.052490 -0.276498 0.152498 -0.948838
5982.085938 3215.692627 1497.847412 -0.214153 -0.382395 -0.898840
6964.357422 3349.870361 1206.732544 -0.214153 -0.382395 -0.898840
7063.088379 2727.367920 1448.041382 -0.214153 -0.382395 -0.898840
6383.023438 4157.926758 1444.062988 0.331042 0.939591 -0.087057
5883.243652 4320.298340 1296.052490 0.331042 0.939591 -0.087057
6041.711426 4285.061035 1518.330078 0.331042 0.939591 -0.087057
7059.471191 3147.573975 1581.116821 0.978682 -0.101750 -0.178406
7005.028809 3032.117188 1348.310669 0.978682 -0.101750 -0.178406
7082.553711 3695.754883 1395.098022 0.978682 -0.101750 -0.178406
6964.357422 3349.870361 1206.732544 -0.236254 -0.285568 -0.928782
5982.085938 3215.692627 1497.847412 -0.236254 -0.285568 -0.928782
5618.522949 3746.375732 1427.160034 -0.236254 -0.285568 -0.928782
6992.225098 3730.367432 1145.962402 0.674939 0.723651 -0.144174
6959.337891 3817.151123 1427.595825 0.674939 0.723651 -0.144174
7082.553711 3695.754883 1395.098022 0.674939 0.723651 -0.144174
7063.088379 2727.367920 1448.041382 0.909759 0.038039 -0.413391
7005.028809 3032.117188 1348.310669 0.909759 0.038039 -0.413391
7153.088867 2839.958008 1656.467773 0.909759 0.038039 -0.413391
5441.419434 4346.123047 1428.953735 -0.442075 0.152036 -0.883999
5432.979492 4189.798828 1406.288696 -0.442075 0.152036 -0.883999
5107.558105 4339.018555 1594.691162 -0.442075 0.152036 -0.883999
7063.088379 2727.367920 1448.041382 -0.227081 -0.412721 -0.882097
6020.446289 2881.696777 1644.244019 -0.227081 -0.412721 -0.882097
5982.085938 3215.692627 1497.847412 -0.227081 -0.412721 -0.882097
7153.088867 2839.958008 1656.467773 0.925987 0.203985 -0.317708
7005.028809 3032.117188 1348.310669 0.925987 0.203985 -0.317708
7059.471191 3147.573975 1581.116821 0.925987 0.203985 -0.317708
6041.711426 4285.061035 1518.330078 0.152356 0.987165 0.047875
5883.243652 4320.298340 1296.052490 0.152356 0.987165 0.047875
5595.361816 4349.937988 1601.045410 0.152356 0.987165 0.047875
5883.243652 4320.298340 1296.052490 0.040699 0.997456 -0.058519
5441.419434 4346.123047 1428.953735 0.040699 0.997456 -0.058519
5595.361816 4349.937988 1601.045410 0.040699 0.997456 -0.058519
7082.553711 3695.754883 1395.098022 0.480366 0.263632 0.836509
6959.337891 3817.151123 1427.595825 0.480366 0.263632 0.836509
7059.471191 3147.573975 1581.116821 0.480366 0.263632 0.836509
6959.337891 3817.151123 1427.595825 0.377894 0.605233 0.700635
6383.023438 4157.926758 1444.062988 0.377894 0.605233 0.700635
6041.711426 4285.061035 1518.330078 0.377894 0.605233 0.700635
7059.471191 3147.573975 1581.116821 0.362177 0.259432 0.895278
6959.337891 3817.151123 1427.595825 0.362177 0.259432 0.895278
6943.822266 3191.395752 1615.203003 0.362177 0.259432 0.895278
6943.822266 3191.395752 1615.203003 0.232031 0.274059 0.933302
6959.337891 3817.151123 1427.595825 0.232031 0.274059 0.933302
6041.711426 4285.061035 1518.330078 0.232031 0.274059 0.933302
6020.446289 2881.696777 1644.244019 -0.431727 -0.403243 -0.806850
5618.522949 3746.375732 1427.160034 -0.431727 -0.403243 -0.806850
5982.085938 3215.692627 1497.847412 -0.431727 -0.403243 -0.806850
6943.822266 3191.395752 1615.203003 0.165314 0.221486 0.961049
6041.711426 4285.061035 1518.330078 0.165314 0.221486 0.961049
5800.610352 3846.045654 1660.979370 0.165314 0.221486 0.961049
4735.976074 4252.836426 1797.754395 -0.486456 0.041036 -0.872741
5107.558105 4339.018555 1594.691162 -0.486456 0.041036 -0.872741
5432.979492 4189.798828 1406.288696 -0.486456 0.041036 -0.872741
6020.446289 2881.696777 1644.244019 -0.330605 -0.371486 -0.867582
5190.584473 3418.564941 1730.596069 -0.330605 -0.371486 -0.867582
5618.522949 3746.375732 1427.160034 -0.330605 -0.371486 -0.867582
7331.628906 2396.314209 1610.568604 -0.224655 -0.570177 -0.790207
6757.055664 2405.911133 1766.994629 -0.224655 -0.570177 -0.790207
7063.088379 2727.367920 1448.041382 -0.224655 -0.570177 -0.790207
7063.088379 2727.367920 1448.041382 0.767615 0.363529 -0.527839
7153.088867 2839.958008 1656.467773 0.767615 0.363529 -0.527839
7331.628906 2396.314209 1610.568604 0.767615 0.363529 -0.527839
5432.979492 4189.798828 1406.288696 -0.410980 -0.213683 -0.886248
5618.522949 3746.375732 1427.160034 -0.410980 -0.213683 -0.886248
4789.045898 3665.178223 1831.390869 -0.410980 -0.213683 -0.886248
6041.711426 4285.061035 1518.330078 0.228627 0.541366 0.809106
5595.361816 4349.937988 1601.045410 0.228627 0.541366 0.809106
5559.816406 4291.190918 1650.396606 0.228627 0.541366 0.809106
5441.419434 4346.123047 1428.953735 -0.014600 0.999803 0.013447
5107.558105 4339.018555 1594.691162 -0.014600 0.999803 0.013447
5129.652832 4336.336914 1818.058594 -0.014600 0.999803 0.013447
5441.419434 4346.123047 1428.953735 -0.027893 0.999607 0.002792
5129.652832 4336.336914 1818.058594 -0.027893 0.999607 0.002792
5595.361816 4349.937988 1601.045410 -0.027893 0.999607 0.002792
6757.055664 2405.911133 1766.994629 -0.232589 -0.564435 -0.792033
6020.446289 2881.696777 1644.244019 -0.232589 -0.564435 -0.792033
7063.088379 2727.367920 1448.041382 -0.232589 -0.564435 -0.792033
5800.610352 3846.045654 1660.979370 0.262650 0.164679 0.950734
6041.711426 4285.061035 1518.330078 0.262650 0.164679 0.950734
5559.816406 4291.190918 1650.396606 0.262650 0.164679 0.950734
6020.446289 2881.696777 1644.244019 -0.536305 -0.842664 -0.047903
6757.055664 2405.911133 1766.994629 -0.536305 -0.842664 -0.047903
6394.093262 2638.874512 1732.523071 -0.536305 -0.842664 -0.047903
5752.300781 2997.243408 1728.757080 -0.459118 -0.825667 -0.327848
6020.446289 2881.696777 1644.244019 -0.459118 -0.825667 -0.327848
6394.093262 2638.874512 1732.523071 -0.459118 -0.825667 -0.327848
5752.300781 2997.243408 1728.757080 -0.465935 -0.618434 -0.632806
5190.584473 3418.564941 1730.596069 -0.465935 -0.618434 -0.632806
6020.446289 2881.696777 1644.244019 -0.465935 -0.618434 -0.632806
6943.822266 3191.395752 1615.203003 0.204426 0.291648 0.934426
5800.610352 3846.045654 1660.979370 0.204426 0.291648 0.934426
5670.207031 3216.931396 1885.863403 0.204426 0.291648 0.934426
5618.522949 3746.375732 1427.160034 -0.396340 -0.289181 -0.871372
5190.584473 3418.564941 1730.596069 -0.396340 -0.289181 -0.871372
4789.045898 3665.178223 1831.390869 -0.396340 -0.289181 -0.871372
5432.979492 4189.798828 1406.288696 -0.493975 -0.094085 -0.864371
4789.045898 3665.178223 1831.390869 -0.493975 -0.094085 -0.864371
4735.976074 4252.836426 1797.754395 -0.493975 -0.094085 -0.864371
7214.230957 2087.209961 1910.471069 -0.256880 -0.620952 -0.740561
7331.628906 2396.314209 1610.568604 -0.256880 -0.620952 -0.740561
7755.425293 1987.706177 1806.178345 -0.256880 -0.620952 -0.740561
7331.628906 2396.314209 1610.568604 -0.212228 -0.637768 -0.740413
7214.230957 2087.209961 1910.471069 -0.212228 -0.637768 -0.740413
6757.055664 2405.911133 1766.994629 -0.212228 -0.637768 -0.740413
7331.628906 2396.314209 1610.568604 0.798799 0.370505 -0.473969
7153.088867 2839.958008 1656.467773 0.798799 0.370505 -0.473969
7445.695312 2444.137939 1840.193481 0.798799 0.370505 -0.473969
7153.088867 2839.958008 1656.467773 0.379146 0.327388 0.865485
7059.471191 3147.573975 1581.116821 0.379146 0.327388 0.865485
6943.822266 3191.395752 1615.203003 0.379146 0.327388 0.865485
7797.485352 2115.972412 1949.995728 0.686278 0.431482 -0.585530
7755.425293 1987.706177 1806.178345 0.686278 0.431482 -0.585530
7331.628906 2396.314209 1610.568604 0.686278 0.431482 -0.585530
7153.088867 2839.958008 1656.467773 0.824533 0.450830 -0.341901
6943.822266 3191.395752 1615.203003 0.824533 0.450830 -0.341901
7445.695312 2444.137939 1840.193481 0.824533 0.450830 -0.341901
5752.300781 2997.243408 1728.757080 -0.595990 -0.795080 0.112446
5208.167969 3414.472656 1794.856934 -0.595990 -0.795080 0.112446
5190.584473 3418.564941 1730.596069 -0.595990 -0.795080 0.112446
5845.433105 3028.897705 1860.206055 -0.428075 -0.761512 0.486674
5752.300781 2997.243408 1728.757080 -0.428075 -0.761512 0.486674
6394.093262 2638.874512 1732.523071 -0.428075 -0.761512 0.486674
5107.558105 4339.018555 1594.691162 -0.208978 0.977383 0.032405
4735.976074 4252.836426 1797.754395 -0.208978 0.977383 0.032405
5129.652832 4336.336914 1818.058594 -0.208978 0.977383 0.032405
5559.816406 4291.190918 1650.396606 0.363936 0.460115 0.809842
5595.361816 4349.937988 1601.045410 0.363936 0.460115 0.809842
5129.652832 4336.336914 1818.058594 0.363936 0.460115 0.809842
7214.230957 2087.209961 1910.471069 -0.257334 -0.679766 -0.686803
7755.425293 1987.706177 1806.178345 -0.257334 -0.679766 -0.686803
7696.767090 1843.510132 1970.875244 -0.257334 -0.679766 -0.686803
7797.485352 2115.972412 1949.995728 0.678829 0.574813 -0.456925
7331.628906 2396.314209 1610.568604 0.678829 0.574813 -0.456925
7445.695312 2444.137939 1840.193481 0.678829 0.574813 -0.456925
6545.212891 2694.850342 1913.825317 -0.392826 -0.733980 0.554041
5845.433105 3028.897705 1860.206055 -0.392826 -0.733980 0.554041
6394.093262 2638.874512 1732.523071 -0.392826 -0.733980 0.554041
7445.695312 2444.137939 1840.193481 0.201163 0.403812 0.892452
6943.822266 3191.395752 1615.203003 0.201163 0.403812 0.892452
6242.994629 2952.453369 1881.288208 0.201163 0.403812 0.892452
6943.822266 3191.395752 1615.203003 0.197310 0.411931 0.889596
5670.207031 3216.931396 1885.863403 0.197310 0.411931 0.889596
6242.994629 2952.453369 1881.288208 0.197310 0.411931 0.889596
5800.610352 3846.045654 1660.979370 0.338309 0.204838 0.918470
5559.816406 4291.190918 1650.396606 0.338309 0.204838 0.918470
5164.079102 3602.075684 1949.849854 0.338309 0.204838 0.918470
4735.976074 4252.836426 1797.754395 -0.209249 0.977091 0.038848
4771.056152 4252.179199 2003.238403 -0.209249 0.977091 0.038848
5129.652832 4336.336914 1818.058594 -0.209249 0.977091 0.038848
7869.145020 1881.882935 1910.971069 -0.068800 -0.738326 -0.670926
7696.767090 1843.510132 1970.875244 -0.068800 -0.738326 -0.670926
7755.425293 1987.706177 1806.178345 -0.068800 -0.738326 -0.670926
5275.489258 3463.725098 1917.216064 -0.469984 -0.698439 0.539721
5208.167969 3414.472656 1794.856934 -0.469984 -0.698439 0.539721
5752.300781 2997.243408 1728.757080 -0.469984 -0.698439 0.539721
4789.045898 3665.178223 1831.390869 -0.573288 -0.098331 -0.813432
4489.195801 4122.178711 1987.474121 -0.573288 -0.098331 -0.813432
4735.976074 4252.836426 1797.754395 -0.573288 -0.098331 -0.813432
7869.145020 1881.882935 1910.971069 0.786923 0.328206 -0.522526
7755.425293 1987.706177 1806.178345 0.786923 0.328206 -0.522526
7899.592285 1960.745728 2006.359497 0.786923 0.328206 -0.522526
6757.055664 2405.911133 1766.994629 -0.580994 -0.573378 0.577654
7214.230957 2087.209961 1910.471069 -0.580994 -0.573378 0.577654
6986.367676 2390.456299 1982.291992 -0.580994 -0.573378 0.577654
6986.367676 2390.456299 1982.291992 -0.504316 -0.713838 0.485902
6394.093262 2638.874512 1732.523071 -0.504316 -0.713838 0.485902
6757.055664 2405.911133 1766.994629 -0.504316 -0.713838 0.485902
7445.695312 2444.137939 1840.193481 0.271955 0.581470 0.766768
6242.994629 2952.453369 1881.288208 0.271955 0.581470 0.766768
6920.992676 2534.276123 1957.937988 0.271955 0.581470 0.766768
5190.584473 3418.564941 1730.596069 -0.409857 -0.910540 0.054163
5208.167969 3414.472656 1794.856934 -0.409857 -0.910540 0.054163
4517.908203 3738.593750 2020.421753 -0.409857 -0.910540 0.054163
4789.045898 3665.178223 1831.390869 -0.538938 -0.667514 -0.513781
5190.584473 3418.564941 1730.596069 -0.538938 -0.667514 -0.513781
4517.908203 3738.593750 2020.421753 -0.538938 -0.667514 -0.513781
5164.079102 3602.075684 1949.849854 0.459539 0.118592 0.880205
5559.816406 4291.190918 1650.396606 0.459539 0.118592 0.880205
4675.377441 4154.448730 2130.569580 0.459539 0.118592 0.880205
7797.485352 2115.972412 1949.995728 0.786988 0.327911 -0.522612
7899.592285 1960.745728 2006.359497 0.786988 0.327911 -0.522612
7755.425293 1987.706177 1806.178345 0.786988 0.327911 -0.522612
6986.367676 2390.456299 1982.291992 -0.511189 -0.603136 0.612302
6545.212891 2694.850342 1913.825317 -0.511189 -0.603136 0.612302
6394.093262 2638.874512 1732.523071 -0.511189 -0.603136 0.612302
5752.300781 2997.243408 1728.757080 -0.571520 -0.607816 0.551294
5845.433105 3028.897705 1860.206055 -0.571520 -0.607816 0.551294
5670.207031 3216.931396 1885.863403 -0.571520 -0.607816 0.551294
5752.300781 2997.243408 1728.757080 -0.336738 -0.627733 0.701826
5670.207031 3216.931396 1885.863403 -0.336738 -0.627733 0.701826
5275.489258 3463.725098 1917.216064 -0.336738 -0.627733 0.701826
5670.207031 3216.931396 1885.863403 0.314127 0.261161 0.912753
5800.610352 3846.045654 1660.979370 0.314127 0.261161 0.912753
5164.079102 3602.075684 1949.849854 0.314127 0.261161 0.912753
5559.816406 4291.190918 1650.396606 0.362552 0.473597 0.802660
5129.652832 4336.336914 1818.058594 0.362552 0.473597 0.802660
4675.377441 4154.448730 2130.569580 0.362552 0.473597 0.802660
7494.784180 1918.801636 2023.680908 -0.400682 -0.866882 -0.296597
7214.230957 2087.209961 1910.471069 -0.400682 -0.866882 -0.296597
7696.767090 1843.510132 1970.875244 -0.400682 -0.866882 -0.296597
4489.195801 4122.178711 1987.474121 -0.588631 -0.112818 -0.800491
4789.045898 3665.178223 1831.390869 -0.588631 -0.112818 -0.800491
4517.908203 3738.593750 2020.421753 -0.588631 -0.112818 -0.800491
6920.992676 2534.276123 1957.937988 -0.126121 -0.022699 0.991755
6242.994629 2952.453369 1881.288208 -0.126121 -0.022699 0.991755
6545.212891 2694.850342 1913.825317 -0.126121 -0.022699 0.991755
5845.433105 3028.897705 1860.206055 -0.036963 0.082426 0.995911
6545.212891 2694.850342 1913.825317 -0.036963 0.082426 0.995911
6242.994629 2952.453369 1881.288208 -0.036963 0.082426 0.995911
5670.207031 3216.931396 1885.863403 -0.093770 -0.219878 0.971010
5845.433105 3028.897705 1860.206055 -0.093770 -0.219878 0.971010
6242.994629 2952.453369 1881.288208 -0.093770 -0.219878 0.971010
5670.207031 3216.931396 1885.863403 -0.128440 -0.324478 0.937133
5164.079102 3602.075684 1949.849854 -0.128440 -0.324478 0.937133
5275.489258 3463.725098 1917.216064 -0.128440 -0.324478 0.937133
7445.695312 2444.137939 1840.193481 0.363039 0.621466 0.694250
7736.996582 1970.707764 2111.662109 0.363039 0.621466 0.694250
7797.485352 2115.972412 1949.995728 0.363039 0.621466 0.694250
5208.167969 3414.472656 1794.856934 -0.236423 -0.849331 0.471955
5275.489258 3463.725098 1917.216064 -0.236423 -0.849331 0.471955
4758.381348 3720.603516 2120.452393 -0.236423 -0.849331 0.471955
4735.976074 4252.836426 1797.754395 -0.421095 0.903929 0.074780
4489.195801 4122.178711 1987.474121 -0.421095 0.903929 0.074780
4771.056152 4252.179199 2003.238403 -0.421095 0.903929 0.074780
7869.145020 1881.882935 1910.971069 0.236463 -0.969836 0.059190
7821.025391 1877.214600 2026.716919 0.236463 -0.969836 0.059190
7696.767090 1843.510132 1970.875244 0.236463 -0.969836 0.059190
7869.145020 1881.882935 1910.971069 0.732453 -0.620814 0.279468
7899.592285 1960.745728 2006.359497 0.732453 -0.620814 0.279468
7821.025391 1877.214600 2026.716919 0.732453 -0.620814 0.279468
7438.650391 2069.913330 2103.290039 -0.562170 -0.565375 0.603586
6986.367676 2390.456299 1982.291992 -0.562170 -0.565375 0.603586
7214.230957 2087.209961 1910.471069 -0.562170 -0.565375 0.603586
6920.992676 2534.276123 1957.937988 -0.055231 0.142248 0.988289
6545.212891 2694.850342 1913.825317 -0.055231 0.142248 0.988289
6986.367676 2390.456299 1982.291992 -0.055231 0.142248 0.988289
4517.908203 3738.593750 2020.421753 -0.334657 -0.902158 0.272242
5208.167969 3414.472656 1794.856934 -0.334657 -0.902158 0.272242
4610.120117 3742.071777 2145.300293 -0.334657 -0.902158 0.272242
7445.695312 2444.137939 1840.193481 0.271913 0.599124 0.753069
6920.992676 2534.276123 1957.937988 0.271913 0.599124 0.753069
7736.996582 1970.707764 2111.662109 0.271913 0.599124 0.753069
4758.381348 3720.603516 2120.452393 0.414656 0.121180 0.901873
5275.489258 3463.725098 1917.216064 0.414656 0.121180 0.901873
5164.079102 3602.075684 1949.849854 0.414656 0.121180 0.901873
4610.120117 3742.071777 2145.300293 0.011973 -0.720189 0.693675
5208.167969 3414.472656 1794.856934 0.011973 -0.720189 0.693675
4758.381348 3720.603516 2120.452393 0.011973 -0.720189 0.693675
4489.195801 4122.178711 1987.474121 -0.418935 0.882286 0.214627
4567.089355 4123.433105 2134.359863 -0.418935 0.882286 0.214627
4771.056152 4252.179199 2003.238403 -0.418935 0.882286 0.214627
4675.377441 4154.448730 2130.569580 0.186660 0.706574 0.682576
5129.652832 4336.336914 1818.058594 0.186660 0.706574 0.682576
4771.056152 4252.179199 2003.238403 0.186660 0.706574 0.682576
7494.784180 1918.801636 2023.680908 -0.572655 -0.538411 0.618207
7438.650391 2069.913330 2103.290039 -0.572655 -0.538411 0.618207
7214.230957 2087.209961 1910.471069 -0.572655 -0.538411 0.618207
7736.996582 1970.707764 2111.662109 0.109591 0.406140 0.907216
6920.992676 2534.276123 1957.937988 0.109591 0.406140 0.907216
7438.650391 2069.913330 2103.290039 0.109591 0.406140 0.907216
6986.367676 2390.456299 1982.291992 -0.212145 0.068641 0.974825
7438.650391 2069.913330 2103.290039 -0.212145 0.068641 0.974825
6920.992676 2534.276123 1957.937988 -0.212145 0.068641 0.974825
7696.767090 1843.510132 1970.875244 -0.092200 -0.725602 0.681910
7736.996582 1970.707764 2111.662109 -0.092200 -0.725602 0.681910
7494.784180 1918.801636 2023.680908 -0.092200 -0.725602 0.681910
7821.025391 1877.214600 2026.716919 -0.111540 -0.721317 0.683565
7736.996582 1970.707764 2111.662109 -0.111540 -0.721317 0.683565
7696.767090 1843.510132 1970.875244 -0.111540 -0.721317 0.683565
7736.996582 1970.707764 2111.662109 0.509499 -0.281012 0.813292
7821.025391 1877.214600 2026.716919 0.509499 -0.281012 0.813292
7899.592285 1960.745728 2006.359497 0.509499 -0.281012 0.813292
7899.592285 1960.745728 2006.359497 0.474573 0.559043 0.679891
7797.485352 2115.972412 1949.995728 0.474573 0.559043 0.679891
7736.996582 1970.707764 2111.662109 0.474573 0.559043 0.679891
4589.520996 3893.619873 2178.428223 -0.899102 -0.029788 0.436724
4489.195801 4122.178711 1987.474121 -0.899102 -0.029788 0.436724
4517.908203 3738.593750 2020.421753 -0.899102 -0.029788 0.436724
4589.520996 3893.619873 2178.428223 -0.883470 0.003599 0.468474
4567.089355 4123.433105 2134.359863 -0.883470 0.003599 0.468474
4489.195801 4122.178711 1987.474121 -0.883470 0.003599 0.468474
7438.650391 2069.913330 2103.290039 -0.193944 -0.512675 0.836391
7494.784180 1918.801636 2023.680908 -0.193944 -0.512675 0.836391
7736.996582 1970.707764 2111.662109 -0.193944 -0.512675 0.836391
4758.381348 3720.603516 2120.452393 0.400739 0.055344 0.914519
5164.079102 3602.075684 1949.849854 0.400739 0.055344 0.914519
4675.377441 4154.448730 2130.569580 0.400739 0.055344 0.914519
4567.089355 4123.433105 2134.359863 -0.225868 0.847334 0.480633
4675.377441 4154.448730 2130.569580 -0.225868 0.847334 0.480633
4771.056152 4252.179199 2003.238403 -0.225868 0.847334 0.480633
4610.120117 3742.071777 2145.300293 -0.779178 -0.233099 0.581847
4589.520996 3893.619873 2178.428223 -0.779178 -0.233099 0.581847
4517.908203 3738.593750 2020.421753 -0.779178 -0.233099 0.581847
4758.381348 3720.603516 2120.452393 0.134745 -0.194092 0.971685
4589.520996 3893.619873 2178.428223 0.134745 -0.194092 0.971685
4610.120117 3742.071777 2145.300293 0.134745 -0.194092 0.971685
4758.381348 3720.603516 2120.452393 0.368810 0.048915 0.928217
4675.377441 4154.448730 2130.569580 0.368810 0.048915 0.928217
4589.520996 3893.619873 2178.428223 0.368810 0.048915 0.928217
4675.377441 4154.448730 2130.569580 -0.019035 0.186500 0.982271
4567.089355 4123.433105 2134.359863 -0.019035 0.186500 0.982271
4589.520996 3893.619873 2178.428223 -0.019035 0.186500 0.982271
4548.341309 3757.531006 9273.713867 -0.598882 -0.036787 -0.799992
4611.716309 4095.628174 9210.723633 -0.598882 -0.036787 -0.799992
4638.569336 3772.105225 9205.498047 -0.598882 -0.036787 -0.799992
4611.716309 4095.628174 9210.723633 -0.775343 0.027788 -0.630929
4548.341309 3757.531006 9273.713867 -0.775343 0.027788 -0.630929
4481.875488 4120.336914 9371.372070 -0.775343 0.027788 -0.630929
4638.569336 3772.105225 9205.498047 0.426595 0.049995 -0.903060
4611.716309 4095.628174 9210.723633 0.426595 0.049995 -0.903060
5013.374023 3605.260010 9373.314453 0.426595 0.049995 -0.903060
7717.828125 1977.602417 9274.143555 -0.078849 0.108026 -0.991016
7481.082031 1987.632690 9294.073242 -0.078849 0.108026 -0.991016
7188.931641 2278.657959 9349.041016 -0.078849 0.108026 -0.991016
4548.341309 3757.531006 9273.713867 -0.196326 -0.873124 -0.446219
4638.569336 3772.105225 9205.498047 -0.196326 -0.873124 -0.446219
4997.274414 3502.048828 9576.100586 -0.196326 -0.873124 -0.446219
4611.716309 4095.628174 9210.723633 -0.401068 0.799514 -0.447126
4481.875488 4120.336914 9371.372070 -0.401068 0.799514 -0.447126
4724.020020 4207.029785 9309.187500 -0.401068 0.799514 -0.447126
4548.341309 3757.531006 9273.713867 -0.263927 -0.893575 -0.363135
4997.274414 3502.048828 9576.100586 -0.263927 -0.893575 -0.363135
4574.568359 3702.173340 9390.872070 -0.263927 -0.893575 -0.363135
7859.963867 1906.361084 9324.911133 -0.089678 -0.690441 -0.717809
7481.082031 1987.632690 9294.073242 -0.089678 -0.690441 -0.717809
7717.828125 1977.602417 9274.143555 -0.089678 -0.690441 -0.717809
7717.828125 1977.602417 9274.143555 0.446610 0.287187 -0.847386
7876.317383 2016.592773 9370.888672 0.446610 0.287187 -0.847386
7859.963867 1906.361084 9324.911133 0.446610 0.287187 -0.847386
4997.274414 3502.048828 9576.100586 -0.182594 -0.870290 -0.457444
4638.569336 3772.105225 9205.498047 -0.182594 -0.870290 -0.457444
5013.374023 3605.260010 9373.314453 -0.182594 -0.870290 -0.457444
7859.963867 1906.361084 9324.911133 -0.088038 -0.684883 -0.723315
7735.148438 1839.715088 9403.208008 -0.088038 -0.684883 -0.723315
7481.082031 1987.632690 9294.073242 -0.088038 -0.684883 -0.723315
7876.317383 2016.592773 9370.888672 0.295412 0.614431 -0.731578
7717.828125 1977.602417 9274.143555 0.295412 0.614431 -0.731578
7571.100098 2310.768066 9494.710938 0.295412 0.614431 -0.731578
7717.828125 1977.602417 9274.143555 0.203013 0.557004 -0.805315
7188.931641 2278.657959 9349.041016 0.203013 0.557004 -0.805315
7300.068848 2632.882324 9622.060547 0.203013 0.557004 -0.805315
7571.100098 2310.768066 9494.710938 0.433434 0.622373 -0.651757
7717.828125 1977.602417 9274.143555 0.433434 0.622373 -0.651757
7300.068848 2632.882324 9622.060547 0.433434 0.622373 -0.651757
4488.625977 3881.347412 9383.227539 -0.898383 -0.047038 -0.436686
4481.875488 4120.336914 9371.372070 -0.898383 -0.047038 -0.436686
4548.341309 3757.531006 9273.713867 -0.898383 -0.047038 -0.436686
5081.765137 4319.506836 9520.826172 0.502789 0.128400 -0.854819
5013.374023 3605.260010 9373.314453 0.502789 0.128400 -0.854819
4611.716309 4095.628174 9210.723633 0.502789 0.128400 -0.854819
4724.020020 4207.029785 9309.187500 -0.374088 0.907361 -0.191714
4481.875488 4120.336914 9371.372070 -0.374088 0.907361 -0.191714
4670.617676 4234.098633 9541.504883 -0.374088 0.907361 -0.191714
7411.956055 1958.420166 9408.322266 -0.319922 -0.853296 -0.411748
7481.082031 1987.632690 9294.073242 -0.319922 -0.853296 -0.411748
7735.148438 1839.715088 9403.208008 -0.319922 -0.853296 -0.411748
7481.082031 1987.632690 9294.073242 -0.224757 -0.041751 -0.973520
6704.162598 2607.967529 9446.836914 -0.224757 -0.041751 -0.973520
7188.931641 2278.657959 9349.041016 -0.224757 -0.041751 -0.973520
4548.341309 3757.531006 9273.713867 -0.901598 -0.432568 -0.002558
4574.568359 3702.173340 9390.872070 -0.901598 -0.432568 -0.002558
4488.625977 3881.347412 9383.227539 -0.901598 -0.432568 -0.002558
4611.716309 4095.628174 9210.723633 0.389813 0.357236 -0.848780
4724.020020 4207.029785 9309.187500 0.389813 0.357236 -0.848780
5081.765137 4319.506836 9520.826172 0.389813 0.357236 -0.848780
7481.082031 1987.632690 9294.073242 -0.578254 -0.635008 -0.512237
7411.956055 1958.420166 9408.322266 -0.578254 -0.635008 -0.512237
6619.485352 2496.967285 9635.302734 -0.578254 -0.635008 -0.512237
6619.485352 2496.967285 9635.302734 -0.570840 -0.569213 -0.591725
6704.162598 2607.967529 9446.836914 -0.570840 -0.569213 -0.591725
7481.082031 1987.632690 9294.073242 -0.570840 -0.569213 -0.591725
5013.374023 3605.260010 9373.314453 0.376569 0.177553 -0.909214
5274.893555 3491.906982 9459.492188 0.376569 0.177553 -0.909214
5364.576660 3417.447754 9482.095703 0.376569 0.177553 -0.909214
7860.716797 1884.842896 9468.851562 0.397945 -0.907020 -0.137675
7735.148438 1839.715088 9403.208008 0.397945 -0.907020 -0.137675
7859.963867 1906.361084 9324.911133 0.397945 -0.907020 -0.137675
7876.317383 2016.592773 9370.888672 0.990343 -0.136266 -0.025551
7860.716797 1884.842896 9468.851562 0.990343 -0.136266 -0.025551
7859.963867 1906.361084 9324.911133 0.990343 -0.136266 -0.025551
5364.576660 3417.447754 9482.095703 -0.308323 -0.837672 -0.450825
4997.274414 3502.048828 9576.100586 -0.308323 -0.837672 -0.450825
5013.374023 3605.260010 9373.314453 -0.308323 -0.837672 -0.450825
4724.020020 4207.029785 9309.187500 -0.208482 0.964794 -0.160338
4670.617676 4234.098633 9541.504883 -0.208482 0.964794 -0.160338
5081.765137 4319.506836 9520.826172 -0.208482 0.964794 -0.160338
5364.576660 3417.447754 9482.095703 -0.133611 -0.229836 -0.964014
6064.536133 2958.217529 9494.570312 -0.133611 -0.229836 -0.964014
5782.122070 3102.089111 9499.411133 -0.133611 -0.229836 -0.964014
4803.151855 3638.309082 9551.103516 -0.539743 -0.677204 0.500072
4574.568359 3702.173340 9390.872070 -0.539743 -0.677204 0.500072
4997.274414 3502.048828 9576.100586 -0.539743 -0.677204 0.500072
4574.568359 3702.173340 9390.872070 -0.601821 -0.256399 0.756354
4803.151855 3638.309082 9551.103516 -0.601821 -0.256399 0.756354
4488.625977 3881.347412 9383.227539 -0.601821 -0.256399 0.756354
7860.716797 1884.842896 9468.851562 -0.052945 -0.772740 0.632510
7795.028320 1960.880127 9556.248047 -0.052945 -0.772740 0.632510
7735.148438 1839.715088 9403.208008 -0.052945 -0.772740 0.632510
7795.028320 1960.880127 9556.248047 -0.225377 -0.719012 0.657440
7561.003906 2121.096436 9651.243164 -0.225377 -0.719012 0.657440
7735.148438 1839.715088 9403.208008 -0.225377 -0.719012 0.657440
7860.716797 1884.842896 9468.851562 0.863605 0.230965 0.448153
7876.317383 2016.592773 9370.888672 0.863605 0.230965 0.448153
7795.028320 1960.880127 9556.248047 0.863605 0.230965 0.448153
7876.317383 2016.592773 9370.888672 0.741093 0.480130 0.469315
7545.080078 2280.900635 9623.544922 0.741093 0.480130 0.469315
7795.028320 1960.880127 9556.248047 0.741093 0.480130 0.469315
6064.536133 2958.217529 9494.570312 -0.417856 -0.681157 -0.601184
6704.162598 2607.967529 9446.836914 -0.417856 -0.681157 -0.601184
6359.767090 2660.901367 9626.235352 -0.417856 -0.681157 -0.601184
6064.536133 2958.217529 9494.570312 -0.379919 -0.726499 -0.572591
5714.832031 3027.771240 9638.352539 -0.379919 -0.726499 -0.572591
5782.122070 3102.089111 9499.411133 -0.379919 -0.726499 -0.572591
4481.875488 4120.336914 9371.372070 -0.675239 0.017507 0.737391
4488.625977 3881.347412 9383.227539 -0.675239 0.017507 0.737391
4670.617676 4234.098633 9541.504883 -0.675239 0.017507 0.737391
5081.765137 4319.506836 9520.826172 -0.208415 0.965517 -0.156016
4670.617676 4234.098633 9541.504883 -0.208415 0.965517 -0.156016
4999.879883 4333.408691 9716.246094 -0.208415 0.965517 -0.156016
7735.148438 1839.715088 9403.208008 -0.255576 -0.723474 0.641300
7561.003906 2121.096436 9651.243164 -0.255576 -0.723474 0.641300
7411.956055 1958.420166 9408.322266 -0.255576 -0.723474 0.641300
6619.485352 2496.967285 9635.302734 -0.414923 -0.690151 -0.592900
6359.767090 2660.901367 9626.235352 -0.414923 -0.690151 -0.592900
6704.162598 2607.967529 9446.836914 -0.414923 -0.690151 -0.592900
6704.162598 2607.967529 9446.836914 0.163398 0.494120 -0.853901
7100.716309 2917.802002 9702.008789 0.163398 0.494120 -0.853901
7188.931641 2278.657959 9349.041016 0.163398 0.494120 -0.853901
5782.122070 3102.089111 9499.411133 -0.423806 -0.598464 -0.679874
5316.144043 3339.642334 9580.775391 -0.423806 -0.598464 -0.679874
5364.576660 3417.447754 9482.095703 -0.423806 -0.598464 -0.679874
5316.144043 3339.642334 9580.775391 -0.325356 -0.658344 -0.678768
4997.274414 3502.048828 9576.100586 -0.325356 -0.658344 -0.678768
5364.576660 3417.447754 9482.095703 -0.325356 -0.658344 -0.678768
7545.080078 2280.900635 9623.544922 0.722500 0.627016 0.291280
7876.317383 2016.592773 9370.888672 0.722500 0.627016 0.291280
7571.100098 2310.768066 9494.710938 0.722500 0.627016 0.291280
7411.956055 1958.420166 9408.322266 -0.263512 -0.718969 0.643152
7561.003906 2121.096436 9651.243164 -0.263512 -0.718969 0.643152
6959.794922 2277.719482 9580.001953 -0.263512 -0.718969 0.643152
6619.485352 2496.967285 9635.302734 -0.498498 -0.833688 0.237620
7411.956055 1958.420166 9408.322266 -0.498498 -0.833688 0.237620
6959.794922 2277.719482 9580.001953 -0.498498 -0.833688 0.237620
7188.931641 2278.657959 9349.041016 0.380340 0.486774 -0.786380
7100.716309 2917.802002 9702.008789 0.380340 0.486774 -0.786380
7300.068848 2632.882324 9622.060547 0.380340 0.486774 -0.786380
6359.767090 2660.901367 9626.235352 -0.392520 -0.669187 -0.630965
5714.832031 3027.771240 9638.352539 -0.392520 -0.669187 -0.630965
6064.536133 2958.217529 9494.570312 -0.392520 -0.669187 -0.630965
5782.122070 3102.089111 9499.411133 -0.447972 -0.679866 -0.580606
5714.832031 3027.771240 9638.352539 -0.447972 -0.679866 -0.580606
5316.144043 3339.642334 9580.775391 -0.447972 -0.679866 -0.580606
6704.162598 2607.967529 9446.836914 0.191081 0.466642 -0.863558
6064.536133 2958.217529 9494.570312 0.191081 0.466642 -0.863558
7100.716309 2917.802002 9702.008789 0.191081 0.466642 -0.863558
5269.044434 3370.206787 9660.512695 -0.453491 -0.888297 0.072626
4997.274414 3502.048828 9576.100586 -0.453491 -0.888297 0.072626
5316.144043 3339.642334 9580.775391 -0.453491 -0.888297 0.072626
4488.625977 3881.347412 9383.227539 -0.529829 -0.104301 0.841667
4803.151855 3638.309082 9551.103516 -0.529829 -0.104301 0.841667
4670.617676 4234.098633 9541.504883 -0.529829 -0.104301 0.841667
7571.100098 2310.768066 9494.710938 0.785928 0.548283 0.285838
7300.068848 2632.882324 9622.060547 0.785928 0.548283 0.285838
7545.080078 2280.900635 9623.544922 0.785928 0.548283 0.285838
5889.870117 3767.690674 9725.671875 0.343526 0.131476 -0.929895
5364.576660 3417.447754 9482.095703 0.343526 0.131476 -0.929895
5274.893555 3491.906982 9459.492188 0.343526 0.131476 -0.929895
5013.374023 3605.260010 9373.314453 0.392664 0.149804 -0.907399
5081.765137 4319.506836 9520.826172 0.392664 0.149804 -0.907399
5652.112793 4318.404297 9767.454102 0.392664 0.149804 -0.907399
6054.977051 2826.462646 9687.337891 -0.492500 -0.861767 -0.121662
5714.832031 3027.771240 9638.352539 -0.492500 -0.861767 -0.121662
6359.767090 2660.901367 9626.235352 -0.492500 -0.861767 -0.121662
6064.536133 2958.217529 9494.570312 0.220851 0.311516 -0.924220
5364.576660 3417.447754 9482.095703 0.220851 0.311516 -0.924220
5889.870117 3767.690674 9725.671875 0.220851 0.311516 -0.924220
7795.028320 1960.880127 9556.248047 0.481064 0.196041 0.854485
7545.080078 2280.900635 9623.544922 0.481064 0.196041 0.854485
7561.003906 2121.096436 9651.243164 0.481064 0.196041 0.854485
5316.144043 3339.642334 9580.775391 -0.609965 -0.790351 -0.057344
5714.832031 3027.771240 9638.352539 -0.609965 -0.790351 -0.057344
5269.044434 3370.206787 9660.512695 -0.609965 -0.790351 -0.057344
7100.716309 2917.802002 9702.008789 0.196801 0.355197 -0.913841
6064.536133 2958.217529 9494.570312 0.196801 0.355197 -0.913841
7051.624023 3260.468262 9824.625977 0.196801 0.355197 -0.913841
5889.870117 3767.690674 9725.671875 0.310210 0.204366 -0.928442
5274.893555 3491.906982 9459.492188 0.310210 0.204366 -0.928442
5652.112793 4318.404297 9767.454102 0.310210 0.204366 -0.928442
5274.893555 3491.906982 9459.492188 0.373835 0.169176 -0.911936
5013.374023 3605.260010 9373.314453 0.373835 0.169176 -0.911936
5652.112793 4318.404297 9767.454102 0.373835 0.169176 -0.911936
5081.765137 4319.506836 9520.826172 -0.001763 0.997425 -0.071694
4999.879883 4333.408691 9716.246094 -0.001763 0.997425 -0.071694
5845.292969 4345.577148 9864.742188 -0.001763 0.997425 -0.071694
6203.654785 2850.280029 9788.500977 -0.246886 -0.602443 0.759019
6959.794922 2277.719482 9580.001953 -0.246886 -0.602443 0.759019
7561.003906 2121.096436 9651.243164 -0.246886 -0.602443 0.759019
6054.977051 2826.462646 9687.337891 -0.518572 -0.808542 0.278106
5610.576172 3114.186768 9695.188477 -0.518572 -0.808542 0.278106
5714.832031 3027.771240 9638.352539 -0.518572 -0.808542 0.278106
5714.832031 3027.771240 9638.352539 -0.603265 -0.791618 0.097019
5610.576172 3114.186768 9695.188477 -0.603265 -0.791618 0.097019
5269.044434 3370.206787 9660.512695 -0.603265 -0.791618 0.097019
5889.870117 3767.690674 9725.671875 0.214506 0.310656 -0.926002
7051.624023 3260.468262 9824.625977 0.214506 0.310656 -0.926002
6064.536133 2958.217529 9494.570312 0.214506 0.310656 -0.926002
5269.044434 3370.206787 9660.512695 -0.481733 -0.563123 0.671435
4803.151855 3638.309082 9551.103516 -0.481733 -0.563123 0.671435
4997.274414 3502.048828 9576.100586 -0.481733 -0.563123 0.671435
6619.485352 2496.967285 9635.302734 -0.323067 -0.670031 0.668346
6959.794922 2277.719482 9580.001953 -0.323067 -0.670031 0.668346
6203.654785 2850.280029 9788.500977 -0.323067 -0.670031 0.668346
6054.977051 2826.462646 9687.337891 -0.501074 -0.810606 -0.303054
6359.767090 2660.901367 9626.235352 -0.501074 -0.810606 -0.303054
6619.485352 2496.967285 9635.302734 -0.501074 -0.810606 -0.303054
4670.617676 4234.098633 9541.504883 -0.507408 -0.099083 0.855990
4803.151855 3638.309082 9551.103516 -0.507408 -0.099083 0.855990
5355.303223 4116.044922 9933.703125 -0.507408 -0.099083 0.855990
7545.080078 2280.900635 9623.544922 0.685793 0.479682 0.547351
7300.068848 2632.882324 9622.060547 0.685793 0.479682 0.547351
7284.678711 2456.147461 9796.228516 0.685793 0.479682 0.547351
6203.654785 2850.280029 9788.500977 -0.335828 -0.678531 0.653311
6054.977051 2826.462646 9687.337891 -0.335828 -0.678531 0.653311
6619.485352 2496.967285 9635.302734 -0.335828 -0.678531 0.653311
7561.003906 2121.096436 9651.243164 0.629239 0.193184 0.752820
7545.080078 2280.900635 9623.544922 0.629239 0.193184 0.752820
7284.678711 2456.147461 9796.228516 0.629239 0.193184 0.752820
7100.716309 2917.802002 9702.008789 0.829339 0.539992 0.143547
7101.968262 2885.750000 9815.348633 0.829339 0.539992 0.143547
7300.068848 2632.882324 9622.060547 0.829339 0.539992 0.143547
5630.672852 3663.289062 9941.715820 -0.393876 -0.335185 0.855870
4803.151855 3638.309082 9551.103516 -0.393876 -0.335185 0.855870
5269.044434 3370.206787 9660.512695 -0.393876 -0.335185 0.855870
5845.292969 4345.577148 9864.742188 -0.011282 0.999780 -0.017696
4999.879883 4333.408691 9716.246094 -0.011282 0.999780 -0.017696
5468.393066 4343.234863 9972.700195 -0.011282 0.999780 -0.017696
7101.968262 2885.750000 9815.348633 0.842149 0.339521 0.418940
7284.678711 2456.147461 9796.228516 0.842149 0.339521 0.418940
7300.068848 2632.882324 9622.060547 0.842149 0.339521 0.418940
6203.654785 2850.280029 9788.500977 -0.379367 -0.605047 0.699999
5610.576172 3114.186768 9695.188477 -0.379367 -0.605047 0.699999
6054.977051 2826.462646 9687.337891 -0.379367 -0.605047 0.699999
5630.672852 3663.289062 9941.715820 -0.364339 -0.370297 0.854481
5269.044434 3370.206787 9660.512695 -0.364339 -0.370297 0.854481
5610.576172 3114.186768 9695.188477 -0.364339 -0.370297 0.854481
5652.112793 4318.404297 9767.454102 0.361514 0.416497 -0.834169
5081.765137 4319.506836 9520.826172 0.361514 0.416497 -0.834169
5845.292969 4345.577148 9864.742188 0.361514 0.416497 -0.834169
6203.654785 2850.280029 9788.500977 -0.241211 -0.593534 0.767812
7561.003906 2121.096436 9651.243164 -0.241211 -0.593534 0.767812
7150.862793 2544.941895 9850.037109 -0.241211 -0.593534 0.767812
5889.870117 3767.690674 9725.671875 0.179184 0.223493 -0.958094
6371.869141 4156.422852 9906.495117 0.179184 0.223493 -0.958094
7051.624023 3260.468262 9824.625977 0.179184 0.223493 -0.958094
6371.869141 4156.422852 9906.495117 0.223534 0.169331 -0.959875
5889.870117 3767.690674 9725.671875 0.223534 0.169331 -0.959875
5652.112793 4318.404297 9767.454102 0.223534 0.169331 -0.959875
4999.879883 4333.408691 9716.246094 -0.485480 0.077357 0.870819
4670.617676 4234.098633 9541.504883 -0.485480 0.077357 0.870819
5355.303223 4116.044922 9933.703125 -0.485480 0.077357 0.870819
7150.862793 2544.941895 9850.037109 0.240559 -0.211529 0.947305
7561.003906 2121.096436 9651.243164 0.240559 -0.211529 0.947305
7284.678711 2456.147461 9796.228516 0.240559 -0.211529 0.947305
7100.716309 2917.802002 9702.008789 0.990833 0.132464 0.026516
7051.624023 3260.468262 9824.625977 0.990833 0.132464 0.026516
7101.968262 2885.750000 9815.348633 0.990833 0.132464 0.026516
5652.112793 4318.404297 9767.454102 0.281102 0.621047 -0.731630
5845.292969 4345.577148 9864.742188 0.281102 0.621047 -0.731630
6371.869141 4156.422852 9906.495117 0.281102 0.621047 -0.731630
7051.624023 3260.468262 9824.625977 0.905277 0.111477 0.409935
7037.912598 2906.887207 9951.057617 0.905277 0.111477 0.409935
7101.968262 2885.750000 9815.348633 0.905277 0.111477 0.409935
4803.151855 3638.309082 9551.103516 -0.409310 -0.233335 0.882054
5630.672852 3663.289062 9941.715820 -0.409310 -0.233335 0.882054
5355.303223 4116.044922 9933.703125 -0.409310 -0.233335 0.882054
6979.033691 2849.821045 9989.499023 -0.216932 -0.504536 0.835694
6203.654785 2850.280029 9788.500977 -0.216932 -0.504536 0.835694
7150.862793 2544.941895 9850.037109 -0.216932 -0.504536 0.835694
7101.968262 2885.750000 9815.348633 0.866233 0.352657 0.353941
7037.912598 2906.887207 9951.057617 0.866233 0.352657 0.353941
7284.678711 2456.147461 9796.228516 0.866233 0.352657 0.353941
5610.576172 3114.186768 9695.188477 -0.306584 -0.380494 0.872485
6203.654785 2850.280029 9788.500977 -0.306584 -0.380494 0.872485
5630.672852 3663.289062 9941.715820 -0.306584 -0.380494 0.872485
7051.624023 3260.468262 9824.625977 0.257714 0.264438 -0.929331
6953.104004 3815.213379 9955.156250 0.257714 0.264438 -0.929331
7061.597656 3744.100586 9965.007812 0.257714 0.264438 -0.929331
7051.624023 3260.468262 9824.625977 0.232032 0.261648 -0.936857
6371.869141 4156.422852 9906.495117 0.232032 0.261648 -0.936857
6953.104004 3815.213379 9955.156250 0.232032 0.261648 -0.936857
5355.303223 4116.044922 9933.703125 -0.479684 0.088939 0.872922
5468.393066 4343.234863 9972.700195 -0.479684 0.088939 0.872922
4999.879883 4333.408691 9716.246094 -0.479684 0.088939 0.872922
7284.678711 2456.147461 9796.228516 0.146156 -0.342210 0.928187
6979.033691 2849.821045 9989.499023 0.146156 -0.342210 0.928187
7150.862793 2544.941895 9850.037109 0.146156 -0.342210 0.928187
7284.678711 2456.147461 9796.228516 0.541460 0.007655 0.840692
7037.912598 2906.887207 9951.057617 0.541460 0.007655 0.840692
6979.033691 2849.821045 9989.499023 0.541460 0.007655 0.840692
5845.292969 4345.577148 9864.742188 0.337883 0.941185 0.002589
5953.001953 4306.331543 10074.976562 0.337883 0.941185 0.002589
6371.869141 4156.422852 9906.495117 0.337883 0.941185 0.002589
7051.624023 3260.468262 9824.625977 0.993983 -0.048941 0.097988
7061.597656 3744.100586 9965.007812 0.993983 -0.048941 0.097988
7035.063965 3701.294678 10212.783203 0.993983 -0.048941 0.097988
6371.869141 4156.422852 9906.495117 0.498901 0.862274 0.087075
6699.520508 3937.168701 10200.395508 0.498901 0.862274 0.087075
6953.104004 3815.213379 9955.156250 0.498901 0.862274 0.087075
7037.912598 2906.887207 9951.057617 0.997965 -0.016696 0.061537
7051.624023 3260.468262 9824.625977 0.997965 -0.016696 0.061537
7035.063965 3701.294678 10212.783203 0.997965 -0.016696 0.061537
6699.520508 3937.168701 10200.395508 0.534207 0.834079 0.137603
7061.597656 3744.100586 9965.007812 0.534207 0.834079 0.137603
6953.104004 3815.213379 9955.156250 0.534207 0.834079 0.137603
6699.520508 3937.168701 10200.395508 0.457604 0.877358 0.144367
6371.869141 4156.422852 9906.495117 0.457604 0.877358 0.144367
6265.613281 4170.056641 10160.440430 0.457604 0.877358 0.144367
5845.292969 4345.577148 9864.742188 0.040622 0.985756 0.163205
5468.393066 4343.234863 9972.700195 0.040622 0.985756 0.163205
5953.001953 4306.331543 10074.976562 0.040622 0.985756 0.163205
7037.912598 2906.887207 9951.057617 0.686770 -0.248428 0.683103
6992.165527 3555.574463 10232.961914 0.686770 -0.248428 0.683103
6979.033691 2849.821045 9989.499023 0.686770 -0.248428 0.683103
7035.063965 3701.294678 10212.783203 0.831023 -0.171365 0.529184
6992.165527 3555.574463 10232.961914 0.831023 -0.171365 0.529184
7037.912598 2906.887207 9951.057617 0.831023 -0.171365 0.529184
5355.303223 4116.044922 9933.703125 -0.274073 -0.149881 0.949958
5630.672852 3663.289062 9941.715820 -0.274073 -0.149881 0.949958
5926.811035 4254.992188 10120.511719 -0.274073 -0.149881 0.949958
6203.654785 2850.280029 9788.500977 -0.238519 -0.312729 0.919407
6979.033691 2849.821045 9989.499023 -0.238519 -0.312729 0.919407
6992.165527 3555.574463 10232.961914 -0.238519 -0.312729 0.919407
6992.165527 3555.574463 10232.961914 -0.222358 -0.329627 0.917553
5630.672852 3663.289062 9941.715820 -0.222358 -0.329627 0.917553
6203.654785 2850.280029 9788.500977 -0.222358 -0.329627 0.917553
5953.001953 4306.331543 10074.976562 -0.099289 0.688143 0.718749
5468.393066 4343.234863 9972.700195 -0.099289 0.688143 0.718749
5926.811035 4254.992188 10120.511719 -0.099289 0.688143 0.718749
6699.520508 3937.168701 10200.395508 0.558667 0.805182 0.198930
7035.063965 3701.294678 10212.783203 0.558667 0.805182 0.198930
7061.597656 3744.100586 9965.007812 0.558667 0.805182 0.198930
6371.869141 4156.422852 9906.495117 0.372733 0.921811 0.106469
5953.001953 4306.331543 10074.976562 0.372733 0.921811 0.106469
6265.613281 4170.056641 10160.440430 0.372733 0.921811 0.106469
5926.811035 4254.992188 10120.511719 -0.308552 -0.009676 0.951158
5468.393066 4343.234863 9972.700195 -0.308552 -0.009676 0.951158
5355.303223 4116.044922 9933.703125 -0.308552 -0.009676 0.951158
5926.811035 4254.992188 10120.511719 -0.221137 -0.179008 0.958673
5630.672852 3663.289062 9941.715820 -0.221137 -0.179008 0.958673
6773.755859 3809.361084 10232.666016 -0.221137 -0.179008 0.958673
5926.811035 4254.992188 10120.511719 0.070776 0.641435 0.763905
6265.613281 4170.056641 10160.440430 0.070776 0.641435 0.763905
5953.001953 4306.331543 10074.976562 0.070776 0.641435 0.763905
6265.613281 4170.056641 10160.440430 -0.103882 0.052531 0.993201
5926.811035 4254.992188 10120.511719 -0.103882 0.052531 0.993201
6773.755859 3809.361084 10232.666016 -0.103882 0.052531 0.993201
6773.755859 3809.361084 10232.666016 -0.219651 -0.187917 0.957309
5630.672852 3663.289062 9941.715820 -0.219651 -0.187917 0.957309
6992.165527 3555.574463 10232.961914 -0.219651 -0.187917 0.957309
6699.520508 3937.168701 10200.395508 0.060517 0.277262 0.958886
6265.613281 4170.056641 10160.440430 0.060517 0.277262 0.958886
6773.755859 3809.361084 10232.666016 0.060517 0.277262 0.958886
7035.063965 3701.294678 10212.783203 0.216077 0.355147 0.909495
6699.520508 3937.168701 10200.395508 0.216077 0.355147 0.909495
6773.755859 3809.361084 10232.666016 0.216077 0.355147 0.909495
7035.063965 3701.294678 10212.783203 0.117434 0.102216 0.987806
6773.755859 3809.361084 10232.666016 0.117434 0.102216 0.987806
6992.165527 3555.574463 10232.961914 0.117434 0.102216 0.987806
3 0 1 2
3 3 4 5
3 6 7 8
3 9 10 11
3 12 13 14
3 15 16 17
3 18 19 20
3 21 22 23
3 24 25 26
3 27 28 29
3 30 31 32
3 33 34 35
3 36 37 38
3 39 40 41
3 42 43 44
3 45 46 47
3 48 49 50
3 51 52 53
3 54 55 56
3 57 58 59
3 60 61 62
3 63 64 65
3 66 67 68
3 69 70 71
3 72 73 74
3 75 76 77
3 78 79 80
3 81 82 83
3 84 85 86
3 87 88 89
3 90 91 92
3 93 94 95
3 96 97 98
3 99 100 101
3 102 103 104
3 105 106 107
3 108 109 110
3 111 112 113
3 114 115 116
3 117 118 119
3 120 121 122
3 123 124 125
3 126 127 128
3 129 130 131
3 132 133 134
3 135 136 137
3 138 139 140
3 141 142 143
3 144 145 146
3 147 148 149
3 150 151 152
3 153 154 155
3 156 157 158
3 159 160 161
3 162 163 164
3 165 166 167
3 168 169 170
3 171 172 173
3 174 175 176
3 177 178 179
3 180 181 182
3 183 184 185
3 186 187 188
3 189 190 191
3 192 193 194
3 195 196 197
3 198 199 200
3 201 202 203
3 204 205 206
3 207 208 209
3 210 211 212
3 213 214 215
3 216 217 218
3 219 220 221
3 222 223 224
3 225 226 227
3 228 229 230
3 231 232 233
3 234 235 236
3 237 238 239
3 240 241 242
3 243 244 245
3 246 247 248
3 249 250 251
3 252 253 254
3 255 256 257
3 258 259 260
3 261 262 263
3 264 265 266
3 267 268 269
3 270 271 272
3 273 274 275
3 276 277 278
3 279 280 281
3 282 283 284
3 285 286 287
3 288 289 290
3 291 292 293
3 294 295 296
3 297 298 299
3 300 301 302
3 303 304 305
3 306 307 308
3 309 310 311
3 312 313 314
3 315 316 317
3 318 319 320
3 321 322 323
3 324 325 326
3 327 328 329
3 330 331 332
3 333 334 335
3 336 337 338
3 339 340 341
3 342 343 344
3 345 346 347
3 348 349 350
3 351 352 353
3 354 355 356
3 357 358 359
3 360 361 362
3 363 364 365
3 366 367 368
3 369 370 371
3 372 373 374
3 375 376 377
3 378 379 380
3 381 382 383
3 384 385 386
3 387 388 389
3 390 391 392
3 393 394 395
3 396 397 398
3 399 400 401
3 402 403 404
3 405 406 407
3 408 409 410
3 411 412 413
3 414 415 416
3 417 418 419
3 420 421 422
3 423 424 425
3 426 427 428
3 429 430 431
3 432 433 434
3 435 436 437
3 438 439 440
3 441 442 443
3 444 445 446
3 447 448 449
3 450 451 452
3 453 454 455
3 456 457 458
3 459 460 461
3 462 463 464
3 465 466 467
3 468 469 470
3 471 472 473
3 474 475 476
3 477 478 479
3 480 481 482
3 483 484 485
3 486 487 488
3 489 490 491
3 492 493 494
3 495 496 497
3 498 499 500
3 501 502 503
3 504 505 506
3 507 508 509
3 510 511 512
3 513 514 515
3 516 517 518
3 519 520 521
3 522 523 524
3 525 526 527
3 528 529 530
3 531 532 533
3 534 535 536
3 537 538 539
3 540 541 542
3 543 544 545
3 546 547 548
3 549 550 551
3 552 553 554
3 555 556 557
3 558 559 560
3 561 562 563
3 564 565 566
3 567 568 569
3 570 571 572
3 573 574 575
3 576 577 578
3 579 580 581
3 582 583 584
3 585 586 587
3 588 589 590
3 591 592 593
3 594 595 596
3 597 598 599
3 600 601 602
3 603 604 605
3 606 607 608
3 609 610 611
3 612 613 614
3 615 616 617
3 618 619 620
3 621 622 623
3 624 625 626
3 627 628 629
3 630 631 632
3 633 634 635
3 636 637 638
3 639 640 641
3 642 643 644
3 645 646 647
3 648 649 650
3 651 652 653
3 654 655 656
3 657 658 659
3 660 661 662
3 663 664 665
3 666 667 668
3 669 670 671
3 672 673 674
3 675 676 677
3 678 679 680
3 681 682 683
3 684 685 686
3 687 688 689
3 690 691 692
3 693 694 695
3 696 697 698
3 699 700 701
3 702 703 704
3 705 706 707
3 708 709 710
3 711 712 713
