ply
format ascii 1.0
comment Created by Blender 2.80 (sub 75) - www.blender.org, source file: 'downsample_ccf.blend'
element vertex 30
property float x
property float y
property float z
property float nx
property float ny
property float nz
element face 10
property list uchar uint vertex_indices
end_header
9402.435547 3578.302002 5213.109375 -0.459108 -0.333551 -0.823386
9075.612305 3462.150146 5442.394043 -0.459108 -0.333551 -0.823386
9227.523438 3614.425293 5296.004395 -0.459108 -0.333551 -0.823386
9402.435547 3578.302002 5213.109375 0.062824 -0.923547 -0.378304
9354.260742 3436.272949 5551.842285 0.062824 -0.923547 -0.378304
9075.612305 3462.150146 5442.394043 0.062824 -0.923547 -0.378304
9354.260742 3436.272949 5551.842285 0.364611 0.839104 0.403687
9402.435547 3578.302002 5213.109375 0.364611 0.839104 0.403687
9227.523438 3614.425293 5296.004395 0.364611 0.839104 0.403687
9227.523438 3614.425293 5296.004395 -0.171905 0.766449 0.618874
9075.612305 3462.150146 5442.394043 -0.171905 0.766449 0.618874
9354.260742 3436.272949 5551.842285 -0.171905 0.766449 0.618874
9328.783203 3454.050049 5785.894043 0.359824 -0.928611 0.090595
9440.619141 3522.554199 6043.882324 0.359824 -0.928611 0.090595
9153.145508 3391.585205 5843.216309 0.359824 -0.928611 0.090595
9328.783203 3454.050049 5785.894043 -0.431313 0.574035 -0.696027
9153.145508 3391.585205 5843.216309 -0.431313 0.574035 -0.696027
9108.171875 3558.171631 6008.474609 -0.431313 0.574035 -0.696027
9153.145508 3391.585205 5843.216309 -0.387089 -0.699932 0.600214
9301.619141 3567.154785 6143.708008 -0.387089 -0.699932 0.600214
9108.171875 3558.171631 6008.474609 -0.387089 -0.699932 0.600214
9301.619141 3567.154785 6143.708008 0.063775 -0.875073 0.479771
9153.145508 3391.585205 5843.216309 0.063775 -0.875073 0.479771
9440.619141 3522.554199 6043.882324 0.063775 -0.875073 0.479771
9328.783203 3454.050049 5785.894043 0.156640 0.945083 -0.286848
9108.171875 3558.171631 6008.474609 0.156640 0.945083 -0.286848
9301.619141 3567.154785 6143.708008 0.156640 0.945083 -0.286848
9440.619141 3522.554199 6043.882324 0.094430 0.951275 -0.293529
9328.783203 3454.050049 5785.894043 0.094430 0.951275 -0.293529
9301.619141 3567.154785 6143.708008 0.094430 0.951275 -0.293529
3 0 1 2
3 3 4 5
3 6 7 8
3 9 10 11
3 12 13 14
3 15 16 17
3 18 19 20
3 21 22 23
3 24 25 26
3 27 28 29
