ply
format ascii 1.0
comment Created by Blender 2.80 (sub 75) - www.blender.org, source file: 'downsample_ccf.blend'
element vertex 285
property float x
property float y
property float z
property float nx
property float ny
property float nz
element face 95
property list uchar uint vertex_indices
end_header
8522.414062 3543.468262 817.897949 0.066174 0.187137 -0.980102
8025.566895 3778.085449 829.149048 0.066174 0.187137 -0.980102
8404.693359 3948.978271 887.376343 0.066174 0.187137 -0.980102
8260.175781 3650.920410 862.054932 -0.381467 -0.668705 -0.638213
8522.414062 3543.468262 817.897949 -0.381467 -0.668705 -0.638213
8642.308594 3404.118652 892.242920 -0.381467 -0.668705 -0.638213
7750.189941 3798.353027 919.208801 -0.291374 -0.580581 -0.760281
8025.566895 3778.085449 829.149048 -0.291374 -0.580581 -0.760281
8522.414062 3543.468262 817.897949 -0.291374 -0.580581 -0.760281
8522.414062 3543.468262 817.897949 0.219256 0.226260 -0.949070
8404.693359 3948.978271 887.376343 0.219256 0.226260 -0.949070
8786.221680 3680.566162 911.527893 0.219256 0.226260 -0.949070
8940.467773 3241.373779 922.718689 0.296313 0.079815 -0.951750
8522.414062 3543.468262 817.897949 0.296313 0.079815 -0.951750
8786.221680 3680.566162 911.527893 0.296313 0.079815 -0.951750
7750.189941 3798.353027 919.208801 -0.020710 -0.422845 0.905965
8522.414062 3543.468262 817.897949 -0.020710 -0.422845 0.905965
8260.175781 3650.920410 862.054932 -0.020710 -0.422845 0.905965
8807.007812 3182.745117 970.431396 -0.770841 -0.397747 0.497595
8642.308594 3404.118652 892.242920 -0.770841 -0.397747 0.497595
8522.414062 3543.468262 817.897949 -0.770841 -0.397747 0.497595
7060.644531 3749.116699 1014.359070 -0.080092 -0.832931 -0.547550
7101.671875 3799.025635 932.436523 -0.080092 -0.832931 -0.547550
8025.566895 3778.085449 829.149048 -0.080092 -0.832931 -0.547550
8025.566895 3778.085449 829.149048 0.006296 0.309967 -0.950726
7694.200195 4198.775391 964.112854 0.006296 0.309967 -0.950726
8404.693359 3948.978271 887.376343 0.006296 0.309967 -0.950726
8940.467773 3241.373779 922.718689 -0.112282 -0.460845 -0.880349
8807.007812 3182.745117 970.431396 -0.112282 -0.460845 -0.880349
8522.414062 3543.468262 817.897949 -0.112282 -0.460845 -0.880349
7060.644531 3749.116699 1014.359070 0.139268 -0.785745 0.602669
8025.566895 3778.085449 829.149048 0.139268 -0.785745 0.602669
7750.189941 3798.353027 919.208801 0.139268 -0.785745 0.602669
8025.566895 3778.085449 829.149048 -0.107213 0.130996 -0.985569
7101.671875 3799.025635 932.436523 -0.107213 0.130996 -0.985569
7013.946289 4300.517090 1008.635132 -0.107213 0.130996 -0.985569
7694.200195 4198.775391 964.112854 -0.018934 0.291873 -0.956270
8025.566895 3778.085449 829.149048 -0.018934 0.291873 -0.956270
7013.946289 4300.517090 1008.635132 -0.018934 0.291873 -0.956270
8940.467773 3241.373779 922.718689 0.333423 0.093195 -0.938160
8786.221680 3680.566162 911.527893 0.333423 0.093195 -0.938160
9078.580078 3445.051758 992.036804 0.333423 0.093195 -0.938160
8642.308594 3404.118652 892.242920 -0.092421 -0.021333 0.995492
8786.221680 3680.566162 911.527893 -0.092421 -0.021333 0.995492
8260.175781 3650.920410 862.054932 -0.092421 -0.021333 0.995492
8807.007812 3182.745117 970.431396 -0.155216 -0.386528 -0.909123
8940.467773 3241.373779 922.718689 -0.155216 -0.386528 -0.909123
8852.846680 2722.777588 1158.167725 -0.155216 -0.386528 -0.909123
8404.693359 3948.978271 887.376343 0.075965 -0.120917 0.989752
7750.189941 3798.353027 919.208801 0.075965 -0.120917 0.989752
8260.175781 3650.920410 862.054932 0.075965 -0.120917 0.989752
8786.221680 3680.566162 911.527893 -0.091309 -0.040258 0.995009
8404.693359 3948.978271 887.376343 -0.091309 -0.040258 0.995009
8260.175781 3650.920410 862.054932 -0.091309 -0.040258 0.995009
8807.007812 3182.745117 970.431396 -0.315654 0.098487 0.943749
8786.221680 3680.566162 911.527893 -0.315654 0.098487 0.943749
8642.308594 3404.118652 892.242920 -0.315654 0.098487 0.943749
7060.644531 3749.116699 1014.359070 0.134466 -0.826356 0.546860
7750.189941 3798.353027 919.208801 0.134466 -0.826356 0.546860
7279.561035 3788.365479 1019.838684 0.134466 -0.826356 0.546860
7013.946289 4300.517090 1008.635132 -0.871304 -0.078819 -0.484373
7101.671875 3799.025635 932.436523 -0.871304 -0.078819 -0.484373
7060.644531 3749.116699 1014.359070 -0.871304 -0.078819 -0.484373
7013.946289 4300.517090 1008.635132 -0.006864 0.362018 -0.932146
7145.799316 4365.007812 1032.710571 -0.006864 0.362018 -0.932146
7694.200195 4198.775391 964.112854 -0.006864 0.362018 -0.932146
9078.580078 3445.051758 992.036804 0.515504 -0.058616 -0.854880
9298.421875 3166.905762 1143.676025 0.515504 -0.058616 -0.854880
8940.467773 3241.373779 922.718689 0.515504 -0.058616 -0.854880
8404.693359 3948.978271 887.376343 0.071566 -0.101269 0.992282
7694.200195 4198.775391 964.112854 0.071566 -0.101269 0.992282
7750.189941 3798.353027 919.208801 0.071566 -0.101269 0.992282
7279.561035 3788.365479 1019.838684 0.210046 -0.079903 0.974421
7750.189941 3798.353027 919.208801 0.210046 -0.079903 0.974421
7694.200195 4198.775391 964.112854 0.210046 -0.079903 0.974421
8852.846680 2722.777588 1158.167725 -0.818663 -0.285061 -0.498529
8812.626953 2733.825684 1217.897461 -0.818663 -0.285061 -0.498529
8807.007812 3182.745117 970.431396 -0.818663 -0.285061 -0.498529
8940.467773 3241.373779 922.718689 0.273524 -0.435571 -0.857591
9181.667969 2628.882568 1310.732788 0.273524 -0.435571 -0.857591
8852.846680 2722.777588 1158.167725 0.273524 -0.435571 -0.857591
8940.467773 3241.373779 922.718689 0.437573 -0.351886 -0.827470
9298.421875 3166.905762 1143.676025 0.437573 -0.351886 -0.827470
9181.667969 2628.882568 1310.732788 0.437573 -0.351886 -0.827470
8786.221680 3680.566162 911.527893 -0.182103 0.108036 0.977326
8807.007812 3182.745117 970.431396 -0.182103 0.108036 0.977326
9078.580078 3445.051758 992.036804 -0.182103 0.108036 0.977326
7279.561035 3788.365479 1019.838684 0.190106 -0.059001 0.979989
7694.200195 4198.775391 964.112854 0.190106 -0.059001 0.979989
7140.671875 3877.432861 1052.143799 0.190106 -0.059001 0.979989
7060.644531 3749.116699 1014.359070 -0.979270 -0.081007 0.185654
7050.840332 3922.161377 1038.150391 -0.979270 -0.081007 0.185654
7013.946289 4300.517090 1008.635132 -0.979270 -0.081007 0.185654
7694.200195 4198.775391 964.112854 0.135374 0.038037 0.990064
7145.799316 4365.007812 1032.710571 0.135374 0.038037 0.990064
7140.671875 3877.432861 1052.143799 0.135374 0.038037 0.990064
7060.644531 3749.116699 1014.359070 -0.000374 -0.136226 0.990678
7279.561035 3788.365479 1019.838684 -0.000374 -0.136226 0.990678
7050.840332 3922.161377 1038.150391 -0.000374 -0.136226 0.990678
7140.671875 3877.432861 1052.143799 -0.133889 0.040872 0.990153
7145.799316 4365.007812 1032.710571 -0.133889 0.040872 0.990153
7050.840332 3922.161377 1038.150391 -0.133889 0.040872 0.990153
7050.840332 3922.161377 1038.150391 -0.205847 0.056140 0.976972
7145.799316 4365.007812 1032.710571 -0.205847 0.056140 0.976972
7013.946289 4300.517090 1008.635132 -0.205847 0.056140 0.976972
9078.580078 3445.051758 992.036804 -0.405877 0.350699 0.843963
8807.007812 3182.745117 970.431396 -0.405877 0.350699 0.843963
9172.838867 2784.790771 1311.731201 -0.405877 0.350699 0.843963
9172.838867 2784.790771 1311.731201 -0.284214 0.460118 0.841138
8807.007812 3182.745117 970.431396 -0.284214 0.460118 0.841138
8812.626953 2733.825684 1217.897461 -0.284214 0.460118 0.841138
9078.580078 3445.051758 992.036804 -0.084891 0.424380 0.901496
9172.838867 2784.790771 1311.731201 -0.084891 0.424380 0.901496
9298.421875 3166.905762 1143.676025 -0.084891 0.424380 0.901496
8633.266602 2245.186279 1456.462524 -0.826631 0.029045 -0.561994
8812.626953 2733.825684 1217.897461 -0.826631 0.029045 -0.561994
8852.846680 2722.777588 1158.167725 -0.826631 0.029045 -0.561994
9181.667969 2628.882568 1310.732788 0.195465 -0.589263 -0.783941
8911.502930 2162.770996 1593.731567 0.195465 -0.589263 -0.783941
8852.846680 2722.777588 1158.167725 0.195465 -0.589263 -0.783941
9105.249023 2310.318359 1573.910645 0.979043 -0.198968 0.043443
9181.667969 2628.882568 1310.732788 0.979043 -0.198968 0.043443
9298.421875 3166.905762 1143.676025 0.979043 -0.198968 0.043443
8911.502930 2162.770996 1593.731567 0.212231 -0.586010 -0.782017
8633.266602 2245.186279 1456.462524 0.212231 -0.586010 -0.782017
8852.846680 2722.777588 1158.167725 0.212231 -0.586010 -0.782017
8812.626953 2733.825684 1217.897461 -0.281622 0.571845 0.770508
8732.293945 2131.239258 1635.755005 -0.281622 0.571845 0.770508
9172.838867 2784.790771 1311.731201 -0.281622 0.571845 0.770508
9172.838867 2784.790771 1311.731201 -0.454589 0.479520 0.750606
9105.249023 2310.318359 1573.910645 -0.454589 0.479520 0.750606
9298.421875 3166.905762 1143.676025 -0.454589 0.479520 0.750606
8812.626953 2733.825684 1217.897461 -0.563472 0.520174 0.641808
8633.266602 2245.186279 1456.462524 -0.563472 0.520174 0.641808
8732.293945 2131.239258 1635.755005 -0.563472 0.520174 0.641808
8530.258789 2027.344971 1624.019531 0.172287 -0.650457 -0.739745
8633.266602 2245.186279 1456.462524 0.172287 -0.650457 -0.739745
8911.502930 2162.770996 1593.731567 0.172287 -0.650457 -0.739745
8530.258789 2027.344971 1624.019531 -0.381586 0.670127 0.636649
8732.293945 2131.239258 1635.755005 -0.381586 0.670127 0.636649
8633.266602 2245.186279 1456.462524 -0.381586 0.670127 0.636649
8911.502930 2162.770996 1593.731567 0.418059 -0.636083 -0.648556
9181.667969 2628.882568 1310.732788 0.418059 -0.636083 -0.648556
9105.249023 2310.318359 1573.910645 0.418059 -0.636083 -0.648556
8732.293945 2131.239258 1635.755005 -0.092482 0.491633 0.865878
9105.249023 2310.318359 1573.910645 -0.092482 0.491633 0.865878
9172.838867 2784.790771 1311.731201 -0.092482 0.491633 0.865878
8530.258789 2027.344971 1624.019531 0.280702 -0.627859 0.725947
8911.502930 2162.770996 1593.731567 0.280702 -0.627859 0.725947
8732.293945 2131.239258 1635.755005 0.280702 -0.627859 0.725947
9105.249023 2310.318359 1573.910645 0.258398 -0.212716 0.942328
8732.293945 2131.239258 1635.755005 0.258398 -0.212716 0.942328
8911.502930 2162.770996 1593.731567 0.258398 -0.212716 0.942328
9023.811523 2218.899902 9769.189453 -0.135431 0.360853 -0.922737
8522.424805 2011.861328 9761.812500 -0.135431 0.360853 -0.922737
8559.320312 2123.942139 9800.228516 -0.135431 0.360853 -0.922737
9023.811523 2218.899902 9769.189453 0.342627 -0.844414 0.411791
8629.493164 2102.140381 9857.852539 0.342627 -0.844414 0.411791
8522.424805 2011.861328 9761.812500 0.342627 -0.844414 0.411791
8559.320312 2123.942139 9800.228516 -0.897064 0.153237 0.414480
8522.424805 2011.861328 9761.812500 -0.897064 0.153237 0.414480
8801.553711 2652.904785 10128.934570 -0.897064 0.153237 0.414480
9023.811523 2218.899902 9769.189453 0.035464 0.464952 -0.884625
9206.421875 2772.544922 10067.501953 0.035464 0.464952 -0.884625
9119.848633 2335.025391 9834.074219 0.035464 0.464952 -0.884625
9206.421875 2772.544922 10067.501953 0.984243 -0.171235 -0.044084
9251.045898 2982.452637 10248.458984 0.984243 -0.171235 -0.044084
9119.848633 2335.025391 9834.074219 0.984243 -0.171235 -0.044084
9023.811523 2218.899902 9769.189453 0.345368 -0.658972 0.668189
9119.848633 2335.025391 9834.074219 0.345368 -0.658972 0.668189
8629.493164 2102.140381 9857.852539 0.345368 -0.658972 0.668189
9119.848633 2335.025391 9834.074219 0.301870 -0.556578 0.774013
9251.045898 2982.452637 10248.458984 0.301870 -0.556578 0.774013
8629.493164 2102.140381 9857.852539 0.301870 -0.556578 0.774013
8801.553711 2652.904785 10128.934570 -0.289985 0.597410 -0.747670
9206.421875 2772.544922 10067.501953 -0.289985 0.597410 -0.747670
8559.320312 2123.942139 9800.228516 -0.289985 0.597410 -0.747670
8559.320312 2123.942139 9800.228516 -0.160518 0.508700 -0.845848
9206.421875 2772.544922 10067.501953 -0.160518 0.508700 -0.845848
9023.811523 2218.899902 9769.189453 -0.160518 0.508700 -0.845848
9251.045898 2982.452637 10248.458984 0.934826 -0.324011 0.145320
9206.421875 2772.544922 10067.501953 0.934826 -0.324011 0.145320
9306.743164 3129.079346 10217.089844 0.934826 -0.324011 0.145320
8522.424805 2011.861328 9761.812500 -0.532330 -0.234108 0.813522
8629.493164 2102.140381 9857.852539 -0.532330 -0.234108 0.813522
8801.553711 2652.904785 10128.934570 -0.532330 -0.234108 0.813522
8841.752930 3038.768555 10377.482422 -0.509512 0.502844 -0.698245
8801.553711 2652.904785 10128.934570 -0.509512 0.502844 -0.698245
8629.493164 2102.140381 9857.852539 -0.509512 0.502844 -0.698245
9206.421875 2772.544922 10067.501953 -0.146050 0.417403 -0.896908
9092.374023 3424.624756 10389.538086 -0.146050 0.417403 -0.896908
9306.743164 3129.079346 10217.089844 -0.146050 0.417403 -0.896908
8629.493164 2102.140381 9857.852539 0.194249 -0.509183 0.838451
9251.045898 2982.452637 10248.458984 0.194249 -0.509183 0.838451
8841.752930 3038.768555 10377.482422 0.194249 -0.509183 0.838451
8801.553711 2652.904785 10128.934570 -0.250416 0.393133 -0.884725
9092.374023 3424.624756 10389.538086 -0.250416 0.393133 -0.884725
9206.421875 2772.544922 10067.501953 -0.250416 0.393133 -0.884725
8801.553711 2652.904785 10128.934570 -0.666596 0.451499 -0.593126
8841.752930 3038.768555 10377.482422 -0.666596 0.451499 -0.593126
9092.374023 3424.624756 10389.538086 -0.666596 0.451499 -0.593126
9251.045898 2982.452637 10248.458984 0.584428 -0.048713 0.809982
9306.743164 3129.079346 10217.089844 0.584428 -0.048713 0.809982
9092.374023 3424.624756 10389.538086 0.584428 -0.048713 0.809982
7068.485352 3743.133789 10345.685547 0.080646 0.042408 -0.995840
7027.554199 4355.564941 10368.451172 0.080646 0.042408 -0.995840
7590.632812 4225.334473 10408.504883 0.080646 0.042408 -0.995840
7780.456055 3788.204102 10483.319336 0.194205 -0.082956 -0.977447
7068.485352 3743.133789 10345.685547 0.194205 -0.082956 -0.977447
7590.632812 4225.334473 10408.504883 0.194205 -0.082956 -0.977447
7027.554199 4355.564941 10368.451172 -0.959627 -0.053873 -0.276069
7068.485352 3743.133789 10345.685547 -0.959627 -0.053873 -0.276069
7035.649414 3884.748047 10432.189453 -0.959627 -0.053873 -0.276069
8841.752930 3038.768555 10377.482422 -0.149306 0.127613 -0.980522
8758.689453 3699.302002 10476.097656 -0.149306 0.127613 -0.980522
9092.374023 3424.624756 10389.538086 -0.149306 0.127613 -0.980522
8841.752930 3038.768555 10377.482422 -0.917549 -0.056625 -0.393571
8784.875000 3258.987793 10478.400391 -0.917549 -0.056625 -0.393571
8758.689453 3699.302002 10476.097656 -0.917549 -0.056625 -0.393571
8753.068359 3486.265869 10527.603516 0.344565 -0.170872 0.923081
9251.045898 2982.452637 10248.458984 0.344565 -0.170872 0.923081
9092.374023 3424.624756 10389.538086 0.344565 -0.170872 0.923081
8784.875000 3258.987793 10478.400391 -0.178460 -0.015758 -0.983821
8417.819336 3557.118652 10540.207031 -0.178460 -0.015758 -0.983821
8758.689453 3699.302002 10476.097656 -0.178460 -0.015758 -0.983821
8417.819336 3557.118652 10540.207031 0.051184 -0.103361 -0.993326
7780.456055 3788.204102 10483.319336 0.051184 -0.103361 -0.993326
8364.235352 3955.050537 10496.039062 0.051184 -0.103361 -0.993326
8364.235352 3955.050537 10496.039062 0.060698 -0.136999 -0.988710
7780.456055 3788.204102 10483.319336 0.060698 -0.136999 -0.988710
7933.155762 4119.887695 10446.734375 0.060698 -0.136999 -0.988710
7933.155762 4119.887695 10446.734375 0.067191 -0.139898 -0.987884
7780.456055 3788.204102 10483.319336 0.067191 -0.139898 -0.987884
7590.632812 4225.334473 10408.504883 0.067191 -0.139898 -0.987884
8841.752930 3038.768555 10377.482422 0.236626 -0.353599 0.904973
9251.045898 2982.452637 10248.458984 0.236626 -0.353599 0.904973
8784.875000 3258.987793 10478.400391 0.236626 -0.353599 0.904973
8753.068359 3486.265869 10527.603516 0.365619 -0.147777 0.918958
8784.875000 3258.987793 10478.400391 0.365619 -0.147777 0.918958
9251.045898 2982.452637 10248.458984 0.365619 -0.147777 0.918958
8364.235352 3955.050537 10496.039062 -0.131969 -0.126888 -0.983099
8758.689453 3699.302002 10476.097656 -0.131969 -0.126888 -0.983099
8417.819336 3557.118652 10540.207031 -0.131969 -0.126888 -0.983099
8753.068359 3486.265869 10527.603516 0.400640 0.205314 0.892936
9092.374023 3424.624756 10389.538086 0.400640 0.205314 0.892936
8758.689453 3699.302002 10476.097656 0.400640 0.205314 0.892936
7722.349609 3840.400879 10522.541992 -0.100537 -0.666800 0.738424
7068.485352 3743.133789 10345.685547 -0.100537 -0.666800 0.738424
7780.456055 3788.204102 10483.319336 -0.100537 -0.666800 0.738424
7035.649414 3884.748047 10432.189453 -0.143984 -0.539950 0.829290
7068.485352 3743.133789 10345.685547 -0.143984 -0.539950 0.829290
7722.349609 3840.400879 10522.541992 -0.143984 -0.539950 0.829290
8338.206055 3847.584473 10560.815430 -0.093681 0.131982 0.986815
7027.554199 4355.564941 10368.451172 -0.093681 0.131982 0.986815
7035.649414 3884.748047 10432.189453 -0.093681 0.131982 0.986815
7590.632812 4225.334473 10408.504883 0.036694 0.435312 0.899531
7027.554199 4355.564941 10368.451172 0.036694 0.435312 0.899531
8338.206055 3847.584473 10560.815430 0.036694 0.435312 0.899531
7933.155762 4119.887695 10446.734375 0.029015 0.422654 0.905827
7590.632812 4225.334473 10408.504883 0.029015 0.422654 0.905827
8338.206055 3847.584473 10560.815430 0.029015 0.422654 0.905827
8364.235352 3955.050537 10496.039062 0.091656 0.497683 0.862503
7933.155762 4119.887695 10446.734375 0.091656 0.497683 0.862503
8338.206055 3847.584473 10560.815430 0.091656 0.497683 0.862503
8753.068359 3486.265869 10527.603516 -0.008215 -0.212678 0.977088
8417.819336 3557.118652 10540.207031 -0.008215 -0.212678 0.977088
8784.875000 3258.987793 10478.400391 -0.008215 -0.212678 0.977088
8753.068359 3486.265869 10527.603516 0.266594 0.219844 0.938401
8758.689453 3699.302002 10476.097656 0.266594 0.219844 0.938401
8338.206055 3847.584473 10560.815430 0.266594 0.219844 0.938401
8758.689453 3699.302002 10476.097656 0.321703 0.430421 0.843353
8364.235352 3955.050537 10496.039062 0.321703 0.430421 0.843353
8338.206055 3847.584473 10560.815430 0.321703 0.430421 0.843353
8338.206055 3847.584473 10560.815430 -0.053726 0.672311 0.738317
7035.649414 3884.748047 10432.189453 -0.053726 0.672311 0.738317
7722.349609 3840.400879 10522.541992 -0.053726 0.672311 0.738317
8417.819336 3557.118652 10540.207031 -0.328769 -0.773338 0.542088
7722.349609 3840.400879 10522.541992 -0.328769 -0.773338 0.542088
7780.456055 3788.204102 10483.319336 -0.328769 -0.773338 0.542088
8753.068359 3486.265869 10527.603516 0.023933 -0.064223 0.997648
8338.206055 3847.584473 10560.815430 0.023933 -0.064223 0.997648
8417.819336 3557.118652 10540.207031 0.023933 -0.064223 0.997648
8417.819336 3557.118652 10540.207031 -0.060777 -0.087206 0.994335
8338.206055 3847.584473 10560.815430 -0.060777 -0.087206 0.994335
7722.349609 3840.400879 10522.541992 -0.060777 -0.087206 0.994335
3 0 1 2
3 3 4 5
3 6 7 8
3 9 10 11
3 12 13 14
3 15 16 17
3 18 19 20
3 21 22 23
3 24 25 26
3 27 28 29
3 30 31 32
3 33 34 35
3 36 37 38
3 39 40 41
3 42 43 44
3 45 46 47
3 48 49 50
3 51 52 53
3 54 55 56
3 57 58 59
3 60 61 62
3 63 64 65
3 66 67 68
3 69 70 71
3 72 73 74
3 75 76 77
3 78 79 80
3 81 82 83
3 84 85 86
3 87 88 89
3 90 91 92
3 93 94 95
3 96 97 98
3 99 100 101
3 102 103 104
3 105 106 107
3 108 109 110
3 111 112 113
3 114 115 116
3 117 118 119
3 120 121 122
3 123 124 125
3 126 127 128
3 129 130 131
3 132 133 134
3 135 136 137
3 138 139 140
3 141 142 143
3 144 145 146
3 147 148 149
3 150 151 152
3 153 154 155
3 156 157 158
3 159 160 161
3 162 163 164
3 165 166 167
3 168 169 170
3 171 172 173
3 174 175 176
3 177 178 179
3 180 181 182
3 183 184 185
3 186 187 188
3 189 190 191
3 192 193 194
3 195 196 197
3 198 199 200
3 201 202 203
3 204 205 206
3 207 208 209
3 210 211 212
3 213 214 215
3 216 217 218
3 219 220 221
3 222 223 224
3 225 226 227
3 228 229 230
3 231 232 233
3 234 235 236
3 237 238 239
3 240 241 242
3 243 244 245
3 246 247 248
3 249 250 251
3 252 253 254
3 255 256 257
3 258 259 260
3 261 262 263
3 264 265 266
3 267 268 269
3 270 271 272
3 273 274 275
3 276 277 278
3 279 280 281
3 282 283 284
