ply
format ascii 1.0
comment Created by Blender 2.80 (sub 75) - www.blender.org, source file: 'downsample_ccf.blend'
element vertex 378
property float x
property float y
property float z
property float nx
property float ny
property float nz
element face 126
property list uchar uint vertex_indices
end_header
8813.740234 3197.074707 1013.057678 0.122733 -0.181899 -0.975628
8395.641602 3583.989502 888.323730 0.122733 -0.181899 -0.975628
9020.762695 3391.968018 1002.764404 0.122733 -0.181899 -0.975628
8395.641602 3583.989502 888.323730 0.188348 0.028088 -0.981701
8978.556641 3567.142090 999.678833 0.188348 0.028088 -0.981701
9020.762695 3391.968018 1002.764404 0.188348 0.028088 -0.981701
8978.556641 3567.142090 999.678833 0.189637 0.121804 -0.974270
8395.641602 3583.989502 888.323730 0.189637 0.121804 -0.974270
8477.047852 3913.266113 945.335388 0.189637 0.121804 -0.974270
8477.047852 3913.266113 945.335388 0.018242 0.166195 -0.985924
8395.641602 3583.989502 888.323730 0.018242 0.166195 -0.985924
7815.842285 4191.601562 980.020142 0.018242 0.166195 -0.985924
8395.641602 3583.989502 888.323730 -0.078539 0.075076 -0.994080
7850.323730 3780.282471 946.231873 -0.078539 0.075076 -0.994080
7815.842285 4191.601562 980.020142 -0.078539 0.075076 -0.994080
7850.323730 3780.282471 946.231873 -0.126625 0.070663 -0.989431
7121.259766 3960.269043 1052.390015 -0.126625 0.070663 -0.989431
7815.842285 4191.601562 980.020142 -0.126625 0.070663 -0.989431
7121.259766 3960.269043 1052.390015 -0.193038 -0.217625 -0.956753
7850.323730 3780.282471 946.231873 -0.193038 -0.217625 -0.956753
7068.406250 3757.727539 1109.124512 -0.193038 -0.217625 -0.956753
7815.842285 4191.601562 980.020142 -0.125873 0.068324 -0.989691
7121.259766 3960.269043 1052.390015 -0.125873 0.068324 -0.989691
7093.086426 4385.072266 1085.299805 -0.125873 0.068324 -0.989691
8543.472656 3500.829102 1164.693726 -0.695819 -0.699795 0.161626
8395.641602 3583.989502 888.323730 -0.695819 -0.699795 0.161626
8813.740234 3197.074707 1013.057678 -0.695819 -0.699795 0.161626
8664.881836 3822.048828 1119.937988 0.571198 0.796478 -0.198381
8978.556641 3567.142090 999.678833 0.571198 0.796478 -0.198381
8477.047852 3913.266113 945.335388 0.571198 0.796478 -0.198381
7815.842285 4191.601562 980.020142 0.389962 0.918840 0.060515
8664.881836 3822.048828 1119.937988 0.389962 0.918840 0.060515
8477.047852 3913.266113 945.335388 0.389962 0.918840 0.060515
7850.323730 3780.282471 946.231873 -0.346113 -0.933300 -0.095695
8395.641602 3583.989502 888.323730 -0.346113 -0.933300 -0.095695
8543.472656 3500.829102 1164.693726 -0.346113 -0.933300 -0.095695
7068.406250 3757.727539 1109.124512 -0.737676 0.003381 -0.675146
7093.086426 4385.072266 1085.299805 -0.737676 0.003381 -0.675146
7121.259766 3960.269043 1052.390015 -0.737676 0.003381 -0.675146
8978.556641 3567.142090 999.678833 0.652097 0.144004 -0.744333
9254.975586 3259.326904 1182.292480 0.652097 0.144004 -0.744333
9020.762695 3391.968018 1002.764404 0.652097 0.144004 -0.744333
7850.323730 3780.282471 946.231873 -0.404279 -0.906268 0.123436
8543.472656 3500.829102 1164.693726 -0.404279 -0.906268 0.123436
7988.970703 3756.170898 1223.302124 -0.404279 -0.906268 0.123436
7850.323730 3780.282471 946.231873 0.009664 -0.995759 -0.091490
7988.970703 3756.170898 1223.302124 0.009664 -0.995759 -0.091490
7068.406250 3757.727539 1109.124512 0.009664 -0.995759 -0.091490
7815.842285 4191.601562 980.020142 0.420232 0.876360 -0.235369
8251.335938 4033.058594 1167.247925 0.420232 0.876360 -0.235369
8664.881836 3822.048828 1119.937988 0.420232 0.876360 -0.235369
7068.406250 3757.727539 1109.124512 -0.675131 -0.001455 -0.737696
7004.857910 4318.896973 1166.176147 -0.675131 -0.001455 -0.737696
7093.086426 4385.072266 1085.299805 -0.675131 -0.001455 -0.737696
9020.762695 3391.968018 1002.764404 0.312491 -0.377966 -0.871488
9229.333008 2902.534180 1289.820435 0.312491 -0.377966 -0.871488
8813.740234 3197.074707 1013.057678 0.312491 -0.377966 -0.871488
9254.975586 3259.326904 1182.292480 0.476268 -0.284929 -0.831856
9229.333008 2902.534180 1289.820435 0.476268 -0.284929 -0.831856
9020.762695 3391.968018 1002.764404 0.476268 -0.284929 -0.831856
8813.740234 3197.074707 1013.057678 -0.776955 -0.605825 -0.171223
8774.392578 3173.666748 1274.427490 -0.776955 -0.605825 -0.171223
8543.472656 3500.829102 1164.693726 -0.776955 -0.605825 -0.171223
7004.857910 4318.896973 1166.176147 -0.979960 -0.126608 0.153782
7068.406250 3757.727539 1109.124512 -0.979960 -0.126608 0.153782
7104.301270 3785.917969 1361.071167 -0.979960 -0.126608 0.153782
7427.472656 3819.305176 1355.144531 -0.038165 -0.954830 0.294691
7068.406250 3757.727539 1109.124512 -0.038165 -0.954830 0.294691
7988.970703 3756.170898 1223.302124 -0.038165 -0.954830 0.294691
7093.086426 4385.072266 1085.299805 -0.634029 0.770909 -0.060886
7004.857910 4318.896973 1166.176147 -0.634029 0.770909 -0.060886
7084.143555 4396.047363 1317.384766 -0.634029 0.770909 -0.060886
8978.556641 3567.142090 999.678833 0.654568 0.745088 0.128003
8664.881836 3822.048828 1119.937988 0.654568 0.745088 0.128003
9210.555664 3301.164307 1361.528076 0.654568 0.745088 0.128003
7815.842285 4191.601562 980.020142 0.242338 0.964148 -0.108121
7093.086426 4385.072266 1085.299805 0.242338 0.964148 -0.108121
7326.186035 4355.332520 1342.563110 0.242338 0.964148 -0.108121
9229.333008 2902.534180 1289.820435 0.216233 -0.488968 -0.845076
8782.992188 2638.778809 1328.224243 0.216233 -0.488968 -0.845076
8813.740234 3197.074707 1013.057678 0.216233 -0.488968 -0.845076
8774.392578 3173.666748 1274.427490 -0.987964 -0.031123 -0.151519
8813.740234 3197.074707 1013.057678 -0.987964 -0.031123 -0.151519
8782.992188 2638.778809 1328.224243 -0.987964 -0.031123 -0.151519
8893.665039 3593.826172 1210.886475 0.409191 0.660900 0.629106
8664.881836 3822.048828 1119.937988 0.409191 0.660900 0.629106
8251.335938 4033.058594 1167.247925 0.409191 0.660900 0.629106
7815.842285 4191.601562 980.020142 0.332902 0.942658 0.023902
7326.186035 4355.332520 1342.563110 0.332902 0.942658 0.023902
8251.335938 4033.058594 1167.247925 0.332902 0.942658 0.023902
7093.086426 4385.072266 1085.299805 0.169797 0.984666 -0.040021
7084.143555 4396.047363 1317.384766 0.169797 0.984666 -0.040021
7326.186035 4355.332520 1342.563110 0.169797 0.984666 -0.040021
9210.555664 3301.164307 1361.528076 0.736470 0.676019 0.024722
9254.975586 3259.326904 1182.292480 0.736470 0.676019 0.024722
8978.556641 3567.142090 999.678833 0.736470 0.676019 0.024722
9210.555664 3301.164307 1361.528076 -0.705997 -0.513268 0.487980
8664.881836 3822.048828 1119.937988 -0.705997 -0.513268 0.487980
8893.665039 3593.826172 1210.886475 -0.705997 -0.513268 0.487980
8893.665039 3593.826172 1210.886475 -0.113026 -0.066797 0.991344
8251.335938 4033.058594 1167.247925 -0.113026 -0.066797 0.991344
8543.472656 3500.829102 1164.693726 -0.113026 -0.066797 0.991344
7068.406250 3757.727539 1109.124512 0.104031 -0.989936 0.095943
7427.472656 3819.305176 1355.144531 0.104031 -0.989936 0.095943
7104.301270 3785.917969 1361.071167 0.104031 -0.989936 0.095943
8543.472656 3500.829102 1164.693726 0.136841 0.070369 0.988090
8251.335938 4033.058594 1167.247925 0.136841 0.070369 0.988090
7988.970703 3756.170898 1223.302124 0.136841 0.070369 0.988090
9254.975586 3259.326904 1182.292480 0.970772 0.002557 0.239989
9210.555664 3301.164307 1361.528076 0.970772 0.002557 0.239989
9229.333008 2902.534180 1289.820435 0.970772 0.002557 0.239989
8893.665039 3593.826172 1210.886475 -0.179381 0.196695 0.963916
8543.472656 3500.829102 1164.693726 -0.179381 0.196695 0.963916
8774.392578 3173.666748 1274.427490 -0.179381 0.196695 0.963916
8251.335938 4033.058594 1167.247925 0.226672 -0.017641 0.973811
7427.472656 3819.305176 1355.144531 0.226672 -0.017641 0.973811
7988.970703 3756.170898 1223.302124 0.226672 -0.017641 0.973811
8251.335938 4033.058594 1167.247925 0.206622 0.061962 0.976457
7326.186035 4355.332520 1342.563110 0.206622 0.061962 0.976457
7427.472656 3819.305176 1355.144531 0.206622 0.061962 0.976457
7004.857910 4318.896973 1166.176147 -0.902747 0.267561 0.336836
7060.004395 4240.781250 1376.023560 -0.902747 0.267561 0.336836
7084.143555 4396.047363 1317.384766 -0.902747 0.267561 0.336836
8782.992188 2638.778809 1328.224243 -0.932215 -0.051023 -0.358290
8701.438477 2683.836182 1533.998047 -0.932215 -0.051023 -0.358290
8774.392578 3173.666748 1274.427490 -0.932215 -0.051023 -0.358290
7104.301270 3785.917969 1361.071167 -0.970801 -0.101684 0.217268
7060.004395 4240.781250 1376.023560 -0.970801 -0.101684 0.217268
7004.857910 4318.896973 1166.176147 -0.970801 -0.101684 0.217268
9122.314453 2839.941162 1545.026001 0.924087 -0.025072 0.381360
9229.333008 2902.534180 1289.820435 0.924087 -0.025072 0.381360
9210.555664 3301.164307 1361.528076 0.924087 -0.025072 0.381360
9210.555664 3301.164307 1361.528076 -0.251082 0.214038 0.944005
8893.665039 3593.826172 1210.886475 -0.251082 0.214038 0.944005
8774.392578 3173.666748 1274.427490 -0.251082 0.214038 0.944005
9057.753906 2489.166504 1748.389526 0.914764 0.062987 0.399048
9229.333008 2902.534180 1289.820435 0.914764 0.062987 0.399048
9122.314453 2839.941162 1545.026001 0.914764 0.062987 0.399048
8782.992188 2638.778809 1328.224243 0.254931 -0.547462 -0.797055
9229.333008 2902.534180 1289.820435 0.254931 -0.547462 -0.797055
9070.532227 2332.895020 1630.289307 0.254931 -0.547462 -0.797055
7427.472656 3819.305176 1355.144531 0.021503 -0.030755 0.999296
7060.004395 4240.781250 1376.023560 0.021503 -0.030755 0.999296
7104.301270 3785.917969 1361.071167 0.021503 -0.030755 0.999296
7427.472656 3819.305176 1355.144531 0.106205 0.043385 0.993397
7326.186035 4355.332520 1342.563110 0.106205 0.043385 0.993397
7060.004395 4240.781250 1376.023560 0.106205 0.043385 0.993397
7326.186035 4355.332520 1342.563110 -0.036818 0.358074 0.932967
7084.143555 4396.047363 1317.384766 -0.036818 0.358074 0.932967
7060.004395 4240.781250 1376.023560 -0.036818 0.358074 0.932967
9210.555664 3301.164307 1361.528076 -0.304765 0.481006 0.822041
8774.392578 3173.666748 1274.427490 -0.304765 0.481006 0.822041
8701.438477 2683.836182 1533.998047 -0.304765 0.481006 0.822041
8528.626953 2064.460449 1689.612183 0.203501 -0.584417 -0.785521
8782.992188 2638.778809 1328.224243 0.203501 -0.584417 -0.785521
9070.532227 2332.895020 1630.289307 0.203501 -0.584417 -0.785521
9070.532227 2332.895020 1630.289307 0.959916 -0.114761 0.255715
9229.333008 2902.534180 1289.820435 0.959916 -0.114761 0.255715
9057.753906 2489.166504 1748.389526 0.959916 -0.114761 0.255715
9122.314453 2839.941162 1545.026001 -0.169128 0.392109 0.904238
9210.555664 3301.164307 1361.528076 -0.169128 0.392109 0.904238
8701.438477 2683.836182 1533.998047 -0.169128 0.392109 0.904238
8701.438477 2683.836182 1533.998047 -0.895508 0.198427 -0.398363
8782.992188 2638.778809 1328.224243 -0.895508 0.198427 -0.398363
8508.645508 2279.038574 1765.759033 -0.895508 0.198427 -0.398363
8508.645508 2279.038574 1765.759033 -0.874806 0.087626 -0.476482
8782.992188 2638.778809 1328.224243 -0.874806 0.087626 -0.476482
8528.626953 2064.460449 1689.612183 -0.874806 0.087626 -0.476482
8515.956055 2202.616699 1832.188721 -0.234054 0.575687 0.783456
9122.314453 2839.941162 1545.026001 -0.234054 0.575687 0.783456
8701.438477 2683.836182 1533.998047 -0.234054 0.575687 0.783456
9122.314453 2839.941162 1545.026001 -0.142208 0.515922 0.844750
8515.956055 2202.616699 1832.188721 -0.142208 0.515922 0.844750
9057.753906 2489.166504 1748.389526 -0.142208 0.515922 0.844750
8528.626953 2064.460449 1689.612183 -0.995622 -0.093445 0.002066
8515.956055 2202.616699 1832.188721 -0.995622 -0.093445 0.002066
8508.645508 2279.038574 1765.759033 -0.995622 -0.093445 0.002066
8905.637695 2324.455078 1794.098999 0.441294 -0.801828 0.402904
8528.626953 2064.460449 1689.612183 0.441294 -0.801828 0.402904
9070.532227 2332.895020 1630.289307 0.441294 -0.801828 0.402904
8515.956055 2202.616699 1832.188721 -0.372384 0.588313 0.717787
8701.438477 2683.836182 1533.998047 -0.372384 0.588313 0.717787
8508.645508 2279.038574 1765.759033 -0.372384 0.588313 0.717787
9057.753906 2489.166504 1748.389526 0.649059 -0.424177 0.631503
8905.637695 2324.455078 1794.098999 0.649059 -0.424177 0.631503
9070.532227 2332.895020 1630.289307 0.649059 -0.424177 0.631503
8905.637695 2324.455078 1794.098999 0.278332 -0.677294 0.681032
8515.956055 2202.616699 1832.188721 0.278332 -0.677294 0.681032
8528.626953 2064.460449 1689.612183 0.278332 -0.677294 0.681032
9057.753906 2489.166504 1748.389526 0.014925 0.254555 0.966943
8515.956055 2202.616699 1832.188721 0.014925 0.254555 0.966943
8905.637695 2324.455078 1794.098999 0.014925 0.254555 0.966943
9030.013672 2421.664062 9604.775391 0.318733 -0.567973 -0.758825
8537.267578 2066.973389 9663.287109 0.318733 -0.567973 -0.758825
8492.798828 2194.346191 9549.271484 0.318733 -0.567973 -0.758825
8492.798828 2194.346191 9549.271484 -0.899524 -0.420403 -0.118819
8537.267578 2066.973389 9663.287109 -0.899524 -0.420403 -0.118819
8498.218750 2135.555176 9716.252930 -0.899524 -0.420403 -0.118819
9030.013672 2421.664062 9604.775391 0.371589 -0.628885 -0.682953
9043.053711 2299.538818 9724.327148 0.371589 -0.628885 -0.682953
8537.267578 2066.973389 9663.287109 0.371589 -0.628885 -0.682953
8492.798828 2194.346191 9549.271484 -0.127558 0.509268 -0.851102
9097.715820 2767.577637 9801.610352 -0.127558 0.509268 -0.851102
9030.013672 2421.664062 9604.775391 -0.127558 0.509268 -0.851102
8492.798828 2194.346191 9549.271484 -0.221721 0.579273 -0.784400
8761.104492 2819.131348 9934.830078 -0.221721 0.579273 -0.784400
9097.715820 2767.577637 9801.610352 -0.221721 0.579273 -0.784400
8498.218750 2135.555176 9716.252930 -0.938282 0.315574 0.141563
8761.104492 2819.131348 9934.830078 -0.938282 0.315574 0.141563
8492.798828 2194.346191 9549.271484 -0.938282 0.315574 0.141563
8498.218750 2135.555176 9716.252930 0.062730 -0.587415 0.806851
8537.267578 2066.973389 9663.287109 0.062730 -0.587415 0.806851
8794.337891 2671.944580 10083.740234 0.062730 -0.587415 0.806851
8537.267578 2066.973389 9663.287109 0.189513 -0.613389 0.766707
9043.053711 2299.538818 9724.327148 0.189513 -0.613389 0.766707
8794.337891 2671.944580 10083.740234 0.189513 -0.613389 0.766707
9227.473633 2868.388428 10071.934570 0.954064 -0.151282 -0.258602
9043.053711 2299.538818 9724.327148 0.954064 -0.151282 -0.258602
9030.013672 2421.664062 9604.775391 0.954064 -0.151282 -0.258602
9030.013672 2421.664062 9604.775391 0.885063 0.086978 -0.457273
9097.715820 2767.577637 9801.610352 0.885063 0.086978 -0.457273
9227.473633 2868.388428 10071.934570 0.885063 0.086978 -0.457273
9043.053711 2299.538818 9724.327148 0.277360 -0.564839 0.777192
9227.473633 2868.388428 10071.934570 0.277360 -0.564839 0.777192
8794.337891 2671.944580 10083.740234 0.277360 -0.564839 0.777192
8761.104492 2819.131348 9934.830078 -0.888481 0.211452 0.407294
8498.218750 2135.555176 9716.252930 -0.888481 0.211452 0.407294
8794.337891 2671.944580 10083.740234 -0.888481 0.211452 0.407294
9097.715820 2767.577637 9801.610352 -0.292469 0.369528 -0.881993
8761.104492 2819.131348 9934.830078 -0.292469 0.369528 -0.881993
8764.518555 3262.360596 10119.397461 -0.292469 0.369528 -0.881993
8764.518555 3262.360596 10119.397461 -0.244938 0.401779 -0.882371
9183.233398 3354.461670 10045.103516 -0.244938 0.401779 -0.882371
9097.715820 2767.577637 9801.610352 -0.244938 0.401779 -0.882371
9227.473633 2868.388428 10071.934570 0.911626 -0.116195 -0.394256
9097.715820 2767.577637 9801.610352 0.911626 -0.116195 -0.394256
9289.061523 3221.540771 10110.261719 0.911626 -0.116195 -0.394256
9289.061523 3221.540771 10110.261719 0.679663 0.194413 -0.707292
9097.715820 2767.577637 9801.610352 0.679663 0.194413 -0.707292
9183.233398 3354.461670 10045.103516 0.679663 0.194413 -0.707292
7665.674316 4240.374023 10091.596680 0.151860 0.046268 -0.987318
7130.736328 3806.608398 9988.990234 0.151860 0.046268 -0.987318
7081.145508 4371.250000 10007.823242 0.151860 0.046268 -0.987318
8051.208984 3761.682373 10157.989258 0.181017 0.009392 -0.983435
7130.736328 3806.608398 9988.990234 0.181017 0.009392 -0.983435
7665.674316 4240.374023 10091.596680 0.181017 0.009392 -0.983435
7130.736328 3806.608398 9988.990234 -0.949080 -0.073134 -0.306429
7063.017578 3752.228271 10211.708984 -0.949080 -0.073134 -0.306429
7081.145508 4371.250000 10007.823242 -0.949080 -0.073134 -0.306429
7063.017578 3752.228271 10211.708984 -0.963170 -0.058255 -0.262506
7013.963867 4364.924316 10255.725586 -0.963170 -0.058255 -0.262506
7081.145508 4371.250000 10007.823242 -0.963170 -0.058255 -0.262506
7081.145508 4371.250000 10007.823242 -0.205744 0.978121 -0.030798
7013.963867 4364.924316 10255.725586 -0.205744 0.978121 -0.030798
7173.021484 4399.510742 10291.591797 -0.205744 0.978121 -0.030798
7665.674316 4240.374023 10091.596680 0.182200 0.010376 -0.983207
8472.894531 3892.343018 10237.511719 0.182200 0.010376 -0.983207
8051.208984 3761.682373 10157.989258 0.182200 0.010376 -0.983207
7081.145508 4371.250000 10007.823242 0.238688 0.955661 -0.172455
7173.021484 4399.510742 10291.591797 0.238688 0.955661 -0.172455
7665.674316 4240.374023 10091.596680 0.238688 0.955661 -0.172455
8761.104492 2819.131348 9934.830078 -0.996555 -0.025221 0.079002
8777.875000 3115.618164 10241.032227 -0.996555 -0.025221 0.079002
8764.518555 3262.360596 10119.397461 -0.996555 -0.025221 0.079002
9158.802734 3371.357910 10310.630859 0.774477 0.631840 0.031052
9289.061523 3221.540771 10110.261719 0.774477 0.631840 0.031052
9183.233398 3354.461670 10045.103516 0.774477 0.631840 0.031052
8764.518555 3262.360596 10119.397461 -0.228561 0.076163 -0.970546
8510.414062 3522.308350 10199.637695 -0.228561 0.076163 -0.970546
8472.894531 3892.343018 10237.511719 -0.228561 0.076163 -0.970546
9183.233398 3354.461670 10045.103516 -0.193818 0.093378 -0.976583
8764.518555 3262.360596 10119.397461 -0.193818 0.093378 -0.976583
8472.894531 3892.343018 10237.511719 -0.193818 0.093378 -0.976583
8051.208984 3761.682373 10157.989258 -0.028658 -0.993729 -0.108079
7936.450195 3744.550293 10345.939453 -0.028658 -0.993729 -0.108079
7130.736328 3806.608398 9988.990234 -0.028658 -0.993729 -0.108079
8794.337891 2671.944580 10083.740234 -0.987017 -0.084950 0.136313
8777.875000 3115.618164 10241.032227 -0.987017 -0.084950 0.136313
8761.104492 2819.131348 9934.830078 -0.987017 -0.084950 0.136313
8472.894531 3892.343018 10237.511719 0.149352 0.115653 -0.981997
8510.414062 3522.308350 10199.637695 0.149352 0.115653 -0.981997
8051.208984 3761.682373 10157.989258 0.149352 0.115653 -0.981997
8764.518555 3262.360596 10119.397461 -0.709123 -0.704183 0.035636
8754.797852 3285.796143 10389.062500 -0.709123 -0.704183 0.035636
8510.414062 3522.308350 10199.637695 -0.709123 -0.704183 0.035636
9183.233398 3354.461670 10045.103516 0.444791 0.758037 -0.477013
8472.894531 3892.343018 10237.511719 0.444791 0.758037 -0.477013
8637.327148 3842.579834 10311.756836 0.444791 0.758037 -0.477013
9227.473633 2868.388428 10071.934570 0.746898 -0.199109 0.634428
9289.061523 3221.540771 10110.261719 0.746898 -0.199109 0.634428
9158.802734 3371.357910 10310.630859 0.746898 -0.199109 0.634428
7936.450195 3744.550293 10345.939453 -0.412775 -0.849169 -0.329436
8051.208984 3761.682373 10157.989258 -0.412775 -0.849169 -0.329436
8510.414062 3522.308350 10199.637695 -0.412775 -0.849169 -0.329436
7130.736328 3806.608398 9988.990234 0.026708 -0.972956 -0.229441
7936.450195 3744.550293 10345.939453 0.026708 -0.972956 -0.229441
7063.017578 3752.228271 10211.708984 0.026708 -0.972956 -0.229441
8207.789062 4066.935791 10369.914062 0.422551 0.859564 -0.287405
8472.894531 3892.343018 10237.511719 0.422551 0.859564 -0.287405
7665.674316 4240.374023 10091.596680 0.422551 0.859564 -0.287405
8777.875000 3115.618164 10241.032227 -0.993363 -0.112027 -0.026072
8754.797852 3285.796143 10389.062500 -0.993363 -0.112027 -0.026072
8764.518555 3262.360596 10119.397461 -0.993363 -0.112027 -0.026072
7665.674316 4240.374023 10091.596680 0.306203 0.951961 -0.003201
7173.021484 4399.510742 10291.591797 0.306203 0.951961 -0.003201
8207.789062 4066.935791 10369.914062 0.306203 0.951961 -0.003201
9158.802734 3371.357910 10310.630859 0.204348 -0.396785 0.894876
8794.337891 2671.944580 10083.740234 0.204348 -0.396785 0.894876
9227.473633 2868.388428 10071.934570 0.204348 -0.396785 0.894876
8510.414062 3522.308350 10199.637695 -0.376233 -0.923650 -0.072934
8500.287109 3505.364014 10466.463867 -0.376233 -0.923650 -0.072934
7936.450195 3744.550293 10345.939453 -0.376233 -0.923650 -0.072934
7100.178711 3794.970947 10290.451172 -0.868365 -0.127790 0.479178
7030.660156 4354.774902 10313.761719 -0.868365 -0.127790 0.479178
7063.017578 3752.228271 10211.708984 -0.868365 -0.127790 0.479178
8637.327148 3842.579834 10311.756836 0.404051 0.856692 -0.320660
8472.894531 3892.343018 10237.511719 0.404051 0.856692 -0.320660
8207.789062 4066.935791 10369.914062 0.404051 0.856692 -0.320660
7063.017578 3752.228271 10211.708984 -0.960938 -0.095594 0.259732
7030.660156 4354.774902 10313.761719 -0.960938 -0.095594 0.259732
7013.963867 4364.924316 10255.725586 -0.960938 -0.095594 0.259732
8777.875000 3115.618164 10241.032227 -0.981774 0.030098 -0.187655
8794.337891 2671.944580 10083.740234 -0.981774 0.030098 -0.187655
8754.797852 3285.796143 10389.062500 -0.981774 0.030098 -0.187655
8500.287109 3505.364014 10466.463867 -0.664042 -0.744176 -0.072460
8510.414062 3522.308350 10199.637695 -0.664042 -0.744176 -0.072460
8754.797852 3285.796143 10389.062500 -0.664042 -0.744176 -0.072460
9158.802734 3371.357910 10310.630859 0.670399 0.741859 0.014476
9183.233398 3354.461670 10045.103516 0.670399 0.741859 0.014476
8637.327148 3842.579834 10311.756836 0.670399 0.741859 0.014476
7063.017578 3752.228271 10211.708984 -0.085327 -0.858226 0.506129
7936.450195 3744.550293 10345.939453 -0.085327 -0.858226 0.506129
7100.178711 3794.970947 10290.451172 -0.085327 -0.858226 0.506129
8794.337891 2671.944580 10083.740234 0.257530 -0.416971 0.871673
9158.802734 3371.357910 10310.630859 0.257530 -0.416971 0.871673
8754.797852 3285.796143 10389.062500 0.257530 -0.416971 0.871673
9158.802734 3371.357910 10310.630859 0.665449 0.736120 0.123714
8637.327148 3842.579834 10311.756836 0.665449 0.736120 0.123714
8850.210938 3629.607666 10433.892578 0.665449 0.736120 0.123714
7173.021484 4399.510742 10291.591797 -0.257288 0.936615 0.237815
7013.963867 4364.924316 10255.725586 -0.257288 0.936615 0.237815
7030.660156 4354.774902 10313.761719 -0.257288 0.936615 0.237815
7936.450195 3744.550293 10345.939453 -0.057751 -0.997675 -0.036191
8078.529785 3731.628662 10475.428711 -0.057751 -0.997675 -0.036191
7100.178711 3794.970947 10290.451172 -0.057751 -0.997675 -0.036191
8078.529785 3731.628662 10475.428711 -0.189414 -0.064321 0.979788
7030.660156 4354.774902 10313.761719 -0.189414 -0.064321 0.979788
7100.178711 3794.970947 10290.451172 -0.189414 -0.064321 0.979788
8754.797852 3285.796143 10389.062500 0.225265 -0.187188 0.956146
9158.802734 3371.357910 10310.630859 0.225265 -0.187188 0.956146
8850.210938 3629.607666 10433.892578 0.225265 -0.187188 0.956146
8303.367188 3985.299805 10452.566406 0.502194 0.749424 0.431468
8850.210938 3629.607666 10433.892578 0.502194 0.749424 0.431468
8637.327148 3842.579834 10311.756836 0.502194 0.749424 0.431468
8637.327148 3842.579834 10311.756836 0.474046 0.835710 0.277253
8207.789062 4066.935791 10369.914062 0.474046 0.835710 0.277253
8303.367188 3985.299805 10452.566406 0.474046 0.835710 0.277253
7030.660156 4354.774902 10313.761719 0.016570 0.401149 0.915863
8303.367188 3985.299805 10452.566406 0.016570 0.401149 0.915863
7173.021484 4399.510742 10291.591797 0.016570 0.401149 0.915863
8303.367188 3985.299805 10452.566406 0.218605 0.808752 0.546015
8207.789062 4066.935791 10369.914062 0.218605 0.808752 0.546015
7173.021484 4399.510742 10291.591797 0.218605 0.808752 0.546015
7936.450195 3744.550293 10345.939453 -0.428997 -0.815077 0.389372
8500.287109 3505.364014 10466.463867 -0.428997 -0.815077 0.389372
8078.529785 3731.628662 10475.428711 -0.428997 -0.815077 0.389372
8303.367188 3985.299805 10452.566406 -0.065079 0.146640 0.987047
7030.660156 4354.774902 10313.761719 -0.065079 0.146640 0.987047
8078.529785 3731.628662 10475.428711 -0.065079 0.146640 0.987047
8754.797852 3285.796143 10389.062500 0.150604 -0.168806 0.974075
8850.210938 3629.607666 10433.892578 0.150604 -0.168806 0.974075
8500.287109 3505.364014 10466.463867 0.150604 -0.168806 0.974075
8850.210938 3629.607666 10433.892578 0.071960 0.058358 0.995699
8303.367188 3985.299805 10452.566406 0.071960 0.058358 0.995699
8500.287109 3505.364014 10466.463867 0.071960 0.058358 0.995699
8500.287109 3505.364014 10466.463867 0.047068 0.048203 0.997728
8303.367188 3985.299805 10452.566406 0.047068 0.048203 0.997728
8078.529785 3731.628662 10475.428711 0.047068 0.048203 0.997728
3 0 1 2
3 3 4 5
3 6 7 8
3 9 10 11
3 12 13 14
3 15 16 17
3 18 19 20
3 21 22 23
3 24 25 26
3 27 28 29
3 30 31 32
3 33 34 35
3 36 37 38
3 39 40 41
3 42 43 44
3 45 46 47
3 48 49 50
3 51 52 53
3 54 55 56
3 57 58 59
3 60 61 62
3 63 64 65
3 66 67 68
3 69 70 71
3 72 73 74
3 75 76 77
3 78 79 80
3 81 82 83
3 84 85 86
3 87 88 89
3 90 91 92
3 93 94 95
3 96 97 98
3 99 100 101
3 102 103 104
3 105 106 107
3 108 109 110
3 111 112 113
3 114 115 116
3 117 118 119
3 120 121 122
3 123 124 125
3 126 127 128
3 129 130 131
3 132 133 134
3 135 136 137
3 138 139 140
3 141 142 143
3 144 145 146
3 147 148 149
3 150 151 152
3 153 154 155
3 156 157 158
3 159 160 161
3 162 163 164
3 165 166 167
3 168 169 170
3 171 172 173
3 174 175 176
3 177 178 179
3 180 181 182
3 183 184 185
3 186 187 188
3 189 190 191
3 192 193 194
3 195 196 197
3 198 199 200
3 201 202 203
3 204 205 206
3 207 208 209
3 210 211 212
3 213 214 215
3 216 217 218
3 219 220 221
3 222 223 224
3 225 226 227
3 228 229 230
3 231 232 233
3 234 235 236
3 237 238 239
3 240 241 242
3 243 244 245
3 246 247 248
3 249 250 251
3 252 253 254
3 255 256 257
3 258 259 260
3 261 262 263
3 264 265 266
3 267 268 269
3 270 271 272
3 273 274 275
3 276 277 278
3 279 280 281
3 282 283 284
3 285 286 287
3 288 289 290
3 291 292 293
3 294 295 296
3 297 298 299
3 300 301 302
3 303 304 305
3 306 307 308
3 309 310 311
3 312 313 314
3 315 316 317
3 318 319 320
3 321 322 323
3 324 325 326
3 327 328 329
3 330 331 332
3 333 334 335
3 336 337 338
3 339 340 341
3 342 343 344
3 345 346 347
3 348 349 350
3 351 352 353
3 354 355 356
3 357 358 359
3 360 361 362
3 363 364 365
3 366 367 368
3 369 370 371
3 372 373 374
3 375 376 377
