ply
format ascii 1.0
comment Created by Blender 2.80 (sub 75) - www.blender.org, source file: 'downsample_ccf.blend'
element vertex 246
property float x
property float y
property float z
property float nx
property float ny
property float nz
element face 82
property list uchar uint vertex_indices
end_header
9020.852539 5936.946777 4549.430176 -0.383742 0.438553 -0.812658
8883.372070 5976.600586 4635.748535 -0.383742 0.438553 -0.812658
9335.818359 6541.799805 4727.111816 -0.383742 0.438553 -0.812658
9020.852539 5936.946777 4549.430176 0.667370 -0.132225 -0.732894
9335.818359 6541.799805 4727.111816 0.667370 -0.132225 -0.732894
9832.688477 5898.570801 5295.607422 0.667370 -0.132225 -0.732894
9020.852539 5936.946777 4549.430176 -0.385871 -0.900403 -0.200945
9291.352539 5658.335938 5278.403809 -0.385871 -0.900403 -0.200945
8883.372070 5976.600586 4635.748535 -0.385871 -0.900403 -0.200945
8876.947266 5900.129883 5123.076172 -0.457998 -0.877262 -0.143697
8883.372070 5976.600586 4635.748535 -0.457998 -0.877262 -0.143697
9291.352539 5658.335938 5278.403809 -0.457998 -0.877262 -0.143697
9323.173828 6637.215820 5033.646973 -0.742081 0.630726 -0.226938
9335.818359 6541.799805 4727.111816 -0.742081 0.630726 -0.226938
8883.372070 5976.600586 4635.748535 -0.742081 0.630726 -0.226938
9335.818359 6541.799805 4727.111816 0.610272 0.763191 -0.212387
9323.173828 6637.215820 5033.646973 0.610272 0.763191 -0.212387
9486.685547 6491.831543 4981.057617 0.610272 0.763191 -0.212387
9832.688477 5898.570801 5295.607422 0.374329 -0.811345 -0.448995
9291.352539 5658.335938 5278.403809 0.374329 -0.811345 -0.448995
9020.852539 5936.946777 4549.430176 0.374329 -0.811345 -0.448995
9335.818359 6541.799805 4727.111816 0.852466 0.255292 -0.456210
9486.685547 6491.831543 4981.057617 0.852466 0.255292 -0.456210
9832.688477 5898.570801 5295.607422 0.852466 0.255292 -0.456210
8883.372070 5976.600586 4635.748535 -0.812368 0.577641 0.079933
8876.947266 5900.129883 5123.076172 -0.812368 0.577641 0.079933
9131.547852 6219.888184 5399.855469 -0.812368 0.577641 0.079933
9291.352539 5658.335938 5278.403809 -0.533650 -0.837040 0.120752
9028.437500 5829.056152 5299.895020 -0.533650 -0.837040 0.120752
8876.947266 5900.129883 5123.076172 -0.533650 -0.837040 0.120752
9131.547852 6219.888184 5399.855469 -0.858180 0.499175 0.119795
9323.173828 6637.215820 5033.646973 -0.858180 0.499175 0.119795
8883.372070 5976.600586 4635.748535 -0.858180 0.499175 0.119795
9404.235352 6456.125488 5689.091309 0.471464 0.863278 0.180204
9529.766602 6370.515137 5770.788086 0.471464 0.863278 0.180204
9323.173828 6637.215820 5033.646973 0.471464 0.863278 0.180204
9832.688477 5898.570801 5295.607422 0.402010 -0.890664 -0.212380
9863.429688 5870.160645 5472.940918 0.402010 -0.890664 -0.212380
9291.352539 5658.335938 5278.403809 0.402010 -0.890664 -0.212380
9571.183594 6334.424805 5507.738281 0.679731 0.725500 0.107774
9486.685547 6491.831543 4981.057617 0.679731 0.725500 0.107774
9323.173828 6637.215820 5033.646973 0.679731 0.725500 0.107774
9131.547852 6219.888184 5399.855469 -0.477711 -0.325831 0.815859
8876.947266 5900.129883 5123.076172 -0.477711 -0.325831 0.815859
9397.887695 6199.038086 5547.479004 -0.477711 -0.325831 0.815859
9404.235352 6456.125488 5689.091309 -0.773604 0.579725 0.255845
9323.173828 6637.215820 5033.646973 -0.773604 0.579725 0.255845
9131.547852 6219.888184 5399.855469 -0.773604 0.579725 0.255845
9291.352539 5658.335938 5278.403809 -0.540959 -0.800691 -0.257404
8940.442383 5820.645020 5510.988770 -0.540959 -0.800691 -0.257404
9028.437500 5829.056152 5299.895020 -0.540959 -0.800691 -0.257404
9028.437500 5829.056152 5299.895020 -0.284875 0.955162 -0.080692
8940.442383 5820.645020 5510.988770 -0.284875 0.955162 -0.080692
9377.626953 5953.786621 5543.565918 -0.284875 0.955162 -0.080692
9397.887695 6199.038086 5547.479004 -0.690844 0.231505 0.684938
8876.947266 5900.129883 5123.076172 -0.690844 0.231505 0.684938
9028.437500 5829.056152 5299.895020 -0.690844 0.231505 0.684938
9486.685547 6491.831543 4981.057617 0.878442 0.471651 -0.076718
9863.429688 5870.160645 5472.940918 0.878442 0.471651 -0.076718
9832.688477 5898.570801 5295.607422 0.878442 0.471651 -0.076718
9529.766602 6370.515137 5770.788086 0.751475 0.659172 0.027881
9571.183594 6334.424805 5507.738281 0.751475 0.659172 0.027881
9323.173828 6637.215820 5033.646973 0.751475 0.659172 0.027881
9486.685547 6491.831543 4981.057617 0.846841 0.531352 0.022940
9571.183594 6334.424805 5507.738281 0.846841 0.531352 0.022940
9863.429688 5870.160645 5472.940918 0.846841 0.531352 0.022940
8940.442383 5820.645020 5510.988770 -0.000918 0.240514 -0.970645
9109.813477 6065.688965 5571.547363 -0.000918 0.240514 -0.970645
9377.626953 5953.786621 5543.565918 -0.000918 0.240514 -0.970645
9397.887695 6199.038086 5547.479004 0.630998 -0.753534 0.184469
9028.437500 5829.056152 5299.895020 0.630998 -0.753534 0.184469
9571.183594 6334.424805 5507.738281 0.630998 -0.753534 0.184469
9377.626953 5953.786621 5543.565918 -0.616795 0.378599 0.690092
9571.183594 6334.424805 5507.738281 -0.616795 0.378599 0.690092
9028.437500 5829.056152 5299.895020 -0.616795 0.378599 0.690092
9397.887695 6199.038086 5547.479004 0.286388 -0.730568 -0.619881
9109.813477 6065.688965 5571.547363 0.286388 -0.730568 -0.619881
9131.547852 6219.888184 5399.855469 0.286388 -0.730568 -0.619881
9576.868164 6201.920898 5596.981445 -0.664683 0.397537 0.632582
9571.183594 6334.424805 5507.738281 -0.664683 0.397537 0.632582
9377.626953 5953.786621 5543.565918 -0.664683 0.397537 0.632582
9863.429688 5870.160645 5472.940918 0.827410 0.501963 0.251846
9571.183594 6334.424805 5507.738281 0.827410 0.501963 0.251846
9679.764648 6072.579102 5672.902832 0.827410 0.501963 0.251846
9571.183594 6334.424805 5507.738281 0.094713 0.558906 0.823804
9576.868164 6201.920898 5596.981445 0.094713 0.558906 0.823804
9679.764648 6072.579102 5672.902832 0.094713 0.558906 0.823804
9863.429688 5870.160645 5472.940918 0.258321 -0.931807 0.254964
9445.153320 5808.523438 5671.461426 0.258321 -0.931807 0.254964
9291.352539 5658.335938 5278.403809 0.258321 -0.931807 0.254964
9397.887695 6199.038086 5547.479004 0.631299 -0.748737 0.202124
9571.183594 6334.424805 5507.738281 0.631299 -0.748737 0.202124
9529.766602 6370.515137 5770.788086 0.631299 -0.748737 0.202124
9445.153320 5808.523438 5671.461426 -0.149990 -0.902574 0.403564
8940.442383 5820.645020 5510.988770 -0.149990 -0.902574 0.403564
9291.352539 5658.335938 5278.403809 -0.149990 -0.902574 0.403564
9377.626953 5953.786621 5543.565918 -0.094104 0.023654 -0.995281
9109.813477 6065.688965 5571.547363 -0.094104 0.023654 -0.995281
9397.887695 6199.038086 5547.479004 -0.094104 0.023654 -0.995281
9576.868164 6201.920898 5596.981445 0.266666 -0.006653 -0.963766
9377.626953 5953.786621 5543.565918 0.266666 -0.006653 -0.963766
9397.887695 6199.038086 5547.479004 0.266666 -0.006653 -0.963766
9404.235352 6456.125488 5689.091309 -0.796377 0.496610 0.345200
9131.547852 6219.888184 5399.855469 -0.796377 0.496610 0.345200
9109.813477 6065.688965 5571.547363 -0.796377 0.496610 0.345200
9397.887695 6199.038086 5547.479004 0.171248 0.729974 -0.661674
9529.766602 6370.515137 5770.788086 0.171248 0.729974 -0.661674
9576.868164 6201.920898 5596.981445 0.171248 0.729974 -0.661674
8940.442383 5820.645020 5510.988770 -0.168677 -0.869167 0.464861
9445.153320 5808.523438 5671.461426 -0.168677 -0.869167 0.464861
9090.016602 5880.864258 5677.856445 -0.168677 -0.869167 0.464861
9445.153320 5808.523438 5671.461426 0.440701 -0.395957 0.805606
9863.429688 5870.160645 5472.940918 0.440701 -0.395957 0.805606
9679.764648 6072.579102 5672.902832 0.440701 -0.395957 0.805606
9109.813477 6065.688965 5571.547363 -0.751563 0.387547 0.533817
8940.442383 5820.645020 5510.988770 -0.751563 0.387547 0.533817
9090.016602 5880.864258 5677.856445 -0.751563 0.387547 0.533817
9109.813477 6065.688965 5571.547363 -0.739633 0.393336 0.546104
9090.016602 5880.864258 5677.856445 -0.739633 0.393336 0.546104
9404.235352 6456.125488 5689.091309 -0.739633 0.393336 0.546104
9576.868164 6201.920898 5596.981445 0.824288 0.501392 -0.262974
9529.766602 6370.515137 5770.788086 0.824288 0.501392 -0.262974
9679.764648 6072.579102 5672.902832 0.824288 0.501392 -0.262974
9090.016602 5880.864258 5677.856445 -0.190301 -0.899448 -0.393419
9445.153320 5808.523438 5671.461426 -0.190301 -0.899448 -0.393419
8944.401367 5817.746094 5892.594727 -0.190301 -0.899448 -0.393419
9151.957031 6144.274414 5830.343262 -0.785771 0.437737 -0.436979
9404.235352 6456.125488 5689.091309 -0.785771 0.437737 -0.436979
9090.016602 5880.864258 5677.856445 -0.785771 0.437737 -0.436979
9615.372070 6247.165527 5850.508301 0.857346 0.486696 -0.167584
9679.764648 6072.579102 5672.902832 0.857346 0.486696 -0.167584
9529.766602 6370.515137 5770.788086 0.857346 0.486696 -0.167584
9090.016602 5880.864258 5677.856445 -0.801000 0.429676 -0.416867
8944.401367 5817.746094 5892.594727 -0.801000 0.429676 -0.416867
9151.957031 6144.274414 5830.343262 -0.801000 0.429676 -0.416867
9885.857422 5907.665527 5912.946777 0.505266 -0.444888 -0.739447
9445.153320 5808.523438 5671.461426 0.505266 -0.444888 -0.739447
9679.764648 6072.579102 5672.902832 0.505266 -0.444888 -0.739447
9679.764648 6072.579102 5672.902832 0.775789 0.567260 -0.276348
9615.372070 6247.165527 5850.508301 0.775789 0.567260 -0.276348
9885.857422 5907.665527 5912.946777 0.775789 0.567260 -0.276348
9445.153320 5808.523438 5671.461426 -0.188124 -0.902092 -0.388380
9372.744141 5668.245117 6032.360352 -0.188124 -0.902092 -0.388380
8944.401367 5817.746094 5892.594727 -0.188124 -0.902092 -0.388380
9151.957031 6144.274414 5830.343262 0.078801 0.138131 0.987274
8944.401367 5817.746094 5892.594727 0.078801 0.138131 0.987274
9407.334961 5959.122559 5835.864746 0.078801 0.138131 0.987274
9407.334961 5959.122559 5835.864746 0.075640 0.133796 0.988118
9529.766602 6370.515137 5770.788086 0.075640 0.133796 0.988118
9151.957031 6144.274414 5830.343262 0.075640 0.133796 0.988118
9529.766602 6370.515137 5770.788086 0.375012 -0.764334 -0.524557
9544.882812 6328.510254 5842.800293 0.375012 -0.764334 -0.524557
9151.957031 6144.274414 5830.343262 0.375012 -0.764334 -0.524557
9529.766602 6370.515137 5770.788086 -0.426005 0.263681 0.865443
9407.334961 5959.122559 5835.864746 -0.426005 0.263681 0.865443
9615.372070 6247.165527 5850.508301 -0.426005 0.263681 0.865443
9151.957031 6144.274414 5830.343262 -0.743155 0.657478 0.124271
9181.751953 6151.454590 5970.532715 -0.743155 0.657478 0.124271
9404.235352 6456.125488 5689.091309 -0.743155 0.657478 0.124271
9151.957031 6144.274414 5830.343262 0.425265 -0.903995 -0.044082
9544.882812 6328.510254 5842.800293 0.425265 -0.903995 -0.044082
9181.751953 6151.454590 5970.532715 0.425265 -0.903995 -0.044082
9445.153320 5808.523438 5671.461426 0.352703 -0.893894 -0.276684
9885.857422 5907.665527 5912.946777 0.352703 -0.893894 -0.276684
9372.744141 5668.245117 6032.360352 0.352703 -0.893894 -0.276684
9017.656250 5768.923828 6110.916992 -0.246914 0.924738 0.289643
9407.334961 5959.122559 5835.864746 -0.246914 0.924738 0.289643
8944.401367 5817.746094 5892.594727 -0.246914 0.924738 0.289643
9407.334961 5959.122559 5835.864746 0.091246 -0.015282 -0.995711
9544.882812 6328.510254 5842.800293 0.091246 -0.015282 -0.995711
9615.372070 6247.165527 5850.508301 0.091246 -0.015282 -0.995711
9407.334961 5959.122559 5835.864746 -0.397943 0.165125 -0.902427
9181.751953 6151.454590 5970.532715 -0.397943 0.165125 -0.902427
9544.882812 6328.510254 5842.800293 -0.397943 0.165125 -0.902427
9615.372070 6247.165527 5850.508301 0.632638 0.595167 0.495526
9544.882812 6328.510254 5842.800293 0.632638 0.595167 0.495526
9885.857422 5907.665527 5912.946777 0.632638 0.595167 0.495526
9407.334961 5959.122559 5835.864746 -0.553175 -0.067424 -0.830332
9017.656250 5768.923828 6110.916992 -0.553175 -0.067424 -0.830332
9181.751953 6151.454590 5970.532715 -0.553175 -0.067424 -0.830332
9017.656250 5768.923828 6110.916992 -0.294179 -0.948986 -0.113509
8944.401367 5817.746094 5892.594727 -0.294179 -0.948986 -0.113509
9372.744141 5668.245117 6032.360352 -0.294179 -0.948986 -0.113509
9885.857422 5907.665527 5912.946777 0.415122 -0.908945 -0.038651
9819.313477 5870.291992 6077.148926 0.415122 -0.908945 -0.038651
9372.744141 5668.245117 6032.360352 0.415122 -0.908945 -0.038651
9529.766602 6370.515137 5770.788086 0.297845 0.850477 0.433564
9404.235352 6456.125488 5689.091309 0.297845 0.850477 0.433564
9544.882812 6328.510254 5842.800293 0.297845 0.850477 0.433564
9325.342773 6640.857910 6339.028320 -0.727670 0.535884 -0.428164
9181.751953 6151.454590 5970.532715 -0.727670 0.535884 -0.428164
8903.084961 5959.328125 6203.667969 -0.727670 0.535884 -0.428164
9885.857422 5907.665527 5912.946777 0.779972 0.623995 -0.047696
9544.882812 6328.510254 5842.800293 0.779972 0.623995 -0.047696
9325.342773 6640.857910 6339.028320 0.779972 0.623995 -0.047696
9325.342773 6640.857910 6339.028320 -0.874520 0.428139 -0.227844
9404.235352 6456.125488 5689.091309 -0.874520 0.428139 -0.227844
9181.751953 6151.454590 5970.532715 -0.874520 0.428139 -0.227844
9544.882812 6328.510254 5842.800293 0.728309 0.677295 -0.104103
9404.235352 6456.125488 5689.091309 0.728309 0.677295 -0.104103
9325.342773 6640.857910 6339.028320 0.728309 0.677295 -0.104103
9017.656250 5768.923828 6110.916992 -0.638040 -0.008861 -0.769953
8903.084961 5959.328125 6203.667969 -0.638040 -0.008861 -0.769953
9181.751953 6151.454590 5970.532715 -0.638040 -0.008861 -0.769953
9885.857422 5907.665527 5912.946777 0.875992 0.250688 0.412060
9365.714844 6547.120117 6629.681641 0.875992 0.250688 0.412060
9819.313477 5870.291992 6077.148926 0.875992 0.250688 0.412060
9885.857422 5907.665527 5912.946777 0.812477 0.578321 0.073659
9325.342773 6640.857910 6339.028320 0.812477 0.578321 0.073659
9365.714844 6547.120117 6629.681641 0.812477 0.578321 0.073659
8903.084961 5959.328125 6203.667969 -0.838255 0.537541 -0.091537
8875.986328 5996.943848 6672.716797 -0.838255 0.537541 -0.091537
9325.342773 6640.857910 6339.028320 -0.838255 0.537541 -0.091537
8875.986328 5996.943848 6672.716797 -0.828800 -0.559256 0.017988
9017.656250 5768.923828 6110.916992 -0.828800 -0.559256 0.017988
8950.897461 5888.802246 6762.078125 -0.828800 -0.559256 0.017988
9017.656250 5768.923828 6110.916992 -0.238301 -0.959198 0.152157
9372.744141 5668.245117 6032.360352 -0.238301 -0.959198 0.152157
8950.897461 5888.802246 6762.078125 -0.238301 -0.959198 0.152157
9017.656250 5768.923828 6110.916992 -0.858633 -0.512520 -0.008504
8875.986328 5996.943848 6672.716797 -0.858633 -0.512520 -0.008504
8903.084961 5959.328125 6203.667969 -0.858633 -0.512520 -0.008504
9058.561523 5984.716797 6827.024902 0.687056 -0.124012 0.715944
9819.313477 5870.291992 6077.148926 0.687056 -0.124012 0.715944
9365.714844 6547.120117 6629.681641 0.687056 -0.124012 0.715944
9173.788086 6317.340820 6420.562012 -0.748800 0.538156 0.386894
9080.261719 6203.209473 6398.302246 -0.748800 0.538156 0.386894
9129.365234 6222.740234 6466.171387 -0.748800 0.538156 0.386894
9080.261719 6203.209473 6398.302246 0.748800 -0.538156 -0.386894
9173.788086 6317.340820 6420.562012 0.748800 -0.538156 -0.386894
9129.365234 6222.740234 6466.171387 0.748800 -0.538156 -0.386894
9372.744141 5668.245117 6032.360352 0.332128 -0.832413 0.443599
9819.313477 5870.291992 6077.148926 0.332128 -0.832413 0.443599
8950.897461 5888.802246 6762.078125 0.332128 -0.832413 0.443599
9819.313477 5870.291992 6077.148926 0.382893 -0.772661 0.506348
9058.561523 5984.716797 6827.024902 0.382893 -0.772661 0.506348
8950.897461 5888.802246 6762.078125 0.382893 -0.772661 0.506348
8875.986328 5996.943848 6672.716797 -0.699229 0.646306 0.305562
9365.714844 6547.120117 6629.681641 -0.699229 0.646306 0.305562
9325.342773 6640.857910 6339.028320 -0.699229 0.646306 0.305562
8875.986328 5996.943848 6672.716797 -0.529314 0.523390 0.667749
9058.561523 5984.716797 6827.024902 -0.529314 0.523390 0.667749
9365.714844 6547.120117 6629.681641 -0.529314 0.523390 0.667749
8875.986328 5996.943848 6672.716797 -0.626138 0.190950 0.755969
8950.897461 5888.802246 6762.078125 -0.626138 0.190950 0.755969
9058.561523 5984.716797 6827.024902 -0.626138 0.190950 0.755969
3 0 1 2
3 3 4 5
3 6 7 8
3 9 10 11
3 12 13 14
3 15 16 17
3 18 19 20
3 21 22 23
3 24 25 26
3 27 28 29
3 30 31 32
3 33 34 35
3 36 37 38
3 39 40 41
3 42 43 44
3 45 46 47
3 48 49 50
3 51 52 53
3 54 55 56
3 57 58 59
3 60 61 62
3 63 64 65
3 66 67 68
3 69 70 71
3 72 73 74
3 75 76 77
3 78 79 80
3 81 82 83
3 84 85 86
3 87 88 89
3 90 91 92
3 93 94 95
3 96 97 98
3 99 100 101
3 102 103 104
3 105 106 107
3 108 109 110
3 111 112 113
3 114 115 116
3 117 118 119
3 120 121 122
3 123 124 125
3 126 127 128
3 129 130 131
3 132 133 134
3 135 136 137
3 138 139 140
3 141 142 143
3 144 145 146
3 147 148 149
3 150 151 152
3 153 154 155
3 156 157 158
3 159 160 161
3 162 163 164
3 165 166 167
3 168 169 170
3 171 172 173
3 174 175 176
3 177 178 179
3 180 181 182
3 183 184 185
3 186 187 188
3 189 190 191
3 192 193 194
3 195 196 197
3 198 199 200
3 201 202 203
3 204 205 206
3 207 208 209
3 210 211 212
3 213 214 215
3 216 217 218
3 219 220 221
3 222 223 224
3 225 226 227
3 228 229 230
3 231 232 233
3 234 235 236
3 237 238 239
3 240 241 242
3 243 244 245
