ply
format ascii 1.0
comment Created by Blender 2.80 (sub 75) - www.blender.org, source file: 'downsample_ccf.blend'
element vertex 210
property float x
property float y
property float z
property float nx
property float ny
property float nz
element face 70
property list uchar uint vertex_indices
end_header
3113.019287 6177.973145 4838.163574 -0.046703 -0.128967 -0.990549
2612.988037 6174.500000 4862.191406 -0.046703 -0.128967 -0.990549
3162.731934 6426.502441 4803.461914 -0.046703 -0.128967 -0.990549
3113.019287 6177.973145 4838.163574 -0.037389 -0.520142 -0.853261
2629.445312 5790.547852 5095.524902 -0.037389 -0.520142 -0.853261
2612.988037 6174.500000 4862.191406 -0.037389 -0.520142 -0.853261
3162.731934 6426.502441 4803.461914 0.666306 -0.232219 -0.708598
3429.670410 6166.449219 5139.692383 0.666306 -0.232219 -0.708598
3113.019287 6177.973145 4838.163574 0.666306 -0.232219 -0.708598
2612.988037 6174.500000 4862.191406 -0.412259 0.796094 -0.443031
2606.236816 6267.636230 5035.832520 -0.412259 0.796094 -0.443031
3162.731934 6426.502441 4803.461914 -0.412259 0.796094 -0.443031
3429.670410 6166.449219 5139.692383 0.646555 -0.322580 -0.691310
3474.517578 5841.110840 5333.446289 0.646555 -0.322580 -0.691310
3113.019287 6177.973145 4838.163574 0.646555 -0.322580 -0.691310
3429.670410 6166.449219 5139.692383 0.841925 0.408709 -0.352306
3162.731934 6426.502441 4803.461914 0.841925 0.408709 -0.352306
3323.545654 6469.149902 5237.242188 0.841925 0.408709 -0.352306
3162.731934 6426.502441 4803.461914 -0.391050 0.848581 -0.356356
2606.236816 6267.636230 5035.832520 -0.391050 0.848581 -0.356356
3152.309570 6563.908691 5142.100586 -0.391050 0.848581 -0.356356
2629.445312 5790.547852 5095.524902 -0.992941 -0.089714 -0.077591
2578.963379 6224.683594 5239.582031 -0.992941 -0.089714 -0.077591
2612.988037 6174.500000 4862.191406 -0.992941 -0.089714 -0.077591
2612.988037 6174.500000 4862.191406 -0.986470 0.125394 -0.105612
2578.963379 6224.683594 5239.582031 -0.986470 0.125394 -0.105612
2606.236816 6267.636230 5035.832520 -0.986470 0.125394 -0.105612
3474.517578 5841.110840 5333.446289 0.227692 -0.719813 -0.655763
2629.445312 5790.547852 5095.524902 0.227692 -0.719813 -0.655763
3113.019287 6177.973145 4838.163574 0.227692 -0.719813 -0.655763
3152.309570 6563.908691 5142.100586 0.581770 0.759755 -0.290373
3323.545654 6469.149902 5237.242188 0.581770 0.759755 -0.290373
3162.731934 6426.502441 4803.461914 0.581770 0.759755 -0.290373
2606.236816 6267.636230 5035.832520 -0.491036 0.863345 0.116274
2578.963379 6224.683594 5239.582031 -0.491036 0.863345 0.116274
3152.309570 6563.908691 5142.100586 -0.491036 0.863345 0.116274
2629.445312 5790.547852 5095.524902 0.185310 -0.860014 -0.475433
3474.517578 5841.110840 5333.446289 0.185310 -0.860014 -0.475433
2931.458008 5707.219727 5363.973633 0.185310 -0.860014 -0.475433
2931.458008 5707.219727 5363.973633 0.177776 -0.838497 -0.515090
3474.517578 5841.110840 5333.446289 0.177776 -0.838497 -0.515090
3306.975586 5732.333008 5452.697266 0.177776 -0.838497 -0.515090
3185.642090 6466.548828 5370.390625 0.306768 0.890833 0.335126
3323.545654 6469.149902 5237.242188 0.306768 0.890833 0.335126
3152.309570 6563.908691 5142.100586 0.306768 0.890833 0.335126
3429.670410 6166.449219 5139.692383 0.936958 0.345455 -0.052639
3323.545654 6469.149902 5237.242188 0.936958 0.345455 -0.052639
3447.426025 6174.868652 5510.994141 0.936958 0.345455 -0.052639
2629.445312 5790.547852 5095.524902 -0.388784 -0.908110 0.155511
2931.458008 5707.219727 5363.973633 -0.388784 -0.908110 0.155511
2792.602539 5799.427246 5555.276367 -0.388784 -0.908110 0.155511
2578.963379 6224.683594 5239.582031 -0.412646 0.814583 0.407649
3185.642090 6466.548828 5370.390625 -0.412646 0.814583 0.407649
3152.309570 6563.908691 5142.100586 -0.412646 0.814583 0.407649
2629.445312 5790.547852 5095.524902 -0.918757 -0.216413 0.330229
2792.602539 5799.427246 5555.276367 -0.918757 -0.216413 0.330229
2578.963379 6224.683594 5239.582031 -0.918757 -0.216413 0.330229
3525.528320 5515.516602 5460.683594 -0.353824 -0.388005 -0.851035
3306.975586 5732.333008 5452.697266 -0.353824 -0.388005 -0.851035
3474.517578 5841.110840 5333.446289 -0.353824 -0.388005 -0.851035
3547.637695 5643.612793 5652.834961 0.975090 0.002323 -0.221799
3474.517578 5841.110840 5333.446289 0.975090 0.002323 -0.221799
3429.670410 6166.449219 5139.692383 0.975090 0.002323 -0.221799
2792.602539 5799.427246 5555.276367 -0.922991 -0.240935 0.300063
2703.334229 6046.543457 5479.108887 -0.922991 -0.240935 0.300063
2578.963379 6224.683594 5239.582031 -0.922991 -0.240935 0.300063
3547.637695 5643.612793 5652.834961 0.991584 -0.125898 -0.030165
3528.149414 5502.533691 5601.031250 0.991584 -0.125898 -0.030165
3525.528320 5515.516602 5460.683594 0.991584 -0.125898 -0.030165
3525.528320 5515.516602 5460.683594 0.981441 0.086974 -0.170907
3474.517578 5841.110840 5333.446289 0.981441 0.086974 -0.170907
3547.637695 5643.612793 5652.834961 0.981441 0.086974 -0.170907
3185.642090 6466.548828 5370.390625 -0.394798 0.627159 0.671421
2578.963379 6224.683594 5239.582031 -0.394798 0.627159 0.671421
2703.334229 6046.543457 5479.108887 -0.394798 0.627159 0.671421
3429.670410 6166.449219 5139.692383 0.983784 0.171971 -0.050944
3447.426025 6174.868652 5510.994141 0.983784 0.171971 -0.050944
3547.637695 5643.612793 5652.834961 0.983784 0.171971 -0.050944
2703.334229 6046.543457 5479.108887 -0.316654 0.561512 0.764483
3202.495117 6079.222656 5661.861816 -0.316654 0.561512 0.764483
3185.642090 6466.548828 5370.390625 -0.316654 0.561512 0.764483
3323.545654 6469.149902 5237.242188 0.492740 0.694785 0.523910
3185.642090 6466.548828 5370.390625 0.492740 0.694785 0.523910
3447.426025 6174.868652 5510.994141 0.492740 0.694785 0.523910
3447.426025 6174.868652 5510.994141 0.243807 0.589895 0.769794
3185.642090 6466.548828 5370.390625 0.243807 0.589895 0.769794
3202.495117 6079.222656 5661.861816 0.243807 0.589895 0.769794
3306.975586 5732.333008 5452.697266 -0.704315 -0.709885 0.001927
3525.528320 5515.516602 5460.683594 -0.704315 -0.709885 0.001927
3286.559082 5753.167969 5665.851074 -0.704315 -0.709885 0.001927
3525.528320 5515.516602 5460.683594 -0.725502 -0.686405 -0.049947
3528.149414 5502.533691 5601.031250 -0.725502 -0.686405 -0.049947
3286.559082 5753.167969 5665.851074 -0.725502 -0.686405 -0.049947
3286.559082 5753.167969 5665.851074 -0.161192 -0.929718 0.331122
2792.602539 5799.427246 5555.276367 -0.161192 -0.929718 0.331122
2931.458008 5707.219727 5363.973633 -0.161192 -0.929718 0.331122
3306.975586 5732.333008 5452.697266 0.042554 -0.993952 0.101231
3286.559082 5753.167969 5665.851074 0.042554 -0.993952 0.101231
2931.458008 5707.219727 5363.973633 0.042554 -0.993952 0.101231
3202.495117 6079.222656 5661.861816 -0.348591 0.158791 0.923726
2703.334229 6046.543457 5479.108887 -0.348591 0.158791 0.923726
2792.602539 5799.427246 5555.276367 -0.348591 0.158791 0.923726
2792.602539 5799.427246 5555.276367 -0.222270 -0.045390 0.973928
3286.559082 5753.167969 5665.851074 -0.222270 -0.045390 0.973928
3202.495117 6079.222656 5661.861816 -0.222270 -0.045390 0.973928
3286.559082 5753.167969 5665.851074 -0.092485 -0.331933 0.938758
3528.149414 5502.533691 5601.031250 -0.092485 -0.331933 0.938758
3547.637695 5643.612793 5652.834961 -0.092485 -0.331933 0.938758
3547.637695 5643.612793 5652.834961 0.409502 0.306652 0.859228
3447.426025 6174.868652 5510.994141 0.409502 0.306652 0.859228
3202.495117 6079.222656 5661.861816 0.409502 0.306652 0.859228
3547.637695 5643.612793 5652.834961 0.061519 0.028068 0.997711
3202.495117 6079.222656 5661.861816 0.061519 0.028068 0.997711
3286.559082 5753.167969 5665.851074 0.061519 0.028068 0.997711
3519.380371 5679.390625 5704.212891 -0.113780 -0.036313 -0.992842
2815.637695 5820.156738 5779.713867 -0.113780 -0.036313 -0.992842
3361.216797 6009.827148 5710.252930 -0.113780 -0.036313 -0.992842
3539.577637 5516.932617 5769.259766 -0.184499 -0.385006 -0.904285
3282.234619 5718.944336 5735.756836 -0.184499 -0.385006 -0.904285
3519.380371 5679.390625 5704.212891 -0.184499 -0.385006 -0.904285
3282.234619 5718.944336 5735.756836 -0.202969 -0.599436 -0.774261
2815.637695 5820.156738 5779.713867 -0.202969 -0.599436 -0.774261
3519.380371 5679.390625 5704.212891 -0.202969 -0.599436 -0.774261
3361.216797 6009.827148 5710.252930 -0.187985 0.187669 -0.964076
2815.637695 5820.156738 5779.713867 -0.187985 0.187669 -0.964076
3072.078613 6198.210449 5803.303223 -0.187985 0.187669 -0.964076
3282.234619 5718.944336 5735.756836 -0.603803 -0.788542 -0.116719
3539.577637 5516.932617 5769.259766 -0.603803 -0.788542 -0.116719
3514.066162 5515.387695 5911.671875 -0.603803 -0.788542 -0.116719
3072.078613 6198.210449 5803.303223 0.150198 0.613480 -0.775295
3369.134033 6420.358887 6036.634766 0.150198 0.613480 -0.775295
3361.216797 6009.827148 5710.252930 0.150198 0.613480 -0.775295
3361.216797 6009.827148 5710.252930 0.778166 0.381588 -0.498848
3369.134033 6420.358887 6036.634766 0.778166 0.381588 -0.498848
3519.380371 5679.390625 5704.212891 0.778166 0.381588 -0.498848
3309.065674 5746.655762 5979.040527 -0.716045 -0.680293 0.156460
3282.234619 5718.944336 5735.756836 -0.716045 -0.680293 0.156460
3514.066162 5515.387695 5911.671875 -0.716045 -0.680293 0.156460
3539.577637 5516.932617 5769.259766 0.992578 0.121517 -0.004703
3519.380371 5679.390625 5704.212891 0.992578 0.121517 -0.004703
3501.653809 5836.851074 6031.520020 0.992578 0.121517 -0.004703
2815.637695 5820.156738 5779.713867 -0.225865 -0.952465 -0.204440
3282.234619 5718.944336 5735.756836 -0.225865 -0.952465 -0.204440
2665.717773 5753.723145 6254.852539 -0.225865 -0.952465 -0.204440
2602.650146 6072.113281 6009.719238 -0.454836 0.359368 -0.814849
3072.078613 6198.210449 5803.303223 -0.454836 0.359368 -0.814849
2815.637695 5820.156738 5779.713867 -0.454836 0.359368 -0.814849
3539.577637 5516.932617 5769.259766 0.984007 -0.027612 0.175974
3501.653809 5836.851074 6031.520020 0.984007 -0.027612 0.175974
3514.066162 5515.387695 5911.671875 0.984007 -0.027612 0.175974
3501.653809 5836.851074 6031.520020 0.973649 0.221597 -0.053874
3519.380371 5679.390625 5704.212891 0.973649 0.221597 -0.053874
3369.134033 6420.358887 6036.634766 0.973649 0.221597 -0.053874
3369.134033 6420.358887 6036.634766 -0.013095 0.732461 -0.680684
3072.078613 6198.210449 5803.303223 -0.013095 0.732461 -0.680684
3117.784668 6554.286621 6185.585449 -0.013095 0.732461 -0.680684
3072.078613 6198.210449 5803.303223 -0.451720 0.598312 -0.661794
2602.650146 6072.113281 6009.719238 -0.451720 0.598312 -0.661794
2655.855957 6319.618164 6197.165527 -0.451720 0.598312 -0.661794
3282.234619 5718.944336 5735.756836 0.035899 -0.993372 0.109192
3309.065674 5746.655762 5979.040527 0.035899 -0.993372 0.109192
2665.717773 5753.723145 6254.852539 0.035899 -0.993372 0.109192
3501.653809 5836.851074 6031.520020 0.970532 0.219546 0.099339
3369.134033 6420.358887 6036.634766 0.970532 0.219546 0.099339
3373.246338 6268.998535 6330.973633 0.970532 0.219546 0.099339
3514.066162 5515.387695 5911.671875 -0.089623 -0.350963 0.932090
3501.653809 5836.851074 6031.520020 -0.089623 -0.350963 0.932090
3309.065674 5746.655762 5979.040527 -0.089623 -0.350963 0.932090
3117.784668 6554.286621 6185.585449 -0.371442 0.701124 -0.608651
3072.078613 6198.210449 5803.303223 -0.371442 0.701124 -0.608651
2655.855957 6319.618164 6197.165527 -0.371442 0.701124 -0.608651
2815.637695 5820.156738 5779.713867 -0.847522 -0.418858 -0.325982
2665.717773 5753.723145 6254.852539 -0.847522 -0.418858 -0.325982
2602.650146 6072.113281 6009.719238 -0.847522 -0.418858 -0.325982
3501.653809 5836.851074 6031.520020 0.212883 -0.789495 0.575654
3059.335449 6031.462891 6461.999023 0.212883 -0.789495 0.575654
3309.065674 5746.655762 5979.040527 0.212883 -0.789495 0.575654
3309.065674 5746.655762 5979.040527 0.241188 -0.776242 0.582475
3059.335449 6031.462891 6461.999023 0.241188 -0.776242 0.582475
2665.717773 5753.723145 6254.852539 0.241188 -0.776242 0.582475
2665.717773 5753.723145 6254.852539 -0.984767 -0.171063 0.031175
2601.198242 6173.453613 6519.933594 -0.984767 -0.171063 0.031175
2602.650146 6072.113281 6009.719238 -0.984767 -0.171063 0.031175
2602.650146 6072.113281 6009.719238 -0.967556 0.247276 -0.051868
2601.198242 6173.453613 6519.933594 -0.967556 0.247276 -0.051868
2655.855957 6319.618164 6197.165527 -0.967556 0.247276 -0.051868
2655.855957 6319.618164 6197.165527 -0.423904 0.849875 0.313079
2601.198242 6173.453613 6519.933594 -0.423904 0.849875 0.313079
3117.784668 6554.286621 6185.585449 -0.423904 0.849875 0.313079
3369.134033 6420.358887 6036.634766 0.561950 0.793017 0.235237
3117.784668 6554.286621 6185.585449 0.561950 0.793017 0.235237
3144.209717 6418.815430 6579.151367 0.561950 0.793017 0.235237
3369.134033 6420.358887 6036.634766 0.730068 0.611823 0.304423
3144.209717 6418.815430 6579.151367 0.730068 0.611823 0.304423
3373.246338 6268.998535 6330.973633 0.730068 0.611823 0.304423
2665.717773 5753.723145 6254.852539 -0.061081 -0.539674 0.839655
3059.335449 6031.462891 6461.999023 -0.061081 -0.539674 0.839655
2601.198242 6173.453613 6519.933594 -0.061081 -0.539674 0.839655
3117.784668 6554.286621 6185.585449 -0.418850 0.849590 0.320564
2601.198242 6173.453613 6519.933594 -0.418850 0.849590 0.320564
3144.209717 6418.815430 6579.151367 -0.418850 0.849590 0.320564
3501.653809 5836.851074 6031.520020 0.579273 -0.340937 0.740408
3373.246338 6268.998535 6330.973633 0.579273 -0.340937 0.740408
3144.209717 6418.815430 6579.151367 0.579273 -0.340937 0.740408
3501.653809 5836.851074 6031.520020 0.569826 -0.349759 0.743618
3144.209717 6418.815430 6579.151367 0.569826 -0.349759 0.743618
3059.335449 6031.462891 6461.999023 0.569826 -0.349759 0.743618
3059.335449 6031.462891 6461.999023 0.029260 -0.295238 0.954976
3144.209717 6418.815430 6579.151367 0.029260 -0.295238 0.954976
2601.198242 6173.453613 6519.933594 0.029260 -0.295238 0.954976
3 0 1 2
3 3 4 5
3 6 7 8
3 9 10 11
3 12 13 14
3 15 16 17
3 18 19 20
3 21 22 23
3 24 25 26
3 27 28 29
3 30 31 32
3 33 34 35
3 36 37 38
3 39 40 41
3 42 43 44
3 45 46 47
3 48 49 50
3 51 52 53
3 54 55 56
3 57 58 59
3 60 61 62
3 63 64 65
3 66 67 68
3 69 70 71
3 72 73 74
3 75 76 77
3 78 79 80
3 81 82 83
3 84 85 86
3 87 88 89
3 90 91 92
3 93 94 95
3 96 97 98
3 99 100 101
3 102 103 104
3 105 106 107
3 108 109 110
3 111 112 113
3 114 115 116
3 117 118 119
3 120 121 122
3 123 124 125
3 126 127 128
3 129 130 131
3 132 133 134
3 135 136 137
3 138 139 140
3 141 142 143
3 144 145 146
3 147 148 149
3 150 151 152
3 153 154 155
3 156 157 158
3 159 160 161
3 162 163 164
3 165 166 167
3 168 169 170
3 171 172 173
3 174 175 176
3 177 178 179
3 180 181 182
3 183 184 185
3 186 187 188
3 189 190 191
3 192 193 194
3 195 196 197
3 198 199 200
3 201 202 203
3 204 205 206
3 207 208 209
