ply
format ascii 1.0
comment Created by Blender 2.80 (sub 75) - www.blender.org, source file: 'downsample_ccf.blend'
element vertex 132
property float x
property float y
property float z
property float nx
property float ny
property float nz
element face 44
property list uchar uint vertex_indices
end_header
7277.171387 1095.869263 3101.322754 -0.124797 0.592686 -0.795706
7171.860352 1039.142700 3075.586426 -0.124797 0.592686 -0.795706
7138.343262 1078.968384 3110.507568 -0.124797 0.592686 -0.795706
7277.171387 1095.869263 3101.322754 0.157974 0.149552 -0.976052
7640.282715 971.292419 3141.004639 0.157974 0.149552 -0.976052
7171.860352 1039.142700 3075.586426 0.157974 0.149552 -0.976052
7640.282715 971.292419 3141.004639 -0.015618 -0.747788 -0.663754
7446.590332 911.188660 3213.275391 -0.015618 -0.747788 -0.663754
7171.860352 1039.142700 3075.586426 -0.015618 -0.747788 -0.663754
7681.503418 962.703125 3260.776611 0.328619 0.943369 -0.045445
7640.282715 971.292419 3141.004639 0.328619 0.943369 -0.045445
7277.171387 1095.869263 3101.322754 0.328619 0.943369 -0.045445
7706.653809 874.487122 3368.211182 0.122755 -0.899584 -0.419142
7446.590332 911.188660 3213.275391 0.122755 -0.899584 -0.419142
7640.282715 971.292419 3141.004639 0.122755 -0.899584 -0.419142
7138.343262 1078.968384 3110.507568 -0.119122 0.992543 0.025844
7093.882812 1068.880493 3293.006348 -0.119122 0.992543 0.025844
7277.171387 1095.869263 3101.322754 -0.119122 0.992543 0.025844
7093.882812 1068.880493 3293.006348 0.185497 0.932889 0.308722
7681.503418 962.703125 3260.776611 0.185497 0.932889 0.308722
7277.171387 1095.869263 3101.322754 0.185497 0.932889 0.308722
7171.860352 1039.142700 3075.586426 -0.843699 -0.364439 -0.394154
7007.570312 922.343567 3535.248047 -0.843699 -0.364439 -0.394154
7138.343262 1078.968384 3110.507568 -0.843699 -0.364439 -0.394154
7706.653809 874.487122 3368.211182 0.933571 -0.137108 -0.331130
7640.282715 971.292419 3141.004639 0.933571 -0.137108 -0.331130
7681.503418 962.703125 3260.776611 0.933571 -0.137108 -0.331130
7007.570312 922.343567 3535.248047 -0.955205 0.195834 -0.221883
7093.882812 1068.880493 3293.006348 -0.955205 0.195834 -0.221883
7138.343262 1078.968384 3110.507568 -0.955205 0.195834 -0.221883
7706.653809 874.487122 3368.211182 0.042236 -0.953982 -0.296875
7519.386719 763.722656 3697.501465 0.042236 -0.953982 -0.296875
7446.590332 911.188660 3213.275391 0.042236 -0.953982 -0.296875
7007.570312 922.343567 3535.248047 -0.260944 -0.909250 -0.324304
7171.860352 1039.142700 3075.586426 -0.260944 -0.909250 -0.324304
7446.590332 911.188660 3213.275391 -0.260944 -0.909250 -0.324304
6956.297852 878.080566 3849.666748 0.184986 0.914724 0.359250
7681.503418 962.703125 3260.776611 0.184986 0.914724 0.359250
7093.882812 1068.880493 3293.006348 0.184986 0.914724 0.359250
7706.653809 874.487122 3368.211182 0.550364 0.703851 0.449102
7681.503418 962.703125 3260.776611 0.550364 0.703851 0.449102
7539.206543 792.170532 3702.424072 0.550364 0.703851 0.449102
7539.206543 792.170532 3702.424072 0.775124 -0.582412 0.244905
7519.386719 763.722656 3697.501465 0.775124 -0.582412 0.244905
7706.653809 874.487122 3368.211182 0.775124 -0.582412 0.244905
7007.570312 922.343567 3535.248047 -0.918924 0.382576 -0.095992
6956.297852 878.080566 3849.666748 -0.918924 0.382576 -0.095992
7093.882812 1068.880493 3293.006348 -0.918924 0.382576 -0.095992
6956.297852 878.080566 3849.666748 0.143827 0.939110 0.312068
6848.134277 743.405090 4304.797852 0.143827 0.939110 0.312068
7681.503418 962.703125 3260.776611 0.143827 0.939110 0.312068
7446.590332 911.188660 3213.275391 -0.254378 -0.914306 -0.315176
6896.596191 769.761475 4067.446289 -0.254378 -0.914306 -0.315176
7007.570312 922.343567 3535.248047 -0.254378 -0.914306 -0.315176
6896.596191 769.761475 4067.446289 -0.948636 0.295462 -0.113100
6956.297852 878.080566 3849.666748 -0.948636 0.295462 -0.113100
7007.570312 922.343567 3535.248047 -0.948636 0.295462 -0.113100
7519.386719 763.722656 3697.501465 -0.166223 -0.950001 -0.264324
6896.596191 769.761475 4067.446289 -0.166223 -0.950001 -0.264324
7446.590332 911.188660 3213.275391 -0.166223 -0.950001 -0.264324
7539.206543 792.170532 3702.424072 0.377923 0.816246 0.436941
7681.503418 962.703125 3260.776611 0.377923 0.816246 0.436941
7106.937500 685.885132 4274.857422 0.377923 0.816246 0.436941
7539.206543 792.170532 3702.424072 0.705310 -0.565392 0.427632
7106.937500 685.885132 4274.857422 0.705310 -0.565392 0.427632
7519.386719 763.722656 3697.501465 0.705310 -0.565392 0.427632
6896.596191 769.761475 4067.446289 -0.149731 -0.960051 -0.236395
7519.386719 763.722656 3697.501465 -0.149731 -0.960051 -0.236395
7106.937500 685.885132 4274.857422 -0.149731 -0.960051 -0.236395
6848.134277 743.405090 4304.797852 0.242379 0.892283 0.380899
7106.937500 685.885132 4274.857422 0.242379 0.892283 0.380899
7681.503418 962.703125 3260.776611 0.242379 0.892283 0.380899
6896.596191 769.761475 4067.446289 -0.968243 0.175336 -0.178224
6848.134277 743.405090 4304.797852 -0.968243 0.175336 -0.178224
6956.297852 878.080566 3849.666748 -0.968243 0.175336 -0.178224
7106.937500 685.885132 4274.857422 -0.231308 -0.960631 -0.153900
6848.134277 743.405090 4304.797852 -0.231308 -0.960631 -0.153900
6896.596191 769.761475 4067.446289 -0.231308 -0.960631 -0.153900
6843.389648 731.373535 7043.529785 -0.113042 -0.990892 0.073179
7193.350586 703.417297 7205.581055 -0.113042 -0.990892 0.073179
6968.090332 742.065491 7380.936523 -0.113042 -0.990892 0.073179
6968.090332 742.065491 7380.936523 -0.765016 -0.569455 0.300784
7070.132324 995.462646 8120.210449 -0.765016 -0.569455 0.300784
6843.389648 731.373535 7043.529785 -0.765016 -0.569455 0.300784
7100.704590 1038.404053 8004.683105 0.235526 0.905735 -0.352381
7193.350586 703.417297 7205.581055 0.235526 0.905735 -0.352381
6843.389648 731.373535 7043.529785 0.235526 0.905735 -0.352381
7193.350586 703.417297 7205.581055 -0.021484 -0.981783 0.188786
7654.024902 822.217468 7875.829102 -0.021484 -0.981783 0.188786
6968.090332 742.065491 7380.936523 -0.021484 -0.981783 0.188786
7193.350586 703.417297 7205.581055 0.196939 0.912115 -0.359530
7100.704590 1038.404053 8004.683105 0.196939 0.912115 -0.359530
7688.345215 953.535156 8111.264160 0.196939 0.912115 -0.359530
7070.132324 995.462646 8120.210449 -0.792118 0.610126 0.017163
7100.704590 1038.404053 8004.683105 -0.792118 0.610126 0.017163
6843.389648 731.373535 7043.529785 -0.792118 0.610126 0.017163
7688.345215 953.535156 8111.264160 0.505836 0.719895 -0.475271
7654.024902 822.217468 7875.829102 0.505836 0.719895 -0.475271
7193.350586 703.417297 7205.581055 0.505836 0.719895 -0.475271
7674.673340 957.708374 8211.069336 0.868446 -0.475938 0.138865
7654.024902 822.217468 7875.829102 0.868446 -0.475938 0.138865
7688.345215 953.535156 8111.264160 0.868446 -0.475938 0.138865
7100.704590 1038.404053 8004.683105 -0.882034 0.467391 -0.059686
7070.132324 995.462646 8120.210449 -0.882034 0.467391 -0.059686
7110.635742 1088.616699 8251.127930 -0.882034 0.467391 -0.059686
7654.024902 822.217468 7875.829102 -0.111735 -0.944837 0.307892
7402.537109 987.061707 8290.425781 -0.111735 -0.944837 0.307892
6968.090332 742.065491 7380.936523 -0.111735 -0.944837 0.307892
7654.024902 822.217468 7875.829102 0.009103 -0.927297 0.374216
7674.673340 957.708374 8211.069336 0.009103 -0.927297 0.374216
7402.537109 987.061707 8290.425781 0.009103 -0.927297 0.374216
7070.132324 995.462646 8120.210449 -0.198442 -0.918434 0.342198
6968.090332 742.065491 7380.936523 -0.198442 -0.918434 0.342198
7402.537109 987.061707 8290.425781 -0.198442 -0.918434 0.342198
7688.345215 953.535156 8111.264160 0.190252 0.932753 -0.306230
7100.704590 1038.404053 8004.683105 0.190252 0.932753 -0.306230
7401.798828 1065.314087 8273.710938 0.190252 0.932753 -0.306230
7401.798828 1065.314087 8273.710938 0.369148 0.929297 0.011711
7674.673340 957.708374 8211.069336 0.369148 0.929297 0.011711
7688.345215 953.535156 8111.264160 0.369148 0.929297 0.011711
7100.704590 1038.404053 8004.683105 0.093715 0.974810 -0.202392
7110.635742 1088.616699 8251.127930 0.093715 0.974810 -0.202392
7401.798828 1065.314087 8273.710938 0.093715 0.974810 -0.202392
7070.132324 995.462646 8120.210449 -0.331976 -0.717032 0.612909
7402.537109 987.061707 8290.425781 -0.331976 -0.717032 0.612909
7110.635742 1088.616699 8251.127930 -0.331976 -0.717032 0.612909
7674.673340 957.708374 8211.069336 0.294205 0.202298 0.934087
7401.798828 1065.314087 8273.710938 0.294205 0.202298 0.934087
7402.537109 987.061707 8290.425781 0.294205 0.202298 0.934087
7401.798828 1065.314087 8273.710938 -0.059080 0.207992 0.976345
7110.635742 1088.616699 8251.127930 -0.059080 0.207992 0.976345
7402.537109 987.061707 8290.425781 -0.059080 0.207992 0.976345
3 0 1 2
3 3 4 5
3 6 7 8
3 9 10 11
3 12 13 14
3 15 16 17
3 18 19 20
3 21 22 23
3 24 25 26
3 27 28 29
3 30 31 32
3 33 34 35
3 36 37 38
3 39 40 41
3 42 43 44
3 45 46 47
3 48 49 50
3 51 52 53
3 54 55 56
3 57 58 59
3 60 61 62
3 63 64 65
3 66 67 68
3 69 70 71
3 72 73 74
3 75 76 77
3 78 79 80
3 81 82 83
3 84 85 86
3 87 88 89
3 90 91 92
3 93 94 95
3 96 97 98
3 99 100 101
3 102 103 104
3 105 106 107
3 108 109 110
3 111 112 113
3 114 115 116
3 117 118 119
3 120 121 122
3 123 124 125
3 126 127 128
3 129 130 131
