ply
format ascii 1.0
comment Created by Blender 2.80 (sub 75) - www.blender.org, source file: 'downsample_ccf.blend'
element vertex 108
property float x
property float y
property float z
property float nx
property float ny
property float nz
element face 36
property list uchar uint vertex_indices
end_header
8573.469727 1740.346313 1611.981445 0.215505 0.153598 -0.964347
8276.987305 1736.337646 1545.087280 0.215505 0.153598 -0.964347
8531.791992 1885.171143 1625.734863 0.215505 0.153598 -0.964347
8573.469727 1740.346313 1611.981445 0.165482 -0.703378 -0.691285
8460.012695 1238.569336 2095.376221 0.165482 -0.703378 -0.691285
8276.987305 1736.337646 1545.087280 0.165482 -0.703378 -0.691285
8531.791992 1885.171143 1625.734863 -0.366440 0.841948 -0.396036
8276.987305 1736.337646 1545.087280 -0.366440 0.841948 -0.396036
7938.022461 1700.603638 1782.752808 -0.366440 0.841948 -0.396036
8276.987305 1736.337646 1545.087280 -0.522469 0.533789 -0.664902
7900.125977 1562.513062 1701.671021 -0.522469 0.533789 -0.664902
7938.022461 1700.603638 1782.752808 -0.522469 0.533789 -0.664902
8460.012695 1238.569336 2095.376221 0.054876 -0.731345 -0.679796
7900.125977 1562.513062 1701.671021 0.054876 -0.731345 -0.679796
8276.987305 1736.337646 1545.087280 0.054876 -0.731345 -0.679796
7889.325684 1417.945923 1870.316040 0.017594 -0.759664 -0.650078
7900.125977 1562.513062 1701.671021 0.017594 -0.759664 -0.650078
8460.012695 1238.569336 2095.376221 0.017594 -0.759664 -0.650078
7889.325684 1417.945923 1870.316040 -0.973100 0.201979 0.110823
7938.022461 1700.603638 1782.752808 -0.973100 0.201979 0.110823
7900.125977 1562.513062 1701.671021 -0.973100 0.201979 0.110823
8573.469727 1740.346313 1611.981445 0.924589 0.237814 0.297624
8531.791992 1885.171143 1625.734863 0.924589 0.237814 0.297624
8482.904297 1363.965210 2194.073486 0.924589 0.237814 0.297624
8531.791992 1885.171143 1625.734863 -0.051616 0.738232 0.672570
7938.022461 1700.603638 1782.752808 -0.051616 0.738232 0.672570
8482.904297 1363.965210 2194.073486 -0.051616 0.738232 0.672570
7889.325684 1417.945923 1870.316040 -0.931250 0.244213 0.270431
7939.875000 1481.689209 1986.822998 -0.931250 0.244213 0.270431
7938.022461 1700.603638 1782.752808 -0.931250 0.244213 0.270431
8482.904297 1363.965210 2194.073486 -0.013358 0.765047 0.643836
7938.022461 1700.603638 1782.752808 -0.013358 0.765047 0.643836
8339.338867 1308.744263 2256.711914 -0.013358 0.765047 0.643836
8460.012695 1238.569336 2095.376221 0.979884 -0.198073 0.024382
8573.469727 1740.346313 1611.981445 0.979884 -0.198073 0.024382
8482.904297 1363.965210 2194.073486 0.979884 -0.198073 0.024382
7938.022461 1700.603638 1782.752808 -0.196072 0.667748 0.718100
7939.875000 1481.689209 1986.822998 -0.196072 0.667748 0.718100
8339.338867 1308.744263 2256.711914 -0.196072 0.667748 0.718100
7889.325684 1417.945923 1870.316040 -0.653084 -0.508225 0.561416
8383.700195 1202.854614 2250.699219 -0.653084 -0.508225 0.561416
7939.875000 1481.689209 1986.822998 -0.653084 -0.508225 0.561416
7889.325684 1417.945923 1870.316040 -0.175553 -0.937093 -0.301726
8460.012695 1238.569336 2095.376221 -0.175553 -0.937093 -0.301726
8383.700195 1202.854614 2250.699219 -0.175553 -0.937093 -0.301726
8383.700195 1202.854614 2250.699219 -0.619893 -0.300849 0.724722
8339.338867 1308.744263 2256.711914 -0.619893 -0.300849 0.724722
7939.875000 1481.689209 1986.822998 -0.619893 -0.300849 0.724722
8383.700195 1202.854614 2250.699219 0.852149 -0.410756 0.324225
8460.012695 1238.569336 2095.376221 0.852149 -0.410756 0.324225
8482.904297 1363.965210 2194.073486 0.852149 -0.410756 0.324225
8383.700195 1202.854614 2250.699219 0.365173 0.100433 0.925506
8482.904297 1363.965210 2194.073486 0.365173 0.100433 0.925506
8339.338867 1308.744263 2256.711914 0.365173 0.100433 0.925506
8448.000000 1185.534546 9201.450195 0.586706 -0.558693 -0.586206
8392.742188 1196.568848 9135.628906 0.586706 -0.558693 -0.586206
8424.919922 1277.720459 9090.491211 0.586706 -0.558693 -0.586206
8392.742188 1196.568848 9135.628906 -0.580267 -0.207903 -0.787443
7898.148926 1508.516235 9417.733398 -0.580267 -0.207903 -0.787443
8424.919922 1277.720459 9090.491211 -0.580267 -0.207903 -0.787443
7901.229004 1411.797485 9516.561523 -0.647734 -0.554494 -0.522472
7898.148926 1508.516235 9417.733398 -0.647734 -0.554494 -0.522472
8392.742188 1196.568848 9135.628906 -0.647734 -0.554494 -0.522472
7901.229004 1411.797485 9516.561523 -0.323175 -0.939470 0.113816
8392.742188 1196.568848 9135.628906 -0.323175 -0.939470 0.113816
8448.000000 1185.534546 9201.450195 -0.323175 -0.939470 0.113816
8424.919922 1277.720459 9090.491211 0.977145 -0.010883 -0.212293
8569.152344 1682.775269 9733.599609 0.977145 -0.010883 -0.212293
8448.000000 1185.534546 9201.450195 0.977145 -0.010883 -0.212293
8424.919922 1277.720459 9090.491211 0.962516 0.072305 -0.261408
8554.054688 1857.615967 9726.370117 0.962516 0.072305 -0.261408
8569.152344 1682.775269 9733.599609 0.962516 0.072305 -0.261408
7898.148926 1508.516235 9417.733398 -0.084910 0.744741 -0.661930
8554.054688 1857.615967 9726.370117 -0.084910 0.744741 -0.661930
8424.919922 1277.720459 9090.491211 -0.084910 0.744741 -0.661930
7901.229004 1411.797485 9516.561523 -0.994740 -0.086973 -0.054114
7881.687500 1553.309692 9648.338867 -0.994740 -0.086973 -0.054114
7898.148926 1508.516235 9417.733398 -0.994740 -0.086973 -0.054114
7898.148926 1508.516235 9417.733398 -0.670685 0.717708 -0.187286
7881.687500 1553.309692 9648.338867 -0.670685 0.717708 -0.187286
8114.048828 1784.282104 9701.356445 -0.670685 0.717708 -0.187286
8448.000000 1185.534546 9201.450195 0.043556 -0.774178 0.631468
8056.645020 1627.126099 9769.833984 0.043556 -0.774178 0.631468
7901.229004 1411.797485 9516.561523 0.043556 -0.774178 0.631468
8114.048828 1784.282104 9701.356445 -0.086917 0.746513 -0.659669
8554.054688 1857.615967 9726.370117 -0.086917 0.746513 -0.659669
7898.148926 1508.516235 9417.733398 -0.086917 0.746513 -0.659669
8569.152344 1682.775269 9733.599609 0.127019 -0.739009 0.661613
8056.645020 1627.126099 9769.833984 0.127019 -0.739009 0.661613
8448.000000 1185.534546 9201.450195 0.127019 -0.739009 0.661613
7881.687500 1553.309692 9648.338867 -0.200325 -0.682346 0.703046
7901.229004 1411.797485 9516.561523 -0.200325 -0.682346 0.703046
8056.645020 1627.126099 9769.833984 -0.200325 -0.682346 0.703046
7881.687500 1553.309692 9648.338867 -0.626992 0.492148 0.603880
8056.645020 1627.126099 9769.833984 -0.626992 0.492148 0.603880
8114.048828 1784.282104 9701.356445 -0.626992 0.492148 0.603880
8056.645020 1627.126099 9769.833984 -0.305608 0.471958 0.826958
8480.801758 1814.594849 9819.592773 -0.305608 0.471958 0.826958
8114.048828 1784.282104 9701.356445 -0.305608 0.471958 0.826958
8554.054688 1857.615967 9726.370117 -0.173384 0.938978 0.297084
8114.048828 1784.282104 9701.356445 -0.173384 0.938978 0.297084
8480.801758 1814.594849 9819.592773 -0.173384 0.938978 0.297084
8569.152344 1682.775269 9733.599609 0.761800 0.092295 0.641204
8554.054688 1857.615967 9726.370117 0.761800 0.092295 0.641204
8480.801758 1814.594849 9819.592773 0.761800 0.092295 0.641204
8480.801758 1814.594849 9819.592773 0.114168 -0.487994 0.865348
8056.645020 1627.126099 9769.833984 0.114168 -0.487994 0.865348
8569.152344 1682.775269 9733.599609 0.114168 -0.487994 0.865348
3 0 1 2
3 3 4 5
3 6 7 8
3 9 10 11
3 12 13 14
3 15 16 17
3 18 19 20
3 21 22 23
3 24 25 26
3 27 28 29
3 30 31 32
3 33 34 35
3 36 37 38
3 39 40 41
3 42 43 44
3 45 46 47
3 48 49 50
3 51 52 53
3 54 55 56
3 57 58 59
3 60 61 62
3 63 64 65
3 66 67 68
3 69 70 71
3 72 73 74
3 75 76 77
3 78 79 80
3 81 82 83
3 84 85 86
3 87 88 89
3 90 91 92
3 93 94 95
3 96 97 98
3 99 100 101
3 102 103 104
3 105 106 107
