ply
format ascii 1.0
comment Created by Blender 2.80 (sub 75) - www.blender.org, source file: 'downsample_ccf.blend'
element vertex 240
property float x
property float y
property float z
property float nx
property float ny
property float nz
element face 80
property list uchar uint vertex_indices
end_header
7762.131836 1220.796387 3626.584473 -0.977551 0.118129 -0.174470
7768.879395 1182.596191 3562.913818 -0.977551 0.118129 -0.174470
7742.185059 721.647644 3400.386475 -0.977551 0.118129 -0.174470
7728.734863 468.998352 3387.621094 0.852664 -0.301460 -0.426715
7732.544434 536.533325 3347.522217 0.852664 -0.301460 -0.426715
8060.271484 275.726318 4186.640137 0.852664 -0.301460 -0.426715
7732.544434 536.533325 3347.522217 0.936285 0.050503 -0.347591
7742.185059 721.647644 3400.386475 0.936285 0.050503 -0.347591
8023.756836 1106.414185 4214.742676 0.936285 0.050503 -0.347591
7742.185059 721.647644 3400.386475 0.931754 0.071553 -0.355971
7768.879395 1182.596191 3562.913818 0.931754 0.071553 -0.355971
8023.756836 1106.414185 4214.742676 0.931754 0.071553 -0.355971
7732.544434 536.533325 3347.522217 -0.994782 0.072349 -0.071928
7762.131836 1220.796387 3626.584473 -0.994782 0.072349 -0.071928
7742.185059 721.647644 3400.386475 -0.994782 0.072349 -0.071928
7768.879395 1182.596191 3562.913818 0.804014 0.543608 -0.240940
7762.131836 1220.796387 3626.584473 0.804014 0.543608 -0.240940
7876.919922 1203.757324 3971.187256 0.804014 0.543608 -0.240940
7310.545898 336.433807 4022.684326 -0.241198 -0.905958 -0.347941
7728.734863 468.998352 3387.621094 -0.241198 -0.905958 -0.347941
7752.438477 374.790710 3616.484619 -0.241198 -0.905958 -0.347941
8060.271484 275.726318 4186.640137 0.442732 -0.812087 -0.380136
7752.438477 374.790710 3616.484619 0.442732 -0.812087 -0.380136
7728.734863 468.998352 3387.621094 0.442732 -0.812087 -0.380136
7202.405273 391.488129 4138.324707 -0.763609 -0.308472 -0.567227
7728.734863 468.998352 3387.621094 -0.763609 -0.308472 -0.567227
7310.545898 336.433807 4022.684326 -0.763609 -0.308472 -0.567227
7202.405273 391.488129 4138.324707 -0.767956 -0.294420 -0.568824
7732.544434 536.533325 3347.522217 -0.767956 -0.294420 -0.568824
7728.734863 468.998352 3387.621094 -0.767956 -0.294420 -0.568824
7762.131836 1220.796387 3626.584473 -0.812986 0.249685 -0.526034
7732.544434 536.533325 3347.522217 -0.812986 0.249685 -0.526034
7310.500000 1112.023438 4272.952637 -0.812986 0.249685 -0.526034
7310.500000 1112.023438 4272.952637 -0.828406 0.220485 -0.514908
7732.544434 536.533325 3347.522217 -0.828406 0.220485 -0.514908
7202.405273 391.488129 4138.324707 -0.828406 0.220485 -0.514908
8023.756836 1106.414185 4214.742676 0.777707 0.582645 -0.236002
7768.879395 1182.596191 3562.913818 0.777707 0.582645 -0.236002
7876.919922 1203.757324 3971.187256 0.777707 0.582645 -0.236002
7762.131836 1220.796387 3626.584473 -0.030281 0.997774 0.059422
7311.105957 1162.087036 4382.555664 -0.030281 0.997774 0.059422
7876.919922 1203.757324 3971.187256 -0.030281 0.997774 0.059422
7752.438477 374.790710 3616.484619 -0.109980 -0.971202 -0.211353
7958.985352 229.805984 4175.234375 -0.109980 -0.971202 -0.211353
7310.545898 336.433807 4022.684326 -0.109980 -0.971202 -0.211353
7732.544434 536.533325 3347.522217 0.926901 0.083245 -0.365957
8023.756836 1106.414185 4214.742676 0.926901 0.083245 -0.365957
8084.112793 928.689331 4327.185547 0.926901 0.083245 -0.365957
7752.438477 374.790710 3616.484619 0.417869 -0.829841 -0.369797
8060.271484 275.726318 4186.640137 0.417869 -0.829841 -0.369797
7958.985352 229.805984 4175.234375 0.417869 -0.829841 -0.369797
7958.985352 229.805984 4175.234375 -0.126155 -0.980719 -0.149250
7204.750488 310.754761 4280.846191 -0.126155 -0.980719 -0.149250
7310.545898 336.433807 4022.684326 -0.126155 -0.980719 -0.149250
7310.545898 336.433807 4022.684326 -0.712299 -0.585217 -0.387492
7129.245605 375.994110 4296.208984 -0.712299 -0.585217 -0.387492
7202.405273 391.488129 4138.324707 -0.712299 -0.585217 -0.387492
7310.500000 1112.023438 4272.952637 -0.628861 0.708539 -0.320164
7311.105957 1162.087036 4382.555664 -0.628861 0.708539 -0.320164
7762.131836 1220.796387 3626.584473 -0.628861 0.708539 -0.320164
7310.545898 336.433807 4022.684326 -0.654063 -0.677982 -0.335475
7204.750488 310.754761 4280.846191 -0.654063 -0.677982 -0.335475
7129.245605 375.994110 4296.208984 -0.654063 -0.677982 -0.335475
8060.271484 275.726318 4186.640137 0.934990 0.041674 -0.352218
7732.544434 536.533325 3347.522217 0.934990 0.041674 -0.352218
8084.112793 928.689331 4327.185547 0.934990 0.041674 -0.352218
7876.919922 1203.757324 3971.187256 0.419568 0.901360 0.107299
7993.692383 1100.960449 4378.117188 0.419568 0.901360 0.107299
8023.756836 1106.414185 4214.742676 0.419568 0.901360 0.107299
7958.985352 229.805984 4175.234375 0.012094 -0.750053 0.661267
8033.768066 294.981049 4247.792480 0.012094 -0.750053 0.661267
7204.750488 310.754761 4280.846191 0.012094 -0.750053 0.661267
8060.271484 275.726318 4186.640137 0.337190 -0.846215 0.412581
8033.768066 294.981049 4247.792480 0.337190 -0.846215 0.412581
7958.985352 229.805984 4175.234375 0.337190 -0.846215 0.412581
8033.768066 294.981049 4247.792480 0.895451 -0.124678 0.427345
8060.271484 275.726318 4186.640137 0.895451 -0.124678 0.427345
8084.112793 928.689331 4327.185547 0.895451 -0.124678 0.427345
7876.919922 1203.757324 3971.187256 0.088428 0.971476 0.220035
7311.105957 1162.087036 4382.555664 0.088428 0.971476 0.220035
7993.692383 1100.960449 4378.117188 0.088428 0.971476 0.220035
7202.405273 391.488129 4138.324707 -0.895112 0.207969 -0.394364
7129.245605 375.994110 4296.208984 -0.895112 0.207969 -0.394364
7310.500000 1112.023438 4272.952637 -0.895112 0.207969 -0.394364
7311.105957 1162.087036 4382.555664 -0.896350 0.405122 -0.180093
7310.500000 1112.023438 4272.952637 -0.896350 0.405122 -0.180093
7254.372559 1047.372314 4406.874023 -0.896350 0.405122 -0.180093
7254.372559 1047.372314 4406.874023 -0.932935 0.220757 -0.284428
7310.500000 1112.023438 4272.952637 -0.932935 0.220757 -0.284428
7129.245605 375.994110 4296.208984 -0.932935 0.220757 -0.284428
8033.768066 294.981049 4247.792480 0.030697 -0.349202 0.936545
7183.944824 480.584137 4344.851074 0.030697 -0.349202 0.936545
7204.750488 310.754761 4280.846191 0.030697 -0.349202 0.936545
8023.756836 1106.414185 4214.742676 0.891982 0.415547 0.178016
7993.692383 1100.960449 4378.117188 0.891982 0.415547 0.178016
8084.112793 928.689331 4327.185547 0.891982 0.415547 0.178016
7129.245605 375.994110 4296.208984 -0.126124 -0.363340 0.923080
7204.750488 310.754761 4280.846191 -0.126124 -0.363340 0.923080
7183.944824 480.584137 4344.851074 -0.126124 -0.363340 0.923080
8033.768066 294.981049 4247.792480 0.078544 -0.155324 0.984736
7993.692383 1100.960449 4378.117188 0.078544 -0.155324 0.984736
7183.944824 480.584137 4344.851074 0.078544 -0.155324 0.984736
8084.112793 928.689331 4327.185547 0.268637 -0.140725 0.952906
7993.692383 1100.960449 4378.117188 0.268637 -0.140725 0.952906
8033.768066 294.981049 4247.792480 0.268637 -0.140725 0.952906
7129.245605 375.994110 4296.208984 -0.665637 0.001046 0.746275
7183.944824 480.584137 4344.851074 -0.665637 0.001046 0.746275
7254.372559 1047.372314 4406.874023 -0.665637 0.001046 0.746275
7993.692383 1100.960449 4378.117188 0.046891 -0.114416 0.992326
7254.372559 1047.372314 4406.874023 0.046891 -0.114416 0.992326
7183.944824 480.584137 4344.851074 0.046891 -0.114416 0.992326
7993.692383 1100.960449 4378.117188 0.023925 0.195984 0.980315
7311.105957 1162.087036 4382.555664 0.023925 0.195984 0.980315
7254.372559 1047.372314 4406.874023 0.023925 0.195984 0.980315
8021.494629 1063.778076 7003.334961 0.014576 -0.074173 -0.997139
7155.352051 555.926453 7028.450684 0.014576 -0.074173 -0.997139
7285.522461 1138.261230 6987.036133 0.014576 -0.074173 -0.997139
8021.494629 1063.778076 7003.334961 0.071731 -0.170935 -0.982668
7248.146973 327.467346 7074.964844 0.071731 -0.170935 -0.982668
7155.352051 555.926453 7028.450684 0.071731 -0.170935 -0.982668
7285.522461 1138.261230 6987.036133 0.086263 0.696481 -0.712371
7952.753418 1144.070801 7073.512695 0.086263 0.696481 -0.712371
8021.494629 1063.778076 7003.334961 0.086263 0.696481 -0.712371
8064.729980 954.591492 7032.571289 0.924506 0.304795 -0.228887
8021.494629 1063.778076 7003.334961 0.924506 0.304795 -0.228887
8040.979492 1097.906250 7127.483398 0.924506 0.304795 -0.228887
7248.146973 327.467346 7074.964844 -0.442175 -0.347917 -0.826701
7140.764648 344.868805 7125.076660 -0.442175 -0.347917 -0.826701
7155.352051 555.926453 7028.450684 -0.442175 -0.347917 -0.826701
8064.729980 954.591492 7032.571289 0.114343 -0.214459 -0.970017
7248.146973 327.467346 7074.964844 0.114343 -0.214459 -0.970017
8021.494629 1063.778076 7003.334961 0.114343 -0.214459 -0.970017
8021.494629 1063.778076 7003.334961 0.579669 0.757886 -0.299320
7952.753418 1144.070801 7073.512695 0.579669 0.757886 -0.299320
8040.979492 1097.906250 7127.483398 0.579669 0.757886 -0.299320
8058.675293 274.085693 7145.283203 0.074568 -0.163594 -0.983706
7248.146973 327.467346 7074.964844 0.074568 -0.163594 -0.983706
8064.729980 954.591492 7032.571289 0.074568 -0.163594 -0.983706
8064.729980 954.591492 7032.571289 0.657025 -0.128871 -0.742772
8083.727051 348.327423 7154.562012 0.657025 -0.128871 -0.742772
8058.675293 274.085693 7145.283203 0.657025 -0.128871 -0.742772
7406.735352 1170.309692 7214.243164 -0.872373 0.225836 0.433548
7285.522461 1138.261230 6987.036133 -0.872373 0.225836 0.433548
7155.352051 555.926453 7028.450684 -0.872373 0.225836 0.433548
8058.675293 274.085693 7145.283203 0.049806 -0.430755 -0.901093
7659.019043 260.068207 7129.894043 0.049806 -0.430755 -0.901093
7248.146973 327.467346 7074.964844 0.049806 -0.430755 -0.901093
7140.764648 344.868805 7125.076660 -0.885581 0.242559 0.396121
7406.735352 1170.309692 7214.243164 -0.885581 0.242559 0.396121
7155.352051 555.926453 7028.450684 -0.885581 0.242559 0.396121
8083.727051 348.327423 7154.562012 0.986217 0.061788 0.153490
8064.729980 954.591492 7032.571289 0.986217 0.061788 0.153490
8040.979492 1097.906250 7127.483398 0.986217 0.061788 0.153490
7248.146973 327.467346 7074.964844 -0.161449 -0.986876 -0.003267
7659.019043 260.068207 7129.894043 -0.161449 -0.986876 -0.003267
7140.764648 344.868805 7125.076660 -0.161449 -0.986876 -0.003267
8058.675293 274.085693 7145.283203 0.039596 -0.991322 -0.125354
7932.691895 251.062500 7287.559570 0.039596 -0.991322 -0.125354
7659.019043 260.068207 7129.894043 0.039596 -0.991322 -0.125354
7285.522461 1138.261230 6987.036133 -0.101819 0.991123 -0.085483
7406.735352 1170.309692 7214.243164 -0.101819 0.991123 -0.085483
7673.080078 1211.491455 7374.479004 -0.101819 0.991123 -0.085483
7952.753418 1144.070801 7073.512695 0.017762 0.979056 -0.202817
7285.522461 1138.261230 6987.036133 0.017762 0.979056 -0.202817
7673.080078 1211.491455 7374.479004 0.017762 0.979056 -0.202817
7659.019043 260.068207 7129.894043 -0.161677 -0.983395 0.082433
7312.820312 338.268982 7383.798340 -0.161677 -0.983395 0.082433
7140.764648 344.868805 7125.076660 -0.161677 -0.983395 0.082433
7952.753418 1144.070801 7073.512695 0.178061 0.982502 -0.054630
7673.080078 1211.491455 7374.479004 0.178061 0.982502 -0.054630
7863.798340 1184.122925 7503.892090 0.178061 0.982502 -0.054630
7459.548828 523.599182 7587.916016 -0.841057 0.217499 0.495295
7406.735352 1170.309692 7214.243164 -0.841057 0.217499 0.495295
7140.764648 344.868805 7125.076660 -0.841057 0.217499 0.495295
7659.019043 260.068207 7129.894043 -0.115763 -0.982664 0.144811
7932.691895 251.062500 7287.559570 -0.115763 -0.982664 0.144811
7312.820312 338.268982 7383.798340 -0.115763 -0.982664 0.144811
7952.753418 1144.070801 7073.512695 0.457859 0.888945 0.011907
7863.798340 1184.122925 7503.892090 0.457859 0.888945 0.011907
8040.979492 1097.906250 7127.483398 0.457859 0.888945 0.011907
7312.820312 338.268982 7383.798340 -0.831161 0.047922 0.553963
7459.548828 523.599182 7587.916016 -0.831161 0.047922 0.553963
7140.764648 344.868805 7125.076660 -0.831161 0.047922 0.553963
8083.727051 348.327423 7154.562012 0.933674 0.065962 0.351997
8040.979492 1097.906250 7127.483398 0.933674 0.065962 0.351997
7756.217773 496.692017 7995.478516 0.933674 0.065962 0.351997
7932.691895 251.062500 7287.559570 0.537235 -0.766626 0.351658
8058.675293 274.085693 7145.283203 0.537235 -0.766626 0.351658
7897.813965 345.494080 7546.707520 0.537235 -0.766626 0.351658
8058.675293 274.085693 7145.283203 0.851524 -0.337484 0.401262
8083.727051 348.327423 7154.562012 0.851524 -0.337484 0.401262
7897.813965 345.494080 7546.707520 0.851524 -0.337484 0.401262
7756.217773 496.692017 7995.478516 0.907813 0.140498 0.395140
8040.979492 1097.906250 7127.483398 0.907813 0.140498 0.395140
7863.798340 1184.122925 7503.892090 0.907813 0.140498 0.395140
7673.080078 1211.491455 7374.479004 -0.143119 0.989569 -0.016433
7406.735352 1170.309692 7214.243164 -0.143119 0.989569 -0.016433
7763.849609 1231.064941 7762.625977 -0.143119 0.989569 -0.016433
8083.727051 348.327423 7154.562012 0.835094 -0.384792 0.393131
7756.217773 496.692017 7995.478516 0.835094 -0.384792 0.393131
7897.813965 345.494080 7546.707520 0.835094 -0.384792 0.393131
7673.080078 1211.491455 7374.479004 0.205701 0.973775 -0.097209
7763.849609 1231.064941 7762.625977 0.205701 0.973775 -0.097209
7863.798340 1184.122925 7503.892090 0.205701 0.973775 -0.097209
7932.691895 251.062500 7287.559570 -0.098101 -0.965132 0.242686
7699.596191 443.708832 7959.466309 -0.098101 -0.965132 0.242686
7312.820312 338.268982 7383.798340 -0.098101 -0.965132 0.242686
7897.813965 345.494080 7546.707520 0.320249 -0.875403 0.362092
7699.596191 443.708832 7959.466309 0.320249 -0.875403 0.362092
7932.691895 251.062500 7287.559570 0.320249 -0.875403 0.362092
7863.798340 1184.122925 7503.892090 0.875551 0.404011 0.264925
7763.849609 1231.064941 7762.625977 0.875551 0.404011 0.264925
7784.771484 1149.796387 7817.416016 0.875551 0.404011 0.264925
7459.548828 523.599182 7587.916016 -0.843092 0.215767 0.492585
7740.961914 618.967896 8027.798828 -0.843092 0.215767 0.492585
7406.735352 1170.309692 7214.243164 -0.843092 0.215767 0.492585
7863.798340 1184.122925 7503.892090 0.968717 0.024965 0.246908
7784.771484 1149.796387 7817.416016 0.968717 0.024965 0.246908
7756.217773 496.692017 7995.478516 0.968717 0.024965 0.246908
7699.596191 443.708832 7959.466309 -0.833390 0.054007 0.550040
7459.548828 523.599182 7587.916016 -0.833390 0.054007 0.550040
7312.820312 338.268982 7383.798340 -0.833390 0.054007 0.550040
7740.961914 618.967896 8027.798828 -0.823617 0.251103 0.508530
7763.849609 1231.064941 7762.625977 -0.823617 0.251103 0.508530
7406.735352 1170.309692 7214.243164 -0.823617 0.251103 0.508530
7740.961914 618.967896 8027.798828 0.953374 0.039878 0.299145
7756.217773 496.692017 7995.478516 0.953374 0.039878 0.299145
7784.771484 1149.796387 7817.416016 0.953374 0.039878 0.299145
7756.217773 496.692017 7995.478516 0.469455 -0.781283 0.411349
7699.596191 443.708832 7959.466309 0.469455 -0.781283 0.411349
7897.813965 345.494080 7546.707520 0.469455 -0.781283 0.411349
7763.849609 1231.064941 7762.625977 -0.595587 0.337972 0.728733
7740.961914 618.967896 8027.798828 -0.595587 0.337972 0.728733
7784.771484 1149.796387 7817.416016 -0.595587 0.337972 0.728733
7459.548828 523.599182 7587.916016 -0.841090 -0.012318 0.540754
7699.596191 443.708832 7959.466309 -0.841090 -0.012318 0.540754
7740.961914 618.967896 8027.798828 -0.841090 -0.012318 0.540754
7756.217773 496.692017 7995.478516 -0.315642 -0.279097 0.906904
7740.961914 618.967896 8027.798828 -0.315642 -0.279097 0.906904
7699.596191 443.708832 7959.466309 -0.315642 -0.279097 0.906904
3 0 1 2
3 3 4 5
3 6 7 8
3 9 10 11
3 12 13 14
3 15 16 17
3 18 19 20
3 21 22 23
3 24 25 26
3 27 28 29
3 30 31 32
3 33 34 35
3 36 37 38
3 39 40 41
3 42 43 44
3 45 46 47
3 48 49 50
3 51 52 53
3 54 55 56
3 57 58 59
3 60 61 62
3 63 64 65
3 66 67 68
3 69 70 71
3 72 73 74
3 75 76 77
3 78 79 80
3 81 82 83
3 84 85 86
3 87 88 89
3 90 91 92
3 93 94 95
3 96 97 98
3 99 100 101
3 102 103 104
3 105 106 107
3 108 109 110
3 111 112 113
3 114 115 116
3 117 118 119
3 120 121 122
3 123 124 125
3 126 127 128
3 129 130 131
3 132 133 134
3 135 136 137
3 138 139 140
3 141 142 143
3 144 145 146
3 147 148 149
3 150 151 152
3 153 154 155
3 156 157 158
3 159 160 161
3 162 163 164
3 165 166 167
3 168 169 170
3 171 172 173
3 174 175 176
3 177 178 179
3 180 181 182
3 183 184 185
3 186 187 188
3 189 190 191
3 192 193 194
3 195 196 197
3 198 199 200
3 201 202 203
3 204 205 206
3 207 208 209
3 210 211 212
3 213 214 215
3 216 217 218
3 219 220 221
3 222 223 224
3 225 226 227
3 228 229 230
3 231 232 233
3 234 235 236
3 237 238 239
