ply
format ascii 1.0
comment Created by Blender 2.80 (sub 75) - www.blender.org, source file: 'downsample_ccf.blend'
element vertex 78
property float x
property float y
property float z
property float nx
property float ny
property float nz
element face 26
property list uchar uint vertex_indices
end_header
7725.781250 1076.242798 3692.073730 0.595866 -0.671658 -0.440249
7766.837891 1183.029907 3584.725098 0.595866 -0.671658 -0.440249
8028.879883 952.204895 4291.545410 0.595866 -0.671658 -0.440249
7309.794434 1107.152588 4335.524414 -0.825774 -0.209082 -0.523814
7766.837891 1183.029907 3584.725098 -0.825774 -0.209082 -0.523814
7725.781250 1076.242798 3692.073730 -0.825774 -0.209082 -0.523814
8028.879883 952.204895 4291.545410 0.928889 -0.063032 -0.364955
7766.837891 1183.029907 3584.725098 0.928889 -0.063032 -0.364955
8045.961426 1045.306519 4318.941895 0.928889 -0.063032 -0.364955
7725.781250 1076.242798 3692.073730 -0.052918 -0.982858 -0.176609
8028.879883 952.204895 4291.545410 -0.052918 -0.982858 -0.176609
7291.623535 981.742676 4348.070801 -0.052918 -0.982858 -0.176609
7766.837891 1183.029907 3584.725098 -0.017327 0.995783 0.090088
7309.794434 1107.152588 4335.524414 -0.017327 0.995783 0.090088
7811.731934 1115.040161 4344.881836 -0.017327 0.995783 0.090088
8045.961426 1045.306519 4318.941895 0.291597 0.954113 0.068116
7766.837891 1183.029907 3584.725098 0.291597 0.954113 0.068116
7811.731934 1115.040161 4344.881836 0.291597 0.954113 0.068116
7309.794434 1107.152588 4335.524414 -0.836447 0.066775 -0.543965
7725.781250 1076.242798 3692.073730 -0.836447 0.066775 -0.543965
7291.623535 981.742676 4348.070801 -0.836447 0.066775 -0.543965
8028.879883 952.204895 4291.545410 0.026869 -0.698264 0.715336
7616.947266 1051.251587 4403.701172 0.026869 -0.698264 0.715336
7291.623535 981.742676 4348.070801 0.026869 -0.698264 0.715336
7811.731934 1115.040161 4344.881836 -0.024255 0.716716 0.696943
7309.794434 1107.152588 4335.524414 -0.024255 0.716716 0.696943
7616.947266 1051.251587 4403.701172 -0.024255 0.716716 0.696943
8045.961426 1045.306519 4318.941895 0.180292 -0.307968 0.934158
7616.947266 1051.251587 4403.701172 0.180292 -0.307968 0.934158
8028.879883 952.204895 4291.545410 0.180292 -0.307968 0.934158
8045.961426 1045.306519 4318.941895 0.189485 0.287189 0.938945
7811.731934 1115.040161 4344.881836 0.189485 0.287189 0.938945
7616.947266 1051.251587 4403.701172 0.189485 0.287189 0.938945
7616.947266 1051.251587 4403.701172 -0.193185 0.125345 0.973123
7309.794434 1107.152588 4335.524414 -0.193185 0.125345 0.973123
7291.623535 981.742676 4348.070801 -0.193185 0.125345 0.973123
8047.002441 1012.724304 7024.613770 0.008497 -0.156250 -0.987681
7280.600586 993.719238 7021.026855 0.008497 -0.156250 -0.987681
7295.296387 1101.410400 7004.116699 0.008497 -0.156250 -0.987681
7519.205078 1123.405396 7001.811035 0.006669 -0.171172 -0.985219
8047.002441 1012.724304 7024.613770 0.006669 -0.171172 -0.985219
7295.296387 1101.410400 7004.116699 0.006669 -0.171172 -0.985219
8047.002441 1012.724304 7024.613770 0.019442 -0.638858 -0.769079
7984.543945 934.533569 7087.986328 0.019442 -0.638858 -0.769079
7280.600586 993.719238 7021.026855 0.019442 -0.638858 -0.769079
8047.002441 1012.724304 7024.613770 0.206104 0.907356 -0.366369
7519.205078 1123.405396 7001.811035 0.206104 0.907356 -0.366369
7981.295410 1100.260620 7204.443359 0.206104 0.907356 -0.366369
7981.295410 1100.260620 7204.443359 0.107680 0.985246 -0.133021
7519.205078 1123.405396 7001.811035 0.107680 0.985246 -0.133021
7750.368164 1197.412720 7737.083984 0.107680 0.985246 -0.133021
7984.543945 934.533569 7087.986328 -0.101490 -0.973098 0.206836
7781.241699 1086.105957 7701.330078 -0.101490 -0.973098 0.206836
7280.600586 993.719238 7021.026855 -0.101490 -0.973098 0.206836
7984.543945 934.533569 7087.986328 0.838463 -0.302224 0.453477
8047.002441 1012.724304 7024.613770 0.838463 -0.302224 0.453477
7981.295410 1100.260620 7204.443359 0.838463 -0.302224 0.453477
7984.543945 934.533569 7087.986328 0.860618 -0.281391 0.424447
7981.295410 1100.260620 7204.443359 0.860618 -0.281391 0.424447
7750.368164 1197.412720 7737.083984 0.860618 -0.281391 0.424447
7295.296387 1101.410400 7004.116699 -0.844660 0.193629 0.499057
7280.600586 993.719238 7021.026855 -0.844660 0.193629 0.499057
7750.368164 1197.412720 7737.083984 -0.844660 0.193629 0.499057
7519.205078 1123.405396 7001.811035 -0.098232 0.992766 -0.069041
7295.296387 1101.410400 7004.116699 -0.098232 0.992766 -0.069041
7750.368164 1197.412720 7737.083984 -0.098232 0.992766 -0.069041
7781.241699 1086.105957 7701.330078 -0.553403 -0.667693 0.497928
7761.562988 1161.901001 7781.095703 -0.553403 -0.667693 0.497928
7280.600586 993.719238 7021.026855 -0.553403 -0.667693 0.497928
7984.543945 934.533569 7087.986328 0.946593 0.175722 0.270338
7750.368164 1197.412720 7737.083984 0.946593 0.175722 0.270338
7781.241699 1086.105957 7701.330078 0.946593 0.175722 0.270338
7761.562988 1161.901001 7781.095703 -0.833491 0.306783 0.459541
7750.368164 1197.412720 7737.083984 -0.833491 0.306783 0.459541
7280.600586 993.719238 7021.026855 -0.833491 0.306783 0.459541
7781.241699 1086.105957 7701.330078 0.961401 0.274161 -0.023330
7750.368164 1197.412720 7737.083984 0.961401 0.274161 -0.023330
7761.562988 1161.901001 7781.095703 0.961401 0.274161 -0.023330
3 0 1 2
3 3 4 5
3 6 7 8
3 9 10 11
3 12 13 14
3 15 16 17
3 18 19 20
3 21 22 23
3 24 25 26
3 27 28 29
3 30 31 32
3 33 34 35
3 36 37 38
3 39 40 41
3 42 43 44
3 45 46 47
3 48 49 50
3 51 52 53
3 54 55 56
3 57 58 59
3 60 61 62
3 63 64 65
3 66 67 68
3 69 70 71
3 72 73 74
3 75 76 77
