ply
format ascii 1.0
comment Created by Blender 2.80 (sub 75) - www.blender.org, source file: 'downsample_ccf.blend'
element vertex 108
property float x
property float y
property float z
property float nx
property float ny
property float nz
element face 36
property list uchar uint vertex_indices
end_header
7753.883301 941.046204 3506.483154 0.896509 0.311831 -0.314695
7751.733398 1043.632324 3602.010742 0.896509 0.311831 -0.314695
7823.564453 1021.981689 3785.190674 0.896509 0.311831 -0.314695
7823.564453 1021.981689 3785.190674 0.942130 0.174534 -0.286231
7993.252441 686.417847 4139.104004 0.942130 0.174534 -0.286231
7753.883301 941.046204 3506.483154 0.942130 0.174534 -0.286231
7702.930664 854.205261 3620.515137 0.353972 -0.813531 -0.461379
7753.883301 941.046204 3506.483154 0.353972 -0.813531 -0.461379
7993.252441 686.417847 4139.104004 0.353972 -0.813531 -0.461379
7993.252441 686.417847 4139.104004 0.911719 0.028828 -0.409801
7823.564453 1021.981689 3785.190674 0.911719 0.028828 -0.409801
8041.864746 883.267944 4261.103516 0.911719 0.028828 -0.409801
7253.879395 928.867615 4340.769043 -0.843816 -0.172267 -0.508230
7753.883301 941.046204 3506.483154 -0.843816 -0.172267 -0.508230
7702.930664 854.205261 3620.515137 -0.843816 -0.172267 -0.508230
7751.733398 1043.632324 3602.010742 -0.783071 0.414967 -0.463252
7753.883301 941.046204 3506.483154 -0.783071 0.414967 -0.463252
7253.879395 928.867615 4340.769043 -0.783071 0.414967 -0.463252
7253.879395 928.867615 4340.769043 0.080649 0.966254 0.244639
8041.864746 883.267944 4261.103516 0.080649 0.966254 0.244639
7823.564453 1021.981689 3785.190674 0.080649 0.966254 0.244639
7823.564453 1021.981689 3785.190674 -0.034533 0.990827 0.130651
7751.733398 1043.632324 3602.010742 -0.034533 0.990827 0.130651
7253.879395 928.867615 4340.769043 -0.034533 0.990827 0.130651
7993.252441 686.417847 4139.104004 -0.087363 -0.961092 -0.262049
7221.427734 703.857178 4332.456055 -0.087363 -0.961092 -0.262049
7702.930664 854.205261 3620.515137 -0.087363 -0.961092 -0.262049
7253.879395 928.867615 4340.769043 -0.833651 0.139970 -0.534260
7702.930664 854.205261 3620.515137 -0.833651 0.139970 -0.534260
7221.427734 703.857178 4332.456055 -0.833651 0.139970 -0.534260
7221.427734 703.857178 4332.456055 -0.075196 -0.974309 -0.212290
7993.252441 686.417847 4139.104004 -0.075196 -0.974309 -0.212290
7930.693359 658.598877 4288.938965 -0.075196 -0.974309 -0.212290
8048.981445 780.225159 4303.014648 0.697986 -0.697567 0.161910
7930.693359 658.598877 4288.938965 0.697986 -0.697567 0.161910
7993.252441 686.417847 4139.104004 0.697986 -0.697567 0.161910
7993.252441 686.417847 4139.104004 0.954361 -0.053589 -0.293809
8041.864746 883.267944 4261.103516 0.954361 -0.053589 -0.293809
8048.981445 780.225159 4303.014648 0.954361 -0.053589 -0.293809
7253.879395 928.867615 4340.769043 -0.846498 0.141051 -0.513368
7221.427734 703.857178 4332.456055 -0.846498 0.141051 -0.513368
7220.414062 812.920471 4364.093262 -0.846498 0.141051 -0.513368
8048.981445 780.225159 4303.014648 0.050075 -0.162739 0.985398
7221.427734 703.857178 4332.456055 0.050075 -0.162739 0.985398
7930.693359 658.598877 4288.938965 0.050075 -0.162739 0.985398
8048.981445 780.225159 4303.014648 0.059728 -0.277587 0.958842
7220.414062 812.920471 4364.093262 0.059728 -0.277587 0.958842
7221.427734 703.857178 4332.456055 0.059728 -0.277587 0.958842
8048.981445 780.225159 4303.014648 0.079237 0.174562 0.981453
7253.879395 928.867615 4340.769043 0.079237 0.174562 0.981453
7220.414062 812.920471 4364.093262 0.079237 0.174562 0.981453
8048.981445 780.225159 4303.014648 0.114800 0.381065 0.917393
8041.864746 883.267944 4261.103516 0.114800 0.381065 0.917393
7253.879395 928.867615 4340.769043 0.114800 0.381065 0.917393
7278.905762 694.210083 7034.077148 -0.708536 -0.450921 -0.542814
7232.345215 708.239685 7083.198242 -0.708536 -0.450921 -0.542814
7201.108398 854.185059 7002.733398 -0.708536 -0.450921 -0.542814
8000.027344 847.534729 7056.656250 0.089138 -0.278405 -0.956318
8040.361328 654.347412 7116.656738 0.089138 -0.278405 -0.956318
7278.905762 694.210083 7034.077148 0.089138 -0.278405 -0.956318
8000.027344 847.534729 7056.656250 0.065124 -0.161273 -0.984759
7278.905762 694.210083 7034.077148 0.065124 -0.161273 -0.984759
7201.108398 854.185059 7002.733398 0.065124 -0.161273 -0.984759
8000.027344 847.534729 7056.656250 0.066810 0.293337 -0.953672
7201.108398 854.185059 7002.733398 0.066810 0.293337 -0.953672
7264.013672 919.280090 7027.162598 0.066810 0.293337 -0.953672
8040.361328 654.347412 7116.656738 0.960123 0.122386 -0.251367
8000.027344 847.534729 7056.656250 0.960123 0.122386 -0.251367
8017.727539 905.305237 7152.391602 0.960123 0.122386 -0.251367
8040.361328 654.347412 7116.656738 -0.073684 -0.975203 0.208687
7232.345215 708.239685 7083.198242 -0.073684 -0.975203 0.208687
7278.905762 694.210083 7034.077148 -0.073684 -0.975203 0.208687
8000.027344 847.534729 7056.656250 0.103330 0.843042 -0.527829
7264.013672 919.280090 7027.162598 0.103330 0.843042 -0.527829
8017.727539 905.305237 7152.391602 0.103330 0.843042 -0.527829
7264.013672 919.280090 7027.162598 0.052578 0.976834 -0.207439
7750.129883 1053.778809 7783.731934 0.052578 0.976834 -0.207439
8017.727539 905.305237 7152.391602 0.052578 0.976834 -0.207439
8040.361328 654.347412 7116.656738 -0.074661 -0.966186 0.246802
7831.473145 779.605347 7543.827637 -0.074661 -0.966186 0.246802
7232.345215 708.239685 7083.198242 -0.074661 -0.966186 0.246802
7756.277344 1019.745056 7838.927246 0.935870 0.034474 0.350656
8040.361328 654.347412 7116.656738 0.935870 0.034474 0.350656
8017.727539 905.305237 7152.391602 0.935870 0.034474 0.350656
8040.361328 654.347412 7116.656738 0.793560 -0.357025 0.492743
7756.277344 1019.745056 7838.927246 0.793560 -0.357025 0.492743
7831.473145 779.605347 7543.827637 0.793560 -0.357025 0.492743
7264.013672 919.280090 7027.162598 -0.762206 0.509638 0.399138
7756.277344 1019.745056 7838.927246 -0.762206 0.509638 0.399138
7750.129883 1053.778809 7783.731934 -0.762206 0.509638 0.399138
7232.345215 708.239685 7083.198242 -0.837919 0.114839 0.533577
7756.277344 1019.745056 7838.927246 -0.837919 0.114839 0.533577
7201.108398 854.185059 7002.733398 -0.837919 0.114839 0.533577
7264.013672 919.280090 7027.162598 -0.733058 0.567950 0.374245
7201.108398 854.185059 7002.733398 -0.733058 0.567950 0.374245
7756.277344 1019.745056 7838.927246 -0.733058 0.567950 0.374245
7831.473145 779.605347 7543.827637 -0.123548 -0.943688 0.306902
7741.143066 880.362732 7817.281250 -0.123548 -0.943688 0.306902
7232.345215 708.239685 7083.198242 -0.123548 -0.943688 0.306902
7741.143066 880.362732 7817.281250 0.919382 -0.155914 0.361148
7831.473145 779.605347 7543.827637 0.919382 -0.155914 0.361148
7756.277344 1019.745056 7838.927246 0.919382 -0.155914 0.361148
7756.277344 1019.745056 7838.927246 -0.821973 0.000804 0.569526
7232.345215 708.239685 7083.198242 -0.821973 0.000804 0.569526
7741.143066 880.362732 7817.281250 -0.821973 0.000804 0.569526
7756.277344 1019.745056 7838.927246 0.824486 0.518083 0.227625
8017.727539 905.305237 7152.391602 0.824486 0.518083 0.227625
7750.129883 1053.778809 7783.731934 0.824486 0.518083 0.227625
3 0 1 2
3 3 4 5
3 6 7 8
3 9 10 11
3 12 13 14
3 15 16 17
3 18 19 20
3 21 22 23
3 24 25 26
3 27 28 29
3 30 31 32
3 33 34 35
3 36 37 38
3 39 40 41
3 42 43 44
3 45 46 47
3 48 49 50
3 51 52 53
3 54 55 56
3 57 58 59
3 60 61 62
3 63 64 65
3 66 67 68
3 69 70 71
3 72 73 74
3 75 76 77
3 78 79 80
3 81 82 83
3 84 85 86
3 87 88 89
3 90 91 92
3 93 94 95
3 96 97 98
3 99 100 101
3 102 103 104
3 105 106 107
