ply
format ascii 1.0
comment Created by Blender 2.80 (sub 75) - www.blender.org, source file: 'downsample_ccf.blend'
element vertex 180
property float x
property float y
property float z
property float nx
property float ny
property float nz
element face 60
property list uchar uint vertex_indices
end_header
7540.969727 777.032471 3014.178467 0.074368 0.318517 -0.944995
7073.735840 831.907898 2995.905029 0.074368 0.318517 -0.944995
7140.041016 995.793762 3056.361816 0.074368 0.318517 -0.944995
7634.308105 895.956604 3100.943359 0.175487 0.486640 -0.855795
7540.969727 777.032471 3014.178467 0.175487 0.486640 -0.855795
7140.041016 995.793762 3056.361816 0.175487 0.486640 -0.855795
7073.735840 831.907898 2995.905029 -0.083396 -0.871185 -0.483820
7540.969727 777.032471 3014.178467 -0.083396 -0.871185 -0.483820
7650.576660 663.229004 3200.204346 -0.083396 -0.871185 -0.483820
7650.576660 663.229004 3200.204346 0.788875 -0.193620 -0.583256
7540.969727 777.032471 3014.178467 0.788875 -0.193620 -0.583256
7634.308105 895.956604 3100.943359 0.788875 -0.193620 -0.583256
7650.576660 663.229004 3200.204346 0.836729 -0.164313 -0.522385
7634.308105 895.956604 3100.943359 0.836729 -0.164313 -0.522385
7722.187012 779.757141 3278.252930 0.836729 -0.164313 -0.522385
7073.735840 831.907898 2995.905029 -0.897681 0.416381 -0.144204
6875.782227 734.529297 3947.007080 -0.897681 0.416381 -0.144204
7140.041016 995.793762 3056.361816 -0.897681 0.416381 -0.144204
7722.187012 779.757141 3278.252930 0.871922 -0.483332 -0.078372
7628.751465 583.772583 3447.408691 0.871922 -0.483332 -0.078372
7650.576660 663.229004 3200.204346 0.871922 -0.483332 -0.078372
7650.576660 663.229004 3200.204346 -0.125252 -0.909215 -0.397039
6977.959473 626.227661 3497.124512 -0.125252 -0.909215 -0.397039
7073.735840 831.907898 2995.905029 -0.125252 -0.909215 -0.397039
7722.187012 779.757141 3278.252930 0.483304 0.822607 0.299557
7634.308105 895.956604 3100.943359 0.483304 0.822607 0.299557
7596.075195 732.364990 3611.864014 0.483304 0.822607 0.299557
7175.106445 660.433228 4178.128906 0.016402 0.958113 0.285922
7140.041016 995.793762 3056.361816 0.016402 0.958113 0.285922
6875.782227 734.529297 3947.007080 0.016402 0.958113 0.285922
7650.576660 663.229004 3200.204346 -0.085547 -0.946316 -0.311718
7628.751465 583.772583 3447.408691 -0.085547 -0.946316 -0.311718
6977.959473 626.227661 3497.124512 -0.085547 -0.946316 -0.311718
7722.187012 779.757141 3278.252930 0.930691 -0.159619 0.329145
7596.075195 732.364990 3611.864014 0.930691 -0.159619 0.329145
7628.751465 583.772583 3447.408691 0.930691 -0.159619 0.329145
7140.041016 995.793762 3056.361816 0.166078 0.946208 0.277684
7175.106445 660.433228 4178.128906 0.166078 0.946208 0.277684
7634.308105 895.956604 3100.943359 0.166078 0.946208 0.277684
6977.959473 626.227661 3497.124512 -0.914454 -0.281853 -0.290401
6748.147949 490.517517 4352.500977 -0.914454 -0.281853 -0.290401
7073.735840 831.907898 2995.905029 -0.914454 -0.281853 -0.290401
7175.106445 660.433228 4178.128906 0.263706 0.912755 0.311988
7596.075195 732.364990 3611.864014 0.263706 0.912755 0.311988
7634.308105 895.956604 3100.943359 0.263706 0.912755 0.311988
7073.735840 831.907898 2995.905029 -0.962121 0.205440 -0.179213
6748.147949 490.517517 4352.500977 -0.962121 0.205440 -0.179213
6875.782227 734.529297 3947.007080 -0.962121 0.205440 -0.179213
7250.113770 471.020355 4031.059570 0.818496 -0.335873 0.466106
7628.751465 583.772583 3447.408691 0.818496 -0.335873 0.466106
7596.075195 732.364990 3611.864014 0.818496 -0.335873 0.466106
7628.751465 583.772583 3447.408691 -0.081423 -0.967423 -0.239714
7250.113770 471.020355 4031.059570 -0.081423 -0.967423 -0.239714
6977.959473 626.227661 3497.124512 -0.081423 -0.967423 -0.239714
6977.959473 626.227661 3497.124512 -0.064368 -0.966578 -0.248161
7250.113770 471.020355 4031.059570 -0.064368 -0.966578 -0.248161
6947.594727 451.493256 4185.583496 -0.064368 -0.966578 -0.248161
6977.959473 626.227661 3497.124512 -0.378408 -0.893076 -0.243357
6947.594727 451.493256 4185.583496 -0.378408 -0.893076 -0.243357
6748.147949 490.517517 4352.500977 -0.378408 -0.893076 -0.243357
7086.106445 490.226715 4316.979980 0.819086 -0.298506 0.489889
7250.113770 471.020355 4031.059570 0.819086 -0.298506 0.489889
7596.075195 732.364990 3611.864014 0.819086 -0.298506 0.489889
6875.782227 734.529297 3947.007080 0.079583 0.974591 0.209379
6770.422363 647.384399 4392.683594 0.079583 0.974591 0.209379
7175.106445 660.433228 4178.128906 0.079583 0.974591 0.209379
7175.106445 660.433228 4178.128906 0.795783 0.074190 0.601020
7086.106445 490.226715 4316.979980 0.795783 0.074190 0.601020
7596.075195 732.364990 3611.864014 0.795783 0.074190 0.601020
6770.422363 647.384399 4392.683594 -0.963731 0.185895 -0.191481
6875.782227 734.529297 3947.007080 -0.963731 0.185895 -0.191481
6748.147949 490.517517 4352.500977 -0.963731 0.185895 -0.191481
6947.594727 451.493256 4185.583496 0.137030 -0.979981 0.144431
7250.113770 471.020355 4031.059570 0.137030 -0.979981 0.144431
7086.106445 490.226715 4316.979980 0.137030 -0.979981 0.144431
7175.106445 660.433228 4178.128906 -0.026986 0.999587 0.009893
6770.422363 647.384399 4392.683594 -0.026986 0.999587 0.009893
7041.462402 655.324829 4329.723145 -0.026986 0.999587 0.009893
7041.462402 655.324829 4329.723145 0.739225 0.149204 0.656722
7086.106445 490.226715 4316.979980 0.739225 0.149204 0.656722
7175.106445 660.433228 4178.128906 0.739225 0.149204 0.656722
7086.106445 490.226715 4316.979980 0.026196 -0.966016 0.257150
6748.147949 490.517517 4352.500977 0.026196 -0.966016 0.257150
6947.594727 451.493256 4185.583496 0.026196 -0.966016 0.257150
6770.422363 647.384399 4392.683594 0.100705 -0.260279 0.960267
6748.147949 490.517517 4352.500977 0.100705 -0.260279 0.960267
7086.106445 490.226715 4316.979980 0.100705 -0.260279 0.960267
7041.462402 655.324829 4329.723145 0.226632 -0.013886 0.973882
6770.422363 647.384399 4392.683594 0.226632 -0.013886 0.973882
7086.106445 490.226715 4316.979980 0.226632 -0.013886 0.973882
7054.205566 613.835449 7016.689941 0.032810 -0.081953 -0.996096
6751.534180 487.213623 7017.138184 0.032810 -0.081953 -0.996096
6783.195801 667.808533 7003.322754 0.032810 -0.081953 -0.996096
7054.205566 613.835449 7016.689941 0.167170 -0.402781 -0.899901
6974.131348 443.286530 7078.149902 0.167170 -0.402781 -0.899901
6751.534180 487.213623 7017.138184 0.167170 -0.402781 -0.899901
7066.697266 519.274841 7047.452148 -0.055189 -0.315473 -0.947328
6974.131348 443.286530 7078.149902 -0.055189 -0.315473 -0.947328
7054.205566 613.835449 7016.689941 -0.055189 -0.315473 -0.947328
6751.534180 487.213623 7017.138184 -0.963344 0.183838 0.195377
6902.064453 582.607422 7669.595703 -0.963344 0.183838 0.195377
6783.195801 667.808533 7003.322754 -0.963344 0.183838 0.195377
6974.131348 443.286530 7078.149902 0.522837 -0.777806 -0.348797
7066.697266 519.274841 7047.452148 0.522837 -0.777806 -0.348797
7392.865234 506.860565 7564.052734 0.522837 -0.777806 -0.348797
7054.205566 613.835449 7016.689941 0.200905 0.943690 -0.262843
6783.195801 667.808533 7003.322754 0.200905 0.943690 -0.262843
6967.403320 806.460815 7641.929199 0.200905 0.943690 -0.262843
7050.432617 862.785034 8348.350586 -0.626463 0.779366 0.011491
6967.403320 806.460815 7641.929199 -0.626463 0.779366 0.011491
6783.195801 667.808533 7003.322754 -0.626463 0.779366 0.011491
6783.195801 667.808533 7003.322754 -0.980188 0.072845 0.184189
6902.064453 582.607422 7669.595703 -0.980188 0.072845 0.184189
7050.432617 862.785034 8348.350586 -0.980188 0.072845 0.184189
7066.697266 519.274841 7047.452148 0.807178 -0.083477 -0.584376
7054.205566 613.835449 7016.689941 0.807178 -0.083477 -0.584376
7594.731445 716.938843 7748.571289 0.807178 -0.083477 -0.584376
7392.865234 506.860565 7564.052734 0.798299 -0.317686 -0.511659
7066.697266 519.274841 7047.452148 0.798299 -0.317686 -0.511659
7594.731445 716.938843 7748.571289 0.798299 -0.317686 -0.511659
7594.731445 716.938843 7748.571289 0.180432 0.946759 -0.266631
7054.205566 613.835449 7016.689941 0.180432 0.946759 -0.266631
6967.403320 806.460815 7641.929199 0.180432 0.946759 -0.266631
6751.534180 487.213623 7017.138184 -0.240975 -0.950819 0.194612
6974.131348 443.286530 7078.149902 -0.240975 -0.950819 0.194612
6902.064453 582.607422 7669.595703 -0.240975 -0.950819 0.194612
6974.131348 443.286530 7078.149902 -0.072207 -0.972746 0.220342
7638.054688 596.691345 7972.961426 -0.072207 -0.972746 0.220342
6902.064453 582.607422 7669.595703 -0.072207 -0.972746 0.220342
7392.865234 506.860565 7564.052734 -0.297976 -0.879184 0.371815
7638.054688 596.691345 7972.961426 -0.297976 -0.879184 0.371815
6974.131348 443.286530 7078.149902 -0.297976 -0.879184 0.371815
7594.731445 716.938843 7748.571289 0.190492 0.916813 -0.350952
6967.403320 806.460815 7641.929199 0.190492 0.916813 -0.350952
7647.247070 893.976379 8239.561523 0.190492 0.916813 -0.350952
7638.054688 596.691345 7972.961426 0.810767 -0.436248 -0.390314
7392.865234 506.860565 7564.052734 0.810767 -0.436248 -0.390314
7594.731445 716.938843 7748.571289 0.810767 -0.436248 -0.390314
6902.064453 582.607422 7669.595703 -0.103619 -0.949713 0.295479
7638.054688 596.691345 7972.961426 -0.103619 -0.949713 0.295479
7071.955566 740.765198 8237.516602 -0.103619 -0.949713 0.295479
7726.186035 745.075684 8069.492676 0.889331 -0.308839 -0.337207
7638.054688 596.691345 7972.961426 0.889331 -0.308839 -0.337207
7594.731445 716.938843 7748.571289 0.889331 -0.308839 -0.337207
7050.432617 862.785034 8348.350586 -0.918044 0.388952 0.076891
7106.195801 999.573120 8322.197266 -0.918044 0.388952 0.076891
6967.403320 806.460815 7641.929199 -0.918044 0.388952 0.076891
7638.054688 596.691345 7972.961426 -0.042992 -0.913169 0.405307
7644.402832 749.770264 8318.526367 -0.042992 -0.913169 0.405307
7071.955566 740.765198 8237.516602 -0.042992 -0.913169 0.405307
7050.432617 862.785034 8348.350586 -0.796275 -0.477642 0.371219
6902.064453 582.607422 7669.595703 -0.796275 -0.477642 0.371219
7071.955566 740.765198 8237.516602 -0.796275 -0.477642 0.371219
7726.186035 745.075684 8069.492676 0.634119 0.703272 -0.321405
7594.731445 716.938843 7748.571289 0.634119 0.703272 -0.321405
7647.247070 893.976379 8239.561523 0.634119 0.703272 -0.321405
6967.403320 806.460815 7641.929199 0.139101 0.944820 -0.296593
7106.195801 999.573120 8322.197266 0.139101 0.944820 -0.296593
7647.247070 893.976379 8239.561523 0.139101 0.944820 -0.296593
7726.186035 745.075684 8069.492676 0.748127 -0.611674 0.257217
7644.402832 749.770264 8318.526367 0.748127 -0.611674 0.257217
7638.054688 596.691345 7972.961426 0.748127 -0.611674 0.257217
7644.402832 749.770264 8318.526367 0.940302 0.149008 0.305988
7726.186035 745.075684 8069.492676 0.940302 0.149008 0.305988
7647.247070 893.976379 8239.561523 0.940302 0.149008 0.305988
7644.402832 749.770264 8318.526367 -0.049209 -0.893172 0.447015
7332.950684 807.713440 8400.015625 -0.049209 -0.893172 0.447015
7071.955566 740.765198 8237.516602 -0.049209 -0.893172 0.447015
7071.955566 740.765198 8237.516602 -0.257975 -0.674143 0.692084
7332.950684 807.713440 8400.015625 -0.257975 -0.674143 0.692084
7050.432617 862.785034 8348.350586 -0.257975 -0.674143 0.692084
7644.402832 749.770264 8318.526367 0.303593 0.453008 0.838221
7647.247070 893.976379 8239.561523 0.303593 0.453008 0.838221
7332.950684 807.713440 8400.015625 0.303593 0.453008 0.838221
7647.247070 893.976379 8239.561523 0.233158 0.589310 0.773532
7106.195801 999.573120 8322.197266 0.233158 0.589310 0.773532
7332.950684 807.713440 8400.015625 0.233158 0.589310 0.773532
7050.432617 862.785034 8348.350586 -0.129865 0.237022 0.962785
7332.950684 807.713440 8400.015625 -0.129865 0.237022 0.962785
7106.195801 999.573120 8322.197266 -0.129865 0.237022 0.962785
3 0 1 2
3 3 4 5
3 6 7 8
3 9 10 11
3 12 13 14
3 15 16 17
3 18 19 20
3 21 22 23
3 24 25 26
3 27 28 29
3 30 31 32
3 33 34 35
3 36 37 38
3 39 40 41
3 42 43 44
3 45 46 47
3 48 49 50
3 51 52 53
3 54 55 56
3 57 58 59
3 60 61 62
3 63 64 65
3 66 67 68
3 69 70 71
3 72 73 74
3 75 76 77
3 78 79 80
3 81 82 83
3 84 85 86
3 87 88 89
3 90 91 92
3 93 94 95
3 96 97 98
3 99 100 101
3 102 103 104
3 105 106 107
3 108 109 110
3 111 112 113
3 114 115 116
3 117 118 119
3 120 121 122
3 123 124 125
3 126 127 128
3 129 130 131
3 132 133 134
3 135 136 137
3 138 139 140
3 141 142 143
3 144 145 146
3 147 148 149
3 150 151 152
3 153 154 155
3 156 157 158
3 159 160 161
3 162 163 164
3 165 166 167
3 168 169 170
3 171 172 173
3 174 175 176
3 177 178 179
