ply
format ascii 1.0
comment Created by Blender 2.80 (sub 75) - www.blender.org, source file: 'downsample_ccf.blend'
element vertex 624
property float x
property float y
property float z
property float nx
property float ny
property float nz
element face 208
property list uchar uint vertex_indices
end_header
9022.977539 1828.808472 2455.673584 -0.200567 0.496297 -0.844667
9644.439453 2103.043945 2469.238281 -0.200567 0.496297 -0.844667
8787.396484 1589.983398 2371.287109 -0.200567 0.496297 -0.844667
9644.439453 2103.043945 2469.238281 -0.133804 0.396877 -0.908067
9241.278320 1739.595093 2369.796387 -0.133804 0.396877 -0.908067
8787.396484 1589.983398 2371.287109 -0.133804 0.396877 -0.908067
9747.685547 1989.088135 2384.568604 -0.201418 0.460029 -0.864756
9241.278320 1739.595093 2369.796387 -0.201418 0.460029 -0.864756
9644.439453 2103.043945 2469.238281 -0.201418 0.460029 -0.864756
9837.799805 2018.816650 2462.101562 0.293860 0.727179 -0.620368
9747.685547 1989.088135 2384.568604 0.293860 0.727179 -0.620368
9644.439453 2103.043945 2469.238281 0.293860 0.727179 -0.620368
8371.828125 1415.445190 2469.357910 -0.055926 -0.384566 -0.921402
8787.396484 1589.983398 2371.287109 -0.055926 -0.384566 -0.921402
8461.122070 1398.192871 2471.138672 -0.055926 -0.384566 -0.921402
8787.396484 1589.983398 2371.287109 0.241325 -0.738391 -0.629715
9241.278320 1739.595093 2369.796387 0.241325 -0.738391 -0.629715
8461.122070 1398.192871 2471.138672 0.241325 -0.738391 -0.629715
9022.977539 1828.808472 2455.673584 -0.403210 0.914838 -0.022230
9373.532227 1983.841553 2477.405518 -0.403210 0.914838 -0.022230
9644.439453 2103.043945 2469.238281 -0.403210 0.914838 -0.022230
9022.977539 1828.808472 2455.673584 -0.332666 0.588515 -0.736874
8787.396484 1589.983398 2371.287109 -0.332666 0.588515 -0.736874
8398.665039 1579.327881 2538.271973 -0.332666 0.588515 -0.736874
8371.828125 1415.445190 2469.357910 -0.369305 0.410969 -0.833497
8398.665039 1579.327881 2538.271973 -0.369305 0.410969 -0.833497
8787.396484 1589.983398 2371.287109 -0.369305 0.410969 -0.833497
9241.278320 1739.595093 2369.796387 0.373668 -0.724130 -0.579661
9747.685547 1989.088135 2384.568604 0.373668 -0.724130 -0.579661
9807.099609 1422.332031 3130.877686 0.373668 -0.724130 -0.579661
9837.799805 2018.816650 2462.101562 0.676731 -0.311259 -0.667198
9943.290039 1930.573853 2610.265869 0.676731 -0.311259 -0.667198
9747.685547 1989.088135 2384.568604 0.676731 -0.311259 -0.667198
8371.828125 1415.445190 2469.357910 -0.129227 -0.737293 -0.663098
8461.122070 1398.192871 2471.138672 -0.129227 -0.737293 -0.663098
8117.016113 1271.811890 2678.721191 -0.129227 -0.737293 -0.663098
9747.685547 1989.088135 2384.568604 0.442762 -0.696745 -0.564365
9943.290039 1930.573853 2610.265869 0.442762 -0.696745 -0.564365
9807.099609 1422.332031 3130.877686 0.442762 -0.696745 -0.564365
9837.799805 2018.816650 2462.101562 0.399188 0.916854 -0.005191
9644.439453 2103.043945 2469.238281 0.399188 0.916854 -0.005191
10011.259766 1945.715210 2889.684326 0.399188 0.916854 -0.005191
8461.122070 1398.192871 2471.138672 0.277119 -0.793913 -0.541208
9241.278320 1739.595093 2369.796387 0.277119 -0.793913 -0.541208
9157.818359 1437.082520 2770.825684 0.277119 -0.793913 -0.541208
9022.977539 1828.808472 2455.673584 -0.386197 0.900973 -0.197737
8398.665039 1579.327881 2538.271973 -0.386197 0.900973 -0.197737
9373.532227 1983.841553 2477.405518 -0.386197 0.900973 -0.197737
8398.665039 1579.327881 2538.271973 -0.687528 0.416673 -0.594718
7965.231445 1326.248413 2862.033691 -0.687528 0.416673 -0.594718
8276.354492 1518.017944 2636.715088 -0.687528 0.416673 -0.594718
9837.799805 2018.816650 2462.101562 0.790542 0.570283 -0.223206
10011.259766 1945.715210 2889.684326 0.790542 0.570283 -0.223206
9943.290039 1930.573853 2610.265869 0.790542 0.570283 -0.223206
8117.016113 1271.811890 2678.721191 0.060493 -0.893983 -0.443999
8461.122070 1398.192871 2471.138672 0.060493 -0.893983 -0.443999
8151.685547 1119.366211 2990.390625 0.060493 -0.893983 -0.443999
8371.828125 1415.445190 2469.357910 -0.685278 0.374799 -0.624436
7965.231445 1326.248413 2862.033691 -0.685278 0.374799 -0.624436
8398.665039 1579.327881 2538.271973 -0.685278 0.374799 -0.624436
7965.231445 1326.248413 2862.033691 -0.698309 0.276388 -0.660283
8371.828125 1415.445190 2469.357910 -0.698309 0.276388 -0.660283
8117.016113 1271.811890 2678.721191 -0.698309 0.276388 -0.660283
9121.271484 1593.610962 2949.479004 -0.303589 0.807693 0.505436
9373.532227 1983.841553 2477.405518 -0.303589 0.807693 0.505436
8398.665039 1579.327881 2538.271973 -0.303589 0.807693 0.505436
9644.439453 2103.043945 2469.238281 0.355491 0.933854 0.039294
9959.583984 1965.779907 2880.338379 0.355491 0.933854 0.039294
10011.259766 1945.715210 2889.684326 0.355491 0.933854 0.039294
8276.354492 1518.017944 2636.715088 -0.202572 0.924158 0.323876
9121.271484 1593.610962 2949.479004 -0.202572 0.924158 0.323876
8398.665039 1579.327881 2538.271973 -0.202572 0.924158 0.323876
8117.016113 1271.811890 2678.721191 0.003607 -0.898136 -0.439703
8151.685547 1119.366211 2990.390625 0.003607 -0.898136 -0.439703
7813.032227 1105.971313 3014.973145 0.003607 -0.898136 -0.439703
9373.532227 1983.841553 2477.405518 -0.210675 0.805767 0.553494
9121.271484 1593.610962 2949.479004 -0.210675 0.805767 0.553494
9704.383789 1528.380981 3266.388672 -0.210675 0.805767 0.553494
9943.290039 1930.573853 2610.265869 0.957604 -0.182315 -0.223062
10011.259766 1945.715210 2889.684326 0.957604 -0.182315 -0.223062
10001.151367 1707.187988 3041.244873 0.957604 -0.182315 -0.223062
9644.439453 2103.043945 2469.238281 -0.406567 0.726343 0.554192
9704.383789 1528.380981 3266.388672 -0.406567 0.726343 0.554192
9959.583984 1965.779907 2880.338379 -0.406567 0.726343 0.554192
8461.122070 1398.192871 2471.138672 0.230305 -0.877055 -0.421586
9157.818359 1437.082520 2770.825684 0.230305 -0.877055 -0.421586
8743.035156 1061.494507 3325.598633 0.230305 -0.877055 -0.421586
7965.231445 1326.248413 2862.033691 -0.606581 0.774809 -0.178133
7931.346680 1324.056519 2967.884766 -0.606581 0.774809 -0.178133
8276.354492 1518.017944 2636.715088 -0.606581 0.774809 -0.178133
9373.532227 1983.841553 2477.405518 -0.316371 0.758078 0.570287
9704.383789 1528.380981 3266.388672 -0.316371 0.758078 0.570287
9644.439453 2103.043945 2469.238281 -0.316371 0.758078 0.570287
9241.278320 1739.595093 2369.796387 0.281362 -0.793324 -0.539881
9807.099609 1422.332031 3130.877686 0.281362 -0.793324 -0.539881
9157.818359 1437.082520 2770.825684 0.281362 -0.793324 -0.539881
9903.571289 1914.299927 2966.889648 -0.845200 0.021816 -0.534005
9959.583984 1965.779907 2880.338379 -0.845200 0.021816 -0.534005
9704.383789 1528.380981 3266.388672 -0.845200 0.021816 -0.534005
7931.346680 1324.056519 2967.884766 -0.203895 0.922462 0.327859
9121.271484 1593.610962 2949.479004 -0.203895 0.922462 0.327859
8276.354492 1518.017944 2636.715088 -0.203895 0.922462 0.327859
8151.685547 1119.366211 2990.390625 0.139659 -0.904675 -0.402564
8461.122070 1398.192871 2471.138672 0.139659 -0.904675 -0.402564
8743.035156 1061.494507 3325.598633 0.139659 -0.904675 -0.402564
7965.231445 1326.248413 2862.033691 -0.757447 0.072878 -0.648816
8117.016113 1271.811890 2678.721191 -0.757447 0.072878 -0.648816
7813.032227 1105.971313 3014.973145 -0.757447 0.072878 -0.648816
10001.151367 1707.187988 3041.244873 0.692311 -0.598477 -0.403150
9807.099609 1422.332031 3130.877686 0.692311 -0.598477 -0.403150
9943.290039 1930.573853 2610.265869 0.692311 -0.598477 -0.403150
9903.571289 1914.299927 2966.889648 0.196418 0.781623 0.592018
10011.259766 1945.715210 2889.684326 0.196418 0.781623 0.592018
9959.583984 1965.779907 2880.338379 0.196418 0.781623 0.592018
7965.231445 1326.248413 2862.033691 -0.772042 0.590564 -0.234915
7758.416992 1198.358032 3220.214111 -0.772042 0.590564 -0.234915
7931.346680 1324.056519 2967.884766 -0.772042 0.590564 -0.234915
10011.259766 1945.715210 2889.684326 0.989620 0.044821 0.136543
9970.205078 1602.184692 3300.000977 0.989620 0.044821 0.136543
10001.151367 1707.187988 3041.244873 0.989620 0.044821 0.136543
7813.032227 1105.971313 3014.973145 -0.863202 0.332900 -0.379552
7758.416992 1198.358032 3220.214111 -0.863202 0.332900 -0.379552
7965.231445 1326.248413 2862.033691 -0.863202 0.332900 -0.379552
7931.346680 1324.056519 2967.884766 -0.190365 0.871243 0.452435
8771.374023 1290.876343 3385.225586 -0.190365 0.871243 0.452435
9121.271484 1593.610962 2949.479004 -0.190365 0.871243 0.452435
7758.416992 1198.358032 3220.214111 -0.916218 0.212709 -0.339557
7813.032227 1105.971313 3014.973145 -0.916218 0.212709 -0.339557
7724.041992 1063.477051 3228.473633 -0.916218 0.212709 -0.339557
9497.446289 1024.942871 3625.307129 0.259192 -0.825587 -0.501224
9157.818359 1437.082520 2770.825684 0.259192 -0.825587 -0.501224
9807.099609 1422.332031 3130.877686 0.259192 -0.825587 -0.501224
9704.383789 1528.380981 3266.388672 -0.541825 0.671719 0.505192
9828.168945 1538.564453 3385.609619 -0.541825 0.671719 0.505192
9903.571289 1914.299927 2966.889648 -0.541825 0.671719 0.505192
7813.032227 1105.971313 3014.973145 0.009464 -0.927067 -0.374776
8151.685547 1119.366211 2990.390625 0.009464 -0.927067 -0.374776
7990.188965 925.507385 3465.852295 0.009464 -0.927067 -0.374776
9807.099609 1422.332031 3130.877686 0.731654 -0.600145 -0.323277
10001.151367 1707.187988 3041.244873 0.731654 -0.600145 -0.323277
9921.036133 1378.841553 3469.481445 0.731654 -0.600145 -0.323277
7724.041992 1063.477051 3228.473633 -0.231388 -0.931160 -0.281780
7813.032227 1105.971313 3014.973145 -0.231388 -0.931160 -0.281780
7990.188965 925.507385 3465.852295 -0.231388 -0.931160 -0.281780
7724.041992 1063.477051 3228.473633 -0.105692 -0.906638 -0.408457
7990.188965 925.507385 3465.852295 -0.105692 -0.906638 -0.408457
7816.816406 971.921631 3407.689941 -0.105692 -0.906638 -0.408457
9921.036133 1378.841553 3469.481445 0.982060 -0.183617 0.042939
10001.151367 1707.187988 3041.244873 0.982060 -0.183617 0.042939
9970.205078 1602.184692 3300.000977 0.982060 -0.183617 0.042939
9970.205078 1602.184692 3300.000977 0.243160 0.731623 0.636868
10011.259766 1945.715210 2889.684326 0.243160 0.731623 0.636868
9903.571289 1914.299927 2966.889648 0.243160 0.731623 0.636868
7931.346680 1324.056519 2967.884766 -0.126631 0.919792 0.371412
7758.416992 1198.358032 3220.214111 -0.126631 0.919792 0.371412
7814.997559 1132.526489 3402.535156 -0.126631 0.919792 0.371412
8743.035156 1061.494507 3325.598633 0.104236 -0.932822 -0.344932
7990.188965 925.507385 3465.852295 0.104236 -0.932822 -0.344932
8151.685547 1119.366211 2990.390625 0.104236 -0.932822 -0.344932
9497.446289 1024.942871 3625.307129 0.147347 -0.866688 -0.476593
8743.035156 1061.494507 3325.598633 0.147347 -0.866688 -0.476593
9157.818359 1437.082520 2770.825684 0.147347 -0.866688 -0.476593
9828.168945 1538.564453 3385.609619 0.076643 0.735187 0.673517
9970.205078 1602.184692 3300.000977 0.076643 0.735187 0.673517
9903.571289 1914.299927 2966.889648 0.076643 0.735187 0.673517
7788.160156 1067.633423 3420.173096 -0.919201 0.252754 0.301967
7758.416992 1198.358032 3220.214111 -0.919201 0.252754 0.301967
7724.041992 1063.477051 3228.473633 -0.919201 0.252754 0.301967
9807.099609 1422.332031 3130.877686 0.657660 -0.686796 -0.309508
9921.036133 1378.841553 3469.481445 0.657660 -0.686796 -0.309508
9763.563477 1156.362549 3628.553711 0.657660 -0.686796 -0.309508
7724.041992 1063.477051 3228.473633 -0.899751 -0.309512 0.307653
7816.816406 971.921631 3407.689941 -0.899751 -0.309512 0.307653
7788.160156 1067.633423 3420.173096 -0.899751 -0.309512 0.307653
7758.416992 1198.358032 3220.214111 -0.799467 0.441382 0.407474
7788.160156 1067.633423 3420.173096 -0.799467 0.441382 0.407474
7814.997559 1132.526489 3402.535156 -0.799467 0.441382 0.407474
8771.374023 1290.876343 3385.225586 -0.145559 0.919138 0.366057
7931.346680 1324.056519 2967.884766 -0.145559 0.919138 0.366057
7814.997559 1132.526489 3402.535156 -0.145559 0.919138 0.366057
9497.446289 1024.942871 3625.307129 0.409391 -0.819063 -0.401913
9807.099609 1422.332031 3130.877686 0.409391 -0.819063 -0.401913
9763.563477 1156.362549 3628.553711 0.409391 -0.819063 -0.401913
9921.036133 1378.841553 3469.481445 0.965232 -0.014444 0.260994
9970.205078 1602.184692 3300.000977 0.965232 -0.014444 0.260994
9860.159180 1272.136475 3688.716797 0.965232 -0.014444 0.260994
9357.896484 1163.478271 3738.613037 -0.184713 0.838597 0.512480
9704.383789 1528.380981 3266.388672 -0.184713 0.838597 0.512480
9121.271484 1593.610962 2949.479004 -0.184713 0.838597 0.512480
8771.374023 1290.876343 3385.225586 -0.145777 0.920164 0.363382
7814.997559 1132.526489 3402.535156 -0.145777 0.920164 0.363382
8432.807617 1068.249512 3813.143799 -0.145777 0.920164 0.363382
9121.271484 1593.610962 2949.479004 -0.116315 0.857007 0.502006
8771.374023 1290.876343 3385.225586 -0.116315 0.857007 0.502006
9357.896484 1163.478271 3738.613037 -0.116315 0.857007 0.502006
8185.496094 912.393188 3683.910645 -0.324229 -0.916249 0.235296
7816.816406 971.921631 3407.689941 -0.324229 -0.916249 0.235296
7990.188965 925.507385 3465.852295 -0.324229 -0.916249 0.235296
8743.035156 1061.494507 3325.598633 0.094748 -0.919072 -0.382531
8719.542969 800.355103 3947.194824 0.094748 -0.919072 -0.382531
7990.188965 925.507385 3465.852295 0.094748 -0.919072 -0.382531
7788.160156 1067.633423 3420.173096 -0.604287 -0.278297 0.746584
7816.816406 971.921631 3407.689941 -0.604287 -0.278297 0.746584
8185.496094 912.393188 3683.910645 -0.604287 -0.278297 0.746584
7788.160156 1067.633423 3420.173096 -0.522294 0.418025 0.743279
8293.154297 1031.448730 3795.376953 -0.522294 0.418025 0.743279
7814.997559 1132.526489 3402.535156 -0.522294 0.418025 0.743279
9828.168945 1538.564453 3385.609619 0.003506 0.799832 0.600214
9720.857422 1129.124878 3931.846924 0.003506 0.799832 0.600214
9970.205078 1602.184692 3300.000977 0.003506 0.799832 0.600214
9720.857422 1129.124878 3931.846924 0.517160 0.574627 0.634309
9860.159180 1272.136475 3688.716797 0.517160 0.574627 0.634309
9970.205078 1602.184692 3300.000977 0.517160 0.574627 0.634309
9612.389648 1217.202026 3812.164795 -0.009907 0.801061 0.598500
9720.857422 1129.124878 3931.846924 -0.009907 0.801061 0.598500
9828.168945 1538.564453 3385.609619 -0.009907 0.801061 0.598500
9704.383789 1528.380981 3266.388672 -0.440008 0.810005 0.387665
9612.389648 1217.202026 3812.164795 -0.440008 0.810005 0.387665
9828.168945 1538.564453 3385.609619 -0.440008 0.810005 0.387665
8185.496094 912.393188 3683.910645 -0.299974 -0.929921 0.212750
7990.188965 925.507385 3465.852295 -0.299974 -0.929921 0.212750
8719.542969 800.355103 3947.194824 -0.299974 -0.929921 0.212750
8743.035156 1061.494507 3325.598633 0.015972 -0.922043 -0.386757
9051.110352 747.675354 4086.477783 0.015972 -0.922043 -0.386757
8719.542969 800.355103 3947.194824 0.015972 -0.922043 -0.386757
9357.896484 1163.478271 3738.613037 -0.304196 0.848706 0.432623
9612.389648 1217.202026 3812.164795 -0.304196 0.848706 0.432623
9704.383789 1528.380981 3266.388672 -0.304196 0.848706 0.432623
8185.496094 912.393188 3683.910645 -0.593989 -0.193869 0.780764
8293.154297 1031.448730 3795.376953 -0.593989 -0.193869 0.780764
7788.160156 1067.633423 3420.173096 -0.593989 -0.193869 0.780764
8432.807617 1068.249512 3813.143799 -0.277929 0.792886 0.542297
7814.997559 1132.526489 3402.535156 -0.277929 0.792886 0.542297
8293.154297 1031.448730 3795.376953 -0.277929 0.792886 0.542297
9860.159180 1272.136475 3688.716797 0.785528 -0.613567 -0.080508
9763.563477 1156.362549 3628.553711 0.785528 -0.613567 -0.080508
9921.036133 1378.841553 3469.481445 0.785528 -0.613567 -0.080508
9497.446289 1024.942871 3625.307129 0.428014 -0.859826 -0.278394
9763.563477 1156.362549 3628.553711 0.428014 -0.859826 -0.278394
9404.416016 840.809143 4050.979248 0.428014 -0.859826 -0.278394
9673.816406 1037.957520 4000.479248 0.771839 -0.635614 -0.016104
9763.563477 1156.362549 3628.553711 0.771839 -0.635614 -0.016104
9860.159180 1272.136475 3688.716797 0.771839 -0.635614 -0.016104
8771.374023 1290.876343 3385.225586 -0.058917 0.903908 0.423649
8432.807617 1068.249512 3813.143799 -0.058917 0.903908 0.423649
9357.896484 1163.478271 3738.613037 -0.058917 0.903908 0.423649
9497.446289 1024.942871 3625.307129 0.205677 -0.913769 -0.350320
9404.416016 840.809143 4050.979248 0.205677 -0.913769 -0.350320
9051.110352 747.675354 4086.477783 0.205677 -0.913769 -0.350320
8758.393555 968.276184 4016.688721 -0.048481 0.863656 0.501744
9357.896484 1163.478271 3738.613037 -0.048481 0.863656 0.501744
8432.807617 1068.249512 3813.143799 -0.048481 0.863656 0.501744
9673.816406 1037.957520 4000.479248 0.891956 -0.135522 0.431332
9860.159180 1272.136475 3688.716797 0.891956 -0.135522 0.431332
9720.857422 1129.124878 3931.846924 0.891956 -0.135522 0.431332
9497.446289 1024.942871 3625.307129 0.123597 -0.898732 -0.420719
9051.110352 747.675354 4086.477783 0.123597 -0.898732 -0.420719
8743.035156 1061.494507 3325.598633 0.123597 -0.898732 -0.420719
9763.563477 1156.362549 3628.553711 0.571442 -0.811742 -0.120532
9673.816406 1037.957520 4000.479248 0.571442 -0.811742 -0.120532
9404.416016 840.809143 4050.979248 0.571442 -0.811742 -0.120532
8758.393555 968.276184 4016.688721 -0.259874 0.634936 0.727545
8432.807617 1068.249512 3813.143799 -0.259874 0.634936 0.727545
8293.154297 1031.448730 3795.376953 -0.259874 0.634936 0.727545
8185.496094 912.393188 3683.910645 -0.472242 -0.335954 0.814937
8719.542969 800.355103 3947.194824 -0.472242 -0.335954 0.814937
8293.154297 1031.448730 3795.376953 -0.472242 -0.335954 0.814937
9357.896484 1163.478271 3738.613037 -0.289586 0.890159 0.351792
9169.806641 943.828979 4139.572754 -0.289586 0.890159 0.351792
9612.389648 1217.202026 3812.164795 -0.289586 0.890159 0.351792
9169.806641 943.828979 4139.572754 -0.081315 0.889702 0.449242
9357.896484 1163.478271 3738.613037 -0.081315 0.889702 0.449242
8758.393555 968.276184 4016.688721 -0.081315 0.889702 0.449242
9169.806641 943.828979 4139.572754 -0.034634 0.789683 0.612537
9720.857422 1129.124878 3931.846924 -0.034634 0.789683 0.612537
9612.389648 1217.202026 3812.164795 -0.034634 0.789683 0.612537
9404.416016 840.809143 4050.979248 0.589295 -0.807855 -0.010118
9673.816406 1037.957520 4000.479248 0.589295 -0.807855 -0.010118
9455.392578 876.212646 4193.228516 0.589295 -0.807855 -0.010118
9051.110352 747.675354 4086.477783 -0.403134 -0.150837 0.902624
8293.154297 1031.448730 3795.376953 -0.403134 -0.150837 0.902624
8719.542969 800.355103 3947.194824 -0.403134 -0.150837 0.902624
8293.154297 1031.448730 3795.376953 -0.442006 -0.321587 0.837384
9051.110352 747.675354 4086.477783 -0.442006 -0.321587 0.837384
8758.393555 968.276184 4016.688721 -0.442006 -0.321587 0.837384
9673.816406 1037.957520 4000.479248 0.428237 0.391994 0.814220
9720.857422 1129.124878 3931.846924 0.428237 0.391994 0.814220
9455.392578 876.212646 4193.228516 0.428237 0.391994 0.814220
9455.392578 876.212646 4193.228516 0.032390 0.701637 0.711798
9720.857422 1129.124878 3931.846924 0.032390 0.701637 0.711798
9169.806641 943.828979 4139.572754 0.032390 0.701637 0.711798
9051.110352 747.675354 4086.477783 -0.377646 -0.216270 0.900339
9311.187500 813.634521 4211.410645 -0.377646 -0.216270 0.900339
8758.393555 968.276184 4016.688721 -0.377646 -0.216270 0.900339
9404.416016 840.809143 4050.979248 0.253300 -0.967245 -0.016641
9311.187500 813.634521 4211.410645 0.253300 -0.967245 -0.016641
9051.110352 747.675354 4086.477783 0.253300 -0.967245 -0.016641
9169.806641 943.828979 4139.572754 -0.266229 0.227704 0.936629
8758.393555 968.276184 4016.688721 -0.266229 0.227704 0.936629
9311.187500 813.634521 4211.410645 -0.266229 0.227704 0.936629
9404.416016 840.809143 4050.979248 0.405379 -0.910522 0.081342
9455.392578 876.212646 4193.228516 0.405379 -0.910522 0.081342
9311.187500 813.634521 4211.410645 0.405379 -0.910522 0.081342
9311.187500 813.634521 4211.410645 -0.069613 0.422926 0.903486
9455.392578 876.212646 4193.228516 -0.069613 0.422926 0.903486
9169.806641 943.828979 4139.572754 -0.069613 0.422926 0.903486
9394.448242 822.327454 7165.731934 -0.289438 -0.196347 -0.936842
9140.821289 759.711914 7257.213379 -0.289438 -0.196347 -0.936842
9050.221680 898.170410 7256.185547 -0.289438 -0.196347 -0.936842
9499.244141 909.836304 7226.880371 -0.015057 0.584773 -0.811057
9394.448242 822.327454 7165.731934 -0.015057 0.584773 -0.811057
9263.623047 972.569397 7276.485352 -0.015057 0.584773 -0.811057
9050.221680 898.170410 7256.185547 -0.104536 0.529537 -0.841821
9263.623047 972.569397 7276.485352 -0.104536 0.529537 -0.841821
9394.448242 822.327454 7165.731934 -0.104536 0.529537 -0.841821
9140.821289 759.711914 7257.213379 -0.369622 -0.248507 -0.895334
8850.611328 771.986938 7373.614258 -0.369622 -0.248507 -0.895334
9050.221680 898.170410 7256.185547 -0.369622 -0.248507 -0.895334
9701.351562 1072.342407 7408.204590 0.664140 -0.743987 -0.073488
9394.448242 822.327454 7165.731934 0.664140 -0.743987 -0.073488
9499.244141 909.836304 7226.880371 0.664140 -0.743987 -0.073488
9140.821289 759.711914 7257.213379 0.308950 -0.924357 0.223860
9394.448242 822.327454 7165.731934 0.308950 -0.924357 0.223860
9331.116211 902.727844 7585.125000 0.308950 -0.924357 0.223860
8652.453125 986.883423 7406.569336 -0.387529 -0.220062 -0.895206
9050.221680 898.170410 7256.185547 -0.387529 -0.220062 -0.895206
8850.611328 771.986938 7373.614258 -0.387529 -0.220062 -0.895206
8652.453125 986.883423 7406.569336 -0.147399 0.630679 -0.761917
9263.623047 972.569397 7276.485352 -0.147399 0.630679 -0.761917
9050.221680 898.170410 7256.185547 -0.147399 0.630679 -0.761917
9701.351562 1072.342407 7408.204590 0.045133 0.718408 -0.694157
9499.244141 909.836304 7226.880371 0.045133 0.718408 -0.694157
9263.623047 972.569397 7276.485352 0.045133 0.718408 -0.694157
9688.725586 1078.583374 7697.731934 0.610029 -0.791175 0.043657
9394.448242 822.327454 7165.731934 0.610029 -0.791175 0.043657
9701.351562 1072.342407 7408.204590 0.610029 -0.791175 0.043657
9701.351562 1072.342407 7408.204590 0.043516 0.721455 -0.691092
9263.623047 972.569397 7276.485352 0.043516 0.721455 -0.691092
9726.086914 1242.807251 7587.716309 0.043516 0.721455 -0.691092
9140.821289 759.711914 7257.213379 0.100277 -0.932006 0.348294
9331.116211 902.727844 7585.125000 0.100277 -0.932006 0.348294
8850.611328 771.986938 7373.614258 0.100277 -0.932006 0.348294
9688.725586 1078.583374 7697.731934 0.370703 -0.900191 0.228552
9331.116211 902.727844 7585.125000 0.370703 -0.900191 0.228552
9394.448242 822.327454 7165.731934 0.370703 -0.900191 0.228552
8850.611328 771.986938 7373.614258 -0.448726 -0.283823 -0.847402
8291.819336 960.717407 7606.300293 -0.448726 -0.283823 -0.847402
8652.453125 986.883423 7406.569336 -0.448726 -0.283823 -0.847402
9263.623047 972.569397 7276.485352 -0.074084 0.891859 -0.446206
8652.453125 986.883423 7406.569336 -0.074084 0.891859 -0.446206
8861.628906 1308.484253 8014.643066 -0.074084 0.891859 -0.446206
9726.086914 1242.807251 7587.716309 -0.251676 0.884116 -0.393697
9263.623047 972.569397 7276.485352 -0.251676 0.884116 -0.393697
9436.956055 1220.841064 7723.218262 -0.251676 0.884116 -0.393697
8291.819336 960.717407 7606.300293 -0.468961 -0.455728 -0.756563
8850.611328 771.986938 7373.614258 -0.468961 -0.455728 -0.756563
8441.832031 859.054443 7574.552246 -0.468961 -0.455728 -0.756563
8652.453125 986.883423 7406.569336 -0.070967 0.891635 -0.447159
8325.973633 1052.793823 7589.808594 -0.070967 0.891635 -0.447159
8861.628906 1308.484253 8014.643066 -0.070967 0.891635 -0.447159
8291.819336 960.717407 7606.300293 -0.485668 0.023641 -0.873824
8325.973633 1052.793823 7589.808594 -0.485668 0.023641 -0.873824
8652.453125 986.883423 7406.569336 -0.485668 0.023641 -0.873824
9701.351562 1072.342407 7408.204590 0.416455 0.629924 -0.655562
9726.086914 1242.807251 7587.716309 0.416455 0.629924 -0.655562
9876.328125 1299.885132 7738.004883 0.416455 0.629924 -0.655562
9876.328125 1299.885132 7738.004883 0.757708 -0.650893 0.047073
9688.725586 1078.583374 7697.731934 0.757708 -0.650893 0.047073
9701.351562 1072.342407 7408.204590 0.757708 -0.650893 0.047073
9436.956055 1220.841064 7723.218262 -0.296505 0.813161 -0.500854
9805.555664 1464.020752 7899.821777 -0.296505 0.813161 -0.500854
9726.086914 1242.807251 7587.716309 -0.296505 0.813161 -0.500854
8291.819336 960.717407 7606.300293 -0.514078 -0.554097 -0.654752
8441.832031 859.054443 7574.552246 -0.514078 -0.554097 -0.654752
7866.668945 950.782715 7948.514648 -0.514078 -0.554097 -0.654752
8850.611328 771.986938 7373.614258 -0.349492 -0.876439 -0.331225
8153.018555 895.195068 7783.663574 -0.349492 -0.876439 -0.331225
8441.832031 859.054443 7574.552246 -0.349492 -0.876439 -0.331225
8325.973633 1052.793823 7589.808594 -0.549750 0.054627 -0.833541
8291.819336 960.717407 7606.300293 -0.549750 0.054627 -0.833541
8081.754883 1079.069214 7752.601562 -0.549750 0.054627 -0.833541
9263.623047 972.569397 7276.485352 -0.095580 0.885369 -0.454958
8861.628906 1308.484253 8014.643066 -0.095580 0.885369 -0.454958
9436.956055 1220.841064 7723.218262 -0.095580 0.885369 -0.454958
9726.086914 1242.807251 7587.716309 0.384409 0.667439 -0.637773
9887.472656 1655.516968 8116.895996 0.384409 0.667439 -0.637773
9876.328125 1299.885132 7738.004883 0.384409 0.667439 -0.637773
7866.668945 950.782715 7948.514648 -0.386290 -0.836347 -0.388977
8441.832031 859.054443 7574.552246 -0.386290 -0.836347 -0.388977
8153.018555 895.195068 7783.663574 -0.386290 -0.836347 -0.388977
9331.116211 902.727844 7585.125000 0.082202 -0.920419 0.382193
8519.985352 1025.281616 8054.724609 0.082202 -0.920419 0.382193
8850.611328 771.986938 7373.614258 0.082202 -0.920419 0.382193
8337.754883 1296.671509 8200.591797 -0.144028 0.919975 -0.364556
8325.973633 1052.793823 7589.808594 -0.144028 0.919975 -0.364556
8081.754883 1079.069214 7752.601562 -0.144028 0.919975 -0.364556
8850.611328 771.986938 7373.614258 0.054447 -0.926972 0.371157
8519.985352 1025.281616 8054.724609 0.054447 -0.926972 0.371157
8153.018555 895.195068 7783.663574 0.054447 -0.926972 0.371157
8325.973633 1052.793823 7589.808594 -0.149974 0.919194 -0.364129
8337.754883 1296.671509 8200.591797 -0.149974 0.919194 -0.364129
8861.628906 1308.484253 8014.643066 -0.149974 0.919194 -0.364129
8291.819336 960.717407 7606.300293 -0.549428 0.055398 -0.833703
7809.698730 1066.240723 7931.040039 -0.549428 0.055398 -0.833703
8081.754883 1079.069214 7752.601562 -0.549428 0.055398 -0.833703
9887.472656 1655.516968 8116.895996 -0.800070 0.566385 -0.197727
9726.086914 1242.807251 7587.716309 -0.800070 0.566385 -0.197727
9805.555664 1464.020752 7899.821777 -0.800070 0.566385 -0.197727
7809.698730 1066.240723 7931.040039 -0.571504 -0.391175 -0.721364
8291.819336 960.717407 7606.300293 -0.571504 -0.391175 -0.721364
7866.668945 950.782715 7948.514648 -0.571504 -0.391175 -0.721364
9805.555664 1464.020752 7899.821777 -0.333148 0.829931 -0.447466
9436.956055 1220.841064 7723.218262 -0.333148 0.829931 -0.447466
9710.682617 1581.945190 8189.175293 -0.333148 0.829931 -0.447466
8153.018555 895.195068 7783.663574 -0.025353 -0.959782 0.279599
7770.237305 1038.597656 8241.213867 -0.025353 -0.959782 0.279599
7866.668945 950.782715 7948.514648 -0.025353 -0.959782 0.279599
7809.698730 1066.240723 7931.040039 -0.409143 0.710339 -0.572731
7746.235352 1162.410645 8095.652832 -0.409143 0.710339 -0.572731
8081.754883 1079.069214 7752.601562 -0.409143 0.710339 -0.572731
9876.328125 1299.885132 7738.004883 0.732161 -0.654801 0.187555
9962.971680 1508.117432 8126.763672 0.732161 -0.654801 0.187555
9688.725586 1078.583374 7697.731934 0.732161 -0.654801 0.187555
7743.963379 1039.858276 8064.175781 -0.899259 0.124382 -0.419359
7746.235352 1162.410645 8095.652832 -0.899259 0.124382 -0.419359
7809.698730 1066.240723 7931.040039 -0.899259 0.124382 -0.419359
7809.698730 1066.240723 7931.040039 -0.763615 -0.447268 -0.465664
7866.668945 950.782715 7948.514648 -0.763615 -0.447268 -0.465664
7743.963379 1039.858276 8064.175781 -0.763615 -0.447268 -0.465664
9805.507812 1394.088013 8207.532227 0.653697 -0.701327 0.284291
9688.725586 1078.583374 7697.731934 0.653697 -0.701327 0.284291
9962.971680 1508.117432 8126.763672 0.653697 -0.701327 0.284291
9887.472656 1655.516968 8116.895996 0.366550 0.672979 -0.642448
9985.301758 1599.896362 8114.448730 0.366550 0.672979 -0.642448
9876.328125 1299.885132 7738.004883 0.366550 0.672979 -0.642448
8153.018555 895.195068 7783.663574 0.070948 -0.933352 0.351880
8519.985352 1025.281616 8054.724609 0.070948 -0.933352 0.351880
7770.237305 1038.597656 8241.213867 0.070948 -0.933352 0.351880
9962.971680 1508.117432 8126.763672 0.965643 -0.246132 -0.083379
9876.328125 1299.885132 7738.004883 0.965643 -0.246132 -0.083379
9985.301758 1599.896362 8114.448730 0.965643 -0.246132 -0.083379
9688.725586 1078.583374 7697.731934 0.270408 -0.845144 0.461098
9805.507812 1394.088013 8207.532227 0.270408 -0.845144 0.461098
9331.116211 902.727844 7585.125000 0.270408 -0.845144 0.461098
7770.237305 1038.597656 8241.213867 -0.539198 -0.838917 0.074048
7743.963379 1039.858276 8064.175781 -0.539198 -0.838917 0.074048
7866.668945 950.782715 7948.514648 -0.539198 -0.838917 0.074048
8861.628906 1308.484253 8014.643066 -0.152272 0.822517 -0.547977
9710.682617 1581.945190 8189.175293 -0.152272 0.822517 -0.547977
9436.956055 1220.841064 7723.218262 -0.152272 0.822517 -0.547977
8081.754883 1079.069214 7752.601562 -0.155577 0.914182 -0.374255
7746.235352 1162.410645 8095.652832 -0.155577 0.914182 -0.374255
7894.124512 1310.466675 8395.828125 -0.155577 0.914182 -0.374255
8337.754883 1296.671509 8200.591797 -0.134188 0.919342 -0.369871
8081.754883 1079.069214 7752.601562 -0.134188 0.919342 -0.369871
7894.124512 1310.466675 8395.828125 -0.134188 0.919342 -0.369871
7743.963379 1039.858276 8064.175781 -0.989001 -0.019329 0.146638
7770.237305 1038.597656 8241.213867 -0.989001 -0.019329 0.146638
7746.235352 1162.410645 8095.652832 -0.989001 -0.019329 0.146638
7770.237305 1038.597656 8241.213867 -0.990979 -0.118487 0.062621
7762.471680 1128.832397 8289.057617 -0.990979 -0.118487 0.062621
7746.235352 1162.410645 8095.652832 -0.990979 -0.118487 0.062621
7746.235352 1162.410645 8095.652832 -0.841582 0.515824 0.160206
7762.471680 1128.832397 8289.057617 -0.841582 0.515824 0.160206
7894.124512 1310.466675 8395.828125 -0.841582 0.515824 0.160206
9985.301758 1599.896362 8114.448730 0.367535 0.674611 -0.640171
9887.472656 1655.516968 8116.895996 0.367535 0.674611 -0.640171
10018.986328 1929.926147 8481.572266 0.367535 0.674611 -0.640171
9331.116211 902.727844 7585.125000 0.139599 -0.872227 0.468757
9134.227539 1383.638916 8538.602539 0.139599 -0.872227 0.468757
8519.985352 1025.281616 8054.724609 0.139599 -0.872227 0.468757
9093.348633 1606.023438 8463.278320 -0.187568 0.860440 -0.473774
8861.628906 1308.484253 8014.643066 -0.187568 0.860440 -0.473774
8337.754883 1296.671509 8200.591797 -0.187568 0.860440 -0.473774
9912.120117 1930.411987 8432.383789 0.297906 0.708063 -0.640233
10018.986328 1929.926147 8481.572266 0.297906 0.708063 -0.640233
9887.472656 1655.516968 8116.895996 0.297906 0.708063 -0.640233
9805.555664 1464.020752 7899.821777 -0.495119 0.735701 -0.462170
9710.682617 1581.945190 8189.175293 -0.495119 0.735701 -0.462170
9887.472656 1655.516968 8116.895996 -0.495119 0.735701 -0.462170
9331.116211 902.727844 7585.125000 0.248191 -0.843350 0.476616
9805.507812 1394.088013 8207.532227 0.248191 -0.843350 0.476616
9134.227539 1383.638916 8538.602539 0.248191 -0.843350 0.476616
9887.472656 1655.516968 8116.895996 -0.500244 0.695992 -0.515122
9710.682617 1581.945190 8189.175293 -0.500244 0.695992 -0.515122
9830.564453 1999.645020 8637.119141 -0.500244 0.695992 -0.515122
9887.472656 1655.516968 8116.895996 -0.660909 0.590622 -0.462995
9830.564453 1999.645020 8637.119141 -0.660909 0.590622 -0.462995
9912.120117 1930.411987 8432.383789 -0.660909 0.590622 -0.462995
8861.628906 1308.484253 8014.643066 -0.178711 0.859968 -0.478035
9093.348633 1606.023438 8463.278320 -0.178711 0.859968 -0.478035
9710.682617 1581.945190 8189.175293 -0.178711 0.859968 -0.478035
9962.971680 1508.117432 8126.763672 0.969064 -0.221044 0.109795
9985.301758 1599.896362 8114.448730 0.969064 -0.221044 0.109795
10018.986328 1929.926147 8481.572266 0.969064 -0.221044 0.109795
7970.272949 1219.848877 8571.169922 -0.812553 0.292625 0.504111
7894.124512 1310.466675 8395.828125 -0.812553 0.292625 0.504111
7762.471680 1128.832397 8289.057617 -0.812553 0.292625 0.504111
10000.153320 1906.851929 8634.943359 0.663749 -0.611257 0.431048
9805.507812 1394.088013 8207.532227 0.663749 -0.611257 0.431048
9962.971680 1508.117432 8126.763672 0.663749 -0.611257 0.431048
7762.471680 1128.832397 8289.057617 -0.677156 -0.389341 0.624398
7770.237305 1038.597656 8241.213867 -0.677156 -0.389341 0.624398
7970.272949 1219.848877 8571.169922 -0.677156 -0.389341 0.624398
10018.986328 1929.926147 8481.572266 0.974858 -0.204296 0.088971
10000.153320 1906.851929 8634.943359 0.974858 -0.204296 0.088971
9962.971680 1508.117432 8126.763672 0.974858 -0.204296 0.088971
7894.124512 1310.466675 8395.828125 -0.146377 0.906228 -0.396641
8328.916992 1548.718384 8779.719727 -0.146377 0.906228 -0.396641
8337.754883 1296.671509 8200.591797 -0.146377 0.906228 -0.396641
8337.754883 1296.671509 8200.591797 -0.228841 0.891310 -0.391406
8328.916992 1548.718384 8779.719727 -0.228841 0.891310 -0.391406
9093.348633 1606.023438 8463.278320 -0.228841 0.891310 -0.391406
9912.120117 1930.411987 8432.383789 0.129125 0.953847 -0.271115
9830.564453 1999.645020 8637.119141 0.129125 0.953847 -0.271115
10018.986328 1929.926147 8481.572266 0.129125 0.953847 -0.271115
8313.512695 1352.885742 8864.769531 -0.141668 -0.828873 0.541202
7970.272949 1219.848877 8571.169922 -0.141668 -0.828873 0.541202
7770.237305 1038.597656 8241.213867 -0.141668 -0.828873 0.541202
8519.985352 1025.281616 8054.724609 0.081070 -0.916650 0.391382
8313.512695 1352.885742 8864.769531 0.081070 -0.916650 0.391382
7770.237305 1038.597656 8241.213867 0.081070 -0.916650 0.391382
9903.713867 1970.520020 8850.255859 0.794293 0.578806 0.184614
10000.153320 1906.851929 8634.943359 0.794293 0.578806 0.184614
10018.986328 1929.926147 8481.572266 0.794293 0.578806 0.184614
8519.985352 1025.281616 8054.724609 0.196406 -0.890579 0.410236
9134.227539 1383.638916 8538.602539 0.196406 -0.890579 0.410236
8313.512695 1352.885742 8864.769531 0.196406 -0.890579 0.410236
10000.153320 1906.851929 8634.943359 0.626090 -0.625614 0.465423
9903.713867 1970.520020 8850.255859 0.626090 -0.625614 0.465423
9805.507812 1394.088013 8207.532227 0.626090 -0.625614 0.465423
9093.348633 1606.023438 8463.278320 -0.215969 0.802038 -0.556860
9384.617188 1987.246460 8899.384766 -0.215969 0.802038 -0.556860
9710.682617 1581.945190 8189.175293 -0.215969 0.802038 -0.556860
8290.320312 1431.229736 8850.353516 -0.738134 0.412587 0.533789
7894.124512 1310.466675 8395.828125 -0.738134 0.412587 0.533789
7970.272949 1219.848877 8571.169922 -0.738134 0.412587 0.533789
9830.564453 1999.645020 8637.119141 -0.362452 0.728040 -0.581882
9710.682617 1581.945190 8189.175293 -0.362452 0.728040 -0.581882
9384.617188 1987.246460 8899.384766 -0.362452 0.728040 -0.581882
7894.124512 1310.466675 8395.828125 -0.707483 0.520095 0.478507
8290.320312 1431.229736 8850.353516 -0.707483 0.520095 0.478507
8328.916992 1548.718384 8779.719727 -0.707483 0.520095 0.478507
9903.713867 1970.520020 8850.255859 0.595776 -0.641026 0.483877
9815.435547 1964.932617 8951.546875 0.595776 -0.641026 0.483877
9805.507812 1394.088013 8207.532227 0.595776 -0.641026 0.483877
9093.348633 1606.023438 8463.278320 -0.249465 0.859005 -0.447076
8328.916992 1548.718384 8779.719727 -0.249465 0.859005 -0.447076
8911.335938 1785.273071 8909.247070 -0.249465 0.859005 -0.447076
9830.564453 1999.645020 8637.119141 -0.321635 0.798317 -0.509157
9384.617188 1987.246460 8899.384766 -0.321635 0.798317 -0.509157
9717.184570 2095.855469 8859.591797 -0.321635 0.798317 -0.509157
10018.986328 1929.926147 8481.572266 0.352122 0.935928 0.007044
9830.564453 1999.645020 8637.119141 0.352122 0.935928 0.007044
9903.713867 1970.520020 8850.255859 0.352122 0.935928 0.007044
9093.348633 1606.023438 8463.278320 -0.354772 0.808397 -0.469714
8911.335938 1785.273071 8909.247070 -0.354772 0.808397 -0.469714
9384.617188 1987.246460 8899.384766 -0.354772 0.808397 -0.469714
9903.713867 1970.520020 8850.255859 0.553440 0.829358 -0.076612
9830.564453 1999.645020 8637.119141 0.553440 0.829358 -0.076612
9717.184570 2095.855469 8859.591797 0.553440 0.829358 -0.076612
9134.227539 1383.638916 8538.602539 0.211072 -0.868112 0.449256
8612.250000 1480.573364 8971.150391 0.211072 -0.868112 0.449256
8313.512695 1352.885742 8864.769531 0.211072 -0.868112 0.449256
7970.272949 1219.848877 8571.169922 -0.638540 -0.047689 0.768110
8313.512695 1352.885742 8864.769531 -0.638540 -0.047689 0.768110
8290.320312 1431.229736 8850.353516 -0.638540 -0.047689 0.768110
9805.507812 1394.088013 8207.532227 0.275101 -0.800454 0.532534
9004.285156 1658.204468 9018.430664 0.275101 -0.800454 0.532534
9134.227539 1383.638916 8538.602539 0.275101 -0.800454 0.532534
9717.184570 2095.855469 8859.591797 -0.328321 0.897853 -0.293367
9384.617188 1987.246460 8899.384766 -0.328321 0.897853 -0.293367
9629.915039 2085.780518 8926.424805 -0.328321 0.897853 -0.293367
8911.335938 1785.273071 8909.247070 -0.411778 0.875636 0.252389
8328.916992 1548.718384 8779.719727 -0.411778 0.875636 0.252389
8576.536133 1628.014404 8908.606445 -0.411778 0.875636 0.252389
8290.320312 1431.229736 8850.353516 -0.263172 0.098684 0.959688
8313.512695 1352.885742 8864.769531 -0.263172 0.098684 0.959688
8576.536133 1628.014404 8908.606445 -0.263172 0.098684 0.959688
8576.536133 1628.014404 8908.606445 -0.516558 0.559418 0.648243
8328.916992 1548.718384 8779.719727 -0.516558 0.559418 0.648243
8290.320312 1431.229736 8850.353516 -0.516558 0.559418 0.648243
9764.012695 2017.852905 8990.037109 0.545385 0.791015 0.277218
9903.713867 1970.520020 8850.255859 0.545385 0.791015 0.277218
9717.184570 2095.855469 8859.591797 0.545385 0.791015 0.277218
9004.285156 1658.204468 9018.430664 0.294858 -0.792755 0.533478
8612.250000 1480.573364 8971.150391 0.294858 -0.792755 0.533478
9134.227539 1383.638916 8538.602539 0.294858 -0.792755 0.533478
9805.507812 1394.088013 8207.532227 0.331033 -0.750780 0.571618
9815.435547 1964.932617 8951.546875 0.331033 -0.750780 0.571618
9004.285156 1658.204468 9018.430664 0.331033 -0.750780 0.571618
9903.713867 1970.520020 8850.255859 0.726126 0.235836 0.645851
9764.012695 2017.852905 8990.037109 0.726126 0.235836 0.645851
9815.435547 1964.932617 8951.546875 0.726126 0.235836 0.645851
8612.250000 1480.573364 8971.150391 -0.422128 0.265445 0.866803
8576.536133 1628.014404 8908.606445 -0.422128 0.265445 0.866803
8313.512695 1352.885742 8864.769531 -0.422128 0.265445 0.866803
9764.012695 2017.852905 8990.037109 0.233493 0.869170 0.435918
9717.184570 2095.855469 8859.591797 0.233493 0.869170 0.435918
9629.915039 2085.780518 8926.424805 0.233493 0.869170 0.435918
8612.250000 1480.573364 8971.150391 -0.256656 0.324083 0.910548
9004.285156 1658.204468 9018.430664 -0.256656 0.324083 0.910548
8576.536133 1628.014404 8908.606445 -0.256656 0.324083 0.910548
9405.027344 1910.415649 8998.616211 -0.288320 0.610823 0.737406
8911.335938 1785.273071 8909.247070 -0.288320 0.610823 0.737406
8576.536133 1628.014404 8908.606445 -0.288320 0.610823 0.737406
8911.335938 1785.273071 8909.247070 -0.296314 0.724724 0.622071
9405.027344 1910.415649 8998.616211 -0.296314 0.724724 0.622071
9384.617188 1987.246460 8899.384766 -0.296314 0.724724 0.622071
9629.915039 2085.780518 8926.424805 -0.350887 0.704112 0.617336
9384.617188 1987.246460 8899.384766 -0.350887 0.704112 0.617336
9405.027344 1910.415649 8998.616211 -0.350887 0.704112 0.617336
9004.285156 1658.204468 9018.430664 -0.250797 0.465191 0.848940
9405.027344 1910.415649 8998.616211 -0.250797 0.465191 0.848940
8576.536133 1628.014404 8908.606445 -0.250797 0.465191 0.848940
9405.027344 1910.415649 8998.616211 -0.135799 0.521041 0.842659
9764.012695 2017.852905 8990.037109 -0.135799 0.521041 0.842659
9629.915039 2085.780518 8926.424805 -0.135799 0.521041 0.842659
9764.012695 2017.852905 8990.037109 0.000734 0.077163 0.997018
9405.027344 1910.415649 8998.616211 0.000734 0.077163 0.997018
9004.285156 1658.204468 9018.430664 0.000734 0.077163 0.997018
9815.435547 1964.932617 8951.546875 0.229964 -0.416334 0.879649
9764.012695 2017.852905 8990.037109 0.229964 -0.416334 0.879649
9004.285156 1658.204468 9018.430664 0.229964 -0.416334 0.879649
3 0 1 2
3 3 4 5
3 6 7 8
3 9 10 11
3 12 13 14
3 15 16 17
3 18 19 20
3 21 22 23
3 24 25 26
3 27 28 29
3 30 31 32
3 33 34 35
3 36 37 38
3 39 40 41
3 42 43 44
3 45 46 47
3 48 49 50
3 51 52 53
3 54 55 56
3 57 58 59
3 60 61 62
3 63 64 65
3 66 67 68
3 69 70 71
3 72 73 74
3 75 76 77
3 78 79 80
3 81 82 83
3 84 85 86
3 87 88 89
3 90 91 92
3 93 94 95
3 96 97 98
3 99 100 101
3 102 103 104
3 105 106 107
3 108 109 110
3 111 112 113
3 114 115 116
3 117 118 119
3 120 121 122
3 123 124 125
3 126 127 128
3 129 130 131
3 132 133 134
3 135 136 137
3 138 139 140
3 141 142 143
3 144 145 146
3 147 148 149
3 150 151 152
3 153 154 155
3 156 157 158
3 159 160 161
3 162 163 164
3 165 166 167
3 168 169 170
3 171 172 173
3 174 175 176
3 177 178 179
3 180 181 182
3 183 184 185
3 186 187 188
3 189 190 191
3 192 193 194
3 195 196 197
3 198 199 200
3 201 202 203
3 204 205 206
3 207 208 209
3 210 211 212
3 213 214 215
3 216 217 218
3 219 220 221
3 222 223 224
3 225 226 227
3 228 229 230
3 231 232 233
3 234 235 236
3 237 238 239
3 240 241 242
3 243 244 245
3 246 247 248
3 249 250 251
3 252 253 254
3 255 256 257
3 258 259 260
3 261 262 263
3 264 265 266
3 267 268 269
3 270 271 272
3 273 274 275
3 276 277 278
3 279 280 281
3 282 283 284
3 285 286 287
3 288 289 290
3 291 292 293
3 294 295 296
3 297 298 299
3 300 301 302
3 303 304 305
3 306 307 308
3 309 310 311
3 312 313 314
3 315 316 317
3 318 319 320
3 321 322 323
3 324 325 326
3 327 328 329
3 330 331 332
3 333 334 335
3 336 337 338
3 339 340 341
3 342 343 344
3 345 346 347
3 348 349 350
3 351 352 353
3 354 355 356
3 357 358 359
3 360 361 362
3 363 364 365
3 366 367 368
3 369 370 371
3 372 373 374
3 375 376 377
3 378 379 380
3 381 382 383
3 384 385 386
3 387 388 389
3 390 391 392
3 393 394 395
3 396 397 398
3 399 400 401
3 402 403 404
3 405 406 407
3 408 409 410
3 411 412 413
3 414 415 416
3 417 418 419
3 420 421 422
3 423 424 425
3 426 427 428
3 429 430 431
3 432 433 434
3 435 436 437
3 438 439 440
3 441 442 443
3 444 445 446
3 447 448 449
3 450 451 452
3 453 454 455
3 456 457 458
3 459 460 461
3 462 463 464
3 465 466 467
3 468 469 470
3 471 472 473
3 474 475 476
3 477 478 479
3 480 481 482
3 483 484 485
3 486 487 488
3 489 490 491
3 492 493 494
3 495 496 497
3 498 499 500
3 501 502 503
3 504 505 506
3 507 508 509
3 510 511 512
3 513 514 515
3 516 517 518
3 519 520 521
3 522 523 524
3 525 526 527
3 528 529 530
3 531 532 533
3 534 535 536
3 537 538 539
3 540 541 542
3 543 544 545
3 546 547 548
3 549 550 551
3 552 553 554
3 555 556 557
3 558 559 560
3 561 562 563
3 564 565 566
3 567 568 569
3 570 571 572
3 573 574 575
3 576 577 578
3 579 580 581
3 582 583 584
3 585 586 587
3 588 589 590
3 591 592 593
3 594 595 596
3 597 598 599
3 600 601 602
3 603 604 605
3 606 607 608
3 609 610 611
3 612 613 614
3 615 616 617
3 618 619 620
3 621 622 623
