ply
format ascii 1.0
comment Created by Blender 2.80 (sub 75) - www.blender.org, source file: 'downsample_ccf.blend'
element vertex 156
property float x
property float y
property float z
property float nx
property float ny
property float nz
element face 52
property list uchar uint vertex_indices
end_header
7827.271973 624.169434 3376.983154 -0.992452 -0.122509 0.005551
7837.097656 552.435669 3550.539795 -0.992452 -0.122509 0.005551
7809.035156 773.955017 3422.178223 -0.992452 -0.122509 0.005551
7809.035156 773.955017 3422.178223 0.549626 0.301948 -0.778934
8504.560547 480.559204 3799.217773 0.549626 0.301948 -0.778934
7827.271973 624.169434 3376.983154 0.549626 0.301948 -0.778934
8504.560547 480.559204 3799.217773 0.539302 0.241888 -0.806625
7809.035156 773.955017 3422.178223 0.539302 0.241888 -0.806625
8451.233398 670.055725 3820.389404 0.539302 0.241888 -0.806625
7827.271973 624.169434 3376.983154 0.043632 -0.922418 -0.383720
8504.560547 480.559204 3799.217773 0.043632 -0.922418 -0.383720
7837.097656 552.435669 3550.539795 0.043632 -0.922418 -0.383720
7837.097656 552.435669 3550.539795 -0.933600 0.083627 0.348423
8045.735352 566.976501 4106.095215 -0.933600 0.083627 0.348423
7809.035156 773.955017 3422.178223 -0.933600 0.083627 0.348423
8504.560547 480.559204 3799.217773 -0.028067 -0.977874 -0.207305
8097.301758 409.865692 4187.824707 -0.028067 -0.977874 -0.207305
7837.097656 552.435669 3550.539795 -0.028067 -0.977874 -0.207305
8504.560547 480.559204 3799.217773 -0.047439 -0.972812 -0.226685
8607.172852 398.946625 4127.980957 -0.047439 -0.972812 -0.226685
8097.301758 409.865692 4187.824707 -0.047439 -0.972812 -0.226685
8045.735352 566.976501 4106.095215 -0.928155 -0.121654 0.351751
7837.097656 552.435669 3550.539795 -0.928155 -0.121654 0.351751
8097.301758 409.865692 4187.824707 -0.928155 -0.121654 0.351751
8045.735352 566.976501 4106.095215 -0.064290 0.948762 0.309381
8748.373047 576.400757 4223.203613 -0.064290 0.948762 0.309381
7809.035156 773.955017 3422.178223 -0.064290 0.948762 0.309381
8451.233398 670.055725 3820.389404 0.441987 0.221499 -0.869244
9092.827148 616.850403 4133.064941 0.441987 0.221499 -0.869244
8504.560547 480.559204 3799.217773 0.441987 0.221499 -0.869244
7809.035156 773.955017 3422.178223 0.031771 0.978444 0.204054
8748.373047 576.400757 4223.203613 0.031771 0.978444 0.204054
8451.233398 670.055725 3820.389404 0.031771 0.978444 0.204054
9298.486328 518.588562 4234.759277 0.475696 0.090067 -0.874986
8504.560547 480.559204 3799.217773 0.475696 0.090067 -0.874986
9092.827148 616.850403 4133.064941 0.475696 0.090067 -0.874986
8504.560547 480.559204 3799.217773 0.207107 -0.932430 -0.296109
9298.486328 518.588562 4234.759277 0.207107 -0.932430 -0.296109
8607.172852 398.946625 4127.980957 0.207107 -0.932430 -0.296109
9092.827148 616.850403 4133.064941 -0.045774 0.965024 0.258135
8451.233398 670.055725 3820.389404 -0.045774 0.965024 0.258135
8748.373047 576.400757 4223.203613 -0.045774 0.965024 0.258135
9441.276367 648.747559 4327.060547 -0.108455 0.993604 0.031433
9092.827148 616.850403 4133.064941 -0.108455 0.993604 0.031433
8748.373047 576.400757 4223.203613 -0.108455 0.993604 0.031433
8607.172852 398.946625 4127.980957 -0.001056 -0.985309 0.170780
8576.235352 432.039398 4318.717285 -0.001056 -0.985309 0.170780
8097.301758 409.865692 4187.824707 -0.001056 -0.985309 0.170780
8045.735352 566.976501 4106.095215 -0.110715 0.791884 0.600551
8362.247070 477.934753 4281.855957 -0.110715 0.791884 0.600551
8748.373047 576.400757 4223.203613 -0.110715 0.791884 0.600551
9298.486328 518.588562 4234.759277 0.477521 0.095514 -0.873413
9092.827148 616.850403 4133.064941 0.477521 0.095514 -0.873413
9441.276367 648.747559 4327.060547 0.477521 0.095514 -0.873413
9298.486328 518.588562 4234.759277 0.189715 -0.971911 -0.139274
9145.739258 474.714264 4332.864258 0.189715 -0.971911 -0.139274
8607.172852 398.946625 4127.980957 0.189715 -0.971911 -0.139274
8607.172852 398.946625 4127.980957 0.069003 -0.980987 0.181394
9145.739258 474.714264 4332.864258 0.069003 -0.980987 0.181394
8576.235352 432.039398 4318.717285 0.069003 -0.980987 0.181394
8362.247070 477.934753 4281.855957 -0.388991 0.321440 0.863344
8045.735352 566.976501 4106.095215 -0.388991 0.321440 0.863344
8097.301758 409.865692 4187.824707 -0.388991 0.321440 0.863344
8097.301758 409.865692 4187.824707 -0.231636 -0.351468 0.907091
8576.235352 432.039398 4318.717285 -0.231636 -0.351468 0.907091
8362.247070 477.934753 4281.855957 -0.231636 -0.351468 0.907091
9298.486328 518.588562 4234.759277 0.474139 -0.792364 0.383863
9441.276367 648.747559 4327.060547 0.474139 -0.792364 0.383863
9145.739258 474.714264 4332.864258 0.474139 -0.792364 0.383863
8576.235352 432.039398 4318.717285 -0.019888 0.568065 0.822743
8748.373047 576.400757 4223.203613 -0.019888 0.568065 0.822743
8362.247070 477.934753 4281.855957 -0.019888 0.568065 0.822743
9441.276367 648.747559 4327.060547 -0.177569 0.681474 0.709974
8748.373047 576.400757 4223.203613 -0.177569 0.681474 0.709974
8576.235352 432.039398 4318.717285 -0.177569 0.681474 0.709974
9441.276367 648.747559 4327.060547 -0.031194 0.086181 0.995791
8576.235352 432.039398 4318.717285 -0.031194 0.086181 0.995791
9145.739258 474.714264 4332.864258 -0.031194 0.086181 0.995791
8837.921875 452.744537 7049.695312 -0.017108 0.050941 -0.998555
9435.309570 656.537781 7049.856934 -0.017108 0.050941 -0.998555
9233.803711 484.402100 7044.527832 -0.017108 0.050941 -0.998555
8168.182129 473.279358 7130.757812 -0.104973 0.308461 -0.945427
9435.309570 656.537781 7049.856934 -0.104973 0.308461 -0.945427
8837.921875 452.744537 7049.695312 -0.104973 0.308461 -0.945427
9233.803711 484.402100 7044.527832 0.639305 -0.753181 0.154944
9435.309570 656.537781 7049.856934 0.639305 -0.753181 0.154944
9245.044922 522.107666 7181.432617 0.639305 -0.753181 0.154944
8837.921875 452.744537 7049.695312 0.069545 -0.929004 -0.363476
9233.803711 484.402100 7044.527832 0.069545 -0.929004 -0.363476
8367.151367 383.982086 7135.370117 0.069545 -0.929004 -0.363476
8837.921875 452.744537 7049.695312 -0.123466 -0.323559 -0.938118
8367.151367 383.982086 7135.370117 -0.123466 -0.323559 -0.938118
8168.182129 473.279358 7130.757812 -0.123466 -0.323559 -0.938118
8367.151367 383.982086 7135.370117 -0.371102 -0.846584 -0.381549
8042.724121 433.020142 7342.107910 -0.371102 -0.846584 -0.381549
8168.182129 473.279358 7130.757812 -0.371102 -0.846584 -0.381549
8168.182129 473.279358 7130.757812 -0.847325 -0.098824 -0.521799
8042.724121 433.020142 7342.107910 -0.847325 -0.098824 -0.521799
8047.009766 578.766907 7307.545410 -0.847325 -0.098824 -0.521799
8168.182129 473.279358 7130.757812 -0.153302 0.963914 -0.217641
8904.689453 625.363647 7285.546875 -0.153302 0.963914 -0.217641
9435.309570 656.537781 7049.856934 -0.153302 0.963914 -0.217641
8168.182129 473.279358 7130.757812 -0.059451 0.838768 -0.541234
8047.009766 578.766907 7307.545410 -0.059451 0.838768 -0.541234
8904.689453 625.363647 7285.546875 -0.059451 0.838768 -0.541234
9435.309570 656.537781 7049.856934 0.471997 0.177228 0.863602
8915.381836 592.805359 7347.099609 0.471997 0.177228 0.863602
9245.044922 522.107666 7181.432617 0.471997 0.177228 0.863602
8915.381836 592.805359 7347.099609 0.144735 0.884820 0.442883
9435.309570 656.537781 7049.856934 0.144735 0.884820 0.442883
8904.689453 625.363647 7285.546875 0.144735 0.884820 0.442883
9233.803711 484.402100 7044.527832 0.132000 -0.974357 0.182223
8439.044922 483.247528 7614.070312 0.132000 -0.974357 0.182223
8367.151367 383.982086 7135.370117 0.132000 -0.974357 0.182223
9233.803711 484.402100 7044.527832 0.178802 -0.952227 0.247576
9245.044922 522.107666 7181.432617 0.178802 -0.952227 0.247576
8439.044922 483.247528 7614.070312 0.178802 -0.952227 0.247576
8367.151367 383.982086 7135.370117 -0.016979 -0.978518 0.205460
8439.044922 483.247528 7614.070312 -0.016979 -0.978518 0.205460
8042.724121 433.020142 7342.107910 -0.016979 -0.978518 0.205460
8904.689453 625.363647 7285.546875 -0.059662 0.941281 -0.332312
8047.009766 578.766907 7307.545410 -0.059662 0.941281 -0.332312
7836.817871 758.602966 7854.672363 -0.059662 0.941281 -0.332312
8904.689453 625.363647 7285.546875 0.319866 0.859355 0.398991
7836.817871 758.602966 7854.672363 0.319866 0.859355 0.398991
8915.381836 592.805359 7347.099609 0.319866 0.859355 0.398991
9245.044922 522.107666 7181.432617 0.465553 0.114389 0.877596
8915.381836 592.805359 7347.099609 0.465553 0.114389 0.877596
8439.044922 483.247528 7614.070312 0.465553 0.114389 0.877596
7836.817871 758.602966 7854.672363 -0.937918 -0.053684 -0.342678
8047.009766 578.766907 7307.545410 -0.937918 -0.053684 -0.342678
8042.724121 433.020142 7342.107910 -0.937918 -0.053684 -0.342678
8042.724121 433.020142 7342.107910 -0.035335 -0.972298 0.231061
8439.044922 483.247528 7614.070312 -0.035335 -0.972298 0.231061
7824.730957 588.661804 7963.707520 -0.035335 -0.972298 0.231061
8042.724121 433.020142 7342.107910 -0.945593 -0.125372 -0.300225
7824.730957 588.661804 7963.707520 -0.945593 -0.125372 -0.300225
7836.817871 758.602966 7854.672363 -0.945593 -0.125372 -0.300225
7872.554199 762.344604 7922.945801 0.485605 0.018410 0.873985
8439.044922 483.247528 7614.070312 0.485605 0.018410 0.873985
8915.381836 592.805359 7347.099609 0.485605 0.018410 0.873985
8915.381836 592.805359 7347.099609 0.101519 0.989026 -0.107340
7836.817871 758.602966 7854.672363 0.101519 0.989026 -0.107340
7872.554199 762.344604 7922.945801 0.101519 0.989026 -0.107340
7824.730957 588.661804 7963.707520 -0.997273 0.026820 -0.068750
7824.281738 671.584900 8002.572754 -0.997273 0.026820 -0.068750
7836.817871 758.602966 7854.672363 -0.997273 0.026820 -0.068750
7872.554199 762.344604 7922.945801 0.574675 0.345302 0.741967
7824.281738 671.584900 8002.572754 0.574675 0.345302 0.741967
8439.044922 483.247528 7614.070312 0.574675 0.345302 0.741967
7824.730957 588.661804 7963.707520 0.405335 -0.386162 0.828602
8439.044922 483.247528 7614.070312 0.405335 -0.386162 0.828602
7824.281738 671.584900 8002.572754 0.405335 -0.386162 0.828602
7824.281738 671.584900 8002.572754 -0.687350 0.649978 0.324158
7872.554199 762.344604 7922.945801 -0.687350 0.649978 0.324158
7836.817871 758.602966 7854.672363 -0.687350 0.649978 0.324158
3 0 1 2
3 3 4 5
3 6 7 8
3 9 10 11
3 12 13 14
3 15 16 17
3 18 19 20
3 21 22 23
3 24 25 26
3 27 28 29
3 30 31 32
3 33 34 35
3 36 37 38
3 39 40 41
3 42 43 44
3 45 46 47
3 48 49 50
3 51 52 53
3 54 55 56
3 57 58 59
3 60 61 62
3 63 64 65
3 66 67 68
3 69 70 71
3 72 73 74
3 75 76 77
3 78 79 80
3 81 82 83
3 84 85 86
3 87 88 89
3 90 91 92
3 93 94 95
3 96 97 98
3 99 100 101
3 102 103 104
3 105 106 107
3 108 109 110
3 111 112 113
3 114 115 116
3 117 118 119
3 120 121 122
3 123 124 125
3 126 127 128
3 129 130 131
3 132 133 134
3 135 136 137
3 138 139 140
3 141 142 143
3 144 145 146
3 147 148 149
3 150 151 152
3 153 154 155
