ply
format ascii 1.0
comment Created by Blender 2.80 (sub 75) - www.blender.org, source file: 'downsample_ccf.blend'
element vertex 138
property float x
property float y
property float z
property float nx
property float ny
property float nz
element face 46
property list uchar uint vertex_indices
end_header
7819.520996 1051.045532 3510.699951 -0.998161 -0.023216 -0.055996
7824.248047 943.488220 3471.031738 -0.998161 -0.023216 -0.055996
7813.907715 969.839966 3644.427734 -0.998161 -0.023216 -0.055996
8111.937012 652.578247 4234.279785 -0.772722 -0.632765 0.050083
7813.907715 969.839966 3644.427734 -0.772722 -0.632765 0.050083
7824.248047 943.488220 3471.031738 -0.772722 -0.632765 0.050083
7819.520996 1051.045532 3510.699951 0.565215 0.307205 -0.765609
8359.515625 835.029053 3822.675781 0.565215 0.307205 -0.765609
7824.248047 943.488220 3471.031738 0.565215 0.307205 -0.765609
8330.778320 1021.671692 3885.680420 0.568753 0.340339 -0.748792
8359.515625 835.029053 3822.675781 0.568753 0.340339 -0.748792
7819.520996 1051.045532 3510.699951 0.568753 0.340339 -0.748792
7819.520996 1051.045532 3510.699951 -0.662189 0.652504 0.368435
7813.907715 969.839966 3644.427734 -0.662189 0.652504 0.368435
8085.466797 926.396484 4209.440918 -0.662189 0.652504 0.368435
7819.520996 1051.045532 3510.699951 -0.098999 0.972427 0.211152
8085.466797 926.396484 4209.440918 -0.098999 0.972427 0.211152
8330.778320 1021.671692 3885.680420 -0.098999 0.972427 0.211152
7824.248047 943.488220 3471.031738 0.058744 -0.925244 -0.374797
8359.515625 835.029053 3822.675781 0.058744 -0.925244 -0.374797
8111.937012 652.578247 4234.279785 0.058744 -0.925244 -0.374797
8111.937012 652.578247 4234.279785 -0.913373 -0.213415 0.346703
8102.083496 764.900208 4277.461426 -0.913373 -0.213415 0.346703
7813.907715 969.839966 3644.427734 -0.913373 -0.213415 0.346703
8102.083496 764.900208 4277.461426 -0.894696 0.092040 0.437090
8085.466797 926.396484 4209.440918 -0.894696 0.092040 0.437090
7813.907715 969.839966 3644.427734 -0.894696 0.092040 0.437090
8359.515625 835.029053 3822.675781 0.079350 -0.887845 -0.453250
9004.083008 738.945374 4123.732910 0.079350 -0.887845 -0.453250
8860.410156 635.003418 4302.186035 0.079350 -0.887845 -0.453250
8330.778320 1021.671692 3885.680420 0.388108 0.347853 -0.853446
9190.067383 863.369568 4211.923340 0.388108 0.347853 -0.853446
8359.515625 835.029053 3822.675781 0.388108 0.347853 -0.853446
8359.515625 835.029053 3822.675781 0.424135 0.007874 -0.905565
9190.067383 863.369568 4211.923340 0.424135 0.007874 -0.905565
9004.083008 738.945374 4123.732910 0.424135 0.007874 -0.905565
8860.410156 635.003418 4302.186035 0.014557 -0.917328 -0.397866
8111.937012 652.578247 4234.279785 0.014557 -0.917328 -0.397866
8359.515625 835.029053 3822.675781 0.014557 -0.917328 -0.397866
9190.067383 863.369568 4211.923340 0.053278 0.946308 0.318845
8330.778320 1021.671692 3885.680420 0.053278 0.946308 0.318845
8085.466797 926.396484 4209.440918 0.053278 0.946308 0.318845
8860.410156 635.003418 4302.186035 0.279206 -0.910352 -0.305455
9004.083008 738.945374 4123.732910 0.279206 -0.910352 -0.305455
9210.694336 753.117432 4270.352051 0.279206 -0.910352 -0.305455
9004.083008 738.945374 4123.732910 0.565518 -0.301101 -0.767807
9190.067383 863.369568 4211.923340 0.565518 -0.301101 -0.767807
9210.694336 753.117432 4270.352051 0.565518 -0.301101 -0.767807
9190.067383 863.369568 4211.923340 0.043095 0.779864 0.624464
8085.466797 926.396484 4209.440918 0.043095 0.779864 0.624464
8489.174805 825.974976 4306.992676 0.043095 0.779864 0.624464
9190.067383 863.369568 4211.923340 0.092750 0.479737 0.872496
8489.174805 825.974976 4306.992676 0.092750 0.479737 0.872496
9210.694336 753.117432 4270.352051 0.092750 0.479737 0.872496
8111.937012 652.578247 4234.279785 -0.092626 -0.364367 0.926638
8860.410156 635.003418 4302.186035 -0.092626 -0.364367 0.926638
8102.083496 764.900208 4277.461426 -0.092626 -0.364367 0.926638
8860.410156 635.003418 4302.186035 -0.054781 -0.131403 0.989814
8489.174805 825.974976 4306.992676 -0.054781 -0.131403 0.989814
8102.083496 764.900208 4277.461426 -0.054781 -0.131403 0.989814
9210.694336 753.117432 4270.352051 0.059667 0.090968 0.994065
8489.174805 825.974976 4306.992676 0.059667 0.090968 0.994065
8860.410156 635.003418 4302.186035 0.059667 0.090968 0.994065
8489.174805 825.974976 4306.992676 -0.129026 0.373615 0.918567
8085.466797 926.396484 4209.440918 -0.129026 0.373615 0.918567
8102.083496 764.900208 4277.461426 -0.129026 0.373615 0.918567
8140.942383 843.484070 7086.504395 -0.034694 -0.115856 -0.992660
9026.332031 664.020203 7076.505371 -0.034694 -0.115856 -0.992660
8156.562012 641.126831 7109.576172 -0.034694 -0.115856 -0.992660
9267.395508 812.709290 7136.643066 0.050634 0.302827 -0.951699
9026.332031 664.020203 7076.505371 0.050634 0.302827 -0.951699
8140.942383 843.484070 7086.504395 0.050634 0.302827 -0.951699
9267.395508 812.709290 7136.643066 0.050194 0.734232 -0.677040
8140.942383 843.484070 7086.504395 0.050194 0.734232 -0.677040
8092.015137 906.354309 7151.058105 0.050194 0.734232 -0.677040
9026.332031 664.020203 7076.505371 0.035811 -0.960150 0.277180
8908.408203 721.736694 7291.670898 0.035811 -0.960150 0.277180
8156.562012 641.126831 7109.576172 0.035811 -0.960150 0.277180
8984.830078 903.267029 7235.587891 0.057668 0.813001 -0.579400
9267.395508 812.709290 7136.643066 0.057668 0.813001 -0.579400
8092.015137 906.354309 7151.058105 0.057668 0.813001 -0.579400
8156.562012 641.126831 7109.576172 -0.876196 -0.120827 -0.466563
7940.895996 798.204895 7473.913574 -0.876196 -0.120827 -0.466563
8140.942383 843.484070 7086.504395 -0.876196 -0.120827 -0.466563
9026.332031 664.020203 7076.505371 0.392566 -0.811510 0.432831
9267.395508 812.709290 7136.643066 0.392566 -0.811510 0.432831
8908.408203 721.736694 7291.670898 0.392566 -0.811510 0.432831
8505.055664 987.029846 7425.113770 0.034477 0.943458 -0.329694
8984.830078 903.267029 7235.587891 0.034477 0.943458 -0.329694
8092.015137 906.354309 7151.058105 0.034477 0.943458 -0.329694
9267.395508 812.709290 7136.643066 0.364825 0.131196 0.921787
8984.830078 903.267029 7235.587891 0.364825 0.131196 0.921787
8908.408203 721.736694 7291.670898 0.364825 0.131196 0.921787
7940.895996 798.204895 7473.913574 -0.862877 -0.191087 -0.467898
8092.015137 906.354309 7151.058105 -0.862877 -0.191087 -0.467898
8140.942383 843.484070 7086.504395 -0.862877 -0.191087 -0.467898
8908.408203 721.736694 7291.670898 0.382977 0.121676 0.915709
8984.830078 903.267029 7235.587891 0.382977 0.121676 0.915709
8505.055664 987.029846 7425.113770 0.382977 0.121676 0.915709
8505.055664 987.029846 7425.113770 -0.012929 0.964329 -0.264390
8092.015137 906.354309 7151.058105 -0.012929 0.964329 -0.264390
7954.459473 1069.270142 7752.000000 -0.012929 0.964329 -0.264390
8156.562012 641.126831 7109.576172 -0.459280 -0.881671 0.108252
7843.443848 892.592712 7829.208008 -0.459280 -0.881671 0.108252
7940.895996 798.204895 7473.913574 -0.459280 -0.881671 0.108252
8908.408203 721.736694 7291.670898 0.002314 -0.917908 0.396787
8398.361328 823.805176 7530.765625 0.002314 -0.917908 0.396787
8156.562012 641.126831 7109.576172 0.002314 -0.917908 0.396787
8156.562012 641.126831 7109.576172 0.077683 -0.930163 0.358834
8398.361328 823.805176 7530.765625 0.077683 -0.930163 0.358834
7843.443848 892.592712 7829.208008 0.077683 -0.930163 0.358834
8908.408203 721.736694 7291.670898 0.451901 0.257454 0.854109
8505.055664 987.029846 7425.113770 0.451901 0.257454 0.854109
8398.361328 823.805176 7530.765625 0.451901 0.257454 0.854109
7940.895996 798.204895 7473.913574 -0.914019 0.129907 -0.384309
7819.417969 1046.792480 7846.858887 -0.914019 0.129907 -0.384309
8092.015137 906.354309 7151.058105 -0.914019 0.129907 -0.384309
8092.015137 906.354309 7151.058105 -0.370619 0.871513 -0.321103
7819.417969 1046.792480 7846.858887 -0.370619 0.871513 -0.321103
7954.459473 1069.270142 7752.000000 -0.370619 0.871513 -0.321103
7843.443848 892.592712 7829.208008 -0.964863 -0.123807 -0.231757
7819.417969 1046.792480 7846.858887 -0.964863 -0.123807 -0.231757
7940.895996 798.204895 7473.913574 -0.964863 -0.123807 -0.231757
8505.055664 987.029846 7425.113770 0.581979 0.138284 0.801360
7867.123535 1001.305298 7885.941406 0.581979 0.138284 0.801360
8398.361328 823.805176 7530.765625 0.581979 0.138284 0.801360
7867.123535 1001.305298 7885.941406 0.463674 0.630638 0.622336
8505.055664 987.029846 7425.113770 0.463674 0.630638 0.622336
7954.459473 1069.270142 7752.000000 0.463674 0.630638 0.622336
7867.123535 1001.305298 7885.941406 0.364274 -0.491997 0.790723
7843.443848 892.592712 7829.208008 0.364274 -0.491997 0.790723
8398.361328 823.805176 7530.765625 0.364274 -0.491997 0.790723
7954.459473 1069.270142 7752.000000 0.271700 0.775086 0.570457
7819.417969 1046.792480 7846.858887 0.271700 0.775086 0.570457
7867.123535 1001.305298 7885.941406 0.271700 0.775086 0.570457
7843.443848 892.592712 7829.208008 -0.723745 -0.188745 0.663754
7867.123535 1001.305298 7885.941406 -0.723745 -0.188745 0.663754
7819.417969 1046.792480 7846.858887 -0.723745 -0.188745 0.663754
3 0 1 2
3 3 4 5
3 6 7 8
3 9 10 11
3 12 13 14
3 15 16 17
3 18 19 20
3 21 22 23
3 24 25 26
3 27 28 29
3 30 31 32
3 33 34 35
3 36 37 38
3 39 40 41
3 42 43 44
3 45 46 47
3 48 49 50
3 51 52 53
3 54 55 56
3 57 58 59
3 60 61 62
3 63 64 65
3 66 67 68
3 69 70 71
3 72 73 74
3 75 76 77
3 78 79 80
3 81 82 83
3 84 85 86
3 87 88 89
3 90 91 92
3 93 94 95
3 96 97 98
3 99 100 101
3 102 103 104
3 105 106 107
3 108 109 110
3 111 112 113
3 114 115 116
3 117 118 119
3 120 121 122
3 123 124 125
3 126 127 128
3 129 130 131
3 132 133 134
3 135 136 137
