ply
format ascii 1.0
comment Created by Blender 2.80 (sub 75) - www.blender.org, source file: 'downsample_ccf.blend'
element vertex 504
property float x
property float y
property float z
property float nx
property float ny
property float nz
element face 168
property list uchar uint vertex_indices
end_header
8551.832031 1784.899292 2588.551758 -0.278334 0.333264 -0.900814
8891.225586 1817.775757 2495.848633 -0.278334 0.333264 -0.900814
8377.391602 1629.448608 2584.940186 -0.278334 0.333264 -0.900814
8551.832031 1784.899292 2588.551758 -0.275626 0.449605 -0.849639
8988.153320 1979.447876 2549.957275 -0.275626 0.449605 -0.849639
8891.225586 1817.775757 2495.848633 -0.275626 0.449605 -0.849639
8988.153320 1979.447876 2549.957275 -0.140467 0.388939 -0.910492
9573.896484 2234.062256 2568.355957 -0.140467 0.388939 -0.910492
8891.225586 1817.775757 2495.848633 -0.140467 0.388939 -0.910492
8891.225586 1817.775757 2495.848633 -0.212016 0.494503 -0.842921
9573.896484 2234.062256 2568.355957 -0.212016 0.494503 -0.842921
9596.651367 2129.411133 2501.238525 -0.212016 0.494503 -0.842921
8891.225586 1817.775757 2495.848633 0.011618 -0.453329 -0.891267
8381.009766 1582.777588 2608.725830 0.011618 -0.453329 -0.891267
8377.391602 1629.448608 2584.940186 0.011618 -0.453329 -0.891267
8988.153320 1979.447876 2549.957275 -0.359443 0.854071 -0.375984
9230.951172 2099.835449 2591.309082 -0.359443 0.854071 -0.375984
9573.896484 2234.062256 2568.355957 -0.359443 0.854071 -0.375984
9596.651367 2129.411133 2501.238525 0.480318 0.545121 -0.687123
9573.896484 2234.062256 2568.355957 0.480318 0.545121 -0.687123
9675.676758 2137.224365 2562.677979 0.480318 0.545121 -0.687123
8551.832031 1784.899292 2588.551758 -0.498331 0.574297 -0.649499
8377.391602 1629.448608 2584.940186 -0.498331 0.574297 -0.649499
8290.077148 1664.502197 2682.927490 -0.498331 0.574297 -0.649499
8891.225586 1817.775757 2495.848633 0.316788 -0.706137 -0.633258
9596.651367 2129.411133 2501.238525 0.316788 -0.706137 -0.633258
9748.627930 1779.985962 2966.903564 0.316788 -0.706137 -0.633258
9596.651367 2129.411133 2501.238525 0.538688 -0.570030 -0.620388
9675.676758 2137.224365 2562.677979 0.538688 -0.570030 -0.620388
9847.080078 1963.235229 2871.375244 0.538688 -0.570030 -0.620388
9193.512695 1592.514893 2989.157471 0.256522 -0.810144 -0.527128
8381.009766 1582.777588 2608.725830 0.256522 -0.810144 -0.527128
8891.225586 1817.775757 2495.848633 0.256522 -0.810144 -0.527128
9596.651367 2129.411133 2501.238525 0.513953 -0.597161 -0.615833
9847.080078 1963.235229 2871.375244 0.513953 -0.597161 -0.615833
9748.627930 1779.985962 2966.903564 0.513953 -0.597161 -0.615833
8891.225586 1817.775757 2495.848633 0.253142 -0.812000 -0.525905
9748.627930 1779.985962 2966.903564 0.253142 -0.812000 -0.525905
9193.512695 1592.514893 2989.157471 0.253142 -0.812000 -0.525905
9573.896484 2234.062256 2568.355957 -0.297536 0.838316 0.456836
9230.951172 2099.835449 2591.309082 -0.297536 0.838316 0.456836
9487.384766 2066.415527 2819.650635 -0.297536 0.838316 0.456836
8381.009766 1582.777588 2608.725830 -0.401942 -0.440325 -0.802843
8076.813965 1462.150635 2827.179688 -0.401942 -0.440325 -0.802843
8377.391602 1629.448608 2584.940186 -0.401942 -0.440325 -0.802843
9675.676758 2137.224365 2562.677979 0.689812 0.723564 0.024802
9573.896484 2234.062256 2568.355957 0.689812 0.723564 0.024802
9847.080078 1963.235229 2871.375244 0.689812 0.723564 0.024802
8377.391602 1629.448608 2584.940186 -0.684826 0.228467 -0.691965
8076.813965 1462.150635 2827.179688 -0.684826 0.228467 -0.691965
8290.077148 1664.502197 2682.927490 -0.684826 0.228467 -0.691965
8551.832031 1784.899292 2588.551758 -0.337608 0.841026 0.422724
8945.728516 1710.521729 3051.114258 -0.337608 0.841026 0.422724
8988.153320 1979.447876 2549.957275 -0.337608 0.841026 0.422724
8988.153320 1979.447876 2549.957275 -0.461576 0.797360 0.388798
8945.728516 1710.521729 3051.114258 -0.461576 0.797360 0.388798
9230.951172 2099.835449 2591.309082 -0.461576 0.797360 0.388798
9487.384766 2066.415527 2819.650635 -0.370829 0.763835 0.528245
9230.951172 2099.835449 2591.309082 -0.370829 0.763835 0.528245
9384.169922 1737.671021 3222.553467 -0.370829 0.763835 0.528245
9573.896484 2234.062256 2568.355957 0.754951 0.647867 -0.101579
9840.733398 1981.595947 2941.309814 0.754951 0.647867 -0.101579
9847.080078 1963.235229 2871.375244 0.754951 0.647867 -0.101579
9487.384766 2066.415527 2819.650635 -0.590960 0.750061 0.296943
9607.645508 2085.878418 3009.824951 -0.590960 0.750061 0.296943
9573.896484 2234.062256 2568.355957 -0.590960 0.750061 0.296943
8076.813965 1462.150635 2827.179688 -0.151907 -0.760416 -0.631421
8381.009766 1582.777588 2608.725830 -0.151907 -0.760416 -0.631421
7913.216309 1356.861084 2993.337646 -0.151907 -0.760416 -0.631421
8290.077148 1664.502197 2682.927490 -0.738851 0.383867 -0.553847
8076.813965 1462.150635 2827.179688 -0.738851 0.383867 -0.553847
7974.391113 1483.257568 2978.444336 -0.738851 0.383867 -0.553847
7913.216309 1356.861084 2993.337646 0.044679 -0.884176 -0.465013
8381.009766 1582.777588 2608.725830 0.044679 -0.884176 -0.465013
8176.991211 1266.634277 3190.239014 0.044679 -0.884176 -0.465013
8290.077148 1664.502197 2682.927490 -0.356050 0.916608 0.181819
7974.391113 1483.257568 2978.444336 -0.356050 0.916608 0.181819
8551.832031 1784.899292 2588.551758 -0.356050 0.916608 0.181819
9573.896484 2234.062256 2568.355957 0.455921 0.853689 0.251696
9607.645508 2085.878418 3009.824951 0.455921 0.853689 0.251696
9840.733398 1981.595947 2941.309814 0.455921 0.853689 0.251696
8076.813965 1462.150635 2827.179688 -0.768131 0.305462 -0.562732
7913.216309 1356.861084 2993.337646 -0.768131 0.305462 -0.562732
7974.391113 1483.257568 2978.444336 -0.768131 0.305462 -0.562732
8945.728516 1710.521729 3051.114258 -0.256269 0.810259 0.527074
9384.169922 1737.671021 3222.553467 -0.256269 0.810259 0.527074
9230.951172 2099.835449 2591.309082 -0.256269 0.810259 0.527074
7974.391113 1483.257568 2978.444336 -0.208578 0.898512 0.386228
8717.954102 1442.496704 3474.821533 -0.208578 0.898512 0.386228
8551.832031 1784.899292 2588.551758 -0.208578 0.898512 0.386228
9748.627930 1779.985962 2966.903564 0.242877 -0.786570 -0.567730
9627.915039 1416.787354 3418.460938 0.242877 -0.786570 -0.567730
9193.512695 1592.514893 2989.157471 0.242877 -0.786570 -0.567730
9384.169922 1737.671021 3222.553467 -0.604142 0.686206 0.405135
9559.313477 1846.836426 3298.828125 -0.604142 0.686206 0.405135
9487.384766 2066.415527 2819.650635 -0.604142 0.686206 0.405135
9559.313477 1846.836426 3298.828125 -0.700761 0.602855 0.381444
9607.645508 2085.878418 3009.824951 -0.700761 0.602855 0.381444
9487.384766 2066.415527 2819.650635 -0.700761 0.602855 0.381444
8381.009766 1582.777588 2608.725830 0.203375 -0.888374 -0.411618
9193.512695 1592.514893 2989.157471 0.203375 -0.888374 -0.411618
8176.991211 1266.634277 3190.239014 0.203375 -0.888374 -0.411618
7807.202148 1381.124512 3216.166260 -0.830237 0.350784 -0.433194
7974.391113 1483.257568 2978.444336 -0.830237 0.350784 -0.433194
7913.216309 1356.861084 2993.337646 -0.830237 0.350784 -0.433194
9780.311523 1553.578247 3368.646484 0.713783 -0.584570 -0.385735
9748.627930 1779.985962 2966.903564 0.713783 -0.584570 -0.385735
9847.080078 1963.235229 2871.375244 0.713783 -0.584570 -0.385735
7757.108398 1249.691162 3262.370117 -0.880234 0.181327 -0.438529
7807.202148 1381.124512 3216.166260 -0.880234 0.181327 -0.438529
7913.216309 1356.861084 2993.337646 -0.880234 0.181327 -0.438529
8551.832031 1784.899292 2588.551758 -0.295844 0.871101 0.391995
8717.954102 1442.496704 3474.821533 -0.295844 0.871101 0.391995
8945.728516 1710.521729 3051.114258 -0.295844 0.871101 0.391995
9748.627930 1779.985962 2966.903564 0.509100 -0.732038 -0.452700
9780.311523 1553.578247 3368.646484 0.509100 -0.732038 -0.452700
9627.915039 1416.787354 3418.460938 0.509100 -0.732038 -0.452700
7913.216309 1356.861084 2993.337646 -0.000513 -0.909359 -0.416011
8176.991211 1266.634277 3190.239014 -0.000513 -0.909359 -0.416011
7839.102539 1151.555786 3442.206299 -0.000513 -0.909359 -0.416011
7757.108398 1249.691162 3262.370117 -0.127108 -0.893910 -0.429847
7913.216309 1356.861084 2993.337646 -0.127108 -0.893910 -0.429847
7839.102539 1151.555786 3442.206299 -0.127108 -0.893910 -0.429847
8176.991211 1266.634277 3190.239014 0.192161 -0.874364 -0.445603
9193.512695 1592.514893 2989.157471 0.192161 -0.874364 -0.445603
8717.411133 1214.693848 3525.206055 0.192161 -0.874364 -0.445603
9840.733398 1981.595947 2941.309814 0.466142 0.641870 0.608863
9607.645508 2085.878418 3009.824951 0.466142 0.641870 0.608863
9559.313477 1846.836426 3298.828125 0.466142 0.641870 0.608863
9840.733398 1981.595947 2941.309814 0.994122 -0.039824 0.100674
9780.311523 1553.578247 3368.646484 0.994122 -0.039824 0.100674
9847.080078 1963.235229 2871.375244 0.994122 -0.039824 0.100674
9193.512695 1592.514893 2989.157471 0.170651 -0.839281 -0.516222
9627.915039 1416.787354 3418.460938 0.170651 -0.839281 -0.516222
9439.641602 1155.049683 3781.758789 0.170651 -0.839281 -0.516222
9840.733398 1981.595947 2941.309814 0.538105 0.556276 0.633246
9559.313477 1846.836426 3298.828125 0.538105 0.556276 0.633246
9780.311523 1553.578247 3368.646484 0.538105 0.556276 0.633246
7757.108398 1249.691162 3262.370117 -0.920821 0.380699 0.084606
7773.235352 1247.127563 3449.424561 -0.920821 0.380699 0.084606
7807.202148 1381.124512 3216.166260 -0.920821 0.380699 0.084606
9193.512695 1592.514893 2989.157471 0.109122 -0.855548 -0.506094
9439.641602 1155.049683 3781.758789 0.109122 -0.855548 -0.506094
8717.411133 1214.693848 3525.206055 0.109122 -0.855548 -0.506094
7839.102539 1151.555786 3442.206299 -0.664718 -0.740252 -0.100880
7803.608887 1180.279419 3465.308350 -0.664718 -0.740252 -0.100880
7757.108398 1249.691162 3262.370117 -0.664718 -0.740252 -0.100880
7974.391113 1483.257568 2978.444336 -0.115477 0.939522 0.322434
7807.202148 1381.124512 3216.166260 -0.115477 0.939522 0.322434
8286.639648 1240.574585 3797.412109 -0.115477 0.939522 0.322434
8717.954102 1442.496704 3474.821533 -0.114582 0.866219 0.486349
8930.174805 1150.788452 4044.371826 -0.114582 0.866219 0.486349
8945.728516 1710.521729 3051.114258 -0.114582 0.866219 0.486349
7773.235352 1247.127563 3449.424561 -0.914425 -0.398047 0.073382
7757.108398 1249.691162 3262.370117 -0.914425 -0.398047 0.073382
7803.608887 1180.279419 3465.308350 -0.914425 -0.398047 0.073382
9697.727539 1456.379150 3511.375488 0.510993 0.543609 0.665864
9780.311523 1553.578247 3368.646484 0.510993 0.543609 0.665864
9559.313477 1846.836426 3298.828125 0.510993 0.543609 0.665864
8176.991211 1266.634277 3190.239014 0.096798 -0.948008 -0.303168
8717.411133 1214.693848 3525.206055 0.096798 -0.948008 -0.303168
7839.102539 1151.555786 3442.206299 0.096798 -0.948008 -0.303168
8945.728516 1710.521729 3051.114258 -0.237850 0.847778 0.474026
8930.174805 1150.788452 4044.371826 -0.237850 0.847778 0.474026
9384.169922 1737.671021 3222.553467 -0.237850 0.847778 0.474026
9405.251953 1559.210571 3531.551758 -0.604940 0.670963 0.428785
9559.313477 1846.836426 3298.828125 -0.604940 0.670963 0.428785
9384.169922 1737.671021 3222.553467 -0.604940 0.670963 0.428785
9384.169922 1737.671021 3222.553467 -0.186015 0.845289 0.500884
8930.174805 1150.788452 4044.371826 -0.186015 0.845289 0.500884
9405.251953 1559.210571 3531.551758 -0.186015 0.845289 0.500884
7807.202148 1381.124512 3216.166260 -0.290461 0.847385 0.444490
7773.235352 1247.127563 3449.424561 -0.290461 0.847385 0.444490
8286.639648 1240.574585 3797.412109 -0.290461 0.847385 0.444490
8717.954102 1442.496704 3474.821533 -0.177091 0.923199 0.341089
7974.391113 1483.257568 2978.444336 -0.177091 0.923199 0.341089
8286.639648 1240.574585 3797.412109 -0.177091 0.923199 0.341089
9697.727539 1456.379150 3511.375488 0.632398 -0.759695 -0.151446
9627.915039 1416.787354 3418.460938 0.632398 -0.759695 -0.151446
9780.311523 1553.578247 3368.646484 0.632398 -0.759695 -0.151446
9697.727539 1456.379150 3511.375488 0.242002 0.528673 0.813597
9559.313477 1846.836426 3298.828125 0.242002 0.528673 0.813597
9405.251953 1559.210571 3531.551758 0.242002 0.528673 0.813597
8717.411133 1214.693848 3525.206055 0.103095 -0.911885 -0.397287
8891.271484 1000.604919 4061.716797 0.103095 -0.911885 -0.397287
7839.102539 1151.555786 3442.206299 0.103095 -0.911885 -0.397287
9505.837891 1200.683594 3840.262451 0.282963 0.670186 0.686136
9697.727539 1456.379150 3511.375488 0.282963 0.670186 0.686136
9405.251953 1559.210571 3531.551758 0.282963 0.670186 0.686136
8891.271484 1000.604919 4061.716797 -0.203514 -0.973035 0.108554
8482.796875 1070.358032 3921.159912 -0.203514 -0.973035 0.108554
7839.102539 1151.555786 3442.206299 -0.203514 -0.973035 0.108554
9505.837891 1200.683594 3840.262451 0.195504 0.670829 0.715379
9405.251953 1559.210571 3531.551758 0.195504 0.670829 0.715379
8930.174805 1150.788452 4044.371826 0.195504 0.670829 0.715379
9627.915039 1416.787354 3418.460938 0.658769 -0.729462 -0.184143
9697.727539 1456.379150 3511.375488 0.658769 -0.729462 -0.184143
9439.641602 1155.049683 3781.758789 0.658769 -0.729462 -0.184143
7839.102539 1151.555786 3442.206299 -0.403148 -0.821877 0.402480
8482.796875 1070.358032 3921.159912 -0.403148 -0.821877 0.402480
7803.608887 1180.279419 3465.308350 -0.403148 -0.821877 0.402480
9439.641602 1155.049683 3781.758789 0.661289 -0.728147 -0.180273
9697.727539 1456.379150 3511.375488 0.661289 -0.728147 -0.180273
9505.837891 1200.683594 3840.262451 0.661289 -0.728147 -0.180273
8482.796875 1070.358032 3921.159912 -0.560811 -0.346191 0.752092
8427.364258 1183.472412 3931.892578 -0.560811 -0.346191 0.752092
7803.608887 1180.279419 3465.308350 -0.560811 -0.346191 0.752092
7803.608887 1180.279419 3465.308350 -0.596730 -0.081450 0.798298
8427.364258 1183.472412 3931.892578 -0.596730 -0.081450 0.798298
7773.235352 1247.127563 3449.424561 -0.596730 -0.081450 0.798298
9439.641602 1155.049683 3781.758789 0.061513 -0.920004 -0.387051
8891.271484 1000.604919 4061.716797 0.061513 -0.920004 -0.387051
8717.411133 1214.693848 3525.206055 0.061513 -0.920004 -0.387051
7773.235352 1247.127563 3449.424561 -0.479293 0.506624 0.716666
8427.364258 1183.472412 3931.892578 -0.479293 0.506624 0.716666
8286.639648 1240.574585 3797.412109 -0.479293 0.506624 0.716666
8286.639648 1240.574585 3797.412109 -0.074944 0.887249 0.455162
8427.364258 1183.472412 3931.892578 -0.074944 0.887249 0.455162
8717.954102 1442.496704 3474.821533 -0.074944 0.887249 0.455162
8717.954102 1442.496704 3474.821533 -0.047682 0.881719 0.469359
8427.364258 1183.472412 3931.892578 -0.047682 0.881719 0.469359
8930.174805 1150.788452 4044.371826 -0.047682 0.881719 0.469359
9439.641602 1155.049683 3781.758789 0.029738 -0.898707 -0.437541
9244.696289 1025.747437 4034.095215 0.029738 -0.898707 -0.437541
8891.271484 1000.604919 4061.716797 0.029738 -0.898707 -0.437541
9244.696289 1025.747437 4034.095215 0.561594 -0.827354 0.009913
9439.641602 1155.049683 3781.758789 0.561594 -0.827354 0.009913
9505.837891 1200.683594 3840.262451 0.561594 -0.827354 0.009913
8427.364258 1183.472412 3931.892578 -0.444811 -0.298117 0.844553
8482.796875 1070.358032 3921.159912 -0.444811 -0.298117 0.844553
8750.012695 1100.834595 4072.655518 -0.444811 -0.298117 0.844553
9137.180664 1017.638428 4080.898193 0.229435 0.572611 0.787068
9505.837891 1200.683594 3840.262451 0.229435 0.572611 0.787068
8930.174805 1150.788452 4044.371826 0.229435 0.572611 0.787068
9244.696289 1025.747437 4034.095215 0.332195 0.432726 0.838090
9505.837891 1200.683594 3840.262451 0.332195 0.432726 0.838090
9137.180664 1017.638428 4080.898193 0.332195 0.432726 0.838090
8482.796875 1070.358032 3921.159912 -0.352138 -0.576734 0.737141
8891.271484 1000.604919 4061.716797 -0.352138 -0.576734 0.737141
8750.012695 1100.834595 4072.655518 -0.352138 -0.576734 0.737141
8930.174805 1150.788452 4044.371826 -0.100711 0.739851 0.665190
8427.364258 1183.472412 3931.892578 -0.100711 0.739851 0.665190
8750.012695 1100.834595 4072.655518 -0.100711 0.739851 0.665190
9244.696289 1025.747437 4034.095215 0.070025 -0.997474 -0.011959
9137.180664 1017.638428 4080.898193 0.070025 -0.997474 -0.011959
8891.271484 1000.604919 4061.716797 0.070025 -0.997474 -0.011959
9137.180664 1017.638428 4080.898193 -0.062812 -0.195338 0.978723
8750.012695 1100.834595 4072.655518 -0.062812 -0.195338 0.978723
8891.271484 1000.604919 4061.716797 -0.062812 -0.195338 0.978723
9137.180664 1017.638428 4080.898193 0.053095 0.340105 0.938887
8930.174805 1150.788452 4044.371826 0.053095 0.340105 0.938887
8750.012695 1100.834595 4072.655518 0.053095 0.340105 0.938887
9104.667969 992.962708 7284.445801 -0.150682 -0.125880 -0.980535
8699.134766 1064.125366 7337.629395 -0.150682 -0.125880 -0.980535
8760.242188 1134.413330 7319.215332 -0.150682 -0.125880 -0.980535
8926.357422 1142.046143 7334.947754 0.068793 0.392913 -0.916999
9104.667969 992.962708 7284.445801 0.068793 0.392913 -0.916999
8760.242188 1134.413330 7319.215332 0.068793 0.392913 -0.916999
9104.667969 992.962708 7284.445801 0.224021 0.542258 -0.809797
8926.357422 1142.046143 7334.947754 0.224021 0.542258 -0.809797
9414.940430 1120.572388 7455.729492 0.224021 0.542258 -0.809797
8581.823242 1049.507812 7433.484375 -0.208636 -0.896006 -0.391976
8699.134766 1064.125366 7337.629395 -0.208636 -0.896006 -0.391976
9104.667969 992.962708 7284.445801 -0.208636 -0.896006 -0.391976
8760.242188 1134.413330 7319.215332 -0.371367 0.080533 -0.924987
8699.134766 1064.125366 7337.629395 -0.371367 0.080533 -0.924987
8424.846680 1199.284790 7459.519043 -0.371367 0.080533 -0.924987
9414.940430 1120.572388 7455.729492 0.363894 -0.930809 0.034294
9346.013672 1095.684326 7511.598145 0.363894 -0.930809 0.034294
9104.667969 992.962708 7284.445801 0.363894 -0.930809 0.034294
8699.134766 1064.125366 7337.629395 -0.501931 -0.280890 -0.818026
8179.900391 1162.891235 7622.312012 -0.501931 -0.280890 -0.818026
8424.846680 1199.284790 7459.519043 -0.501931 -0.280890 -0.818026
8699.134766 1064.125366 7337.629395 -0.475467 -0.571271 -0.669014
8581.823242 1049.507812 7433.484375 -0.475467 -0.571271 -0.669014
8179.900391 1162.891235 7622.312012 -0.475467 -0.571271 -0.669014
8581.823242 1049.507812 7433.484375 -0.001392 -0.936578 0.350455
9104.667969 992.962708 7284.445801 -0.001392 -0.936578 0.350455
8685.584961 1182.647827 7789.708008 -0.001392 -0.936578 0.350455
9104.667969 992.962708 7284.445801 0.037543 -0.924896 0.378363
9346.013672 1095.684326 7511.598145 0.037543 -0.924896 0.378363
8685.584961 1182.647827 7789.708008 0.037543 -0.924896 0.378363
8760.242188 1134.413330 7319.215332 -0.028806 0.879290 -0.475414
8424.846680 1199.284790 7459.519043 -0.028806 0.879290 -0.475414
8846.617188 1525.823608 8037.904297 -0.028806 0.879290 -0.475414
8424.846680 1199.284790 7459.519043 -0.561795 0.240587 -0.791520
8179.900391 1162.891235 7622.312012 -0.561795 0.240587 -0.791520
8120.342773 1232.874512 7685.855957 -0.561795 0.240587 -0.791520
9421.266602 1573.147461 7862.926270 0.208760 0.652504 -0.728463
9414.940430 1120.572388 7455.729492 0.208760 0.652504 -0.728463
8926.357422 1142.046143 7334.947754 0.208760 0.652504 -0.728463
9049.313477 1506.534424 8306.226562 0.088915 -0.870842 0.483454
8685.584961 1182.647827 7789.708008 0.088915 -0.870842 0.483454
9346.013672 1095.684326 7511.598145 0.088915 -0.870842 0.483454
9613.405273 1349.868164 7848.044922 0.494801 -0.835737 0.238151
9346.013672 1095.684326 7511.598145 0.494801 -0.835737 0.238151
9414.940430 1120.572388 7455.729492 0.494801 -0.835737 0.238151
9613.405273 1349.868164 7848.044922 0.715002 -0.697606 0.046023
9414.940430 1120.572388 7455.729492 0.715002 -0.697606 0.046023
9573.543945 1297.321045 7670.822754 0.715002 -0.697606 0.046023
8846.617188 1525.823608 8037.904297 0.005000 0.877941 -0.478743
8926.357422 1142.046143 7334.947754 0.005000 0.877941 -0.478743
8760.242188 1134.413330 7319.215332 0.005000 0.877941 -0.478743
8179.900391 1162.891235 7622.312012 -0.454744 -0.704453 -0.544934
8581.823242 1049.507812 7433.484375 -0.454744 -0.704453 -0.544934
7880.174316 1140.967041 7900.773438 -0.454744 -0.704453 -0.544934
8685.584961 1182.647827 7789.708008 0.093467 -0.941234 0.324565
7880.174316 1140.967041 7900.773438 0.093467 -0.941234 0.324565
8581.823242 1049.507812 7433.484375 0.093467 -0.941234 0.324565
8179.900391 1162.891235 7622.312012 -0.532572 0.273916 -0.800835
7805.678223 1222.027954 7891.404297 -0.532572 0.273916 -0.800835
8120.342773 1232.874512 7685.855957 -0.532572 0.273916 -0.800835
9414.940430 1120.572388 7455.729492 0.258519 0.644119 -0.719916
9421.266602 1573.147461 7862.926270 0.258519 0.644119 -0.719916
9573.543945 1297.321045 7670.822754 0.258519 0.644119 -0.719916
8179.900391 1162.891235 7622.312012 -0.538169 -0.566694 -0.623884
7880.174316 1140.967041 7900.773438 -0.538169 -0.566694 -0.623884
7805.678223 1222.027954 7891.404297 -0.538169 -0.566694 -0.623884
9573.543945 1297.321045 7670.822754 0.270862 0.646355 -0.713343
9421.266602 1573.147461 7862.926270 0.270862 0.646355 -0.713343
9765.794922 1595.136963 8013.670898 0.270862 0.646355 -0.713343
8424.846680 1199.284790 7459.519043 -0.167607 0.917144 -0.361601
8120.342773 1232.874512 7685.855957 -0.167607 0.917144 -0.361601
8101.625488 1550.005249 8498.882812 -0.167607 0.917144 -0.361601
8424.846680 1199.284790 7459.519043 -0.198342 0.908348 -0.368191
8101.625488 1550.005249 8498.882812 -0.198342 0.908348 -0.368191
8846.617188 1525.823608 8037.904297 -0.198342 0.908348 -0.368191
9346.013672 1095.684326 7511.598145 0.172922 -0.847085 0.502538
9613.405273 1349.868164 7848.044922 0.172922 -0.847085 0.502538
9049.313477 1506.534424 8306.226562 0.172922 -0.847085 0.502538
8926.357422 1142.046143 7334.947754 -0.218703 0.846195 -0.485924
9376.272461 1689.086914 8085.075684 -0.218703 0.846195 -0.485924
9421.266602 1573.147461 7862.926270 -0.218703 0.846195 -0.485924
7805.678223 1222.027954 7891.404297 -0.356941 0.785884 -0.504955
7764.505859 1341.888062 8107.051758 -0.356941 0.785884 -0.504955
8120.342773 1232.874512 7685.855957 -0.356941 0.785884 -0.504955
9765.794922 1595.136963 8013.670898 0.323414 0.488486 -0.810423
9421.266602 1573.147461 7862.926270 0.323414 0.488486 -0.810423
9560.099609 1848.289551 8084.173340 0.323414 0.488486 -0.810423
7805.678223 1222.027954 7891.404297 -0.707822 -0.674684 -0.209259
7880.174316 1140.967041 7900.773438 -0.707822 -0.674684 -0.209259
7753.581543 1219.189453 8076.773926 -0.707822 -0.674684 -0.209259
9613.405273 1349.868164 7848.044922 0.803025 -0.595932 -0.003922
9573.543945 1297.321045 7670.822754 0.803025 -0.595932 -0.003922
9789.802734 1586.194458 8056.361328 0.803025 -0.595932 -0.003922
9789.802734 1586.194458 8056.361328 0.871741 0.001312 -0.489966
9573.543945 1297.321045 7670.822754 0.871741 0.001312 -0.489966
9765.794922 1595.136963 8013.670898 0.871741 0.001312 -0.489966
8120.342773 1232.874512 7685.855957 -0.146983 0.920366 -0.362384
7764.505859 1341.888062 8107.051758 -0.146983 0.920366 -0.362384
8101.625488 1550.005249 8498.882812 -0.146983 0.920366 -0.362384
8926.357422 1142.046143 7334.947754 -0.217474 0.846120 -0.486607
8846.617188 1525.823608 8037.904297 -0.217474 0.846120 -0.486607
9376.272461 1689.086914 8085.075684 -0.217474 0.846120 -0.486607
8685.584961 1182.647827 7789.708008 0.089492 -0.952354 0.291568
8170.850098 1241.629639 8140.351074 0.089492 -0.952354 0.291568
7880.174316 1140.967041 7900.773438 0.089492 -0.952354 0.291568
7764.505859 1341.888062 8107.051758 -0.952368 0.150273 -0.265354
7805.678223 1222.027954 7891.404297 -0.952368 0.150273 -0.265354
7753.581543 1219.189453 8076.773926 -0.952368 0.150273 -0.265354
9789.802734 1586.194458 8056.361328 0.576996 -0.738388 0.349083
9732.572266 1610.361328 8202.075195 0.576996 -0.738388 0.349083
9613.405273 1349.868164 7848.044922 0.576996 -0.738388 0.349083
9613.405273 1349.868164 7848.044922 0.206006 -0.819998 0.534008
9732.572266 1610.361328 8202.075195 0.206006 -0.819998 0.534008
9049.313477 1506.534424 8306.226562 0.206006 -0.819998 0.534008
7880.174316 1140.967041 7900.773438 -0.028307 -0.908830 0.416205
8170.850098 1241.629639 8140.351074 -0.028307 -0.908830 0.416205
8037.563477 1414.421021 8508.595703 -0.028307 -0.908830 0.416205
7753.581543 1219.189453 8076.773926 0.005081 -0.912438 0.409183
7880.174316 1140.967041 7900.773438 0.005081 -0.912438 0.409183
8037.563477 1414.421021 8508.595703 0.005081 -0.912438 0.409183
9765.794922 1595.136963 8013.670898 0.522348 0.594642 -0.611190
9560.099609 1848.289551 8084.173340 0.522348 0.594642 -0.611190
9836.095703 1938.663208 8407.977539 0.522348 0.594642 -0.611190
8685.584961 1182.647827 7789.708008 0.187194 -0.886172 0.423860
9049.313477 1506.534424 8306.226562 0.187194 -0.886172 0.423860
8170.850098 1241.629639 8140.351074 0.187194 -0.886172 0.423860
9765.794922 1595.136963 8013.670898 0.856116 0.304266 -0.417718
9836.095703 1938.663208 8407.977539 0.856116 0.304266 -0.417718
9789.802734 1586.194458 8056.361328 0.856116 0.304266 -0.417718
7897.200684 1390.793335 8367.319336 -0.887753 -0.034237 0.459045
7764.505859 1341.888062 8107.051758 -0.887753 -0.034237 0.459045
7753.581543 1219.189453 8076.773926 -0.887753 -0.034237 0.459045
7753.581543 1219.189453 8076.773926 -0.512436 -0.604231 0.610176
8037.563477 1414.421021 8508.595703 -0.512436 -0.604231 0.610176
7897.200684 1390.793335 8367.319336 -0.512436 -0.604231 0.610176
9376.272461 1689.086914 8085.075684 -0.446959 0.752717 -0.483369
9514.383789 2194.701172 8744.725586 -0.446959 0.752717 -0.483369
9421.266602 1573.147461 7862.926270 -0.446959 0.752717 -0.483369
9514.383789 2194.701172 8744.725586 -0.663468 0.642749 -0.382993
9560.099609 1848.289551 8084.173340 -0.663468 0.642749 -0.382993
9421.266602 1573.147461 7862.926270 -0.663468 0.642749 -0.382993
9560.099609 1848.289551 8084.173340 0.514515 0.605200 -0.607460
9628.608398 2086.369141 8379.393555 0.514515 0.605200 -0.607460
9836.095703 1938.663208 8407.977539 0.514515 0.605200 -0.607460
8170.850098 1241.629639 8140.351074 0.188065 -0.887316 0.421073
9049.313477 1506.534424 8306.226562 0.188065 -0.887316 0.421073
8327.104492 1564.737549 8751.439453 0.188065 -0.887316 0.421073
9514.383789 2194.701172 8744.725586 -0.627784 0.670632 -0.395146
9628.608398 2086.369141 8379.393555 -0.627784 0.670632 -0.395146
9560.099609 1848.289551 8084.173340 -0.627784 0.670632 -0.395146
9376.272461 1689.086914 8085.075684 -0.206834 0.823594 -0.528122
8846.617188 1525.823608 8037.904297 -0.206834 0.823594 -0.528122
9219.768555 2096.528809 8781.765625 -0.206834 0.823594 -0.528122
8846.617188 1525.823608 8037.904297 -0.235125 0.873724 -0.425821
8101.625488 1550.005249 8498.882812 -0.235125 0.873724 -0.425821
8719.404297 1853.125977 8779.725586 -0.235125 0.873724 -0.425821
9789.802734 1586.194458 8056.361328 0.734271 -0.561507 0.381518
9835.675781 1965.700073 8526.619141 0.734271 -0.561507 0.381518
9732.572266 1610.361328 8202.075195 0.734271 -0.561507 0.381518
7764.505859 1341.888062 8107.051758 -0.772170 0.490659 0.403742
8278.984375 1647.263916 8719.890625 -0.772170 0.490659 0.403742
8101.625488 1550.005249 8498.882812 -0.772170 0.490659 0.403742
7764.505859 1341.888062 8107.051758 -0.670512 0.712133 0.208041
7897.200684 1390.793335 8367.319336 -0.670512 0.712133 0.208041
8278.984375 1647.263916 8719.890625 -0.670512 0.712133 0.208041
9219.768555 2096.528809 8781.765625 -0.394205 0.813946 -0.426726
8846.617188 1525.823608 8037.904297 -0.394205 0.813946 -0.426726
8719.404297 1853.125977 8779.725586 -0.394205 0.813946 -0.426726
9835.675781 1965.700073 8526.619141 0.984210 -0.171796 0.042634
9789.802734 1586.194458 8056.361328 0.984210 -0.171796 0.042634
9836.095703 1938.663208 8407.977539 0.984210 -0.171796 0.042634
8170.850098 1241.629639 8140.351074 0.085722 -0.889669 0.448487
8327.104492 1564.737549 8751.439453 0.085722 -0.889669 0.448487
8037.563477 1414.421021 8508.595703 0.085722 -0.889669 0.448487
8101.625488 1550.005249 8498.882812 -0.348702 0.911758 -0.217033
8348.731445 1693.922607 8706.461914 -0.348702 0.911758 -0.217033
8719.404297 1853.125977 8779.725586 -0.348702 0.911758 -0.217033
9835.675781 1965.700073 8526.619141 0.586836 0.789914 -0.177934
9836.095703 1938.663208 8407.977539 0.586836 0.789914 -0.177934
9628.608398 2086.369141 8379.393555 0.586836 0.789914 -0.177934
8327.104492 1564.737549 8751.439453 0.231946 -0.842397 0.486383
9049.313477 1506.534424 8306.226562 0.231946 -0.842397 0.486383
8745.000000 1750.526733 8873.933594 0.231946 -0.842397 0.486383
7897.200684 1390.793335 8367.319336 -0.714239 0.113886 0.690574
8037.563477 1414.421021 8508.595703 -0.714239 0.113886 0.690574
8278.984375 1647.263916 8719.890625 -0.714239 0.113886 0.690574
9732.572266 1610.361328 8202.075195 0.202625 -0.855596 0.476338
8745.000000 1750.526733 8873.933594 0.202625 -0.855596 0.476338
9049.313477 1506.534424 8306.226562 0.202625 -0.855596 0.476338
9835.675781 1965.700073 8526.619141 0.469108 -0.665920 0.580077
9662.219727 2123.963623 8848.577148 0.469108 -0.665920 0.580077
9732.572266 1610.361328 8202.075195 0.469108 -0.665920 0.580077
8348.731445 1693.922607 8706.461914 -0.545312 0.835304 0.070022
8101.625488 1550.005249 8498.882812 -0.545312 0.835304 0.070022
8278.984375 1647.263916 8719.890625 -0.545312 0.835304 0.070022
9628.608398 2086.369141 8379.393555 0.606120 0.762018 -0.227920
9603.888672 2221.135986 8764.228516 0.606120 0.762018 -0.227920
9835.675781 1965.700073 8526.619141 0.606120 0.762018 -0.227920
9732.572266 1610.361328 8202.075195 0.312822 -0.726821 0.611452
9662.219727 2123.963623 8848.577148 0.312822 -0.726821 0.611452
8745.000000 1750.526733 8873.933594 0.312822 -0.726821 0.611452
9376.272461 1689.086914 8085.075684 -0.327243 0.781813 -0.530736
9219.768555 2096.528809 8781.765625 -0.327243 0.781813 -0.530736
9514.383789 2194.701172 8744.725586 -0.327243 0.781813 -0.530736
9628.608398 2086.369141 8379.393555 -0.198925 0.920883 -0.335266
9514.383789 2194.701172 8744.725586 -0.198925 0.920883 -0.335266
9603.888672 2221.135986 8764.228516 -0.198925 0.920883 -0.335266
9835.675781 1965.700073 8526.619141 0.793180 0.593728 0.135472
9603.888672 2221.135986 8764.228516 0.793180 0.593728 0.135472
9662.219727 2123.963623 8848.577148 0.793180 0.593728 0.135472
8278.984375 1647.263916 8719.890625 -0.621592 -0.063982 0.780724
8037.563477 1414.421021 8508.595703 -0.621592 -0.063982 0.780724
8327.104492 1564.737549 8751.439453 -0.621592 -0.063982 0.780724
9219.768555 2096.528809 8781.765625 -0.424896 0.871405 0.245186
8719.404297 1853.125977 8779.725586 -0.424896 0.871405 0.245186
8732.144531 1840.388550 8847.073242 -0.424896 0.871405 0.245186
9603.888672 2221.135986 8764.228516 -0.252113 0.957417 -0.140684
9514.383789 2194.701172 8744.725586 -0.252113 0.957417 -0.140684
9561.446289 2218.542236 8822.635742 -0.252113 0.957417 -0.140684
8348.731445 1693.922607 8706.461914 -0.452412 0.793456 0.407126
8278.984375 1647.263916 8719.890625 -0.452412 0.793456 0.407126
8732.144531 1840.388550 8847.073242 -0.452412 0.793456 0.407126
8719.404297 1853.125977 8779.725586 -0.423092 0.872329 0.245020
8348.731445 1693.922607 8706.461914 -0.423092 0.872329 0.245020
8732.144531 1840.388550 8847.073242 -0.423092 0.872329 0.245020
9514.383789 2194.701172 8744.725586 -0.325151 0.941215 -0.091607
9219.768555 2096.528809 8781.765625 -0.325151 0.941215 -0.091607
9561.446289 2218.542236 8822.635742 -0.325151 0.941215 -0.091607
8327.104492 1564.737549 8751.439453 -0.330320 0.162815 0.929720
8732.144531 1840.388550 8847.073242 -0.330320 0.162815 0.929720
8278.984375 1647.263916 8719.890625 -0.330320 0.162815 0.929720
9561.446289 2218.542236 8822.635742 0.554414 0.709876 0.434397
9662.219727 2123.963623 8848.577148 0.554414 0.709876 0.434397
9603.888672 2221.135986 8764.228516 0.554414 0.709876 0.434397
8745.000000 1750.526733 8873.933594 -0.362806 0.218848 0.905802
8732.144531 1840.388550 8847.073242 -0.362806 0.218848 0.905802
8327.104492 1564.737549 8751.439453 -0.362806 0.218848 0.905802
9662.219727 2123.963623 8848.577148 0.294017 -0.676290 0.675415
9491.867188 2087.325195 8886.047852 0.294017 -0.676290 0.675415
8745.000000 1750.526733 8873.933594 0.294017 -0.676290 0.675415
9561.446289 2218.542236 8822.635742 -0.341800 0.783147 0.519474
9219.768555 2096.528809 8781.765625 -0.341800 0.783147 0.519474
8732.144531 1840.388550 8847.073242 -0.341800 0.783147 0.519474
9491.867188 2087.325195 8886.047852 -0.209534 0.513296 0.832239
9561.446289 2218.542236 8822.635742 -0.209534 0.513296 0.832239
8732.144531 1840.388550 8847.073242 -0.209534 0.513296 0.832239
9662.219727 2123.963623 8848.577148 0.120130 0.379604 0.917317
9561.446289 2218.542236 8822.635742 0.120130 0.379604 0.917317
9491.867188 2087.325195 8886.047852 0.120130 0.379604 0.917317
9491.867188 2087.325195 8886.047852 -0.135397 0.265919 0.954439
8732.144531 1840.388550 8847.073242 -0.135397 0.265919 0.954439
8745.000000 1750.526733 8873.933594 -0.135397 0.265919 0.954439
3 0 1 2
3 3 4 5
3 6 7 8
3 9 10 11
3 12 13 14
3 15 16 17
3 18 19 20
3 21 22 23
3 24 25 26
3 27 28 29
3 30 31 32
3 33 34 35
3 36 37 38
3 39 40 41
3 42 43 44
3 45 46 47
3 48 49 50
3 51 52 53
3 54 55 56
3 57 58 59
3 60 61 62
3 63 64 65
3 66 67 68
3 69 70 71
3 72 73 74
3 75 76 77
3 78 79 80
3 81 82 83
3 84 85 86
3 87 88 89
3 90 91 92
3 93 94 95
3 96 97 98
3 99 100 101
3 102 103 104
3 105 106 107
3 108 109 110
3 111 112 113
3 114 115 116
3 117 118 119
3 120 121 122
3 123 124 125
3 126 127 128
3 129 130 131
3 132 133 134
3 135 136 137
3 138 139 140
3 141 142 143
3 144 145 146
3 147 148 149
3 150 151 152
3 153 154 155
3 156 157 158
3 159 160 161
3 162 163 164
3 165 166 167
3 168 169 170
3 171 172 173
3 174 175 176
3 177 178 179
3 180 181 182
3 183 184 185
3 186 187 188
3 189 190 191
3 192 193 194
3 195 196 197
3 198 199 200
3 201 202 203
3 204 205 206
3 207 208 209
3 210 211 212
3 213 214 215
3 216 217 218
3 219 220 221
3 222 223 224
3 225 226 227
3 228 229 230
3 231 232 233
3 234 235 236
3 237 238 239
3 240 241 242
3 243 244 245
3 246 247 248
3 249 250 251
3 252 253 254
3 255 256 257
3 258 259 260
3 261 262 263
3 264 265 266
3 267 268 269
3 270 271 272
3 273 274 275
3 276 277 278
3 279 280 281
3 282 283 284
3 285 286 287
3 288 289 290
3 291 292 293
3 294 295 296
3 297 298 299
3 300 301 302
3 303 304 305
3 306 307 308
3 309 310 311
3 312 313 314
3 315 316 317
3 318 319 320
3 321 322 323
3 324 325 326
3 327 328 329
3 330 331 332
3 333 334 335
3 336 337 338
3 339 340 341
3 342 343 344
3 345 346 347
3 348 349 350
3 351 352 353
3 354 355 356
3 357 358 359
3 360 361 362
3 363 364 365
3 366 367 368
3 369 370 371
3 372 373 374
3 375 376 377
3 378 379 380
3 381 382 383
3 384 385 386
3 387 388 389
3 390 391 392
3 393 394 395
3 396 397 398
3 399 400 401
3 402 403 404
3 405 406 407
3 408 409 410
3 411 412 413
3 414 415 416
3 417 418 419
3 420 421 422
3 423 424 425
3 426 427 428
3 429 430 431
3 432 433 434
3 435 436 437
3 438 439 440
3 441 442 443
3 444 445 446
3 447 448 449
3 450 451 452
3 453 454 455
3 456 457 458
3 459 460 461
3 462 463 464
3 465 466 467
3 468 469 470
3 471 472 473
3 474 475 476
3 477 478 479
3 480 481 482
3 483 484 485
3 486 487 488
3 489 490 491
3 492 493 494
3 495 496 497
3 498 499 500
3 501 502 503
