ply
format ascii 1.0
comment Created by Blender 2.80 (sub 75) - www.blender.org, source file: 'downsample_ccf.blend'
element vertex 126
property float x
property float y
property float z
property float nx
property float ny
property float nz
element face 42
property list uchar uint vertex_indices
end_header
8088.442871 1463.824951 2302.194580 0.529142 0.019670 -0.848305
7899.201172 1640.317017 2188.244873 0.529142 0.019670 -0.848305
8291.074219 1424.151855 2427.668701 0.529142 0.019670 -0.848305
7685.220703 1324.906250 2586.330322 -0.238996 -0.694449 -0.678691
7899.201172 1640.317017 2188.244873 -0.238996 -0.694449 -0.678691
8088.442871 1463.824951 2302.194580 -0.238996 -0.694449 -0.678691
7899.201172 1640.317017 2188.244873 0.634935 0.549063 -0.543495
7895.765625 1736.295532 2281.193115 0.634935 0.549063 -0.543495
8291.074219 1424.151855 2427.668701 0.634935 0.549063 -0.543495
7605.386719 1381.967651 2657.692383 -0.871788 0.324339 -0.367136
7895.765625 1736.295532 2281.193115 -0.871788 0.324339 -0.367136
7899.201172 1640.317017 2188.244873 -0.871788 0.324339 -0.367136
8291.074219 1424.151855 2427.668701 0.632487 0.540779 -0.554542
7895.765625 1736.295532 2281.193115 0.632487 0.540779 -0.554542
8260.935547 1556.550293 2522.406250 0.632487 0.540779 -0.554542
7895.765625 1736.295532 2281.193115 -0.853641 0.476806 -0.209652
7605.386719 1381.967651 2657.692383 -0.853641 0.476806 -0.209652
7652.399902 1486.981689 2705.099121 -0.853641 0.476806 -0.209652
7605.386719 1381.967651 2657.692383 -0.741887 -0.270855 -0.613385
7899.201172 1640.317017 2188.244873 -0.741887 -0.270855 -0.613385
7685.220703 1324.906250 2586.330322 -0.741887 -0.270855 -0.613385
7685.220703 1324.906250 2586.330322 -0.002378 -0.897036 -0.441950
8088.442871 1463.824951 2302.194580 -0.002378 -0.897036 -0.441950
7688.028320 1086.717896 3069.771729 -0.002378 -0.897036 -0.441950
7688.028320 1086.717896 3069.771729 0.074572 -0.909878 -0.408118
8088.442871 1463.824951 2302.194580 0.074572 -0.909878 -0.408118
8291.074219 1424.151855 2427.668701 0.074572 -0.909878 -0.408118
8260.935547 1556.550293 2522.406250 0.767787 -0.247956 0.590780
7688.028320 1086.717896 3069.771729 0.767787 -0.247956 0.590780
8291.074219 1424.151855 2427.668701 0.767787 -0.247956 0.590780
7895.765625 1736.295532 2281.193115 0.061933 0.842964 0.534393
7934.977051 1368.135498 2857.393311 0.061933 0.842964 0.534393
8260.935547 1556.550293 2522.406250 0.061933 0.842964 0.534393
7652.399902 1486.981689 2705.099121 0.066690 0.842852 0.533997
7934.977051 1368.135498 2857.393311 0.066690 0.842852 0.533997
7895.765625 1736.295532 2281.193115 0.066690 0.842852 0.533997
7285.446777 1213.855591 3087.834961 -0.735079 -0.231507 -0.637231
7605.386719 1381.967651 2657.692383 -0.735079 -0.231507 -0.637231
7685.220703 1324.906250 2586.330322 -0.735079 -0.231507 -0.637231
7688.028320 1086.717896 3069.771729 0.754641 -0.187743 0.628705
8260.935547 1556.550293 2522.406250 0.754641 -0.187743 0.628705
7934.977051 1368.135498 2857.393311 0.754641 -0.187743 0.628705
7605.386719 1381.967651 2657.692383 -0.762135 0.517073 -0.389598
7343.528809 1323.645142 3092.535645 -0.762135 0.517073 -0.389598
7652.399902 1486.981689 2705.099121 -0.762135 0.517073 -0.389598
7934.977051 1368.135498 2857.393311 0.118692 0.877541 0.464579
7652.399902 1486.981689 2705.099121 0.118692 0.877541 0.464579
7343.528809 1323.645142 3092.535645 0.118692 0.877541 0.464579
7285.446777 1213.855591 3087.834961 -0.794725 0.438407 -0.419775
7343.528809 1323.645142 3092.535645 -0.794725 0.438407 -0.419775
7605.386719 1381.967651 2657.692383 -0.794725 0.438407 -0.419775
7934.977051 1368.135498 2857.393311 0.138747 0.849123 0.509647
7343.528809 1323.645142 3092.535645 0.138747 0.849123 0.509647
7672.308594 1229.049316 3160.634033 0.138747 0.849123 0.509647
7688.028320 1086.717896 3069.771729 -0.290222 -0.859092 -0.421583
7285.446777 1213.855591 3087.834961 -0.290222 -0.859092 -0.421583
7685.220703 1324.906250 2586.330322 -0.290222 -0.859092 -0.421583
7688.028320 1086.717896 3069.771729 0.785641 -0.268925 0.557179
7934.977051 1368.135498 2857.393311 0.785641 -0.268925 0.557179
7672.308594 1229.049316 3160.634033 0.785641 -0.268925 0.557179
7672.308594 1229.049316 3160.634033 -0.134537 -0.543710 0.828420
7285.446777 1213.855591 3087.834961 -0.134537 -0.543710 0.828420
7688.028320 1086.717896 3069.771729 -0.134537 -0.543710 0.828420
7343.528809 1323.645142 3092.535645 -0.186789 0.056826 0.980755
7285.446777 1213.855591 3087.834961 -0.186789 0.056826 0.980755
7672.308594 1229.049316 3160.634033 -0.186789 0.056826 0.980755
7661.424805 1091.128906 8275.386719 -0.209247 -0.471306 -0.856788
7315.294434 1294.261475 8248.179688 -0.209247 -0.471306 -0.856788
7657.712402 1219.398315 8205.734375 -0.209247 -0.471306 -0.856788
7661.424805 1091.128906 8275.386719 -0.243476 -0.524176 -0.816063
7320.523438 1180.148438 8319.916992 -0.243476 -0.524176 -0.816063
7315.294434 1294.261475 8248.179688 -0.243476 -0.524176 -0.816063
7661.424805 1091.128906 8275.386719 0.771445 -0.286253 -0.568271
7657.712402 1219.398315 8205.734375 0.771445 -0.286253 -0.568271
8264.600586 1553.305664 8861.405273 0.771445 -0.286253 -0.568271
7641.594238 1412.652710 8773.583984 -0.846076 0.255380 0.467906
7315.294434 1294.261475 8248.179688 -0.846076 0.255380 0.467906
7320.523438 1180.148438 8319.916992 -0.846076 0.255380 0.467906
7315.294434 1294.261475 8248.179688 -0.706716 0.643571 0.293885
7641.594238 1412.652710 8773.583984 -0.706716 0.643571 0.293885
7636.841797 1469.426880 8637.827148 -0.706716 0.643571 0.293885
7657.712402 1219.398315 8205.734375 0.127268 0.861154 -0.492156
7315.294434 1294.261475 8248.179688 0.127268 0.861154 -0.492156
7636.841797 1469.426880 8637.827148 0.127268 0.861154 -0.492156
7661.424805 1091.128906 8275.386719 -0.192156 -0.914267 0.356641
7677.520996 1263.454956 8725.826172 -0.192156 -0.914267 0.356641
7320.523438 1180.148438 8319.916992 -0.192156 -0.914267 0.356641
8264.600586 1553.305664 8861.405273 0.061639 0.865181 -0.497656
7657.712402 1219.398315 8205.734375 0.061639 0.865181 -0.497656
7636.841797 1469.426880 8637.827148 0.061639 0.865181 -0.497656
8264.600586 1553.305664 8861.405273 0.757802 -0.202535 -0.620255
8278.562500 1402.128174 8927.828125 0.757802 -0.202535 -0.620255
7661.424805 1091.128906 8275.386719 0.757802 -0.202535 -0.620255
7661.424805 1091.128906 8275.386719 0.096230 -0.930791 0.352657
8278.562500 1402.128174 8927.828125 0.096230 -0.930791 0.352657
7677.520996 1263.454956 8725.826172 0.096230 -0.930791 0.352657
7677.520996 1263.454956 8725.826172 -0.659230 -0.368544 0.655432
7641.594238 1412.652710 8773.583984 -0.659230 -0.368544 0.655432
7320.523438 1180.148438 8319.916992 -0.659230 -0.368544 0.655432
7641.594238 1412.652710 8773.583984 -0.857253 0.463660 0.223915
7900.151855 1735.601562 9094.737305 -0.857253 0.463660 0.223915
7636.841797 1469.426880 8637.827148 -0.857253 0.463660 0.223915
7900.151855 1735.601562 9094.737305 0.078176 0.841175 -0.535082
8264.600586 1553.305664 8861.405273 0.078176 0.841175 -0.535082
7636.841797 1469.426880 8637.827148 0.078176 0.841175 -0.535082
8278.562500 1402.128174 8927.828125 0.749160 0.323221 0.578176
8264.600586 1553.305664 8861.405273 0.749160 0.323221 0.578176
8029.953125 1573.747192 9154.017578 0.749160 0.323221 0.578176
7677.520996 1263.454956 8725.826172 -0.689074 -0.366120 0.625407
7871.626465 1641.215332 9160.836914 -0.689074 -0.366120 0.625407
7641.594238 1412.652710 8773.583984 -0.689074 -0.366120 0.625407
7641.594238 1412.652710 8773.583984 -0.862351 0.438219 0.253602
7871.626465 1641.215332 9160.836914 -0.862351 0.438219 0.253602
7900.151855 1735.601562 9094.737305 -0.862351 0.438219 0.253602
8264.600586 1553.305664 8861.405273 0.611960 0.653777 0.445062
7900.151855 1735.601562 9094.737305 0.611960 0.653777 0.445062
8029.953125 1573.747192 9154.017578 0.611960 0.653777 0.445062
7677.520996 1263.454956 8725.826172 -0.014257 -0.804048 0.594394
8278.562500 1402.128174 8927.828125 -0.014257 -0.804048 0.594394
8029.953125 1573.747192 9154.017578 -0.014257 -0.804048 0.594394
7677.520996 1263.454956 8725.826172 -0.255742 -0.670536 0.696403
8029.953125 1573.747192 9154.017578 -0.255742 -0.670536 0.696403
7871.626465 1641.215332 9160.836914 -0.255742 -0.670536 0.696403
7900.151855 1735.601562 9094.737305 0.250185 0.503522 0.826966
7871.626465 1641.215332 9160.836914 0.250185 0.503522 0.826966
8029.953125 1573.747192 9154.017578 0.250185 0.503522 0.826966
3 0 1 2
3 3 4 5
3 6 7 8
3 9 10 11
3 12 13 14
3 15 16 17
3 18 19 20
3 21 22 23
3 24 25 26
3 27 28 29
3 30 31 32
3 33 34 35
3 36 37 38
3 39 40 41
3 42 43 44
3 45 46 47
3 48 49 50
3 51 52 53
3 54 55 56
3 57 58 59
3 60 61 62
3 63 64 65
3 66 67 68
3 69 70 71
3 72 73 74
3 75 76 77
3 78 79 80
3 81 82 83
3 84 85 86
3 87 88 89
3 90 91 92
3 93 94 95
3 96 97 98
3 99 100 101
3 102 103 104
3 105 106 107
3 108 109 110
3 111 112 113
3 114 115 116
3 117 118 119
3 120 121 122
3 123 124 125
