ply
format ascii 1.0
comment Created by Blender 2.80 (sub 75) - www.blender.org, source file: 'downsample_ccf.blend'
element vertex 126
property float x
property float y
property float z
property float nx
property float ny
property float nz
element face 42
property list uchar uint vertex_indices
end_header
7947.841797 1273.736938 1946.706909 -0.369940 0.886426 0.278197
7878.914062 1264.471436 1884.571289 -0.369940 0.886426 0.278197
7625.081055 1020.393921 2324.739258 -0.369940 0.886426 0.278197
8329.876953 1078.187378 2191.397461 0.617744 0.294439 -0.729176
7878.914062 1264.471436 1884.571289 0.617744 0.294439 -0.729176
7947.841797 1273.736938 1946.706909 0.617744 0.294439 -0.729176
7625.081055 1020.393921 2324.739258 -0.886694 0.319595 -0.334114
7878.914062 1264.471436 1884.571289 -0.886694 0.319595 -0.334114
7643.058105 1002.543701 2259.956055 -0.886694 0.319595 -0.334114
7878.914062 1264.471436 1884.571289 -0.027065 -0.811734 -0.583399
7966.771973 835.848267 2476.876221 -0.027065 -0.811734 -0.583399
7643.058105 1002.543701 2259.956055 -0.027065 -0.811734 -0.583399
8329.876953 1078.187378 2191.397461 0.070813 -0.803077 -0.591653
7966.771973 835.848267 2476.876221 0.070813 -0.803077 -0.591653
7878.914062 1264.471436 1884.571289 0.070813 -0.803077 -0.591653
7272.576172 741.703613 2754.632080 -0.091563 -0.850917 -0.517259
7643.058105 1002.543701 2259.956055 -0.091563 -0.850917 -0.517259
7966.771973 835.848267 2476.876221 -0.091563 -0.850917 -0.517259
7947.841797 1273.736938 1946.706909 0.103377 0.849446 0.517450
7834.458496 842.364197 2677.500000 0.103377 0.849446 0.517450
8329.876953 1078.187378 2191.397461 0.103377 0.849446 0.517450
7272.576172 741.703613 2754.632080 -0.806395 0.473535 -0.354248
7625.081055 1020.393921 2324.739258 -0.806395 0.473535 -0.354248
7643.058105 1002.543701 2259.956055 -0.806395 0.473535 -0.354248
7625.081055 1020.393921 2324.739258 -0.098742 0.863586 0.494438
7834.458496 842.364197 2677.500000 -0.098742 0.863586 0.494438
7947.841797 1273.736938 1946.706909 -0.098742 0.863586 0.494438
8329.876953 1078.187378 2191.397461 0.716477 -0.497835 0.488693
7834.458496 842.364197 2677.500000 0.716477 -0.497835 0.488693
7966.771973 835.848267 2476.876221 0.716477 -0.497835 0.488693
7834.458496 842.364197 2677.500000 0.818714 -0.178509 0.545748
7650.202148 656.792664 2893.216797 0.818714 -0.178509 0.545748
7966.771973 835.848267 2476.876221 0.818714 -0.178509 0.545748
7272.576172 741.703613 2754.632080 -0.047373 -0.904038 -0.424820
7966.771973 835.848267 2476.876221 -0.047373 -0.904038 -0.424820
7650.202148 656.792664 2893.216797 -0.047373 -0.904038 -0.424820
7834.458496 842.364197 2677.500000 0.043295 0.902015 0.429528
7625.081055 1020.393921 2324.739258 0.043295 0.902015 0.429528
7495.050293 733.508545 2940.309814 0.043295 0.902015 0.429528
7272.576172 741.703613 2754.632080 -0.818450 0.210589 -0.534595
7203.203125 772.797058 2873.088623 -0.818450 0.210589 -0.534595
7625.081055 1020.393921 2324.739258 -0.818450 0.210589 -0.534595
7203.203125 772.797058 2873.088623 0.023519 0.904236 0.426385
7495.050293 733.508545 2940.309814 0.023519 0.904236 0.426385
7625.081055 1020.393921 2324.739258 0.023519 0.904236 0.426385
7650.202148 656.792664 2893.216797 0.763331 -0.637672 0.103445
7834.458496 842.364197 2677.500000 0.763331 -0.637672 0.103445
7698.431641 715.942749 2901.948730 0.763331 -0.637672 0.103445
7834.458496 842.364197 2677.500000 0.175789 0.808351 0.561843
7495.050293 733.508545 2940.309814 0.175789 0.808351 0.561843
7698.431641 715.942749 2901.948730 0.175789 0.808351 0.561843
7272.576172 741.703613 2754.632080 -0.254212 -0.961591 0.103529
7650.202148 656.792664 2893.216797 -0.254212 -0.961591 0.103529
7203.203125 772.797058 2873.088623 -0.254212 -0.961591 0.103529
7650.202148 656.792664 2893.216797 -0.233709 -0.806258 0.543442
7495.050293 733.508545 2940.309814 -0.233709 -0.806258 0.543442
7203.203125 772.797058 2873.088623 -0.233709 -0.806258 0.543442
7650.202148 656.792664 2893.216797 0.156205 -0.267718 0.950751
7698.431641 715.942749 2901.948730 0.156205 -0.267718 0.950751
7495.050293 733.508545 2940.309814 0.156205 -0.267718 0.950751
7643.590820 676.662903 8433.662109 -0.055521 0.459993 -0.886185
7194.040527 757.475281 8503.774414 -0.055521 0.459993 -0.886185
7421.158691 788.282288 8505.536133 -0.055521 0.459993 -0.886185
7643.590820 676.662903 8433.662109 -0.229838 -0.808383 -0.541933
7421.617188 676.638672 8527.838867 -0.229838 -0.808383 -0.541933
7194.040527 757.475281 8503.774414 -0.229838 -0.808383 -0.541933
7194.040527 757.475281 8503.774414 -0.346398 -0.872979 0.343390
7421.617188 676.638672 8527.838867 -0.346398 -0.872979 0.343390
7349.985840 779.137512 8716.156250 -0.346398 -0.872979 0.343390
7643.590820 676.662903 8433.662109 0.099698 -0.966932 0.234738
7904.382324 794.113586 8806.701172 0.099698 -0.966932 0.234738
7421.617188 676.638672 8527.838867 0.099698 -0.966932 0.234738
7643.590820 676.662903 8433.662109 0.591420 -0.789313 -0.164948
8312.261719 1024.153076 9168.360352 0.591420 -0.789313 -0.164948
7904.382324 794.113586 8806.701172 0.591420 -0.789313 -0.164948
8312.261719 1024.153076 9168.360352 0.213945 0.793342 -0.569944
7643.590820 676.662903 8433.662109 0.213945 0.793342 -0.569944
7421.158691 788.282288 8505.536133 0.213945 0.793342 -0.569944
7545.220215 970.754150 8937.099609 -0.122876 0.926253 -0.356311
7421.158691 788.282288 8505.536133 -0.122876 0.926253 -0.356311
7194.040527 757.475281 8503.774414 -0.122876 0.926253 -0.356311
8323.465820 1067.894165 9155.693359 -0.006075 0.921662 -0.387947
7421.158691 788.282288 8505.536133 -0.006075 0.921662 -0.387947
7545.220215 970.754150 8937.099609 -0.006075 0.921662 -0.387947
7194.040527 757.475281 8503.774414 -0.803632 0.156859 0.574083
7349.985840 779.137512 8716.156250 -0.803632 0.156859 0.574083
7545.220215 970.754150 8937.099609 -0.803632 0.156859 0.574083
8312.261719 1024.153076 9168.360352 0.616240 -0.360604 -0.700152
7421.158691 788.282288 8505.536133 0.616240 -0.360604 -0.700152
8323.465820 1067.894165 9155.693359 0.616240 -0.360604 -0.700152
7421.617188 676.638672 8527.838867 -0.051577 -0.885264 0.462220
7904.382324 794.113586 8806.701172 -0.051577 -0.885264 0.462220
7349.985840 779.137512 8716.156250 -0.051577 -0.885264 0.462220
8323.465820 1067.894165 9155.693359 0.051607 0.831440 -0.553212
7545.220215 970.754150 8937.099609 0.051607 0.831440 -0.553212
8205.916016 1158.183105 9280.425781 0.051607 0.831440 -0.553212
7545.220215 970.754150 8937.099609 -0.779735 0.603906 0.165258
7349.985840 779.137512 8716.156250 -0.779735 0.603906 0.165258
7714.260742 1108.050415 9232.957031 -0.779735 0.603906 0.165258
8312.261719 1024.153076 9168.360352 -0.002020 -0.842740 0.538317
7937.668457 1214.073608 9464.276367 -0.002020 -0.842740 0.538317
7904.382324 794.113586 8806.701172 -0.002020 -0.842740 0.538317
7904.382324 794.113586 8806.701172 -0.065426 -0.839476 0.539443
7937.668457 1214.073608 9464.276367 -0.065426 -0.839476 0.539443
7349.985840 779.137512 8716.156250 -0.065426 -0.839476 0.539443
7349.985840 779.137512 8716.156250 -0.414254 -0.606922 0.678262
7937.668457 1214.073608 9464.276367 -0.414254 -0.606922 0.678262
7714.260742 1108.050415 9232.957031 -0.414254 -0.606922 0.678262
8205.916016 1158.183105 9280.425781 0.731365 0.010139 0.681911
8312.261719 1024.153076 9168.360352 0.731365 0.010139 0.681911
8323.465820 1067.894165 9155.693359 0.731365 0.010139 0.681911
7714.260742 1108.050415 9232.957031 -0.881984 0.088368 0.462921
7849.841797 1277.919189 9458.847656 -0.881984 0.088368 0.462921
7545.220215 970.754150 8937.099609 -0.881984 0.088368 0.462921
7545.220215 970.754150 8937.099609 0.027279 0.854385 -0.518923
7849.841797 1277.919189 9458.847656 0.027279 0.854385 -0.518923
8205.916016 1158.183105 9280.425781 0.027279 0.854385 -0.518923
7937.668457 1214.073608 9464.276367 0.500416 -0.286164 0.817126
8312.261719 1024.153076 9168.360352 0.500416 -0.286164 0.817126
8205.916016 1158.183105 9280.425781 0.500416 -0.286164 0.817126
7937.668457 1214.073608 9464.276367 0.489902 0.716180 0.497074
8205.916016 1158.183105 9280.425781 0.489902 0.716180 0.497074
7849.841797 1277.919189 9458.847656 0.489902 0.716180 0.497074
7714.260742 1108.050415 9232.957031 -0.451269 -0.561817 0.693338
7937.668457 1214.073608 9464.276367 -0.451269 -0.561817 0.693338
7849.841797 1277.919189 9458.847656 -0.451269 -0.561817 0.693338
3 0 1 2
3 3 4 5
3 6 7 8
3 9 10 11
3 12 13 14
3 15 16 17
3 18 19 20
3 21 22 23
3 24 25 26
3 27 28 29
3 30 31 32
3 33 34 35
3 36 37 38
3 39 40 41
3 42 43 44
3 45 46 47
3 48 49 50
3 51 52 53
3 54 55 56
3 57 58 59
3 60 61 62
3 63 64 65
3 66 67 68
3 69 70 71
3 72 73 74
3 75 76 77
3 78 79 80
3 81 82 83
3 84 85 86
3 87 88 89
3 90 91 92
3 93 94 95
3 96 97 98
3 99 100 101
3 102 103 104
3 105 106 107
3 108 109 110
3 111 112 113
3 114 115 116
3 117 118 119
3 120 121 122
3 123 124 125
