ply
format ascii 1.0
comment Created by Blender 2.80 (sub 75) - www.blender.org, source file: 'downsample_ccf.blend'
element vertex 48
property float x
property float y
property float z
property float nx
property float ny
property float nz
element face 16
property list uchar uint vertex_indices
end_header
8085.928711 1750.372070 2566.568115 -0.343591 -0.662162 -0.665949
7762.092285 1639.836670 2843.555908 -0.343591 -0.662162 -0.665949
7961.218750 1844.820923 2536.999512 -0.343591 -0.662162 -0.665949
7533.213379 1506.597534 3158.217773 -0.049995 -0.906123 -0.420050
7762.092285 1639.836670 2843.555908 -0.049995 -0.906123 -0.420050
8085.928711 1750.372070 2566.568115 -0.049995 -0.906123 -0.420050
7573.462402 1426.442017 3192.168213 0.232456 0.772788 0.590562
8085.928711 1750.372070 2566.568115 0.232456 0.772788 0.590562
7851.224609 1780.614380 2619.378174 0.232456 0.772788 0.590562
7851.224609 1780.614380 2619.378174 -0.091291 -0.826580 -0.555367
7762.092285 1639.836670 2843.555908 -0.091291 -0.826580 -0.555367
7573.462402 1426.442017 3192.168213 -0.091291 -0.826580 -0.555367
7573.462402 1426.442017 3192.168213 0.551588 0.544580 0.631809
7762.092285 1639.836670 2843.555908 0.551588 0.544580 0.631809
7533.213379 1506.597534 3158.217773 0.551588 0.544580 0.631809
8085.928711 1750.372070 2566.568115 -0.484802 -0.550439 -0.679694
7555.844727 1455.017456 3183.846924 -0.484802 -0.550439 -0.679694
7533.213379 1506.597534 3158.217773 -0.484802 -0.550439 -0.679694
8085.928711 1750.372070 2566.568115 -0.512259 -0.515792 -0.686694
7573.462402 1426.442017 3192.168213 -0.512259 -0.515792 -0.686694
7555.844727 1455.017456 3183.846924 -0.512259 -0.515792 -0.686694
7909.267090 1574.684448 8444.360352 0.015050 -0.948774 0.315598
7503.068848 1491.516846 8213.706055 0.015050 -0.948774 0.315598
7730.965820 1493.506592 8208.820312 0.015050 -0.948774 0.315598
7503.068848 1491.516846 8213.706055 -0.304696 -0.588585 0.748818
7909.267090 1574.684448 8444.360352 -0.304696 -0.588585 0.748818
7554.770508 1519.947754 8257.090820 -0.304696 -0.588585 0.748818
7554.770508 1519.947754 8257.090820 -0.150298 -0.835404 0.528688
7909.267090 1574.684448 8444.360352 -0.150298 -0.835404 0.528688
7911.478027 1815.447754 8825.429688 -0.150298 -0.835404 0.528688
7554.770508 1519.947754 8257.090820 0.022573 0.909240 -0.415659
8138.789551 1714.208496 8713.746094 0.022573 0.909240 -0.415659
7730.965820 1493.506592 8208.820312 0.022573 0.909240 -0.415659
7963.280762 1806.787231 8850.638672 0.085499 0.872754 -0.480614
8138.789551 1714.208496 8713.746094 0.085499 0.872754 -0.480614
7554.770508 1519.947754 8257.090820 0.085499 0.872754 -0.480614
7554.770508 1519.947754 8257.090820 0.410181 0.678009 -0.609964
7911.478027 1815.447754 8825.429688 0.410181 0.678009 -0.609964
7963.280762 1806.787231 8850.638672 0.410181 0.678009 -0.609964
8058.158691 1811.131104 8838.311523 -0.142948 -0.823846 0.548493
7909.267090 1574.684448 8444.360352 -0.142948 -0.823846 0.548493
8138.789551 1714.208496 8713.746094 -0.142948 -0.823846 0.548493
8053.891602 1775.692993 8833.310547 0.260980 0.921248 -0.288429
8138.789551 1714.208496 8713.746094 0.260980 0.921248 -0.288429
7963.280762 1806.787231 8850.638672 0.260980 0.921248 -0.288429
7963.280762 1806.787231 8850.638672 0.102580 -0.869527 0.483115
7909.267090 1574.684448 8444.360352 0.102580 -0.869527 0.483115
8058.158691 1811.131104 8838.311523 0.102580 -0.869527 0.483115
3 0 1 2
3 3 4 5
3 6 7 8
3 9 10 11
3 12 13 14
3 15 16 17
3 18 19 20
3 21 22 23
3 24 25 26
3 27 28 29
3 30 31 32
3 33 34 35
3 36 37 38
3 39 40 41
3 42 43 44
3 45 46 47
