ply
format ascii 1.0
comment Created by Blender 2.80 (sub 75) - www.blender.org, source file: 'downsample_ccf.blend'
element vertex 570
property float x
property float y
property float z
property float nx
property float ny
property float nz
element face 190
property list uchar uint vertex_indices
end_header
10862.571289 4869.412598 3628.153809 -0.634246 0.084153 -0.768538
10806.416016 4693.565918 3655.241943 -0.634246 0.084153 -0.768538
10757.356445 4819.775391 3709.548584 -0.634246 0.084153 -0.768538
10862.571289 4869.412598 3628.153809 0.349900 -0.250778 -0.902596
10911.117188 4529.111328 3741.522461 0.349900 -0.250778 -0.902596
10806.416016 4693.565918 3655.241943 0.349900 -0.250778 -0.902596
10862.571289 4869.412598 3628.153809 -0.622578 0.037939 -0.781638
10757.356445 4819.775391 3709.548584 -0.622578 0.037939 -0.781638
10641.418945 5013.117676 3811.277832 -0.622578 0.037939 -0.781638
10862.571289 4869.412598 3628.153809 -0.498288 0.197611 0.844191
11064.124023 4947.304199 3728.888184 -0.498288 0.197611 0.844191
11099.783203 5207.356934 3689.062256 -0.498288 0.197611 0.844191
11363.776367 4622.399902 3805.959473 0.192460 -0.285333 -0.938906
10911.117188 4529.111328 3741.522461 0.192460 -0.285333 -0.938906
10862.571289 4869.412598 3628.153809 0.192460 -0.285333 -0.938906
11363.776367 4622.399902 3805.959473 0.274490 -0.128964 -0.952903
10862.571289 4869.412598 3628.153809 0.274490 -0.128964 -0.952903
11523.162109 4848.507812 3821.270508 0.274490 -0.128964 -0.952903
10862.571289 4869.412598 3628.153809 0.279834 -0.023443 -0.959762
11099.783203 5207.356934 3689.062256 0.279834 -0.023443 -0.959762
11523.162109 4848.507812 3821.270508 0.279834 -0.023443 -0.959762
10641.418945 5013.117676 3811.277832 0.002827 0.788342 -0.615231
11064.124023 4947.304199 3728.888184 0.002827 0.788342 -0.615231
10862.571289 4869.412598 3628.153809 0.002827 0.788342 -0.615231
10911.117188 4529.111328 3741.522461 0.134137 0.033233 -0.990405
11363.776367 4622.399902 3805.959473 0.134137 0.033233 -0.990405
11080.240234 4327.125977 3757.650391 0.134137 0.033233 -0.990405
11064.124023 4947.304199 3728.888184 -0.057012 0.616702 -0.785129
10641.418945 5013.117676 3811.277832 -0.057012 0.616702 -0.785129
10910.990234 5161.435059 3908.203125 -0.057012 0.616702 -0.785129
10785.214844 4370.782227 3966.734863 -0.546229 -0.510392 -0.664179
10911.117188 4529.111328 3741.522461 -0.546229 -0.510392 -0.664179
11080.240234 4327.125977 3757.650391 -0.546229 -0.510392 -0.664179
11363.776367 4622.399902 3805.959473 0.275974 -0.108760 -0.954992
11443.472656 4300.851074 3865.609863 0.275974 -0.108760 -0.954992
11080.240234 4327.125977 3757.650391 0.275974 -0.108760 -0.954992
11363.776367 4622.399902 3805.959473 0.614289 0.005874 -0.789059
11557.154297 4350.867188 3954.484375 0.614289 0.005874 -0.789059
11443.472656 4300.851074 3865.609863 0.614289 0.005874 -0.789059
10911.117188 4529.111328 3741.522461 -0.418322 -0.616355 -0.667168
10785.214844 4370.782227 3966.734863 -0.418322 -0.616355 -0.667168
10806.416016 4693.565918 3655.241943 -0.418322 -0.616355 -0.667168
11064.124023 4947.304199 3728.888184 -0.758032 0.004061 -0.652204
10910.990234 5161.435059 3908.203125 -0.758032 0.004061 -0.652204
11099.783203 5207.356934 3689.062256 -0.758032 0.004061 -0.652204
10806.416016 4693.565918 3655.241943 -0.925351 -0.230030 -0.301350
10785.214844 4370.782227 3966.734863 -0.925351 -0.230030 -0.301350
10757.356445 4819.775391 3709.548584 -0.925351 -0.230030 -0.301350
11099.783203 5207.356934 3689.062256 -0.422838 -0.742283 -0.519830
10910.990234 5161.435059 3908.203125 -0.422838 -0.742283 -0.519830
10766.641602 5162.422852 4024.208252 -0.422838 -0.742283 -0.519830
11523.162109 4848.507812 3821.270508 0.578551 0.426424 -0.695300
11099.783203 5207.356934 3689.062256 0.578551 0.426424 -0.695300
11872.583984 4799.494629 4081.960693 0.578551 0.426424 -0.695300
10910.990234 5161.435059 3908.203125 -0.322695 0.853665 -0.408809
10641.418945 5013.117676 3811.277832 -0.322695 0.853665 -0.408809
10766.641602 5162.422852 4024.208252 -0.322695 0.853665 -0.408809
11080.240234 4327.125977 3757.650391 0.070256 -0.888884 -0.452713
11443.472656 4300.851074 3865.609863 0.070256 -0.888884 -0.452713
11467.118164 4160.076660 4145.684082 0.070256 -0.888884 -0.452713
11523.162109 4848.507812 3821.270508 0.535826 -0.324938 -0.779298
11872.583984 4799.494629 4081.960693 0.535826 -0.324938 -0.779298
11363.776367 4622.399902 3805.959473 0.535826 -0.324938 -0.779298
10641.418945 5013.117676 3811.277832 -0.874549 -0.345238 -0.340550
10757.356445 4819.775391 3709.548584 -0.874549 -0.345238 -0.340550
10580.418945 4565.565918 4421.642578 -0.874549 -0.345238 -0.340550
11099.783203 5207.356934 3689.062256 0.588700 0.516194 -0.622074
11376.115234 5261.015137 3995.094727 0.588700 0.516194 -0.622074
11872.583984 4799.494629 4081.960693 0.588700 0.516194 -0.622074
11557.154297 4350.867188 3954.484375 0.839633 0.392730 -0.375207
11363.776367 4622.399902 3805.959473 0.839633 0.392730 -0.375207
11571.152344 4519.309570 4162.118164 0.839633 0.392730 -0.375207
11467.118164 4160.076660 4145.684082 0.198549 -0.812692 -0.547823
11175.634766 4082.662354 4154.884277 0.198549 -0.812692 -0.547823
11080.240234 4327.125977 3757.650391 0.198549 -0.812692 -0.547823
11467.118164 4160.076660 4145.684082 0.611142 -0.685308 -0.396054
11443.472656 4300.851074 3865.609863 0.611142 -0.685308 -0.396054
11557.154297 4350.867188 3954.484375 0.611142 -0.685308 -0.396054
11376.115234 5261.015137 3995.094727 0.448552 0.325879 -0.832228
12014.694336 5138.080566 4291.136719 0.448552 0.325879 -0.832228
11872.583984 4799.494629 4081.960693 0.448552 0.325879 -0.832228
11099.783203 5207.356934 3689.062256 -0.262418 0.955786 -0.132704
10766.641602 5162.422852 4024.208252 -0.262418 0.955786 -0.132704
11150.640625 5308.370605 4316.033691 -0.262418 0.955786 -0.132704
11376.115234 5261.015137 3995.094727 -0.017085 0.987341 -0.157688
11099.783203 5207.356934 3689.062256 -0.017085 0.987341 -0.157688
11150.640625 5308.370605 4316.033691 -0.017085 0.987341 -0.157688
10615.167969 5031.330078 4462.455078 -0.730161 0.681552 -0.048497
10766.641602 5162.422852 4024.208252 -0.730161 0.681552 -0.048497
10641.418945 5013.117676 3811.277832 -0.730161 0.681552 -0.048497
11363.776367 4622.399902 3805.959473 0.540968 -0.498194 -0.677611
11872.583984 4799.494629 4081.960693 0.540968 -0.498194 -0.677611
12211.280273 4687.575684 4434.643066 0.540968 -0.498194 -0.677611
11363.776367 4622.399902 3805.959473 0.404612 -0.788190 -0.463730
12211.280273 4687.575684 4434.643066 0.404612 -0.788190 -0.463730
11571.152344 4519.309570 4162.118164 0.404612 -0.788190 -0.463730
10785.214844 4370.782227 3966.734863 -0.408285 -0.817935 -0.405321
11080.240234 4327.125977 3757.650391 -0.408285 -0.817935 -0.405321
11175.634766 4082.662354 4154.884277 -0.408285 -0.817935 -0.405321
10785.214844 4370.782227 3966.734863 -0.919900 -0.236330 -0.312939
10580.418945 4565.565918 4421.642578 -0.919900 -0.236330 -0.312939
10757.356445 4819.775391 3709.548584 -0.919900 -0.236330 -0.312939
11467.118164 4160.076660 4145.684082 0.945413 -0.281317 0.164481
11557.154297 4350.867188 3954.484375 0.945413 -0.281317 0.164481
11571.152344 4519.309570 4162.118164 0.945413 -0.281317 0.164481
11053.713867 4069.066162 4435.554688 -0.492045 -0.832669 -0.254076
10785.214844 4370.782227 3966.734863 -0.492045 -0.832669 -0.254076
11175.634766 4082.662354 4154.884277 -0.492045 -0.832669 -0.254076
11467.118164 4160.076660 4145.684082 0.258067 -0.963910 0.065409
11053.713867 4069.066162 4435.554688 0.258067 -0.963910 0.065409
11175.634766 4082.662354 4154.884277 0.258067 -0.963910 0.065409
12014.694336 5138.080566 4291.136719 0.733830 0.106497 -0.670934
12211.280273 4687.575684 4434.643066 0.733830 0.106497 -0.670934
11872.583984 4799.494629 4081.960693 0.733830 0.106497 -0.670934
10641.418945 5013.117676 3811.277832 -0.996052 0.078022 -0.042336
10580.418945 4565.565918 4421.642578 -0.996052 0.078022 -0.042336
10615.167969 5031.330078 4462.455078 -0.996052 0.078022 -0.042336
11376.115234 5261.015137 3995.094727 0.255416 0.966127 0.036887
11150.640625 5308.370605 4316.033691 0.255416 0.966127 0.036887
11726.237305 5146.941406 4558.521484 0.255416 0.966127 0.036887
10766.641602 5162.422852 4024.208252 -0.574210 0.817412 0.046045
10615.167969 5031.330078 4462.455078 -0.574210 0.817412 0.046045
10913.090820 5227.982422 4686.674316 -0.574210 0.817412 0.046045
10785.214844 4370.782227 3966.734863 -0.726929 -0.686245 -0.025322
11053.713867 4069.066162 4435.554688 -0.726929 -0.686245 -0.025322
10683.449219 4456.126953 4575.257812 -0.726929 -0.686245 -0.025322
11726.237305 5146.941406 4558.521484 0.136358 0.984021 0.114494
12014.694336 5138.080566 4291.136719 0.136358 0.984021 0.114494
11376.115234 5261.015137 3995.094727 0.136358 0.984021 0.114494
11571.152344 4519.309570 4162.118164 0.917628 -0.278708 0.283338
11445.772461 4401.094238 4451.894043 0.917628 -0.278708 0.283338
11467.118164 4160.076660 4145.684082 0.917628 -0.278708 0.283338
10683.449219 4456.126953 4575.257812 -0.713086 -0.700763 -0.020971
10580.418945 4565.565918 4421.642578 -0.713086 -0.700763 -0.020971
10785.214844 4370.782227 3966.734863 -0.713086 -0.700763 -0.020971
10913.090820 5227.982422 4686.674316 -0.344006 0.938816 -0.016860
11150.640625 5308.370605 4316.033691 -0.344006 0.938816 -0.016860
10766.641602 5162.422852 4024.208252 -0.344006 0.938816 -0.016860
12211.280273 4687.575684 4434.643066 0.732250 0.105193 -0.672863
12014.694336 5138.080566 4291.136719 0.732250 0.105193 -0.672863
12238.658203 5078.177246 4525.502441 0.732250 0.105193 -0.672863
11053.713867 4069.066162 4435.554688 0.527193 -0.649474 0.547951
11467.118164 4160.076660 4145.684082 0.527193 -0.649474 0.547951
11445.772461 4401.094238 4451.894043 0.527193 -0.649474 0.547951
11571.152344 4519.309570 4162.118164 0.336853 -0.913776 -0.227030
12211.280273 4687.575684 4434.643066 0.336853 -0.913776 -0.227030
11445.772461 4401.094238 4451.894043 0.336853 -0.913776 -0.227030
12211.280273 4687.575684 4434.643066 0.912018 0.031205 -0.408961
12238.658203 5078.177246 4525.502441 0.912018 0.031205 -0.408961
12327.310547 4775.988281 4700.146484 0.912018 0.031205 -0.408961
12014.694336 5138.080566 4291.136719 0.139536 0.983167 0.117952
11726.237305 5146.941406 4558.521484 0.139536 0.983167 0.117952
12238.658203 5078.177246 4525.502441 0.139536 0.983167 0.117952
11445.772461 4401.094238 4451.894043 0.540615 -0.663792 0.516832
11070.883789 4239.040527 4635.900879 0.540615 -0.663792 0.516832
11053.713867 4069.066162 4435.554688 0.540615 -0.663792 0.516832
10913.090820 5227.982422 4686.674316 -0.640001 0.741994 0.199608
10615.167969 5031.330078 4462.455078 -0.640001 0.741994 0.199608
10686.479492 4998.842773 4811.863281 -0.640001 0.741994 0.199608
10934.092773 4478.449219 5106.080078 -0.622528 -0.712422 0.323904
10683.449219 4456.126953 4575.257812 -0.622528 -0.712422 0.323904
11053.713867 4069.066162 4435.554688 -0.622528 -0.712422 0.323904
12327.310547 4775.988281 4700.146484 0.586688 -0.809705 0.013237
12231.793945 4710.142090 4905.809570 0.586688 -0.809705 0.013237
12211.280273 4687.575684 4434.643066 0.586688 -0.809705 0.013237
11150.640625 5308.370605 4316.033691 0.273343 0.961879 -0.008494
12115.505859 5040.482422 5029.787598 0.273343 0.961879 -0.008494
11726.237305 5146.941406 4558.521484 0.273343 0.961879 -0.008494
10580.418945 4565.565918 4421.642578 -0.872737 -0.190997 0.449278
10683.449219 4456.126953 4575.257812 -0.872737 -0.190997 0.449278
10686.479492 4998.842773 4811.863281 -0.872737 -0.190997 0.449278
11070.883789 4239.040527 4635.900879 0.580649 -0.644699 0.497202
10934.092773 4478.449219 5106.080078 0.580649 -0.644699 0.497202
11053.713867 4069.066162 4435.554688 0.580649 -0.644699 0.497202
11445.772461 4401.094238 4451.894043 0.350760 -0.936339 0.015382
12211.280273 4687.575684 4434.643066 0.350760 -0.936339 0.015382
11420.802734 4400.633789 4993.268555 0.350760 -0.936339 0.015382
12211.280273 4687.575684 4434.643066 0.359140 -0.932832 0.029042
12231.793945 4710.142090 4905.809570 0.359140 -0.932832 0.029042
11420.802734 4400.633789 4993.268555 0.359140 -0.932832 0.029042
11445.772461 4401.094238 4451.894043 0.404097 -0.914542 0.017860
11420.802734 4400.633789 4993.268555 0.404097 -0.914542 0.017860
11070.883789 4239.040527 4635.900879 0.404097 -0.914542 0.017860
12327.310547 4775.988281 4700.146484 0.965126 0.166286 -0.202188
12238.658203 5078.177246 4525.502441 0.965126 0.166286 -0.202188
12333.466797 4902.763672 4833.796875 0.965126 0.166286 -0.202188
10580.418945 4565.565918 4421.642578 -0.977306 0.054988 0.204573
10686.479492 4998.842773 4811.863281 -0.977306 0.054988 0.204573
10615.167969 5031.330078 4462.455078 -0.977306 0.054988 0.204573
12115.505859 5040.482422 5029.787598 0.651828 0.727671 0.213577
12333.466797 4902.763672 4833.796875 0.651828 0.727671 0.213577
12238.658203 5078.177246 4525.502441 0.651828 0.727671 0.213577
12115.505859 5040.482422 5029.787598 0.139035 0.984431 0.107539
12238.658203 5078.177246 4525.502441 0.139035 0.984431 0.107539
11726.237305 5146.941406 4558.521484 0.139035 0.984431 0.107539
11150.640625 5308.370605 4316.033691 -0.243398 0.968420 0.054042
10913.090820 5227.982422 4686.674316 -0.243398 0.968420 0.054042
11235.025391 5292.626953 4978.209961 -0.243398 0.968420 0.054042
12115.505859 5040.482422 5029.787598 0.402376 0.891192 -0.209454
11150.640625 5308.370605 4316.033691 0.402376 0.891192 -0.209454
11727.438477 5255.507812 5199.179199 0.402376 0.891192 -0.209454
10683.449219 4456.126953 4575.257812 -0.942320 -0.129329 0.308719
10790.286133 4925.064941 5097.811035 -0.942320 -0.129329 0.308719
10686.479492 4998.842773 4811.863281 -0.942320 -0.129329 0.308719
11070.883789 4239.040527 4635.900879 -0.040177 -0.895087 0.444077
11420.802734 4400.633789 4993.268555 -0.040177 -0.895087 0.444077
10934.092773 4478.449219 5106.080078 -0.040177 -0.895087 0.444077
10913.090820 5227.982422 4686.674316 -0.524134 0.744388 0.413727
10686.479492 4998.842773 4811.863281 -0.524134 0.744388 0.413727
11235.025391 5292.626953 4978.209961 -0.524134 0.744388 0.413727
12333.466797 4902.763672 4833.796875 0.885777 -0.356409 0.297274
12231.793945 4710.142090 4905.809570 0.885777 -0.356409 0.297274
12327.310547 4775.988281 4700.146484 0.885777 -0.356409 0.297274
11150.640625 5308.370605 4316.033691 0.068469 0.997541 0.014992
11235.025391 5292.626953 4978.209961 0.068469 0.997541 0.014992
11727.438477 5255.507812 5199.179199 0.068469 0.997541 0.014992
10686.479492 4998.842773 4811.863281 -0.523763 0.759359 0.386064
10790.286133 4925.064941 5097.811035 -0.523763 0.759359 0.386064
11235.025391 5292.626953 4978.209961 -0.523763 0.759359 0.386064
12231.793945 4710.142090 4905.809570 0.367813 -0.910850 0.187257
11728.083008 4576.773926 5246.479980 0.367813 -0.910850 0.187257
11420.802734 4400.633789 4993.268555 0.367813 -0.910850 0.187257
10683.449219 4456.126953 4575.257812 -0.865962 -0.271051 0.420288
10934.092773 4478.449219 5106.080078 -0.865962 -0.271051 0.420288
10790.286133 4925.064941 5097.811035 -0.865962 -0.271051 0.420288
12333.466797 4902.763672 4833.796875 0.877363 -0.334491 0.344019
12148.674805 4891.282227 5293.914062 0.877363 -0.334491 0.344019
12231.793945 4710.142090 4905.809570 0.877363 -0.334491 0.344019
12148.674805 4891.282227 5293.914062 0.684407 0.668272 0.291547
12333.466797 4902.763672 4833.796875 0.684407 0.668272 0.291547
12115.505859 5040.482422 5029.787598 0.684407 0.668272 0.291547
10790.286133 4925.064941 5097.811035 -0.291029 0.595726 0.748607
11727.438477 5255.507812 5199.179199 -0.291029 0.595726 0.748607
11235.025391 5292.626953 4978.209961 -0.291029 0.595726 0.748607
11956.104492 5093.341309 5308.496094 0.526493 0.838212 0.142144
12115.505859 5040.482422 5029.787598 0.526493 0.838212 0.142144
11727.438477 5255.507812 5199.179199 0.526493 0.838212 0.142144
12115.505859 5040.482422 5029.787598 0.705022 0.651735 0.279617
11956.104492 5093.341309 5308.496094 0.705022 0.651735 0.279617
12148.674805 4891.282227 5293.914062 0.705022 0.651735 0.279617
10790.286133 4925.064941 5097.811035 -0.777449 -0.239565 0.581534
10934.092773 4478.449219 5106.080078 -0.777449 -0.239565 0.581534
10999.929688 4758.780762 5309.580566 -0.777449 -0.239565 0.581534
10934.092773 4478.449219 5106.080078 0.000868 -0.821409 0.570339
11420.802734 4400.633789 4993.268555 0.000868 -0.821409 0.570339
11728.083008 4576.773926 5246.479980 0.000868 -0.821409 0.570339
12231.793945 4710.142090 4905.809570 0.501010 -0.738142 0.451813
12148.674805 4891.282227 5293.914062 0.501010 -0.738142 0.451813
11728.083008 4576.773926 5246.479980 0.501010 -0.738142 0.451813
11728.083008 4576.773926 5246.479980 -0.038188 -0.704110 0.709063
11227.986328 4755.012695 5396.540039 -0.038188 -0.704110 0.709063
10934.092773 4478.449219 5106.080078 -0.038188 -0.704110 0.709063
11227.986328 4755.012695 5396.540039 -0.274931 0.605018 0.747239
10790.286133 4925.064941 5097.811035 -0.274931 0.605018 0.747239
10999.929688 4758.780762 5309.580566 -0.274931 0.605018 0.747239
10790.286133 4925.064941 5097.811035 -0.288652 0.586475 0.756787
11227.986328 4755.012695 5396.540039 -0.288652 0.586475 0.756787
11727.438477 5255.507812 5199.179199 -0.288652 0.586475 0.756787
10999.929688 4758.780762 5309.580566 -0.314145 -0.508299 0.801839
10934.092773 4478.449219 5106.080078 -0.314145 -0.508299 0.801839
11227.986328 4755.012695 5396.540039 -0.314145 -0.508299 0.801839
12148.674805 4891.282227 5293.914062 0.415137 -0.651007 0.635493
11904.757812 4831.885742 5392.406738 0.415137 -0.651007 0.635493
11728.083008 4576.773926 5246.479980 0.415137 -0.651007 0.635493
11728.083008 4576.773926 5246.479980 0.065270 -0.529137 0.846023
11904.757812 4831.885742 5392.406738 0.065270 -0.529137 0.846023
11227.986328 4755.012695 5396.540039 0.065270 -0.529137 0.846023
11956.104492 5093.341309 5308.496094 -0.102940 0.452105 0.886005
11727.438477 5255.507812 5199.179199 -0.102940 0.452105 0.886005
11227.986328 4755.012695 5396.540039 -0.102940 0.452105 0.886005
11904.757812 4831.885742 5392.406738 0.314654 0.233481 0.920043
12148.674805 4891.282227 5293.914062 0.314654 0.233481 0.920043
11956.104492 5093.341309 5308.496094 0.314654 0.233481 0.920043
11956.104492 5093.341309 5308.496094 -0.029489 0.310697 0.950051
11227.986328 4755.012695 5396.540039 -0.029489 0.310697 0.950051
11904.757812 4831.885742 5392.406738 -0.029489 0.310697 0.950051
11904.671875 5113.316406 6059.661621 -0.095794 0.328988 -0.939463
11608.800781 4762.517578 5966.985352 -0.095794 0.328988 -0.939463
11124.947266 4748.495605 6011.412109 -0.095794 0.328988 -0.939463
11608.800781 4762.517578 5966.985352 0.066519 0.202037 -0.977116
11904.671875 5113.316406 6059.661621 0.066519 0.202037 -0.977116
12067.593750 4882.113770 6022.947266 0.066519 0.202037 -0.977116
11608.800781 4762.517578 5966.985352 -0.050116 -0.656193 -0.752927
10962.864258 4451.798828 6280.778809 -0.050116 -0.656193 -0.752927
11124.947266 4748.495605 6011.412109 -0.050116 -0.656193 -0.752927
12067.593750 4882.113770 6022.947266 0.254789 -0.636973 -0.727563
11671.402344 4503.024902 6216.090820 0.254789 -0.636973 -0.727563
11608.800781 4762.517578 5966.985352 0.254789 -0.636973 -0.727563
11904.671875 5113.316406 6059.661621 -0.240745 0.613960 -0.751728
11124.947266 4748.495605 6011.412109 -0.240745 0.613960 -0.751728
10835.730469 4904.639648 6231.562988 -0.240745 0.613960 -0.751728
11608.800781 4762.517578 5966.985352 -0.015481 -0.694379 -0.719443
11671.402344 4503.024902 6216.090820 -0.015481 -0.694379 -0.719443
10962.864258 4451.798828 6280.778809 -0.015481 -0.694379 -0.719443
12067.593750 4882.113770 6022.947266 0.686890 0.557978 -0.465663
11904.671875 5113.316406 6059.661621 0.686890 0.557978 -0.465663
12247.491211 4849.478027 6249.204590 0.686890 0.557978 -0.465663
10962.864258 4451.798828 6280.778809 -0.467475 -0.440473 -0.766453
10863.564453 4545.833008 6287.303223 -0.467475 -0.440473 -0.766453
11124.947266 4748.495605 6011.412109 -0.467475 -0.440473 -0.766453
10835.730469 4904.639648 6231.562988 -0.652353 -0.165505 -0.739624
11124.947266 4748.495605 6011.412109 -0.652353 -0.165505 -0.739624
10863.564453 4545.833008 6287.303223 -0.652353 -0.165505 -0.739624
11904.671875 5113.316406 6059.661621 -0.229113 0.472633 -0.850956
10835.730469 4904.639648 6231.562988 -0.229113 0.472633 -0.850956
11257.605469 5249.308594 6309.410645 -0.229113 0.472633 -0.850956
11671.402344 4503.024902 6216.090820 0.471815 -0.738506 -0.481664
12067.593750 4882.113770 6022.947266 0.471815 -0.738506 -0.481664
12247.491211 4849.478027 6249.204590 0.471815 -0.738506 -0.481664
11904.671875 5113.316406 6059.661621 -0.203175 0.536954 -0.818780
11257.605469 5249.308594 6309.410645 -0.203175 0.536954 -0.818780
11665.235352 5267.804199 6220.389160 -0.203175 0.536954 -0.818780
11904.671875 5113.316406 6059.661621 0.491304 0.865255 -0.099767
11665.235352 5267.804199 6220.389160 0.491304 0.865255 -0.099767
12094.160156 5041.908203 6373.493652 0.491304 0.865255 -0.099767
12327.038086 4903.152344 6510.583008 0.574543 0.801779 -0.164469
11904.671875 5113.316406 6059.661621 0.574543 0.801779 -0.164469
12094.160156 5041.908203 6373.493652 0.574543 0.801779 -0.164469
12247.491211 4849.478027 6249.204590 0.684436 0.644589 -0.340665
11904.671875 5113.316406 6059.661621 0.684436 0.644589 -0.340665
12327.038086 4903.152344 6510.583008 0.684436 0.644589 -0.340665
10835.730469 4904.639648 6231.562988 -0.512498 0.729577 -0.452840
10720.131836 4989.382324 6498.920898 -0.512498 0.729577 -0.452840
11257.605469 5249.308594 6309.410645 -0.512498 0.729577 -0.452840
12247.491211 4849.478027 6249.204590 0.504623 -0.810732 -0.296765
12333.767578 4761.333496 6636.712402 0.504623 -0.810732 -0.296765
11671.402344 4503.024902 6216.090820 0.504623 -0.810732 -0.296765
10835.730469 4904.639648 6231.562988 -0.924469 -0.127531 -0.359294
10863.564453 4545.833008 6287.303223 -0.924469 -0.127531 -0.359294
10720.131836 4989.382324 6498.920898 -0.924469 -0.127531 -0.359294
11257.605469 5249.308594 6309.410645 -0.512357 0.731833 -0.449345
10720.131836 4989.382324 6498.920898 -0.512357 0.731833 -0.449345
11084.159180 5281.427246 6559.489746 -0.512357 0.731833 -0.449345
11084.159180 5281.427246 6559.489746 -0.084726 0.979170 -0.184521
11665.235352 5267.804199 6220.389160 -0.084726 0.979170 -0.184521
11257.605469 5249.308594 6309.410645 -0.084726 0.979170 -0.184521
11671.402344 4503.024902 6216.090820 0.026377 -0.903915 -0.426897
11016.845703 4238.680664 6735.372070 0.026377 -0.903915 -0.426897
10962.864258 4451.798828 6280.778809 0.026377 -0.903915 -0.426897
11084.159180 5281.427246 6559.489746 -0.552197 0.759579 -0.343683
10720.131836 4989.382324 6498.920898 -0.552197 0.759579 -0.343683
10632.635742 5009.665527 6684.329590 -0.552197 0.759579 -0.343683
11665.235352 5267.804199 6220.389160 0.401418 0.894767 0.195591
11170.710938 5313.497070 7026.287598 0.401418 0.894767 0.195591
12094.160156 5041.908203 6373.493652 0.401418 0.894767 0.195591
12327.038086 4903.152344 6510.583008 0.597678 0.764498 -0.241503
12094.160156 5041.908203 6373.493652 0.597678 0.764498 -0.241503
12212.834961 5105.175293 6867.469727 0.597678 0.764498 -0.241503
12094.160156 5041.908203 6373.493652 0.306103 0.951269 0.037250
11170.710938 5313.497070 7026.287598 0.306103 0.951269 0.037250
11790.367188 5123.996582 6773.597656 0.306103 0.951269 0.037250
11671.402344 4503.024902 6216.090820 0.357992 -0.933418 -0.023913
11424.627930 4390.363770 6919.327148 0.357992 -0.933418 -0.023913
11016.845703 4238.680664 6735.372070 0.357992 -0.933418 -0.023913
10722.580078 4447.480957 6727.374023 -0.932653 -0.143718 -0.330912
10720.131836 4989.382324 6498.920898 -0.932653 -0.143718 -0.330912
10863.564453 4545.833008 6287.303223 -0.932653 -0.143718 -0.330912
12333.767578 4761.333496 6636.712402 0.950806 -0.179460 -0.252512
12247.491211 4849.478027 6249.204590 0.950806 -0.179460 -0.252512
12327.038086 4903.152344 6510.583008 0.950806 -0.179460 -0.252512
10962.864258 4451.798828 6280.778809 -0.654215 -0.665980 -0.358430
10722.580078 4447.480957 6727.374023 -0.654215 -0.665980 -0.358430
10863.564453 4545.833008 6287.303223 -0.654215 -0.665980 -0.358430
11084.159180 5281.427246 6559.489746 -0.014988 0.997723 -0.065766
11170.710938 5313.497070 7026.287598 -0.014988 0.997723 -0.065766
11665.235352 5267.804199 6220.389160 -0.014988 0.997723 -0.065766
12094.160156 5041.908203 6373.493652 0.076090 0.986555 -0.144635
11790.367188 5123.996582 6773.597656 0.076090 0.986555 -0.144635
12212.834961 5105.175293 6867.469727 0.076090 0.986555 -0.144635
12333.767578 4761.333496 6636.712402 0.959238 0.211855 0.187029
12327.038086 4903.152344 6510.583008 0.959238 0.211855 0.187029
12212.834961 5105.175293 6867.469727 0.959238 0.211855 0.187029
11016.845703 4238.680664 6735.372070 -0.546297 -0.781453 -0.301482
10722.580078 4447.480957 6727.374023 -0.546297 -0.781453 -0.301482
10962.864258 4451.798828 6280.778809 -0.546297 -0.781453 -0.301482
11671.402344 4503.024902 6216.090820 0.337411 -0.940802 -0.032318
12196.835938 4667.495117 6913.938965 0.337411 -0.940802 -0.032318
11424.627930 4390.363770 6919.327148 0.337411 -0.940802 -0.032318
11671.402344 4503.024902 6216.090820 0.416163 -0.903736 -0.100349
12333.767578 4761.333496 6636.712402 0.416163 -0.903736 -0.100349
12196.835938 4667.495117 6913.938965 0.416163 -0.903736 -0.100349
10722.580078 4447.480957 6727.374023 -0.897702 -0.174598 -0.404533
10632.635742 5009.665527 6684.329590 -0.897702 -0.174598 -0.404533
10720.131836 4989.382324 6498.920898 -0.897702 -0.174598 -0.404533
10632.635742 5009.665527 6684.329590 -0.927937 -0.173712 -0.329784
10722.580078 4447.480957 6727.374023 -0.927937 -0.173712 -0.329784
10606.131836 4534.854492 7009.009766 -0.927937 -0.173712 -0.329784
11016.845703 4238.680664 6735.372070 0.504745 -0.548989 -0.666215
11424.627930 4390.363770 6919.327148 0.504745 -0.548989 -0.666215
11050.624023 4108.174805 6868.505859 0.504745 -0.548989 -0.666215
12228.707031 4901.709473 6961.093750 0.955905 0.180989 0.231275
12333.767578 4761.333496 6636.712402 0.955905 0.180989 0.231275
12212.834961 5105.175293 6867.469727 0.955905 0.180989 0.231275
11016.845703 4238.680664 6735.372070 -0.706336 -0.586766 -0.395974
11050.624023 4108.174805 6868.505859 -0.706336 -0.586766 -0.395974
10986.610352 4096.341797 7000.227539 -0.706336 -0.586766 -0.395974
12228.707031 4901.709473 6961.093750 0.903718 -0.199265 0.378928
12196.835938 4667.495117 6913.938965 0.903718 -0.199265 0.378928
12333.767578 4761.333496 6636.712402 0.903718 -0.199265 0.378928
10986.610352 4096.341797 7000.227539 -0.507982 -0.733222 -0.452039
10722.580078 4447.480957 6727.374023 -0.507982 -0.733222 -0.452039
11016.845703 4238.680664 6735.372070 -0.507982 -0.733222 -0.452039
10722.580078 4447.480957 6727.374023 -0.751886 -0.650192 -0.109170
10986.610352 4096.341797 7000.227539 -0.751886 -0.650192 -0.109170
10606.131836 4534.854492 7009.009766 -0.751886 -0.650192 -0.109170
12196.835938 4667.495117 6913.938965 0.329053 -0.912134 0.244409
11586.000000 4531.756836 7229.746094 0.329053 -0.912134 0.244409
11424.627930 4390.363770 6919.327148 0.329053 -0.912134 0.244409
11084.159180 5281.427246 6559.489746 -0.521253 0.852924 -0.028561
10632.635742 5009.665527 6684.329590 -0.521253 0.852924 -0.028561
10938.501953 5222.422363 7455.714844 -0.521253 0.852924 -0.028561
12212.834961 5105.175293 6867.469727 0.125277 0.916439 -0.380059
11790.367188 5123.996582 6773.597656 0.125277 0.916439 -0.380059
11170.710938 5313.497070 7026.287598 0.125277 0.916439 -0.380059
11050.624023 4108.174805 6868.505859 0.546892 -0.624390 -0.557715
11424.627930 4390.363770 6919.327148 0.546892 -0.624390 -0.557715
11482.131836 4190.369141 7199.619629 0.546892 -0.624390 -0.557715
10986.610352 4096.341797 7000.227539 0.134062 -0.990686 -0.023846
11050.624023 4108.174805 6868.505859 0.134062 -0.990686 -0.023846
11244.592773 4122.862793 7348.784668 0.134062 -0.990686 -0.023846
11586.000000 4531.756836 7229.746094 0.901573 -0.242702 -0.358137
11482.131836 4190.369141 7199.619629 0.901573 -0.242702 -0.358137
11424.627930 4390.363770 6919.327148 0.901573 -0.242702 -0.358137
10606.131836 4534.854492 7009.009766 -0.998834 0.029752 -0.038026
10609.110352 5023.329102 7312.961914 -0.998834 0.029752 -0.038026
10632.635742 5009.665527 6684.329590 -0.998834 0.029752 -0.038026
11170.710938 5313.497070 7026.287598 0.198841 0.979838 0.019490
11381.417969 5263.408203 7394.783203 0.198841 0.979838 0.019490
12212.834961 5105.175293 6867.469727 0.198841 0.979838 0.019490
12228.707031 4901.709473 6961.093750 0.701220 0.342440 0.625320
12212.834961 5105.175293 6867.469727 0.701220 0.342440 0.625320
11976.769531 5103.481445 7133.115723 0.701220 0.342440 0.625320
10609.110352 5023.329102 7312.961914 -0.504915 0.862348 -0.037639
10938.501953 5222.422363 7455.714844 -0.504915 0.862348 -0.037639
10632.635742 5009.665527 6684.329590 -0.504915 0.862348 -0.037639
11084.159180 5281.427246 6559.489746 -0.360650 0.932697 0.002792
10938.501953 5222.422363 7455.714844 -0.360650 0.932697 0.002792
11170.710938 5313.497070 7026.287598 -0.360650 0.932697 0.002792
10606.131836 4534.854492 7009.009766 -0.752334 -0.654303 0.076686
10986.610352 4096.341797 7000.227539 -0.752334 -0.654303 0.076686
10781.018555 4384.835938 7444.752930 -0.752334 -0.654303 0.076686
10597.279297 4724.948730 7316.008789 -0.997835 0.039025 -0.052937
10609.110352 5023.329102 7312.961914 -0.997835 0.039025 -0.052937
10606.131836 4534.854492 7009.009766 -0.997835 0.039025 -0.052937
12196.835938 4667.495117 6913.938965 0.709725 -0.230597 0.665669
12228.707031 4901.709473 6961.093750 0.709725 -0.230597 0.665669
11803.165039 4784.621094 7374.238281 0.709725 -0.230597 0.665669
12212.834961 5105.175293 6867.469727 0.381900 0.857460 0.344841
11381.417969 5263.408203 7394.783203 0.381900 0.857460 0.344841
11976.769531 5103.481445 7133.115723 0.381900 0.857460 0.344841
11482.131836 4190.369141 7199.619629 0.234726 -0.969877 -0.065137
11244.592773 4122.862793 7348.784668 0.234726 -0.969877 -0.065137
11050.624023 4108.174805 6868.505859 0.234726 -0.969877 -0.065137
11482.131836 4190.369141 7199.619629 0.956880 -0.290347 -0.008911
11586.000000 4531.756836 7229.746094 0.956880 -0.290347 -0.008911
11525.278320 4324.316406 7468.357910 0.956880 -0.290347 -0.008911
12228.707031 4901.709473 6961.093750 0.654938 0.195426 0.729976
11976.769531 5103.481445 7133.115723 0.654938 0.195426 0.729976
11803.165039 4784.621094 7374.238281 0.654938 0.195426 0.729976
11381.417969 5263.408203 7394.783203 0.455097 0.366048 0.811724
11803.165039 4784.621094 7374.238281 0.455097 0.366048 0.811724
11976.769531 5103.481445 7133.115723 0.455097 0.366048 0.811724
11147.182617 4302.081543 7601.388184 -0.450595 -0.800863 0.394441
10986.610352 4096.341797 7000.227539 -0.450595 -0.800863 0.394441
11244.592773 4122.862793 7348.784668 -0.450595 -0.800863 0.394441
12196.835938 4667.495117 6913.938965 0.444334 -0.700625 0.558294
11803.165039 4784.621094 7374.238281 0.444334 -0.700625 0.558294
11586.000000 4531.756836 7229.746094 0.444334 -0.700625 0.558294
10606.131836 4534.854492 7009.009766 -0.610811 -0.680937 0.404024
10780.726562 4802.973145 7724.849121 -0.610811 -0.680937 0.404024
10597.279297 4724.948730 7316.008789 -0.610811 -0.680937 0.404024
11170.710938 5313.497070 7026.287598 -0.051541 0.985214 0.163390
11046.827148 5203.040039 7653.248047 -0.051541 0.985214 0.163390
11381.417969 5263.408203 7394.783203 -0.051541 0.985214 0.163390
11147.182617 4302.081543 7601.388184 -0.357468 -0.850216 0.386457
10781.018555 4384.835938 7444.752930 -0.357468 -0.850216 0.386457
10986.610352 4096.341797 7000.227539 -0.357468 -0.850216 0.386457
11482.131836 4190.369141 7199.619629 0.448433 -0.826618 0.340015
11525.278320 4324.316406 7468.357910 0.448433 -0.826618 0.340015
11244.592773 4122.862793 7348.784668 0.448433 -0.826618 0.340015
11586.000000 4531.756836 7229.746094 0.836501 0.289966 0.464958
11427.742188 4525.715820 7518.233398 0.836501 0.289966 0.464958
11525.278320 4324.316406 7468.357910 0.836501 0.289966 0.464958
11170.710938 5313.497070 7026.287598 -0.102845 0.982885 0.152842
10938.501953 5222.422363 7455.714844 -0.102845 0.982885 0.152842
11046.827148 5203.040039 7653.248047 -0.102845 0.982885 0.152842
10606.131836 4534.854492 7009.009766 -0.929790 -0.213980 0.299504
10781.018555 4384.835938 7444.752930 -0.929790 -0.213980 0.299504
10802.458008 4594.858398 7661.359863 -0.929790 -0.213980 0.299504
10609.110352 5023.329102 7312.961914 -0.556617 0.818370 0.142995
10674.032227 5023.045410 7567.297363 -0.556617 0.818370 0.142995
10938.501953 5222.422363 7455.714844 -0.556617 0.818370 0.142995
11244.592773 4122.862793 7348.784668 0.262724 -0.736226 0.623656
11525.278320 4324.316406 7468.357910 0.262724 -0.736226 0.623656
11147.182617 4302.081543 7601.388184 0.262724 -0.736226 0.623656
10606.131836 4534.854492 7009.009766 -0.935414 -0.188857 0.298886
10802.458008 4594.858398 7661.359863 -0.935414 -0.188857 0.298886
10780.726562 4802.973145 7724.849121 -0.935414 -0.188857 0.298886
11803.165039 4784.621094 7374.238281 0.469683 -0.706148 0.529861
11421.173828 4693.467773 7591.365234 0.469683 -0.706148 0.529861
11586.000000 4531.756836 7229.746094 0.469683 -0.706148 0.529861
10597.279297 4724.948730 7316.008789 -0.968109 0.040910 0.247166
10674.032227 5023.045410 7567.297363 -0.968109 0.040910 0.247166
10609.110352 5023.329102 7312.961914 -0.968109 0.040910 0.247166
11381.417969 5263.408203 7394.783203 0.607596 0.509049 0.609668
11190.323242 5156.604492 7674.405273 0.607596 0.509049 0.609668
11803.165039 4784.621094 7374.238281 0.607596 0.509049 0.609668
11586.000000 4531.756836 7229.746094 0.865264 -0.171486 0.471074
11421.173828 4693.467773 7591.365234 0.865264 -0.171486 0.471074
11427.742188 4525.715820 7518.233398 0.865264 -0.171486 0.471074
11012.793945 5013.298828 7564.854004 0.019840 0.468109 0.883448
10938.501953 5222.422363 7455.714844 0.019840 0.468109 0.883448
10674.032227 5023.045410 7567.297363 0.019840 0.468109 0.883448
11525.278320 4324.316406 7468.357910 0.291175 -0.094736 0.951968
11427.742188 4525.715820 7518.233398 0.291175 -0.094736 0.951968
11071.595703 4564.255859 7631.001953 0.291175 -0.094736 0.951968
11421.173828 4693.467773 7591.365234 0.241636 -0.379820 0.892944
11071.595703 4564.255859 7631.001953 0.241636 -0.379820 0.892944
11427.742188 4525.715820 7518.233398 0.241636 -0.379820 0.892944
10597.279297 4724.948730 7316.008789 -0.895341 -0.128859 0.426333
10780.726562 4802.973145 7724.849121 -0.895341 -0.128859 0.426333
10674.032227 5023.045410 7567.297363 -0.895341 -0.128859 0.426333
11012.793945 5013.298828 7564.854004 -0.877650 -0.063878 0.475026
11046.827148 5203.040039 7653.248047 -0.877650 -0.063878 0.475026
10938.501953 5222.422363 7455.714844 -0.877650 -0.063878 0.475026
11525.278320 4324.316406 7468.357910 0.332438 -0.010679 0.943064
11071.595703 4564.255859 7631.001953 0.332438 -0.010679 0.943064
11147.182617 4302.081543 7601.388184 0.332438 -0.010679 0.943064
11803.165039 4784.621094 7374.238281 0.477785 0.081318 0.874705
11190.323242 5156.604492 7674.405273 0.477785 0.081318 0.874705
11421.173828 4693.467773 7591.365234 0.477785 0.081318 0.874705
10674.032227 5023.045410 7567.297363 0.027278 0.796774 0.603661
10897.677734 4875.078125 7752.493652 0.027278 0.796774 0.603661
11012.793945 5013.298828 7564.854004 0.027278 0.796774 0.603661
11088.061523 4943.597168 7687.201660 -0.867575 -0.073519 0.491843
11046.827148 5203.040039 7653.248047 -0.867575 -0.073519 0.491843
11012.793945 5013.298828 7564.854004 -0.867575 -0.073519 0.491843
10781.018555 4384.835938 7444.752930 -0.421442 -0.629861 0.652428
11147.182617 4302.081543 7601.388184 -0.421442 -0.629861 0.652428
10802.458008 4594.858398 7661.359863 -0.421442 -0.629861 0.652428
11381.417969 5263.408203 7394.783203 0.208280 0.857759 0.469967
11046.827148 5203.040039 7653.248047 0.208280 0.857759 0.469967
11190.323242 5156.604492 7674.405273 0.208280 0.857759 0.469967
10802.458008 4594.858398 7661.359863 0.102444 -0.082438 0.991317
11147.182617 4302.081543 7601.388184 0.102444 -0.082438 0.991317
11071.595703 4564.255859 7631.001953 0.102444 -0.082438 0.991317
10780.726562 4802.973145 7724.849121 -0.427962 0.379688 0.820174
10897.677734 4875.078125 7752.493652 -0.427962 0.379688 0.820174
10674.032227 5023.045410 7567.297363 -0.427962 0.379688 0.820174
11012.793945 5013.298828 7564.854004 -0.113009 0.831823 0.543414
10897.677734 4875.078125 7752.493652 -0.113009 0.831823 0.543414
11088.061523 4943.597168 7687.201660 -0.113009 0.831823 0.543414
11190.323242 5156.604492 7674.405273 0.237250 -0.055637 0.969854
11088.061523 4943.597168 7687.201660 0.237250 -0.055637 0.969854
11421.173828 4693.467773 7591.365234 0.237250 -0.055637 0.969854
11421.173828 4693.467773 7591.365234 0.308782 0.047250 0.949958
11088.061523 4943.597168 7687.201660 0.308782 0.047250 0.949958
10897.677734 4875.078125 7752.493652 0.308782 0.047250 0.949958
10802.458008 4594.858398 7661.359863 0.068735 -0.329592 0.941618
11071.595703 4564.255859 7631.001953 0.068735 -0.329592 0.941618
10897.677734 4875.078125 7752.493652 0.068735 -0.329592 0.941618
11421.173828 4693.467773 7591.365234 0.201964 -0.256453 0.945221
10897.677734 4875.078125 7752.493652 0.201964 -0.256453 0.945221
11071.595703 4564.255859 7631.001953 0.201964 -0.256453 0.945221
11046.827148 5203.040039 7653.248047 -0.109424 0.111868 0.987680
11088.061523 4943.597168 7687.201660 -0.109424 0.111868 0.987680
11190.323242 5156.604492 7674.405273 -0.109424 0.111868 0.987680
10897.677734 4875.078125 7752.493652 -0.043296 -0.295652 0.954314
10780.726562 4802.973145 7724.849121 -0.043296 -0.295652 0.954314
10802.458008 4594.858398 7661.359863 -0.043296 -0.295652 0.954314
3 0 1 2
3 3 4 5
3 6 7 8
3 9 10 11
3 12 13 14
3 15 16 17
3 18 19 20
3 21 22 23
3 24 25 26
3 27 28 29
3 30 31 32
3 33 34 35
3 36 37 38
3 39 40 41
3 42 43 44
3 45 46 47
3 48 49 50
3 51 52 53
3 54 55 56
3 57 58 59
3 60 61 62
3 63 64 65
3 66 67 68
3 69 70 71
3 72 73 74
3 75 76 77
3 78 79 80
3 81 82 83
3 84 85 86
3 87 88 89
3 90 91 92
3 93 94 95
3 96 97 98
3 99 100 101
3 102 103 104
3 105 106 107
3 108 109 110
3 111 112 113
3 114 115 116
3 117 118 119
3 120 121 122
3 123 124 125
3 126 127 128
3 129 130 131
3 132 133 134
3 135 136 137
3 138 139 140
3 141 142 143
3 144 145 146
3 147 148 149
3 150 151 152
3 153 154 155
3 156 157 158
3 159 160 161
3 162 163 164
3 165 166 167
3 168 169 170
3 171 172 173
3 174 175 176
3 177 178 179
3 180 181 182
3 183 184 185
3 186 187 188
3 189 190 191
3 192 193 194
3 195 196 197
3 198 199 200
3 201 202 203
3 204 205 206
3 207 208 209
3 210 211 212
3 213 214 215
3 216 217 218
3 219 220 221
3 222 223 224
3 225 226 227
3 228 229 230
3 231 232 233
3 234 235 236
3 237 238 239
3 240 241 242
3 243 244 245
3 246 247 248
3 249 250 251
3 252 253 254
3 255 256 257
3 258 259 260
3 261 262 263
3 264 265 266
3 267 268 269
3 270 271 272
3 273 274 275
3 276 277 278
3 279 280 281
3 282 283 284
3 285 286 287
3 288 289 290
3 291 292 293
3 294 295 296
3 297 298 299
3 300 301 302
3 303 304 305
3 306 307 308
3 309 310 311
3 312 313 314
3 315 316 317
3 318 319 320
3 321 322 323
3 324 325 326
3 327 328 329
3 330 331 332
3 333 334 335
3 336 337 338
3 339 340 341
3 342 343 344
3 345 346 347
3 348 349 350
3 351 352 353
3 354 355 356
3 357 358 359
3 360 361 362
3 363 364 365
3 366 367 368
3 369 370 371
3 372 373 374
3 375 376 377
3 378 379 380
3 381 382 383
3 384 385 386
3 387 388 389
3 390 391 392
3 393 394 395
3 396 397 398
3 399 400 401
3 402 403 404
3 405 406 407
3 408 409 410
3 411 412 413
3 414 415 416
3 417 418 419
3 420 421 422
3 423 424 425
3 426 427 428
3 429 430 431
3 432 433 434
3 435 436 437
3 438 439 440
3 441 442 443
3 444 445 446
3 447 448 449
3 450 451 452
3 453 454 455
3 456 457 458
3 459 460 461
3 462 463 464
3 465 466 467
3 468 469 470
3 471 472 473
3 474 475 476
3 477 478 479
3 480 481 482
3 483 484 485
3 486 487 488
3 489 490 491
3 492 493 494
3 495 496 497
3 498 499 500
3 501 502 503
3 504 505 506
3 507 508 509
3 510 511 512
3 513 514 515
3 516 517 518
3 519 520 521
3 522 523 524
3 525 526 527
3 528 529 530
3 531 532 533
3 534 535 536
3 537 538 539
3 540 541 542
3 543 544 545
3 546 547 548
3 549 550 551
3 552 553 554
3 555 556 557
3 558 559 560
3 561 562 563
3 564 565 566
3 567 568 569
