ply
format ascii 1.0
comment Created by Blender 2.80 (sub 75) - www.blender.org, source file: 'downsample_ccf.blend'
element vertex 198
property float x
property float y
property float z
property float nx
property float ny
property float nz
element face 66
property list uchar uint vertex_indices
end_header
8097.187500 4954.467773 4992.854004 -0.721961 -0.633760 -0.277705
7916.988770 5398.291504 4448.457520 -0.721961 -0.633760 -0.277705
8182.871094 5119.079102 4394.432617 -0.721961 -0.633760 -0.277705
8307.200195 5147.722168 4618.660156 0.613040 0.666005 -0.424993
8182.871094 5119.079102 4394.432617 0.613040 0.666005 -0.424993
7916.988770 5398.291504 4448.457520 0.613040 0.666005 -0.424993
8182.871094 5119.079102 4394.432617 0.610293 -0.754294 -0.242039
8307.200195 5147.722168 4618.660156 0.610293 -0.754294 -0.242039
8225.908203 5020.623047 4809.778809 0.610293 -0.754294 -0.242039
8182.871094 5119.079102 4394.432617 0.147746 -0.958812 -0.242591
8225.908203 5020.623047 4809.778809 0.147746 -0.958812 -0.242591
8097.187500 4954.467773 4992.854004 0.147746 -0.958812 -0.242591
8259.240234 5576.128906 4885.619141 0.182957 0.852328 -0.489963
7916.988770 5398.291504 4448.457520 0.182957 0.852328 -0.489963
7919.331543 5512.708008 4648.368652 0.182957 0.852328 -0.489963
8225.908203 5020.623047 4809.778809 -0.389519 -0.681865 -0.619140
8307.200195 5147.722168 4618.660156 -0.389519 -0.681865 -0.619140
8521.113281 5044.105469 4598.195312 -0.389519 -0.681865 -0.619140
8737.160156 4819.860840 4711.309570 -0.437343 0.233714 -0.868394
8297.808594 4920.700684 4959.716309 -0.437343 0.233714 -0.868394
8782.430664 4997.163574 4736.228516 -0.437343 0.233714 -0.868394
8307.200195 5147.722168 4618.660156 0.179993 0.534664 -0.825674
8259.240234 5576.128906 4885.619141 0.179993 0.534664 -0.825674
8521.113281 5044.105469 4598.195312 0.179993 0.534664 -0.825674
8058.651367 5038.566406 5123.414551 -0.978131 -0.175366 0.111831
7919.331543 5512.708008 4648.368652 -0.978131 -0.175366 0.111831
7916.988770 5398.291504 4448.457520 -0.978131 -0.175366 0.111831
7916.988770 5398.291504 4448.457520 0.589549 0.473693 -0.654253
8259.240234 5576.128906 4885.619141 0.589549 0.473693 -0.654253
8307.200195 5147.722168 4618.660156 0.589549 0.473693 -0.654253
8097.187500 4954.467773 4992.854004 -0.918846 -0.394239 -0.017263
8058.651367 5038.566406 5123.414551 -0.918846 -0.394239 -0.017263
7916.988770 5398.291504 4448.457520 -0.918846 -0.394239 -0.017263
8521.113281 5044.105469 4598.195312 0.777228 0.548826 -0.307746
8259.240234 5576.128906 4885.619141 0.777228 0.548826 -0.307746
8492.761719 5329.971191 5036.397949 0.777228 0.548826 -0.307746
8560.310547 5170.597656 5101.064453 -0.379675 0.724336 -0.575486
8782.430664 4997.163574 4736.228516 -0.379675 0.724336 -0.575486
8297.808594 4920.700684 4959.716309 -0.379675 0.724336 -0.575486
8225.908203 5020.623047 4809.778809 0.427087 -0.744419 0.513261
8521.113281 5044.105469 4598.195312 0.427087 -0.744419 0.513261
8492.761719 5329.971191 5036.397949 0.427087 -0.744419 0.513261
8737.160156 4819.860840 4711.309570 -0.336095 -0.876376 -0.344972
8544.250977 4706.350098 5187.619629 -0.336095 -0.876376 -0.344972
8097.187500 4954.467773 4992.854004 -0.336095 -0.876376 -0.344972
8737.160156 4819.860840 4711.309570 0.140015 0.978769 -0.149687
8097.187500 4954.467773 4992.854004 0.140015 0.978769 -0.149687
8297.808594 4920.700684 4959.716309 0.140015 0.978769 -0.149687
7919.331543 5512.708008 4648.368652 -0.404940 0.842656 0.354902
8162.120117 5406.865234 5176.694824 -0.404940 0.842656 0.354902
8259.240234 5576.128906 4885.619141 -0.404940 0.842656 0.354902
8097.187500 4954.467773 4992.854004 -0.221108 -0.857148 -0.465197
8225.908203 5020.623047 4809.778809 -0.221108 -0.857148 -0.465197
8297.808594 4920.700684 4959.716309 -0.221108 -0.857148 -0.465197
8782.430664 4997.163574 4736.228516 0.912044 -0.275557 0.303716
8544.250977 4706.350098 5187.619629 0.912044 -0.275557 0.303716
8737.160156 4819.860840 4711.309570 0.912044 -0.275557 0.303716
8297.808594 4920.700684 4959.716309 0.785662 -0.269949 -0.556654
8225.908203 5020.623047 4809.778809 0.785662 -0.269949 -0.556654
8492.761719 5329.971191 5036.397949 0.785662 -0.269949 -0.556654
8576.122070 5230.113770 5253.304688 0.708498 0.703814 0.051729
8492.761719 5329.971191 5036.397949 0.708498 0.703814 0.051729
8259.240234 5576.128906 4885.619141 0.708498 0.703814 0.051729
8058.651367 5038.566406 5123.414551 -0.878839 0.183165 0.440559
8162.120117 5406.865234 5176.694824 -0.878839 0.183165 0.440559
7919.331543 5512.708008 4648.368652 -0.878839 0.183165 0.440559
8297.808594 4920.700684 4959.716309 0.547149 -0.105042 -0.830418
8492.761719 5329.971191 5036.397949 0.547149 -0.105042 -0.830418
8560.310547 5170.597656 5101.064453 0.547149 -0.105042 -0.830418
8560.310547 5170.597656 5101.064453 0.109227 0.921888 -0.371743
8576.122070 5230.113770 5253.304688 0.109227 0.921888 -0.371743
8782.430664 4997.163574 4736.228516 0.109227 0.921888 -0.371743
8162.120117 5406.865234 5176.694824 0.241155 0.801826 0.546734
8576.122070 5230.113770 5253.304688 0.241155 0.801826 0.546734
8259.240234 5576.128906 4885.619141 0.241155 0.801826 0.546734
8782.430664 4997.163574 4736.228516 0.906078 -0.106489 0.409491
8576.122070 5230.113770 5253.304688 0.906078 -0.106489 0.409491
8544.250977 4706.350098 5187.619629 0.906078 -0.106489 0.409491
8576.122070 5230.113770 5253.304688 0.806338 -0.121654 0.578809
8486.197266 5130.400879 5357.621094 0.806338 -0.121654 0.578809
8544.250977 4706.350098 5187.619629 0.806338 -0.121654 0.578809
8058.651367 5038.566406 5123.414551 -0.563030 -0.760432 0.323637
8097.187500 4954.467773 4992.854004 -0.563030 -0.760432 0.323637
8544.250977 4706.350098 5187.619629 -0.563030 -0.760432 0.323637
8321.565430 4887.731445 5316.339355 -0.571680 -0.806992 0.148140
8058.651367 5038.566406 5123.414551 -0.571680 -0.806992 0.148140
8544.250977 4706.350098 5187.619629 -0.571680 -0.806992 0.148140
8576.122070 5230.113770 5253.304688 0.927415 0.305529 -0.215762
8560.310547 5170.597656 5101.064453 0.927415 0.305529 -0.215762
8492.761719 5329.971191 5036.397949 0.927415 0.305529 -0.215762
8162.120117 5406.865234 5176.694824 0.140672 0.652308 0.744786
8486.197266 5130.400879 5357.621094 0.140672 0.652308 0.744786
8576.122070 5230.113770 5253.304688 0.140672 0.652308 0.744786
8162.120117 5406.865234 5176.694824 -0.574798 0.043268 0.817151
8058.651367 5038.566406 5123.414551 -0.574798 0.043268 0.817151
8321.565430 4887.731445 5316.339355 -0.574798 0.043268 0.817151
8544.250977 4706.350098 5187.619629 0.257190 -0.329052 0.908613
8486.197266 5130.400879 5357.621094 0.257190 -0.329052 0.908613
8321.565430 4887.731445 5316.339355 0.257190 -0.329052 0.908613
8321.565430 4887.731445 5316.339355 -0.404045 0.119842 0.906855
8486.197266 5130.400879 5357.621094 -0.404045 0.119842 0.906855
8162.120117 5406.865234 5176.694824 -0.404045 0.119842 0.906855
8552.631836 5174.375000 6086.221680 0.360342 -0.110129 -0.926297
8521.890625 4733.940918 6126.626953 0.360342 -0.110129 -0.926297
8338.761719 5038.299316 6019.201660 0.360342 -0.110129 -0.926297
8521.890625 4733.940918 6126.626953 -0.436445 -0.521408 -0.733246
8080.696777 4958.827148 6229.320312 -0.436445 -0.521408 -0.733246
8338.761719 5038.299316 6019.201660 -0.436445 -0.521408 -0.733246
8552.631836 5174.375000 6086.221680 0.038705 0.391891 -0.919197
8338.761719 5038.299316 6019.201660 0.038705 0.391891 -0.919197
8209.423828 5376.642090 6158.004883 0.038705 0.391891 -0.919197
8338.761719 5038.299316 6019.201660 -0.642384 0.067615 -0.763394
8080.696777 4958.827148 6229.320312 -0.642384 0.067615 -0.763394
8209.423828 5376.642090 6158.004883 -0.642384 0.067615 -0.763394
8552.631836 5174.375000 6086.221680 0.315393 0.744147 -0.588874
8209.423828 5376.642090 6158.004883 0.315393 0.744147 -0.588874
8227.749023 5603.764160 6454.829102 0.315393 0.744147 -0.588874
8560.698242 5207.991699 6248.832031 0.803441 0.573899 -0.158498
8552.631836 5174.375000 6086.221680 0.803441 0.573899 -0.158498
8502.945312 5317.867188 6353.920410 0.803441 0.573899 -0.158498
8521.890625 4733.940918 6126.626953 -0.446158 -0.894015 0.040993
8246.272461 4885.180664 6425.252441 -0.446158 -0.894015 0.040993
8080.696777 4958.827148 6229.320312 -0.446158 -0.894015 0.040993
8552.631836 5174.375000 6086.221680 0.646836 0.715645 -0.263544
8227.749023 5603.764160 6454.829102 0.646836 0.715645 -0.263544
8502.945312 5317.867188 6353.920410 0.646836 0.715645 -0.263544
8552.631836 5174.375000 6086.221680 0.838184 0.524360 -0.149981
8560.698242 5207.991699 6248.832031 0.838184 0.524360 -0.149981
8763.303711 4999.687500 6652.845215 0.838184 0.524360 -0.149981
8552.631836 5174.375000 6086.221680 0.887794 -0.103115 -0.448542
8744.709961 4780.757324 6556.887695 0.887794 -0.103115 -0.448542
8521.890625 4733.940918 6126.626953 0.887794 -0.103115 -0.448542
8209.423828 5376.642090 6158.004883 -0.867622 0.188797 -0.459987
8080.696777 4958.827148 6229.320312 -0.867622 0.188797 -0.459987
7919.178711 5527.924316 6767.553711 -0.867622 0.188797 -0.459987
8521.890625 4733.940918 6126.626953 -0.258534 -0.936777 0.235817
8744.709961 4780.757324 6556.887695 -0.258534 -0.936777 0.235817
8246.272461 4885.180664 6425.252441 -0.258534 -0.936777 0.235817
8502.945312 5317.867188 6353.920410 0.673304 -0.294664 0.678111
8208.306641 5026.751953 6519.970215 0.673304 -0.294664 0.678111
8560.698242 5207.991699 6248.832031 0.673304 -0.294664 0.678111
8552.631836 5174.375000 6086.221680 0.941700 0.064735 -0.330168
8763.303711 4999.687500 6652.845215 0.941700 0.064735 -0.330168
8744.709961 4780.757324 6556.887695 0.941700 0.064735 -0.330168
8246.272461 4885.180664 6425.252441 0.671613 -0.279078 0.686332
8560.698242 5207.991699 6248.832031 0.671613 -0.279078 0.686332
8208.306641 5026.751953 6519.970215 0.671613 -0.279078 0.686332
8541.883789 5276.349121 6627.891113 0.720910 0.693024 0.002562
8502.945312 5317.867188 6353.920410 0.720910 0.693024 0.002562
8227.749023 5603.764160 6454.829102 0.720910 0.693024 0.002562
7919.178711 5527.924316 6767.553711 -0.617581 0.642565 -0.453546
8227.749023 5603.764160 6454.829102 -0.617581 0.642565 -0.453546
8209.423828 5376.642090 6158.004883 -0.617581 0.642565 -0.453546
8246.272461 4885.180664 6425.252441 -0.409184 0.711057 0.571810
8763.303711 4999.687500 6652.845215 -0.409184 0.711057 0.571810
8560.698242 5207.991699 6248.832031 -0.409184 0.711057 0.571810
8246.272461 4885.180664 6425.252441 -0.745912 -0.496824 0.443600
8208.306641 5026.751953 6519.970215 -0.745912 -0.496824 0.443600
8080.696777 4958.827148 6229.320312 -0.745912 -0.496824 0.443600
8495.349609 5049.548340 6769.168457 0.935859 -0.303522 -0.179007
8502.945312 5317.867188 6353.920410 0.935859 -0.303522 -0.179007
8541.883789 5276.349121 6627.891113 0.935859 -0.303522 -0.179007
8502.945312 5317.867188 6353.920410 0.469839 -0.745327 -0.473010
8495.349609 5049.548340 6769.168457 0.469839 -0.745327 -0.473010
8208.306641 5026.751953 6519.970215 0.469839 -0.745327 -0.473010
7919.178711 5527.924316 6767.553711 0.510221 0.572083 0.642180
8337.656250 5161.598145 6761.407715 0.510221 0.572083 0.642180
8227.749023 5603.764160 6454.829102 0.510221 0.572083 0.642180
8208.306641 5026.751953 6519.970215 -0.066014 -0.983906 0.166046
8495.349609 5049.548340 6769.168457 -0.066014 -0.983906 0.166046
8191.806641 5101.522461 6956.464355 -0.066014 -0.983906 0.166046
7919.178711 5527.924316 6767.553711 -0.973910 -0.218528 -0.061201
8080.696777 4958.827148 6229.320312 -0.973910 -0.218528 -0.061201
7955.607422 5318.998047 6933.858398 -0.973910 -0.218528 -0.061201
8541.883789 5276.349121 6627.891113 0.182254 0.590442 0.786233
8227.749023 5603.764160 6454.829102 0.182254 0.590442 0.786233
8337.656250 5161.598145 6761.407715 0.182254 0.590442 0.786233
8208.306641 5026.751953 6519.970215 0.127819 -0.976744 0.172146
8191.806641 5101.522461 6956.464355 0.127819 -0.976744 0.172146
8080.696777 4958.827148 6229.320312 0.127819 -0.976744 0.172146
8246.272461 4885.180664 6425.252441 -0.307983 -0.359859 0.880709
8744.709961 4780.757324 6556.887695 -0.307983 -0.359859 0.880709
8763.303711 4999.687500 6652.845215 -0.307983 -0.359859 0.880709
8337.656250 5161.598145 6761.407715 0.287814 0.463114 0.838265
8495.349609 5049.548340 6769.168457 0.287814 0.463114 0.838265
8541.883789 5276.349121 6627.891113 0.287814 0.463114 0.838265
8495.349609 5049.548340 6769.168457 0.462271 0.689220 0.557927
8337.656250 5161.598145 6761.407715 0.462271 0.689220 0.557927
8191.806641 5101.522461 6956.464355 0.462271 0.689220 0.557927
8080.696777 4958.827148 6229.320312 -0.669855 -0.702556 0.240226
8191.806641 5101.522461 6956.464355 -0.669855 -0.702556 0.240226
7955.607422 5318.998047 6933.858398 -0.669855 -0.702556 0.240226
8337.656250 5161.598145 6761.407715 0.537600 0.604267 0.588088
7919.178711 5527.924316 6767.553711 0.537600 0.604267 0.588088
8191.806641 5101.522461 6956.464355 0.537600 0.604267 0.588088
8191.806641 5101.522461 6956.464355 0.486132 0.594559 0.640450
7919.178711 5527.924316 6767.553711 0.486132 0.594559 0.640450
7955.607422 5318.998047 6933.858398 0.486132 0.594559 0.640450
3 0 1 2
3 3 4 5
3 6 7 8
3 9 10 11
3 12 13 14
3 15 16 17
3 18 19 20
3 21 22 23
3 24 25 26
3 27 28 29
3 30 31 32
3 33 34 35
3 36 37 38
3 39 40 41
3 42 43 44
3 45 46 47
3 48 49 50
3 51 52 53
3 54 55 56
3 57 58 59
3 60 61 62
3 63 64 65
3 66 67 68
3 69 70 71
3 72 73 74
3 75 76 77
3 78 79 80
3 81 82 83
3 84 85 86
3 87 88 89
3 90 91 92
3 93 94 95
3 96 97 98
3 99 100 101
3 102 103 104
3 105 106 107
3 108 109 110
3 111 112 113
3 114 115 116
3 117 118 119
3 120 121 122
3 123 124 125
3 126 127 128
3 129 130 131
3 132 133 134
3 135 136 137
3 138 139 140
3 141 142 143
3 144 145 146
3 147 148 149
3 150 151 152
3 153 154 155
3 156 157 158
3 159 160 161
3 162 163 164
3 165 166 167
3 168 169 170
3 171 172 173
3 174 175 176
3 177 178 179
3 180 181 182
3 183 184 185
3 186 187 188
3 189 190 191
3 192 193 194
3 195 196 197
