ply
format ascii 1.0
comment Created by Blender 2.80 (sub 75) - www.blender.org, source file: 'downsample_ccf.blend'
element vertex 39
property float x
property float y
property float z
property float nx
property float ny
property float nz
element face 13
property list uchar uint vertex_indices
end_header
12812.410156 5324.092285 5234.728516 0.642398 -0.710976 -0.286073
12533.753906 5151.342285 5038.320312 0.642398 -0.710976 -0.286073
12619.654297 5205.826660 5095.806152 0.642398 -0.710976 -0.286073
12533.753906 5151.342285 5038.320312 0.684391 -0.485375 -0.544076
12812.410156 5324.092285 5234.728516 0.684391 -0.485375 -0.544076
12614.099609 5197.970703 5097.789062 0.684391 -0.485375 -0.544076
12501.749023 5141.593262 5009.014648 -0.662567 0.586170 0.466272
12614.099609 5197.970703 5097.789062 -0.662567 0.586170 0.466272
12619.654297 5205.826660 5095.806152 -0.662567 0.586170 0.466272
12674.200195 5243.950195 5141.120117 -0.716576 0.597503 0.359875
12619.654297 5205.826660 5095.806152 -0.716576 0.597503 0.359875
12614.099609 5197.970703 5097.789062 -0.716576 0.597503 0.359875
12812.410156 5324.092285 5234.728516 -0.042898 0.789343 -0.612452
12619.654297 5205.826660 5095.806152 -0.042898 0.789343 -0.612452
12674.200195 5243.950195 5141.120117 -0.042898 0.789343 -0.612452
12614.099609 5197.970703 5097.789062 -0.633037 0.177159 0.753577
12812.410156 5324.092285 5234.728516 -0.633037 0.177159 0.753577
12794.943359 5336.751465 5217.079590 -0.633037 0.177159 0.753577
12614.099609 5197.970703 5097.789062 0.620982 -0.783243 -0.030193
12794.943359 5336.751465 5217.079590 0.620982 -0.783243 -0.030193
12674.200195 5243.950195 5141.120117 0.620982 -0.783243 -0.030193
12819.774414 5337.221680 6135.517578 -0.516869 -0.166471 -0.839723
12563.002930 5179.874023 6324.759766 -0.516869 -0.166471 -0.839723
12798.251953 5338.539551 6148.503906 -0.516869 -0.166471 -0.839723
12629.845703 5214.031250 6274.489746 -0.633501 0.113231 -0.765412
12563.002930 5179.874023 6324.759766 -0.633501 0.113231 -0.765412
12819.774414 5337.221680 6135.517578 -0.633501 0.113231 -0.765412
12574.036133 5175.524902 6321.170898 0.710745 -0.614034 0.343226
12629.845703 5214.031250 6274.489746 0.710745 -0.614034 0.343226
12798.251953 5338.539551 6148.503906 0.710745 -0.614034 0.343226
12574.036133 5175.524902 6321.170898 0.408629 0.336569 0.848377
12798.251953 5338.539551 6148.503906 0.408629 0.336569 0.848377
12563.002930 5179.874023 6324.759766 0.408629 0.336569 0.848377
12536.687500 5159.526367 6360.596191 -0.735090 0.435388 -0.519693
12629.845703 5214.031250 6274.489746 -0.735090 0.435388 -0.519693
12574.036133 5175.524902 6321.170898 -0.735090 0.435388 -0.519693
12536.687500 5159.526367 6360.596191 0.169827 -0.905311 -0.389321
12563.002930 5179.874023 6324.759766 0.169827 -0.905311 -0.389321
12629.845703 5214.031250 6274.489746 0.169827 -0.905311 -0.389321
3 0 1 2
3 3 4 5
3 6 7 8
3 9 10 11
3 12 13 14
3 15 16 17
3 18 19 20
3 21 22 23
3 24 25 26
3 27 28 29
3 30 31 32
3 33 34 35
3 36 37 38
