ply
format ascii 1.0
comment Created by Blender 2.80 (sub 75) - www.blender.org, source file: 'downsample_ccf.blend'
element vertex 330
property float x
property float y
property float z
property float nx
property float ny
property float nz
element face 110
property list uchar uint vertex_indices
end_header
2563.222656 2091.390137 5380.098145 0.046493 0.666136 -0.744380
2715.700684 2239.886475 5522.509277 0.046493 0.666136 -0.744380
3116.525391 2231.271484 5539.834961 0.046493 0.666136 -0.744380
2619.808105 2124.105225 5500.060059 -0.773247 0.601506 0.200699
2715.700684 2239.886475 5522.509277 -0.773247 0.601506 0.200699
2563.222656 2091.390137 5380.098145 -0.773247 0.601506 0.200699
2789.658936 1970.824951 5465.994141 -0.292688 -0.854890 -0.428364
2563.222656 2091.390137 5380.098145 -0.292688 -0.854890 -0.428364
3339.610596 1783.503540 5464.067871 -0.292688 -0.854890 -0.428364
2789.658936 1970.824951 5465.994141 -0.546695 -0.705891 0.450379
2619.808105 2124.105225 5500.060059 -0.546695 -0.705891 0.450379
2563.222656 2091.390137 5380.098145 -0.546695 -0.705891 0.450379
3339.610596 1783.503540 5464.067871 0.205918 0.262125 -0.942809
2563.222656 2091.390137 5380.098145 0.205918 0.262125 -0.942809
3116.525391 2231.271484 5539.834961 0.205918 0.262125 -0.942809
3463.757812 1724.338745 5542.460449 -0.237332 -0.918203 -0.317137
3339.610596 1783.503540 5464.067871 -0.237332 -0.918203 -0.317137
3952.093506 1604.367065 5524.362793 -0.237332 -0.918203 -0.317137
3339.610596 1783.503540 5464.067871 -0.316625 -0.927527 -0.198601
3463.757812 1724.338745 5542.460449 -0.316625 -0.927527 -0.198601
2789.658936 1970.824951 5465.994141 -0.316625 -0.927527 -0.198601
3116.525391 2231.271484 5539.834961 0.165465 0.244122 -0.955524
3952.093506 1604.367065 5524.362793 0.165465 0.244122 -0.955524
3339.610596 1783.503540 5464.067871 0.165465 0.244122 -0.955524
4564.291992 1476.429077 5561.921875 0.090822 0.145367 -0.985200
3952.093506 1604.367065 5524.362793 0.090822 0.145367 -0.985200
3116.525391 2231.271484 5539.834961 0.090822 0.145367 -0.985200
2715.700684 2239.886475 5522.509277 0.047970 0.533019 -0.844742
3150.720459 2289.682617 5578.633301 0.047970 0.533019 -0.844742
3116.525391 2231.271484 5539.834961 0.047970 0.533019 -0.844742
5944.618652 1389.965820 5579.272949 0.009958 -0.007376 -0.999923
6004.222168 941.687012 5583.173340 0.009958 -0.007376 -0.999923
4540.233887 2087.168213 5560.143555 0.009958 -0.007376 -0.999923
6004.222168 941.687012 5583.173340 0.013879 -0.002365 -0.999901
4564.291992 1476.429077 5561.921875 0.013879 -0.002365 -0.999901
4540.233887 2087.168213 5560.143555 0.013879 -0.002365 -0.999901
3463.757812 1724.338745 5542.460449 -0.231776 -0.881310 -0.411792
3952.093506 1604.367065 5524.362793 -0.231776 -0.881310 -0.411792
4211.826660 1494.734985 5612.805176 -0.231776 -0.881310 -0.411792
5142.010254 1817.024536 5601.828125 0.360364 0.709262 -0.605876
5944.618652 1389.965820 5579.272949 0.360364 0.709262 -0.605876
4540.233887 2087.168213 5560.143555 0.360364 0.709262 -0.605876
4564.291992 1476.429077 5561.921875 0.014024 -0.002359 -0.999899
3116.525391 2231.271484 5539.834961 0.014024 -0.002359 -0.999899
4540.233887 2087.168213 5560.143555 0.014024 -0.002359 -0.999899
3865.855469 2402.300781 5582.102539 0.026982 0.126834 -0.991557
4540.233887 2087.168213 5560.143555 0.026982 0.126834 -0.991557
3116.525391 2231.271484 5539.834961 0.026982 0.126834 -0.991557
3116.525391 2231.271484 5539.834961 -0.088462 0.586541 -0.805074
3150.720459 2289.682617 5578.633301 -0.088462 0.586541 -0.805074
3865.855469 2402.300781 5582.102539 -0.088462 0.586541 -0.805074
5968.363770 918.545654 5637.509277 -0.238711 -0.826638 -0.509595
5553.354004 1047.347656 5622.978027 -0.238711 -0.826638 -0.509595
6004.222168 941.687012 5583.173340 -0.238711 -0.826638 -0.509595
5553.354004 1047.347656 5622.978027 -0.206841 -0.588047 -0.781931
4564.291992 1476.429077 5561.921875 -0.206841 -0.588047 -0.781931
6004.222168 941.687012 5583.173340 -0.206841 -0.588047 -0.781931
4676.201172 1383.518311 5616.709473 -0.266298 -0.707052 -0.655105
4564.291992 1476.429077 5561.921875 -0.266298 -0.707052 -0.655105
5553.354004 1047.347656 5622.978027 -0.266298 -0.707052 -0.655105
4676.201172 1383.518311 5616.709473 -0.201592 -0.858293 -0.471905
4211.826660 1494.734985 5612.805176 -0.201592 -0.858293 -0.471905
3952.093506 1604.367065 5524.362793 -0.201592 -0.858293 -0.471905
4564.291992 1476.429077 5561.921875 -0.067931 -0.566216 -0.821453
4676.201172 1383.518311 5616.709473 -0.067931 -0.566216 -0.821453
3952.093506 1604.367065 5524.362793 -0.067931 -0.566216 -0.821453
3865.855469 2402.300781 5582.102539 0.403457 0.880687 -0.248219
3970.556396 2372.165771 5645.364258 0.403457 0.880687 -0.248219
4540.233887 2087.168213 5560.143555 0.403457 0.880687 -0.248219
6004.222168 941.687012 5583.173340 0.767499 0.096533 -0.633740
5944.618652 1389.965820 5579.272949 0.767499 0.096533 -0.633740
5999.098145 1382.089600 5644.051270 0.767499 0.096533 -0.633740
5999.098145 1382.089600 5644.051270 0.446129 0.852789 -0.271513
5944.618652 1389.965820 5579.272949 0.446129 0.852789 -0.271513
5142.010254 1817.024536 5601.828125 0.446129 0.852789 -0.271513
2789.658936 1970.824951 5465.994141 -0.271894 -0.485896 0.830650
3463.757812 1724.338745 5542.460449 -0.271894 -0.485896 0.830650
2619.808105 2124.105225 5500.060059 -0.271894 -0.485896 0.830650
3150.720459 2289.682617 5578.633301 -0.131601 0.979775 0.150736
2715.700684 2239.886475 5522.509277 -0.131601 0.979775 0.150736
2945.488281 2252.600342 5640.487305 -0.131601 0.979775 0.150736
3865.855469 2402.300781 5582.102539 -0.155480 0.985015 0.074643
3150.720459 2289.682617 5578.633301 -0.155480 0.985015 0.074643
2945.488281 2252.600342 5640.487305 -0.155480 0.985015 0.074643
4776.812012 1348.945557 5662.518555 -0.357169 -0.930410 0.082261
4676.201172 1383.518311 5616.709473 -0.357169 -0.930410 0.082261
5553.354004 1047.347656 5622.978027 -0.357169 -0.930410 0.082261
4540.233887 2087.168213 5560.143555 0.412532 0.886844 -0.208147
3970.556396 2372.165771 5645.364258 0.412532 0.886844 -0.208147
5142.010254 1817.024536 5601.828125 0.412532 0.886844 -0.208147
2945.488281 2252.600342 5640.487305 -0.455741 0.209727 0.865052
2715.700684 2239.886475 5522.509277 -0.455741 0.209727 0.865052
2619.808105 2124.105225 5500.060059 -0.455741 0.209727 0.865052
3865.855469 2402.300781 5582.102539 -0.165224 0.982566 -0.085236
2945.488281 2252.600342 5640.487305 -0.165224 0.982566 -0.085236
3787.178955 2396.390137 5666.476074 -0.165224 0.982566 -0.085236
3865.855469 2402.300781 5582.102539 0.151693 0.966052 0.209125
3787.178955 2396.390137 5666.476074 0.151693 0.966052 0.209125
3970.556396 2372.165771 5645.364258 0.151693 0.966052 0.209125
5968.363770 918.545654 5637.509277 -0.298093 -0.950064 0.092304
5796.210938 975.265015 5665.346680 -0.298093 -0.950064 0.092304
5553.354004 1047.347656 5622.978027 -0.298093 -0.950064 0.092304
4676.201172 1383.518311 5616.709473 -0.225389 -0.948852 -0.221088
4776.812012 1348.945557 5662.518555 -0.225389 -0.948852 -0.221088
4211.826660 1494.734985 5612.805176 -0.225389 -0.948852 -0.221088
5142.010254 1817.024536 5601.828125 0.419897 0.864364 0.276696
3970.556396 2372.165771 5645.364258 0.419897 0.864364 0.276696
4614.861816 2053.907959 5661.802734 0.419897 0.864364 0.276696
5999.098145 1382.089600 5644.051270 0.845172 -0.063527 0.530706
5968.363770 918.545654 5637.509277 0.845172 -0.063527 0.530706
6004.222168 941.687012 5583.173340 0.845172 -0.063527 0.530706
4776.812012 1348.945557 5662.518555 -0.322455 -0.876959 0.356322
5553.354004 1047.347656 5622.978027 -0.322455 -0.876959 0.356322
5796.210938 975.265015 5665.346680 -0.322455 -0.876959 0.356322
5566.951172 1590.802612 5669.940430 0.435924 0.878161 0.196986
5999.098145 1382.089600 5644.051270 0.435924 0.878161 0.196986
5142.010254 1817.024536 5601.828125 0.435924 0.878161 0.196986
5142.010254 1817.024536 5601.828125 0.420192 0.868486 0.263004
4614.861816 2053.907959 5661.802734 0.420192 0.868486 0.263004
5566.951172 1590.802612 5669.940430 0.420192 0.868486 0.263004
2619.808105 2124.105225 5500.060059 -0.286350 -0.519100 0.805319
3463.757812 1724.338745 5542.460449 -0.286350 -0.519100 0.805319
3506.008789 1911.458618 5678.099121 -0.286350 -0.519100 0.805319
4211.826660 1494.734985 5612.805176 -0.240043 -0.533629 0.810938
3506.008789 1911.458618 5678.099121 -0.240043 -0.533629 0.810938
3463.757812 1724.338745 5542.460449 -0.240043 -0.533629 0.810938
4776.812012 1348.945557 5662.518555 -0.196559 -0.467922 0.861634
3506.008789 1911.458618 5678.099121 -0.196559 -0.467922 0.861634
4211.826660 1494.734985 5612.805176 -0.196559 -0.467922 0.861634
2945.488281 2252.600342 5640.487305 -0.261305 -0.329306 0.907346
2619.808105 2124.105225 5500.060059 -0.261305 -0.329306 0.907346
3506.008789 1911.458618 5678.099121 -0.261305 -0.329306 0.907346
5968.363770 918.545654 5637.509277 0.151867 -0.024014 0.988109
5999.098145 1382.089600 5644.051270 0.151867 -0.024014 0.988109
5796.210938 975.265015 5665.346680 0.151867 -0.024014 0.988109
5999.098145 1382.089600 5644.051270 0.068481 0.018062 0.997489
5566.951172 1590.802612 5669.940430 0.068481 0.018062 0.997489
5796.210938 975.265015 5665.346680 0.068481 0.018062 0.997489
5796.210938 975.265015 5665.346680 -0.006381 -0.009839 0.999931
5566.951172 1590.802612 5669.940430 -0.006381 -0.009839 0.999931
4776.812012 1348.945557 5662.518555 -0.006381 -0.009839 0.999931
4776.812012 1348.945557 5662.518555 0.018194 0.013413 0.999744
3787.178955 2396.390137 5666.476074 0.018194 0.013413 0.999744
3506.008789 1911.458618 5678.099121 0.018194 0.013413 0.999744
5566.951172 1590.802612 5669.940430 -0.006389 -0.009814 0.999931
3787.178955 2396.390137 5666.476074 -0.006389 -0.009814 0.999931
4776.812012 1348.945557 5662.518555 -0.006389 -0.009814 0.999931
5566.951172 1590.802612 5669.940430 0.084603 0.191118 0.977914
4614.861816 2053.907959 5661.802734 0.084603 0.191118 0.977914
3787.178955 2396.390137 5666.476074 0.084603 0.191118 0.977914
3787.178955 2396.390137 5666.476074 -0.038745 0.046390 0.998172
2945.488281 2252.600342 5640.487305 -0.038745 0.046390 0.998172
3506.008789 1911.458618 5678.099121 -0.038745 0.046390 0.998172
4614.861816 2053.907959 5661.802734 0.153329 0.357984 0.921052
3970.556396 2372.165771 5645.364258 0.153329 0.357984 0.921052
3787.178955 2396.390137 5666.476074 0.153329 0.357984 0.921052
5960.060059 978.511047 5699.793457 -0.131816 -0.385260 -0.913345
5340.029297 1131.900024 5724.576660 -0.131816 -0.385260 -0.913345
4394.361328 1506.113281 5703.210449 -0.131816 -0.385260 -0.913345
5961.444336 1414.892334 5724.939453 0.072304 0.057149 -0.995744
5960.060059 978.511047 5699.793457 0.072304 0.057149 -0.995744
5257.366699 1689.315674 5689.564453 0.072304 0.057149 -0.995744
5960.060059 978.511047 5699.793457 -0.010541 -0.024806 -0.999637
4394.361328 1506.113281 5703.210449 -0.010541 -0.024806 -0.999637
5257.366699 1689.315674 5689.564453 -0.010541 -0.024806 -0.999637
4394.361328 1506.113281 5703.210449 -0.012542 -0.015390 -0.999803
3012.969727 2220.897217 5709.536133 -0.012542 -0.015390 -0.999803
5257.366699 1689.315674 5689.564453 -0.012542 -0.015390 -0.999803
3865.377441 2420.399902 5745.177734 0.073165 0.213416 -0.974218
4871.319336 1935.436523 5714.487793 0.073165 0.213416 -0.974218
5257.366699 1689.315674 5689.564453 0.073165 0.213416 -0.974218
5257.366699 1689.315674 5689.564453 -0.010822 -0.008125 -0.999909
3012.969727 2220.897217 5709.536133 -0.010822 -0.008125 -0.999909
3607.268555 2354.237305 5702.020508 -0.010822 -0.008125 -0.999909
3865.377441 2420.399902 5745.177734 0.095509 0.255043 -0.962201
5257.366699 1689.315674 5689.564453 0.095509 0.255043 -0.962201
3607.268555 2354.237305 5702.020508 0.095509 0.255043 -0.962201
5985.444824 908.232117 5751.320801 -0.184640 -0.623623 -0.759607
5340.029297 1131.900024 5724.576660 -0.184640 -0.623623 -0.759607
5960.060059 978.511047 5699.793457 -0.184640 -0.623623 -0.759607
5985.444824 908.232117 5751.320801 0.908024 0.021228 -0.418381
5960.060059 978.511047 5699.793457 0.908024 0.021228 -0.418381
5961.444336 1414.892334 5724.939453 0.908024 0.021228 -0.418381
5340.029297 1131.900024 5724.576660 -0.290308 -0.766354 -0.573081
4510.454590 1430.908203 5744.968750 -0.290308 -0.766354 -0.573081
4394.361328 1506.113281 5703.210449 -0.290308 -0.766354 -0.573081
5257.366699 1689.315674 5689.564453 0.204996 0.411471 -0.888070
4871.319336 1935.436523 5714.487793 0.204996 0.411471 -0.888070
5961.444336 1414.892334 5724.939453 0.204996 0.411471 -0.888070
5985.444824 908.232117 5751.320801 -0.274431 -0.846456 -0.456289
6005.939453 885.469482 5781.221191 -0.274431 -0.846456 -0.456289
5340.029297 1131.900024 5724.576660 -0.274431 -0.846456 -0.456289
3652.092285 1662.478760 5821.801758 -0.252718 -0.723667 -0.642215
4510.454590 1430.908203 5744.968750 -0.252718 -0.723667 -0.642215
4140.188477 1516.761230 5793.930176 -0.252718 -0.723667 -0.642215
4510.454590 1430.908203 5744.968750 -0.255302 -0.739776 -0.622537
3652.092285 1662.478760 5821.801758 -0.255302 -0.739776 -0.622537
4394.361328 1506.113281 5703.210449 -0.255302 -0.739776 -0.622537
4394.361328 1506.113281 5703.210449 -0.231216 -0.439166 -0.868143
3652.092285 1662.478760 5821.801758 -0.231216 -0.439166 -0.868143
3012.969727 2220.897217 5709.536133 -0.231216 -0.439166 -0.868143
3607.268555 2354.237305 5702.020508 -0.190755 0.819761 -0.540004
3012.969727 2220.897217 5709.536133 -0.190755 0.819761 -0.540004
2800.369385 2264.310303 5850.540527 -0.190755 0.819761 -0.540004
5985.444824 908.232117 5751.320801 0.828356 0.010075 -0.560111
5961.444336 1414.892334 5724.939453 0.828356 0.010075 -0.560111
6005.939453 885.469482 5781.221191 0.828356 0.010075 -0.560111
5338.500977 1708.930298 5780.878418 0.429978 0.901462 0.049839
5961.444336 1414.892334 5724.939453 0.429978 0.901462 0.049839
4871.319336 1935.436523 5714.487793 0.429978 0.901462 0.049839
4871.319336 1935.436523 5714.487793 0.449813 0.874290 -0.182440
4654.763184 2059.884521 5776.940430 0.449813 0.874290 -0.182440
5338.500977 1708.930298 5780.878418 0.449813 0.874290 -0.182440
2684.307129 2167.493896 5831.851074 -0.245334 -0.453092 -0.857041
3012.969727 2220.897217 5709.536133 -0.245334 -0.453092 -0.857041
3652.092285 1662.478760 5821.801758 -0.245334 -0.453092 -0.857041
4871.319336 1935.436523 5714.487793 0.405374 0.860397 -0.308850
3865.377441 2420.399902 5745.177734 0.405374 0.860397 -0.308850
4654.763184 2059.884521 5776.940430 0.405374 0.860397 -0.308850
3012.969727 2220.897217 5709.536133 -0.365372 0.578745 -0.729079
2684.307129 2167.493896 5831.851074 -0.365372 0.578745 -0.729079
2800.369385 2264.310303 5850.540527 -0.365372 0.578745 -0.729079
6005.939453 885.469482 5781.221191 0.990580 0.093854 0.099717
5961.444336 1414.892334 5724.939453 0.990580 0.093854 0.099717
5959.673340 1352.983765 5800.800293 0.990580 0.093854 0.099717
5340.029297 1131.900024 5724.576660 -0.312378 -0.889425 0.333680
5247.161621 1192.588623 5799.403320 -0.312378 -0.889425 0.333680
4510.454590 1430.908203 5744.968750 -0.312378 -0.889425 0.333680
6005.939453 885.469482 5781.221191 -0.353940 -0.891243 0.283571
5247.161621 1192.588623 5799.403320 -0.353940 -0.891243 0.283571
5340.029297 1131.900024 5724.576660 -0.353940 -0.891243 0.283571
3607.268555 2354.237305 5702.020508 -0.016092 0.891643 0.452453
2800.369385 2264.310303 5850.540527 -0.016092 0.891643 0.452453
3247.064453 2279.923096 5835.659668 -0.016092 0.891643 0.452453
3865.377441 2420.399902 5745.177734 -0.233154 0.968266 -0.089996
3607.268555 2354.237305 5702.020508 -0.233154 0.968266 -0.089996
3247.064453 2279.923096 5835.659668 -0.233154 0.968266 -0.089996
3865.377441 2420.399902 5745.177734 -0.193750 0.965360 0.174759
3247.064453 2279.923096 5835.659668 -0.193750 0.965360 0.174759
3800.439941 2393.438721 5822.115723 -0.193750 0.965360 0.174759
5247.161621 1192.588623 5799.403320 -0.289287 -0.761893 0.579510
4636.972656 1440.157837 5820.286133 -0.289287 -0.761893 0.579510
4510.454590 1430.908203 5744.968750 -0.289287 -0.761893 0.579510
4636.972656 1440.157837 5820.286133 -0.160607 -0.910277 0.381578
4140.188477 1516.761230 5793.930176 -0.160607 -0.910277 0.381578
4510.454590 1430.908203 5744.968750 -0.160607 -0.910277 0.381578
5961.444336 1414.892334 5724.939453 0.387794 0.709671 0.588202
5338.500977 1708.930298 5780.878418 0.387794 0.709671 0.588202
5959.673340 1352.983765 5800.800293 0.387794 0.709671 0.588202
4140.188477 1516.761230 5793.930176 -0.217999 -0.828783 0.515359
3663.486572 1693.863647 5877.093750 -0.217999 -0.828783 0.515359
3652.092285 1662.478760 5821.801758 -0.217999 -0.828783 0.515359
5338.500977 1708.930298 5780.878418 0.332477 0.655350 0.678215
4654.763184 2059.884521 5776.940430 0.332477 0.655350 0.678215
4866.061523 1912.138916 5816.121582 0.332477 0.655350 0.678215
5247.161621 1192.588623 5799.403320 0.002921 -0.021682 0.999761
5959.673340 1352.983765 5800.800293 0.002921 -0.021682 0.999761
4866.061523 1912.138916 5816.121582 0.002921 -0.021682 0.999761
5959.673340 1352.983765 5800.800293 0.302248 0.570214 0.763873
5338.500977 1708.930298 5780.878418 0.302248 0.570214 0.763873
4866.061523 1912.138916 5816.121582 0.302248 0.570214 0.763873
3800.439941 2393.438721 5822.115723 0.269985 0.588267 0.762266
4866.061523 1912.138916 5816.121582 0.269985 0.588267 0.762266
4654.763184 2059.884521 5776.940430 0.269985 0.588267 0.762266
4654.763184 2059.884521 5776.940430 0.329302 0.769278 0.547514
3865.377441 2420.399902 5745.177734 0.329302 0.769278 0.547514
3800.439941 2393.438721 5822.115723 0.329302 0.769278 0.547514
5959.673340 1352.983765 5800.800293 0.007298 -0.041120 0.999128
5247.161621 1192.588623 5799.403320 0.007298 -0.041120 0.999128
6005.939453 885.469482 5781.221191 0.007298 -0.041120 0.999128
4636.972656 1440.157837 5820.286133 -0.146549 -0.715311 0.683267
3663.486572 1693.863647 5877.093750 -0.146549 -0.715311 0.683267
4140.188477 1516.761230 5793.930176 -0.146549 -0.715311 0.683267
5247.161621 1192.588623 5799.403320 0.031567 -0.006503 0.999481
4866.061523 1912.138916 5816.121582 0.031567 -0.006503 0.999481
4636.972656 1440.157837 5820.286133 0.031567 -0.006503 0.999481
4636.972656 1440.157837 5820.286133 0.068948 0.058593 0.995898
3800.439941 2393.438721 5822.115723 0.068948 0.058593 0.995898
3856.504639 1683.222168 5860.019043 0.068948 0.058593 0.995898
4866.061523 1912.138916 5816.121582 0.007882 0.004997 0.999956
3800.439941 2393.438721 5822.115723 0.007882 0.004997 0.999956
4636.972656 1440.157837 5820.286133 0.007882 0.004997 0.999956
3856.504639 1683.222168 5860.019043 -0.358619 0.021496 0.933236
3800.439941 2393.438721 5822.115723 -0.358619 0.021496 0.933236
3771.025635 1996.671875 5819.951660 -0.358619 0.021496 0.933236
3652.092285 1662.478760 5821.801758 -0.348328 -0.680664 -0.644488
2960.299805 1907.242310 5937.193848 -0.348328 -0.680664 -0.644488
2579.791504 2064.060791 5977.227051 -0.348328 -0.680664 -0.644488
3652.092285 1662.478760 5821.801758 -0.338379 -0.634627 -0.694801
2579.791504 2064.060791 5977.227051 -0.338379 -0.634627 -0.694801
2684.307129 2167.493896 5831.851074 -0.338379 -0.634627 -0.694801
3771.025635 1996.671875 5819.951660 0.114015 0.156500 0.981075
3247.064453 2279.923096 5835.659668 0.114015 0.156500 0.981075
3856.504639 1683.222168 5860.019043 0.114015 0.156500 0.981075
3800.439941 2393.438721 5822.115723 0.025980 -0.007378 0.999635
3247.064453 2279.923096 5835.659668 0.025980 -0.007378 0.999635
3771.025635 1996.671875 5819.951660 0.025980 -0.007378 0.999635
3856.504639 1683.222168 5860.019043 0.095087 0.144312 0.984953
3663.486572 1693.863647 5877.093750 0.095087 0.144312 0.984953
4636.972656 1440.157837 5820.286133 0.095087 0.144312 0.984953
2579.791504 2064.060791 5977.227051 -0.724358 -0.196754 -0.660752
2567.018555 2131.703613 5971.087402 -0.724358 -0.196754 -0.660752
2684.307129 2167.493896 5831.851074 -0.724358 -0.196754 -0.660752
2684.307129 2167.493896 5831.851074 -0.583077 0.756273 -0.296769
2567.018555 2131.703613 5971.087402 -0.583077 0.756273 -0.296769
2800.369385 2264.310303 5850.540527 -0.583077 0.756273 -0.296769
3856.504639 1683.222168 5860.019043 0.182473 0.225437 0.957017
3247.064453 2279.923096 5835.659668 0.182473 0.225437 0.957017
2644.666016 2117.377686 5988.807617 0.182473 0.225437 0.957017
3247.064453 2279.923096 5835.659668 0.000320 0.685126 0.728425
2800.369385 2264.310303 5850.540527 0.000320 0.685126 0.728425
2644.666016 2117.377686 5988.807617 0.000320 0.685126 0.728425
2960.299805 1907.242310 5937.193848 -0.208316 -0.831538 0.514927
3652.092285 1662.478760 5821.801758 -0.208316 -0.831538 0.514927
3663.486572 1693.863647 5877.093750 -0.208316 -0.831538 0.514927
3663.486572 1693.863647 5877.093750 0.019640 -0.210566 0.977382
2644.666016 2117.377686 5988.807617 0.019640 -0.210566 0.977382
2960.299805 1907.242310 5937.193848 0.019640 -0.210566 0.977382
3663.486572 1693.863647 5877.093750 0.084769 -0.058453 0.994685
3856.504639 1683.222168 5860.019043 0.084769 -0.058453 0.994685
2644.666016 2117.377686 5988.807617 0.084769 -0.058453 0.994685
2644.666016 2117.377686 5988.807617 -0.032445 0.702965 0.710484
2800.369385 2264.310303 5850.540527 -0.032445 0.702965 0.710484
2567.018555 2131.703613 5971.087402 -0.032445 0.702965 0.710484
2644.666016 2117.377686 5988.807617 0.010186 -0.224063 0.974521
2579.791504 2064.060791 5977.227051 0.010186 -0.224063 0.974521
2960.299805 1907.242310 5937.193848 0.010186 -0.224063 0.974521
2644.666016 2117.377686 5988.807617 -0.213775 0.048192 0.975693
2567.018555 2131.703613 5971.087402 -0.213775 0.048192 0.975693
2579.791504 2064.060791 5977.227051 -0.213775 0.048192 0.975693
3 0 1 2
3 3 4 5
3 6 7 8
3 9 10 11
3 12 13 14
3 15 16 17
3 18 19 20
3 21 22 23
3 24 25 26
3 27 28 29
3 30 31 32
3 33 34 35
3 36 37 38
3 39 40 41
3 42 43 44
3 45 46 47
3 48 49 50
3 51 52 53
3 54 55 56
3 57 58 59
3 60 61 62
3 63 64 65
3 66 67 68
3 69 70 71
3 72 73 74
3 75 76 77
3 78 79 80
3 81 82 83
3 84 85 86
3 87 88 89
3 90 91 92
3 93 94 95
3 96 97 98
3 99 100 101
3 102 103 104
3 105 106 107
3 108 109 110
3 111 112 113
3 114 115 116
3 117 118 119
3 120 121 122
3 123 124 125
3 126 127 128
3 129 130 131
3 132 133 134
3 135 136 137
3 138 139 140
3 141 142 143
3 144 145 146
3 147 148 149
3 150 151 152
3 153 154 155
3 156 157 158
3 159 160 161
3 162 163 164
3 165 166 167
3 168 169 170
3 171 172 173
3 174 175 176
3 177 178 179
3 180 181 182
3 183 184 185
3 186 187 188
3 189 190 191
3 192 193 194
3 195 196 197
3 198 199 200
3 201 202 203
3 204 205 206
3 207 208 209
3 210 211 212
3 213 214 215
3 216 217 218
3 219 220 221
3 222 223 224
3 225 226 227
3 228 229 230
3 231 232 233
3 234 235 236
3 237 238 239
3 240 241 242
3 243 244 245
3 246 247 248
3 249 250 251
3 252 253 254
3 255 256 257
3 258 259 260
3 261 262 263
3 264 265 266
3 267 268 269
3 270 271 272
3 273 274 275
3 276 277 278
3 279 280 281
3 282 283 284
3 285 286 287
3 288 289 290
3 291 292 293
3 294 295 296
3 297 298 299
3 300 301 302
3 303 304 305
3 306 307 308
3 309 310 311
3 312 313 314
3 315 316 317
3 318 319 320
3 321 322 323
3 324 325 326
3 327 328 329
