ply
format ascii 1.0
comment Created by Blender 2.80 (sub 75) - www.blender.org, source file: 'downsample_ccf.blend'
element vertex 246
property float x
property float y
property float z
property float nx
property float ny
property float nz
element face 82
property list uchar uint vertex_indices
end_header
5122.705078 2248.271484 4938.654297 0.269693 0.306702 -0.912798
4184.796387 2769.606201 4836.711426 0.269693 0.306702 -0.912798
4602.916992 2580.471436 4896.698730 0.269693 0.306702 -0.912798
4045.145020 2914.779541 4889.862793 -0.616329 -0.331329 -0.714394
4184.796387 2769.606201 4836.711426 -0.616329 -0.331329 -0.714394
4051.786621 2654.858887 5004.681641 -0.616329 -0.331329 -0.714394
4602.916992 2580.471436 4896.698730 0.352998 0.537474 -0.765842
4184.796387 2769.606201 4836.711426 0.352998 0.537474 -0.765842
4220.930176 3215.015137 5165.958008 0.352998 0.537474 -0.765842
4602.916992 2580.471436 4896.698730 0.149338 0.109556 -0.982698
5727.031738 1972.001953 4999.692383 0.149338 0.109556 -0.982698
5122.705078 2248.271484 4938.654297 0.149338 0.109556 -0.982698
5122.705078 2248.271484 4938.654297 -0.294551 -0.664256 -0.687025
4051.786621 2654.858887 5004.681641 -0.294551 -0.664256 -0.687025
4184.796387 2769.606201 4836.711426 -0.294551 -0.664256 -0.687025
4220.930176 3215.015137 5165.958008 0.386852 0.547686 -0.741880
5299.193848 2475.552246 5182.315918 0.386852 0.547686 -0.741880
4602.916992 2580.471436 4896.698730 0.386852 0.547686 -0.741880
5122.705078 2248.271484 4938.654297 -0.321053 -0.705044 -0.632328
5446.520996 1943.086304 5114.523438 -0.321053 -0.705044 -0.632328
4713.986328 2314.057373 5072.822754 -0.321053 -0.705044 -0.632328
4713.986328 2314.057373 5072.822754 -0.315634 -0.733625 -0.601806
4051.786621 2654.858887 5004.681641 -0.315634 -0.733625 -0.601806
5122.705078 2248.271484 4938.654297 -0.315634 -0.733625 -0.601806
5299.193848 2475.552246 5182.315918 -0.083704 -0.100123 0.991448
4220.930176 3215.015137 5165.958008 -0.083704 -0.100123 0.991448
4773.201172 2768.510010 5167.493164 -0.083704 -0.100123 0.991448
5727.031738 1972.001953 4999.692383 -0.227106 -0.655843 -0.719926
5446.520996 1943.086304 5114.523438 -0.227106 -0.655843 -0.719926
5122.705078 2248.271484 4938.654297 -0.227106 -0.655843 -0.719926
4051.786621 2654.858887 5004.681641 -0.995748 -0.057303 -0.072122
4015.773926 3167.946289 5094.222656 -0.995748 -0.057303 -0.072122
4045.145020 2914.779541 4889.862793 -0.995748 -0.057303 -0.072122
5446.520996 1943.086304 5114.523438 -0.241777 -0.619708 -0.746664
5727.031738 1972.001953 4999.692383 -0.241777 -0.619708 -0.746664
6132.476074 1726.831421 5071.889648 -0.241777 -0.619708 -0.746664
4045.145020 2914.779541 4889.862793 -0.994481 -0.035753 -0.098638
4015.773926 3167.946289 5094.222656 -0.994481 -0.035753 -0.098638
4007.370361 3354.560059 5111.307617 -0.994481 -0.035753 -0.098638
4184.796387 2769.606201 4836.711426 0.137997 0.454865 -0.879804
4045.145020 2914.779541 4889.862793 0.137997 0.454865 -0.879804
4007.370361 3354.560059 5111.307617 0.137997 0.454865 -0.879804
6132.476074 1726.831421 5071.889648 0.429364 0.485862 -0.761304
5727.031738 1972.001953 4999.692383 0.429364 0.485862 -0.761304
5872.297363 2183.190674 5216.399902 0.429364 0.485862 -0.761304
5446.520996 1943.086304 5114.523438 -0.241623 -0.376589 0.894315
5125.209473 2131.441162 5107.027344 -0.241623 -0.376589 0.894315
4713.986328 2314.057373 5072.822754 -0.241623 -0.376589 0.894315
3930.672607 3592.913330 5192.463379 0.546714 0.468593 -0.693919
4220.930176 3215.015137 5165.958008 0.546714 0.468593 -0.693919
4184.796387 2769.606201 4836.711426 0.546714 0.468593 -0.693919
4184.796387 2769.606201 4836.711426 -0.929355 -0.344363 0.133086
4007.370361 3354.560059 5111.307617 -0.929355 -0.344363 0.133086
3930.672607 3592.913330 5192.463379 -0.929355 -0.344363 0.133086
6080.394531 1690.015869 5149.903320 -0.281066 -0.781805 -0.556581
5446.520996 1943.086304 5114.523438 -0.281066 -0.781805 -0.556581
6132.476074 1726.831421 5071.889648 -0.281066 -0.781805 -0.556581
6132.476074 1726.831421 5071.889648 0.516375 0.511810 -0.686591
5872.297363 2183.190674 5216.399902 0.516375 0.511810 -0.686591
5996.898926 2063.859619 5221.157227 0.516375 0.511810 -0.686591
4602.916992 2580.471436 4896.698730 0.360057 0.535928 -0.763636
5872.297363 2183.190674 5216.399902 0.360057 0.535928 -0.763636
5727.031738 1972.001953 4999.692383 0.360057 0.535928 -0.763636
4602.916992 2580.471436 4896.698730 0.370456 0.648685 -0.664808
5299.193848 2475.552246 5182.315918 0.370456 0.648685 -0.664808
5872.297363 2183.190674 5216.399902 0.370456 0.648685 -0.664808
4713.986328 2314.057373 5072.822754 -0.192789 -0.181807 0.964250
4015.773926 3167.946289 5094.222656 -0.192789 -0.181807 0.964250
4051.786621 2654.858887 5004.681641 -0.192789 -0.181807 0.964250
5446.520996 1943.086304 5114.523438 -0.502122 -0.850282 0.157778
5197.080078 2091.870117 5122.500000 -0.502122 -0.850282 0.157778
5125.209473 2131.441162 5107.027344 -0.502122 -0.850282 0.157778
4015.773926 3167.946289 5094.222656 -0.186802 -0.176963 0.966328
4713.986328 2314.057373 5072.822754 -0.186802 -0.176963 0.966328
4773.201172 2768.510010 5167.493164 -0.186802 -0.176963 0.966328
6132.476074 1726.831421 5071.889648 0.813588 0.071735 0.577000
5996.898926 2063.859619 5221.157227 0.813588 0.071735 0.577000
6080.394531 1690.015869 5149.903320 0.813588 0.071735 0.577000
5197.080078 2091.870117 5122.500000 -0.317934 -0.489495 -0.811981
5446.520996 1943.086304 5114.523438 -0.317934 -0.489495 -0.811981
5232.515137 2061.780273 5126.764648 -0.317934 -0.489495 -0.811981
5175.669922 2053.040039 5122.850098 -0.089617 0.141294 0.985903
5232.515137 2061.780273 5126.764648 -0.089617 0.141294 0.985903
5125.209473 2131.441162 5107.027344 -0.089617 0.141294 0.985903
4713.986328 2314.057373 5072.822754 -0.120271 -0.437725 -0.891028
5125.209473 2131.441162 5107.027344 -0.120271 -0.437725 -0.891028
5232.515137 2061.780273 5126.764648 -0.120271 -0.437725 -0.891028
4773.201172 2768.510010 5167.493164 -0.186638 -0.176990 0.966354
4713.986328 2314.057373 5072.822754 -0.186638 -0.176990 0.966354
5232.515137 2061.780273 5126.764648 -0.186638 -0.176990 0.966354
4015.773926 3167.946289 5094.222656 -0.250643 -0.306858 0.918159
4773.201172 2768.510010 5167.493164 -0.250643 -0.306858 0.918159
4220.930176 3215.015137 5165.958008 -0.250643 -0.306858 0.918159
4220.930176 3215.015137 5165.958008 0.652557 0.538602 -0.532988
3930.672607 3592.913330 5192.463379 0.652557 0.538602 -0.532988
4009.447998 3555.143799 5250.743652 0.652557 0.538602 -0.532988
6080.394531 1690.015869 5149.903320 -0.269607 -0.566419 0.778769
5232.515137 2061.780273 5126.764648 -0.269607 -0.566419 0.778769
5446.520996 1943.086304 5114.523438 -0.269607 -0.566419 0.778769
5232.515137 2061.780273 5126.764648 -0.121067 -0.135355 0.983373
5996.898926 2063.859619 5221.157227 -0.121067 -0.135355 0.983373
4773.201172 2768.510010 5167.493164 -0.121067 -0.135355 0.983373
4009.447998 3555.143799 5250.743652 -0.230572 -0.367915 0.900819
4015.773926 3167.946289 5094.222656 -0.230572 -0.367915 0.900819
4220.930176 3215.015137 5165.958008 -0.230572 -0.367915 0.900819
4015.773926 3167.946289 5094.222656 -0.994409 -0.053135 0.091253
4009.447998 3555.143799 5250.743652 -0.994409 -0.053135 0.091253
4007.370361 3354.560059 5111.307617 -0.994409 -0.053135 0.091253
6080.394531 1690.015869 5149.903320 -0.119218 -0.211521 0.970075
5996.898926 2063.859619 5221.157227 -0.119218 -0.211521 0.970075
5232.515137 2061.780273 5126.764648 -0.119218 -0.211521 0.970075
4007.370361 3354.560059 5111.307617 -0.661190 -0.423586 0.619195
4009.447998 3555.143799 5250.743652 -0.661190 -0.423586 0.619195
3930.672607 3592.913330 5192.463379 -0.661190 -0.423586 0.619195
5872.297363 2183.190674 5216.399902 -0.083356 -0.047355 0.995394
5299.193848 2475.552246 5182.315918 -0.083356 -0.047355 0.995394
5996.898926 2063.859619 5221.157227 -0.083356 -0.047355 0.995394
4773.201172 2768.510010 5167.493164 0.316906 0.605911 0.729687
5996.898926 2063.859619 5221.157227 0.316906 0.605911 0.729687
5299.193848 2475.552246 5182.315918 0.316906 0.605911 0.729687
6082.694824 1682.576416 6245.210938 -0.073725 -0.235249 -0.969135
5638.625000 1847.808838 6238.883789 -0.073725 -0.235249 -0.969135
6023.605957 2048.201416 6160.953613 -0.073725 -0.235249 -0.969135
4015.859131 3533.249023 6131.054199 -0.665738 -0.370136 -0.647914
4056.310547 3314.939697 6214.204102 -0.665738 -0.370136 -0.647914
3929.192383 3605.011230 6179.109375 -0.665738 -0.370136 -0.647914
4056.310547 3314.939697 6214.204102 -0.908976 -0.408427 -0.083368
3999.574463 3434.643799 6246.366699 -0.908976 -0.408427 -0.083368
3929.192383 3605.011230 6179.109375 -0.908976 -0.408427 -0.083368
5638.625000 1847.808838 6238.883789 -0.129231 -0.133829 -0.982542
5264.213379 2478.084961 6202.280762 -0.129231 -0.133829 -0.982542
6023.605957 2048.201416 6160.953613 -0.129231 -0.133829 -0.982542
6023.605957 2048.201416 6160.953613 -0.111970 -0.102778 -0.988382
5264.213379 2478.084961 6202.280762 -0.111970 -0.102778 -0.988382
5791.299316 2227.986816 6168.575684 -0.111970 -0.102778 -0.988382
4015.859131 3533.249023 6131.054199 0.703980 0.546210 0.453945
3929.192383 3605.011230 6179.109375 0.703980 0.546210 0.453945
4199.680176 3225.997070 6215.685059 0.703980 0.546210 0.453945
6023.605957 2048.201416 6160.953613 0.716889 -0.044481 -0.695767
6129.948730 1786.387695 6287.262695 0.716889 -0.044481 -0.695767
6082.694824 1682.576416 6245.210938 0.716889 -0.044481 -0.695767
5638.625000 1847.808838 6238.883789 -0.133199 -0.136137 -0.981695
4852.791992 2249.671387 6289.778809 -0.133199 -0.136137 -0.981695
5264.213379 2478.084961 6202.280762 -0.133199 -0.136137 -0.981695
4644.945312 2853.828369 6219.566895 0.014968 0.007479 -0.999860
4056.310547 3314.939697 6214.204102 0.014968 0.007479 -0.999860
4199.680176 3225.997070 6215.685059 0.014968 0.007479 -0.999860
4056.310547 3314.939697 6214.204102 -0.228488 -0.383209 -0.894955
4015.859131 3533.249023 6131.054199 -0.228488 -0.383209 -0.894955
4199.680176 3225.997070 6215.685059 -0.228488 -0.383209 -0.894955
4056.310547 3314.939697 6214.204102 -0.724336 -0.163344 -0.669818
4021.140869 3163.885986 6289.072754 -0.724336 -0.163344 -0.669818
3999.574463 3434.643799 6246.366699 -0.724336 -0.163344 -0.669818
5264.213379 2478.084961 6202.280762 -0.121933 -0.155865 -0.980224
4852.791992 2249.671387 6289.778809 -0.121933 -0.155865 -0.980224
4644.945312 2853.828369 6219.566895 -0.121933 -0.155865 -0.980224
4644.945312 2853.828369 6219.566895 -0.283428 -0.372091 -0.883865
4021.140869 3163.885986 6289.072754 -0.283428 -0.372091 -0.883865
4056.310547 3314.939697 6214.204102 -0.283428 -0.372091 -0.883865
6129.948730 1786.387695 6287.262695 0.434609 0.528386 0.729331
6023.605957 2048.201416 6160.953613 0.434609 0.528386 0.729331
5978.589844 1825.989136 6348.767090 0.434609 0.528386 0.729331
6023.605957 2048.201416 6160.953613 0.433307 0.528955 0.729693
5791.299316 2227.986816 6168.575684 0.433307 0.528955 0.729693
5978.589844 1825.989136 6348.767090 0.433307 0.528955 0.729693
5091.182617 2131.464111 6304.927734 -0.447141 -0.887984 0.107467
4852.791992 2249.671387 6289.778809 -0.447141 -0.887984 0.107467
5638.625000 1847.808838 6238.883789 -0.447141 -0.887984 0.107467
4644.945312 2853.828369 6219.566895 -0.196707 -0.179687 -0.963856
4852.791992 2249.671387 6289.778809 -0.196707 -0.179687 -0.963856
4021.140869 3163.885986 6289.072754 -0.196707 -0.179687 -0.963856
4199.680176 3225.997070 6215.685059 0.509173 0.615453 0.601632
4700.706543 2595.403320 6436.736816 0.509173 0.615453 0.601632
4644.945312 2853.828369 6219.566895 0.509173 0.615453 0.601632
4021.140869 3163.885986 6289.072754 -0.171988 -0.157206 -0.972474
4852.791992 2249.671387 6289.778809 -0.171988 -0.157206 -0.972474
4157.712891 2617.830078 6353.192383 -0.171988 -0.157206 -0.972474
5264.213379 2478.084961 6202.280762 0.405283 0.637822 0.654926
4644.945312 2853.828369 6219.566895 0.405283 0.637822 0.654926
4700.706543 2595.403320 6436.736816 0.405283 0.637822 0.654926
4700.706543 2595.403320 6436.736816 0.718284 0.653956 0.237506
4199.680176 3225.997070 6215.685059 0.718284 0.653956 0.237506
3999.574463 3434.643799 6246.366699 0.718284 0.653956 0.237506
3929.192383 3605.011230 6179.109375 0.611669 0.496000 0.616316
3999.574463 3434.643799 6246.366699 0.611669 0.496000 0.616316
4199.680176 3225.997070 6215.685059 0.611669 0.496000 0.616316
5791.299316 2227.986816 6168.575684 0.289706 0.500625 0.815748
5264.213379 2478.084961 6202.280762 0.289706 0.500625 0.815748
5978.589844 1825.989136 6348.767090 0.289706 0.500625 0.815748
4157.712891 2617.830078 6353.192383 -0.473374 -0.870317 -0.135893
4852.791992 2249.671387 6289.778809 -0.473374 -0.870317 -0.135893
4425.636719 2469.095703 6372.457031 -0.473374 -0.870317 -0.135893
4021.140869 3163.885986 6289.072754 -0.383809 -0.201802 -0.901092
4157.712891 2617.830078 6353.192383 -0.383809 -0.201802 -0.901092
4017.681885 2706.801025 6392.911621 -0.383809 -0.201802 -0.901092
4063.952637 2970.663574 6484.035156 -0.985024 -0.052558 0.164212
3999.574463 3434.643799 6246.366699 -0.985024 -0.052558 0.164212
4021.140869 3163.885986 6289.072754 -0.985024 -0.052558 0.164212
4425.636719 2469.095703 6372.457031 -0.446543 -0.892618 0.061910
4852.791992 2249.671387 6289.778809 -0.446543 -0.892618 0.061910
5091.182617 2131.464111 6304.927734 -0.446543 -0.892618 0.061910
5978.589844 1825.989136 6348.767090 0.230998 -0.453780 0.860653
6082.694824 1682.576416 6245.210938 0.230998 -0.453780 0.860653
6129.948730 1786.387695 6287.262695 0.230998 -0.453780 0.860653
6082.694824 1682.576416 6245.210938 -0.263916 -0.683216 0.680856
5978.589844 1825.989136 6348.767090 -0.263916 -0.683216 0.680856
5638.625000 1847.808838 6238.883789 -0.263916 -0.683216 0.680856
5638.625000 1847.808838 6238.883789 -0.263704 -0.670416 0.693543
4827.127441 2406.287109 6470.185547 -0.263704 -0.670416 0.693543
5091.182617 2131.464111 6304.927734 -0.263704 -0.670416 0.693543
4827.127441 2406.287109 6470.185547 -0.266282 -0.672797 0.690245
5638.625000 1847.808838 6238.883789 -0.266282 -0.672797 0.690245
5978.589844 1825.989136 6348.767090 -0.266282 -0.672797 0.690245
5978.589844 1825.989136 6348.767090 0.410202 0.603064 0.684141
5264.213379 2478.084961 6202.280762 0.410202 0.603064 0.684141
4700.706543 2595.403320 6436.736816 0.410202 0.603064 0.684141
4425.636719 2469.095703 6372.457031 -0.486839 -0.852068 0.192268
4017.681885 2706.801025 6392.911621 -0.486839 -0.852068 0.192268
4157.712891 2617.830078 6353.192383 -0.486839 -0.852068 0.192268
4021.140869 3163.885986 6289.072754 -0.957216 0.070975 0.280536
4017.681885 2706.801025 6392.911621 -0.957216 0.070975 0.280536
4063.952637 2970.663574 6484.035156 -0.957216 0.070975 0.280536
4700.706543 2595.403320 6436.736816 0.335417 0.465947 0.818773
3999.574463 3434.643799 6246.366699 0.335417 0.465947 0.818773
4063.952637 2970.663574 6484.035156 0.335417 0.465947 0.818773
5978.589844 1825.989136 6348.767090 0.265098 0.336999 0.903413
4700.706543 2595.403320 6436.736816 0.265098 0.336999 0.903413
4827.127441 2406.287109 6470.185547 0.265098 0.336999 0.903413
4827.127441 2406.287109 6470.185547 -0.272534 -0.674464 0.686165
4425.636719 2469.095703 6372.457031 -0.272534 -0.674464 0.686165
5091.182617 2131.464111 6304.927734 -0.272534 -0.674464 0.686165
4425.636719 2469.095703 6372.457031 -0.389520 -0.718126 0.576689
4160.989746 2742.167480 6533.748047 -0.389520 -0.718126 0.576689
4017.681885 2706.801025 6392.911621 -0.389520 -0.718126 0.576689
4700.706543 2595.403320 6436.736816 0.265977 0.337507 0.902965
4063.952637 2970.663574 6484.035156 0.265977 0.337507 0.902965
4827.127441 2406.287109 6470.185547 0.265977 0.337507 0.902965
4160.989746 2742.167480 6533.748047 -0.272765 -0.671371 0.689101
4425.636719 2469.095703 6372.457031 -0.272765 -0.671371 0.689101
4827.127441 2406.287109 6470.185547 -0.272765 -0.671371 0.689101
4017.681885 2706.801025 6392.911621 -0.678311 -0.130753 0.723048
4160.989746 2742.167480 6533.748047 -0.678311 -0.130753 0.723048
4063.952637 2970.663574 6484.035156 -0.678311 -0.130753 0.723048
4827.127441 2406.287109 6470.185547 0.240690 0.302843 0.922147
4063.952637 2970.663574 6484.035156 0.240690 0.302843 0.922147
4160.989746 2742.167480 6533.748047 0.240690 0.302843 0.922147
3 0 1 2
3 3 4 5
3 6 7 8
3 9 10 11
3 12 13 14
3 15 16 17
3 18 19 20
3 21 22 23
3 24 25 26
3 27 28 29
3 30 31 32
3 33 34 35
3 36 37 38
3 39 40 41
3 42 43 44
3 45 46 47
3 48 49 50
3 51 52 53
3 54 55 56
3 57 58 59
3 60 61 62
3 63 64 65
3 66 67 68
3 69 70 71
3 72 73 74
3 75 76 77
3 78 79 80
3 81 82 83
3 84 85 86
3 87 88 89
3 90 91 92
3 93 94 95
3 96 97 98
3 99 100 101
3 102 103 104
3 105 106 107
3 108 109 110
3 111 112 113
3 114 115 116
3 117 118 119
3 120 121 122
3 123 124 125
3 126 127 128
3 129 130 131
3 132 133 134
3 135 136 137
3 138 139 140
3 141 142 143
3 144 145 146
3 147 148 149
3 150 151 152
3 153 154 155
3 156 157 158
3 159 160 161
3 162 163 164
3 165 166 167
3 168 169 170
3 171 172 173
3 174 175 176
3 177 178 179
3 180 181 182
3 183 184 185
3 186 187 188
3 189 190 191
3 192 193 194
3 195 196 197
3 198 199 200
3 201 202 203
3 204 205 206
3 207 208 209
3 210 211 212
3 213 214 215
3 216 217 218
3 219 220 221
3 222 223 224
3 225 226 227
3 228 229 230
3 231 232 233
3 234 235 236
3 237 238 239
3 240 241 242
3 243 244 245
