ply
format ascii 1.0
comment Created by Blender 2.80 (sub 75) - www.blender.org, source file: 'downsample_ccf.blend'
element vertex 282
property float x
property float y
property float z
property float nx
property float ny
property float nz
element face 94
property list uchar uint vertex_indices
end_header
5107.407227 1943.018677 5446.578613 0.095865 0.064750 -0.993286
4730.305176 2122.235840 5421.866211 0.095865 0.064750 -0.993286
4105.693848 3178.600342 5430.445312 0.095865 0.064750 -0.993286
4730.305176 2122.235840 5421.866211 -0.036239 -0.019505 -0.999153
3890.029541 2496.954590 5445.027344 -0.036239 -0.019505 -0.999153
3884.400146 3020.373047 5435.013672 -0.036239 -0.019505 -0.999153
4105.693848 3178.600342 5430.445312 -0.018588 -0.002871 -0.999823
4730.305176 2122.235840 5421.866211 -0.018588 -0.002871 -0.999823
3884.400146 3020.373047 5435.013672 -0.018588 -0.002871 -0.999823
5904.118652 1551.274658 5455.333984 0.015567 0.009314 -0.999835
5107.407227 1943.018677 5446.578613 0.015567 0.009314 -0.999835
6044.855957 1941.426758 5461.159668 0.015567 0.009314 -0.999835
6044.855957 1941.426758 5461.159668 0.015538 -0.007819 -0.999849
5107.407227 1943.018677 5446.578613 0.015538 -0.007819 -0.999849
5323.078613 2520.821289 5445.411621 0.015538 -0.007819 -0.999849
3890.029541 2496.954590 5445.027344 -0.356170 -0.765565 -0.535774
4730.305176 2122.235840 5421.866211 -0.356170 -0.765565 -0.535774
4422.996582 2221.413330 5484.443359 -0.356170 -0.765565 -0.535774
5323.078613 2520.821289 5445.411621 0.009322 -0.005499 -0.999941
5107.407227 1943.018677 5446.578613 0.009322 -0.005499 -0.999941
4105.693848 3178.600342 5430.445312 0.009322 -0.005499 -0.999941
5029.551758 2730.131104 5470.886230 0.291193 0.507088 -0.811214
5635.622070 2389.428223 5475.468750 0.291193 0.507088 -0.811214
5323.078613 2520.821289 5445.411621 0.291193 0.507088 -0.811214
5323.078613 2520.821289 5445.411621 0.269160 0.479139 -0.835451
4105.693848 3178.600342 5430.445312 0.269160 0.479139 -0.835451
5029.551758 2730.131104 5470.886230 0.269160 0.479139 -0.835451
4363.189941 3156.267334 5472.150391 0.177091 0.279722 -0.943607
5029.551758 2730.131104 5470.886230 0.177091 0.279722 -0.943607
4105.693848 3178.600342 5430.445312 0.177091 0.279722 -0.943607
4105.693848 3178.600342 5430.445312 -0.084497 0.089524 -0.992394
3884.400146 3020.373047 5435.013672 -0.084497 0.089524 -0.992394
3887.410156 3611.306641 5488.065430 -0.084497 0.089524 -0.992394
6044.855957 1941.426758 5461.159668 0.655306 -0.225621 -0.720881
5978.387207 1518.953735 5532.962402 0.655306 -0.225621 -0.720881
5904.118652 1551.274658 5455.333984 0.655306 -0.225621 -0.720881
5594.886230 1662.489868 5507.148926 -0.362370 -0.749358 -0.554212
5107.407227 1943.018677 5446.578613 -0.362370 -0.749358 -0.554212
5904.118652 1551.274658 5455.333984 -0.362370 -0.749358 -0.554212
5045.846680 1928.038330 5521.102539 -0.356811 -0.813993 -0.458368
4730.305176 2122.235840 5421.866211 -0.356811 -0.813993 -0.458368
5107.407227 1943.018677 5446.578613 -0.356811 -0.813993 -0.458368
4422.996582 2221.413330 5484.443359 -0.356156 -0.813571 -0.459624
4730.305176 2122.235840 5421.866211 -0.356156 -0.813571 -0.459624
5045.846680 1928.038330 5521.102539 -0.356156 -0.813571 -0.459624
6176.205566 2074.748047 5523.026855 0.216079 0.227706 -0.949452
6044.855957 1941.426758 5461.159668 0.216079 0.227706 -0.949452
5635.622070 2389.428223 5475.468750 0.216079 0.227706 -0.949452
5323.078613 2520.821289 5445.411621 0.172047 0.188044 -0.966974
5635.622070 2389.428223 5475.468750 0.172047 0.188044 -0.966974
6044.855957 1941.426758 5461.159668 0.172047 0.188044 -0.966974
3884.400146 3020.373047 5435.013672 -0.936651 -0.016767 -0.349862
3890.029541 2496.954590 5445.027344 -0.936651 -0.016767 -0.349862
3841.000244 3476.161621 5529.360352 -0.936651 -0.016767 -0.349862
4125.589355 3453.491699 5499.577637 0.174917 0.228210 -0.957770
4363.189941 3156.267334 5472.150391 0.174917 0.228210 -0.957770
4105.693848 3178.600342 5430.445312 0.174917 0.228210 -0.957770
3887.410156 3611.306641 5488.065430 0.195756 0.225828 -0.954296
4125.589355 3453.491699 5499.577637 0.195756 0.225828 -0.954296
4105.693848 3178.600342 5430.445312 0.195756 0.225828 -0.954296
5107.407227 1943.018677 5446.578613 -0.391579 -0.784336 -0.481127
5594.886230 1662.489868 5507.148926 -0.391579 -0.784336 -0.481127
5045.846680 1928.038330 5521.102539 -0.391579 -0.784336 -0.481127
3956.069092 2447.913818 5516.514160 -0.438842 -0.876893 -0.196156
3890.029541 2496.954590 5445.027344 -0.438842 -0.876893 -0.196156
4422.996582 2221.413330 5484.443359 -0.438842 -0.876893 -0.196156
3887.410156 3611.306641 5488.065430 -0.758307 0.062121 -0.648932
3884.400146 3020.373047 5435.013672 -0.758307 0.062121 -0.648932
3841.000244 3476.161621 5529.360352 -0.758307 0.062121 -0.648932
3861.088135 3618.797119 5527.296875 -0.816119 0.106721 -0.567944
3887.410156 3611.306641 5488.065430 -0.816119 0.106721 -0.567944
3841.000244 3476.161621 5529.360352 -0.816119 0.106721 -0.567944
5904.118652 1551.274658 5455.333984 -0.346489 -0.936240 -0.058315
5978.387207 1518.953735 5532.962402 -0.346489 -0.936240 -0.058315
5594.886230 1662.489868 5507.148926 -0.346489 -0.936240 -0.058315
4422.996582 2221.413330 5484.443359 -0.402936 -0.870614 0.282266
4350.643555 2269.809570 5530.431152 -0.402936 -0.870614 0.282266
3956.069092 2447.913818 5516.514160 -0.402936 -0.870614 0.282266
5045.846680 1928.038330 5521.102539 -0.424708 -0.870678 0.248079
4350.643555 2269.809570 5530.431152 -0.424708 -0.870678 0.248079
4422.996582 2221.413330 5484.443359 -0.424708 -0.870678 0.248079
5224.470703 1876.013672 5552.983398 -0.292599 -0.656780 0.695000
5594.886230 1662.489868 5507.148926 -0.292599 -0.656780 0.695000
5978.387207 1518.953735 5532.962402 -0.292599 -0.656780 0.695000
6044.855957 1941.426758 5461.159668 0.866378 -0.051894 0.496685
5994.683105 1925.514282 5547.014648 0.866378 -0.051894 0.496685
5978.387207 1518.953735 5532.962402 0.866378 -0.051894 0.496685
5224.470703 1876.013672 5552.983398 -0.317072 -0.689770 0.650909
5045.846680 1928.038330 5521.102539 -0.317072 -0.689770 0.650909
5594.886230 1662.489868 5507.148926 -0.317072 -0.689770 0.650909
6044.855957 1941.426758 5461.159668 0.635605 -0.735328 0.235155
6176.205566 2074.748047 5523.026855 0.635605 -0.735328 0.235155
5994.683105 1925.514282 5547.014648 0.635605 -0.735328 0.235155
5635.622070 2389.428223 5475.468750 0.361432 0.711899 0.602136
5155.622559 2591.091309 5525.164062 0.361432 0.711899 0.602136
6176.205566 2074.748047 5523.026855 0.361432 0.711899 0.602136
3890.029541 2496.954590 5445.027344 -0.762426 -0.093321 0.640310
3956.069092 2447.913818 5516.514160 -0.762426 -0.093321 0.640310
3841.000244 3476.161621 5529.360352 -0.762426 -0.093321 0.640310
5635.622070 2389.428223 5475.468750 0.322244 0.583263 0.745630
5029.551758 2730.131104 5470.886230 0.322244 0.583263 0.745630
5155.622559 2591.091309 5525.164062 0.322244 0.583263 0.745630
5029.551758 2730.131104 5470.886230 0.400973 0.625026 0.669749
4363.189941 3156.267334 5472.150391 0.400973 0.625026 0.669749
5155.622559 2591.091309 5525.164062 0.400973 0.625026 0.669749
4363.189941 3156.267334 5472.150391 0.492540 0.319017 0.809711
4125.589355 3453.491699 5499.577637 0.492540 0.319017 0.809711
4237.916504 3133.965820 5557.139648 0.492540 0.319017 0.809711
4125.589355 3453.491699 5499.577637 0.534203 0.820947 0.201675
3887.410156 3611.306641 5488.065430 0.534203 0.820947 0.201675
3861.088135 3618.797119 5527.296875 0.534203 0.820947 0.201675
4350.643555 2269.809570 5530.431152 -0.313680 -0.656780 0.685743
5045.846680 1928.038330 5521.102539 -0.313680 -0.656780 0.685743
5224.470703 1876.013672 5552.983398 -0.313680 -0.656780 0.685743
4237.916504 3133.965820 5557.139648 -0.052193 -0.037651 0.997927
3956.069092 2447.913818 5516.514160 -0.052193 -0.037651 0.997927
4350.643555 2269.809570 5530.431152 -0.052193 -0.037651 0.997927
4363.189941 3156.267334 5472.150391 0.376356 0.594352 0.710705
4237.916504 3133.965820 5557.139648 0.376356 0.594352 0.710705
5155.622559 2591.091309 5525.164062 0.376356 0.594352 0.710705
3956.069092 2447.913818 5516.514160 -0.089005 -0.022401 0.995779
4237.916504 3133.965820 5557.139648 -0.089005 -0.022401 0.995779
3841.000244 3476.161621 5529.360352 -0.089005 -0.022401 0.995779
4125.589355 3453.491699 5499.577637 0.259233 0.258761 0.930506
3861.088135 3618.797119 5527.296875 0.259233 0.258761 0.930506
4237.916504 3133.965820 5557.139648 0.259233 0.258761 0.930506
5994.683105 1925.514282 5547.014648 0.009990 -0.034941 0.999339
5224.470703 1876.013672 5552.983398 0.009990 -0.034941 0.999339
5978.387207 1518.953735 5532.962402 0.009990 -0.034941 0.999339
5994.683105 1925.514282 5547.014648 -0.002763 0.161977 0.986791
6176.205566 2074.748047 5523.026855 -0.002763 0.161977 0.986791
5224.470703 1876.013672 5552.983398 -0.002763 0.161977 0.986791
5224.470703 1876.013672 5552.983398 -0.042154 -0.036358 0.998449
4237.916504 3133.965820 5557.139648 -0.042154 -0.036358 0.998449
4350.643555 2269.809570 5530.431152 -0.042154 -0.036358 0.998449
6176.205566 2074.748047 5523.026855 0.022867 0.041063 0.998895
5155.622559 2591.091309 5525.164062 0.022867 0.041063 0.998895
5224.470703 1876.013672 5552.983398 0.022867 0.041063 0.998895
5155.622559 2591.091309 5525.164062 0.061175 0.044682 0.997126
4237.916504 3133.965820 5557.139648 0.061175 0.044682 0.997126
5224.470703 1876.013672 5552.983398 0.061175 0.044682 0.997126
4237.916504 3133.965820 5557.139648 -0.051209 0.021656 0.998453
3861.088135 3618.797119 5527.296875 -0.051209 0.021656 0.998453
3841.000244 3476.161621 5529.360352 -0.051209 0.021656 0.998453
5977.623535 1499.922119 5837.764160 0.021384 0.025135 -0.999455
5065.668945 1929.362793 5829.051758 0.021384 0.025135 -0.999455
4464.365234 2956.520264 5842.017578 0.021384 0.025135 -0.999455
6021.018555 1957.317993 5838.128906 -0.001872 0.000975 -0.999998
5977.623535 1499.922119 5837.764160 -0.001872 0.000975 -0.999998
4464.365234 2956.520264 5842.017578 -0.001872 0.000975 -0.999998
6188.836426 2062.770508 5854.661133 0.048336 0.079177 -0.995688
6021.018555 1957.317993 5838.128906 0.048336 0.079177 -0.995688
4464.365234 2956.520264 5842.017578 0.048336 0.079177 -0.995688
3862.620117 3642.079346 5868.055176 0.089764 0.345368 -0.934165
3888.947266 3513.514893 5823.053711 0.089764 0.345368 -0.934165
3841.619629 3602.146973 5851.273926 0.089764 0.345368 -0.934165
3862.620117 3642.079346 5868.055176 0.325291 0.371059 -0.869771
4108.830566 3480.131592 5891.047363 0.325291 0.371059 -0.869771
3888.947266 3513.514893 5823.053711 0.325291 0.371059 -0.869771
4251.219238 2309.758545 5858.407227 -0.091040 -0.056599 -0.994238
3890.017090 2499.031738 5880.707031 -0.091040 -0.056599 -0.994238
3888.947266 3513.514893 5823.053711 -0.091040 -0.056599 -0.994238
5065.668945 1929.362793 5829.051758 -0.057739 -0.046665 -0.997240
4251.219238 2309.758545 5858.407227 -0.057739 -0.046665 -0.997240
3888.947266 3513.514893 5823.053711 -0.057739 -0.046665 -0.997240
5419.485352 2514.318604 5893.678223 0.322109 0.611276 -0.722902
6188.836426 2062.770508 5854.661133 0.322109 0.611276 -0.722902
4464.365234 2956.520264 5842.017578 0.322109 0.611276 -0.722902
5065.668945 1929.362793 5829.051758 0.103411 0.073059 -0.991952
3888.947266 3513.514893 5823.053711 0.103411 0.073059 -0.991952
4464.365234 2956.520264 5842.017578 0.103411 0.073059 -0.991952
4464.365234 2956.520264 5842.017578 0.323242 0.303416 -0.896356
3888.947266 3513.514893 5823.053711 0.323242 0.303416 -0.896356
4108.830566 3480.131592 5891.047363 0.323242 0.303416 -0.896356
5913.559570 1518.037354 5909.685059 -0.420126 -0.895191 -0.148751
5065.668945 1929.362793 5829.051758 -0.420126 -0.895191 -0.148751
5977.623535 1499.922119 5837.764160 -0.420126 -0.895191 -0.148751
5065.668945 1929.362793 5829.051758 -0.421609 -0.888841 -0.179463
4795.238770 2045.070435 5891.293945 -0.421609 -0.888841 -0.179463
4251.219238 2309.758545 5858.407227 -0.421609 -0.888841 -0.179463
5419.485352 2514.318604 5893.678223 0.484977 0.845587 -0.223115
6001.007812 2180.409424 5892.226074 0.484977 0.845587 -0.223115
6188.836426 2062.770508 5854.661133 0.484977 0.845587 -0.223115
4464.365234 2956.520264 5842.017578 0.322159 0.611399 -0.722776
4897.910645 2800.633789 5903.394531 0.322159 0.611399 -0.722776
5419.485352 2514.318604 5893.678223 0.322159 0.611399 -0.722776
4897.910645 2800.633789 5903.394531 0.277718 0.435172 -0.856445
4464.365234 2956.520264 5842.017578 0.277718 0.435172 -0.856445
4372.506348 3151.458984 5911.281738 0.277718 0.435172 -0.856445
4464.365234 2956.520264 5842.017578 0.674494 0.508136 -0.535589
4108.830566 3480.131592 5891.047363 0.674494 0.508136 -0.535589
4372.506348 3151.458984 5911.281738 0.674494 0.508136 -0.535589
6004.071777 1608.454468 5936.269531 0.978931 -0.061971 -0.194560
5977.623535 1499.922119 5837.764160 0.978931 -0.061971 -0.194560
6023.884766 1977.648804 5918.364258 0.978931 -0.061971 -0.194560
5065.668945 1929.362793 5829.051758 -0.418869 -0.894299 -0.157412
5913.559570 1518.037354 5909.685059 -0.418869 -0.894299 -0.157412
4795.238770 2045.070435 5891.293945 -0.418869 -0.894299 -0.157412
5977.623535 1499.922119 5837.764160 0.995463 -0.094434 -0.011632
6021.018555 1957.317993 5838.128906 0.995463 -0.094434 -0.011632
6023.884766 1977.648804 5918.364258 0.995463 -0.094434 -0.011632
4319.105469 2275.215576 5926.868652 -0.436374 -0.899517 -0.021154
4251.219238 2309.758545 5858.407227 -0.436374 -0.899517 -0.021154
4795.238770 2045.070435 5891.293945 -0.436374 -0.899517 -0.021154
3922.251953 2479.308350 5954.744141 -0.465489 -0.884440 -0.032946
3890.017090 2499.031738 5880.707031 -0.465489 -0.884440 -0.032946
4251.219238 2309.758545 5858.407227 -0.465489 -0.884440 -0.032946
3888.947266 3513.514893 5823.053711 -0.575069 -0.047023 -0.816753
3890.017090 2499.031738 5880.707031 -0.575069 -0.047023 -0.816753
3841.619629 3602.146973 5851.273926 -0.575069 -0.047023 -0.816753
6023.884766 1977.648804 5918.364258 0.508090 -0.839065 0.194460
6021.018555 1957.317993 5838.128906 0.508090 -0.839065 0.194460
6188.836426 2062.770508 5854.661133 0.508090 -0.839065 0.194460
4251.219238 2309.758545 5858.407227 -0.457088 -0.889410 0.004486
4319.105469 2275.215576 5926.868652 -0.457088 -0.889410 0.004486
3922.251953 2479.308350 5954.744141 -0.457088 -0.889410 0.004486
3890.017090 2499.031738 5880.707031 -0.985357 -0.047599 -0.163724
3869.796875 2648.337891 5958.992676 -0.985357 -0.047599 -0.163724
3841.619629 3602.146973 5851.273926 -0.985357 -0.047599 -0.163724
3890.017090 2499.031738 5880.707031 -0.903653 -0.288389 0.316613
3922.251953 2479.308350 5954.744141 -0.903653 -0.288389 0.316613
3869.796875 2648.337891 5958.992676 -0.903653 -0.288389 0.316613
4897.910645 2800.633789 5903.394531 0.350510 0.614534 0.706747
5171.507324 2602.198975 5940.248535 0.350510 0.614534 0.706747
5419.485352 2514.318604 5893.678223 0.350510 0.614534 0.706747
5913.559570 1518.037354 5909.685059 0.477605 -0.651436 0.589512
5977.623535 1499.922119 5837.764160 0.477605 -0.651436 0.589512
6004.071777 1608.454468 5936.269531 0.477605 -0.651436 0.589512
5188.506836 1894.452881 5944.166016 -0.361078 -0.746684 0.558647
4795.238770 2045.070435 5891.293945 -0.361078 -0.746684 0.558647
5913.559570 1518.037354 5909.685059 -0.361078 -0.746684 0.558647
6023.884766 1977.648804 5918.364258 0.285718 0.154165 0.945832
6188.836426 2062.770508 5854.661133 0.285718 0.154165 0.945832
6001.007812 2180.409424 5892.226074 0.285718 0.154165 0.945832
3841.619629 3602.146973 5851.273926 -0.691214 0.060903 0.720080
3869.796875 2648.337891 5958.992676 -0.691214 0.060903 0.720080
3862.620117 3642.079346 5868.055176 -0.691214 0.060903 0.720080
6001.007812 2180.409424 5892.226074 0.128549 0.141046 0.981622
5171.507324 2602.198975 5940.248535 0.128549 0.141046 0.981622
6023.884766 1977.648804 5918.364258 0.128549 0.141046 0.981622
5188.506836 1894.452881 5944.166016 -0.374152 -0.836079 0.401227
4319.105469 2275.215576 5926.868652 -0.374152 -0.836079 0.401227
4795.238770 2045.070435 5891.293945 -0.374152 -0.836079 0.401227
6001.007812 2180.409424 5892.226074 0.348660 0.604096 0.716592
5419.485352 2514.318604 5893.678223 0.348660 0.604096 0.716592
5171.507324 2602.198975 5940.248535 0.348660 0.604096 0.716592
5171.507324 2602.198975 5940.248535 0.532212 0.790223 0.303805
4897.910645 2800.633789 5903.394531 0.532212 0.790223 0.303805
4372.506348 3151.458984 5911.281738 0.532212 0.790223 0.303805
4020.023193 3250.548340 5950.895996 -0.289918 0.085139 0.953257
3862.620117 3642.079346 5868.055176 -0.289918 0.085139 0.953257
3869.796875 2648.337891 5958.992676 -0.289918 0.085139 0.953257
4108.830566 3480.131592 5891.047363 0.060463 0.229827 0.971352
3862.620117 3642.079346 5868.055176 0.060463 0.229827 0.971352
4020.023193 3250.548340 5950.895996 0.060463 0.229827 0.971352
5188.506836 1894.452881 5944.166016 -0.067312 -0.218828 0.973439
5913.559570 1518.037354 5909.685059 -0.067312 -0.218828 0.973439
6004.071777 1608.454468 5936.269531 -0.067312 -0.218828 0.973439
5171.507324 2602.198975 5940.248535 0.011721 0.005816 0.999914
5188.506836 1894.452881 5944.166016 0.011721 0.005816 0.999914
6004.071777 1608.454468 5936.269531 0.011721 0.005816 0.999914
6023.884766 1977.648804 5918.364258 0.058732 0.045213 0.997249
5171.507324 2602.198975 5940.248535 0.058732 0.045213 0.997249
6004.071777 1608.454468 5936.269531 0.058732 0.045213 0.997249
5171.507324 2602.198975 5940.248535 0.011032 0.005800 0.999922
3922.251953 2479.308350 5954.744141 0.011032 0.005800 0.999922
5188.506836 1894.452881 5944.166016 0.011032 0.005800 0.999922
4319.105469 2275.215576 5926.868652 -0.327909 -0.720989 0.610451
5188.506836 1894.452881 5944.166016 -0.327909 -0.720989 0.610451
3922.251953 2479.308350 5954.744141 -0.327909 -0.720989 0.610451
5171.507324 2602.198975 5940.248535 0.011252 0.003563 0.999930
4020.023193 3250.548340 5950.895996 0.011252 0.003563 0.999930
3922.251953 2479.308350 5954.744141 0.011252 0.003563 0.999930
3922.251953 2479.308350 5954.744141 0.068755 -0.003738 0.997627
4020.023193 3250.548340 5950.895996 0.068755 -0.003738 0.997627
3869.796875 2648.337891 5958.992676 0.068755 -0.003738 0.997627
4372.506348 3151.458984 5911.281738 0.198119 0.336747 0.920516
4020.023193 3250.548340 5950.895996 0.198119 0.336747 0.920516
5171.507324 2602.198975 5940.248535 0.198119 0.336747 0.920516
4372.506348 3151.458984 5911.281738 0.162160 0.189708 0.968357
4108.830566 3480.131592 5891.047363 0.162160 0.189708 0.968357
4020.023193 3250.548340 5950.895996 0.162160 0.189708 0.968357
3 0 1 2
3 3 4 5
3 6 7 8
3 9 10 11
3 12 13 14
3 15 16 17
3 18 19 20
3 21 22 23
3 24 25 26
3 27 28 29
3 30 31 32
3 33 34 35
3 36 37 38
3 39 40 41
3 42 43 44
3 45 46 47
3 48 49 50
3 51 52 53
3 54 55 56
3 57 58 59
3 60 61 62
3 63 64 65
3 66 67 68
3 69 70 71
3 72 73 74
3 75 76 77
3 78 79 80
3 81 82 83
3 84 85 86
3 87 88 89
3 90 91 92
3 93 94 95
3 96 97 98
3 99 100 101
3 102 103 104
3 105 106 107
3 108 109 110
3 111 112 113
3 114 115 116
3 117 118 119
3 120 121 122
3 123 124 125
3 126 127 128
3 129 130 131
3 132 133 134
3 135 136 137
3 138 139 140
3 141 142 143
3 144 145 146
3 147 148 149
3 150 151 152
3 153 154 155
3 156 157 158
3 159 160 161
3 162 163 164
3 165 166 167
3 168 169 170
3 171 172 173
3 174 175 176
3 177 178 179
3 180 181 182
3 183 184 185
3 186 187 188
3 189 190 191
3 192 193 194
3 195 196 197
3 198 199 200
3 201 202 203
3 204 205 206
3 207 208 209
3 210 211 212
3 213 214 215
3 216 217 218
3 219 220 221
3 222 223 224
3 225 226 227
3 228 229 230
3 231 232 233
3 234 235 236
3 237 238 239
3 240 241 242
3 243 244 245
3 246 247 248
3 249 250 251
3 252 253 254
3 255 256 257
3 258 259 260
3 261 262 263
3 264 265 266
3 267 268 269
3 270 271 272
3 273 274 275
3 276 277 278
3 279 280 281
