ply
format ascii 1.0
comment Created by Blender 2.80 (sub 75) - www.blender.org, source file: 'downsample_ccf.blend'
element vertex 33
property float x
property float y
property float z
property float nx
property float ny
property float nz
element face 11
property list uchar uint vertex_indices
end_header
7014.860352 4770.898926 1794.089478 -0.265449 0.189640 -0.945290
6770.456055 4756.777344 1859.888062 -0.265449 0.189640 -0.945290
6695.762207 5091.630859 1948.039795 -0.265449 0.189640 -0.945290
6695.762207 5091.630859 1948.039795 0.131735 -0.319377 0.938426
6845.305664 4776.747070 1819.881714 0.131735 -0.319377 0.938426
7014.860352 4770.898926 1794.089478 0.131735 -0.319377 0.938426
6770.456055 4756.777344 1859.888062 -0.084308 0.236045 -0.968078
6457.585449 4801.001465 1897.918579 -0.084308 0.236045 -0.968078
6695.762207 5091.630859 1948.039795 -0.084308 0.236045 -0.968078
6845.305664 4776.747070 1819.881714 0.192348 -0.290190 0.937439
6695.762207 5091.630859 1948.039795 0.192348 -0.290190 0.937439
6598.904785 5006.610840 1941.594971 0.192348 -0.290190 0.937439
6845.305664 4776.747070 1819.881714 0.464957 0.029890 0.884829
6598.904785 5006.610840 1941.594971 0.464957 0.029890 0.884829
6770.456055 4756.777344 1859.888062 0.464957 0.029890 0.884829
6457.585449 4801.001465 1897.918579 0.080284 -0.259611 0.962370
6770.456055 4756.777344 1859.888062 0.080284 -0.259611 0.962370
6598.904785 5006.610840 1941.594971 0.080284 -0.259611 0.962370
6666.689453 5048.885742 9402.147461 -0.447017 -0.442152 0.777610
7083.176758 4909.206543 9562.147461 -0.447017 -0.442152 0.777610
6859.400879 5057.576172 9517.871094 -0.447017 -0.442152 0.777610
7038.994629 4805.965332 9629.882812 -0.230877 0.600886 0.765266
7083.176758 4909.206543 9562.147461 -0.230877 0.600886 0.765266
6419.034180 4780.691406 9462.688477 -0.230877 0.600886 0.765266
7083.176758 4909.206543 9562.147461 0.013257 -0.653925 0.756443
6453.725586 4846.832520 9519.257812 0.013257 -0.653925 0.756443
6419.034180 4780.691406 9462.688477 0.013257 -0.653925 0.756443
7083.176758 4909.206543 9562.147461 -0.112670 0.584488 0.803541
6666.689453 5048.885742 9402.147461 -0.112670 0.584488 0.803541
6453.725586 4846.832520 9519.257812 -0.112670 0.584488 0.803541
6859.400879 5057.576172 9517.871094 0.156068 -0.306605 -0.938955
7038.994629 4805.965332 9629.882812 0.156068 -0.306605 -0.938955
6453.725586 4846.832520 9519.257812 0.156068 -0.306605 -0.938955
3 0 1 2
3 3 4 5
3 6 7 8
3 9 10 11
3 12 13 14
3 15 16 17
3 18 19 20
3 21 22 23
3 24 25 26
3 27 28 29
3 30 31 32
