ply
format ascii 1.0
comment Created by Blender 2.80 (sub 75) - www.blender.org, source file: 'downsample_ccf.blend'
element vertex 252
property float x
property float y
property float z
property float nx
property float ny
property float nz
element face 84
property list uchar uint vertex_indices
end_header
7155.461426 4890.317871 1570.584351 -0.071620 0.389625 -0.918185
7048.627441 4738.147461 1514.345215 -0.071620 0.389625 -0.918185
6673.564941 4771.252930 1557.648926 -0.071620 0.389625 -0.918185
7155.461426 4890.317871 1570.584351 -0.065610 0.366384 -0.928148
6673.564941 4771.252930 1557.648926 -0.065610 0.366384 -0.928148
6488.979492 5237.058594 1754.572632 -0.065610 0.366384 -0.928148
6673.564941 4771.252930 1557.648926 -0.108358 -0.975202 -0.192976
7048.627441 4738.147461 1514.345215 -0.108358 -0.975202 -0.192976
6878.432617 4709.673340 1753.805542 -0.108358 -0.975202 -0.192976
7155.461426 4890.317871 1570.584351 0.026463 0.507775 -0.861083
6488.979492 5237.058594 1754.572632 0.026463 0.507775 -0.861083
6827.395996 5162.067383 1720.751099 0.026463 0.507775 -0.861083
7119.470703 4965.276855 1700.599731 0.514872 0.796604 -0.316747
7155.461426 4890.317871 1570.584351 0.514872 0.796604 -0.316747
6827.395996 5162.067383 1720.751099 0.514872 0.796604 -0.316747
7139.563965 4783.776855 1671.985229 0.823458 -0.450788 -0.344539
7048.627441 4738.147461 1514.345215 0.823458 -0.450788 -0.344539
7155.461426 4890.317871 1570.584351 0.823458 -0.450788 -0.344539
6488.979492 5237.058594 1754.572632 -0.093068 0.356188 -0.929768
6673.564941 4771.252930 1557.648926 -0.093068 0.356188 -0.929768
6081.884277 4825.491211 1637.653564 -0.093068 0.356188 -0.929768
7139.563965 4783.776855 1671.985229 0.971133 0.071640 0.227525
7155.461426 4890.317871 1570.584351 0.971133 0.071640 0.227525
7119.470703 4965.276855 1700.599731 0.971133 0.071640 0.227525
6081.884277 4825.491211 1637.653564 -0.149016 0.403815 -0.902623
5694.258789 4925.546387 1746.410034 -0.149016 0.403815 -0.902623
6488.979492 5237.058594 1754.572632 -0.149016 0.403815 -0.902623
6878.432617 4709.673340 1753.805542 0.300764 -0.948336 0.101000
7048.627441 4738.147461 1514.345215 0.300764 -0.948336 0.101000
7139.563965 4783.776855 1671.985229 0.300764 -0.948336 0.101000
5067.515137 4873.727539 1988.844604 -0.325866 -0.281377 -0.902573
5694.258789 4925.546387 1746.410034 -0.325866 -0.281377 -0.902573
6081.884277 4825.491211 1637.653564 -0.325866 -0.281377 -0.902573
6673.564941 4771.252930 1557.648926 -0.114668 -0.975730 -0.186551
6878.432617 4709.673340 1753.805542 -0.114668 -0.975730 -0.186551
6081.884277 4825.491211 1637.653564 -0.114668 -0.975730 -0.186551
6839.486816 5103.742188 1873.435669 0.493921 -0.081794 0.865651
7139.563965 4783.776855 1671.985229 0.493921 -0.081794 0.865651
7119.470703 4965.276855 1700.599731 0.493921 -0.081794 0.865651
7139.563965 4783.776855 1671.985229 0.351615 -0.239948 0.904871
6839.486816 5103.742188 1873.435669 0.351615 -0.239948 0.904871
6878.432617 4709.673340 1753.805542 0.351615 -0.239948 0.904871
6839.486816 5103.742188 1873.435669 0.551923 0.792629 0.259077
7119.470703 4965.276855 1700.599731 0.551923 0.792629 0.259077
6827.395996 5162.067383 1720.751099 0.551923 0.792629 0.259077
6488.979492 5237.058594 1754.572632 -0.182413 0.487737 -0.853720
5694.258789 4925.546387 1746.410034 -0.182413 0.487737 -0.853720
6078.449219 5295.936523 1875.927612 -0.182413 0.487737 -0.853720
6878.432617 4709.673340 1753.805542 -0.122800 -0.982812 -0.137843
6130.067871 4782.648438 1900.194702 -0.122800 -0.982812 -0.137843
6081.884277 4825.491211 1637.653564 -0.122800 -0.982812 -0.137843
6081.884277 4825.491211 1637.653564 -0.096368 -0.985012 -0.143053
6130.067871 4782.648438 1900.194702 -0.096368 -0.985012 -0.143053
5067.515137 4873.727539 1988.844604 -0.096368 -0.985012 -0.143053
5694.258789 4925.546387 1746.410034 -0.207772 0.507850 -0.836014
5310.212891 5272.189453 2052.429688 -0.207772 0.507850 -0.836014
6078.449219 5295.936523 1875.927612 -0.207772 0.507850 -0.836014
6827.395996 5162.067383 1720.751099 0.235998 0.902395 0.360539
6488.979492 5237.058594 1754.572632 0.235998 0.902395 0.360539
6078.449219 5295.936523 1875.927612 0.235998 0.902395 0.360539
5403.032227 4810.956543 2109.670166 -0.101622 -0.969818 -0.221645
5067.515137 4873.727539 1988.844604 -0.101622 -0.969818 -0.221645
6130.067871 4782.648438 1900.194702 -0.101622 -0.969818 -0.221645
6839.486816 5103.742188 1873.435669 0.337498 -0.242745 0.909489
6510.376953 5139.709473 2005.163330 0.337498 -0.242745 0.909489
6878.432617 4709.673340 1753.805542 0.337498 -0.242745 0.909489
6839.486816 5103.742188 1873.435669 0.232070 0.914643 0.331015
6827.395996 5162.067383 1720.751099 0.232070 0.914643 0.331015
6078.449219 5295.936523 1875.927612 0.232070 0.914643 0.331015
5067.515137 4873.727539 1988.844604 -0.362450 0.358074 -0.860472
5310.212891 5272.189453 2052.429688 -0.362450 0.358074 -0.860472
5694.258789 4925.546387 1746.410034 -0.362450 0.358074 -0.860472
6078.449219 5295.936523 1875.927612 0.232140 0.914932 0.330166
6510.376953 5139.709473 2005.163330 0.232140 0.914932 0.330166
6839.486816 5103.742188 1873.435669 0.232140 0.914932 0.330166
5067.515137 4873.727539 1988.844604 -0.419612 0.386631 -0.821244
4966.181152 5252.232422 2218.815918 -0.419612 0.386631 -0.821244
5310.212891 5272.189453 2052.429688 -0.419612 0.386631 -0.821244
6078.449219 5295.936523 1875.927612 -0.006353 0.994332 0.106128
5310.212891 5272.189453 2052.429688 -0.006353 0.994332 0.106128
4966.181152 5252.232422 2218.815918 -0.006353 0.994332 0.106128
5403.032227 4810.956543 2109.670166 -0.018844 -0.907685 -0.419230
4923.226074 4830.989258 2087.864014 -0.018844 -0.907685 -0.419230
5067.515137 4873.727539 1988.844604 -0.018844 -0.907685 -0.419230
6130.067871 4782.648438 1900.194702 0.136369 -0.410325 0.901686
6878.432617 4709.673340 1753.805542 0.136369 -0.410325 0.901686
6510.376953 5139.709473 2005.163330 0.136369 -0.410325 0.901686
5067.515137 4873.727539 1988.844604 -0.598480 0.292843 -0.745697
4923.226074 4830.989258 2087.864014 -0.598480 0.292843 -0.745697
4966.181152 5252.232422 2218.815918 -0.598480 0.292843 -0.745697
5403.032227 4810.956543 2109.670166 -0.029058 -0.967866 -0.249783
5048.497559 4790.882324 2228.698486 -0.029058 -0.967866 -0.249783
4923.226074 4830.989258 2087.864014 -0.029058 -0.967866 -0.249783
6078.449219 5295.936523 1875.927612 0.128187 0.818125 0.560572
5542.318359 5155.576660 2203.373047 0.128187 0.818125 0.560572
6510.376953 5139.709473 2005.163330 0.128187 0.818125 0.560572
5542.318359 5155.576660 2203.373047 0.149329 0.796494 0.585916
6078.449219 5295.936523 1875.927612 0.149329 0.796494 0.585916
4966.181152 5252.232422 2218.815918 0.149329 0.796494 0.585916
5542.318359 5155.576660 2203.373047 0.184448 -0.326599 0.926991
5403.032227 4810.956543 2109.670166 0.184448 -0.326599 0.926991
6510.376953 5139.709473 2005.163330 0.184448 -0.326599 0.926991
6130.067871 4782.648438 1900.194702 0.224248 -0.487003 0.844121
6510.376953 5139.709473 2005.163330 0.224248 -0.487003 0.844121
5403.032227 4810.956543 2109.670166 0.224248 -0.487003 0.844121
5403.032227 4810.956543 2109.670166 0.377663 -0.381985 0.843480
5542.318359 5155.576660 2203.373047 0.377663 -0.381985 0.843480
5039.714355 4954.369141 2337.290527 0.377663 -0.381985 0.843480
4923.226074 4830.989258 2087.864014 -0.896239 -0.045766 0.441204
5039.714355 4954.369141 2337.290527 -0.896239 -0.045766 0.441204
4966.181152 5252.232422 2218.815918 -0.896239 -0.045766 0.441204
5048.497559 4790.882324 2228.698486 0.298621 -0.516862 0.802296
5403.032227 4810.956543 2109.670166 0.298621 -0.516862 0.802296
5039.714355 4954.369141 2337.290527 0.298621 -0.516862 0.802296
5048.497559 4790.882324 2228.698486 -0.738372 -0.400213 0.542805
5039.714355 4954.369141 2337.290527 -0.738372 -0.400213 0.542805
4923.226074 4830.989258 2087.864014 -0.738372 -0.400213 0.542805
5039.714355 4954.369141 2337.290527 0.324329 -0.193935 0.925851
5542.318359 5155.576660 2203.373047 0.324329 -0.193935 0.925851
5089.907715 5131.241699 2356.756592 0.324329 -0.193935 0.925851
5542.318359 5155.576660 2203.373047 0.150594 0.806243 0.572097
4966.181152 5252.232422 2218.815918 0.150594 0.806243 0.572097
5089.907715 5131.241699 2356.756592 0.150594 0.806243 0.572097
5039.714355 4954.369141 2337.290527 -0.686723 0.115901 0.717619
5089.907715 5131.241699 2356.756592 -0.686723 0.115901 0.717619
4966.181152 5252.232422 2218.815918 -0.686723 0.115901 0.717619
5045.904297 4807.493164 9107.854492 -0.794873 -0.162954 -0.584486
4934.505371 4809.364258 9258.830078 -0.794873 -0.162954 -0.584486
5058.560547 5086.389648 9012.886719 -0.794873 -0.162954 -0.584486
4934.505371 4809.364258 9258.830078 -0.815285 -0.134859 -0.563136
4982.139648 5223.954102 9090.582031 -0.815285 -0.134859 -0.563136
5058.560547 5086.389648 9012.886719 -0.815285 -0.134859 -0.563136
4982.139648 5223.954102 9090.582031 -0.900094 -0.071032 -0.429867
4934.505371 4809.364258 9258.830078 -0.900094 -0.071032 -0.429867
4942.344727 5223.628418 9173.961914 -0.900094 -0.071032 -0.429867
5857.487305 5158.183594 9258.626953 0.196434 0.562660 -0.803012
5058.560547 5086.389648 9012.886719 0.196434 0.562660 -0.803012
4982.139648 5223.954102 9090.582031 0.196434 0.562660 -0.803012
5045.904297 4807.493164 9107.854492 0.304700 -0.319372 -0.897307
5058.560547 5086.389648 9012.886719 0.304700 -0.319372 -0.897307
5857.487305 5158.183594 9258.626953 0.304700 -0.319372 -0.897307
5495.903809 4824.657227 9293.283203 0.025313 -0.999197 0.031061
4934.505371 4809.364258 9258.830078 0.025313 -0.999197 0.031061
5045.904297 4807.493164 9107.854492 0.025313 -0.999197 0.031061
5857.487305 5158.183594 9258.626953 0.352201 -0.466158 -0.811573
5495.903809 4824.657227 9293.283203 0.352201 -0.466158 -0.811573
5045.904297 4807.493164 9107.854492 0.352201 -0.466158 -0.811573
4982.139648 5223.954102 9090.582031 0.152204 0.880964 -0.448035
5427.288086 5280.574219 9353.136719 0.152204 0.880964 -0.448035
5857.487305 5158.183594 9258.626953 0.152204 0.880964 -0.448035
4982.139648 5223.954102 9090.582031 -0.100442 0.993967 -0.044056
4942.344727 5223.628418 9173.961914 -0.100442 0.993967 -0.044056
5427.288086 5280.574219 9353.136719 -0.100442 0.993967 -0.044056
4934.505371 4809.364258 9258.830078 -0.992311 0.042586 0.116215
4943.786133 4851.658691 9322.576172 -0.992311 0.042586 0.116215
4942.344727 5223.628418 9173.961914 -0.992311 0.042586 0.116215
5495.903809 4824.657227 9293.283203 0.023477 -0.997899 0.060392
5592.872070 4844.108398 9576.993164 0.023477 -0.997899 0.060392
4934.505371 4809.364258 9258.830078 0.023477 -0.997899 0.060392
5857.487305 5158.183594 9258.626953 0.133966 -0.426648 -0.894441
6438.196289 5135.932617 9356.216797 0.133966 -0.426648 -0.894441
6117.324219 4775.453125 9480.106445 0.133966 -0.426648 -0.894441
5857.487305 5158.183594 9258.626953 0.242892 -0.357045 -0.901955
6117.324219 4775.453125 9480.106445 0.242892 -0.357045 -0.901955
5495.903809 4824.657227 9293.283203 0.242892 -0.357045 -0.901955
6438.196289 5135.932617 9356.216797 0.121043 0.840125 -0.528715
5857.487305 5158.183594 9258.626953 0.121043 0.840125 -0.528715
6217.045898 5291.040039 9552.051758 0.121043 0.840125 -0.528715
6438.196289 5135.932617 9356.216797 0.117549 -0.414741 -0.902315
6713.570312 4732.586914 9577.485352 0.117549 -0.414741 -0.902315
6117.324219 4775.453125 9480.106445 0.117549 -0.414741 -0.902315
5705.919434 4877.987305 9658.885742 -0.358888 0.394168 0.846068
5427.288086 5280.574219 9353.136719 -0.358888 0.394168 0.846068
4942.344727 5223.628418 9173.961914 -0.358888 0.394168 0.846068
5427.288086 5280.574219 9353.136719 0.122340 0.839199 -0.529885
6217.045898 5291.040039 9552.051758 0.122340 0.839199 -0.529885
5857.487305 5158.183594 9258.626953 0.122340 0.839199 -0.529885
6438.196289 5135.932617 9356.216797 0.197764 0.864766 -0.461593
6217.045898 5291.040039 9552.051758 0.197764 0.864766 -0.461593
6828.602539 5129.952637 9512.278320 0.197764 0.864766 -0.461593
5495.903809 4824.657227 9293.283203 -0.109924 -0.988343 0.105331
6117.324219 4775.453125 9480.106445 -0.109924 -0.988343 0.105331
5592.872070 4844.108398 9576.993164 -0.109924 -0.988343 0.105331
5705.919434 4877.987305 9658.885742 -0.389420 0.340427 0.855840
4942.344727 5223.628418 9173.961914 -0.389420 0.340427 0.855840
4943.786133 4851.658691 9322.576172 -0.389420 0.340427 0.855840
7134.382812 4768.984863 9695.023438 0.364584 -0.155919 -0.918024
6438.196289 5135.932617 9356.216797 0.364584 -0.155919 -0.918024
6828.602539 5129.952637 9512.278320 0.364584 -0.155919 -0.918024
4943.786133 4851.658691 9322.576172 -0.229180 -0.795392 0.561095
4934.505371 4809.364258 9258.830078 -0.229180 -0.795392 0.561095
5592.872070 4844.108398 9576.993164 -0.229180 -0.795392 0.561095
6713.570312 4732.586914 9577.485352 0.280562 -0.307289 -0.909317
6438.196289 5135.932617 9356.216797 0.280562 -0.307289 -0.909317
7134.382812 4768.984863 9695.023438 0.280562 -0.307289 -0.909317
5427.288086 5280.574219 9353.136719 -0.219083 0.489418 0.844081
5705.919434 4877.987305 9658.885742 -0.219083 0.489418 0.844081
6217.045898 5291.040039 9552.051758 -0.219083 0.489418 0.844081
6117.324219 4775.453125 9480.106445 -0.079469 -0.995667 0.048293
6713.570312 4732.586914 9577.485352 -0.079469 -0.995667 0.048293
6997.643555 4723.076660 9848.871094 -0.079469 -0.995667 0.048293
5592.872070 4844.108398 9576.993164 -0.266419 -0.703539 0.658828
5705.919434 4877.987305 9658.885742 -0.266419 -0.703539 0.658828
4943.786133 4851.658691 9322.576172 -0.266419 -0.703539 0.658828
6828.602539 5129.952637 9512.278320 0.225342 0.928425 -0.295377
6217.045898 5291.040039 9552.051758 0.225342 0.928425 -0.295377
6629.554688 5219.546387 9642.035156 0.225342 0.928425 -0.295377
6117.324219 4775.453125 9480.106445 -0.107669 -0.987302 0.116800
6997.643555 4723.076660 9848.871094 -0.107669 -0.987302 0.116800
5592.872070 4844.108398 9576.993164 -0.107669 -0.987302 0.116800
7134.382812 4768.984863 9695.023438 0.461677 -0.057058 -0.885211
6828.602539 5129.952637 9512.278320 0.461677 -0.057058 -0.885211
7157.870117 4927.015137 9697.086914 0.461677 -0.057058 -0.885211
6828.602539 5129.952637 9512.278320 0.425176 0.904691 0.027557
6629.554688 5219.546387 9642.035156 0.425176 0.904691 0.027557
7105.731445 4991.917969 9768.110352 0.425176 0.904691 0.027557
6828.602539 5129.952637 9512.278320 0.605170 0.756726 -0.247255
7105.731445 4991.917969 9768.110352 0.605170 0.756726 -0.247255
7157.870117 4927.015137 9697.086914 0.605170 0.756726 -0.247255
6217.045898 5291.040039 9552.051758 -0.126835 0.406811 0.904665
6492.582031 4802.140137 9810.531250 -0.126835 0.406811 0.904665
6629.554688 5219.546387 9642.035156 -0.126835 0.406811 0.904665
6997.643555 4723.076660 9848.871094 -0.180469 -0.795630 0.578277
5705.919434 4877.987305 9658.885742 -0.180469 -0.795630 0.578277
5592.872070 4844.108398 9576.993164 -0.180469 -0.795630 0.578277
5705.919434 4877.987305 9658.885742 -0.135764 0.402186 0.905436
6492.582031 4802.140137 9810.531250 -0.135764 0.402186 0.905436
6217.045898 5291.040039 9552.051758 -0.135764 0.402186 0.905436
7134.382812 4768.984863 9695.023438 0.132784 -0.975896 -0.173190
6997.643555 4723.076660 9848.871094 0.132784 -0.975896 -0.173190
6713.570312 4732.586914 9577.485352 0.132784 -0.975896 -0.173190
6492.582031 4802.140137 9810.531250 -0.171356 -0.876053 0.450742
5705.919434 4877.987305 9658.885742 -0.171356 -0.876053 0.450742
6997.643555 4723.076660 9848.871094 -0.171356 -0.876053 0.450742
7134.382812 4768.984863 9695.023438 0.980901 -0.147443 0.126863
7157.870117 4927.015137 9697.086914 0.980901 -0.147443 0.126863
7126.188477 4848.208984 9850.458008 0.980901 -0.147443 0.126863
7126.188477 4848.208984 9850.458008 0.879191 0.324873 0.348542
7157.870117 4927.015137 9697.086914 0.879191 0.324873 0.348542
7105.731445 4991.917969 9768.110352 0.879191 0.324873 0.348542
7126.188477 4848.208984 9850.458008 -0.086453 0.397189 0.913656
6629.554688 5219.546387 9642.035156 -0.086453 0.397189 0.913656
6492.582031 4802.140137 9810.531250 -0.086453 0.397189 0.913656
6629.554688 5219.546387 9642.035156 0.008518 0.498072 0.867094
7126.188477 4848.208984 9850.458008 0.008518 0.498072 0.867094
7105.731445 4991.917969 9768.110352 0.008518 0.498072 0.867094
6997.643555 4723.076660 9848.871094 0.644567 -0.666888 0.373890
7134.382812 4768.984863 9695.023438 0.644567 -0.666888 0.373890
7126.188477 4848.208984 9850.458008 0.644567 -0.666888 0.373890
6997.643555 4723.076660 9848.871094 -0.066849 0.056039 0.996188
7126.188477 4848.208984 9850.458008 -0.066849 0.056039 0.996188
6492.582031 4802.140137 9810.531250 -0.066849 0.056039 0.996188
3 0 1 2
3 3 4 5
3 6 7 8
3 9 10 11
3 12 13 14
3 15 16 17
3 18 19 20
3 21 22 23
3 24 25 26
3 27 28 29
3 30 31 32
3 33 34 35
3 36 37 38
3 39 40 41
3 42 43 44
3 45 46 47
3 48 49 50
3 51 52 53
3 54 55 56
3 57 58 59
3 60 61 62
3 63 64 65
3 66 67 68
3 69 70 71
3 72 73 74
3 75 76 77
3 78 79 80
3 81 82 83
3 84 85 86
3 87 88 89
3 90 91 92
3 93 94 95
3 96 97 98
3 99 100 101
3 102 103 104
3 105 106 107
3 108 109 110
3 111 112 113
3 114 115 116
3 117 118 119
3 120 121 122
3 123 124 125
3 126 127 128
3 129 130 131
3 132 133 134
3 135 136 137
3 138 139 140
3 141 142 143
3 144 145 146
3 147 148 149
3 150 151 152
3 153 154 155
3 156 157 158
3 159 160 161
3 162 163 164
3 165 166 167
3 168 169 170
3 171 172 173
3 174 175 176
3 177 178 179
3 180 181 182
3 183 184 185
3 186 187 188
3 189 190 191
3 192 193 194
3 195 196 197
3 198 199 200
3 201 202 203
3 204 205 206
3 207 208 209
3 210 211 212
3 213 214 215
3 216 217 218
3 219 220 221
3 222 223 224
3 225 226 227
3 228 229 230
3 231 232 233
3 234 235 236
3 237 238 239
3 240 241 242
3 243 244 245
3 246 247 248
3 249 250 251
