ply
format ascii 1.0
comment Created by Blender 2.80 (sub 75) - www.blender.org, source file: 'downsample_ccf.blend'
element vertex 21
property float x
property float y
property float z
property float nx
property float ny
property float nz
element face 7
property list uchar uint vertex_indices
end_header
11832.717773 6662.065430 4311.689453 -0.048284 0.975308 -0.215504
11835.285156 6664.603027 4322.598633 -0.048284 0.975308 -0.215504
12395.715820 6714.684570 4423.686523 -0.048284 0.975308 -0.215504
11832.717773 6662.065430 4311.689453 0.165883 -0.895409 -0.413190
12395.715820 6714.684570 4423.686523 0.165883 -0.895409 -0.413190
11999.119141 6663.092773 4376.268066 0.165883 -0.895409 -0.413190
11832.717773 6662.065430 4311.689453 -0.242159 -0.733022 0.635640
11999.119141 6663.092773 4376.268066 -0.242159 -0.733022 0.635640
11822.400391 6673.009766 4320.379883 -0.242159 -0.733022 0.635640
11835.285156 6664.603027 4322.598633 -0.172014 0.818513 0.548131
11999.119141 6663.092773 4376.268066 -0.172014 0.818513 0.548131
12395.715820 6714.684570 4423.686523 -0.172014 0.818513 0.548131
11822.400391 6673.009766 4320.379883 0.305285 0.223603 -0.925636
11999.119141 6663.092773 4376.268066 0.305285 0.223603 -0.925636
11835.285156 6664.603027 4322.598633 0.305285 0.223603 -0.925636
12226.015625 6645.620117 7028.475098 -0.098443 -0.632343 -0.768409
11813.014648 6666.687988 7064.048340 -0.098443 -0.632343 -0.768409
12401.823242 6717.536133 6946.770508 -0.098443 -0.632343 -0.768409
12226.015625 6645.620117 7028.475098 0.098443 0.632343 0.768409
12401.823242 6717.536133 6946.770508 0.098443 0.632343 0.768409
11813.014648 6666.687988 7064.048340 0.098443 0.632343 0.768409
3 0 1 2
3 3 4 5
3 6 7 8
3 9 10 11
3 12 13 14
3 15 16 17
3 18 19 20
