ply
format ascii 1.0
comment Created by Blender 2.80 (sub 75) - www.blender.org, source file: 'downsample_ccf.blend'
element vertex 108
property float x
property float y
property float z
property float nx
property float ny
property float nz
element face 36
property list uchar uint vertex_indices
end_header
6173.848145 4152.083008 4749.131348 0.623353 -0.491880 -0.607853
6347.353027 4242.294434 4854.060547 0.623353 -0.491880 -0.607853
6255.819824 4093.883789 4880.288574 0.623353 -0.491880 -0.607853
5804.312012 4379.968750 4884.494141 -0.564390 -0.549030 -0.616465
6173.848145 4152.083008 4749.131348 -0.564390 -0.549030 -0.616465
5858.459473 4169.713867 5022.175781 -0.564390 -0.549030 -0.616465
6035.103516 4084.211670 4997.525879 -0.134574 -0.934189 -0.330426
6173.848145 4152.083008 4749.131348 -0.134574 -0.934189 -0.330426
6255.819824 4093.883789 4880.288574 -0.134574 -0.934189 -0.330426
5858.459473 4169.713867 5022.175781 -0.438447 -0.774221 -0.456450
6173.848145 4152.083008 4749.131348 -0.438447 -0.774221 -0.456450
6035.103516 4084.211670 4997.525879 -0.438447 -0.774221 -0.456450
6173.848145 4152.083008 4749.131348 -0.056246 0.440891 -0.895797
5804.312012 4379.968750 4884.494141 -0.056246 0.440891 -0.895797
5932.606445 4770.682617 5068.739258 -0.056246 0.440891 -0.895797
6347.353027 4242.294434 4854.060547 0.230535 0.516108 -0.824916
6173.848145 4152.083008 4749.131348 0.230535 0.516108 -0.824916
5932.606445 4770.682617 5068.739258 0.230535 0.516108 -0.824916
5788.711914 4623.895508 5063.559082 -0.482232 0.498160 -0.720618
5932.606445 4770.682617 5068.739258 -0.482232 0.498160 -0.720618
5804.312012 4379.968750 4884.494141 -0.482232 0.498160 -0.720618
6255.819824 4093.883789 4880.288574 0.346690 -0.726973 0.592720
6371.475586 4511.036621 5324.279297 0.346690 -0.726973 0.592720
6035.103516 4084.211670 4997.525879 0.346690 -0.726973 0.592720
5804.312012 4379.968750 4884.494141 -0.977265 -0.162487 0.136204
5858.459473 4169.713867 5022.175781 -0.977265 -0.162487 0.136204
5788.711914 4623.895508 5063.559082 -0.977265 -0.162487 0.136204
6347.353027 4242.294434 4854.060547 0.458015 0.618804 -0.638203
5932.606445 4770.682617 5068.739258 0.458015 0.618804 -0.638203
6325.321289 4646.143066 5229.822266 0.458015 0.618804 -0.638203
6347.353027 4242.294434 4854.060547 0.845781 -0.480751 0.231373
6371.475586 4511.036621 5324.279297 0.845781 -0.480751 0.231373
6255.819824 4093.883789 4880.288574 0.845781 -0.480751 0.231373
6347.353027 4242.294434 4854.060547 0.962806 0.210333 -0.169603
6325.321289 4646.143066 5229.822266 0.962806 0.210333 -0.169603
6371.475586 4511.036621 5324.279297 0.962806 0.210333 -0.169603
6035.103516 4084.211670 4997.525879 -0.157638 -0.560135 0.813264
6089.050781 4610.408203 5370.399902 -0.157638 -0.560135 0.813264
5858.459473 4169.713867 5022.175781 -0.157638 -0.560135 0.813264
5788.711914 4623.895508 5063.559082 -0.707844 -0.171146 0.685322
5858.459473 4169.713867 5022.175781 -0.707844 -0.171146 0.685322
6089.050781 4610.408203 5370.399902 -0.707844 -0.171146 0.685322
6325.321289 4646.143066 5229.822266 0.380735 0.893734 -0.237237
5932.606445 4770.682617 5068.739258 0.380735 0.893734 -0.237237
6125.487305 4744.661133 5280.257812 0.380735 0.893734 -0.237237
5932.606445 4770.682617 5068.739258 -0.583935 0.551402 0.595798
5788.711914 4623.895508 5063.559082 -0.583935 0.551402 0.595798
6089.050781 4610.408203 5370.399902 -0.583935 0.551402 0.595798
6089.050781 4610.408203 5370.399902 -0.578361 0.557100 0.595935
6125.487305 4744.661133 5280.257812 -0.578361 0.557100 0.595935
5932.606445 4770.682617 5068.739258 -0.578361 0.557100 0.595935
6035.103516 4084.211670 4997.525879 -0.067862 -0.572200 0.817302
6371.475586 4511.036621 5324.279297 -0.067862 -0.572200 0.817302
6089.050781 4610.408203 5370.399902 -0.067862 -0.572200 0.817302
6125.487305 4744.661133 5280.257812 0.462741 0.608673 0.644506
6371.475586 4511.036621 5324.279297 0.462741 0.608673 0.644506
6325.321289 4646.143066 5229.822266 0.462741 0.608673 0.644506
6371.475586 4511.036621 5324.279297 0.301770 0.473646 0.827402
6125.487305 4744.661133 5280.257812 0.301770 0.473646 0.827402
6089.050781 4610.408203 5370.399902 0.301770 0.473646 0.827402
6320.344727 4511.220703 6032.205078 0.383537 0.370441 -0.845975
6104.056152 4638.619141 5989.933105 0.383537 0.370441 -0.845975
6248.001953 4727.567383 6094.142578 0.383537 0.370441 -0.845975
6320.344727 4511.220703 6032.205078 0.915421 0.358492 -0.182998
6248.001953 4727.567383 6094.142578 0.915421 0.358492 -0.182998
6412.509766 4420.359375 6315.250977 0.915421 0.358492 -0.182998
6320.344727 4511.220703 6032.205078 -0.127891 -0.501114 -0.855879
5900.183594 4146.219238 6308.695312 -0.127891 -0.501114 -0.855879
6104.056152 4638.619141 5989.933105 -0.127891 -0.501114 -0.855879
5874.792969 4748.919922 6276.764648 -0.184707 0.858786 -0.477881
6248.001953 4727.567383 6094.142578 -0.184707 0.858786 -0.477881
6104.056152 4638.619141 5989.933105 -0.184707 0.858786 -0.477881
5866.378418 4722.937500 6380.065430 0.178514 0.950679 0.253658
6248.001953 4727.567383 6094.142578 0.178514 0.950679 0.253658
5874.792969 4748.919922 6276.764648 0.178514 0.950679 0.253658
6104.056152 4638.619141 5989.933105 -0.791597 -0.065534 -0.607519
5900.183594 4146.219238 6308.695312 -0.791597 -0.065534 -0.607519
5874.792969 4748.919922 6276.764648 -0.791597 -0.065534 -0.607519
6269.705566 4098.747070 6498.552246 0.721286 -0.555822 -0.413290
6320.344727 4511.220703 6032.205078 0.721286 -0.555822 -0.413290
6412.509766 4420.359375 6315.250977 0.721286 -0.555822 -0.413290
6269.705566 4098.747070 6498.552246 0.228890 -0.741363 -0.630865
5900.183594 4146.219238 6308.695312 0.228890 -0.741363 -0.630865
6320.344727 4511.220703 6032.205078 0.228890 -0.741363 -0.630865
6412.509766 4420.359375 6315.250977 0.441125 0.667762 0.599586
6248.001953 4727.567383 6094.142578 0.441125 0.667762 0.599586
5866.378418 4722.937500 6380.065430 0.441125 0.667762 0.599586
5900.183594 4146.219238 6308.695312 -0.920536 -0.059238 -0.386140
5817.030762 4281.470215 6486.178223 -0.920536 -0.059238 -0.386140
5874.792969 4748.919922 6276.764648 -0.920536 -0.059238 -0.386140
5817.030762 4281.470215 6486.178223 -0.993634 0.097510 -0.056412
5866.378418 4722.937500 6380.065430 -0.993634 0.097510 -0.056412
5874.792969 4748.919922 6276.764648 -0.993634 0.097510 -0.056412
5900.183594 4146.219238 6308.695312 -0.425197 -0.804816 0.414101
6197.602539 4156.672852 6634.400879 -0.425197 -0.804816 0.414101
5817.030762 4281.470215 6486.178223 -0.425197 -0.804816 0.414101
5900.183594 4146.219238 6308.695312 -0.254230 -0.930971 0.262031
6269.705566 4098.747070 6498.552246 -0.254230 -0.930971 0.262031
6197.602539 4156.672852 6634.400879 -0.254230 -0.930971 0.262031
6412.509766 4420.359375 6315.250977 0.396113 0.558903 0.728507
5866.378418 4722.937500 6380.065430 0.396113 0.558903 0.728507
6197.602539 4156.672852 6634.400879 0.396113 0.558903 0.728507
6197.602539 4156.672852 6634.400879 0.861123 -0.098041 0.498854
6269.705566 4098.747070 6498.552246 0.861123 -0.098041 0.498854
6412.509766 4420.359375 6315.250977 0.861123 -0.098041 0.498854
6197.602539 4156.672852 6634.400879 -0.277662 0.253749 0.926561
5866.378418 4722.937500 6380.065430 -0.277662 0.253749 0.926561
5817.030762 4281.470215 6486.178223 -0.277662 0.253749 0.926561
3 0 1 2
3 3 4 5
3 6 7 8
3 9 10 11
3 12 13 14
3 15 16 17
3 18 19 20
3 21 22 23
3 24 25 26
3 27 28 29
3 30 31 32
3 33 34 35
3 36 37 38
3 39 40 41
3 42 43 44
3 45 46 47
3 48 49 50
3 51 52 53
3 54 55 56
3 57 58 59
3 60 61 62
3 63 64 65
3 66 67 68
3 69 70 71
3 72 73 74
3 75 76 77
3 78 79 80
3 81 82 83
3 84 85 86
3 87 88 89
3 90 91 92
3 93 94 95
3 96 97 98
3 99 100 101
3 102 103 104
3 105 106 107
