ply
format ascii 1.0
comment Created by Blender 2.80 (sub 75) - www.blender.org, source file: 'downsample_ccf.blend'
element vertex 210
property float x
property float y
property float z
property float nx
property float ny
property float nz
element face 70
property list uchar uint vertex_indices
end_header
2048.634277 4109.721680 4340.413574 -0.370567 0.606341 -0.703584
1949.616943 3843.821045 4163.414551 -0.370567 0.606341 -0.703584
1830.561890 4105.619629 4451.733887 -0.370567 0.606341 -0.703584
1947.835083 3188.916260 4335.999512 0.136094 -0.252802 -0.957898
1705.462524 3543.633789 4207.949707 0.136094 -0.252802 -0.957898
1949.616943 3843.821045 4163.414551 0.136094 -0.252802 -0.957898
2293.320557 3908.632080 4354.045898 0.504585 -0.221291 -0.834520
1947.835083 3188.916260 4335.999512 0.504585 -0.221291 -0.834520
1949.616943 3843.821045 4163.414551 0.504585 -0.221291 -0.834520
1705.462524 3543.633789 4207.949707 -0.557806 0.341457 -0.756478
1491.511108 3702.339355 4437.347656 -0.557806 0.341457 -0.756478
1949.616943 3843.821045 4163.414551 -0.557806 0.341457 -0.756478
1949.616943 3843.821045 4163.414551 -0.553885 0.489690 -0.673361
1491.511108 3702.339355 4437.347656 -0.553885 0.489690 -0.673361
1830.561890 4105.619629 4451.733887 -0.553885 0.489690 -0.673361
2293.320557 3908.632080 4354.045898 0.382376 0.409110 -0.828504
1949.616943 3843.821045 4163.414551 0.382376 0.409110 -0.828504
2048.634277 4109.721680 4340.413574 0.382376 0.409110 -0.828504
1705.462524 3543.633789 4207.949707 -0.353085 -0.521632 -0.776680
1947.835083 3188.916260 4335.999512 -0.353085 -0.521632 -0.776680
1445.650269 3277.323486 4504.921387 -0.353085 -0.521632 -0.776680
1445.650269 3277.323486 4504.921387 -0.711097 -0.084602 -0.697986
1346.343018 3467.069092 4583.095215 -0.711097 -0.084602 -0.697986
1705.462524 3543.633789 4207.949707 -0.711097 -0.084602 -0.697986
1705.462524 3543.633789 4207.949707 -0.724251 0.019899 -0.689250
1346.343018 3467.069092 4583.095215 -0.724251 0.019899 -0.689250
1491.511108 3702.339355 4437.347656 -0.724251 0.019899 -0.689250
1947.835083 3188.916260 4335.999512 0.649815 -0.294359 -0.700781
2293.320557 3908.632080 4354.045898 0.649815 -0.294359 -0.700781
2366.575684 3715.329834 4503.168945 0.649815 -0.294359 -0.700781
1947.835083 3188.916260 4335.999512 -0.310989 -0.806863 -0.502253
1916.600952 3084.201660 4523.562012 -0.310989 -0.806863 -0.502253
1445.650269 3277.323486 4504.921387 -0.310989 -0.806863 -0.502253
1916.600952 3084.201660 4523.562012 0.796861 -0.574208 -0.187877
1947.835083 3188.916260 4335.999512 0.796861 -0.574208 -0.187877
2366.575684 3715.329834 4503.168945 0.796861 -0.574208 -0.187877
2366.575684 3715.329834 4503.168945 0.944772 0.124009 -0.303361
2293.320557 3908.632080 4354.045898 0.944772 0.124009 -0.303361
2370.289551 3952.276611 4611.595215 0.944772 0.124009 -0.303361
2048.634277 4109.721680 4340.413574 -0.127293 0.968577 -0.213672
1830.561890 4105.619629 4451.733887 -0.127293 0.968577 -0.213672
1995.290771 4192.081543 4745.530762 -0.127293 0.968577 -0.213672
1568.799805 3799.471436 4717.228516 -0.765160 0.643726 -0.012106
1830.561890 4105.619629 4451.733887 -0.765160 0.643726 -0.012106
1491.511108 3702.339355 4437.347656 -0.765160 0.643726 -0.012106
2048.634277 4109.721680 4340.413574 0.619716 0.735509 -0.273823
2173.638184 4178.551758 4808.204590 0.619716 0.735509 -0.273823
2293.320557 3908.632080 4354.045898 0.619716 0.735509 -0.273823
2173.638184 4178.551758 4808.204590 0.574889 0.760952 -0.300758
2370.289551 3952.276611 4611.595215 0.574889 0.760952 -0.300758
2293.320557 3908.632080 4354.045898 0.574889 0.760952 -0.300758
1491.511108 3702.339355 4437.347656 -0.838195 0.543690 0.042780
1346.343018 3467.069092 4583.095215 -0.838195 0.543690 0.042780
1568.799805 3799.471436 4717.228516 -0.838195 0.543690 0.042780
1512.633301 3398.765381 4725.263672 -0.339390 -0.776383 0.531078
1445.650269 3277.323486 4504.921387 -0.339390 -0.776383 0.531078
1916.600952 3084.201660 4523.562012 -0.339390 -0.776383 0.531078
2074.411377 3319.119385 4821.615723 0.814363 -0.579782 0.025788
1916.600952 3084.201660 4523.562012 0.814363 -0.579782 0.025788
2366.575684 3715.329834 4503.168945 0.814363 -0.579782 0.025788
1568.799805 3799.471436 4717.228516 -0.673830 0.720018 0.165914
1995.290771 4192.081543 4745.530762 -0.673830 0.720018 0.165914
1830.561890 4105.619629 4451.733887 -0.673830 0.720018 0.165914
2048.634277 4109.721680 4340.413574 0.137138 0.974066 -0.179969
1995.290771 4192.081543 4745.530762 0.137138 0.974066 -0.179969
2173.638184 4178.551758 4808.204590 0.137138 0.974066 -0.179969
2366.575684 3715.329834 4503.168945 0.970201 -0.113231 0.214215
2370.289551 3952.276611 4611.595215 0.970201 -0.113231 0.214215
2316.923584 3912.937988 4832.500977 0.970201 -0.113231 0.214215
1916.600952 3084.201660 4523.562012 -0.215708 -0.708123 0.672333
2074.411377 3319.119385 4821.615723 -0.215708 -0.708123 0.672333
1512.633301 3398.765381 4725.263672 -0.215708 -0.708123 0.672333
1445.650269 3277.323486 4504.921387 -0.660571 -0.554327 0.506328
1512.633301 3398.765381 4725.263672 -0.660571 -0.554327 0.506328
1346.343018 3467.069092 4583.095215 -0.660571 -0.554327 0.506328
1346.343018 3467.069092 4583.095215 -0.621680 0.102711 0.776508
1512.633301 3398.765381 4725.263672 -0.621680 0.102711 0.776508
1568.799805 3799.471436 4717.228516 -0.621680 0.102711 0.776508
2074.411377 3319.119385 4821.615723 0.866132 -0.360078 0.346640
2366.575684 3715.329834 4503.168945 0.866132 -0.360078 0.346640
2316.923584 3912.937988 4832.500977 0.866132 -0.360078 0.346640
2173.638184 4178.551758 4808.204590 0.832272 0.475100 0.285664
2316.923584 3912.937988 4832.500977 0.832272 0.475100 0.285664
2370.289551 3952.276611 4611.595215 0.832272 0.475100 0.285664
1512.633301 3398.765381 4725.263672 -0.268186 0.056876 0.961687
2105.052490 4001.179932 4854.844238 -0.268186 0.056876 0.961687
1568.799805 3799.471436 4717.228516 -0.268186 0.056876 0.961687
2074.411377 3319.119385 4821.615723 -0.174428 -0.040095 0.983853
2105.052490 4001.179932 4854.844238 -0.174428 -0.040095 0.983853
1512.633301 3398.765381 4725.263672 -0.174428 -0.040095 0.983853
1995.290771 4192.081543 4745.530762 -0.343995 0.309782 0.886399
1568.799805 3799.471436 4717.228516 -0.343995 0.309782 0.886399
2105.052490 4001.179932 4854.844238 -0.343995 0.309782 0.886399
2173.638184 4178.551758 4808.204590 -0.287584 0.346031 0.893061
1995.290771 4192.081543 4745.530762 -0.287584 0.346031 0.893061
2105.052490 4001.179932 4854.844238 -0.287584 0.346031 0.893061
2316.923584 3912.937988 4832.500977 0.083198 -0.052220 0.995164
2105.052490 4001.179932 4854.844238 0.083198 -0.052220 0.995164
2074.411377 3319.119385 4821.615723 0.083198 -0.052220 0.995164
2316.923584 3912.937988 4832.500977 0.178920 0.184911 0.966331
2173.638184 4178.551758 4808.204590 0.178920 0.184911 0.966331
2105.052490 4001.179932 4854.844238 0.178920 0.184911 0.966331
2290.177490 3950.953613 6539.353516 -0.035286 -0.023522 -0.999100
2078.216309 3328.486084 6561.494141 -0.035286 -0.023522 -0.999100
1812.056030 3490.519531 6567.079590 -0.035286 -0.023522 -0.999100
1895.213745 4080.052002 6562.639648 -0.086271 -0.084888 -0.992649
2144.993164 4175.744629 6532.748047 -0.086271 -0.084888 -0.992649
2290.177490 3950.953613 6539.353516 -0.086271 -0.084888 -0.992649
2290.177490 3950.953613 6539.353516 0.784066 -0.286571 -0.550561
2389.949707 3761.937988 6779.825684 0.784066 -0.286571 -0.550561
2078.216309 3328.486084 6561.494141 0.784066 -0.286571 -0.550561
2290.177490 3950.953613 6539.353516 -0.058611 0.000749 -0.998281
1812.056030 3490.519531 6567.079590 -0.058611 0.000749 -0.998281
1895.213745 4080.052002 6562.639648 -0.058611 0.000749 -0.998281
2144.993164 4175.744629 6532.748047 0.776621 0.489955 -0.395983
2315.508789 4021.681396 6676.546875 0.776621 0.489955 -0.395983
2290.177490 3950.953613 6539.353516 0.776621 0.489955 -0.395983
1812.056030 3490.519531 6567.079590 -0.269213 -0.412212 -0.870406
2078.216309 3328.486084 6561.494141 -0.269213 -0.412212 -0.870406
1630.603394 3236.582764 6743.462891 -0.269213 -0.412212 -0.870406
1453.345947 3654.098633 6706.557617 -0.269475 -0.045468 -0.961933
1895.213745 4080.052002 6562.639648 -0.269475 -0.045468 -0.961933
1397.091309 3305.576660 6738.790527 -0.269475 -0.045468 -0.961933
1812.056030 3490.519531 6567.079590 -0.400689 0.049630 -0.914869
1397.091309 3305.576660 6738.790527 -0.400689 0.049630 -0.914869
1895.213745 4080.052002 6562.639648 -0.400689 0.049630 -0.914869
2087.590088 4137.567383 6948.702148 0.587742 0.794255 0.154009
2315.508789 4021.681396 6676.546875 0.587742 0.794255 0.154009
2144.993164 4175.744629 6532.748047 0.587742 0.794255 0.154009
1963.736816 3117.394775 6754.046387 -0.191102 -0.602914 -0.774580
1630.603394 3236.582764 6743.462891 -0.191102 -0.602914 -0.774580
2078.216309 3328.486084 6561.494141 -0.191102 -0.602914 -0.774580
1812.056030 3490.519531 6567.079590 -0.130849 -0.500805 -0.855612
1630.603394 3236.582764 6743.462891 -0.130849 -0.500805 -0.855612
1397.091309 3305.576660 6738.790527 -0.130849 -0.500805 -0.855612
2144.993164 4175.744629 6532.748047 0.161971 0.980381 0.112334
1901.256958 4173.792969 6901.215332 0.161971 0.980381 0.112334
2087.590088 4137.567383 6948.702148 0.161971 0.980381 0.112334
1963.736816 3117.394775 6754.046387 0.831519 -0.545699 -0.103870
2078.216309 3328.486084 6561.494141 0.831519 -0.545699 -0.103870
2389.949707 3761.937988 6779.825684 0.831519 -0.545699 -0.103870
2389.949707 3761.937988 6779.825684 0.950277 0.168117 -0.262128
2290.177490 3950.953613 6539.353516 0.950277 0.168117 -0.262128
2315.508789 4021.681396 6676.546875 0.950277 0.168117 -0.262128
2144.993164 4175.744629 6532.748047 -0.372231 0.896176 -0.241479
1895.213745 4080.052002 6562.639648 -0.372231 0.896176 -0.241479
1901.256958 4173.792969 6901.215332 -0.372231 0.896176 -0.241479
1934.819946 3115.098633 6955.413574 0.826760 -0.551203 0.112440
1963.736816 3117.394775 6754.046387 0.826760 -0.551203 0.112440
2389.949707 3761.937988 6779.825684 0.826760 -0.551203 0.112440
1901.256958 4173.792969 6901.215332 -0.712281 0.679613 -0.175450
1895.213745 4080.052002 6562.639648 -0.712281 0.679613 -0.175450
1453.345947 3654.098633 6706.557617 -0.712281 0.679613 -0.175450
1397.091309 3305.576660 6738.790527 -0.979684 0.145351 -0.138176
1418.061279 3603.145508 6903.131348 -0.979684 0.145351 -0.138176
1453.345947 3654.098633 6706.557617 -0.979684 0.145351 -0.138176
1630.603394 3236.582764 6743.462891 -0.334629 -0.940515 -0.058778
1963.736816 3117.394775 6754.046387 -0.334629 -0.940515 -0.058778
1934.819946 3115.098633 6955.413574 -0.334629 -0.940515 -0.058778
1453.345947 3654.098633 6706.557617 -0.762756 0.645966 0.030525
1418.061279 3603.145508 6903.131348 -0.762756 0.645966 0.030525
1901.256958 4173.792969 6901.215332 -0.762756 0.645966 0.030525
2087.590088 4137.567383 6948.702148 0.672747 0.688810 0.270096
2394.221924 3839.684814 6944.625977 0.672747 0.688810 0.270096
2315.508789 4021.681396 6676.546875 0.672747 0.688810 0.270096
2394.221924 3839.684814 6944.625977 0.824655 -0.519517 0.223711
1934.819946 3115.098633 6955.413574 0.824655 -0.519517 0.223711
2389.949707 3761.937988 6779.825684 0.824655 -0.519517 0.223711
1630.603394 3236.582764 6743.462891 -0.277643 -0.949563 -0.145756
1934.819946 3115.098633 6955.413574 -0.277643 -0.949563 -0.145756
1397.091309 3305.576660 6738.790527 -0.277643 -0.949563 -0.145756
2315.508789 4021.681396 6676.546875 0.965594 0.224642 -0.131010
2394.221924 3839.684814 6944.625977 0.965594 0.224642 -0.131010
2389.949707 3761.937988 6779.825684 0.965594 0.224642 -0.131010
1397.091309 3305.576660 6738.790527 -0.853362 -0.204661 0.479466
1570.389404 3439.838135 7104.539551 -0.853362 -0.204661 0.479466
1418.061279 3603.145508 6903.131348 -0.853362 -0.204661 0.479466
1397.091309 3305.576660 6738.790527 -0.459714 -0.740809 0.489761
1934.819946 3115.098633 6955.413574 -0.459714 -0.740809 0.489761
1570.389404 3439.838135 7104.539551 -0.459714 -0.740809 0.489761
1901.256958 4173.792969 6901.215332 -0.632848 0.537734 0.557086
1418.061279 3603.145508 6903.131348 -0.632848 0.537734 0.557086
1958.955811 3940.819336 7191.641602 -0.632848 0.537734 0.557086
1939.218750 3393.623291 7143.885742 -0.156529 -0.551824 0.819139
1570.389404 3439.838135 7104.539551 -0.156529 -0.551824 0.819139
1934.819946 3115.098633 6955.413574 -0.156529 -0.551824 0.819139
1934.819946 3115.098633 6955.413574 0.676599 -0.419972 0.604845
2394.221924 3839.684814 6944.625977 0.676599 -0.419972 0.604845
1939.218750 3393.623291 7143.885742 0.676599 -0.419972 0.604845
1939.218750 3393.623291 7143.885742 0.607738 -0.289601 0.739450
2394.221924 3839.684814 6944.625977 0.607738 -0.289601 0.739450
2124.369141 3793.942871 7148.497559 0.607738 -0.289601 0.739450
2394.221924 3839.684814 6944.625977 0.522308 0.361334 0.772420
1958.955811 3940.819336 7191.641602 0.522308 0.361334 0.772420
2124.369141 3793.942871 7148.497559 0.522308 0.361334 0.772420
1958.955811 3940.819336 7191.641602 -0.598403 0.337818 0.726494
1418.061279 3603.145508 6903.131348 -0.598403 0.337818 0.726494
1570.389404 3439.838135 7104.539551 -0.598403 0.337818 0.726494
2087.590088 4137.567383 6948.702148 0.510336 0.515910 0.688036
1958.955811 3940.819336 7191.641602 0.510336 0.515910 0.688036
2394.221924 3839.684814 6944.625977 0.510336 0.515910 0.688036
2087.590088 4137.567383 6948.702148 -0.008225 0.779215 0.626703
1901.256958 4173.792969 6901.215332 -0.008225 0.779215 0.626703
1958.955811 3940.819336 7191.641602 -0.008225 0.779215 0.626703
1570.389404 3439.838135 7104.539551 -0.115897 -0.082208 0.989853
1939.218750 3393.623291 7143.885742 -0.115897 -0.082208 0.989853
1958.955811 3940.819336 7191.641602 -0.115897 -0.082208 0.989853
2124.369141 3793.942871 7148.497559 0.174165 -0.091847 0.980424
1958.955811 3940.819336 7191.641602 0.174165 -0.091847 0.980424
1939.218750 3393.623291 7143.885742 0.174165 -0.091847 0.980424
3 0 1 2
3 3 4 5
3 6 7 8
3 9 10 11
3 12 13 14
3 15 16 17
3 18 19 20
3 21 22 23
3 24 25 26
3 27 28 29
3 30 31 32
3 33 34 35
3 36 37 38
3 39 40 41
3 42 43 44
3 45 46 47
3 48 49 50
3 51 52 53
3 54 55 56
3 57 58 59
3 60 61 62
3 63 64 65
3 66 67 68
3 69 70 71
3 72 73 74
3 75 76 77
3 78 79 80
3 81 82 83
3 84 85 86
3 87 88 89
3 90 91 92
3 93 94 95
3 96 97 98
3 99 100 101
3 102 103 104
3 105 106 107
3 108 109 110
3 111 112 113
3 114 115 116
3 117 118 119
3 120 121 122
3 123 124 125
3 126 127 128
3 129 130 131
3 132 133 134
3 135 136 137
3 138 139 140
3 141 142 143
3 144 145 146
3 147 148 149
3 150 151 152
3 153 154 155
3 156 157 158
3 159 160 161
3 162 163 164
3 165 166 167
3 168 169 170
3 171 172 173
3 174 175 176
3 177 178 179
3 180 181 182
3 183 184 185
3 186 187 188
3 189 190 191
3 192 193 194
3 195 196 197
3 198 199 200
3 201 202 203
3 204 205 206
3 207 208 209
