ply
format ascii 1.0
comment Created by Blender 2.80 (sub 75) - www.blender.org, source file: 'downsample_ccf.blend'
element vertex 318
property float x
property float y
property float z
property float nx
property float ny
property float nz
element face 106
property list uchar uint vertex_indices
end_header
8377.583008 3892.435303 3992.310547 -0.019662 0.162918 -0.986444
8526.503906 3706.429443 3958.622070 -0.019662 0.162918 -0.986444
8396.516602 3261.857422 3887.789062 -0.019662 0.162918 -0.986444
8258.626953 2963.426758 3954.107178 0.544206 -0.413647 -0.729888
8396.516602 3261.857422 3887.789062 0.544206 -0.413647 -0.729888
8395.286133 3066.694092 3997.476074 0.544206 -0.413647 -0.729888
8526.503906 3706.429443 3958.622070 0.909160 -0.208379 -0.360564
8395.286133 3066.694092 3997.476074 0.909160 -0.208379 -0.360564
8396.516602 3261.857422 3887.789062 0.909160 -0.208379 -0.360564
8377.583008 3892.435303 3992.310547 -0.344342 0.143452 -0.927820
8396.516602 3261.857422 3887.789062 -0.344342 0.143452 -0.927820
7968.044922 3595.374512 4098.373535 -0.344342 0.143452 -0.927820
8258.626953 2963.426758 3954.107178 0.602031 -0.556040 -0.573043
8395.286133 3066.694092 3997.476074 0.602031 -0.556040 -0.573043
8251.649414 2829.346924 4076.878174 0.602031 -0.556040 -0.573043
8258.626953 2963.426758 3954.107178 -0.439066 0.003214 -0.898449
7968.044922 3595.374512 4098.373535 -0.439066 0.003214 -0.898449
8396.516602 3261.857422 3887.789062 -0.439066 0.003214 -0.898449
8526.503906 3706.429443 3958.622070 0.448818 0.494183 -0.744544
8377.583008 3892.435303 3992.310547 0.448818 0.494183 -0.744544
8548.395508 3973.352539 4148.985840 0.448818 0.494183 -0.744544
7725.837402 2762.488770 4257.611328 -0.505518 0.038454 -0.861959
7907.034668 3113.839355 4167.018066 -0.505518 0.038454 -0.861959
8258.626953 2963.426758 3954.107178 -0.505518 0.038454 -0.861959
8258.626953 2963.426758 3954.107178 -0.533671 -0.052706 -0.844048
7907.034668 3113.839355 4167.018066 -0.533671 -0.052706 -0.844048
7968.044922 3595.374512 4098.373535 -0.533671 -0.052706 -0.844048
7968.044922 3595.374512 4098.373535 -0.565505 0.565164 -0.600661
8320.858398 4140.422852 4279.047363 -0.565505 0.565164 -0.600661
8377.583008 3892.435303 3992.310547 -0.565505 0.565164 -0.600661
8377.583008 3892.435303 3992.310547 0.205557 0.759967 -0.616601
8320.858398 4140.422852 4279.047363 0.205557 0.759967 -0.616601
8548.395508 3973.352539 4148.985840 0.205557 0.759967 -0.616601
8526.503906 3706.429443 3958.622070 0.958447 -0.208420 -0.194786
8581.360352 3669.621582 4267.927734 0.958447 -0.208420 -0.194786
8395.286133 3066.694092 3997.476074 0.958447 -0.208420 -0.194786
8526.503906 3706.429443 3958.622070 0.984647 0.040362 -0.169827
8548.395508 3973.352539 4148.985840 0.984647 0.040362 -0.169827
8581.360352 3669.621582 4267.927734 0.984647 0.040362 -0.169827
7725.837402 2762.488770 4257.611328 -0.167361 -0.661043 -0.731446
8258.626953 2963.426758 3954.107178 -0.167361 -0.661043 -0.731446
8251.649414 2829.346924 4076.878174 -0.167361 -0.661043 -0.731446
8320.858398 4140.422852 4279.047363 -0.485309 0.541658 -0.686354
7968.044922 3595.374512 4098.373535 -0.485309 0.541658 -0.686354
7956.014648 3864.320312 4319.126953 -0.485309 0.541658 -0.686354
8395.286133 3066.694092 3997.476074 0.855805 -0.517296 0.001843
8170.389160 2696.486816 4519.114258 0.855805 -0.517296 0.001843
8251.649414 2829.346924 4076.878174 0.855805 -0.517296 0.001843
7698.895508 3121.193848 4398.398438 -0.743476 -0.001136 -0.668761
7968.044922 3595.374512 4098.373535 -0.743476 -0.001136 -0.668761
7907.034668 3113.839355 4167.018066 -0.743476 -0.001136 -0.668761
8251.649414 2829.346924 4076.878174 -0.112002 -0.780782 -0.614683
8081.524902 2589.949219 4411.964355 -0.112002 -0.780782 -0.614683
7725.837402 2762.488770 4257.611328 -0.112002 -0.780782 -0.614683
7725.837402 2762.488770 4257.611328 -0.724600 0.203950 -0.658300
7698.895508 3121.193848 4398.398438 -0.724600 0.203950 -0.658300
7907.034668 3113.839355 4167.018066 -0.724600 0.203950 -0.658300
8548.395508 3973.352539 4148.985840 0.972699 0.168188 0.159902
8524.662109 3802.593994 4472.965820 0.972699 0.168188 0.159902
8581.360352 3669.621582 4267.927734 0.972699 0.168188 0.159902
8581.360352 3669.621582 4267.927734 0.924151 -0.351905 0.148687
8170.389160 2696.486816 4519.114258 0.924151 -0.351905 0.148687
8395.286133 3066.694092 3997.476074 0.924151 -0.351905 0.148687
8170.389160 2696.486816 4519.114258 0.786910 -0.615745 -0.040393
8081.524902 2589.949219 4411.964355 0.786910 -0.615745 -0.040393
8251.649414 2829.346924 4076.878174 0.786910 -0.615745 -0.040393
8081.524902 2589.949219 4411.964355 -0.217720 -0.860636 -0.460331
7747.385742 2516.168945 4707.939941 -0.217720 -0.860636 -0.460331
7725.837402 2762.488770 4257.611328 -0.217720 -0.860636 -0.460331
7725.837402 2762.488770 4257.611328 -0.411442 -0.807778 -0.422149
7747.385742 2516.168945 4707.939941 -0.411442 -0.807778 -0.422149
7552.883301 2751.798340 4446.634766 -0.411442 -0.807778 -0.422149
7698.895508 3121.193848 4398.398438 -0.728185 0.202322 -0.654838
7725.837402 2762.488770 4257.611328 -0.728185 0.202322 -0.654838
7552.883301 2751.798340 4446.634766 -0.728185 0.202322 -0.654838
7956.014648 3864.320312 4319.126953 -0.605521 0.795059 -0.034997
8008.586426 3912.242188 4498.208984 -0.605521 0.795059 -0.034997
8320.858398 4140.422852 4279.047363 -0.605521 0.795059 -0.034997
8345.304688 4062.638428 4500.409180 0.648737 0.737547 0.187523
8548.395508 3973.352539 4148.985840 0.648737 0.737547 0.187523
8320.858398 4140.422852 4279.047363 0.648737 0.737547 0.187523
7698.921387 3428.238037 4692.153320 -0.821946 0.562276 0.090829
8008.586426 3912.242188 4498.208984 -0.821946 0.562276 0.090829
7956.014648 3864.320312 4319.126953 -0.821946 0.562276 0.090829
7968.044922 3595.374512 4098.373535 -0.881464 0.275440 -0.383607
7552.883301 2751.798340 4446.634766 -0.881464 0.275440 -0.383607
7956.014648 3864.320312 4319.126953 -0.881464 0.275440 -0.383607
8581.360352 3669.621582 4267.927734 0.872816 -0.262383 0.411518
8524.662109 3802.593994 4472.965820 0.872816 -0.262383 0.411518
8170.389160 2696.486816 4519.114258 0.872816 -0.262383 0.411518
8345.304688 4062.638428 4500.409180 0.793404 0.512581 0.328285
8524.662109 3802.593994 4472.965820 0.793404 0.512581 0.328285
8548.395508 3973.352539 4148.985840 0.793404 0.512581 0.328285
8320.858398 4140.422852 4279.047363 -0.384874 0.856658 0.343525
8008.586426 3912.242188 4498.208984 -0.384874 0.856658 0.343525
8345.304688 4062.638428 4500.409180 -0.384874 0.856658 0.343525
7463.345215 2822.423096 4814.221680 -0.912492 0.298599 -0.279638
7956.014648 3864.320312 4319.126953 -0.912492 0.298599 -0.279638
7552.883301 2751.798340 4446.634766 -0.912492 0.298599 -0.279638
7974.338867 2553.066650 4719.770508 0.679429 -0.718131 0.150546
8081.524902 2589.949219 4411.964355 0.679429 -0.718131 0.150546
8170.389160 2696.486816 4519.114258 0.679429 -0.718131 0.150546
7552.883301 2751.798340 4446.634766 0.897806 -0.314643 0.308129
7968.044922 3595.374512 4098.373535 0.897806 -0.314643 0.308129
7698.895508 3121.193848 4398.398438 0.897806 -0.314643 0.308129
8524.662109 3802.593994 4472.965820 0.860167 -0.257125 0.440455
8144.379395 2997.379883 4745.561523 0.860167 -0.257125 0.440455
8170.389160 2696.486816 4519.114258 0.860167 -0.257125 0.440455
8524.662109 3802.593994 4472.965820 0.533696 0.284038 0.796549
8345.304688 4062.638428 4500.409180 0.533696 0.284038 0.796549
8300.877930 3727.517334 4649.674805 0.533696 0.284038 0.796549
7463.345215 2822.423096 4814.221680 -0.912439 0.298383 -0.280040
7698.921387 3428.238037 4692.153320 -0.912439 0.298383 -0.280040
7956.014648 3864.320312 4319.126953 -0.912439 0.298383 -0.280040
7463.345215 2822.423096 4814.221680 -0.741128 -0.669352 -0.051923
7552.883301 2751.798340 4446.634766 -0.741128 -0.669352 -0.051923
7747.385742 2516.168945 4707.939941 -0.741128 -0.669352 -0.051923
8345.304688 4062.638428 4500.409180 -0.265467 0.583116 0.767791
8008.586426 3912.242188 4498.208984 -0.265467 0.583116 0.767791
7743.387207 3294.849609 4875.407227 -0.265467 0.583116 0.767791
8081.524902 2589.949219 4411.964355 0.163275 -0.984685 -0.061132
7974.338867 2553.066650 4719.770508 0.163275 -0.984685 -0.061132
7747.385742 2516.168945 4707.939941 0.163275 -0.984685 -0.061132
8300.877930 3727.517334 4649.674805 0.060393 0.399439 0.914768
8345.304688 4062.638428 4500.409180 0.060393 0.399439 0.914768
7743.387207 3294.849609 4875.407227 0.060393 0.399439 0.914768
8144.379395 2997.379883 4745.561523 0.782233 -0.330035 0.528383
7974.338867 2553.066650 4719.770508 0.782233 -0.330035 0.528383
8170.389160 2696.486816 4519.114258 0.782233 -0.330035 0.528383
8144.379395 2997.379883 4745.561523 0.625968 -0.031841 0.779198
8524.662109 3802.593994 4472.965820 0.625968 -0.031841 0.779198
8300.877930 3727.517334 4649.674805 0.625968 -0.031841 0.779198
7698.921387 3428.238037 4692.153320 -0.569551 0.592627 0.569566
7743.387207 3294.849609 4875.407227 -0.569551 0.592627 0.569566
8008.586426 3912.242188 4498.208984 -0.569551 0.592627 0.569566
7747.385742 2516.168945 4707.939941 0.134542 -0.933826 0.331461
7974.338867 2553.066650 4719.770508 0.134542 -0.933826 0.331461
7715.056152 2574.656738 4885.840332 0.134542 -0.933826 0.331461
8144.379395 2997.379883 4745.561523 0.404125 0.033424 0.914093
8300.877930 3727.517334 4649.674805 0.404125 0.033424 0.914093
7738.587402 2713.135254 4935.357910 0.404125 0.033424 0.914093
7715.056152 2574.656738 4885.840332 -0.712222 -0.694933 0.099040
7463.345215 2822.423096 4814.221680 -0.712222 -0.694933 0.099040
7747.385742 2516.168945 4707.939941 -0.712222 -0.694933 0.099040
7463.345215 2822.423096 4814.221680 -0.780235 0.400251 0.480659
7743.387207 3294.849609 4875.407227 -0.780235 0.400251 0.480659
7698.921387 3428.238037 4692.153320 -0.780235 0.400251 0.480659
7743.387207 3294.849609 4875.407227 0.309416 0.094958 0.946174
7738.587402 2713.135254 4935.357910 0.309416 0.094958 0.946174
8300.877930 3727.517334 4649.674805 0.309416 0.094958 0.946174
7715.056152 2574.656738 4885.840332 0.508819 -0.242672 0.825962
7974.338867 2553.066650 4719.770508 0.508819 -0.242672 0.825962
8144.379395 2997.379883 4745.561523 0.508819 -0.242672 0.825962
7738.587402 2713.135254 4935.357910 0.589767 -0.358906 0.723437
7715.056152 2574.656738 4885.840332 0.589767 -0.358906 0.723437
8144.379395 2997.379883 4745.561523 0.589767 -0.358906 0.723437
7585.524902 2889.589355 4926.090332 -0.729937 0.357214 0.582743
7743.387207 3294.849609 4875.407227 -0.729937 0.357214 0.582743
7463.345215 2822.423096 4814.221680 -0.729937 0.357214 0.582743
7463.345215 2822.423096 4814.221680 -0.466299 -0.226542 0.855128
7715.056152 2574.656738 4885.840332 -0.466299 -0.226542 0.855128
7738.587402 2713.135254 4935.357910 -0.466299 -0.226542 0.855128
7738.587402 2713.135254 4935.357910 -0.496183 -0.389657 0.775867
7585.524902 2889.589355 4926.090332 -0.496183 -0.389657 0.775867
7463.345215 2822.423096 4814.221680 -0.496183 -0.389657 0.775867
7738.587402 2713.135254 4935.357910 0.057316 0.101879 0.993144
7743.387207 3294.849609 4875.407227 0.057316 0.101879 0.993144
7585.524902 2889.589355 4926.090332 0.057316 0.101879 0.993144
7784.625000 3220.915527 6480.571289 -0.161441 0.027825 -0.986490
7763.637207 2609.480713 6466.759766 -0.161441 0.027825 -0.986490
7482.657227 2847.262939 6519.449707 -0.161441 0.027825 -0.986490
7482.657227 2847.262939 6519.449707 -0.405792 0.236070 -0.882952
7704.554688 3312.052490 6541.737305 -0.405792 0.236070 -0.882952
7784.625000 3220.915527 6480.571289 -0.405792 0.236070 -0.882952
7659.852539 2563.782959 6558.523926 -0.493793 -0.414057 -0.764673
7482.657227 2847.262939 6519.449707 -0.493793 -0.414057 -0.764673
7763.637207 2609.480713 6466.759766 -0.493793 -0.414057 -0.764673
7763.637207 2609.480713 6466.759766 0.364254 0.008533 -0.931261
7784.625000 3220.915527 6480.571289 0.364254 0.008533 -0.931261
8171.993652 3202.964355 6631.922363 0.364254 0.008533 -0.931261
7704.554688 3312.052490 6541.737305 -0.813965 0.408409 -0.413113
7482.657227 2847.262939 6519.449707 -0.813965 0.408409 -0.413113
7688.948242 3426.702637 6685.831543 -0.813965 0.408409 -0.413113
7659.852539 2563.782959 6558.523926 -0.849112 -0.527767 0.021684
7552.181641 2752.400146 6933.052734 -0.849112 -0.527767 0.021684
7482.657227 2847.262939 6519.449707 -0.849112 -0.527767 0.021684
7763.637207 2609.480713 6466.759766 0.168719 -0.945107 -0.279835
8060.658203 2580.164551 6744.851562 0.168719 -0.945107 -0.279835
7659.852539 2563.782959 6558.523926 0.168719 -0.945107 -0.279835
7763.637207 2609.480713 6466.759766 0.649291 -0.246530 -0.719475
8171.993652 3202.964355 6631.922363 0.649291 -0.246530 -0.719475
8060.658203 2580.164551 6744.851562 0.649291 -0.246530 -0.719475
8060.658203 2580.164551 6744.851562 0.122695 -0.976335 -0.178090
7859.342773 2537.757324 6838.642090 0.122695 -0.976335 -0.178090
7659.852539 2563.782959 6558.523926 0.122695 -0.976335 -0.178090
8532.563477 3630.730713 6965.511719 0.798111 -0.242672 -0.551479
8060.658203 2580.164551 6744.851562 0.798111 -0.242672 -0.551479
8171.993652 3202.964355 6631.922363 0.798111 -0.242672 -0.551479
8171.993652 3202.964355 6631.922363 0.365897 0.145227 -0.919254
7784.625000 3220.915527 6480.571289 0.365897 0.145227 -0.919254
8480.553711 3841.809326 6855.667480 0.365897 0.145227 -0.919254
7688.948242 3426.702637 6685.831543 -0.577995 0.606918 -0.545502
8098.312500 3983.957764 6872.078125 -0.577995 0.606918 -0.545502
7704.554688 3312.052490 6541.737305 -0.577995 0.606918 -0.545502
7784.625000 3220.915527 6480.571289 -0.106169 0.488128 -0.866290
7704.554688 3312.052490 6541.737305 -0.106169 0.488128 -0.866290
8098.312500 3983.957764 6872.078125 -0.106169 0.488128 -0.866290
8344.208984 4070.017578 6885.377930 0.255747 0.273516 -0.927245
8480.553711 3841.809326 6855.667480 0.255747 0.273516 -0.927245
7784.625000 3220.915527 6480.571289 0.255747 0.273516 -0.927245
8060.658203 2580.164551 6744.851562 0.272327 -0.949611 0.155167
8162.566406 2667.324951 7099.412598 0.272327 -0.949611 0.155167
7859.342773 2537.757324 6838.642090 0.272327 -0.949611 0.155167
7659.852539 2563.782959 6558.523926 -0.492787 -0.825811 0.274220
7859.342773 2537.757324 6838.642090 -0.492787 -0.825811 0.274220
7552.181641 2752.400146 6933.052734 -0.492787 -0.825811 0.274220
8098.312500 3983.957764 6872.078125 -0.126141 0.493418 -0.860597
8344.208984 4070.017578 6885.377930 -0.126141 0.493418 -0.860597
7784.625000 3220.915527 6480.571289 -0.126141 0.493418 -0.860597
7482.657227 2847.262939 6519.449707 -0.937296 0.270631 0.219625
7552.181641 2752.400146 6933.052734 -0.937296 0.270631 0.219625
7688.948242 3426.702637 6685.831543 -0.937296 0.270631 0.219625
7688.948242 3426.702637 6685.831543 -0.756246 0.622685 -0.200886
7949.685547 3867.943604 7071.983887 -0.756246 0.622685 -0.200886
8098.312500 3983.957764 6872.078125 -0.756246 0.622685 -0.200886
8171.993652 3202.964355 6631.922363 0.758574 -0.143808 -0.635519
8480.553711 3841.809326 6855.667480 0.758574 -0.143808 -0.635519
8532.563477 3630.730713 6965.511719 0.758574 -0.143808 -0.635519
7552.181641 2752.400146 6933.052734 -0.919491 0.285553 0.270178
7690.784180 3156.181885 6977.995605 -0.919491 0.285553 0.270178
7688.948242 3426.702637 6685.831543 -0.919491 0.285553 0.270178
7690.784180 3156.181885 6977.995605 -0.913621 0.295445 0.279300
7949.685547 3867.943604 7071.983887 -0.913621 0.295445 0.279300
7688.948242 3426.702637 6685.831543 -0.913621 0.295445 0.279300
8344.208984 4070.017578 6885.377930 0.683299 0.479884 -0.550286
8485.940430 4057.002197 7050.018066 0.683299 0.479884 -0.550286
8480.553711 3841.809326 6855.667480 0.683299 0.479884 -0.550286
8060.658203 2580.164551 6744.851562 0.901433 -0.351974 -0.252058
8532.563477 3630.730713 6965.511719 0.901433 -0.351974 -0.252058
8376.045898 3005.133789 7279.343750 0.901433 -0.351974 -0.252058
8098.312500 3983.957764 6872.078125 -0.594138 0.803979 0.024851
7949.685547 3867.943604 7071.983887 -0.594138 0.803979 0.024851
8271.500000 4103.763672 7136.687988 -0.594138 0.803979 0.024851
8532.563477 3630.730713 6965.511719 0.960510 0.101940 -0.258900
8480.553711 3841.809326 6855.667480 0.960510 0.101940 -0.258900
8585.437500 3741.513428 7205.292480 0.960510 0.101940 -0.258900
8098.312500 3983.957764 6872.078125 -0.312278 0.925431 -0.214616
8271.500000 4103.763672 7136.687988 -0.312278 0.925431 -0.214616
8344.208984 4070.017578 6885.377930 -0.312278 0.925431 -0.214616
7888.856445 2796.574707 7223.825684 -0.365264 -0.759479 0.538306
7552.181641 2752.400146 6933.052734 -0.365264 -0.759479 0.538306
7859.342773 2537.757324 6838.642090 -0.365264 -0.759479 0.538306
8585.437500 3741.513428 7205.292480 0.954478 0.186412 -0.232858
8480.553711 3841.809326 6855.667480 0.954478 0.186412 -0.232858
8485.940430 4057.002197 7050.018066 0.954478 0.186412 -0.232858
8344.208984 4070.017578 6885.377930 0.181799 0.980156 -0.079018
8271.500000 4103.763672 7136.687988 0.181799 0.980156 -0.079018
8485.940430 4057.002197 7050.018066 0.181799 0.980156 -0.079018
8162.566406 2667.324951 7099.412598 0.868186 -0.478378 -0.131937
8060.658203 2580.164551 6744.851562 0.868186 -0.478378 -0.131937
8376.045898 3005.133789 7279.343750 0.868186 -0.478378 -0.131937
7859.342773 2537.757324 6838.642090 -0.131856 -0.818074 0.559794
8162.566406 2667.324951 7099.412598 -0.131856 -0.818074 0.559794
7888.856445 2796.574707 7223.825684 -0.131856 -0.818074 0.559794
8376.045898 3005.133789 7279.343750 0.956486 -0.280172 -0.081470
8532.563477 3630.730713 6965.511719 0.956486 -0.280172 -0.081470
8585.437500 3741.513428 7205.292480 0.956486 -0.280172 -0.081470
7552.181641 2752.400146 6933.052734 -0.657585 0.143402 0.739607
7888.856445 2796.574707 7223.825684 -0.657585 0.143402 0.739607
7690.784180 3156.181885 6977.995605 -0.657585 0.143402 0.739607
7963.362793 3499.109375 7289.103027 -0.763317 0.020958 0.645684
7690.784180 3156.181885 6977.995605 -0.763317 0.020958 0.645684
7888.856445 2796.574707 7223.825684 -0.763317 0.020958 0.645684
7690.784180 3156.181885 6977.995605 -0.847096 0.245918 0.471118
7963.362793 3499.109375 7289.103027 -0.847096 0.245918 0.471118
7949.685547 3867.943604 7071.983887 -0.847096 0.245918 0.471118
8485.940430 4057.002197 7050.018066 0.939216 0.334429 0.077664
8509.430664 3914.863525 7378.004395 0.939216 0.334429 0.077664
8585.437500 3741.513428 7205.292480 0.939216 0.334429 0.077664
8271.500000 4103.763672 7136.687988 0.333778 0.873412 0.354603
8509.430664 3914.863525 7378.004395 0.333778 0.873412 0.354603
8485.940430 4057.002197 7050.018066 0.333778 0.873412 0.354603
8162.566406 2667.324951 7099.412598 -0.033529 -0.729055 0.683634
8295.242188 2956.866211 7414.698242 -0.033529 -0.729055 0.683634
7888.856445 2796.574707 7223.825684 -0.033529 -0.729055 0.683634
8585.437500 3741.513428 7205.292480 0.958489 -0.261006 0.114782
8417.965820 3251.521484 7489.558594 0.958489 -0.261006 0.114782
8376.045898 3005.133789 7279.343750 0.958489 -0.261006 0.114782
8271.500000 4103.763672 7136.687988 -0.517996 0.520681 0.678654
7949.685547 3867.943604 7071.983887 -0.517996 0.520681 0.678654
8330.888672 3805.729736 7410.677246 -0.517996 0.520681 0.678654
8295.242188 2956.866211 7414.698242 0.759230 -0.606093 0.237110
8162.566406 2667.324951 7099.412598 0.759230 -0.606093 0.237110
8376.045898 3005.133789 7279.343750 0.759230 -0.606093 0.237110
7963.362793 3499.109375 7289.103027 -0.571180 0.400567 0.716449
8330.888672 3805.729736 7410.677246 -0.571180 0.400567 0.716449
7949.685547 3867.943604 7071.983887 -0.571180 0.400567 0.716449
8509.430664 3914.863525 7378.004395 -0.249023 0.628106 0.737204
8271.500000 4103.763672 7136.687988 -0.249023 0.628106 0.737204
8330.888672 3805.729736 7410.677246 -0.249023 0.628106 0.737204
7888.856445 2796.574707 7223.825684 -0.403524 -0.063824 0.912740
8295.242188 2956.866211 7414.698242 -0.403524 -0.063824 0.912740
8417.965820 3251.521484 7489.558594 -0.403524 -0.063824 0.912740
8417.965820 3251.521484 7489.558594 0.833190 -0.434066 0.342608
8295.242188 2956.866211 7414.698242 0.833190 -0.434066 0.342608
8376.045898 3005.133789 7279.343750 0.833190 -0.434066 0.342608
7963.362793 3499.109375 7289.103027 -0.421098 -0.039538 0.906153
7888.856445 2796.574707 7223.825684 -0.421098 -0.039538 0.906153
8417.965820 3251.521484 7489.558594 -0.421098 -0.039538 0.906153
8417.965820 3251.521484 7489.558594 0.895163 -0.048923 0.443046
8585.437500 3741.513428 7205.292480 0.895163 -0.048923 0.443046
8509.430664 3914.863525 7378.004395 0.895163 -0.048923 0.443046
8417.965820 3251.521484 7489.558594 -0.368324 0.074034 0.926745
8330.888672 3805.729736 7410.677246 -0.368324 0.074034 0.926745
7963.362793 3499.109375 7289.103027 -0.368324 0.074034 0.926745
8417.965820 3251.521484 7489.558594 0.086216 0.153651 0.984357
8509.430664 3914.863525 7378.004395 0.086216 0.153651 0.984357
8330.888672 3805.729736 7410.677246 0.086216 0.153651 0.984357
3 0 1 2
3 3 4 5
3 6 7 8
3 9 10 11
3 12 13 14
3 15 16 17
3 18 19 20
3 21 22 23
3 24 25 26
3 27 28 29
3 30 31 32
3 33 34 35
3 36 37 38
3 39 40 41
3 42 43 44
3 45 46 47
3 48 49 50
3 51 52 53
3 54 55 56
3 57 58 59
3 60 61 62
3 63 64 65
3 66 67 68
3 69 70 71
3 72 73 74
3 75 76 77
3 78 79 80
3 81 82 83
3 84 85 86
3 87 88 89
3 90 91 92
3 93 94 95
3 96 97 98
3 99 100 101
3 102 103 104
3 105 106 107
3 108 109 110
3 111 112 113
3 114 115 116
3 117 118 119
3 120 121 122
3 123 124 125
3 126 127 128
3 129 130 131
3 132 133 134
3 135 136 137
3 138 139 140
3 141 142 143
3 144 145 146
3 147 148 149
3 150 151 152
3 153 154 155
3 156 157 158
3 159 160 161
3 162 163 164
3 165 166 167
3 168 169 170
3 171 172 173
3 174 175 176
3 177 178 179
3 180 181 182
3 183 184 185
3 186 187 188
3 189 190 191
3 192 193 194
3 195 196 197
3 198 199 200
3 201 202 203
3 204 205 206
3 207 208 209
3 210 211 212
3 213 214 215
3 216 217 218
3 219 220 221
3 222 223 224
3 225 226 227
3 228 229 230
3 231 232 233
3 234 235 236
3 237 238 239
3 240 241 242
3 243 244 245
3 246 247 248
3 249 250 251
3 252 253 254
3 255 256 257
3 258 259 260
3 261 262 263
3 264 265 266
3 267 268 269
3 270 271 272
3 273 274 275
3 276 277 278
3 279 280 281
3 282 283 284
3 285 286 287
3 288 289 290
3 291 292 293
3 294 295 296
3 297 298 299
3 300 301 302
3 303 304 305
3 306 307 308
3 309 310 311
3 312 313 314
3 315 316 317
