ply
format ascii 1.0
comment Created by Blender 2.80 (sub 75) - www.blender.org, source file: 'downsample_ccf.blend'
element vertex 114
property float x
property float y
property float z
property float nx
property float ny
property float nz
element face 38
property list uchar uint vertex_indices
end_header
7385.951172 3079.269287 1593.479492 -0.244773 -0.412098 -0.877646
7479.250977 2521.751221 1829.240601 -0.244773 -0.412098 -0.877646
7137.170898 3131.954590 1638.125244 -0.244773 -0.412098 -0.877646
7385.951172 3079.269287 1593.479492 0.087477 0.851366 -0.517227
7137.170898 3131.954590 1638.125244 0.087477 0.851366 -0.517227
7219.250000 3216.697510 1791.495728 0.087477 0.851366 -0.517227
7931.492676 2468.665039 1749.327759 0.754580 0.617508 -0.222020
7385.951172 3079.269287 1593.479492 0.754580 0.617508 -0.222020
7760.283203 2697.398682 1803.618896 0.754580 0.617508 -0.222020
7444.385254 3122.310303 1744.746582 0.294471 0.883189 -0.365053
7385.951172 3079.269287 1593.479492 0.294471 0.883189 -0.365053
7219.250000 3216.697510 1791.495728 0.294471 0.883189 -0.365053
7931.492676 2468.665039 1749.327759 -0.205171 -0.410125 -0.888652
7479.250977 2521.751221 1829.240601 -0.205171 -0.410125 -0.888652
7385.951172 3079.269287 1593.479492 -0.205171 -0.410125 -0.888652
7760.283203 2697.398682 1803.618896 0.751354 0.498714 -0.432148
7385.951172 3079.269287 1593.479492 0.751354 0.498714 -0.432148
7444.385254 3122.310303 1744.746582 0.751354 0.498714 -0.432148
7248.266113 2986.225586 1866.367554 -0.889278 0.036158 0.455935
7219.250000 3216.697510 1791.495728 -0.889278 0.036158 0.455935
7137.170898 3131.954590 1638.125244 -0.889278 0.036158 0.455935
8102.923340 2197.738525 1932.409424 0.807872 0.580392 0.102412
7931.492676 2468.665039 1749.327759 0.807872 0.580392 0.102412
7760.283203 2697.398682 1803.618896 0.807872 0.580392 0.102412
8102.923340 2197.738525 1932.409424 -0.206127 -0.634071 -0.745296
7479.250977 2521.751221 1829.240601 -0.206127 -0.634071 -0.745296
7931.492676 2468.665039 1749.327759 -0.206127 -0.634071 -0.745296
7479.250977 2521.751221 1829.240601 -0.881751 -0.449846 0.141966
7248.266113 2986.225586 1866.367554 -0.881751 -0.449846 0.141966
7137.170898 3131.954590 1638.125244 -0.881751 -0.449846 0.141966
7444.385254 3122.310303 1744.746582 0.379462 0.397841 0.835303
7650.359375 2443.015381 1974.713745 0.379462 0.397841 0.835303
7760.283203 2697.398682 1803.618896 0.379462 0.397841 0.835303
7650.359375 2443.015381 1974.713745 0.280159 0.382951 0.880261
7444.385254 3122.310303 1744.746582 0.280159 0.382951 0.880261
7248.266113 2986.225586 1866.367554 0.280159 0.382951 0.880261
7248.266113 2986.225586 1866.367554 0.322232 0.328941 0.887673
7444.385254 3122.310303 1744.746582 0.322232 0.328941 0.887673
7219.250000 3216.697510 1791.495728 0.322232 0.328941 0.887673
7650.359375 2443.015381 1974.713745 -0.681115 -0.510537 0.524818
7479.250977 2521.751221 1829.240601 -0.681115 -0.510537 0.524818
7991.168457 2106.717285 2089.872803 -0.681115 -0.510537 0.524818
7479.250977 2521.751221 1829.240601 -0.693843 -0.393271 0.603258
7650.359375 2443.015381 1974.713745 -0.693843 -0.393271 0.603258
7248.266113 2986.225586 1866.367554 -0.693843 -0.393271 0.603258
8102.923340 2197.738525 1932.409424 0.517684 0.528437 0.672872
7760.283203 2697.398682 1803.618896 0.517684 0.528437 0.672872
7991.168457 2106.717285 2089.872803 0.517684 0.528437 0.672872
8102.923340 2197.738525 1932.409424 -0.278028 -0.732878 -0.620960
7991.168457 2106.717285 2089.872803 -0.278028 -0.732878 -0.620960
7479.250977 2521.751221 1829.240601 -0.278028 -0.732878 -0.620960
7991.168457 2106.717285 2089.872803 0.194318 0.488261 0.850789
7760.283203 2697.398682 1803.618896 0.194318 0.488261 0.850789
7650.359375 2443.015381 1974.713745 0.194318 0.488261 0.850789
7302.561035 2746.220947 9616.623047 -0.723346 -0.542406 -0.427277
7965.207031 2093.011475 9324.032227 -0.723346 -0.542406 -0.427277
7752.310059 2272.362061 9456.773438 -0.723346 -0.542406 -0.427277
8096.264648 2165.559570 9348.111328 -0.003112 0.320066 -0.947390
7965.207031 2093.011475 9324.032227 -0.003112 0.320066 -0.947390
7645.637207 2788.475830 9560.037109 -0.003112 0.320066 -0.947390
7965.207031 2093.011475 9324.032227 -0.639885 -0.340556 -0.688890
7302.561035 2746.220947 9616.623047 -0.639885 -0.340556 -0.688890
7227.040527 3080.336670 9521.599609 -0.639885 -0.340556 -0.688890
8017.240234 2340.633301 9575.148438 0.962544 0.206237 0.175997
8096.264648 2165.559570 9348.111328 0.962544 0.206237 0.175997
7989.433105 2484.827881 9558.257812 0.962544 0.206237 0.175997
7645.637207 2788.475830 9560.037109 0.513456 0.585024 -0.627782
7989.433105 2484.827881 9558.257812 0.513456 0.585024 -0.627782
8096.264648 2165.559570 9348.111328 0.513456 0.585024 -0.627782
7965.207031 2093.011475 9324.032227 0.275782 -0.712387 0.645329
8096.264648 2165.559570 9348.111328 0.275782 -0.712387 0.645329
8017.240234 2340.633301 9575.148438 0.275782 -0.712387 0.645329
7301.001465 3231.315674 9605.361328 0.523601 0.479559 -0.704177
7645.637207 2788.475830 9560.037109 0.523601 0.479559 -0.704177
7965.207031 2093.011475 9324.032227 0.523601 0.479559 -0.704177
7227.040527 3080.336670 9521.599609 0.255958 0.370067 -0.893049
7301.001465 3231.315674 9605.361328 0.255958 0.370067 -0.893049
7965.207031 2093.011475 9324.032227 0.255958 0.370067 -0.893049
7965.207031 2093.011475 9324.032227 -0.139189 -0.690542 0.709774
8017.240234 2340.633301 9575.148438 -0.139189 -0.690542 0.709774
7752.310059 2272.362061 9456.773438 -0.139189 -0.690542 0.709774
7130.618652 3109.302246 9733.602539 -0.713625 0.573094 -0.402867
7301.001465 3231.315674 9605.361328 -0.713625 0.573094 -0.402867
7227.040527 3080.336670 9521.599609 -0.713625 0.573094 -0.402867
7302.561035 2746.220947 9616.623047 -0.882660 -0.301948 -0.360192
7130.618652 3109.302246 9733.602539 -0.882660 -0.301948 -0.360192
7227.040527 3080.336670 9521.599609 -0.882660 -0.301948 -0.360192
7591.523926 2773.277100 9695.773438 0.753297 0.549215 0.361810
7645.637207 2788.475830 9560.037109 0.753297 0.549215 0.361810
7301.001465 3231.315674 9605.361328 0.753297 0.549215 0.361810
8017.240234 2340.633301 9575.148438 -0.239485 -0.506682 0.828203
7302.561035 2746.220947 9616.623047 -0.239485 -0.506682 0.828203
7752.310059 2272.362061 9456.773438 -0.239485 -0.506682 0.828203
7591.523926 2773.277100 9695.773438 0.848857 0.514207 -0.122610
7301.001465 3231.315674 9605.361328 0.848857 0.514207 -0.122610
7411.462891 3087.456543 9766.789062 0.848857 0.514207 -0.122610
7989.433105 2484.827881 9558.257812 0.626140 0.707001 0.328784
7645.637207 2788.475830 9560.037109 0.626140 0.707001 0.328784
7591.523926 2773.277100 9695.773438 0.626140 0.707001 0.328784
8017.240234 2340.633301 9575.148438 0.439601 0.187665 0.878369
7989.433105 2484.827881 9558.257812 0.439601 0.187665 0.878369
7591.523926 2773.277100 9695.773438 0.439601 0.187665 0.878369
8017.240234 2340.633301 9575.148438 -0.198733 -0.439748 0.875858
7591.523926 2773.277100 9695.773438 -0.198733 -0.439748 0.875858
7302.561035 2746.220947 9616.623047 -0.198733 -0.439748 0.875858
7130.618652 3109.302246 9733.602539 -0.022121 0.738815 0.673545
7411.462891 3087.456543 9766.789062 -0.022121 0.738815 0.673545
7301.001465 3231.315674 9605.361328 -0.022121 0.738815 0.673545
7591.523926 2773.277100 9695.773438 -0.219923 -0.333275 0.916821
7411.462891 3087.456543 9766.789062 -0.219923 -0.333275 0.916821
7302.561035 2746.220947 9616.623047 -0.219923 -0.333275 0.916821
7130.618652 3109.302246 9733.602539 -0.137113 -0.361999 0.922039
7302.561035 2746.220947 9616.623047 -0.137113 -0.361999 0.922039
7411.462891 3087.456543 9766.789062 -0.137113 -0.361999 0.922039
3 0 1 2
3 3 4 5
3 6 7 8
3 9 10 11
3 12 13 14
3 15 16 17
3 18 19 20
3 21 22 23
3 24 25 26
3 27 28 29
3 30 31 32
3 33 34 35
3 36 37 38
3 39 40 41
3 42 43 44
3 45 46 47
3 48 49 50
3 51 52 53
3 54 55 56
3 57 58 59
3 60 61 62
3 63 64 65
3 66 67 68
3 69 70 71
3 72 73 74
3 75 76 77
3 78 79 80
3 81 82 83
3 84 85 86
3 87 88 89
3 90 91 92
3 93 94 95
3 96 97 98
3 99 100 101
3 102 103 104
3 105 106 107
3 108 109 110
3 111 112 113
