ply
format ascii 1.0
comment Created by Blender 2.80 (sub 75) - www.blender.org, source file: 'downsample_ccf.blend'
element vertex 222
property float x
property float y
property float z
property float nx
property float ny
property float nz
element face 74
property list uchar uint vertex_indices
end_header
7853.712891 2595.721680 724.163330 0.004947 -0.223519 -0.974687
7994.619141 3174.220215 592.214844 0.004947 -0.223519 -0.974687
8319.795898 2931.495117 649.528076 0.004947 -0.223519 -0.974687
7853.712891 2595.721680 724.163330 -0.059728 -0.208129 -0.976276
7323.779297 3079.667236 653.413757 -0.059728 -0.208129 -0.976276
7994.619141 3174.220215 592.214844 -0.059728 -0.208129 -0.976276
7994.619141 3174.220215 592.214844 -0.059341 -0.210551 -0.975780
7323.779297 3079.667236 653.413757 -0.059341 -0.210551 -0.975780
7558.417969 3234.820557 605.665833 -0.059341 -0.210551 -0.975780
7818.041504 3241.561279 644.423889 0.081381 0.735158 -0.672993
7994.619141 3174.220215 592.214844 0.081381 0.735158 -0.672993
7558.417969 3234.820557 605.665833 0.081381 0.735158 -0.672993
7558.417969 3234.820557 605.665833 -0.558696 0.716218 -0.418198
7323.779297 3079.667236 653.413757 -0.558696 0.716218 -0.418198
7371.625488 3153.022217 715.123047 -0.558696 0.716218 -0.418198
7853.712891 2595.721680 724.163330 -0.189531 -0.342091 -0.920354
7253.136719 2795.393555 773.624512 -0.189531 -0.342091 -0.920354
7323.779297 3079.667236 653.413757 -0.189531 -0.342091 -0.920354
7558.417969 3234.820557 605.665833 -0.095184 0.868446 0.486562
7371.625488 3153.022217 715.123047 -0.095184 0.868446 0.486562
7818.041504 3241.561279 644.423889 -0.095184 0.868446 0.486562
7256.043945 2968.205566 776.768005 -0.885055 0.023346 -0.464900
7323.779297 3079.667236 653.413757 -0.885055 0.023346 -0.464900
7253.136719 2795.393555 773.624512 -0.885055 0.023346 -0.464900
8614.772461 2750.624512 800.990845 0.604566 0.740802 -0.292768
8319.795898 2931.495117 649.528076 0.604566 0.740802 -0.292768
7994.619141 3174.220215 592.214844 0.604566 0.740802 -0.292768
7371.625488 3153.022217 715.123047 -0.844783 0.534760 0.019322
7323.779297 3079.667236 653.413757 -0.844783 0.534760 0.019322
7256.043945 2968.205566 776.768005 -0.844783 0.534760 0.019322
7994.619141 3174.220215 592.214844 0.426485 0.816344 0.389478
7818.041504 3241.561279 644.423889 0.426485 0.816344 0.389478
8614.772461 2750.624512 800.990845 0.426485 0.816344 0.389478
8614.772461 2750.624512 800.990845 0.178936 -0.443582 -0.878189
7853.712891 2595.721680 724.163330 0.178936 -0.443582 -0.878189
8319.795898 2931.495117 649.528076 0.178936 -0.443582 -0.878189
8614.772461 2750.624512 800.990845 0.065825 0.398562 0.914776
7818.041504 3241.561279 644.423889 0.065825 0.398562 0.914776
7371.625488 3153.022217 715.123047 0.065825 0.398562 0.914776
8578.179688 2459.599365 903.236450 0.163561 -0.345246 -0.924150
7853.712891 2595.721680 724.163330 0.163561 -0.345246 -0.924150
8614.772461 2750.624512 800.990845 0.163561 -0.345246 -0.924150
7447.453613 2401.277344 921.993042 -0.216819 -0.435760 -0.873558
7253.136719 2795.393555 773.624512 -0.216819 -0.435760 -0.873558
7853.712891 2595.721680 724.163330 -0.216819 -0.435760 -0.873558
8614.772461 2750.624512 800.990845 0.043105 0.334085 0.941557
7371.625488 3153.022217 715.123047 0.043105 0.334085 0.941557
7925.602051 2642.951904 870.745850 0.043105 0.334085 0.941557
8637.716797 2665.144775 894.592651 -0.045576 0.732062 0.679711
8614.772461 2750.624512 800.990845 -0.045576 0.732062 0.679711
7925.602051 2642.951904 870.745850 -0.045576 0.732062 0.679711
8578.179688 2459.599365 903.236450 0.105175 -0.539352 -0.835487
8402.558594 2186.582275 1057.375732 0.105175 -0.539352 -0.835487
7853.712891 2595.721680 724.163330 0.105175 -0.539352 -0.835487
7256.043945 2968.205566 776.768005 0.015814 0.307457 0.951431
7925.602051 2642.951904 870.745850 0.015814 0.307457 0.951431
7371.625488 3153.022217 715.123047 0.015814 0.307457 0.951431
7853.712891 2595.721680 724.163330 -0.153654 -0.528447 -0.834946
7810.074707 2146.502197 1016.510376 -0.153654 -0.528447 -0.834946
7447.453613 2401.277344 921.993042 -0.153654 -0.528447 -0.834946
7447.453613 2401.277344 921.993042 -0.904734 -0.420543 0.067821
7389.788086 2531.263916 958.750488 -0.904734 -0.420543 0.067821
7253.136719 2795.393555 773.624512 -0.904734 -0.420543 0.067821
8578.179688 2459.599365 903.236450 0.851809 -0.265715 -0.451460
8614.772461 2750.624512 800.990845 0.851809 -0.265715 -0.451460
8637.716797 2665.144775 894.592651 0.851809 -0.265715 -0.451460
7256.043945 2968.205566 776.768005 -0.802734 0.002657 0.596332
7253.136719 2795.393555 773.624512 -0.802734 0.002657 0.596332
7389.788086 2531.263916 958.750488 -0.802734 0.002657 0.596332
8134.995117 2052.777344 1103.735962 0.065448 -0.548742 -0.833426
7810.074707 2146.502197 1016.510376 0.065448 -0.548742 -0.833426
7853.712891 2595.721680 724.163330 0.065448 -0.548742 -0.833426
7661.410156 2284.969727 1056.741699 0.074749 0.415768 0.906394
7925.602051 2642.951904 870.745850 0.074749 0.415768 0.906394
7256.043945 2968.205566 776.768005 0.074749 0.415768 0.906394
8402.558594 2186.582275 1057.375732 0.117858 -0.527237 -0.841505
8134.995117 2052.777344 1103.735962 0.117858 -0.527237 -0.841505
7853.712891 2595.721680 724.163330 0.117858 -0.527237 -0.841505
7810.074707 2146.502197 1016.510376 -0.599176 -0.735316 0.316699
7661.410156 2284.969727 1056.741699 -0.599176 -0.735316 0.316699
7447.453613 2401.277344 921.993042 -0.599176 -0.735316 0.316699
8637.716797 2665.144775 894.592651 0.809463 -0.211428 0.547785
8402.558594 2186.582275 1057.375732 0.809463 -0.211428 0.547785
8578.179688 2459.599365 903.236450 0.809463 -0.211428 0.547785
8637.716797 2665.144775 894.592651 -0.044377 0.486190 0.872726
7925.602051 2642.951904 870.745850 -0.044377 0.486190 0.872726
7661.410156 2284.969727 1056.741699 -0.044377 0.486190 0.872726
7661.410156 2284.969727 1056.741699 0.021524 0.389996 0.920565
7256.043945 2968.205566 776.768005 0.021524 0.389996 0.920565
7389.788086 2531.263916 958.750488 0.021524 0.389996 0.920565
7389.788086 2531.263916 958.750488 -0.638509 -0.458131 0.618403
7447.453613 2401.277344 921.993042 -0.638509 -0.458131 0.618403
7661.410156 2284.969727 1056.741699 -0.638509 -0.458131 0.618403
7661.410156 2284.969727 1056.741699 -0.512196 -0.696090 0.503104
7810.074707 2146.502197 1016.510376 -0.512196 -0.696090 0.503104
8006.102539 2107.725830 1162.430054 -0.512196 -0.696090 0.503104
8134.995117 2052.777344 1103.735962 -0.316444 -0.931861 0.177479
8006.102539 2107.725830 1162.430054 -0.316444 -0.931861 0.177479
7810.074707 2146.502197 1016.510376 -0.316444 -0.931861 0.177479
8006.102539 2107.725830 1162.430054 -0.033317 0.463273 0.885589
8637.716797 2665.144775 894.592651 -0.033317 0.463273 0.885589
7661.410156 2284.969727 1056.741699 -0.033317 0.463273 0.885589
8402.558594 2186.582275 1057.375732 0.577887 -0.006371 0.816092
8637.716797 2665.144775 894.592651 0.577887 -0.006371 0.816092
8269.692383 2141.477051 1151.108154 0.577887 -0.006371 0.816092
8269.692383 2141.477051 1151.108154 0.467479 -0.846306 0.255401
8134.995117 2052.777344 1103.735962 0.467479 -0.846306 0.255401
8402.558594 2186.582275 1057.375732 0.467479 -0.846306 0.255401
8269.692383 2141.477051 1151.108154 0.110215 -0.593258 0.797432
8006.102539 2107.725830 1162.430054 0.110215 -0.593258 0.797432
8134.995117 2052.777344 1103.735962 0.110215 -0.593258 0.797432
8269.692383 2141.477051 1151.108154 -0.019387 0.450775 0.892427
8637.716797 2665.144775 894.592651 -0.019387 0.450775 0.892427
8006.102539 2107.725830 1162.430054 -0.019387 0.450775 0.892427
8315.805664 2122.445557 10288.824219 0.309266 0.025831 -0.950625
8053.139160 2078.234619 10202.169922 0.309266 0.025831 -0.950625
8555.293945 2443.192627 10375.452148 0.309266 0.025831 -0.950625
8315.805664 2122.445557 10288.824219 0.237235 -0.941679 -0.238663
8050.034180 2052.624756 10300.130859 0.237235 -0.941679 -0.238663
8053.139160 2078.234619 10202.169922 0.237235 -0.941679 -0.238663
7473.978027 2413.959229 10392.492188 0.000650 0.494015 -0.869453
7927.448242 2571.232666 10482.192383 0.000650 0.494015 -0.869453
8053.139160 2078.234619 10202.169922 0.000650 0.494015 -0.869453
8555.293945 2443.192627 10375.452148 -0.049938 0.483617 -0.873854
8053.139160 2078.234619 10202.169922 -0.049938 0.483617 -0.873854
7927.448242 2571.232666 10482.192383 -0.049938 0.483617 -0.873854
7473.978027 2413.959229 10392.492188 -0.554181 -0.706437 -0.440262
8053.139160 2078.234619 10202.169922 -0.554181 -0.706437 -0.440262
7515.320312 2333.183105 10470.064453 -0.554181 -0.706437 -0.440262
8050.034180 2052.624756 10300.130859 -0.508839 -0.828787 -0.232798
7515.320312 2333.183105 10470.064453 -0.508839 -0.828787 -0.232798
8053.139160 2078.234619 10202.169922 -0.508839 -0.828787 -0.232798
8555.293945 2443.192627 10375.452148 0.811143 -0.560993 -0.165333
8598.827148 2476.481934 10476.077148 0.811143 -0.560993 -0.165333
8315.805664 2122.445557 10288.824219 0.811143 -0.560993 -0.165333
8348.009766 2315.217285 10469.219727 0.209971 -0.686519 0.696135
8050.034180 2052.624756 10300.130859 0.209971 -0.686519 0.696135
8315.805664 2122.445557 10288.824219 0.209971 -0.686519 0.696135
8315.805664 2122.445557 10288.824219 0.406752 -0.659508 0.632141
8598.827148 2476.481934 10476.077148 0.406752 -0.659508 0.632141
8348.009766 2315.217285 10469.219727 0.406752 -0.659508 0.632141
7264.851074 2844.742676 10550.250000 0.056257 0.367301 -0.928399
7927.448242 2571.232666 10482.192383 0.056257 0.367301 -0.928399
7473.978027 2413.959229 10392.492188 0.056257 0.367301 -0.928399
7473.978027 2413.959229 10392.492188 -0.863934 -0.499993 -0.060209
7515.320312 2333.183105 10470.064453 -0.863934 -0.499993 -0.060209
7257.844727 2761.743164 10605.671875 -0.863934 -0.499993 -0.060209
7264.851074 2844.742676 10550.250000 -0.849959 -0.241062 -0.468464
7473.978027 2413.959229 10392.492188 -0.849959 -0.241062 -0.468464
7257.844727 2761.743164 10605.671875 -0.849959 -0.241062 -0.468464
8555.293945 2443.192627 10375.452148 -0.037409 0.525261 -0.850118
7927.448242 2571.232666 10482.192383 -0.037409 0.525261 -0.850118
8632.021484 2705.680664 10534.258789 -0.037409 0.525261 -0.850118
8598.827148 2476.481934 10476.077148 0.921415 -0.035212 -0.386981
8555.293945 2443.192627 10375.452148 0.921415 -0.035212 -0.386981
8632.021484 2705.680664 10534.258789 0.921415 -0.035212 -0.386981
8050.034180 2052.624756 10300.130859 -0.010637 -0.532799 0.846175
8348.009766 2315.217285 10469.219727 -0.010637 -0.532799 0.846175
7515.320312 2333.183105 10470.064453 -0.010637 -0.532799 0.846175
8586.853516 2700.995605 10605.349609 0.278054 -0.468128 0.838774
8348.009766 2315.217285 10469.219727 0.278054 -0.468128 0.838774
8598.827148 2476.481934 10476.077148 0.278054 -0.468128 0.838774
8632.021484 2705.680664 10534.258789 0.824925 -0.248364 0.507753
8586.853516 2700.995605 10605.349609 0.824925 -0.248364 0.507753
8598.827148 2476.481934 10476.077148 0.824925 -0.248364 0.507753
7264.851074 2844.742676 10550.250000 0.047136 0.347243 -0.936590
7468.119629 3212.758789 10696.922852 0.047136 0.347243 -0.936590
7927.448242 2571.232666 10482.192383 0.047136 0.347243 -0.936590
8586.853516 2700.995605 10605.349609 0.725710 0.480171 0.492728
8632.021484 2705.680664 10534.258789 0.725710 0.480171 0.492728
8370.549805 2945.562256 10685.596680 0.725710 0.480171 0.492728
7298.691406 3092.045166 10695.643555 -0.356915 0.509250 -0.783120
7468.119629 3212.758789 10696.922852 -0.356915 0.509250 -0.783120
7264.851074 2844.742676 10550.250000 -0.356915 0.509250 -0.783120
8348.009766 2315.217285 10469.219727 -0.008241 -0.424520 0.905381
8241.914062 2926.793701 10755.013672 -0.008241 -0.424520 0.905381
7515.320312 2333.183105 10470.064453 -0.008241 -0.424520 0.905381
7257.844727 2761.743164 10605.671875 -0.992900 0.111495 0.041453
7298.691406 3092.045166 10695.643555 -0.992900 0.111495 0.041453
7264.851074 2844.742676 10550.250000 -0.992900 0.111495 0.041453
8632.021484 2705.680664 10534.258789 0.352093 0.742934 -0.569280
7842.892090 3242.809570 10747.166016 0.352093 0.742934 -0.569280
8370.549805 2945.562256 10685.596680 0.352093 0.742934 -0.569280
8632.021484 2705.680664 10534.258789 0.008349 0.322769 -0.946441
7927.448242 2571.232666 10482.192383 0.008349 0.322769 -0.946441
7468.119629 3212.758789 10696.922852 0.008349 0.322769 -0.946441
8586.853516 2700.995605 10605.349609 0.130907 -0.400989 0.906681
8241.914062 2926.793701 10755.013672 0.130907 -0.400989 0.906681
8348.009766 2315.217285 10469.219727 0.130907 -0.400989 0.906681
8632.021484 2705.680664 10534.258789 0.080558 0.467328 -0.880406
7468.119629 3212.758789 10696.922852 0.080558 0.467328 -0.880406
7842.892090 3242.809570 10747.166016 0.080558 0.467328 -0.880406
8241.914062 2926.793701 10755.013672 -0.072939 -0.357632 0.931010
7549.479980 3178.516357 10797.460938 -0.072939 -0.357632 0.931010
7515.320312 2333.183105 10470.064453 -0.072939 -0.357632 0.931010
7515.320312 2333.183105 10470.064453 -0.102680 -0.355638 0.928966
7549.479980 3178.516357 10797.460938 -0.102680 -0.355638 0.928966
7257.844727 2761.743164 10605.671875 -0.102680 -0.355638 0.928966
8586.853516 2700.995605 10605.349609 0.458470 0.116396 0.881055
8370.549805 2945.562256 10685.596680 0.458470 0.116396 0.881055
8241.914062 2926.793701 10755.013672 0.458470 0.116396 0.881055
7549.479980 3178.516357 10797.460938 -0.302638 -0.215471 0.928430
7298.691406 3092.045166 10695.643555 -0.302638 -0.215471 0.928430
7257.844727 2761.743164 10605.671875 -0.302638 -0.215471 0.928430
8370.549805 2945.562256 10685.596680 0.402390 0.358158 0.842500
7974.811523 3153.864746 10786.054688 0.402390 0.358158 0.842500
8241.914062 2926.793701 10755.013672 0.402390 0.358158 0.842500
7974.811523 3153.864746 10786.054688 0.498008 0.837294 0.225671
8370.549805 2945.562256 10685.596680 0.498008 0.837294 0.225671
7842.892090 3242.809570 10747.166016 0.498008 0.837294 0.225671
7298.691406 3092.045166 10695.643555 -0.467412 0.649685 0.599530
7549.479980 3178.516357 10797.460938 -0.467412 0.649685 0.599530
7468.119629 3212.758789 10696.922852 -0.467412 0.649685 0.599530
7842.892090 3242.809570 10747.166016 -0.127445 0.902848 0.410638
7468.119629 3212.758789 10696.922852 -0.127445 0.902848 0.410638
7549.479980 3178.516357 10797.460938 -0.127445 0.902848 0.410638
8241.914062 2926.793701 10755.013672 0.020145 -0.112116 0.993491
7974.811523 3153.864746 10786.054688 0.020145 -0.112116 0.993491
7549.479980 3178.516357 10797.460938 0.020145 -0.112116 0.993491
7842.892090 3242.809570 10747.166016 0.050524 0.462057 0.885410
7549.479980 3178.516357 10797.460938 0.050524 0.462057 0.885410
7974.811523 3153.864746 10786.054688 0.050524 0.462057 0.885410
3 0 1 2
3 3 4 5
3 6 7 8
3 9 10 11
3 12 13 14
3 15 16 17
3 18 19 20
3 21 22 23
3 24 25 26
3 27 28 29
3 30 31 32
3 33 34 35
3 36 37 38
3 39 40 41
3 42 43 44
3 45 46 47
3 48 49 50
3 51 52 53
3 54 55 56
3 57 58 59
3 60 61 62
3 63 64 65
3 66 67 68
3 69 70 71
3 72 73 74
3 75 76 77
3 78 79 80
3 81 82 83
3 84 85 86
3 87 88 89
3 90 91 92
3 93 94 95
3 96 97 98
3 99 100 101
3 102 103 104
3 105 106 107
3 108 109 110
3 111 112 113
3 114 115 116
3 117 118 119
3 120 121 122
3 123 124 125
3 126 127 128
3 129 130 131
3 132 133 134
3 135 136 137
3 138 139 140
3 141 142 143
3 144 145 146
3 147 148 149
3 150 151 152
3 153 154 155
3 156 157 158
3 159 160 161
3 162 163 164
3 165 166 167
3 168 169 170
3 171 172 173
3 174 175 176
3 177 178 179
3 180 181 182
3 183 184 185
3 186 187 188
3 189 190 191
3 192 193 194
3 195 196 197
3 198 199 200
3 201 202 203
3 204 205 206
3 207 208 209
3 210 211 212
3 213 214 215
3 216 217 218
3 219 220 221
