ply
format ascii 1.0
comment Created by Blender 2.80 (sub 75) - www.blender.org, source file: 'downsample_ccf.blend'
element vertex 432
property float x
property float y
property float z
property float nx
property float ny
property float nz
element face 144
property list uchar uint vertex_indices
end_header
8066.555176 3060.041016 585.382263 0.062787 0.190845 -0.979610
7530.708008 3191.525879 576.653381 0.062787 0.190845 -0.979610
7818.873535 3252.200684 606.943420 0.062787 0.190845 -0.979610
7818.873535 3252.200684 606.943420 0.278918 0.454431 -0.845989
8178.224121 3071.562012 628.387451 0.278918 0.454431 -0.845989
8066.555176 3060.041016 585.382263 0.278918 0.454431 -0.845989
8066.555176 3060.041016 585.382263 -0.055450 -0.289418 -0.955595
7966.531250 2530.067139 751.697510 -0.055450 -0.289418 -0.955595
7530.708008 3191.525879 576.653381 -0.055450 -0.289418 -0.955595
7818.873535 3252.200684 606.943420 -0.100884 0.784554 -0.611799
7530.708008 3191.525879 576.653381 -0.100884 0.784554 -0.611799
7528.853027 3252.627441 655.314209 -0.100884 0.784554 -0.611799
8066.555176 3060.041016 585.382263 0.343902 0.135230 -0.929217
8178.224121 3071.562012 628.387451 0.343902 0.135230 -0.929217
8491.046875 2834.601562 709.677490 0.343902 0.135230 -0.929217
7530.708008 3191.525879 576.653381 -0.403851 -0.067847 -0.912306
7270.720215 2867.857422 715.812927 -0.403851 -0.067847 -0.912306
7335.871582 3157.582764 665.425964 -0.403851 -0.067847 -0.912306
7530.708008 3191.525879 576.653381 -0.386485 0.723933 -0.571446
7335.871582 3157.582764 665.425964 -0.386485 0.723933 -0.571446
7528.853027 3252.627441 655.314209 -0.386485 0.723933 -0.571446
7530.708008 3191.525879 576.653381 -0.106463 -0.319337 -0.941642
7966.531250 2530.067139 751.697510 -0.106463 -0.319337 -0.941642
7270.720215 2867.857422 715.812927 -0.106463 -0.319337 -0.941642
8491.046875 2834.601562 709.677490 0.108065 -0.316177 -0.942525
7966.531250 2530.067139 751.697510 0.108065 -0.316177 -0.942525
8066.555176 3060.041016 585.382263 0.108065 -0.316177 -0.942525
7242.161133 3016.205566 787.091797 -0.839241 0.095630 -0.535284
7335.871582 3157.582764 665.425964 -0.839241 0.095630 -0.535284
7270.720215 2867.857422 715.812927 -0.839241 0.095630 -0.535284
7966.531250 2530.067139 751.697510 -0.127277 -0.360347 -0.924094
7380.479004 2514.577148 838.455994 -0.127277 -0.360347 -0.924094
7270.720215 2867.857422 715.812927 -0.127277 -0.360347 -0.924094
8635.480469 2703.835205 799.301575 0.172521 -0.420076 -0.890939
7966.531250 2530.067139 751.697510 0.172521 -0.420076 -0.890939
8491.046875 2834.601562 709.677490 0.172521 -0.420076 -0.890939
7263.729004 2742.453857 821.043701 -0.977847 -0.099857 -0.183965
7242.161133 3016.205566 787.091797 -0.977847 -0.099857 -0.183965
7270.720215 2867.857422 715.812927 -0.977847 -0.099857 -0.183965
8491.046875 2834.601562 709.677490 0.625087 0.738804 -0.251863
8178.224121 3071.562012 628.387451 0.625087 0.738804 -0.251863
8491.657227 3073.368408 1411.580688 0.625087 0.738804 -0.251863
7380.479004 2514.577148 838.455994 -0.729559 -0.415302 -0.543385
7263.729004 2742.453857 821.043701 -0.729559 -0.415302 -0.543385
7270.720215 2867.857422 715.812927 -0.729559 -0.415302 -0.543385
7966.531250 2530.067139 751.697510 0.178147 -0.445440 -0.877409
8635.480469 2703.835205 799.301575 0.178147 -0.445440 -0.877409
8516.105469 2327.391113 966.175720 0.178147 -0.445440 -0.877409
8516.105469 2327.391113 966.175720 0.486612 -0.478361 -0.731013
8635.480469 2703.835205 799.301575 0.486612 -0.478361 -0.731013
8652.203125 2592.371094 883.373413 0.486612 -0.478361 -0.731013
7966.531250 2530.067139 751.697510 -0.107075 -0.557986 -0.822914
7890.141602 2091.265381 1059.171509 -0.107075 -0.557986 -0.822914
7380.479004 2514.577148 838.455994 -0.107075 -0.557986 -0.822914
8491.657227 3073.368408 1411.580688 0.726498 0.650366 -0.221867
8635.480469 2703.835205 799.301575 0.726498 0.650366 -0.221867
8491.046875 2834.601562 709.677490 0.726498 0.650366 -0.221867
7890.141602 2091.265381 1059.171509 -0.142664 -0.587203 -0.796769
7514.870605 2320.621094 957.334473 -0.142664 -0.587203 -0.796769
7380.479004 2514.577148 838.455994 -0.142664 -0.587203 -0.796769
7380.479004 2514.577148 838.455994 -0.888356 -0.457816 -0.035035
7363.418457 2538.034668 964.518616 -0.888356 -0.457816 -0.035035
7263.729004 2742.453857 821.043701 -0.888356 -0.457816 -0.035035
7380.479004 2514.577148 838.455994 -0.820601 -0.571482 -0.004715
7514.870605 2320.621094 957.334473 -0.820601 -0.571482 -0.004715
7363.418457 2538.034668 964.518616 -0.820601 -0.571482 -0.004715
8339.166992 2131.615234 1067.088989 0.061729 -0.583330 -0.809886
8072.556152 2040.449097 1112.431519 0.061729 -0.583330 -0.809886
7966.531250 2530.067139 751.697510 0.061729 -0.583330 -0.809886
8516.105469 2327.391113 966.175720 0.124827 -0.541391 -0.831453
8339.166992 2131.615234 1067.088989 0.124827 -0.541391 -0.831453
7966.531250 2530.067139 751.697510 0.124827 -0.541391 -0.831453
8574.448242 2970.619385 1454.159302 0.985805 0.166143 0.024191
8652.203125 2592.371094 883.373413 0.985805 0.166143 0.024191
8635.480469 2703.835205 799.301575 0.985805 0.166143 0.024191
7966.531250 2530.067139 751.697510 0.074805 -0.580948 -0.810496
8072.556152 2040.449097 1112.431519 0.074805 -0.580948 -0.810496
7890.141602 2091.265381 1059.171509 0.074805 -0.580948 -0.810496
8574.448242 2970.619385 1454.159302 0.800042 0.577967 -0.160896
8635.480469 2703.835205 799.301575 0.800042 0.577967 -0.160896
8491.657227 3073.368408 1411.580688 0.800042 0.577967 -0.160896
7528.853027 3252.627441 655.314209 -0.034221 0.976279 -0.213796
7725.156250 3447.231689 1512.536621 -0.034221 0.976279 -0.213796
7818.873535 3252.200684 606.943420 -0.034221 0.976279 -0.213796
8263.288086 3268.985107 1423.561523 0.622151 0.741674 -0.250695
8491.657227 3073.368408 1411.580688 0.622151 0.741674 -0.250695
8178.224121 3071.562012 628.387451 0.622151 0.741674 -0.250695
8072.556152 2040.449097 1112.431519 0.223467 -0.871061 -0.437396
8339.166992 2131.615234 1067.088989 0.223467 -0.871061 -0.437396
8224.654297 2074.616943 1122.094604 0.223467 -0.871061 -0.437396
7436.762695 3240.339600 1625.898926 -0.818208 0.573761 0.036510
7335.871582 3157.582764 665.425964 -0.818208 0.573761 0.036510
7242.161133 3016.205566 787.091797 -0.818208 0.573761 0.036510
8574.448242 2970.619385 1454.159302 0.975231 -0.098431 0.198078
8538.514648 2876.615967 1584.364136 0.975231 -0.098431 0.198078
8652.203125 2592.371094 883.373413 0.975231 -0.098431 0.198078
8538.514648 2876.615967 1584.364136 0.884949 -0.363602 0.290961
8516.105469 2327.391113 966.175720 0.884949 -0.363602 0.290961
8652.203125 2592.371094 883.373413 0.884949 -0.363602 0.290961
7363.418457 2538.034668 964.518616 -0.922839 -0.236836 0.303771
7431.700195 3066.296387 1583.813843 -0.922839 -0.236836 0.303771
7263.729004 2742.453857 821.043701 -0.922839 -0.236836 0.303771
7263.729004 2742.453857 821.043701 -0.971076 -0.047485 0.234003
7431.700195 3066.296387 1583.813843 -0.971076 -0.047485 0.234003
7242.161133 3016.205566 787.091797 -0.971076 -0.047485 0.234003
8403.637695 2699.392334 1718.378418 0.854692 -0.403089 0.327139
8516.105469 2327.391113 966.175720 0.854692 -0.403089 0.327139
8538.514648 2876.615967 1584.364136 0.854692 -0.403089 0.327139
8178.224121 3071.562012 628.387451 0.446000 0.856340 -0.260320
7818.873535 3252.200684 606.943420 0.446000 0.856340 -0.260320
8263.288086 3268.985107 1423.561523 0.446000 0.856340 -0.260320
7431.700195 3066.296387 1583.813843 -0.972067 -0.028071 0.233018
7436.762695 3240.339600 1625.898926 -0.972067 -0.028071 0.233018
7242.161133 3016.205566 787.091797 -0.972067 -0.028071 0.233018
8263.288086 3268.985107 1423.561523 0.408182 0.880723 -0.240240
7818.873535 3252.200684 606.943420 0.408182 0.880723 -0.240240
7973.755371 3425.406250 1505.070435 0.408182 0.880723 -0.240240
7528.853027 3252.627441 655.314209 -0.443824 0.890459 -0.100514
7335.871582 3157.582764 665.425964 -0.443824 0.890459 -0.100514
7725.156250 3447.231689 1512.536621 -0.443824 0.890459 -0.100514
8516.105469 2327.391113 966.175720 0.776171 -0.511324 0.368926
8403.637695 2699.392334 1718.378418 0.776171 -0.511324 0.368926
8339.166992 2131.615234 1067.088989 0.776171 -0.511324 0.368926
7890.141602 2091.265381 1059.171509 -0.367285 -0.766990 0.526145
8072.556152 2040.449097 1112.431519 -0.367285 -0.766990 0.526145
8032.345215 2545.254639 1820.243286 -0.367285 -0.766990 0.526145
7335.871582 3157.582764 665.425964 -0.802944 0.595136 0.033065
7436.762695 3240.339600 1625.898926 -0.802944 0.595136 0.033065
7532.869629 3370.307617 1620.448730 -0.802944 0.595136 0.033065
7335.871582 3157.582764 665.425964 -0.423063 0.899028 -0.112985
7532.869629 3370.307617 1620.448730 -0.423063 0.899028 -0.112985
7725.156250 3447.231689 1512.536621 -0.423063 0.899028 -0.112985
7725.156250 3447.231689 1512.536621 0.079633 0.976146 -0.201984
7973.755371 3425.406250 1505.070435 0.079633 0.976146 -0.201984
7818.873535 3252.200684 606.943420 0.079633 0.976146 -0.201984
8450.813477 3108.816895 1500.596558 0.650418 0.759566 -0.004044
8491.657227 3073.368408 1411.580688 0.650418 0.759566 -0.004044
8263.288086 3268.985107 1423.561523 0.650418 0.759566 -0.004044
8224.654297 2074.616943 1122.094604 0.150642 -0.824737 0.545083
8192.871094 2508.833984 1787.869629 0.150642 -0.824737 0.545083
8072.556152 2040.449097 1112.431519 0.150642 -0.824737 0.545083
8339.166992 2131.615234 1067.088989 0.563791 -0.679217 0.469898
8192.871094 2508.833984 1787.869629 0.563791 -0.679217 0.469898
8224.654297 2074.616943 1122.094604 0.563791 -0.679217 0.469898
8192.871094 2508.833984 1787.869629 0.676964 -0.586680 0.444440
8339.166992 2131.615234 1067.088989 0.676964 -0.586680 0.444440
8403.637695 2699.392334 1718.378418 0.676964 -0.586680 0.444440
8450.813477 3108.816895 1500.596558 0.757063 0.647162 0.089651
8574.448242 2970.619385 1454.159302 0.757063 0.647162 0.089651
8491.657227 3073.368408 1411.580688 0.757063 0.647162 0.089651
7514.870605 2320.621094 957.334473 -0.729049 -0.522473 0.442165
7694.083496 2796.306152 1814.904419 -0.729049 -0.522473 0.442165
7363.418457 2538.034668 964.518616 -0.729049 -0.522473 0.442165
8263.288086 3268.985107 1423.561523 0.519694 0.778124 0.352762
7973.755371 3425.406250 1505.070435 0.519694 0.778124 0.352762
8450.813477 3108.816895 1500.596558 0.519694 0.778124 0.352762
7514.870605 2320.621094 957.334473 -0.547480 -0.678000 0.490491
7890.141602 2091.265381 1059.171509 -0.547480 -0.678000 0.490491
7694.083496 2796.306152 1814.904419 -0.547480 -0.678000 0.490491
7363.418457 2538.034668 964.518616 -0.802719 -0.407113 0.435775
7694.083496 2796.306152 1814.904419 -0.802719 -0.407113 0.435775
7431.700195 3066.296387 1583.813843 -0.802719 -0.407113 0.435775
8450.813477 3108.816895 1500.596558 0.351382 0.518470 0.779564
7973.755371 3425.406250 1505.070435 0.351382 0.518470 0.779564
7693.428223 3416.605225 1637.278931 0.351382 0.518470 0.779564
7725.156250 3447.231689 1512.536621 0.092192 0.961339 0.259475
7693.428223 3416.605225 1637.278931 0.092192 0.961339 0.259475
7973.755371 3425.406250 1505.070435 0.092192 0.961339 0.259475
8032.345215 2545.254639 1820.243286 -0.068395 -0.814081 0.576710
8072.556152 2040.449097 1112.431519 -0.068395 -0.814081 0.576710
8192.871094 2508.833984 1787.869629 -0.068395 -0.814081 0.576710
8574.448242 2970.619385 1454.159302 0.713040 0.460149 0.528995
8450.813477 3108.816895 1500.596558 0.713040 0.460149 0.528995
8538.514648 2876.615967 1584.364136 0.713040 0.460149 0.528995
7890.141602 2091.265381 1059.171509 -0.518711 -0.688111 0.507387
8032.345215 2545.254639 1820.243286 -0.518711 -0.688111 0.507387
7694.083496 2796.306152 1814.904419 -0.518711 -0.688111 0.507387
8538.514648 2876.615967 1584.364136 0.297486 0.421413 0.856687
8450.813477 3108.816895 1500.596558 0.297486 0.421413 0.856687
8403.637695 2699.392334 1718.378418 0.297486 0.421413 0.856687
7725.156250 3447.231689 1512.536621 -0.288857 0.944187 0.158344
7532.869629 3370.307617 1620.448730 -0.288857 0.944187 0.158344
7693.428223 3416.605225 1637.278931 -0.288857 0.944187 0.158344
8450.813477 3108.816895 1500.596558 0.287522 0.304212 0.908177
7693.428223 3416.605225 1637.278931 0.287522 0.304212 0.908177
7538.991211 3289.241943 1728.835327 0.287522 0.304212 0.908177
7436.762695 3240.339600 1625.898926 -0.710215 0.543921 0.446928
7538.991211 3289.241943 1728.835327 -0.710215 0.543921 0.446928
7532.869629 3370.307617 1620.448730 -0.710215 0.543921 0.446928
7532.869629 3370.307617 1620.448730 -0.280732 0.760920 0.584971
7538.991211 3289.241943 1728.835327 -0.280732 0.760920 0.584971
7693.428223 3416.605225 1637.278931 -0.280732 0.760920 0.584971
8450.813477 3108.816895 1500.596558 0.286170 0.291635 0.912719
7538.991211 3289.241943 1728.835327 0.286170 0.291635 0.912719
7573.924316 3042.662598 1796.670532 0.286170 0.291635 0.912719
8227.403320 2589.565918 1808.916016 0.235760 0.364373 0.900916
8403.637695 2699.392334 1718.378418 0.235760 0.364373 0.900916
7573.924316 3042.662598 1796.670532 0.235760 0.364373 0.900916
8403.637695 2699.392334 1718.378418 0.259515 0.430051 0.864701
8450.813477 3108.816895 1500.596558 0.259515 0.430051 0.864701
7573.924316 3042.662598 1796.670532 0.259515 0.430051 0.864701
7538.991211 3289.241943 1728.835327 -0.726796 0.084554 0.681629
7436.762695 3240.339600 1625.898926 -0.726796 0.084554 0.681629
7573.924316 3042.662598 1796.670532 -0.726796 0.084554 0.681629
8403.637695 2699.392334 1718.378418 0.610699 -0.433904 0.662400
8227.403320 2589.565918 1808.916016 0.610699 -0.433904 0.662400
8192.871094 2508.833984 1787.869629 0.610699 -0.433904 0.662400
7431.700195 3066.296387 1583.813843 -0.832133 -0.107359 0.544085
7573.924316 3042.662598 1796.670532 -0.832133 -0.107359 0.544085
7436.762695 3240.339600 1625.898926 -0.832133 -0.107359 0.544085
7694.083496 2796.306152 1814.904419 -0.795915 -0.351733 0.492752
7573.924316 3042.662598 1796.670532 -0.795915 -0.351733 0.492752
7431.700195 3066.296387 1583.813843 -0.795915 -0.351733 0.492752
8032.345215 2545.254639 1820.243286 0.122930 -0.299257 0.946221
8192.871094 2508.833984 1787.869629 0.122930 -0.299257 0.946221
8227.403320 2589.565918 1808.916016 0.122930 -0.299257 0.946221
7573.924316 3042.662598 1796.670532 0.060919 0.103194 0.992794
7694.083496 2796.306152 1814.904419 0.060919 0.103194 0.992794
8032.345215 2545.254639 1820.243286 0.060919 0.103194 0.992794
8227.403320 2589.565918 1808.916016 0.038951 0.083089 0.995781
7573.924316 3042.662598 1796.670532 0.038951 0.083089 0.995781
8032.345215 2545.254639 1820.243286 0.038951 0.083089 0.995781
8116.234863 2544.483887 9532.169922 0.500997 -0.658243 -0.561888
8349.739258 2637.465576 9631.443359 0.500997 -0.658243 -0.561888
8244.605469 2417.500000 9795.388672 0.500997 -0.658243 -0.561888
8057.564941 2549.562500 9538.542969 -0.429352 -0.469953 -0.771234
7610.966309 2832.832275 9614.556641 -0.429352 -0.469953 -0.771234
7655.562988 2879.966797 9561.007812 -0.429352 -0.469953 -0.771234
7497.746094 3213.703613 9633.293945 -0.680278 -0.167115 -0.713648
7655.562988 2879.966797 9561.007812 -0.680278 -0.167115 -0.713648
7610.966309 2832.832275 9614.556641 -0.680278 -0.167115 -0.713648
8116.234863 2544.483887 9532.169922 0.221221 0.395971 -0.891217
8254.321289 3196.914307 9856.323242 0.221221 0.395971 -0.891217
8349.739258 2637.465576 9631.443359 0.221221 0.395971 -0.891217
8254.321289 3196.914307 9856.323242 0.249499 0.364562 -0.897131
8057.564941 2549.562500 9538.542969 0.249499 0.364562 -0.897131
7655.562988 2879.966797 9561.007812 0.249499 0.364562 -0.897131
7497.746094 3213.703613 9633.293945 0.230528 0.308874 -0.922742
7758.468750 3429.612305 9770.702148 0.230528 0.308874 -0.922742
7655.562988 2879.966797 9561.007812 0.230528 0.308874 -0.922742
7758.468750 3429.612305 9770.702148 -0.010825 0.546148 -0.837619
7497.746094 3213.703613 9633.293945 -0.010825 0.546148 -0.837619
7467.711914 3284.421631 9679.791992 -0.010825 0.546148 -0.837619
8116.234863 2544.483887 9532.169922 -0.057298 0.453917 -0.889200
8057.564941 2549.562500 9538.542969 -0.057298 0.453917 -0.889200
8254.321289 3196.914307 9856.323242 -0.057298 0.453917 -0.889200
8254.321289 3196.914307 9856.323242 0.228428 0.396393 -0.889210
8549.596680 2909.152832 9803.897461 0.228428 0.396393 -0.889210
8349.739258 2637.465576 9631.443359 0.228428 0.396393 -0.889210
7758.468750 3429.612305 9770.702148 0.294212 0.292094 -0.910011
8254.321289 3196.914307 9856.323242 0.294212 0.292094 -0.910011
7655.562988 2879.966797 9561.007812 0.294212 0.292094 -0.910011
7758.468750 3429.612305 9770.702148 -0.269271 0.837243 -0.475938
7467.711914 3284.421631 9679.791992 -0.269271 0.837243 -0.475938
7613.154297 3415.299561 9827.738281 -0.269271 0.837243 -0.475938
8263.976562 2088.261230 10254.356445 0.390336 -0.740216 -0.547465
8116.234863 2544.483887 9532.169922 0.390336 -0.740216 -0.547465
8244.605469 2417.500000 9795.388672 0.390336 -0.740216 -0.547465
8057.564941 2549.562500 9538.542969 -0.132545 -0.804280 -0.579281
8116.234863 2544.483887 9532.169922 -0.132545 -0.804280 -0.579281
8037.680664 2066.590576 10213.656250 -0.132545 -0.804280 -0.579281
8529.033203 3058.450684 9886.270508 0.334780 0.490142 -0.804788
8549.596680 2909.152832 9803.897461 0.334780 0.490142 -0.804788
8254.321289 3196.914307 9856.323242 0.334780 0.490142 -0.804788
7758.468750 3429.612305 9770.702148 -0.128104 0.988666 -0.078281
7613.154297 3415.299561 9827.738281 -0.128104 0.988666 -0.078281
7844.987305 3449.330566 9878.153320 -0.128104 0.988666 -0.078281
8138.772949 3349.721191 9923.337891 0.377770 0.596299 -0.708320
8529.033203 3058.450684 9886.270508 0.377770 0.596299 -0.708320
8254.321289 3196.914307 9856.323242 0.377770 0.596299 -0.708320
8138.772949 3349.721191 9923.337891 0.402698 0.605539 -0.686409
8254.321289 3196.914307 9856.323242 0.402698 0.605539 -0.686409
7758.468750 3429.612305 9770.702148 0.402698 0.605539 -0.686409
7227.685059 2923.161133 10558.254883 -0.904756 -0.252063 -0.343338
7497.746094 3213.703613 9633.293945 -0.904756 -0.252063 -0.343338
7610.966309 2832.832275 9614.556641 -0.904756 -0.252063 -0.343338
7467.711914 3284.421631 9679.791992 -0.668494 0.743717 -0.000735
7299.487305 3134.075195 10552.831055 -0.668494 0.743717 -0.000735
7613.154297 3415.299561 9827.738281 -0.668494 0.743717 -0.000735
8138.772949 3349.721191 9923.337891 0.348456 0.831258 -0.433116
7758.468750 3429.612305 9770.702148 0.348456 0.831258 -0.433116
7844.987305 3449.330566 9878.153320 0.348456 0.831258 -0.433116
8037.680664 2066.590576 10213.656250 0.177224 -0.815277 -0.551286
8116.234863 2544.483887 9532.169922 0.177224 -0.815277 -0.551286
8263.976562 2088.261230 10254.356445 0.177224 -0.815277 -0.551286
8638.409180 2547.707520 10503.151367 0.972831 -0.130680 -0.191108
8549.596680 2909.152832 9803.897461 0.972831 -0.130680 -0.191108
8652.024414 2704.072021 10465.537109 0.972831 -0.130680 -0.191108
7334.908203 2610.102295 10405.774414 -0.921983 -0.139916 -0.361069
7227.685059 2923.161133 10558.254883 -0.921983 -0.139916 -0.361069
7610.966309 2832.832275 9614.556641 -0.921983 -0.139916 -0.361069
8652.024414 2704.072021 10465.537109 0.978007 0.186369 -0.093638
8549.596680 2909.152832 9803.897461 0.978007 0.186369 -0.093638
8529.033203 3058.450684 9886.270508 0.978007 0.186369 -0.093638
8037.680664 2066.590576 10213.656250 -0.521663 -0.686529 -0.506503
7610.966309 2832.832275 9614.556641 -0.521663 -0.686529 -0.506503
8057.564941 2549.562500 9538.542969 -0.521663 -0.686529 -0.506503
7227.685059 2923.161133 10558.254883 -0.927875 -0.178978 -0.327131
7467.711914 3284.421631 9679.791992 -0.927875 -0.178978 -0.327131
7497.746094 3213.703613 9633.293945 -0.927875 -0.178978 -0.327131
7610.966309 2832.832275 9614.556641 -0.773853 -0.485552 -0.406684
7468.353027 2365.969727 10443.328125 -0.773853 -0.485552 -0.406684
7334.908203 2610.102295 10405.774414 -0.773853 -0.485552 -0.406684
8244.605469 2417.500000 9795.388672 0.588940 -0.644711 -0.487337
8349.739258 2637.465576 9631.443359 0.588940 -0.644711 -0.487337
8263.976562 2088.261230 10254.356445 0.588940 -0.644711 -0.487337
8138.772949 3349.721191 9923.337891 0.593601 0.762642 0.256935
8607.401367 2767.823730 10567.862305 0.593601 0.762642 0.256935
8529.033203 3058.450684 9886.270508 0.593601 0.762642 0.256935
7784.602539 2151.009766 10355.682617 -0.516140 -0.687175 -0.511264
7610.966309 2832.832275 9614.556641 -0.516140 -0.687175 -0.511264
8037.680664 2066.590576 10213.656250 -0.516140 -0.687175 -0.511264
7784.602539 2151.009766 10355.682617 -0.581184 -0.662173 -0.473024
7468.353027 2365.969727 10443.328125 -0.581184 -0.662173 -0.473024
7610.966309 2832.832275 9614.556641 -0.581184 -0.662173 -0.473024
8010.845703 3171.633057 10767.986328 0.278763 0.930307 0.238369
8138.772949 3349.721191 9923.337891 0.278763 0.930307 0.238369
7844.987305 3449.330566 9878.153320 0.278763 0.930307 0.238369
8500.186523 2305.748047 10410.628906 0.749914 -0.544018 -0.376396
8263.976562 2088.261230 10254.356445 0.749914 -0.544018 -0.376396
8349.739258 2637.465576 9631.443359 0.749914 -0.544018 -0.376396
8500.186523 2305.748047 10410.628906 0.847647 -0.409103 -0.337831
8349.739258 2637.465576 9631.443359 0.847647 -0.409103 -0.337831
8549.596680 2909.152832 9803.897461 0.847647 -0.409103 -0.337831
8529.033203 3058.450684 9886.270508 0.881267 0.462767 0.095995
8607.401367 2767.823730 10567.862305 0.881267 0.462767 0.095995
8652.024414 2704.072021 10465.537109 0.881267 0.462767 0.095995
8049.743652 2058.666992 10327.212891 0.109396 -0.990713 -0.080749
8037.680664 2066.590576 10213.656250 0.109396 -0.990713 -0.080749
8263.976562 2088.261230 10254.356445 0.109396 -0.990713 -0.080749
7227.685059 2923.161133 10558.254883 -0.940021 0.316760 -0.126582
7299.487305 3134.075195 10552.831055 -0.940021 0.316760 -0.126582
7467.711914 3284.421631 9679.791992 -0.940021 0.316760 -0.126582
8037.680664 2066.590576 10213.656250 -0.331672 -0.942900 -0.030559
8049.743652 2058.666992 10327.212891 -0.331672 -0.942900 -0.030559
7784.602539 2151.009766 10355.682617 -0.331672 -0.942900 -0.030559
7299.487305 3134.075195 10552.831055 -0.568920 0.819267 0.071641
7448.970703 3221.223877 10743.309570 -0.568920 0.819267 0.071641
7613.154297 3415.299561 9827.738281 -0.568920 0.819267 0.071641
7613.154297 3415.299561 9827.738281 -0.179776 0.968370 0.173030
7448.970703 3221.223877 10743.309570 -0.179776 0.968370 0.173030
7844.987305 3449.330566 9878.153320 -0.179776 0.968370 0.173030
8500.186523 2305.748047 10410.628906 0.872107 -0.380616 -0.307507
8549.596680 2909.152832 9803.897461 0.872107 -0.380616 -0.307507
8638.409180 2547.707520 10503.151367 0.872107 -0.380616 -0.307507
7844.987305 3449.330566 9878.153320 -0.173203 0.968996 0.176203
7448.970703 3221.223877 10743.309570 -0.173203 0.968996 0.176203
7770.135254 3287.493408 10694.568359 -0.173203 0.968996 0.176203
8263.976562 2088.261230 10254.356445 0.303247 -0.750901 0.586676
8500.186523 2305.748047 10410.628906 0.303247 -0.750901 0.586676
8049.743652 2058.666992 10327.212891 0.303247 -0.750901 0.586676
8138.772949 3349.721191 9923.337891 0.598947 0.760421 0.251044
8010.845703 3171.633057 10767.986328 0.598947 0.760421 0.251044
8607.401367 2767.823730 10567.862305 0.598947 0.760421 0.251044
8010.845703 3171.633057 10767.986328 0.519283 0.841375 -0.149777
8419.348633 2906.063477 10692.440430 0.519283 0.841375 -0.149777
8607.401367 2767.823730 10567.862305 0.519283 0.841375 -0.149777
7784.602539 2151.009766 10355.682617 -0.127232 -0.607134 0.784347
8049.743652 2058.666992 10327.212891 -0.127232 -0.607134 0.784347
7646.604980 2504.721436 10607.092773 -0.127232 -0.607134 0.784347
7468.353027 2365.969727 10443.328125 -0.211832 -0.619755 0.755666
7784.602539 2151.009766 10355.682617 -0.211832 -0.619755 0.755666
7646.604980 2504.721436 10607.092773 -0.211832 -0.619755 0.755666
7334.908203 2610.102295 10405.774414 -0.877361 -0.479828 -0.001657
7468.353027 2365.969727 10443.328125 -0.877361 -0.479828 -0.001657
7279.573730 2710.606445 10601.132812 -0.877361 -0.479828 -0.001657
8010.845703 3171.633057 10767.986328 0.370182 0.904170 0.213172
7844.987305 3449.330566 9878.153320 0.370182 0.904170 0.213172
7770.135254 3287.493408 10694.568359 0.370182 0.904170 0.213172
7279.573730 2710.606445 10601.132812 -0.310741 -0.531140 0.788245
7468.353027 2365.969727 10443.328125 -0.310741 -0.531140 0.788245
7646.604980 2504.721436 10607.092773 -0.310741 -0.531140 0.788245
8500.186523 2305.748047 10410.628906 0.299811 -0.485334 0.821319
8638.409180 2547.707520 10503.151367 0.299811 -0.485334 0.821319
8497.040039 2734.511963 10665.142578 0.299811 -0.485334 0.821319
7334.908203 2610.102295 10405.774414 -0.955683 -0.260837 -0.136503
7279.573730 2710.606445 10601.132812 -0.955683 -0.260837 -0.136503
7227.685059 2923.161133 10558.254883 -0.955683 -0.260837 -0.136503
8049.743652 2058.666992 10327.212891 0.119457 -0.506139 0.854139
8500.186523 2305.748047 10410.628906 0.119457 -0.506139 0.854139
8497.040039 2734.511963 10665.142578 0.119457 -0.506139 0.854139
8638.409180 2547.707520 10503.151367 0.919763 0.014262 0.392214
8652.024414 2704.072021 10465.537109 0.919763 0.014262 0.392214
8607.401367 2767.823730 10567.862305 0.919763 0.014262 0.392214
8497.040039 2734.511963 10665.142578 0.071030 -0.483303 0.872567
7646.604980 2504.721436 10607.092773 0.071030 -0.483303 0.872567
8049.743652 2058.666992 10327.212891 0.071030 -0.483303 0.872567
8638.409180 2547.707520 10503.151367 0.676470 -0.118400 0.726890
8607.401367 2767.823730 10567.862305 0.676470 -0.118400 0.726890
8497.040039 2734.511963 10665.142578 0.676470 -0.118400 0.726890
8419.348633 2906.063477 10692.440430 0.624729 0.161356 0.763988
8497.040039 2734.511963 10665.142578 0.624729 0.161356 0.763988
8607.401367 2767.823730 10567.862305 0.624729 0.161356 0.763988
7279.573730 2710.606445 10601.132812 -0.868674 -0.114851 0.481887
7300.515625 3043.359131 10718.190430 -0.868674 -0.114851 0.481887
7227.685059 2923.161133 10558.254883 -0.868674 -0.114851 0.481887
7227.685059 2923.161133 10558.254883 -0.929414 0.321082 0.181925
7300.515625 3043.359131 10718.190430 -0.929414 0.321082 0.181925
7299.487305 3134.075195 10552.831055 -0.929414 0.321082 0.181925
7299.487305 3134.075195 10552.831055 -0.748621 0.579298 0.322458
7300.515625 3043.359131 10718.190430 -0.748621 0.579298 0.322458
7448.970703 3221.223877 10743.309570 -0.748621 0.579298 0.322458
7646.604980 2504.721436 10607.092773 -0.191754 -0.314931 0.929542
7300.515625 3043.359131 10718.190430 -0.191754 -0.314931 0.929542
7279.573730 2710.606445 10601.132812 -0.191754 -0.314931 0.929542
8497.040039 2734.511963 10665.142578 0.026261 -0.335110 0.941813
7929.612305 3103.696777 10812.325195 0.026261 -0.335110 0.941813
7646.604980 2504.721436 10607.092773 0.026261 -0.335110 0.941813
7300.515625 3043.359131 10718.190430 -0.116830 -0.272074 0.955158
7646.604980 2504.721436 10607.092773 -0.116830 -0.272074 0.955158
7929.612305 3103.696777 10812.325195 -0.116830 -0.272074 0.955158
8419.348633 2906.063477 10692.440430 0.215401 -0.057568 0.974827
7929.612305 3103.696777 10812.325195 0.215401 -0.057568 0.974827
8497.040039 2734.511963 10665.142578 0.215401 -0.057568 0.974827
7770.135254 3287.493408 10694.568359 -0.134536 0.920966 0.365681
7448.970703 3221.223877 10743.309570 -0.134536 0.920966 0.365681
7650.146973 3232.173828 10789.746094 -0.134536 0.920966 0.365681
8419.348633 2906.063477 10692.440430 0.316025 0.223845 0.921966
8010.845703 3171.633057 10767.986328 0.316025 0.223845 0.921966
7929.612305 3103.696777 10812.325195 0.316025 0.223845 0.921966
7300.515625 3043.359131 10718.190430 -0.146317 -0.017561 0.989082
7929.612305 3103.696777 10812.325195 -0.146317 -0.017561 0.989082
7448.970703 3221.223877 10743.309570 -0.146317 -0.017561 0.989082
7929.612305 3103.696777 10812.325195 -0.202080 -0.274340 0.940160
7650.146973 3232.173828 10789.746094 -0.202080 -0.274340 0.940160
7448.970703 3221.223877 10743.309570 -0.202080 -0.274340 0.940160
8010.845703 3171.633057 10767.986328 0.164394 0.748580 0.642341
7770.135254 3287.493408 10694.568359 0.164394 0.748580 0.642341
7650.146973 3232.173828 10789.746094 0.164394 0.748580 0.642341
8010.845703 3171.633057 10767.986328 0.126350 0.431792 0.893080
7650.146973 3232.173828 10789.746094 0.126350 0.431792 0.893080
7929.612305 3103.696777 10812.325195 0.126350 0.431792 0.893080
3 0 1 2
3 3 4 5
3 6 7 8
3 9 10 11
3 12 13 14
3 15 16 17
3 18 19 20
3 21 22 23
3 24 25 26
3 27 28 29
3 30 31 32
3 33 34 35
3 36 37 38
3 39 40 41
3 42 43 44
3 45 46 47
3 48 49 50
3 51 52 53
3 54 55 56
3 57 58 59
3 60 61 62
3 63 64 65
3 66 67 68
3 69 70 71
3 72 73 74
3 75 76 77
3 78 79 80
3 81 82 83
3 84 85 86
3 87 88 89
3 90 91 92
3 93 94 95
3 96 97 98
3 99 100 101
3 102 103 104
3 105 106 107
3 108 109 110
3 111 112 113
3 114 115 116
3 117 118 119
3 120 121 122
3 123 124 125
3 126 127 128
3 129 130 131
3 132 133 134
3 135 136 137
3 138 139 140
3 141 142 143
3 144 145 146
3 147 148 149
3 150 151 152
3 153 154 155
3 156 157 158
3 159 160 161
3 162 163 164
3 165 166 167
3 168 169 170
3 171 172 173
3 174 175 176
3 177 178 179
3 180 181 182
3 183 184 185
3 186 187 188
3 189 190 191
3 192 193 194
3 195 196 197
3 198 199 200
3 201 202 203
3 204 205 206
3 207 208 209
3 210 211 212
3 213 214 215
3 216 217 218
3 219 220 221
3 222 223 224
3 225 226 227
3 228 229 230
3 231 232 233
3 234 235 236
3 237 238 239
3 240 241 242
3 243 244 245
3 246 247 248
3 249 250 251
3 252 253 254
3 255 256 257
3 258 259 260
3 261 262 263
3 264 265 266
3 267 268 269
3 270 271 272
3 273 274 275
3 276 277 278
3 279 280 281
3 282 283 284
3 285 286 287
3 288 289 290
3 291 292 293
3 294 295 296
3 297 298 299
3 300 301 302
3 303 304 305
3 306 307 308
3 309 310 311
3 312 313 314
3 315 316 317
3 318 319 320
3 321 322 323
3 324 325 326
3 327 328 329
3 330 331 332
3 333 334 335
3 336 337 338
3 339 340 341
3 342 343 344
3 345 346 347
3 348 349 350
3 351 352 353
3 354 355 356
3 357 358 359
3 360 361 362
3 363 364 365
3 366 367 368
3 369 370 371
3 372 373 374
3 375 376 377
3 378 379 380
3 381 382 383
3 384 385 386
3 387 388 389
3 390 391 392
3 393 394 395
3 396 397 398
3 399 400 401
3 402 403 404
3 405 406 407
3 408 409 410
3 411 412 413
3 414 415 416
3 417 418 419
3 420 421 422
3 423 424 425
3 426 427 428
3 429 430 431
