ply
format ascii 1.0
comment Created by Blender 2.80 (sub 75) - www.blender.org, source file: 'downsample_ccf.blend'
element vertex 156
property float x
property float y
property float z
property float nx
property float ny
property float nz
element face 52
property list uchar uint vertex_indices
end_header
8372.259766 3072.939941 1352.687866 0.539094 0.526804 -0.657157
8175.439453 3269.902344 1349.120850 0.539094 0.526804 -0.657157
8507.194336 3065.008789 1457.022583 0.539094 0.526804 -0.657157
8372.259766 3072.939941 1352.687866 -0.170376 -0.187771 -0.967323
7656.720215 3364.266602 1422.166016 -0.170376 -0.187771 -0.967323
8175.439453 3269.902344 1349.120850 -0.170376 -0.187771 -0.967323
7921.788086 3430.346924 1464.615234 -0.011356 0.572294 -0.819970
8175.439453 3269.902344 1349.120850 -0.011356 0.572294 -0.819970
7656.720215 3364.266602 1422.166016 -0.011356 0.572294 -0.819970
8372.259766 3072.939941 1352.687866 0.598247 0.274470 -0.752840
8507.194336 3065.008789 1457.022583 0.598247 0.274470 -0.752840
8556.048828 2928.590576 1446.109741 0.598247 0.274470 -0.752840
8372.259766 3072.939941 1352.687866 -0.224222 -0.332226 -0.916161
7536.224121 2909.522217 1616.559570 -0.224222 -0.332226 -0.916161
7656.720215 3364.266602 1422.166016 -0.224222 -0.332226 -0.916161
7921.788086 3430.346924 1464.615234 -0.187464 0.938415 -0.290231
7656.720215 3364.266602 1422.166016 -0.187464 0.938415 -0.290231
7659.078613 3416.360107 1589.078491 -0.187464 0.938415 -0.290231
8175.439453 3269.902344 1349.120850 0.529214 0.848333 -0.016231
7921.788086 3430.346924 1464.615234 0.529214 0.848333 -0.016231
8507.194336 3065.008789 1457.022583 0.529214 0.848333 -0.016231
7447.249023 3274.894531 1606.913086 -0.552941 0.797573 -0.241110
7659.078613 3416.360107 1589.078491 -0.552941 0.797573 -0.241110
7656.720215 3364.266602 1422.166016 -0.552941 0.797573 -0.241110
8556.048828 2928.590576 1446.109741 0.013380 -0.531220 -0.847128
8365.607422 2614.780518 1639.886719 0.013380 -0.531220 -0.847128
8372.259766 3072.939941 1352.687866 0.013380 -0.531220 -0.847128
8556.048828 2928.590576 1446.109741 0.752255 0.219710 0.621160
8507.194336 3065.008789 1457.022583 0.752255 0.219710 0.621160
8436.908203 2736.240234 1658.430908 0.752255 0.219710 0.621160
7656.720215 3364.266602 1422.166016 -0.610381 -0.169070 -0.773854
7536.224121 2909.522217 1616.559570 -0.610381 -0.169070 -0.773854
7447.249023 3274.894531 1606.913086 -0.610381 -0.169070 -0.773854
8365.607422 2614.780518 1639.886719 -0.014075 -0.530928 -0.847300
7914.392578 2581.944580 1667.957764 -0.014075 -0.530928 -0.847300
8372.259766 3072.939941 1352.687866 -0.014075 -0.530928 -0.847300
7914.392578 2581.944580 1667.957764 -0.209210 -0.382713 -0.899867
7536.224121 2909.522217 1616.559570 -0.209210 -0.382713 -0.899867
8372.259766 3072.939941 1352.687866 -0.209210 -0.382713 -0.899867
8556.048828 2928.590576 1446.109741 0.860694 -0.508640 0.022167
8436.908203 2736.240234 1658.430908 0.860694 -0.508640 0.022167
8365.607422 2614.780518 1639.886719 0.860694 -0.508640 0.022167
7921.788086 3430.346924 1464.615234 0.340187 0.528947 0.777488
7659.078613 3416.360107 1589.078491 0.340187 0.528947 0.777488
8507.194336 3065.008789 1457.022583 0.340187 0.528947 0.777488
7536.224121 2909.522217 1616.559570 -0.966679 -0.232581 0.106949
7517.199219 3049.541016 1749.096802 -0.966679 -0.232581 0.106949
7447.249023 3274.894531 1606.913086 -0.966679 -0.232581 0.106949
7914.392578 2581.944580 1667.957764 0.000279 -0.652018 -0.758204
8365.607422 2614.780518 1639.886719 0.000279 -0.652018 -0.758204
8171.677246 2492.958252 1744.576416 0.000279 -0.652018 -0.758204
8507.194336 3065.008789 1457.022583 0.290305 0.368891 0.882974
7659.078613 3416.360107 1589.078491 0.290305 0.368891 0.882974
7545.694336 3145.335205 1739.586548 0.290305 0.368891 0.882974
7536.224121 2909.522217 1616.559570 -0.659240 -0.744451 0.105810
7914.392578 2581.944580 1667.957764 -0.659240 -0.744451 0.105810
7957.825684 2561.034424 1791.445557 -0.659240 -0.744451 0.105810
8507.194336 3065.008789 1457.022583 0.285829 0.455417 0.843147
7545.694336 3145.335205 1739.586548 0.285829 0.455417 0.843147
8436.908203 2736.240234 1658.430908 0.285829 0.455417 0.843147
7957.825684 2561.034424 1791.445557 -0.312983 -0.948415 -0.050512
7914.392578 2581.944580 1667.957764 -0.312983 -0.948415 -0.050512
8171.677246 2492.958252 1744.576416 -0.312983 -0.948415 -0.050512
7659.078613 3416.360107 1589.078491 -0.306996 0.556982 0.771703
7447.249023 3274.894531 1606.913086 -0.306996 0.556982 0.771703
7545.694336 3145.335205 1739.586548 -0.306996 0.556982 0.771703
7957.825684 2561.034424 1791.445557 -0.666443 -0.558286 0.494137
7517.199219 3049.541016 1749.096802 -0.666443 -0.558286 0.494137
7536.224121 2909.522217 1616.559570 -0.666443 -0.558286 0.494137
7517.199219 3049.541016 1749.096802 -0.635499 0.261171 0.726589
7545.694336 3145.335205 1739.586548 -0.635499 0.261171 0.726589
7447.249023 3274.894531 1606.913086 -0.635499 0.261171 0.726589
8171.677246 2492.958252 1744.576416 0.628512 -0.464238 0.624064
8365.607422 2614.780518 1639.886719 0.628512 -0.464238 0.624064
8436.908203 2736.240234 1658.430908 0.628512 -0.464238 0.624064
8171.677246 2492.958252 1744.576416 0.238407 0.082722 0.967636
8436.908203 2736.240234 1658.430908 0.238407 0.082722 0.967636
7957.825684 2561.034424 1791.445557 0.238407 0.082722 0.967636
8436.908203 2736.240234 1658.430908 0.186760 0.216773 0.958191
7545.694336 3145.335205 1739.586548 0.186760 0.216773 0.958191
7957.825684 2561.034424 1791.445557 0.186760 0.216773 0.958191
7545.694336 3145.335205 1739.586548 0.010446 0.095710 0.995354
7517.199219 3049.541016 1749.096802 0.010446 0.095710 0.995354
7957.825684 2561.034424 1791.445557 0.010446 0.095710 0.995354
8116.166504 2512.340332 9580.003906 -0.495043 -0.766523 -0.409114
8051.209961 2498.360840 9684.795898 -0.495043 -0.766523 -0.409114
7782.199219 2646.651123 9732.469727 -0.495043 -0.766523 -0.409114
8116.166504 2512.340332 9580.003906 -0.518891 -0.607298 -0.601615
7782.199219 2646.651123 9732.469727 -0.518891 -0.607298 -0.601615
7594.078613 2933.659912 9605.002930 -0.518891 -0.607298 -0.601615
7594.078613 2933.659912 9605.002930 0.211028 0.316378 -0.924863
7694.304199 3411.781738 9791.427734 0.211028 0.316378 -0.924863
8116.166504 2512.340332 9580.003906 0.211028 0.316378 -0.924863
7488.617676 3269.217041 9695.799805 -0.838886 -0.119992 -0.530916
7594.078613 2933.659912 9605.002930 -0.838886 -0.119992 -0.530916
7451.619141 3080.711670 9796.864258 -0.838886 -0.119992 -0.530916
7488.617676 3269.217041 9695.799805 0.210658 0.316475 -0.924914
7694.304199 3411.781738 9791.427734 0.210658 0.316475 -0.924914
7594.078613 2933.659912 9605.002930 0.210658 0.316475 -0.924914
8533.682617 2984.185059 9870.441406 0.336201 0.259733 -0.905266
8384.831055 2618.935547 9710.365234 0.336201 0.259733 -0.905266
8116.166504 2512.340332 9580.003906 0.336201 0.259733 -0.905266
8235.235352 3268.948486 9931.211914 0.187630 0.389113 -0.901879
8533.682617 2984.185059 9870.441406 0.187630 0.389113 -0.901879
8116.166504 2512.340332 9580.003906 0.187630 0.389113 -0.901879
8116.166504 2512.340332 9580.003906 0.333256 -0.939328 0.081264
8384.831055 2618.935547 9710.365234 0.333256 -0.939328 0.081264
8051.209961 2498.360840 9684.795898 0.333256 -0.939328 0.081264
7782.199219 2646.651123 9732.469727 -0.797490 -0.586171 -0.142876
7451.619141 3080.711670 9796.864258 -0.797490 -0.586171 -0.142876
7594.078613 2933.659912 9605.002930 -0.797490 -0.586171 -0.142876
7694.304199 3411.781738 9791.427734 0.320919 0.356750 -0.877348
8235.235352 3268.948486 9931.211914 0.320919 0.356750 -0.877348
8116.166504 2512.340332 9580.003906 0.320919 0.356750 -0.877348
8533.682617 2984.185059 9870.441406 0.826242 -0.093246 -0.555545
8568.598633 2920.624756 9933.039062 0.826242 -0.093246 -0.555545
8384.831055 2618.935547 9710.365234 0.826242 -0.093246 -0.555545
7451.619141 3080.711670 9796.864258 -0.979092 0.202503 0.019274
7502.068359 3314.727783 9900.914062 -0.979092 0.202503 0.019274
7488.617676 3269.217041 9695.799805 -0.979092 0.202503 0.019274
8384.831055 2618.935547 9710.365234 0.179451 -0.652631 0.736118
8568.598633 2920.624756 9933.039062 0.179451 -0.652631 0.736118
8051.209961 2498.360840 9684.795898 0.179451 -0.652631 0.736118
7488.617676 3269.217041 9695.799805 -0.513663 0.844129 -0.153611
7502.068359 3314.727783 9900.914062 -0.513663 0.844129 -0.153611
7694.304199 3411.781738 9791.427734 -0.513663 0.844129 -0.153611
7451.619141 3080.711670 9796.864258 -0.272740 -0.341172 0.899563
7782.199219 2646.651123 9732.469727 -0.272740 -0.341172 0.899563
7502.068359 3314.727783 9900.914062 -0.272740 -0.341172 0.899563
8051.209961 2498.360840 9684.795898 -0.078757 -0.431746 0.898550
8568.598633 2920.624756 9933.039062 -0.078757 -0.431746 0.898550
7782.199219 2646.651123 9732.469727 -0.078757 -0.431746 0.898550
8235.235352 3268.948486 9931.211914 0.310131 0.912096 -0.268142
7694.304199 3411.781738 9791.427734 0.310131 0.912096 -0.268142
7921.161133 3397.572998 10005.477539 0.310131 0.912096 -0.268142
7502.068359 3314.727783 9900.914062 -0.172493 -0.308211 0.935549
7782.199219 2646.651123 9732.469727 -0.172493 -0.308211 0.935549
7921.161133 3397.572998 10005.477539 -0.172493 -0.308211 0.935549
8235.235352 3268.948486 9931.211914 0.691161 0.662984 0.287661
8568.598633 2920.624756 9933.039062 0.691161 0.662984 0.287661
8533.682617 2984.185059 9870.441406 0.691161 0.662984 0.287661
7502.068359 3314.727783 9900.914062 -0.263098 0.903323 0.338803
7921.161133 3397.572998 10005.477539 -0.263098 0.903323 0.338803
7694.304199 3411.781738 9791.427734 -0.263098 0.903323 0.338803
8235.235352 3268.948486 9931.211914 0.423618 0.843045 0.331396
7921.161133 3397.572998 10005.477539 0.423618 0.843045 0.331396
8271.815430 3211.552979 10030.461914 0.423618 0.843045 0.331396
8235.235352 3268.948486 9931.211914 0.715711 0.685668 0.132730
8271.815430 3211.552979 10030.461914 0.715711 0.685668 0.132730
8568.598633 2920.624756 9933.039062 0.715711 0.685668 0.132730
8568.598633 2920.624756 9933.039062 -0.093079 -0.400242 0.911670
8271.815430 3211.552979 10030.461914 -0.093079 -0.400242 0.911670
7782.199219 2646.651123 9732.469727 -0.093079 -0.400242 0.911670
8271.815430 3211.552979 10030.461914 -0.223341 -0.296282 0.928620
7921.161133 3397.572998 10005.477539 -0.223341 -0.296282 0.928620
7782.199219 2646.651123 9732.469727 -0.223341 -0.296282 0.928620
3 0 1 2
3 3 4 5
3 6 7 8
3 9 10 11
3 12 13 14
3 15 16 17
3 18 19 20
3 21 22 23
3 24 25 26
3 27 28 29
3 30 31 32
3 33 34 35
3 36 37 38
3 39 40 41
3 42 43 44
3 45 46 47
3 48 49 50
3 51 52 53
3 54 55 56
3 57 58 59
3 60 61 62
3 63 64 65
3 66 67 68
3 69 70 71
3 72 73 74
3 75 76 77
3 78 79 80
3 81 82 83
3 84 85 86
3 87 88 89
3 90 91 92
3 93 94 95
3 96 97 98
3 99 100 101
3 102 103 104
3 105 106 107
3 108 109 110
3 111 112 113
3 114 115 116
3 117 118 119
3 120 121 122
3 123 124 125
3 126 127 128
3 129 130 131
3 132 133 134
3 135 136 137
3 138 139 140
3 141 142 143
3 144 145 146
3 147 148 149
3 150 151 152
3 153 154 155
