ply
format ascii 1.0
comment Created by Blender 2.80 (sub 75) - www.blender.org, source file: 'downsample_ccf.blend'
element vertex 156
property float x
property float y
property float z
property float nx
property float ny
property float nz
element face 52
property list uchar uint vertex_indices
end_header
8572.340820 3417.033691 1245.236816 -0.159205 -0.193610 -0.968075
7895.125000 3474.249512 1345.165771 -0.159205 -0.193610 -0.968075
8054.636230 3696.893066 1274.405640 -0.159205 -0.193610 -0.968075
8572.340820 3417.033691 1245.236816 -0.165945 -0.362267 -0.917183
8690.640625 3103.125244 1347.819702 -0.165945 -0.362267 -0.917183
7895.125000 3474.249512 1345.165771 -0.165945 -0.362267 -0.917183
8690.640625 3103.125244 1347.819702 0.843724 0.149492 -0.515540
8572.340820 3417.033691 1245.236816 0.843724 0.149492 -0.515540
8638.436523 3391.229004 1345.925415 0.843724 0.149492 -0.515540
8054.636230 3696.893066 1274.405640 0.470235 0.878581 -0.083515
8638.436523 3391.229004 1345.925415 0.470235 0.878581 -0.083515
8572.340820 3417.033691 1245.236816 0.470235 0.878581 -0.083515
8690.640625 3103.125244 1347.819702 -0.331044 -0.714014 -0.616923
8652.090820 3018.444336 1466.513672 -0.331044 -0.714014 -0.616923
7895.125000 3474.249512 1345.165771 -0.331044 -0.714014 -0.616923
8054.636230 3696.893066 1274.405640 0.439325 0.880617 0.177505
7861.916504 3759.844482 1439.079834 0.439325 0.880617 0.177505
8638.436523 3391.229004 1345.925415 0.439325 0.880617 0.177505
8131.272949 3407.922363 1419.075195 -0.373977 -0.398061 0.837669
7895.125000 3474.249512 1345.165771 -0.373977 -0.398061 0.837669
8652.090820 3018.444336 1466.513672 -0.373977 -0.398061 0.837669
8690.640625 3103.125244 1347.819702 0.897287 0.165279 0.409340
8638.436523 3391.229004 1345.925415 0.897287 0.165279 0.409340
8652.090820 3018.444336 1466.513672 0.897287 0.165279 0.409340
7142.545410 3281.567139 1573.335327 -0.219526 -0.204494 -0.953934
7169.932617 3733.619629 1470.126831 -0.219526 -0.204494 -0.953934
8054.636230 3696.893066 1274.405640 -0.219526 -0.204494 -0.953934
7142.545410 3281.567139 1573.335327 -0.260307 -0.118064 -0.958280
8054.636230 3696.893066 1274.405640 -0.260307 -0.118064 -0.958280
7895.125000 3474.249512 1345.165771 -0.260307 -0.118064 -0.958280
8638.436523 3391.229004 1345.925415 0.144295 0.054277 0.988045
7861.916504 3759.844482 1439.079834 0.144295 0.054277 0.988045
8131.272949 3407.922363 1419.075195 0.144295 0.054277 0.988045
7169.932617 3733.619629 1470.126831 -0.052903 0.910551 -0.409997
7861.916504 3759.844482 1439.079834 -0.052903 0.910551 -0.409997
8054.636230 3696.893066 1274.405640 -0.052903 0.910551 -0.409997
7895.125000 3474.249512 1345.165771 -0.181092 -0.371162 -0.910738
7326.828613 3200.526855 1569.719360 -0.181092 -0.371162 -0.910738
7142.545410 3281.567139 1573.335327 -0.181092 -0.371162 -0.910738
7326.828613 3200.526855 1569.719360 0.528745 -0.662868 0.530127
7895.125000 3474.249512 1345.165771 0.528745 -0.662868 0.530127
7617.763184 3438.007080 1576.487061 0.528745 -0.662868 0.530127
7895.125000 3474.249512 1345.165771 -0.156709 -0.929617 -0.333548
8131.272949 3407.922363 1419.075195 -0.156709 -0.929617 -0.333548
7617.763184 3438.007080 1576.487061 -0.156709 -0.929617 -0.333548
7861.916504 3759.844482 1439.079834 -0.048017 0.965930 -0.254310
7169.932617 3733.619629 1470.126831 -0.048017 0.965930 -0.254310
7253.352051 3777.851562 1622.379639 -0.048017 0.965930 -0.254310
8652.090820 3018.444336 1466.513672 0.145721 0.309320 0.939727
8638.436523 3391.229004 1345.925415 0.145721 0.309320 0.939727
8131.272949 3407.922363 1419.075195 0.145721 0.309320 0.939727
8131.272949 3407.922363 1419.075195 0.297915 0.174673 0.938475
7861.916504 3759.844482 1439.079834 0.297915 0.174673 0.938475
7617.763184 3438.007080 1576.487061 0.297915 0.174673 0.938475
7617.763184 3438.007080 1576.487061 0.704667 -0.251274 0.663556
7861.916504 3759.844482 1439.079834 0.704667 -0.251274 0.663556
7415.484375 3278.871338 1731.036987 0.704667 -0.251274 0.663556
7415.484375 3278.871338 1731.036987 0.631675 -0.774688 0.029078
7326.828613 3200.526855 1569.719360 0.631675 -0.774688 0.029078
7617.763184 3438.007080 1576.487061 0.631675 -0.774688 0.029078
7142.545410 3281.567139 1573.335327 -0.971972 0.106713 0.209482
7188.658203 3324.478027 1765.434082 -0.971972 0.106713 0.209482
7169.932617 3733.619629 1470.126831 -0.971972 0.106713 0.209482
7415.484375 3278.871338 1731.036987 0.283795 0.291160 0.913612
7861.916504 3759.844482 1439.079834 0.283795 0.291160 0.913612
7253.352051 3777.851562 1622.379639 0.283795 0.291160 0.913612
7188.658203 3324.478027 1765.434082 -0.877468 0.253655 0.407074
7253.352051 3777.851562 1622.379639 -0.877468 0.253655 0.407074
7169.932617 3733.619629 1470.126831 -0.877468 0.253655 0.407074
7326.828613 3200.526855 1569.719360 -0.380798 -0.878760 0.287706
7188.658203 3324.478027 1765.434082 -0.380798 -0.878760 0.287706
7142.545410 3281.567139 1573.335327 -0.380798 -0.878760 0.287706
7415.484375 3278.871338 1731.036987 -0.102501 -0.871493 0.479576
7188.658203 3324.478027 1765.434082 -0.102501 -0.871493 0.479576
7326.828613 3200.526855 1569.719360 -0.102501 -0.871493 0.479576
7415.484375 3278.871338 1731.036987 0.197101 0.269317 0.942666
7253.352051 3777.851562 1622.379639 0.197101 0.269317 0.942666
7188.658203 3324.478027 1765.434082 0.197101 0.269317 0.942666
7388.145020 3222.527588 9691.070312 -0.178328 -0.911850 -0.369768
7146.982910 3240.594238 9762.823242 -0.178328 -0.911850 -0.369768
7210.838379 3297.201904 9592.432617 -0.178328 -0.911850 -0.369768
7388.145020 3222.527588 9691.070312 0.458339 -0.080845 -0.885093
7210.838379 3297.201904 9592.432617 0.458339 -0.080845 -0.885093
7744.410156 3485.095947 9851.576172 0.458339 -0.080845 -0.885093
7388.145020 3222.527588 9691.070312 0.587892 -0.808737 0.018089
7744.410156 3485.095947 9851.576172 0.587892 -0.808737 0.018089
7705.535645 3459.650146 9977.349609 0.587892 -0.808737 0.018089
7217.006836 3745.514404 9724.817383 0.345663 0.261371 -0.901223
7744.410156 3485.095947 9851.576172 0.345663 0.261371 -0.901223
7210.838379 3297.201904 9592.432617 0.345663 0.261371 -0.901223
7388.145020 3222.527588 9691.070312 -0.104196 -0.989407 -0.101080
7351.380371 3212.085938 9831.174805 -0.104196 -0.989407 -0.101080
7146.982910 3240.594238 9762.823242 -0.104196 -0.989407 -0.101080
7210.838379 3297.201904 9592.432617 -0.942187 0.106757 -0.317626
7146.982910 3240.594238 9762.823242 -0.942187 0.106757 -0.317626
7217.006836 3745.514404 9724.817383 -0.942187 0.106757 -0.317626
7388.145020 3222.527588 9691.070312 0.548110 -0.832398 0.081792
7705.535645 3459.650146 9977.349609 0.548110 -0.832398 0.081792
7351.380371 3212.085938 9831.174805 0.548110 -0.832398 0.081792
7175.387695 3728.926514 9931.637695 -0.974958 0.121174 -0.186475
7217.006836 3745.514404 9724.817383 -0.974958 0.121174 -0.186475
7146.982910 3240.594238 9762.823242 -0.974958 0.121174 -0.186475
7146.982910 3240.594238 9762.823242 -0.339638 -0.289595 0.894863
7351.380371 3212.085938 9831.174805 -0.339638 -0.289595 0.894863
7175.387695 3728.926514 9931.637695 -0.339638 -0.289595 0.894863
7987.487793 3751.164551 10003.043945 0.329795 0.221176 -0.917778
7744.410156 3485.095947 9851.576172 0.329795 0.221176 -0.917778
7217.006836 3745.514404 9724.817383 0.329795 0.221176 -0.917778
8619.512695 3043.661865 9914.481445 0.825112 -0.085922 -0.558398
8695.055664 3267.005615 9991.740234 0.825112 -0.085922 -0.558398
8663.151367 3005.042236 9984.906250 0.825112 -0.085922 -0.558398
7217.006836 3745.514404 9724.817383 -0.033727 0.996750 0.073157
7175.387695 3728.926514 9931.637695 -0.033727 0.996750 0.073157
7987.487793 3751.164551 10003.043945 -0.033727 0.996750 0.073157
8619.512695 3043.661865 9914.481445 -0.391674 -0.238656 -0.888614
8249.046875 3273.680420 10015.995117 -0.391674 -0.238656 -0.888614
7987.487793 3751.164551 10003.043945 -0.391674 -0.238656 -0.888614
7175.387695 3728.926514 9931.637695 -0.211013 -0.255263 0.943565
7351.380371 3212.085938 9831.174805 -0.211013 -0.255263 0.943565
7705.535645 3459.650146 9977.349609 -0.211013 -0.255263 0.943565
7744.410156 3485.095947 9851.576172 -0.293552 -0.915262 -0.275903
8249.046875 3273.680420 10015.995117 -0.293552 -0.915262 -0.275903
7705.535645 3459.650146 9977.349609 -0.293552 -0.915262 -0.275903
7987.487793 3751.164551 10003.043945 0.169857 0.270360 -0.947657
8695.055664 3267.005615 9991.740234 0.169857 0.270360 -0.947657
8619.512695 3043.661865 9914.481445 0.169857 0.270360 -0.947657
8249.046875 3273.680420 10015.995117 0.371758 0.178936 -0.910922
7744.410156 3485.095947 9851.576172 0.371758 0.178936 -0.910922
7987.487793 3751.164551 10003.043945 0.371758 0.178936 -0.910922
8619.512695 3043.661865 9914.481445 -0.546674 -0.829270 -0.116010
8663.151367 3005.042236 9984.906250 -0.546674 -0.829270 -0.116010
8249.046875 3273.680420 10015.995117 -0.546674 -0.829270 -0.116010
8663.151367 3005.042236 9984.906250 0.798767 -0.112699 0.590991
8695.055664 3267.005615 9991.740234 0.798767 -0.112699 0.590991
8619.055664 3399.868652 10119.795898 0.798767 -0.112699 0.590991
8619.055664 3399.868652 10119.795898 0.494154 0.733086 -0.467330
8695.055664 3267.005615 9991.740234 0.494154 0.733086 -0.467330
7987.487793 3751.164551 10003.043945 0.494154 0.733086 -0.467330
8024.371582 3680.574951 10114.399414 -0.071200 0.831622 0.550759
7987.487793 3751.164551 10003.043945 -0.071200 0.831622 0.550759
7175.387695 3728.926514 9931.637695 -0.071200 0.831622 0.550759
7175.387695 3728.926514 9931.637695 -0.217312 -0.268534 0.938438
7705.535645 3459.650146 9977.349609 -0.217312 -0.268534 0.938438
8024.371582 3680.574951 10114.399414 -0.217312 -0.268534 0.938438
8619.055664 3399.868652 10119.795898 -0.147080 -0.334450 0.930865
8249.046875 3273.680420 10015.995117 -0.147080 -0.334450 0.930865
8663.151367 3005.042236 9984.906250 -0.147080 -0.334450 0.930865
8024.371582 3680.574951 10114.399414 -0.176421 -0.322338 0.930040
7705.535645 3459.650146 9977.349609 -0.176421 -0.322338 0.930040
8249.046875 3273.680420 10015.995117 -0.176421 -0.322338 0.930040
7987.487793 3751.164551 10003.043945 0.388632 0.830980 0.398043
8024.371582 3680.574951 10114.399414 0.388632 0.830980 0.398043
8619.055664 3399.868652 10119.795898 0.388632 0.830980 0.398043
8024.371582 3680.574951 10114.399414 -0.156153 -0.312804 0.936894
8249.046875 3273.680420 10015.995117 -0.156153 -0.312804 0.936894
8619.055664 3399.868652 10119.795898 -0.156153 -0.312804 0.936894
3 0 1 2
3 3 4 5
3 6 7 8
3 9 10 11
3 12 13 14
3 15 16 17
3 18 19 20
3 21 22 23
3 24 25 26
3 27 28 29
3 30 31 32
3 33 34 35
3 36 37 38
3 39 40 41
3 42 43 44
3 45 46 47
3 48 49 50
3 51 52 53
3 54 55 56
3 57 58 59
3 60 61 62
3 63 64 65
3 66 67 68
3 69 70 71
3 72 73 74
3 75 76 77
3 78 79 80
3 81 82 83
3 84 85 86
3 87 88 89
3 90 91 92
3 93 94 95
3 96 97 98
3 99 100 101
3 102 103 104
3 105 106 107
3 108 109 110
3 111 112 113
3 114 115 116
3 117 118 119
3 120 121 122
3 123 124 125
3 126 127 128
3 129 130 131
3 132 133 134
3 135 136 137
3 138 139 140
3 141 142 143
3 144 145 146
3 147 148 149
3 150 151 152
3 153 154 155
