ply
format ascii 1.0
comment Created by Blender 2.80 (sub 75) - www.blender.org, source file: 'downsample_ccf.blend'
element vertex 258
property float x
property float y
property float z
property float nx
property float ny
property float nz
element face 86
property list uchar uint vertex_indices
end_header
8062.628906 3414.021484 3092.407471 -0.307307 0.409154 0.859160
7721.512207 3401.638184 2976.293213 -0.307307 0.409154 0.859160
7685.133789 3257.306396 3032.015869 -0.307307 0.409154 0.859160
7652.145508 3129.260498 3105.899414 -0.345218 0.534193 0.771662
8062.628906 3414.021484 3092.407471 -0.345218 0.534193 0.771662
7685.133789 3257.306396 3032.015869 -0.345218 0.534193 0.771662
7652.145508 3129.260498 3105.899414 0.409790 -0.474934 -0.778787
7721.512207 3401.638184 2976.293213 0.409790 -0.474934 -0.778787
7951.854980 3068.816650 3300.464600 0.409790 -0.474934 -0.778787
7652.145508 3129.260498 3105.899414 -0.406601 0.617996 0.672872
8011.572754 3101.999512 3348.130615 -0.406601 0.617996 0.672872
8062.628906 3414.021484 3092.407471 -0.406601 0.617996 0.672872
7652.145508 3129.260498 3105.899414 -0.455221 0.506263 0.732442
7648.825195 2993.251465 3197.845215 -0.455221 0.506263 0.732442
8011.572754 3101.999512 3348.130615 -0.455221 0.506263 0.732442
8174.996582 3032.968750 3516.496338 0.257527 -0.683715 -0.682798
7721.512207 3401.638184 2976.293213 0.257527 -0.683715 -0.682798
8093.966797 3410.324951 3108.071533 0.257527 -0.683715 -0.682798
7951.854980 3068.816650 3300.464600 0.353163 -0.588899 -0.726962
7943.826172 3061.430420 3302.547607 0.353163 -0.588899 -0.726962
7652.145508 3129.260498 3105.899414 0.353163 -0.588899 -0.726962
7951.854980 3068.816650 3300.464600 0.653804 -0.244852 -0.715952
7721.512207 3401.638184 2976.293213 0.653804 -0.244852 -0.715952
8174.996582 3032.968750 3516.496338 0.653804 -0.244852 -0.715952
8011.572754 3101.999512 3348.130615 -0.284094 0.635142 0.718251
8093.966797 3410.324951 3108.071533 -0.284094 0.635142 0.718251
8062.628906 3414.021484 3092.407471 -0.284094 0.635142 0.718251
7648.825195 2993.251465 3197.845215 -0.428391 0.765502 0.480092
7647.517090 2857.777100 3412.690430 -0.428391 0.765502 0.480092
8011.572754 3101.999512 3348.130615 -0.428391 0.765502 0.480092
7647.517090 2857.777100 3412.690430 -0.463271 0.794418 0.392785
7785.823242 2876.055908 3538.846436 -0.463271 0.794418 0.392785
8011.572754 3101.999512 3348.130615 -0.463271 0.794418 0.392785
7943.826172 3061.430420 3302.547607 -0.434464 -0.825799 0.359579
8174.996582 3032.968750 3516.496338 -0.434464 -0.825799 0.359579
7652.145508 3129.260498 3105.899414 -0.434464 -0.825799 0.359579
7652.145508 3129.260498 3105.899414 0.365110 -0.688676 -0.626435
8174.996582 3032.968750 3516.496338 0.365110 -0.688676 -0.626435
8246.728516 2620.208252 4012.075928 0.365110 -0.688676 -0.626435
7647.517090 2857.777100 3412.690430 0.340252 -0.706745 -0.620274
7652.145508 3129.260498 3105.899414 0.340252 -0.706745 -0.620274
8246.728516 2620.208252 4012.075928 0.340252 -0.706745 -0.620274
8045.543945 2870.082031 3845.118408 -0.862172 0.433949 0.261434
8093.966797 3410.324951 3108.071533 -0.862172 0.433949 0.261434
8011.572754 3101.999512 3348.130615 -0.862172 0.433949 0.261434
8045.543945 2870.082031 3845.118408 0.495187 0.684879 0.534538
8174.996582 3032.968750 3516.496338 0.495187 0.684879 0.534538
8093.966797 3410.324951 3108.071533 0.495187 0.684879 0.534538
7785.823242 2876.055908 3538.846436 -0.496826 0.750408 0.435949
7647.517090 2857.777100 3412.690430 -0.496826 0.750408 0.435949
8045.543945 2870.082031 3845.118408 -0.496826 0.750408 0.435949
8677.641602 3066.460693 3672.530518 -0.308675 -0.159935 -0.937625
8989.847656 2826.411377 3610.695801 -0.308675 -0.159935 -0.937625
8985.779297 2767.682861 3622.052734 -0.308675 -0.159935 -0.937625
8985.779297 2767.682861 3622.052734 -0.399744 -0.293388 -0.868406
8984.402344 2558.490723 3693.361572 -0.399744 -0.293388 -0.868406
8246.728516 2620.208252 4012.075928 -0.399744 -0.293388 -0.868406
8985.779297 2767.682861 3622.052734 -0.406246 -0.271570 -0.872476
8246.728516 2620.208252 4012.075928 -0.406246 -0.271570 -0.872476
8677.641602 3066.460693 3672.530518 -0.406246 -0.271570 -0.872476
8985.779297 2767.682861 3622.052734 -0.262658 0.312867 0.912757
8979.620117 2822.909912 3601.350098 -0.262658 0.312867 0.912757
8984.402344 2558.490723 3693.361572 -0.262658 0.312867 0.912757
8979.620117 2822.909912 3601.350098 0.698106 -0.224014 -0.680048
8989.847656 2826.411377 3610.695801 0.698106 -0.224014 -0.680048
8984.402344 2558.490723 3693.361572 0.698106 -0.224014 -0.680048
8011.572754 3101.999512 3348.130615 0.540538 -0.788265 -0.294035
8033.399414 2924.166016 3865.001221 0.540538 -0.788265 -0.294035
7785.823242 2876.055908 3538.846436 0.540538 -0.788265 -0.294035
8045.543945 2870.082031 3845.118408 -0.178351 0.907760 0.379689
8677.641602 3066.460693 3672.530518 -0.178351 0.907760 0.379689
8174.996582 3032.968750 3516.496338 -0.178351 0.907760 0.379689
8989.847656 2826.411377 3610.695801 0.379779 0.265685 0.886104
8677.641602 3066.460693 3672.530518 0.379779 0.265685 0.886104
8984.402344 2558.490723 3693.361572 0.379779 0.265685 0.886104
8246.728516 2620.208252 4012.075928 -0.192977 -0.962883 -0.188722
7732.206543 2770.530518 3771.235352 -0.192977 -0.962883 -0.188722
7647.517090 2857.777100 3412.690430 -0.192977 -0.962883 -0.188722
8246.728516 2620.208252 4012.075928 0.247391 -0.726597 -0.640979
8174.996582 3032.968750 3516.496338 0.247391 -0.726597 -0.640979
8677.641602 3066.460693 3672.530518 0.247391 -0.726597 -0.640979
8984.402344 2558.490723 3693.361572 -0.358086 -0.604260 -0.711789
8693.773438 2486.871826 3900.370361 -0.358086 -0.604260 -0.711789
8246.728516 2620.208252 4012.075928 -0.358086 -0.604260 -0.711789
9027.331055 2387.535156 3799.004639 -0.073629 -0.313032 -0.946884
9126.816406 2451.070801 3770.264404 -0.073629 -0.313032 -0.946884
9080.812500 2376.929688 3798.352051 -0.073629 -0.313032 -0.946884
9095.364258 2411.136475 3816.893311 0.696205 0.690061 0.197773
9179.288086 2366.978271 3675.537842 0.696205 0.690061 0.197773
8984.402344 2558.490723 3693.361572 0.696205 0.690061 0.197773
8984.402344 2558.490723 3693.361572 -0.388653 -0.553011 -0.736972
9027.331055 2387.535156 3799.004639 -0.388653 -0.553011 -0.736972
8693.773438 2486.871826 3900.370361 -0.388653 -0.553011 -0.736972
8984.402344 2558.490723 3693.361572 0.078089 -0.509815 -0.856733
9126.816406 2451.070801 3770.264404 0.078089 -0.509815 -0.856733
9027.331055 2387.535156 3799.004639 0.078089 -0.509815 -0.856733
9095.364258 2411.136475 3816.893311 -0.342306 0.438763 0.830851
8984.402344 2558.490723 3693.361572 -0.342306 0.438763 0.830851
8985.077148 2362.676758 3797.046631 -0.342306 0.438763 0.830851
8985.077148 2362.676758 3797.046631 0.371245 0.435511 0.820066
8984.402344 2558.490723 3693.361572 0.371245 0.435511 0.820066
8724.731445 2460.697754 3862.849609 0.371245 0.435511 0.820066
8984.402344 2558.490723 3693.361572 0.439535 0.300151 0.846592
8677.641602 3066.460693 3672.530518 0.439535 0.300151 0.846592
8724.731445 2460.697754 3862.849609 0.439535 0.300151 0.846592
8045.543945 2870.082031 3845.118408 -0.243691 0.949576 0.197284
7647.517090 2857.777100 3412.690430 -0.243691 0.949576 0.197284
7678.676270 2664.241943 4382.710938 -0.243691 0.949576 0.197284
8477.820312 2541.574951 4024.600098 0.588754 0.283582 0.756935
8724.731445 2460.697754 3862.849609 0.588754 0.283582 0.756935
8677.641602 3066.460693 3672.530518 0.588754 0.283582 0.756935
8477.820312 2541.574951 4024.600098 0.061562 0.539722 0.839589
8677.641602 3066.460693 3672.530518 0.061562 0.539722 0.839589
8045.543945 2870.082031 3845.118408 0.061562 0.539722 0.839589
8693.773438 2486.871826 3900.370361 -0.313078 -0.940792 -0.129969
8477.820312 2541.574951 4024.600098 -0.313078 -0.940792 -0.129969
8246.728516 2620.208252 4012.075928 -0.313078 -0.940792 -0.129969
8562.590820 2457.203613 4008.340332 -0.648015 0.259841 -0.715933
8693.773438 2486.871826 3900.370361 -0.648015 0.259841 -0.715933
8724.731445 2460.697754 3862.849609 -0.648015 0.259841 -0.715933
7678.676270 2664.241943 4382.710938 -0.195061 -0.963278 -0.184516
7732.206543 2770.530518 3771.235352 -0.195061 -0.963278 -0.184516
8246.728516 2620.208252 4012.075928 -0.195061 -0.963278 -0.184516
8693.773438 2486.871826 3900.370361 -0.606279 -0.156656 -0.779670
8562.590820 2457.203613 4008.340332 -0.606279 -0.156656 -0.779670
8509.899414 2495.823486 4041.553955 -0.606279 -0.156656 -0.779670
8509.899414 2495.823486 4041.553955 -0.509762 -0.589590 -0.626519
8477.820312 2541.574951 4024.600098 -0.509762 -0.589590 -0.626519
8693.773438 2486.871826 3900.370361 -0.509762 -0.589590 -0.626519
8562.590820 2457.203613 4008.340332 0.586945 0.461527 0.665199
8724.731445 2460.697754 3862.849609 0.586945 0.461527 0.665199
8477.820312 2541.574951 4024.600098 0.586945 0.461527 0.665199
8246.728516 2620.208252 4012.075928 0.177926 0.641719 0.746015
8477.820312 2541.574951 4024.600098 0.177926 0.641719 0.746015
8045.543945 2870.082031 3845.118408 0.177926 0.641719 0.746015
7678.676270 2664.241943 4382.710938 0.420915 0.713316 0.560367
8246.728516 2620.208252 4012.075928 0.420915 0.713316 0.560367
8045.543945 2870.082031 3845.118408 0.420915 0.713316 0.560367
8235.601562 2984.883789 7601.074707 0.519793 0.498246 -0.693950
8254.688477 2642.107178 7369.262695 0.519793 0.498246 -0.693950
7703.606445 2600.925537 6926.915039 0.519793 0.498246 -0.693950
8531.689453 2440.838623 7345.711426 0.283171 0.486440 -0.826553
8254.688477 2642.107178 7369.262695 0.283171 0.486440 -0.826553
8974.998047 2948.540771 7796.376465 0.283171 0.486440 -0.826553
7703.606445 2600.925537 6926.915039 -0.118269 -0.964257 0.237111
8254.688477 2642.107178 7369.262695 -0.118269 -0.964257 0.237111
7663.564941 2865.412354 7982.527832 -0.118269 -0.964257 0.237111
8235.601562 2984.883789 7601.074707 0.238060 0.553155 -0.798340
8974.998047 2948.540771 7796.376465 0.238060 0.553155 -0.798340
8254.688477 2642.107178 7369.262695 0.238060 0.553155 -0.798340
8531.689453 2440.838623 7345.711426 0.669791 0.071248 -0.739123
8974.998047 2948.540771 7796.376465 0.669791 0.071248 -0.739123
8657.122070 2422.394531 7457.600098 0.669791 0.071248 -0.739123
7703.606445 2600.925537 6926.915039 -0.349316 0.905701 -0.240176
7663.564941 2865.412354 7982.527832 -0.349316 0.905701 -0.240176
8235.601562 2984.883789 7601.074707 -0.349316 0.905701 -0.240176
8668.520508 2402.619873 7423.913574 -0.513996 -0.613509 0.599511
8350.586914 2915.131348 7675.808594 -0.513996 -0.613509 0.599511
8531.689453 2440.838623 7345.711426 -0.513996 -0.613509 0.599511
8531.689453 2440.838623 7345.711426 -0.394117 -0.621626 0.676943
8350.586914 2915.131348 7675.808594 -0.394117 -0.621626 0.676943
8254.688477 2642.107178 7369.262695 -0.394117 -0.621626 0.676943
7663.564941 2865.412354 7982.527832 0.311730 -0.755895 0.575715
8254.688477 2642.107178 7369.262695 0.311730 -0.755895 0.575715
8350.586914 2915.131348 7675.808594 0.311730 -0.755895 0.575715
9220.541016 2297.227539 7589.410156 -0.572929 -0.484285 -0.661226
9213.864258 2330.416992 7570.887207 -0.572929 -0.484285 -0.661226
9260.194336 2291.659668 7559.129883 -0.572929 -0.484285 -0.661226
9213.864258 2330.416992 7570.887207 -0.977135 -0.211034 -0.025915
9220.541016 2297.227539 7589.410156 -0.977135 -0.211034 -0.025915
9205.779297 2361.316162 7624.111328 -0.977135 -0.211034 -0.025915
9180.038086 2313.982178 7605.852539 -0.177395 0.436679 -0.881954
9205.779297 2361.316162 7624.111328 -0.177395 0.436679 -0.881954
9220.541016 2297.227539 7589.410156 -0.177395 0.436679 -0.881954
8974.998047 2948.540771 7796.376465 0.324481 0.366645 -0.871943
9180.038086 2313.982178 7605.852539 0.324481 0.366645 -0.871943
8837.820312 2405.884033 7517.145020 0.324481 0.366645 -0.871943
8837.820312 2405.884033 7517.145020 0.100794 0.859316 0.501415
9180.038086 2313.982178 7605.852539 0.100794 0.859316 0.501415
9213.864258 2330.416992 7570.887207 0.100794 0.859316 0.501415
9205.779297 2361.316162 7624.111328 0.318984 0.185084 -0.929512
9180.038086 2313.982178 7605.852539 0.318984 0.185084 -0.929512
9131.896484 2422.651367 7610.969727 0.318984 0.185084 -0.929512
9180.038086 2313.982178 7605.852539 -0.833106 -0.387653 0.394537
8974.998047 2948.540771 7796.376465 -0.833106 -0.387653 0.394537
9131.896484 2422.651367 7610.969727 -0.833106 -0.387653 0.394537
9213.864258 2330.416992 7570.887207 -0.225286 -0.549765 0.804366
9131.896484 2422.651367 7610.969727 -0.225286 -0.549765 0.804366
8837.820312 2405.884033 7517.145020 -0.225286 -0.549765 0.804366
8974.998047 2948.540771 7796.376465 0.321175 0.367849 -0.872659
8837.820312 2405.884033 7517.145020 0.321175 0.367849 -0.872659
8657.122070 2422.394531 7457.600098 0.321175 0.367849 -0.872659
9131.896484 2422.651367 7610.969727 -0.225501 -0.548912 0.804888
8996.482422 2690.646484 7755.796875 -0.225501 -0.548912 0.804888
8837.820312 2405.884033 7517.145020 -0.225501 -0.548912 0.804888
8668.520508 2402.619873 7423.913574 -0.429820 -0.427178 0.795470
8837.820312 2405.884033 7517.145020 -0.429820 -0.427178 0.795470
8996.482422 2690.646484 7755.796875 -0.429820 -0.427178 0.795470
8668.520508 2402.619873 7423.913574 -0.291034 -0.561319 0.774739
8996.482422 2690.646484 7755.796875 -0.291034 -0.561319 0.774739
8350.586914 2915.131348 7675.808594 -0.291034 -0.561319 0.774739
7663.564941 2865.412354 7982.527832 -0.435958 0.805438 -0.401510
7845.508301 3042.907959 8141.034668 -0.435958 0.805438 -0.401510
8235.601562 2984.883789 7601.074707 -0.435958 0.805438 -0.401510
8974.998047 2948.540771 7796.376465 -0.185925 0.559155 0.807947
8235.601562 2984.883789 7601.074707 -0.185925 0.559155 0.807947
8350.586914 2915.131348 7675.808594 -0.185925 0.559155 0.807947
8996.482422 2690.646484 7755.796875 -0.178269 -0.167423 0.969634
8974.998047 2948.540771 7796.376465 -0.178269 -0.167423 0.969634
8350.586914 2915.131348 7675.808594 -0.178269 -0.167423 0.969634
7650.269531 3009.495117 8149.901855 0.332204 -0.701620 0.630373
7663.564941 2865.412354 7982.527832 0.332204 -0.701620 0.630373
8350.586914 2915.131348 7675.808594 0.332204 -0.701620 0.630373
8235.601562 2984.883789 7601.074707 -0.417968 0.820430 -0.390124
7845.508301 3042.907959 8141.034668 -0.417968 0.820430 -0.390124
8014.257812 3073.695801 8024.987793 -0.417968 0.820430 -0.390124
8350.586914 2915.131348 7675.808594 0.556946 0.826096 -0.085883
8235.601562 2984.883789 7601.074707 0.556946 0.826096 -0.085883
7966.595703 3230.768066 8221.712891 0.556946 0.826096 -0.085883
7650.269531 3009.495117 8149.901855 0.171253 -0.886700 0.429460
8350.586914 2915.131348 7675.808594 0.171253 -0.886700 0.429460
7845.508301 3042.907959 8141.034668 0.171253 -0.886700 0.429460
8235.601562 2984.883789 7601.074707 0.649195 -0.567654 0.506276
8089.657715 3419.206055 8275.194336 0.649195 -0.567654 0.506276
7966.595703 3230.768066 8221.712891 0.649195 -0.567654 0.506276
7845.508301 3042.907959 8141.034668 -0.196398 0.757407 -0.622706
7663.564941 2865.412354 7982.527832 -0.196398 0.757407 -0.622706
7637.555176 3056.213623 8222.805664 -0.196398 0.757407 -0.622706
8235.601562 2984.883789 7601.074707 -0.717524 0.504422 -0.480330
8014.257812 3073.695801 8024.987793 -0.717524 0.504422 -0.480330
8089.657715 3419.206055 8275.194336 -0.717524 0.504422 -0.480330
7966.595703 3230.768066 8221.712891 0.332470 -0.696091 0.636334
8014.257812 3073.695801 8024.987793 0.332470 -0.696091 0.636334
8350.586914 2915.131348 7675.808594 0.332470 -0.696091 0.636334
8014.257812 3073.695801 8024.987793 -0.644060 0.535881 -0.545911
7927.998535 3250.450195 8300.262695 -0.644060 0.535881 -0.545911
8089.657715 3419.206055 8275.194336 -0.644060 0.535881 -0.545911
7650.269531 3009.495117 8149.901855 0.117967 -0.455078 0.882603
7845.508301 3042.907959 8141.034668 0.117967 -0.455078 0.882603
7966.595703 3230.768066 8221.712891 0.117967 -0.455078 0.882603
8089.657715 3419.206055 8275.194336 0.012115 -0.280325 0.959829
8073.531250 3425.253418 8277.164062 0.012115 -0.280325 0.959829
7966.595703 3230.768066 8221.712891 0.012115 -0.280325 0.959829
7650.269531 3009.495117 8149.901855 0.350314 -0.702023 0.620035
7966.595703 3230.768066 8221.712891 0.350314 -0.702023 0.620035
7665.815918 3129.081299 8276.517578 0.350314 -0.702023 0.620035
7637.555176 3056.213623 8222.805664 -0.241962 0.649324 -0.720995
7927.998535 3250.450195 8300.262695 -0.241962 0.649324 -0.720995
7845.508301 3042.907959 8141.034668 -0.241962 0.649324 -0.720995
7637.555176 3056.213623 8222.805664 -0.226122 0.633278 -0.740154
7665.815918 3129.081299 8276.517578 -0.226122 0.633278 -0.740154
7927.998535 3250.450195 8300.262695 -0.226122 0.633278 -0.740154
7966.595703 3230.768066 8221.712891 0.357859 -0.849077 0.388594
7927.998535 3250.450195 8300.262695 0.357859 -0.849077 0.388594
7665.815918 3129.081299 8276.517578 0.357859 -0.849077 0.388594
8073.531250 3425.253418 8277.164062 0.705144 -0.523936 0.477770
7927.998535 3250.450195 8300.262695 0.705144 -0.523936 0.477770
7966.595703 3230.768066 8221.712891 0.705144 -0.523936 0.477770
3 0 1 2
3 3 4 5
3 6 7 8
3 9 10 11
3 12 13 14
3 15 16 17
3 18 19 20
3 21 22 23
3 24 25 26
3 27 28 29
3 30 31 32
3 33 34 35
3 36 37 38
3 39 40 41
3 42 43 44
3 45 46 47
3 48 49 50
3 51 52 53
3 54 55 56
3 57 58 59
3 60 61 62
3 63 64 65
3 66 67 68
3 69 70 71
3 72 73 74
3 75 76 77
3 78 79 80
3 81 82 83
3 84 85 86
3 87 88 89
3 90 91 92
3 93 94 95
3 96 97 98
3 99 100 101
3 102 103 104
3 105 106 107
3 108 109 110
3 111 112 113
3 114 115 116
3 117 118 119
3 120 121 122
3 123 124 125
3 126 127 128
3 129 130 131
3 132 133 134
3 135 136 137
3 138 139 140
3 141 142 143
3 144 145 146
3 147 148 149
3 150 151 152
3 153 154 155
3 156 157 158
3 159 160 161
3 162 163 164
3 165 166 167
3 168 169 170
3 171 172 173
3 174 175 176
3 177 178 179
3 180 181 182
3 183 184 185
3 186 187 188
3 189 190 191
3 192 193 194
3 195 196 197
3 198 199 200
3 201 202 203
3 204 205 206
3 207 208 209
3 210 211 212
3 213 214 215
3 216 217 218
3 219 220 221
3 222 223 224
3 225 226 227
3 228 229 230
3 231 232 233
3 234 235 236
3 237 238 239
3 240 241 242
3 243 244 245
3 246 247 248
3 249 250 251
3 252 253 254
3 255 256 257
