ply
format ascii 1.0
comment Created by Blender 2.80 (sub 75) - www.blender.org, source file: 'downsample_ccf.blend'
element vertex 444
property float x
property float y
property float z
property float nx
property float ny
property float nz
element face 148
property list uchar uint vertex_indices
end_header
7992.221191 4612.186035 4310.541016 0.315997 0.758395 -0.570073
7684.245117 4350.930176 3792.265869 0.315997 0.758395 -0.570073
7414.898926 4627.583496 4011.009766 0.315997 0.758395 -0.570073
7655.424316 4610.615234 4626.993164 -0.608392 -0.763528 0.216529
7414.898926 4627.583496 4011.009766 -0.608392 -0.763528 0.216529
7684.245117 4350.930176 3792.265869 -0.608392 -0.763528 0.216529
7684.245117 4350.930176 3792.265869 -0.048510 -0.954209 0.295181
7990.933594 4484.490234 4274.416504 -0.048510 -0.954209 0.295181
7655.424316 4610.615234 4626.993164 -0.048510 -0.954209 0.295181
7992.221191 4612.186035 4310.541016 0.109863 0.980765 -0.161336
7414.898926 4627.583496 4011.009766 0.109863 0.980765 -0.161336
7625.445312 4699.548340 4591.858398 0.109863 0.980765 -0.161336
7992.221191 4612.186035 4310.541016 0.814834 0.150178 -0.559904
7990.933594 4484.490234 4274.416504 0.814834 0.150178 -0.559904
7684.245117 4350.930176 3792.265869 0.814834 0.150178 -0.559904
7990.933594 4484.490234 4274.416504 0.421826 0.242868 -0.873543
7992.221191 4612.186035 4310.541016 0.421826 0.242868 -0.873543
8335.717773 4651.704590 4487.399414 0.421826 0.242868 -0.873543
7414.898926 4627.583496 4011.009766 -0.919529 -0.169969 0.354370
7655.424316 4610.615234 4626.993164 -0.919529 -0.169969 0.354370
7625.445312 4699.548340 4591.858398 -0.919529 -0.169969 0.354370
7655.424316 4610.615234 4626.993164 0.146174 -0.879142 0.453588
7990.933594 4484.490234 4274.416504 0.146174 -0.879142 0.453588
8335.717773 4651.704590 4487.399414 0.146174 -0.879142 0.453588
8335.717773 4651.704590 4487.399414 -0.028659 0.273518 -0.961440
8612.280273 5078.938965 4600.698730 -0.028659 0.273518 -0.961440
8685.106445 4853.518555 4534.398438 -0.028659 0.273518 -0.961440
7992.221191 4612.186035 4310.541016 -0.234119 0.799295 -0.553458
7625.445312 4699.548340 4591.858398 -0.234119 0.799295 -0.553458
8181.124512 5034.174805 4840.062500 -0.234119 0.799295 -0.553458
7992.221191 4612.186035 4310.541016 0.462700 -0.065057 -0.884125
8612.280273 5078.938965 4600.698730 0.462700 -0.065057 -0.884125
8335.717773 4651.704590 4487.399414 0.462700 -0.065057 -0.884125
8732.410156 5087.964844 4630.412109 0.202295 0.335918 -0.919911
8685.106445 4853.518555 4534.398438 0.202295 0.335918 -0.919911
8612.280273 5078.938965 4600.698730 0.202295 0.335918 -0.919911
8335.717773 4651.704590 4487.399414 0.406261 -0.804318 0.433619
8685.106445 4853.518555 4534.398438 0.406261 -0.804318 0.433619
8497.771484 4987.307129 4958.077148 0.406261 -0.804318 0.433619
7992.221191 4612.186035 4310.541016 -0.359317 0.788065 -0.499844
8181.124512 5034.174805 4840.062500 -0.359317 0.788065 -0.499844
8612.280273 5078.938965 4600.698730 -0.359317 0.788065 -0.499844
8732.410156 5087.964844 4630.412109 0.239179 0.012836 -0.970891
8612.280273 5078.938965 4600.698730 0.239179 0.012836 -0.970891
8954.776367 5560.280762 4691.436523 0.239179 0.012836 -0.970891
13085.823242 5282.821289 4936.690430 0.141406 0.786888 -0.600677
13116.905273 5091.447266 4693.307129 0.141406 0.786888 -0.600677
12959.903320 5057.314941 4611.633789 0.141406 0.786888 -0.600677
7655.424316 4610.615234 4626.993164 -0.487045 0.173951 0.855879
8181.124512 5034.174805 4840.062500 -0.487045 0.173951 0.855879
7625.445312 4699.548340 4591.858398 -0.487045 0.173951 0.855879
8335.717773 4651.704590 4487.399414 0.164987 -0.807472 0.566364
8437.018555 5091.208984 5084.497070 0.164987 -0.807472 0.566364
7655.424316 4610.615234 4626.993164 0.164987 -0.807472 0.566364
8732.410156 5087.964844 4630.412109 0.808208 -0.355379 0.469580
8497.771484 4987.307129 4958.077148 0.808208 -0.355379 0.469580
8685.106445 4853.518555 4534.398438 0.808208 -0.355379 0.469580
13116.905273 5091.447266 4693.307129 0.037093 -0.945401 0.323792
13148.358398 5187.431152 4969.956055 0.037093 -0.945401 0.323792
12959.903320 5057.314941 4611.633789 0.037093 -0.945401 0.323792
13148.358398 5187.431152 4969.956055 0.846818 0.465280 -0.257707
13116.905273 5091.447266 4693.307129 0.846818 0.465280 -0.257707
13085.823242 5282.821289 4936.690430 0.846818 0.465280 -0.257707
8335.717773 4651.704590 4487.399414 -0.104573 -0.792385 0.600991
8497.771484 4987.307129 4958.077148 -0.104573 -0.792385 0.600991
8437.018555 5091.208984 5084.497070 -0.104573 -0.792385 0.600991
8612.280273 5078.938965 4600.698730 -0.592114 0.534931 -0.602703
8801.379883 5755.097168 5015.047852 -0.592114 0.534931 -0.602703
8954.776367 5560.280762 4691.436523 -0.592114 0.534931 -0.602703
8181.124512 5034.174805 4840.062500 -0.646643 0.523484 0.554813
7655.424316 4610.615234 4626.993164 -0.646643 0.523484 0.554813
8437.018555 5091.208984 5084.497070 -0.646643 0.523484 0.554813
8612.280273 5078.938965 4600.698730 -0.365581 0.776451 -0.513298
8181.124512 5034.174805 4840.062500 -0.365581 0.776451 -0.513298
8526.563477 5352.329590 5075.297363 -0.365581 0.776451 -0.513298
8732.410156 5087.964844 4630.412109 0.896105 -0.433935 0.093253
8954.776367 5560.280762 4691.436523 0.896105 -0.433935 0.093253
9025.981445 5810.121582 5169.785156 0.896105 -0.433935 0.093253
8612.280273 5078.938965 4600.698730 -0.780173 0.470690 -0.412045
8526.563477 5352.329590 5075.297363 -0.780173 0.470690 -0.412045
8801.379883 5755.097168 5015.047852 -0.780173 0.470690 -0.412045
12959.903320 5057.314941 4611.633789 -0.781946 -0.327706 0.530253
13148.358398 5187.431152 4969.956055 -0.781946 -0.327706 0.530253
13085.823242 5282.821289 4936.690430 -0.781946 -0.327706 0.530253
8732.410156 5087.964844 4630.412109 0.644193 -0.726891 0.238004
8769.541016 5296.666504 5167.311035 0.644193 -0.726891 0.238004
8497.771484 4987.307129 4958.077148 0.644193 -0.726891 0.238004
8732.410156 5087.964844 4630.412109 0.888854 -0.444466 0.111300
9025.981445 5810.121582 5169.785156 0.888854 -0.444466 0.111300
8769.541016 5296.666504 5167.311035 0.888854 -0.444466 0.111300
8437.018555 5091.208984 5084.497070 -0.696469 0.262368 0.667902
8526.563477 5352.329590 5075.297363 -0.696469 0.262368 0.667902
8181.124512 5034.174805 4840.062500 -0.696469 0.262368 0.667902
8526.563477 5352.329590 5075.297363 -0.826776 0.541143 -0.153640
8750.041992 5732.645020 5212.229980 -0.826776 0.541143 -0.153640
8801.379883 5755.097168 5015.047852 -0.826776 0.541143 -0.153640
9025.981445 5810.121582 5169.785156 0.111832 0.873893 -0.473080
8954.776367 5560.280762 4691.436523 0.111832 0.873893 -0.473080
8801.379883 5755.097168 5015.047852 0.111832 0.873893 -0.473080
8497.771484 4987.307129 4958.077148 0.252577 -0.684448 0.683912
8769.541016 5296.666504 5167.311035 0.252577 -0.684448 0.683912
8437.018555 5091.208984 5084.497070 0.252577 -0.684448 0.683912
9052.459961 6131.572754 5344.428711 0.452977 0.396507 -0.798495
9025.981445 5810.121582 5169.785156 0.452977 0.396507 -0.798495
8801.379883 5755.097168 5015.047852 0.452977 0.396507 -0.798495
8769.541016 5296.666504 5167.311035 -0.321622 0.143268 0.935967
8526.563477 5352.329590 5075.297363 -0.321622 0.143268 0.935967
8437.018555 5091.208984 5084.497070 -0.321622 0.143268 0.935967
9116.138672 5845.835938 5344.336914 0.839345 -0.417526 -0.348099
8769.541016 5296.666504 5167.311035 0.839345 -0.417526 -0.348099
9025.981445 5810.121582 5169.785156 0.839345 -0.417526 -0.348099
8750.041992 5732.645020 5212.229980 -0.769194 0.625858 -0.129002
9052.459961 6131.572754 5344.428711 -0.769194 0.625858 -0.129002
8801.379883 5755.097168 5015.047852 -0.769194 0.625858 -0.129002
9116.138672 5845.835938 5344.336914 0.855686 0.190851 -0.481017
9025.981445 5810.121582 5169.785156 0.855686 0.190851 -0.481017
9052.459961 6131.572754 5344.428711 0.855686 0.190851 -0.481017
8526.563477 5352.329590 5075.297363 -0.399284 -0.327136 0.856478
8769.541016 5296.666504 5167.311035 -0.399284 -0.327136 0.856478
9061.599609 5899.539551 5533.736816 -0.399284 -0.327136 0.856478
9061.599609 5899.539551 5533.736816 0.725680 -0.578208 0.372913
8769.541016 5296.666504 5167.311035 0.725680 -0.578208 0.372913
9116.138672 5845.835938 5344.336914 0.725680 -0.578208 0.372913
8526.563477 5352.329590 5075.297363 -0.755256 0.221725 0.616787
9061.599609 5899.539551 5533.736816 -0.755256 0.221725 0.616787
8750.041992 5732.645020 5212.229980 -0.755256 0.221725 0.616787
9116.138672 5845.835938 5344.336914 0.256915 0.057565 -0.964718
9052.459961 6131.572754 5344.428711 0.256915 0.057565 -0.964718
9447.842773 6172.712402 5452.178223 0.256915 0.057565 -0.964718
9622.106445 6551.516113 5361.292969 0.306181 -0.535644 -0.786981
10399.958008 6730.286621 5542.245605 0.306181 -0.535644 -0.786981
9759.644531 6328.453125 5566.626953 0.306181 -0.535644 -0.786981
9116.138672 5845.835938 5344.336914 0.039301 -0.958303 0.283040
9429.265625 5914.639160 5533.809082 0.039301 -0.958303 0.283040
9061.599609 5899.539551 5533.736816 0.039301 -0.958303 0.283040
9052.459961 6131.572754 5344.428711 0.093511 0.766254 -0.635697
9386.211914 6261.649902 5550.315430 0.093511 0.766254 -0.635697
9447.842773 6172.712402 5452.178223 0.093511 0.766254 -0.635697
10202.809570 6854.164551 5428.854492 0.288448 -0.354939 -0.889278
10399.958008 6730.286621 5542.245605 0.288448 -0.354939 -0.889278
9622.106445 6551.516113 5361.292969 0.288448 -0.354939 -0.889278
9447.842773 6172.712402 5452.178223 0.541292 -0.288753 -0.789699
9429.265625 5914.639160 5533.809082 0.541292 -0.288753 -0.789699
9116.138672 5845.835938 5344.336914 0.541292 -0.288753 -0.789699
9386.211914 6261.649902 5550.315430 0.144651 -0.620386 -0.770842
9622.106445 6551.516113 5361.292969 0.144651 -0.620386 -0.770842
9759.644531 6328.453125 5566.626953 0.144651 -0.620386 -0.770842
9622.106445 6551.516113 5361.292969 -0.297218 0.712240 -0.635906
10003.425781 6835.801758 5501.478027 -0.297218 0.712240 -0.635906
10202.809570 6854.164551 5428.854492 -0.297218 0.712240 -0.635906
8750.041992 5732.645020 5212.229980 -0.753420 0.397601 0.523710
9061.599609 5899.539551 5533.736816 -0.753420 0.397601 0.523710
9052.459961 6131.572754 5344.428711 -0.753420 0.397601 0.523710
9759.644531 6328.453125 5566.626953 -0.095843 0.706883 -0.700807
9447.842773 6172.712402 5452.178223 -0.095843 0.706883 -0.700807
9386.211914 6261.649902 5550.315430 -0.095843 0.706883 -0.700807
10399.958008 6730.286621 5542.245605 0.171401 -0.502759 -0.847263
10202.809570 6854.164551 5428.854492 0.171401 -0.502759 -0.847263
11067.313477 7032.591797 5497.865723 0.171401 -0.502759 -0.847263
9052.459961 6131.572754 5344.428711 -0.587571 0.497508 0.638159
9061.599609 5899.539551 5533.736816 -0.587571 0.497508 0.638159
9386.211914 6261.649902 5550.315430 -0.587571 0.497508 0.638159
9759.644531 6328.453125 5566.626953 0.456560 -0.298024 -0.838293
9429.265625 5914.639160 5533.809082 0.456560 -0.298024 -0.838293
9447.842773 6172.712402 5452.178223 0.456560 -0.298024 -0.838293
10003.425781 6835.801758 5501.478027 -0.536362 0.819320 -0.202558
9622.106445 6551.516113 5361.292969 -0.536362 0.819320 -0.202558
9526.534180 6541.238281 5572.790039 -0.536362 0.819320 -0.202558
10202.809570 6854.164551 5428.854492 -0.177134 0.953123 -0.245317
10003.425781 6835.801758 5501.478027 -0.177134 0.953123 -0.245317
11067.313477 7032.591797 5497.865723 -0.177134 0.953123 -0.245317
9526.534180 6541.238281 5572.790039 -0.825135 0.442371 -0.351369
9622.106445 6551.516113 5361.292969 -0.825135 0.442371 -0.351369
9386.211914 6261.649902 5550.315430 -0.825135 0.442371 -0.351369
10399.958008 6730.286621 5542.245605 0.191544 -0.542882 -0.817673
11067.313477 7032.591797 5497.865723 0.191544 -0.542882 -0.817673
11261.846680 6955.700684 5594.486816 0.191544 -0.542882 -0.817673
11261.846680 6955.700684 5594.486816 0.184012 0.915410 0.358002
11067.313477 7032.591797 5497.865723 0.184012 0.915410 0.358002
10874.707031 7007.796387 5660.266602 0.184012 0.915410 0.358002
9526.534180 6541.238281 5572.790039 -0.458446 0.823260 0.334769
9923.769531 6715.812012 5687.470703 -0.458446 0.823260 0.334769
10003.425781 6835.801758 5501.478027 -0.458446 0.823260 0.334769
9780.723633 6494.898926 5698.818848 0.011304 -0.279839 0.959980
9061.599609 5899.539551 5533.736816 0.011304 -0.279839 0.959980
9429.265625 5914.639160 5533.809082 0.011304 -0.279839 0.959980
10003.425781 6835.801758 5501.478027 -0.181710 0.981155 -0.065704
10874.707031 7007.796387 5660.266602 -0.181710 0.981155 -0.065704
11067.313477 7032.591797 5497.865723 -0.181710 0.981155 -0.065704
9780.723633 6494.898926 5698.818848 -0.534001 0.445812 0.718397
9386.211914 6261.649902 5550.315430 -0.534001 0.445812 0.718397
9061.599609 5899.539551 5533.736816 -0.534001 0.445812 0.718397
9429.265625 5914.639160 5533.809082 0.614895 -0.536738 0.577768
9759.644531 6328.453125 5566.626953 0.614895 -0.536738 0.577768
9780.723633 6494.898926 5698.818848 0.614895 -0.536738 0.577768
9526.534180 6541.238281 5572.790039 -0.419552 0.138455 0.897110
9386.211914 6261.649902 5550.315430 -0.419552 0.138455 0.897110
9780.723633 6494.898926 5698.818848 -0.419552 0.138455 0.897110
10399.958008 6730.286621 5542.245605 0.402835 -0.599971 0.691201
9780.723633 6494.898926 5698.818848 0.402835 -0.599971 0.691201
9759.644531 6328.453125 5566.626953 0.402835 -0.599971 0.691201
11261.846680 6955.700684 5594.486816 0.229972 -0.938772 0.256553
10416.652344 6768.110352 5665.684570 0.229972 -0.938772 0.256553
10399.958008 6730.286621 5542.245605 0.229972 -0.938772 0.256553
9923.769531 6715.812012 5687.470703 -0.250927 0.858831 0.446593
10874.707031 7007.796387 5660.266602 -0.250927 0.858831 0.446593
10003.425781 6835.801758 5501.478027 -0.250927 0.858831 0.446593
10416.652344 6768.110352 5665.684570 0.394722 -0.892082 0.219965
9780.723633 6494.898926 5698.818848 0.394722 -0.892082 0.219965
10399.958008 6730.286621 5542.245605 0.394722 -0.892082 0.219965
9923.769531 6715.812012 5687.470703 -0.381556 0.292115 0.876974
9526.534180 6541.238281 5572.790039 -0.381556 0.292115 0.876974
9780.723633 6494.898926 5698.818848 -0.381556 0.292115 0.876974
10416.652344 6768.110352 5665.684570 0.229871 -0.939987 0.252159
11261.846680 6955.700684 5594.486816 0.229871 -0.939987 0.252159
11024.971680 6923.330078 5689.754883 0.229871 -0.939987 0.252159
11261.846680 6955.700684 5594.486816 0.211677 0.635726 0.742324
10874.707031 7007.796387 5660.266602 0.211677 0.635726 0.742324
11024.971680 6923.330078 5689.754883 0.211677 0.635726 0.742324
9780.723633 6494.898926 5698.818848 -0.001241 -0.229707 -0.973259
9441.234375 5918.453613 5835.303711 -0.001241 -0.229707 -0.973259
9104.077148 6003.080566 5815.760254 -0.001241 -0.229707 -0.973259
9780.723633 6494.898926 5698.818848 -0.294882 0.182691 -0.937907
9104.077148 6003.080566 5815.760254 -0.294882 0.182691 -0.937907
9401.714844 6297.667480 5779.562988 -0.294882 0.182691 -0.937907
10874.707031 7007.796387 5660.266602 0.375146 0.370782 -0.849580
11241.593750 7028.704102 5831.396484 0.375146 0.370782 -0.849580
11024.971680 6923.330078 5689.754883 0.375146 0.370782 -0.849580
9717.416992 6307.290039 5862.763672 0.785310 -0.535897 -0.310005
9441.234375 5918.453613 5835.303711 0.785310 -0.535897 -0.310005
9780.723633 6494.898926 5698.818848 0.785310 -0.535897 -0.310005
9780.723633 6494.898926 5698.818848 -0.268403 0.124729 -0.955198
9401.714844 6297.667480 5779.562988 -0.268403 0.124729 -0.955198
9923.769531 6715.812012 5687.470703 -0.268403 0.124729 -0.955198
9780.723633 6494.898926 5698.818848 0.258142 -0.683642 -0.682639
10416.652344 6768.110352 5665.684570 0.258142 -0.683642 -0.682639
9717.416992 6307.290039 5862.763672 0.258142 -0.683642 -0.682639
10416.652344 6768.110352 5665.684570 0.526920 -0.843636 -0.103124
10363.125977 6713.075195 5842.417969 0.526920 -0.843636 -0.103124
9717.416992 6307.290039 5862.763672 0.526920 -0.843636 -0.103124
11248.532227 6942.154785 5796.097168 0.372036 0.375958 -0.848672
11024.971680 6923.330078 5689.754883 0.372036 0.375958 -0.848672
11241.593750 7028.704102 5831.396484 0.372036 0.375958 -0.848672
11241.593750 7028.704102 5831.396484 -0.079944 0.995557 0.049761
10874.707031 7007.796387 5660.266602 -0.079944 0.995557 0.049761
10695.256836 6981.680664 5894.461914 -0.079944 0.995557 0.049761
9572.622070 6601.602539 5861.661133 -0.510152 0.479699 -0.713887
9923.769531 6715.812012 5687.470703 -0.510152 0.479699 -0.713887
9401.714844 6297.667480 5779.562988 -0.510152 0.479699 -0.713887
10416.652344 6768.110352 5665.684570 0.249378 -0.943486 -0.218276
11024.971680 6923.330078 5689.754883 0.249378 -0.943486 -0.218276
10363.125977 6713.075195 5842.417969 0.249378 -0.943486 -0.218276
9923.769531 6715.812012 5687.470703 -0.285750 0.899955 -0.329284
10072.234375 6853.241699 5934.238281 -0.285750 0.899955 -0.329284
10874.707031 7007.796387 5660.266602 -0.285750 0.899955 -0.329284
9401.714844 6297.667480 5779.562988 -0.585985 0.515202 -0.625451
9104.077148 6003.080566 5815.760254 -0.585985 0.515202 -0.625451
9067.387695 6145.823730 5967.716309 -0.585985 0.515202 -0.625451
9923.769531 6715.812012 5687.470703 -0.407556 0.879768 -0.244758
9572.622070 6601.602539 5861.661133 -0.407556 0.879768 -0.244758
10072.234375 6853.241699 5934.238281 -0.407556 0.879768 -0.244758
10363.125977 6713.075195 5842.417969 0.223441 -0.925470 -0.305908
11024.971680 6923.330078 5689.754883 0.223441 -0.925470 -0.305908
11248.532227 6942.154785 5796.097168 0.223441 -0.925470 -0.305908
9401.714844 6297.667480 5779.562988 -0.840069 0.363648 0.402548
9443.594727 6281.465332 5881.597656 -0.840069 0.363648 0.402548
9572.622070 6601.602539 5861.661133 -0.840069 0.363648 0.402548
10874.707031 7007.796387 5660.266602 -0.204602 0.977680 -0.047751
10072.234375 6853.241699 5934.238281 -0.204602 0.977680 -0.047751
10695.256836 6981.680664 5894.461914 -0.204602 0.977680 -0.047751
9067.387695 6145.823730 5967.716309 -0.274396 0.925899 0.259649
9443.594727 6281.465332 5881.597656 -0.274396 0.925899 0.259649
9401.714844 6297.667480 5779.562988 -0.274396 0.925899 0.259649
9443.594727 6281.465332 5881.597656 -0.860541 0.368717 0.351449
9591.901367 6511.194336 6003.717773 -0.860541 0.368717 0.351449
9572.622070 6601.602539 5861.661133 -0.860541 0.368717 0.351449
9441.234375 5918.453613 5835.303711 -0.110394 -0.619329 -0.777332
8929.605469 5756.933594 6036.652344 -0.110394 -0.619329 -0.777332
9104.077148 6003.080566 5815.760254 -0.110394 -0.619329 -0.777332
10363.125977 6713.075195 5842.417969 0.142332 -0.364001 0.920459
11248.532227 6942.154785 5796.097168 0.142332 -0.364001 0.920459
11241.593750 7028.704102 5831.396484 0.142332 -0.364001 0.920459
8929.605469 5756.933594 6036.652344 0.381958 -0.887184 0.258868
9441.234375 5918.453613 5835.303711 0.381958 -0.887184 0.258868
9060.410156 5831.421387 6098.933105 0.381958 -0.887184 0.258868
9443.594727 6281.465332 5881.597656 0.107318 -0.519807 0.847516
9717.416992 6307.290039 5862.763672 0.107318 -0.519807 0.847516
9591.901367 6511.194336 6003.717773 0.107318 -0.519807 0.847516
9717.416992 6307.290039 5862.763672 0.429496 -0.652116 0.624723
10363.125977 6713.075195 5842.417969 0.429496 -0.652116 0.624723
10695.256836 6981.680664 5894.461914 0.429496 -0.652116 0.624723
9572.622070 6601.602539 5861.661133 -0.442722 0.728031 0.523420
9591.901367 6511.194336 6003.717773 -0.442722 0.728031 0.523420
10072.234375 6853.241699 5934.238281 -0.442722 0.728031 0.523420
11241.593750 7028.704102 5831.396484 0.137054 -0.349082 0.927015
10695.256836 6981.680664 5894.461914 0.137054 -0.349082 0.927015
10363.125977 6713.075195 5842.417969 0.137054 -0.349082 0.927015
8986.995117 5912.186035 6204.055176 0.687800 -0.257946 0.678524
9060.410156 5831.421387 6098.933105 0.687800 -0.257946 0.678524
9443.594727 6281.465332 5881.597656 0.687800 -0.257946 0.678524
9717.416992 6307.290039 5862.763672 0.022935 0.418851 0.907765
9443.594727 6281.465332 5881.597656 0.022935 0.418851 0.907765
9060.410156 5831.421387 6098.933105 0.022935 0.418851 0.907765
9441.234375 5918.453613 5835.303711 0.574639 -0.456141 0.679504
9717.416992 6307.290039 5862.763672 0.574639 -0.456141 0.679504
9060.410156 5831.421387 6098.933105 0.574639 -0.456141 0.679504
8986.995117 5912.186035 6204.055176 -0.105539 0.724903 0.680718
9443.594727 6281.465332 5881.597656 -0.105539 0.724903 0.680718
9067.387695 6145.823730 5967.716309 -0.105539 0.724903 0.680718
10695.256836 6981.680664 5894.461914 0.030518 0.157636 0.987025
10072.234375 6853.241699 5934.238281 0.030518 0.157636 0.987025
9591.901367 6511.194336 6003.717773 0.030518 0.157636 0.987025
8689.916016 5663.432617 6293.479492 -0.816323 0.309399 -0.487739
9067.387695 6145.823730 5967.716309 -0.816323 0.309399 -0.487739
9104.077148 6003.080566 5815.760254 -0.816323 0.309399 -0.487739
9591.901367 6511.194336 6003.717773 0.268798 -0.430252 0.861760
9717.416992 6307.290039 5862.763672 0.268798 -0.430252 0.861760
10695.256836 6981.680664 5894.461914 0.268798 -0.430252 0.861760
8929.605469 5756.933594 6036.652344 0.375864 -0.752160 -0.541278
8455.575195 5259.512207 6398.701172 0.375864 -0.752160 -0.541278
9104.077148 6003.080566 5815.760254 0.375864 -0.752160 -0.541278
8455.575195 5259.512207 6398.701172 -0.816436 0.355039 -0.455389
8689.916016 5663.432617 6293.479492 -0.816436 0.355039 -0.455389
9104.077148 6003.080566 5815.760254 -0.816436 0.355039 -0.455389
8986.995117 5912.186035 6204.055176 -0.427748 0.711336 0.557704
9067.387695 6145.823730 5967.716309 -0.427748 0.711336 0.557704
8689.916016 5663.432617 6293.479492 -0.427748 0.711336 0.557704
8929.605469 5756.933594 6036.652344 0.578934 -0.445823 -0.682698
9060.410156 5831.421387 6098.933105 0.578934 -0.445823 -0.682698
8758.295898 5307.158203 6185.097656 0.578934 -0.445823 -0.682698
8758.295898 5307.158203 6185.097656 -0.210485 -0.233169 -0.949383
8333.512695 5022.193848 6349.262207 -0.210485 -0.233169 -0.949383
8929.605469 5756.933594 6036.652344 -0.210485 -0.233169 -0.949383
8333.512695 5022.193848 6349.262207 -0.792054 0.484696 -0.371108
8455.575195 5259.512207 6398.701172 -0.792054 0.484696 -0.371108
8929.605469 5756.933594 6036.652344 -0.792054 0.484696 -0.371108
9060.410156 5831.421387 6098.933105 0.867797 0.392989 0.304120
8986.995117 5912.186035 6204.055176 0.867797 0.392989 0.304120
8957.379883 5625.184082 6659.430176 0.867797 0.392989 0.304120
8333.512695 5022.193848 6349.262207 0.457230 -0.843666 -0.281371
8758.295898 5307.158203 6185.097656 0.457230 -0.843666 -0.281371
8768.166016 5132.619629 6724.475586 0.457230 -0.843666 -0.281371
8768.166016 5132.619629 6724.475586 0.838860 -0.513223 -0.181426
8758.295898 5307.158203 6185.097656 0.838860 -0.513223 -0.181426
9060.410156 5831.421387 6098.933105 0.838860 -0.513223 -0.181426
9060.410156 5831.421387 6098.933105 0.934513 -0.353475 0.041719
8957.379883 5625.184082 6659.430176 0.934513 -0.353475 0.041719
8768.166016 5132.619629 6724.475586 0.934513 -0.353475 0.041719
8333.512695 5022.193848 6349.262207 0.659160 -0.369968 -0.654700
8768.166016 5132.619629 6724.475586 0.659160 -0.369968 -0.654700
8662.208008 4830.421875 6788.566406 0.659160 -0.369968 -0.654700
8689.916016 5663.432617 6293.479492 -0.494929 0.749271 0.440043
8957.379883 5625.184082 6659.430176 -0.494929 0.749271 0.440043
8986.995117 5912.186035 6204.055176 -0.494929 0.749271 0.440043
12959.609375 5099.328125 6738.597168 -0.858080 0.421785 -0.292909
13127.997070 5267.812988 6487.919434 -0.858080 0.421785 -0.292909
13130.510742 5197.466797 6379.258301 -0.858080 0.421785 -0.292909
8333.512695 5022.193848 6349.262207 -0.649692 0.460212 -0.605066
7928.193359 4805.072754 6619.333496 -0.649692 0.460212 -0.605066
8455.575195 5259.512207 6398.701172 -0.649692 0.460212 -0.605066
8455.575195 5259.512207 6398.701172 -0.706735 0.531625 0.466797
8509.487305 4980.523926 6798.058105 -0.706735 0.531625 0.466797
8689.916016 5663.432617 6293.479492 -0.706735 0.531625 0.466797
8957.379883 5625.184082 6659.430176 -0.640817 0.558490 0.526729
8689.916016 5663.432617 6293.479492 -0.640817 0.558490 0.526729
8509.487305 4980.523926 6798.058105 -0.640817 0.558490 0.526729
13130.510742 5197.466797 6379.258301 -0.170584 -0.926909 -0.334277
13079.228516 5077.535645 6737.982422 -0.170584 -0.926909 -0.334277
12959.609375 5099.328125 6738.597168 -0.170584 -0.926909 -0.334277
7928.193359 4805.072754 6619.333496 -0.647342 0.406308 -0.644874
8333.512695 5022.193848 6349.262207 -0.647342 0.406308 -0.644874
7698.464844 4605.717285 6724.335449 -0.647342 0.406308 -0.644874
7928.193359 4805.072754 6619.333496 -0.681356 0.715258 -0.155433
7782.340820 4720.803711 6870.910645 -0.681356 0.715258 -0.155433
8455.575195 5259.512207 6398.701172 -0.681356 0.715258 -0.155433
13127.997070 5267.812988 6487.919434 0.987569 -0.120538 0.100881
13079.228516 5077.535645 6737.982422 0.987569 -0.120538 0.100881
13130.510742 5197.466797 6379.258301 0.987569 -0.120538 0.100881
13079.228516 5077.535645 6737.982422 0.144134 0.773753 0.616872
13127.997070 5267.812988 6487.919434 0.144134 0.773753 0.616872
12959.609375 5099.328125 6738.597168 0.144134 0.773753 0.616872
7698.464844 4605.717285 6724.335449 -0.526250 0.167307 -0.833708
7595.230469 4686.563477 6805.722656 -0.526250 0.167307 -0.833708
7928.193359 4805.072754 6619.333496 -0.526250 0.167307 -0.833708
7928.193359 4805.072754 6619.333496 -0.237900 0.954147 0.181681
7595.230469 4686.563477 6805.722656 -0.237900 0.954147 0.181681
7782.340820 4720.803711 6870.910645 -0.237900 0.954147 0.181681
8238.632812 4612.654785 6876.992676 0.285821 -0.781270 -0.554908
8333.512695 5022.193848 6349.262207 0.285821 -0.781270 -0.554908
8662.208008 4830.421875 6788.566406 0.285821 -0.781270 -0.554908
7782.340820 4720.803711 6870.910645 -0.222401 0.784892 0.578344
8509.487305 4980.523926 6798.058105 -0.222401 0.784892 0.578344
8455.575195 5259.512207 6398.701172 -0.222401 0.784892 0.578344
8957.379883 5625.184082 6659.430176 -0.235399 0.357863 0.903616
8509.487305 4980.523926 6798.058105 -0.235399 0.357863 0.903616
8586.314453 4823.880371 6880.108398 -0.235399 0.357863 0.903616
8333.512695 5022.193848 6349.262207 0.175159 -0.792809 -0.583758
8238.632812 4612.654785 6876.992676 0.175159 -0.792809 -0.583758
7698.464844 4605.717285 6724.335449 0.175159 -0.792809 -0.583758
8957.379883 5625.184082 6659.430176 0.845085 -0.263177 0.465371
8586.314453 4823.880371 6880.108398 0.845085 -0.263177 0.465371
8768.166016 5132.619629 6724.475586 0.845085 -0.263177 0.465371
8662.208008 4830.421875 6788.566406 0.485124 -0.803610 0.344770
8586.314453 4823.880371 6880.108398 0.485124 -0.803610 0.344770
8238.632812 4612.654785 6876.992676 0.485124 -0.803610 0.344770
8238.632812 4612.654785 6876.992676 0.423735 -0.705849 0.567650
8586.314453 4823.880371 6880.108398 0.423735 -0.705849 0.567650
8210.762695 4661.589355 6958.645020 0.423735 -0.705849 0.567650
7595.230469 4686.563477 6805.722656 -0.185931 0.982404 0.017669
7422.835938 4644.739258 7317.051270 -0.185931 0.982404 0.017669
7782.340820 4720.803711 6870.910645 -0.185931 0.982404 0.017669
8662.208008 4830.421875 6788.566406 0.767424 -0.136207 0.626505
8768.166016 5132.619629 6724.475586 0.767424 -0.136207 0.626505
8586.314453 4823.880371 6880.108398 0.767424 -0.136207 0.626505
8586.314453 4823.880371 6880.108398 -0.012631 0.459097 0.888296
8509.487305 4980.523926 6798.058105 -0.012631 0.459097 0.888296
8210.762695 4661.589355 6958.645020 -0.012631 0.459097 0.888296
7698.464844 4605.717285 6724.335449 -0.722299 -0.625650 -0.294698
7422.835938 4644.739258 7317.051270 -0.722299 -0.625650 -0.294698
7595.230469 4686.563477 6805.722656 -0.722299 -0.625650 -0.294698
8509.487305 4980.523926 6798.058105 -0.101404 0.521542 0.847178
7782.340820 4720.803711 6870.910645 -0.101404 0.521542 0.847178
8210.762695 4661.589355 6958.645020 -0.101404 0.521542 0.847178
7826.925293 4405.050293 7379.722656 0.009635 0.850024 0.526655
8210.762695 4661.589355 6958.645020 0.009635 0.850024 0.526655
7782.340820 4720.803711 6870.910645 0.009635 0.850024 0.526655
7826.925293 4405.050293 7379.722656 0.787591 -0.371611 0.491534
8238.632812 4612.654785 6876.992676 0.787591 -0.371611 0.491534
8210.762695 4661.589355 6958.645020 0.787591 -0.371611 0.491534
7613.735352 4404.854492 7548.528320 -0.629957 -0.737167 -0.244415
7422.835938 4644.739258 7317.051270 -0.629957 -0.737167 -0.244415
7698.464844 4605.717285 6724.335449 -0.629957 -0.737167 -0.244415
7826.925293 4405.050293 7379.722656 0.099500 -0.945813 -0.309092
7698.464844 4605.717285 6724.335449 0.099500 -0.945813 -0.309092
8238.632812 4612.654785 6876.992676 0.099500 -0.945813 -0.309092
7782.340820 4720.803711 6870.910645 0.400005 0.794041 0.457707
7422.835938 4644.739258 7317.051270 0.400005 0.794041 0.457707
7826.925293 4405.050293 7379.722656 0.400005 0.794041 0.457707
7698.464844 4605.717285 6724.335449 -0.198081 -0.947434 -0.251261
7826.925293 4405.050293 7379.722656 -0.198081 -0.947434 -0.251261
7613.735352 4404.854492 7548.528320 -0.198081 -0.947434 -0.251261
7613.735352 4404.854492 7548.528320 0.387258 0.780990 0.489986
7826.925293 4405.050293 7379.722656 0.387258 0.780990 0.489986
7422.835938 4644.739258 7317.051270 0.387258 0.780990 0.489986
3 0 1 2
3 3 4 5
3 6 7 8
3 9 10 11
3 12 13 14
3 15 16 17
3 18 19 20
3 21 22 23
3 24 25 26
3 27 28 29
3 30 31 32
3 33 34 35
3 36 37 38
3 39 40 41
3 42 43 44
3 45 46 47
3 48 49 50
3 51 52 53
3 54 55 56
3 57 58 59
3 60 61 62
3 63 64 65
3 66 67 68
3 69 70 71
3 72 73 74
3 75 76 77
3 78 79 80
3 81 82 83
3 84 85 86
3 87 88 89
3 90 91 92
3 93 94 95
3 96 97 98
3 99 100 101
3 102 103 104
3 105 106 107
3 108 109 110
3 111 112 113
3 114 115 116
3 117 118 119
3 120 121 122
3 123 124 125
3 126 127 128
3 129 130 131
3 132 133 134
3 135 136 137
3 138 139 140
3 141 142 143
3 144 145 146
3 147 148 149
3 150 151 152
3 153 154 155
3 156 157 158
3 159 160 161
3 162 163 164
3 165 166 167
3 168 169 170
3 171 172 173
3 174 175 176
3 177 178 179
3 180 181 182
3 183 184 185
3 186 187 188
3 189 190 191
3 192 193 194
3 195 196 197
3 198 199 200
3 201 202 203
3 204 205 206
3 207 208 209
3 210 211 212
3 213 214 215
3 216 217 218
3 219 220 221
3 222 223 224
3 225 226 227
3 228 229 230
3 231 232 233
3 234 235 236
3 237 238 239
3 240 241 242
3 243 244 245
3 246 247 248
3 249 250 251
3 252 253 254
3 255 256 257
3 258 259 260
3 261 262 263
3 264 265 266
3 267 268 269
3 270 271 272
3 273 274 275
3 276 277 278
3 279 280 281
3 282 283 284
3 285 286 287
3 288 289 290
3 291 292 293
3 294 295 296
3 297 298 299
3 300 301 302
3 303 304 305
3 306 307 308
3 309 310 311
3 312 313 314
3 315 316 317
3 318 319 320
3 321 322 323
3 324 325 326
3 327 328 329
3 330 331 332
3 333 334 335
3 336 337 338
3 339 340 341
3 342 343 344
3 345 346 347
3 348 349 350
3 351 352 353
3 354 355 356
3 357 358 359
3 360 361 362
3 363 364 365
3 366 367 368
3 369 370 371
3 372 373 374
3 375 376 377
3 378 379 380
3 381 382 383
3 384 385 386
3 387 388 389
3 390 391 392
3 393 394 395
3 396 397 398
3 399 400 401
3 402 403 404
3 405 406 407
3 408 409 410
3 411 412 413
3 414 415 416
3 417 418 419
3 420 421 422
3 423 424 425
3 426 427 428
3 429 430 431
3 432 433 434
3 435 436 437
3 438 439 440
3 441 442 443
