ply
format ascii 1.0
comment Created by Blender 2.80 (sub 75) - www.blender.org, source file: 'downsample_ccf.blend'
element vertex 480
property float x
property float y
property float z
property float nx
property float ny
property float nz
element face 160
property list uchar uint vertex_indices
end_header
10505.384766 5789.633789 2639.549316 0.000333 0.349345 -0.936994
10197.681641 5796.247559 2641.905762 0.000333 0.349345 -0.936994
10440.355469 6448.538574 2885.189453 0.000333 0.349345 -0.936994
10197.681641 5796.247559 2641.905762 -0.015695 -0.404380 -0.914457
10505.384766 5789.633789 2639.549316 -0.015695 -0.404380 -0.914457
10550.714844 5295.207520 2857.410400 -0.015695 -0.404380 -0.914457
10197.681641 5796.247559 2641.905762 -0.604058 0.334885 -0.723163
9835.710938 5771.848145 2932.960938 -0.604058 0.334885 -0.723163
10115.334961 6153.617676 2876.182373 -0.604058 0.334885 -0.723163
11001.152344 5760.678711 2824.423828 0.307454 -0.359948 -0.880857
10550.714844 5295.207520 2857.410400 0.307454 -0.359948 -0.880857
10505.384766 5789.633789 2639.549316 0.307454 -0.359948 -0.880857
10440.355469 6448.538574 2885.189453 0.344563 0.357593 -0.867989
11001.152344 5760.678711 2824.423828 0.344563 0.357593 -0.867989
10505.384766 5789.633789 2639.549316 0.344563 0.357593 -0.867989
10440.355469 6448.538574 2885.189453 -0.380491 0.444097 -0.811175
10197.681641 5796.247559 2641.905762 -0.380491 0.444097 -0.811175
10115.334961 6153.617676 2876.182373 -0.380491 0.444097 -0.811175
10115.334961 6153.617676 2876.182373 -0.725149 0.454150 -0.517598
9835.710938 5771.848145 2932.960938 -0.725149 0.454150 -0.517598
9882.101562 5884.812500 2967.085205 -0.725149 0.454150 -0.517598
9835.710938 5771.848145 2932.960938 -0.587754 -0.290016 -0.755272
10197.681641 5796.247559 2641.905762 -0.587754 -0.290016 -0.755272
9932.495117 5456.787598 2978.623047 -0.587754 -0.290016 -0.755272
11001.152344 5760.678711 2824.423828 0.006348 -0.076799 -0.997026
11032.750977 5184.508301 2869.006348 0.006348 -0.076799 -0.997026
10550.714844 5295.207520 2857.410400 0.006348 -0.076799 -0.997026
10687.288086 6501.515137 3001.457031 0.336114 0.351225 -0.873882
11001.152344 5760.678711 2824.423828 0.336114 0.351225 -0.873882
10440.355469 6448.538574 2885.189453 0.336114 0.351225 -0.873882
10550.714844 5295.207520 2857.410400 -0.207100 -0.506046 -0.837273
10280.303711 5073.858887 3058.079590 -0.207100 -0.506046 -0.837273
10197.681641 5796.247559 2641.905762 -0.207100 -0.506046 -0.837273
11471.692383 5348.198730 2991.965332 0.289307 -0.058066 -0.955474
11032.750977 5184.508301 2869.006348 0.289307 -0.058066 -0.955474
11001.152344 5760.678711 2824.423828 0.289307 -0.058066 -0.955474
11398.287109 4874.347168 3031.077393 0.310858 -0.125915 -0.942079
11032.750977 5184.508301 2869.006348 0.310858 -0.125915 -0.942079
11471.692383 5348.198730 2991.965332 0.310858 -0.125915 -0.942079
10280.303711 5073.858887 3058.079590 -0.365749 -0.495660 -0.787749
9932.495117 5456.787598 2978.623047 -0.365749 -0.495660 -0.787749
10197.681641 5796.247559 2641.905762 -0.365749 -0.495660 -0.787749
11398.287109 4874.347168 3031.077393 -0.027800 -0.488484 -0.872130
10895.156250 4756.985840 3112.849854 -0.027800 -0.488484 -0.872130
11032.750977 5184.508301 2869.006348 -0.027800 -0.488484 -0.872130
11032.750977 5184.508301 2869.006348 -0.087337 -0.472191 -0.877159
10895.156250 4756.985840 3112.849854 -0.087337 -0.472191 -0.877159
10550.714844 5295.207520 2857.410400 -0.087337 -0.472191 -0.877159
10687.288086 6501.515137 3001.457031 0.451263 0.383713 -0.805684
11182.182617 6121.242676 3097.540039 0.451263 0.383713 -0.805684
11001.152344 5760.678711 2824.423828 0.451263 0.383713 -0.805684
10280.303711 5073.858887 3058.079590 -0.193229 -0.518871 -0.832728
10550.714844 5295.207520 2857.410400 -0.193229 -0.518871 -0.832728
10895.156250 4756.985840 3112.849854 -0.193229 -0.518871 -0.832728
11471.692383 5348.198730 2991.965332 0.549235 0.311589 -0.775406
11001.152344 5760.678711 2824.423828 0.549235 0.311589 -0.775406
11182.182617 6121.242676 3097.540039 0.549235 0.311589 -0.775406
10115.334961 6153.617676 2876.182373 -0.227031 0.482977 0.845689
9882.101562 5884.812500 2967.085205 -0.227031 0.482977 0.845689
10224.650391 6023.799316 2979.668701 -0.227031 0.482977 0.845689
10440.355469 6448.538574 2885.189453 -0.605115 0.652962 0.455495
10115.334961 6153.617676 2876.182373 -0.605115 0.652962 0.455495
10596.764648 6390.015625 3176.869873 -0.605115 0.652962 0.455495
9932.495117 5456.787598 2978.623047 -0.923517 -0.240379 0.298890
9969.593750 5418.267090 3062.271484 -0.923517 -0.240379 0.298890
9835.710938 5771.848145 2932.960938 -0.923517 -0.240379 0.298890
10440.355469 6448.538574 2885.189453 -0.355884 0.860908 0.363571
10596.764648 6390.015625 3176.869873 -0.355884 0.860908 0.363571
10687.288086 6501.515137 3001.457031 -0.355884 0.860908 0.363571
10280.303711 5073.858887 3058.079590 -0.742213 -0.669844 0.020710
9969.593750 5418.267090 3062.271484 -0.742213 -0.669844 0.020710
9932.495117 5456.787598 2978.623047 -0.742213 -0.669844 0.020710
11398.287109 4874.347168 3031.077393 0.666636 -0.163300 -0.727276
11471.692383 5348.198730 2991.965332 0.666636 -0.163300 -0.727276
11689.985352 5190.918457 3227.372314 0.666636 -0.163300 -0.727276
9835.710938 5771.848145 2932.960938 -0.645508 0.034610 0.762969
9969.593750 5418.267090 3062.271484 -0.645508 0.034610 0.762969
9882.101562 5884.812500 2967.085205 -0.645508 0.034610 0.762969
10895.156250 4756.985840 3112.849854 0.046875 -0.698494 -0.714079
11398.287109 4874.347168 3031.077393 0.046875 -0.698494 -0.714079
11250.409180 4512.371582 3375.445801 0.046875 -0.698494 -0.714079
11471.692383 5348.198730 2991.965332 0.791587 0.363532 -0.491156
11182.182617 6121.242676 3097.540039 0.791587 0.363532 -0.491156
11689.985352 5190.918457 3227.372314 0.791587 0.363532 -0.491156
10224.650391 6023.799316 2979.668701 -0.108601 0.179131 0.977813
9882.101562 5884.812500 2967.085205 -0.108601 0.179131 0.977813
9969.593750 5418.267090 3062.271484 -0.108601 0.179131 0.977813
10895.156250 4756.985840 3112.849854 -0.242643 -0.962632 0.120271
10757.401367 4808.601562 3248.058838 -0.242643 -0.962632 0.120271
10478.101562 4878.562012 3244.533691 -0.242643 -0.962632 0.120271
10280.303711 5073.858887 3058.079590 -0.377688 -0.810302 -0.448065
10895.156250 4756.985840 3112.849854 -0.377688 -0.810302 -0.448065
10478.101562 4878.562012 3244.533691 -0.377688 -0.810302 -0.448065
10331.041992 5108.591309 3188.340088 -0.164563 0.201045 0.965661
10224.650391 6023.799316 2979.668701 -0.164563 0.201045 0.965661
9969.593750 5418.267090 3062.271484 -0.164563 0.201045 0.965661
11182.182617 6121.242676 3097.540039 0.600757 0.672704 -0.431925
10687.288086 6501.515137 3001.457031 0.600757 0.672704 -0.431925
10928.402344 6415.458984 3202.790039 0.600757 0.672704 -0.431925
10687.288086 6501.515137 3001.457031 -0.104842 0.862896 0.494387
10596.764648 6390.015625 3176.869873 -0.104842 0.862896 0.494387
10928.402344 6415.458984 3202.790039 -0.104842 0.862896 0.494387
11689.985352 5190.918457 3227.372314 0.302059 0.291537 0.907616
11182.182617 6121.242676 3097.540039 0.302059 0.291537 0.907616
11393.285156 5686.752441 3166.847656 0.302059 0.291537 0.907616
10596.764648 6390.015625 3176.869873 -0.576702 0.153956 0.802317
10115.334961 6153.617676 2876.182373 -0.576702 0.153956 0.802317
10224.650391 6023.799316 2979.668701 -0.576702 0.153956 0.802317
10224.650391 6023.799316 2979.668701 -0.320725 0.174959 0.930873
10331.041992 5108.591309 3188.340088 -0.320725 0.174959 0.930873
10750.705078 5436.014160 3271.391846 -0.320725 0.174959 0.930873
11517.830078 4526.963379 3417.069336 0.145710 -0.712508 -0.686368
11250.409180 4512.371582 3375.445801 0.145710 -0.712508 -0.686368
11398.287109 4874.347168 3031.077393 0.145710 -0.712508 -0.686368
10280.303711 5073.858887 3058.079590 -0.670041 -0.609637 0.423543
10331.041992 5108.591309 3188.340088 -0.670041 -0.609637 0.423543
9969.593750 5418.267090 3062.271484 -0.670041 -0.609637 0.423543
11398.287109 4874.347168 3031.077393 0.716681 -0.258819 -0.647597
11689.985352 5190.918457 3227.372314 0.716681 -0.258819 -0.647597
11746.405273 4692.891602 3488.852539 0.716681 -0.258819 -0.647597
10750.705078 5436.014160 3271.391846 -0.476123 0.010294 0.879318
10596.764648 6390.015625 3176.869873 -0.476123 0.010294 0.879318
10224.650391 6023.799316 2979.668701 -0.476123 0.010294 0.879318
11182.182617 6121.242676 3097.540039 0.726847 0.437587 0.529351
10928.402344 6415.458984 3202.790039 0.726847 0.437587 0.529351
11393.285156 5686.752441 3166.847656 0.726847 0.437587 0.529351
10757.401367 4808.601562 3248.058838 -0.414809 -0.906688 -0.076493
10895.156250 4756.985840 3112.849854 -0.414809 -0.906688 -0.076493
11064.900391 4662.777344 3309.028564 -0.414809 -0.906688 -0.076493
10280.303711 5073.858887 3058.079590 -0.806506 -0.412026 0.424007
10478.101562 4878.562012 3244.533691 -0.806506 -0.412026 0.424007
10331.041992 5108.591309 3188.340088 -0.806506 -0.412026 0.424007
11064.900391 4662.777344 3309.028564 -0.661208 -0.714379 0.229054
10895.156250 4756.985840 3112.849854 -0.661208 -0.714379 0.229054
11250.409180 4512.371582 3375.445801 -0.661208 -0.714379 0.229054
11517.830078 4526.963379 3417.069336 0.573073 -0.512945 -0.639121
11398.287109 4874.347168 3031.077393 0.573073 -0.512945 -0.639121
11746.405273 4692.891602 3488.852539 0.573073 -0.512945 -0.639121
11689.985352 5190.918457 3227.372314 0.799506 0.515954 0.307541
11393.285156 5686.752441 3166.847656 0.799506 0.515954 0.307541
11697.323242 5039.562988 3462.221680 0.799506 0.515954 0.307541
11393.285156 5686.752441 3166.847656 0.399650 0.210959 0.892063
10928.402344 6415.458984 3202.790039 0.399650 0.210959 0.892063
11145.919922 5524.099609 3316.133789 0.399650 0.210959 0.892063
11145.919922 5524.099609 3316.133789 -0.129110 0.077119 0.988627
10596.764648 6390.015625 3176.869873 -0.129110 0.077119 0.988627
10750.705078 5436.014160 3271.391846 -0.129110 0.077119 0.988627
10757.401367 4808.601562 3248.058838 -0.222065 -0.863748 0.452357
10587.830078 4904.943848 3348.774658 -0.222065 -0.863748 0.452357
10478.101562 4878.562012 3244.533691 -0.222065 -0.863748 0.452357
10331.041992 5108.591309 3188.340088 -0.640493 -0.230518 0.732551
10478.101562 4878.562012 3244.533691 -0.640493 -0.230518 0.732551
10587.830078 4904.943848 3348.774658 -0.640493 -0.230518 0.732551
10587.830078 4904.943848 3348.774658 -0.367621 0.243526 0.897525
10750.705078 5436.014160 3271.391846 -0.367621 0.243526 0.897525
10331.041992 5108.591309 3188.340088 -0.367621 0.243526 0.897525
11697.323242 5039.562988 3462.221680 -0.192836 0.330991 0.923721
11393.285156 5686.752441 3166.847656 -0.192836 0.330991 0.923721
11442.406250 5269.820801 3326.498535 -0.192836 0.330991 0.923721
11393.285156 5686.752441 3166.847656 0.288065 0.371851 0.882466
11145.919922 5524.099609 3316.133789 0.288065 0.371851 0.882466
11442.406250 5269.820801 3326.498535 0.288065 0.371851 0.882466
10928.402344 6415.458984 3202.790039 -0.085502 0.105121 0.990777
10596.764648 6390.015625 3176.869873 -0.085502 0.105121 0.990777
11145.919922 5524.099609 3316.133789 -0.085502 0.105121 0.990777
11442.406250 5269.820801 3326.498535 -0.161093 0.071852 0.984320
10757.401367 4808.601562 3248.058838 -0.161093 0.071852 0.984320
11064.900391 4662.777344 3309.028564 -0.161093 0.071852 0.984320
10757.401367 4808.601562 3248.058838 -0.079167 -0.051729 0.995518
11442.406250 5269.820801 3326.498535 -0.079167 -0.051729 0.995518
11145.919922 5524.099609 3316.133789 -0.079167 -0.051729 0.995518
11145.919922 5524.099609 3316.133789 0.365817 -0.282996 0.886618
10587.830078 4904.943848 3348.774658 0.365817 -0.282996 0.886618
10757.401367 4808.601562 3248.058838 0.365817 -0.282996 0.886618
10587.830078 4904.943848 3348.774658 -0.151744 0.187935 0.970389
11145.919922 5524.099609 3316.133789 -0.151744 0.187935 0.970389
10750.705078 5436.014160 3271.391846 -0.151744 0.187935 0.970389
11064.900391 4662.777344 3309.028564 -0.574396 0.335718 0.746568
11281.752930 4577.314453 3514.302002 -0.574396 0.335718 0.746568
11442.406250 5269.820801 3326.498535 -0.574396 0.335718 0.746568
11579.169922 4960.565918 3518.473389 -0.434781 0.328279 0.838569
11442.406250 5269.820801 3326.498535 -0.434781 0.328279 0.838569
11281.752930 4577.314453 3514.302002 -0.434781 0.328279 0.838569
11281.752930 4577.314453 3514.302002 -0.655766 -0.616188 0.436215
11064.900391 4662.777344 3309.028564 -0.655766 -0.616188 0.436215
11250.409180 4512.371582 3375.445801 -0.655766 -0.616188 0.436215
11697.323242 5039.562988 3462.221680 0.039625 0.539586 0.840997
11442.406250 5269.820801 3326.498535 0.039625 0.539586 0.840997
11579.169922 4960.565918 3518.473389 0.039625 0.539586 0.840997
11746.405273 4692.891602 3488.852539 0.987524 0.144603 0.062338
11689.985352 5190.918457 3227.372314 0.987524 0.144603 0.062338
11697.323242 5039.562988 3462.221680 0.987524 0.144603 0.062338
11746.405273 4692.891602 3488.852539 0.972406 0.151315 0.177570
11697.323242 5039.562988 3462.221680 0.972406 0.151315 0.177570
11671.699219 4716.234375 3878.064209 0.972406 0.151315 0.177570
11508.717773 4568.748535 3908.640625 -0.717393 0.552098 0.424894
11579.169922 4960.565918 3518.473389 -0.717393 0.552098 0.424894
11281.752930 4577.314453 3514.302002 -0.717393 0.552098 0.424894
11250.409180 4512.371582 3375.445801 0.083805 -0.977034 -0.195912
11517.830078 4526.963379 3417.069336 0.083805 -0.977034 -0.195912
11477.049805 4445.538086 3805.702148 0.083805 -0.977034 -0.195912
11250.409180 4512.371582 3375.445801 -0.834061 -0.402991 0.376749
11477.049805 4445.538086 3805.702148 -0.834061 -0.402991 0.376749
11281.752930 4577.314453 3514.302002 -0.834061 -0.402991 0.376749
11517.830078 4526.963379 3417.069336 0.605162 -0.789551 -0.101923
11746.405273 4692.891602 3488.852539 0.605162 -0.789551 -0.101923
11477.049805 4445.538086 3805.702148 0.605162 -0.789551 -0.101923
11671.699219 4716.234375 3878.064209 -0.488235 0.658311 0.572935
11579.169922 4960.565918 3518.473389 -0.488235 0.658311 0.572935
11508.717773 4568.748535 3908.640625 -0.488235 0.658311 0.572935
11645.346680 4544.262695 3850.673828 0.533978 -0.824023 -0.189350
11477.049805 4445.538086 3805.702148 0.533978 -0.824023 -0.189350
11746.405273 4692.891602 3488.852539 0.533978 -0.824023 -0.189350
11645.346680 4544.262695 3850.673828 0.964181 -0.178934 0.195798
11746.405273 4692.891602 3488.852539 0.964181 -0.178934 0.195798
11671.699219 4716.234375 3878.064209 0.964181 -0.178934 0.195798
11697.323242 5039.562988 3462.221680 -0.237910 0.773830 0.587014
11579.169922 4960.565918 3518.473389 -0.237910 0.773830 0.587014
11671.699219 4716.234375 3878.064209 -0.237910 0.773830 0.587014
11477.049805 4445.538086 3805.702148 -0.853074 -0.187546 0.486920
11508.717773 4568.748535 3908.640625 -0.853074 -0.187546 0.486920
11281.752930 4577.314453 3514.302002 -0.853074 -0.187546 0.486920
11645.346680 4544.262695 3850.673828 0.191199 -0.657799 0.728521
11508.717773 4568.748535 3908.640625 0.191199 -0.657799 0.728521
11477.049805 4445.538086 3805.702148 0.191199 -0.657799 0.728521
11645.346680 4544.262695 3850.673828 0.352176 -0.199606 0.914401
11671.699219 4716.234375 3878.064209 0.352176 -0.199606 0.914401
11508.717773 4568.748535 3908.640625 0.352176 -0.199606 0.914401
11491.592773 4485.939941 7472.834473 -0.030438 0.102109 -0.994307
11611.858398 4694.354004 7490.555664 -0.030438 0.102109 -0.994307
11627.555664 4550.594727 7475.312012 -0.030438 0.102109 -0.994307
11627.555664 4550.594727 7475.312012 0.642655 0.149844 -0.751360
11611.858398 4694.354004 7490.555664 0.642655 0.149844 -0.751360
11739.598633 4716.207031 7604.172852 0.642655 0.149844 -0.751360
11589.072266 4491.638184 7761.885254 0.427872 -0.894921 -0.126653
11491.592773 4485.939941 7472.834473 0.427872 -0.894921 -0.126653
11627.555664 4550.594727 7475.312012 0.427872 -0.894921 -0.126653
11491.592773 4485.939941 7472.834473 -0.903019 -0.114155 -0.414156
11276.009766 4501.520508 7938.593262 -0.903019 -0.114155 -0.414156
11300.982422 4598.611816 7857.381836 -0.903019 -0.114155 -0.414156
11739.598633 4716.207031 7604.172852 0.352984 0.761682 -0.543363
11611.858398 4694.354004 7490.555664 0.352984 0.761682 -0.543363
11568.686523 4991.982910 7879.724121 0.352984 0.761682 -0.543363
11491.592773 4485.939941 7472.834473 -0.757586 0.475214 -0.447477
11568.686523 4991.982910 7879.724121 -0.757586 0.475214 -0.447477
11611.858398 4694.354004 7490.555664 -0.757586 0.475214 -0.447477
11491.592773 4485.939941 7472.834473 -0.017163 -0.999528 0.025492
11589.072266 4491.638184 7761.885254 -0.017163 -0.999528 0.025492
11276.009766 4501.520508 7938.593262 -0.017163 -0.999528 0.025492
11739.598633 4716.207031 7604.172852 -0.001464 0.706364 -0.707848
11568.686523 4991.982910 7879.724121 -0.001464 0.706364 -0.707848
11702.342773 5142.888184 8030.036621 -0.001464 0.706364 -0.707848
11589.072266 4491.638184 7761.885254 0.829515 -0.558474 -0.003501
11627.555664 4550.594727 7475.312012 0.829515 -0.558474 -0.003501
11739.598633 4716.207031 7604.172852 0.829515 -0.558474 -0.003501
11589.072266 4491.638184 7761.885254 0.859662 -0.498837 0.110192
11739.598633 4716.207031 7604.172852 0.859662 -0.498837 0.110192
11743.666016 4816.903809 8028.293457 0.859662 -0.498837 0.110192
11491.592773 4485.939941 7472.834473 -0.703772 0.507197 -0.497450
11300.982422 4598.611816 7857.381836 -0.703772 0.507197 -0.497450
11568.686523 4991.982910 7879.724121 -0.703772 0.507197 -0.497450
11589.072266 4491.638184 7761.885254 0.767469 -0.583060 0.266521
11743.666016 4816.903809 8028.293457 0.767469 -0.583060 0.266521
11565.399414 4567.659668 7996.362793 0.767469 -0.583060 0.266521
11739.598633 4716.207031 7604.172852 0.991265 0.125868 -0.039391
11702.342773 5142.888184 8030.036621 0.991265 0.125868 -0.039391
11743.666016 4816.903809 8028.293457 0.991265 0.125868 -0.039391
11589.072266 4491.638184 7761.885254 0.150294 -0.935896 0.318607
11565.399414 4567.659668 7996.362793 0.150294 -0.935896 0.318607
11276.009766 4501.520508 7938.593262 0.150294 -0.935896 0.318607
11568.686523 4991.982910 7879.724121 -0.458636 0.168971 -0.872412
11276.009766 4501.520508 7938.593262 -0.458636 0.168971 -0.872412
11033.225586 4676.521973 8100.122070 -0.458636 0.168971 -0.872412
11276.009766 4501.520508 7938.593262 -0.778068 0.508562 0.368747
11568.686523 4991.982910 7879.724121 -0.778068 0.508562 0.368747
11300.982422 4598.611816 7857.381836 -0.778068 0.508562 0.368747
11702.342773 5142.888184 8030.036621 0.223313 0.581464 -0.782324
11568.686523 4991.982910 7879.724121 0.223313 0.581464 -0.782324
11389.267578 5337.543945 8085.348145 0.223313 0.581464 -0.782324
10870.795898 4941.885254 8105.443359 0.225100 -0.104914 -0.968671
10551.498047 4882.513672 8037.675293 0.225100 -0.104914 -0.968671
10822.391602 5276.121094 8057.995117 0.225100 -0.104914 -0.968671
11033.225586 4676.521973 8100.122070 -0.293283 -0.160621 -0.942436
10870.795898 4941.885254 8105.443359 -0.293283 -0.160621 -0.942436
11568.686523 4991.982910 7879.724121 -0.293283 -0.160621 -0.942436
10712.388672 4817.693359 8162.831543 0.271304 -0.666791 -0.694107
10551.498047 4882.513672 8037.675293 0.271304 -0.666791 -0.694107
10870.795898 4941.885254 8105.443359 0.271304 -0.666791 -0.694107
11568.686523 4991.982910 7879.724121 -0.310290 0.361959 -0.879037
10870.795898 4941.885254 8105.443359 -0.310290 0.361959 -0.879037
11389.267578 5337.543945 8085.348145 -0.310290 0.361959 -0.879037
11389.267578 5337.543945 8085.348145 0.038136 0.091186 -0.995103
10822.391602 5276.121094 8057.995117 0.038136 0.091186 -0.995103
10859.050781 6309.238281 8154.069336 0.038136 0.091186 -0.995103
11033.225586 4676.521973 8100.122070 -0.245351 -0.130918 -0.960554
10712.388672 4817.693359 8162.831543 -0.245351 -0.130918 -0.960554
10870.795898 4941.885254 8105.443359 -0.245351 -0.130918 -0.960554
10822.391602 5276.121094 8057.995117 0.061986 -0.131476 -0.989380
11389.267578 5337.543945 8085.348145 0.061986 -0.131476 -0.989380
10870.795898 4941.885254 8105.443359 0.061986 -0.131476 -0.989380
11702.342773 5142.888184 8030.036621 0.133427 0.463511 -0.875988
11389.267578 5337.543945 8085.348145 0.133427 0.463511 -0.875988
11476.462891 5539.601562 8205.543945 0.133427 0.463511 -0.875988
11276.009766 4501.520508 7938.593262 -0.569662 -0.821198 0.033467
11036.566406 4679.772949 8236.757812 -0.569662 -0.821198 0.033467
11033.225586 4676.521973 8100.122070 -0.569662 -0.821198 0.033467
10551.498047 4882.513672 8037.675293 -0.361445 0.294430 -0.884686
10360.270508 5096.164551 8186.907227 -0.361445 0.294430 -0.884686
10822.391602 5276.121094 8057.995117 -0.361445 0.294430 -0.884686
10822.391602 5276.121094 8057.995117 -0.405500 0.098896 -0.908730
10468.615234 5487.009766 8238.810547 -0.405500 0.098896 -0.908730
10859.050781 6309.238281 8154.069336 -0.405500 0.098896 -0.908730
10972.611328 6391.604492 8193.773438 0.491054 0.278996 -0.825244
11476.462891 5539.601562 8205.543945 0.491054 0.278996 -0.825244
11389.267578 5337.543945 8085.348145 0.491054 0.278996 -0.825244
11389.267578 5337.543945 8085.348145 0.205597 0.180215 -0.961900
10859.050781 6309.238281 8154.069336 0.205597 0.180215 -0.961900
10972.611328 6391.604492 8193.773438 0.205597 0.180215 -0.961900
11565.399414 4567.659668 7996.362793 0.077829 -0.826942 0.556874
11036.566406 4679.772949 8236.757812 0.077829 -0.826942 0.556874
11276.009766 4501.520508 7938.593262 0.077829 -0.826942 0.556874
10468.615234 5487.009766 8238.810547 -0.267802 0.027909 -0.963070
10554.916016 6392.071777 8241.041016 -0.267802 0.027909 -0.963070
10859.050781 6309.238281 8154.069336 -0.267802 0.027909 -0.963070
10972.611328 6391.604492 8193.773438 -0.094415 0.534906 -0.839620
10859.050781 6309.238281 8154.069336 -0.094415 0.534906 -0.839620
10554.916016 6392.071777 8241.041016 -0.094415 0.534906 -0.839620
11033.225586 4676.521973 8100.122070 -0.397375 -0.917114 0.031537
11036.566406 4679.772949 8236.757812 -0.397375 -0.917114 0.031537
10712.388672 4817.693359 8162.831543 -0.397375 -0.917114 0.031537
10822.391602 5276.121094 8057.995117 -0.339395 0.215670 -0.915586
10360.270508 5096.164551 8186.907227 -0.339395 0.215670 -0.915586
10468.615234 5487.009766 8238.810547 -0.339395 0.215670 -0.915586
11476.462891 5539.601562 8205.543945 0.752353 0.438125 -0.491947
10972.611328 6391.604492 8193.773438 0.752353 0.438125 -0.491947
11156.606445 6175.474121 8282.679688 0.752353 0.438125 -0.491947
11565.399414 4567.659668 7996.362793 0.159938 -0.711885 0.683842
11296.173828 4874.009277 8378.242188 0.159938 -0.711885 0.683842
11036.566406 4679.772949 8236.757812 0.159938 -0.711885 0.683842
11565.399414 4567.659668 7996.362793 0.510484 -0.458321 0.727564
11743.666016 4816.903809 8028.293457 0.510484 -0.458321 0.727564
11296.173828 4874.009277 8378.242188 0.510484 -0.458321 0.727564
10712.388672 4817.693359 8162.831543 -0.438304 -0.893149 0.100873
10362.992188 5004.953125 8302.700195 -0.438304 -0.893149 0.100873
10551.498047 4882.513672 8037.675293 -0.438304 -0.893149 0.100873
9904.336914 5463.474121 8379.872070 0.312325 0.715798 -0.624569
10360.270508 5096.164551 8186.907227 0.312325 0.715798 -0.624569
10551.498047 4882.513672 8037.675293 0.312325 0.715798 -0.624569
10360.270508 5096.164551 8186.907227 -0.181119 0.178636 -0.967101
9934.101562 5484.067871 8338.371094 -0.181119 0.178636 -0.967101
10468.615234 5487.009766 8238.810547 -0.181119 0.178636 -0.967101
11702.342773 5142.888184 8030.036621 0.886423 0.407984 0.218638
11476.462891 5539.601562 8205.543945 0.886423 0.407984 0.218638
11553.943359 5303.567871 8331.859375 0.886423 0.407984 0.218638
10972.611328 6391.604492 8193.773438 -0.076247 0.728318 -0.680984
10554.916016 6392.071777 8241.041016 -0.076247 0.728318 -0.680984
10626.670898 6516.451660 8366.032227 -0.076247 0.728318 -0.680984
10360.270508 5096.164551 8186.907227 -0.621550 -0.426218 -0.657277
9904.336914 5463.474121 8379.872070 -0.621550 -0.426218 -0.657277
9934.101562 5484.067871 8338.371094 -0.621550 -0.426218 -0.657277
11553.943359 5303.567871 8331.859375 0.914218 0.113811 0.388912
11743.666016 4816.903809 8028.293457 0.914218 0.113811 0.388912
11702.342773 5142.888184 8030.036621 0.914218 0.113811 0.388912
11036.566406 4679.772949 8236.757812 -0.416791 -0.895263 0.157444
10362.992188 5004.953125 8302.700195 -0.416791 -0.895263 0.157444
10712.388672 4817.693359 8162.831543 -0.416791 -0.895263 0.157444
10362.992188 5004.953125 8302.700195 -0.709832 -0.677765 -0.191764
9904.336914 5463.474121 8379.872070 -0.709832 -0.677765 -0.191764
10551.498047 4882.513672 8037.675293 -0.709832 -0.677765 -0.191764
10468.615234 5487.009766 8238.810547 -0.577340 0.057059 -0.814508
10233.662109 6297.268555 8462.111328 -0.577340 0.057059 -0.814508
10554.916016 6392.071777 8241.041016 -0.577340 0.057059 -0.814508
10972.611328 6391.604492 8193.773438 0.511756 0.661280 0.548466
10626.670898 6516.451660 8366.032227 0.511756 0.661280 0.548466
11156.606445 6175.474121 8282.679688 0.511756 0.661280 0.548466
11553.943359 5303.567871 8331.859375 0.879615 0.414058 0.234165
11476.462891 5539.601562 8205.543945 0.879615 0.414058 0.234165
11156.606445 6175.474121 8282.679688 0.879615 0.414058 0.234165
9837.393555 5795.107910 8397.466797 -0.182279 0.128534 -0.974809
10468.615234 5487.009766 8238.810547 -0.182279 0.128534 -0.974809
9934.101562 5484.067871 8338.371094 -0.182279 0.128534 -0.974809
10468.615234 5487.009766 8238.810547 -0.062266 0.353140 -0.933496
9837.393555 5795.107910 8397.466797 -0.062266 0.353140 -0.933496
10035.616211 6039.580566 8476.728516 -0.062266 0.353140 -0.933496
10554.916016 6392.071777 8241.041016 -0.517300 0.736473 -0.435900
10233.662109 6297.268555 8462.111328 -0.517300 0.736473 -0.435900
10626.670898 6516.451660 8366.032227 -0.517300 0.736473 -0.435900
10563.015625 5267.956055 8522.035156 -0.182518 -0.544129 0.818909
10362.992188 5004.953125 8302.700195 -0.182518 -0.544129 0.818909
11036.566406 4679.772949 8236.757812 -0.182518 -0.544129 0.818909
11296.173828 4874.009277 8378.242188 0.573894 -0.260551 0.776376
11743.666016 4816.903809 8028.293457 0.573894 -0.260551 0.776376
11553.943359 5303.567871 8331.859375 0.573894 -0.260551 0.776376
9904.336914 5463.474121 8379.872070 -0.776213 -0.123888 -0.618179
9837.393555 5795.107910 8397.466797 -0.776213 -0.123888 -0.618179
9934.101562 5484.067871 8338.371094 -0.776213 -0.123888 -0.618179
10468.615234 5487.009766 8238.810547 -0.294991 0.173415 -0.939631
10035.616211 6039.580566 8476.728516 -0.294991 0.173415 -0.939631
10233.662109 6297.268555 8462.111328 -0.294991 0.173415 -0.939631
9904.336914 5463.474121 8379.872070 -0.446930 -0.563937 0.694427
10362.992188 5004.953125 8302.700195 -0.446930 -0.563937 0.694427
10048.097656 5577.614258 8565.087891 -0.446930 -0.563937 0.694427
11156.606445 6175.474121 8282.679688 0.713165 0.358959 0.602117
11200.082031 5805.002441 8452.046875 0.713165 0.358959 0.602117
11553.943359 5303.567871 8331.859375 0.713165 0.358959 0.602117
11200.082031 5805.002441 8452.046875 0.441576 0.415392 0.795273
11156.606445 6175.474121 8282.679688 0.441576 0.415392 0.795273
10547.985352 6395.229492 8505.833008 0.441576 0.415392 0.795273
10563.015625 5267.956055 8522.035156 -0.097985 -0.497054 0.862170
11036.566406 4679.772949 8236.757812 -0.097985 -0.497054 0.862170
11296.173828 4874.009277 8378.242188 -0.097985 -0.497054 0.862170
11142.973633 5111.910645 8490.723633 -0.078027 -0.466759 0.880936
10563.015625 5267.956055 8522.035156 -0.078027 -0.466759 0.880936
11296.173828 4874.009277 8378.242188 -0.078027 -0.466759 0.880936
10563.015625 5267.956055 8522.035156 -0.237199 -0.509433 0.827173
10048.097656 5577.614258 8565.087891 -0.237199 -0.509433 0.827173
10362.992188 5004.953125 8302.700195 -0.237199 -0.509433 0.827173
11156.606445 6175.474121 8282.679688 0.454030 0.530682 0.715705
10626.670898 6516.451660 8366.032227 0.454030 0.530682 0.715705
10547.985352 6395.229492 8505.833008 0.454030 0.530682 0.715705
11142.973633 5111.910645 8490.723633 0.417968 -0.154143 0.895289
11296.173828 4874.009277 8378.242188 0.417968 -0.154143 0.895289
11553.943359 5303.567871 8331.859375 0.417968 -0.154143 0.895289
11142.973633 5111.910645 8490.723633 0.350981 0.023317 0.936092
11553.943359 5303.567871 8331.859375 0.350981 0.023317 0.936092
11200.082031 5805.002441 8452.046875 0.350981 0.023317 0.936092
9837.393555 5795.107910 8397.466797 -0.719831 -0.180860 0.670174
9904.336914 5463.474121 8379.872070 -0.719831 -0.180860 0.670174
10048.097656 5577.614258 8565.087891 -0.719831 -0.180860 0.670174
10626.670898 6516.451660 8366.032227 -0.505960 0.853956 -0.121504
10233.662109 6297.268555 8462.111328 -0.505960 0.853956 -0.121504
10320.181641 6358.778320 8534.135742 -0.505960 0.853956 -0.121504
10626.670898 6516.451660 8366.032227 -0.043097 0.766702 0.640555
10320.181641 6358.778320 8534.135742 -0.043097 0.766702 0.640555
10547.985352 6395.229492 8505.833008 -0.043097 0.766702 0.640555
9837.393555 5795.107910 8397.466797 -0.743655 0.439678 0.503648
10055.781250 5884.135742 8642.204102 -0.743655 0.439678 0.503648
10035.616211 6039.580566 8476.728516 -0.743655 0.439678 0.503648
11142.973633 5111.910645 8490.723633 0.484594 0.008882 0.874694
11200.082031 5805.002441 8452.046875 0.484594 0.008882 0.874694
10982.659180 5764.667969 8572.912109 0.484594 0.008882 0.874694
10982.659180 5764.667969 8572.912109 0.021375 -0.119726 0.992577
10563.015625 5267.956055 8522.035156 0.021375 -0.119726 0.992577
11142.973633 5111.910645 8490.723633 0.021375 -0.119726 0.992577
9837.393555 5795.107910 8397.466797 -0.708286 -0.155484 0.688589
10048.097656 5577.614258 8565.087891 -0.708286 -0.155484 0.688589
10055.781250 5884.135742 8642.204102 -0.708286 -0.155484 0.688589
11200.082031 5805.002441 8452.046875 0.399713 0.364988 0.840841
10547.985352 6395.229492 8505.833008 0.399713 0.364988 0.840841
10982.659180 5764.667969 8572.912109 0.399713 0.364988 0.840841
10035.616211 6039.580566 8476.728516 -0.724150 0.577894 0.376359
10320.181641 6358.778320 8534.135742 -0.724150 0.577894 0.376359
10233.662109 6297.268555 8462.111328 -0.724150 0.577894 0.376359
10378.984375 5671.327148 8716.793945 -0.236068 -0.507742 0.828535
10048.097656 5577.614258 8565.087891 -0.236068 -0.507742 0.828535
10563.015625 5267.956055 8522.035156 -0.236068 -0.507742 0.828535
10982.659180 5764.667969 8572.912109 0.266059 -0.317987 0.909998
10378.984375 5671.327148 8716.793945 0.266059 -0.317987 0.909998
10563.015625 5267.956055 8522.035156 0.266059 -0.317987 0.909998
10982.659180 5764.667969 8572.912109 0.288912 0.296013 0.910443
10547.985352 6395.229492 8505.833008 0.288912 0.296013 0.910443
10362.197266 5923.575195 8718.138672 0.288912 0.296013 0.910443
10035.616211 6039.580566 8476.728516 -0.670116 0.498503 0.549946
10055.781250 5884.135742 8642.204102 -0.670116 0.498503 0.549946
10320.181641 6358.778320 8534.135742 -0.670116 0.498503 0.549946
10547.985352 6395.229492 8505.833008 0.051163 0.393098 0.918072
10320.181641 6358.778320 8534.135742 0.051163 0.393098 0.918072
10362.197266 5923.575195 8718.138672 0.051163 0.393098 0.918072
10362.197266 5923.575195 8718.138672 -0.267616 0.353185 0.896461
10320.181641 6358.778320 8534.135742 -0.267616 0.353185 0.896461
10055.781250 5884.135742 8642.204102 -0.267616 0.353185 0.896461
10055.781250 5884.135742 8642.204102 -0.354461 -0.219774 0.908877
10048.097656 5577.614258 8565.087891 -0.354461 -0.219774 0.908877
10378.984375 5671.327148 8716.793945 -0.354461 -0.219774 0.908877
10362.197266 5923.575195 8718.138672 -0.237937 -0.021011 0.971053
10055.781250 5884.135742 8642.204102 -0.237937 -0.021011 0.971053
10378.984375 5671.327148 8716.793945 -0.237937 -0.021011 0.971053
10378.984375 5671.327148 8716.793945 0.230353 0.010143 0.973054
10982.659180 5764.667969 8572.912109 0.230353 0.010143 0.973054
10362.197266 5923.575195 8718.138672 0.230353 0.010143 0.973054
3 0 1 2
3 3 4 5
3 6 7 8
3 9 10 11
3 12 13 14
3 15 16 17
3 18 19 20
3 21 22 23
3 24 25 26
3 27 28 29
3 30 31 32
3 33 34 35
3 36 37 38
3 39 40 41
3 42 43 44
3 45 46 47
3 48 49 50
3 51 52 53
3 54 55 56
3 57 58 59
3 60 61 62
3 63 64 65
3 66 67 68
3 69 70 71
3 72 73 74
3 75 76 77
3 78 79 80
3 81 82 83
3 84 85 86
3 87 88 89
3 90 91 92
3 93 94 95
3 96 97 98
3 99 100 101
3 102 103 104
3 105 106 107
3 108 109 110
3 111 112 113
3 114 115 116
3 117 118 119
3 120 121 122
3 123 124 125
3 126 127 128
3 129 130 131
3 132 133 134
3 135 136 137
3 138 139 140
3 141 142 143
3 144 145 146
3 147 148 149
3 150 151 152
3 153 154 155
3 156 157 158
3 159 160 161
3 162 163 164
3 165 166 167
3 168 169 170
3 171 172 173
3 174 175 176
3 177 178 179
3 180 181 182
3 183 184 185
3 186 187 188
3 189 190 191
3 192 193 194
3 195 196 197
3 198 199 200
3 201 202 203
3 204 205 206
3 207 208 209
3 210 211 212
3 213 214 215
3 216 217 218
3 219 220 221
3 222 223 224
3 225 226 227
3 228 229 230
3 231 232 233
3 234 235 236
3 237 238 239
3 240 241 242
3 243 244 245
3 246 247 248
3 249 250 251
3 252 253 254
3 255 256 257
3 258 259 260
3 261 262 263
3 264 265 266
3 267 268 269
3 270 271 272
3 273 274 275
3 276 277 278
3 279 280 281
3 282 283 284
3 285 286 287
3 288 289 290
3 291 292 293
3 294 295 296
3 297 298 299
3 300 301 302
3 303 304 305
3 306 307 308
3 309 310 311
3 312 313 314
3 315 316 317
3 318 319 320
3 321 322 323
3 324 325 326
3 327 328 329
3 330 331 332
3 333 334 335
3 336 337 338
3 339 340 341
3 342 343 344
3 345 346 347
3 348 349 350
3 351 352 353
3 354 355 356
3 357 358 359
3 360 361 362
3 363 364 365
3 366 367 368
3 369 370 371
3 372 373 374
3 375 376 377
3 378 379 380
3 381 382 383
3 384 385 386
3 387 388 389
3 390 391 392
3 393 394 395
3 396 397 398
3 399 400 401
3 402 403 404
3 405 406 407
3 408 409 410
3 411 412 413
3 414 415 416
3 417 418 419
3 420 421 422
3 423 424 425
3 426 427 428
3 429 430 431
3 432 433 434
3 435 436 437
3 438 439 440
3 441 442 443
3 444 445 446
3 447 448 449
3 450 451 452
3 453 454 455
3 456 457 458
3 459 460 461
3 462 463 464
3 465 466 467
3 468 469 470
3 471 472 473
3 474 475 476
3 477 478 479
