ply
format ascii 1.0
comment Created by Blender 2.80 (sub 75) - www.blender.org, source file: 'downsample_ccf.blend'
element vertex 42
property float x
property float y
property float z
property float nx
property float ny
property float nz
element face 14
property list uchar uint vertex_indices
end_header
6181.302734 2287.339844 5407.543945 0.541799 0.775917 -0.323120
5880.985840 2457.658691 5312.971680 0.541799 0.775917 -0.323120
5790.468750 2537.774414 5353.579102 0.541799 0.775917 -0.323120
6136.786621 2404.298096 5637.625488 0.544107 0.785761 -0.294155
6181.302734 2287.339844 5407.543945 0.544107 0.785761 -0.294155
5790.468750 2537.774414 5353.579102 0.544107 0.785761 -0.294155
5790.468750 2537.774414 5353.579102 -0.696147 -0.694625 -0.181318
5880.985840 2457.658691 5312.971680 -0.696147 -0.694625 -0.181318
5529.171875 2715.139404 5677.314453 -0.696147 -0.694625 -0.181318
6181.302734 2287.339844 5407.543945 -0.490318 -0.871455 -0.012420
6049.276367 2352.942139 6016.674316 -0.490318 -0.871455 -0.012420
5880.985840 2457.658691 5312.971680 -0.490318 -0.871455 -0.012420
5790.468750 2537.774414 5353.579102 0.445242 0.886459 -0.126296
5529.171875 2715.139404 5677.314453 0.445242 0.886459 -0.126296
6136.786621 2404.298096 5637.625488 0.445242 0.886459 -0.126296
5880.985840 2457.658691 5312.971680 -0.626871 -0.777097 -0.056141
5729.554688 2534.700928 5937.446289 -0.626871 -0.777097 -0.056141
5529.171875 2715.139404 5677.314453 -0.626871 -0.777097 -0.056141
6049.276367 2352.942139 6016.674316 -0.491948 -0.870543 -0.011894
5729.554688 2534.700928 5937.446289 -0.491948 -0.870543 -0.011894
5880.985840 2457.658691 5312.971680 -0.491948 -0.870543 -0.011894
6184.743652 2298.342529 5937.537598 0.925118 0.379425 -0.013883
6181.302734 2287.339844 5407.543945 0.925118 0.379425 -0.013883
6136.786621 2404.298096 5637.625488 0.925118 0.379425 -0.013883
6136.786621 2404.298096 5637.625488 0.458313 0.883380 0.097922
5529.171875 2715.139404 5677.314453 0.458313 0.883380 0.097922
5805.361816 2533.604004 6022.319336 0.458313 0.883380 0.097922
6181.302734 2287.339844 5407.543945 -0.362808 -0.931611 0.021696
6184.743652 2298.342529 5937.537598 -0.362808 -0.931611 0.021696
6049.276367 2352.942139 6016.674316 -0.362808 -0.931611 0.021696
5529.171875 2715.139404 5677.314453 -0.738308 0.133265 0.661167
5729.554688 2534.700928 5937.446289 -0.738308 0.133265 0.661167
5805.361816 2533.604004 6022.319336 -0.738308 0.133265 0.661167
5805.361816 2533.604004 6022.319336 0.548222 0.812241 0.199293
6184.743652 2298.342529 5937.537598 0.548222 0.812241 0.199293
6136.786621 2404.298096 5637.625488 0.548222 0.812241 0.199293
6184.743652 2298.342529 5937.537598 0.542952 0.719519 0.433008
5805.361816 2533.604004 6022.319336 0.542952 0.719519 0.433008
6049.276367 2352.942139 6016.674316 0.542952 0.719519 0.433008
5805.361816 2533.604004 6022.319336 -0.522444 -0.719650 0.457337
5729.554688 2534.700928 5937.446289 -0.522444 -0.719650 0.457337
6049.276367 2352.942139 6016.674316 -0.522444 -0.719650 0.457337
3 0 1 2
3 3 4 5
3 6 7 8
3 9 10 11
3 12 13 14
3 15 16 17
3 18 19 20
3 21 22 23
3 24 25 26
3 27 28 29
3 30 31 32
3 33 34 35
3 36 37 38
3 39 40 41
