ply
format ascii 1.0
comment Created by Blender 2.80 (sub 75) - www.blender.org, source file: 'downsample_ccf.blend'
element vertex 24
property float x
property float y
property float z
property float nx
property float ny
property float nz
element face 8
property list uchar uint vertex_indices
end_header
9142.757812 4704.162598 5714.595215 -0.721321 -0.317343 -0.615621
9417.672852 4543.335449 5475.382324 -0.721321 -0.317343 -0.615621
9335.189453 4318.830078 5687.756836 -0.721321 -0.317343 -0.615621
9701.828125 4331.975586 5690.587402 0.030401 -0.692762 -0.720525
9335.189453 4318.830078 5687.756836 0.030401 -0.692762 -0.720525
9417.672852 4543.335449 5475.382324 0.030401 -0.692762 -0.720525
9417.672852 4543.335449 5475.382324 0.192760 0.902469 -0.385218
9142.757812 4704.162598 5714.595215 0.192760 0.902469 -0.385218
9307.734375 4709.172363 5808.884766 0.192760 0.902469 -0.385218
9701.828125 4331.975586 5690.587402 0.660153 0.736303 -0.148515
9417.672852 4543.335449 5475.382324 0.660153 0.736303 -0.148515
9307.734375 4709.172363 5808.884766 0.660153 0.736303 -0.148515
9701.828125 4331.975586 5690.587402 0.033338 -0.976084 0.214825
9493.990234 4359.227539 5846.664062 0.033338 -0.976084 0.214825
9335.189453 4318.830078 5687.756836 0.033338 -0.976084 0.214825
9493.990234 4359.227539 5846.664062 -0.614273 -0.355818 0.704317
9142.757812 4704.162598 5714.595215 -0.614273 -0.355818 0.704317
9335.189453 4318.830078 5687.756836 -0.614273 -0.355818 0.704317
9701.828125 4331.975586 5690.587402 0.585369 0.388391 0.711685
9307.734375 4709.172363 5808.884766 0.585369 0.388391 0.711685
9493.990234 4359.227539 5846.664062 0.585369 0.388391 0.711685
9493.990234 4359.227539 5846.664062 -0.485544 -0.165761 0.858353
9307.734375 4709.172363 5808.884766 -0.485544 -0.165761 0.858353
9142.757812 4704.162598 5714.595215 -0.485544 -0.165761 0.858353
3 0 1 2
3 3 4 5
3 6 7 8
3 9 10 11
3 12 13 14
3 15 16 17
3 18 19 20
3 21 22 23
