ply
format ascii 1.0
comment Created by Blender 2.80 (sub 75) - www.blender.org, source file: 'downsample_ccf.blend'
element vertex 246
property float x
property float y
property float z
property float nx
property float ny
property float nz
element face 82
property list uchar uint vertex_indices
end_header
8412.978516 4036.234863 712.548157 0.211329 0.429191 -0.878143
8087.184570 4188.709473 708.666199 0.211329 0.429191 -0.878143
8525.104492 4248.985352 843.513184 0.211329 0.429191 -0.878143
8087.184570 4188.709473 708.666199 0.200755 0.467467 -0.860913
7831.998535 4621.256348 884.028442 0.200755 0.467467 -0.860913
8525.104492 4248.985352 843.513184 0.200755 0.467467 -0.860913
8412.978516 4036.234863 712.548157 0.295848 0.332077 -0.895656
8952.988281 3969.343750 866.120056 0.295848 0.332077 -0.895656
8959.933594 3696.280273 767.171936 0.295848 0.332077 -0.895656
8952.988281 3969.343750 866.120056 0.296267 0.382575 -0.875136
8412.978516 4036.234863 712.548157 0.296267 0.382575 -0.875136
8525.104492 4248.985352 843.513184 0.296267 0.382575 -0.875136
8087.184570 4188.709473 708.666199 -0.005893 0.372721 -0.927925
7354.820312 4406.274902 800.707031 -0.005893 0.372721 -0.927925
7831.998535 4621.256348 884.028442 -0.005893 0.372721 -0.927925
7354.820312 4406.274902 800.707031 0.110377 0.260285 -0.959202
6990.158203 4496.842285 783.320923 0.110377 0.260285 -0.959202
7050.386719 4809.877930 875.195557 0.110377 0.260285 -0.959202
8412.978516 4036.234863 712.548157 -0.273352 -0.603152 -0.749324
7354.820312 4406.274902 800.707031 -0.273352 -0.603152 -0.749324
8087.184570 4188.709473 708.666199 -0.273352 -0.603152 -0.749324
8959.933594 3696.280273 767.171936 0.528151 0.255560 -0.809781
9401.705078 3399.887207 961.762756 0.528151 0.255560 -0.809781
9304.963867 3371.810059 889.805725 0.528151 0.255560 -0.809781
9401.705078 3399.887207 961.762756 0.545045 0.297853 -0.783715
8959.933594 3696.280273 767.171936 0.545045 0.297853 -0.783715
8952.988281 3969.343750 866.120056 0.545045 0.297853 -0.783715
7354.820312 4406.274902 800.707031 -0.232702 -0.963022 -0.135785
7000.643555 4460.929199 1020.056702 -0.232702 -0.963022 -0.135785
6990.158203 4496.842285 783.320923 -0.232702 -0.963022 -0.135785
7050.386719 4809.877930 875.195557 0.066294 0.229232 -0.971112
7831.998535 4621.256348 884.028442 0.066294 0.229232 -0.971112
7354.820312 4406.274902 800.707031 0.066294 0.229232 -0.971112
8537.249023 3943.877686 903.583435 -0.549534 -0.792632 -0.264098
8959.933594 3696.280273 767.171936 -0.549534 -0.792632 -0.264098
9014.813477 3597.429443 949.657349 -0.549534 -0.792632 -0.264098
8537.249023 3943.877686 903.583435 -0.521321 -0.850320 -0.071968
8412.978516 4036.234863 712.548157 -0.521321 -0.850320 -0.071968
8959.933594 3696.280273 767.171936 -0.521321 -0.850320 -0.071968
9355.030273 3243.148193 1091.149414 -0.581622 -0.743345 -0.330383
8959.933594 3696.280273 767.171936 -0.581622 -0.743345 -0.330383
9304.963867 3371.810059 889.805725 -0.581622 -0.743345 -0.330383
7354.820312 4406.274902 800.707031 -0.336290 -0.884806 -0.322533
8412.978516 4036.234863 712.548157 -0.336290 -0.884806 -0.322533
7000.643555 4460.929199 1020.056702 -0.336290 -0.884806 -0.322533
7059.959961 4830.886230 1065.952148 -0.983132 0.180510 0.029459
7050.386719 4809.877930 875.195557 -0.983132 0.180510 0.029459
6990.158203 4496.842285 783.320923 -0.983132 0.180510 0.029459
9355.030273 3243.148193 1091.149414 -0.669964 -0.718296 -0.187613
9014.813477 3597.429443 949.657349 -0.669964 -0.718296 -0.187613
8959.933594 3696.280273 767.171936 -0.669964 -0.718296 -0.187613
8537.249023 3943.877686 903.583435 -0.409445 -0.896874 -0.167251
8034.289551 4167.333008 936.604919 -0.409445 -0.896874 -0.167251
8412.978516 4036.234863 712.548157 -0.409445 -0.896874 -0.167251
8412.978516 4036.234863 712.548157 -0.262655 -0.957830 0.116512
8034.289551 4167.333008 936.604919 -0.262655 -0.957830 0.116512
7000.643555 4460.929199 1020.056702 -0.262655 -0.957830 0.116512
8525.104492 4248.985352 843.513184 0.465676 0.878565 -0.106160
7831.998535 4621.256348 884.028442 0.465676 0.878565 -0.106160
8287.538086 4398.446289 1038.333374 0.465676 0.878565 -0.106160
7831.998535 4621.256348 884.028442 0.223670 0.910569 -0.347615
7050.386719 4809.877930 875.195557 0.223670 0.910569 -0.347615
7663.519043 4745.827148 1101.931519 0.223670 0.910569 -0.347615
9134.055664 3721.998291 1027.881958 0.774989 0.625650 0.089183
9401.705078 3399.887207 961.762756 0.774989 0.625650 0.089183
8952.988281 3969.343750 866.120056 0.774989 0.625650 0.089183
7000.643555 4460.929199 1020.056702 -0.986463 0.149921 0.066435
7059.959961 4830.886230 1065.952148 -0.986463 0.149921 0.066435
6990.158203 4496.842285 783.320923 -0.986463 0.149921 0.066435
9355.030273 3243.148193 1091.149414 0.577681 -0.615039 -0.536667
9304.963867 3371.810059 889.805725 0.577681 -0.615039 -0.536667
9401.705078 3399.887207 961.762756 0.577681 -0.615039 -0.536667
8952.988281 3969.343750 866.120056 0.732095 0.655995 0.183596
8842.099609 4056.952881 995.261963 0.732095 0.655995 0.183596
9134.055664 3721.998291 1027.881958 0.732095 0.655995 0.183596
8952.988281 3969.343750 866.120056 0.548138 0.831179 -0.093204
8525.104492 4248.985352 843.513184 0.548138 0.831179 -0.093204
8842.099609 4056.952881 995.261963 0.548138 0.831179 -0.093204
8525.104492 4248.985352 843.513184 0.523424 0.851935 -0.015312
8287.538086 4398.446289 1038.333374 0.523424 0.851935 -0.015312
8842.099609 4056.952881 995.261963 0.523424 0.851935 -0.015312
8537.249023 3943.877686 903.583435 -0.296658 -0.287834 0.910574
9014.813477 3597.429443 949.657349 -0.296658 -0.287834 0.910574
9134.055664 3721.998291 1027.881958 -0.296658 -0.287834 0.910574
8287.538086 4398.446289 1038.333374 0.471597 0.871626 -0.133659
7831.998535 4621.256348 884.028442 0.471597 0.871626 -0.133659
7663.519043 4745.827148 1101.931519 0.471597 0.871626 -0.133659
9401.705078 3399.887207 961.762756 0.773233 0.600946 0.202424
9134.055664 3721.998291 1027.881958 0.773233 0.600946 0.202424
9364.799805 3385.954834 1144.098145 0.773233 0.600946 0.202424
8034.289551 4167.333008 936.604919 -0.381483 -0.893605 0.236520
8537.249023 3943.877686 903.583435 -0.381483 -0.893605 0.236520
9134.055664 3721.998291 1027.881958 -0.381483 -0.893605 0.236520
7663.519043 4745.827148 1101.931519 0.145365 0.982612 -0.115512
7050.386719 4809.877930 875.195557 0.145365 0.982612 -0.115512
7059.959961 4830.886230 1065.952148 0.145365 0.982612 -0.115512
9355.030273 3243.148193 1091.149414 0.973019 -0.135740 0.186570
9401.705078 3399.887207 961.762756 0.973019 -0.135740 0.186570
9364.799805 3385.954834 1144.098145 0.973019 -0.135740 0.186570
8287.538086 4398.446289 1038.333374 -0.173216 -0.231556 0.957277
8034.289551 4167.333008 936.604919 -0.173216 -0.231556 0.957277
9134.055664 3721.998291 1027.881958 -0.173216 -0.231556 0.957277
8034.289551 4167.333008 936.604919 -0.031311 -0.373729 0.927009
8287.538086 4398.446289 1038.333374 -0.031311 -0.373729 0.927009
7000.643555 4460.929199 1020.056702 -0.031311 -0.373729 0.927009
8287.538086 4398.446289 1038.333374 0.269511 0.323255 0.907122
9134.055664 3721.998291 1027.881958 0.269511 0.323255 0.907122
8842.099609 4056.952881 995.261963 0.269511 0.323255 0.907122
8287.538086 4398.446289 1038.333374 -0.024654 -0.222712 0.974573
7663.519043 4745.827148 1101.931519 -0.024654 -0.222712 0.974573
7000.643555 4460.929199 1020.056702 -0.024654 -0.222712 0.974573
9355.030273 3243.148193 1091.149414 -0.580614 -0.247830 0.775544
9364.799805 3385.954834 1144.098145 -0.580614 -0.247830 0.775544
9014.813477 3597.429443 949.657349 -0.580614 -0.247830 0.775544
9364.799805 3385.954834 1144.098145 -0.508965 -0.052340 0.859194
9134.055664 3721.998291 1027.881958 -0.508965 -0.052340 0.859194
9014.813477 3597.429443 949.657349 -0.508965 -0.052340 0.859194
7059.959961 4830.886230 1065.952148 -0.074714 -0.110962 0.991012
7000.643555 4460.929199 1020.056702 -0.074714 -0.110962 0.991012
7663.519043 4745.827148 1101.931519 -0.074714 -0.110962 0.991012
9426.587891 3335.394287 10416.566406 0.767891 0.527231 -0.363828
9356.378906 3306.445801 10226.434570 0.767891 0.527231 -0.363828
9119.294922 3747.146973 10364.677734 0.767891 0.527231 -0.363828
7581.767578 4774.902344 10272.761719 -0.001820 -0.205065 -0.978747
7003.927734 4471.564941 10337.390625 -0.001820 -0.205065 -0.978747
7083.670410 4778.852051 10272.860352 -0.001820 -0.205065 -0.978747
8247.474609 4416.468750 10339.637695 -0.006902 -0.195783 -0.980623
7003.927734 4471.564941 10337.390625 -0.006902 -0.195783 -0.980623
7581.767578 4774.902344 10272.761719 -0.006902 -0.195783 -0.980623
7029.338379 4821.920410 10423.657227 -0.913615 0.158458 -0.374431
7083.670410 4778.852051 10272.860352 -0.913615 0.158458 -0.374431
7003.927734 4471.564941 10337.390625 -0.913615 0.158458 -0.374431
8247.474609 4416.468750 10339.637695 -0.020938 -0.507714 -0.861271
7652.803223 4294.571777 10425.952148 -0.020938 -0.507714 -0.861271
7003.927734 4471.564941 10337.390625 -0.020938 -0.507714 -0.861271
7083.670410 4778.852051 10272.860352 0.007576 0.962242 -0.272091
7029.338379 4821.920410 10423.657227 0.007576 0.962242 -0.272091
7581.767578 4774.902344 10272.761719 0.007576 0.962242 -0.272091
9340.086914 3295.797607 10435.324219 0.413645 -0.910328 -0.014143
9356.378906 3306.445801 10226.434570 0.413645 -0.910328 -0.014143
9426.587891 3335.394287 10416.566406 0.413645 -0.910328 -0.014143
9119.294922 3747.146973 10364.677734 -0.582281 -0.058894 -0.810852
9356.378906 3306.445801 10226.434570 -0.582281 -0.058894 -0.810852
9071.557617 3550.206055 10413.262695 -0.582281 -0.058894 -0.810852
8813.716797 4059.743408 10379.499023 -0.088950 -0.248960 -0.964420
7652.803223 4294.571777 10425.952148 -0.088950 -0.248960 -0.964420
8247.474609 4416.468750 10339.637695 -0.088950 -0.248960 -0.964420
7014.084961 4454.165527 10563.903320 -0.254662 -0.964995 -0.062706
7003.927734 4471.564941 10337.390625 -0.254662 -0.964995 -0.062706
7652.803223 4294.571777 10425.952148 -0.254662 -0.964995 -0.062706
7581.767578 4774.902344 10272.761719 0.473881 0.880585 0.002473
8667.416016 4190.060547 10489.054688 0.473881 0.880585 0.002473
8247.474609 4416.468750 10339.637695 0.473881 0.880585 0.002473
7581.767578 4774.902344 10272.761719 0.107988 0.990359 0.086756
7029.338379 4821.920410 10423.657227 0.107988 0.990359 0.086756
7549.689453 4758.649414 10498.225586 0.107988 0.990359 0.086756
9340.086914 3295.797607 10435.324219 -0.681048 -0.726667 -0.090159
9071.557617 3550.206055 10413.262695 -0.681048 -0.726667 -0.090159
9356.378906 3306.445801 10226.434570 -0.681048 -0.726667 -0.090159
9119.294922 3747.146973 10364.677734 -0.317004 -0.266733 -0.910144
8603.572266 3920.374268 10493.537109 -0.317004 -0.266733 -0.910144
8813.716797 4059.743408 10379.499023 -0.317004 -0.266733 -0.910144
8603.572266 3920.374268 10493.537109 -0.134944 -0.497625 -0.856831
7652.803223 4294.571777 10425.952148 -0.134944 -0.497625 -0.856831
8813.716797 4059.743408 10379.499023 -0.134944 -0.497625 -0.856831
8667.416016 4190.060547 10489.054688 0.527959 0.809264 -0.257587
8813.716797 4059.743408 10379.499023 0.527959 0.809264 -0.257587
8247.474609 4416.468750 10339.637695 0.527959 0.809264 -0.257587
7014.084961 4454.165527 10563.903320 -0.996070 -0.079748 0.038540
6991.665039 4718.807617 10532.062500 -0.996070 -0.079748 0.038540
7003.927734 4471.564941 10337.390625 -0.996070 -0.079748 0.038540
9119.294922 3747.146973 10364.677734 -0.290171 -0.162327 -0.943107
9071.557617 3550.206055 10413.262695 -0.290171 -0.162327 -0.943107
8603.572266 3920.374268 10493.537109 -0.290171 -0.162327 -0.943107
8667.416016 4190.060547 10489.054688 0.450522 0.883572 0.127792
7581.767578 4774.902344 10272.761719 0.450522 0.883572 0.127792
7549.689453 4758.649414 10498.225586 0.450522 0.883572 0.127792
7003.927734 4471.564941 10337.390625 -0.967940 0.123990 -0.218445
6991.665039 4718.807617 10532.062500 -0.967940 0.123990 -0.218445
7029.338379 4821.920410 10423.657227 -0.967940 0.123990 -0.218445
8522.542969 4242.534668 10555.998047 0.437570 0.855717 0.276191
8667.416016 4190.060547 10489.054688 0.437570 0.855717 0.276191
7549.689453 4758.649414 10498.225586 0.437570 0.855717 0.276191
9119.294922 3747.146973 10364.677734 0.803638 0.591490 -0.065613
9090.588867 3802.781250 10514.616211 0.803638 0.591490 -0.065613
9426.587891 3335.394287 10416.566406 0.803638 0.591490 -0.065613
8813.716797 4059.743408 10379.499023 0.706715 0.696689 -0.123203
9090.588867 3802.781250 10514.616211 0.706715 0.696689 -0.123203
9119.294922 3747.146973 10364.677734 0.706715 0.696689 -0.123203
8813.716797 4059.743408 10379.499023 0.674228 0.738187 0.022287
8667.416016 4190.060547 10489.054688 0.674228 0.738187 0.022287
9090.588867 3802.781250 10514.616211 0.674228 0.738187 0.022287
7549.689453 4758.649414 10498.225586 -0.010180 0.726300 0.687303
7029.338379 4821.920410 10423.657227 -0.010180 0.726300 0.687303
6991.665039 4718.807617 10532.062500 -0.010180 0.726300 0.687303
9071.557617 3550.206055 10413.262695 -0.579245 -0.782122 0.229696
8925.726562 3719.898193 10623.314453 -0.579245 -0.782122 0.229696
8603.572266 3920.374268 10493.537109 -0.579245 -0.782122 0.229696
8925.726562 3719.898193 10623.314453 -0.688580 -0.717958 0.101954
9071.557617 3550.206055 10413.262695 -0.688580 -0.717958 0.101954
9340.086914 3295.797607 10435.324219 -0.688580 -0.717958 0.101954
9426.587891 3335.394287 10416.566406 0.275334 -0.151780 0.949291
8925.726562 3719.898193 10623.314453 0.275334 -0.151780 0.949291
9340.086914 3295.797607 10435.324219 0.275334 -0.151780 0.949291
9426.587891 3335.394287 10416.566406 0.482911 0.166823 0.859632
9090.588867 3802.781250 10514.616211 0.482911 0.166823 0.859632
8925.726562 3719.898193 10623.314453 0.482911 0.166823 0.859632
9090.588867 3802.781250 10514.616211 0.504705 0.592898 0.627491
8667.416016 4190.060547 10489.054688 0.504705 0.592898 0.627491
8522.542969 4242.534668 10555.998047 0.504705 0.592898 0.627491
8603.572266 3920.374268 10493.537109 -0.370494 -0.899605 0.231181
8116.773926 4167.499023 10675.034180 -0.370494 -0.899605 0.231181
7652.803223 4294.571777 10425.952148 -0.370494 -0.899605 0.231181
7652.803223 4294.571777 10425.952148 -0.346657 -0.921397 0.175661
8116.773926 4167.499023 10675.034180 -0.346657 -0.921397 0.175661
7515.986816 4378.930664 10598.441406 -0.346657 -0.921397 0.175661
7515.986816 4378.930664 10598.441406 0.074372 0.248300 0.965824
8522.542969 4242.534668 10555.998047 0.074372 0.248300 0.965824
7549.689453 4758.649414 10498.225586 0.074372 0.248300 0.965824
7652.803223 4294.571777 10425.952148 -0.162060 -0.931088 0.326821
7515.986816 4378.930664 10598.441406 -0.162060 -0.931088 0.326821
7014.084961 4454.165527 10563.903320 -0.162060 -0.931088 0.326821
7549.689453 4758.649414 10498.225586 0.040671 0.251596 0.966977
6991.665039 4718.807617 10532.062500 0.040671 0.251596 0.966977
7515.986816 4378.930664 10598.441406 0.040671 0.251596 0.966977
8925.726562 3719.898193 10623.314453 0.399009 0.328871 0.855942
9090.588867 3802.781250 10514.616211 0.399009 0.328871 0.855942
8703.330078 3909.847656 10654.004883 0.399009 0.328871 0.855942
8603.572266 3920.374268 10493.537109 -0.486414 -0.864339 -0.127749
8925.726562 3719.898193 10623.314453 -0.486414 -0.864339 -0.127749
8116.773926 4167.499023 10675.034180 -0.486414 -0.864339 -0.127749
8116.773926 4167.499023 10675.034180 0.115998 0.612785 0.781690
8522.542969 4242.534668 10555.998047 0.115998 0.612785 0.781690
7515.986816 4378.930664 10598.441406 0.115998 0.612785 0.781690
7515.986816 4378.930664 10598.441406 -0.051023 0.115037 0.992050
6991.665039 4718.807617 10532.062500 -0.051023 0.115037 0.992050
7014.084961 4454.165527 10563.903320 -0.051023 0.115037 0.992050
9090.588867 3802.781250 10514.616211 0.410310 0.455678 0.789939
8522.542969 4242.534668 10555.998047 0.410310 0.455678 0.789939
8703.330078 3909.847656 10654.004883 0.410310 0.455678 0.789939
8925.726562 3719.898193 10623.314453 -0.070038 -0.238502 0.968613
8703.330078 3909.847656 10654.004883 -0.070038 -0.238502 0.968613
8116.773926 4167.499023 10675.034180 -0.070038 -0.238502 0.968613
8703.330078 3909.847656 10654.004883 0.196742 0.373917 0.906355
8522.542969 4242.534668 10555.998047 0.196742 0.373917 0.906355
8116.773926 4167.499023 10675.034180 0.196742 0.373917 0.906355
3 0 1 2
3 3 4 5
3 6 7 8
3 9 10 11
3 12 13 14
3 15 16 17
3 18 19 20
3 21 22 23
3 24 25 26
3 27 28 29
3 30 31 32
3 33 34 35
3 36 37 38
3 39 40 41
3 42 43 44
3 45 46 47
3 48 49 50
3 51 52 53
3 54 55 56
3 57 58 59
3 60 61 62
3 63 64 65
3 66 67 68
3 69 70 71
3 72 73 74
3 75 76 77
3 78 79 80
3 81 82 83
3 84 85 86
3 87 88 89
3 90 91 92
3 93 94 95
3 96 97 98
3 99 100 101
3 102 103 104
3 105 106 107
3 108 109 110
3 111 112 113
3 114 115 116
3 117 118 119
3 120 121 122
3 123 124 125
3 126 127 128
3 129 130 131
3 132 133 134
3 135 136 137
3 138 139 140
3 141 142 143
3 144 145 146
3 147 148 149
3 150 151 152
3 153 154 155
3 156 157 158
3 159 160 161
3 162 163 164
3 165 166 167
3 168 169 170
3 171 172 173
3 174 175 176
3 177 178 179
3 180 181 182
3 183 184 185
3 186 187 188
3 189 190 191
3 192 193 194
3 195 196 197
3 198 199 200
3 201 202 203
3 204 205 206
3 207 208 209
3 210 211 212
3 213 214 215
3 216 217 218
3 219 220 221
3 222 223 224
3 225 226 227
3 228 229 230
3 231 232 233
3 234 235 236
3 237 238 239
3 240 241 242
3 243 244 245
