ply
format ascii 1.0
comment Created by Blender 2.80 (sub 75) - www.blender.org, source file: 'downsample_ccf.blend'
element vertex 654
property float x
property float y
property float z
property float nx
property float ny
property float nz
element face 218
property list uchar uint vertex_indices
end_header
8731.252930 4760.541016 993.847595 -0.011325 0.089452 -0.995927
8560.372070 4613.950684 982.624329 -0.011325 0.089452 -0.995927
8180.477539 4771.100586 1001.059143 -0.011325 0.089452 -0.995927
9477.509766 4321.322754 1140.810791 0.138520 -0.098562 -0.985443
8999.685547 4298.400391 1075.937500 0.138520 -0.098562 -0.985443
8560.372070 4613.950684 982.624329 0.138520 -0.098562 -0.985443
8560.372070 4613.950684 982.624329 -0.376642 -0.874722 -0.304963
8498.666016 4590.826660 1125.160400 -0.376642 -0.874722 -0.304963
8180.477539 4771.100586 1001.059143 -0.376642 -0.874722 -0.304963
8560.372070 4613.950684 982.624329 0.141499 -0.089464 -0.985887
8731.252930 4760.541016 993.847595 0.141499 -0.089464 -0.985887
9477.509766 4321.322754 1140.810791 0.141499 -0.089464 -0.985887
8999.685547 4298.400391 1075.937500 -0.515522 -0.804748 -0.294308
8935.644531 4305.714355 1168.115356 -0.515522 -0.804748 -0.294308
8560.372070 4613.950684 982.624329 -0.515522 -0.804748 -0.294308
8180.477539 4771.100586 1001.059143 -0.008305 0.231224 -0.972865
7684.162598 4963.797852 1051.094971 -0.008305 0.231224 -0.972865
8731.252930 4760.541016 993.847595 -0.008305 0.231224 -0.972865
8731.252930 4760.541016 993.847595 -0.007498 0.235120 -0.971937
7684.162598 4963.797852 1051.094971 -0.007498 0.235120 -0.971937
7556.674805 5454.200195 1170.711060 -0.007498 0.235120 -0.971937
7684.162598 4963.797852 1051.094971 -0.043372 0.226088 -0.973141
7118.156738 5217.119629 1135.174805 -0.043372 0.226088 -0.973141
7556.674805 5454.200195 1170.711060 -0.043372 0.226088 -0.973141
8498.666016 4590.826660 1125.160400 -0.489652 -0.802007 -0.342090
8560.372070 4613.950684 982.624329 -0.489652 -0.802007 -0.342090
8935.644531 4305.714355 1168.115356 -0.489652 -0.802007 -0.342090
9544.629883 4591.843262 1199.206055 0.269402 0.138866 -0.952963
9477.509766 4321.322754 1140.810791 0.269402 0.138866 -0.952963
8731.252930 4760.541016 993.847595 0.269402 0.138866 -0.952963
8498.666016 4590.826660 1125.160400 -0.461936 -0.881663 -0.096358
8135.754883 4780.008789 1133.949219 -0.461936 -0.881663 -0.096358
8180.477539 4771.100586 1001.059143 -0.461936 -0.881663 -0.096358
7681.873047 4952.969238 1183.996826 -0.367877 -0.926269 -0.081808
7684.162598 4963.797852 1051.094971 -0.367877 -0.926269 -0.081808
8180.477539 4771.100586 1001.059143 -0.367877 -0.926269 -0.081808
9477.509766 4321.322754 1140.810791 0.139522 -0.130316 -0.981607
9401.122070 3669.595215 1216.474976 0.139522 -0.130316 -0.981607
8999.685547 4298.400391 1075.937500 0.139522 -0.130316 -0.981607
9074.592773 4140.561523 1148.699707 -0.708910 -0.543598 -0.449386
8935.644531 4305.714355 1168.115356 -0.708910 -0.543598 -0.449386
8999.685547 4298.400391 1075.937500 -0.708910 -0.543598 -0.449386
8180.477539 4771.100586 1001.059143 -0.361157 -0.930627 -0.059159
8135.754883 4780.008789 1133.949219 -0.361157 -0.930627 -0.059159
7681.873047 4952.969238 1183.996826 -0.361157 -0.930627 -0.059159
7684.162598 4963.797852 1051.094971 -0.366352 -0.576008 -0.730754
7040.596191 5181.118164 1202.436279 -0.366352 -0.576008 -0.730754
7118.156738 5217.119629 1135.174805 -0.366352 -0.576008 -0.730754
8071.732422 5623.974121 1243.236572 0.034711 0.301706 -0.952769
8731.252930 4760.541016 993.847595 0.034711 0.301706 -0.952769
7556.674805 5454.200195 1170.711060 0.034711 0.301706 -0.952769
9401.122070 3669.595215 1216.474976 -0.689396 -0.546409 -0.475574
9074.592773 4140.561523 1148.699707 -0.689396 -0.546409 -0.475574
8999.685547 4298.400391 1075.937500 -0.689396 -0.546409 -0.475574
9544.629883 4591.843262 1199.206055 0.286248 0.256256 -0.923252
8731.252930 4760.541016 993.847595 0.286248 0.256256 -0.923252
9033.398438 5066.232422 1172.372925 0.286248 0.256256 -0.923252
8071.732422 5623.974121 1243.236572 0.153605 0.380702 -0.911851
9033.398438 5066.232422 1172.372925 0.153605 0.380702 -0.911851
8731.252930 4760.541016 993.847595 0.153605 0.380702 -0.911851
7109.162109 5299.996582 1202.692749 -0.258838 0.593044 -0.762432
7556.674805 5454.200195 1170.711060 -0.258838 0.593044 -0.762432
7118.156738 5217.119629 1135.174805 -0.258838 0.593044 -0.762432
7684.162598 4963.797852 1051.094971 -0.336154 -0.938210 -0.082235
7681.873047 4952.969238 1183.996826 -0.336154 -0.938210 -0.082235
7040.596191 5181.118164 1202.436279 -0.336154 -0.938210 -0.082235
7109.162109 5299.996582 1202.692749 -0.699088 0.404487 -0.589632
7118.156738 5217.119629 1135.174805 -0.699088 0.404487 -0.589632
7040.596191 5181.118164 1202.436279 -0.699088 0.404487 -0.589632
9169.697266 3995.314697 1230.487793 -0.760335 -0.615195 -0.208390
8935.644531 4305.714355 1168.115356 -0.760335 -0.615195 -0.208390
9074.592773 4140.561523 1148.699707 -0.760335 -0.615195 -0.208390
9033.398438 5066.232422 1172.372925 0.376208 0.357065 -0.854969
9531.754883 5109.277832 1409.639771 0.376208 0.357065 -0.854969
9544.629883 4591.843262 1199.206055 0.376208 0.357065 -0.854969
8498.666016 4590.826660 1125.160400 -0.154823 -0.089052 0.983921
8935.644531 4305.714355 1168.115356 -0.154823 -0.089052 0.983921
9127.258789 4542.127930 1219.663574 -0.154823 -0.089052 0.983921
9127.258789 4542.127930 1219.663574 -0.161197 -0.208910 0.964558
9022.686523 5009.808105 1303.480347 -0.161197 -0.208910 0.964558
8498.666016 4590.826660 1125.160400 -0.161197 -0.208910 0.964558
8498.666016 4590.826660 1125.160400 -0.114571 -0.264272 0.957619
9022.686523 5009.808105 1303.480347 -0.114571 -0.264272 0.957619
8135.754883 4780.008789 1133.949219 -0.114571 -0.264272 0.957619
7040.596191 5181.118164 1202.436279 -0.335825 -0.941407 -0.031217
7681.873047 4952.969238 1183.996826 -0.335825 -0.941407 -0.031217
7094.170898 5159.872070 1266.808960 -0.335825 -0.941407 -0.031217
9033.398438 5066.232422 1172.372925 0.175159 0.415421 -0.892605
8071.732422 5623.974121 1243.236572 0.175159 0.415421 -0.892605
8415.443359 5662.672852 1328.694702 0.175159 0.415421 -0.892605
7556.674805 5454.200195 1170.711060 -0.307140 0.950641 -0.044110
7735.647461 5519.752441 1337.269287 -0.307140 0.950641 -0.044110
8071.732422 5623.974121 1243.236572 -0.307140 0.950641 -0.044110
9751.382812 3121.838379 1452.885376 0.281843 -0.222580 -0.933286
9542.975586 3415.293457 1319.962036 0.281843 -0.222580 -0.933286
9401.122070 3669.595215 1216.474976 0.281843 -0.222580 -0.933286
9401.122070 3669.595215 1216.474976 -0.742687 -0.566339 -0.357318
9455.635742 3516.760010 1345.407471 -0.742687 -0.566339 -0.357318
9074.592773 4140.561523 1148.699707 -0.742687 -0.566339 -0.357318
9074.592773 4140.561523 1148.699707 -0.864067 -0.479486 0.153236
9455.635742 3516.760010 1345.407471 -0.864067 -0.479486 0.153236
9169.697266 3995.314697 1230.487793 -0.864067 -0.479486 0.153236
7556.674805 5454.200195 1170.711060 -0.327019 0.944797 -0.020450
7109.162109 5299.996582 1202.692749 -0.327019 0.944797 -0.020450
7735.647461 5519.752441 1337.269287 -0.327019 0.944797 -0.020450
9542.975586 3415.293457 1319.962036 -0.752159 -0.560556 -0.346458
9455.635742 3516.760010 1345.407471 -0.752159 -0.560556 -0.346458
9401.122070 3669.595215 1216.474976 -0.752159 -0.560556 -0.346458
9477.509766 4321.322754 1140.810791 0.380466 -0.150529 -0.912462
9751.382812 3121.838379 1452.885376 0.380466 -0.150529 -0.912462
9401.122070 3669.595215 1216.474976 0.380466 -0.150529 -0.912462
9477.509766 4321.322754 1140.810791 0.581666 0.031140 -0.812831
9544.629883 4591.843262 1199.206055 0.581666 0.031140 -0.812831
9890.436523 3909.045654 1420.508789 0.581666 0.031140 -0.812831
9127.258789 4542.127930 1219.663574 -0.258685 -0.000955 0.965961
8935.644531 4305.714355 1168.115356 -0.258685 -0.000955 0.965961
9169.697266 3995.314697 1230.487793 -0.258685 -0.000955 0.965961
7040.596191 5181.118164 1202.436279 -0.861350 0.496573 0.107197
7099.004883 5260.542480 1303.842285 -0.861350 0.496573 0.107197
7109.162109 5299.996582 1202.692749 -0.861350 0.496573 0.107197
7109.162109 5299.996582 1202.692749 -0.372861 0.876518 0.304450
7099.004883 5260.542480 1303.842285 -0.372861 0.876518 0.304450
7735.647461 5519.752441 1337.269287 -0.372861 0.876518 0.304450
9488.480469 4522.049805 1323.093384 -0.275391 -0.002344 0.961329
9127.258789 4542.127930 1219.663574 -0.275391 -0.002344 0.961329
9169.697266 3995.314697 1230.487793 -0.275391 -0.002344 0.961329
8135.754883 4780.008789 1133.949219 -0.078701 -0.377059 0.922840
9022.686523 5009.808105 1303.480347 -0.078701 -0.377059 0.922840
8174.172852 5600.616699 1472.513916 -0.078701 -0.377059 0.922840
8135.754883 4780.008789 1133.949219 -0.022846 -0.332744 0.942740
7663.212891 5390.480469 1337.965820 -0.022846 -0.332744 0.942740
7681.873047 4952.969238 1183.996826 -0.022846 -0.332744 0.942740
8174.172852 5600.616699 1472.513916 -0.088064 -0.376385 0.922269
7663.212891 5390.480469 1337.965820 -0.088064 -0.376385 0.922269
8135.754883 4780.008789 1133.949219 -0.088064 -0.376385 0.922269
9531.754883 5109.277832 1409.639771 0.352357 0.448414 -0.821444
9033.398438 5066.232422 1172.372925 0.352357 0.448414 -0.821444
9199.036133 5508.411133 1484.801758 0.352357 0.448414 -0.821444
7099.004883 5260.542480 1303.842285 -0.784476 -0.180581 0.593286
7040.596191 5181.118164 1202.436279 -0.784476 -0.180581 0.593286
7094.170898 5159.872070 1266.808960 -0.784476 -0.180581 0.593286
9890.436523 3909.045654 1420.508789 0.472358 -0.119355 -0.873288
9751.382812 3121.838379 1452.885376 0.472358 -0.119355 -0.873288
9477.509766 4321.322754 1140.810791 0.472358 -0.119355 -0.873288
9531.754883 5109.277832 1409.639771 0.680224 0.290601 -0.672939
9817.075195 4579.245117 1469.160645 0.680224 0.290601 -0.672939
9544.629883 4591.843262 1199.206055 0.680224 0.290601 -0.672939
7094.170898 5159.872070 1266.808960 0.010518 -0.345673 0.938296
7681.873047 4952.969238 1183.996826 0.010518 -0.345673 0.938296
7099.004883 5260.542480 1303.842285 0.010518 -0.345673 0.938296
7663.212891 5390.480469 1337.965820 0.019214 -0.331173 0.943374
7099.004883 5260.542480 1303.842285 0.019214 -0.331173 0.943374
7681.873047 4952.969238 1183.996826 0.019214 -0.331173 0.943374
9488.480469 4522.049805 1323.093384 -0.326685 0.031640 0.944603
9169.697266 3995.314697 1230.487793 -0.326685 0.031640 0.944603
9455.635742 3516.760010 1345.407471 -0.326685 0.031640 0.944603
9890.436523 3909.045654 1420.508789 0.701065 0.127669 -0.701575
9544.629883 4591.843262 1199.206055 0.701065 0.127669 -0.701575
9817.075195 4579.245117 1469.160645 0.701065 0.127669 -0.701575
9488.480469 4522.049805 1323.093384 -0.279691 -0.229611 0.932229
9022.686523 5009.808105 1303.480347 -0.279691 -0.229611 0.932229
9127.258789 4542.127930 1219.663574 -0.279691 -0.229611 0.932229
9751.382812 3121.838379 1452.885376 -0.437882 -0.610086 -0.660344
9686.225586 3127.671875 1490.702393 -0.437882 -0.610086 -0.660344
9542.975586 3415.293457 1319.962036 -0.437882 -0.610086 -0.660344
7663.212891 5390.480469 1337.965820 -0.070617 0.044938 0.996491
7735.647461 5519.752441 1337.269287 -0.070617 0.044938 0.996491
7099.004883 5260.542480 1303.842285 -0.070617 0.044938 0.996491
8415.443359 5662.672852 1328.694702 0.262054 0.489489 -0.831702
9199.036133 5508.411133 1484.801758 0.262054 0.489489 -0.831702
9033.398438 5066.232422 1172.372925 0.262054 0.489489 -0.831702
9455.635742 3516.760010 1345.407471 -0.755582 -0.568991 -0.324569
9542.975586 3415.293457 1319.962036 -0.755582 -0.568991 -0.324569
9686.225586 3127.671875 1490.702393 -0.755582 -0.568991 -0.324569
8415.443359 5662.672852 1328.694702 -0.061000 0.978363 -0.197701
8071.732422 5623.974121 1243.236572 -0.061000 0.978363 -0.197701
8810.226562 5736.994141 1574.680298 -0.061000 0.978363 -0.197701
9455.635742 3516.760010 1345.407471 -0.415813 0.033758 0.908823
9825.606445 4037.849854 1495.324097 -0.415813 0.033758 0.908823
9488.480469 4522.049805 1323.093384 -0.415813 0.033758 0.908823
9022.686523 5009.808105 1303.480347 -0.436192 -0.383823 0.813890
9488.480469 4522.049805 1323.093384 -0.436192 -0.383823 0.813890
9308.140625 5236.650391 1563.442017 -0.436192 -0.383823 0.813890
8071.732422 5623.974121 1243.236572 -0.237764 0.949873 0.203000
7735.647461 5519.752441 1337.269287 -0.237764 0.949873 0.203000
8174.172852 5600.616699 1472.513916 -0.237764 0.949873 0.203000
8071.732422 5623.974121 1243.236572 -0.236280 0.950374 0.202388
8174.172852 5600.616699 1472.513916 -0.236280 0.950374 0.202388
8810.226562 5736.994141 1574.680298 -0.236280 0.950374 0.202388
8174.172852 5600.616699 1472.513916 -0.320574 0.184632 0.929055
7735.647461 5519.752441 1337.269287 -0.320574 0.184632 0.929055
7663.212891 5390.480469 1337.965820 -0.320574 0.184632 0.929055
9743.998047 4647.248047 1528.707153 -0.585165 -0.122277 0.801643
9488.480469 4522.049805 1323.093384 -0.585165 -0.122277 0.801643
9825.606445 4037.849854 1495.324097 -0.585165 -0.122277 0.801643
9817.075195 4579.245117 1469.160645 0.709256 0.310740 -0.632769
9531.754883 5109.277832 1409.639771 0.709256 0.310740 -0.632769
9730.774414 4936.261719 1547.751465 0.709256 0.310740 -0.632769
9890.436523 3909.045654 1420.508789 0.617365 -0.140884 -0.773959
9921.345703 3067.451660 1598.360107 0.617365 -0.140884 -0.773959
9751.382812 3121.838379 1452.885376 0.617365 -0.140884 -0.773959
9889.246094 3856.746338 1509.690308 0.991919 0.103222 0.073774
9890.436523 3909.045654 1420.508789 0.991919 0.103222 0.073774
9817.075195 4579.245117 1469.160645 0.991919 0.103222 0.073774
8174.172852 5600.616699 1472.513916 -0.193049 -0.516021 0.834538
9022.686523 5009.808105 1303.480347 -0.193049 -0.516021 0.834538
8720.821289 5666.751953 1639.860596 -0.193049 -0.516021 0.834538
9178.760742 5788.554199 1810.537231 0.268591 0.738515 -0.618429
9199.036133 5508.411133 1484.801758 0.268591 0.738515 -0.618429
8415.443359 5662.672852 1328.694702 0.268591 0.738515 -0.618429
9882.779297 2877.664551 1635.417114 -0.413701 -0.677360 -0.608304
9686.225586 3127.671875 1490.702393 -0.413701 -0.677360 -0.608304
9751.382812 3121.838379 1452.885376 -0.413701 -0.677360 -0.608304
9686.225586 3127.671875 1490.702393 -0.692545 -0.146679 0.706305
9891.266602 3083.120117 1682.496582 -0.692545 -0.146679 0.706305
9455.635742 3516.760010 1345.407471 -0.692545 -0.146679 0.706305
9891.266602 3083.120117 1682.496582 -0.523237 0.129155 0.842343
9825.606445 4037.849854 1495.324097 -0.523237 0.129155 0.842343
9455.635742 3516.760010 1345.407471 -0.523237 0.129155 0.842343
9889.246094 3856.746338 1509.690308 -0.091869 0.046621 0.994679
9817.075195 4579.245117 1469.160645 -0.091869 0.046621 0.994679
9825.606445 4037.849854 1495.324097 -0.091869 0.046621 0.994679
9881.952148 2847.224854 1703.192383 -0.646480 -0.692981 -0.319126
9686.225586 3127.671875 1490.702393 -0.646480 -0.692981 -0.319126
9882.779297 2877.664551 1635.417114 -0.646480 -0.692981 -0.319126
9921.345703 3067.451660 1598.360107 0.998193 0.045061 0.039750
9890.436523 3909.045654 1420.508789 0.998193 0.045061 0.039750
9889.246094 3856.746338 1509.690308 0.998193 0.045061 0.039750
9730.774414 4936.261719 1547.751465 -0.124756 -0.070920 0.989650
9743.998047 4647.248047 1528.707153 -0.124756 -0.070920 0.989650
9825.606445 4037.849854 1495.324097 -0.124756 -0.070920 0.989650
9825.606445 4037.849854 1495.324097 0.764340 0.043136 0.643369
9817.075195 4579.245117 1469.160645 0.764340 0.043136 0.643369
9730.774414 4936.261719 1547.751465 0.764340 0.043136 0.643369
9178.760742 5788.554199 1810.537231 0.545173 -0.276545 -0.791397
8415.443359 5662.672852 1328.694702 0.545173 -0.276545 -0.791397
8810.226562 5736.994141 1574.680298 0.545173 -0.276545 -0.791397
9751.382812 3121.838379 1452.885376 0.575603 -0.267827 -0.772625
9921.345703 3067.451660 1598.360107 0.575603 -0.267827 -0.772625
9882.779297 2877.664551 1635.417114 0.575603 -0.267827 -0.772625
9743.998047 4647.248047 1528.707153 0.860153 0.005749 0.510004
9730.774414 4936.261719 1547.751465 0.860153 0.005749 0.510004
9628.096680 5085.076660 1719.246216 0.860153 0.005749 0.510004
9488.480469 4522.049805 1323.093384 -0.456715 -0.385000 0.801989
9743.998047 4647.248047 1528.707153 -0.456715 -0.385000 0.801989
9308.140625 5236.650391 1563.442017 -0.456715 -0.385000 0.801989
8174.172852 5600.616699 1472.513916 -0.258151 0.812949 0.521988
8720.821289 5666.751953 1639.860596 -0.258151 0.812949 0.521988
8810.226562 5736.994141 1574.680298 -0.258151 0.812949 0.521988
9889.246094 3856.746338 1509.690308 0.373760 0.203130 0.905009
9825.606445 4037.849854 1495.324097 0.373760 0.203130 0.905009
9891.266602 3083.120117 1682.496582 0.373760 0.203130 0.905009
9743.998047 4647.248047 1528.707153 -0.554312 -0.451128 0.699444
9628.096680 5085.076660 1719.246216 -0.554312 -0.451128 0.699444
9308.140625 5236.650391 1563.442017 -0.554312 -0.451128 0.699444
9891.266602 3083.120117 1682.496582 0.943332 0.074688 0.323336
9921.345703 3067.451660 1598.360107 0.943332 0.074688 0.323336
9889.246094 3856.746338 1509.690308 0.943332 0.074688 0.323336
9881.952148 2847.224854 1703.192383 0.973139 -0.214217 -0.084334
9882.779297 2877.664551 1635.417114 0.973139 -0.214217 -0.084334
9921.345703 3067.451660 1598.360107 0.973139 -0.214217 -0.084334
9881.952148 2847.224854 1703.192383 -0.669652 0.091107 0.737066
9891.266602 3083.120117 1682.496582 -0.669652 0.091107 0.737066
9686.225586 3127.671875 1490.702393 -0.669652 0.091107 0.737066
9730.774414 4936.261719 1547.751465 0.742630 0.488831 -0.457761
9531.754883 5109.277832 1409.639771 0.742630 0.488831 -0.457761
9512.098633 5535.301758 1832.691650 0.742630 0.488831 -0.457761
9308.140625 5236.650391 1563.442017 -0.291679 -0.538729 0.790376
8720.821289 5666.751953 1639.860596 -0.291679 -0.538729 0.790376
9022.686523 5009.808105 1303.480347 -0.291679 -0.538729 0.790376
9531.754883 5109.277832 1409.639771 0.577960 0.588294 -0.565573
9199.036133 5508.411133 1484.801758 0.577960 0.588294 -0.565573
9512.098633 5535.301758 1832.691650 0.577960 0.588294 -0.565573
8810.226562 5736.994141 1574.680298 -0.445106 0.844059 0.299074
8720.821289 5666.751953 1639.860596 -0.445106 0.844059 0.299074
8959.030273 5744.251953 1775.658203 -0.445106 0.844059 0.299074
9512.098633 5535.301758 1832.691650 0.534465 0.656962 -0.531741
9199.036133 5508.411133 1484.801758 0.534465 0.656962 -0.531741
9178.760742 5788.554199 1810.537231 0.534465 0.656962 -0.531741
9921.345703 3067.451660 1598.360107 0.941163 -0.007520 0.337870
9891.266602 3083.120117 1682.496582 0.941163 -0.007520 0.337870
9881.952148 2847.224854 1703.192383 0.941163 -0.007520 0.337870
9628.096680 5085.076660 1719.246216 -0.561360 -0.543189 0.624356
9418.563477 5562.824219 1946.494507 -0.561360 -0.543189 0.624356
9308.140625 5236.650391 1563.442017 -0.561360 -0.543189 0.624356
8810.226562 5736.994141 1574.680298 -0.215024 0.968676 0.124222
8959.030273 5744.251953 1775.658203 -0.215024 0.968676 0.124222
9178.760742 5788.554199 1810.537231 -0.215024 0.968676 0.124222
9308.140625 5236.650391 1563.442017 -0.354666 -0.610182 0.708442
9267.604492 5697.979980 1940.491943 -0.354666 -0.610182 0.708442
8720.821289 5666.751953 1639.860596 -0.354666 -0.610182 0.708442
9628.096680 5085.076660 1719.246216 0.854596 -0.008707 0.519221
9730.774414 4936.261719 1547.751465 0.854596 -0.008707 0.519221
9537.098633 5431.666504 1874.833618 0.854596 -0.008707 0.519221
9308.140625 5236.650391 1563.442017 -0.530152 -0.564023 0.633100
9418.563477 5562.824219 1946.494507 -0.530152 -0.564023 0.633100
9267.604492 5697.979980 1940.491943 -0.530152 -0.564023 0.633100
9730.774414 4936.261719 1547.751465 0.949726 0.283298 0.133275
9512.098633 5535.301758 1832.691650 0.949726 0.283298 0.133275
9537.098633 5431.666504 1874.833618 0.949726 0.283298 0.133275
8720.821289 5666.751953 1639.860596 -0.477837 -0.066160 0.875954
9267.604492 5697.979980 1940.491943 -0.477837 -0.066160 0.875954
8959.030273 5744.251953 1775.658203 -0.477837 -0.066160 0.875954
9628.096680 5085.076660 1719.246216 0.139314 -0.374870 0.916550
9537.098633 5431.666504 1874.833618 0.139314 -0.374870 0.916550
9418.563477 5562.824219 1946.494507 0.139314 -0.374870 0.916550
9537.098633 5431.666504 1874.833618 0.890539 0.338434 0.303978
9512.098633 5535.301758 1832.691650 0.890539 0.338434 0.303978
9431.364258 5638.973633 1953.789551 0.890539 0.338434 0.303978
8959.030273 5744.251953 1775.658203 -0.247701 0.707181 0.662223
9267.604492 5697.979980 1940.491943 -0.247701 0.707181 0.662223
9178.760742 5788.554199 1810.537231 -0.247701 0.707181 0.662223
9512.098633 5535.301758 1832.691650 0.595647 0.761701 -0.254982
9178.760742 5788.554199 1810.537231 0.595647 0.761701 -0.254982
9431.364258 5638.973633 1953.789551 0.595647 0.761701 -0.254982
9178.760742 5788.554199 1810.537231 0.278734 0.866766 0.413551
9267.604492 5697.979980 1940.491943 0.278734 0.866766 0.413551
9431.364258 5638.973633 1953.789551 0.278734 0.866766 0.413551
9537.098633 5431.666504 1874.833618 0.383035 -0.151680 0.911196
9431.364258 5638.973633 1953.789551 0.383035 -0.151680 0.911196
9418.563477 5562.824219 1946.494507 0.383035 -0.151680 0.911196
9431.364258 5638.973633 1953.789551 -0.108148 -0.076773 0.991166
9267.604492 5697.979980 1940.491943 -0.108148 -0.076773 0.991166
9418.563477 5562.824219 1946.494507 -0.108148 -0.076773 0.991166
9383.215820 5714.936523 9472.383789 0.130104 0.471944 -0.871976
9428.016602 5591.104004 9412.045898 0.130104 0.471944 -0.871976
9248.592773 5728.096680 9459.419922 0.130104 0.471944 -0.871976
9552.700195 5477.738770 9538.273438 0.801537 0.470059 -0.369572
9428.016602 5591.104004 9412.045898 0.801537 0.470059 -0.369572
9383.215820 5714.936523 9472.383789 0.801537 0.470059 -0.369572
9383.215820 5714.936523 9472.383789 0.125539 0.921043 -0.368672
9248.592773 5728.096680 9459.419922 0.125539 0.921043 -0.368672
9123.654297 5796.365723 9587.430664 0.125539 0.921043 -0.368672
9428.016602 5591.104004 9412.045898 -0.413716 -0.237972 -0.878754
8995.928711 5727.125977 9578.636719 -0.413716 -0.237972 -0.878754
9248.592773 5728.096680 9459.419922 -0.413716 -0.237972 -0.878754
9248.592773 5728.096680 9459.419922 -0.318170 0.671871 -0.668847
8995.928711 5727.125977 9578.636719 -0.318170 0.671871 -0.668847
9123.654297 5796.365723 9587.430664 -0.318170 0.671871 -0.668847
9268.236328 5240.633301 9846.263672 -0.444858 -0.609827 -0.655906
8995.928711 5727.125977 9578.636719 -0.444858 -0.609827 -0.655906
9428.016602 5591.104004 9412.045898 -0.444858 -0.609827 -0.655906
9612.553711 5130.675293 9644.209961 0.652576 -0.116017 -0.748789
9428.016602 5591.104004 9412.045898 0.652576 -0.116017 -0.748789
9552.700195 5477.738770 9538.273438 0.652576 -0.116017 -0.748789
9612.553711 5130.675293 9644.209961 -0.547406 -0.541241 -0.638283
9268.236328 5240.633301 9846.263672 -0.547406 -0.541241 -0.638283
9428.016602 5591.104004 9412.045898 -0.547406 -0.541241 -0.638283
9612.553711 5130.675293 9644.209961 0.845814 -0.016889 -0.533211
9552.700195 5477.738770 9538.273438 0.845814 -0.016889 -0.533211
9782.392578 4709.958496 9926.945312 0.845814 -0.016889 -0.533211
8995.928711 5727.125977 9578.636719 -0.423782 0.828295 -0.366520
8778.967773 5679.168945 9721.116211 -0.423782 0.828295 -0.366520
9123.654297 5796.365723 9587.430664 -0.423782 0.828295 -0.366520
9782.392578 4709.958496 9926.945312 0.930040 0.150022 -0.335439
9752.111328 4701.429688 9839.172852 0.930040 0.150022 -0.335439
9612.553711 5130.675293 9644.209961 0.930040 0.150022 -0.335439
9110.739258 5522.170898 9936.425781 0.463313 0.688436 0.558029
9383.215820 5714.936523 9472.383789 0.463313 0.688436 0.558029
9123.654297 5796.365723 9587.430664 0.463313 0.688436 0.558029
9123.654297 5796.365723 9587.430664 -0.407794 0.864638 -0.293436
8778.967773 5679.168945 9721.116211 -0.407794 0.864638 -0.293436
8831.447266 5734.166504 9810.240234 -0.407794 0.864638 -0.293436
9110.739258 5522.170898 9936.425781 0.296347 0.745655 0.596805
9123.654297 5796.365723 9587.430664 0.296347 0.745655 0.596805
8831.447266 5734.166504 9810.240234 0.296347 0.745655 0.596805
9896.417969 2845.054443 9716.197266 0.990950 0.015649 -0.133320
9889.073242 2862.446289 9663.646484 0.990950 0.015649 -0.133320
9910.924805 3625.242188 9915.600586 0.990950 0.015649 -0.133320
9883.077148 3676.773682 9832.516602 -0.536836 0.167522 -0.826888
9889.073242 2862.446289 9663.646484 -0.536836 0.167522 -0.826888
9574.649414 3347.397705 9966.026367 -0.536836 0.167522 -0.826888
9383.215820 5714.936523 9472.383789 0.617852 0.586845 0.523328
9497.618164 5139.538086 9982.552734 0.617852 0.586845 0.523328
9552.700195 5477.738770 9538.273438 0.617852 0.586845 0.523328
9268.236328 5240.633301 9846.263672 -0.346041 -0.593452 -0.726684
8778.967773 5679.168945 9721.116211 -0.346041 -0.593452 -0.726684
8995.928711 5727.125977 9578.636719 -0.346041 -0.593452 -0.726684
9889.073242 2862.446289 9663.646484 0.957630 0.065224 -0.280519
9883.077148 3676.773682 9832.516602 0.957630 0.065224 -0.280519
9910.924805 3625.242188 9915.600586 0.957630 0.065224 -0.280519
9752.111328 4701.429688 9839.172852 -0.552491 -0.486902 -0.676520
9268.236328 5240.633301 9846.263672 -0.552491 -0.486902 -0.676520
9612.553711 5130.675293 9644.209961 -0.552491 -0.486902 -0.676520
9552.700195 5477.738770 9538.273438 0.772857 0.455090 0.442250
9497.618164 5139.538086 9982.552734 0.772857 0.455090 0.442250
9782.392578 4709.958496 9926.945312 0.772857 0.455090 0.442250
8778.967773 5679.168945 9721.116211 -0.297323 -0.246391 -0.922437
8195.683594 5456.055664 9968.717773 -0.297323 -0.246391 -0.922437
8315.907227 5630.197266 9883.452148 -0.297323 -0.246391 -0.922437
8831.447266 5734.166504 9810.240234 -0.235723 0.882929 -0.406044
8778.967773 5679.168945 9721.116211 -0.235723 0.882929 -0.406044
8315.907227 5630.197266 9883.452148 -0.235723 0.882929 -0.406044
8971.900391 5129.139160 10022.957031 -0.275090 -0.534896 -0.798881
8778.967773 5679.168945 9721.116211 -0.275090 -0.534896 -0.798881
9268.236328 5240.633301 9846.263672 -0.275090 -0.534896 -0.798881
8195.683594 5456.055664 9968.717773 -0.159098 -0.517271 -0.840904
8778.967773 5679.168945 9721.116211 -0.159098 -0.517271 -0.840904
8971.900391 5129.139160 10022.957031 -0.159098 -0.517271 -0.840904
9745.666992 3076.735107 9904.608398 -0.855528 -0.515244 -0.050949
9889.073242 2862.446289 9663.646484 -0.855528 -0.515244 -0.050949
9896.417969 2845.054443 9716.197266 -0.855528 -0.515244 -0.050949
9782.392578 4709.958496 9926.945312 0.927401 0.164535 -0.335939
9866.063477 4272.402832 9943.625000 0.927401 0.164535 -0.335939
9752.111328 4701.429688 9839.172852 0.927401 0.164535 -0.335939
9497.618164 5139.538086 9982.552734 0.540631 0.615734 0.573228
9383.215820 5714.936523 9472.383789 0.540631 0.615734 0.573228
9110.739258 5522.170898 9936.425781 0.540631 0.615734 0.573228
9896.417969 2845.054443 9716.197266 0.626685 -0.203884 0.752129
9910.924805 3625.242188 9915.600586 0.626685 -0.203884 0.752129
9745.666992 3076.735107 9904.608398 0.626685 -0.203884 0.752129
9889.073242 2862.446289 9663.646484 -0.848459 -0.528081 -0.035327
9745.666992 3076.735107 9904.608398 -0.848459 -0.528081 -0.035327
9574.649414 3347.397705 9966.026367 -0.848459 -0.528081 -0.035327
9883.077148 3676.773682 9832.516602 0.854261 0.118807 -0.506087
9850.378906 4146.679688 9887.635742 0.854261 0.118807 -0.506087
9866.063477 4272.402832 9943.625000 0.854261 0.118807 -0.506087
9377.035156 4674.166992 10059.627930 -0.486538 -0.194212 -0.851799
9752.111328 4701.429688 9839.172852 -0.486538 -0.194212 -0.851799
9432.976562 4416.666016 10086.385742 -0.486538 -0.194212 -0.851799
9850.378906 4146.679688 9887.635742 0.864686 0.110359 -0.490040
9752.111328 4701.429688 9839.172852 0.864686 0.110359 -0.490040
9866.063477 4272.402832 9943.625000 0.864686 0.110359 -0.490040
8195.683594 5456.055664 9968.717773 -0.161000 -0.342131 -0.925757
7787.978516 5517.772949 10016.813477 -0.161000 -0.342131 -0.925757
8315.907227 5630.197266 9883.452148 -0.161000 -0.342131 -0.925757
9574.649414 3347.397705 9966.026367 -0.459834 0.071823 -0.885096
9850.378906 4146.679688 9887.635742 -0.459834 0.071823 -0.885096
9883.077148 3676.773682 9832.516602 -0.459834 0.071823 -0.885096
9883.077148 3676.773682 9832.516602 0.958871 0.078284 -0.272835
9866.063477 4272.402832 9943.625000 0.958871 0.078284 -0.272835
9910.924805 3625.242188 9915.600586 0.958871 0.078284 -0.272835
9850.378906 4146.679688 9887.635742 -0.508527 -0.163925 -0.845298
9432.976562 4416.666016 10086.385742 -0.508527 -0.163925 -0.845298
9752.111328 4701.429688 9839.172852 -0.508527 -0.163925 -0.845298
8315.907227 5630.197266 9883.452148 -0.214676 0.966777 -0.138765
8266.320312 5651.027832 10105.292969 -0.214676 0.966777 -0.138765
8831.447266 5734.166504 9810.240234 -0.214676 0.966777 -0.138765
9745.666992 3076.735107 9904.608398 -0.812217 -0.554391 0.181533
9599.605469 3331.907471 10030.378906 -0.812217 -0.554391 0.181533
9574.649414 3347.397705 9966.026367 -0.812217 -0.554391 0.181533
9752.111328 4701.429688 9839.172852 -0.445563 -0.389241 -0.806204
9377.035156 4674.166992 10059.627930 -0.445563 -0.389241 -0.806204
9268.236328 5240.633301 9846.263672 -0.445563 -0.389241 -0.806204
8195.683594 5456.055664 9968.717773 -0.118789 -0.010995 -0.992859
7274.686523 5339.534180 10080.199219 -0.118789 -0.010995 -0.992859
7787.978516 5517.772949 10016.813477 -0.118789 -0.010995 -0.992859
8266.320312 5651.027832 10105.292969 -0.190948 0.972412 -0.133990
8315.907227 5630.197266 9883.452148 -0.190948 0.972412 -0.133990
7812.345703 5564.248047 10122.457031 -0.190948 0.972412 -0.133990
9599.605469 3331.907471 10030.378906 0.469915 -0.158980 0.868277
9745.666992 3076.735107 9904.608398 0.469915 -0.158980 0.868277
9910.924805 3625.242188 9915.600586 0.469915 -0.158980 0.868277
9574.649414 3347.397705 9966.026367 -0.403133 0.049447 -0.913805
9432.976562 4416.666016 10086.385742 -0.403133 0.049447 -0.913805
9850.378906 4146.679688 9887.635742 -0.403133 0.049447 -0.913805
9866.063477 4272.402832 9943.625000 0.713423 0.019122 0.700473
9662.494141 4265.674805 10151.141602 0.713423 0.019122 0.700473
9910.924805 3625.242188 9915.600586 0.713423 0.019122 0.700473
7787.978516 5517.772949 10016.813477 -0.276110 0.901612 -0.332954
7812.345703 5564.248047 10122.457031 -0.276110 0.901612 -0.332954
8315.907227 5630.197266 9883.452148 -0.276110 0.901612 -0.332954
9110.739258 5522.170898 9936.425781 0.240656 0.710594 0.661166
8831.447266 5734.166504 9810.240234 0.240656 0.710594 0.661166
8266.320312 5651.027832 10105.292969 0.240656 0.710594 0.661166
9599.605469 3331.907471 10030.378906 -0.781072 -0.604265 0.157449
9383.628906 3623.943848 10079.754883 -0.781072 -0.604265 0.157449
9574.649414 3347.397705 9966.026367 -0.781072 -0.604265 0.157449
9574.649414 3347.397705 9966.026367 -0.471444 0.036718 -0.881131
9383.628906 3623.943848 10079.754883 -0.471444 0.036718 -0.881131
9432.976562 4416.666016 10086.385742 -0.471444 0.036718 -0.881131
9377.035156 4674.166992 10059.627930 -0.359618 -0.388601 -0.848330
8971.900391 5129.139160 10022.957031 -0.359618 -0.388601 -0.848330
9268.236328 5240.633301 9846.263672 -0.359618 -0.388601 -0.848330
9662.494141 4265.674805 10151.141602 0.459131 -0.144288 0.876573
9599.605469 3331.907471 10030.378906 0.459131 -0.144288 0.876573
9910.924805 3625.242188 9915.600586 0.459131 -0.144288 0.876573
9128.179688 4066.061768 10166.384766 -0.281153 0.025526 -0.959323
9432.976562 4416.666016 10086.385742 -0.281153 0.025526 -0.959323
9383.628906 3623.943848 10079.754883 -0.281153 0.025526 -0.959323
9662.494141 4265.674805 10151.141602 0.701978 0.160684 0.693835
9866.063477 4272.402832 9943.625000 0.701978 0.160684 0.693835
9782.392578 4709.958496 9926.945312 0.701978 0.160684 0.693835
8971.900391 5129.139160 10022.957031 -0.109599 -0.410424 -0.905285
8664.052734 4807.344238 10206.117188 -0.109599 -0.410424 -0.905285
8195.683594 5456.055664 9968.717773 -0.109599 -0.410424 -0.905285
8195.683594 5456.055664 9968.717773 -0.063123 -0.382857 -0.921649
8664.052734 4807.344238 10206.117188 -0.063123 -0.382857 -0.921649
7274.686523 5339.534180 10080.199219 -0.063123 -0.382857 -0.921649
9377.035156 4674.166992 10059.627930 -0.244550 -0.292280 -0.924537
8664.052734 4807.344238 10206.117188 -0.244550 -0.292280 -0.924537
8971.900391 5129.139160 10022.957031 -0.244550 -0.292280 -0.924537
7767.125977 4930.991699 10198.342773 0.057756 -0.212470 -0.975459
7057.738770 5188.247559 10100.306641 0.057756 -0.212470 -0.975459
7274.686523 5339.534180 10080.199219 0.057756 -0.212470 -0.975459
7057.738770 5188.247559 10100.306641 -0.509807 0.657305 -0.555020
7070.645508 5270.861328 10186.290039 -0.509807 0.657305 -0.555020
7274.686523 5339.534180 10080.199219 -0.509807 0.657305 -0.555020
9599.605469 3331.907471 10030.378906 -0.766952 -0.603894 0.217018
9422.875000 3593.379883 10133.402344 -0.766952 -0.603894 0.217018
9383.628906 3623.943848 10079.754883 -0.766952 -0.603894 0.217018
9432.976562 4416.666016 10086.385742 -0.251557 -0.002146 -0.967840
9128.179688 4066.061768 10166.384766 -0.251557 -0.002146 -0.967840
8920.435547 4323.658203 10219.809570 -0.251557 -0.002146 -0.967840
7057.738770 5188.247559 10100.306641 -0.245245 -0.852315 -0.461968
7767.125977 4930.991699 10198.342773 -0.245245 -0.852315 -0.461968
7311.476074 5068.026367 10187.409180 -0.245245 -0.852315 -0.461968
8664.052734 4807.344238 10206.117188 -0.035463 -0.316838 -0.947817
7767.125977 4930.991699 10198.342773 -0.035463 -0.316838 -0.947817
7274.686523 5339.534180 10080.199219 -0.035463 -0.316838 -0.947817
7057.738770 5188.247559 10100.306641 -0.987589 0.157040 -0.002641
7056.546387 5182.468262 10202.522461 -0.987589 0.157040 -0.002641
7070.645508 5270.861328 10186.290039 -0.987589 0.157040 -0.002641
7787.978516 5517.772949 10016.813477 -0.345808 0.885665 -0.309862
7274.686523 5339.534180 10080.199219 -0.345808 0.885665 -0.309862
7812.345703 5564.248047 10122.457031 -0.345808 0.885665 -0.309862
9258.191406 3852.947021 10198.238281 -0.786466 -0.562624 0.254806
9383.628906 3623.943848 10079.754883 -0.786466 -0.562624 0.254806
9422.875000 3593.379883 10133.402344 -0.786466 -0.562624 0.254806
9599.605469 3331.907471 10030.378906 0.401496 -0.144014 0.904467
9662.494141 4265.674805 10151.141602 0.401496 -0.144014 0.904467
9425.993164 4049.176270 10221.653320 0.401496 -0.144014 0.904467
9128.179688 4066.061768 10166.384766 -0.856218 -0.510384 0.079992
9383.628906 3623.943848 10079.754883 -0.856218 -0.510384 0.079992
9258.191406 3852.947021 10198.238281 -0.856218 -0.510384 0.079992
9377.035156 4674.166992 10059.627930 -0.225647 -0.149063 -0.962738
9432.976562 4416.666016 10086.385742 -0.225647 -0.149063 -0.962738
8664.052734 4807.344238 10206.117188 -0.225647 -0.149063 -0.962738
7056.546387 5182.468262 10202.522461 -0.411666 -0.909598 -0.056231
7057.738770 5188.247559 10100.306641 -0.411666 -0.909598 -0.056231
7311.476074 5068.026367 10187.409180 -0.411666 -0.909598 -0.056231
7274.686523 5339.534180 10080.199219 -0.364989 0.925294 -0.103027
7070.645508 5270.861328 10186.290039 -0.364989 0.925294 -0.103027
7637.483398 5496.010254 10200.258789 -0.364989 0.925294 -0.103027
7812.345703 5564.248047 10122.457031 -0.381892 0.922915 -0.048851
7274.686523 5339.534180 10080.199219 -0.381892 0.922915 -0.048851
7637.483398 5496.010254 10200.258789 -0.381892 0.922915 -0.048851
9425.993164 4049.176270 10221.653320 0.276796 -0.184487 0.943053
9422.875000 3593.379883 10133.402344 0.276796 -0.184487 0.943053
9599.605469 3331.907471 10030.378906 0.276796 -0.184487 0.943053
9432.976562 4416.666016 10086.385742 -0.224293 -0.146164 -0.963498
8920.435547 4323.658203 10219.809570 -0.224293 -0.146164 -0.963498
8664.052734 4807.344238 10206.117188 -0.224293 -0.146164 -0.963498
8664.052734 4807.344238 10206.117188 -0.047782 -0.404039 -0.913493
8209.909180 4757.787109 10251.791016 -0.047782 -0.404039 -0.913493
7767.125977 4930.991699 10198.342773 -0.047782 -0.404039 -0.913493
9662.494141 4265.674805 10151.141602 0.537233 0.259921 0.802386
9782.392578 4709.958496 9926.945312 0.537233 0.259921 0.802386
9282.671875 4625.357910 10288.935547 0.537233 0.259921 0.802386
8920.435547 4323.658203 10219.809570 -0.185263 -0.125790 -0.974605
8541.783203 4576.709961 10259.126953 -0.185263 -0.125790 -0.974605
8664.052734 4807.344238 10206.117188 -0.185263 -0.125790 -0.974605
8664.052734 4807.344238 10206.117188 -0.078512 -0.183592 -0.979862
8541.783203 4576.709961 10259.126953 -0.078512 -0.183592 -0.979862
8209.909180 4757.787109 10251.791016 -0.078512 -0.183592 -0.979862
9782.392578 4709.958496 9926.945312 0.539010 0.253333 0.803300
9497.618164 5139.538086 9982.552734 0.539010 0.253333 0.803300
9282.671875 4625.357910 10288.935547 0.539010 0.253333 0.803300
8967.458008 4862.776855 10306.016602 0.306971 0.413702 0.857099
9497.618164 5139.538086 9982.552734 0.306971 0.413702 0.857099
9110.739258 5522.170898 9936.425781 0.306971 0.413702 0.857099
8967.458008 4862.776855 10306.016602 0.239911 0.434467 0.868148
9110.739258 5522.170898 9936.425781 0.239911 0.434467 0.868148
8266.320312 5651.027832 10105.292969 0.239911 0.434467 0.868148
8266.320312 5651.027832 10105.292969 -0.153282 0.887730 0.434097
7812.345703 5564.248047 10122.457031 -0.153282 0.887730 0.434097
7637.483398 5496.010254 10200.258789 -0.153282 0.887730 0.434097
9425.993164 4049.176270 10221.653320 0.085659 -0.189955 0.978049
9258.191406 3852.947021 10198.238281 0.085659 -0.189955 0.978049
9422.875000 3593.379883 10133.402344 0.085659 -0.189955 0.978049
8941.891602 4308.453613 10290.854492 -0.765198 -0.636775 0.094816
8920.435547 4323.658203 10219.809570 -0.765198 -0.636775 0.094816
9128.179688 4066.061768 10166.384766 -0.765198 -0.636775 0.094816
9282.671875 4625.357910 10288.935547 0.330914 0.377110 0.865034
9497.618164 5139.538086 9982.552734 0.330914 0.377110 0.865034
8967.458008 4862.776855 10306.016602 0.330914 0.377110 0.865034
9128.179688 4066.061768 10166.384766 -0.823614 -0.531878 -0.196888
9258.191406 3852.947021 10198.238281 -0.823614 -0.531878 -0.196888
8941.891602 4308.453613 10290.854492 -0.823614 -0.531878 -0.196888
8402.049805 4652.952148 10366.498047 -0.317535 -0.902009 -0.292491
7767.125977 4930.991699 10198.342773 -0.317535 -0.902009 -0.292491
8209.909180 4757.787109 10251.791016 -0.317535 -0.902009 -0.292491
7767.125977 4930.991699 10198.342773 -0.286120 -0.956244 -0.061091
8033.762695 4840.743652 10362.180664 -0.286120 -0.956244 -0.061091
7311.476074 5068.026367 10187.409180 -0.286120 -0.956244 -0.061091
7387.762695 5104.147461 10313.611328 0.002062 0.276661 0.960966
8424.217773 4871.554199 10378.350586 0.002062 0.276661 0.960966
7637.483398 5496.010254 10200.258789 0.002062 0.276661 0.960966
8541.783203 4576.709961 10259.126953 -0.560066 -0.814685 -0.150380
8920.435547 4323.658203 10219.809570 -0.560066 -0.814685 -0.150380
8402.049805 4652.952148 10366.498047 -0.560066 -0.814685 -0.150380
8941.891602 4308.453613 10290.854492 -0.539576 -0.841761 -0.017192
8402.049805 4652.952148 10366.498047 -0.539576 -0.841761 -0.017192
8920.435547 4323.658203 10219.809570 -0.539576 -0.841761 -0.017192
8209.909180 4757.787109 10251.791016 -0.478964 -0.877834 0.000007
8541.783203 4576.709961 10259.126953 -0.478964 -0.877834 0.000007
8402.049805 4652.952148 10366.498047 -0.478964 -0.877834 0.000007
7387.762695 5104.147461 10313.611328 -0.264520 0.214840 0.940145
7070.645508 5270.861328 10186.290039 -0.264520 0.214840 0.940145
7056.546387 5182.468262 10202.522461 -0.264520 0.214840 0.940145
7070.645508 5270.861328 10186.290039 -0.170437 0.372496 0.912249
7387.762695 5104.147461 10313.611328 -0.170437 0.372496 0.912249
7637.483398 5496.010254 10200.258789 -0.170437 0.372496 0.912249
9258.191406 3852.947021 10198.238281 -0.323408 -0.399027 0.858012
8808.325195 4622.924805 10386.757812 -0.323408 -0.399027 0.858012
8941.891602 4308.453613 10290.854492 -0.323408 -0.399027 0.858012
9425.993164 4049.176270 10221.653320 0.313137 -0.032942 0.949136
9662.494141 4265.674805 10151.141602 0.313137 -0.032942 0.949136
9282.671875 4625.357910 10288.935547 0.313137 -0.032942 0.949136
8402.049805 4652.952148 10366.498047 -0.442659 -0.862481 0.245316
8033.762695 4840.743652 10362.180664 -0.442659 -0.862481 0.245316
7767.125977 4930.991699 10198.342773 -0.442659 -0.862481 0.245316
7311.476074 5068.026367 10187.409180 -0.365521 -0.812805 0.453588
8033.762695 4840.743652 10362.180664 -0.365521 -0.812805 0.453588
7387.762695 5104.147461 10313.611328 -0.365521 -0.812805 0.453588
7387.762695 5104.147461 10313.611328 -0.344685 -0.826575 0.444934
7056.546387 5182.468262 10202.522461 -0.344685 -0.826575 0.444934
7311.476074 5068.026367 10187.409180 -0.344685 -0.826575 0.444934
7637.483398 5496.010254 10200.258789 0.057797 0.340467 0.938479
8424.217773 4871.554199 10378.350586 0.057797 0.340467 0.938479
8266.320312 5651.027832 10105.292969 0.057797 0.340467 0.938479
9258.191406 3852.947021 10198.238281 0.085292 -0.189653 0.978140
9425.993164 4049.176270 10221.653320 0.085292 -0.189653 0.978140
8808.325195 4622.924805 10386.757812 0.085292 -0.189653 0.978140
9282.671875 4625.357910 10288.935547 0.201877 -0.063909 0.977324
8808.325195 4622.924805 10386.757812 0.201877 -0.063909 0.977324
9425.993164 4049.176270 10221.653320 0.201877 -0.063909 0.977324
9282.671875 4625.357910 10288.935547 0.197241 0.192715 0.961227
8967.458008 4862.776855 10306.016602 0.197241 0.192715 0.961227
8808.325195 4622.924805 10386.757812 0.197241 0.192715 0.961227
8967.458008 4862.776855 10306.016602 0.129159 0.351044 0.927408
8266.320312 5651.027832 10105.292969 0.129159 0.351044 0.927408
8424.217773 4871.554199 10378.350586 0.129159 0.351044 0.927408
8808.325195 4622.924805 10386.757812 0.034884 -0.277941 0.959965
8520.630859 4650.024902 10405.058594 0.034884 -0.277941 0.959965
8941.891602 4308.453613 10290.854492 0.034884 -0.277941 0.959965
8941.891602 4308.453613 10290.854492 -0.264264 -0.582837 0.768417
8520.630859 4650.024902 10405.058594 -0.264264 -0.582837 0.768417
8402.049805 4652.952148 10366.498047 -0.264264 -0.582837 0.768417
8424.217773 4871.554199 10378.350586 -0.046725 0.069153 0.996511
7387.762695 5104.147461 10313.611328 -0.046725 0.069153 0.996511
8033.762695 4840.743652 10362.180664 -0.046725 0.069153 0.996511
8967.458008 4862.776855 10306.016602 0.131998 0.236474 0.962630
8424.217773 4871.554199 10378.350586 0.131998 0.236474 0.962630
8808.325195 4622.924805 10386.757812 0.131998 0.236474 0.962630
8033.762695 4840.743652 10362.180664 -0.275454 -0.521642 0.807474
8402.049805 4652.952148 10366.498047 -0.275454 -0.521642 0.807474
8520.630859 4650.024902 10405.058594 -0.275454 -0.521642 0.807474
8808.325195 4622.924805 10386.757812 0.077026 0.152316 0.985326
8424.217773 4871.554199 10378.350586 0.077026 0.152316 0.985326
8520.630859 4650.024902 10405.058594 0.077026 0.152316 0.985326
8424.217773 4871.554199 10378.350586 -0.048937 0.098532 0.993930
8033.762695 4840.743652 10362.180664 -0.048937 0.098532 0.993930
8520.630859 4650.024902 10405.058594 -0.048937 0.098532 0.993930
3 0 1 2
3 3 4 5
3 6 7 8
3 9 10 11
3 12 13 14
3 15 16 17
3 18 19 20
3 21 22 23
3 24 25 26
3 27 28 29
3 30 31 32
3 33 34 35
3 36 37 38
3 39 40 41
3 42 43 44
3 45 46 47
3 48 49 50
3 51 52 53
3 54 55 56
3 57 58 59
3 60 61 62
3 63 64 65
3 66 67 68
3 69 70 71
3 72 73 74
3 75 76 77
3 78 79 80
3 81 82 83
3 84 85 86
3 87 88 89
3 90 91 92
3 93 94 95
3 96 97 98
3 99 100 101
3 102 103 104
3 105 106 107
3 108 109 110
3 111 112 113
3 114 115 116
3 117 118 119
3 120 121 122
3 123 124 125
3 126 127 128
3 129 130 131
3 132 133 134
3 135 136 137
3 138 139 140
3 141 142 143
3 144 145 146
3 147 148 149
3 150 151 152
3 153 154 155
3 156 157 158
3 159 160 161
3 162 163 164
3 165 166 167
3 168 169 170
3 171 172 173
3 174 175 176
3 177 178 179
3 180 181 182
3 183 184 185
3 186 187 188
3 189 190 191
3 192 193 194
3 195 196 197
3 198 199 200
3 201 202 203
3 204 205 206
3 207 208 209
3 210 211 212
3 213 214 215
3 216 217 218
3 219 220 221
3 222 223 224
3 225 226 227
3 228 229 230
3 231 232 233
3 234 235 236
3 237 238 239
3 240 241 242
3 243 244 245
3 246 247 248
3 249 250 251
3 252 253 254
3 255 256 257
3 258 259 260
3 261 262 263
3 264 265 266
3 267 268 269
3 270 271 272
3 273 274 275
3 276 277 278
3 279 280 281
3 282 283 284
3 285 286 287
3 288 289 290
3 291 292 293
3 294 295 296
3 297 298 299
3 300 301 302
3 303 304 305
3 306 307 308
3 309 310 311
3 312 313 314
3 315 316 317
3 318 319 320
3 321 322 323
3 324 325 326
3 327 328 329
3 330 331 332
3 333 334 335
3 336 337 338
3 339 340 341
3 342 343 344
3 345 346 347
3 348 349 350
3 351 352 353
3 354 355 356
3 357 358 359
3 360 361 362
3 363 364 365
3 366 367 368
3 369 370 371
3 372 373 374
3 375 376 377
3 378 379 380
3 381 382 383
3 384 385 386
3 387 388 389
3 390 391 392
3 393 394 395
3 396 397 398
3 399 400 401
3 402 403 404
3 405 406 407
3 408 409 410
3 411 412 413
3 414 415 416
3 417 418 419
3 420 421 422
3 423 424 425
3 426 427 428
3 429 430 431
3 432 433 434
3 435 436 437
3 438 439 440
3 441 442 443
3 444 445 446
3 447 448 449
3 450 451 452
3 453 454 455
3 456 457 458
3 459 460 461
3 462 463 464
3 465 466 467
3 468 469 470
3 471 472 473
3 474 475 476
3 477 478 479
3 480 481 482
3 483 484 485
3 486 487 488
3 489 490 491
3 492 493 494
3 495 496 497
3 498 499 500
3 501 502 503
3 504 505 506
3 507 508 509
3 510 511 512
3 513 514 515
3 516 517 518
3 519 520 521
3 522 523 524
3 525 526 527
3 528 529 530
3 531 532 533
3 534 535 536
3 537 538 539
3 540 541 542
3 543 544 545
3 546 547 548
3 549 550 551
3 552 553 554
3 555 556 557
3 558 559 560
3 561 562 563
3 564 565 566
3 567 568 569
3 570 571 572
3 573 574 575
3 576 577 578
3 579 580 581
3 582 583 584
3 585 586 587
3 588 589 590
3 591 592 593
3 594 595 596
3 597 598 599
3 600 601 602
3 603 604 605
3 606 607 608
3 609 610 611
3 612 613 614
3 615 616 617
3 618 619 620
3 621 622 623
3 624 625 626
3 627 628 629
3 630 631 632
3 633 634 635
3 636 637 638
3 639 640 641
3 642 643 644
3 645 646 647
3 648 649 650
3 651 652 653
