ply
format ascii 1.0
comment Created by Blender 2.80 (sub 75) - www.blender.org, source file: 'downsample_ccf.blend'
element vertex 636
property float x
property float y
property float z
property float nx
property float ny
property float nz
element face 212
property list uchar uint vertex_indices
end_header
8862.464844 4370.608398 1205.442505 0.041096 -0.032817 -0.998616
8267.462891 4740.389160 1168.804443 0.041096 -0.032817 -0.998616
8687.632812 4803.968262 1184.006470 0.041096 -0.032817 -0.998616
8862.464844 4370.608398 1205.442505 -0.492027 -0.820529 -0.290932
8792.455078 4389.548828 1270.425049 -0.492027 -0.820529 -0.290932
8267.462891 4740.389160 1168.804443 -0.492027 -0.820529 -0.290932
9141.732422 4546.967773 1225.199951 0.080999 -0.016618 -0.996576
8862.464844 4370.608398 1205.442505 0.080999 -0.016618 -0.996576
8687.632812 4803.968262 1184.006470 0.080999 -0.016618 -0.996576
9141.732422 4546.967773 1225.199951 0.135746 -0.104584 -0.985208
9112.375977 4116.685547 1266.831177 0.135746 -0.104584 -0.985208
8862.464844 4370.608398 1205.442505 0.135746 -0.104584 -0.985208
8792.455078 4389.548828 1270.425049 -0.454104 -0.795642 -0.400927
8270.515625 4681.309082 1282.591553 -0.454104 -0.795642 -0.400927
8267.462891 4740.389160 1168.804443 -0.454104 -0.795642 -0.400927
8267.462891 4740.389160 1168.804443 -0.366367 -0.829777 -0.421005
8270.515625 4681.309082 1282.591553 -0.366367 -0.829777 -0.421005
7892.414551 4878.732910 1222.510864 -0.366367 -0.829777 -0.421005
7892.414551 4878.732910 1222.510864 -0.034044 0.206746 -0.977802
7471.853516 5001.418457 1263.094116 -0.034044 0.206746 -0.977802
7456.026367 5364.794434 1340.477051 -0.034044 0.206746 -0.977802
8267.462891 4740.389160 1168.804443 -0.078862 0.167692 -0.982680
7892.414551 4878.732910 1222.510864 -0.078862 0.167692 -0.982680
7456.026367 5364.794434 1340.477051 -0.078862 0.167692 -0.982680
8687.632812 4803.968262 1184.006470 -0.004376 0.259808 -0.965651
8267.462891 4740.389160 1168.804443 -0.004376 0.259808 -0.965651
7456.026367 5364.794434 1340.477051 -0.004376 0.259808 -0.965651
9292.784180 3804.097168 1313.802124 0.082205 -0.101533 -0.991430
9112.375977 4116.685547 1266.831177 0.082205 -0.101533 -0.991430
9141.732422 4546.967773 1225.199951 0.082205 -0.101533 -0.991430
9687.644531 4150.065918 1423.879883 0.321087 -0.065867 -0.944756
9472.085938 3490.837891 1396.579956 0.321087 -0.065867 -0.944756
9292.784180 3804.097168 1313.802124 0.321087 -0.065867 -0.944756
9112.375977 4116.685547 1266.831177 -0.718278 -0.693552 0.055337
9059.820312 4176.079102 1329.048584 -0.718278 -0.693552 0.055337
8862.464844 4370.608398 1205.442505 -0.718278 -0.693552 0.055337
9687.644531 4150.065918 1423.879883 0.308967 -0.050451 -0.949734
9292.784180 3804.097168 1313.802124 0.308967 -0.050451 -0.949734
9141.732422 4546.967773 1225.199951 0.308967 -0.050451 -0.949734
9059.820312 4176.079102 1329.048584 -0.535277 -0.767368 -0.353023
8792.455078 4389.548828 1270.425049 -0.535277 -0.767368 -0.353023
8862.464844 4370.608398 1205.442505 -0.535277 -0.767368 -0.353023
9687.644531 4150.065918 1423.879883 0.379126 0.059205 -0.923449
9141.732422 4546.967773 1225.199951 0.379126 0.059205 -0.923449
9552.447266 4596.925781 1397.023560 0.379126 0.059205 -0.923449
8005.433105 4796.395020 1343.573242 -0.428476 -0.881281 -0.199378
7892.414551 4878.732910 1222.510864 -0.428476 -0.881281 -0.199378
8270.515625 4681.309082 1282.591553 -0.428476 -0.881281 -0.199378
9141.732422 4546.967773 1225.199951 0.257198 0.307612 -0.916092
8687.632812 4803.968262 1184.006470 0.257198 0.307612 -0.916092
9113.888672 5146.732910 1418.775879 0.257198 0.307612 -0.916092
7471.853516 5001.418457 1263.094116 -0.103123 0.202876 -0.973759
7109.561035 5110.216309 1324.128784 -0.103123 0.202876 -0.973759
7456.026367 5364.794434 1340.477051 -0.103123 0.202876 -0.973759
9113.888672 5146.732910 1418.775879 0.336111 0.303378 -0.891623
9552.447266 4596.925781 1397.023560 0.336111 0.303378 -0.891623
9141.732422 4546.967773 1225.199951 0.336111 0.303378 -0.891623
7892.414551 4878.732910 1222.510864 -0.293514 -0.895356 -0.334945
8005.433105 4796.395020 1343.573242 -0.293514 -0.895356 -0.334945
7471.853516 5001.418457 1263.094116 -0.293514 -0.895356 -0.334945
7456.026367 5364.794434 1340.477051 -0.239350 0.383034 -0.892186
7109.561035 5110.216309 1324.128784 -0.239350 0.383034 -0.892186
7083.379883 5233.057129 1383.890625 -0.239350 0.383034 -0.892186
9392.052734 3527.269287 1424.859619 -0.665195 -0.470975 -0.579395
9112.375977 4116.685547 1266.831177 -0.665195 -0.470975 -0.579395
9292.784180 3804.097168 1313.802124 -0.665195 -0.470975 -0.579395
9112.375977 4116.685547 1266.831177 -0.840236 -0.480687 -0.250885
9292.216797 3734.674561 1396.448730 -0.840236 -0.480687 -0.250885
9059.820312 4176.079102 1329.048584 -0.840236 -0.480687 -0.250885
9113.888672 5146.732910 1418.775879 0.124618 0.450522 -0.884025
8687.632812 4803.968262 1184.006470 0.124618 0.450522 -0.884025
8014.945801 5576.928223 1483.100830 0.124618 0.450522 -0.884025
8687.632812 4803.968262 1184.006470 0.073830 0.415122 -0.906765
7456.026367 5364.794434 1340.477051 0.073830 0.415122 -0.906765
8014.945801 5576.928223 1483.100830 0.073830 0.415122 -0.906765
9472.085938 3490.837891 1396.579956 -0.476325 -0.469144 -0.743652
9392.052734 3527.269287 1424.859619 -0.476325 -0.469144 -0.743652
9292.784180 3804.097168 1313.802124 -0.476325 -0.469144 -0.743652
9392.052734 3527.269287 1424.859619 -0.897524 -0.438460 -0.046947
9292.216797 3734.674561 1396.448730 -0.897524 -0.438460 -0.046947
9112.375977 4116.685547 1266.831177 -0.897524 -0.438460 -0.046947
8792.455078 4389.548828 1270.425049 -0.151480 -0.310125 0.938550
8856.572266 4816.214355 1421.756226 -0.151480 -0.310125 0.938550
8270.515625 4681.309082 1282.591553 -0.151480 -0.310125 0.938550
8005.433105 4796.395020 1343.573242 -0.328096 -0.926402 -0.184750
7171.234375 5068.418457 1461.000000 -0.328096 -0.926402 -0.184750
7471.853516 5001.418457 1263.094116 -0.328096 -0.926402 -0.184750
8014.945801 5576.928223 1483.100830 -0.019653 0.592986 -0.804973
7456.026367 5364.794434 1340.477051 -0.019653 0.592986 -0.804973
7751.770508 5507.175293 1438.142212 -0.019653 0.592986 -0.804973
7109.561035 5110.216309 1324.128784 -0.964288 -0.083189 -0.251452
7063.592773 5172.539551 1479.793091 -0.964288 -0.083189 -0.251452
7083.379883 5233.057129 1383.890625 -0.964288 -0.083189 -0.251452
9210.433594 4696.330078 1475.113892 -0.334289 -0.163803 0.928127
8792.455078 4389.548828 1270.425049 -0.334289 -0.163803 0.928127
9059.820312 4176.079102 1329.048584 -0.334289 -0.163803 0.928127
8270.515625 4681.309082 1282.591553 -0.061603 -0.574406 0.816249
8856.572266 4816.214355 1421.756226 -0.061603 -0.574406 0.816249
8005.433105 4796.395020 1343.573242 -0.061603 -0.574406 0.816249
7471.853516 5001.418457 1263.094116 -0.307299 -0.939943 -0.148574
7171.234375 5068.418457 1461.000000 -0.307299 -0.939943 -0.148574
7109.561035 5110.216309 1324.128784 -0.307299 -0.939943 -0.148574
7063.592773 5172.539551 1479.793091 -0.684650 -0.723597 0.087526
7109.561035 5110.216309 1324.128784 -0.684650 -0.723597 0.087526
7171.234375 5068.418457 1461.000000 -0.684650 -0.723597 0.087526
8856.572266 4816.214355 1421.756226 -0.075071 -0.392385 0.916732
8128.426758 5152.679688 1506.144165 -0.075071 -0.392385 0.916732
8005.433105 4796.395020 1343.573242 -0.075071 -0.392385 0.916732
9552.447266 4596.925781 1397.023560 0.484082 0.416576 -0.769499
9113.888672 5146.732910 1418.775879 0.484082 0.416576 -0.769499
9439.608398 5120.410645 1609.432129 0.484082 0.416576 -0.769499
7083.379883 5233.057129 1383.890625 -0.348599 0.901062 -0.258002
7751.770508 5507.175293 1438.142212 -0.348599 0.901062 -0.258002
7456.026367 5364.794434 1340.477051 -0.348599 0.901062 -0.258002
8856.572266 4816.214355 1421.756226 -0.238737 -0.292550 0.925969
8792.455078 4389.548828 1270.425049 -0.238737 -0.292550 0.925969
9210.433594 4696.330078 1475.113892 -0.238737 -0.292550 0.925969
8014.945801 5576.928223 1483.100830 0.167195 0.549503 -0.818592
8700.900391 5636.322754 1663.075317 0.167195 0.549503 -0.818592
9113.888672 5146.732910 1418.775879 0.167195 0.549503 -0.818592
9546.400391 4181.041992 1546.343994 -0.405990 -0.074673 0.910822
9059.820312 4176.079102 1329.048584 -0.405990 -0.074673 0.910822
9292.216797 3734.674561 1396.448730 -0.405990 -0.074673 0.910822
9059.820312 4176.079102 1329.048584 -0.402722 -0.137481 0.904938
9546.400391 4181.041992 1546.343994 -0.402722 -0.137481 0.904938
9210.433594 4696.330078 1475.113892 -0.402722 -0.137481 0.904938
9552.447266 4596.925781 1397.023560 0.633130 0.145867 -0.760177
9749.381836 4582.157715 1558.211182 0.633130 0.145867 -0.760177
9687.644531 4150.065918 1423.879883 0.633130 0.145867 -0.760177
7171.234375 5068.418457 1461.000000 -0.006570 -0.413235 0.910601
8005.433105 4796.395020 1343.573242 -0.006570 -0.413235 0.910601
8128.426758 5152.679688 1506.144165 -0.006570 -0.413235 0.910601
7083.379883 5233.057129 1383.890625 -0.358335 0.821132 0.444227
7063.592773 5172.539551 1479.793091 -0.358335 0.821132 0.444227
7441.772949 5312.951172 1525.307739 -0.358335 0.821132 0.444227
7083.379883 5233.057129 1383.890625 -0.385180 0.893525 0.230761
7886.382324 5525.252930 1592.834473 -0.385180 0.893525 0.230761
7751.770508 5507.175293 1438.142212 -0.385180 0.893525 0.230761
9821.629883 3435.693359 1604.432739 0.492391 -0.125337 -0.861302
9472.085938 3490.837891 1396.579956 0.492391 -0.125337 -0.861302
9687.644531 4150.065918 1423.879883 0.492391 -0.125337 -0.861302
9552.447266 4596.925781 1397.023560 0.596183 0.408864 -0.690939
9439.608398 5120.410645 1609.432129 0.596183 0.408864 -0.690939
9749.381836 4582.157715 1558.211182 0.596183 0.408864 -0.690939
8128.426758 5152.679688 1506.144165 -0.025898 -0.227352 0.973468
7441.772949 5312.951172 1525.307739 -0.025898 -0.227352 0.973468
7171.234375 5068.418457 1461.000000 -0.025898 -0.227352 0.973468
9645.239258 3114.592529 1690.832886 -0.499034 -0.664596 -0.556127
9392.052734 3527.269287 1424.859619 -0.499034 -0.664596 -0.556127
9472.085938 3490.837891 1396.579956 -0.499034 -0.664596 -0.556127
9687.644531 4150.065918 1423.879883 0.696351 -0.050342 -0.715934
9848.171875 3913.550049 1596.647339 0.696351 -0.050342 -0.715934
9821.629883 3435.693359 1604.432739 0.696351 -0.050342 -0.715934
9687.644531 4150.065918 1423.879883 0.782551 0.080133 -0.617409
9749.381836 4582.157715 1558.211182 0.782551 0.080133 -0.617409
9848.171875 3913.550049 1596.647339 0.782551 0.080133 -0.617409
8128.426758 5152.679688 1506.144165 -0.059141 -0.364498 0.929324
7964.346191 5474.738281 1622.019653 -0.059141 -0.364498 0.929324
7441.772949 5312.951172 1525.307739 -0.059141 -0.364498 0.929324
7441.772949 5312.951172 1525.307739 -0.402292 0.631731 0.662629
7886.382324 5525.252930 1592.834473 -0.402292 0.631731 0.662629
7083.379883 5233.057129 1383.890625 -0.402292 0.631731 0.662629
9700.837891 3123.443115 1587.567017 -0.662865 -0.626144 -0.410553
9645.239258 3114.592529 1690.832886 -0.662865 -0.626144 -0.410553
9472.085938 3490.837891 1396.579956 -0.662865 -0.626144 -0.410553
9821.629883 3435.693359 1604.432739 0.489137 -0.142744 -0.860447
9700.837891 3123.443115 1587.567017 0.489137 -0.142744 -0.860447
9472.085938 3490.837891 1396.579956 0.489137 -0.142744 -0.860447
7441.772949 5312.951172 1525.307739 -0.037614 -0.215026 0.975884
7063.592773 5172.539551 1479.793091 -0.037614 -0.215026 0.975884
7171.234375 5068.418457 1461.000000 -0.037614 -0.215026 0.975884
9292.216797 3734.674561 1396.448730 -0.888599 -0.396035 0.231402
9392.052734 3527.269287 1424.859619 -0.888599 -0.396035 0.231402
9645.239258 3114.592529 1690.832886 -0.888599 -0.396035 0.231402
9292.216797 3734.674561 1396.448730 -0.486463 -0.016332 0.873549
9796.116211 3842.715088 1679.080566 -0.486463 -0.016332 0.873549
9546.400391 4181.041992 1546.343994 -0.486463 -0.016332 0.873549
9546.400391 4181.041992 1546.343994 -0.490496 -0.202642 0.847555
9729.507812 4302.469727 1681.343872 -0.490496 -0.202642 0.847555
9210.433594 4696.330078 1475.113892 -0.490496 -0.202642 0.847555
8856.572266 4816.214355 1421.756226 -0.280192 -0.449535 0.848181
9210.433594 4696.330078 1475.113892 -0.280192 -0.449535 0.848181
9262.336914 5110.824219 1711.941528 -0.280192 -0.449535 0.848181
7441.772949 5312.951172 1525.307739 -0.234836 0.188495 0.953583
7964.346191 5474.738281 1622.019653 -0.234836 0.188495 0.953583
7886.382324 5525.252930 1592.834473 -0.234836 0.188495 0.953583
9700.837891 3123.443115 1587.567017 -0.653560 -0.638389 -0.406593
9850.856445 2832.667725 1802.970947 -0.653560 -0.638389 -0.406593
9645.239258 3114.592529 1690.832886 -0.653560 -0.638389 -0.406593
9796.116211 3842.715088 1679.080566 -0.554440 -0.084402 0.827933
9729.507812 4302.469727 1681.343872 -0.554440 -0.084402 0.827933
9546.400391 4181.041992 1546.343994 -0.554440 -0.084402 0.827933
9821.629883 3435.693359 1604.432739 0.646026 -0.210277 -0.733781
9850.856445 2832.667725 1802.970947 0.646026 -0.210277 -0.733781
9700.837891 3123.443115 1587.567017 0.646026 -0.210277 -0.733781
9796.116211 3842.715088 1679.080566 -0.504946 0.118432 0.854987
9292.216797 3734.674561 1396.448730 -0.504946 0.118432 0.854987
9645.239258 3114.592529 1690.832886 -0.504946 0.118432 0.854987
9729.507812 4302.469727 1681.343872 0.793892 0.112076 0.597641
9796.116211 3842.715088 1679.080566 0.793892 0.112076 0.597641
9848.171875 3913.550049 1596.647339 0.793892 0.112076 0.597641
9729.507812 4302.469727 1681.343872 -0.559953 -0.343088 0.754151
9636.625000 4613.077148 1753.684448 -0.559953 -0.343088 0.754151
9210.433594 4696.330078 1475.113892 -0.559953 -0.343088 0.754151
9848.171875 3913.550049 1596.647339 0.857674 0.154912 0.490303
9749.381836 4582.157715 1558.211182 0.857674 0.154912 0.490303
9729.507812 4302.469727 1681.343872 0.857674 0.154912 0.490303
8128.426758 5152.679688 1506.144165 -0.154158 -0.540977 0.826788
8856.572266 4816.214355 1421.756226 -0.154158 -0.540977 0.826788
8743.692383 5586.433594 1904.672852 -0.154158 -0.540977 0.826788
9113.888672 5146.732910 1418.775879 0.441081 0.595639 -0.671314
9125.757812 5680.442383 1900.120972 0.441081 0.595639 -0.671314
9439.608398 5120.410645 1609.432129 0.441081 0.595639 -0.671314
7751.770508 5507.175293 1438.142212 -0.274386 0.953146 0.127382
7886.382324 5525.252930 1592.834473 -0.274386 0.953146 0.127382
8014.945801 5576.928223 1483.100830 -0.274386 0.953146 0.127382
9210.433594 4696.330078 1475.113892 -0.558891 -0.357518 0.748213
9636.625000 4613.077148 1753.684448 -0.558891 -0.357518 0.748213
9262.336914 5110.824219 1711.941528 -0.558891 -0.357518 0.748213
9749.381836 4582.157715 1558.211182 0.731845 0.468301 -0.495073
9439.608398 5120.410645 1609.432129 0.731845 0.468301 -0.495073
9563.071289 5193.827637 1861.388428 0.731845 0.468301 -0.495073
9262.336914 5110.824219 1711.941528 -0.192289 -0.541370 0.818501
8743.692383 5586.433594 1904.672852 -0.192289 -0.541370 0.818501
8856.572266 4816.214355 1421.756226 -0.192289 -0.541370 0.818501
8014.945801 5576.928223 1483.100830 -0.174168 0.953732 0.245073
7886.382324 5525.252930 1592.834473 -0.174168 0.953732 0.245073
8303.165039 5546.904785 1804.772583 -0.174168 0.953732 0.245073
9749.381836 4582.157715 1558.211182 0.923607 0.097578 0.370715
9563.071289 5193.827637 1861.388428 0.923607 0.097578 0.370715
9729.507812 4302.469727 1681.343872 0.923607 0.097578 0.370715
8743.692383 5586.433594 1904.672852 -0.135236 -0.559492 0.817728
8303.165039 5546.904785 1804.772583 -0.135236 -0.559492 0.817728
8128.426758 5152.679688 1506.144165 -0.135236 -0.559492 0.817728
9113.888672 5146.732910 1418.775879 0.328125 0.628623 -0.705101
8700.900391 5636.322754 1663.075317 0.328125 0.628623 -0.705101
9125.757812 5680.442383 1900.120972 0.328125 0.628623 -0.705101
7886.382324 5525.252930 1592.834473 -0.439751 -0.169093 0.882058
7964.346191 5474.738281 1622.019653 -0.439751 -0.169093 0.882058
8303.165039 5546.904785 1804.772583 -0.439751 -0.169093 0.882058
8303.165039 5546.904785 1804.772583 -0.340619 -0.467114 0.815955
7964.346191 5474.738281 1622.019653 -0.340619 -0.467114 0.815955
8128.426758 5152.679688 1506.144165 -0.340619 -0.467114 0.815955
9439.608398 5120.410645 1609.432129 0.496577 0.602573 -0.624753
9125.757812 5680.442383 1900.120972 0.496577 0.602573 -0.624753
9416.905273 5503.121094 1960.510010 0.496577 0.602573 -0.624753
9850.856445 2832.667725 1802.970947 0.947376 -0.057751 -0.314870
9821.629883 3435.693359 1604.432739 0.947376 -0.057751 -0.314870
9848.171875 3913.550049 1596.647339 0.947376 -0.057751 -0.314870
9796.116211 3842.715088 1679.080566 0.778675 0.139615 0.611696
9814.709961 3277.874268 1784.332153 0.778675 0.139615 0.611696
9848.171875 3913.550049 1596.647339 0.778675 0.139615 0.611696
8700.900391 5636.322754 1663.075317 -0.070966 0.995783 -0.058146
8014.945801 5576.928223 1483.100830 -0.070966 0.995783 -0.058146
9125.757812 5680.442383 1900.120972 -0.070966 0.995783 -0.058146
9850.856445 2832.667725 1802.970947 -0.654195 -0.638424 -0.405516
9788.710938 2812.683838 1934.688232 -0.654195 -0.638424 -0.405516
9645.239258 3114.592529 1690.832886 -0.654195 -0.638424 -0.405516
9814.709961 3277.874268 1784.332153 -0.649583 0.266455 0.712070
9645.239258 3114.592529 1690.832886 -0.649583 0.266455 0.712070
9788.710938 2812.683838 1934.688232 -0.649583 0.266455 0.712070
9645.239258 3114.592529 1690.832886 -0.573206 0.131830 0.808737
9814.709961 3277.874268 1784.332153 -0.573206 0.131830 0.808737
9796.116211 3842.715088 1679.080566 -0.573206 0.131830 0.808737
8014.945801 5576.928223 1483.100830 -0.134741 0.968135 0.211090
8303.165039 5546.904785 1804.772583 -0.134741 0.968135 0.211090
8743.692383 5586.433594 1904.672852 -0.134741 0.968135 0.211090
9814.709961 3277.874268 1784.332153 0.880577 0.090966 0.465091
9850.856445 2832.667725 1802.970947 0.880577 0.090966 0.465091
9848.171875 3913.550049 1596.647339 0.880577 0.090966 0.465091
9563.071289 5193.827637 1861.388428 0.262602 -0.143693 0.954145
9636.625000 4613.077148 1753.684448 0.262602 -0.143693 0.954145
9729.507812 4302.469727 1681.343872 0.262602 -0.143693 0.954145
9636.625000 4613.077148 1753.684448 -0.643485 -0.430816 0.632713
9374.714844 5436.539551 2048.013184 -0.643485 -0.430816 0.632713
9262.336914 5110.824219 1711.941528 -0.643485 -0.430816 0.632713
8743.692383 5586.433594 1904.672852 -0.235495 -0.574470 0.783917
9262.336914 5110.824219 1711.941528 -0.235495 -0.574470 0.783917
9164.445312 5558.472168 2010.579590 -0.235495 -0.574470 0.783917
9563.071289 5193.827637 1861.388428 0.713980 0.495839 -0.494344
9439.608398 5120.410645 1609.432129 0.713980 0.495839 -0.494344
9416.905273 5503.121094 1960.510010 0.713980 0.495839 -0.494344
8743.692383 5586.433594 1904.672852 -0.430099 0.528996 0.731559
8910.462891 5661.413574 1948.502075 -0.430099 0.528996 0.731559
8014.945801 5576.928223 1483.100830 -0.430099 0.528996 0.731559
9788.710938 2812.683838 1934.688232 0.895249 0.090947 0.436186
9850.856445 2832.667725 1802.970947 0.895249 0.090947 0.436186
9814.709961 3277.874268 1784.332153 0.895249 0.090947 0.436186
9563.071289 5193.827637 1861.388428 0.896266 0.031469 0.442399
9547.948242 4996.570801 1906.057861 0.896266 0.031469 0.442399
9636.625000 4613.077148 1753.684448 0.896266 0.031469 0.442399
9636.625000 4613.077148 1753.684448 -0.379709 -0.416095 0.826248
9547.948242 4996.570801 1906.057861 -0.379709 -0.416095 0.826248
9374.714844 5436.539551 2048.013184 -0.379709 -0.416095 0.826248
8014.945801 5576.928223 1483.100830 -0.089816 0.995926 -0.007971
8910.462891 5661.413574 1948.502075 -0.089816 0.995926 -0.007971
9125.757812 5680.442383 1900.120972 -0.089816 0.995926 -0.007971
9416.905273 5503.121094 1960.510010 0.539261 0.819790 -0.192721
9125.757812 5680.442383 1900.120972 0.539261 0.819790 -0.192721
9231.727539 5633.739746 1997.977295 0.539261 0.819790 -0.192721
9262.336914 5110.824219 1711.941528 -0.449388 -0.561696 0.694657
9374.714844 5436.539551 2048.013184 -0.449388 -0.561696 0.694657
9164.445312 5558.472168 2010.579590 -0.449388 -0.561696 0.694657
9231.727539 5633.739746 1997.977295 0.013778 0.908119 0.418486
9125.757812 5680.442383 1900.120972 0.013778 0.908119 0.418486
8910.462891 5661.413574 1948.502075 0.013778 0.908119 0.418486
9416.905273 5503.121094 1960.510010 0.810217 0.207176 0.548295
9374.714844 5436.539551 2048.013184 0.810217 0.207176 0.548295
9563.071289 5193.827637 1861.388428 0.810217 0.207176 0.548295
9374.714844 5436.539551 2048.013184 0.756432 0.088754 0.648023
9547.948242 4996.570801 1906.057861 0.756432 0.088754 0.648023
9563.071289 5193.827637 1861.388428 0.756432 0.088754 0.648023
8910.462891 5661.413574 1948.502075 -0.245344 -0.020854 0.969212
8743.692383 5586.433594 1904.672852 -0.245344 -0.020854 0.969212
9164.445312 5558.472168 2010.579590 -0.245344 -0.020854 0.969212
9231.727539 5633.739746 1997.977295 -0.123734 0.270463 0.954746
8910.462891 5661.413574 1948.502075 -0.123734 0.270463 0.954746
9164.445312 5558.472168 2010.579590 -0.123734 0.270463 0.954746
9374.714844 5436.539551 2048.013184 0.516779 0.542711 0.662121
9416.905273 5503.121094 1960.510010 0.516779 0.542711 0.662121
9231.727539 5633.739746 1997.977295 0.516779 0.542711 0.662121
9374.714844 5436.539551 2048.013184 -0.052041 0.209988 0.976318
9231.727539 5633.739746 1997.977295 -0.052041 0.209988 0.976318
9164.445312 5558.472168 2010.579590 -0.052041 0.209988 0.976318
9454.058594 5300.807617 9381.742188 0.665931 0.255541 -0.700881
9316.167969 5504.827637 9325.113281 0.665931 0.255541 -0.700881
9496.043945 5378.056641 9449.798828 0.665931 0.255541 -0.700881
8991.735352 5637.394531 9391.554688 0.118377 0.661057 -0.740938
9274.008789 5626.906250 9427.294922 0.118377 0.661057 -0.740938
9316.167969 5504.827637 9325.113281 0.118377 0.661057 -0.740938
9567.540039 4925.473145 9501.380859 -0.103450 -0.330325 -0.938181
9316.167969 5504.827637 9325.113281 -0.103450 -0.330325 -0.938181
9454.058594 5300.807617 9381.742188 -0.103450 -0.330325 -0.938181
9316.167969 5504.827637 9325.113281 0.698172 0.585711 -0.411702
9274.008789 5626.906250 9427.294922 0.698172 0.585711 -0.411702
9496.043945 5378.056641 9449.798828 0.698172 0.585711 -0.411702
9274.008789 5626.906250 9427.294922 0.082459 0.920887 -0.381009
8991.735352 5637.394531 9391.554688 0.082459 0.920887 -0.381009
8952.447266 5698.692871 9531.208008 0.082459 0.920887 -0.381009
9567.540039 4925.473145 9501.380859 -0.631747 -0.463211 -0.621556
9260.306641 5045.124023 9724.482422 -0.631747 -0.463211 -0.621556
9316.167969 5504.827637 9325.113281 -0.631747 -0.463211 -0.621556
9567.540039 4925.473145 9501.380859 0.815659 0.063312 -0.575058
9454.058594 5300.807617 9381.742188 0.815659 0.063312 -0.575058
9496.043945 5378.056641 9449.798828 0.815659 0.063312 -0.575058
8352.093750 5547.145508 9559.131836 -0.244437 0.843123 -0.478952
8712.254883 5635.722656 9531.247070 -0.244437 0.843123 -0.478952
8991.735352 5637.394531 9391.554688 -0.244437 0.843123 -0.478952
8991.735352 5637.394531 9391.554688 -0.227258 0.866574 -0.444301
8712.254883 5635.722656 9531.247070 -0.227258 0.866574 -0.444301
8952.447266 5698.692871 9531.208008 -0.227258 0.866574 -0.444301
9854.729492 2809.044434 9532.323242 0.803103 0.145846 -0.577715
9788.871094 2801.340820 9438.826172 0.803103 0.145846 -0.577715
9825.831055 3323.291748 9621.973633 0.803103 0.145846 -0.577715
9316.167969 5504.827637 9325.113281 -0.383801 -0.578585 -0.719678
9260.306641 5045.124023 9724.482422 -0.383801 -0.578585 -0.719678
8991.735352 5637.394531 9391.554688 -0.383801 -0.578585 -0.719678
9788.871094 2801.340820 9438.826172 -0.554811 -0.700712 0.448538
9854.729492 2809.044434 9532.323242 -0.554811 -0.700712 0.448538
9742.167969 3031.308594 9740.316406 -0.554811 -0.700712 0.448538
9788.871094 2801.340820 9438.826172 -0.619326 0.298643 -0.726118
9664.829102 3093.974365 9664.981445 -0.619326 0.298643 -0.726118
9825.831055 3323.291748 9621.973633 -0.619326 0.298643 -0.726118
9274.008789 5626.906250 9427.294922 0.642592 0.614713 0.457387
9328.927734 5402.763184 9651.378906 0.642592 0.614713 0.457387
9496.043945 5378.056641 9449.798828 0.642592 0.614713 0.457387
9788.871094 2801.340820 9438.826172 -0.763089 -0.565406 0.313067
9742.167969 3031.308594 9740.316406 -0.763089 -0.565406 0.313067
9664.829102 3093.974365 9664.981445 -0.763089 -0.565406 0.313067
8991.735352 5637.394531 9391.554688 -0.129857 -0.576957 -0.806385
8300.041992 5083.320801 9899.374023 -0.129857 -0.576957 -0.806385
8352.093750 5547.145508 9559.131836 -0.129857 -0.576957 -0.806385
9862.261719 3113.157959 9649.799805 0.928083 0.113957 -0.354507
9854.729492 2809.044434 9532.323242 0.928083 0.113957 -0.354507
9825.831055 3323.291748 9621.973633 0.928083 0.113957 -0.354507
9567.540039 4925.473145 9501.380859 -0.501679 -0.426819 -0.752425
9668.500000 4547.962402 9648.211914 -0.501679 -0.426819 -0.752425
9586.314453 4370.273438 9803.804688 -0.501679 -0.426819 -0.752425
9260.306641 5045.124023 9724.482422 -0.635743 -0.385707 -0.668626
9567.540039 4925.473145 9501.380859 -0.635743 -0.385707 -0.668626
9586.314453 4370.273438 9803.804688 -0.635743 -0.385707 -0.668626
9328.927734 5402.763184 9651.378906 0.337680 0.705577 0.623004
9274.008789 5626.906250 9427.294922 0.337680 0.705577 0.623004
8741.600586 5636.980469 9704.460938 0.337680 0.705577 0.623004
9274.008789 5626.906250 9427.294922 0.361332 0.647940 0.670532
8952.447266 5698.692871 9531.208008 0.361332 0.647940 0.670532
8741.600586 5636.980469 9704.460938 0.361332 0.647940 0.670532
8300.041992 5083.320801 9899.374023 -0.171499 -0.540701 -0.823547
8991.735352 5637.394531 9391.554688 -0.171499 -0.540701 -0.823547
9260.306641 5045.124023 9724.482422 -0.171499 -0.540701 -0.823547
8712.254883 5635.722656 9531.247070 -0.245829 0.856953 -0.452991
8352.093750 5547.145508 9559.131836 -0.245829 0.856953 -0.452991
7979.085938 5549.363770 9765.751953 -0.245829 0.856953 -0.452991
9742.167969 3031.308594 9740.316406 0.691209 -0.275235 0.668188
9854.729492 2809.044434 9532.323242 0.691209 -0.275235 0.668188
9862.261719 3113.157959 9649.799805 0.691209 -0.275235 0.668188
9760.172852 4128.632812 9722.408203 0.935165 0.117898 -0.334015
9862.261719 3113.157959 9649.799805 0.935165 0.117898 -0.334015
9825.831055 3323.291748 9621.973633 0.935165 0.117898 -0.334015
9668.500000 4547.962402 9648.211914 0.924046 0.104050 -0.367849
9567.540039 4925.473145 9501.380859 0.924046 0.104050 -0.367849
9496.043945 5378.056641 9449.798828 0.924046 0.104050 -0.367849
9735.317383 4631.363281 9810.673828 0.703706 0.479074 0.524677
9496.043945 5378.056641 9449.798828 0.703706 0.479074 0.524677
9328.927734 5402.763184 9651.378906 0.703706 0.479074 0.524677
8300.041992 5083.320801 9899.374023 -0.311245 -0.539146 -0.782590
7976.188477 5466.208008 9764.393555 -0.311245 -0.539146 -0.782590
8352.093750 5547.145508 9559.131836 -0.311245 -0.539146 -0.782590
9664.829102 3093.974365 9664.981445 -0.749023 -0.608038 0.263163
9742.167969 3031.308594 9740.316406 -0.749023 -0.608038 0.263163
9502.541016 3385.842285 9877.432617 -0.749023 -0.608038 0.263163
9825.831055 3323.291748 9621.973633 -0.368823 0.085359 -0.925572
9664.829102 3093.974365 9664.981445 -0.368823 0.085359 -0.925572
9760.172852 4128.632812 9722.408203 -0.368823 0.085359 -0.925572
9838.231445 4099.157227 9824.984375 0.806439 0.122438 -0.578502
9862.261719 3113.157959 9649.799805 0.806439 0.122438 -0.578502
9760.172852 4128.632812 9722.408203 0.806439 0.122438 -0.578502
9668.500000 4547.962402 9648.211914 0.803511 0.071085 -0.591031
9838.231445 4099.157227 9824.984375 0.803511 0.071085 -0.591031
9760.172852 4128.632812 9722.408203 0.803511 0.071085 -0.591031
9586.314453 4370.273438 9803.804688 -0.689520 -0.269678 -0.672187
9668.500000 4547.962402 9648.211914 -0.689520 -0.269678 -0.672187
9760.172852 4128.632812 9722.408203 -0.689520 -0.269678 -0.672187
8352.093750 5547.145508 9559.131836 -0.484179 0.031155 -0.874414
7976.188477 5466.208008 9764.393555 -0.484179 0.031155 -0.874414
7979.085938 5549.363770 9765.751953 -0.484179 0.031155 -0.874414
8952.447266 5698.692871 9531.208008 -0.253427 0.966688 0.035916
8712.254883 5635.722656 9531.247070 -0.253427 0.966688 0.035916
8741.600586 5636.980469 9704.460938 -0.253427 0.966688 0.035916
9356.833984 3668.910645 9948.545898 -0.569152 0.097760 -0.816400
9760.172852 4128.632812 9722.408203 -0.569152 0.097760 -0.816400
9664.829102 3093.974365 9664.981445 -0.569152 0.097760 -0.816400
9586.314453 4370.273438 9803.804688 -0.460406 -0.032434 -0.887116
9760.172852 4128.632812 9722.408203 -0.460406 -0.032434 -0.887116
9356.833984 3668.910645 9948.545898 -0.460406 -0.032434 -0.887116
9838.231445 4099.157227 9824.984375 0.671999 -0.037176 -0.739619
9668.500000 4547.962402 9648.211914 0.671999 -0.037176 -0.739619
9496.043945 5378.056641 9449.798828 0.671999 -0.037176 -0.739619
8712.254883 5635.722656 9531.247070 -0.074993 0.997169 0.005464
8021.436523 5581.964844 9860.516602 -0.074993 0.997169 0.005464
8741.600586 5636.980469 9704.460938 -0.074993 0.997169 0.005464
9838.231445 4099.157227 9824.984375 0.948274 0.176271 -0.264015
9496.043945 5378.056641 9449.798828 0.948274 0.176271 -0.264015
9735.317383 4631.363281 9810.673828 0.948274 0.176271 -0.264015
8712.254883 5635.722656 9531.247070 -0.189648 0.951420 -0.242555
7979.085938 5549.363770 9765.751953 -0.189648 0.951420 -0.242555
8021.436523 5581.964844 9860.516602 -0.189648 0.951420 -0.242555
9786.423828 3926.670166 9882.461914 0.658147 -0.149672 0.737862
9742.167969 3031.308594 9740.316406 0.658147 -0.149672 0.737862
9862.261719 3113.157959 9649.799805 0.658147 -0.149672 0.737862
9328.927734 5402.763184 9651.378906 0.309196 0.609992 0.729594
8741.600586 5636.980469 9704.460938 0.309196 0.609992 0.729594
9088.625977 5109.056641 9998.776367 0.309196 0.609992 0.729594
9502.541016 3385.842285 9877.432617 -0.894237 -0.440841 -0.077461
9356.833984 3668.910645 9948.545898 -0.894237 -0.440841 -0.077461
9664.829102 3093.974365 9664.981445 -0.894237 -0.440841 -0.077461
9838.231445 4099.157227 9824.984375 0.841606 -0.074530 0.534925
9786.423828 3926.670166 9882.461914 0.841606 -0.074530 0.534925
9862.261719 3113.157959 9649.799805 0.841606 -0.074530 0.534925
7976.188477 5466.208008 9764.393555 -0.153216 0.021478 -0.987959
7105.014648 5215.219727 9894.041992 -0.153216 0.021478 -0.987959
7979.085938 5549.363770 9765.751953 -0.153216 0.021478 -0.987959
9612.776367 4618.309082 9940.778320 0.623257 0.459078 0.633087
9735.317383 4631.363281 9810.673828 0.623257 0.459078 0.633087
9328.927734 5402.763184 9651.378906 0.623257 0.459078 0.633087
8300.041992 5083.320801 9899.374023 -0.035440 -0.358798 -0.932742
7105.014648 5215.219727 9894.041992 -0.035440 -0.358798 -0.932742
7976.188477 5466.208008 9764.393555 -0.035440 -0.358798 -0.932742
9502.541016 3385.842285 9877.432617 -0.614574 -0.609211 0.501160
9742.167969 3031.308594 9740.316406 -0.614574 -0.609211 0.501160
9452.875000 3540.106445 10004.050781 -0.614574 -0.609211 0.501160
9328.927734 5402.763184 9651.378906 0.505970 0.453712 0.733580
9088.625977 5109.056641 9998.776367 0.505970 0.453712 0.733580
9612.776367 4618.309082 9940.778320 0.505970 0.453712 0.733580
8021.436523 5581.964844 9860.516602 -0.342529 0.924886 -0.165104
7979.085938 5549.363770 9765.751953 -0.342529 0.924886 -0.165104
7351.389648 5357.901367 9995.446289 -0.342529 0.924886 -0.165104
9742.167969 3031.308594 9740.316406 0.496438 -0.159990 0.853202
9786.423828 3926.670166 9882.461914 0.496438 -0.159990 0.853202
9452.875000 3540.106445 10004.050781 0.496438 -0.159990 0.853202
9586.314453 4370.273438 9803.804688 -0.424741 -0.305360 -0.852262
9040.348633 4630.828613 9982.541992 -0.424741 -0.305360 -0.852262
9260.306641 5045.124023 9724.482422 -0.424741 -0.305360 -0.852262
8300.041992 5083.320801 9899.374023 -0.037633 -0.378346 -0.924899
7822.448242 4867.528809 10007.080078 -0.037633 -0.378346 -0.924899
7105.014648 5215.219727 9894.041992 -0.037633 -0.378346 -0.924899
7105.014648 5215.219727 9894.041992 0.138212 -0.036581 -0.989727
7822.448242 4867.528809 10007.080078 0.138212 -0.036581 -0.989727
7105.299316 5099.140625 9898.372070 0.138212 -0.036581 -0.989727
7979.085938 5549.363770 9765.751953 -0.378827 0.872819 -0.307697
7105.014648 5215.219727 9894.041992 -0.378827 0.872819 -0.307697
7351.389648 5357.901367 9995.446289 -0.378827 0.872819 -0.307697
8741.600586 5636.980469 9704.460938 0.154848 0.556765 0.816109
7819.059082 5471.935059 9992.100586 0.154848 0.556765 0.816109
9088.625977 5109.056641 9998.776367 0.154848 0.556765 0.816109
8741.600586 5636.980469 9704.460938 0.106303 0.676245 0.728967
8021.436523 5581.964844 9860.516602 0.106303 0.676245 0.728967
7819.059082 5471.935059 9992.100586 0.106303 0.676245 0.728967
9356.833984 3668.910645 9948.545898 -0.823401 -0.303361 -0.479565
9502.541016 3385.842285 9877.432617 -0.823401 -0.303361 -0.479565
9383.632812 3538.739502 9984.875977 -0.823401 -0.303361 -0.479565
9612.776367 4618.309082 9940.778320 0.601538 0.084044 0.794411
9786.423828 3926.670166 9882.461914 0.601538 0.084044 0.794411
9838.231445 4099.157227 9824.984375 0.601538 0.084044 0.794411
9838.231445 4099.157227 9824.984375 0.711184 0.155956 0.685489
9735.317383 4631.363281 9810.673828 0.711184 0.155956 0.685489
9612.776367 4618.309082 9940.778320 0.711184 0.155956 0.685489
9040.348633 4630.828613 9982.541992 -0.177265 -0.450813 -0.874840
8300.041992 5083.320801 9899.374023 -0.177265 -0.450813 -0.874840
9260.306641 5045.124023 9724.482422 -0.177265 -0.450813 -0.874840
7105.299316 5099.140625 9898.372070 -0.977987 -0.010173 -0.208416
7074.700684 5200.811035 10036.993164 -0.977987 -0.010173 -0.208416
7105.014648 5215.219727 9894.041992 -0.977987 -0.010173 -0.208416
9356.833984 3668.910645 9948.545898 -0.434463 -0.043507 -0.899638
9023.024414 4203.170898 10083.916016 -0.434463 -0.043507 -0.899638
9586.314453 4370.273438 9803.804688 -0.434463 -0.043507 -0.899638
9502.541016 3385.842285 9877.432617 -0.188713 -0.658633 0.728416
9452.875000 3540.106445 10004.050781 -0.188713 -0.658633 0.728416
9383.632812 3538.739502 9984.875977 -0.188713 -0.658633 0.728416
9586.314453 4370.273438 9803.804688 -0.388875 -0.197554 -0.899860
9023.024414 4203.170898 10083.916016 -0.388875 -0.197554 -0.899860
9040.348633 4630.828613 9982.541992 -0.388875 -0.197554 -0.899860
7105.299316 5099.140625 9898.372070 -0.984506 -0.108724 -0.137573
7080.415527 5133.136719 10049.579102 -0.984506 -0.108724 -0.137573
7074.700684 5200.811035 10036.993164 -0.984506 -0.108724 -0.137573
8021.436523 5581.964844 9860.516602 -0.212965 0.885517 0.412922
7351.389648 5357.901367 9995.446289 -0.212965 0.885517 0.412922
7819.059082 5471.935059 9992.100586 -0.212965 0.885517 0.412922
9356.833984 3668.910645 9948.545898 -0.834155 -0.300759 -0.462309
9383.632812 3538.739502 9984.875977 -0.834155 -0.300759 -0.462309
9186.048828 3948.759766 10074.639648 -0.834155 -0.300759 -0.462309
9786.423828 3926.670166 9882.461914 0.585608 0.079006 0.806735
9612.776367 4618.309082 9940.778320 0.585608 0.079006 0.806735
9484.261719 4342.235352 10061.103516 0.585608 0.079006 0.806735
9023.024414 4203.170898 10083.916016 -0.237991 -0.214887 -0.947198
8654.085938 4468.515625 10116.416992 -0.237991 -0.214887 -0.947198
9040.348633 4630.828613 9982.541992 -0.237991 -0.214887 -0.947198
7822.448242 4867.528809 10007.080078 -0.014941 -0.419865 -0.907464
8300.041992 5083.320801 9899.374023 -0.014941 -0.419865 -0.907464
8275.851562 4688.562500 10082.418945 -0.014941 -0.419865 -0.907464
9040.348633 4630.828613 9982.541992 -0.148507 -0.408497 -0.900598
8275.851562 4688.562500 10082.418945 -0.148507 -0.408497 -0.900598
8300.041992 5083.320801 9899.374023 -0.148507 -0.408497 -0.900598
7105.014648 5215.219727 9894.041992 -0.495645 0.868347 -0.017581
7074.700684 5200.811035 10036.993164 -0.495645 0.868347 -0.017581
7351.389648 5357.901367 9995.446289 -0.495645 0.868347 -0.017581
9484.261719 4342.235352 10061.103516 0.422637 -0.080743 0.902695
9452.875000 3540.106445 10004.050781 0.422637 -0.080743 0.902695
9786.423828 3926.670166 9882.461914 0.422637 -0.080743 0.902695
9356.833984 3668.910645 9948.545898 -0.839331 -0.540091 0.061849
9186.048828 3948.759766 10074.639648 -0.839331 -0.540091 0.061849
9023.024414 4203.170898 10083.916016 -0.839331 -0.540091 0.061849
8654.085938 4468.515625 10116.416992 -0.148276 -0.394950 -0.906658
8275.851562 4688.562500 10082.418945 -0.148276 -0.394950 -0.906658
9040.348633 4630.828613 9982.541992 -0.148276 -0.394950 -0.906658
7822.448242 4867.528809 10007.080078 -0.320588 -0.940739 0.110601
7950.295898 4841.160156 10153.375977 -0.320588 -0.940739 0.110601
7105.299316 5099.140625 9898.372070 -0.320588 -0.940739 0.110601
7105.299316 5099.140625 9898.372070 -0.330922 -0.930870 0.154830
7950.295898 4841.160156 10153.375977 -0.330922 -0.930870 0.154830
7080.415527 5133.136719 10049.579102 -0.330922 -0.930870 0.154830
9020.925781 4795.907715 10143.569336 0.390910 0.315321 0.864732
9612.776367 4618.309082 9940.778320 0.390910 0.315321 0.864732
9088.625977 5109.056641 9998.776367 0.390910 0.315321 0.864732
8330.233398 4962.837891 10168.265625 0.117681 0.428204 0.895987
9088.625977 5109.056641 9998.776367 0.117681 0.428204 0.895987
7819.059082 5471.935059 9992.100586 0.117681 0.428204 0.895987
7074.700684 5200.811035 10036.993164 -0.091548 0.402178 0.910973
7819.059082 5471.935059 9992.100586 -0.091548 0.402178 0.910973
7351.389648 5357.901367 9995.446289 -0.091548 0.402178 0.910973
9452.875000 3540.106445 10004.050781 -0.247046 -0.319337 0.914873
9186.048828 3948.759766 10074.639648 -0.247046 -0.319337 0.914873
9383.632812 3538.739502 9984.875977 -0.247046 -0.319337 0.914873
9020.925781 4795.907715 10143.569336 0.374347 0.218511 0.901175
9484.261719 4342.235352 10061.103516 0.374347 0.218511 0.901175
9612.776367 4618.309082 9940.778320 0.374347 0.218511 0.901175
9484.261719 4342.235352 10061.103516 0.232724 -0.078057 0.969405
8988.071289 4434.132324 10187.623047 0.232724 -0.078057 0.969405
9452.875000 3540.106445 10004.050781 0.232724 -0.078057 0.969405
7950.295898 4841.160156 10153.375977 -0.386469 -0.905644 0.174499
7822.448242 4867.528809 10007.080078 -0.386469 -0.905644 0.174499
8275.851562 4688.562500 10082.418945 -0.386469 -0.905644 0.174499
7562.403320 5029.409180 10137.771484 -0.070609 0.348606 0.934606
7819.059082 5471.935059 9992.100586 -0.070609 0.348606 0.934606
7074.700684 5200.811035 10036.993164 -0.070609 0.348606 0.934606
7819.059082 5471.935059 9992.100586 -0.010087 0.317933 0.948060
7562.403320 5029.409180 10137.771484 -0.010087 0.317933 0.948060
8330.233398 4962.837891 10168.265625 -0.010087 0.317933 0.948060
9452.875000 3540.106445 10004.050781 -0.226445 -0.307499 0.924212
8988.071289 4434.132324 10187.623047 -0.226445 -0.307499 0.924212
9186.048828 3948.759766 10074.639648 -0.226445 -0.307499 0.924212
8766.333984 4422.733887 10192.584961 -0.534978 -0.782778 0.317894
8654.085938 4468.515625 10116.416992 -0.534978 -0.782778 0.317894
9023.024414 4203.170898 10083.916016 -0.534978 -0.782778 0.317894
7080.415527 5133.136719 10049.579102 -0.253744 -0.451959 0.855189
7950.295898 4841.160156 10153.375977 -0.253744 -0.451959 0.855189
7562.403320 5029.409180 10137.771484 -0.253744 -0.451959 0.855189
7080.415527 5133.136719 10049.579102 -0.141997 0.169387 0.975267
7562.403320 5029.409180 10137.771484 -0.141997 0.169387 0.975267
7074.700684 5200.811035 10036.993164 -0.141997 0.169387 0.975267
9023.024414 4203.170898 10083.916016 -0.589725 -0.403401 0.699637
9186.048828 3948.759766 10074.639648 -0.589725 -0.403401 0.699637
8988.071289 4434.132324 10187.623047 -0.589725 -0.403401 0.699637
8988.071289 4434.132324 10187.623047 0.262167 0.093154 0.960516
9484.261719 4342.235352 10061.103516 0.262167 0.093154 0.960516
9020.925781 4795.907715 10143.569336 0.262167 0.093154 0.960516
8275.851562 4688.562500 10082.418945 -0.457943 -0.834496 -0.306438
8654.085938 4468.515625 10116.416992 -0.457943 -0.834496 -0.306438
7950.295898 4841.160156 10153.375977 -0.457943 -0.834496 -0.306438
9020.925781 4795.907715 10143.569336 0.127631 0.393388 0.910470
9088.625977 5109.056641 9998.776367 0.127631 0.393388 0.910470
8330.233398 4962.837891 10168.265625 0.127631 0.393388 0.910470
8766.333984 4422.733887 10192.584961 0.041220 -0.404077 0.913796
9023.024414 4203.170898 10083.916016 0.041220 -0.404077 0.913796
8988.071289 4434.132324 10187.623047 0.041220 -0.404077 0.913796
8654.085938 4468.515625 10116.416992 -0.456927 -0.877446 0.145969
8766.333984 4422.733887 10192.584961 -0.456927 -0.877446 0.145969
7950.295898 4841.160156 10153.375977 -0.456927 -0.877446 0.145969
8477.911133 4673.055664 10234.017578 -0.291736 -0.535429 0.792594
7562.403320 5029.409180 10137.771484 -0.291736 -0.535429 0.792594
7950.295898 4841.160156 10153.375977 -0.291736 -0.535429 0.792594
8477.911133 4673.055664 10234.017578 -0.020491 0.211288 0.977209
8330.233398 4962.837891 10168.265625 -0.020491 0.211288 0.977209
7562.403320 5029.409180 10137.771484 -0.020491 0.211288 0.977209
8766.333984 4422.733887 10192.584961 0.028896 -0.130733 0.990996
8988.071289 4434.132324 10187.623047 0.028896 -0.130733 0.990996
8477.911133 4673.055664 10234.017578 0.028896 -0.130733 0.990996
8988.071289 4434.132324 10187.623047 0.139716 0.107180 0.984374
9020.925781 4795.907715 10143.569336 0.139716 0.107180 0.984374
8477.911133 4673.055664 10234.017578 0.139716 0.107180 0.984374
7950.295898 4841.160156 10153.375977 -0.274832 -0.456708 0.846100
8766.333984 4422.733887 10192.584961 -0.274832 -0.456708 0.846100
8477.911133 4673.055664 10234.017578 -0.274832 -0.456708 0.846100
9020.925781 4795.907715 10143.569336 0.099016 0.267909 0.958343
8330.233398 4962.837891 10168.265625 0.099016 0.267909 0.958343
8477.911133 4673.055664 10234.017578 0.099016 0.267909 0.958343
3 0 1 2
3 3 4 5
3 6 7 8
3 9 10 11
3 12 13 14
3 15 16 17
3 18 19 20
3 21 22 23
3 24 25 26
3 27 28 29
3 30 31 32
3 33 34 35
3 36 37 38
3 39 40 41
3 42 43 44
3 45 46 47
3 48 49 50
3 51 52 53
3 54 55 56
3 57 58 59
3 60 61 62
3 63 64 65
3 66 67 68
3 69 70 71
3 72 73 74
3 75 76 77
3 78 79 80
3 81 82 83
3 84 85 86
3 87 88 89
3 90 91 92
3 93 94 95
3 96 97 98
3 99 100 101
3 102 103 104
3 105 106 107
3 108 109 110
3 111 112 113
3 114 115 116
3 117 118 119
3 120 121 122
3 123 124 125
3 126 127 128
3 129 130 131
3 132 133 134
3 135 136 137
3 138 139 140
3 141 142 143
3 144 145 146
3 147 148 149
3 150 151 152
3 153 154 155
3 156 157 158
3 159 160 161
3 162 163 164
3 165 166 167
3 168 169 170
3 171 172 173
3 174 175 176
3 177 178 179
3 180 181 182
3 183 184 185
3 186 187 188
3 189 190 191
3 192 193 194
3 195 196 197
3 198 199 200
3 201 202 203
3 204 205 206
3 207 208 209
3 210 211 212
3 213 214 215
3 216 217 218
3 219 220 221
3 222 223 224
3 225 226 227
3 228 229 230
3 231 232 233
3 234 235 236
3 237 238 239
3 240 241 242
3 243 244 245
3 246 247 248
3 249 250 251
3 252 253 254
3 255 256 257
3 258 259 260
3 261 262 263
3 264 265 266
3 267 268 269
3 270 271 272
3 273 274 275
3 276 277 278
3 279 280 281
3 282 283 284
3 285 286 287
3 288 289 290
3 291 292 293
3 294 295 296
3 297 298 299
3 300 301 302
3 303 304 305
3 306 307 308
3 309 310 311
3 312 313 314
3 315 316 317
3 318 319 320
3 321 322 323
3 324 325 326
3 327 328 329
3 330 331 332
3 333 334 335
3 336 337 338
3 339 340 341
3 342 343 344
3 345 346 347
3 348 349 350
3 351 352 353
3 354 355 356
3 357 358 359
3 360 361 362
3 363 364 365
3 366 367 368
3 369 370 371
3 372 373 374
3 375 376 377
3 378 379 380
3 381 382 383
3 384 385 386
3 387 388 389
3 390 391 392
3 393 394 395
3 396 397 398
3 399 400 401
3 402 403 404
3 405 406 407
3 408 409 410
3 411 412 413
3 414 415 416
3 417 418 419
3 420 421 422
3 423 424 425
3 426 427 428
3 429 430 431
3 432 433 434
3 435 436 437
3 438 439 440
3 441 442 443
3 444 445 446
3 447 448 449
3 450 451 452
3 453 454 455
3 456 457 458
3 459 460 461
3 462 463 464
3 465 466 467
3 468 469 470
3 471 472 473
3 474 475 476
3 477 478 479
3 480 481 482
3 483 484 485
3 486 487 488
3 489 490 491
3 492 493 494
3 495 496 497
3 498 499 500
3 501 502 503
3 504 505 506
3 507 508 509
3 510 511 512
3 513 514 515
3 516 517 518
3 519 520 521
3 522 523 524
3 525 526 527
3 528 529 530
3 531 532 533
3 534 535 536
3 537 538 539
3 540 541 542
3 543 544 545
3 546 547 548
3 549 550 551
3 552 553 554
3 555 556 557
3 558 559 560
3 561 562 563
3 564 565 566
3 567 568 569
3 570 571 572
3 573 574 575
3 576 577 578
3 579 580 581
3 582 583 584
3 585 586 587
3 588 589 590
3 591 592 593
3 594 595 596
3 597 598 599
3 600 601 602
3 603 604 605
3 606 607 608
3 609 610 611
3 612 613 614
3 615 616 617
3 618 619 620
3 621 622 623
3 624 625 626
3 627 628 629
3 630 631 632
3 633 634 635
