ply
format ascii 1.0
comment Created by Blender 2.80 (sub 75) - www.blender.org, source file: 'downsample_ccf.blend'
element vertex 366
property float x
property float y
property float z
property float nx
property float ny
property float nz
element face 122
property list uchar uint vertex_indices
end_header
9818.784180 3623.656006 1829.054199 -0.716704 -0.104011 -0.689578
9473.981445 4634.463379 2034.958252 -0.716704 -0.104011 -0.689578
9796.820312 4143.506836 1773.471802 -0.716704 -0.104011 -0.689578
9473.981445 4634.463379 2034.958252 -0.748238 -0.147518 -0.646822
9721.190430 4353.506348 1813.065918 -0.748238 -0.147518 -0.646822
9796.820312 4143.506836 1773.471802 -0.748238 -0.147518 -0.646822
9721.190430 4353.506348 1813.065918 0.912931 0.363696 -0.185155
9590.282227 4757.170898 1960.514893 0.912931 0.363696 -0.185155
9796.820312 4143.506836 1773.471802 0.912931 0.363696 -0.185155
9721.190430 4353.506348 1813.065918 -0.604497 0.092956 -0.791166
9473.981445 4634.463379 2034.958252 -0.604497 0.092956 -0.791166
9590.282227 4757.170898 1960.514893 -0.604497 0.092956 -0.791166
9818.784180 3623.656006 1829.054199 0.985490 0.023667 -0.168075
9796.820312 4143.506836 1773.471802 0.985490 0.023667 -0.168075
9835.712891 3822.626221 1956.330811 0.985490 0.023667 -0.168075
9796.820312 4143.506836 1773.471802 0.969193 0.199660 0.144224
9643.935547 4646.093750 2105.094727 0.969193 0.199660 0.144224
9835.712891 3822.626221 1956.330811 0.969193 0.199660 0.144224
9816.214844 3129.803223 1969.387207 0.995845 -0.029649 -0.086105
9818.784180 3623.656006 1829.054199 0.995845 -0.029649 -0.086105
9835.712891 3822.626221 1956.330811 0.995845 -0.029649 -0.086105
9590.282227 4757.170898 1960.514893 0.936148 0.341090 -0.085352
9643.935547 4646.093750 2105.094727 0.936148 0.341090 -0.085352
9796.820312 4143.506836 1773.471802 0.936148 0.341090 -0.085352
9818.784180 3623.656006 1829.054199 -0.622169 -0.210995 -0.753915
9816.214844 3129.803223 1969.387207 -0.622169 -0.210995 -0.753915
9686.917969 2715.526855 2192.031494 -0.622169 -0.210995 -0.753915
9818.784180 3623.656006 1829.054199 -0.765910 -0.139636 -0.627602
9686.917969 2715.526855 2192.031494 -0.765910 -0.139636 -0.627602
9525.833008 3558.914795 2200.969238 -0.765910 -0.139636 -0.627602
9473.981445 4634.463379 2034.958252 -0.767043 -0.133831 -0.627483
9818.784180 3623.656006 1829.054199 -0.767043 -0.133831 -0.627483
9525.833008 3558.914795 2200.969238 -0.767043 -0.133831 -0.627483
9643.935547 4646.093750 2105.094727 0.947819 0.292375 -0.127109
9590.282227 4757.170898 1960.514893 0.947819 0.292375 -0.127109
9484.003906 5166.743164 2110.120850 0.947819 0.292375 -0.127109
9473.981445 4634.463379 2034.958252 -0.616294 0.111132 -0.779636
9377.239258 5229.504395 2196.251465 -0.616294 0.111132 -0.779636
9590.282227 4757.170898 1960.514893 -0.616294 0.111132 -0.779636
9590.282227 4757.170898 1960.514893 -0.566267 0.149157 -0.810613
9377.239258 5229.504395 2196.251465 -0.566267 0.149157 -0.810613
9484.003906 5166.743164 2110.120850 -0.566267 0.149157 -0.810613
9686.917969 2715.526855 2192.031494 -0.652471 -0.190548 -0.733466
9816.214844 3129.803223 1969.387207 -0.652471 -0.190548 -0.733466
9772.330078 2725.801270 2113.382080 -0.652471 -0.190548 -0.733466
9835.712891 3822.626221 1956.330811 0.884109 0.124536 0.450380
9643.935547 4646.093750 2105.094727 0.884109 0.124536 0.450380
9535.657227 4460.131348 2369.069092 0.884109 0.124536 0.450380
9368.541992 5436.621094 2170.325439 -0.665173 -0.120181 -0.736954
9484.003906 5166.743164 2110.120850 -0.665173 -0.120181 -0.736954
9377.239258 5229.504395 2196.251465 -0.665173 -0.120181 -0.736954
8950.316406 5835.343750 2226.548584 0.036121 0.519511 -0.853700
9083.175781 5607.087402 2093.266846 0.036121 0.519511 -0.853700
8933.286133 5669.476562 2124.891113 0.036121 0.519511 -0.853700
9772.330078 2725.801270 2113.382080 0.994659 -0.101647 0.017950
9816.214844 3129.803223 1969.387207 0.994659 -0.101647 0.017950
9745.432617 2524.326904 2462.932129 0.994659 -0.101647 0.017950
9285.892578 5415.665527 2235.751465 -0.284917 -0.747956 -0.599487
9083.175781 5607.087402 2093.266846 -0.284917 -0.747956 -0.599487
9368.541992 5436.621094 2170.325439 -0.284917 -0.747956 -0.599487
9083.175781 5607.087402 2093.266846 0.531106 0.636024 -0.559822
8950.316406 5835.343750 2226.548584 0.531106 0.636024 -0.559822
9368.541992 5436.621094 2170.325439 0.531106 0.636024 -0.559822
9835.712891 3822.626221 1956.330811 0.967358 -0.022467 0.252417
9716.478516 3104.260986 2349.341797 0.967358 -0.022467 0.252417
9816.214844 3129.803223 1969.387207 0.967358 -0.022467 0.252417
9083.175781 5607.087402 2093.266846 -0.422353 -0.784832 -0.453494
9285.892578 5415.665527 2235.751465 -0.422353 -0.784832 -0.453494
8933.286133 5669.476562 2124.891113 -0.422353 -0.784832 -0.453494
9772.330078 2725.801270 2113.382080 -0.492965 -0.614772 -0.615664
9746.845703 2561.687744 2297.663330 -0.492965 -0.614772 -0.615664
9686.917969 2715.526855 2192.031494 -0.492965 -0.614772 -0.615664
9368.541992 5436.621094 2170.325439 -0.596292 -0.124315 -0.793083
9377.239258 5229.504395 2196.251465 -0.596292 -0.124315 -0.793083
9285.892578 5415.665527 2235.751465 -0.596292 -0.124315 -0.793083
9746.845703 2561.687744 2297.663330 0.980870 -0.191510 -0.034906
9772.330078 2725.801270 2113.382080 0.980870 -0.191510 -0.034906
9745.432617 2524.326904 2462.932129 0.980870 -0.191510 -0.034906
8933.286133 5669.476562 2124.891113 -0.949370 0.229175 -0.214885
8920.650391 5938.781250 2467.930664 -0.949370 0.229175 -0.214885
8950.316406 5835.343750 2226.548584 -0.949370 0.229175 -0.214885
9473.981445 4634.463379 2034.958252 -0.979529 -0.182361 0.085253
9418.169922 5120.882812 2434.182861 -0.979529 -0.182361 0.085253
9377.239258 5229.504395 2196.251465 -0.979529 -0.182361 0.085253
9716.478516 3104.260986 2349.341797 0.960863 0.098674 0.258855
9745.432617 2524.326904 2462.932129 0.960863 0.098674 0.258855
9816.214844 3129.803223 1969.387207 0.960863 0.098674 0.258855
9470.142578 2816.976807 2676.830811 -0.912348 -0.170311 -0.372312
9525.833008 3558.914795 2200.969238 -0.912348 -0.170311 -0.372312
9686.917969 2715.526855 2192.031494 -0.912348 -0.170311 -0.372312
9535.657227 4460.131348 2369.069092 0.899967 0.083400 0.427906
9643.935547 4646.093750 2105.094727 0.899967 0.083400 0.427906
9466.766602 5213.092773 2367.204834 0.899967 0.083400 0.427906
9535.657227 4460.131348 2369.069092 0.877111 0.110171 0.467481
9716.478516 3104.260986 2349.341797 0.877111 0.110171 0.467481
9835.712891 3822.626221 1956.330811 0.877111 0.110171 0.467481
9470.142578 2816.976807 2676.830811 -0.965978 -0.084307 -0.244497
9473.981445 4634.463379 2034.958252 -0.965978 -0.084307 -0.244497
9525.833008 3558.914795 2200.969238 -0.965978 -0.084307 -0.244497
9377.239258 5229.504395 2196.251465 -0.900480 -0.432798 -0.042676
9418.169922 5120.882812 2434.182861 -0.900480 -0.432798 -0.042676
9285.892578 5415.665527 2235.751465 -0.900480 -0.432798 -0.042676
9643.935547 4646.093750 2105.094727 0.955888 0.293519 0.011173
9484.003906 5166.743164 2110.120850 0.955888 0.293519 0.011173
9466.766602 5213.092773 2367.204834 0.955888 0.293519 0.011173
9470.142578 2816.976807 2676.830811 -0.823902 -0.501806 -0.263394
9686.917969 2715.526855 2192.031494 -0.823902 -0.501806 -0.263394
9746.845703 2561.687744 2297.663330 -0.823902 -0.501806 -0.263394
9745.432617 2524.326904 2462.932129 0.948433 0.105872 0.298774
9716.478516 3104.260986 2349.341797 0.948433 0.105872 0.298774
9692.258789 2545.349365 2624.278564 0.948433 0.105872 0.298774
9473.981445 4634.463379 2034.958252 -0.995194 -0.095127 -0.023224
9482.334961 4459.861328 2392.170410 -0.995194 -0.095127 -0.023224
9418.169922 5120.882812 2434.182861 -0.995194 -0.095127 -0.023224
9368.541992 5436.621094 2170.325439 0.918568 0.395144 -0.009651
9466.766602 5213.092773 2367.204834 0.918568 0.395144 -0.009651
9484.003906 5166.743164 2110.120850 0.918568 0.395144 -0.009651
9285.892578 5415.665527 2235.751465 -0.607158 -0.634694 0.478040
9236.208008 5605.009766 2424.039551 -0.607158 -0.634694 0.478040
8933.286133 5669.476562 2124.891113 -0.607158 -0.634694 0.478040
8950.316406 5835.343750 2226.548584 0.611228 0.694617 -0.379352
9180.346680 5753.311523 2446.977051 0.611228 0.694617 -0.379352
9368.541992 5436.621094 2170.325439 0.611228 0.694617 -0.379352
9466.766602 5213.092773 2367.204834 0.885530 0.457961 0.078151
9368.541992 5436.621094 2170.325439 0.885530 0.457961 0.078151
9180.346680 5753.311523 2446.977051 0.885530 0.457961 0.078151
8933.286133 5669.476562 2124.891113 -0.606469 -0.636105 0.477038
9236.208008 5605.009766 2424.039551 -0.606469 -0.636105 0.477038
8920.650391 5938.781250 2467.930664 -0.606469 -0.636105 0.477038
9716.478516 3104.260986 2349.341797 0.743185 0.089465 0.663078
9535.657227 4460.131348 2369.069092 0.743185 0.089465 0.663078
9495.176758 3433.701416 2552.929688 0.743185 0.089465 0.663078
9180.346680 5753.311523 2446.977051 0.603677 0.707994 -0.366494
8950.316406 5835.343750 2226.548584 0.603677 0.707994 -0.366494
9038.666992 5900.060059 2497.095947 0.603677 0.707994 -0.366494
8950.316406 5835.343750 2226.548584 0.366702 0.870600 -0.328003
8920.650391 5938.781250 2467.930664 0.366702 0.870600 -0.328003
9038.666992 5900.060059 2497.095947 0.366702 0.870600 -0.328003
9470.142578 2816.976807 2676.830811 -0.965737 0.088234 0.244061
9495.176758 3433.701416 2552.929688 -0.965737 0.088234 0.244061
9473.981445 4634.463379 2034.958252 -0.965737 0.088234 0.244061
9495.176758 3433.701416 2552.929688 -0.999779 -0.009583 0.018696
9482.334961 4459.861328 2392.170410 -0.999779 -0.009583 0.018696
9473.981445 4634.463379 2034.958252 -0.999779 -0.009583 0.018696
9535.657227 4460.131348 2369.069092 0.392581 0.147141 0.907871
9482.334961 4459.861328 2392.170410 0.392581 0.147141 0.907871
9495.176758 3433.701416 2552.929688 0.392581 0.147141 0.907871
9418.169922 5120.882812 2434.182861 0.397542 -0.019716 0.917372
9482.334961 4459.861328 2392.170410 0.397542 -0.019716 0.917372
9535.657227 4460.131348 2369.069092 0.397542 -0.019716 0.917372
9466.766602 5213.092773 2367.204834 0.758355 0.070988 0.647964
9418.169922 5120.882812 2434.182861 0.758355 0.070988 0.647964
9535.657227 4460.131348 2369.069092 0.758355 0.070988 0.647964
9418.169922 5120.882812 2434.182861 -0.931696 -0.348002 0.104103
9236.208008 5605.009766 2424.039551 -0.931696 -0.348002 0.104103
9285.892578 5415.665527 2235.751465 -0.931696 -0.348002 0.104103
9745.432617 2524.326904 2462.932129 -0.733925 -0.661137 -0.155732
9692.258789 2545.349365 2624.278564 -0.733925 -0.661137 -0.155732
9746.845703 2561.687744 2297.663330 -0.733925 -0.661137 -0.155732
9236.208008 5605.009766 2424.039551 0.597576 0.240627 0.764854
9418.169922 5120.882812 2434.182861 0.597576 0.240627 0.764854
9466.766602 5213.092773 2367.204834 0.597576 0.240627 0.764854
9466.766602 5213.092773 2367.204834 -0.044901 -0.169193 0.984560
9180.346680 5753.311523 2446.977051 -0.044901 -0.169193 0.984560
9236.208008 5605.009766 2424.039551 -0.044901 -0.169193 0.984560
9236.208008 5605.009766 2424.039551 -0.040125 -0.167471 0.985060
9180.346680 5753.311523 2446.977051 -0.040125 -0.167471 0.985060
8920.650391 5938.781250 2467.930664 -0.040125 -0.167471 0.985060
8920.650391 5938.781250 2467.930664 -0.371985 -0.600796 0.707582
9180.346680 5753.311523 2446.977051 -0.371985 -0.600796 0.707582
9038.666992 5900.060059 2497.095947 -0.371985 -0.600796 0.707582
9470.142578 2816.976807 2676.830811 -0.779085 -0.606019 -0.160523
9746.845703 2561.687744 2297.663330 -0.779085 -0.606019 -0.160523
9692.258789 2545.349365 2624.278564 -0.779085 -0.606019 -0.160523
9716.478516 3104.260986 2349.341797 0.832970 0.214753 0.509943
9557.377930 2742.235352 2761.686035 0.832970 0.214753 0.509943
9692.258789 2545.349365 2624.278564 0.832970 0.214753 0.509943
9495.176758 3433.701416 2552.929688 0.822296 0.230982 0.520073
9557.377930 2742.235352 2761.686035 0.822296 0.230982 0.520073
9716.478516 3104.260986 2349.341797 0.822296 0.230982 0.520073
9489.390625 2968.649658 2716.603760 -0.980193 0.076488 0.182677
9495.176758 3433.701416 2552.929688 -0.980193 0.076488 0.182677
9470.142578 2816.976807 2676.830811 -0.980193 0.076488 0.182677
9470.142578 2816.976807 2676.830811 -0.740512 -0.643210 0.194736
9692.258789 2545.349365 2624.278564 -0.740512 -0.643210 0.194736
9557.377930 2742.235352 2761.686035 -0.740512 -0.643210 0.194736
9557.377930 2742.235352 2761.686035 0.419313 0.296745 0.857974
9495.176758 3433.701416 2552.929688 0.419313 0.296745 0.857974
9489.390625 2968.649658 2716.603760 0.419313 0.296745 0.857974
9470.142578 2816.976807 2676.830811 -0.731110 -0.084741 0.676976
9557.377930 2742.235352 2761.686035 -0.731110 -0.084741 0.676976
9489.390625 2968.649658 2716.603760 -0.731110 -0.084741 0.676976
9597.293945 2708.268311 8641.577148 -0.636392 -0.659770 -0.399635
9703.246094 2526.147461 8773.524414 -0.636392 -0.659770 -0.399635
9476.583984 2831.737793 8629.959961 -0.636392 -0.659770 -0.399635
9476.583984 2831.737793 8629.959961 0.381785 0.290703 -0.877344
9492.239258 3430.576172 8835.194336 0.381785 0.290703 -0.877344
9597.293945 2708.268311 8641.577148 0.381785 0.290703 -0.877344
9492.239258 3430.576172 8835.194336 0.820423 0.256322 -0.511082
9672.822266 3090.333252 8954.436523 0.820423 0.256322 -0.511082
9597.293945 2708.268311 8641.577148 0.820423 0.256322 -0.511082
9690.027344 2625.814209 9157.913086 -0.498829 -0.842972 0.201417
9703.246094 2526.147461 8773.524414 -0.498829 -0.842972 0.201417
9761.568359 2553.479248 9032.354492 -0.498829 -0.842972 0.201417
9703.246094 2526.147461 8773.524414 -0.823044 -0.556033 0.115868
9690.027344 2625.814209 9157.913086 -0.823044 -0.556033 0.115868
9476.583984 2831.737793 8629.959961 -0.823044 -0.556033 0.115868
9476.583984 2831.737793 8629.959961 -0.926558 -0.257575 0.274128
9690.027344 2625.814209 9157.913086 -0.926558 -0.257575 0.274128
9487.152344 3112.774414 8929.748047 -0.926558 -0.257575 0.274128
9476.583984 2831.737793 8629.959961 -0.999660 0.020710 0.015826
9487.152344 3112.774414 8929.748047 -0.999660 0.020710 0.015826
9492.239258 3430.576172 8835.194336 -0.999660 0.020710 0.015826
9703.246094 2526.147461 8773.524414 0.876499 0.189209 -0.442661
9597.293945 2708.268311 8641.577148 0.876499 0.189209 -0.442661
9672.822266 3090.333252 8954.436523 0.876499 0.189209 -0.442661
9573.589844 3950.729736 9011.925781 0.767723 0.095230 -0.633666
9492.239258 3430.576172 8835.194336 0.767723 0.095230 -0.633666
9487.904297 4429.066895 8979.999023 0.767723 0.095230 -0.633666
9097.049805 5848.482422 8897.034180 -0.091216 -0.308538 -0.946828
9235.464844 5629.118164 8955.182617 -0.091216 -0.308538 -0.946828
8938.732422 5952.400879 8878.422852 -0.091216 -0.308538 -0.946828
9573.589844 3950.729736 9011.925781 0.702876 0.127819 -0.699734
9672.822266 3090.333252 8954.436523 0.702876 0.127819 -0.699734
9492.239258 3430.576172 8835.194336 0.702876 0.127819 -0.699734
9449.500000 5254.156250 8984.280273 0.504429 0.223209 -0.834104
9406.041992 5206.916992 8945.357422 0.504429 0.223209 -0.834104
9235.464844 5629.118164 8955.182617 0.504429 0.223209 -0.834104
9492.239258 3430.576172 8835.194336 -0.998942 0.002324 -0.045931
9487.152344 3112.774414 8929.748047 -0.998942 0.002324 -0.045931
9487.904297 4429.066895 8979.999023 -0.998942 0.002324 -0.045931
9257.476562 5436.691406 9152.743164 -0.900142 -0.357896 -0.248304
9235.464844 5629.118164 8955.182617 -0.900142 -0.357896 -0.248304
9406.041992 5206.916992 8945.357422 -0.900142 -0.357896 -0.248304
9235.464844 5629.118164 8955.182617 -0.540201 -0.628666 -0.559430
8920.433594 5751.998047 9121.297852 -0.540201 -0.628666 -0.559430
8938.732422 5952.400879 8878.422852 -0.540201 -0.628666 -0.559430
8938.732422 5952.400879 8878.422852 0.518236 0.827922 0.214421
9043.975586 5822.573242 9125.350586 0.518236 0.827922 0.214421
9097.049805 5848.482422 8897.034180 0.518236 0.827922 0.214421
9449.500000 5254.156250 8984.280273 0.476709 0.026748 -0.878654
9573.589844 3950.729736 9011.925781 0.476709 0.026748 -0.878654
9487.904297 4429.066895 8979.999023 0.476709 0.026748 -0.878654
9487.904297 4429.066895 8979.999023 0.646007 0.034026 -0.762573
9406.041992 5206.916992 8945.357422 0.646007 0.034026 -0.762573
9449.500000 5254.156250 8984.280273 0.646007 0.034026 -0.762573
9761.568359 2553.479248 9032.354492 -0.064329 -0.880114 0.470385
9744.289062 2646.400391 9203.851562 -0.064329 -0.880114 0.470385
9690.027344 2625.814209 9157.913086 -0.064329 -0.880114 0.470385
9761.568359 2553.479248 9032.354492 0.964829 0.126009 -0.230711
9703.246094 2526.147461 8773.524414 0.964829 0.126009 -0.230711
9672.822266 3090.333252 8954.436523 0.964829 0.126009 -0.230711
9235.464844 5629.118164 8955.182617 0.851978 0.518717 -0.071172
9097.049805 5848.482422 8897.034180 0.851978 0.518717 -0.071172
9397.891602 5396.646973 9205.242188 0.851978 0.518717 -0.071172
9257.476562 5436.691406 9152.743164 -0.868133 -0.490004 -0.079004
9406.041992 5206.916992 8945.357422 -0.868133 -0.490004 -0.079004
9347.722656 5276.912598 9152.067383 -0.868133 -0.490004 -0.079004
9761.568359 2553.479248 9032.354492 0.893032 0.083447 -0.442189
9672.822266 3090.333252 8954.436523 0.893032 0.083447 -0.442189
9848.343750 3617.400635 9408.378906 0.893032 0.083447 -0.442189
9471.884766 4517.519043 9315.293945 -0.998827 0.002417 -0.048359
9487.904297 4429.066895 8979.999023 -0.998827 0.002417 -0.048359
9487.152344 3112.774414 8929.748047 -0.998827 0.002417 -0.048359
9449.500000 5254.156250 8984.280273 0.846292 0.069367 -0.528184
9848.343750 3617.400635 9408.378906 0.846292 0.069367 -0.528184
9573.589844 3950.729736 9011.925781 0.846292 0.069367 -0.528184
9235.464844 5629.118164 8955.182617 0.866785 0.486158 -0.111058
9397.891602 5396.646973 9205.242188 0.866785 0.486158 -0.111058
9449.500000 5254.156250 8984.280273 0.866785 0.486158 -0.111058
9097.049805 5848.482422 8897.034180 0.723593 0.646570 0.241578
9043.975586 5822.573242 9125.350586 0.723593 0.646570 0.241578
9397.891602 5396.646973 9205.242188 0.723593 0.646570 0.241578
9672.822266 3090.333252 8954.436523 0.863250 0.132114 -0.487180
9573.589844 3950.729736 9011.925781 0.863250 0.132114 -0.487180
9848.343750 3617.400635 9408.378906 0.863250 0.132114 -0.487180
9235.464844 5629.118164 8955.182617 -0.539701 -0.632333 -0.555769
9257.476562 5436.691406 9152.743164 -0.539701 -0.632333 -0.555769
8920.433594 5751.998047 9121.297852 -0.539701 -0.632333 -0.555769
9043.975586 5822.573242 9125.350586 -0.031071 0.879174 0.475487
8938.732422 5952.400879 8878.422852 -0.031071 0.879174 0.475487
8924.005859 5761.397949 9230.624023 -0.031071 0.879174 0.475487
8920.433594 5751.998047 9121.297852 -0.992798 0.117703 0.022320
8924.005859 5761.397949 9230.624023 -0.992798 0.117703 0.022320
8938.732422 5952.400879 8878.422852 -0.992798 0.117703 0.022320
9487.152344 3112.774414 8929.748047 -0.869056 -0.139698 0.474579
9690.027344 2625.814209 9157.913086 -0.869056 -0.139698 0.474579
9471.884766 4517.519043 9315.293945 -0.869056 -0.139698 0.474579
9487.904297 4429.066895 8979.999023 -0.994224 -0.105510 -0.019668
9471.884766 4517.519043 9315.293945 -0.994224 -0.105510 -0.019668
9406.041992 5206.916992 8945.357422 -0.994224 -0.105510 -0.019668
9471.884766 4517.519043 9315.293945 -0.958558 -0.200278 -0.202622
9347.722656 5276.912598 9152.067383 -0.958558 -0.200278 -0.202622
9406.041992 5206.916992 8945.357422 -0.958558 -0.200278 -0.202622
9713.830078 4417.089355 9548.933594 0.949485 0.313187 0.019801
9449.500000 5254.156250 8984.280273 0.949485 0.313187 0.019801
9397.891602 5396.646973 9205.242188 0.949485 0.313187 0.019801
8920.433594 5751.998047 9121.297852 -0.657729 -0.723854 -0.208395
9257.476562 5436.691406 9152.743164 -0.657729 -0.723854 -0.208395
8981.979492 5650.165039 9280.762695 -0.657729 -0.723854 -0.208395
8920.433594 5751.998047 9121.297852 -0.896839 -0.437269 0.066901
8981.979492 5650.165039 9280.762695 -0.896839 -0.437269 0.066901
8924.005859 5761.397949 9230.624023 -0.896839 -0.437269 0.066901
9744.289062 2646.400391 9203.851562 0.938592 -0.254810 0.232630
9761.568359 2553.479248 9032.354492 0.938592 -0.254810 0.232630
9774.714844 2872.407227 9328.647461 0.938592 -0.254810 0.232630
9848.343750 3617.400635 9408.378906 0.936302 0.145315 -0.319720
9449.500000 5254.156250 8984.280273 0.936302 0.145315 -0.319720
9804.483398 4158.800781 9526.003906 0.936302 0.145315 -0.319720
9347.722656 5276.912598 9152.067383 -0.397399 -0.228217 0.888815
9397.891602 5396.646973 9205.242188 -0.397399 -0.228217 0.888815
9257.476562 5436.691406 9152.743164 -0.397399 -0.228217 0.888815
9471.884766 4517.519043 9315.293945 -0.790874 -0.140749 0.595573
9690.027344 2625.814209 9157.913086 -0.790874 -0.140749 0.595573
9774.714844 2872.407227 9328.647461 -0.790874 -0.140749 0.595573
8981.979492 5650.165039 9280.762695 -0.398747 -0.791926 0.462443
9257.476562 5436.691406 9152.743164 -0.398747 -0.791926 0.462443
9397.891602 5396.646973 9205.242188 -0.398747 -0.791926 0.462443
8981.979492 5650.165039 9280.762695 0.443261 0.506982 0.739249
9397.891602 5396.646973 9205.242188 0.443261 0.506982 0.739249
9043.975586 5822.573242 9125.350586 0.443261 0.506982 0.739249
9744.289062 2646.400391 9203.851562 -0.520483 -0.357983 0.775207
9774.714844 2872.407227 9328.647461 -0.520483 -0.357983 0.775207
9690.027344 2625.814209 9157.913086 -0.520483 -0.357983 0.775207
9043.975586 5822.573242 9125.350586 0.383887 0.538265 0.750268
8924.005859 5761.397949 9230.624023 0.383887 0.538265 0.750268
8981.979492 5650.165039 9280.762695 0.383887 0.538265 0.750268
9848.343750 3617.400635 9408.378906 0.991988 -0.105480 0.069524
9774.714844 2872.407227 9328.647461 0.991988 -0.105480 0.069524
9761.568359 2553.479248 9032.354492 0.991988 -0.105480 0.069524
9347.722656 5276.912598 9152.067383 -0.718750 0.031770 0.694543
9471.884766 4517.519043 9315.293945 -0.718750 0.031770 0.694543
9580.228516 4777.224121 9415.534180 -0.718750 0.031770 0.694543
9580.228516 4777.224121 9415.534180 -0.366651 0.200502 0.908496
9713.830078 4417.089355 9548.933594 -0.366651 0.200502 0.908496
9397.891602 5396.646973 9205.242188 -0.366651 0.200502 0.908496
9397.891602 5396.646973 9205.242188 -0.739426 0.010871 0.673150
9347.722656 5276.912598 9152.067383 -0.739426 0.010871 0.673150
9580.228516 4777.224121 9415.534180 -0.739426 0.010871 0.673150
9804.483398 4158.800781 9526.003906 0.943878 0.327416 0.043520
9449.500000 5254.156250 8984.280273 0.943878 0.327416 0.043520
9713.830078 4417.089355 9548.933594 0.943878 0.327416 0.043520
9826.756836 3472.558105 9519.642578 0.992921 -0.104228 0.056959
9774.714844 2872.407227 9328.647461 0.992921 -0.104228 0.056959
9848.343750 3617.400635 9408.378906 0.992921 -0.104228 0.056959
9771.877930 4086.342041 9608.410156 -0.787634 -0.140116 0.600000
9471.884766 4517.519043 9315.293945 -0.787634 -0.140116 0.600000
9774.714844 2872.407227 9328.647461 -0.787634 -0.140116 0.600000
9771.877930 4086.342041 9608.410156 -0.691609 0.009770 0.722206
9580.228516 4777.224121 9415.534180 -0.691609 0.009770 0.722206
9471.884766 4517.519043 9315.293945 -0.691609 0.009770 0.722206
9771.877930 4086.342041 9608.410156 -0.698097 0.006230 0.715976
9713.830078 4417.089355 9548.933594 -0.698097 0.006230 0.715976
9580.228516 4777.224121 9415.534180 -0.698097 0.006230 0.715976
9771.877930 4086.342041 9608.410156 -0.692576 -0.163531 0.702564
9774.714844 2872.407227 9328.647461 -0.692576 -0.163531 0.702564
9826.756836 3472.558105 9519.642578 -0.692576 -0.163531 0.702564
9804.483398 4158.800781 9526.003906 0.973392 0.029487 0.227240
9826.756836 3472.558105 9519.642578 0.973392 0.029487 0.227240
9848.343750 3617.400635 9408.378906 0.973392 0.029487 0.227240
9804.483398 4158.800781 9526.003906 0.813084 0.238219 0.531174
9713.830078 4417.089355 9548.933594 0.813084 0.238219 0.531174
9771.877930 4086.342041 9608.410156 0.813084 0.238219 0.531174
9826.756836 3472.558105 9519.642578 0.921407 0.026312 0.387707
9804.483398 4158.800781 9526.003906 0.921407 0.026312 0.387707
9771.877930 4086.342041 9608.410156 0.921407 0.026312 0.387707
3 0 1 2
3 3 4 5
3 6 7 8
3 9 10 11
3 12 13 14
3 15 16 17
3 18 19 20
3 21 22 23
3 24 25 26
3 27 28 29
3 30 31 32
3 33 34 35
3 36 37 38
3 39 40 41
3 42 43 44
3 45 46 47
3 48 49 50
3 51 52 53
3 54 55 56
3 57 58 59
3 60 61 62
3 63 64 65
3 66 67 68
3 69 70 71
3 72 73 74
3 75 76 77
3 78 79 80
3 81 82 83
3 84 85 86
3 87 88 89
3 90 91 92
3 93 94 95
3 96 97 98
3 99 100 101
3 102 103 104
3 105 106 107
3 108 109 110
3 111 112 113
3 114 115 116
3 117 118 119
3 120 121 122
3 123 124 125
3 126 127 128
3 129 130 131
3 132 133 134
3 135 136 137
3 138 139 140
3 141 142 143
3 144 145 146
3 147 148 149
3 150 151 152
3 153 154 155
3 156 157 158
3 159 160 161
3 162 163 164
3 165 166 167
3 168 169 170
3 171 172 173
3 174 175 176
3 177 178 179
3 180 181 182
3 183 184 185
3 186 187 188
3 189 190 191
3 192 193 194
3 195 196 197
3 198 199 200
3 201 202 203
3 204 205 206
3 207 208 209
3 210 211 212
3 213 214 215
3 216 217 218
3 219 220 221
3 222 223 224
3 225 226 227
3 228 229 230
3 231 232 233
3 234 235 236
3 237 238 239
3 240 241 242
3 243 244 245
3 246 247 248
3 249 250 251
3 252 253 254
3 255 256 257
3 258 259 260
3 261 262 263
3 264 265 266
3 267 268 269
3 270 271 272
3 273 274 275
3 276 277 278
3 279 280 281
3 282 283 284
3 285 286 287
3 288 289 290
3 291 292 293
3 294 295 296
3 297 298 299
3 300 301 302
3 303 304 305
3 306 307 308
3 309 310 311
3 312 313 314
3 315 316 317
3 318 319 320
3 321 322 323
3 324 325 326
3 327 328 329
3 330 331 332
3 333 334 335
3 336 337 338
3 339 340 341
3 342 343 344
3 345 346 347
3 348 349 350
3 351 352 353
3 354 355 356
3 357 358 359
3 360 361 362
3 363 364 365
