ply
format ascii 1.0
comment Created by Blender 2.80 (sub 75) - www.blender.org, source file: 'downsample_ccf.blend'
element vertex 156
property float x
property float y
property float z
property float nx
property float ny
property float nz
element face 52
property list uchar uint vertex_indices
end_header
7871.776367 3403.417480 4050.468262 -0.107459 -0.188021 -0.976269
7741.363281 3390.063721 4067.394775 -0.107459 -0.188021 -0.976269
7910.233887 3686.566162 3991.703125 -0.107459 -0.188021 -0.976269
7995.222168 3725.899170 4073.282959 0.727384 -0.232772 -0.645546
7871.776367 3403.417480 4050.468262 0.727384 -0.232772 -0.645546
7910.233887 3686.566162 3991.703125 0.727384 -0.232772 -0.645546
7964.402832 4061.517822 4242.284180 0.518488 0.422079 -0.743653
7995.222168 3725.899170 4073.282959 0.518488 0.422079 -0.743653
7910.233887 3686.566162 3991.703125 0.518488 0.422079 -0.743653
7741.363281 3390.063721 4067.394775 0.047231 -0.928409 -0.368545
7871.776367 3403.417480 4050.468262 0.047231 -0.928409 -0.368545
7482.536621 3252.073730 4381.838379 0.047231 -0.928409 -0.368545
7910.233887 3686.566162 3991.703125 -0.632374 0.167059 -0.756436
7741.363281 3390.063721 4067.394775 -0.632374 0.167059 -0.756436
7403.776367 3293.675537 4328.327148 -0.632374 0.167059 -0.756436
7910.233887 3686.566162 3991.703125 -0.695548 0.465970 -0.546886
7567.925293 3848.361816 4564.919434 -0.695548 0.465970 -0.546886
7964.402832 4061.517822 4242.284180 -0.695548 0.465970 -0.546886
7567.925293 3848.361816 4564.919434 -0.708745 0.443683 -0.548476
7910.233887 3686.566162 3991.703125 -0.708745 0.443683 -0.548476
7403.776367 3293.675537 4328.327148 -0.708745 0.443683 -0.548476
7995.222168 3725.899170 4073.282959 0.996124 0.087630 0.007632
7964.402832 4061.517822 4242.284180 0.996124 0.087630 0.007632
7959.784180 4102.693359 4372.343750 0.996124 0.087630 0.007632
7403.776367 3293.675537 4328.327148 -0.127662 -0.865262 -0.484792
7741.363281 3390.063721 4067.394775 -0.127662 -0.865262 -0.484792
7482.536621 3252.073730 4381.838379 -0.127662 -0.865262 -0.484792
7877.417969 4047.901123 4481.049316 0.796945 -0.340375 0.499023
7871.776367 3403.417480 4050.468262 0.796945 -0.340375 0.499023
7995.222168 3725.899170 4073.282959 0.796945 -0.340375 0.499023
7877.417969 4047.901123 4481.049316 0.827041 -0.299692 0.475592
7995.222168 3725.899170 4073.282959 0.827041 -0.299692 0.475592
7959.784180 4102.693359 4372.343750 0.827041 -0.299692 0.475592
7964.402832 4061.517822 4242.284180 -0.730659 0.643008 -0.229517
7877.417969 4047.901123 4481.049316 -0.730659 0.643008 -0.229517
7959.784180 4102.693359 4372.343750 -0.730659 0.643008 -0.229517
7403.776367 3293.675537 4328.327148 -0.344814 0.452762 -0.822259
7173.212402 3433.830078 4502.187500 -0.344814 0.452762 -0.822259
7567.925293 3848.361816 4564.919434 -0.344814 0.452762 -0.822259
7482.536621 3252.073730 4381.838379 0.610095 -0.680495 0.405844
7871.776367 3403.417480 4050.468262 0.610095 -0.680495 0.405844
7428.506348 3345.600830 4619.881348 0.610095 -0.680495 0.405844
7403.776367 3293.675537 4328.327148 -0.491977 -0.869267 0.048311
7482.536621 3252.073730 4381.838379 -0.491977 -0.869267 0.048311
7173.212402 3433.830078 4502.187500 -0.491977 -0.869267 0.048311
7877.417969 4047.901123 4481.049316 0.750476 -0.371676 0.546483
7428.506348 3345.600830 4619.881348 0.750476 -0.371676 0.546483
7871.776367 3403.417480 4050.468262 0.750476 -0.371676 0.546483
7964.402832 4061.517822 4242.284180 -0.565126 0.809396 -0.159722
7567.925293 3848.361816 4564.919434 -0.565126 0.809396 -0.159722
7877.417969 4047.901123 4481.049316 -0.565126 0.809396 -0.159722
7428.506348 3345.600830 4619.881348 -0.416866 -0.874235 0.248868
7173.212402 3433.830078 4502.187500 -0.416866 -0.874235 0.248868
7482.536621 3252.073730 4381.838379 -0.416866 -0.874235 0.248868
7428.506348 3345.600830 4619.881348 -0.435148 -0.845202 0.310289
7063.083008 3551.571289 4668.459961 -0.435148 -0.845202 0.310289
7173.212402 3433.830078 4502.187500 -0.435148 -0.845202 0.310289
7173.212402 3433.830078 4502.187500 -0.006037 0.398436 -0.917176
6809.091309 3688.117920 4615.050781 -0.006037 0.398436 -0.917176
7179.477539 3804.751465 4663.280273 -0.006037 0.398436 -0.917176
7567.925293 3848.361816 4564.919434 -0.266935 0.387692 -0.882293
7173.212402 3433.830078 4502.187500 -0.266935 0.387692 -0.882293
7179.477539 3804.751465 4663.280273 -0.266935 0.387692 -0.882293
7063.083008 3551.571289 4668.459961 -0.498940 -0.828006 0.255860
6809.091309 3688.117920 4615.050781 -0.498940 -0.828006 0.255860
7173.212402 3433.830078 4502.187500 -0.498940 -0.828006 0.255860
7428.506348 3345.600830 4619.881348 0.552201 -0.192618 0.811155
7877.417969 4047.901123 4481.049316 0.552201 -0.192618 0.811155
7386.551270 3531.974854 4692.699219 0.552201 -0.192618 0.811155
7386.551270 3531.974854 4692.699219 0.015647 0.366713 0.930203
7877.417969 4047.901123 4481.049316 0.015647 0.366713 0.930203
7567.925293 3848.361816 4564.919434 0.015647 0.366713 0.930203
7063.083008 3551.571289 4668.459961 -0.157113 0.092345 0.983254
7179.477539 3804.751465 4663.280273 -0.157113 0.092345 0.983254
6809.091309 3688.117920 4615.050781 -0.157113 0.092345 0.983254
7428.506348 3345.600830 4619.881348 -0.092000 -0.380274 0.920287
7386.551270 3531.974854 4692.699219 -0.092000 -0.380274 0.920287
7063.083008 3551.571289 4668.459961 -0.092000 -0.380274 0.920287
7386.551270 3531.974854 4692.699219 -0.071414 0.053208 0.996027
7179.477539 3804.751465 4663.280273 -0.071414 0.053208 0.996027
7063.083008 3551.571289 4668.459961 -0.071414 0.053208 0.996027
7567.925293 3848.361816 4564.919434 0.209390 0.260600 0.942467
7179.477539 3804.751465 4663.280273 0.209390 0.260600 0.942467
7386.551270 3531.974854 4692.699219 0.209390 0.260600 0.942467
7137.097168 3805.312988 6712.919922 -0.150269 -0.031305 -0.988149
7379.870117 3445.492432 6687.400391 -0.150269 -0.031305 -0.988149
6815.836914 3667.121582 6766.152344 -0.150269 -0.031305 -0.988149
7521.399414 3824.271729 6785.760742 0.174105 0.186052 -0.966991
7379.870117 3445.492432 6687.400391 0.174105 0.186052 -0.966991
7137.097168 3805.312988 6712.919922 0.174105 0.186052 -0.966991
6815.836914 3667.121582 6766.152344 -0.375758 -0.776608 -0.505653
7379.870117 3445.492432 6687.400391 -0.375758 -0.776608 -0.505653
7470.875977 3297.412354 6847.201660 -0.375758 -0.776608 -0.505653
7470.875977 3297.412354 6847.201660 0.665905 -0.318689 -0.674543
7379.870117 3445.492432 6687.400391 0.665905 -0.318689 -0.674543
7961.411621 4098.239746 6953.102539 0.665905 -0.318689 -0.674543
6815.836914 3667.121582 6766.152344 -0.399558 -0.804334 -0.439774
7470.875977 3297.412354 6847.201660 -0.399558 -0.804334 -0.439774
7307.862793 3312.433838 6967.833984 -0.399558 -0.804334 -0.439774
7961.411621 4098.239746 6953.102539 0.271079 0.145783 -0.951453
7379.870117 3445.492432 6687.400391 0.271079 0.145783 -0.951453
7521.399414 3824.271729 6785.760742 0.271079 0.145783 -0.951453
7961.411621 4098.239746 6953.102539 0.743178 -0.382639 -0.548885
7836.914062 3380.951660 7284.572266 0.743178 -0.382639 -0.548885
7470.875977 3297.412354 6847.201660 0.743178 -0.382639 -0.548885
7116.895996 3503.343506 6858.711914 -0.038852 0.436560 0.898836
7137.097168 3805.312988 6712.919922 -0.038852 0.436560 0.898836
6815.836914 3667.121582 6766.152344 -0.038852 0.436560 0.898836
7116.895996 3503.343506 6858.711914 -0.188258 0.437193 0.879444
7521.399414 3824.271729 6785.760742 -0.188258 0.437193 0.879444
7137.097168 3805.312988 6712.919922 -0.188258 0.437193 0.879444
7307.862793 3312.433838 6967.833984 0.006648 0.501238 0.865284
7116.895996 3503.343506 6858.711914 0.006648 0.501238 0.865284
6815.836914 3667.121582 6766.152344 0.006648 0.501238 0.865284
7961.411621 4098.239746 6953.102539 -0.301293 0.800425 -0.518211
7521.399414 3824.271729 6785.760742 -0.301293 0.800425 -0.518211
7940.571289 4119.167969 6997.544922 -0.301293 0.800425 -0.518211
7116.895996 3503.343506 6858.711914 -0.139078 0.382893 0.913264
7307.862793 3312.433838 6967.833984 -0.139078 0.382893 0.913264
7521.399414 3824.271729 6785.760742 -0.139078 0.382893 0.913264
7470.875977 3297.412354 6847.201660 -0.143675 -0.987057 -0.071240
7477.211426 3279.183594 7086.989258 -0.143675 -0.987057 -0.071240
7307.862793 3312.433838 6967.833984 -0.143675 -0.987057 -0.071240
7470.875977 3297.412354 6847.201660 0.311908 -0.946720 -0.080211
7836.914062 3380.951660 7284.572266 0.311908 -0.946720 -0.080211
7477.211426 3279.183594 7086.989258 0.311908 -0.946720 -0.080211
7307.862793 3312.433838 6967.833984 -0.694073 0.480319 0.536243
7960.434082 3996.266357 7199.957031 -0.694073 0.480319 0.536243
7521.399414 3824.271729 6785.760742 -0.694073 0.480319 0.536243
7521.399414 3824.271729 6785.760742 -0.654703 0.615901 0.438212
7960.434082 3996.266357 7199.957031 -0.654703 0.615901 0.438212
7940.571289 4119.167969 6997.544922 -0.654703 0.615901 0.438212
7960.434082 3996.266357 7199.957031 0.868546 0.456842 0.192157
7961.411621 4098.239746 6953.102539 0.868546 0.456842 0.192157
7940.571289 4119.167969 6997.544922 0.868546 0.456842 0.192157
7795.307129 3437.688477 7382.777344 -0.024298 -0.870049 0.492366
7477.211426 3279.183594 7086.989258 -0.024298 -0.870049 0.492366
7836.914062 3380.951660 7284.572266 -0.024298 -0.870049 0.492366
7307.862793 3312.433838 6967.833984 -0.589518 -0.250172 0.768038
7477.211426 3279.183594 7086.989258 -0.589518 -0.250172 0.768038
7795.307129 3437.688477 7382.777344 -0.589518 -0.250172 0.768038
7795.307129 3437.688477 7382.777344 -0.651079 0.402987 0.643193
7960.434082 3996.266357 7199.957031 -0.651079 0.402987 0.643193
7307.862793 3312.433838 6967.833984 -0.651079 0.402987 0.643193
7973.864258 3674.176758 7372.034668 0.998056 0.056111 0.027131
7961.411621 4098.239746 6953.102539 0.998056 0.056111 0.027131
7960.434082 3996.266357 7199.957031 0.998056 0.056111 0.027131
7836.914062 3380.951660 7284.572266 0.886374 -0.311937 -0.342105
7961.411621 4098.239746 6953.102539 0.886374 -0.311937 -0.342105
7973.864258 3674.176758 7372.034668 0.886374 -0.311937 -0.342105
7795.307129 3437.688477 7382.777344 0.671743 -0.481622 0.562851
7836.914062 3380.951660 7284.572266 0.671743 -0.481622 0.562851
7973.864258 3674.176758 7372.034668 0.671743 -0.481622 0.562851
7973.864258 3674.176758 7372.034668 -0.479801 0.397791 0.782019
7960.434082 3996.266357 7199.957031 -0.479801 0.397791 0.782019
7795.307129 3437.688477 7382.777344 -0.479801 0.397791 0.782019
3 0 1 2
3 3 4 5
3 6 7 8
3 9 10 11
3 12 13 14
3 15 16 17
3 18 19 20
3 21 22 23
3 24 25 26
3 27 28 29
3 30 31 32
3 33 34 35
3 36 37 38
3 39 40 41
3 42 43 44
3 45 46 47
3 48 49 50
3 51 52 53
3 54 55 56
3 57 58 59
3 60 61 62
3 63 64 65
3 66 67 68
3 69 70 71
3 72 73 74
3 75 76 77
3 78 79 80
3 81 82 83
3 84 85 86
3 87 88 89
3 90 91 92
3 93 94 95
3 96 97 98
3 99 100 101
3 102 103 104
3 105 106 107
3 108 109 110
3 111 112 113
3 114 115 116
3 117 118 119
3 120 121 122
3 123 124 125
3 126 127 128
3 129 130 131
3 132 133 134
3 135 136 137
3 138 139 140
3 141 142 143
3 144 145 146
3 147 148 149
3 150 151 152
3 153 154 155
