ply
format ascii 1.0
comment Created by Blender 2.80 (sub 75) - www.blender.org, source file: 'downsample_ccf.blend'
element vertex 252
property float x
property float y
property float z
property float nx
property float ny
property float nz
element face 84
property list uchar uint vertex_indices
end_header
12500.709961 2628.076172 4428.564941 -0.269673 0.044339 -0.961931
12848.733398 2416.738281 4321.256836 -0.269673 0.044339 -0.961931
12718.104492 2366.015625 4355.540039 -0.269673 0.044339 -0.961931
12848.733398 2416.738281 4321.256836 -0.126725 0.275204 -0.952997
12500.709961 2628.076172 4428.564941 -0.126725 0.275204 -0.952997
13151.229492 2979.880371 4443.654785 -0.126725 0.275204 -0.952997
12848.733398 2416.738281 4321.256836 0.585110 -0.140710 -0.798653
13151.229492 2979.880371 4443.654785 0.585110 -0.140710 -0.798653
13099.081055 2646.415283 4464.201172 0.585110 -0.140710 -0.798653
12635.893555 2858.042236 4464.534668 -0.087757 0.204092 -0.975010
13151.229492 2979.880371 4443.654785 -0.087757 0.204092 -0.975010
12500.709961 2628.076172 4428.564941 -0.087757 0.204092 -0.975010
12718.104492 2366.015625 4355.540039 -0.763757 -0.644347 0.038635
12625.304688 2522.546875 5131.617676 -0.763757 -0.644347 0.038635
12500.709961 2628.076172 4428.564941 -0.763757 -0.644347 0.038635
12526.482422 2798.218994 4541.847168 -0.665946 0.480701 -0.570475
12635.893555 2858.042236 4464.534668 -0.665946 0.480701 -0.570475
12500.709961 2628.076172 4428.564941 -0.665946 0.480701 -0.570475
12345.753906 3073.375732 4537.067383 -0.435273 -0.300638 -0.848619
12635.893555 2858.042236 4464.534668 -0.435273 -0.300638 -0.848619
12526.482422 2798.218994 4541.847168 -0.435273 -0.300638 -0.848619
12527.769531 3234.586426 4534.819336 -0.138805 0.143054 -0.979933
12635.893555 2858.042236 4464.534668 -0.138805 0.143054 -0.979933
12345.753906 3073.375732 4537.067383 -0.138805 0.143054 -0.979933
12874.879883 3232.287842 4562.043945 0.239404 0.614642 -0.751599
13114.537109 3115.702637 4543.040039 0.239404 0.614642 -0.751599
13151.229492 2979.880371 4443.654785 0.239404 0.614642 -0.751599
13151.229492 2979.880371 4443.654785 -0.077984 0.161246 -0.983828
12635.893555 2858.042236 4464.534668 -0.077984 0.161246 -0.983828
12527.769531 3234.586426 4534.819336 -0.077984 0.161246 -0.983828
12874.879883 3232.287842 4562.043945 0.071510 0.486666 -0.870656
13151.229492 2979.880371 4443.654785 0.071510 0.486666 -0.870656
12527.769531 3234.586426 4534.819336 0.071510 0.486666 -0.870656
12718.104492 2366.015625 4355.540039 0.300308 -0.926541 -0.226575
12848.733398 2416.738281 4321.256836 0.300308 -0.926541 -0.226575
13061.664062 2290.531738 5119.581543 0.300308 -0.926541 -0.226575
12345.753906 3073.375732 4537.067383 -0.348706 0.381772 -0.855952
12328.158203 3190.833008 4596.624023 -0.348706 0.381772 -0.855952
12527.769531 3234.586426 4534.819336 -0.348706 0.381772 -0.855952
13099.081055 2646.415283 4464.201172 0.973466 -0.162181 -0.161436
13151.229492 2979.880371 4443.654785 0.973466 -0.162181 -0.161436
13152.343750 2387.068604 5045.921387 0.973466 -0.162181 -0.161436
12718.104492 2366.015625 4355.540039 -0.463366 -0.877779 0.121637
13061.664062 2290.531738 5119.581543 -0.463366 -0.877779 0.121637
12625.304688 2522.546875 5131.617676 -0.463366 -0.877779 0.121637
13114.481445 3013.861816 5005.304199 0.441558 0.876209 0.193090
13114.537109 3115.702637 4543.040039 0.441558 0.876209 0.193090
12874.879883 3232.287842 4562.043945 0.441558 0.876209 0.193090
13152.343750 2387.068604 5045.921387 0.733577 -0.593200 -0.331631
12848.733398 2416.738281 4321.256836 0.733577 -0.593200 -0.331631
13099.081055 2646.415283 4464.201172 0.733577 -0.593200 -0.331631
12527.769531 3234.586426 4534.819336 -0.151438 0.968703 0.196674
12328.158203 3190.833008 4596.624023 -0.151438 0.968703 0.196674
12469.618164 3115.626953 5075.969727 -0.151438 0.968703 0.196674
12874.879883 3232.287842 4562.043945 -0.010287 0.976860 0.213635
12527.769531 3234.586426 4534.819336 -0.010287 0.976860 0.213635
12469.618164 3115.626953 5075.969727 -0.010287 0.976860 0.213635
13151.229492 2979.880371 4443.654785 0.972789 0.226242 0.049960
13114.537109 3115.702637 4543.040039 0.972789 0.226242 0.049960
13114.481445 3013.861816 5005.304199 0.972789 0.226242 0.049960
12874.879883 3232.287842 4562.043945 0.183463 0.917483 0.352940
12469.618164 3115.626953 5075.969727 0.183463 0.917483 0.352940
13114.481445 3013.861816 5005.304199 0.183463 0.917483 0.352940
12848.733398 2416.738281 4321.256836 0.586015 -0.761591 -0.276703
13152.343750 2387.068604 5045.921387 0.586015 -0.761591 -0.276703
13061.664062 2290.531738 5119.581543 0.586015 -0.761591 -0.276703
12526.482422 2798.218994 4541.847168 -0.833883 -0.546350 0.078360
12626.906250 2734.681396 5167.522461 -0.833883 -0.546350 0.078360
12345.753906 3073.375732 4537.067383 -0.833883 -0.546350 0.078360
12328.158203 3190.833008 4596.624023 -0.965061 -0.218160 0.145132
12345.753906 3073.375732 4537.067383 -0.965061 -0.218160 0.145132
12486.724609 2941.057373 5275.558105 -0.965061 -0.218160 0.145132
12500.709961 2628.076172 4428.564941 -0.985862 0.041194 0.162419
12626.906250 2734.681396 5167.522461 -0.985862 0.041194 0.162419
12526.482422 2798.218994 4541.847168 -0.985862 0.041194 0.162419
12625.304688 2522.546875 5131.617676 -0.984979 -0.021561 0.171321
12626.906250 2734.681396 5167.522461 -0.984979 -0.021561 0.171321
12500.709961 2628.076172 4428.564941 -0.984979 -0.021561 0.171321
12345.753906 3073.375732 4537.067383 -0.813394 -0.579434 0.051449
12626.906250 2734.681396 5167.522461 -0.813394 -0.579434 0.051449
12486.724609 2941.057373 5275.558105 -0.813394 -0.579434 0.051449
12486.724609 2941.057373 5275.558105 -0.912370 0.266180 0.311012
12469.618164 3115.626953 5075.969727 -0.912370 0.266180 0.311012
12328.158203 3190.833008 4596.624023 -0.912370 0.266180 0.311012
13151.229492 2979.880371 4443.654785 0.768589 0.639638 0.011588
13114.481445 3013.861816 5005.304199 0.768589 0.639638 0.011588
13165.934570 2929.611328 6243.118164 0.768589 0.639638 0.011588
13114.481445 3013.861816 5005.304199 -0.295191 0.952323 0.077089
13120.071289 2966.689209 5609.456055 -0.295191 0.952323 0.077089
13165.934570 2929.611328 6243.118164 -0.295191 0.952323 0.077089
12486.724609 2941.057373 5275.558105 -0.995203 0.013288 0.096920
12503.295898 3079.837891 5426.690918 -0.995203 0.013288 0.096920
12469.618164 3115.626953 5075.969727 -0.995203 0.013288 0.096920
12469.618164 3115.626953 5075.969727 0.155205 0.984173 0.085526
12503.295898 3079.837891 5426.690918 0.155205 0.984173 0.085526
13120.071289 2966.689209 5609.456055 0.155205 0.984173 0.085526
13152.343750 2387.068604 5045.921387 0.999928 -0.007570 -0.009301
13151.229492 2979.880371 4443.654785 0.999928 -0.007570 -0.009301
13161.460938 2349.174805 6056.900879 0.999928 -0.007570 -0.009301
12626.906250 2734.681396 5167.522461 -0.999791 0.004158 0.020033
12625.304688 2522.546875 5131.617676 -0.999791 0.004158 0.020033
12643.666016 2700.238281 6011.109375 -0.999791 0.004158 0.020033
13114.481445 3013.861816 5005.304199 0.163482 0.983669 0.075293
12469.618164 3115.626953 5075.969727 0.163482 0.983669 0.075293
13120.071289 2966.689209 5609.456055 0.163482 0.983669 0.075293
12626.906250 2734.681396 5167.522461 -0.828746 -0.559588 -0.006383
12643.666016 2700.238281 6011.109375 -0.828746 -0.559588 -0.006383
12486.724609 2941.057373 5275.558105 -0.828746 -0.559588 -0.006383
13152.343750 2387.068604 5045.921387 0.715954 -0.697386 -0.032596
13161.460938 2349.174805 6056.900879 0.715954 -0.697386 -0.032596
13061.664062 2290.531738 5119.581543 0.715954 -0.697386 -0.032596
12486.724609 2941.057373 5275.558105 -0.993262 0.115864 0.002514
12502.876953 3065.454102 5923.988770 -0.993262 0.115864 0.002514
12503.295898 3079.837891 5426.690918 -0.993262 0.115864 0.002514
12625.304688 2522.546875 5131.617676 -0.980916 -0.193946 0.013704
12652.999023 2483.650146 6563.464355 -0.980916 -0.193946 0.013704
12636.062500 2536.589844 6100.396973 -0.980916 -0.193946 0.013704
12643.666016 2700.238281 6011.109375 -0.824367 -0.565978 -0.009409
12474.806641 2942.919189 6207.722656 -0.824367 -0.565978 -0.009409
12486.724609 2941.057373 5275.558105 -0.824367 -0.565978 -0.009409
12643.666016 2700.238281 6011.109375 -0.998592 0.052036 0.010335
12625.304688 2522.546875 5131.617676 -0.998592 0.052036 0.010335
12636.062500 2536.589844 6100.396973 -0.998592 0.052036 0.010335
13110.270508 2294.061768 6199.174316 0.694100 -0.719299 -0.028898
13061.664062 2290.531738 5119.581543 0.694100 -0.719299 -0.028898
13161.460938 2349.174805 6056.900879 0.694100 -0.719299 -0.028898
13151.229492 2979.880371 4443.654785 0.998504 -0.053818 -0.009663
13165.934570 2929.611328 6243.118164 0.998504 -0.053818 -0.009663
13156.531250 2660.022461 6772.921387 0.998504 -0.053818 -0.009663
13120.071289 2966.689209 5609.456055 0.197320 0.978494 -0.060114
12503.295898 3079.837891 5426.690918 0.197320 0.978494 -0.060114
13056.049805 3021.853516 6297.238770 0.197320 0.978494 -0.060114
12503.295898 3079.837891 5426.690918 0.059141 0.997831 0.028911
12502.876953 3065.454102 5923.988770 0.059141 0.997831 0.028911
13056.049805 3021.853516 6297.238770 0.059141 0.997831 0.028911
12625.304688 2522.546875 5131.617676 -0.469738 -0.882680 -0.014893
13061.664062 2290.531738 5119.581543 -0.469738 -0.882680 -0.014893
12652.999023 2483.650146 6563.464355 -0.469738 -0.882680 -0.014893
12457.681641 3096.193115 6295.130859 -0.590829 0.794944 -0.137787
12502.876953 3065.454102 5923.988770 -0.590829 0.794944 -0.137787
12486.724609 2941.057373 5275.558105 -0.590829 0.794944 -0.137787
12643.666016 2700.238281 6011.109375 -0.989787 -0.030043 -0.139351
12636.062500 2536.589844 6100.396973 -0.989787 -0.030043 -0.139351
12529.304688 2788.779297 6804.310547 -0.989787 -0.030043 -0.139351
13165.934570 2929.611328 6243.118164 0.642462 0.766316 -0.001660
13120.071289 2966.689209 5609.456055 0.642462 0.766316 -0.001660
13056.049805 3021.853516 6297.238770 0.642462 0.766316 -0.001660
12486.724609 2941.057373 5275.558105 -0.994501 -0.103981 -0.012507
12474.806641 2942.919189 6207.722656 -0.994501 -0.103981 -0.012507
12457.681641 3096.193115 6295.130859 -0.994501 -0.103981 -0.012507
13061.664062 2290.531738 5119.581543 -0.185638 -0.982550 0.011571
13110.270508 2294.061768 6199.174316 -0.185638 -0.982550 0.011571
12857.843750 2350.172607 6914.051758 -0.185638 -0.982550 0.011571
12643.666016 2700.238281 6011.109375 -0.841983 -0.535980 -0.061566
12529.304688 2788.779297 6804.310547 -0.841983 -0.535980 -0.061566
12474.806641 2942.919189 6207.722656 -0.841983 -0.535980 -0.061566
12652.999023 2483.650146 6563.464355 -0.509954 -0.859701 -0.029349
13061.664062 2290.531738 5119.581543 -0.509954 -0.859701 -0.029349
12857.843750 2350.172607 6914.051758 -0.509954 -0.859701 -0.029349
12457.681641 3096.193115 6295.130859 -0.959678 0.050476 -0.276532
12474.806641 2942.919189 6207.722656 -0.959678 0.050476 -0.276532
12307.533203 3184.369873 6832.302734 -0.959678 0.050476 -0.276532
12502.876953 3065.454102 5923.988770 0.123245 0.990112 -0.066996
12457.681641 3096.193115 6295.130859 0.123245 0.990112 -0.066996
13056.049805 3021.853516 6297.238770 0.123245 0.990112 -0.066996
13151.229492 2979.880371 4443.654785 0.999872 0.016029 -0.000075
13156.531250 2660.022461 6772.921387 0.999872 0.016029 -0.000075
13161.460938 2349.174805 6056.900879 0.999872 0.016029 -0.000075
12457.681641 3096.193115 6295.130859 -0.858332 0.410849 -0.307359
12307.533203 3184.369873 6832.302734 -0.858332 0.410849 -0.307359
12336.409180 3221.931885 6801.873047 -0.858332 0.410849 -0.307359
13056.049805 3021.853516 6297.238770 0.561563 0.797778 -0.219540
13124.561523 3118.968750 6825.389648 0.561563 0.797778 -0.219540
13165.934570 2929.611328 6243.118164 0.561563 0.797778 -0.219540
12474.806641 2942.919189 6207.722656 -0.872743 -0.486023 -0.045849
12529.304688 2788.779297 6804.310547 -0.872743 -0.486023 -0.045849
12307.533203 3184.369873 6832.302734 -0.872743 -0.486023 -0.045849
13156.531250 2660.022461 6772.921387 0.904633 -0.388630 0.174945
13110.270508 2294.061768 6199.174316 0.904633 -0.388630 0.174945
13161.460938 2349.174805 6056.900879 0.904633 -0.388630 0.174945
12502.713867 2640.353271 6940.434082 -0.772062 -0.634006 -0.044244
12636.062500 2536.589844 6100.396973 -0.772062 -0.634006 -0.044244
12652.999023 2483.650146 6563.464355 -0.772062 -0.634006 -0.044244
12502.713867 2640.353271 6940.434082 -0.986621 0.029749 -0.160292
12529.304688 2788.779297 6804.310547 -0.986621 0.029749 -0.160292
12636.062500 2536.589844 6100.396973 -0.986621 0.029749 -0.160292
13056.049805 3021.853516 6297.238770 0.116743 0.929776 -0.349125
12457.681641 3096.193115 6295.130859 0.116743 0.929776 -0.349125
12796.840820 3254.787842 6830.904297 0.116743 0.929776 -0.349125
12857.843750 2350.172607 6914.051758 0.751085 -0.582407 0.310925
13110.270508 2294.061768 6199.174316 0.751085 -0.582407 0.310925
13156.531250 2660.022461 6772.921387 0.751085 -0.582407 0.310925
12336.409180 3221.931885 6801.873047 -0.053028 0.966162 -0.252426
12796.840820 3254.787842 6830.904297 -0.053028 0.966162 -0.252426
12457.681641 3096.193115 6295.130859 -0.053028 0.966162 -0.252426
12857.843750 2350.172607 6914.051758 -0.146828 -0.949915 -0.275867
12733.881836 2351.298340 6976.153320 -0.146828 -0.949915 -0.275867
12652.999023 2483.650146 6563.464355 -0.146828 -0.949915 -0.275867
13124.561523 3118.968750 6825.389648 0.370887 0.903622 -0.214267
13056.049805 3021.853516 6297.238770 0.370887 0.903622 -0.214267
12796.840820 3254.787842 6830.904297 0.370887 0.903622 -0.214267
12652.999023 2483.650146 6563.464355 -0.850830 -0.509793 -0.127281
12597.475586 2468.353760 6995.886719 -0.850830 -0.509793 -0.127281
12502.713867 2640.353271 6940.434082 -0.850830 -0.509793 -0.127281
12597.475586 2468.353760 6995.886719 -0.656398 -0.746251 -0.110680
12652.999023 2483.650146 6563.464355 -0.656398 -0.746251 -0.110680
12733.881836 2351.298340 6976.153320 -0.656398 -0.746251 -0.110680
12336.409180 3221.931885 6801.873047 -0.094231 0.669411 0.736892
12307.533203 3184.369873 6832.302734 -0.094231 0.669411 0.736892
12796.840820 3254.787842 6830.904297 -0.094231 0.669411 0.736892
12502.713867 2640.353271 6940.434082 -0.947654 0.290768 0.131929
12565.734375 2859.090576 6911.023438 -0.947654 0.290768 0.131929
12529.304688 2788.779297 6804.310547 -0.947654 0.290768 0.131929
13165.934570 2929.611328 6243.118164 0.996710 0.063702 0.050105
13124.561523 3118.968750 6825.389648 0.996710 0.063702 0.050105
13156.531250 2660.022461 6772.921387 0.996710 0.063702 0.050105
12565.734375 2859.090576 6911.023438 -0.719443 -0.441278 0.536354
12307.533203 3184.369873 6832.302734 -0.719443 -0.441278 0.536354
12529.304688 2788.779297 6804.310547 -0.719443 -0.441278 0.536354
12796.840820 3254.787842 6830.904297 -0.028016 0.214064 0.976418
12307.533203 3184.369873 6832.302734 -0.028016 0.214064 0.976418
12565.734375 2859.090576 6911.023438 -0.028016 0.214064 0.976418
13092.477539 2806.026611 7004.263672 0.208841 0.469075 0.858111
13124.561523 3118.968750 6825.389648 0.208841 0.469075 0.858111
12796.840820 3254.787842 6830.904297 0.208841 0.469075 0.858111
13124.561523 3118.968750 6825.389648 0.969143 0.039697 0.243282
13092.477539 2806.026611 7004.263672 0.969143 0.039697 0.243282
13156.531250 2660.022461 6772.921387 0.969143 0.039697 0.243282
12857.843750 2350.172607 6914.051758 0.726180 -0.472588 0.499322
13156.531250 2660.022461 6772.921387 0.726180 -0.472588 0.499322
13092.477539 2806.026611 7004.263672 0.726180 -0.472588 0.499322
12880.568359 2583.691895 7048.251953 -0.161769 0.285731 0.944557
12796.840820 3254.787842 6830.904297 -0.161769 0.285731 0.944557
12565.734375 2859.090576 6911.023438 -0.161769 0.285731 0.944557
12796.840820 3254.787842 6830.904297 -0.111007 0.293647 0.949446
12880.568359 2583.691895 7048.251953 -0.111007 0.293647 0.949446
13092.477539 2806.026611 7004.263672 -0.111007 0.293647 0.949446
12565.734375 2859.090576 6911.023438 -0.241518 0.197334 0.950120
12502.713867 2640.353271 6940.434082 -0.241518 0.197334 0.950120
12880.568359 2583.691895 7048.251953 -0.241518 0.197334 0.950120
12880.568359 2583.691895 7048.251953 0.387566 -0.487386 0.782463
12733.881836 2351.298340 6976.153320 0.387566 -0.487386 0.782463
12857.843750 2350.172607 6914.051758 0.387566 -0.487386 0.782463
12597.475586 2468.353760 6995.886719 -0.246411 0.171755 0.953825
12880.568359 2583.691895 7048.251953 -0.246411 0.171755 0.953825
12502.713867 2640.353271 6940.434082 -0.246411 0.171755 0.953825
12880.568359 2583.691895 7048.251953 -0.076087 -0.251330 0.964906
12597.475586 2468.353760 6995.886719 -0.076087 -0.251330 0.964906
12733.881836 2351.298340 6976.153320 -0.076087 -0.251330 0.964906
12880.568359 2583.691895 7048.251953 0.601294 -0.441312 0.666100
12857.843750 2350.172607 6914.051758 0.601294 -0.441312 0.666100
13092.477539 2806.026611 7004.263672 0.601294 -0.441312 0.666100
3 0 1 2
3 3 4 5
3 6 7 8
3 9 10 11
3 12 13 14
3 15 16 17
3 18 19 20
3 21 22 23
3 24 25 26
3 27 28 29
3 30 31 32
3 33 34 35
3 36 37 38
3 39 40 41
3 42 43 44
3 45 46 47
3 48 49 50
3 51 52 53
3 54 55 56
3 57 58 59
3 60 61 62
3 63 64 65
3 66 67 68
3 69 70 71
3 72 73 74
3 75 76 77
3 78 79 80
3 81 82 83
3 84 85 86
3 87 88 89
3 90 91 92
3 93 94 95
3 96 97 98
3 99 100 101
3 102 103 104
3 105 106 107
3 108 109 110
3 111 112 113
3 114 115 116
3 117 118 119
3 120 121 122
3 123 124 125
3 126 127 128
3 129 130 131
3 132 133 134
3 135 136 137
3 138 139 140
3 141 142 143
3 144 145 146
3 147 148 149
3 150 151 152
3 153 154 155
3 156 157 158
3 159 160 161
3 162 163 164
3 165 166 167
3 168 169 170
3 171 172 173
3 174 175 176
3 177 178 179
3 180 181 182
3 183 184 185
3 186 187 188
3 189 190 191
3 192 193 194
3 195 196 197
3 198 199 200
3 201 202 203
3 204 205 206
3 207 208 209
3 210 211 212
3 213 214 215
3 216 217 218
3 219 220 221
3 222 223 224
3 225 226 227
3 228 229 230
3 231 232 233
3 234 235 236
3 237 238 239
3 240 241 242
3 243 244 245
3 246 247 248
3 249 250 251
