ply
format ascii 1.0
comment Created by Blender 2.80 (sub 75) - www.blender.org, source file: 'downsample_ccf.blend'
element vertex 498
property float x
property float y
property float z
property float nx
property float ny
property float nz
element face 166
property list uchar uint vertex_indices
end_header
10643.642578 6079.437500 4871.720215 -0.001452 -0.112177 -0.993687
10548.052734 6678.226074 4804.263184 -0.001452 -0.112177 -0.993687
11175.600586 6652.336914 4806.268555 -0.001452 -0.112177 -0.993687
11175.600586 6652.336914 4806.268555 0.017336 0.347615 -0.937477
10548.052734 6678.226074 4804.263184 0.017336 0.347615 -0.937477
10553.554688 6818.189453 4856.263184 0.017336 0.347615 -0.937477
11454.412109 6027.479004 5011.928711 0.149600 -0.248251 -0.957074
10643.642578 6079.437500 4871.720215 0.149600 -0.248251 -0.957074
11175.600586 6652.336914 4806.268555 0.149600 -0.248251 -0.957074
12283.748047 6546.460938 4896.304199 0.117600 0.040705 -0.992226
11668.599609 6594.374023 4825.361328 0.117600 0.040705 -0.992226
11908.962891 6751.639160 4860.301270 0.117600 0.040705 -0.992226
11175.600586 6652.336914 4806.268555 0.000031 -0.312620 -0.949878
11668.599609 6594.374023 4825.361328 0.000031 -0.312620 -0.949878
11454.412109 6027.479004 5011.928711 0.000031 -0.312620 -0.949878
12283.748047 6546.460938 4896.304199 0.482725 0.874898 -0.039110
11908.962891 6751.639160 4860.301270 0.482725 0.874898 -0.039110
12092.838867 6653.576172 4936.147949 0.482725 0.874898 -0.039110
11908.962891 6751.639160 4860.301270 -0.244978 0.551571 -0.797343
11668.599609 6594.374023 4825.361328 -0.244978 0.551571 -0.797343
11338.426758 6793.295410 5064.410645 -0.244978 0.551571 -0.797343
10553.554688 6818.189453 4856.263184 0.249496 0.963874 -0.093264
10827.016602 6765.740234 5045.760742 0.249496 0.963874 -0.093264
11175.600586 6652.336914 4806.268555 0.249496 0.963874 -0.093264
12092.838867 6653.576172 4936.147949 -0.054442 0.261432 -0.963685
12245.083008 6875.197266 4987.669434 -0.054442 0.261432 -0.963685
12283.748047 6546.460938 4896.304199 -0.054442 0.261432 -0.963685
12245.083008 6875.197266 4987.669434 0.365247 -0.034645 -0.930266
12092.838867 6653.576172 4936.147949 0.365247 -0.034645 -0.930266
11908.962891 6751.639160 4860.301270 0.365247 -0.034645 -0.930266
12245.083008 6875.197266 4987.669434 0.042599 0.658584 -0.751300
11908.962891 6751.639160 4860.301270 0.042599 0.658584 -0.751300
11611.551758 6914.103027 4985.852539 0.042599 0.658584 -0.751300
10781.759766 5396.920410 5001.620605 0.146492 -0.140264 -0.979217
10649.594727 5492.499512 4968.157715 0.146492 -0.140264 -0.979217
11454.412109 6027.479004 5011.928711 0.146492 -0.140264 -0.979217
11454.412109 6027.479004 5011.928711 0.158376 -0.158522 -0.974571
10649.594727 5492.499512 4968.157715 0.158376 -0.158522 -0.974571
10643.642578 6079.437500 4871.720215 0.158376 -0.158522 -0.974571
12283.748047 6546.460938 4896.304199 0.081652 -0.339267 -0.937140
11454.412109 6027.479004 5011.928711 0.081652 -0.339267 -0.937140
11668.599609 6594.374023 4825.361328 0.081652 -0.339267 -0.937140
11338.426758 6793.295410 5064.410645 -0.325831 0.127474 -0.936795
11611.551758 6914.103027 4985.852539 -0.325831 0.127474 -0.936795
11908.962891 6751.639160 4860.301270 -0.325831 0.127474 -0.936795
11454.412109 6027.479004 5011.928711 0.405294 -0.419068 -0.812477
11016.699219 5498.917480 5066.208008 0.405294 -0.419068 -0.812477
10781.759766 5396.920410 5001.620605 0.405294 -0.419068 -0.812477
10454.535156 6699.799316 5171.168945 -0.958748 0.131346 -0.252090
10553.554688 6818.189453 4856.263184 -0.958748 0.131346 -0.252090
10548.052734 6678.226074 4804.263184 -0.958748 0.131346 -0.252090
11668.599609 6594.374023 4825.361328 0.122755 0.954116 -0.273118
11175.600586 6652.336914 4806.268555 0.122755 0.954116 -0.273118
10827.016602 6765.740234 5045.760742 0.122755 0.954116 -0.273118
12283.748047 6546.460938 4896.304199 0.985473 0.141859 -0.093371
12245.083008 6875.197266 4987.669434 0.985473 0.141859 -0.093371
12310.289062 6642.973633 5323.061035 0.985473 0.141859 -0.093371
11668.599609 6594.374023 4825.361328 -0.016960 0.756921 -0.653286
10827.016602 6765.740234 5045.760742 -0.016960 0.756921 -0.653286
11338.426758 6793.295410 5064.410645 -0.016960 0.756921 -0.653286
12245.083008 6875.197266 4987.669434 0.061342 0.997899 -0.020855
11611.551758 6914.103027 4985.852539 0.061342 0.997899 -0.020855
11911.317383 6898.870117 5138.684082 0.061342 0.997899 -0.020855
10649.594727 5492.499512 4968.157715 -0.998382 -0.018935 -0.053624
10615.958008 5708.336426 5518.196289 -0.998382 -0.018935 -0.053624
10643.642578 6079.437500 4871.720215 -0.998382 -0.018935 -0.053624
10739.208984 5294.779785 5436.490234 -0.527339 -0.814213 -0.242838
10649.594727 5492.499512 4968.157715 -0.527339 -0.814213 -0.242838
10781.759766 5396.920410 5001.620605 -0.527339 -0.814213 -0.242838
11790.947266 5562.904785 5258.350586 0.253052 -0.303880 -0.918489
11016.699219 5498.917480 5066.208008 0.253052 -0.303880 -0.918489
11454.412109 6027.479004 5011.928711 0.253052 -0.303880 -0.918489
10827.016602 6765.740234 5045.760742 -0.053048 0.940097 0.336753
10553.554688 6818.189453 4856.263184 -0.053048 0.940097 0.336753
10454.535156 6699.799316 5171.168945 -0.053048 0.940097 0.336753
11967.052734 6680.756348 5132.988281 0.004394 0.538144 0.842841
11611.551758 6914.103027 4985.852539 0.004394 0.538144 0.842841
11338.426758 6793.295410 5064.410645 0.004394 0.538144 0.842841
11911.317383 6898.870117 5138.684082 -0.455391 -0.139330 0.879322
11611.551758 6914.103027 4985.852539 -0.455391 -0.139330 0.879322
11967.052734 6680.756348 5132.988281 -0.455391 -0.139330 0.879322
12283.748047 6546.460938 4896.304199 0.120606 -0.395575 -0.910480
11790.947266 5562.904785 5258.350586 0.120606 -0.395575 -0.910480
11454.412109 6027.479004 5011.928711 0.120606 -0.395575 -0.910480
10615.958008 5708.336426 5518.196289 -0.975165 -0.171467 -0.140189
10548.052734 6678.226074 4804.263184 -0.975165 -0.171467 -0.140189
10643.642578 6079.437500 4871.720215 -0.975165 -0.171467 -0.140189
11967.052734 6680.756348 5132.988281 0.066066 0.761761 0.644481
11338.426758 6793.295410 5064.410645 0.066066 0.761761 0.644481
11231.561523 6631.750000 5266.308105 0.066066 0.761761 0.644481
11016.699219 5498.917480 5066.208008 0.430781 -0.887022 -0.166190
10739.208984 5294.779785 5436.490234 0.430781 -0.887022 -0.166190
10781.759766 5396.920410 5001.620605 0.430781 -0.887022 -0.166190
10499.264648 6515.017090 5377.845703 0.086897 0.751942 0.653477
10827.016602 6765.740234 5045.760742 0.086897 0.751942 0.653477
10454.535156 6699.799316 5171.168945 0.086897 0.751942 0.653477
10827.016602 6765.740234 5045.760742 -0.064834 0.795634 0.602298
11231.561523 6631.750000 5266.308105 -0.064834 0.795634 0.602298
11338.426758 6793.295410 5064.410645 -0.064834 0.795634 0.602298
12119.130859 6731.127441 5402.773926 0.236117 0.893585 0.381779
12245.083008 6875.197266 4987.669434 0.236117 0.893585 0.381779
11911.317383 6898.870117 5138.684082 0.236117 0.893585 0.381779
10649.594727 5492.499512 4968.157715 -0.810226 -0.579243 -0.089509
10739.208984 5294.779785 5436.490234 -0.810226 -0.579243 -0.089509
10600.886719 5466.904785 5574.690918 -0.810226 -0.579243 -0.089509
12290.360352 5921.581055 5279.183594 0.378252 -0.480721 -0.791096
11790.947266 5562.904785 5258.350586 0.378252 -0.480721 -0.791096
12283.748047 6546.460938 4896.304199 0.378252 -0.480721 -0.791096
11911.317383 6898.870117 5138.684082 -0.949161 -0.237136 -0.207025
11967.052734 6680.756348 5132.988281 -0.949161 -0.237136 -0.207025
11894.448242 6693.322266 5451.469727 -0.949161 -0.237136 -0.207025
12310.289062 6642.973633 5323.061035 0.518169 0.747018 0.416491
12245.083008 6875.197266 4987.669434 0.518169 0.747018 0.416491
12119.130859 6731.127441 5402.773926 0.518169 0.747018 0.416491
10615.958008 5708.336426 5518.196289 -0.906286 -0.289876 -0.307600
10414.049805 6239.487305 5612.536133 -0.906286 -0.289876 -0.307600
10548.052734 6678.226074 4804.263184 -0.906286 -0.289876 -0.307600
10454.535156 6699.799316 5171.168945 -0.961124 -0.142334 -0.236604
10548.052734 6678.226074 4804.263184 -0.961124 -0.142334 -0.236604
10414.049805 6239.487305 5612.536133 -0.961124 -0.142334 -0.236604
11967.052734 6680.756348 5132.988281 0.058429 0.788545 0.612195
11231.561523 6631.750000 5266.308105 0.058429 0.788545 0.612195
11931.428711 6556.902344 5295.919922 0.058429 0.788545 0.612195
10600.886719 5466.904785 5574.690918 -0.995977 0.043891 -0.078130
10615.958008 5708.336426 5518.196289 -0.995977 0.043891 -0.078130
10649.594727 5492.499512 4968.157715 -0.995977 0.043891 -0.078130
10454.535156 6699.799316 5171.168945 -0.940506 -0.188402 -0.282759
10414.049805 6239.487305 5612.536133 -0.940506 -0.188402 -0.282759
10358.531250 6634.010742 5534.330078 -0.940506 -0.188402 -0.282759
10499.264648 6515.017090 5377.845703 -0.042713 0.817173 0.574808
11231.561523 6631.750000 5266.308105 -0.042713 0.817173 0.574808
10827.016602 6765.740234 5045.760742 -0.042713 0.817173 0.574808
11790.947266 5562.904785 5258.350586 0.097843 -0.993173 -0.063515
11750.276367 5539.654297 5559.260742 0.097843 -0.993173 -0.063515
11016.699219 5498.917480 5066.208008 0.097843 -0.993173 -0.063515
11790.947266 5562.904785 5258.350586 0.566436 -0.771933 -0.288565
12290.360352 5921.581055 5279.183594 0.566436 -0.771933 -0.288565
12169.084961 5725.791016 5564.880371 0.566436 -0.771933 -0.288565
11016.699219 5498.917480 5066.208008 0.563383 -0.825539 -0.032922
11091.795898 5524.197266 5717.412109 0.563383 -0.825539 -0.032922
10739.208984 5294.779785 5436.490234 0.563383 -0.825539 -0.032922
11790.947266 5562.904785 5258.350586 0.406263 -0.913621 -0.015683
12169.084961 5725.791016 5564.880371 0.406263 -0.913621 -0.015683
11750.276367 5539.654297 5559.260742 0.406263 -0.913621 -0.015683
12290.360352 5921.581055 5279.183594 0.998104 -0.024129 -0.056618
12283.748047 6546.460938 4896.304199 0.998104 -0.024129 -0.056618
12310.289062 6642.973633 5323.061035 0.998104 -0.024129 -0.056618
11931.428711 6556.902344 5295.919922 0.083649 0.926908 0.365849
11231.561523 6631.750000 5266.308105 0.083649 0.926908 0.365849
11696.257812 6497.291992 5500.718262 0.083649 0.926908 0.365849
11696.257812 6497.291992 5500.718262 0.207980 0.967660 0.142751
11231.561523 6631.750000 5266.308105 0.207980 0.967660 0.142751
11418.048828 6548.012207 5562.237305 0.207980 0.967660 0.142751
11894.448242 6693.322266 5451.469727 -0.975020 -0.011373 -0.221827
11967.052734 6680.756348 5132.988281 -0.975020 -0.011373 -0.221827
11931.428711 6556.902344 5295.919922 -0.975020 -0.011373 -0.221827
11931.428711 6556.902344 5295.919922 -0.638009 0.497351 -0.587866
11696.257812 6497.291992 5500.718262 -0.638009 0.497351 -0.587866
11894.448242 6693.322266 5451.469727 -0.638009 0.497351 -0.587866
10499.264648 6515.017090 5377.845703 0.976116 0.216533 -0.017659
10454.535156 6699.799316 5171.168945 0.976116 0.216533 -0.017659
10498.235352 6537.388184 5595.263672 0.976116 0.216533 -0.017659
12119.130859 6731.127441 5402.773926 -0.021854 0.836043 0.548229
11911.317383 6898.870117 5138.684082 -0.021854 0.836043 0.548229
11894.448242 6693.322266 5451.469727 -0.021854 0.836043 0.548229
11231.561523 6631.750000 5266.308105 -0.112229 0.957595 0.265362
10499.264648 6515.017090 5377.845703 -0.112229 0.957595 0.265362
10806.295898 6461.249023 5701.726562 -0.112229 0.957595 0.265362
11231.561523 6631.750000 5266.308105 -0.064141 0.948919 0.308932
10806.295898 6461.249023 5701.726562 -0.064141 0.948919 0.308932
11418.048828 6548.012207 5562.237305 -0.064141 0.948919 0.308932
10358.531250 6634.010742 5534.330078 0.462868 0.842685 0.275019
10498.235352 6537.388184 5595.263672 0.462868 0.842685 0.275019
10454.535156 6699.799316 5171.168945 0.462868 0.842685 0.275019
11016.699219 5498.917480 5066.208008 0.031878 -0.998875 0.035100
11750.276367 5539.654297 5559.260742 0.031878 -0.998875 0.035100
11091.795898 5524.197266 5717.412109 0.031878 -0.998875 0.035100
12218.477539 6374.726562 5597.141602 0.521368 0.515989 0.679655
12310.289062 6642.973633 5323.061035 0.521368 0.515989 0.679655
12119.130859 6731.127441 5402.773926 0.521368 0.515989 0.679655
10414.049805 6239.487305 5612.536133 -0.675460 -0.127774 -0.726242
10615.958008 5708.336426 5518.196289 -0.675460 -0.127774 -0.726242
10600.886719 5466.904785 5574.690918 -0.675460 -0.127774 -0.726242
10806.295898 6461.249023 5701.726562 0.270353 0.957834 -0.097276
10499.264648 6515.017090 5377.845703 0.270353 0.957834 -0.097276
10498.235352 6537.388184 5595.263672 0.270353 0.957834 -0.097276
10739.208984 5294.779785 5436.490234 -0.688802 -0.701224 0.183947
10743.765625 5349.177246 5660.921875 -0.688802 -0.701224 0.183947
10600.886719 5466.904785 5574.690918 -0.688802 -0.701224 0.183947
12290.360352 5921.581055 5279.183594 0.997610 -0.031306 0.061595
12310.289062 6642.973633 5323.061035 0.997610 -0.031306 0.061595
12271.568359 6168.877441 5709.235840 0.997610 -0.031306 0.061595
11418.048828 6548.012207 5562.237305 0.240922 0.160527 0.957177
11336.551758 6284.116699 5627.007812 0.240922 0.160527 0.957177
11696.257812 6497.291992 5500.718262 0.240922 0.160527 0.957177
11868.997070 6335.489258 5656.742188 0.105337 0.489178 0.865800
12119.130859 6731.127441 5402.773926 0.105337 0.489178 0.865800
11894.448242 6693.322266 5451.469727 0.105337 0.489178 0.865800
12218.477539 6374.726562 5597.141602 0.091505 0.496320 0.863304
12119.130859 6731.127441 5402.773926 0.091505 0.496320 0.863304
11868.997070 6335.489258 5656.742188 0.091505 0.496320 0.863304
10739.208984 5294.779785 5436.490234 0.412600 -0.887162 0.206652
11091.795898 5524.197266 5717.412109 0.412600 -0.887162 0.206652
10743.765625 5349.177246 5660.921875 0.412600 -0.887162 0.206652
12271.568359 6168.877441 5709.235840 0.937177 -0.283153 0.203775
12169.084961 5725.791016 5564.880371 0.937177 -0.283153 0.203775
12290.360352 5921.581055 5279.183594 0.937177 -0.283153 0.203775
10414.049805 6239.487305 5612.536133 -0.972006 -0.234062 -0.020463
10600.886719 5466.904785 5574.690918 -0.972006 -0.234062 -0.020463
10418.511719 6209.917969 5738.817383 -0.972006 -0.234062 -0.020463
11868.997070 6335.489258 5656.742188 -0.103802 0.630738 0.769022
11696.257812 6497.291992 5500.718262 -0.103802 0.630738 0.769022
11336.551758 6284.116699 5627.007812 -0.103802 0.630738 0.769022
11418.048828 6548.012207 5562.237305 0.940782 -0.318821 -0.115246
11437.997070 6517.716309 5808.892578 0.940782 -0.318821 -0.115246
11336.551758 6284.116699 5627.007812 0.940782 -0.318821 -0.115246
11868.997070 6335.489258 5656.742188 -0.282425 0.492372 0.823290
11894.448242 6693.322266 5451.469727 -0.282425 0.492372 0.823290
11696.257812 6497.291992 5500.718262 -0.282425 0.492372 0.823290
11750.276367 5539.654297 5559.260742 0.217900 -0.456485 0.862636
11410.141602 5622.999512 5689.282227 0.217900 -0.456485 0.862636
11091.795898 5524.197266 5717.412109 0.217900 -0.456485 0.862636
12169.084961 5725.791016 5564.880371 0.093591 -0.327914 0.940060
12271.568359 6168.877441 5709.235840 0.093591 -0.327914 0.940060
12106.833984 6037.519531 5679.815918 0.093591 -0.327914 0.940060
12271.568359 6168.877441 5709.235840 0.536777 0.506066 0.675105
12310.289062 6642.973633 5323.061035 0.536777 0.506066 0.675105
12218.477539 6374.726562 5597.141602 0.536777 0.506066 0.675105
11750.276367 5539.654297 5559.260742 0.243958 -0.389745 0.888022
12106.833984 6037.519531 5679.815918 0.243958 -0.389745 0.888022
11410.141602 5622.999512 5689.282227 0.243958 -0.389745 0.888022
11750.276367 5539.654297 5559.260742 0.129682 -0.320117 0.938460
12169.084961 5725.791016 5564.880371 0.129682 -0.320117 0.938460
12106.833984 6037.519531 5679.815918 0.129682 -0.320117 0.938460
11868.997070 6335.489258 5656.742188 -0.110564 0.890628 0.441086
11336.551758 6284.116699 5627.007812 -0.110564 0.890628 0.441086
11314.809570 6206.021973 5779.244629 -0.110564 0.890628 0.441086
11437.997070 6517.716309 5808.892578 0.930405 -0.362657 -0.053158
11314.809570 6206.021973 5779.244629 0.930405 -0.362657 -0.053158
11336.551758 6284.116699 5627.007812 0.930405 -0.362657 -0.053158
10414.049805 6239.487305 5612.536133 -0.635755 0.063035 0.769313
10515.148438 6407.686035 5682.301758 -0.635755 0.063035 0.769313
10358.531250 6634.010742 5534.330078 -0.635755 0.063035 0.769313
10498.235352 6537.388184 5595.263672 0.025462 0.559330 0.828554
10358.531250 6634.010742 5534.330078 0.025462 0.559330 0.828554
10515.148438 6407.686035 5682.301758 0.025462 0.559330 0.828554
10651.289062 5342.349609 5916.628418 -0.539502 -0.813585 -0.216835
10600.886719 5466.904785 5574.690918 -0.539502 -0.813585 -0.216835
10743.765625 5349.177246 5660.921875 -0.539502 -0.813585 -0.216835
12271.568359 6168.877441 5709.235840 0.968514 0.248953 -0.001539
12218.477539 6374.726562 5597.141602 0.968514 0.248953 -0.001539
12215.477539 6387.461426 5769.266113 0.968514 0.248953 -0.001539
10498.235352 6537.388184 5595.263672 -0.154078 0.536638 0.829626
10515.148438 6407.686035 5682.301758 -0.154078 0.536638 0.829626
10806.295898 6461.249023 5701.726562 -0.154078 0.536638 0.829626
10743.765625 5349.177246 5660.921875 -0.055164 -0.997390 -0.046582
10852.800781 5330.823242 5924.787598 -0.055164 -0.997390 -0.046582
10651.289062 5342.349609 5916.628418 -0.055164 -0.997390 -0.046582
10651.289062 5342.349609 5916.628418 -0.967148 -0.248856 0.051911
10418.511719 6209.917969 5738.817383 -0.967148 -0.248856 0.051911
10600.886719 5466.904785 5574.690918 -0.967148 -0.248856 0.051911
10414.049805 6239.487305 5612.536133 -0.873222 0.466736 0.140142
10418.511719 6209.917969 5738.817383 -0.873222 0.466736 0.140142
10515.148438 6407.686035 5682.301758 -0.873222 0.466736 0.140142
10515.148438 6407.686035 5682.301758 -0.610884 0.073223 -0.788327
10418.511719 6209.917969 5738.817383 -0.610884 0.073223 -0.788327
10357.243164 6587.966309 5821.409668 -0.610884 0.073223 -0.788327
12218.477539 6374.726562 5597.141602 -0.123938 0.989424 -0.075364
11868.997070 6335.489258 5656.742188 -0.123938 0.989424 -0.075364
12215.477539 6387.461426 5769.266113 -0.123938 0.989424 -0.075364
10806.295898 6461.249023 5701.726562 -0.043019 0.538919 -0.841258
10515.148438 6407.686035 5682.301758 -0.043019 0.538919 -0.841258
10441.222656 6590.977539 5803.500488 -0.043019 0.538919 -0.841258
10357.243164 6587.966309 5821.409668 -0.199127 0.483369 -0.852469
10441.222656 6590.977539 5803.500488 -0.199127 0.483369 -0.852469
10515.148438 6407.686035 5682.301758 -0.199127 0.483369 -0.852469
11091.795898 5524.197266 5717.412109 0.161375 -0.559498 -0.812970
12158.694336 5745.515137 5776.877930 0.161375 -0.559498 -0.812970
11748.826172 5519.810547 5850.852051 0.161375 -0.559498 -0.812970
11410.141602 5622.999512 5689.282227 0.197247 -0.797766 -0.569792
12158.694336 5745.515137 5776.877930 0.197247 -0.797766 -0.569792
11091.795898 5524.197266 5717.412109 0.197247 -0.797766 -0.569792
12106.833984 6037.519531 5679.815918 0.157444 -0.286203 -0.945145
12158.694336 5745.515137 5776.877930 0.157444 -0.286203 -0.945145
11410.141602 5622.999512 5689.282227 0.157444 -0.286203 -0.945145
12271.568359 6168.877441 5709.235840 0.351774 -0.238417 -0.905214
12158.694336 5745.515137 5776.877930 0.351774 -0.238417 -0.905214
12106.833984 6037.519531 5679.815918 0.351774 -0.238417 -0.905214
10743.765625 5349.177246 5660.921875 0.467113 -0.847534 -0.251974
11091.795898 5524.197266 5717.412109 0.467113 -0.847534 -0.251974
10852.800781 5330.823242 5924.787598 0.467113 -0.847534 -0.251974
11868.997070 6335.489258 5656.742188 -0.306032 0.670236 -0.676113
11314.809570 6206.021973 5779.244629 -0.306032 0.670236 -0.676113
11747.533203 6485.896484 5860.820801 -0.306032 0.670236 -0.676113
12215.477539 6387.461426 5769.266113 0.061444 0.820588 -0.568208
11868.997070 6335.489258 5656.742188 0.061444 0.820588 -0.568208
11747.533203 6485.896484 5860.820801 0.061444 0.820588 -0.568208
12158.694336 5745.515137 5776.877930 0.918364 -0.288181 -0.271217
12271.568359 6168.877441 5709.235840 0.918364 -0.288181 -0.271217
12290.571289 5898.003906 6061.397461 0.918364 -0.288181 -0.271217
11747.533203 6485.896484 5860.820801 0.168115 0.027287 -0.985390
11314.809570 6206.021973 5779.244629 0.168115 0.027287 -0.985390
11437.997070 6517.716309 5808.892578 0.168115 0.027287 -0.985390
12271.568359 6168.877441 5709.235840 0.831433 0.335076 -0.443218
12215.477539 6387.461426 5769.266113 0.831433 0.335076 -0.443218
12294.021484 6755.461914 6194.817871 0.831433 0.335076 -0.443218
10441.222656 6590.977539 5803.500488 0.382016 0.895308 0.229104
10489.815430 6516.465820 6013.657227 0.382016 0.895308 0.229104
10806.295898 6461.249023 5701.726562 0.382016 0.895308 0.229104
12215.477539 6387.461426 5769.266113 -0.085670 0.429080 -0.899195
11747.533203 6485.896484 5860.820801 -0.085670 0.429080 -0.899195
11916.544922 6738.237305 5965.130859 -0.085670 0.429080 -0.899195
10418.511719 6209.917969 5738.817383 -0.272288 0.122546 0.954380
10651.289062 5342.349609 5916.628418 -0.272288 0.122546 0.954380
10611.988281 5678.929199 5862.197754 -0.272288 0.122546 0.954380
10806.295898 6461.249023 5701.726562 -0.031897 0.949460 -0.312265
11146.929688 6589.073242 6055.589355 -0.031897 0.949460 -0.312265
11437.997070 6517.716309 5808.892578 -0.031897 0.949460 -0.312265
11418.048828 6548.012207 5562.237305 -0.110127 0.985387 0.129939
10806.295898 6461.249023 5701.726562 -0.110127 0.985387 0.129939
11437.997070 6517.716309 5808.892578 -0.110127 0.985387 0.129939
12158.694336 5745.515137 5776.877930 0.461887 -0.878579 -0.121485
11936.016602 5586.071777 6083.349121 0.461887 -0.878579 -0.121485
11748.826172 5519.810547 5850.852051 0.461887 -0.878579 -0.121485
10357.243164 6587.966309 5821.409668 -0.887699 -0.230892 0.398345
10418.511719 6209.917969 5738.817383 -0.887699 -0.230892 0.398345
10611.988281 5678.929199 5862.197754 -0.887699 -0.230892 0.398345
10806.295898 6461.249023 5701.726562 -0.089550 0.961176 -0.261000
10489.815430 6516.465820 6013.657227 -0.089550 0.961176 -0.261000
11146.929688 6589.073242 6055.589355 -0.089550 0.961176 -0.261000
11936.016602 5586.071777 6083.349121 0.660920 -0.744699 0.092781
12158.694336 5745.515137 5776.877930 0.660920 -0.744699 0.092781
12290.571289 5898.003906 6061.397461 0.660920 -0.744699 0.092781
10653.084961 5499.773438 6405.400879 -0.993204 -0.109669 0.038972
10611.988281 5678.929199 5862.197754 -0.993204 -0.109669 0.038972
10651.289062 5342.349609 5916.628418 -0.993204 -0.109669 0.038972
12271.568359 6168.877441 5709.235840 0.998697 0.003900 -0.050891
12294.021484 6755.461914 6194.817871 0.998697 0.003900 -0.050891
12290.571289 5898.003906 6061.397461 0.998697 0.003900 -0.050891
11916.544922 6738.237305 5965.130859 -0.786505 0.304734 0.537165
11747.533203 6485.896484 5860.820801 -0.786505 0.304734 0.537165
11967.099609 6579.648926 6129.119141 -0.786505 0.304734 0.537165
10489.815430 6516.465820 6013.657227 0.943016 0.315329 -0.106245
10441.222656 6590.977539 5803.500488 0.943016 0.315329 -0.106245
10446.746094 6690.838867 6148.908203 0.943016 0.315329 -0.106245
10441.222656 6590.977539 5803.500488 -0.092991 0.956890 -0.275161
10357.243164 6587.966309 5821.409668 -0.092991 0.956890 -0.275161
10446.746094 6690.838867 6148.908203 -0.092991 0.956890 -0.275161
11747.533203 6485.896484 5860.820801 0.124129 0.982654 -0.137778
11437.997070 6517.716309 5808.892578 0.124129 0.982654 -0.137778
11146.929688 6589.073242 6055.589355 0.124129 0.982654 -0.137778
12215.477539 6387.461426 5769.266113 0.430558 0.691082 -0.580539
11916.544922 6738.237305 5965.130859 0.430558 0.691082 -0.580539
12160.700195 6912.511719 6353.668457 0.430558 0.691082 -0.580539
10852.800781 5330.823242 5924.787598 -0.059558 -0.996196 0.063615
10717.944336 5364.989746 6333.572754 -0.059558 -0.996196 0.063615
10651.289062 5342.349609 5916.628418 -0.059558 -0.996196 0.063615
11748.826172 5519.810547 5850.852051 -0.002102 -0.999744 -0.022516
11059.537109 5510.656250 6321.672363 -0.002102 -0.999744 -0.022516
11091.795898 5524.197266 5717.412109 -0.002102 -0.999744 -0.022516
11146.929688 6589.073242 6055.589355 0.043050 0.931656 -0.360783
11967.099609 6579.648926 6129.119141 0.043050 0.931656 -0.360783
11747.533203 6485.896484 5860.820801 0.043050 0.931656 -0.360783
12215.477539 6387.461426 5769.266113 0.090160 0.745028 -0.660912
12160.700195 6912.511719 6353.668457 0.090160 0.745028 -0.660912
12294.021484 6755.461914 6194.817871 0.090160 0.745028 -0.660912
11146.929688 6589.073242 6055.589355 0.059004 0.832086 -0.551499
11938.461914 6656.061035 6241.343750 0.059004 0.832086 -0.551499
11967.099609 6579.648926 6129.119141 0.059004 0.832086 -0.551499
12160.700195 6912.511719 6353.668457 0.027251 0.905575 -0.423310
11916.544922 6738.237305 5965.130859 0.027251 0.905575 -0.423310
11876.218750 6901.470215 6311.733887 0.027251 0.905575 -0.423310
11936.016602 5586.071777 6083.349121 0.504004 -0.524585 0.686142
12290.571289 5898.003906 6061.397461 0.504004 -0.524585 0.686142
12290.032227 6223.196777 6310.417480 0.504004 -0.524585 0.686142
11938.461914 6656.061035 6241.343750 0.089348 0.752767 -0.652195
11146.929688 6589.073242 6055.589355 0.089348 0.752767 -0.652195
11316.938477 6781.676758 6301.184082 0.089348 0.752767 -0.652195
10357.243164 6587.966309 5821.409668 -0.809710 0.585642 0.037328
10520.693359 6767.446289 6551.051758 -0.809710 0.585642 0.037328
10446.746094 6690.838867 6148.908203 -0.809710 0.585642 0.037328
10653.084961 5499.773438 6405.400879 -0.852212 -0.497082 0.163231
10651.289062 5342.349609 5916.628418 -0.852212 -0.497082 0.163231
10717.944336 5364.989746 6333.572754 -0.852212 -0.497082 0.163231
10653.084961 5499.773438 6405.400879 -0.995830 -0.076163 0.050221
10591.040039 6409.630859 6554.964844 -0.995830 -0.076163 0.050221
10611.988281 5678.929199 5862.197754 -0.995830 -0.076163 0.050221
12290.571289 5898.003906 6061.397461 0.999719 -0.000335 -0.023698
12294.021484 6755.461914 6194.817871 0.999719 -0.000335 -0.023698
12300.214844 6695.613281 6456.940430 0.999719 -0.000335 -0.023698
10852.800781 5330.823242 5924.787598 0.637678 -0.770120 0.016785
11091.795898 5524.197266 5717.412109 0.637678 -0.770120 0.016785
11059.537109 5510.656250 6321.672363 0.637678 -0.770120 0.016785
11748.826172 5519.810547 5850.852051 0.130975 -0.976216 0.172768
11936.016602 5586.071777 6083.349121 0.130975 -0.976216 0.172768
11059.537109 5510.656250 6321.672363 0.130975 -0.976216 0.172768
12290.032227 6223.196777 6310.417480 0.998010 -0.037282 0.050846
12290.571289 5898.003906 6061.397461 0.998010 -0.037282 0.050846
12300.214844 6695.613281 6456.940430 0.998010 -0.037282 0.050846
11146.929688 6589.073242 6055.589355 -0.050762 0.802632 -0.594311
10489.815430 6516.465820 6013.657227 -0.050762 0.802632 -0.594311
11316.938477 6781.676758 6301.184082 -0.050762 0.802632 -0.594311
11967.099609 6579.648926 6129.119141 -0.958834 -0.283131 0.021783
11876.218750 6901.470215 6311.733887 -0.958834 -0.283131 0.021783
11916.544922 6738.237305 5965.130859 -0.958834 -0.283131 0.021783
10852.800781 5330.823242 5924.787598 0.390028 -0.897984 0.203722
11059.537109 5510.656250 6321.672363 0.390028 -0.897984 0.203722
10717.944336 5364.989746 6333.572754 0.390028 -0.897984 0.203722
11936.016602 5586.071777 6083.349121 0.183414 -0.418867 0.889331
12290.032227 6223.196777 6310.417480 0.183414 -0.418867 0.889331
11669.995117 5930.198242 6300.293457 0.183414 -0.418867 0.889331
10357.243164 6587.966309 5821.409668 -0.930335 -0.248618 0.269564
10611.988281 5678.929199 5862.197754 -0.930335 -0.248618 0.269564
10520.693359 6767.446289 6551.051758 -0.930335 -0.248618 0.269564
11967.099609 6579.648926 6129.119141 -0.970926 -0.217709 -0.099528
11938.461914 6656.061035 6241.343750 -0.970926 -0.217709 -0.099528
11876.218750 6901.470215 6311.733887 -0.970926 -0.217709 -0.099528
11936.016602 5586.071777 6083.349121 0.273661 -0.352593 0.894867
11669.995117 5930.198242 6300.293457 0.273661 -0.352593 0.894867
11059.537109 5510.656250 6321.672363 0.273661 -0.352593 0.894867
10446.746094 6690.838867 6148.908203 0.680829 0.546451 -0.487712
10587.628906 6819.794434 6490.062500 0.680829 0.546451 -0.487712
10489.815430 6516.465820 6013.657227 0.680829 0.546451 -0.487712
11316.938477 6781.676758 6301.184082 -0.090729 0.848388 -0.521543
10489.815430 6516.465820 6013.657227 -0.090729 0.848388 -0.521543
10587.628906 6819.794434 6490.062500 -0.090729 0.848388 -0.521543
10591.040039 6409.630859 6554.964844 -0.967385 -0.188336 0.169396
10520.693359 6767.446289 6551.051758 -0.967385 -0.188336 0.169396
10611.988281 5678.929199 5862.197754 -0.967385 -0.188336 0.169396
11938.461914 6656.061035 6241.343750 -0.038889 0.266376 -0.963084
11316.938477 6781.676758 6301.184082 -0.038889 0.266376 -0.963084
11876.218750 6901.470215 6311.733887 -0.038889 0.266376 -0.963084
10587.628906 6819.794434 6490.062500 -0.633084 0.773465 -0.030930
10446.746094 6690.838867 6148.908203 -0.633084 0.773465 -0.030930
10520.693359 6767.446289 6551.051758 -0.633084 0.773465 -0.030930
11876.218750 6901.470215 6311.733887 -0.174995 0.859321 -0.480567
11316.938477 6781.676758 6301.184082 -0.174995 0.859321 -0.480567
11631.993164 6914.208984 6423.445312 -0.174995 0.859321 -0.480567
12160.700195 6912.511719 6353.668457 0.810605 0.574767 0.112080
12300.214844 6695.613281 6456.940430 0.810605 0.574767 0.112080
12294.021484 6755.461914 6194.817871 0.810605 0.574767 0.112080
10587.628906 6819.794434 6490.062500 0.164806 0.872323 0.460317
11260.541992 6641.464844 6587.083984 0.164806 0.872323 0.460317
11316.938477 6781.676758 6301.184082 0.164806 0.872323 0.460317
12160.700195 6912.511719 6353.668457 -0.016453 0.988742 -0.148720
11876.218750 6901.470215 6311.733887 -0.016453 0.988742 -0.148720
11631.993164 6914.208984 6423.445312 -0.016453 0.988742 -0.148720
11059.537109 5510.656250 6321.672363 0.196026 -0.386045 0.901412
10653.084961 5499.773438 6405.400879 0.196026 -0.386045 0.901412
10717.944336 5364.989746 6333.572754 0.196026 -0.386045 0.901412
11669.995117 5930.198242 6300.293457 0.201890 -0.245446 0.948154
10653.084961 5499.773438 6405.400879 0.201890 -0.245446 0.948154
11059.537109 5510.656250 6321.672363 0.201890 -0.245446 0.948154
12098.083008 6520.980957 6504.897461 0.195828 -0.444609 0.874056
11669.995117 5930.198242 6300.293457 0.195828 -0.444609 0.874056
12290.032227 6223.196777 6310.417480 0.195828 -0.444609 0.874056
12098.083008 6520.980957 6504.897461 0.122938 0.127962 0.984130
12300.214844 6695.613281 6456.940430 0.122938 0.127962 0.984130
11973.117188 6875.113281 6474.461914 0.122938 0.127962 0.984130
12300.214844 6695.613281 6456.940430 0.356850 0.578695 0.733328
12160.700195 6912.511719 6353.668457 0.356850 0.578695 0.733328
11973.117188 6875.113281 6474.461914 0.356850 0.578695 0.733328
11669.995117 5930.198242 6300.293457 0.207743 -0.260572 0.942839
11260.541992 6641.464844 6587.083984 0.207743 -0.260572 0.942839
10653.084961 5499.773438 6405.400879 0.207743 -0.260572 0.942839
11973.117188 6875.113281 6474.461914 0.051475 0.928620 0.367444
12160.700195 6912.511719 6353.668457 0.051475 0.928620 0.367444
11631.993164 6914.208984 6423.445312 0.051475 0.928620 0.367444
12290.032227 6223.196777 6310.417480 0.440111 -0.274642 0.854912
12300.214844 6695.613281 6456.940430 0.440111 -0.274642 0.854912
12098.083008 6520.980957 6504.897461 0.440111 -0.274642 0.854912
11316.938477 6781.676758 6301.184082 0.062935 0.891096 0.449429
11260.541992 6641.464844 6587.083984 0.062935 0.891096 0.449429
11794.886719 6629.529785 6535.921387 0.062935 0.891096 0.449429
11260.541992 6641.464844 6587.083984 0.040887 -0.353309 0.934613
11669.995117 5930.198242 6300.293457 0.040887 -0.353309 0.934613
12098.083008 6520.980957 6504.897461 0.040887 -0.353309 0.934613
11631.993164 6914.208984 6423.445312 -0.404617 0.126325 0.905719
11316.938477 6781.676758 6301.184082 -0.404617 0.126325 0.905719
11794.886719 6629.529785 6535.921387 -0.404617 0.126325 0.905719
11794.886719 6629.529785 6535.921387 -0.105341 0.312694 0.943995
11973.117188 6875.113281 6474.461914 -0.105341 0.312694 0.943995
11631.993164 6914.208984 6423.445312 -0.105341 0.312694 0.943995
12098.083008 6520.980957 6504.897461 0.149184 0.136809 0.979299
11973.117188 6875.113281 6474.461914 0.149184 0.136809 0.979299
11794.886719 6629.529785 6535.921387 0.149184 0.136809 0.979299
10653.084961 5499.773438 6405.400879 0.008625 -0.161626 0.986814
11260.541992 6641.464844 6587.083984 0.008625 -0.161626 0.986814
10591.040039 6409.630859 6554.964844 0.008625 -0.161626 0.986814
11260.541992 6641.464844 6587.083984 0.094863 -0.019494 0.995300
12098.083008 6520.980957 6504.897461 0.094863 -0.019494 0.995300
11794.886719 6629.529785 6535.921387 0.094863 -0.019494 0.995300
11260.541992 6641.464844 6587.083984 0.086254 0.707236 0.701696
10587.628906 6819.794434 6490.062500 0.086254 0.707236 0.701696
10520.693359 6767.446289 6551.051758 0.086254 0.707236 0.701696
11260.541992 6641.464844 6587.083984 -0.048405 0.001407 0.998827
10520.693359 6767.446289 6551.051758 -0.048405 0.001407 0.998827
10591.040039 6409.630859 6554.964844 -0.048405 0.001407 0.998827
3 0 1 2
3 3 4 5
3 6 7 8
3 9 10 11
3 12 13 14
3 15 16 17
3 18 19 20
3 21 22 23
3 24 25 26
3 27 28 29
3 30 31 32
3 33 34 35
3 36 37 38
3 39 40 41
3 42 43 44
3 45 46 47
3 48 49 50
3 51 52 53
3 54 55 56
3 57 58 59
3 60 61 62
3 63 64 65
3 66 67 68
3 69 70 71
3 72 73 74
3 75 76 77
3 78 79 80
3 81 82 83
3 84 85 86
3 87 88 89
3 90 91 92
3 93 94 95
3 96 97 98
3 99 100 101
3 102 103 104
3 105 106 107
3 108 109 110
3 111 112 113
3 114 115 116
3 117 118 119
3 120 121 122
3 123 124 125
3 126 127 128
3 129 130 131
3 132 133 134
3 135 136 137
3 138 139 140
3 141 142 143
3 144 145 146
3 147 148 149
3 150 151 152
3 153 154 155
3 156 157 158
3 159 160 161
3 162 163 164
3 165 166 167
3 168 169 170
3 171 172 173
3 174 175 176
3 177 178 179
3 180 181 182
3 183 184 185
3 186 187 188
3 189 190 191
3 192 193 194
3 195 196 197
3 198 199 200
3 201 202 203
3 204 205 206
3 207 208 209
3 210 211 212
3 213 214 215
3 216 217 218
3 219 220 221
3 222 223 224
3 225 226 227
3 228 229 230
3 231 232 233
3 234 235 236
3 237 238 239
3 240 241 242
3 243 244 245
3 246 247 248
3 249 250 251
3 252 253 254
3 255 256 257
3 258 259 260
3 261 262 263
3 264 265 266
3 267 268 269
3 270 271 272
3 273 274 275
3 276 277 278
3 279 280 281
3 282 283 284
3 285 286 287
3 288 289 290
3 291 292 293
3 294 295 296
3 297 298 299
3 300 301 302
3 303 304 305
3 306 307 308
3 309 310 311
3 312 313 314
3 315 316 317
3 318 319 320
3 321 322 323
3 324 325 326
3 327 328 329
3 330 331 332
3 333 334 335
3 336 337 338
3 339 340 341
3 342 343 344
3 345 346 347
3 348 349 350
3 351 352 353
3 354 355 356
3 357 358 359
3 360 361 362
3 363 364 365
3 366 367 368
3 369 370 371
3 372 373 374
3 375 376 377
3 378 379 380
3 381 382 383
3 384 385 386
3 387 388 389
3 390 391 392
3 393 394 395
3 396 397 398
3 399 400 401
3 402 403 404
3 405 406 407
3 408 409 410
3 411 412 413
3 414 415 416
3 417 418 419
3 420 421 422
3 423 424 425
3 426 427 428
3 429 430 431
3 432 433 434
3 435 436 437
3 438 439 440
3 441 442 443
3 444 445 446
3 447 448 449
3 450 451 452
3 453 454 455
3 456 457 458
3 459 460 461
3 462 463 464
3 465 466 467
3 468 469 470
3 471 472 473
3 474 475 476
3 477 478 479
3 480 481 482
3 483 484 485
3 486 487 488
3 489 490 491
3 492 493 494
3 495 496 497
