ply
format ascii 1.0
comment Created by Blender 2.80 (sub 75) - www.blender.org, source file: 'downsample_ccf.blend'
element vertex 204
property float x
property float y
property float z
property float nx
property float ny
property float nz
element face 68
property list uchar uint vertex_indices
end_header
5643.998047 4647.785156 1684.739136 0.723288 -0.350786 -0.594814
5740.850586 4805.324219 1709.603638 0.723288 -0.350786 -0.594814
5842.642090 4710.138672 1889.516113 0.723288 -0.350786 -0.594814
5643.998047 4647.785156 1684.739136 -0.366548 0.360709 -0.857631
4995.878418 4794.538574 2023.465698 -0.366548 0.360709 -0.857631
5740.850586 4805.324219 1709.603638 -0.366548 0.360709 -0.857631
5135.573730 4413.785156 1891.347900 -0.430895 0.150639 -0.889740
4995.878418 4794.538574 2023.465698 -0.430895 0.150639 -0.889740
5643.998047 4647.785156 1684.739136 -0.430895 0.150639 -0.889740
5842.642090 4710.138672 1889.516113 0.605880 0.791901 0.076171
5740.850586 4805.324219 1709.603638 0.605880 0.791901 0.076171
5732.216309 4790.060547 1936.968262 0.605880 0.791901 0.076171
5643.998047 4647.785156 1684.739136 0.384650 -0.918314 -0.093509
5842.642090 4710.138672 1889.516113 0.384650 -0.918314 -0.093509
5135.573730 4413.785156 1891.347900 0.384650 -0.918314 -0.093509
5740.850586 4805.324219 1709.603638 0.013997 0.997621 0.067505
4995.878418 4794.538574 2023.465698 0.013997 0.997621 0.067505
5732.216309 4790.060547 1936.968262 0.013997 0.997621 0.067505
4995.878418 4794.538574 2023.465698 -0.532933 0.096177 -0.840674
5135.573730 4413.785156 1891.347900 -0.532933 0.096177 -0.840674
4587.413086 4548.395508 2254.246338 -0.532933 0.096177 -0.840674
5135.573730 4413.785156 1891.347900 0.383961 -0.916771 -0.110024
5842.642090 4710.138672 1889.516113 0.383961 -0.916771 -0.110024
5048.974121 4339.791504 2205.681885 0.383961 -0.916771 -0.110024
5160.717285 4772.713379 2176.093750 0.386312 -0.013822 0.922265
5842.642090 4710.138672 1889.516113 0.386312 -0.013822 0.922265
5732.216309 4790.060547 1936.968262 0.386312 -0.013822 0.922265
4995.878418 4794.538574 2023.465698 0.020152 0.992549 0.120166
5160.717285 4772.713379 2176.093750 0.020152 0.992549 0.120166
5732.216309 4790.060547 1936.968262 0.020152 0.992549 0.120166
4587.413086 4548.395508 2254.246338 -0.547966 0.022865 -0.836188
5135.573730 4413.785156 1891.347900 -0.547966 0.022865 -0.836188
4609.884277 4185.787598 2229.605469 -0.547966 0.022865 -0.836188
4983.628906 4635.630371 2285.167725 0.424287 -0.146380 0.893618
5048.974121 4339.791504 2205.681885 0.424287 -0.146380 0.893618
5842.642090 4710.138672 1889.516113 0.424287 -0.146380 0.893618
5842.642090 4710.138672 1889.516113 0.395135 0.202500 0.896026
5160.717285 4772.713379 2176.093750 0.395135 0.202500 0.896026
4983.628906 4635.630371 2285.167725 0.395135 0.202500 0.896026
5135.573730 4413.785156 1891.347900 0.321651 -0.937599 -0.132094
5048.974121 4339.791504 2205.681885 0.321651 -0.937599 -0.132094
4609.884277 4185.787598 2229.605469 0.321651 -0.937599 -0.132094
4995.878418 4794.538574 2023.465698 -0.236700 0.892779 0.383301
4621.801758 4472.566406 2542.395264 -0.236700 0.892779 0.383301
5160.717285 4772.713379 2176.093750 -0.236700 0.892779 0.383301
4983.628906 4635.630371 2285.167725 0.628997 -0.219057 0.745907
5160.717285 4772.713379 2176.093750 0.628997 -0.219057 0.745907
4621.801758 4472.566406 2542.395264 0.628997 -0.219057 0.745907
4587.413086 4548.395508 2254.246338 -0.375961 0.884099 0.277528
4621.801758 4472.566406 2542.395264 -0.375961 0.884099 0.277528
4995.878418 4794.538574 2023.465698 -0.375961 0.884099 0.277528
4105.072754 3968.759521 2661.764648 0.159832 -0.944338 -0.287540
4609.884277 4185.787598 2229.605469 0.159832 -0.944338 -0.287540
4382.533691 4034.239502 2600.944580 0.159832 -0.944338 -0.287540
4587.413086 4548.395508 2254.246338 -0.653010 0.010992 -0.757270
4609.884277 4185.787598 2229.605469 -0.653010 0.010992 -0.757270
4105.072754 3968.759521 2661.764648 -0.653010 0.010992 -0.757270
4609.884277 4185.787598 2229.605469 0.316141 -0.930280 -0.186103
5048.974121 4339.791504 2205.681885 0.316141 -0.930280 -0.186103
4382.533691 4034.239502 2600.944580 0.316141 -0.930280 -0.186103
5048.974121 4339.791504 2205.681885 0.444406 -0.893929 0.058260
4279.547852 3998.833496 2843.255859 0.444406 -0.893929 0.058260
4382.533691 4034.239502 2600.944580 0.444406 -0.893929 0.058260
4587.413086 4548.395508 2254.246338 -0.683113 0.056536 -0.728121
4105.072754 3968.759521 2661.764648 -0.683113 0.056536 -0.728121
4156.408691 4307.575195 2639.909912 -0.683113 0.056536 -0.728121
4587.413086 4548.395508 2254.246338 -0.269550 0.922876 0.275032
4156.408691 4307.575195 2639.909912 -0.269550 0.922876 0.275032
4621.801758 4472.566406 2542.395264 -0.269550 0.922876 0.275032
5048.974121 4339.791504 2205.681885 0.652297 -0.058952 0.755668
4983.628906 4635.630371 2285.167725 0.652297 -0.058952 0.755668
4279.547852 3998.833496 2843.255859 0.652297 -0.058952 0.755668
4279.547852 3998.833496 2843.255859 0.526794 0.150680 0.836531
4983.628906 4635.630371 2285.167725 0.526794 0.150680 0.836531
4621.801758 4472.566406 2542.395264 0.526794 0.150680 0.836531
4105.072754 3968.759521 2661.764648 -0.988419 0.147446 -0.035887
4130.609375 4174.969727 2805.660889 -0.988419 0.147446 -0.035887
4156.408691 4307.575195 2639.909912 -0.988419 0.147446 -0.035887
4279.547852 3998.833496 2843.255859 0.732716 -0.102048 0.672840
4621.801758 4472.566406 2542.395264 0.732716 -0.102048 0.672840
4332.656738 4248.391113 2823.270752 0.732716 -0.102048 0.672840
4621.801758 4472.566406 2542.395264 -0.204609 0.856843 0.473239
4156.408691 4307.575195 2639.909912 -0.204609 0.856843 0.473239
4332.656738 4248.391113 2823.270752 -0.204609 0.856843 0.473239
4382.533691 4034.239502 2600.944580 0.219174 -0.974443 -0.049231
4279.547852 3998.833496 2843.255859 0.219174 -0.974443 -0.049231
4105.072754 3968.759521 2661.764648 0.219174 -0.974443 -0.049231
4279.547852 3998.833496 2843.255859 -0.630653 -0.390071 0.670910
4130.609375 4174.969727 2805.660889 -0.630653 -0.390071 0.670910
4105.072754 3968.759521 2661.764648 -0.630653 -0.390071 0.670910
4332.656738 4248.391113 2823.270752 -0.325766 0.762350 0.559196
4156.408691 4307.575195 2639.909912 -0.325766 0.762350 0.559196
4130.609375 4174.969727 2805.660889 -0.325766 0.762350 0.559196
4332.656738 4248.391113 2823.270752 -0.124316 0.105467 0.986622
4130.609375 4174.969727 2805.660889 -0.124316 0.105467 0.986622
4279.547852 3998.833496 2843.255859 -0.124316 0.105467 0.986622
4229.228027 4197.668457 8514.070312 -0.684045 -0.176684 -0.707718
4265.908691 3992.350342 8529.875000 -0.684045 -0.176684 -0.707718
4059.781738 4117.757324 8697.798828 -0.684045 -0.176684 -0.707718
4059.781738 4117.757324 8697.798828 -0.699303 -0.255451 -0.667623
4265.908691 3992.350342 8529.875000 -0.699303 -0.255451 -0.667623
4127.312012 3953.378906 8689.959961 -0.699303 -0.255451 -0.667623
4265.908691 3992.350342 8529.875000 0.597416 0.045098 -0.800663
4229.228027 4197.668457 8514.070312 0.597416 0.045098 -0.800663
4531.013184 4409.491699 8751.178711 0.597416 0.045098 -0.800663
4105.408203 4258.650391 8680.119141 -0.759935 0.167279 -0.628105
4229.228027 4197.668457 8514.070312 -0.759935 0.167279 -0.628105
4059.781738 4117.757324 8697.798828 -0.759935 0.167279 -0.628105
4265.908691 3992.350342 8529.875000 0.642876 -0.002201 -0.765967
4531.013184 4409.491699 8751.178711 0.642876 -0.002201 -0.765967
4592.646484 4138.054199 8803.687500 0.642876 -0.002201 -0.765967
4229.228027 4197.668457 8514.070312 -0.221610 0.850226 -0.477499
4105.408203 4258.650391 8680.119141 -0.221610 0.850226 -0.477499
4531.013184 4409.491699 8751.178711 -0.221610 0.850226 -0.477499
4265.908691 3992.350342 8529.875000 0.351438 -0.933029 0.077126
4592.646484 4138.054199 8803.687500 0.351438 -0.933029 0.077126
4127.312012 3953.378906 8689.959961 0.351438 -0.933029 0.077126
4531.013184 4409.491699 8751.178711 -0.266251 0.906109 -0.328750
4105.408203 4258.650391 8680.119141 -0.266251 0.906109 -0.328750
4592.209961 4563.769531 9126.840820 -0.266251 0.906109 -0.328750
4592.209961 4563.769531 9126.840820 -0.741267 0.314460 0.592991
4105.408203 4258.650391 8680.119141 -0.741267 0.314460 0.592991
4059.781738 4117.757324 8697.798828 -0.741267 0.314460 0.592991
4531.013184 4409.491699 8751.178711 0.622271 -0.010124 -0.782736
5019.203125 4711.203613 9135.384766 0.622271 -0.010124 -0.782736
4592.646484 4138.054199 8803.687500 0.622271 -0.010124 -0.782736
4059.781738 4117.757324 8697.798828 -0.617086 -0.288426 0.732130
4127.312012 3953.378906 8689.959961 -0.617086 -0.288426 0.732130
4472.068848 4139.003906 9053.670898 -0.617086 -0.288426 0.732130
4592.646484 4138.054199 8803.687500 0.356138 -0.932674 0.057316
4925.993164 4296.520996 9311.058594 0.356138 -0.932674 0.057316
4127.312012 3953.378906 8689.959961 0.356138 -0.932674 0.057316
4127.312012 3953.378906 8689.959961 0.115204 -0.924737 0.362752
4925.993164 4296.520996 9311.058594 0.115204 -0.924737 0.362752
4472.068848 4139.003906 9053.670898 0.115204 -0.924737 0.362752
4472.068848 4139.003906 9053.670898 -0.654049 0.055031 0.754448
4592.209961 4563.769531 9126.840820 -0.654049 0.055031 0.754448
4059.781738 4117.757324 8697.798828 -0.654049 0.055031 0.754448
5019.203125 4711.203613 9135.384766 -0.303586 0.897735 -0.319229
4531.013184 4409.491699 8751.178711 -0.303586 0.897735 -0.319229
4592.209961 4563.769531 9126.840820 -0.303586 0.897735 -0.319229
5019.203125 4711.203613 9135.384766 0.631299 -0.021174 -0.775251
5079.413574 4353.193848 9194.193359 0.631299 -0.021174 -0.775251
4592.646484 4138.054199 8803.687500 0.631299 -0.021174 -0.775251
5079.413574 4353.193848 9194.193359 0.374834 -0.926095 0.042978
4925.993164 4296.520996 9311.058594 0.374834 -0.926095 0.042978
4592.646484 4138.054199 8803.687500 0.374834 -0.926095 0.042978
5019.203125 4711.203613 9135.384766 -0.307553 0.907334 -0.286629
4592.209961 4563.769531 9126.840820 -0.307553 0.907334 -0.286629
5054.154297 4803.989746 9391.599609 -0.307553 0.907334 -0.286629
4472.068848 4139.003906 9053.670898 -0.591714 0.028582 0.805641
5030.960938 4414.250000 9454.391602 -0.591714 0.028582 0.805641
4592.209961 4563.769531 9126.840820 -0.591714 0.028582 0.805641
5742.111816 4775.176270 9430.158203 0.058651 0.936037 -0.346979
5019.203125 4711.203613 9135.384766 0.058651 0.936037 -0.346979
5054.154297 4803.989746 9391.599609 0.058651 0.936037 -0.346979
4592.209961 4563.769531 9126.840820 -0.553479 0.164480 0.816460
5030.960938 4414.250000 9454.391602 -0.553479 0.164480 0.816460
5054.154297 4803.989746 9391.599609 -0.553479 0.164480 0.816460
5742.111816 4775.176270 9430.158203 0.382725 -0.086721 -0.919783
5079.413574 4353.193848 9194.193359 0.382725 -0.086721 -0.919783
5019.203125 4711.203613 9135.384766 0.382725 -0.086721 -0.919783
4472.068848 4139.003906 9053.670898 -0.144212 -0.710267 0.689002
4925.993164 4296.520996 9311.058594 -0.144212 -0.710267 0.689002
5030.960938 4414.250000 9454.391602 -0.144212 -0.710267 0.689002
5768.130371 4656.844238 9466.966797 0.383810 -0.921656 0.056915
4925.993164 4296.520996 9311.058594 0.383810 -0.921656 0.056915
5079.413574 4353.193848 9194.193359 0.383810 -0.921656 0.056915
5768.130371 4656.844238 9466.966797 0.395084 -0.918578 -0.011095
5476.448242 4530.006348 9581.570312 0.395084 -0.918578 -0.011095
4925.993164 4296.520996 9311.058594 0.395084 -0.918578 -0.011095
5742.111816 4775.176270 9430.158203 0.429982 -0.180618 -0.884586
5768.130371 4656.844238 9466.966797 0.429982 -0.180618 -0.884586
5079.413574 4353.193848 9194.193359 0.429982 -0.180618 -0.884586
5030.960938 4414.250000 9454.391602 0.025052 -0.781428 0.623493
4925.993164 4296.520996 9311.058594 0.025052 -0.781428 0.623493
5476.448242 4530.006348 9581.570312 0.025052 -0.781428 0.623493
5768.130371 4656.844238 9466.966797 0.925549 0.089033 -0.368012
5742.111816 4775.176270 9430.158203 0.925549 0.089033 -0.368012
5830.205566 4782.544922 9653.496094 0.925549 0.089033 -0.368012
5742.111816 4775.176270 9430.158203 0.137270 0.986732 -0.086701
5633.502441 4808.975586 9642.868164 0.137270 0.986732 -0.086701
5830.205566 4782.544922 9653.496094 0.137270 0.986732 -0.086701
5742.111816 4775.176270 9430.158203 0.048882 0.989997 -0.132350
5054.154297 4803.989746 9391.599609 0.048882 0.989997 -0.132350
5633.502441 4808.975586 9642.868164 0.048882 0.989997 -0.132350
5768.130371 4656.844238 9466.966797 0.488865 -0.790117 0.369765
5830.205566 4782.544922 9653.496094 0.488865 -0.790117 0.369765
5476.448242 4530.006348 9581.570312 0.488865 -0.790117 0.369765
5476.448242 4530.006348 9581.570312 -0.044032 -0.657209 0.752421
5526.206543 4622.512207 9665.282227 -0.044032 -0.657209 0.752421
5030.960938 4414.250000 9454.391602 -0.044032 -0.657209 0.752421
5054.154297 4803.989746 9391.599609 -0.445235 0.168191 0.879476
5030.960938 4414.250000 9454.391602 -0.445235 0.168191 0.879476
5526.206543 4622.512207 9665.282227 -0.445235 0.168191 0.879476
5476.448242 4530.006348 9581.570312 0.402717 -0.723732 0.560385
5830.205566 4782.544922 9653.496094 0.402717 -0.723732 0.560385
5526.206543 4622.512207 9665.282227 0.402717 -0.723732 0.560385
5526.206543 4622.512207 9665.282227 -0.378991 0.322353 0.867441
5633.502441 4808.975586 9642.868164 -0.378991 0.322353 0.867441
5054.154297 4803.989746 9391.599609 -0.378991 0.322353 0.867441
5633.502441 4808.975586 9642.868164 -0.034797 0.138989 0.989682
5526.206543 4622.512207 9665.282227 -0.034797 0.138989 0.989682
5830.205566 4782.544922 9653.496094 -0.034797 0.138989 0.989682
3 0 1 2
3 3 4 5
3 6 7 8
3 9 10 11
3 12 13 14
3 15 16 17
3 18 19 20
3 21 22 23
3 24 25 26
3 27 28 29
3 30 31 32
3 33 34 35
3 36 37 38
3 39 40 41
3 42 43 44
3 45 46 47
3 48 49 50
3 51 52 53
3 54 55 56
3 57 58 59
3 60 61 62
3 63 64 65
3 66 67 68
3 69 70 71
3 72 73 74
3 75 76 77
3 78 79 80
3 81 82 83
3 84 85 86
3 87 88 89
3 90 91 92
3 93 94 95
3 96 97 98
3 99 100 101
3 102 103 104
3 105 106 107
3 108 109 110
3 111 112 113
3 114 115 116
3 117 118 119
3 120 121 122
3 123 124 125
3 126 127 128
3 129 130 131
3 132 133 134
3 135 136 137
3 138 139 140
3 141 142 143
3 144 145 146
3 147 148 149
3 150 151 152
3 153 154 155
3 156 157 158
3 159 160 161
3 162 163 164
3 165 166 167
3 168 169 170
3 171 172 173
3 174 175 176
3 177 178 179
3 180 181 182
3 183 184 185
3 186 187 188
3 189 190 191
3 192 193 194
3 195 196 197
3 198 199 200
3 201 202 203
