ply
format ascii 1.0
comment Created by Blender 2.80 (sub 75) - www.blender.org, source file: 'downsample_ccf.blend'
element vertex 36
property float x
property float y
property float z
property float nx
property float ny
property float nz
element face 12
property list uchar uint vertex_indices
end_header
10366.116211 5010.806641 3865.284668 0.249769 -0.029819 -0.967846
10132.337891 5111.028320 3801.866455 0.249769 -0.029819 -0.967846
10272.036133 5470.727051 3826.835938 0.249769 -0.029819 -0.967846
10366.116211 5010.806641 3865.284668 0.105633 -0.061365 -0.992510
10272.036133 5470.727051 3826.835938 0.105633 -0.061365 -0.992510
10500.357422 5360.619141 3857.943848 0.105633 -0.061365 -0.992510
10272.036133 5470.727051 3826.835938 0.372300 0.563699 -0.737316
10447.675781 5477.644531 3920.812012 0.372300 0.563699 -0.737316
10500.357422 5360.619141 3857.943848 0.372300 0.563699 -0.737316
10447.675781 5477.644531 3920.812012 -0.471955 0.122691 0.873044
10272.036133 5470.727051 3826.835938 -0.471955 0.122691 0.873044
10132.337891 5111.028320 3801.866455 -0.471955 0.122691 0.873044
10366.116211 5010.806641 3865.284668 -0.286600 -0.063631 0.955935
10447.675781 5477.644531 3920.812012 -0.286600 -0.063631 0.955935
10132.337891 5111.028320 3801.866455 -0.286600 -0.063631 0.955935
10366.116211 5010.806641 3865.284668 0.545865 -0.192364 0.815492
10500.357422 5360.619141 3857.943848 0.545865 -0.192364 0.815492
10447.675781 5477.644531 3920.812012 0.545865 -0.192364 0.815492
10448.341797 5062.148926 7504.439453 -0.258280 -0.135150 -0.956570
10112.051758 5175.546387 7579.218262 -0.258280 -0.135150 -0.956570
10476.867188 5397.302246 7449.384766 -0.258280 -0.135150 -0.956570
10112.051758 5175.546387 7579.218262 -0.405872 0.138831 -0.903324
10382.444336 5540.107422 7513.757324 -0.405872 0.138831 -0.903324
10476.867188 5397.302246 7449.384766 -0.405872 0.138831 -0.903324
10448.341797 5062.148926 7504.439453 -0.369429 -0.673070 -0.640702
10256.083984 5070.152344 7606.887695 -0.369429 -0.673070 -0.640702
10112.051758 5175.546387 7579.218262 -0.369429 -0.673070 -0.640702
10448.341797 5062.148926 7504.439453 0.634300 0.072448 0.769685
10476.867188 5397.302246 7449.384766 0.634300 0.072448 0.769685
10382.444336 5540.107422 7513.757324 0.634300 0.072448 0.769685
10448.341797 5062.148926 7504.439453 0.471281 0.047808 0.880687
10382.444336 5540.107422 7513.757324 0.471281 0.047808 0.880687
10256.083984 5070.152344 7606.887695 0.471281 0.047808 0.880687
10382.444336 5540.107422 7513.757324 -0.038496 0.204194 0.978173
10112.051758 5175.546387 7579.218262 -0.038496 0.204194 0.978173
10256.083984 5070.152344 7606.887695 -0.038496 0.204194 0.978173
3 0 1 2
3 3 4 5
3 6 7 8
3 9 10 11
3 12 13 14
3 15 16 17
3 18 19 20
3 21 22 23
3 24 25 26
3 27 28 29
3 30 31 32
3 33 34 35
