ply
format ascii 1.0
comment Created by Blender 2.80 (sub 75) - www.blender.org, source file: 'downsample_ccf.blend'
element vertex 519
property float x
property float y
property float z
property float nx
property float ny
property float nz
element face 173
property list uchar uint vertex_indices
end_header
12036.376953 5919.067871 3096.904785 -0.028124 -0.087941 -0.995729
11618.785156 5844.449219 3115.289551 -0.028124 -0.087941 -0.995729
11952.393555 6068.338867 3086.093506 -0.028124 -0.087941 -0.995729
11952.393555 6068.338867 3086.093506 -0.016429 -0.105183 -0.994317
11618.785156 5844.449219 3115.289551 -0.016429 -0.105183 -0.994317
11602.268555 6375.259277 3059.411133 -0.016429 -0.105183 -0.994317
11977.840820 6366.252441 3085.424561 -0.981797 0.083480 -0.170604
11952.393555 6068.338867 3086.093506 -0.981797 0.083480 -0.170604
11975.440430 6396.354004 3113.967773 -0.981797 0.083480 -0.170604
11975.440430 6396.354004 3113.967773 0.140162 0.074056 -0.987355
11952.393555 6068.338867 3086.093506 0.140162 0.074056 -0.987355
11602.268555 6375.259277 3059.411133 0.140162 0.074056 -0.987355
11975.440430 6396.354004 3113.967773 0.114323 0.366087 -0.923532
11602.268555 6375.259277 3059.411133 0.114323 0.366087 -0.923532
11918.950195 6522.063965 3156.806152 0.114323 0.366087 -0.923532
12036.376953 5919.067871 3096.904785 -0.000904 -0.234456 -0.972126
12024.448242 5850.169434 3113.532715 -0.000904 -0.234456 -0.972126
11618.785156 5844.449219 3115.289551 -0.000904 -0.234456 -0.972126
11618.785156 5844.449219 3115.289551 -0.202532 -0.108753 -0.973218
11296.387695 6012.250000 3163.631104 -0.202532 -0.108753 -0.973218
11602.268555 6375.259277 3059.411133 -0.202532 -0.108753 -0.973218
11618.785156 5844.449219 3115.289551 0.000543 -0.328581 -0.944476
12024.448242 5850.169434 3113.532715 0.000543 -0.328581 -0.944476
12070.008789 5709.008789 3162.668457 0.000543 -0.328581 -0.944476
12024.448242 5850.169434 3113.532715 0.605143 0.292962 0.740253
12028.200195 5912.569824 3085.770020 0.605143 0.292962 0.740253
11952.393555 6068.338867 3086.093506 0.605143 0.292962 0.740253
12028.200195 5912.569824 3085.770020 -0.662490 -0.323810 0.675466
12036.376953 5919.067871 3096.904785 -0.662490 -0.323810 0.675466
11952.393555 6068.338867 3086.093506 -0.662490 -0.323810 0.675466
11602.268555 6375.259277 3059.411133 -0.396663 0.071492 -0.915176
11296.387695 6012.250000 3163.631104 -0.396663 0.071492 -0.915176
11185.750977 6407.585938 3242.467041 -0.396663 0.071492 -0.915176
11300.942383 5442.037109 3286.610596 -0.249149 -0.206078 -0.946286
11296.387695 6012.250000 3163.631104 -0.249149 -0.206078 -0.946286
11618.785156 5844.449219 3115.289551 -0.249149 -0.206078 -0.946286
11602.268555 6375.259277 3059.411133 -0.329863 0.449791 -0.829987
11185.750977 6407.585938 3242.467041 -0.329863 0.449791 -0.829987
11291.427734 6753.981445 3388.188232 -0.329863 0.449791 -0.829987
11602.268555 6375.259277 3059.411133 0.043774 0.485020 -0.873407
11709.761719 6798.859375 3300.031738 0.043774 0.485020 -0.873407
11918.950195 6522.063965 3156.806152 0.043774 0.485020 -0.873407
12069.423828 5681.178711 3160.188965 0.867307 0.332980 0.370003
12024.448242 5850.169434 3113.532715 0.867307 0.332980 0.370003
11952.393555 6068.338867 3086.093506 0.867307 0.332980 0.370003
11300.942383 5442.037109 3286.610596 -0.971532 -0.057336 -0.229866
11284.950195 5802.972656 3264.172607 -0.971532 -0.057336 -0.229866
11296.387695 6012.250000 3163.631104 -0.971532 -0.057336 -0.229866
11291.427734 6753.981445 3388.188232 -0.229082 0.524082 -0.820280
11709.761719 6798.859375 3300.031738 -0.229082 0.524082 -0.820280
11602.268555 6375.259277 3059.411133 -0.229082 0.524082 -0.820280
11918.950195 6522.063965 3156.806152 0.161601 0.547112 -0.821312
11709.761719 6798.859375 3300.031738 0.161601 0.547112 -0.821312
12036.668945 6792.602051 3360.185547 0.161601 0.547112 -0.821312
12069.423828 5681.178711 3160.188965 -0.913955 0.055032 -0.402066
11995.627930 5489.612305 3301.717529 -0.913955 0.055032 -0.402066
12070.008789 5709.008789 3162.668457 -0.913955 0.055032 -0.402066
11952.393555 6068.338867 3086.093506 0.461918 -0.037467 0.886131
11977.840820 6366.252441 3085.424561 0.461918 -0.037467 0.886131
11609.233398 6265.122070 3273.294678 0.461918 -0.037467 0.886131
12070.008789 5709.008789 3162.668457 -0.065973 -0.518102 -0.852771
11995.627930 5489.612305 3301.717529 -0.065973 -0.518102 -0.852771
11618.785156 5844.449219 3115.289551 -0.065973 -0.518102 -0.852771
11284.950195 5802.972656 3264.172607 -0.987063 -0.022331 -0.158769
11277.991211 6189.017578 3253.139648 -0.987063 -0.022331 -0.158769
11296.387695 6012.250000 3163.631104 -0.987063 -0.022331 -0.158769
11296.387695 6012.250000 3163.631104 -0.821095 -0.323558 0.470226
11277.991211 6189.017578 3253.139648 -0.821095 -0.323558 0.470226
11185.750977 6407.585938 3242.467041 -0.821095 -0.323558 0.470226
11977.840820 6366.252441 3085.424561 0.488408 -0.204083 0.848415
11918.950195 6522.063965 3156.806152 0.488408 -0.204083 0.848415
11609.233398 6265.122070 3273.294678 0.488408 -0.204083 0.848415
11330.345703 4976.926270 3388.754395 0.241789 -0.102701 -0.964879
10737.342773 4316.718262 3310.426025 0.241789 -0.102701 -0.964879
10636.046875 4630.447266 3251.649170 0.241789 -0.102701 -0.964879
12050.999023 5532.713867 3270.706299 0.017192 -0.598405 -0.801009
11995.627930 5489.612305 3301.717529 0.017192 -0.598405 -0.801009
12069.423828 5681.178711 3160.188965 0.017192 -0.598405 -0.801009
11300.942383 5442.037109 3286.610596 -0.316642 -0.072823 -0.945746
11145.616211 5497.746094 3334.325195 -0.316642 -0.072823 -0.945746
11284.950195 5802.972656 3264.172607 -0.316642 -0.072823 -0.945746
12045.611328 5529.503906 3259.676025 -0.877423 0.351726 0.326217
12050.999023 5532.713867 3270.706299 -0.877423 0.351726 0.326217
12069.423828 5681.178711 3160.188965 -0.877423 0.351726 0.326217
12045.611328 5529.503906 3259.676025 0.671304 0.329940 0.663695
12069.423828 5681.178711 3160.188965 0.671304 0.329940 0.663695
11952.393555 6068.338867 3086.093506 0.671304 0.329940 0.663695
11952.393555 6068.338867 3086.093506 0.546876 0.174768 0.818769
11609.233398 6265.122070 3273.294678 0.546876 0.174768 0.818769
11639.434570 5555.151855 3404.666748 0.546876 0.174768 0.818769
11995.627930 5489.612305 3301.717529 0.038688 -0.432250 -0.900924
11420.987305 4811.326660 3602.472656 0.038688 -0.432250 -0.900924
11618.785156 5844.449219 3115.289551 0.038688 -0.432250 -0.900924
11639.434570 5555.151855 3404.666748 0.335068 0.340922 0.878352
12045.611328 5529.503906 3259.676025 0.335068 0.340922 0.878352
11952.393555 6068.338867 3086.093506 0.335068 0.340922 0.878352
11330.345703 4976.926270 3388.754395 0.280163 -0.188980 -0.941167
10636.046875 4630.447266 3251.649170 0.280163 -0.188980 -0.941167
11300.942383 5442.037109 3286.610596 0.280163 -0.188980 -0.941167
10636.046875 4630.447266 3251.649170 -0.214724 0.216935 -0.952278
11145.616211 5497.746094 3334.325195 -0.214724 0.216935 -0.952278
11300.942383 5442.037109 3286.610596 -0.214724 0.216935 -0.952278
11330.345703 4976.926270 3388.754395 -0.228977 -0.222589 -0.947641
11300.942383 5442.037109 3286.610596 -0.228977 -0.222589 -0.947641
11618.785156 5844.449219 3115.289551 -0.228977 -0.222589 -0.947641
11995.627930 5489.612305 3301.717529 0.323693 0.463646 0.824776
12045.611328 5529.503906 3259.676025 0.323693 0.463646 0.824776
11639.434570 5555.151855 3404.666748 0.323693 0.463646 0.824776
11816.048828 6720.102539 3415.103516 0.627272 -0.477010 0.615622
11609.233398 6265.122070 3273.294678 0.627272 -0.477010 0.615622
11918.950195 6522.063965 3156.806152 0.627272 -0.477010 0.615622
10982.961914 4284.807129 3467.374756 0.476950 -0.331839 -0.813880
10737.342773 4316.718262 3310.426025 0.476950 -0.331839 -0.813880
11330.345703 4976.926270 3388.754395 0.476950 -0.331839 -0.813880
10636.046875 4630.447266 3251.649170 -0.786935 0.497187 -0.365428
10730.749023 4870.694336 3374.582764 -0.786935 0.497187 -0.365428
11145.616211 5497.746094 3334.325195 -0.786935 0.497187 -0.365428
11639.434570 5555.151855 3404.666748 -0.356089 0.020281 0.934232
11277.991211 6189.017578 3253.139648 -0.356089 0.020281 0.934232
11284.950195 5802.972656 3264.172607 -0.356089 0.020281 0.934232
11609.233398 6265.122070 3273.294678 -0.100222 0.176910 0.979111
11277.991211 6189.017578 3253.139648 -0.100222 0.176910 0.979111
11639.434570 5555.151855 3404.666748 -0.100222 0.176910 0.979111
11277.991211 6189.017578 3253.139648 0.011456 -0.302286 0.953149
11609.233398 6265.122070 3273.294678 0.011456 -0.302286 0.953149
11816.048828 6720.102539 3415.103516 0.011456 -0.302286 0.953149
12036.668945 6792.602051 3360.185547 0.378152 -0.655767 0.653431
11816.048828 6720.102539 3415.103516 0.378152 -0.655767 0.653431
11918.950195 6522.063965 3156.806152 0.378152 -0.655767 0.653431
11618.785156 5844.449219 3115.289551 0.675084 -0.416421 -0.608979
11420.987305 4811.326660 3602.472656 0.675084 -0.416421 -0.608979
11330.345703 4976.926270 3388.754395 0.675084 -0.416421 -0.608979
11185.750977 6407.585938 3242.467041 -0.652736 -0.240387 0.718436
11277.991211 6189.017578 3253.139648 -0.652736 -0.240387 0.718436
11296.264648 6704.982422 3442.382568 -0.652736 -0.240387 0.718436
10737.342773 4316.718262 3310.426025 -0.938357 -0.325020 -0.117676
10691.907227 4387.290039 3477.813965 -0.938357 -0.325020 -0.117676
10636.046875 4630.447266 3251.649170 -0.938357 -0.325020 -0.117676
11995.627930 5489.612305 3301.717529 0.373530 -0.621711 -0.688441
11900.720703 5225.343262 3488.876953 0.373530 -0.621711 -0.688441
11420.987305 4811.326660 3602.472656 0.373530 -0.621711 -0.688441
11816.048828 6720.102539 3415.103516 0.059203 -0.345588 0.936517
11296.264648 6704.982422 3442.382568 0.059203 -0.345588 0.936517
11277.991211 6189.017578 3253.139648 0.059203 -0.345588 0.936517
10982.961914 4284.807129 3467.374756 0.680637 -0.410547 -0.606782
11330.345703 4976.926270 3388.754395 0.680637 -0.410547 -0.606782
11420.987305 4811.326660 3602.472656 0.680637 -0.410547 -0.606782
11900.720703 5225.343262 3488.876953 0.323749 0.466639 0.823064
11995.627930 5489.612305 3301.717529 0.323749 0.466639 0.823064
11639.434570 5555.151855 3404.666748 0.323749 0.466639 0.823064
11185.750977 6407.585938 3242.467041 -0.950222 0.184165 0.251319
11296.264648 6704.982422 3442.382568 -0.950222 0.184165 0.251319
11291.427734 6753.981445 3388.188232 -0.950222 0.184165 0.251319
10636.046875 4630.447266 3251.649170 -0.906435 0.156596 0.392241
10691.907227 4387.290039 3477.813965 -0.906435 0.156596 0.392241
10730.749023 4870.694336 3374.582764 -0.906435 0.156596 0.392241
10730.749023 4870.694336 3374.582764 -0.632512 0.458556 0.624223
10685.957031 4383.957520 3686.753906 -0.632512 0.458556 0.624223
11145.616211 5497.746094 3334.325195 -0.632512 0.458556 0.624223
11286.556641 4947.824219 3722.957275 -0.018762 0.472647 0.881052
11639.434570 5555.151855 3404.666748 -0.018762 0.472647 0.881052
11284.950195 5802.972656 3264.172607 -0.018762 0.472647 0.881052
11145.616211 5497.746094 3334.325195 -0.508048 0.406458 0.759394
11286.556641 4947.824219 3722.957275 -0.508048 0.406458 0.759394
11284.950195 5802.972656 3264.172607 -0.508048 0.406458 0.759394
11900.720703 5225.343262 3488.876953 0.336624 -0.591159 -0.732949
12067.102539 4974.924805 3767.266357 0.336624 -0.591159 -0.732949
11420.987305 4811.326660 3602.472656 0.336624 -0.591159 -0.732949
11816.048828 6720.102539 3415.103516 0.049670 -0.890091 0.453068
11391.536133 6891.908691 3799.170410 0.049670 -0.890091 0.453068
11296.264648 6704.982422 3442.382568 0.049670 -0.890091 0.453068
10730.749023 4870.694336 3374.582764 -0.996866 0.074289 -0.027204
10691.907227 4387.290039 3477.813965 -0.996866 0.074289 -0.027204
10685.957031 4383.957520 3686.753906 -0.996866 0.074289 -0.027204
11286.556641 4947.824219 3722.957275 -0.454057 0.433664 0.778311
11145.616211 5497.746094 3334.325195 -0.454057 0.433664 0.778311
10685.957031 4383.957520 3686.753906 -0.454057 0.433664 0.778311
11709.761719 6798.859375 3300.031738 -0.187562 0.876169 -0.444014
11291.427734 6753.981445 3388.188232 -0.187562 0.876169 -0.444014
11751.541016 7082.608887 3842.304199 -0.187562 0.876169 -0.444014
10737.342773 4316.718262 3310.426025 -0.048998 -0.990971 -0.124806
10982.961914 4284.807129 3467.374756 -0.048998 -0.990971 -0.124806
10861.754883 4265.271973 3670.071777 -0.048998 -0.990971 -0.124806
10737.342773 4316.718262 3310.426025 -0.873799 -0.485192 -0.032623
10685.957031 4383.957520 3686.753906 -0.873799 -0.485192 -0.032623
10691.907227 4387.290039 3477.813965 -0.873799 -0.485192 -0.032623
11296.264648 6704.982422 3442.382568 -0.973021 0.121129 0.196360
11391.536133 6891.908691 3799.170410 -0.973021 0.121129 0.196360
11291.427734 6753.981445 3388.188232 -0.973021 0.121129 0.196360
11291.427734 6753.981445 3388.188232 -0.442313 0.877221 -0.186659
11391.536133 6891.908691 3799.170410 -0.442313 0.877221 -0.186659
11751.541016 7082.608887 3842.304199 -0.442313 0.877221 -0.186659
10861.754883 4265.271973 3670.071777 0.677292 -0.651269 0.342234
10982.961914 4284.807129 3467.374756 0.677292 -0.651269 0.342234
11420.987305 4811.326660 3602.472656 0.677292 -0.651269 0.342234
11900.720703 5225.343262 3488.876953 0.556461 0.590177 0.584844
11639.434570 5555.151855 3404.666748 0.556461 0.590177 0.584844
11825.316406 4941.908691 3846.640869 0.556461 0.590177 0.584844
12036.668945 6792.602051 3360.185547 0.277362 -0.950440 -0.140478
13024.326172 6990.991211 3967.982666 0.277362 -0.950440 -0.140478
11816.048828 6720.102539 3415.103516 0.277362 -0.950440 -0.140478
11420.987305 4811.326660 3602.472656 0.688635 -0.671328 0.274047
11313.039062 4743.180176 3706.791748 0.688635 -0.671328 0.274047
10861.754883 4265.271973 3670.071777 0.688635 -0.671328 0.274047
11816.048828 6720.102539 3415.103516 0.127039 -0.845502 0.518639
12313.585938 7041.777344 3817.637695 0.127039 -0.845502 0.518639
11391.536133 6891.908691 3799.170410 0.127039 -0.845502 0.518639
11709.761719 6798.859375 3300.031738 -0.077587 0.885804 -0.457528
11751.541016 7082.608887 3842.304199 -0.077587 0.885804 -0.457528
12486.825195 7148.512207 3845.208008 -0.077587 0.885804 -0.457528
12036.668945 6792.602051 3360.185547 0.136467 0.734016 -0.665279
11709.761719 6798.859375 3300.031738 0.136467 0.734016 -0.665279
12486.825195 7148.512207 3845.208008 0.136467 0.734016 -0.665279
10685.957031 4383.957520 3686.753906 -0.553315 -0.829793 0.072708
10737.342773 4316.718262 3310.426025 -0.553315 -0.829793 0.072708
10861.754883 4265.271973 3670.071777 -0.553315 -0.829793 0.072708
11286.556641 4947.824219 3722.957275 -0.183041 0.537691 0.823034
11825.316406 4941.908691 3846.640869 -0.183041 0.537691 0.823034
11639.434570 5555.151855 3404.666748 -0.183041 0.537691 0.823034
12036.668945 6792.602051 3360.185547 0.298102 0.616297 -0.728912
12486.825195 7148.512207 3845.208008 0.298102 0.616297 -0.728912
13105.253906 7090.611328 4049.170166 0.298102 0.616297 -0.728912
12067.102539 4974.924805 3767.266357 0.102075 0.769150 0.630864
11900.720703 5225.343262 3488.876953 0.102075 0.769150 0.630864
11825.316406 4941.908691 3846.640869 0.102075 0.769150 0.630864
13024.326172 6990.991211 3967.982666 -0.203925 -0.626235 0.752493
12313.585938 7041.777344 3817.637695 -0.203925 -0.626235 0.752493
11816.048828 6720.102539 3415.103516 -0.203925 -0.626235 0.752493
13105.253906 7090.611328 4049.170166 0.450891 0.314490 -0.835340
13024.326172 6990.991211 3967.982666 0.450891 0.314490 -0.835340
12036.668945 6792.602051 3360.185547 0.450891 0.314490 -0.835340
10861.754883 4265.271973 3670.071777 0.029834 -0.095660 0.994967
11286.556641 4947.824219 3722.957275 0.029834 -0.095660 0.994967
10685.957031 4383.957520 3686.753906 0.029834 -0.095660 0.994967
11313.039062 4743.180176 3706.791748 0.002004 -0.078490 0.996913
11286.556641 4947.824219 3722.957275 0.002004 -0.078490 0.996913
10861.754883 4265.271973 3670.071777 0.002004 -0.078490 0.996913
11825.316406 4941.908691 3846.640869 -0.223602 -0.105477 0.968956
11286.556641 4947.824219 3722.957275 -0.223602 -0.105477 0.968956
11313.039062 4743.180176 3706.791748 -0.223602 -0.105477 0.968956
11420.987305 4811.326660 3602.472656 0.302439 -0.910544 -0.281852
12067.102539 4974.924805 3767.266357 0.302439 -0.910544 -0.281852
11313.039062 4743.180176 3706.791748 0.302439 -0.910544 -0.281852
12067.102539 4974.924805 3767.266357 0.244917 -0.894515 0.373976
11825.316406 4941.908691 3846.640869 0.244917 -0.894515 0.373976
11313.039062 4743.180176 3706.791748 0.244917 -0.894515 0.373976
12313.585938 7041.777344 3817.637695 0.023292 -0.262182 0.964737
11751.541016 7082.608887 3842.304199 0.023292 -0.262182 0.964737
11391.536133 6891.908691 3799.170410 0.023292 -0.262182 0.964737
12313.585938 7041.777344 3817.637695 0.021550 -0.282685 0.958971
12486.825195 7148.512207 3845.208008 0.021550 -0.282685 0.958971
11751.541016 7082.608887 3842.304199 0.021550 -0.282685 0.958971
12313.585938 7041.777344 3817.637695 -0.435772 0.516980 0.736773
12929.980469 7166.233887 4094.882080 -0.435772 0.516980 0.736773
12486.825195 7148.512207 3845.208008 -0.435772 0.516980 0.736773
13105.253906 7090.611328 4049.170166 0.237984 0.843090 -0.482247
12486.825195 7148.512207 3845.208008 0.237984 0.843090 -0.482247
12929.980469 7166.233887 4094.882080 0.237984 0.843090 -0.482247
12313.585938 7041.777344 3817.637695 -0.202154 -0.643464 0.738301
13024.326172 6990.991211 3967.982666 -0.202154 -0.643464 0.738301
12929.980469 7166.233887 4094.882080 -0.202154 -0.643464 0.738301
13024.326172 6990.991211 3967.982666 -0.053456 -0.604390 0.794894
13105.253906 7090.611328 4049.170166 -0.053456 -0.604390 0.794894
12929.980469 7166.233887 4094.882080 -0.053456 -0.604390 0.794894
13068.960938 7008.483887 7388.415527 -0.179320 -0.575468 -0.797923
12838.263672 7160.996094 7330.268066 -0.179320 -0.575468 -0.797923
13076.130859 7159.599609 7277.818359 -0.179320 -0.575468 -0.797923
12556.137695 7049.263184 7492.893066 -0.204959 -0.603747 -0.770377
12838.263672 7160.996094 7330.268066 -0.204959 -0.603747 -0.770377
13068.960938 7008.483887 7388.415527 -0.204959 -0.603747 -0.770377
12838.263672 7160.996094 7330.268066 -0.572251 0.508576 -0.643334
12556.137695 7049.263184 7492.893066 -0.572251 0.508576 -0.643334
12637.950195 7141.074219 7492.699707 -0.572251 0.508576 -0.643334
12838.263672 7160.996094 7330.268066 0.044461 0.983484 0.175452
12637.950195 7141.074219 7492.699707 0.044461 0.983484 0.175452
13076.130859 7159.599609 7277.818359 0.044461 0.983484 0.175452
13076.130859 7159.599609 7277.818359 0.351434 0.542008 0.763362
12637.950195 7141.074219 7492.699707 0.351434 0.542008 0.763362
13068.960938 7008.483887 7388.415527 0.351434 0.542008 0.763362
12556.137695 7049.263184 7492.893066 -0.021049 0.598159 -0.801101
11779.415039 7058.116211 7519.912109 -0.021049 0.598159 -0.801101
12179.456055 7149.429199 7577.581543 -0.021049 0.598159 -0.801101
12637.950195 7141.074219 7492.699707 -0.177073 0.155742 -0.971797
12556.137695 7049.263184 7492.893066 -0.177073 0.155742 -0.971797
12179.456055 7149.429199 7577.581543 -0.177073 0.155742 -0.971797
11979.698242 6836.222656 7822.310547 -0.029417 -0.815078 -0.578604
11779.415039 7058.116211 7519.912109 -0.029417 -0.815078 -0.578604
12556.137695 7049.263184 7492.893066 -0.029417 -0.815078 -0.578604
11918.513672 4929.572754 7534.339844 -0.226226 0.120765 -0.966560
11312.631836 4774.743652 7656.803223 -0.226226 0.120765 -0.966560
11319.014648 5014.976074 7685.324707 -0.226226 0.120765 -0.966560
11779.415039 7058.116211 7519.912109 -0.260243 0.844473 0.468123
11405.448242 6922.231934 7557.142578 -0.260243 0.844473 0.468123
12179.456055 7149.429199 7577.581543 -0.260243 0.844473 0.468123
11918.513672 4929.572754 7534.339844 0.265950 0.720176 -0.640794
11631.395508 5302.975098 7834.835938 0.265950 0.720176 -0.640794
11919.013672 5188.758789 7825.841309 0.265950 0.720176 -0.640794
12035.989258 4980.014160 7636.654297 0.249950 0.723382 -0.643618
11918.513672 4929.572754 7534.339844 0.249950 0.723382 -0.643618
11919.013672 5188.758789 7825.841309 0.249950 0.723382 -0.643618
13068.960938 7008.483887 7388.415527 0.355306 0.575909 0.736265
12637.950195 7141.074219 7492.699707 0.355306 0.575909 0.736265
12441.025391 6881.197754 7791.007812 0.355306 0.575909 0.736265
11312.631836 4774.743652 7656.803223 0.273070 -0.950299 0.149549
11918.513672 4929.572754 7534.339844 0.273070 -0.950299 0.149549
11442.791992 4836.002930 7808.404785 0.273070 -0.950299 0.149549
11319.014648 5014.976074 7685.324707 -0.126034 0.561328 -0.817940
11631.395508 5302.975098 7834.835938 -0.126034 0.561328 -0.817940
11918.513672 4929.572754 7534.339844 -0.126034 0.561328 -0.817940
11979.698242 6836.222656 7822.310547 0.197072 -0.723601 -0.661487
11405.448242 6922.231934 7557.142578 0.197072 -0.723601 -0.661487
11779.415039 7058.116211 7519.912109 0.197072 -0.723601 -0.661487
11405.448242 6922.231934 7557.142578 0.099408 -0.863061 -0.495220
11979.698242 6836.222656 7822.310547 0.099408 -0.863061 -0.495220
11317.144531 6698.191895 7929.870117 0.099408 -0.863061 -0.495220
10864.176758 4273.003418 7684.833984 -0.064184 0.001615 -0.997937
10693.667969 4378.166504 7695.970703 -0.064184 0.001615 -0.997937
11312.631836 4774.743652 7656.803223 -0.064184 0.001615 -0.997937
11312.631836 4774.743652 7656.803223 -0.139336 0.120396 -0.982899
10693.667969 4378.166504 7695.970703 -0.139336 0.120396 -0.982899
11319.014648 5014.976074 7685.324707 -0.139336 0.120396 -0.982899
12035.989258 4980.014160 7636.654297 0.274672 -0.949343 0.152656
11442.791992 4836.002930 7808.404785 0.274672 -0.949343 0.152656
11918.513672 4929.572754 7534.339844 0.274672 -0.949343 0.152656
13068.960938 7008.483887 7388.415527 -0.203648 -0.620265 -0.757495
11979.698242 6836.222656 7822.310547 -0.203648 -0.620265 -0.757495
12556.137695 7049.263184 7492.893066 -0.203648 -0.620265 -0.757495
11405.448242 6922.231934 7557.142578 -0.276397 0.915251 0.293121
11506.857422 6785.678711 8079.144043 -0.276397 0.915251 0.293121
12179.456055 7149.429199 7577.581543 -0.276397 0.915251 0.293121
11312.631836 4774.743652 7656.803223 0.692577 -0.637846 -0.336883
11442.791992 4836.002930 7808.404785 0.692577 -0.637846 -0.336883
10864.176758 4273.003418 7684.833984 0.692577 -0.637846 -0.336883
10718.151367 4325.014160 7832.677246 -0.521996 -0.822390 -0.226264
10693.667969 4378.166504 7695.970703 -0.521996 -0.822390 -0.226264
10864.176758 4273.003418 7684.833984 -0.521996 -0.822390 -0.226264
11405.448242 6922.231934 7557.142578 -0.254844 0.922233 0.290760
11279.958984 6758.680176 7965.907227 -0.254844 0.922233 0.290760
11506.857422 6785.678711 8079.144043 -0.254844 0.922233 0.290760
11405.448242 6922.231934 7557.142578 -0.870059 -0.303415 -0.388505
11317.144531 6698.191895 7929.870117 -0.870059 -0.303415 -0.388505
11279.958984 6758.680176 7965.907227 -0.870059 -0.303415 -0.388505
11919.013672 5188.758789 7825.841309 0.351306 -0.512978 0.783223
11442.791992 4836.002930 7808.404785 0.351306 -0.512978 0.783223
12035.989258 4980.014160 7636.654297 0.351306 -0.512978 0.783223
10953.580078 4244.531738 7900.375488 0.687629 -0.625952 -0.367902
10864.176758 4273.003418 7684.833984 0.687629 -0.625952 -0.367902
11442.791992 4836.002930 7808.404785 0.687629 -0.625952 -0.367902
10750.789062 4783.827637 7870.260742 -0.428159 0.406962 -0.806884
11319.014648 5014.976074 7685.324707 -0.428159 0.406962 -0.806884
10693.667969 4378.166504 7695.970703 -0.428159 0.406962 -0.806884
11631.395508 5302.975098 7834.835938 -0.065237 0.514596 -0.854947
11319.014648 5014.976074 7685.324707 -0.065237 0.514596 -0.854947
11236.315430 5624.413086 8058.457520 -0.065237 0.514596 -0.854947
11979.698242 6836.222656 7822.310547 0.083349 -0.980150 -0.179888
13068.960938 7008.483887 7388.415527 0.083349 -0.980150 -0.179888
12441.025391 6881.197754 7791.007812 0.083349 -0.980150 -0.179888
12637.950195 7141.074219 7492.699707 0.279066 0.625195 0.728872
12088.200195 6810.535156 7986.706543 0.279066 0.625195 0.728872
12441.025391 6881.197754 7791.007812 0.279066 0.625195 0.728872
12637.950195 7141.074219 7492.699707 0.133918 0.748293 0.649710
12179.456055 7149.429199 7577.581543 0.133918 0.748293 0.649710
12088.200195 6810.535156 7986.706543 0.133918 0.748293 0.649710
10693.667969 4378.166504 7695.970703 -0.979102 0.053578 0.196183
10718.151367 4325.014160 7832.677246 -0.979102 0.053578 0.196183
10750.789062 4783.827637 7870.260742 -0.979102 0.053578 0.196183
11319.014648 5014.976074 7685.324707 -0.432295 0.427458 -0.793978
10750.789062 4783.827637 7870.260742 -0.432295 0.427458 -0.793978
11236.315430 5624.413086 8058.457520 -0.432295 0.427458 -0.793978
10718.151367 4325.014160 7832.677246 -0.326138 -0.945265 0.010413
10864.176758 4273.003418 7684.833984 -0.326138 -0.945265 0.010413
10953.580078 4244.531738 7900.375488 -0.326138 -0.945265 0.010413
11996.986328 5469.177246 8076.269531 0.465717 -0.657971 0.591762
11442.791992 4836.002930 7808.404785 0.465717 -0.657971 0.591762
11919.013672 5188.758789 7825.841309 0.465717 -0.657971 0.591762
11567.274414 6485.628906 8074.352051 -0.013646 -0.573029 -0.819421
11317.144531 6698.191895 7929.870117 -0.013646 -0.573029 -0.819421
11979.698242 6836.222656 7822.310547 -0.013646 -0.573029 -0.819421
10619.954102 4650.454590 8112.892578 -0.964880 -0.260227 -0.035902
10718.151367 4325.014160 7832.677246 -0.964880 -0.260227 -0.035902
10706.048828 4339.719238 8051.353516 -0.964880 -0.260227 -0.035902
10750.789062 4783.827637 7870.260742 -0.897587 0.099038 -0.429568
10718.151367 4325.014160 7832.677246 -0.897587 0.099038 -0.429568
10619.954102 4650.454590 8112.892578 -0.897587 0.099038 -0.429568
10750.789062 4783.827637 7870.260742 -0.732199 0.521109 -0.438555
10976.322266 5242.569336 8038.812500 -0.732199 0.521109 -0.438555
11236.315430 5624.413086 8058.457520 -0.732199 0.521109 -0.438555
11979.698242 6836.222656 7822.310547 0.081102 -0.975205 -0.205907
12441.025391 6881.197754 7791.007812 0.081102 -0.975205 -0.205907
12088.200195 6810.535156 7986.706543 0.081102 -0.975205 -0.205907
10953.580078 4244.531738 7900.375488 -0.334655 -0.941276 0.044776
10706.048828 4339.719238 8051.353516 -0.334655 -0.941276 0.044776
10718.151367 4325.014160 7832.677246 -0.334655 -0.941276 0.044776
11996.986328 5469.177246 8076.269531 0.220497 0.614880 -0.757169
11919.013672 5188.758789 7825.841309 0.220497 0.614880 -0.757169
11631.395508 5302.975098 7834.835938 0.220497 0.614880 -0.757169
11236.315430 5624.413086 8058.457520 -0.271559 0.301965 -0.913823
11291.040039 5864.037109 8121.376953 -0.271559 0.301965 -0.913823
11631.395508 5302.975098 7834.835938 -0.271559 0.301965 -0.913823
11506.857422 6785.678711 8079.144043 0.070135 0.760472 0.645572
12088.200195 6810.535156 7986.706543 0.070135 0.760472 0.645572
12179.456055 7149.429199 7577.581543 0.070135 0.760472 0.645572
10619.954102 4650.454590 8112.892578 -0.851444 0.488608 -0.190542
10976.322266 5242.569336 8038.812500 -0.851444 0.488608 -0.190542
10750.789062 4783.827637 7870.260742 -0.851444 0.488608 -0.190542
11442.791992 4836.002930 7808.404785 0.146793 -0.491610 0.858354
11996.986328 5469.177246 8076.269531 0.146793 -0.491610 0.858354
11460.636719 5205.442871 8016.944336 0.146793 -0.491610 0.858354
11631.395508 5302.975098 7834.835938 0.401312 0.348008 -0.847254
11677.620117 5839.829102 8077.242676 0.401312 0.348008 -0.847254
11996.986328 5469.177246 8076.269531 0.401312 0.348008 -0.847254
11631.395508 5302.975098 7834.835938 -0.077412 0.415819 -0.906147
11291.040039 5864.037109 8121.376953 -0.077412 0.415819 -0.906147
11677.620117 5839.829102 8077.242676 -0.077412 0.415819 -0.906147
10953.580078 4244.531738 7900.375488 0.574491 -0.360935 0.734633
11442.791992 4836.002930 7808.404785 0.574491 -0.360935 0.734633
10842.981445 4517.048340 8120.755859 0.574491 -0.360935 0.734633
11979.698242 6836.222656 7822.310547 0.440759 -0.795801 -0.415250
12088.200195 6810.535156 7986.706543 0.440759 -0.795801 -0.415250
11907.908203 6611.764648 8176.270508 0.440759 -0.795801 -0.415250
11460.636719 5205.442871 8016.944336 0.584751 -0.420002 0.694021
10842.981445 4517.048340 8120.755859 0.584751 -0.420002 0.694021
11442.791992 4836.002930 7808.404785 0.584751 -0.420002 0.694021
11567.274414 6485.628906 8074.352051 0.018914 -0.546728 -0.837096
11187.192383 6349.863770 8154.435547 0.018914 -0.546728 -0.837096
11317.144531 6698.191895 7929.870117 0.018914 -0.546728 -0.837096
11187.192383 6349.863770 8154.435547 -0.777593 -0.109113 -0.619228
11279.958984 6758.680176 7965.907227 -0.777593 -0.109113 -0.619228
11317.144531 6698.191895 7929.870117 -0.777593 -0.109113 -0.619228
11567.274414 6485.628906 8074.352051 0.423199 -0.801527 -0.422442
11979.698242 6836.222656 7822.310547 0.423199 -0.801527 -0.422442
11907.908203 6611.764648 8176.270508 0.423199 -0.801527 -0.422442
11907.908203 6611.764648 8176.270508 0.093670 0.641309 0.761544
12088.200195 6810.535156 7986.706543 0.093670 0.641309 0.761544
11506.857422 6785.678711 8079.144043 0.093670 0.641309 0.761544
10953.580078 4244.531738 7900.375488 0.282932 -0.531069 0.798696
10842.981445 4517.048340 8120.755859 0.282932 -0.531069 0.798696
10706.048828 4339.719238 8051.353516 0.282932 -0.531069 0.798696
10976.322266 5242.569336 8038.812500 0.052710 0.102504 0.993335
10842.981445 4517.048340 8120.755859 0.052710 0.102504 0.993335
11460.636719 5205.442871 8016.944336 0.052710 0.102504 0.993335
11460.636719 5205.442871 8016.944336 0.017240 -0.330855 0.943524
11386.682617 5740.839844 8206.037109 0.017240 -0.330855 0.943524
10976.322266 5242.569336 8038.812500 0.017240 -0.330855 0.943524
11567.274414 6485.628906 8074.352051 -0.114884 -0.024075 -0.993087
11677.620117 5839.829102 8077.242676 -0.114884 -0.024075 -0.993087
11291.040039 5864.037109 8121.376953 -0.114884 -0.024075 -0.993087
11291.040039 5864.037109 8121.376953 -0.213264 0.020879 -0.976771
11187.192383 6349.863770 8154.435547 -0.213264 0.020879 -0.976771
11567.274414 6485.628906 8074.352051 -0.213264 0.020879 -0.976771
10842.981445 4517.048340 8120.755859 0.028923 0.106933 0.993845
10976.322266 5242.569336 8038.812500 0.028923 0.106933 0.993845
10619.954102 4650.454590 8112.892578 0.028923 0.106933 0.993845
11386.682617 5740.839844 8206.037109 -0.531794 0.158791 0.831853
11291.040039 5864.037109 8121.376953 -0.531794 0.158791 0.831853
10976.322266 5242.569336 8038.812500 -0.531794 0.158791 0.831853
11677.620117 5839.829102 8077.242676 0.483749 0.078755 -0.871656
11567.274414 6485.628906 8074.352051 0.483749 0.078755 -0.871656
11971.954102 6368.565430 8288.363281 0.483749 0.078755 -0.871656
11236.315430 5624.413086 8058.457520 -0.400973 0.317233 -0.859409
10976.322266 5242.569336 8038.812500 -0.400973 0.317233 -0.859409
11291.040039 5864.037109 8121.376953 -0.400973 0.317233 -0.859409
11187.192383 6349.863770 8154.435547 -0.440200 0.456463 0.773218
11506.857422 6785.678711 8079.144043 -0.440200 0.456463 0.773218
11279.958984 6758.680176 7965.907227 -0.440200 0.456463 0.773218
10842.981445 4517.048340 8120.755859 -0.176001 -0.237936 0.955202
10619.954102 4650.454590 8112.892578 -0.176001 -0.237936 0.955202
10706.048828 4339.719238 8051.353516 -0.176001 -0.237936 0.955202
11677.620117 5839.829102 8077.242676 0.834185 -0.273051 -0.479144
11971.954102 6368.565430 8288.363281 0.834185 -0.273051 -0.479144
11899.456055 6139.940918 8292.431641 0.834185 -0.273051 -0.479144
11677.620117 5839.829102 8077.242676 0.436941 0.378626 -0.815920
12045.450195 5794.829102 8253.340820 0.436941 0.378626 -0.815920
11996.986328 5469.177246 8076.269531 0.436941 0.378626 -0.815920
12045.450195 5794.829102 8253.340820 0.442095 0.283416 -0.851015
11677.620117 5839.829102 8077.242676 0.442095 0.283416 -0.851015
11899.456055 6139.940918 8292.431641 0.442095 0.283416 -0.851015
11506.857422 6785.678711 8079.144043 -0.421968 0.445883 0.789387
11187.192383 6349.863770 8154.435547 -0.421968 0.445883 0.789387
11516.653320 6395.384766 8304.836914 -0.421968 0.445883 0.789387
11996.986328 5469.177246 8076.269531 0.145449 -0.489233 0.859939
12045.450195 5794.829102 8253.340820 0.145449 -0.489233 0.859939
11460.636719 5205.442871 8016.944336 0.145449 -0.489233 0.859939
11187.192383 6349.863770 8154.435547 -0.784509 -0.207458 0.584386
11291.040039 5864.037109 8121.376953 -0.784509 -0.207458 0.584386
11386.682617 5740.839844 8206.037109 -0.784509 -0.207458 0.584386
11971.954102 6368.565430 8288.363281 0.374842 -0.304831 -0.875541
11567.274414 6485.628906 8074.352051 0.374842 -0.304831 -0.875541
11907.908203 6611.764648 8176.270508 0.374842 -0.304831 -0.875541
11506.857422 6785.678711 8079.144043 0.007510 0.500720 0.865577
11516.653320 6395.384766 8304.836914 0.007510 0.500720 0.865577
11907.908203 6611.764648 8176.270508 0.007510 0.500720 0.865577
11899.456055 6139.940918 8292.431641 0.579098 0.329447 -0.745728
12050.235352 5828.948242 8272.129883 0.579098 0.329447 -0.745728
12045.450195 5794.829102 8253.340820 0.579098 0.329447 -0.745728
11460.636719 5205.442871 8016.944336 -0.043991 -0.338097 0.940082
12051.692383 5829.145508 8268.915039 -0.043991 -0.338097 0.940082
11386.682617 5740.839844 8206.037109 -0.043991 -0.338097 0.940082
12045.450195 5794.829102 8253.340820 0.058912 -0.421420 0.904950
12051.692383 5829.145508 8268.915039 0.058912 -0.421420 0.904950
11460.636719 5205.442871 8016.944336 0.058912 -0.421420 0.904950
12050.235352 5828.948242 8272.129883 -0.834202 -0.378252 -0.401288
11899.456055 6139.940918 8292.431641 -0.834202 -0.378252 -0.401288
12051.692383 5829.145508 8268.915039 -0.834202 -0.378252 -0.401288
11516.653320 6395.384766 8304.836914 -0.408149 -0.056491 0.911166
11187.192383 6349.863770 8154.435547 -0.408149 -0.056491 0.911166
11386.682617 5740.839844 8206.037109 -0.408149 -0.056491 0.911166
11907.908203 6611.764648 8176.270508 0.057946 0.430430 0.900762
11516.653320 6395.384766 8304.836914 0.057946 0.430430 0.900762
11971.954102 6368.565430 8288.363281 0.057946 0.430430 0.900762
12051.692383 5829.145508 8268.915039 -0.075613 -0.134130 0.988075
11516.653320 6395.384766 8304.836914 -0.075613 -0.134130 0.988075
11386.682617 5740.839844 8206.037109 -0.075613 -0.134130 0.988075
12051.692383 5829.145508 8268.915039 -0.026752 -0.088446 0.995722
11899.456055 6139.940918 8292.431641 -0.026752 -0.088446 0.995722
11516.653320 6395.384766 8304.836914 -0.026752 -0.088446 0.995722
11971.954102 6368.565430 8288.363281 0.036522 0.006201 0.999314
11516.653320 6395.384766 8304.836914 0.036522 0.006201 0.999314
11899.456055 6139.940918 8292.431641 0.036522 0.006201 0.999314
3 0 1 2
3 3 4 5
3 6 7 8
3 9 10 11
3 12 13 14
3 15 16 17
3 18 19 20
3 21 22 23
3 24 25 26
3 27 28 29
3 30 31 32
3 33 34 35
3 36 37 38
3 39 40 41
3 42 43 44
3 45 46 47
3 48 49 50
3 51 52 53
3 54 55 56
3 57 58 59
3 60 61 62
3 63 64 65
3 66 67 68
3 69 70 71
3 72 73 74
3 75 76 77
3 78 79 80
3 81 82 83
3 84 85 86
3 87 88 89
3 90 91 92
3 93 94 95
3 96 97 98
3 99 100 101
3 102 103 104
3 105 106 107
3 108 109 110
3 111 112 113
3 114 115 116
3 117 118 119
3 120 121 122
3 123 124 125
3 126 127 128
3 129 130 131
3 132 133 134
3 135 136 137
3 138 139 140
3 141 142 143
3 144 145 146
3 147 148 149
3 150 151 152
3 153 154 155
3 156 157 158
3 159 160 161
3 162 163 164
3 165 166 167
3 168 169 170
3 171 172 173
3 174 175 176
3 177 178 179
3 180 181 182
3 183 184 185
3 186 187 188
3 189 190 191
3 192 193 194
3 195 196 197
3 198 199 200
3 201 202 203
3 204 205 206
3 207 208 209
3 210 211 212
3 213 214 215
3 216 217 218
3 219 220 221
3 222 223 224
3 225 226 227
3 228 229 230
3 231 232 233
3 234 235 236
3 237 238 239
3 240 241 242
3 243 244 245
3 246 247 248
3 249 250 251
3 252 253 254
3 255 256 257
3 258 259 260
3 261 262 263
3 264 265 266
3 267 268 269
3 270 271 272
3 273 274 275
3 276 277 278
3 279 280 281
3 282 283 284
3 285 286 287
3 288 289 290
3 291 292 293
3 294 295 296
3 297 298 299
3 300 301 302
3 303 304 305
3 306 307 308
3 309 310 311
3 312 313 314
3 315 316 317
3 318 319 320
3 321 322 323
3 324 325 326
3 327 328 329
3 330 331 332
3 333 334 335
3 336 337 338
3 339 340 341
3 342 343 344
3 345 346 347
3 348 349 350
3 351 352 353
3 354 355 356
3 357 358 359
3 360 361 362
3 363 364 365
3 366 367 368
3 369 370 371
3 372 373 374
3 375 376 377
3 378 379 380
3 381 382 383
3 384 385 386
3 387 388 389
3 390 391 392
3 393 394 395
3 396 397 398
3 399 400 401
3 402 403 404
3 405 406 407
3 408 409 410
3 411 412 413
3 414 415 416
3 417 418 419
3 420 421 422
3 423 424 425
3 426 427 428
3 429 430 431
3 432 433 434
3 435 436 437
3 438 439 440
3 441 442 443
3 444 445 446
3 447 448 449
3 450 451 452
3 453 454 455
3 456 457 458
3 459 460 461
3 462 463 464
3 465 466 467
3 468 469 470
3 471 472 473
3 474 475 476
3 477 478 479
3 480 481 482
3 483 484 485
3 486 487 488
3 489 490 491
3 492 493 494
3 495 496 497
3 498 499 500
3 501 502 503
3 504 505 506
3 507 508 509
3 510 511 512
3 513 514 515
3 516 517 518
