ply
format ascii 1.0
comment Created by Blender 2.80 (sub 75) - www.blender.org, source file: 'downsample_ccf.blend'
element vertex 24
property float x
property float y
property float z
property float nx
property float ny
property float nz
element face 8
property list uchar uint vertex_indices
end_header
8987.899414 3729.168701 5532.902832 -0.135601 -0.507311 -0.851028
8908.099609 3847.466797 5475.098633 -0.135601 -0.507311 -0.851028
9327.216797 3737.084473 5474.118164 -0.135601 -0.507311 -0.851028
9327.216797 3737.084473 5474.118164 0.228940 0.873098 -0.430449
8908.099609 3847.466797 5475.098633 0.228940 0.873098 -0.430449
8977.802734 3892.925293 5604.376465 0.228940 0.873098 -0.430449
8908.099609 3847.466797 5475.098633 -0.800119 -0.280705 0.530108
8987.899414 3729.168701 5532.902832 -0.800119 -0.280705 0.530108
8977.802734 3892.925293 5604.376465 -0.800119 -0.280705 0.530108
8987.899414 3729.168701 5532.902832 0.166215 -0.385830 0.907473
9327.216797 3737.084473 5474.118164 0.166215 -0.385830 0.907473
8977.802734 3892.925293 5604.376465 0.166215 -0.385830 0.907473
9321.097656 3790.485596 5897.870605 0.244424 0.156359 -0.956979
9204.586914 3691.641113 5851.962402 0.244424 0.156359 -0.956979
8891.626953 3898.112793 5805.763672 0.244424 0.156359 -0.956979
9204.586914 3691.641113 5851.962402 -0.394447 -0.724393 -0.565391
8931.393555 3789.658203 5916.975098 -0.394447 -0.724393 -0.565391
8891.626953 3898.112793 5805.763672 -0.394447 -0.724393 -0.565391
8891.626953 3898.112793 5805.763672 0.032385 0.721313 0.691852
8931.393555 3789.658203 5916.975098 0.032385 0.721313 0.691852
9321.097656 3790.485596 5897.870605 0.032385 0.721313 0.691852
9321.097656 3790.485596 5897.870605 0.044372 -0.463365 0.885056
8931.393555 3789.658203 5916.975098 0.044372 -0.463365 0.885056
9204.586914 3691.641113 5851.962402 0.044372 -0.463365 0.885056
3 0 1 2
3 3 4 5
3 6 7 8
3 9 10 11
3 12 13 14
3 15 16 17
3 18 19 20
3 21 22 23
