ply
format ascii 1.0
comment Created by Blender 2.80 (sub 75) - www.blender.org, source file: 'downsample_ccf.blend'
element vertex 132
property float x
property float y
property float z
property float nx
property float ny
property float nz
element face 44
property list uchar uint vertex_indices
end_header
3801.117432 3393.763184 5130.849609 -0.010048 0.134695 -0.990836
3188.831543 3292.564453 5123.301758 -0.010048 0.134695 -0.990836
3359.547852 3796.705811 5190.104004 -0.010048 0.134695 -0.990836
3801.117432 3393.763184 5130.849609 0.004124 0.149910 -0.988691
3359.547852 3796.705811 5190.104004 0.004124 0.149910 -0.988691
3551.836182 4217.855469 5254.762695 0.004124 0.149910 -0.988691
3801.117432 3393.763184 5130.849609 0.641066 0.300129 -0.706369
3551.836182 4217.855469 5254.762695 0.641066 0.300129 -0.706369
3881.049805 3368.994141 5192.868164 0.641066 0.300129 -0.706369
3881.049805 3368.994141 5192.868164 -0.104338 -0.962614 -0.249975
3846.858887 3337.421875 5328.719238 -0.104338 -0.962614 -0.249975
3801.117432 3393.763184 5130.849609 -0.104338 -0.962614 -0.249975
3551.836182 4217.855469 5254.762695 0.038958 0.134234 -0.990183
3359.547852 3796.705811 5190.104004 0.038958 0.134234 -0.990183
3412.522461 4370.084473 5269.918457 0.038958 0.134234 -0.990183
3075.132568 3266.674316 5351.525391 -0.889271 0.172993 -0.423402
3055.502930 3425.197998 5457.522949 -0.889271 0.172993 -0.423402
3188.831543 3292.564453 5123.301758 -0.889271 0.172993 -0.423402
3881.049805 3368.994141 5192.868164 0.820079 0.351005 -0.451958
3551.836182 4217.855469 5254.762695 0.820079 0.351005 -0.451958
3787.553467 3819.742432 5373.284668 0.820079 0.351005 -0.451958
3188.831543 3292.564453 5123.301758 -0.656440 0.313225 -0.686277
3307.005859 4179.126953 5414.903320 -0.656440 0.313225 -0.686277
3359.547852 3796.705811 5190.104004 -0.656440 0.313225 -0.686277
3188.831543 3292.564453 5123.301758 0.158989 -0.939249 -0.304195
3801.117432 3393.763184 5130.849609 0.158989 -0.939249 -0.304195
3846.858887 3337.421875 5328.719238 0.158989 -0.939249 -0.304195
3359.547852 3796.705811 5190.104004 -0.880748 0.144167 -0.451108
3307.005859 4179.126953 5414.903320 -0.880748 0.144167 -0.451108
3412.522461 4370.084473 5269.918457 -0.880748 0.144167 -0.451108
3846.858887 3337.421875 5328.719238 0.089075 -0.993677 -0.068348
3075.132568 3266.674316 5351.525391 0.089075 -0.993677 -0.068348
3188.831543 3292.564453 5123.301758 0.089075 -0.993677 -0.068348
3881.049805 3368.994141 5192.868164 0.960118 0.093715 0.263422
3787.553467 3819.742432 5373.284668 0.960118 0.093715 0.263422
3846.858887 3337.421875 5328.719238 0.960118 0.093715 0.263422
3307.005859 4179.126953 5414.903320 -0.856680 0.260614 -0.445173
3188.831543 3292.564453 5123.301758 -0.856680 0.260614 -0.445173
3055.502930 3425.197998 5457.522949 -0.856680 0.260614 -0.445173
3551.836182 4217.855469 5254.762695 0.734427 0.654092 0.181056
3412.522461 4370.084473 5269.918457 0.734427 0.654092 0.181056
3598.391846 4111.829102 5448.952148 0.734427 0.654092 0.181056
3551.836182 4217.855469 5254.762695 0.846194 0.526148 0.084404
3598.391846 4111.829102 5448.952148 0.846194 0.526148 0.084404
3787.553467 3819.742432 5373.284668 0.846194 0.526148 0.084404
3846.858887 3337.421875 5328.719238 0.095432 -0.913498 0.395493
3773.750488 3379.440674 5443.414062 0.095432 -0.913498 0.395493
3075.132568 3266.674316 5351.525391 0.095432 -0.913498 0.395493
3846.858887 3337.421875 5328.719238 0.851158 0.056438 0.521866
3787.553467 3819.742432 5373.284668 0.851158 0.056438 0.521866
3773.750488 3379.440674 5443.414062 0.851158 0.056438 0.521866
3598.391846 4111.829102 5448.952148 0.041857 0.589402 0.806755
3412.522461 4370.084473 5269.918457 0.041857 0.589402 0.806755
3307.005859 4179.126953 5414.903320 0.041857 0.589402 0.806755
3773.750488 3379.440674 5443.414062 0.520873 0.118322 0.845394
3787.553467 3819.742432 5373.284668 0.520873 0.118322 0.845394
3598.391846 4111.829102 5448.952148 0.520873 0.118322 0.845394
3773.750488 3379.440674 5443.414062 -0.019204 -0.557383 0.830033
3055.502930 3425.197998 5457.522949 -0.019204 -0.557383 0.830033
3075.132568 3266.674316 5351.525391 -0.019204 -0.557383 0.830033
3773.750488 3379.440674 5443.414062 0.019455 -0.002902 0.999807
3598.391846 4111.829102 5448.952148 0.019455 -0.002902 0.999807
3055.502930 3425.197998 5457.522949 0.019455 -0.002902 0.999807
3598.391846 4111.829102 5448.952148 -0.095554 0.087927 0.991533
3307.005859 4179.126953 5414.903320 -0.095554 0.087927 0.991533
3055.502930 3425.197998 5457.522949 -0.095554 0.087927 0.991533
3786.926025 3354.989746 5975.623535 0.053194 -0.223308 -0.973295
3043.286133 3301.951904 5947.149414 0.053194 -0.223308 -0.973295
3722.518555 3613.019531 5912.902344 0.053194 -0.223308 -0.973295
3722.518555 3613.019531 5912.902344 -0.047058 -0.007216 -0.998866
3043.286133 3301.951904 5947.149414 -0.047058 -0.007216 -0.998866
3302.018555 4069.312988 5929.416504 -0.047058 -0.007216 -0.998866
3584.482910 4180.872559 5971.967285 0.297942 0.170126 -0.939302
3780.540283 3834.073975 5971.343750 0.297942 0.170126 -0.939302
3722.518555 3613.019531 5912.902344 0.297942 0.170126 -0.939302
3722.518555 3613.019531 5912.902344 0.098667 0.126649 -0.987028
3302.018555 4069.312988 5929.416504 0.098667 0.126649 -0.987028
3584.482910 4180.872559 5971.967285 0.098667 0.126649 -0.987028
3339.689209 4249.811523 5995.058594 -0.905770 0.298447 -0.300850
3302.018555 4069.312988 5929.416504 -0.905770 0.298447 -0.300850
3043.286133 3301.951904 5947.149414 -0.905770 0.298447 -0.300850
3154.756592 3284.709961 6228.763672 0.074287 -0.993148 -0.090211
3043.286133 3301.951904 5947.149414 0.074287 -0.993148 -0.090211
3786.926025 3354.989746 5975.623535 0.074287 -0.993148 -0.090211
3786.926025 3354.989746 5975.623535 0.703880 0.003037 -0.710312
3722.518555 3613.019531 5912.902344 0.703880 0.003037 -0.710312
3780.540283 3834.073975 5971.343750 0.703880 0.003037 -0.710312
3780.540283 3834.073975 5971.343750 0.894164 0.007919 -0.447670
3887.843994 3359.751221 6177.278809 0.894164 0.007919 -0.447670
3786.926025 3354.989746 5975.623535 0.894164 0.007919 -0.447670
3339.689209 4249.811523 5995.058594 0.007182 0.340439 -0.940239
3584.482910 4180.872559 5971.967285 0.007182 0.340439 -0.940239
3302.018555 4069.312988 5929.416504 0.007182 0.340439 -0.940239
3786.926025 3354.989746 5975.623535 0.099951 -0.994639 -0.026535
3887.843994 3359.751221 6177.278809 0.099951 -0.994639 -0.026535
3154.756592 3284.709961 6228.763672 0.099951 -0.994639 -0.026535
3339.689209 4249.811523 5995.058594 0.109647 0.643179 -0.757825
3434.060303 4368.125977 6109.128418 0.109647 0.643179 -0.757825
3584.482910 4180.872559 5971.967285 0.109647 0.643179 -0.757825
3154.756592 3284.709961 6228.763672 -0.892186 0.260338 0.369090
3339.689209 4249.811523 5995.058594 -0.892186 0.260338 0.369090
3043.286133 3301.951904 5947.149414 -0.892186 0.260338 0.369090
3780.540283 3834.073975 5971.343750 0.847316 0.478604 0.230204
3584.482910 4180.872559 5971.967285 0.847316 0.478604 0.230204
3690.897461 3897.166016 6170.123047 0.847316 0.478604 0.230204
3339.689209 4249.811523 5995.058594 -0.855197 0.238438 0.460203
3299.520020 3686.927734 6212.050293 -0.855197 0.238438 0.460203
3434.060303 4368.125977 6109.128418 -0.855197 0.238438 0.460203
3584.482910 4180.872559 5971.967285 0.836027 0.488328 0.250189
3434.060303 4368.125977 6109.128418 0.836027 0.488328 0.250189
3690.897461 3897.166016 6170.123047 0.836027 0.488328 0.250189
3299.520020 3686.927734 6212.050293 -0.733302 0.289488 0.615194
3339.689209 4249.811523 5995.058594 -0.733302 0.289488 0.615194
3154.756592 3284.709961 6228.763672 -0.733302 0.289488 0.615194
3887.843994 3359.751221 6177.278809 0.894921 0.331933 0.298225
3780.540283 3834.073975 5971.343750 0.894921 0.331933 0.298225
3690.897461 3897.166016 6170.123047 0.894921 0.331933 0.298225
3887.843994 3359.751221 6177.278809 0.123193 -0.819462 0.559737
3691.858643 3387.018066 6260.332520 0.123193 -0.819462 0.559737
3154.756592 3284.709961 6228.763672 0.123193 -0.819462 0.559737
3299.520020 3686.927734 6212.050293 0.028734 0.143781 0.989192
3690.897461 3897.166016 6170.123047 0.028734 0.143781 0.989192
3434.060303 4368.125977 6109.128418 0.028734 0.143781 0.989192
3887.843994 3359.751221 6177.278809 0.403948 0.160028 0.900676
3690.897461 3897.166016 6170.123047 0.403948 0.160028 0.900676
3691.858643 3387.018066 6260.332520 0.403948 0.160028 0.900676
3691.858643 3387.018066 6260.332520 -0.071257 0.067000 0.995205
3299.520020 3686.927734 6212.050293 -0.071257 0.067000 0.995205
3154.756592 3284.709961 6228.763672 -0.071257 0.067000 0.995205
3690.897461 3897.166016 6170.123047 0.011940 0.174138 0.984649
3299.520020 3686.927734 6212.050293 0.011940 0.174138 0.984649
3691.858643 3387.018066 6260.332520 0.011940 0.174138 0.984649
3 0 1 2
3 3 4 5
3 6 7 8
3 9 10 11
3 12 13 14
3 15 16 17
3 18 19 20
3 21 22 23
3 24 25 26
3 27 28 29
3 30 31 32
3 33 34 35
3 36 37 38
3 39 40 41
3 42 43 44
3 45 46 47
3 48 49 50
3 51 52 53
3 54 55 56
3 57 58 59
3 60 61 62
3 63 64 65
3 66 67 68
3 69 70 71
3 72 73 74
3 75 76 77
3 78 79 80
3 81 82 83
3 84 85 86
3 87 88 89
3 90 91 92
3 93 94 95
3 96 97 98
3 99 100 101
3 102 103 104
3 105 106 107
3 108 109 110
3 111 112 113
3 114 115 116
3 117 118 119
3 120 121 122
3 123 124 125
3 126 127 128
3 129 130 131
