ply
format ascii 1.0
comment Created by Blender 2.80 (sub 75) - www.blender.org, source file: 'downsample_ccf.blend'
element vertex 36
property float x
property float y
property float z
property float nx
property float ny
property float nz
element face 12
property list uchar uint vertex_indices
end_header
8649.541992 5349.908203 5505.592285 -0.066130 -0.054264 -0.996334
8262.667969 5336.402344 5532.005859 -0.066130 -0.054264 -0.996334
8421.958008 5574.862793 5508.445801 -0.066130 -0.054264 -0.996334
8262.667969 5336.402344 5532.005859 -0.041285 -0.504292 -0.862546
8649.541992 5349.908203 5505.592285 -0.041285 -0.504292 -0.862546
8596.426758 5050.851562 5682.979492 -0.041285 -0.504292 -0.862546
8421.958008 5574.862793 5508.445801 -0.804187 0.506454 -0.311106
8262.667969 5336.402344 5532.005859 -0.804187 0.506454 -0.311106
8203.837891 5414.234375 5810.781738 -0.804187 0.506454 -0.311106
8649.541992 5349.908203 5505.592285 0.682964 0.693843 -0.228346
8421.958008 5574.862793 5508.445801 0.682964 0.693843 -0.228346
8443.130859 5631.699707 5744.474121 0.682964 0.693843 -0.228346
8421.958008 5574.862793 5508.445801 -0.685126 0.719784 -0.111869
8203.837891 5414.234375 5810.781738 -0.685126 0.719784 -0.111869
8443.130859 5631.699707 5744.474121 -0.685126 0.719784 -0.111869
8596.426758 5050.851562 5682.979492 0.940275 -0.280988 -0.192169
8649.541992 5349.908203 5505.592285 0.940275 -0.280988 -0.192169
8694.953125 5281.890137 5827.242676 0.940275 -0.280988 -0.192169
8262.667969 5336.402344 5532.005859 -0.665943 -0.742997 0.066905
8596.426758 5050.851562 5682.979492 -0.665943 -0.742997 0.066905
8203.837891 5414.234375 5810.781738 -0.665943 -0.742997 0.066905
8443.130859 5631.699707 5744.474121 0.810484 0.585685 0.009427
8694.953125 5281.890137 5827.242676 0.810484 0.585685 0.009427
8649.541992 5349.908203 5505.592285 0.810484 0.585685 0.009427
8203.837891 5414.234375 5810.781738 -0.577037 0.740199 0.345159
8374.876953 5504.362305 5903.444336 -0.577037 0.740199 0.345159
8443.130859 5631.699707 5744.474121 -0.577037 0.740199 0.345159
8596.426758 5050.851562 5682.979492 -0.156802 -0.474115 0.866388
8694.953125 5281.890137 5827.242676 -0.156802 -0.474115 0.866388
8203.837891 5414.234375 5810.781738 -0.156802 -0.474115 0.866388
8374.876953 5504.362305 5903.444336 0.529404 0.536590 0.657116
8694.953125 5281.890137 5827.242676 0.529404 0.536590 0.657116
8443.130859 5631.699707 5744.474121 0.529404 0.536590 0.657116
8203.837891 5414.234375 5810.781738 -0.170679 -0.530060 0.830605
8694.953125 5281.890137 5827.242676 -0.170679 -0.530060 0.830605
8374.876953 5504.362305 5903.444336 -0.170679 -0.530060 0.830605
3 0 1 2
3 3 4 5
3 6 7 8
3 9 10 11
3 12 13 14
3 15 16 17
3 18 19 20
3 21 22 23
3 24 25 26
3 27 28 29
3 30 31 32
3 33 34 35
