ply
format ascii 1.0
comment Created by Blender 2.80 (sub 75) - www.blender.org, source file: 'downsample_ccf.blend'
element vertex 18
property float x
property float y
property float z
property float nx
property float ny
property float nz
element face 6
property list uchar uint vertex_indices
end_header
8480.666016 5232.210449 5457.819336 0.060465 -0.567405 -0.821216
8285.630859 5254.242188 5428.236816 0.060465 -0.567405 -0.821216
8331.462891 5372.667969 5349.787109 0.060465 -0.567405 -0.821216
8283.927734 5250.392090 5519.215332 -0.933093 0.359627 -0.002249
8331.462891 5372.667969 5349.787109 -0.933093 0.359627 -0.002249
8285.630859 5254.242188 5428.236816 -0.933093 0.359627 -0.002249
8480.666016 5232.210449 5457.819336 -0.105545 -0.993440 -0.044017
8283.927734 5250.392090 5519.215332 -0.105545 -0.993440 -0.044017
8285.630859 5254.242188 5428.236816 -0.105545 -0.993440 -0.044017
8283.927734 5250.392090 5519.215332 0.260008 0.746905 0.611988
8480.666016 5232.210449 5457.819336 0.260008 0.746905 0.611988
8331.462891 5372.667969 5349.787109 0.260008 0.746905 0.611988
8267.145508 5263.255371 5864.450684 -0.330457 -0.782874 0.527168
8450.732422 5239.209961 5943.823730 -0.330457 -0.782874 0.527168
8305.925781 5355.434570 6025.651367 -0.330457 -0.782874 0.527168
8305.925781 5355.434570 6025.651367 0.330457 0.782874 -0.527168
8450.732422 5239.209961 5943.823730 0.330457 0.782874 -0.527168
8267.145508 5263.255371 5864.450684 0.330457 0.782874 -0.527168
3 0 1 2
3 3 4 5
3 6 7 8
3 9 10 11
3 12 13 14
3 15 16 17
