ply
format ascii 1.0
comment Created by Blender 2.80 (sub 75) - www.blender.org, source file: 'downsample_ccf.blend'
element vertex 270
property float x
property float y
property float z
property float nx
property float ny
property float nz
element face 90
property list uchar uint vertex_indices
end_header
6942.733887 3394.006348 3649.870361 0.263420 0.190823 -0.945620
7048.143066 3346.840088 3669.716064 0.263420 0.190823 -0.945620
6765.755859 3181.631592 3557.713379 0.263420 0.190823 -0.945620
6970.563965 3110.800049 3656.749268 0.409837 -0.084809 -0.908207
6765.755859 3181.631592 3557.713379 0.409837 -0.084809 -0.908207
7048.143066 3346.840088 3669.716064 0.409837 -0.084809 -0.908207
6645.474609 3015.037354 3706.608398 -0.161901 -0.590045 -0.790971
6765.755859 3181.631592 3557.713379 -0.161901 -0.590045 -0.790971
6942.461426 2825.267090 3787.383301 -0.161901 -0.590045 -0.790971
6970.563965 3110.800049 3656.749268 0.272034 -0.422357 -0.864645
6942.461426 2825.267090 3787.383301 0.272034 -0.422357 -0.864645
6765.755859 3181.631592 3557.713379 0.272034 -0.422357 -0.864645
6730.311523 3439.173096 3981.560547 -0.573842 0.677717 -0.459788
6942.733887 3394.006348 3649.870361 -0.573842 0.677717 -0.459788
6765.755859 3181.631592 3557.713379 -0.573842 0.677717 -0.459788
6942.461426 2825.267090 3787.383301 0.878990 -0.267201 -0.394942
6970.563965 3110.800049 3656.749268 0.878990 -0.267201 -0.394942
7048.143066 3346.840088 3669.716064 0.878990 -0.267201 -0.394942
6942.461426 2825.267090 3787.383301 0.951750 -0.236862 -0.195112
7048.143066 3346.840088 3669.716064 0.951750 -0.236862 -0.195112
7086.138672 3210.520996 4020.546631 0.951750 -0.236862 -0.195112
7048.143066 3346.840088 3669.716064 0.883049 0.461741 0.083779
7009.907227 3299.171143 4335.455078 0.883049 0.461741 0.083779
7086.138672 3210.520996 4020.546631 0.883049 0.461741 0.083779
7048.143066 3346.840088 3669.716064 0.392978 0.915317 0.088110
6942.733887 3394.006348 3649.870361 0.392978 0.915317 0.088110
7009.907227 3299.171143 4335.455078 0.392978 0.915317 0.088110
6645.474609 3015.037354 3706.608398 -0.710651 -0.108224 -0.695171
6091.983398 3520.441162 4193.743164 -0.710651 -0.108224 -0.695171
6765.755859 3181.631592 3557.713379 -0.710651 -0.108224 -0.695171
6645.474609 3015.037354 3706.608398 -0.405116 -0.812460 -0.419273
6942.461426 2825.267090 3787.383301 -0.405116 -0.812460 -0.419273
6505.498047 2881.934326 4099.783203 -0.405116 -0.812460 -0.419273
6942.461426 2825.267090 3787.383301 -0.252666 -0.950472 -0.181003
6934.036621 2764.578857 4117.826172 -0.252666 -0.950472 -0.181003
6505.498047 2881.934326 4099.783203 -0.252666 -0.950472 -0.181003
7009.907227 3299.171143 4335.455078 0.346870 0.933081 0.095085
6942.733887 3394.006348 3649.870361 0.346870 0.933081 0.095085
6730.311523 3439.173096 3981.560547 0.346870 0.933081 0.095085
6942.461426 2825.267090 3787.383301 0.943370 -0.329728 -0.036505
7086.138672 3210.520996 4020.546631 0.943370 -0.329728 -0.036505
6934.036621 2764.578857 4117.826172 0.943370 -0.329728 -0.036505
6730.311523 3439.173096 3981.560547 0.693015 0.661910 -0.285665
6885.047363 3434.567139 4346.272461 0.693015 0.661910 -0.285665
7009.907227 3299.171143 4335.455078 0.693015 0.661910 -0.285665
6765.755859 3181.631592 3557.713379 -0.133610 0.808966 -0.572470
6091.983398 3520.441162 4193.743164 -0.133610 0.808966 -0.572470
6346.582031 3733.607422 4435.550293 -0.133610 0.808966 -0.572470
6091.983398 3520.441162 4193.743164 -0.775178 -0.329283 -0.539139
6645.474609 3015.037354 3706.608398 -0.775178 -0.329283 -0.539139
6069.704102 3402.807617 4297.622070 -0.775178 -0.329283 -0.539139
6645.474609 3015.037354 3706.608398 -0.765363 -0.475689 -0.433519
6505.498047 2881.934326 4099.783203 -0.765363 -0.475689 -0.433519
6069.704102 3402.807617 4297.622070 -0.765363 -0.475689 -0.433519
6730.311523 3439.173096 3981.560547 -0.170275 0.835740 -0.522059
6765.755859 3181.631592 3557.713379 -0.170275 0.835740 -0.522059
6522.437500 3765.939941 4572.467285 -0.170275 0.835740 -0.522059
6934.036621 2764.578857 4117.826172 -0.259822 -0.961884 -0.085273
6548.961426 2838.815918 4453.729492 -0.259822 -0.961884 -0.085273
6505.498047 2881.934326 4099.783203 -0.259822 -0.961884 -0.085273
6931.845703 3010.955566 4500.851562 0.941644 -0.280624 0.185895
6934.036621 2764.578857 4117.826172 0.941644 -0.280624 0.185895
7086.138672 3210.520996 4020.546631 0.941644 -0.280624 0.185895
6346.582031 3733.607422 4435.550293 0.193782 0.869552 -0.454234
6522.437500 3765.939941 4572.467285 0.193782 0.869552 -0.454234
6765.755859 3181.631592 3557.713379 0.193782 0.869552 -0.454234
6931.845703 3010.955566 4500.851562 0.958705 -0.108888 0.262732
7086.138672 3210.520996 4020.546631 0.958705 -0.108888 0.262732
7009.907227 3299.171143 4335.455078 0.958705 -0.108888 0.262732
6505.498047 2881.934326 4099.783203 -0.560605 -0.827467 -0.031963
6548.961426 2838.815918 4453.729492 -0.560605 -0.827467 -0.031963
6195.688965 3068.631592 4700.306152 -0.560605 -0.827467 -0.031963
6505.498047 2881.934326 4099.783203 -0.787641 -0.572219 -0.228445
6195.688965 3068.631592 4700.306152 -0.787641 -0.572219 -0.228445
6069.704102 3402.807617 4297.622070 -0.787641 -0.572219 -0.228445
6730.311523 3439.173096 3981.560547 0.572776 0.785874 -0.233086
6522.437500 3765.939941 4572.467285 0.572776 0.785874 -0.233086
6885.047363 3434.567139 4346.272461 0.572776 0.785874 -0.233086
6346.582031 3733.607422 4435.550293 -0.779881 0.490773 0.388493
6091.983398 3520.441162 4193.743164 -0.779881 0.490773 0.388493
6069.704102 3402.807617 4297.622070 -0.779881 0.490773 0.388493
6934.036621 2764.578857 4117.826172 0.796088 -0.506895 0.330608
6931.845703 3010.955566 4500.851562 0.796088 -0.506895 0.330608
6848.133301 2884.816162 4509.027344 0.796088 -0.506895 0.330608
6548.961426 2838.815918 4453.729492 0.088186 -0.946543 0.310289
6934.036621 2764.578857 4117.826172 0.088186 -0.946543 0.310289
6848.133301 2884.816162 4509.027344 0.088186 -0.946543 0.310289
6069.704102 3402.807617 4297.622070 -0.884403 -0.455582 -0.101378
6195.688965 3068.631592 4700.306152 -0.884403 -0.455582 -0.101378
6069.185059 3339.641357 4586.013184 -0.884403 -0.455582 -0.101378
6069.185059 3339.641357 4586.013184 -0.786417 0.603686 0.130810
6346.582031 3733.607422 4435.550293 -0.786417 0.603686 0.130810
6069.704102 3402.807617 4297.622070 -0.786417 0.603686 0.130810
6522.437500 3765.939941 4572.467285 0.727318 0.654129 0.207662
7009.907227 3299.171143 4335.455078 0.727318 0.654129 0.207662
6885.047363 3434.567139 4346.272461 0.727318 0.654129 0.207662
6346.582031 3733.607422 4435.550293 -0.755131 0.616668 0.222482
6069.185059 3339.641357 4586.013184 -0.755131 0.616668 0.222482
6324.856445 3580.845215 4785.231445 -0.755131 0.616668 0.222482
6548.961426 2838.815918 4453.729492 -0.363203 -0.881633 0.301340
6351.196777 3042.707031 4811.891113 -0.363203 -0.881633 0.301340
6195.688965 3068.631592 4700.306152 -0.363203 -0.881633 0.301340
6522.437500 3765.939941 4572.467285 0.670618 0.375523 0.639729
6577.699219 3140.599854 4881.614258 0.670618 0.375523 0.639729
7009.907227 3299.171143 4335.455078 0.670618 0.375523 0.639729
6351.196777 3042.707031 4811.891113 0.037845 -0.859299 0.510071
6548.961426 2838.815918 4453.729492 0.037845 -0.859299 0.510071
6848.133301 2884.816162 4509.027344 0.037845 -0.859299 0.510071
6346.582031 3733.607422 4435.550293 -0.420248 0.840814 0.341209
6324.856445 3580.845215 4785.231445 -0.420248 0.840814 0.341209
6522.437500 3765.939941 4572.467285 -0.420248 0.840814 0.341209
7009.907227 3299.171143 4335.455078 0.749582 0.164857 0.641053
6577.699219 3140.599854 4881.614258 0.749582 0.164857 0.641053
6931.845703 3010.955566 4500.851562 0.749582 0.164857 0.641053
6848.133301 2884.816162 4509.027344 0.138423 -0.766746 0.626848
6577.699219 3140.599854 4881.614258 0.138423 -0.766746 0.626848
6351.196777 3042.707031 4811.891113 0.138423 -0.766746 0.626848
6848.133301 2884.816162 4509.027344 0.616875 -0.364164 0.697746
6931.845703 3010.955566 4500.851562 0.616875 -0.364164 0.697746
6577.699219 3140.599854 4881.614258 0.616875 -0.364164 0.697746
6195.688965 3068.631592 4700.306152 -0.632471 0.031171 0.773956
6324.856445 3580.845215 4785.231445 -0.632471 0.031171 0.773956
6069.185059 3339.641357 4586.013184 -0.632471 0.031171 0.773956
6389.038086 3218.275146 4894.488281 -0.734401 0.073325 0.674744
6324.856445 3580.845215 4785.231445 -0.734401 0.073325 0.674744
6195.688965 3068.631592 4700.306152 -0.734401 0.073325 0.674744
6577.699219 3140.599854 4881.614258 0.445636 0.428069 0.786235
6522.437500 3765.939941 4572.467285 0.445636 0.428069 0.786235
6324.856445 3580.845215 4785.231445 0.445636 0.428069 0.786235
6389.038086 3218.275146 4894.488281 -0.592226 -0.234960 0.770754
6195.688965 3068.631592 4700.306152 -0.592226 -0.234960 0.770754
6351.196777 3042.707031 4811.891113 -0.592226 -0.234960 0.770754
6577.699219 3140.599854 4881.614258 0.192812 0.314244 0.929556
6324.856445 3580.845215 4785.231445 0.192812 0.314244 0.929556
6389.038086 3218.275146 4894.488281 0.192812 0.314244 0.929556
6389.038086 3218.275146 4894.488281 -0.104675 -0.404799 0.908395
6351.196777 3042.707031 4811.891113 -0.104675 -0.404799 0.908395
6577.699219 3140.599854 4881.614258 -0.104675 -0.404799 0.908395
6551.088379 3120.483154 6495.109863 0.330143 0.361122 -0.872122
6429.160645 3164.514404 6467.186035 0.330143 0.361122 -0.872122
6328.459473 3558.931885 6592.382812 0.330143 0.361122 -0.872122
6551.088379 3120.483154 6495.109863 -0.106312 -0.725565 -0.679893
6253.059082 3048.756836 6618.255859 -0.106312 -0.725565 -0.679893
6429.160645 3164.514404 6467.186035 -0.106312 -0.725565 -0.679893
6328.459473 3558.931885 6592.382812 -0.673048 0.062096 -0.736988
6429.160645 3164.514404 6467.186035 -0.673048 0.062096 -0.736988
6253.059082 3048.756836 6618.255859 -0.673048 0.062096 -0.736988
6551.088379 3120.483154 6495.109863 0.333780 0.362531 -0.870151
6328.459473 3558.931885 6592.382812 0.333780 0.362531 -0.870151
6523.830566 3690.287598 6722.051758 0.333780 0.362531 -0.870151
6523.830566 3690.287598 6722.051758 -0.169149 0.808296 -0.563955
6328.459473 3558.931885 6592.382812 -0.169149 0.808296 -0.563955
6405.063965 3765.155029 6864.978516 -0.169149 0.808296 -0.563955
6253.059082 3048.756836 6618.255859 -0.029691 -0.830812 -0.555761
6551.088379 3120.483154 6495.109863 -0.029691 -0.830812 -0.555761
6563.612793 2821.411621 6941.524902 -0.029691 -0.830812 -0.555761
6253.059082 3048.756836 6618.255859 -0.587818 0.045914 -0.807689
6073.288086 3307.243896 6763.783203 -0.587818 0.045914 -0.807689
6328.459473 3558.931885 6592.382812 -0.587818 0.045914 -0.807689
6893.229492 2869.647705 6907.088867 0.063057 -0.828321 -0.556695
6563.612793 2821.411621 6941.524902 0.063057 -0.828321 -0.556695
6551.088379 3120.483154 6495.109863 0.063057 -0.828321 -0.556695
6073.288086 3307.243896 6763.783203 -0.797384 -0.598422 0.077909
6253.059082 3048.756836 6618.255859 -0.797384 -0.598422 0.077909
6230.608887 3153.461670 7192.721680 -0.797384 -0.598422 0.077909
7016.730957 3274.348877 7012.519531 0.750529 -0.057532 -0.658329
6893.229492 2869.647705 6907.088867 0.750529 -0.057532 -0.658329
6551.088379 3120.483154 6495.109863 0.750529 -0.057532 -0.658329
6328.459473 3558.931885 6592.382812 -0.756138 0.615814 -0.221423
6073.288086 3307.243896 6763.783203 -0.756138 0.615814 -0.221423
6073.582031 3420.670654 7078.237793 -0.756138 0.615814 -0.221423
7016.730957 3274.348877 7012.519531 0.661144 0.304690 -0.685604
6551.088379 3120.483154 6495.109863 0.661144 0.304690 -0.685604
6523.830566 3690.287598 6722.051758 0.661144 0.304690 -0.685604
7016.730957 3274.348877 7012.519531 0.704063 0.670027 -0.235285
6523.830566 3690.287598 6722.051758 0.704063 0.670027 -0.235285
6561.888184 3713.900635 6903.178223 0.704063 0.670027 -0.235285
6523.830566 3690.287598 6722.051758 0.346905 0.917921 -0.192558
6405.063965 3765.155029 6864.978516 0.346905 0.917921 -0.192558
6561.888184 3713.900635 6903.178223 0.346905 0.917921 -0.192558
6328.459473 3558.931885 6592.382812 -0.768902 0.594990 -0.234044
6073.582031 3420.670654 7078.237793 -0.768902 0.594990 -0.234044
6405.063965 3765.155029 6864.978516 -0.768902 0.594990 -0.234044
6114.233398 3542.976807 7188.028320 -0.773888 0.545718 -0.321386
6405.063965 3765.155029 6864.978516 -0.773888 0.545718 -0.321386
6073.582031 3420.670654 7078.237793 -0.773888 0.545718 -0.321386
6230.608887 3153.461670 7192.721680 -0.659041 -0.744041 0.109857
6253.059082 3048.756836 6618.255859 -0.659041 -0.744041 0.109857
6563.612793 2821.411621 6941.524902 -0.659041 -0.744041 0.109857
6893.229492 2869.647705 6907.088867 0.121270 -0.972084 -0.200867
6991.757324 2805.456055 7277.225586 0.121270 -0.972084 -0.200867
6563.612793 2821.411621 6941.524902 0.121270 -0.972084 -0.200867
6639.528320 2829.598145 7398.012695 -0.653147 -0.747334 0.122023
6230.608887 3153.461670 7192.721680 -0.653147 -0.747334 0.122023
6563.612793 2821.411621 6941.524902 -0.653147 -0.747334 0.122023
6230.608887 3153.461670 7192.721680 -0.879521 -0.447366 0.162191
6073.582031 3420.670654 7078.237793 -0.879521 -0.447366 0.162191
6073.288086 3307.243896 6763.783203 -0.879521 -0.447366 0.162191
7016.730957 3274.348877 7012.519531 0.687572 0.724291 0.051456
6561.888184 3713.900635 6903.178223 0.687572 0.724291 0.051456
6819.695312 3439.808350 7316.378906 0.687572 0.724291 0.051456
6893.229492 2869.647705 6907.088867 0.934894 -0.210936 -0.285444
7016.730957 3274.348877 7012.519531 0.934894 -0.210936 -0.285444
6991.757324 2805.456055 7277.225586 0.934894 -0.210936 -0.285444
6405.063965 3765.155029 6864.978516 0.168875 0.866630 0.469504
6819.695312 3439.808350 7316.378906 0.168875 0.866630 0.469504
6561.888184 3713.900635 6903.178223 0.168875 0.866630 0.469504
6405.063965 3765.155029 6864.978516 -0.066390 0.849031 0.524155
6114.233398 3542.976807 7188.028320 -0.066390 0.849031 0.524155
6517.195801 3375.987549 7509.558594 -0.066390 0.849031 0.524155
6991.757324 2805.456055 7277.225586 0.990505 -0.103706 -0.090252
7016.730957 3274.348877 7012.519531 0.990505 -0.103706 -0.090252
7076.575684 3321.690186 7614.909668 0.990505 -0.103706 -0.090252
6230.608887 3153.461670 7192.721680 -0.799190 -0.232093 0.554462
6114.233398 3542.976807 7188.028320 -0.799190 -0.232093 0.554462
6073.582031 3420.670654 7078.237793 -0.799190 -0.232093 0.554462
6517.195801 3375.987549 7509.558594 0.134889 0.858456 0.494831
6819.695312 3439.808350 7316.378906 0.134889 0.858456 0.494831
6405.063965 3765.155029 6864.978516 0.134889 0.858456 0.494831
6563.612793 2821.411621 6941.524902 -0.058900 -0.997880 0.027691
6991.757324 2805.456055 7277.225586 -0.058900 -0.997880 0.027691
6639.528320 2829.598145 7398.012695 -0.058900 -0.997880 0.027691
7016.730957 3274.348877 7012.519531 0.525111 0.842757 -0.118399
6819.695312 3439.808350 7316.378906 0.525111 0.842757 -0.118399
7076.575684 3321.690186 7614.909668 0.525111 0.842757 -0.118399
6643.597656 3197.983154 7741.023926 -0.769905 -0.222819 0.597995
6114.233398 3542.976807 7188.028320 -0.769905 -0.222819 0.597995
6230.608887 3153.461670 7192.721680 -0.769905 -0.222819 0.597995
6991.757324 2805.456055 7277.225586 -0.038386 -0.995466 0.087030
6954.961426 2832.237061 7567.324219 -0.038386 -0.995466 0.087030
6639.528320 2829.598145 7398.012695 -0.038386 -0.995466 0.087030
7076.575684 3321.690186 7614.909668 0.956907 -0.251823 0.144621
6954.961426 2832.237061 7567.324219 0.956907 -0.251823 0.144621
6991.757324 2805.456055 7277.225586 0.956907 -0.251823 0.144621
6745.487305 2940.426514 7670.216797 -0.702689 -0.433161 0.564447
6643.597656 3197.983154 7741.023926 -0.702689 -0.433161 0.564447
6230.608887 3153.461670 7192.721680 -0.702689 -0.433161 0.564447
6517.195801 3375.987549 7509.558594 -0.104528 0.981474 0.160569
6980.464355 3385.953369 7750.223145 -0.104528 0.981474 0.160569
6819.695312 3439.808350 7316.378906 -0.104528 0.981474 0.160569
6639.528320 2829.598145 7398.012695 -0.679220 -0.548459 0.487701
6745.487305 2940.426514 7670.216797 -0.679220 -0.548459 0.487701
6230.608887 3153.461670 7192.721680 -0.679220 -0.548459 0.487701
6114.233398 3542.976807 7188.028320 -0.246602 0.698467 0.671812
6643.597656 3197.983154 7741.023926 -0.246602 0.698467 0.671812
6517.195801 3375.987549 7509.558594 -0.246602 0.698467 0.671812
6954.961426 2832.237061 7567.324219 0.827929 -0.254312 0.499858
7076.575684 3321.690186 7614.909668 0.827929 -0.254312 0.499858
6914.982422 3125.624268 7782.809082 0.827929 -0.254312 0.499858
6980.464355 3385.953369 7750.223145 0.483545 0.872444 -0.070886
7076.575684 3321.690186 7614.909668 0.483545 0.872444 -0.070886
6819.695312 3439.808350 7316.378906 0.483545 0.872444 -0.070886
6745.487305 2940.426514 7670.216797 -0.230272 -0.866694 0.442512
6639.528320 2829.598145 7398.012695 -0.230272 -0.866694 0.442512
6954.961426 2832.237061 7567.324219 -0.230272 -0.866694 0.442512
6643.597656 3197.983154 7741.023926 -0.369262 0.628251 0.684797
6980.464355 3385.953369 7750.223145 -0.369262 0.628251 0.684797
6517.195801 3375.987549 7509.558594 -0.369262 0.628251 0.684797
6954.961426 2832.237061 7567.324219 0.097271 -0.580510 0.808423
6914.982422 3125.624268 7782.809082 0.097271 -0.580510 0.808423
6745.487305 2940.426514 7670.216797 0.097271 -0.580510 0.808423
6980.464355 3385.953369 7750.223145 0.781597 -0.119977 0.612137
6914.982422 3125.624268 7782.809082 0.781597 -0.119977 0.612137
7076.575684 3321.690186 7614.909668 0.781597 -0.119977 0.612137
6643.597656 3197.983154 7741.023926 -0.231404 -0.341936 0.910787
6745.487305 2940.426514 7670.216797 -0.231404 -0.341936 0.910787
6914.982422 3125.624268 7782.809082 -0.231404 -0.341936 0.910787
6980.464355 3385.953369 7750.223145 -0.111016 0.150881 0.982299
6643.597656 3197.983154 7741.023926 -0.111016 0.150881 0.982299
6914.982422 3125.624268 7782.809082 -0.111016 0.150881 0.982299
3 0 1 2
3 3 4 5
3 6 7 8
3 9 10 11
3 12 13 14
3 15 16 17
3 18 19 20
3 21 22 23
3 24 25 26
3 27 28 29
3 30 31 32
3 33 34 35
3 36 37 38
3 39 40 41
3 42 43 44
3 45 46 47
3 48 49 50
3 51 52 53
3 54 55 56
3 57 58 59
3 60 61 62
3 63 64 65
3 66 67 68
3 69 70 71
3 72 73 74
3 75 76 77
3 78 79 80
3 81 82 83
3 84 85 86
3 87 88 89
3 90 91 92
3 93 94 95
3 96 97 98
3 99 100 101
3 102 103 104
3 105 106 107
3 108 109 110
3 111 112 113
3 114 115 116
3 117 118 119
3 120 121 122
3 123 124 125
3 126 127 128
3 129 130 131
3 132 133 134
3 135 136 137
3 138 139 140
3 141 142 143
3 144 145 146
3 147 148 149
3 150 151 152
3 153 154 155
3 156 157 158
3 159 160 161
3 162 163 164
3 165 166 167
3 168 169 170
3 171 172 173
3 174 175 176
3 177 178 179
3 180 181 182
3 183 184 185
3 186 187 188
3 189 190 191
3 192 193 194
3 195 196 197
3 198 199 200
3 201 202 203
3 204 205 206
3 207 208 209
3 210 211 212
3 213 214 215
3 216 217 218
3 219 220 221
3 222 223 224
3 225 226 227
3 228 229 230
3 231 232 233
3 234 235 236
3 237 238 239
3 240 241 242
3 243 244 245
3 246 247 248
3 249 250 251
3 252 253 254
3 255 256 257
3 258 259 260
3 261 262 263
3 264 265 266
3 267 268 269
