ply
format ascii 1.0
comment Created by Blender 2.80 (sub 75) - www.blender.org, source file: 'downsample_ccf.blend'
element vertex 174
property float x
property float y
property float z
property float nx
property float ny
property float nz
element face 58
property list uchar uint vertex_indices
end_header
7694.115723 3614.562012 2862.065918 -0.094346 -0.333298 -0.938089
7333.366211 3387.702148 2978.949463 -0.094346 -0.333298 -0.938089
7695.843262 3960.545410 2738.966309 -0.094346 -0.333298 -0.938089
8109.626953 3987.807861 2971.978516 0.483463 -0.295574 -0.823954
7694.115723 3614.562012 2862.065918 0.483463 -0.295574 -0.823954
7695.843262 3960.545410 2738.966309 0.483463 -0.295574 -0.823954
7695.843262 3960.545410 2738.966309 -0.309108 0.408634 -0.858761
7413.510254 4011.819824 2864.989502 -0.309108 0.408634 -0.858761
7612.048828 4345.847656 2952.470459 -0.309108 0.408634 -0.858761
7333.366211 3387.702148 2978.949463 -0.421737 -0.110178 -0.899999
7413.510254 4011.819824 2864.989502 -0.421737 -0.110178 -0.899999
7695.843262 3960.545410 2738.966309 -0.421737 -0.110178 -0.899999
8109.295898 4351.262207 3131.501465 0.286198 0.511279 -0.810360
7695.843262 3960.545410 2738.966309 0.286198 0.511279 -0.810360
7612.048828 4345.847656 2952.470459 0.286198 0.511279 -0.810360
8030.854492 3827.007080 2993.345947 0.527408 -0.360590 -0.769296
7694.115723 3614.562012 2862.065918 0.527408 -0.360590 -0.769296
8109.626953 3987.807861 2971.978516 0.527408 -0.360590 -0.769296
7694.115723 3614.562012 2862.065918 0.532903 -0.846173 0.002410
8030.854492 3827.007080 2993.345947 0.532903 -0.846173 0.002410
7333.366211 3387.702148 2978.949463 0.532903 -0.846173 0.002410
7413.510254 4011.819824 2864.989502 -0.781906 0.544327 -0.303861
7562.426758 4347.407715 3082.954346 -0.781906 0.544327 -0.303861
7612.048828 4345.847656 2952.470459 -0.781906 0.544327 -0.303861
7695.843262 3960.545410 2738.966309 0.439326 0.361374 -0.822437
8109.295898 4351.262207 3131.501465 0.439326 0.361374 -0.822437
8109.626953 3987.807861 2971.978516 0.439326 0.361374 -0.822437
8030.854492 3827.007080 2993.345947 0.414223 -0.677581 0.607703
7258.267090 3546.233154 3206.898926 0.414223 -0.677581 0.607703
7333.366211 3387.702148 2978.949463 0.414223 -0.677581 0.607703
7612.048828 4345.847656 2952.470459 0.290175 0.491988 -0.820821
7935.357422 4428.301758 3116.187500 0.290175 0.491988 -0.820821
8109.295898 4351.262207 3131.501465 0.290175 0.491988 -0.820821
7612.048828 4345.847656 2952.470459 -0.203555 0.975004 -0.089068
7562.426758 4347.407715 3082.954346 -0.203555 0.975004 -0.089068
7935.357422 4428.301758 3116.187500 -0.203555 0.975004 -0.089068
7333.366211 3387.702148 2978.949463 -0.645840 -0.197050 -0.737605
6978.605957 3158.648193 3350.765625 -0.645840 -0.197050 -0.737605
6901.587402 3186.049805 3410.882080 -0.645840 -0.197050 -0.737605
7333.366211 3387.702148 2978.949463 -0.696941 -0.041231 -0.715942
6901.587402 3186.049805 3410.882080 -0.696941 -0.041231 -0.715942
7413.510254 4011.819824 2864.989502 -0.696941 -0.041231 -0.715942
7258.267090 3546.233154 3206.898926 -0.928477 0.363939 0.074012
7562.426758 4347.407715 3082.954346 -0.928477 0.363939 0.074012
7413.510254 4011.819824 2864.989502 -0.928477 0.363939 0.074012
8109.626953 3987.807861 2971.978516 0.999947 -0.003344 0.009695
8109.295898 4351.262207 3131.501465 0.999947 -0.003344 0.009695
8107.749023 4090.159668 3200.981445 0.999947 -0.003344 0.009695
8107.749023 4090.159668 3200.981445 0.891278 -0.411222 0.191103
8030.854492 3827.007080 2993.345947 0.891278 -0.411222 0.191103
8109.626953 3987.807861 2971.978516 0.891278 -0.411222 0.191103
7258.267090 3546.233154 3206.898926 -0.194087 0.621869 0.758689
7413.510254 4011.819824 2864.989502 -0.194087 0.621869 0.758689
6901.587402 3186.049805 3410.882080 -0.194087 0.621869 0.758689
7603.963379 4004.226074 3261.426514 0.372578 -0.381920 0.845767
7258.267090 3546.233154 3206.898926 0.372578 -0.381920 0.845767
8030.854492 3827.007080 2993.345947 0.372578 -0.381920 0.845767
7258.267090 3546.233154 3206.898926 0.775358 -0.369304 0.512284
6978.605957 3158.648193 3350.765625 0.775358 -0.369304 0.512284
7333.366211 3387.702148 2978.949463 0.775358 -0.369304 0.512284
7603.963379 4004.226074 3261.426514 0.198380 -0.642190 0.740430
8030.854492 3827.007080 2993.345947 0.198380 -0.642190 0.740430
8107.749023 4090.159668 3200.981445 0.198380 -0.642190 0.740430
7603.963379 4004.226074 3261.426514 -0.173572 0.437768 0.882174
7935.357422 4428.301758 3116.187500 -0.173572 0.437768 0.882174
7562.426758 4347.407715 3082.954346 -0.173572 0.437768 0.882174
8109.295898 4351.262207 3131.501465 0.071976 0.256088 0.963970
7603.963379 4004.226074 3261.426514 0.071976 0.256088 0.963970
8107.749023 4090.159668 3200.981445 0.071976 0.256088 0.963970
8109.295898 4351.262207 3131.501465 0.045173 0.291902 0.955381
7935.357422 4428.301758 3116.187500 0.045173 0.291902 0.955381
7603.963379 4004.226074 3261.426514 0.045173 0.291902 0.955381
7258.267090 3546.233154 3206.898926 -0.556581 0.329301 0.762744
7603.963379 4004.226074 3261.426514 -0.556581 0.329301 0.762744
7562.426758 4347.407715 3082.954346 -0.556581 0.329301 0.762744
7258.267090 3546.233154 3206.898926 0.583156 -0.122697 0.803041
6901.587402 3186.049805 3410.882080 0.583156 -0.122697 0.803041
6978.605957 3158.648193 3350.765625 0.583156 -0.122697 0.803041
7133.481445 3440.235107 8235.140625 0.558909 0.293103 -0.775701
6996.705566 3173.694336 8035.876953 0.558909 0.293103 -0.775701
6875.804688 3183.341553 7952.410645 0.558909 0.293103 -0.775701
6996.705566 3173.694336 8035.876953 -0.482468 -0.610280 0.628318
7184.373535 3266.510498 8270.133789 -0.482468 -0.610280 0.628318
6875.804688 3183.341553 7952.410645 -0.482468 -0.610280 0.628318
7553.697754 4215.836914 8177.000488 0.044728 0.218177 -0.974884
8063.937988 4067.791016 8167.278320 0.044728 0.218177 -0.974884
7658.862305 4004.648926 8134.562012 0.044728 0.218177 -0.974884
7133.481445 3440.235107 8235.140625 -0.640022 0.642945 -0.420706
7227.586426 3499.573975 8182.663086 -0.640022 0.642945 -0.420706
6996.705566 3173.694336 8035.876953 -0.640022 0.642945 -0.420706
7658.862305 4004.648926 8134.562012 -0.213164 0.089361 -0.972921
7227.586426 3499.573975 8182.663086 -0.213164 0.089361 -0.972921
7553.697754 4215.836914 8177.000488 -0.213164 0.089361 -0.972921
7932.642090 4429.234375 8239.069336 0.042127 0.209344 -0.976934
8063.937988 4067.791016 8167.278320 0.042127 0.209344 -0.976934
7553.697754 4215.836914 8177.000488 0.042127 0.209344 -0.976934
6996.705566 3173.694336 8035.876953 0.646640 -0.727341 -0.229853
7438.605957 3447.185791 8413.635742 0.646640 -0.727341 -0.229853
7184.373535 3266.510498 8270.133789 0.646640 -0.727341 -0.229853
6996.705566 3173.694336 8035.876953 0.703130 -0.189451 -0.685359
7227.586426 3499.573975 8182.663086 0.703130 -0.189451 -0.685359
7438.605957 3447.185791 8413.635742 0.703130 -0.189451 -0.685359
7227.586426 3499.573975 8182.663086 0.558527 -0.537116 -0.632103
7658.862305 4004.648926 8134.562012 0.558527 -0.537116 -0.632103
7438.605957 3447.185791 8413.635742 0.558527 -0.537116 -0.632103
8045.423828 3850.949463 8347.466797 0.160358 -0.638903 -0.752389
7658.862305 4004.648926 8134.562012 0.160358 -0.638903 -0.752389
8063.937988 4067.791016 8167.278320 0.160358 -0.638903 -0.752389
8121.777344 4313.330078 8296.599609 0.851864 0.072534 -0.518717
8160.951172 4086.647949 8329.235352 0.851864 0.072534 -0.518717
8063.937988 4067.791016 8167.278320 0.851864 0.072534 -0.518717
8121.777344 4313.330078 8296.599609 0.453675 0.329280 -0.828103
8063.937988 4067.791016 8167.278320 0.453675 0.329280 -0.828103
7932.642090 4429.234375 8239.069336 0.453675 0.329280 -0.828103
7133.481445 3440.235107 8235.140625 -0.707223 -0.065381 0.703961
6875.804688 3183.341553 7952.410645 -0.707223 -0.065381 0.703961
7184.373535 3266.510498 8270.133789 -0.707223 -0.065381 0.703961
8045.423828 3850.949463 8347.466797 0.797789 -0.424179 -0.428492
8063.937988 4067.791016 8167.278320 0.797789 -0.424179 -0.428492
8160.951172 4086.647949 8329.235352 0.797789 -0.424179 -0.428492
7386.627930 4015.233154 8495.256836 -0.642822 0.532230 -0.550919
7227.586426 3499.573975 8182.663086 -0.642822 0.532230 -0.550919
7133.481445 3440.235107 8235.140625 -0.642822 0.532230 -0.550919
8045.423828 3850.949463 8347.466797 0.250055 -0.510623 -0.822640
7438.605957 3447.185791 8413.635742 0.250055 -0.510623 -0.822640
7658.862305 4004.648926 8134.562012 0.250055 -0.510623 -0.822640
7553.697754 4215.836914 8177.000488 -0.339378 0.762766 -0.550464
7650.995117 4410.801758 8387.171875 -0.339378 0.762766 -0.550464
7932.642090 4429.234375 8239.069336 -0.339378 0.762766 -0.550464
7227.586426 3499.573975 8182.663086 -0.889892 0.403481 -0.212829
7386.627930 4015.233154 8495.256836 -0.889892 0.403481 -0.212829
7553.697754 4215.836914 8177.000488 -0.889892 0.403481 -0.212829
7553.697754 4215.836914 8177.000488 -0.839842 0.532538 -0.105208
7386.627930 4015.233154 8495.256836 -0.839842 0.532538 -0.105208
7650.995117 4410.801758 8387.171875 -0.839842 0.532538 -0.105208
7438.605957 3447.185791 8413.635742 0.554463 -0.832180 0.006865
8045.423828 3850.949463 8347.466797 0.554463 -0.832180 0.006865
7564.155762 3531.638916 8510.864258 0.554463 -0.832180 0.006865
8121.777344 4313.330078 8296.599609 0.271465 0.745268 0.609001
7932.642090 4429.234375 8239.069336 0.271465 0.745268 0.609001
7650.995117 4410.801758 8387.171875 0.271465 0.745268 0.609001
7184.373535 3266.510498 8270.133789 -0.664878 -0.044585 0.745620
7386.627930 4015.233154 8495.256836 -0.664878 -0.044585 0.745620
7133.481445 3440.235107 8235.140625 -0.664878 -0.044585 0.745620
8160.951172 4086.647949 8329.235352 0.708703 -0.297902 0.639527
7830.760254 3778.375488 8551.543945 0.708703 -0.297902 0.639527
8045.423828 3850.949463 8347.466797 0.708703 -0.297902 0.639527
8160.951172 4086.647949 8329.235352 0.499723 0.207436 0.840980
8121.777344 4313.330078 8296.599609 0.499723 0.207436 0.840980
7695.224121 4095.637695 8603.759766 0.499723 0.207436 0.840980
8045.423828 3850.949463 8347.466797 0.597535 -0.707778 0.376831
7830.760254 3778.375488 8551.543945 0.597535 -0.707778 0.376831
7564.155762 3531.638916 8510.864258 0.597535 -0.707778 0.376831
7184.373535 3266.510498 8270.133789 0.624618 -0.768445 -0.139084
7438.605957 3447.185791 8413.635742 0.624618 -0.768445 -0.139084
7564.155762 3531.638916 8510.864258 0.624618 -0.768445 -0.139084
7564.155762 3531.638916 8510.864258 -0.458530 -0.140004 0.877581
7386.627930 4015.233154 8495.256836 -0.458530 -0.140004 0.877581
7184.373535 3266.510498 8270.133789 -0.458530 -0.140004 0.877581
7650.995117 4410.801758 8387.171875 -0.399663 0.480417 0.780685
7386.627930 4015.233154 8495.256836 -0.399663 0.480417 0.780685
7695.224121 4095.637695 8603.759766 -0.399663 0.480417 0.780685
8160.951172 4086.647949 8329.235352 0.507431 0.075503 0.858378
7695.224121 4095.637695 8603.759766 0.507431 0.075503 0.858378
7830.760254 3778.375488 8551.543945 0.507431 0.075503 0.858378
7695.224121 4095.637695 8603.759766 0.267535 0.570948 0.776172
8121.777344 4313.330078 8296.599609 0.267535 0.570948 0.776172
7650.995117 4410.801758 8387.171875 0.267535 0.570948 0.776172
7564.155762 3531.638916 8510.864258 -0.311069 -0.083640 0.946700
7695.224121 4095.637695 8603.759766 -0.311069 -0.083640 0.946700
7386.627930 4015.233154 8495.256836 -0.311069 -0.083640 0.946700
7564.155762 3531.638916 8510.864258 -0.000189 -0.162476 0.986712
7830.760254 3778.375488 8551.543945 -0.000189 -0.162476 0.986712
7695.224121 4095.637695 8603.759766 -0.000189 -0.162476 0.986712
3 0 1 2
3 3 4 5
3 6 7 8
3 9 10 11
3 12 13 14
3 15 16 17
3 18 19 20
3 21 22 23
3 24 25 26
3 27 28 29
3 30 31 32
3 33 34 35
3 36 37 38
3 39 40 41
3 42 43 44
3 45 46 47
3 48 49 50
3 51 52 53
3 54 55 56
3 57 58 59
3 60 61 62
3 63 64 65
3 66 67 68
3 69 70 71
3 72 73 74
3 75 76 77
3 78 79 80
3 81 82 83
3 84 85 86
3 87 88 89
3 90 91 92
3 93 94 95
3 96 97 98
3 99 100 101
3 102 103 104
3 105 106 107
3 108 109 110
3 111 112 113
3 114 115 116
3 117 118 119
3 120 121 122
3 123 124 125
3 126 127 128
3 129 130 131
3 132 133 134
3 135 136 137
3 138 139 140
3 141 142 143
3 144 145 146
3 147 148 149
3 150 151 152
3 153 154 155
3 156 157 158
3 159 160 161
3 162 163 164
3 165 166 167
3 168 169 170
3 171 172 173
