ply
format ascii 1.0
comment Created by Blender 2.80 (sub 75) - www.blender.org, source file: 'downsample_ccf.blend'
element vertex 372
property float x
property float y
property float z
property float nx
property float ny
property float nz
element face 124
property list uchar uint vertex_indices
end_header
8360.935547 3281.953125 3390.626221 -0.174425 -0.552331 -0.815172
8523.426758 3184.621094 3421.806152 -0.174425 -0.552331 -0.815172
8111.484375 3128.727783 3547.822021 -0.174425 -0.552331 -0.815172
8499.083984 3078.988037 3557.234619 -0.084757 -0.778223 -0.622242
8111.484375 3128.727783 3547.822021 -0.084757 -0.778223 -0.622242
8523.426758 3184.621094 3421.806152 -0.084757 -0.778223 -0.622242
8111.484375 3128.727783 3547.822021 -0.095772 -0.845669 -0.525045
8499.083984 3078.988037 3557.234619 -0.095772 -0.845669 -0.525045
8192.859375 2994.695557 3748.858887 -0.095772 -0.845669 -0.525045
8360.935547 3281.953125 3390.626221 -0.484403 -0.102700 -0.868796
8111.484375 3128.727783 3547.822021 -0.484403 -0.102700 -0.868796
8025.409180 3351.404297 3569.491211 -0.484403 -0.102700 -0.868796
8501.039062 3244.230957 3754.589111 0.526637 0.842217 -0.115433
8523.426758 3184.621094 3421.806152 0.526637 0.842217 -0.115433
8360.935547 3281.953125 3390.626221 0.526637 0.842217 -0.115433
8499.083984 3078.988037 3557.234619 0.972835 -0.231429 -0.005649
8523.426758 3184.621094 3421.806152 0.972835 -0.231429 -0.005649
8506.176758 3104.561279 3731.005859 0.972835 -0.231429 -0.005649
8111.484375 3128.727783 3547.822021 0.372328 -0.695573 -0.614451
8192.859375 2994.695557 3748.858887 0.372328 -0.695573 -0.614451
7774.560059 2848.242676 3661.177490 0.372328 -0.695573 -0.614451
7774.560059 2848.242676 3661.177490 -0.301076 -0.023612 -0.953308
8025.409180 3351.404297 3569.491211 -0.301076 -0.023612 -0.953308
8111.484375 3128.727783 3547.822021 -0.301076 -0.023612 -0.953308
8523.426758 3184.621094 3421.806152 0.997706 0.026158 0.062434
8501.039062 3244.230957 3754.589111 0.997706 0.026158 0.062434
8506.176758 3104.561279 3731.005859 0.997706 0.026158 0.062434
8499.083984 3078.988037 3557.234619 0.194861 -0.973831 -0.116975
8244.613281 2985.583740 3910.929688 0.194861 -0.973831 -0.116975
8192.859375 2994.695557 3748.858887 0.194861 -0.973831 -0.116975
8025.409180 3351.404297 3569.491211 -0.203533 -0.076392 -0.976083
7774.560059 2848.242676 3661.177490 -0.203533 -0.076392 -0.976083
7759.134766 3499.541992 3613.421143 -0.203533 -0.076392 -0.976083
7127.103516 3354.202637 3675.902344 0.135716 0.133509 -0.981711
7438.253418 3246.662109 3704.291992 0.135716 0.133509 -0.981711
7038.262207 3182.923096 3640.327148 0.135716 0.133509 -0.981711
7759.134766 3499.541992 3613.421143 0.459225 0.873448 -0.161865
7753.355957 3517.462891 3693.729980 0.459225 0.873448 -0.161865
8025.409180 3351.404297 3569.491211 0.459225 0.873448 -0.161865
7438.253418 3246.662109 3704.291992 -0.498563 0.347211 -0.794279
7434.156738 3350.005615 3752.039062 -0.498563 0.347211 -0.794279
7759.134766 3499.541992 3613.421143 -0.498563 0.347211 -0.794279
7438.253418 3246.662109 3704.291992 0.199659 -0.325429 -0.924247
7064.466309 2831.640381 3769.675049 0.199659 -0.325429 -0.924247
7038.262207 3182.923096 3640.327148 0.199659 -0.325429 -0.924247
7774.560059 2848.242676 3661.177490 -0.215417 -0.076485 -0.973522
7438.253418 3246.662109 3704.291992 -0.215417 -0.076485 -0.973522
7759.134766 3499.541992 3613.421143 -0.215417 -0.076485 -0.973522
7434.156738 3350.005615 3752.039062 0.224205 0.416053 -0.881267
7438.253418 3246.662109 3704.291992 0.224205 0.416053 -0.881267
7127.103516 3354.202637 3675.902344 0.224205 0.416053 -0.881267
8499.083984 3078.988037 3557.234619 0.472919 -0.874293 0.109363
8506.176758 3104.561279 3731.005859 0.472919 -0.874293 0.109363
8244.613281 2985.583740 3910.929688 0.472919 -0.874293 0.109363
7038.262207 3182.923096 3640.327148 -0.890895 0.451126 0.052835
7104.319336 3277.225830 3948.979980 -0.890895 0.451126 0.052835
7127.103516 3354.202637 3675.902344 -0.890895 0.451126 0.052835
7434.156738 3350.005615 3752.039062 -0.484523 0.845722 -0.223588
7753.355957 3517.462891 3693.729980 -0.484523 0.845722 -0.223588
7759.134766 3499.541992 3613.421143 -0.484523 0.845722 -0.223588
7508.143555 3396.412109 3891.224609 -0.470387 0.881372 -0.043819
7753.355957 3517.462891 3693.729980 -0.470387 0.881372 -0.043819
7434.156738 3350.005615 3752.039062 -0.470387 0.881372 -0.043819
8025.409180 3351.404297 3569.491211 0.343968 0.854592 -0.389048
7753.355957 3517.462891 3693.729980 0.343968 0.854592 -0.389048
8501.039062 3244.230957 3754.589111 0.343968 0.854592 -0.389048
8360.935547 3281.953125 3390.626221 0.212576 0.976951 0.019425
8025.409180 3351.404297 3569.491211 0.212576 0.976951 0.019425
8501.039062 3244.230957 3754.589111 0.212576 0.976951 0.019425
7774.560059 2848.242676 3661.177490 -0.150550 -0.020121 -0.988398
7064.466309 2831.640381 3769.675049 -0.150550 -0.020121 -0.988398
7438.253418 3246.662109 3704.291992 -0.150550 -0.020121 -0.988398
7019.954102 2797.695312 3924.943848 -0.933737 -0.182944 -0.307678
7038.262207 3182.923096 3640.327148 -0.933737 -0.182944 -0.307678
7064.466309 2831.640381 3769.675049 -0.933737 -0.182944 -0.307678
8083.538086 3304.608643 3904.134766 0.278537 0.858227 0.431118
8501.039062 3244.230957 3754.589111 0.278537 0.858227 0.431118
7753.355957 3517.462891 3693.729980 0.278537 0.858227 0.431118
7434.156738 3350.005615 3752.039062 0.102753 0.925968 -0.363352
7127.103516 3354.202637 3675.902344 0.102753 0.925968 -0.363352
7508.143555 3396.412109 3891.224609 0.102753 0.925968 -0.363352
7064.466309 2831.640381 3769.675049 0.003591 -0.977134 -0.212593
7886.029785 2753.758789 4141.518066 0.003591 -0.977134 -0.212593
7019.954102 2797.695312 3924.943848 0.003591 -0.977134 -0.212593
7774.560059 2848.242676 3661.177490 -0.006326 -0.981455 -0.191586
7886.029785 2753.758789 4141.518066 -0.006326 -0.981455 -0.191586
7064.466309 2831.640381 3769.675049 -0.006326 -0.981455 -0.191586
7690.511230 3283.796875 4256.914062 0.307539 0.866255 0.393728
8083.538086 3304.608643 3904.134766 0.307539 0.866255 0.393728
7753.355957 3517.462891 3693.729980 0.307539 0.866255 0.393728
7019.954102 2797.695312 3924.943848 -0.973752 0.163371 0.158485
7104.319336 3277.225830 3948.979980 -0.973752 0.163371 0.158485
7038.262207 3182.923096 3640.327148 -0.973752 0.163371 0.158485
8506.176758 3104.561279 3731.005859 0.597283 -0.112122 0.794155
8501.039062 3244.230957 3754.589111 0.597283 -0.112122 0.794155
8244.613281 2985.583740 3910.929688 0.597283 -0.112122 0.794155
8501.039062 3244.230957 3754.589111 0.355855 0.199118 0.913082
8083.538086 3304.608643 3904.134766 0.355855 0.199118 0.913082
8244.613281 2985.583740 3910.929688 0.355855 0.199118 0.913082
7508.143555 3396.412109 3891.224609 -0.160848 0.917853 0.362870
7690.511230 3283.796875 4256.914062 -0.160848 0.917853 0.362870
7753.355957 3517.462891 3693.729980 -0.160848 0.917853 0.362870
7774.560059 2848.242676 3661.177490 0.367257 -0.892795 -0.260842
8192.859375 2994.695557 3748.858887 0.367257 -0.892795 -0.260842
7886.029785 2753.758789 4141.518066 0.367257 -0.892795 -0.260842
8192.859375 2994.695557 3748.858887 0.443450 -0.875746 -0.190842
8244.613281 2985.583740 3910.929688 0.443450 -0.875746 -0.190842
7886.029785 2753.758789 4141.518066 0.443450 -0.875746 -0.190842
7019.954102 2797.695312 3924.943848 -0.983805 0.175022 -0.038660
7090.990723 3283.353516 4315.904297 -0.983805 0.175022 -0.038660
7104.319336 3277.225830 3948.979980 -0.983805 0.175022 -0.038660
8244.613281 2985.583740 3910.929688 0.417204 0.229376 0.879391
8083.538086 3304.608643 3904.134766 0.417204 0.229376 0.879391
7886.029785 2753.758789 4141.518066 0.417204 0.229376 0.879391
7508.143555 3396.412109 3891.224609 -0.333598 0.841260 0.425433
7127.103516 3354.202637 3675.902344 -0.333598 0.841260 0.425433
7690.511230 3283.796875 4256.914062 -0.333598 0.841260 0.425433
7127.103516 3354.202637 3675.902344 -0.145781 0.955318 0.257128
7104.319336 3277.225830 3948.979980 -0.145781 0.955318 0.257128
7690.511230 3283.796875 4256.914062 -0.145781 0.955318 0.257128
7104.319336 3277.225830 3948.979980 -0.002391 0.999856 -0.016785
7090.990723 3283.353516 4315.904297 -0.002391 0.999856 -0.016785
7690.511230 3283.796875 4256.914062 -0.002391 0.999856 -0.016785
7019.954102 2797.695312 3924.943848 -0.047594 -0.998791 -0.012299
7886.029785 2753.758789 4141.518066 -0.047594 -0.998791 -0.012299
7215.209473 2782.583496 4396.575195 -0.047594 -0.998791 -0.012299
7886.029785 2753.758789 4141.518066 0.547208 0.158007 0.821947
8083.538086 3304.608643 3904.134766 0.547208 0.158007 0.821947
7543.077148 2801.747803 4360.612305 0.547208 0.158007 0.821947
8083.538086 3304.608643 3904.134766 0.668618 -0.044822 0.742254
7690.511230 3283.796875 4256.914062 0.668618 -0.044822 0.742254
7543.077148 2801.747803 4360.612305 0.668618 -0.044822 0.742254
7690.511230 3283.796875 4256.914062 0.877114 -0.171780 0.448512
7564.732422 3192.015625 4467.735840 0.877114 -0.171780 0.448512
7543.077148 2801.747803 4360.612305 0.877114 -0.171780 0.448512
7543.077148 2801.747803 4360.612305 0.092833 -0.932317 0.349523
7215.209473 2782.583496 4396.575195 0.092833 -0.932317 0.349523
7886.029785 2753.758789 4141.518066 0.092833 -0.932317 0.349523
7215.209473 2782.583496 4396.575195 -0.380668 -0.915774 0.128254
6924.737793 2926.272461 4560.416016 -0.380668 -0.915774 0.128254
7019.954102 2797.695312 3924.943848 -0.380668 -0.915774 0.128254
7019.954102 2797.695312 3924.943848 -0.583903 0.559183 -0.588534
7002.860840 3301.381104 4420.469238 -0.583903 0.559183 -0.588534
7090.990723 3283.353516 4315.904297 -0.583903 0.559183 -0.588534
7019.954102 2797.695312 3924.943848 -0.975003 0.138131 -0.174039
6924.737793 2926.272461 4560.416016 -0.975003 0.138131 -0.174039
7002.860840 3301.381104 4420.469238 -0.975003 0.138131 -0.174039
7690.511230 3283.796875 4256.914062 0.563139 0.580100 0.588522
7453.477539 3270.283936 4497.043945 0.563139 0.580100 0.588522
7564.732422 3192.015625 4467.735840 0.563139 0.580100 0.588522
7690.511230 3283.796875 4256.914062 0.005304 0.998099 0.061402
7090.990723 3283.353516 4315.904297 0.005304 0.998099 0.061402
7453.477539 3270.283936 4497.043945 0.005304 0.998099 0.061402
7090.990723 3283.353516 4315.904297 0.085254 0.991421 -0.099073
7002.860840 3301.381104 4420.469238 0.085254 0.991421 -0.099073
7453.477539 3270.283936 4497.043945 0.085254 0.991421 -0.099073
6664.010254 3661.219971 4587.126953 0.176846 0.545850 -0.819007
7453.477539 3270.283936 4497.043945 0.176846 0.545850 -0.819007
7002.860840 3301.381104 4420.469238 0.176846 0.545850 -0.819007
6924.737793 2926.272461 4560.416016 -0.578903 -0.176437 -0.796079
6664.010254 3661.219971 4587.126953 -0.578903 -0.176437 -0.796079
7002.860840 3301.381104 4420.469238 -0.578903 -0.176437 -0.796079
7215.209473 2782.583496 4396.575195 -0.386627 -0.914805 0.116839
6680.249023 3063.904053 4828.989746 -0.386627 -0.914805 0.116839
6924.737793 2926.272461 4560.416016 -0.386627 -0.914805 0.116839
7349.508789 2995.816162 4933.196289 0.919970 -0.150408 0.361984
7543.077148 2801.747803 4360.612305 0.919970 -0.150408 0.361984
7564.732422 3192.015625 4467.735840 0.919970 -0.150408 0.361984
6664.010254 3661.219971 4587.126953 -0.776496 -0.254517 -0.576433
6924.737793 2926.272461 4560.416016 -0.776496 -0.254517 -0.576433
6680.249023 3063.904053 4828.989746 -0.776496 -0.254517 -0.576433
7453.477539 3270.283936 4497.043945 0.427462 0.894070 -0.133846
6664.010254 3661.219971 4587.126953 0.427462 0.894070 -0.133846
7347.770020 3360.113770 4759.496094 0.427462 0.894070 -0.133846
7543.077148 2801.747803 4360.612305 0.076637 -0.981461 0.175673
7295.832031 2879.731445 4904.154785 0.076637 -0.981461 0.175673
7215.209473 2782.583496 4396.575195 0.076637 -0.981461 0.175673
7453.477539 3270.283936 4497.043945 0.564933 0.823350 -0.054271
7347.770020 3360.113770 4759.496094 0.564933 0.823350 -0.054271
7564.732422 3192.015625 4467.735840 0.564933 0.823350 -0.054271
7215.209473 2782.583496 4396.575195 -0.304417 -0.925466 0.225482
7295.832031 2879.731445 4904.154785 -0.304417 -0.925466 0.225482
6680.249023 3063.904053 4828.989746 -0.304417 -0.925466 0.225482
6680.249023 3063.904053 4828.989746 -0.926663 -0.162450 -0.338977
6654.699219 3256.002930 4806.774902 -0.926663 -0.162450 -0.338977
6664.010254 3661.219971 4587.126953 -0.926663 -0.162450 -0.338977
7347.770020 3360.113770 4759.496094 -0.011650 0.476718 0.878979
6664.010254 3661.219971 4587.126953 -0.011650 0.476718 0.878979
6654.699219 3256.002930 4806.774902 -0.011650 0.476718 0.878979
7349.508789 2995.816162 4933.196289 0.839987 0.236793 0.488213
7564.732422 3192.015625 4467.735840 0.839987 0.236793 0.488213
7347.770020 3360.113770 4759.496094 0.839987 0.236793 0.488213
7349.508789 2995.816162 4933.196289 0.778629 -0.465342 0.420944
7295.832031 2879.731445 4904.154785 0.778629 -0.465342 0.420944
7543.077148 2801.747803 4360.612305 0.778629 -0.465342 0.420944
7347.770020 3360.113770 4759.496094 -0.003074 0.430374 0.902645
6654.699219 3256.002930 4806.774902 -0.003074 0.430374 0.902645
7349.508789 2995.816162 4933.196289 -0.003074 0.430374 0.902645
7349.508789 2995.816162 4933.196289 -0.143734 0.094799 0.985065
6654.699219 3256.002930 4806.774902 -0.143734 0.094799 0.985065
6680.249023 3063.904053 4828.989746 -0.143734 0.094799 0.985065
6680.249023 3063.904053 4828.989746 -0.168137 -0.165373 0.971793
7295.832031 2879.731445 4904.154785 -0.168137 -0.165373 0.971793
7349.508789 2995.816162 4933.196289 -0.168137 -0.165373 0.971793
7332.951660 2946.362305 6426.400879 -0.230981 -0.457180 -0.858856
7301.238281 2890.033203 6464.914551 -0.230981 -0.457180 -0.858856
6663.473145 3091.282471 6529.307617 -0.230981 -0.457180 -0.858856
7332.951660 2946.362305 6426.400879 -0.046185 0.427679 -0.902750
6663.473145 3091.282471 6529.307617 -0.046185 0.427679 -0.902750
7350.616699 3348.663574 6616.087891 -0.046185 0.427679 -0.902750
7350.616699 3348.663574 6616.087891 -0.040201 0.413950 -0.909412
6663.473145 3091.282471 6529.307617 -0.040201 0.413950 -0.909412
6647.411133 3646.373779 6782.686523 -0.040201 0.413950 -0.909412
7350.616699 3348.663574 6616.087891 0.859206 0.186846 -0.476292
7536.645508 3221.900635 6901.945801 0.859206 0.186846 -0.476292
7332.951660 2946.362305 6426.400879 0.859206 0.186846 -0.476292
6663.473145 3091.282471 6529.307617 -0.314486 -0.907130 -0.279669
7301.238281 2890.033203 6464.914551 -0.314486 -0.907130 -0.279669
6908.226074 2925.898193 6790.522461 -0.314486 -0.907130 -0.279669
6663.473145 3091.282471 6529.307617 -0.782440 -0.277181 0.557637
6908.226074 2925.898193 6790.522461 -0.782440 -0.277181 0.557637
6647.411133 3646.373779 6782.686523 -0.782440 -0.277181 0.557637
7567.332520 2769.870361 7040.148438 0.928192 -0.049733 -0.368764
7332.951660 2946.362305 6426.400879 0.928192 -0.049733 -0.368764
7536.645508 3221.900635 6901.945801 0.928192 -0.049733 -0.368764
6647.411133 3646.373779 6782.686523 0.178907 0.767243 -0.615899
6706.984863 3653.296387 6808.615234 0.178907 0.767243 -0.615899
7350.616699 3348.663574 6616.087891 0.178907 0.767243 -0.615899
7045.162598 3316.103760 6994.859375 -0.587259 -0.204071 0.783251
6647.411133 3646.373779 6782.686523 -0.587259 -0.204071 0.783251
6908.226074 2925.898193 6790.522461 -0.587259 -0.204071 0.783251
7332.951660 2946.362305 6426.400879 0.631144 -0.647423 -0.427200
7567.332520 2769.870361 7040.148438 0.631144 -0.647423 -0.427200
7301.238281 2890.033203 6464.914551 0.631144 -0.647423 -0.427200
7536.645508 3221.900635 6901.945801 0.450059 0.887315 0.100591
7350.616699 3348.663574 6616.087891 0.450059 0.887315 0.100591
6706.984863 3653.296387 6808.615234 0.450059 0.887315 0.100591
6990.093750 2808.646240 7182.985840 -0.270500 -0.936454 -0.223348
6908.226074 2925.898193 6790.522461 -0.270500 -0.936454 -0.223348
7301.238281 2890.033203 6464.914551 -0.270500 -0.936454 -0.223348
7301.238281 2890.033203 6464.914551 -0.104745 -0.982077 -0.156696
7567.332520 2769.870361 7040.148438 -0.104745 -0.982077 -0.156696
6990.093750 2808.646240 7182.985840 -0.104745 -0.982077 -0.156696
6706.984863 3653.296387 6808.615234 0.259664 0.653256 0.711218
7045.162598 3316.103760 6994.859375 0.259664 0.653256 0.711218
7536.645508 3221.900635 6901.945801 0.259664 0.653256 0.711218
7045.162598 3316.103760 6994.859375 -0.406489 0.094276 0.908779
6706.984863 3653.296387 6808.615234 -0.406489 0.094276 0.908779
6647.411133 3646.373779 6782.686523 -0.406489 0.094276 0.908779
7536.645508 3221.900635 6901.945801 0.204358 0.974469 0.092995
7045.162598 3316.103760 6994.859375 0.204358 0.974469 0.092995
7112.353516 3271.227051 7317.456055 0.204358 0.974469 0.092995
6908.226074 2925.898193 6790.522461 -0.949906 0.214148 0.227638
7112.353516 3271.227051 7317.456055 -0.949906 0.214148 0.227638
7045.162598 3316.103760 6994.859375 -0.949906 0.214148 0.227638
6990.093750 2808.646240 7182.985840 -0.951252 0.178252 0.251685
7112.353516 3271.227051 7317.456055 -0.951252 0.178252 0.251685
6908.226074 2925.898193 6790.522461 -0.951252 0.178252 0.251685
7536.645508 3221.900635 6901.945801 0.860056 -0.094879 -0.501299
7699.964355 3298.501709 7167.646484 0.860056 -0.094879 -0.501299
7567.332520 2769.870361 7040.148438 0.860056 -0.094879 -0.501299
7536.645508 3221.900635 6901.945801 -0.100638 0.970745 -0.218005
7112.353516 3271.227051 7317.456055 -0.100638 0.970745 -0.218005
7699.964355 3298.501709 7167.646484 -0.100638 0.970745 -0.218005
7567.332520 2769.870361 7040.148438 0.539278 -0.008418 -0.842086
8227.703125 2962.818848 7461.125977 0.539278 -0.008418 -0.842086
7903.848145 2756.515869 7255.789062 0.539278 -0.008418 -0.842086
7567.332520 2769.870361 7040.148438 -0.069707 -0.997508 -0.010909
7273.338379 2784.234619 7605.264160 -0.069707 -0.997508 -0.010909
6990.093750 2808.646240 7182.985840 -0.069707 -0.997508 -0.010909
7699.964355 3298.501709 7167.646484 0.585284 0.048366 -0.809385
8224.288086 3295.862549 7546.638672 0.585284 0.048366 -0.809385
7567.332520 2769.870361 7040.148438 0.585284 0.048366 -0.809385
7699.964355 3298.501709 7167.646484 -0.118613 0.948884 -0.292491
7112.353516 3271.227051 7317.456055 -0.118613 0.948884 -0.292491
7437.770508 3382.521973 7546.547852 -0.118613 0.948884 -0.292491
7052.839355 2841.830566 7623.534668 -0.242945 -0.964096 0.107222
6990.093750 2808.646240 7182.985840 -0.242945 -0.964096 0.107222
7273.338379 2784.234619 7605.264160 -0.242945 -0.964096 0.107222
6990.093750 2808.646240 7182.985840 -0.956098 0.278871 -0.090044
7033.397949 3135.203369 7734.542480 -0.956098 0.278871 -0.090044
7112.353516 3271.227051 7317.456055 -0.956098 0.278871 -0.090044
8227.703125 2962.818848 7461.125977 0.476787 0.223190 -0.850212
7567.332520 2769.870361 7040.148438 0.476787 0.223190 -0.850212
8224.288086 3295.862549 7546.638672 0.476787 0.223190 -0.850212
7699.964355 3298.501709 7167.646484 -0.213807 0.911956 -0.350175
7437.770508 3382.521973 7546.547852 -0.213807 0.911956 -0.350175
7774.255859 3540.996338 7753.812500 -0.213807 0.911956 -0.350175
7567.332520 2769.870361 7040.148438 -0.041941 -0.999114 0.003576
7903.848145 2756.515869 7255.789062 -0.041941 -0.999114 0.003576
7273.338379 2784.234619 7605.264160 -0.041941 -0.999114 0.003576
8224.288086 3295.862549 7546.638672 0.291332 0.870360 -0.396988
7699.964355 3298.501709 7167.646484 0.291332 0.870360 -0.396988
7774.255859 3540.996338 7753.812500 0.291332 0.870360 -0.396988
7903.848145 2756.515869 7255.789062 0.371822 -0.879457 0.297161
8227.703125 2962.818848 7461.125977 0.371822 -0.879457 0.297161
7792.673340 2872.521240 7738.217773 0.371822 -0.879457 0.297161
7112.353516 3271.227051 7317.456055 -0.179438 0.960693 -0.211828
7129.865723 3360.688721 7708.353516 -0.179438 0.960693 -0.211828
7437.770508 3382.521973 7546.547852 -0.179438 0.960693 -0.211828
8224.288086 3295.862549 7546.638672 0.248656 0.243274 -0.937544
8508.021484 3259.381104 7612.424316 0.248656 0.243274 -0.937544
8227.703125 2962.818848 7461.125977 0.248656 0.243274 -0.937544
8508.021484 3259.381104 7612.424316 0.675779 -0.293896 -0.675979
8405.132812 3017.571045 7614.698242 0.675779 -0.293896 -0.675979
8227.703125 2962.818848 7461.125977 0.675779 -0.293896 -0.675979
7052.839355 2841.830566 7623.534668 -0.981372 -0.121382 0.148916
7033.397949 3135.203369 7734.542480 -0.981372 -0.121382 0.148916
6990.093750 2808.646240 7182.985840 -0.981372 -0.121382 0.148916
8227.703125 2962.818848 7461.125977 0.450912 -0.765903 0.458335
8089.280273 3098.251221 7823.622070 0.450912 -0.765903 0.458335
7792.673340 2872.521240 7738.217773 0.450912 -0.765903 0.458335
8224.288086 3295.862549 7546.638672 0.572633 0.720092 0.391867
7774.255859 3540.996338 7753.812500 0.572633 0.720092 0.391867
7975.683594 3356.471436 7798.548828 0.572633 0.720092 0.391867
7975.683594 3356.471436 7798.548828 0.147753 0.984817 -0.091130
8508.021484 3259.381104 7612.424316 0.147753 0.984817 -0.091130
8224.288086 3295.862549 7546.638672 0.147753 0.984817 -0.091130
8227.703125 2962.818848 7461.125977 -0.010426 -0.938004 0.346467
8405.132812 3017.571045 7614.698242 -0.010426 -0.938004 0.346467
8089.280273 3098.251221 7823.622070 -0.010426 -0.938004 0.346467
7903.848145 2756.515869 7255.789062 0.098523 -0.962156 0.254066
7792.673340 2872.521240 7738.217773 0.098523 -0.962156 0.254066
7273.338379 2784.234619 7605.264160 0.098523 -0.962156 0.254066
7429.069824 3299.551025 7682.994629 0.039724 -0.160762 0.986193
7052.839355 2841.830566 7623.534668 0.039724 -0.160762 0.986193
7273.338379 2784.234619 7605.264160 0.039724 -0.160762 0.986193
7792.673340 2872.521240 7738.217773 -0.243299 -0.028859 0.969522
7975.683594 3356.471436 7798.548828 -0.243299 -0.028859 0.969522
7273.338379 2784.234619 7605.264160 -0.243299 -0.028859 0.969522
7975.683594 3356.471436 7798.548828 -0.197287 -0.087662 0.976419
7429.069824 3299.551025 7682.994629 -0.197287 -0.087662 0.976419
7273.338379 2784.234619 7605.264160 -0.197287 -0.087662 0.976419
7429.069824 3299.551025 7682.994629 0.254552 -0.327438 0.909938
7033.397949 3135.203369 7734.542480 0.254552 -0.327438 0.909938
7052.839355 2841.830566 7623.534668 0.254552 -0.327438 0.909938
8536.821289 3132.464844 7906.061523 0.889641 -0.380906 -0.251891
8405.132812 3017.571045 7614.698242 0.889641 -0.380906 -0.251891
8508.021484 3259.381104 7612.424316 0.889641 -0.380906 -0.251891
7437.770508 3382.521973 7546.547852 0.213192 0.828694 0.517509
7129.865723 3360.688721 7708.353516 0.213192 0.828694 0.517509
7429.069824 3299.551025 7682.994629 0.213192 0.828694 0.517509
7975.683594 3356.471436 7798.548828 -0.207840 0.010255 0.978109
7774.255859 3540.996338 7753.812500 -0.207840 0.010255 0.978109
7429.069824 3299.551025 7682.994629 -0.207840 0.010255 0.978109
7033.397949 3135.203369 7734.542480 -0.920339 0.388212 -0.047616
7129.865723 3360.688721 7708.353516 -0.920339 0.388212 -0.047616
7112.353516 3271.227051 7317.456055 -0.920339 0.388212 -0.047616
7129.865723 3360.688721 7708.353516 0.099008 0.072906 0.992412
7033.397949 3135.203369 7734.542480 0.099008 0.072906 0.992412
7429.069824 3299.551025 7682.994629 0.099008 0.072906 0.992412
7429.069824 3299.551025 7682.994629 -0.579462 0.712242 0.396152
7774.255859 3540.996338 7753.812500 -0.579462 0.712242 0.396152
7437.770508 3382.521973 7546.547852 -0.579462 0.712242 0.396152
8405.132812 3017.571045 7614.698242 0.003869 -0.930872 0.365324
8536.821289 3132.464844 7906.061523 0.003869 -0.930872 0.365324
8089.280273 3098.251221 7823.622070 0.003869 -0.930872 0.365324
8089.280273 3098.251221 7823.622070 -0.261576 -0.021376 0.964946
7975.683594 3356.471436 7798.548828 -0.261576 -0.021376 0.964946
7792.673340 2872.521240 7738.217773 -0.261576 -0.021376 0.964946
8508.021484 3259.381104 7612.424316 0.200801 0.977513 0.064404
7975.683594 3356.471436 7798.548828 0.200801 0.977513 0.064404
8401.180664 3256.598145 7987.775879 0.200801 0.977513 0.064404
8508.021484 3259.381104 7612.424316 0.726137 0.654199 0.211539
8401.180664 3256.598145 7987.775879 0.726137 0.654199 0.211539
8536.821289 3132.464844 7906.061523 0.726137 0.654199 0.211539
8089.280273 3098.251221 7823.622070 -0.423652 -0.098944 0.900405
8401.180664 3256.598145 7987.775879 -0.423652 -0.098944 0.900405
7975.683594 3356.471436 7798.548828 -0.423652 -0.098944 0.900405
8089.280273 3098.251221 7823.622070 -0.096349 -0.618594 0.779781
8536.821289 3132.464844 7906.061523 -0.096349 -0.618594 0.779781
8401.180664 3256.598145 7987.775879 -0.096349 -0.618594 0.779781
3 0 1 2
3 3 4 5
3 6 7 8
3 9 10 11
3 12 13 14
3 15 16 17
3 18 19 20
3 21 22 23
3 24 25 26
3 27 28 29
3 30 31 32
3 33 34 35
3 36 37 38
3 39 40 41
3 42 43 44
3 45 46 47
3 48 49 50
3 51 52 53
3 54 55 56
3 57 58 59
3 60 61 62
3 63 64 65
3 66 67 68
3 69 70 71
3 72 73 74
3 75 76 77
3 78 79 80
3 81 82 83
3 84 85 86
3 87 88 89
3 90 91 92
3 93 94 95
3 96 97 98
3 99 100 101
3 102 103 104
3 105 106 107
3 108 109 110
3 111 112 113
3 114 115 116
3 117 118 119
3 120 121 122
3 123 124 125
3 126 127 128
3 129 130 131
3 132 133 134
3 135 136 137
3 138 139 140
3 141 142 143
3 144 145 146
3 147 148 149
3 150 151 152
3 153 154 155
3 156 157 158
3 159 160 161
3 162 163 164
3 165 166 167
3 168 169 170
3 171 172 173
3 174 175 176
3 177 178 179
3 180 181 182
3 183 184 185
3 186 187 188
3 189 190 191
3 192 193 194
3 195 196 197
3 198 199 200
3 201 202 203
3 204 205 206
3 207 208 209
3 210 211 212
3 213 214 215
3 216 217 218
3 219 220 221
3 222 223 224
3 225 226 227
3 228 229 230
3 231 232 233
3 234 235 236
3 237 238 239
3 240 241 242
3 243 244 245
3 246 247 248
3 249 250 251
3 252 253 254
3 255 256 257
3 258 259 260
3 261 262 263
3 264 265 266
3 267 268 269
3 270 271 272
3 273 274 275
3 276 277 278
3 279 280 281
3 282 283 284
3 285 286 287
3 288 289 290
3 291 292 293
3 294 295 296
3 297 298 299
3 300 301 302
3 303 304 305
3 306 307 308
3 309 310 311
3 312 313 314
3 315 316 317
3 318 319 320
3 321 322 323
3 324 325 326
3 327 328 329
3 330 331 332
3 333 334 335
3 336 337 338
3 339 340 341
3 342 343 344
3 345 346 347
3 348 349 350
3 351 352 353
3 354 355 356
3 357 358 359
3 360 361 362
3 363 364 365
3 366 367 368
3 369 370 371
