ply
format ascii 1.0
comment Created by Blender 2.80 (sub 75) - www.blender.org, source file: 'downsample_ccf.blend'
element vertex 228
property float x
property float y
property float z
property float nx
property float ny
property float nz
element face 76
property list uchar uint vertex_indices
end_header
5780.115234 6190.419922 4227.372070 0.487839 0.354048 -0.797912
5704.350098 6152.271484 4164.122559 0.487839 0.354048 -0.797912
5758.709961 6490.132812 4347.272949 0.487839 0.354048 -0.797912
5704.350098 6152.271484 4164.122559 0.661064 -0.075133 -0.746558
5780.115234 6190.419922 4227.372070 0.661064 -0.075133 -0.746558
5747.852051 5695.429199 4248.619141 0.661064 -0.075133 -0.746558
5758.709961 6490.132812 4347.272949 -0.250036 0.492216 -0.833790
5704.350098 6152.271484 4164.122559 -0.250036 0.492216 -0.833790
5342.104004 6376.629883 4405.199219 -0.250036 0.492216 -0.833790
5704.350098 6152.271484 4164.122559 -0.505693 -0.203229 -0.838434
5747.852051 5695.429199 4248.619141 -0.505693 -0.203229 -0.838434
5581.276855 5636.876953 4363.279785 -0.505693 -0.203229 -0.838434
5581.276855 5636.876953 4363.279785 -0.195801 -0.728500 -0.656467
5747.852051 5695.429199 4248.619141 -0.195801 -0.728500 -0.656467
5737.195312 5519.638184 4446.877930 -0.195801 -0.728500 -0.656467
5747.852051 5695.429199 4248.619141 0.997862 -0.065220 -0.004192
5780.115234 6190.419922 4227.372070 0.997862 -0.065220 -0.004192
5737.195312 5519.638184 4446.877930 0.997862 -0.065220 -0.004192
5120.025879 6041.116699 4789.003418 -0.718691 -0.094571 -0.688868
5704.350098 6152.271484 4164.122559 -0.718691 -0.094571 -0.688868
5581.276855 5636.876953 4363.279785 -0.718691 -0.094571 -0.688868
5737.195312 5519.638184 4446.877930 0.997986 -0.051931 0.036440
5780.115234 6190.419922 4227.372070 0.997986 -0.051931 0.036440
5771.579590 6403.276367 4764.479492 0.997986 -0.051931 0.036440
5342.104004 6376.629883 4405.199219 -0.180034 0.805199 -0.565015
4985.207031 6493.917969 4686.065918 -0.180034 0.805199 -0.565015
5302.952148 6616.801758 4759.941895 -0.180034 0.805199 -0.565015
5302.952148 6616.801758 4759.941895 -0.289455 0.777486 -0.558329
5758.709961 6490.132812 4347.272949 -0.289455 0.777486 -0.558329
5342.104004 6376.629883 4405.199219 -0.289455 0.777486 -0.558329
5742.846191 5786.494141 4645.697754 0.997415 -0.055300 0.045876
5737.195312 5519.638184 4446.877930 0.997415 -0.055300 0.045876
5771.579590 6403.276367 4764.479492 0.997415 -0.055300 0.045876
5704.350098 6152.271484 4164.122559 -0.648898 -0.293323 -0.702064
4985.207031 6493.917969 4686.065918 -0.648898 -0.293323 -0.702064
5342.104004 6376.629883 4405.199219 -0.648898 -0.293323 -0.702064
5780.115234 6190.419922 4227.372070 0.996916 0.077082 -0.014705
5758.709961 6490.132812 4347.272949 0.996916 0.077082 -0.014705
5771.579590 6403.276367 4764.479492 0.996916 0.077082 -0.014705
5120.025879 6041.116699 4789.003418 -0.622198 -0.780027 0.066542
5581.276855 5636.876953 4363.279785 -0.622198 -0.780027 0.066542
5737.195312 5519.638184 4446.877930 -0.622198 -0.780027 0.066542
5758.709961 6490.132812 4347.272949 -0.240756 0.820884 -0.517866
5302.952148 6616.801758 4759.941895 -0.240756 0.820884 -0.517866
5593.964844 6691.024414 4742.302246 -0.240756 0.820884 -0.517866
5120.025879 6041.116699 4789.003418 -0.653284 -0.347437 -0.672687
4985.207031 6493.917969 4686.065918 -0.653284 -0.347437 -0.672687
5704.350098 6152.271484 4164.122559 -0.653284 -0.347437 -0.672687
5771.579590 6403.276367 4764.479492 0.845046 0.528075 0.083870
5758.709961 6490.132812 4347.272949 0.845046 0.528075 0.083870
5593.964844 6691.024414 4742.302246 0.845046 0.528075 0.083870
5737.195312 5519.638184 4446.877930 -0.411823 -0.787837 0.457947
5188.181641 6052.720215 4870.256836 -0.411823 -0.787837 0.457947
5120.025879 6041.116699 4789.003418 -0.411823 -0.787837 0.457947
4752.645996 6650.413574 4752.271973 0.531799 0.839003 -0.115166
4930.078613 6553.625977 4866.484375 0.531799 0.839003 -0.115166
4985.207031 6493.917969 4686.065918 0.531799 0.839003 -0.115166
5737.195312 5519.638184 4446.877930 0.037466 -0.597545 0.800960
5742.846191 5786.494141 4645.697754 0.037466 -0.597545 0.800960
5188.181641 6052.720215 4870.256836 0.037466 -0.597545 0.800960
5742.846191 5786.494141 4645.697754 0.286692 -0.194031 0.938168
5771.579590 6403.276367 4764.479492 0.286692 -0.194031 0.938168
5188.181641 6052.720215 4870.256836 0.286692 -0.194031 0.938168
5120.025879 6041.116699 4789.003418 -0.454230 -0.323912 -0.829913
4752.645996 6650.413574 4752.271973 -0.454230 -0.323912 -0.829913
4985.207031 6493.917969 4686.065918 -0.454230 -0.323912 -0.829913
4985.207031 6493.917969 4686.065918 -0.257731 0.891050 -0.373638
4930.078613 6553.625977 4866.484375 -0.257731 0.891050 -0.373638
5302.952148 6616.801758 4759.941895 -0.257731 0.891050 -0.373638
5771.579590 6403.276367 4764.479492 0.181357 -0.005082 0.983404
5208.958496 6472.917480 4868.596680 0.181357 -0.005082 0.983404
5188.181641 6052.720215 4870.256836 0.181357 -0.005082 0.983404
5771.579590 6403.276367 4764.479492 0.202060 0.198637 0.959018
5593.964844 6691.024414 4742.302246 0.202060 0.198637 0.959018
5208.958496 6472.917480 4868.596680 0.202060 0.198637 0.959018
5120.025879 6041.116699 4789.003418 -0.604283 -0.405697 -0.685750
4560.312012 6386.668457 5077.791016 -0.604283 -0.405697 -0.685750
4752.645996 6650.413574 4752.271973 -0.604283 -0.405697 -0.685750
5593.964844 6691.024414 4742.302246 -0.119301 0.646782 0.753287
5302.952148 6616.801758 4759.941895 -0.119301 0.646782 0.753287
5208.958496 6472.917480 4868.596680 -0.119301 0.646782 0.753287
5302.952148 6616.801758 4759.941895 0.147849 0.532685 0.833299
4930.078613 6553.625977 4866.484375 0.147849 0.532685 0.833299
5208.958496 6472.917480 4868.596680 0.147849 0.532685 0.833299
5208.958496 6472.917480 4868.596680 0.649088 -0.029091 0.760157
4930.528809 6076.992676 5091.192383 0.649088 -0.029091 0.760157
5188.181641 6052.720215 4870.256836 0.649088 -0.029091 0.760157
4547.506348 6508.062012 5100.129395 -0.861805 0.002428 -0.507233
4752.645996 6650.413574 4752.271973 -0.861805 0.002428 -0.507233
4560.312012 6386.668457 5077.791016 -0.861805 0.002428 -0.507233
4547.506348 6508.062012 5100.129395 0.177792 0.869568 0.460696
4930.078613 6553.625977 4866.484375 0.177792 0.869568 0.460696
4752.645996 6650.413574 4752.271973 0.177792 0.869568 0.460696
4930.528809 6076.992676 5091.192383 0.411162 0.209617 0.887134
5208.958496 6472.917480 4868.596680 0.411162 0.209617 0.887134
4663.736816 6370.226074 5145.556152 0.411162 0.209617 0.887134
5120.025879 6041.116699 4789.003418 0.016294 -0.991647 0.127946
5188.181641 6052.720215 4870.256836 0.016294 -0.991647 0.127946
4930.528809 6076.992676 5091.192383 0.016294 -0.991647 0.127946
4930.528809 6076.992676 5091.192383 -0.607169 -0.738552 -0.293063
4560.312012 6386.668457 5077.791016 -0.607169 -0.738552 -0.293063
5120.025879 6041.116699 4789.003418 -0.607169 -0.738552 -0.293063
4663.736816 6370.226074 5145.556152 0.202819 0.718240 0.665579
5208.958496 6472.917480 4868.596680 0.202819 0.718240 0.665579
4930.078613 6553.625977 4866.484375 0.202819 0.718240 0.665579
4930.078613 6553.625977 4866.484375 0.380911 0.562941 0.733488
4547.506348 6508.062012 5100.129395 0.380911 0.562941 0.733488
4663.736816 6370.226074 5145.556152 0.380911 0.562941 0.733488
4560.312012 6386.668457 5077.791016 -0.508753 -0.580708 0.635569
4930.528809 6076.992676 5091.192383 -0.508753 -0.580708 0.635569
4663.736816 6370.226074 5145.556152 -0.508753 -0.580708 0.635569
4547.506348 6508.062012 5100.129395 -0.558993 -0.206730 0.802988
4560.312012 6386.668457 5077.791016 -0.558993 -0.206730 0.802988
4663.736816 6370.226074 5145.556152 -0.558993 -0.206730 0.802988
4922.807129 6054.955566 6318.386719 0.408850 0.187986 -0.893030
4579.536621 6405.226074 6234.962891 0.408850 0.187986 -0.893030
5119.371094 6499.610840 6501.979980 0.408850 0.187986 -0.893030
4579.536621 6405.226074 6234.962891 0.252337 0.631326 -0.733316
4548.985352 6530.819824 6332.576172 0.252337 0.631326 -0.733316
5119.371094 6499.610840 6501.979980 0.252337 0.631326 -0.733316
4579.536621 6405.226074 6234.962891 -0.678404 -0.709909 -0.189204
4922.807129 6054.955566 6318.386719 -0.678404 -0.709909 -0.189204
4577.223633 6382.722168 6327.692871 -0.678404 -0.709909 -0.189204
4579.536621 6405.226074 6234.962891 -0.980362 -0.184645 -0.069263
4577.223633 6382.722168 6327.692871 -0.980362 -0.184645 -0.069263
4548.985352 6530.819824 6332.576172 -0.980362 -0.184645 -0.069263
5119.371094 6499.610840 6501.979980 0.189178 0.857157 -0.479054
4548.985352 6530.819824 6332.576172 0.189178 0.857157 -0.479054
4744.797363 6649.702637 6622.615723 0.189178 0.857157 -0.479054
5273.933594 6165.903809 6521.828125 0.550053 -0.445280 -0.706518
5165.158203 6025.967285 6525.336426 0.550053 -0.445280 -0.706518
4922.807129 6054.955566 6318.386719 0.550053 -0.445280 -0.706518
5119.371094 6499.610840 6501.979980 0.456702 0.159475 -0.875209
5273.933594 6165.903809 6521.828125 0.456702 0.159475 -0.875209
4922.807129 6054.955566 6318.386719 0.456702 0.159475 -0.875209
4993.723145 6544.916504 6571.058594 0.410750 0.897916 0.158213
5119.371094 6499.610840 6501.979980 0.410750 0.897916 0.158213
4744.797363 6649.702637 6622.615723 0.410750 0.897916 0.158213
5124.983398 6058.311035 6612.456055 -0.292185 -0.932677 0.211523
4922.807129 6054.955566 6318.386719 -0.292185 -0.932677 0.211523
5165.158203 6025.967285 6525.336426 -0.292185 -0.932677 0.211523
4744.797363 6649.702637 6622.615723 -0.783340 -0.169085 0.598155
4548.985352 6530.819824 6332.576172 -0.783340 -0.169085 0.598155
4577.223633 6382.722168 6327.692871 -0.783340 -0.169085 0.598155
4922.807129 6054.955566 6318.386719 -0.615034 -0.660685 0.430382
5124.983398 6058.311035 6612.456055 -0.615034 -0.660685 0.430382
4577.223633 6382.722168 6327.692871 -0.615034 -0.660685 0.430382
5737.033203 6159.284668 6624.113770 0.215533 -0.009574 -0.976450
5273.933594 6165.903809 6521.828125 0.215533 -0.009574 -0.976450
5598.445801 6644.646973 6588.764160 0.215533 -0.009574 -0.976450
5598.445801 6644.646973 6588.764160 0.172021 0.021097 -0.984867
5273.933594 6165.903809 6521.828125 0.172021 0.021097 -0.984867
5119.371094 6499.610840 6501.979980 0.172021 0.021097 -0.984867
5437.261230 6654.319336 6625.153320 -0.100678 0.738058 -0.667184
5119.371094 6499.610840 6501.979980 -0.100678 0.738058 -0.667184
4993.723145 6544.916504 6571.058594 -0.100678 0.738058 -0.667184
5598.445801 6644.646973 6588.764160 -0.104856 0.742335 -0.661773
5119.371094 6499.610840 6501.979980 -0.104856 0.742335 -0.661773
5437.261230 6654.319336 6625.153320 -0.104856 0.742335 -0.661773
5737.033203 6159.284668 6624.113770 0.209332 -0.186782 -0.959840
5165.158203 6025.967285 6525.336426 0.209332 -0.186782 -0.959840
5273.933594 6165.903809 6521.828125 0.209332 -0.186782 -0.959840
5737.033203 6159.284668 6624.113770 0.238127 -0.350293 -0.905864
5760.873047 5562.974121 6860.970703 0.238127 -0.350293 -0.905864
5165.158203 6025.967285 6525.336426 0.238127 -0.350293 -0.905864
5737.033203 6159.284668 6624.113770 0.811726 0.191593 -0.551718
5598.445801 6644.646973 6588.764160 0.811726 0.191593 -0.551718
5722.926270 6657.647949 6776.423340 0.811726 0.191593 -0.551718
5124.983398 6058.311035 6612.456055 -0.580352 -0.324132 0.747081
5007.252441 6493.333008 6709.740234 -0.580352 -0.324132 0.747081
4577.223633 6382.722168 6327.692871 -0.580352 -0.324132 0.747081
4577.223633 6382.722168 6327.692871 -0.516733 -0.467774 0.717060
5007.252441 6493.333008 6709.740234 -0.516733 -0.467774 0.717060
4744.797363 6649.702637 6622.615723 -0.516733 -0.467774 0.717060
4744.797363 6649.702637 6622.615723 0.421136 0.862754 0.279822
5007.252441 6493.333008 6709.740234 0.421136 0.862754 0.279822
4993.723145 6544.916504 6571.058594 0.421136 0.862754 0.279822
5598.445801 6644.646973 6588.764160 0.038388 0.994796 -0.094383
5437.261230 6654.319336 6625.153320 0.038388 0.994796 -0.094383
5722.926270 6657.647949 6776.423340 0.038388 0.994796 -0.094383
5760.873047 5562.974121 6860.970703 0.997574 0.012696 -0.068444
5737.033203 6159.284668 6624.113770 0.997574 0.012696 -0.068444
5768.540039 6360.686523 7120.683594 0.997574 0.012696 -0.068444
5737.033203 6159.284668 6624.113770 0.994899 0.054169 -0.085096
5722.926270 6657.647949 6776.423340 0.994899 0.054169 -0.085096
5768.540039 6360.686523 7120.683594 0.994899 0.054169 -0.085096
5524.363770 5665.284180 6968.962402 -0.681131 -0.730913 -0.042744
5124.983398 6058.311035 6612.456055 -0.681131 -0.730913 -0.042744
5165.158203 6025.967285 6525.336426 -0.681131 -0.730913 -0.042744
5437.261230 6654.319336 6625.153320 -0.264802 0.835382 0.481681
4993.723145 6544.916504 6571.058594 -0.264802 0.835382 0.481681
5722.926270 6657.647949 6776.423340 -0.264802 0.835382 0.481681
5165.158203 6025.967285 6525.336426 -0.485925 -0.828019 -0.279753
5760.873047 5562.974121 6860.970703 -0.485925 -0.828019 -0.279753
5524.363770 5665.284180 6968.962402 -0.485925 -0.828019 -0.279753
5722.926270 6657.647949 6776.423340 -0.240503 0.901854 0.358913
4993.723145 6544.916504 6571.058594 -0.240503 0.901854 0.358913
5007.252441 6493.333008 6709.740234 -0.240503 0.901854 0.358913
5703.116211 6057.630371 7191.439453 -0.705517 -0.077986 0.704389
5124.983398 6058.311035 6612.456055 -0.705517 -0.077986 0.704389
5524.363770 5665.284180 6968.962402 -0.705517 -0.077986 0.704389
5703.116211 6057.630371 7191.439453 -0.665434 -0.340923 0.664055
5396.250977 6347.830566 7032.924805 -0.665434 -0.340923 0.664055
5124.983398 6058.311035 6612.456055 -0.665434 -0.340923 0.664055
5124.983398 6058.311035 6612.456055 -0.673206 -0.330158 0.661657
5396.250977 6347.830566 7032.924805 -0.673206 -0.330158 0.661657
5007.252441 6493.333008 6709.740234 -0.673206 -0.330158 0.661657
5722.926270 6657.647949 6776.423340 -0.230328 0.753089 0.616284
5007.252441 6493.333008 6709.740234 -0.230328 0.753089 0.616284
5396.250977 6347.830566 7032.924805 -0.230328 0.753089 0.616284
5760.873047 5562.974121 6860.970703 -0.260195 -0.917859 0.299723
5744.504395 5651.132324 7116.732910 -0.260195 -0.917859 0.299723
5524.363770 5665.284180 6968.962402 -0.260195 -0.917859 0.299723
5760.873047 5562.974121 6860.970703 0.996555 -0.034178 0.075560
5768.540039 6360.686523 7120.683594 0.996555 -0.034178 0.075560
5744.504395 5651.132324 7116.732910 0.996555 -0.034178 0.075560
5703.116211 6057.630371 7191.439453 -0.554571 -0.204696 0.806567
5524.363770 5665.284180 6968.962402 -0.554571 -0.204696 0.806567
5744.504395 5651.132324 7116.732910 -0.554571 -0.204696 0.806567
5768.540039 6360.686523 7120.683594 -0.179964 0.732927 0.656073
5722.926270 6657.647949 6776.423340 -0.179964 0.732927 0.656073
5396.250977 6347.830566 7032.924805 -0.179964 0.732927 0.656073
5768.540039 6360.686523 7120.683594 0.795261 -0.030310 0.605509
5703.116211 6057.630371 7191.439453 0.795261 -0.030310 0.605509
5744.504395 5651.132324 7116.732910 0.795261 -0.030310 0.605509
5768.540039 6360.686523 7120.683594 -0.229802 0.268048 0.935597
5396.250977 6347.830566 7032.924805 -0.229802 0.268048 0.935597
5703.116211 6057.630371 7191.439453 -0.229802 0.268048 0.935597
3 0 1 2
3 3 4 5
3 6 7 8
3 9 10 11
3 12 13 14
3 15 16 17
3 18 19 20
3 21 22 23
3 24 25 26
3 27 28 29
3 30 31 32
3 33 34 35
3 36 37 38
3 39 40 41
3 42 43 44
3 45 46 47
3 48 49 50
3 51 52 53
3 54 55 56
3 57 58 59
3 60 61 62
3 63 64 65
3 66 67 68
3 69 70 71
3 72 73 74
3 75 76 77
3 78 79 80
3 81 82 83
3 84 85 86
3 87 88 89
3 90 91 92
3 93 94 95
3 96 97 98
3 99 100 101
3 102 103 104
3 105 106 107
3 108 109 110
3 111 112 113
3 114 115 116
3 117 118 119
3 120 121 122
3 123 124 125
3 126 127 128
3 129 130 131
3 132 133 134
3 135 136 137
3 138 139 140
3 141 142 143
3 144 145 146
3 147 148 149
3 150 151 152
3 153 154 155
3 156 157 158
3 159 160 161
3 162 163 164
3 165 166 167
3 168 169 170
3 171 172 173
3 174 175 176
3 177 178 179
3 180 181 182
3 183 184 185
3 186 187 188
3 189 190 191
3 192 193 194
3 195 196 197
3 198 199 200
3 201 202 203
3 204 205 206
3 207 208 209
3 210 211 212
3 213 214 215
3 216 217 218
3 219 220 221
3 222 223 224
3 225 226 227
