ply
format ascii 1.0
comment Created by Blender 2.80 (sub 75) - www.blender.org, source file: 'downsample_ccf.blend'
element vertex 630
property float x
property float y
property float z
property float nx
property float ny
property float nz
element face 210
property list uchar uint vertex_indices
end_header
5480.013184 3237.712646 4795.061035 -0.196198 -0.222070 -0.955087
4981.725586 3456.442383 4846.563965 -0.196198 -0.222070 -0.955087
5287.522949 3687.170166 4730.098633 -0.196198 -0.222070 -0.955087
5311.220215 4301.941406 4795.030762 0.130195 0.099177 -0.986516
5287.522949 3687.170166 4730.098633 0.130195 0.099177 -0.986516
5023.290039 4601.102539 4787.106934 0.130195 0.099177 -0.986516
5480.013184 3237.712646 4795.061035 0.471010 0.074680 -0.878961
5287.522949 3687.170166 4730.098633 0.471010 0.074680 -0.878961
5311.220215 4301.941406 4795.030762 0.471010 0.074680 -0.878961
5490.134766 3463.013428 4883.687500 0.879491 0.139479 -0.455018
5480.013184 3237.712646 4795.061035 0.879491 0.139479 -0.455018
5311.220215 4301.941406 4795.030762 0.879491 0.139479 -0.455018
5023.290039 4601.102539 4787.106934 -0.077912 0.039613 -0.996173
5287.522949 3687.170166 4730.098633 -0.077912 0.039613 -0.996173
4453.724121 4555.395508 4829.835938 -0.077912 0.039613 -0.996173
5023.290039 4601.102539 4787.106934 -0.086021 0.151361 -0.984729
4453.724121 4555.395508 4829.835938 -0.086021 0.151361 -0.984729
4749.810059 4893.244629 4855.901367 -0.086021 0.151361 -0.984729
4658.088867 3793.325684 5019.805176 -0.405890 0.078323 -0.910560
5287.522949 3687.170166 4730.098633 -0.405890 0.078323 -0.910560
4981.725586 3456.442383 4846.563965 -0.405890 0.078323 -0.910560
5023.290039 4601.102539 4787.106934 0.447335 0.409481 -0.795121
5380.156738 4691.752930 5034.564453 0.447335 0.409481 -0.795121
5311.220215 4301.941406 4795.030762 0.447335 0.409481 -0.795121
4749.810059 4893.244629 4855.901367 0.384452 0.536755 -0.751059
5380.156738 4691.752930 5034.564453 0.384452 0.536755 -0.751059
5023.290039 4601.102539 4787.106934 0.384452 0.536755 -0.751059
4749.810059 4893.244629 4855.901367 -0.239625 0.281685 -0.929104
4453.724121 4555.395508 4829.835938 -0.239625 0.281685 -0.929104
4091.002930 4761.006836 4985.722168 -0.239625 0.281685 -0.929104
5621.035645 2556.891113 5091.415527 -0.002404 -0.399534 -0.916715
5480.013184 3237.712646 4795.061035 -0.002404 -0.399534 -0.916715
5786.014648 2577.715820 5081.906738 -0.002404 -0.399534 -0.916715
5759.763184 3010.814941 4974.393555 0.658018 0.249864 -0.710338
5480.013184 3237.712646 4795.061035 0.658018 0.249864 -0.710338
5490.134766 3463.013428 4883.687500 0.658018 0.249864 -0.710338
5311.220215 4301.941406 4795.030762 -0.170863 -0.748162 -0.641140
5356.047852 4235.246582 4860.912109 -0.170863 -0.748162 -0.641140
5316.812012 4126.525879 4998.237305 -0.170863 -0.748162 -0.641140
5287.522949 3687.170166 4730.098633 -0.332585 -0.213885 -0.918499
4191.762695 4369.188477 4968.051758 -0.332585 -0.213885 -0.918499
4453.724121 4555.395508 4829.835938 -0.332585 -0.213885 -0.918499
5311.220215 4301.941406 4795.030762 0.929952 0.228748 0.287861
5368.648438 3549.648926 5207.311523 0.929952 0.228748 0.287861
5490.134766 3463.013428 4883.687500 0.929952 0.228748 0.287861
5368.648438 3549.648926 5207.311523 0.990720 0.115177 0.072162
5311.220215 4301.941406 4795.030762 0.990720 0.115177 0.072162
5316.812012 4126.525879 4998.237305 0.990720 0.115177 0.072162
5287.522949 3687.170166 4730.098633 -0.436641 -0.424854 -0.792997
4658.088867 3793.325684 5019.805176 -0.436641 -0.424854 -0.792997
4191.762695 4369.188477 4968.051758 -0.436641 -0.424854 -0.792997
5759.763184 3010.814941 4974.393555 0.411590 -0.195998 -0.890044
5786.014648 2577.715820 5081.906738 0.411590 -0.195998 -0.890044
5480.013184 3237.712646 4795.061035 0.411590 -0.195998 -0.890044
5621.035645 2556.891113 5091.415527 -0.278007 -0.431216 -0.858350
4981.725586 3456.442383 4846.563965 -0.278007 -0.431216 -0.858350
5480.013184 3237.712646 4795.061035 -0.278007 -0.431216 -0.858350
4453.724121 4555.395508 4829.835938 -0.426694 -0.069061 -0.901756
4191.762695 4369.188477 4968.051758 -0.426694 -0.069061 -0.901756
4091.002930 4761.006836 4985.722168 -0.426694 -0.069061 -0.901756
5381.859863 2683.042969 5123.616211 -0.358099 -0.473533 -0.804693
4981.725586 3456.442383 4846.563965 -0.358099 -0.473533 -0.804693
5621.035645 2556.891113 5091.415527 -0.358099 -0.473533 -0.804693
4658.088867 3793.325684 5019.805176 -0.682008 -0.316024 -0.659541
4981.725586 3456.442383 4846.563965 -0.682008 -0.316024 -0.659541
4670.892578 3405.517090 5192.386719 -0.682008 -0.316024 -0.659541
5472.910645 4566.633789 5126.288574 0.810383 0.195977 -0.552153
5311.220215 4301.941406 4795.030762 0.810383 0.195977 -0.552153
5380.156738 4691.752930 5034.564453 0.810383 0.195977 -0.552153
5356.047852 4235.246582 4860.912109 0.864016 0.091734 -0.495036
5311.220215 4301.941406 4795.030762 0.864016 0.091734 -0.495036
5472.910645 4566.633789 5126.288574 0.864016 0.091734 -0.495036
4091.002930 4761.006836 4985.722168 -0.748792 -0.163592 -0.642299
4191.762695 4369.188477 4968.051758 -0.748792 -0.163592 -0.642299
3932.850830 4813.369141 5156.759277 -0.748792 -0.163592 -0.642299
4749.810059 4893.244629 4855.901367 -0.269661 0.620621 -0.736283
4091.002930 4761.006836 4985.722168 -0.269661 0.620621 -0.736283
4534.018066 5297.550781 5275.728516 -0.269661 0.620621 -0.736283
4812.019043 3171.269043 5181.679199 -0.508658 -0.511308 -0.692699
4981.725586 3456.442383 4846.563965 -0.508658 -0.511308 -0.692699
5381.859863 2683.042969 5123.616211 -0.508658 -0.511308 -0.692699
5356.047852 4235.246582 4860.912109 0.928972 0.110833 0.353168
5203.365234 4340.646484 5229.451172 0.928972 0.110833 0.353168
5316.812012 4126.525879 4998.237305 0.928972 0.110833 0.353168
5356.047852 4235.246582 4860.912109 0.668973 -0.593864 0.446991
5472.910645 4566.633789 5126.288574 0.668973 -0.593864 0.446991
5203.365234 4340.646484 5229.451172 0.668973 -0.593864 0.446991
4857.463379 5197.646484 5346.971680 0.391485 0.741218 -0.545284
5380.156738 4691.752930 5034.564453 0.391485 0.741218 -0.545284
4749.810059 4893.244629 4855.901367 0.391485 0.741218 -0.545284
5786.014648 2577.715820 5081.906738 0.992274 0.030277 -0.120315
5759.763184 3010.814941 4974.393555 0.992274 0.030277 -0.120315
5811.568848 2657.196533 5312.660645 0.992274 0.030277 -0.120315
5490.134766 3463.013428 4883.687500 0.842589 0.525788 0.116580
5749.841309 2964.995361 5252.754395 0.842589 0.525788 0.116580
5759.763184 3010.814941 4974.393555 0.842589 0.525788 0.116580
4812.019043 3171.269043 5181.679199 -0.663258 -0.369851 -0.650614
4670.892578 3405.517090 5192.386719 -0.663258 -0.369851 -0.650614
4981.725586 3456.442383 4846.563965 -0.663258 -0.369851 -0.650614
4091.002930 4761.006836 4985.722168 -0.712261 0.112063 -0.692911
3932.850830 4813.369141 5156.759277 -0.712261 0.112063 -0.692911
3880.113037 5142.573730 5264.211426 -0.712261 0.112063 -0.692911
5759.763184 3010.814941 4974.393555 0.975447 0.209086 0.069185
5749.841309 2964.995361 5252.754395 0.975447 0.209086 0.069185
5811.568848 2657.196533 5312.660645 0.975447 0.209086 0.069185
5380.156738 4691.752930 5034.564453 0.744069 0.628015 0.227944
4857.463379 5197.646484 5346.971680 0.744069 0.628015 0.227944
5071.003906 4949.276855 5334.209473 0.744069 0.628015 0.227944
5472.910645 4566.633789 5126.288574 0.698441 0.680412 0.221854
5380.156738 4691.752930 5034.564453 0.698441 0.680412 0.221854
5326.661133 4669.511719 5271.191406 0.698441 0.680412 0.221854
5786.014648 2577.715820 5081.906738 0.127648 -0.990807 0.044796
5715.425781 2581.624756 5369.509766 0.127648 -0.990807 0.044796
5621.035645 2556.891113 5091.415527 0.127648 -0.990807 0.044796
5715.425781 2581.624756 5369.509766 -0.430908 -0.874151 0.224005
5381.859863 2683.042969 5123.616211 -0.430908 -0.874151 0.224005
5621.035645 2556.891113 5091.415527 -0.430908 -0.874151 0.224005
4191.762695 4369.188477 4968.051758 -0.880211 -0.453110 -0.141140
4064.777344 4503.525879 5328.716309 -0.880211 -0.453110 -0.141140
3932.850830 4813.369141 5156.759277 -0.880211 -0.453110 -0.141140
4091.002930 4761.006836 4985.722168 -0.485698 0.324079 -0.811832
3880.113037 5142.573730 5264.211426 -0.485698 0.324079 -0.811832
3909.425049 5393.716797 5346.929688 -0.485698 0.324079 -0.811832
5380.156738 4691.752930 5034.564453 0.743833 0.628549 0.227242
5071.003906 4949.276855 5334.209473 0.743833 0.628549 0.227242
5326.661133 4669.511719 5271.191406 0.743833 0.628549 0.227242
4534.018066 5297.550781 5275.728516 -0.023786 0.490489 -0.871123
4091.002930 4761.006836 4985.722168 -0.023786 0.490489 -0.871123
3909.425049 5393.716797 5346.929688 -0.023786 0.490489 -0.871123
4658.088867 3793.325684 5019.805176 -0.740486 -0.622420 -0.253521
4521.101074 3766.972412 5484.619629 -0.740486 -0.622420 -0.253521
4191.762695 4369.188477 4968.051758 -0.740486 -0.622420 -0.253521
5003.871094 3909.428955 5556.057617 0.878863 -0.047008 0.474753
5316.812012 4126.525879 4998.237305 0.878863 -0.047008 0.474753
5203.365234 4340.646484 5229.451172 0.878863 -0.047008 0.474753
4749.810059 4893.244629 4855.901367 0.354695 0.757881 -0.547548
4534.018066 5297.550781 5275.728516 0.354695 0.757881 -0.547548
4857.463379 5197.646484 5346.971680 0.354695 0.757881 -0.547548
5472.910645 4566.633789 5126.288574 0.552947 -0.305686 0.775117
5326.661133 4669.511719 5271.191406 0.552947 -0.305686 0.775117
5203.365234 4340.646484 5229.451172 0.552947 -0.305686 0.775117
3932.850830 4813.369141 5156.759277 -0.929419 -0.240303 0.280063
4064.777344 4503.525879 5328.716309 -0.929419 -0.240303 0.280063
3880.113037 5142.573730 5264.211426 -0.929419 -0.240303 0.280063
4534.018066 5297.550781 5275.728516 -0.012735 0.540260 -0.841402
3909.425049 5393.716797 5346.929688 -0.012735 0.540260 -0.841402
4310.817871 5503.161621 5411.128418 -0.012735 0.540260 -0.841402
5715.425781 2581.624756 5369.509766 0.670155 -0.721468 0.174288
5786.014648 2577.715820 5081.906738 0.670155 -0.721468 0.174288
5811.568848 2657.196533 5312.660645 0.670155 -0.721468 0.174288
5283.310059 2894.138672 5666.020508 -0.629387 -0.755990 0.179866
4812.019043 3171.269043 5181.679199 -0.629387 -0.755990 0.179866
5381.859863 2683.042969 5123.616211 -0.629387 -0.755990 0.179866
5368.648438 3549.648926 5207.311523 0.820889 0.547772 0.161516
5749.841309 2964.995361 5252.754395 0.820889 0.547772 0.161516
5490.134766 3463.013428 4883.687500 0.820889 0.547772 0.161516
5316.812012 4126.525879 4998.237305 0.791083 0.270015 0.548889
5003.871094 3909.428955 5556.057617 0.791083 0.270015 0.548889
5368.648438 3549.648926 5207.311523 0.791083 0.270015 0.548889
4191.762695 4369.188477 4968.051758 -0.837256 -0.538643 -0.094158
4521.101074 3766.972412 5484.619629 -0.837256 -0.538643 -0.094158
4064.777344 4503.525879 5328.716309 -0.837256 -0.538643 -0.094158
3880.113037 5142.573730 5264.211426 -0.875296 -0.208910 0.436135
4064.777344 4503.525879 5328.716309 -0.875296 -0.208910 0.436135
3988.346924 5160.831055 5490.175781 -0.875296 -0.208910 0.436135
4857.463379 5197.646484 5346.971680 0.294008 0.955787 0.005498
4534.018066 5297.550781 5275.728516 0.294008 0.955787 0.005498
4695.024414 5246.909668 5469.416016 0.294008 0.955787 0.005498
4310.817871 5503.161621 5411.128418 -0.091220 0.731143 -0.676098
3909.425049 5393.716797 5346.929688 -0.091220 0.731143 -0.676098
4126.663574 5496.538086 5428.812012 -0.091220 0.731143 -0.676098
4658.088867 3793.325684 5019.805176 -0.826318 -0.493441 -0.271505
4736.410156 3378.680664 5535.024902 -0.826318 -0.493441 -0.271505
4521.101074 3766.972412 5484.619629 -0.826318 -0.493441 -0.271505
3880.113037 5142.573730 5264.211426 -0.900031 -0.037955 0.434170
3988.346924 5160.831055 5490.175781 -0.900031 -0.037955 0.434170
3909.425049 5393.716797 5346.929688 -0.900031 -0.037955 0.434170
5457.599121 2814.609619 5695.087891 -0.449311 -0.855743 0.256562
5381.859863 2683.042969 5123.616211 -0.449311 -0.855743 0.256562
5715.425781 2581.624756 5369.509766 -0.449311 -0.855743 0.256562
5283.310059 2894.138672 5666.020508 -0.436319 -0.862490 0.256393
5381.859863 2683.042969 5123.616211 -0.436319 -0.862490 0.256393
5457.599121 2814.609619 5695.087891 -0.436319 -0.862490 0.256393
4670.892578 3405.517090 5192.386719 -0.847729 -0.516289 0.121661
4812.019043 3171.269043 5181.679199 -0.847729 -0.516289 0.121661
4736.410156 3378.680664 5535.024902 -0.847729 -0.516289 0.121661
5203.365234 4340.646484 5229.451172 0.756853 0.134320 0.639635
4950.124512 4523.647949 5490.670898 0.756853 0.134320 0.639635
5003.871094 3909.428955 5556.057617 0.756853 0.134320 0.639635
5326.661133 4669.511719 5271.191406 0.565452 -0.309051 0.764691
4950.124512 4523.647949 5490.670898 0.565452 -0.309051 0.764691
5203.365234 4340.646484 5229.451172 0.565452 -0.309051 0.764691
4857.463379 5197.646484 5346.971680 0.689755 0.570094 0.446353
4962.194824 4995.651367 5443.122559 0.689755 0.570094 0.446353
5071.003906 4949.276855 5334.209473 0.689755 0.570094 0.446353
4962.194824 4995.651367 5443.122559 0.700899 0.533988 0.472861
5326.661133 4669.511719 5271.191406 0.700899 0.533988 0.472861
5071.003906 4949.276855 5334.209473 0.700899 0.533988 0.472861
4534.018066 5297.550781 5275.728516 0.562647 0.783823 -0.262774
4310.817871 5503.161621 5411.128418 0.562647 0.783823 -0.262774
4695.024414 5246.909668 5469.416016 0.562647 0.783823 -0.262774
5487.605469 2876.239990 5681.170898 0.796849 0.265438 0.542746
5811.568848 2657.196533 5312.660645 0.796849 0.265438 0.542746
5749.841309 2964.995361 5252.754395 0.796849 0.265438 0.542746
4670.892578 3405.517090 5192.386719 -0.980058 0.052883 0.191544
4736.410156 3378.680664 5535.024902 -0.980058 0.052883 0.191544
4658.088867 3793.325684 5019.805176 -0.980058 0.052883 0.191544
5326.661133 4669.511719 5271.191406 0.480069 0.075763 0.873953
4962.194824 4995.651367 5443.122559 0.480069 0.075763 0.873953
4950.124512 4523.647949 5490.670898 0.480069 0.075763 0.873953
4962.194824 4995.651367 5443.122559 0.596343 0.575552 0.559567
4857.463379 5197.646484 5346.971680 0.596343 0.575552 0.559567
4695.024414 5246.909668 5469.416016 0.596343 0.575552 0.559567
5749.841309 2964.995361 5252.754395 0.692793 0.492634 0.526640
5368.648438 3549.648926 5207.311523 0.692793 0.492634 0.526640
5200.358887 3268.600342 5691.596680 0.692793 0.492634 0.526640
4064.777344 4503.525879 5328.716309 -0.765580 -0.236030 0.598479
4410.996582 4214.507812 5657.619141 -0.765580 -0.236030 0.598479
3988.346924 5160.831055 5490.175781 -0.765580 -0.236030 0.598479
5457.599121 2814.609619 5695.087891 0.740763 -0.107008 0.663188
5715.425781 2581.624756 5369.509766 0.740763 -0.107008 0.663188
5522.021484 2804.656494 5621.523926 0.740763 -0.107008 0.663188
5715.425781 2581.624756 5369.509766 0.636805 -0.265658 0.723813
5811.568848 2657.196533 5312.660645 0.636805 -0.265658 0.723813
5522.021484 2804.656494 5621.523926 0.636805 -0.265658 0.723813
5283.310059 2894.138672 5666.020508 -0.674428 -0.690638 0.261086
4736.410156 3378.680664 5535.024902 -0.674428 -0.690638 0.261086
4812.019043 3171.269043 5181.679199 -0.674428 -0.690638 0.261086
4107.765137 5384.655273 5557.247070 -0.712296 0.176465 0.679334
3909.425049 5393.716797 5346.929688 -0.712296 0.176465 0.679334
3988.346924 5160.831055 5490.175781 -0.712296 0.176465 0.679334
3909.425049 5393.716797 5346.929688 -0.517573 0.681436 0.517458
4107.765137 5384.655273 5557.247070 -0.517573 0.681436 0.517458
4126.663574 5496.538086 5428.812012 -0.517573 0.681436 0.517458
4126.663574 5496.538086 5428.812012 0.036317 0.750873 0.659447
4107.765137 5384.655273 5557.247070 0.036317 0.750873 0.659447
4310.817871 5503.161621 5411.128418 0.036317 0.750873 0.659447
5487.605469 2876.239990 5681.170898 0.692742 0.493173 0.526202
5749.841309 2964.995361 5252.754395 0.692742 0.493173 0.526202
5200.358887 3268.600342 5691.596680 0.692742 0.493173 0.526202
4521.101074 3766.972412 5484.619629 -0.783891 -0.382054 0.489439
4410.996582 4214.507812 5657.619141 -0.783891 -0.382054 0.489439
4064.777344 4503.525879 5328.716309 -0.783891 -0.382054 0.489439
4695.024414 5246.909668 5469.416016 0.248729 0.553693 0.794706
4310.817871 5503.161621 5411.128418 0.248729 0.553693 0.794706
4107.765137 5384.655273 5557.247070 0.248729 0.553693 0.794706
5487.605469 2876.239990 5681.170898 0.616532 -0.307515 0.724791
5522.021484 2804.656494 5621.523926 0.616532 -0.307515 0.724791
5811.568848 2657.196533 5312.660645 0.616532 -0.307515 0.724791
4956.317383 3698.348633 5696.417480 0.777860 0.216952 0.589801
5368.648438 3549.648926 5207.311523 0.777860 0.216952 0.589801
5003.871094 3909.428955 5556.057617 0.777860 0.216952 0.589801
4459.472656 4158.379883 5706.009277 -0.834543 -0.364886 0.412791
4410.996582 4214.507812 5657.619141 -0.834543 -0.364886 0.412791
4521.101074 3766.972412 5484.619629 -0.834543 -0.364886 0.412791
4962.194824 4995.651367 5443.122559 0.184530 0.093836 0.978337
4695.024414 5246.909668 5469.416016 0.184530 0.093836 0.978337
4950.124512 4523.647949 5490.670898 0.184530 0.093836 0.978337
5200.358887 3268.600342 5691.596680 0.752399 0.421588 0.506122
5368.648438 3549.648926 5207.311523 0.752399 0.421588 0.506122
4956.317383 3698.348633 5696.417480 0.752399 0.421588 0.506122
4410.996582 4214.507812 5657.619141 -0.295711 0.036831 0.954567
4447.155273 4379.043457 5662.472168 -0.295711 0.036831 0.954567
3988.346924 5160.831055 5490.175781 -0.295711 0.036831 0.954567
4950.124512 4523.647949 5490.670898 0.363632 0.155249 0.918515
4695.024414 5246.909668 5469.416016 0.363632 0.155249 0.918515
4510.942383 4397.273438 5685.899414 0.363632 0.155249 0.918515
4447.155273 4379.043457 5662.472168 -0.420550 -0.047127 0.906045
4107.765137 5384.655273 5557.247070 -0.420550 -0.047127 0.906045
3988.346924 5160.831055 5490.175781 -0.420550 -0.047127 0.906045
4695.024414 5246.909668 5469.416016 0.194837 0.221385 0.955525
4107.765137 5384.655273 5557.247070 0.194837 0.221385 0.955525
4301.173340 5021.747070 5601.892090 0.194837 0.221385 0.955525
5003.871094 3909.428955 5556.057617 0.477760 0.134228 0.868175
4950.124512 4523.647949 5490.670898 0.477760 0.134228 0.868175
4714.779785 4135.082031 5680.257812 0.477760 0.134228 0.868175
4510.942383 4397.273438 5685.899414 0.208429 0.198837 0.957612
4695.024414 5246.909668 5469.416016 0.208429 0.198837 0.957612
4301.173340 5021.747070 5601.892090 0.208429 0.198837 0.957612
4301.173340 5021.747070 5601.892090 -0.093395 0.072384 0.992994
4107.765137 5384.655273 5557.247070 -0.093395 0.072384 0.992994
4447.155273 4379.043457 5662.472168 -0.093395 0.072384 0.992994
4510.942383 4397.273438 5685.899414 0.335422 0.241174 0.910674
4714.779785 4135.082031 5680.257812 0.335422 0.241174 0.910674
4950.124512 4523.647949 5490.670898 0.335422 0.241174 0.910674
4736.410156 3378.680664 5535.024902 -0.672085 -0.735564 0.085132
5283.310059 2894.138672 5666.020508 -0.672085 -0.735564 0.085132
4681.750000 3457.831299 5787.387695 -0.672085 -0.735564 0.085132
5003.871094 3909.428955 5556.057617 0.587726 0.351999 0.728475
4714.779785 4135.082031 5680.257812 0.587726 0.351999 0.728475
4956.317383 3698.348633 5696.417480 0.587726 0.351999 0.728475
4510.942383 4397.273438 5685.899414 -0.347142 0.009543 0.937764
4301.173340 5021.747070 5601.892090 -0.347142 0.009543 0.937764
4447.155273 4379.043457 5662.472168 -0.347142 0.009543 0.937764
4681.750000 3457.831299 5787.387695 -0.872012 -0.488176 -0.035762
4521.101074 3766.972412 5484.619629 -0.872012 -0.488176 -0.035762
4736.410156 3378.680664 5535.024902 -0.872012 -0.488176 -0.035762
4714.779785 4135.082031 5680.257812 0.685116 0.355379 -0.635864
4859.791016 3945.949219 5730.796387 0.685116 0.355379 -0.635864
4956.317383 3698.348633 5696.417480 0.685116 0.355379 -0.635864
4493.195801 4449.458984 5732.286133 0.802917 0.584927 -0.114824
4859.791016 3945.949219 5730.796387 0.802917 0.584927 -0.114824
4714.779785 4135.082031 5680.257812 0.802917 0.584927 -0.114824
4510.942383 4397.273438 5685.899414 0.730167 0.575581 -0.368189
4493.195801 4449.458984 5732.286133 0.730167 0.575581 -0.368189
4714.779785 4135.082031 5680.257812 0.730167 0.575581 -0.368189
4459.472656 4158.379883 5706.009277 -0.722154 -0.027815 0.691173
4456.508301 4372.070801 5711.511719 -0.722154 -0.027815 0.691173
4410.996582 4214.507812 5657.619141 -0.722154 -0.027815 0.691173
4456.508301 4372.070801 5711.511719 -0.541953 0.447829 -0.711152
4493.195801 4449.458984 5732.286133 -0.541953 0.447829 -0.711152
4510.942383 4397.273438 5685.899414 -0.541953 0.447829 -0.711152
5487.605469 2876.239990 5681.170898 0.722905 -0.202812 0.660512
5457.599121 2814.609619 5695.087891 0.722905 -0.202812 0.660512
5522.021484 2804.656494 5621.523926 0.722905 -0.202812 0.660512
4681.750000 3457.831299 5787.387695 -0.893027 -0.449767 0.014606
4485.514648 3850.477051 5880.197266 -0.893027 -0.449767 0.014606
4521.101074 3766.972412 5484.619629 -0.893027 -0.449767 0.014606
4205.444336 4315.376465 5929.824707 -0.732517 -0.381076 -0.564092
4459.472656 4158.379883 5706.009277 -0.732517 -0.381076 -0.564092
4485.514648 3850.477051 5880.197266 -0.732517 -0.381076 -0.564092
4859.791016 3945.949219 5730.796387 0.278952 0.205874 -0.937977
4493.195801 4449.458984 5732.286133 0.278952 0.205874 -0.937977
4940.207031 4602.532227 5898.823730 0.278952 0.205874 -0.937977
4456.508301 4372.070801 5711.511719 0.193732 0.167642 -0.966625
4104.728516 5348.946289 5810.427246 0.193732 0.167642 -0.966625
4493.195801 4449.458984 5732.286133 0.193732 0.167642 -0.966625
4521.101074 3766.972412 5484.619629 -0.990733 -0.119898 -0.063817
4485.514648 3850.477051 5880.197266 -0.990733 -0.119898 -0.063817
4459.472656 4158.379883 5706.009277 -0.990733 -0.119898 -0.063817
3961.928955 5142.289062 5914.790039 -0.718475 -0.223557 -0.658647
4459.472656 4158.379883 5706.009277 -0.718475 -0.223557 -0.658647
4205.444336 4315.376465 5929.824707 -0.718475 -0.223557 -0.658647
4459.472656 4158.379883 5706.009277 -0.354419 0.019156 -0.934890
3961.928955 5142.289062 5914.790039 -0.354419 0.019156 -0.934890
4456.508301 4372.070801 5711.511719 -0.354419 0.019156 -0.934890
4104.728516 5348.946289 5810.427246 -0.497522 -0.091819 -0.862578
4456.508301 4372.070801 5711.511719 -0.497522 -0.091819 -0.862578
3961.928955 5142.289062 5914.790039 -0.497522 -0.091819 -0.862578
5690.813965 2627.141602 5950.607422 0.499587 -0.414949 -0.760415
5457.599121 2814.609619 5695.087891 0.499587 -0.414949 -0.760415
5487.605469 2876.239990 5681.170898 0.499587 -0.414949 -0.760415
4493.195801 4449.458984 5732.286133 0.181755 0.162744 -0.969783
4104.728516 5348.946289 5810.427246 0.181755 0.162744 -0.969783
4797.642090 5184.799316 5912.745605 0.181755 0.162744 -0.969783
5690.813965 2627.141602 5950.607422 0.719215 -0.147635 -0.678921
5487.605469 2876.239990 5681.170898 0.719215 -0.147635 -0.678921
5808.855469 2661.071777 6068.276367 0.719215 -0.147635 -0.678921
5283.310059 2894.138672 5666.020508 -0.351922 -0.883860 -0.308127
5457.599121 2814.609619 5695.087891 -0.351922 -0.883860 -0.308127
5533.963867 2587.020264 6260.707520 -0.351922 -0.883860 -0.308127
4940.207031 4602.532227 5898.823730 0.217451 0.216910 -0.951665
4956.317383 3698.348633 5696.417480 0.217451 0.216910 -0.951665
4859.791016 3945.949219 5730.796387 0.217451 0.216910 -0.951665
4940.207031 4602.532227 5898.823730 0.317055 0.100179 -0.943101
4493.195801 4449.458984 5732.286133 0.317055 0.100179 -0.943101
4797.642090 5184.799316 5912.745605 0.317055 0.100179 -0.943101
4797.642090 5184.799316 5912.745605 0.332597 0.103846 -0.937334
5073.176270 4884.452637 5977.239258 0.332597 0.103846 -0.937334
4940.207031 4602.532227 5898.823730 0.332597 0.103846 -0.937334
4104.728516 5348.946289 5810.427246 -0.732442 0.173667 -0.658307
3961.928955 5142.289062 5914.790039 -0.732442 0.173667 -0.658307
3893.697754 5343.830566 6043.873535 -0.732442 0.173667 -0.658307
4492.549805 5392.692383 5969.168457 0.251772 0.579794 -0.774887
4797.642090 5184.799316 5912.745605 0.251772 0.579794 -0.774887
4104.728516 5348.946289 5810.427246 0.251772 0.579794 -0.774887
4104.728516 5348.946289 5810.427246 -0.148901 0.763963 -0.627845
4011.809082 5477.643555 5989.063477 -0.148901 0.763963 -0.627845
4222.963379 5507.058105 5974.777344 -0.148901 0.763963 -0.627845
5283.310059 2894.138672 5666.020508 -0.689566 -0.685732 -0.232958
4684.457031 3337.413818 6133.833984 -0.689566 -0.685732 -0.232958
4681.750000 3457.831299 5787.387695 -0.689566 -0.685732 -0.232958
4681.750000 3457.831299 5787.387695 -0.844398 -0.478806 0.240283
4664.099121 3766.630615 6340.696289 -0.844398 -0.478806 0.240283
4485.514648 3850.477051 5880.197266 -0.844398 -0.478806 0.240283
4797.642090 5184.799316 5912.745605 0.464468 0.790160 -0.399896
4492.549805 5392.692383 5969.168457 0.464468 0.790160 -0.399896
4803.632812 5233.837891 6016.599609 0.464468 0.790160 -0.399896
4104.728516 5348.946289 5810.427246 -0.696034 0.359869 -0.621314
3893.697754 5343.830566 6043.873535 -0.696034 0.359869 -0.621314
4011.809082 5477.643555 5989.063477 -0.696034 0.359869 -0.621314
4492.549805 5392.692383 5969.168457 0.241587 0.606621 -0.757395
4104.728516 5348.946289 5810.427246 0.241587 0.606621 -0.757395
4222.963379 5507.058105 5974.777344 0.241587 0.606621 -0.757395
5808.855469 2661.071777 6068.276367 0.809201 0.307830 -0.500434
5487.605469 2876.239990 5681.170898 0.809201 0.307830 -0.500434
5709.812988 3000.189453 6116.725098 0.809201 0.307830 -0.500434
4684.457031 3337.413818 6133.833984 -0.680620 -0.703456 -0.204712
5283.310059 2894.138672 5666.020508 -0.680620 -0.703456 -0.204712
5132.867676 2869.833984 6249.725586 -0.680620 -0.703456 -0.204712
5487.605469 2876.239990 5681.170898 0.674879 0.508293 -0.534954
5200.358887 3268.600342 5691.596680 0.674879 0.508293 -0.534954
5320.281250 3526.949707 6088.360352 0.674879 0.508293 -0.534954
4956.317383 3698.348633 5696.417480 0.747553 0.430190 -0.506064
5320.281250 3526.949707 6088.360352 0.747553 0.430190 -0.506064
5200.358887 3268.600342 5691.596680 0.747553 0.430190 -0.506064
4940.207031 4602.532227 5898.823730 0.727097 0.162284 -0.667078
5119.214844 4440.182129 6054.441406 0.727097 0.162284 -0.667078
4956.317383 3698.348633 5696.417480 0.727097 0.162284 -0.667078
5533.963867 2587.020264 6260.707520 -0.373572 -0.876921 -0.302412
5457.599121 2814.609619 5695.087891 -0.373572 -0.876921 -0.302412
5690.813965 2627.141602 5950.607422 -0.373572 -0.876921 -0.302412
5487.605469 2876.239990 5681.170898 0.707903 0.496430 -0.502425
5320.281250 3526.949707 6088.360352 0.707903 0.496430 -0.502425
5709.812988 3000.189453 6116.725098 0.707903 0.496430 -0.502425
5073.176270 4884.452637 5977.239258 0.730531 0.600268 -0.325579
4797.642090 5184.799316 5912.745605 0.730531 0.600268 -0.325579
4803.632812 5233.837891 6016.599609 0.730531 0.600268 -0.325579
5119.214844 4440.182129 6054.441406 0.878537 0.036929 -0.476244
5345.231445 4198.515625 6452.639160 0.878537 0.036929 -0.476244
4956.317383 3698.348633 5696.417480 0.878537 0.036929 -0.476244
5073.176270 4884.452637 5977.239258 0.616125 -0.072444 -0.784310
5119.214844 4440.182129 6054.441406 0.616125 -0.072444 -0.784310
4940.207031 4602.532227 5898.823730 0.616125 -0.072444 -0.784310
5425.555176 4550.420410 6188.926270 0.432623 -0.110653 -0.894759
5119.214844 4440.182129 6054.441406 0.432623 -0.110653 -0.894759
5073.176270 4884.452637 5977.239258 0.432623 -0.110653 -0.894759
5073.176270 4884.452637 5977.239258 0.790991 0.611691 -0.012938
4803.632812 5233.837891 6016.599609 0.790991 0.611691 -0.012938
4919.250000 5087.635254 6172.840332 0.790991 0.611691 -0.012938
5132.867676 2869.833984 6249.725586 -0.563689 -0.806389 -0.178861
5283.310059 2894.138672 5666.020508 -0.563689 -0.806389 -0.178861
5533.963867 2587.020264 6260.707520 -0.563689 -0.806389 -0.178861
5748.187988 2536.255859 6277.641113 0.536440 -0.784136 -0.312031
5690.813965 2627.141602 5950.607422 0.536440 -0.784136 -0.312031
5808.855469 2661.071777 6068.276367 0.536440 -0.784136 -0.312031
4681.750000 3457.831299 5787.387695 -0.999012 -0.043807 -0.007420
4684.457031 3337.413818 6133.833984 -0.999012 -0.043807 -0.007420
4664.099121 3766.630615 6340.696289 -0.999012 -0.043807 -0.007420
4222.963379 5507.058105 5974.777344 0.324305 0.735273 0.595148
4505.917969 5233.099121 6159.052734 0.324305 0.735273 0.595148
4492.549805 5392.692383 5969.168457 0.324305 0.735273 0.595148
5345.231445 4198.515625 6452.639160 0.761287 0.287085 -0.581398
5320.281250 3526.949707 6088.360352 0.761287 0.287085 -0.581398
4956.317383 3698.348633 5696.417480 0.761287 0.287085 -0.581398
4485.514648 3850.477051 5880.197266 -0.855196 -0.517752 0.023925
4245.957031 4268.935059 6372.924805 -0.855196 -0.517752 0.023925
4205.444336 4315.376465 5929.824707 -0.855196 -0.517752 0.023925
3961.928955 5142.289062 5914.790039 -0.837288 -0.255361 -0.483466
4205.444336 4315.376465 5929.824707 -0.837288 -0.255361 -0.483466
3917.070312 4804.981934 6170.639648 -0.837288 -0.255361 -0.483466
4505.917969 5233.099121 6159.052734 -0.019094 0.544372 0.838627
4222.963379 5507.058105 5974.777344 -0.019094 0.544372 0.838627
4011.809082 5477.643555 5989.063477 -0.019094 0.544372 0.838627
5690.813965 2627.141602 5950.607422 -0.207410 -0.951315 -0.227992
5748.187988 2536.255859 6277.641113 -0.207410 -0.951315 -0.227992
5533.963867 2587.020264 6260.707520 -0.207410 -0.951315 -0.227992
4245.957031 4268.935059 6372.924805 -0.751081 -0.636488 0.175384
4485.514648 3850.477051 5880.197266 -0.751081 -0.636488 0.175384
4664.099121 3766.630615 6340.696289 -0.751081 -0.636488 0.175384
5073.176270 4884.452637 5977.239258 0.656900 0.718297 -0.229197
4919.250000 5087.635254 6172.840332 0.656900 0.718297 -0.229197
5462.968262 4619.021484 6262.566406 0.656900 0.718297 -0.229197
3961.928955 5142.289062 5914.790039 -0.941281 -0.115466 -0.317265
3917.070312 4804.981934 6170.639648 -0.941281 -0.115466 -0.317265
3893.697754 5343.830566 6043.873535 -0.941281 -0.115466 -0.317265
4492.549805 5392.692383 5969.168457 0.331293 0.798735 0.502263
4919.250000 5087.635254 6172.840332 0.331293 0.798735 0.502263
4803.632812 5233.837891 6016.599609 0.331293 0.798735 0.502263
5558.499023 3351.542236 6447.228027 0.785961 0.568065 -0.244065
5709.812988 3000.189453 6116.725098 0.785961 0.568065 -0.244065
5320.281250 3526.949707 6088.360352 0.785961 0.568065 -0.244065
5425.555176 4550.420410 6188.926270 0.691533 0.318708 -0.648234
5073.176270 4884.452637 5977.239258 0.691533 0.318708 -0.648234
5462.968262 4619.021484 6262.566406 0.691533 0.318708 -0.648234
4052.598877 4782.646484 6374.295898 -0.133736 0.474428 0.870076
4011.809082 5477.643555 5989.063477 -0.133736 0.474428 0.870076
3893.697754 5343.830566 6043.873535 -0.133736 0.474428 0.870076
4505.917969 5233.099121 6159.052734 -0.062774 0.481022 0.874458
4011.809082 5477.643555 5989.063477 -0.062774 0.481022 0.874458
4052.598877 4782.646484 6374.295898 -0.062774 0.481022 0.874458
4205.444336 4315.376465 5929.824707 -0.856151 -0.516159 0.024179
4245.957031 4268.935059 6372.924805 -0.856151 -0.516159 0.024179
3917.070312 4804.981934 6170.639648 -0.856151 -0.516159 0.024179
5808.855469 2661.071777 6068.276367 0.929615 0.301733 -0.211597
5709.812988 3000.189453 6116.725098 0.929615 0.301733 -0.211597
5772.676270 2994.150635 6384.293457 0.929615 0.301733 -0.211597
5119.214844 4440.182129 6054.441406 0.492981 -0.591007 -0.638498
5425.555176 4550.420410 6188.926270 0.492981 -0.591007 -0.638498
5345.231445 4198.515625 6452.639160 0.492981 -0.591007 -0.638498
5820.385742 2672.475830 6302.257324 0.884936 -0.465241 -0.020933
5748.187988 2536.255859 6277.641113 0.884936 -0.465241 -0.020933
5808.855469 2661.071777 6068.276367 0.884936 -0.465241 -0.020933
5808.855469 2661.071777 6068.276367 0.985419 0.160533 -0.056384
5772.676270 2994.150635 6384.293457 0.985419 0.160533 -0.056384
5820.385742 2672.475830 6302.257324 0.985419 0.160533 -0.056384
5709.812988 3000.189453 6116.725098 0.828791 0.528864 -0.182782
5558.499023 3351.542236 6447.228027 0.828791 0.528864 -0.182782
5772.676270 2994.150635 6384.293457 0.828791 0.528864 -0.182782
3893.697754 5343.830566 6043.873535 -0.823812 0.095709 0.558725
3917.070312 4804.981934 6170.639648 -0.823812 0.095709 0.558725
4052.598877 4782.646484 6374.295898 -0.823812 0.095709 0.558725
5132.867676 2869.833984 6249.725586 -0.662936 -0.496975 0.559938
4731.777832 3562.502686 6389.637695 -0.662936 -0.496975 0.559938
4684.457031 3337.413818 6133.833984 -0.662936 -0.496975 0.559938
5558.499023 3351.542236 6447.228027 0.848137 0.363657 -0.385248
5320.281250 3526.949707 6088.360352 0.848137 0.363657 -0.385248
5389.974121 3753.479980 6455.625977 0.848137 0.363657 -0.385248
4684.457031 3337.413818 6133.833984 -0.908630 -0.215494 0.357705
4731.777832 3562.502686 6389.637695 -0.908630 -0.215494 0.357705
4664.099121 3766.630615 6340.696289 -0.908630 -0.215494 0.357705
4919.250000 5087.635254 6172.840332 0.647310 0.760596 0.049831
5377.580566 4685.572266 6355.963379 0.647310 0.760596 0.049831
5462.968262 4619.021484 6262.566406 0.647310 0.760596 0.049831
4245.957031 4268.935059 6372.924805 -0.867201 -0.470200 0.163935
4076.136719 4584.198242 6378.832520 -0.867201 -0.470200 0.163935
3917.070312 4804.981934 6170.639648 -0.867201 -0.470200 0.163935
4076.136719 4584.198242 6378.832520 -0.833738 -0.086422 0.545355
4052.598877 4782.646484 6374.295898 -0.833738 -0.086422 0.545355
3917.070312 4804.981934 6170.639648 -0.833738 -0.086422 0.545355
5345.231445 4198.515625 6452.639160 0.965546 0.095449 -0.242096
5389.974121 3753.479980 6455.625977 0.965546 0.095449 -0.242096
5320.281250 3526.949707 6088.360352 0.965546 0.095449 -0.242096
5462.968262 4619.021484 6262.566406 0.928927 -0.333136 -0.161604
5345.231445 4198.515625 6452.639160 0.928927 -0.333136 -0.161604
5425.555176 4550.420410 6188.926270 0.928927 -0.333136 -0.161604
4919.250000 5087.635254 6172.840332 0.292488 0.779215 0.554324
4492.549805 5392.692383 5969.168457 0.292488 0.779215 0.554324
4738.448730 4910.615234 6517.077148 0.292488 0.779215 0.554324
4052.598877 4782.646484 6374.295898 -0.269135 0.622147 0.735186
4738.448730 4910.615234 6517.077148 -0.269135 0.622147 0.735186
4505.917969 5233.099121 6159.052734 -0.269135 0.622147 0.735186
5748.187988 2536.255859 6277.641113 -0.175814 -0.449845 0.875631
5154.469238 3366.763428 6585.093750 -0.175814 -0.449845 0.875631
5533.963867 2587.020264 6260.707520 -0.175814 -0.449845 0.875631
4492.549805 5392.692383 5969.168457 0.079689 0.765847 0.638066
4505.917969 5233.099121 6159.052734 0.079689 0.765847 0.638066
4738.448730 4910.615234 6517.077148 0.079689 0.765847 0.638066
5820.385742 2672.475830 6302.257324 0.314012 -0.327469 0.891157
5658.544922 3026.051514 6489.210938 0.314012 -0.327469 0.891157
5748.187988 2536.255859 6277.641113 0.314012 -0.327469 0.891157
5132.867676 2869.833984 6249.725586 -0.378328 -0.506470 0.774827
5533.963867 2587.020264 6260.707520 -0.378328 -0.506470 0.774827
5154.469238 3366.763428 6585.093750 -0.378328 -0.506470 0.774827
4731.777832 3562.502686 6389.637695 -0.538625 -0.455112 0.709053
5132.867676 2869.833984 6249.725586 -0.538625 -0.455112 0.709053
5154.469238 3366.763428 6585.093750 -0.538625 -0.455112 0.709053
5377.580566 4685.572266 6355.963379 0.800480 0.294288 0.522137
5371.963379 4394.368652 6528.703613 0.800480 0.294288 0.522137
5462.968262 4619.021484 6262.566406 0.800480 0.294288 0.522137
5820.385742 2672.475830 6302.257324 0.659762 -0.092342 0.745780
5772.676270 2994.150635 6384.293457 0.659762 -0.092342 0.745780
5658.544922 3026.051514 6489.210938 0.659762 -0.092342 0.745780
4337.712402 4503.199219 6519.848633 -0.522715 -0.296544 0.799269
4076.136719 4584.198242 6378.832520 -0.522715 -0.296544 0.799269
4245.957031 4268.935059 6372.924805 -0.522715 -0.296544 0.799269
4052.598877 4782.646484 6374.295898 -0.269236 0.641695 0.718150
4456.406738 4772.412598 6534.828613 -0.269236 0.641695 0.718150
4738.448730 4910.615234 6517.077148 -0.269236 0.641695 0.718150
4245.957031 4268.935059 6372.924805 -0.518439 -0.477105 0.709642
4664.099121 3766.630615 6340.696289 -0.518439 -0.477105 0.709642
4956.795898 3766.668213 6554.555176 -0.518439 -0.477105 0.709642
4337.712402 4503.199219 6519.848633 -0.483133 -0.037307 0.874752
4052.598877 4782.646484 6374.295898 -0.483133 -0.037307 0.874752
4076.136719 4584.198242 6378.832520 -0.483133 -0.037307 0.874752
4738.448730 4910.615234 6517.077148 0.396839 0.714699 0.575955
5377.580566 4685.572266 6355.963379 0.396839 0.714699 0.575955
4919.250000 5087.635254 6172.840332 0.396839 0.714699 0.575955
4731.777832 3562.502686 6389.637695 -0.589952 -0.002010 0.807435
4956.795898 3766.668213 6554.555176 -0.589952 -0.002010 0.807435
4664.099121 3766.630615 6340.696289 -0.589952 -0.002010 0.807435
4337.712402 4503.199219 6519.848633 -0.451357 -0.340517 0.824818
4245.957031 4268.935059 6372.924805 -0.451357 -0.340517 0.824818
4956.795898 3766.668213 6554.555176 -0.451357 -0.340517 0.824818
5345.231445 4198.515625 6452.639160 0.966607 -0.196034 0.165052
5462.968262 4619.021484 6262.566406 0.966607 -0.196034 0.165052
5371.963379 4394.368652 6528.703613 0.966607 -0.196034 0.165052
5748.187988 2536.255859 6277.641113 -0.180938 -0.452595 0.873166
5443.582031 3272.585693 6596.187988 -0.180938 -0.452595 0.873166
5154.469238 3366.763428 6585.093750 -0.180938 -0.452595 0.873166
5658.544922 3026.051514 6489.210938 0.002624 -0.396136 0.918188
5443.582031 3272.585693 6596.187988 0.002624 -0.396136 0.918188
5748.187988 2536.255859 6277.641113 0.002624 -0.396136 0.918188
4456.406738 4772.412598 6534.828613 -0.364813 0.109394 0.924632
4052.598877 4782.646484 6374.295898 -0.364813 0.109394 0.924632
4337.712402 4503.199219 6519.848633 -0.364813 0.109394 0.924632
5772.676270 2994.150635 6384.293457 0.689883 0.297192 0.660105
5558.499023 3351.542236 6447.228027 0.689883 0.297192 0.660105
5658.544922 3026.051514 6489.210938 0.689883 0.297192 0.660105
5558.499023 3351.542236 6447.228027 0.922219 0.386332 0.016133
5389.974121 3753.479980 6455.625977 0.922219 0.386332 0.016133
5335.890625 3876.303467 6606.012207 0.922219 0.386332 0.016133
5335.890625 3876.303467 6606.012207 0.959296 0.098222 0.264772
5389.974121 3753.479980 6455.625977 0.959296 0.098222 0.264772
5345.231445 4198.515625 6452.639160 0.959296 0.098222 0.264772
5558.499023 3351.542236 6447.228027 0.916522 0.313716 0.248133
5335.890625 3876.303467 6606.012207 0.916522 0.313716 0.248133
5658.544922 3026.051514 6489.210938 0.916522 0.313716 0.248133
4956.795898 3766.668213 6554.555176 -0.477413 -0.170156 0.862046
4731.777832 3562.502686 6389.637695 -0.477413 -0.170156 0.862046
5154.469238 3366.763428 6585.093750 -0.477413 -0.170156 0.862046
5371.963379 4394.368652 6528.703613 0.988576 -0.087181 -0.122947
5335.890625 3876.303467 6606.012207 0.988576 -0.087181 -0.122947
5345.231445 4198.515625 6452.639160 0.988576 -0.087181 -0.122947
5371.963379 4394.368652 6528.703613 0.433069 0.453667 0.778869
5377.580566 4685.572266 6355.963379 0.433069 0.453667 0.778869
5085.047363 4521.636719 6614.105957 0.433069 0.453667 0.778869
5085.047363 4521.636719 6614.105957 0.377397 0.526339 0.761931
5377.580566 4685.572266 6355.963379 0.377397 0.526339 0.761931
4738.448730 4910.615234 6517.077148 0.377397 0.526339 0.761931
4337.712402 4503.199219 6519.848633 -0.243557 -0.159640 0.956658
4956.795898 3766.668213 6554.555176 -0.243557 -0.159640 0.956658
5150.300293 3996.081787 6642.102539 -0.243557 -0.159640 0.956658
5658.544922 3026.051514 6489.210938 0.514306 0.077844 0.854067
5335.890625 3876.303467 6606.012207 0.514306 0.077844 0.854067
5443.582031 3272.585693 6596.187988 0.514306 0.077844 0.854067
5371.963379 4394.368652 6528.703613 0.330550 0.116740 0.936541
5085.047363 4521.636719 6614.105957 0.330550 0.116740 0.936541
5335.890625 3876.303467 6606.012207 0.330550 0.116740 0.936541
5150.300293 3996.081787 6642.102539 -0.125949 0.037171 0.991340
5085.047363 4521.636719 6614.105957 -0.125949 0.037171 0.991340
4337.712402 4503.199219 6519.848633 -0.125949 0.037171 0.991340
4456.406738 4772.412598 6534.828613 -0.125132 -0.000036 0.992140
4337.712402 4503.199219 6519.848633 -0.125132 -0.000036 0.992140
5085.047363 4521.636719 6614.105957 -0.125132 -0.000036 0.992140
4738.448730 4910.615234 6517.077148 -0.040335 0.207849 0.977329
4456.406738 4772.412598 6534.828613 -0.040335 0.207849 0.977329
5085.047363 4521.636719 6614.105957 -0.040335 0.207849 0.977329
5150.300293 3996.081787 6642.102539 -0.067594 -0.090457 0.993604
5154.469238 3366.763428 6585.093750 -0.067594 -0.090457 0.993604
5443.582031 3272.585693 6596.187988 -0.067594 -0.090457 0.993604
4956.795898 3766.668213 6554.555176 -0.322647 -0.087514 0.942465
5154.469238 3366.763428 6585.093750 -0.322647 -0.087514 0.942465
5150.300293 3996.081787 6642.102539 -0.322647 -0.087514 0.942465
5335.890625 3876.303467 6606.012207 0.240618 0.081398 0.967201
5085.047363 4521.636719 6614.105957 0.240618 0.081398 0.967201
5150.300293 3996.081787 6642.102539 0.240618 0.081398 0.967201
5443.582031 3272.585693 6596.187988 0.203500 0.020371 0.978863
5335.890625 3876.303467 6606.012207 0.203500 0.020371 0.978863
5150.300293 3996.081787 6642.102539 0.203500 0.020371 0.978863
3 0 1 2
3 3 4 5
3 6 7 8
3 9 10 11
3 12 13 14
3 15 16 17
3 18 19 20
3 21 22 23
3 24 25 26
3 27 28 29
3 30 31 32
3 33 34 35
3 36 37 38
3 39 40 41
3 42 43 44
3 45 46 47
3 48 49 50
3 51 52 53
3 54 55 56
3 57 58 59
3 60 61 62
3 63 64 65
3 66 67 68
3 69 70 71
3 72 73 74
3 75 76 77
3 78 79 80
3 81 82 83
3 84 85 86
3 87 88 89
3 90 91 92
3 93 94 95
3 96 97 98
3 99 100 101
3 102 103 104
3 105 106 107
3 108 109 110
3 111 112 113
3 114 115 116
3 117 118 119
3 120 121 122
3 123 124 125
3 126 127 128
3 129 130 131
3 132 133 134
3 135 136 137
3 138 139 140
3 141 142 143
3 144 145 146
3 147 148 149
3 150 151 152
3 153 154 155
3 156 157 158
3 159 160 161
3 162 163 164
3 165 166 167
3 168 169 170
3 171 172 173
3 174 175 176
3 177 178 179
3 180 181 182
3 183 184 185
3 186 187 188
3 189 190 191
3 192 193 194
3 195 196 197
3 198 199 200
3 201 202 203
3 204 205 206
3 207 208 209
3 210 211 212
3 213 214 215
3 216 217 218
3 219 220 221
3 222 223 224
3 225 226 227
3 228 229 230
3 231 232 233
3 234 235 236
3 237 238 239
3 240 241 242
3 243 244 245
3 246 247 248
3 249 250 251
3 252 253 254
3 255 256 257
3 258 259 260
3 261 262 263
3 264 265 266
3 267 268 269
3 270 271 272
3 273 274 275
3 276 277 278
3 279 280 281
3 282 283 284
3 285 286 287
3 288 289 290
3 291 292 293
3 294 295 296
3 297 298 299
3 300 301 302
3 303 304 305
3 306 307 308
3 309 310 311
3 312 313 314
3 315 316 317
3 318 319 320
3 321 322 323
3 324 325 326
3 327 328 329
3 330 331 332
3 333 334 335
3 336 337 338
3 339 340 341
3 342 343 344
3 345 346 347
3 348 349 350
3 351 352 353
3 354 355 356
3 357 358 359
3 360 361 362
3 363 364 365
3 366 367 368
3 369 370 371
3 372 373 374
3 375 376 377
3 378 379 380
3 381 382 383
3 384 385 386
3 387 388 389
3 390 391 392
3 393 394 395
3 396 397 398
3 399 400 401
3 402 403 404
3 405 406 407
3 408 409 410
3 411 412 413
3 414 415 416
3 417 418 419
3 420 421 422
3 423 424 425
3 426 427 428
3 429 430 431
3 432 433 434
3 435 436 437
3 438 439 440
3 441 442 443
3 444 445 446
3 447 448 449
3 450 451 452
3 453 454 455
3 456 457 458
3 459 460 461
3 462 463 464
3 465 466 467
3 468 469 470
3 471 472 473
3 474 475 476
3 477 478 479
3 480 481 482
3 483 484 485
3 486 487 488
3 489 490 491
3 492 493 494
3 495 496 497
3 498 499 500
3 501 502 503
3 504 505 506
3 507 508 509
3 510 511 512
3 513 514 515
3 516 517 518
3 519 520 521
3 522 523 524
3 525 526 527
3 528 529 530
3 531 532 533
3 534 535 536
3 537 538 539
3 540 541 542
3 543 544 545
3 546 547 548
3 549 550 551
3 552 553 554
3 555 556 557
3 558 559 560
3 561 562 563
3 564 565 566
3 567 568 569
3 570 571 572
3 573 574 575
3 576 577 578
3 579 580 581
3 582 583 584
3 585 586 587
3 588 589 590
3 591 592 593
3 594 595 596
3 597 598 599
3 600 601 602
3 603 604 605
3 606 607 608
3 609 610 611
3 612 613 614
3 615 616 617
3 618 619 620
3 621 622 623
3 624 625 626
3 627 628 629
