ply
format ascii 1.0
comment Created by Blender 2.80 (sub 75) - www.blender.org, source file: 'downsample_ccf.blend'
element vertex 12
property float x
property float y
property float z
property float nx
property float ny
property float nz
element face 4
property list uchar uint vertex_indices
end_header
8192.192383 4350.426270 3269.831055 -0.665190 0.702722 -0.252397
8260.333008 4461.483398 3399.451904 -0.665190 0.702722 -0.252397
8319.711914 4457.597168 3232.139160 -0.665190 0.702722 -0.252397
8319.711914 4457.597168 3232.139160 0.665190 -0.702722 0.252397
8260.333008 4461.483398 3399.451904 0.665190 -0.702722 0.252397
8192.192383 4350.426270 3269.831055 0.665190 -0.702722 0.252397
8178.537109 4349.597168 8097.859863 0.600659 -0.630961 -0.491016
8264.284180 4499.961426 8009.534180 0.600659 -0.630961 -0.491016
8310.998047 4432.169922 8153.791992 0.600659 -0.630961 -0.491016
8178.537109 4349.597168 8097.859863 -0.600659 0.630961 0.491016
8310.998047 4432.169922 8153.791992 -0.600659 0.630961 0.491016
8264.284180 4499.961426 8009.534180 -0.600659 0.630961 0.491016
3 0 1 2
3 3 4 5
3 6 7 8
3 9 10 11
