ply
format ascii 1.0
comment Created by Blender 2.80 (sub 75) - www.blender.org, source file: 'downsample_ccf.blend'
element vertex 240
property float x
property float y
property float z
property float nx
property float ny
property float nz
element face 80
property list uchar uint vertex_indices
end_header
8375.246094 3709.200439 3096.617432 0.083539 -0.223100 -0.971209
8816.452148 3847.018066 3102.909668 0.083539 -0.223100 -0.971209
8910.375977 3364.425537 3221.846436 0.083539 -0.223100 -0.971209
8816.452148 3847.018066 3102.909668 -0.089615 0.329798 -0.939789
8375.246094 3709.200439 3096.617432 -0.089615 0.329798 -0.939789
8244.842773 4046.941650 3227.574951 -0.089615 0.329798 -0.939789
8910.375977 3364.425537 3221.846436 -0.051421 -0.410491 -0.910414
8369.332031 3470.601562 3204.531982 -0.051421 -0.410491 -0.910414
8375.246094 3709.200439 3096.617432 -0.051421 -0.410491 -0.910414
9021.946289 3754.263184 3201.676758 0.370903 -0.153538 -0.915891
8910.375977 3364.425537 3221.846436 0.370903 -0.153538 -0.915891
8816.452148 3847.018066 3102.909668 0.370903 -0.153538 -0.915891
9021.946289 3754.263184 3201.676758 0.528243 0.343420 -0.776545
8816.452148 3847.018066 3102.909668 0.528243 0.343420 -0.776545
8848.309570 4018.728760 3200.518066 0.528243 0.343420 -0.776545
8244.842773 4046.941650 3227.574951 -0.015713 0.496324 -0.867995
8848.309570 4018.728760 3200.518066 -0.015713 0.496324 -0.867995
8816.452148 3847.018066 3102.909668 -0.015713 0.496324 -0.867995
7872.863770 3671.947266 3502.741943 -0.580200 -0.323658 -0.747405
8375.246094 3709.200439 3096.617432 -0.580200 -0.323658 -0.747405
8369.332031 3470.601562 3204.531982 -0.580200 -0.323658 -0.747405
8244.842773 4046.941650 3227.574951 -0.630199 0.056926 -0.774344
8375.246094 3709.200439 3096.617432 -0.630199 0.056926 -0.774344
7872.863770 3671.947266 3502.741943 -0.630199 0.056926 -0.774344
8910.375977 3364.425537 3221.846436 0.927221 -0.278333 -0.250584
9021.946289 3754.263184 3201.676758 0.927221 -0.278333 -0.250584
8934.758789 3348.399170 3329.869629 0.927221 -0.278333 -0.250584
8910.375977 3364.425537 3221.846436 -0.134707 -0.785031 -0.604632
8391.625000 3354.400879 3350.435791 -0.134707 -0.785031 -0.604632
8369.332031 3470.601562 3204.531982 -0.134707 -0.785031 -0.604632
8848.309570 4018.728760 3200.518066 0.798975 0.525851 0.291753
8850.145508 3924.569092 3365.202148 0.798975 0.525851 0.291753
9021.946289 3754.263184 3201.676758 0.798975 0.525851 0.291753
8391.625000 3354.400879 3350.435791 -0.016354 -0.989570 -0.143122
8910.375977 3364.425537 3221.846436 -0.016354 -0.989570 -0.143122
8934.758789 3348.399170 3329.869629 -0.016354 -0.989570 -0.143122
8369.332031 3470.601562 3204.531982 -0.464978 -0.725784 -0.506984
8391.625000 3354.400879 3350.435791 -0.464978 -0.725784 -0.506984
7919.167969 3467.097168 3622.415283 -0.464978 -0.725784 -0.506984
8369.332031 3470.601562 3204.531982 -0.585715 -0.503468 -0.635183
7919.167969 3467.097168 3622.415283 -0.585715 -0.503468 -0.635183
7872.863770 3671.947266 3502.741943 -0.585715 -0.503468 -0.635183
8877.395508 3639.959961 3386.550049 0.777986 0.031075 0.627513
8934.758789 3348.399170 3329.869629 0.777986 0.031075 0.627513
9021.946289 3754.263184 3201.676758 0.777986 0.031075 0.627513
8877.395508 3639.959961 3386.550049 0.744504 0.120536 0.656646
9021.946289 3754.263184 3201.676758 0.744504 0.120536 0.656646
8850.145508 3924.569092 3365.202148 0.744504 0.120536 0.656646
8934.758789 3348.399170 3329.869629 0.035161 -0.184043 0.982289
8877.395508 3639.959961 3386.550049 0.035161 -0.184043 0.982289
8391.625000 3354.400879 3350.435791 0.035161 -0.184043 0.982289
7872.863770 3671.947266 3502.741943 -0.684888 0.157316 -0.711464
7946.957031 4116.447266 3529.702393 -0.684888 0.157316 -0.711464
8244.842773 4046.941650 3227.574951 -0.684888 0.157316 -0.711464
8848.309570 4018.728760 3200.518066 0.025548 0.920471 -0.389974
8244.842773 4046.941650 3227.574951 0.025548 0.920471 -0.389974
7845.929199 4337.990723 3888.414795 0.025548 0.920471 -0.389974
8391.625000 3354.400879 3350.435791 0.216585 -0.709758 0.670324
8258.194336 3665.323730 3722.762207 0.216585 -0.709758 0.670324
7919.167969 3467.097168 3622.415283 0.216585 -0.709758 0.670324
8391.625000 3354.400879 3350.435791 0.337694 -0.659404 0.671676
8877.395508 3639.959961 3386.550049 0.337694 -0.659404 0.671676
8258.194336 3665.323730 3722.762207 0.337694 -0.659404 0.671676
8850.145508 3924.569092 3365.202148 0.523561 0.742130 0.418483
8848.309570 4018.728760 3200.518066 0.523561 0.742130 0.418483
7845.929199 4337.990723 3888.414795 0.523561 0.742130 0.418483
8850.145508 3924.569092 3365.202148 0.542674 0.114374 0.832120
7744.483398 4243.680176 4042.408203 0.542674 0.114374 0.832120
8877.395508 3639.959961 3386.550049 0.542674 0.114374 0.832120
8244.842773 4046.941650 3227.574951 -0.399231 0.725542 -0.560539
7946.957031 4116.447266 3529.702393 -0.399231 0.725542 -0.560539
7845.929199 4337.990723 3888.414795 -0.399231 0.725542 -0.560539
7744.483398 4243.680176 4042.408203 0.474160 -0.064146 0.878099
8258.194336 3665.323730 3722.762207 0.474160 -0.064146 0.878099
8877.395508 3639.959961 3386.550049 0.474160 -0.064146 0.878099
7845.929199 4337.990723 3888.414795 0.073762 0.857650 -0.508916
7946.957031 4116.447266 3529.702393 0.073762 0.857650 -0.508916
7735.735840 4201.755371 3642.853271 0.073762 0.857650 -0.508916
7919.167969 3467.097168 3622.415283 -0.981386 -0.158371 0.108628
7873.994141 3875.659668 3809.950439 -0.981386 -0.158371 0.108628
7872.863770 3671.947266 3502.741943 -0.981386 -0.158371 0.108628
7699.235352 4088.025635 3883.381104 -0.525962 -0.735273 -0.427478
7735.735840 4201.755371 3642.853271 -0.525962 -0.735273 -0.427478
7946.957031 4116.447266 3529.702393 -0.525962 -0.735273 -0.427478
7744.483398 4243.680176 4042.408203 0.553014 0.497014 0.668695
8850.145508 3924.569092 3365.202148 0.553014 0.497014 0.668695
7845.929199 4337.990723 3888.414795 0.553014 0.497014 0.668695
7735.735840 4201.755371 3642.853271 -0.990099 0.026057 -0.137928
7699.235352 4088.025635 3883.381104 -0.990099 0.026057 -0.137928
7703.610352 4334.901855 3898.615479 -0.990099 0.026057 -0.137928
7872.863770 3671.947266 3502.741943 -0.979415 0.169871 -0.109039
7873.994141 3875.659668 3809.950439 -0.979415 0.169871 -0.109039
7946.957031 4116.447266 3529.702393 -0.979415 0.169871 -0.109039
7845.929199 4337.990723 3888.414795 -0.052589 0.883055 -0.466313
7735.735840 4201.755371 3642.853271 -0.052589 0.883055 -0.466313
7703.610352 4334.901855 3898.615479 -0.052589 0.883055 -0.466313
7933.869629 3902.438477 3874.313965 -0.587452 -0.390344 0.708894
7873.994141 3875.659668 3809.950439 -0.587452 -0.390344 0.708894
7919.167969 3467.097168 3622.415283 -0.587452 -0.390344 0.708894
7873.994141 3875.659668 3809.950439 -0.730199 -0.412583 -0.544597
7699.235352 4088.025635 3883.381104 -0.730199 -0.412583 -0.544597
7946.957031 4116.447266 3529.702393 -0.730199 -0.412583 -0.544597
7919.167969 3467.097168 3622.415283 0.037329 -0.501421 0.864398
8258.194336 3665.323730 3722.762207 0.037329 -0.501421 0.864398
7933.869629 3902.438477 3874.313965 0.037329 -0.501421 0.864398
8258.194336 3665.323730 3722.762207 0.165524 -0.360346 0.918015
7744.483398 4243.680176 4042.408203 0.165524 -0.360346 0.918015
7933.869629 3902.438477 3874.313965 0.165524 -0.360346 0.918015
7699.235352 4088.025635 3883.381104 -0.447348 -0.598062 0.664982
7873.994141 3875.659668 3809.950439 -0.447348 -0.598062 0.664982
7933.869629 3902.438477 3874.313965 -0.447348 -0.598062 0.664982
7933.869629 3902.438477 3874.313965 -0.571171 -0.739523 0.356189
7775.131836 4094.211426 4017.928955 -0.571171 -0.739523 0.356189
7699.235352 4088.025635 3883.381104 -0.571171 -0.739523 0.356189
7699.235352 4088.025635 3883.381104 -0.961867 0.000167 0.273517
7744.483398 4243.680176 4042.408203 -0.961867 0.000167 0.273517
7703.610352 4334.901855 3898.615479 -0.961867 0.000167 0.273517
7744.483398 4243.680176 4042.408203 0.684620 0.021055 0.728596
7775.131836 4094.211426 4017.928955 0.684620 0.021055 0.728596
7933.869629 3902.438477 3874.313965 0.684620 0.021055 0.728596
7744.483398 4243.680176 4042.408203 -0.838079 -0.251163 0.484295
7699.235352 4088.025635 3883.381104 -0.838079 -0.251163 0.484295
7775.131836 4094.211426 4017.928955 -0.838079 -0.251163 0.484295
7744.483398 4243.680176 4042.408203 0.019723 0.846775 0.531585
7845.929199 4337.990723 3888.414795 0.019723 0.846775 0.531585
7703.610352 4334.901855 3898.615479 0.019723 0.846775 0.531585
7725.114258 4240.593750 7337.410645 0.814513 -0.001433 -0.580143
7852.420898 3910.482666 7516.962891 0.814513 -0.001433 -0.580143
7751.907715 4060.892334 7375.472168 0.814513 -0.001433 -0.580143
7697.735840 4212.220703 7692.572754 -0.982229 -0.165284 -0.088921
7725.114258 4240.593750 7337.410645 -0.982229 -0.165284 -0.088921
7751.907715 4060.892334 7375.472168 -0.982229 -0.165284 -0.088921
7725.114258 4240.593750 7337.410645 -0.996702 0.032814 -0.074211
7697.735840 4212.220703 7692.572754 -0.996702 0.032814 -0.074211
7721.934082 4349.528320 7428.290039 -0.996702 0.032814 -0.074211
7751.907715 4060.892334 7375.472168 -0.864588 -0.494652 0.088359
7852.420898 3910.482666 7516.962891 -0.864588 -0.494652 0.088359
7697.735840 4212.220703 7692.572754 -0.864588 -0.494652 0.088359
8310.521484 3883.569824 7638.327148 0.212268 -0.402483 -0.890477
7852.420898 3910.482666 7516.962891 0.212268 -0.402483 -0.890477
7725.114258 4240.593750 7337.410645 0.212268 -0.402483 -0.890477
8193.669922 3643.312256 7658.700195 0.020368 -0.448124 -0.893739
7896.880859 3481.219238 7733.210449 0.020368 -0.448124 -0.893739
7852.420898 3910.482666 7516.962891 0.020368 -0.448124 -0.893739
8310.521484 3883.569824 7638.327148 0.240200 -0.197418 -0.950437
8193.669922 3643.312256 7658.700195 0.240200 -0.197418 -0.950437
7852.420898 3910.482666 7516.962891 0.240200 -0.197418 -0.950437
7725.114258 4240.593750 7337.410645 0.565611 0.537961 -0.625046
7721.934082 4349.528320 7428.290039 0.565611 0.537961 -0.625046
8812.079102 4029.530518 8139.360352 0.565611 0.537961 -0.625046
7852.420898 3910.482666 7516.962891 -0.654494 -0.393130 -0.645822
7896.880859 3481.219238 7733.210449 -0.654494 -0.393130 -0.645822
7833.001465 3554.156982 7753.548340 -0.654494 -0.393130 -0.645822
7978.584473 4073.199219 7954.015625 -0.685221 -0.595409 0.419475
7697.735840 4212.220703 7692.572754 -0.685221 -0.595409 0.419475
7852.420898 3910.482666 7516.962891 -0.685221 -0.595409 0.419475
7697.735840 4212.220703 7692.572754 -0.144438 0.883424 0.445757
8386.708984 4163.262207 8012.848633 -0.144438 0.883424 0.445757
7721.934082 4349.528320 7428.290039 -0.144438 0.883424 0.445757
8193.669922 3643.312256 7658.700195 0.263818 -0.757527 -0.597120
8759.935547 3592.782471 7972.990234 0.263818 -0.757527 -0.597120
7896.880859 3481.219238 7733.210449 0.263818 -0.757527 -0.597120
8812.079102 4029.530518 8139.360352 0.314485 0.947628 -0.055685
7721.934082 4349.528320 7428.290039 0.314485 0.947628 -0.055685
8386.708984 4163.262207 8012.848633 0.314485 0.947628 -0.055685
7833.001465 3554.156982 7753.548340 -0.959915 0.189462 0.206560
7978.584473 4073.199219 7954.015625 -0.959915 0.189462 0.206560
7852.420898 3910.482666 7516.962891 -0.959915 0.189462 0.206560
7725.114258 4240.593750 7337.410645 0.558483 0.248761 -0.791337
8946.624023 3908.842285 8095.198730 0.558483 0.248761 -0.791337
8310.521484 3883.569824 7638.327148 0.558483 0.248761 -0.791337
7725.114258 4240.593750 7337.410645 0.494035 0.725875 -0.478575
8812.079102 4029.530518 8139.360352 0.494035 0.725875 -0.478575
8946.624023 3908.842285 8095.198730 0.494035 0.725875 -0.478575
8310.521484 3883.569824 7638.327148 0.444891 -0.288278 -0.847920
8759.935547 3592.782471 7972.990234 0.444891 -0.288278 -0.847920
8193.669922 3643.312256 7658.700195 0.444891 -0.288278 -0.847920
8381.542969 3360.217041 8093.893555 0.265624 -0.748230 -0.607944
7896.880859 3481.219238 7733.210449 0.265624 -0.748230 -0.607944
8759.935547 3592.782471 7972.990234 0.265624 -0.748230 -0.607944
7896.880859 3481.219238 7733.210449 -0.556463 -0.636327 0.534263
8381.542969 3360.217041 8093.893555 -0.556463 -0.636327 0.534263
7833.001465 3554.156982 7753.548340 -0.556463 -0.636327 0.534263
7697.735840 4212.220703 7692.572754 -0.443839 0.500819 0.743093
7978.584473 4073.199219 7954.015625 -0.443839 0.500819 0.743093
8380.808594 4054.721680 8206.711914 -0.443839 0.500819 0.743093
7697.735840 4212.220703 7692.572754 -0.161052 0.863241 0.478411
8380.808594 4054.721680 8206.711914 -0.161052 0.863241 0.478411
8386.708984 4163.262207 8012.848633 -0.161052 0.863241 0.478411
8759.935547 3592.782471 7972.990234 0.583894 -0.031219 -0.811229
8310.521484 3883.569824 7638.327148 0.583894 -0.031219 -0.811229
8946.624023 3908.842285 8095.198730 0.583894 -0.031219 -0.811229
8759.935547 3592.782471 7972.990234 -0.086763 -0.344743 -0.934679
8926.313477 3335.453613 8052.458008 -0.086763 -0.344743 -0.934679
8381.542969 3360.217041 8093.893555 -0.086763 -0.344743 -0.934679
7978.584473 4073.199219 7954.015625 -0.721168 -0.064136 0.689785
7833.001465 3554.156982 7753.548340 -0.721168 -0.064136 0.689785
8302.126953 3744.540039 8261.719727 -0.721168 -0.064136 0.689785
8946.624023 3908.842285 8095.198730 0.489459 0.047567 -0.870728
8926.313477 3335.453613 8052.458008 0.489459 0.047567 -0.870728
8759.935547 3592.782471 7972.990234 0.489459 0.047567 -0.870728
8946.624023 3908.842285 8095.198730 0.920512 -0.003483 -0.390698
8999.509766 3817.649658 8220.614258 0.920512 -0.003483 -0.390698
8926.313477 3335.453613 8052.458008 0.920512 -0.003483 -0.390698
8926.313477 3335.453613 8052.458008 -0.021323 -0.956411 0.291243
8924.850586 3369.016846 8162.568848 -0.021323 -0.956411 0.291243
8381.542969 3360.217041 8093.893555 -0.021323 -0.956411 0.291243
8924.850586 3369.016846 8162.568848 0.982909 -0.172045 0.065500
8926.313477 3335.453613 8052.458008 0.982909 -0.172045 0.065500
8999.509766 3817.649658 8220.614258 0.982909 -0.172045 0.065500
8381.542969 3360.217041 8093.893555 -0.580982 -0.423557 0.695025
8302.126953 3744.540039 8261.719727 -0.580982 -0.423557 0.695025
7833.001465 3554.156982 7753.548340 -0.580982 -0.423557 0.695025
8999.509766 3817.649658 8220.614258 0.690199 0.691861 0.212023
8946.624023 3908.842285 8095.198730 0.690199 0.691861 0.212023
8812.079102 4029.530518 8139.360352 0.690199 0.691861 0.212023
8386.708984 4163.262207 8012.848633 0.126597 0.863882 0.487525
8380.808594 4054.721680 8206.711914 0.126597 0.863882 0.487525
8812.079102 4029.530518 8139.360352 0.126597 0.863882 0.487525
8302.126953 3744.540039 8261.719727 -0.502747 0.272983 0.820198
8380.808594 4054.721680 8206.711914 -0.502747 0.272983 0.820198
7978.584473 4073.199219 7954.015625 -0.502747 0.272983 0.820198
8999.509766 3817.649658 8220.614258 0.162787 0.475530 0.864507
8812.079102 4029.530518 8139.360352 0.162787 0.475530 0.864507
8380.808594 4054.721680 8206.711914 0.162787 0.475530 0.864507
8683.780273 3672.458252 8295.879883 -0.103378 -0.467767 0.877786
8381.542969 3360.217041 8093.893555 -0.103378 -0.467767 0.877786
8924.850586 3369.016846 8162.568848 -0.103378 -0.467767 0.877786
8999.509766 3817.649658 8220.614258 0.302438 -0.171638 0.937588
8683.780273 3672.458252 8295.879883 0.302438 -0.171638 0.937588
8924.850586 3369.016846 8162.568848 0.302438 -0.171638 0.937588
8683.780273 3672.458252 8295.879883 -0.159664 -0.422578 0.892152
8302.126953 3744.540039 8261.719727 -0.159664 -0.422578 0.892152
8381.542969 3360.217041 8093.893555 -0.159664 -0.422578 0.892152
8999.509766 3817.649658 8220.614258 0.091416 0.294360 0.951313
8380.808594 4054.721680 8206.711914 0.091416 0.294360 0.951313
8683.780273 3672.458252 8295.879883 0.091416 0.294360 0.951313
8683.780273 3672.458252 8295.879883 -0.052431 0.187255 0.980911
8380.808594 4054.721680 8206.711914 -0.052431 0.187255 0.980911
8302.126953 3744.540039 8261.719727 -0.052431 0.187255 0.980911
3 0 1 2
3 3 4 5
3 6 7 8
3 9 10 11
3 12 13 14
3 15 16 17
3 18 19 20
3 21 22 23
3 24 25 26
3 27 28 29
3 30 31 32
3 33 34 35
3 36 37 38
3 39 40 41
3 42 43 44
3 45 46 47
3 48 49 50
3 51 52 53
3 54 55 56
3 57 58 59
3 60 61 62
3 63 64 65
3 66 67 68
3 69 70 71
3 72 73 74
3 75 76 77
3 78 79 80
3 81 82 83
3 84 85 86
3 87 88 89
3 90 91 92
3 93 94 95
3 96 97 98
3 99 100 101
3 102 103 104
3 105 106 107
3 108 109 110
3 111 112 113
3 114 115 116
3 117 118 119
3 120 121 122
3 123 124 125
3 126 127 128
3 129 130 131
3 132 133 134
3 135 136 137
3 138 139 140
3 141 142 143
3 144 145 146
3 147 148 149
3 150 151 152
3 153 154 155
3 156 157 158
3 159 160 161
3 162 163 164
3 165 166 167
3 168 169 170
3 171 172 173
3 174 175 176
3 177 178 179
3 180 181 182
3 183 184 185
3 186 187 188
3 189 190 191
3 192 193 194
3 195 196 197
3 198 199 200
3 201 202 203
3 204 205 206
3 207 208 209
3 210 211 212
3 213 214 215
3 216 217 218
3 219 220 221
3 222 223 224
3 225 226 227
3 228 229 230
3 231 232 233
3 234 235 236
3 237 238 239
