ply
format ascii 1.0
comment Created by Blender 2.80 (sub 75) - www.blender.org, source file: 'downsample_ccf.blend'
element vertex 138
property float x
property float y
property float z
property float nx
property float ny
property float nz
element face 46
property list uchar uint vertex_indices
end_header
7823.478516 6092.439453 4875.057129 -0.351885 0.162717 -0.921792
7687.822754 6188.434570 4943.787598 -0.351885 0.162717 -0.921792
7842.371094 6344.394531 4912.320801 -0.351885 0.162717 -0.921792
8099.598633 6308.049316 4946.459961 0.148930 0.133738 -0.979762
7823.478516 6092.439453 4875.057129 0.148930 0.133738 -0.979762
7842.371094 6344.394531 4912.320801 0.148930 0.133738 -0.979762
8288.459961 6065.258301 5085.297363 0.393046 -0.206628 -0.896002
7823.478516 6092.439453 4875.057129 0.393046 -0.206628 -0.896002
8099.598633 6308.049316 4946.459961 0.393046 -0.206628 -0.896002
7731.912598 5899.291992 5128.207520 -0.642253 -0.479395 -0.598073
7687.822754 6188.434570 4943.787598 -0.642253 -0.479395 -0.598073
7823.478516 6092.439453 4875.057129 -0.642253 -0.479395 -0.598073
8288.459961 6065.258301 5085.297363 0.684633 0.121594 -0.718674
8099.598633 6308.049316 4946.459961 0.684633 0.121594 -0.718674
8370.920898 6244.909180 5194.248047 0.684633 0.121594 -0.718674
7904.962891 6466.152344 5085.777344 0.189648 0.770138 -0.609033
8099.598633 6308.049316 4946.459961 0.189648 0.770138 -0.609033
7842.371094 6344.394531 4912.320801 0.189648 0.770138 -0.609033
7842.371094 6344.394531 4912.320801 -0.715344 0.666549 -0.209752
7687.822754 6188.434570 4943.787598 -0.715344 0.666549 -0.209752
7904.962891 6466.152344 5085.777344 -0.715344 0.666549 -0.209752
7687.822754 6188.434570 4943.787598 -0.819780 0.529791 0.217444
7729.386719 6111.244141 5288.557617 -0.819780 0.529791 0.217444
7904.962891 6466.152344 5085.777344 -0.819780 0.529791 0.217444
7823.478516 6092.439453 4875.057129 0.236392 -0.748483 -0.619590
8288.459961 6065.258301 5085.297363 0.236392 -0.748483 -0.619590
7988.963867 5775.984375 5320.482422 0.236392 -0.748483 -0.619590
7731.912598 5899.291992 5128.207520 -0.991149 -0.087405 0.099920
7729.386719 6111.244141 5288.557617 -0.991149 -0.087405 0.099920
7687.822754 6188.434570 4943.787598 -0.991149 -0.087405 0.099920
7823.478516 6092.439453 4875.057129 0.057562 -0.803635 -0.592333
7988.963867 5775.984375 5320.482422 0.057562 -0.803635 -0.592333
7731.912598 5899.291992 5128.207520 0.057562 -0.803635 -0.592333
8099.598633 6308.049316 4946.459961 0.465095 0.834046 -0.296741
7904.962891 6466.152344 5085.777344 0.465095 0.834046 -0.296741
8370.920898 6244.909180 5194.248047 0.465095 0.834046 -0.296741
8288.459961 6065.258301 5085.297363 0.873037 -0.113044 -0.474370
8370.920898 6244.909180 5194.248047 0.873037 -0.113044 -0.474370
8441.251953 6016.084961 5378.215820 0.873037 -0.113044 -0.474370
8287.393555 5758.001953 5521.818848 0.320756 -0.774901 -0.544650
7988.963867 5775.984375 5320.482422 0.320756 -0.774901 -0.544650
8288.459961 6065.258301 5085.297363 0.320756 -0.774901 -0.544650
8441.251953 6016.084961 5378.215820 0.642001 -0.627702 -0.440255
8287.393555 5758.001953 5521.818848 0.642001 -0.627702 -0.440255
8288.459961 6065.258301 5085.297363 0.642001 -0.627702 -0.440255
7731.912598 5899.291992 5128.207520 -0.999142 0.016749 -0.037878
7705.581543 6061.460938 5894.479492 -0.999142 0.016749 -0.037878
7729.386719 6111.244141 5288.557617 -0.999142 0.016749 -0.037878
8370.920898 6244.909180 5194.248047 0.437628 0.897840 -0.048631
7904.962891 6466.152344 5085.777344 0.437628 0.897840 -0.048631
7900.165527 6513.277832 5912.649902 0.437628 0.897840 -0.048631
7904.962891 6466.152344 5085.777344 -0.902565 0.429528 -0.029716
7729.386719 6111.244141 5288.557617 -0.902565 0.429528 -0.029716
7900.165527 6513.277832 5912.649902 -0.902565 0.429528 -0.029716
8287.393555 5758.001953 5521.818848 0.842782 -0.535053 -0.058626
8441.251953 6016.084961 5378.215820 0.842782 -0.535053 -0.058626
8442.528320 5960.410645 5904.679688 0.842782 -0.535053 -0.058626
8441.251953 6016.084961 5378.215820 0.969303 0.231630 -0.082458
8370.920898 6244.909180 5194.248047 0.969303 0.231630 -0.082458
8441.336914 6224.337891 5964.213379 0.969303 0.231630 -0.082458
7900.165527 6513.277832 5912.649902 -0.918388 0.395666 -0.003573
7729.386719 6111.244141 5288.557617 -0.918388 0.395666 -0.003573
7705.581543 6061.460938 5894.479492 -0.918388 0.395666 -0.003573
8442.528320 5960.410645 5904.679688 0.999986 0.004943 -0.001902
8441.251953 6016.084961 5378.215820 0.999986 0.004943 -0.001902
8441.336914 6224.337891 5964.213379 0.999986 0.004943 -0.001902
8287.393555 5758.001953 5521.818848 0.749122 -0.660845 0.045828
8442.528320 5960.410645 5904.679688 0.749122 -0.660845 0.045828
8301.373047 5805.445801 5977.448730 0.749122 -0.660845 0.045828
7988.963867 5775.984375 5320.482422 -0.045881 -0.998722 -0.021195
8287.393555 5758.001953 5521.818848 -0.045881 -0.998722 -0.021195
8015.558594 5760.986816 5969.613281 -0.045881 -0.998722 -0.021195
7988.963867 5775.984375 5320.482422 -0.430555 -0.902559 -0.003213
8015.558594 5760.986816 5969.613281 -0.430555 -0.902559 -0.003213
7731.912598 5899.291992 5128.207520 -0.430555 -0.902559 -0.003213
8370.920898 6244.909180 5194.248047 0.472354 0.881190 -0.019656
7900.165527 6513.277832 5912.649902 0.472354 0.881190 -0.019656
8441.336914 6224.337891 5964.213379 0.472354 0.881190 -0.019656
7731.912598 5899.291992 5128.207520 -0.996060 -0.087274 -0.015757
7714.424316 5898.883789 6235.974121 -0.996060 -0.087274 -0.015757
7705.581543 6061.460938 5894.479492 -0.996060 -0.087274 -0.015757
8287.393555 5758.001953 5521.818848 0.150347 -0.983781 0.097826
8301.373047 5805.445801 5977.448730 0.150347 -0.983781 0.097826
8015.558594 5760.986816 5969.613281 0.150347 -0.983781 0.097826
7714.424316 5898.883789 6235.974121 -0.421440 -0.906829 -0.006987
7731.912598 5899.291992 5128.207520 -0.421440 -0.906829 -0.006987
8015.558594 5760.986816 5969.613281 -0.421440 -0.906829 -0.006987
8441.336914 6224.337891 5964.213379 0.462363 0.882088 0.090235
7900.165527 6513.277832 5912.649902 0.462363 0.882088 0.090235
7960.563965 6434.266113 6375.545898 0.462363 0.882088 0.090235
8301.568359 6107.204590 6300.770020 0.755879 -0.478864 0.446471
8301.373047 5805.445801 5977.448730 0.755879 -0.478864 0.446471
8442.528320 5960.410645 5904.679688 0.755879 -0.478864 0.446471
8301.568359 6107.204590 6300.770020 0.929989 -0.076884 0.359457
8442.528320 5960.410645 5904.679688 0.929989 -0.076884 0.359457
8441.336914 6224.337891 5964.213379 0.929989 -0.076884 0.359457
7714.156250 6233.522949 6456.785156 -0.999719 -0.013608 0.019409
7705.581543 6061.460938 5894.479492 -0.999719 -0.013608 0.019409
7714.424316 5898.883789 6235.974121 -0.999719 -0.013608 0.019409
7714.424316 5898.883789 6235.974121 0.113034 -0.824408 0.554593
8015.558594 5760.986816 5969.613281 0.113034 -0.824408 0.554593
8301.373047 5805.445801 5977.448730 0.113034 -0.824408 0.554593
8301.373047 5805.445801 5977.448730 0.126577 -0.805736 0.578591
7961.564453 6121.555176 6491.996094 0.126577 -0.805736 0.578591
7714.424316 5898.883789 6235.974121 0.126577 -0.805736 0.578591
8144.132812 6285.227539 6429.665527 0.802989 0.374348 0.463759
8301.568359 6107.204590 6300.770020 0.802989 0.374348 0.463759
8441.336914 6224.337891 5964.213379 0.802989 0.374348 0.463759
7960.563965 6434.266113 6375.545898 0.562560 0.785998 0.256387
8144.132812 6285.227539 6429.665527 0.562560 0.785998 0.256387
8441.336914 6224.337891 5964.213379 0.562560 0.785998 0.256387
7705.581543 6061.460938 5894.479492 -0.911540 0.396898 -0.107548
7714.156250 6233.522949 6456.785156 -0.911540 0.396898 -0.107548
7900.165527 6513.277832 5912.649902 -0.911540 0.396898 -0.107548
8301.373047 5805.445801 5977.448730 0.332720 -0.689512 0.643327
8301.568359 6107.204590 6300.770020 0.332720 -0.689512 0.643327
7961.564453 6121.555176 6491.996094 0.332720 -0.689512 0.643327
7960.563965 6434.266113 6375.545898 -0.574979 0.790759 0.209998
7900.165527 6513.277832 5912.649902 -0.574979 0.790759 0.209998
7714.156250 6233.522949 6456.785156 -0.574979 0.790759 0.209998
7736.597168 6117.481445 6477.802734 -0.028978 -0.740206 0.671756
7714.424316 5898.883789 6235.974121 -0.028978 -0.740206 0.671756
7961.564453 6121.555176 6491.996094 -0.028978 -0.740206 0.671756
7714.424316 5898.883789 6235.974121 -0.964253 -0.146479 0.220818
7736.597168 6117.481445 6477.802734 -0.964253 -0.146479 0.220818
7714.156250 6233.522949 6456.785156 -0.964253 -0.146479 0.220818
8301.568359 6107.204590 6300.770020 0.473635 -0.201842 0.857280
8144.132812 6285.227539 6429.665527 0.473635 -0.201842 0.857280
7961.564453 6121.555176 6491.996094 0.473635 -0.201842 0.857280
7714.156250 6233.522949 6456.785156 0.015778 0.358389 0.933439
8144.132812 6285.227539 6429.665527 0.015778 0.358389 0.933439
7960.563965 6434.266113 6375.545898 0.015778 0.358389 0.933439
7961.564453 6121.555176 6491.996094 0.018780 0.337465 0.941151
8144.132812 6285.227539 6429.665527 0.018780 0.337465 0.941151
7714.156250 6233.522949 6456.785156 0.018780 0.337465 0.941151
7961.564453 6121.555176 6491.996094 -0.065083 0.165644 0.984036
7714.156250 6233.522949 6456.785156 -0.065083 0.165644 0.984036
7736.597168 6117.481445 6477.802734 -0.065083 0.165644 0.984036
3 0 1 2
3 3 4 5
3 6 7 8
3 9 10 11
3 12 13 14
3 15 16 17
3 18 19 20
3 21 22 23
3 24 25 26
3 27 28 29
3 30 31 32
3 33 34 35
3 36 37 38
3 39 40 41
3 42 43 44
3 45 46 47
3 48 49 50
3 51 52 53
3 54 55 56
3 57 58 59
3 60 61 62
3 63 64 65
3 66 67 68
3 69 70 71
3 72 73 74
3 75 76 77
3 78 79 80
3 81 82 83
3 84 85 86
3 87 88 89
3 90 91 92
3 93 94 95
3 96 97 98
3 99 100 101
3 102 103 104
3 105 106 107
3 108 109 110
3 111 112 113
3 114 115 116
3 117 118 119
3 120 121 122
3 123 124 125
3 126 127 128
3 129 130 131
3 132 133 134
3 135 136 137
