ply
format ascii 1.0
comment Created by Blender 2.80 (sub 75) - www.blender.org, source file: 'downsample_ccf.blend'
element vertex 330
property float x
property float y
property float z
property float nx
property float ny
property float nz
element face 110
property list uchar uint vertex_indices
end_header
5541.218262 4471.518555 5293.613281 -0.353779 -0.052500 -0.933854
5724.232422 4883.332520 5201.128906 -0.353779 -0.052500 -0.933854
5870.324707 4078.457275 5191.032715 -0.353779 -0.052500 -0.933854
5900.229492 4834.349609 5204.623047 0.024576 0.016999 -0.999553
5870.324707 4078.457275 5191.032715 0.024576 0.016999 -0.999553
5724.232422 4883.332520 5201.128906 0.024576 0.016999 -0.999553
6193.747559 4932.657227 5176.416992 -0.082431 -0.039599 -0.995810
5900.229492 4834.349609 5204.623047 -0.082431 -0.039599 -0.995810
6101.998047 5113.014648 5176.839844 -0.082431 -0.039599 -0.995810
5870.324707 4078.457275 5191.032715 0.832310 -0.022971 -0.553834
5900.229492 4834.349609 5204.623047 0.832310 -0.022971 -0.553834
6044.319824 4666.067383 5428.143555 0.832310 -0.022971 -0.553834
6193.747559 4932.657227 5176.416992 0.314897 0.162383 -0.935132
6101.998047 5113.014648 5176.839844 0.314897 0.162383 -0.935132
6553.190430 5462.145508 5389.400391 0.314897 0.162383 -0.935132
5900.229492 4834.349609 5204.623047 -0.006541 -0.094516 -0.995502
5724.232422 4883.332520 5201.128906 -0.006541 -0.094516 -0.995502
6101.998047 5113.014648 5176.839844 -0.006541 -0.094516 -0.995502
6141.091797 4182.266602 5332.184082 0.174735 0.602804 -0.778521
5870.324707 4078.457275 5191.032715 0.174735 0.602804 -0.778521
6140.937988 4348.209473 5460.638184 0.174735 0.602804 -0.778521
6140.937988 4348.209473 5460.638184 0.640031 0.116914 -0.759402
5870.324707 4078.457275 5191.032715 0.640031 0.116914 -0.759402
6044.319824 4666.067383 5428.143555 0.640031 0.116914 -0.759402
5900.229492 4834.349609 5204.623047 0.179697 -0.726745 -0.662986
6193.747559 4932.657227 5176.416992 0.179697 -0.726745 -0.662986
6044.319824 4666.067383 5428.143555 0.179697 -0.726745 -0.662986
6101.998047 5113.014648 5176.839844 -0.417579 0.616186 -0.667789
5724.232422 4883.332520 5201.128906 -0.417579 0.616186 -0.667789
5939.673340 5370.196289 5515.652344 -0.417579 0.616186 -0.667789
6574.215820 4882.050293 5593.828125 0.709498 -0.211210 -0.672311
6193.747559 4932.657227 5176.416992 0.709498 -0.211210 -0.672311
6553.190430 5462.145508 5389.400391 0.709498 -0.211210 -0.672311
5870.324707 4078.457275 5191.032715 0.380051 -0.785604 -0.488250
6200.774414 3996.673096 5579.845215 0.380051 -0.785604 -0.488250
5835.801270 3948.901855 5372.617188 0.380051 -0.785604 -0.488250
5870.324707 4078.457275 5191.032715 -0.728998 -0.484076 -0.483975
5835.801270 3948.901855 5372.617188 -0.728998 -0.484076 -0.483975
5541.218262 4471.518555 5293.613281 -0.728998 -0.484076 -0.483975
6141.091797 4182.266602 5332.184082 0.537705 -0.607400 -0.584755
6200.774414 3996.673096 5579.845215 0.537705 -0.607400 -0.584755
5870.324707 4078.457275 5191.032715 0.537705 -0.607400 -0.584755
6553.190430 5462.145508 5389.400391 -0.242234 0.713392 -0.657567
6101.998047 5113.014648 5176.839844 -0.242234 0.713392 -0.657567
5939.673340 5370.196289 5515.652344 -0.242234 0.713392 -0.657567
7018.660645 3507.605469 5377.353516 -0.520552 0.449894 -0.725687
6849.720215 3617.020264 5566.370605 -0.520552 0.449894 -0.725687
7301.827637 3753.472656 5326.658203 -0.520552 0.449894 -0.725687
6193.747559 4932.657227 5176.416992 0.456474 -0.732606 -0.504895
6574.215820 4882.050293 5593.828125 0.456474 -0.732606 -0.504895
6044.319824 4666.067383 5428.143555 0.456474 -0.732606 -0.504895
6200.774414 3996.673096 5579.845215 0.475573 0.136419 -0.869034
6058.063477 3554.167480 5432.284180 0.475573 0.136419 -0.869034
5835.801270 3948.901855 5372.617188 0.475573 0.136419 -0.869034
5724.232422 4883.332520 5201.128906 -0.841934 0.269136 -0.467668
5541.218262 4471.518555 5293.613281 -0.841934 0.269136 -0.467668
5544.666504 4856.325195 5508.855469 -0.841934 0.269136 -0.467668
7301.827637 3753.472656 5326.658203 -0.349707 0.927577 -0.131553
6849.720215 3617.020264 5566.370605 -0.349707 0.927577 -0.131553
7052.866699 3719.297363 5747.501465 -0.349707 0.927577 -0.131553
6849.720215 3617.020264 5566.370605 -0.257144 0.718797 -0.645916
7018.660645 3507.605469 5377.353516 -0.257144 0.718797 -0.645916
6393.845703 3407.310791 5514.485840 -0.257144 0.718797 -0.645916
7301.827637 3753.472656 5326.658203 0.204364 -0.417890 -0.885214
7261.778809 3269.125977 5546.061523 0.204364 -0.417890 -0.885214
7018.660645 3507.605469 5377.353516 0.204364 -0.417890 -0.885214
7301.827637 3753.472656 5326.658203 -0.637145 0.701184 -0.319979
7052.866699 3719.297363 5747.501465 -0.637145 0.701184 -0.319979
7392.283691 3929.526123 5532.334961 -0.637145 0.701184 -0.319979
5572.971680 4351.262207 6031.149414 -0.867688 -0.495181 -0.043753
5835.801270 3948.901855 5372.617188 -0.867688 -0.495181 -0.043753
6058.063477 3554.167480 5432.284180 -0.867688 -0.495181 -0.043753
5835.801270 3948.901855 5372.617188 -0.867493 -0.495548 -0.043451
5572.971680 4351.262207 6031.149414 -0.867493 -0.495548 -0.043451
5541.218262 4471.518555 5293.613281 -0.867493 -0.495548 -0.043451
5939.673340 5370.196289 5515.652344 -0.731838 0.567545 -0.377235
5724.232422 4883.332520 5201.128906 -0.731838 0.567545 -0.377235
5544.666504 4856.325195 5508.855469 -0.731838 0.567545 -0.377235
6849.720215 3617.020264 5566.370605 -0.049623 0.340202 -0.939042
6393.845703 3407.310791 5514.485840 -0.049623 0.340202 -0.939042
6479.060547 3688.164795 5611.732422 -0.049623 0.340202 -0.939042
6393.845703 3407.310791 5514.485840 0.316924 0.206481 -0.925702
6058.063477 3554.167480 5432.284180 0.316924 0.206481 -0.925702
6200.774414 3996.673096 5579.845215 0.316924 0.206481 -0.925702
6200.774414 3996.673096 5579.845215 0.981902 0.116498 -0.149322
6141.091797 4182.266602 5332.184082 0.981902 0.116498 -0.149322
6140.937988 4348.209473 5460.638184 0.981902 0.116498 -0.149322
6574.215820 4882.050293 5593.828125 0.042062 -0.330719 -0.942792
6553.190430 5462.145508 5389.400391 0.042062 -0.330719 -0.942792
7106.794434 5170.104492 5516.542969 0.042062 -0.330719 -0.942792
6058.063477 3554.167480 5432.284180 -0.397310 -0.917540 -0.016268
6393.845703 3407.310791 5514.485840 -0.397310 -0.917540 -0.016268
6098.164551 3528.249512 5914.717773 -0.397310 -0.917540 -0.016268
7301.827637 3753.472656 5326.658203 0.653345 -0.356548 -0.667843
7448.737305 3519.883545 5595.086914 0.653345 -0.356548 -0.667843
7261.778809 3269.125977 5546.061523 0.653345 -0.356548 -0.667843
6479.060547 3688.164795 5611.732422 0.341419 0.213360 -0.915375
6393.845703 3407.310791 5514.485840 0.341419 0.213360 -0.915375
6200.774414 3996.673096 5579.845215 0.341419 0.213360 -0.915375
7106.794434 5170.104492 5516.542969 0.422106 0.460095 -0.781114
6553.190430 5462.145508 5389.400391 0.422106 0.460095 -0.781114
6957.022949 5481.675293 5619.130859 0.422106 0.460095 -0.781114
7301.827637 3753.472656 5326.658203 0.895492 0.055767 -0.441570
7392.283691 3929.526123 5532.334961 0.895492 0.055767 -0.441570
7448.737305 3519.883545 5595.086914 0.895492 0.055767 -0.441570
7261.778809 3269.125977 5546.061523 -0.070892 -0.623231 -0.778818
6393.845703 3407.310791 5514.485840 -0.070892 -0.623231 -0.778818
7018.660645 3507.605469 5377.353516 -0.070892 -0.623231 -0.778818
7448.737305 3519.883545 5595.086914 0.988520 0.122730 -0.088123
7392.283691 3929.526123 5532.334961 0.988520 0.122730 -0.088123
7419.833984 3934.717529 5848.610840 0.988520 0.122730 -0.088123
7031.725098 4936.970703 5611.278809 0.082615 -0.397893 -0.913704
6574.215820 4882.050293 5593.828125 0.082615 -0.397893 -0.913704
7106.794434 5170.104492 5516.542969 0.082615 -0.397893 -0.913704
7261.778809 3269.125977 5546.061523 0.805417 -0.566286 -0.174994
7448.737305 3519.883545 5595.086914 0.805417 -0.566286 -0.174994
7341.400879 3297.981445 5819.148438 0.805417 -0.566286 -0.174994
7031.725098 4936.970703 5611.278809 0.840783 -0.412978 -0.350047
7106.794434 5170.104492 5516.542969 0.840783 -0.412978 -0.350047
7141.073242 4988.721191 5812.869629 0.840783 -0.412978 -0.350047
5939.673340 5370.196289 5515.652344 -0.172188 0.977084 -0.125135
6657.293457 5540.704102 5859.558105 -0.172188 0.977084 -0.125135
6553.190430 5462.145508 5389.400391 -0.172188 0.977084 -0.125135
6140.937988 4348.209473 5460.638184 0.830552 0.300404 0.468979
6044.319824 4666.067383 5428.143555 0.830552 0.300404 0.468979
6200.774414 3996.673096 5579.845215 0.830552 0.300404 0.468979
5541.218262 4471.518555 5293.613281 -0.999073 -0.013844 0.040756
5572.971680 4351.262207 6031.149414 -0.999073 -0.013844 0.040756
5544.666504 4856.325195 5508.855469 -0.999073 -0.013844 0.040756
5544.666504 4856.325195 5508.855469 -0.779926 0.601794 -0.171927
5822.542480 5304.096680 5815.633789 -0.779926 0.601794 -0.171927
5939.673340 5370.196289 5515.652344 -0.779926 0.601794 -0.171927
7066.649902 5313.619141 5857.948242 0.886392 0.454704 -0.086914
7106.794434 5170.104492 5516.542969 0.886392 0.454704 -0.086914
6957.022949 5481.675293 5619.130859 0.886392 0.454704 -0.086914
6957.022949 5481.675293 5619.130859 0.052514 0.983010 -0.175879
6553.190430 5462.145508 5389.400391 0.052514 0.983010 -0.175879
6657.293457 5540.704102 5859.558105 0.052514 0.983010 -0.175879
7052.866699 3719.297363 5747.501465 -0.512254 0.858291 0.030533
7419.833984 3934.717529 5848.610840 -0.512254 0.858291 0.030533
7392.283691 3929.526123 5532.334961 -0.512254 0.858291 0.030533
6200.774414 3996.673096 5579.845215 0.864796 0.294321 0.406821
6044.319824 4666.067383 5428.143555 0.864796 0.294321 0.406821
6024.459961 4361.330078 5690.827148 0.864796 0.294321 0.406821
6678.747070 3312.429688 5809.772461 -0.148950 -0.974239 -0.169330
6393.845703 3407.310791 5514.485840 -0.148950 -0.974239 -0.169330
7261.778809 3269.125977 5546.061523 -0.148950 -0.974239 -0.169330
6678.747070 3312.429688 5809.772461 -0.343536 -0.938665 0.029843
6098.164551 3528.249512 5914.717773 -0.343536 -0.938665 0.029843
6393.845703 3407.310791 5514.485840 -0.343536 -0.938665 0.029843
6098.164551 3528.249512 5914.717773 -0.839665 -0.541577 0.040700
5572.971680 4351.262207 6031.149414 -0.839665 -0.541577 0.040700
6058.063477 3554.167480 5432.284180 -0.839665 -0.541577 0.040700
6200.774414 3996.673096 5579.845215 0.896203 0.442597 -0.030478
6024.459961 4361.330078 5690.827148 0.896203 0.442597 -0.030478
6217.091309 3977.555664 5782.021484 0.896203 0.442597 -0.030478
6024.459961 4361.330078 5690.827148 0.998687 -0.046439 0.021630
6044.319824 4666.067383 5428.143555 0.998687 -0.046439 0.021630
6033.626465 4652.161621 5892.007812 0.998687 -0.046439 0.021630
6574.215820 4882.050293 5593.828125 0.382434 -0.923790 -0.018877
6033.626465 4652.161621 5892.007812 0.382434 -0.923790 -0.018877
6044.319824 4666.067383 5428.143555 0.382434 -0.923790 -0.018877
7141.073242 4988.721191 5812.869629 0.975178 0.220321 0.022052
7106.794434 5170.104492 5516.542969 0.975178 0.220321 0.022052
7066.649902 5313.619141 5857.948242 0.975178 0.220321 0.022052
6217.091309 3977.555664 5782.021484 0.725200 0.686630 -0.051232
6574.628418 3602.371582 5814.683105 0.725200 0.686630 -0.051232
6479.060547 3688.164795 5611.732422 0.725200 0.686630 -0.051232
6217.091309 3977.555664 5782.021484 0.742360 0.669992 0.003440
6479.060547 3688.164795 5611.732422 0.742360 0.669992 0.003440
6200.774414 3996.673096 5579.845215 0.742360 0.669992 0.003440
5562.414551 4906.055176 5774.522461 -0.833921 0.549860 -0.047217
5822.542480 5304.096680 5815.633789 -0.833921 0.549860 -0.047217
5544.666504 4856.325195 5508.855469 -0.833921 0.549860 -0.047217
7031.725098 4936.970703 5611.278809 0.112805 -0.983857 0.138924
6569.893555 4913.519531 5820.203125 0.112805 -0.983857 0.138924
6574.215820 4882.050293 5593.828125 0.112805 -0.983857 0.138924
5939.673340 5370.196289 5515.652344 -0.276260 0.955581 0.102690
5822.542480 5304.096680 5815.633789 -0.276260 0.955581 0.102690
6657.293457 5540.704102 5859.558105 -0.276260 0.955581 0.102690
7261.778809 3269.125977 5546.061523 -0.023242 -0.993465 0.111750
7341.400879 3297.981445 5819.148438 -0.023242 -0.993465 0.111750
6678.747070 3312.429688 5809.772461 -0.023242 -0.993465 0.111750
7341.400879 3297.981445 5819.148438 0.938284 -0.130400 0.320341
7448.737305 3519.883545 5595.086914 0.938284 -0.130400 0.320341
7419.833984 3934.717529 5848.610840 0.938284 -0.130400 0.320341
6574.628418 3602.371582 5814.683105 0.214676 0.931765 0.292795
6849.720215 3617.020264 5566.370605 0.214676 0.931765 0.292795
6479.060547 3688.164795 5611.732422 0.214676 0.931765 0.292795
6849.720215 3617.020264 5566.370605 -0.261862 0.936087 -0.234880
6574.628418 3602.371582 5814.683105 -0.261862 0.936087 -0.234880
7052.866699 3719.297363 5747.501465 -0.261862 0.936087 -0.234880
5572.971680 4351.262207 6031.149414 -0.997850 0.010903 0.064621
5562.414551 4906.055176 5774.522461 -0.997850 0.010903 0.064621
5544.666504 4856.325195 5508.855469 -0.997850 0.010903 0.064621
7031.725098 4936.970703 5611.278809 0.130680 -0.975054 0.179423
7141.073242 4988.721191 5812.869629 0.130680 -0.975054 0.179423
6569.893555 4913.519531 5820.203125 0.130680 -0.975054 0.179423
6033.626465 4652.161621 5892.007812 0.826729 0.302205 -0.474543
6217.091309 3977.555664 5782.021484 0.826729 0.302205 -0.474543
6024.459961 4361.330078 5690.827148 0.826729 0.302205 -0.474543
6657.293457 5540.704102 5859.558105 0.452780 0.813623 0.364703
7066.649902 5313.619141 5857.948242 0.452780 0.813623 0.364703
6957.022949 5481.675293 5619.130859 0.452780 0.813623 0.364703
6657.293457 5540.704102 5859.558105 -0.275197 0.917715 0.286470
5822.542480 5304.096680 5815.633789 -0.275197 0.917715 0.286470
6547.260742 5467.974609 5986.846191 -0.275197 0.917715 0.286470
6574.628418 3602.371582 5814.683105 -0.018981 0.555334 0.831411
6761.337891 3440.301270 5927.199219 -0.018981 0.555334 0.831411
7052.866699 3719.297363 5747.501465 -0.018981 0.555334 0.831411
7052.866699 3719.297363 5747.501465 -0.544071 0.762823 0.349411
7308.796875 3770.547119 6034.125977 -0.544071 0.762823 0.349411
7419.833984 3934.717529 5848.610840 -0.544071 0.762823 0.349411
6217.091309 3977.555664 5782.021484 0.163703 0.239318 0.957041
6098.164551 3528.249512 5914.717773 0.163703 0.239318 0.957041
6574.628418 3602.371582 5814.683105 0.163703 0.239318 0.957041
6217.091309 3977.555664 5782.021484 0.954660 0.277290 -0.108331
6033.626465 4652.161621 5892.007812 0.954660 0.277290 -0.108331
6179.546875 4189.567871 5993.841797 0.954660 0.277290 -0.108331
6574.215820 4882.050293 5593.828125 0.448471 -0.884077 0.131462
6569.893555 4913.519531 5820.203125 0.448471 -0.884077 0.131462
6033.626465 4652.161621 5892.007812 0.448471 -0.884077 0.131462
7122.157227 3518.665283 6013.645996 -0.025150 -0.674932 0.737451
6678.747070 3312.429688 5809.772461 -0.025150 -0.674932 0.737451
7341.400879 3297.981445 5819.148438 -0.025150 -0.674932 0.737451
6761.337891 3440.301270 5927.199219 -0.098941 -0.637645 0.763950
6098.164551 3528.249512 5914.717773 -0.098941 -0.637645 0.763950
6678.747070 3312.429688 5809.772461 -0.098941 -0.637645 0.763950
6761.337891 3440.301270 5927.199219 -0.533661 0.775265 0.337891
7308.796875 3770.547119 6034.125977 -0.533661 0.775265 0.337891
7052.866699 3719.297363 5747.501465 -0.533661 0.775265 0.337891
6098.164551 3528.249512 5914.717773 0.515434 0.114387 0.849261
6217.091309 3977.555664 5782.021484 0.515434 0.114387 0.849261
5862.104492 3914.716064 6005.934082 0.515434 0.114387 0.849261
7141.073242 4988.721191 5812.869629 0.029924 -0.130641 0.990978
7066.649902 5313.619141 5857.948242 0.029924 -0.130641 0.990978
6569.893555 4913.519531 5820.203125 0.029924 -0.130641 0.990978
6761.337891 3440.301270 5927.199219 -0.034888 -0.663655 0.747224
6678.747070 3312.429688 5809.772461 -0.034888 -0.663655 0.747224
7122.157227 3518.665283 6013.645996 -0.034888 -0.663655 0.747224
7341.400879 3297.981445 5819.148438 0.897245 -0.130046 0.421948
7419.833984 3934.717529 5848.610840 0.897245 -0.130046 0.421948
7308.796875 3770.547119 6034.125977 0.897245 -0.130046 0.421948
5572.971680 4351.262207 6031.149414 -0.999351 -0.028938 -0.021448
5561.973633 4677.705566 6103.157227 -0.999351 -0.028938 -0.021448
5562.414551 4906.055176 5774.522461 -0.999351 -0.028938 -0.021448
5822.542480 5304.096680 5815.633789 -0.803112 0.489809 0.339263
5562.414551 4906.055176 5774.522461 -0.803112 0.489809 0.339263
5561.973633 4677.705566 6103.157227 -0.803112 0.489809 0.339263
7066.649902 5313.619141 5857.948242 0.152470 -0.278755 0.948182
6547.260742 5467.974609 5986.846191 0.152470 -0.278755 0.948182
6569.893555 4913.519531 5820.203125 0.152470 -0.278755 0.948182
6761.337891 3440.301270 5927.199219 0.067559 0.620330 0.781426
6574.628418 3602.371582 5814.683105 0.067559 0.620330 0.781426
6098.164551 3528.249512 5914.717773 0.067559 0.620330 0.781426
6547.260742 5467.974609 5986.846191 -0.298800 0.830795 0.469573
5822.542480 5304.096680 5815.633789 -0.298800 0.830795 0.469573
6173.546387 5239.625000 6153.052246 -0.298800 0.830795 0.469573
7066.649902 5313.619141 5857.948242 0.358944 0.642252 0.677253
6657.293457 5540.704102 5859.558105 0.358944 0.642252 0.677253
6547.260742 5467.974609 5986.846191 0.358944 0.642252 0.677253
5572.971680 4351.262207 6031.149414 -0.804643 -0.546358 0.232470
6098.164551 3528.249512 5914.717773 -0.804643 -0.546358 0.232470
5862.104492 3914.716064 6005.934082 -0.804643 -0.546358 0.232470
6569.893555 4913.519531 5820.203125 0.432856 -0.751279 0.498213
6198.758789 4964.799316 6219.979004 0.432856 -0.751279 0.498213
6033.626465 4652.161621 5892.007812 0.432856 -0.751279 0.498213
6217.091309 3977.555664 5782.021484 0.656389 -0.471867 0.588638
6179.546875 4189.567871 5993.841797 0.656389 -0.471867 0.588638
5948.930176 4090.094238 6171.261719 0.656389 -0.471867 0.588638
5822.542480 5304.096680 5815.633789 -0.465938 0.643215 0.607599
5741.564941 4924.901367 6154.958984 -0.465938 0.643215 0.607599
6173.546387 5239.625000 6153.052246 -0.465938 0.643215 0.607599
6217.091309 3977.555664 5782.021484 0.457208 -0.719351 0.522968
5948.930176 4090.094238 6171.261719 0.457208 -0.719351 0.522968
5862.104492 3914.716064 6005.934082 0.457208 -0.719351 0.522968
6569.893555 4913.519531 5820.203125 0.710088 -0.175926 0.681781
6547.260742 5467.974609 5986.846191 0.710088 -0.175926 0.681781
6198.758789 4964.799316 6219.979004 0.710088 -0.175926 0.681781
7308.796875 3770.547119 6034.125977 0.390986 -0.358634 0.847651
7122.157227 3518.665283 6013.645996 0.390986 -0.358634 0.847651
7341.400879 3297.981445 5819.148438 0.390986 -0.358634 0.847651
7308.796875 3770.547119 6034.125977 -0.254141 0.110187 0.960870
6761.337891 3440.301270 5927.199219 -0.254141 0.110187 0.960870
7122.157227 3518.665283 6013.645996 -0.254141 0.110187 0.960870
6179.546875 4189.567871 5993.841797 0.766714 0.359013 0.532220
6033.626465 4652.161621 5892.007812 0.766714 0.359013 0.532220
5923.284180 4567.509277 6108.069336 0.766714 0.359013 0.532220
5822.542480 5304.096680 5815.633789 -0.787719 0.495619 0.365869
5561.973633 4677.705566 6103.157227 -0.787719 0.495619 0.365869
5741.564941 4924.901367 6154.958984 -0.787719 0.495619 0.365869
6033.626465 4652.161621 5892.007812 0.786915 -0.593352 0.169403
6198.758789 4964.799316 6219.979004 0.786915 -0.593352 0.169403
5923.284180 4567.509277 6108.069336 0.786915 -0.593352 0.169403
6198.758789 4964.799316 6219.979004 0.261203 0.250950 0.932093
6547.260742 5467.974609 5986.846191 0.261203 0.250950 0.932093
6173.546387 5239.625000 6153.052246 0.261203 0.250950 0.932093
5862.104492 3914.716064 6005.934082 -0.661629 -0.471869 0.582740
5757.804688 4309.165039 6206.916504 -0.661629 -0.471869 0.582740
5572.971680 4351.262207 6031.149414 -0.661629 -0.471869 0.582740
5757.804688 4309.165039 6206.916504 -0.699106 -0.176399 0.692917
5561.973633 4677.705566 6103.157227 -0.699106 -0.176399 0.692917
5572.971680 4351.262207 6031.149414 -0.699106 -0.176399 0.692917
5923.284180 4567.509277 6108.069336 0.046950 -0.300860 0.952512
6198.758789 4964.799316 6219.979004 0.046950 -0.300860 0.952512
5908.285645 4841.506836 6195.353516 0.046950 -0.300860 0.952512
6179.546875 4189.567871 5993.841797 0.565850 0.137992 0.812879
5923.284180 4567.509277 6108.069336 0.565850 0.137992 0.812879
5948.930176 4090.094238 6171.261719 0.565850 0.137992 0.812879
5862.104492 3914.716064 6005.934082 -0.429743 -0.497559 0.753496
5948.930176 4090.094238 6171.261719 -0.429743 -0.497559 0.753496
5757.804688 4309.165039 6206.916504 -0.429743 -0.497559 0.753496
5948.930176 4090.094238 6171.261719 0.335703 0.141305 0.931309
5923.284180 4567.509277 6108.069336 0.335703 0.141305 0.931309
5757.804688 4309.165039 6206.916504 0.335703 0.141305 0.931309
5923.284180 4567.509277 6108.069336 0.698185 -0.182323 0.692312
5908.285645 4841.506836 6195.353516 0.698185 -0.182323 0.692312
5757.804688 4309.165039 6206.916504 0.698185 -0.182323 0.692312
5741.564941 4924.901367 6154.958984 -0.362819 0.068849 0.929313
5561.973633 4677.705566 6103.157227 -0.362819 0.068849 0.929313
5757.804688 4309.165039 6206.916504 -0.362819 0.068849 0.929313
5908.285645 4841.506836 6195.353516 -0.198118 0.077228 0.977131
5741.564941 4924.901367 6154.958984 -0.198118 0.077228 0.977131
5757.804688 4309.165039 6206.916504 -0.198118 0.077228 0.977131
6198.758789 4964.799316 6219.979004 -0.153027 0.165949 0.974189
5741.564941 4924.901367 6154.958984 -0.153027 0.165949 0.974189
5908.285645 4841.506836 6195.353516 -0.153027 0.165949 0.974189
6173.546387 5239.625000 6153.052246 -0.156150 0.220161 0.962884
5741.564941 4924.901367 6154.958984 -0.156150 0.220161 0.962884
6198.758789 4964.799316 6219.979004 -0.156150 0.220161 0.962884
3 0 1 2
3 3 4 5
3 6 7 8
3 9 10 11
3 12 13 14
3 15 16 17
3 18 19 20
3 21 22 23
3 24 25 26
3 27 28 29
3 30 31 32
3 33 34 35
3 36 37 38
3 39 40 41
3 42 43 44
3 45 46 47
3 48 49 50
3 51 52 53
3 54 55 56
3 57 58 59
3 60 61 62
3 63 64 65
3 66 67 68
3 69 70 71
3 72 73 74
3 75 76 77
3 78 79 80
3 81 82 83
3 84 85 86
3 87 88 89
3 90 91 92
3 93 94 95
3 96 97 98
3 99 100 101
3 102 103 104
3 105 106 107
3 108 109 110
3 111 112 113
3 114 115 116
3 117 118 119
3 120 121 122
3 123 124 125
3 126 127 128
3 129 130 131
3 132 133 134
3 135 136 137
3 138 139 140
3 141 142 143
3 144 145 146
3 147 148 149
3 150 151 152
3 153 154 155
3 156 157 158
3 159 160 161
3 162 163 164
3 165 166 167
3 168 169 170
3 171 172 173
3 174 175 176
3 177 178 179
3 180 181 182
3 183 184 185
3 186 187 188
3 189 190 191
3 192 193 194
3 195 196 197
3 198 199 200
3 201 202 203
3 204 205 206
3 207 208 209
3 210 211 212
3 213 214 215
3 216 217 218
3 219 220 221
3 222 223 224
3 225 226 227
3 228 229 230
3 231 232 233
3 234 235 236
3 237 238 239
3 240 241 242
3 243 244 245
3 246 247 248
3 249 250 251
3 252 253 254
3 255 256 257
3 258 259 260
3 261 262 263
3 264 265 266
3 267 268 269
3 270 271 272
3 273 274 275
3 276 277 278
3 279 280 281
3 282 283 284
3 285 286 287
3 288 289 290
3 291 292 293
3 294 295 296
3 297 298 299
3 300 301 302
3 303 304 305
3 306 307 308
3 309 310 311
3 312 313 314
3 315 316 317
3 318 319 320
3 321 322 323
3 324 325 326
3 327 328 329
