ply
format ascii 1.0
comment Created by Blender 2.80 (sub 75) - www.blender.org, source file: 'downsample_ccf.blend'
element vertex 60
property float x
property float y
property float z
property float nx
property float ny
property float nz
element face 20
property list uchar uint vertex_indices
end_header
9233.592773 3128.220459 3517.289307 -0.278174 -0.260161 -0.924627
9088.198242 3034.739014 3587.333984 -0.278174 -0.260161 -0.924627
8933.160156 3712.126465 3443.382080 -0.278174 -0.260161 -0.924627
8933.160156 3712.126465 3443.382080 -0.523836 -0.290094 -0.800900
9088.198242 3034.739014 3587.333984 -0.523836 -0.290094 -0.800900
8864.477539 3223.914551 3665.139404 -0.523836 -0.290094 -0.800900
9233.592773 3128.220459 3517.289307 0.653164 0.245396 -0.716350
8933.160156 3712.126465 3443.382080 0.653164 0.245396 -0.716350
9248.489258 3309.078369 3592.827393 0.653164 0.245396 -0.716350
8931.041016 3446.780273 3677.637451 -0.922537 0.259518 0.285616
8933.160156 3712.126465 3443.382080 -0.922537 0.259518 0.285616
8864.477539 3223.914551 3665.139404 -0.922537 0.259518 0.285616
9248.489258 3309.078369 3592.827393 0.437788 0.593063 0.675735
8933.160156 3712.126465 3443.382080 0.437788 0.593063 0.675735
8931.041016 3446.780273 3677.637451 0.437788 0.593063 0.675735
9204.376953 2916.659912 3709.475098 0.994176 -0.099337 0.041782
9233.592773 3128.220459 3517.289307 0.994176 -0.099337 0.041782
9248.489258 3309.078369 3592.827393 0.994176 -0.099337 0.041782
9204.376953 2916.659912 3709.475098 0.082191 -0.676321 -0.732008
9088.198242 3034.739014 3587.333984 0.082191 -0.676321 -0.732008
9233.592773 3128.220459 3517.289307 0.082191 -0.676321 -0.732008
9088.198242 3034.739014 3587.333984 -0.661260 -0.744631 -0.090887
9204.376953 2916.659912 3709.475098 -0.661260 -0.744631 -0.090887
8864.477539 3223.914551 3665.139404 -0.661260 -0.744631 -0.090887
9248.489258 3309.078369 3592.827393 0.343697 0.231867 0.910006
8931.041016 3446.780273 3677.637451 0.343697 0.231867 0.910006
9204.376953 2916.659912 3709.475098 0.343697 0.231867 0.910006
8864.477539 3223.914551 3665.139404 -0.141183 -0.013345 0.989894
9204.376953 2916.659912 3709.475098 -0.141183 -0.013345 0.989894
8931.041016 3446.780273 3677.637451 -0.141183 -0.013345 0.989894
9221.583984 2890.852051 7680.053711 0.316269 0.219473 -0.922933
8930.582031 3221.007080 7658.844238 0.316269 0.219473 -0.922933
9221.083008 3416.917236 7804.979980 0.316269 0.219473 -0.922933
8897.699219 3615.088379 7809.163086 0.211135 0.363690 -0.907277
9221.083008 3416.917236 7804.979980 0.211135 0.363690 -0.907277
8930.582031 3221.007080 7658.844238 0.211135 0.363690 -0.907277
9221.583984 2890.852051 7680.053711 -0.678915 -0.623328 -0.387990
8858.136719 3233.194092 7766.031738 -0.678915 -0.623328 -0.387990
8930.582031 3221.007080 7658.844238 -0.678915 -0.623328 -0.387990
8897.699219 3615.088379 7809.163086 -0.811515 0.147915 -0.565300
8930.582031 3221.007080 7658.844238 -0.811515 0.147915 -0.565300
8858.136719 3233.194092 7766.031738 -0.811515 0.147915 -0.565300
9188.958984 3189.680420 7895.470215 0.974579 -0.050886 0.218191
9221.583984 2890.852051 7680.053711 0.974579 -0.050886 0.218191
9221.083008 3416.917236 7804.979980 0.974579 -0.050886 0.218191
8897.699219 3615.088379 7809.163086 0.386238 0.644214 -0.660158
8964.432617 3699.104492 7930.193848 0.386238 0.644214 -0.660158
9221.083008 3416.917236 7804.979980 0.386238 0.644214 -0.660158
8858.136719 3233.194092 7766.031738 -0.363230 -0.570600 0.736532
9221.583984 2890.852051 7680.053711 -0.363230 -0.570600 0.736532
9188.958984 3189.680420 7895.470215 -0.363230 -0.570600 0.736532
8858.136719 3233.194092 7766.031738 -0.886425 0.039746 0.461163
8964.432617 3699.104492 7930.193848 -0.886425 0.039746 0.461163
8897.699219 3615.088379 7809.163086 -0.886425 0.039746 0.461163
9188.958984 3189.680420 7895.470215 0.610350 0.217082 0.761806
9221.083008 3416.917236 7804.979980 0.610350 0.217082 0.761806
8964.432617 3699.104492 7930.193848 0.610350 0.217082 0.761806
8858.136719 3233.194092 7766.031738 -0.380654 -0.228842 0.895954
9188.958984 3189.680420 7895.470215 -0.380654 -0.228842 0.895954
8964.432617 3699.104492 7930.193848 -0.380654 -0.228842 0.895954
3 0 1 2
3 3 4 5
3 6 7 8
3 9 10 11
3 12 13 14
3 15 16 17
3 18 19 20
3 21 22 23
3 24 25 26
3 27 28 29
3 30 31 32
3 33 34 35
3 36 37 38
3 39 40 41
3 42 43 44
3 45 46 47
3 48 49 50
3 51 52 53
3 54 55 56
3 57 58 59
