ply
format ascii 1.0
comment Created by Blender 2.80 (sub 75) - www.blender.org, source file: 'downsample_ccf.blend'
element vertex 105
property float x
property float y
property float z
property float nx
property float ny
property float nz
element face 35
property list uchar uint vertex_indices
end_header
7100.065430 5257.837891 4010.846436 -0.090280 -0.460674 -0.882966
6202.172852 5236.562012 4113.753418 -0.090280 -0.460674 -0.882966
6219.767090 5290.012695 4084.067383 -0.090280 -0.460674 -0.882966
6219.767090 5290.012695 4084.067383 -0.125222 -0.449892 -0.884261
6202.172852 5236.562012 4113.753418 -0.125222 -0.449892 -0.884261
6067.162109 5266.514648 4117.633301 -0.125222 -0.449892 -0.884261
7100.065430 5257.837891 4010.846436 0.225502 0.584495 -0.779432
7655.319824 5424.444824 4296.428711 0.225502 0.584495 -0.779432
7447.007324 5239.743652 4097.653320 0.225502 0.584495 -0.779432
7447.007324 5239.743652 4097.653320 -0.162184 -0.869251 0.467012
7662.639160 5353.520508 4384.311035 -0.162184 -0.869251 0.467012
7100.065430 5257.837891 4010.846436 -0.162184 -0.869251 0.467012
6219.767090 5290.012695 4084.067383 -0.051113 0.529116 -0.847009
6675.895020 5579.831543 4237.588379 -0.051113 0.529116 -0.847009
7100.065430 5257.837891 4010.846436 -0.051113 0.529116 -0.847009
7662.639160 5353.520508 4384.311035 -0.189611 -0.843923 0.501839
6763.174316 5486.345215 4267.829590 -0.189611 -0.843923 0.501839
7100.065430 5257.837891 4010.846436 -0.189611 -0.843923 0.501839
6067.162109 5266.514648 4117.633301 -0.198194 0.951598 -0.234903
6304.269531 5335.895020 4198.640625 -0.198194 0.951598 -0.234903
6219.767090 5290.012695 4084.067383 -0.198194 0.951598 -0.234903
6304.269531 5335.895020 4198.640625 -0.106417 -0.580499 0.807277
6069.320801 5265.643066 4117.152344 -0.106417 -0.580499 0.807277
6202.172852 5236.562012 4113.753418 -0.106417 -0.580499 0.807277
6202.172852 5236.562012 4113.753418 0.097438 -0.702558 0.704924
7100.065430 5257.837891 4010.846436 0.097438 -0.702558 0.704924
6304.269531 5335.895020 4198.640625 0.097438 -0.702558 0.704924
6069.320801 5265.643066 4117.152344 -0.080891 -0.627622 0.774305
6304.269531 5335.895020 4198.640625 -0.080891 -0.627622 0.774305
6067.162109 5266.514648 4117.633301 -0.080891 -0.627622 0.774305
6675.895020 5579.831543 4237.588379 -0.552691 0.829982 0.075255
6219.767090 5290.012695 4084.067383 -0.552691 0.829982 0.075255
6304.269531 5335.895020 4198.640625 -0.552691 0.829982 0.075255
6675.895020 5579.831543 4237.588379 0.152516 0.695415 -0.702237
7655.319824 5424.444824 4296.428711 0.152516 0.695415 -0.702237
7100.065430 5257.837891 4010.846436 0.152516 0.695415 -0.702237
6304.269531 5335.895020 4198.640625 0.108132 -0.668294 0.735996
7100.065430 5257.837891 4010.846436 0.108132 -0.668294 0.735996
6763.174316 5486.345215 4267.829590 0.108132 -0.668294 0.735996
6675.895020 5579.831543 4237.588379 -0.191149 0.135998 0.972094
6304.269531 5335.895020 4198.640625 -0.191149 0.135998 0.972094
6763.174316 5486.345215 4267.829590 -0.191149 0.135998 0.972094
6675.895020 5579.831543 4237.588379 0.157642 0.750706 -0.641552
7367.446289 5553.170898 4376.319824 0.157642 0.750706 -0.641552
7655.319824 5424.444824 4296.428711 0.157642 0.750706 -0.641552
7447.007324 5239.743652 4097.653320 0.792698 -0.440443 -0.421474
7655.319824 5424.444824 4296.428711 0.792698 -0.440443 -0.421474
7662.639160 5353.520508 4384.311035 0.792698 -0.440443 -0.421474
7662.639160 5353.520508 4384.311035 -0.153389 -0.187962 0.970125
7367.446289 5553.170898 4376.319824 -0.153389 -0.187962 0.970125
6763.174316 5486.345215 4267.829590 -0.153389 -0.187962 0.970125
7367.446289 5553.170898 4376.319824 -0.189733 0.137348 0.972181
6675.895020 5579.831543 4237.588379 -0.189733 0.137348 0.972181
6763.174316 5486.345215 4267.829590 -0.189733 0.137348 0.972181
7655.319824 5424.444824 4296.428711 0.464258 0.707742 0.532508
7367.446289 5553.170898 4376.319824 0.464258 0.707742 0.532508
7662.639160 5353.520508 4384.311035 0.464258 0.707742 0.532508
7686.818848 5380.147949 7066.736328 0.102726 -0.863406 -0.493940
7521.443848 5256.717285 7248.099121 0.102726 -0.863406 -0.493940
7588.255371 5426.373535 6965.435547 0.102726 -0.863406 -0.493940
7588.255371 5426.373535 6965.435547 -0.188792 -0.717211 -0.670795
7022.234863 5295.707520 7264.446289 -0.188792 -0.717211 -0.670795
6627.807129 5515.082031 7140.901855 -0.188792 -0.717211 -0.670795
7588.255371 5426.373535 6965.435547 0.471928 0.879745 -0.057731
7304.612305 5583.892578 7047.148438 0.471928 0.879745 -0.057731
7686.818848 5380.147949 7066.736328 0.471928 0.879745 -0.057731
7588.255371 5426.373535 6965.435547 -0.155712 0.219251 -0.963163
6627.807129 5515.082031 7140.901855 -0.155712 0.219251 -0.963163
7304.612305 5583.892578 7047.148438 -0.155712 0.219251 -0.963163
7304.612305 5583.892578 7047.148438 -0.153195 0.183905 -0.970933
6627.807129 5515.082031 7140.901855 -0.153195 0.183905 -0.970933
6611.228027 5562.359863 7152.472656 -0.153195 0.183905 -0.970933
7521.443848 5256.717285 7248.099121 -0.083312 -0.845623 -0.527239
7022.234863 5295.707520 7264.446289 -0.083312 -0.845623 -0.527239
7588.255371 5426.373535 6965.435547 -0.083312 -0.845623 -0.527239
7304.612305 5583.892578 7047.148438 0.302916 0.636440 0.709356
7521.443848 5256.717285 7248.099121 0.302916 0.636440 0.709356
7686.818848 5380.147949 7066.736328 0.302916 0.636440 0.709356
6058.411133 5244.227051 7228.008301 0.056355 -0.411078 -0.909857
6627.807129 5515.082031 7140.901855 0.056355 -0.411078 -0.909857
7022.234863 5295.707520 7264.446289 0.056355 -0.411078 -0.909857
7153.412598 5257.166016 7369.990723 0.247171 0.620776 0.744005
7521.443848 5256.717285 7248.099121 0.247171 0.620776 0.744005
7304.612305 5583.892578 7047.148438 0.247171 0.620776 0.744005
7022.234863 5295.707520 7264.446289 0.064119 -0.909079 -0.411659
7153.412598 5257.166016 7369.990723 0.064119 -0.909079 -0.411659
6058.411133 5244.227051 7228.008301 0.064119 -0.909079 -0.411659
6611.228027 5562.359863 7152.472656 -0.364197 0.098928 -0.926053
6627.807129 5515.082031 7140.901855 -0.364197 0.098928 -0.926053
6141.077148 5253.018066 7304.326660 -0.364197 0.098928 -0.926053
7304.612305 5583.892578 7047.148438 0.089639 0.678740 0.728888
6611.228027 5562.359863 7152.472656 0.089639 0.678740 0.728888
7153.412598 5257.166016 7369.990723 0.089639 0.678740 0.728888
6611.228027 5562.359863 7152.472656 -0.057781 0.509318 0.858636
6141.077148 5253.018066 7304.326660 -0.057781 0.509318 0.858636
7153.412598 5257.166016 7369.990723 -0.057781 0.509318 0.858636
6141.077148 5253.018066 7304.326660 -0.371606 0.878116 0.301365
6627.807129 5515.082031 7140.901855 -0.371606 0.878116 0.301365
6058.411133 5244.227051 7228.008301 -0.371606 0.878116 0.301365
7153.412598 5257.166016 7369.990723 -0.003604 -0.992973 0.118283
6141.077148 5253.018066 7304.326660 -0.003604 -0.992973 0.118283
6058.411133 5244.227051 7228.008301 -0.003604 -0.992973 0.118283
7521.443848 5256.717285 7248.099121 -0.083511 -0.965001 -0.248595
7153.412598 5257.166016 7369.990723 -0.083511 -0.965001 -0.248595
7022.234863 5295.707520 7264.446289 -0.083511 -0.965001 -0.248595
3 0 1 2
3 3 4 5
3 6 7 8
3 9 10 11
3 12 13 14
3 15 16 17
3 18 19 20
3 21 22 23
3 24 25 26
3 27 28 29
3 30 31 32
3 33 34 35
3 36 37 38
3 39 40 41
3 42 43 44
3 45 46 47
3 48 49 50
3 51 52 53
3 54 55 56
3 57 58 59
3 60 61 62
3 63 64 65
3 66 67 68
3 69 70 71
3 72 73 74
3 75 76 77
3 78 79 80
3 81 82 83
3 84 85 86
3 87 88 89
3 90 91 92
3 93 94 95
3 96 97 98
3 99 100 101
3 102 103 104
