ply
format ascii 1.0
comment Created by Blender 2.80 (sub 75) - www.blender.org, source file: 'downsample_ccf.blend'
element vertex 336
property float x
property float y
property float z
property float nx
property float ny
property float nz
element face 112
property list uchar uint vertex_indices
end_header
11595.005859 5298.853516 4076.870605 -0.151133 0.210844 -0.965766
11426.129883 5279.079102 4098.980957 -0.151133 0.210844 -0.965766
11154.231445 5390.098633 4165.768066 -0.151133 0.210844 -0.965766
11154.231445 5390.098633 4165.768066 0.020674 0.747130 -0.664356
11620.921875 5502.730469 4306.955566 0.020674 0.747130 -0.664356
11595.005859 5298.853516 4076.870605 0.020674 0.747130 -0.664356
11426.129883 5279.079102 4098.980957 -0.395728 -0.913731 -0.092171
11573.944336 5170.835938 4537.416016 -0.395728 -0.913731 -0.092171
11154.231445 5390.098633 4165.768066 -0.395728 -0.913731 -0.092171
11595.005859 5298.853516 4076.870605 0.251517 0.710151 -0.657591
11620.921875 5502.730469 4306.955566 0.251517 0.710151 -0.657591
12319.332031 5424.060059 4489.126465 0.251517 0.710151 -0.657591
12275.768555 5234.997070 4465.480469 0.074253 -0.955046 -0.287009
11426.129883 5279.079102 4098.980957 0.074253 -0.955046 -0.287009
11595.005859 5298.853516 4076.870605 0.074253 -0.955046 -0.287009
12319.332031 5424.060059 4489.126465 0.495360 -0.005496 -0.868670
12275.768555 5234.997070 4465.480469 0.495360 -0.005496 -0.868670
11595.005859 5298.853516 4076.870605 0.495360 -0.005496 -0.868670
12275.768555 5234.997070 4465.480469 0.161799 -0.862845 -0.478872
12326.701172 5001.477539 4903.451172 0.161799 -0.862845 -0.478872
11426.129883 5279.079102 4098.980957 0.161799 -0.862845 -0.478872
11154.231445 5390.098633 4165.768066 -0.300397 0.917376 0.261118
11875.001953 5480.036133 4678.986816 -0.300397 0.917376 0.261118
11620.921875 5502.730469 4306.955566 -0.300397 0.917376 0.261118
11426.129883 5279.079102 4098.980957 -0.122044 -0.972386 -0.198922
12326.701172 5001.477539 4903.451172 -0.122044 -0.972386 -0.198922
11573.944336 5170.835938 4537.416016 -0.122044 -0.972386 -0.198922
11573.944336 5170.835938 4537.416016 -0.528244 -0.843297 0.099038
11387.076172 5307.152832 4701.429199 -0.528244 -0.843297 0.099038
11154.231445 5390.098633 4165.768066 -0.528244 -0.843297 0.099038
11387.076172 5307.152832 4701.429199 -0.309762 0.910007 0.275562
11875.001953 5480.036133 4678.986816 -0.309762 0.910007 0.275562
11154.231445 5390.098633 4165.768066 -0.309762 0.910007 0.275562
12319.332031 5424.060059 4489.126465 0.126916 0.990159 -0.058972
11620.921875 5502.730469 4306.955566 0.126916 0.990159 -0.058972
12580.348633 5409.456543 4805.673340 0.126916 0.990159 -0.058972
11620.921875 5502.730469 4306.955566 0.101043 0.994847 -0.008321
11875.001953 5480.036133 4678.986816 0.101043 0.994847 -0.008321
12580.348633 5409.456543 4805.673340 0.101043 0.994847 -0.008321
12319.332031 5424.060059 4489.126465 0.765704 -0.096906 -0.635851
12580.348633 5409.456543 4805.673340 0.765704 -0.096906 -0.635851
12275.768555 5234.997070 4465.480469 0.765704 -0.096906 -0.635851
11903.728516 5114.846191 4964.974121 -0.249384 -0.966164 0.065833
11573.944336 5170.835938 4537.416016 -0.249384 -0.966164 0.065833
12326.701172 5001.477539 4903.451172 -0.249384 -0.966164 0.065833
11573.944336 5170.835938 4537.416016 -0.438255 -0.870456 0.224140
11633.589844 5256.732910 4987.623047 -0.438255 -0.870456 0.224140
11387.076172 5307.152832 4701.429199 -0.438255 -0.870456 0.224140
12326.701172 5001.477539 4903.451172 0.741610 -0.552320 -0.380732
12275.768555 5234.997070 4465.480469 0.741610 -0.552320 -0.380732
12580.348633 5409.456543 4805.673340 0.741610 -0.552320 -0.380732
11387.076172 5307.152832 4701.429199 -0.310550 0.911477 0.269755
11800.409180 5359.035156 5001.964355 -0.310550 0.911477 0.269755
11875.001953 5480.036133 4678.986816 -0.310550 0.911477 0.269755
11903.728516 5114.846191 4964.974121 -0.438371 -0.870396 0.224144
11633.589844 5256.732910 4987.623047 -0.438371 -0.870396 0.224144
11573.944336 5170.835938 4537.416016 -0.438371 -0.870396 0.224144
12580.348633 5409.456543 4805.673340 0.614093 -0.523371 -0.590739
12711.640625 4989.464355 5314.252441 0.614093 -0.523371 -0.590739
12326.701172 5001.477539 4903.451172 0.614093 -0.523371 -0.590739
11387.076172 5307.152832 4701.429199 -0.475235 0.700264 0.532713
11633.589844 5256.732910 4987.623047 -0.475235 0.700264 0.532713
11800.409180 5359.035156 5001.964355 -0.475235 0.700264 0.532713
12689.233398 5519.135742 5022.380371 -0.175447 0.934541 0.309598
11875.001953 5480.036133 4678.986816 -0.175447 0.934541 0.309598
11800.409180 5359.035156 5001.964355 -0.175447 0.934541 0.309598
12580.348633 5409.456543 4805.673340 0.176271 0.839743 -0.513576
11875.001953 5480.036133 4678.986816 0.176271 0.839743 -0.513576
12689.233398 5519.135742 5022.380371 0.176271 0.839743 -0.513576
12888.468750 5484.630371 5061.728516 0.245509 0.809631 -0.533125
12580.348633 5409.456543 4805.673340 0.245509 0.809631 -0.533125
12689.233398 5519.135742 5022.380371 0.245509 0.809631 -0.533125
12326.701172 5001.477539 4903.451172 -0.286645 -0.914487 -0.285567
12084.420898 5019.363281 5089.369629 -0.286645 -0.914487 -0.285567
11903.728516 5114.846191 4964.974121 -0.286645 -0.914487 -0.285567
12711.640625 4989.464355 5314.252441 0.617117 -0.521071 -0.589620
12580.348633 5409.456543 4805.673340 0.617117 -0.521071 -0.589620
12888.468750 5484.630371 5061.728516 0.617117 -0.521071 -0.589620
12326.701172 5001.477539 4903.451172 -0.241749 -0.944080 -0.224213
12378.177734 4872.409180 5391.408203 -0.241749 -0.944080 -0.224213
12084.420898 5019.363281 5089.369629 -0.241749 -0.944080 -0.224213
12378.177734 4872.409180 5391.408203 -0.147632 -0.959899 -0.238326
12326.701172 5001.477539 4903.451172 -0.147632 -0.959899 -0.238326
12484.568359 4895.633789 5231.963379 -0.147632 -0.959899 -0.238326
12484.568359 4895.633789 5231.963379 0.477070 -0.743406 -0.468776
12326.701172 5001.477539 4903.451172 0.477070 -0.743406 -0.468776
12711.640625 4989.464355 5314.252441 0.477070 -0.743406 -0.468776
12212.305664 5221.733887 5121.038086 -0.219361 -0.546641 0.808124
11633.589844 5256.732910 4987.623047 -0.219361 -0.546641 0.808124
11903.728516 5114.846191 4964.974121 -0.219361 -0.546641 0.808124
12212.305664 5221.733887 5121.038086 -0.208062 0.205211 0.956347
11800.409180 5359.035156 5001.964355 -0.208062 0.205211 0.956347
11633.589844 5256.732910 4987.623047 -0.208062 0.205211 0.956347
12711.640625 4989.464355 5314.252441 0.741005 -0.495656 -0.453031
12888.468750 5484.630371 5061.728516 0.741005 -0.495656 -0.453031
13126.183594 5519.339844 5412.573730 0.741005 -0.495656 -0.453031
12689.233398 5519.135742 5022.380371 -0.102732 0.457713 0.883145
11800.409180 5359.035156 5001.964355 -0.102732 0.457713 0.883145
12212.305664 5221.733887 5121.038086 -0.102732 0.457713 0.883145
12689.233398 5519.135742 5022.380371 -0.322292 0.720521 0.613985
12212.305664 5221.733887 5121.038086 -0.322292 0.720521 0.613985
12576.053711 5195.636719 5342.601074 -0.322292 0.720521 0.613985
12888.468750 5484.630371 5061.728516 0.235014 0.875495 -0.422228
12689.233398 5519.135742 5022.380371 0.235014 0.875495 -0.422228
13026.861328 5586.294434 5349.560059 0.235014 0.875495 -0.422228
12085.842773 5014.914062 5248.290527 -0.455858 -0.889809 -0.020833
11903.728516 5114.846191 4964.974121 -0.455858 -0.889809 -0.020833
12084.420898 5019.363281 5089.369629 -0.455858 -0.889809 -0.020833
12212.305664 5221.733887 5121.038086 -0.509243 0.654923 0.558344
11903.728516 5114.846191 4964.974121 -0.509243 0.654923 0.558344
12085.842773 5014.914062 5248.290527 -0.509243 0.654923 0.558344
12212.305664 5221.733887 5121.038086 -0.365871 0.639651 0.676006
12085.842773 5014.914062 5248.290527 -0.365871 0.639651 0.676006
12576.053711 5195.636719 5342.601074 -0.365871 0.639651 0.676006
12084.420898 5019.363281 5089.369629 -0.429584 -0.902773 -0.021431
12378.177734 4872.409180 5391.408203 -0.429584 -0.902773 -0.021431
12085.842773 5014.914062 5248.290527 -0.429584 -0.902773 -0.021431
13126.183594 5519.339844 5412.573730 0.679267 0.525562 -0.512231
12888.468750 5484.630371 5061.728516 0.679267 0.525562 -0.512231
13026.861328 5586.294434 5349.560059 0.679267 0.525562 -0.512231
12576.053711 5195.636719 5342.601074 -0.219596 0.847676 -0.482932
12085.842773 5014.914062 5248.290527 -0.219596 0.847676 -0.482932
12126.554688 5167.144531 5496.983398 -0.219596 0.847676 -0.482932
12576.053711 5195.636719 5342.601074 -0.583627 0.665192 0.465724
13026.861328 5586.294434 5349.560059 -0.583627 0.665192 0.465724
12689.233398 5519.135742 5022.380371 -0.583627 0.665192 0.465724
12484.568359 4895.633789 5231.963379 0.349662 -0.931779 0.097592
12711.640625 4989.464355 5314.252441 0.349662 -0.931779 0.097592
12378.177734 4872.409180 5391.408203 0.349662 -0.931779 0.097592
12711.640625 4989.464355 5314.252441 0.789697 -0.612933 -0.026292
13126.183594 5519.339844 5412.573730 0.789697 -0.612933 -0.026292
12935.384766 5262.074219 5679.317871 0.789697 -0.612933 -0.026292
13042.236328 5586.379883 5579.806152 -0.654655 0.754679 0.043435
13026.861328 5586.294434 5349.560059 -0.654655 0.754679 0.043435
12576.053711 5195.636719 5342.601074 -0.654655 0.754679 0.043435
13126.183594 5519.339844 5412.573730 0.575324 0.817009 -0.038721
13026.861328 5586.294434 5349.560059 0.575324 0.817009 -0.038721
13042.236328 5586.379883 5579.806152 0.575324 0.817009 -0.038721
12378.177734 4872.409180 5391.408203 -0.564485 -0.659655 0.496198
12126.554688 5167.144531 5496.983398 -0.564485 -0.659655 0.496198
12085.842773 5014.914062 5248.290527 -0.564485 -0.659655 0.496198
12711.640625 4989.464355 5314.252441 0.384003 -0.837057 0.389715
12935.384766 5262.074219 5679.317871 0.384003 -0.837057 0.389715
12378.177734 4872.409180 5391.408203 0.384003 -0.837057 0.389715
12935.384766 5262.074219 5679.317871 0.157899 -0.722845 0.672728
12500.069336 5170.829590 5683.450684 0.157899 -0.722845 0.672728
12378.177734 4872.409180 5391.408203 0.157899 -0.722845 0.672728
12576.053711 5195.636719 5342.601074 -0.267783 0.712921 -0.648102
12126.554688 5167.144531 5496.983398 -0.267783 0.712921 -0.648102
13042.236328 5586.379883 5579.806152 -0.267783 0.712921 -0.648102
12126.554688 5167.144531 5496.983398 -0.494378 -0.634779 0.593840
12378.177734 4872.409180 5391.408203 -0.494378 -0.634779 0.593840
12265.218750 5246.771973 5697.539551 -0.494378 -0.634779 0.593840
12265.218750 5246.771973 5697.539551 -0.167168 -0.653863 0.737915
12378.177734 4872.409180 5391.408203 -0.167168 -0.653863 0.737915
12500.069336 5170.829590 5683.450684 -0.167168 -0.653863 0.737915
12126.554688 5167.144531 5496.983398 -0.210880 0.611292 -0.762792
12896.930664 5674.739746 5690.787598 -0.210880 0.611292 -0.762792
13042.236328 5586.379883 5579.806152 -0.210880 0.611292 -0.762792
12126.554688 5167.144531 5496.983398 -0.554493 0.831796 0.025555
12425.580078 5357.899902 5776.305664 -0.554493 0.831796 0.025555
12896.930664 5674.739746 5690.787598 -0.554493 0.831796 0.025555
12126.554688 5167.144531 5496.983398 -0.599120 0.794544 0.098770
12265.218750 5246.771973 5697.539551 -0.599120 0.794544 0.098770
12425.580078 5357.899902 5776.305664 -0.599120 0.794544 0.098770
13144.151367 5532.291504 5884.059082 0.568141 0.821742 -0.044224
13126.183594 5519.339844 5412.573730 0.568141 0.821742 -0.044224
13042.236328 5586.379883 5579.806152 0.568141 0.821742 -0.044224
13144.151367 5532.291504 5884.059082 0.509557 0.860254 -0.017754
13042.236328 5586.379883 5579.806152 0.509557 0.860254 -0.017754
12896.930664 5674.739746 5690.787598 0.509557 0.860254 -0.017754
12265.218750 5246.771973 5697.539551 -0.592476 0.802133 0.074536
12099.053711 5097.427734 5983.912109 -0.592476 0.802133 0.074536
12425.580078 5357.899902 5776.305664 -0.592476 0.802133 0.074536
13126.183594 5519.339844 5412.573730 0.796271 -0.604785 -0.013732
13144.151367 5532.291504 5884.059082 0.796271 -0.604785 -0.013732
12935.384766 5262.074219 5679.317871 0.796271 -0.604785 -0.013732
12265.218750 5246.771973 5697.539551 -0.250675 -0.640546 -0.725853
12500.069336 5170.829590 5683.450684 -0.250675 -0.640546 -0.725853
12125.266602 5007.803223 5956.755859 -0.250675 -0.640546 -0.725853
12439.024414 4851.259766 6044.267090 0.151652 -0.752536 -0.640852
12500.069336 5170.829590 5683.450684 0.151652 -0.752536 -0.640852
12935.384766 5262.074219 5679.317871 0.151652 -0.752536 -0.640852
12896.930664 5674.739746 5690.787598 -0.316862 0.523333 0.791025
13026.493164 5565.571289 5814.911133 -0.316862 0.523333 0.791025
13144.151367 5532.291504 5884.059082 -0.316862 0.523333 0.791025
12125.266602 5007.803223 5956.755859 -0.173781 -0.722431 -0.669248
12500.069336 5170.829590 5683.450684 -0.173781 -0.722431 -0.669248
12439.024414 4851.259766 6044.267090 -0.173781 -0.722431 -0.669248
12657.556641 4939.351074 6055.905273 0.777576 -0.627776 0.035675
12935.384766 5262.074219 5679.317871 0.777576 -0.627776 0.035675
13144.151367 5532.291504 5884.059082 0.777576 -0.627776 0.035675
13026.493164 5565.571289 5814.911133 -0.250808 0.581920 0.773605
12896.930664 5674.739746 5690.787598 -0.250808 0.581920 0.773605
12425.580078 5357.899902 5776.305664 -0.250808 0.581920 0.773605
12657.556641 4939.351074 6055.905273 0.355361 -0.823016 -0.443130
12439.024414 4851.259766 6044.267090 0.355361 -0.823016 -0.443130
12935.384766 5262.074219 5679.317871 0.355361 -0.823016 -0.443130
12125.266602 5007.803223 5956.755859 -0.841985 -0.084824 -0.532790
12099.053711 5097.427734 5983.912109 -0.841985 -0.084824 -0.532790
12265.218750 5246.771973 5697.539551 -0.841985 -0.084824 -0.532790
13026.493164 5565.571289 5814.911133 -0.298330 0.754592 0.584458
12425.580078 5357.899902 5776.305664 -0.298330 0.754592 0.584458
12510.482422 5165.631348 6067.880371 -0.298330 0.754592 0.584458
12510.482422 5165.631348 6067.880371 -0.247247 0.774270 0.582559
12425.580078 5357.899902 5776.305664 -0.247247 0.774270 0.582559
12099.053711 5097.427734 5983.912109 -0.247247 0.774270 0.582559
13029.967773 5583.348633 6079.816895 0.308200 0.948908 -0.067722
13144.151367 5532.291504 5884.059082 0.308200 0.948908 -0.067722
13026.493164 5565.571289 5814.911133 0.308200 0.948908 -0.067722
12848.977539 5290.595215 6239.444336 0.781615 -0.564560 0.265234
12657.556641 4939.351074 6055.905273 0.781615 -0.564560 0.265234
13144.151367 5532.291504 5884.059082 0.781615 -0.564560 0.265234
13026.493164 5565.571289 5814.911133 -0.674865 0.651403 -0.346743
12510.482422 5165.631348 6067.880371 -0.674865 0.651403 -0.346743
12701.127930 5506.192871 6336.617676 -0.674865 0.651403 -0.346743
13029.967773 5583.348633 6079.816895 -0.272802 0.960144 -0.060855
13026.493164 5565.571289 5814.911133 -0.272802 0.960144 -0.060855
12701.127930 5506.192871 6336.617676 -0.272802 0.960144 -0.060855
12439.024414 4851.259766 6044.267090 -0.459877 -0.885633 0.064561
12206.492188 5005.468750 6503.309082 -0.459877 -0.885633 0.064561
12125.266602 5007.803223 5956.755859 -0.459877 -0.885633 0.064561
12099.053711 5097.427734 5983.912109 -0.962881 -0.253632 -0.092362
12125.266602 5007.803223 5956.755859 -0.962881 -0.253632 -0.092362
12070.598633 5082.727539 6320.926270 -0.962881 -0.253632 -0.092362
12099.053711 5097.427734 5983.912109 -0.169169 0.985169 0.028689
12070.598633 5082.727539 6320.926270 -0.169169 0.985169 0.028689
12510.482422 5165.631348 6067.880371 -0.169169 0.985169 0.028689
13144.151367 5532.291504 5884.059082 0.863603 -0.001684 0.504170
13029.967773 5583.348633 6079.816895 0.863603 -0.001684 0.504170
12893.833984 5515.062988 6312.774902 0.863603 -0.001684 0.504170
12848.977539 5290.595215 6239.444336 0.824314 -0.317788 0.468527
13144.151367 5532.291504 5884.059082 0.824314 -0.317788 0.468527
12893.833984 5515.062988 6312.774902 0.824314 -0.317788 0.468527
12206.492188 5005.468750 6503.309082 -0.573192 -0.815338 0.081702
12070.598633 5082.727539 6320.926270 -0.573192 -0.815338 0.081702
12125.266602 5007.803223 5956.755859 -0.573192 -0.815338 0.081702
13029.967773 5583.348633 6079.816895 -0.010114 0.961154 0.275827
12701.127930 5506.192871 6336.617676 -0.010114 0.961154 0.275827
12893.833984 5515.062988 6312.774902 -0.010114 0.961154 0.275827
12510.482422 5165.631348 6067.880371 -0.513858 0.146478 -0.845278
12070.598633 5082.727539 6320.926270 -0.513858 0.146478 -0.845278
12188.612305 5253.409180 6278.761230 -0.513858 0.146478 -0.845278
12188.612305 5253.409180 6278.761230 -0.260244 0.683688 -0.681794
12701.127930 5506.192871 6336.617676 -0.260244 0.683688 -0.681794
12510.482422 5165.631348 6067.880371 -0.260244 0.683688 -0.681794
12701.127930 5506.192871 6336.617676 -0.088644 0.389544 -0.916732
12188.612305 5253.409180 6278.761230 -0.088644 0.389544 -0.916732
11729.702148 5294.676270 6340.671387 -0.088644 0.389544 -0.916732
12188.612305 5253.409180 6278.761230 -0.144854 -0.141756 -0.979246
12070.598633 5082.727539 6320.926270 -0.144854 -0.141756 -0.979246
11729.702148 5294.676270 6340.671387 -0.144854 -0.141756 -0.979246
11504.710938 5266.902832 6520.872070 -0.432737 -0.636537 -0.638404
11729.702148 5294.676270 6340.671387 -0.432737 -0.636537 -0.638404
12070.598633 5082.727539 6320.926270 -0.432737 -0.636537 -0.638404
12893.833984 5515.062988 6312.774902 -0.000890 0.939571 0.342354
12701.127930 5506.192871 6336.617676 -0.000890 0.939571 0.342354
12577.276367 5428.680664 6549.023438 -0.000890 0.939571 0.342354
12657.556641 4939.351074 6055.905273 0.315071 -0.839976 0.441781
12206.492188 5005.468750 6503.309082 0.315071 -0.839976 0.441781
12439.024414 4851.259766 6044.267090 0.315071 -0.839976 0.441781
12701.127930 5506.192871 6336.617676 -0.203767 0.929970 -0.305999
11729.702148 5294.676270 6340.671387 -0.203767 0.929970 -0.305999
11269.294922 5461.423828 7154.028320 -0.203767 0.929970 -0.305999
11729.702148 5294.676270 6340.671387 -0.425444 0.808511 -0.406580
11504.710938 5266.902832 6520.872070 -0.425444 0.808511 -0.406580
11269.294922 5461.423828 7154.028320 -0.425444 0.808511 -0.406580
12848.977539 5290.595215 6239.444336 0.619567 -0.352869 0.701156
12893.833984 5515.062988 6312.774902 0.619567 -0.352869 0.701156
12577.276367 5428.680664 6549.023438 0.619567 -0.352869 0.701156
12299.321289 5486.594238 6803.521973 0.627180 0.538889 0.562356
12577.276367 5428.680664 6549.023438 0.627180 0.538889 0.562356
12701.127930 5506.192871 6336.617676 0.627180 0.538889 0.562356
12070.598633 5082.727539 6320.926270 -0.348913 -0.927671 -0.132993
12206.492188 5005.468750 6503.309082 -0.348913 -0.927671 -0.132993
11504.710938 5266.902832 6520.872070 -0.348913 -0.927671 -0.132993
11504.710938 5266.902832 6520.872070 -0.348853 -0.927352 -0.135353
12206.492188 5005.468750 6503.309082 -0.348853 -0.927352 -0.135353
11268.479492 5281.518066 7029.589355 -0.348853 -0.927352 -0.135353
12577.276367 5428.680664 6549.023438 0.771799 0.117659 0.624886
12372.882812 5253.578125 6834.440430 0.771799 0.117659 0.624886
12848.977539 5290.595215 6239.444336 0.771799 0.117659 0.624886
12701.127930 5506.192871 6336.617676 -0.014349 0.999459 0.029604
11269.294922 5461.423828 7154.028320 -0.014349 0.999459 0.029604
12299.321289 5486.594238 6803.521973 -0.014349 0.999459 0.029604
12657.556641 4939.351074 6055.905273 0.642714 -0.599507 0.476979
12848.977539 5290.595215 6239.444336 0.642714 -0.599507 0.476979
12372.882812 5253.578125 6834.440430 0.642714 -0.599507 0.476979
11504.710938 5266.902832 6520.872070 -0.631486 0.643552 -0.432510
11150.665039 5382.080566 7209.175293 -0.631486 0.643552 -0.432510
11269.294922 5461.423828 7154.028320 -0.631486 0.643552 -0.432510
12372.882812 5253.578125 6834.440430 0.830901 -0.070170 0.551978
12577.276367 5428.680664 6549.023438 0.830901 -0.070170 0.551978
12345.682617 5394.111816 6893.250488 0.830901 -0.070170 0.551978
12657.556641 4939.351074 6055.905273 0.329506 -0.827561 0.454499
12372.882812 5253.578125 6834.440430 0.329506 -0.827561 0.454499
12206.492188 5005.468750 6503.309082 0.329506 -0.827561 0.454499
12577.276367 5428.680664 6549.023438 0.552423 0.706351 0.442602
12299.321289 5486.594238 6803.521973 0.552423 0.706351 0.442602
12345.682617 5394.111816 6893.250488 0.552423 0.706351 0.442602
11150.665039 5382.080566 7209.175293 -0.865067 -0.312110 -0.392742
11504.710938 5266.902832 6520.872070 -0.865067 -0.312110 -0.392742
11268.479492 5281.518066 7029.589355 -0.865067 -0.312110 -0.392742
12299.321289 5486.594238 6803.521973 -0.240946 0.714581 -0.656749
11269.294922 5461.423828 7154.028320 -0.240946 0.714581 -0.656749
11725.223633 5503.591797 7032.639648 -0.240946 0.714581 -0.656749
12206.492188 5005.468750 6503.309082 -0.196778 -0.967809 0.156917
11586.835938 5256.019043 7271.547852 -0.196778 -0.967809 0.156917
11268.479492 5281.518066 7029.589355 -0.196778 -0.967809 0.156917
12206.492188 5005.468750 6503.309082 0.268536 -0.830776 0.487545
12372.882812 5253.578125 6834.440430 0.268536 -0.830776 0.487545
11586.835938 5256.019043 7271.547852 0.268536 -0.830776 0.487545
12345.682617 5394.111816 6893.250488 0.492603 -0.253096 0.832637
11683.663086 5321.751465 7262.917969 0.492603 -0.253096 0.832637
12372.882812 5253.578125 6834.440430 0.492603 -0.253096 0.832637
12345.682617 5394.111816 6893.250488 0.269332 0.736753 0.620205
12299.321289 5486.594238 6803.521973 0.269332 0.736753 0.620205
11725.223633 5503.591797 7032.639648 0.269332 0.736753 0.620205
11683.663086 5321.751465 7262.917969 0.415710 -0.513838 0.750437
11586.835938 5256.019043 7271.547852 0.415710 -0.513838 0.750437
12372.882812 5253.578125 6834.440430 0.415710 -0.513838 0.750437
11683.663086 5321.751465 7262.917969 0.269759 0.731444 0.626274
12345.682617 5394.111816 6893.250488 0.269759 0.731444 0.626274
11725.223633 5503.591797 7032.639648 0.269759 0.731444 0.626274
11269.294922 5461.423828 7154.028320 0.095588 0.772757 0.627463
11683.663086 5321.751465 7262.917969 0.095588 0.772757 0.627463
11725.223633 5503.591797 7032.639648 0.095588 0.772757 0.627463
11586.835938 5256.019043 7271.547852 -0.304442 -0.902215 0.305488
11150.665039 5382.080566 7209.175293 -0.304442 -0.902215 0.305488
11268.479492 5281.518066 7029.589355 -0.304442 -0.902215 0.305488
11150.665039 5382.080566 7209.175293 -0.015354 0.586038 0.810138
11683.663086 5321.751465 7262.917969 -0.015354 0.586038 0.810138
11269.294922 5461.423828 7154.028320 -0.015354 0.586038 0.810138
11683.663086 5321.751465 7262.917969 -0.071470 0.232620 0.969938
11150.665039 5382.080566 7209.175293 -0.071470 0.232620 0.969938
11586.835938 5256.019043 7271.547852 -0.071470 0.232620 0.969938
3 0 1 2
3 3 4 5
3 6 7 8
3 9 10 11
3 12 13 14
3 15 16 17
3 18 19 20
3 21 22 23
3 24 25 26
3 27 28 29
3 30 31 32
3 33 34 35
3 36 37 38
3 39 40 41
3 42 43 44
3 45 46 47
3 48 49 50
3 51 52 53
3 54 55 56
3 57 58 59
3 60 61 62
3 63 64 65
3 66 67 68
3 69 70 71
3 72 73 74
3 75 76 77
3 78 79 80
3 81 82 83
3 84 85 86
3 87 88 89
3 90 91 92
3 93 94 95
3 96 97 98
3 99 100 101
3 102 103 104
3 105 106 107
3 108 109 110
3 111 112 113
3 114 115 116
3 117 118 119
3 120 121 122
3 123 124 125
3 126 127 128
3 129 130 131
3 132 133 134
3 135 136 137
3 138 139 140
3 141 142 143
3 144 145 146
3 147 148 149
3 150 151 152
3 153 154 155
3 156 157 158
3 159 160 161
3 162 163 164
3 165 166 167
3 168 169 170
3 171 172 173
3 174 175 176
3 177 178 179
3 180 181 182
3 183 184 185
3 186 187 188
3 189 190 191
3 192 193 194
3 195 196 197
3 198 199 200
3 201 202 203
3 204 205 206
3 207 208 209
3 210 211 212
3 213 214 215
3 216 217 218
3 219 220 221
3 222 223 224
3 225 226 227
3 228 229 230
3 231 232 233
3 234 235 236
3 237 238 239
3 240 241 242
3 243 244 245
3 246 247 248
3 249 250 251
3 252 253 254
3 255 256 257
3 258 259 260
3 261 262 263
3 264 265 266
3 267 268 269
3 270 271 272
3 273 274 275
3 276 277 278
3 279 280 281
3 282 283 284
3 285 286 287
3 288 289 290
3 291 292 293
3 294 295 296
3 297 298 299
3 300 301 302
3 303 304 305
3 306 307 308
3 309 310 311
3 312 313 314
3 315 316 317
3 318 319 320
3 321 322 323
3 324 325 326
3 327 328 329
3 330 331 332
3 333 334 335
