ply
format ascii 1.0
comment Created by Blender 2.80 (sub 75) - www.blender.org, source file: 'downsample_ccf.blend'
element vertex 246
property float x
property float y
property float z
property float nx
property float ny
property float nz
element face 82
property list uchar uint vertex_indices
end_header
2445.123047 3602.989014 4564.068359 -0.296583 0.206335 -0.932451
2327.644043 3569.704346 4594.069336 -0.296583 0.206335 -0.932451
2531.803711 3877.682129 4597.282715 -0.296583 0.206335 -0.932451
2659.335693 3838.822754 4593.846191 0.008966 0.117246 -0.993062
2445.123047 3602.989014 4564.068359 0.008966 0.117246 -0.993062
2531.803711 3877.682129 4597.282715 0.008966 0.117246 -0.993062
2445.123047 3602.989014 4564.068359 0.702019 -0.586686 -0.403693
2659.335693 3838.822754 4593.846191 0.702019 -0.586686 -0.403693
2273.101318 3356.075684 4623.762207 0.702019 -0.586686 -0.403693
2697.738281 4033.413086 4640.752441 0.042687 0.226156 -0.973155
2659.335693 3838.822754 4593.846191 0.042687 0.226156 -0.973155
2531.803711 3877.682129 4597.282715 0.042687 0.226156 -0.973155
2273.101318 3356.075684 4623.762207 -0.226092 -0.077243 -0.971039
2327.644043 3569.704346 4594.069336 -0.226092 -0.077243 -0.971039
2445.123047 3602.989014 4564.068359 -0.226092 -0.077243 -0.971039
2970.815918 4149.697754 4719.040527 0.193258 0.193712 -0.961835
2659.335693 3838.822754 4593.846191 0.193258 0.193712 -0.961835
2697.738281 4033.413086 4640.752441 0.193258 0.193712 -0.961835
2273.101318 3356.075684 4623.762207 -0.572541 0.197548 -0.795721
1977.377563 2955.439941 4737.080078 -0.572541 0.197548 -0.795721
1942.331055 2986.251465 4769.946289 -0.572541 0.197548 -0.795721
2273.101318 3356.075684 4623.762207 -0.371994 -0.033956 -0.927614
1942.331055 2986.251465 4769.946289 -0.371994 -0.033956 -0.927614
2327.644043 3569.704346 4594.069336 -0.371994 -0.033956 -0.927614
2327.644043 3569.704346 4594.069336 -0.833508 0.552466 0.006689
1942.331055 2986.251465 4769.946289 -0.833508 0.552466 0.006689
2531.803711 3877.682129 4597.282715 -0.833508 0.552466 0.006689
2697.738281 4033.413086 4640.752441 -0.625197 0.737471 -0.255470
2531.803711 3877.682129 4597.282715 -0.625197 0.737471 -0.255470
2668.697754 4138.259277 5014.482910 -0.625197 0.737471 -0.255470
2659.335693 3838.822754 4593.846191 0.698869 -0.714385 0.035150
2970.815918 4149.697754 4719.040527 0.698869 -0.714385 0.035150
2617.384521 3810.915527 4860.757324 0.698869 -0.714385 0.035150
2697.738281 4033.413086 4640.752441 -0.307378 0.909737 -0.279102
2668.697754 4138.259277 5014.482910 -0.307378 0.909737 -0.279102
2970.815918 4149.697754 4719.040527 -0.307378 0.909737 -0.279102
1977.377563 2955.439941 4737.080078 0.794241 -0.604260 -0.063644
2273.101318 3356.075684 4623.762207 0.794241 -0.604260 -0.063644
1993.515137 2943.752197 5049.435547 0.794241 -0.604260 -0.063644
2617.384521 3810.915527 4860.757324 0.760099 -0.647745 0.051741
2225.833984 3386.794678 5303.250000 0.760099 -0.647745 0.051741
2659.335693 3838.822754 4593.846191 0.760099 -0.647745 0.051741
1977.377563 2955.439941 4737.080078 -0.657213 -0.753683 0.005753
1993.515137 2943.752197 5049.435547 -0.657213 -0.753683 0.005753
1942.331055 2986.251465 4769.946289 -0.657213 -0.753683 0.005753
2659.335693 3838.822754 4593.846191 0.774181 -0.625436 -0.097331
1993.515137 2943.752197 5049.435547 0.774181 -0.625436 -0.097331
2273.101318 3356.075684 4623.762207 0.774181 -0.625436 -0.097331
2970.815918 4149.697754 4719.040527 -0.420931 0.814675 -0.398901
2668.697754 4138.259277 5014.482910 -0.420931 0.814675 -0.398901
2937.408691 4294.002930 5049.006836 -0.420931 0.814675 -0.398901
1943.903687 2965.214111 5018.109375 -0.354655 -0.931842 -0.076747
1942.331055 2986.251465 4769.946289 -0.354655 -0.931842 -0.076747
1993.515137 2943.752197 5049.435547 -0.354655 -0.931842 -0.076747
2659.335693 3838.822754 4593.846191 0.830015 -0.531711 0.168401
2225.833984 3386.794678 5303.250000 0.830015 -0.531711 0.168401
1993.515137 2943.752197 5049.435547 0.830015 -0.531711 0.168401
1942.331055 2986.251465 4769.946289 -0.960666 0.276135 0.029496
1943.903687 2965.214111 5018.109375 -0.960666 0.276135 0.029496
1978.290771 3066.894775 5186.161133 -0.960666 0.276135 0.029496
1942.331055 2986.251465 4769.946289 -0.835782 0.516706 -0.185696
2179.493164 3577.988770 5349.055664 -0.835782 0.516706 -0.185696
2531.803711 3877.682129 4597.282715 -0.835782 0.516706 -0.185696
2617.384521 3810.915527 4860.757324 0.718331 -0.607781 0.338530
2970.815918 4149.697754 4719.040527 0.718331 -0.607781 0.338530
2937.408691 4294.002930 5049.006836 0.718331 -0.607781 0.338530
1993.515137 2943.752197 5049.435547 -0.590546 -0.631245 0.502777
1978.290771 3066.894775 5186.161133 -0.590546 -0.631245 0.502777
1943.903687 2965.214111 5018.109375 -0.590546 -0.631245 0.502777
1978.290771 3066.894775 5186.161133 -0.931534 0.363514 0.010049
2179.493164 3577.988770 5349.055664 -0.931534 0.363514 0.010049
1942.331055 2986.251465 4769.946289 -0.931534 0.363514 0.010049
1993.515137 2943.752197 5049.435547 0.504401 -0.612924 0.608198
2225.833984 3386.794678 5303.250000 0.504401 -0.612924 0.608198
1978.290771 3066.894775 5186.161133 0.504401 -0.612924 0.608198
2617.384521 3810.915527 4860.757324 0.812807 -0.549937 0.192129
2565.303711 3930.783691 5424.189941 0.812807 -0.549937 0.192129
2225.833984 3386.794678 5303.250000 0.812807 -0.549937 0.192129
2617.384521 3810.915527 4860.757324 0.779726 -0.593852 0.198414
2937.408691 4294.002930 5049.006836 0.779726 -0.593852 0.198414
2565.303711 3930.783691 5424.189941 0.779726 -0.593852 0.198414
2565.303711 3930.783691 5424.189941 0.781366 -0.589803 0.203960
2937.408691 4294.002930 5049.006836 0.781366 -0.589803 0.203960
2958.643311 4443.777344 5400.769531 0.781366 -0.589803 0.203960
2668.697754 4138.259277 5014.482910 -0.427901 0.821715 -0.376411
2738.927246 4385.597656 5474.593262 -0.427901 0.821715 -0.376411
2937.408691 4294.002930 5049.006836 -0.427901 0.821715 -0.376411
2937.408691 4294.002930 5049.006836 -0.011254 0.920258 -0.391150
2909.610596 4469.484375 5462.661133 -0.011254 0.920258 -0.391150
2958.643311 4443.777344 5400.769531 -0.011254 0.920258 -0.391150
2937.408691 4294.002930 5049.006836 -0.429635 0.820553 -0.376969
2738.927246 4385.597656 5474.593262 -0.429635 0.820553 -0.376969
2909.610596 4469.484375 5462.661133 -0.429635 0.820553 -0.376969
1978.290771 3066.894775 5186.161133 -0.119275 -0.258568 0.958601
2225.833984 3386.794678 5303.250000 -0.119275 -0.258568 0.958601
2179.493164 3577.988770 5349.055664 -0.119275 -0.258568 0.958601
2668.697754 4138.259277 5014.482910 -0.410505 0.827825 -0.382350
2531.803711 3877.682129 4597.282715 -0.410505 0.827825 -0.382350
2738.927246 4385.597656 5474.593262 -0.410505 0.827825 -0.382350
2531.803711 3877.682129 4597.282715 -0.802566 0.578554 -0.145474
2179.493164 3577.988770 5349.055664 -0.802566 0.578554 -0.145474
2738.927246 4385.597656 5474.593262 -0.802566 0.578554 -0.145474
2225.833984 3386.794678 5303.250000 -0.052631 -0.244707 0.968168
2567.357666 4089.102295 5499.325684 -0.052631 -0.244707 0.968168
2179.493164 3577.988770 5349.055664 -0.052631 -0.244707 0.968168
2738.927246 4385.597656 5474.593262 -0.813175 0.576129 -0.082596
2179.493164 3577.988770 5349.055664 -0.813175 0.576129 -0.082596
2560.775879 4135.312988 5482.729492 -0.813175 0.576129 -0.082596
2565.303711 3930.783691 5424.189941 0.348808 -0.405513 0.844921
2567.357666 4089.102295 5499.325684 0.348808 -0.405513 0.844921
2225.833984 3386.794678 5303.250000 0.348808 -0.405513 0.844921
2560.775879 4135.312988 5482.729492 -0.574589 0.202920 0.792888
2179.493164 3577.988770 5349.055664 -0.574589 0.202920 0.792888
2567.357666 4089.102295 5499.325684 -0.574589 0.202920 0.792888
2565.303711 3930.783691 5424.189941 0.527767 -0.369756 0.764685
2958.643311 4443.777344 5400.769531 0.527767 -0.369756 0.764685
2567.357666 4089.102295 5499.325684 0.527767 -0.369756 0.764685
2958.643311 4443.777344 5400.769531 0.588888 -0.466224 0.660187
2909.610596 4469.484375 5462.661133 0.588888 -0.466224 0.660187
2567.357666 4089.102295 5499.325684 0.588888 -0.466224 0.660187
2567.357666 4089.102295 5499.325684 -0.343515 0.273717 0.898374
2738.927246 4385.597656 5474.593262 -0.343515 0.273717 0.898374
2560.775879 4135.312988 5482.729492 -0.343515 0.273717 0.898374
2909.610596 4469.484375 5462.661133 0.040296 0.059881 0.997392
2738.927246 4385.597656 5474.593262 0.040296 0.059881 0.997392
2567.357666 4089.102295 5499.325684 0.040296 0.059881 0.997392
2911.335205 4473.269531 5953.969727 -0.136916 0.608626 -0.781555
2797.263428 4347.039062 5875.652832 -0.136916 0.608626 -0.781555
2701.117432 4350.558594 5895.236816 -0.136916 0.608626 -0.781555
2474.289795 3809.361816 5965.218262 -0.031920 -0.145545 -0.988837
2294.632080 3762.690430 5977.887207 -0.031920 -0.145545 -0.988837
2797.263428 4347.039062 5875.652832 -0.031920 -0.145545 -0.988837
2797.263428 4347.039062 5875.652832 -0.199583 0.000238 -0.979881
2294.632080 3762.690430 5977.887207 -0.199583 0.000238 -0.979881
2701.117432 4350.558594 5895.236816 -0.199583 0.000238 -0.979881
2936.161377 4415.579102 5935.522949 0.529505 -0.438982 -0.725892
2474.289795 3809.361816 5965.218262 0.529505 -0.438982 -0.725892
2797.263428 4347.039062 5875.652832 0.529505 -0.438982 -0.725892
2911.335205 4473.269531 5953.969727 0.203685 0.376615 -0.903700
2936.161377 4415.579102 5935.522949 0.203685 0.376615 -0.903700
2797.263428 4347.039062 5875.652832 0.203685 0.376615 -0.903700
2474.289795 3809.361816 5965.218262 -0.009815 -0.226593 -0.973940
2140.937256 3474.680420 6046.443359 -0.009815 -0.226593 -0.973940
2294.632080 3762.690430 5977.887207 -0.009815 -0.226593 -0.973940
2023.376709 3040.512207 6193.488281 0.123002 -0.348065 -0.929366
2140.937256 3474.680420 6046.443359 0.123002 -0.348065 -0.929366
2474.289795 3809.361816 5965.218262 0.123002 -0.348065 -0.929366
2140.937256 3474.680420 6046.443359 -0.414263 -0.189339 -0.890245
2023.376709 3040.512207 6193.488281 -0.414263 -0.189339 -0.890245
1944.033447 3033.312012 6231.940918 -0.414263 -0.189339 -0.890245
2627.814941 4006.757568 6751.010254 -0.800643 0.576532 0.163038
2701.117432 4350.558594 5895.236816 -0.800643 0.576532 0.163038
2294.632080 3762.690430 5977.887207 -0.800643 0.576532 0.163038
2911.335205 4473.269531 5953.969727 0.925283 0.360249 0.118629
2931.823975 4293.734863 6339.368164 0.925283 0.360249 0.118629
2936.161377 4415.579102 5935.522949 0.925283 0.360249 0.118629
2023.376709 3040.512207 6193.488281 0.829361 -0.534604 -0.162352
2474.289795 3809.361816 5965.218262 0.829361 -0.534604 -0.162352
1992.199951 2952.781982 6323.108398 0.829361 -0.534604 -0.162352
2474.289795 3809.361816 5965.218262 0.779075 -0.602124 -0.174614
2936.161377 4415.579102 5935.522949 0.779075 -0.602124 -0.174614
2618.029053 3772.613281 6733.261719 0.779075 -0.602124 -0.174614
2701.117432 4350.558594 5895.236816 -0.542393 0.780995 0.309607
2705.050537 4135.047852 6445.761719 -0.542393 0.780995 0.309607
2911.335205 4473.269531 5953.969727 -0.542393 0.780995 0.309607
2023.376709 3040.512207 6193.488281 -0.210892 -0.785228 -0.582187
1992.199951 2952.781982 6323.108398 -0.210892 -0.785228 -0.582187
1944.033447 3033.312012 6231.940918 -0.210892 -0.785228 -0.582187
1992.199951 2952.781982 6323.108398 0.823238 -0.538461 -0.179833
2474.289795 3809.361816 5965.218262 0.823238 -0.538461 -0.179833
2618.029053 3772.613281 6733.261719 0.823238 -0.538461 -0.179833
2936.161377 4415.579102 5935.522949 0.994369 0.098027 0.040255
2931.823975 4293.734863 6339.368164 0.994369 0.098027 0.040255
2936.770996 4105.776367 6674.870117 0.994369 0.098027 0.040255
2294.632080 3762.690430 5977.887207 -0.791579 0.591214 0.154496
2451.577881 3757.459961 6802.031738 -0.791579 0.591214 0.154496
2627.814941 4006.757568 6751.010254 -0.791579 0.591214 0.154496
2911.335205 4473.269531 5953.969727 -0.388382 0.827235 0.406008
2705.050537 4135.047852 6445.761719 -0.388382 0.827235 0.406008
2931.823975 4293.734863 6339.368164 -0.388382 0.827235 0.406008
2705.050537 4135.047852 6445.761719 -0.102571 0.926032 0.363241
2701.117432 4350.558594 5895.236816 -0.102571 0.926032 0.363241
2627.814941 4006.757568 6751.010254 -0.102571 0.926032 0.363241
2140.937256 3474.680420 6046.443359 -0.893243 0.439081 0.096570
1944.033447 3033.312012 6231.940918 -0.893243 0.439081 0.096570
2088.754150 3224.318848 6702.103027 -0.893243 0.439081 0.096570
2618.029053 3772.613281 6733.261719 0.666011 -0.687789 -0.288748
2936.161377 4415.579102 5935.522949 0.666011 -0.687789 -0.288748
2936.770996 4105.776367 6674.870117 0.666011 -0.687789 -0.288748
2931.823975 4293.734863 6339.368164 0.685113 -0.631149 -0.363691
2979.736328 4188.455078 6612.326660 0.685113 -0.631149 -0.363691
2936.770996 4105.776367 6674.870117 0.685113 -0.631149 -0.363691
2451.577881 3757.459961 6802.031738 -0.853142 0.494694 0.165608
2294.632080 3762.690430 5977.887207 -0.853142 0.494694 0.165608
2140.937256 3474.680420 6046.443359 -0.853142 0.494694 0.165608
1953.060425 2948.843506 6599.714844 -0.786336 -0.606054 -0.119895
1944.033447 3033.312012 6231.940918 -0.786336 -0.606054 -0.119895
1992.199951 2952.781982 6323.108398 -0.786336 -0.606054 -0.119895
2705.050537 4135.047852 6445.761719 -0.481734 0.844737 0.233136
2627.814941 4006.757568 6751.010254 -0.481734 0.844737 0.233136
2931.823975 4293.734863 6339.368164 -0.481734 0.844737 0.233136
1992.199951 2952.781982 6323.108398 0.070717 -0.997488 -0.004196
1991.208740 2951.444580 6624.303223 0.070717 -0.997488 -0.004196
1953.060425 2948.843506 6599.714844 0.070717 -0.997488 -0.004196
1991.208740 2951.444580 6624.303223 0.794891 -0.606752 -0.000078
1992.199951 2952.781982 6323.108398 0.794891 -0.606752 -0.000078
2618.029053 3772.613281 6733.261719 0.794891 -0.606752 -0.000078
1944.033447 3033.312012 6231.940918 -0.907405 0.404188 0.115104
1953.060425 2948.843506 6599.714844 -0.907405 0.404188 0.115104
2088.754150 3224.318848 6702.103027 -0.907405 0.404188 0.115104
1991.208740 2951.444580 6624.303223 0.767452 -0.611408 0.192866
2618.029053 3772.613281 6733.261719 0.767452 -0.611408 0.192866
2378.033203 3489.753174 6791.553223 0.767452 -0.611408 0.192866
2140.937256 3474.680420 6046.443359 -0.830594 0.539062 0.139733
2088.754150 3224.318848 6702.103027 -0.830594 0.539062 0.139733
2451.577881 3757.459961 6802.031738 -0.830594 0.539062 0.139733
2627.814941 4006.757568 6751.010254 -0.297185 0.872181 0.388564
2979.736328 4188.455078 6612.326660 -0.297185 0.872181 0.388564
2931.823975 4293.734863 6339.368164 -0.297185 0.872181 0.388564
1991.208740 2951.444580 6624.303223 -0.538886 -0.047158 0.841058
2088.754150 3224.318848 6702.103027 -0.538886 -0.047158 0.841058
1953.060425 2948.843506 6599.714844 -0.538886 -0.047158 0.841058
2936.770996 4105.776367 6674.870117 0.003833 0.602022 0.798470
2979.736328 4188.455078 6612.326660 0.003833 0.602022 0.798470
2627.814941 4006.757568 6751.010254 0.003833 0.602022 0.798470
2088.754150 3224.318848 6702.103027 -0.068407 -0.250852 0.965605
1991.208740 2951.444580 6624.303223 -0.068407 -0.250852 0.965605
2378.033203 3489.753174 6791.553223 -0.068407 -0.250852 0.965605
2378.033203 3489.753174 6791.553223 0.732816 -0.535170 0.420206
2618.029053 3772.613281 6733.261719 0.732816 -0.535170 0.420206
2676.548584 3897.043213 6789.679688 0.732816 -0.535170 0.420206
2936.770996 4105.776367 6674.870117 0.107698 0.372691 0.921685
2627.814941 4006.757568 6751.010254 0.107698 0.372691 0.921685
2676.548584 3897.043213 6789.679688 0.107698 0.372691 0.921685
2088.754150 3224.318848 6702.103027 -0.342651 0.057430 0.937706
2378.033203 3489.753174 6791.553223 -0.342651 0.057430 0.937706
2451.577881 3757.459961 6802.031738 -0.342651 0.057430 0.937706
2936.770996 4105.776367 6674.870117 0.663307 -0.544648 0.513208
2676.548584 3897.043213 6789.679688 0.663307 -0.544648 0.513208
2618.029053 3772.613281 6733.261719 0.663307 -0.544648 0.513208
2676.548584 3897.043213 6789.679688 -0.122208 0.281197 0.951837
2627.814941 4006.757568 6751.010254 -0.122208 0.281197 0.951837
2451.577881 3757.459961 6802.031738 -0.122208 0.281197 0.951837
2378.033203 3489.753174 6791.553223 0.094830 -0.064934 0.993373
2676.548584 3897.043213 6789.679688 0.094830 -0.064934 0.993373
2451.577881 3757.459961 6802.031738 0.094830 -0.064934 0.993373
3 0 1 2
3 3 4 5
3 6 7 8
3 9 10 11
3 12 13 14
3 15 16 17
3 18 19 20
3 21 22 23
3 24 25 26
3 27 28 29
3 30 31 32
3 33 34 35
3 36 37 38
3 39 40 41
3 42 43 44
3 45 46 47
3 48 49 50
3 51 52 53
3 54 55 56
3 57 58 59
3 60 61 62
3 63 64 65
3 66 67 68
3 69 70 71
3 72 73 74
3 75 76 77
3 78 79 80
3 81 82 83
3 84 85 86
3 87 88 89
3 90 91 92
3 93 94 95
3 96 97 98
3 99 100 101
3 102 103 104
3 105 106 107
3 108 109 110
3 111 112 113
3 114 115 116
3 117 118 119
3 120 121 122
3 123 124 125
3 126 127 128
3 129 130 131
3 132 133 134
3 135 136 137
3 138 139 140
3 141 142 143
3 144 145 146
3 147 148 149
3 150 151 152
3 153 154 155
3 156 157 158
3 159 160 161
3 162 163 164
3 165 166 167
3 168 169 170
3 171 172 173
3 174 175 176
3 177 178 179
3 180 181 182
3 183 184 185
3 186 187 188
3 189 190 191
3 192 193 194
3 195 196 197
3 198 199 200
3 201 202 203
3 204 205 206
3 207 208 209
3 210 211 212
3 213 214 215
3 216 217 218
3 219 220 221
3 222 223 224
3 225 226 227
3 228 229 230
3 231 232 233
3 234 235 236
3 237 238 239
3 240 241 242
3 243 244 245
