ply
format ascii 1.0
comment Created by Blender 2.80 (sub 75) - www.blender.org, source file: 'downsample_ccf.blend'
element vertex 462
property float x
property float y
property float z
property float nx
property float ny
property float nz
element face 154
property list uchar uint vertex_indices
end_header
3335.613525 3142.722412 4496.708984 0.325658 0.042423 -0.944536
3155.252686 3295.636963 4441.392090 0.325658 0.042423 -0.944536
3404.723633 3558.819580 4539.225586 0.325658 0.042423 -0.944536
3009.583496 2967.336914 4541.329102 0.033627 -0.304675 -0.951863
3155.252686 3295.636963 4441.392090 0.033627 -0.304675 -0.951863
3335.613525 3142.722412 4496.708984 0.033627 -0.304675 -0.951863
3404.723633 3558.819580 4539.225586 0.074536 0.284626 -0.955737
3155.252686 3295.636963 4441.392090 0.074536 0.284626 -0.955737
2598.627197 3895.699707 4576.685547 0.074536 0.284626 -0.955737
3155.252686 3295.636963 4441.392090 -0.076550 0.151195 -0.985535
2488.390137 3609.429688 4541.330078 -0.076550 0.151195 -0.985535
2598.627197 3895.699707 4576.685547 -0.076550 0.151195 -0.985535
3009.583496 2967.336914 4541.329102 0.395883 -0.833808 -0.384761
3335.613525 3142.722412 4496.708984 0.395883 -0.833808 -0.384761
3220.926270 3045.656982 4589.055176 0.395883 -0.833808 -0.384761
3155.252686 3295.636963 4441.392090 -0.190591 -0.093824 -0.977175
2115.099121 3255.237061 4648.145996 -0.190591 -0.093824 -0.977175
2488.390137 3609.429688 4541.330078 -0.190591 -0.093824 -0.977175
3009.583496 2967.336914 4541.329102 0.368459 -0.922062 -0.118493
3220.926270 3045.656982 4589.055176 0.368459 -0.922062 -0.118493
2807.926514 2871.328125 4661.367676 0.368459 -0.922062 -0.118493
2488.390137 3609.429688 4541.330078 -0.484718 0.258894 -0.835477
2115.099121 3255.237061 4648.145996 -0.484718 0.258894 -0.835477
2553.938477 3920.572754 4599.716797 -0.484718 0.258894 -0.835477
2598.627197 3895.699707 4576.685547 0.095783 0.333480 -0.937879
3480.009033 3866.708984 4656.390137 0.095783 0.333480 -0.937879
3404.723633 3558.819580 4539.225586 0.095783 0.333480 -0.937879
2488.390137 3609.429688 4541.330078 -0.334977 0.241475 -0.910758
2553.938477 3920.572754 4599.716797 -0.334977 0.241475 -0.910758
2598.627197 3895.699707 4576.685547 -0.334977 0.241475 -0.910758
3155.252686 3295.636963 4441.392090 -0.182659 -0.211249 -0.960213
3009.583496 2967.336914 4541.329102 -0.182659 -0.211249 -0.960213
2115.099121 3255.237061 4648.145996 -0.182659 -0.211249 -0.960213
3474.050049 3645.765869 4731.810059 0.950167 -0.128807 -0.283888
3335.613525 3142.722412 4496.708984 0.950167 -0.128807 -0.283888
3404.723633 3558.819580 4539.225586 0.950167 -0.128807 -0.283888
2598.627197 3895.699707 4576.685547 0.095781 0.331920 -0.938432
2989.476562 4190.802734 4720.954590 0.095781 0.331920 -0.938432
3480.009033 3866.708984 4656.390137 0.095781 0.331920 -0.938432
2989.476562 4190.802734 4720.954590 -0.115330 0.555372 -0.823566
2598.627197 3895.699707 4576.685547 -0.115330 0.555372 -0.823566
2553.938477 3920.572754 4599.716797 -0.115330 0.555372 -0.823566
3575.292969 4241.536621 4620.394043 0.596599 -0.251440 -0.762134
3623.460693 4077.977295 4712.060547 0.596599 -0.251440 -0.762134
3557.741943 4015.679443 4681.168945 0.596599 -0.251440 -0.762134
3557.741943 4015.679443 4681.168945 -0.411904 -0.206792 -0.887452
3403.314209 4419.688477 4658.704102 -0.411904 -0.206792 -0.887452
3575.292969 4241.536621 4620.394043 -0.411904 -0.206792 -0.887452
2005.307739 2892.879639 4749.921387 -0.097595 -0.690779 -0.716449
3009.583496 2967.336914 4541.329102 -0.097595 -0.690779 -0.716449
2807.926514 2871.328125 4661.367676 -0.097595 -0.690779 -0.716449
3009.583496 2967.336914 4541.329102 -0.183428 -0.213911 -0.959477
2005.307739 2892.879639 4749.921387 -0.183428 -0.213911 -0.959477
2115.099121 3255.237061 4648.145996 -0.183428 -0.213911 -0.959477
3557.741943 4015.679443 4681.168945 -0.557371 0.410845 -0.721487
3404.723633 3558.819580 4539.225586 -0.557371 0.410845 -0.721487
3480.009033 3866.708984 4656.390137 -0.557371 0.410845 -0.721487
3557.741943 4015.679443 4681.168945 -0.380212 -0.195597 -0.903980
3273.634033 4431.439941 4710.704590 -0.380212 -0.195597 -0.903980
3403.314209 4419.688477 4658.704102 -0.380212 -0.195597 -0.903980
2005.307739 2892.879639 4749.921387 -0.303160 -0.171431 -0.937393
1957.560181 3015.785645 4742.886230 -0.303160 -0.171431 -0.937393
2115.099121 3255.237061 4648.145996 -0.303160 -0.171431 -0.937393
3335.613525 3142.722412 4496.708984 0.758682 -0.435305 0.484677
3474.050049 3645.765869 4731.810059 0.758682 -0.435305 0.484677
3220.926270 3045.656982 4589.055176 0.758682 -0.435305 0.484677
1957.560181 3015.785645 4742.886230 -0.834621 0.550808 0.004290
2553.938477 3920.572754 4599.716797 -0.834621 0.550808 0.004290
2115.099121 3255.237061 4648.145996 -0.834621 0.550808 0.004290
3474.050049 3645.765869 4731.810059 0.942265 -0.244508 -0.228807
3404.723633 3558.819580 4539.225586 0.942265 -0.244508 -0.228807
3557.741943 4015.679443 4681.168945 0.942265 -0.244508 -0.228807
3480.009033 3866.708984 4656.390137 -0.015912 0.172132 -0.984945
2989.476562 4190.802734 4720.954590 -0.015912 0.172132 -0.984945
3557.741943 4015.679443 4681.168945 -0.015912 0.172132 -0.984945
3557.741943 4015.679443 4681.168945 -0.060818 0.029319 -0.997718
2989.476562 4190.802734 4720.954590 -0.060818 0.029319 -0.997718
3273.634033 4431.439941 4710.704590 -0.060818 0.029319 -0.997718
3557.741943 4015.679443 4681.168945 0.589310 -0.238982 -0.771752
3623.460693 4077.977295 4712.060547 0.589310 -0.238982 -0.771752
3474.050049 3645.765869 4731.810059 0.589310 -0.238982 -0.771752
2553.938477 3920.572754 4599.716797 -0.432914 0.842074 -0.321708
2642.657227 4114.587402 4988.166016 -0.432914 0.842074 -0.321708
2989.476562 4190.802734 4720.954590 -0.432914 0.842074 -0.321708
3575.292969 4241.536621 4620.394043 0.863722 0.414788 0.286243
3388.282227 4437.664062 4900.484375 0.863722 0.414788 0.286243
3623.460693 4077.977295 4712.060547 0.863722 0.414788 0.286243
3575.292969 4241.536621 4620.394043 0.718690 0.695295 -0.007010
3403.314209 4419.688477 4658.704102 0.718690 0.695295 -0.007010
3388.282227 4437.664062 4900.484375 0.718690 0.695295 -0.007010
3474.050049 3645.765869 4731.810059 0.706222 -0.431420 0.561363
3505.771973 3809.815430 4817.978027 0.706222 -0.431420 0.561363
3220.926270 3045.656982 4589.055176 0.706222 -0.431420 0.561363
2005.307739 2892.879639 4749.921387 -0.031584 -0.998565 -0.043243
2807.926514 2871.328125 4661.367676 -0.031584 -0.998565 -0.043243
2175.211914 2876.273193 5009.302734 -0.031584 -0.998565 -0.043243
2807.926514 2871.328125 4661.367676 0.413738 -0.799718 0.435054
3220.926270 3045.656982 4589.055176 0.413738 -0.799718 0.435054
2551.423340 2896.515625 4951.603027 0.413738 -0.799718 0.435054
1937.366455 2959.043457 5040.537109 -0.921374 -0.365509 -0.132188
1957.560181 3015.785645 4742.886230 -0.921374 -0.365509 -0.132188
2005.307739 2892.879639 4749.921387 -0.921374 -0.365509 -0.132188
2305.175537 3806.432861 5397.347656 -0.833676 0.520142 -0.185573
2553.938477 3920.572754 4599.716797 -0.833676 0.520142 -0.185573
1957.560181 3015.785645 4742.886230 -0.833676 0.520142 -0.185573
3268.628174 4485.665039 4953.590820 -0.354853 0.910877 -0.210670
3273.634033 4431.439941 4710.704590 -0.354853 0.910877 -0.210670
2742.123047 4398.393555 5463.101074 -0.354853 0.910877 -0.210670
3268.628174 4485.665039 4953.590820 0.001079 0.975978 -0.217868
3403.314209 4419.688477 4658.704102 0.001079 0.975978 -0.217868
3273.634033 4431.439941 4710.704590 0.001079 0.975978 -0.217868
3474.050049 3645.765869 4731.810059 0.919642 -0.306699 0.245347
3623.460693 4077.977295 4712.060547 0.919642 -0.306699 0.245347
3505.771973 3809.815430 4817.978027 0.919642 -0.306699 0.245347
2551.423340 2896.515625 4951.603027 0.076494 -0.985245 0.153106
2175.211914 2876.273193 5009.302734 0.076494 -0.985245 0.153106
2807.926514 2871.328125 4661.367676 0.076494 -0.985245 0.153106
2005.307739 2892.879639 4749.921387 -0.308657 -0.940519 0.141967
2175.211914 2876.273193 5009.302734 -0.308657 -0.940519 0.141967
1937.366455 2959.043457 5040.537109 -0.308657 -0.940519 0.141967
2551.423340 2896.515625 4951.603027 0.502306 -0.426802 0.752016
3220.926270 3045.656982 4589.055176 0.502306 -0.426802 0.752016
2529.220215 3394.137207 5248.855469 0.502306 -0.426802 0.752016
3623.460693 4077.977295 4712.060547 0.704803 -0.029361 0.708795
3285.447266 4158.437500 5051.502930 0.704803 -0.029361 0.708795
3505.771973 3809.815430 4817.978027 0.704803 -0.029361 0.708795
3285.447266 4158.437500 5051.502930 0.717144 0.108242 0.688468
3623.460693 4077.977295 4712.060547 0.717144 0.108242 0.688468
3388.282227 4437.664062 4900.484375 0.717144 0.108242 0.688468
3403.314209 4419.688477 4658.704102 0.353686 0.934159 -0.047462
3268.628174 4485.665039 4953.590820 0.353686 0.934159 -0.047462
3388.282227 4437.664062 4900.484375 0.353686 0.934159 -0.047462
3220.926270 3045.656982 4589.055176 0.509381 -0.415612 0.753523
3505.771973 3809.815430 4817.978027 0.509381 -0.415612 0.753523
2529.220215 3394.137207 5248.855469 0.509381 -0.415612 0.753523
3285.447266 4158.437500 5051.502930 0.795946 0.033766 0.604425
3388.282227 4437.664062 4900.484375 0.795946 0.033766 0.604425
3002.137695 4462.636230 5407.589844 0.795946 0.033766 0.604425
2551.423340 2896.515625 4951.603027 0.126591 -0.837493 0.531583
2245.354004 2970.141602 5140.485840 0.126591 -0.837493 0.531583
2175.211914 2876.273193 5009.302734 0.126591 -0.837493 0.531583
1970.098511 3121.837646 5184.834473 -0.975638 0.218000 -0.024633
1957.560181 3015.785645 4742.886230 -0.975638 0.218000 -0.024633
1937.366455 2959.043457 5040.537109 -0.975638 0.218000 -0.024633
2305.175537 3806.432861 5397.347656 -0.757303 0.636748 -0.145068
2642.657227 4114.587402 4988.166016 -0.757303 0.636748 -0.145068
2553.938477 3920.572754 4599.716797 -0.757303 0.636748 -0.145068
2903.527832 4346.272949 5465.461914 0.738241 0.014829 0.674374
3505.771973 3809.815430 4817.978027 0.738241 0.014829 0.674374
3285.447266 4158.437500 5051.502930 0.738241 0.014829 0.674374
3273.634033 4431.439941 4710.704590 -0.555140 0.632533 -0.540113
2989.476562 4190.802734 4720.954590 -0.555140 0.632533 -0.540113
2642.657227 4114.587402 4988.166016 -0.555140 0.632533 -0.540113
3273.634033 4431.439941 4710.704590 -0.538172 0.768347 -0.346430
2642.657227 4114.587402 4988.166016 -0.538172 0.768347 -0.346430
2742.123047 4398.393555 5463.101074 -0.538172 0.768347 -0.346430
3002.137695 4462.636230 5407.589844 0.471265 0.822535 0.318348
3388.282227 4437.664062 4900.484375 0.471265 0.822535 0.318348
3268.628174 4485.665039 4953.590820 0.471265 0.822535 0.318348
2551.423340 2896.515625 4951.603027 0.383063 -0.461046 0.800437
2529.220215 3394.137207 5248.855469 0.383063 -0.461046 0.800437
2245.354004 2970.141602 5140.485840 0.383063 -0.461046 0.800437
2046.233398 3046.494141 5210.307617 -0.209013 -0.808313 0.550403
1937.366455 2959.043457 5040.537109 -0.209013 -0.808313 0.550403
2175.211914 2876.273193 5009.302734 -0.209013 -0.808313 0.550403
2245.354004 2970.141602 5140.485840 -0.087870 -0.787270 0.610316
2046.233398 3046.494141 5210.307617 -0.087870 -0.787270 0.610316
2175.211914 2876.273193 5009.302734 -0.087870 -0.787270 0.610316
1970.098511 3121.837646 5184.834473 -0.640713 -0.433105 0.633961
1937.366455 2959.043457 5040.537109 -0.640713 -0.433105 0.633961
2046.233398 3046.494141 5210.307617 -0.640713 -0.433105 0.633961
1970.098511 3121.837646 5184.834473 -0.884240 0.459213 -0.085109
2305.175537 3806.432861 5397.347656 -0.884240 0.459213 -0.085109
1957.560181 3015.785645 4742.886230 -0.884240 0.459213 -0.085109
2742.123047 4398.393555 5463.101074 -0.779005 0.596482 -0.193291
2642.657227 4114.587402 4988.166016 -0.779005 0.596482 -0.193291
2305.175537 3806.432861 5397.347656 -0.779005 0.596482 -0.193291
2305.175537 3806.432861 5397.347656 -0.855193 0.479593 -0.196561
1970.098511 3121.837646 5184.834473 -0.855193 0.479593 -0.196561
2148.054688 3499.721680 5332.594238 -0.855193 0.479593 -0.196561
3505.771973 3809.815430 4817.978027 0.503145 -0.374934 0.778633
2903.527832 4346.272949 5465.461914 0.503145 -0.374934 0.778633
2529.220215 3394.137207 5248.855469 0.503145 -0.374934 0.778633
2529.220215 3394.137207 5248.855469 0.184083 -0.357283 0.915676
2046.233398 3046.494141 5210.307617 0.184083 -0.357283 0.915676
2245.354004 2970.141602 5140.485840 0.184083 -0.357283 0.915676
2148.054688 3499.721680 5332.594238 -0.437143 -0.141440 0.888201
1970.098511 3121.837646 5184.834473 -0.437143 -0.141440 0.888201
2046.233398 3046.494141 5210.307617 -0.437143 -0.141440 0.888201
2742.123047 4398.393555 5463.101074 -0.429038 0.852978 -0.297246
2885.582275 4476.710938 5480.775391 -0.429038 0.852978 -0.297246
3268.628174 4485.665039 4953.590820 -0.429038 0.852978 -0.297246
3268.628174 4485.665039 4953.590820 0.230908 0.955419 0.184002
2885.582275 4476.710938 5480.775391 0.230908 0.955419 0.184002
3002.137695 4462.636230 5407.589844 0.230908 0.955419 0.184002
2046.233398 3046.494141 5210.307617 0.197776 -0.375190 0.905603
2529.220215 3394.137207 5248.855469 0.197776 -0.375190 0.905603
2435.827393 3891.634521 5475.363770 0.197776 -0.375190 0.905603
2903.527832 4346.272949 5465.461914 0.668474 -0.211932 0.712900
3285.447266 4158.437500 5051.502930 0.668474 -0.211932 0.712900
3002.137695 4462.636230 5407.589844 0.668474 -0.211932 0.712900
2148.054688 3499.721680 5332.594238 -0.177859 -0.218901 0.959400
2046.233398 3046.494141 5210.307617 -0.177859 -0.218901 0.959400
2435.827393 3891.634521 5475.363770 -0.177859 -0.218901 0.959400
2305.175537 3806.432861 5397.347656 -0.798887 0.567571 0.199105
2541.679932 4109.166016 5483.320801 -0.798887 0.567571 0.199105
2742.123047 4398.393555 5463.101074 -0.798887 0.567571 0.199105
2305.175537 3806.432861 5397.347656 -0.564035 0.116347 0.817514
2148.054688 3499.721680 5332.594238 -0.564035 0.116347 0.817514
2435.827393 3891.634521 5475.363770 -0.564035 0.116347 0.817514
2903.527832 4346.272949 5465.461914 0.344037 -0.334816 0.877233
2435.827393 3891.634521 5475.363770 0.344037 -0.334816 0.877233
2529.220215 3394.137207 5248.855469 0.344037 -0.334816 0.877233
2541.679932 4109.166016 5483.320801 -0.618469 0.274012 0.736487
2305.175537 3806.432861 5397.347656 -0.618469 0.274012 0.736487
2435.827393 3891.634521 5475.363770 -0.618469 0.274012 0.736487
3002.137695 4462.636230 5407.589844 0.529257 -0.026745 0.848040
2885.582275 4476.710938 5480.775391 0.529257 -0.026745 0.848040
2903.527832 4346.272949 5465.461914 0.529257 -0.026745 0.848040
2885.582275 4476.710938 5480.775391 -0.244209 0.235016 0.940813
2742.123047 4398.393555 5463.101074 -0.244209 0.235016 0.940813
2541.679932 4109.166016 5483.320801 -0.244209 0.235016 0.940813
2435.827393 3891.634521 5475.363770 0.096092 -0.083042 0.991902
2885.582275 4476.710938 5480.775391 0.096092 -0.083042 0.991902
2541.679932 4109.166016 5483.320801 0.096092 -0.083042 0.991902
2903.527832 4346.272949 5465.461914 0.117902 -0.099771 0.988000
2885.582275 4476.710938 5480.775391 0.117902 -0.099771 0.988000
2435.827393 3891.634521 5475.363770 0.117902 -0.099771 0.988000
2816.238770 4363.338379 5864.707520 -0.329788 0.146396 -0.932635
2350.912598 3807.216064 5941.956543 -0.329788 0.146396 -0.932635
2738.156982 4398.167969 5897.785156 -0.329788 0.146396 -0.932635
2350.912598 3807.216064 5941.956543 0.096434 -0.136883 -0.985882
2543.282471 4143.675293 5914.058105 0.096434 -0.136883 -0.985882
2738.156982 4398.167969 5897.785156 0.096434 -0.136883 -0.985882
2738.156982 4398.167969 5897.785156 -0.091734 0.569871 -0.816598
2940.411377 4472.645508 5927.039551 -0.091734 0.569871 -0.816598
2816.238770 4363.338379 5864.707520 -0.091734 0.569871 -0.816598
2816.238770 4363.338379 5864.707520 0.232097 -0.321713 -0.917950
2239.281250 3111.215576 6157.657715 0.232097 -0.321713 -0.917950
2350.912598 3807.216064 5941.956543 0.232097 -0.321713 -0.917950
2227.831543 3664.294678 6027.460938 -0.792742 0.416332 -0.445227
2543.282471 4143.675293 5914.058105 -0.792742 0.416332 -0.445227
2350.912598 3807.216064 5941.956543 -0.792742 0.416332 -0.445227
2816.238770 4363.338379 5864.707520 0.597592 -0.243174 -0.764035
2940.411377 4472.645508 5927.039551 0.597592 -0.243174 -0.764035
3209.510010 4080.027832 6262.476562 0.597592 -0.243174 -0.764035
2239.281250 3111.215576 6157.657715 0.066186 -0.305046 -0.950035
2138.711182 3430.956787 6047.985840 0.066186 -0.305046 -0.950035
2350.912598 3807.216064 5941.956543 0.066186 -0.305046 -0.950035
2350.912598 3807.216064 5941.956543 -0.712184 0.213177 -0.668841
2138.711182 3430.956787 6047.985840 -0.712184 0.213177 -0.668841
2227.831543 3664.294678 6027.460938 -0.712184 0.213177 -0.668841
2816.238770 4363.338379 5864.707520 0.371414 -0.370340 -0.851410
2752.499023 3581.690186 6176.897461 0.371414 -0.370340 -0.851410
2239.281250 3111.215576 6157.657715 0.371414 -0.370340 -0.851410
2138.711182 3430.956787 6047.985840 -0.883665 0.306371 -0.353940
1946.519531 3088.649902 6231.520020 -0.883665 0.306371 -0.353940
2227.831543 3664.294678 6027.460938 -0.883665 0.306371 -0.353940
3209.510010 4080.027832 6262.476562 0.528256 -0.351735 -0.772805
2752.499023 3581.690186 6176.897461 0.528256 -0.351735 -0.772805
2816.238770 4363.338379 5864.707520 0.528256 -0.351735 -0.772805
2239.281250 3111.215576 6157.657715 -0.076451 -0.344928 -0.935510
1978.729980 2972.985352 6229.916504 -0.076451 -0.344928 -0.935510
2138.711182 3430.956787 6047.985840 -0.076451 -0.344928 -0.935510
2138.711182 3430.956787 6047.985840 -0.542472 -0.139584 -0.828396
1978.729980 2972.985352 6229.916504 -0.542472 -0.139584 -0.828396
1946.519531 3088.649902 6231.520020 -0.542472 -0.139584 -0.828396
2153.195801 2913.282227 6292.687500 0.088472 -0.587313 -0.804509
1978.729980 2972.985352 6229.916504 0.088472 -0.587313 -0.804509
2239.281250 3111.215576 6157.657715 0.088472 -0.587313 -0.804509
2752.499023 3581.690186 6176.897461 0.413286 -0.417745 -0.809126
2547.755127 2901.796875 6423.341309 0.413286 -0.417745 -0.809126
2239.281250 3111.215576 6157.657715 0.413286 -0.417745 -0.809126
2513.528809 3864.854004 6801.526367 -0.778057 0.606300 0.164399
2738.156982 4398.167969 5897.785156 -0.778057 0.606300 0.164399
2543.282471 4143.675293 5914.058105 -0.778057 0.606300 0.164399
3209.510010 4080.027832 6262.476562 0.775596 -0.007668 -0.631183
2940.411377 4472.645508 5927.039551 0.775596 -0.007668 -0.631183
3364.761963 4451.640625 6448.735352 0.775596 -0.007668 -0.631183
2543.282471 4143.675293 5914.058105 -0.808916 0.568105 0.151365
2227.831543 3664.294678 6027.460938 -0.808916 0.568105 0.151365
2513.528809 3864.854004 6801.526367 -0.808916 0.568105 0.151365
2153.195801 2913.282227 6292.687500 0.231692 -0.614971 -0.753744
2239.281250 3111.215576 6157.657715 0.231692 -0.614971 -0.753744
2547.755127 2901.796875 6423.341309 0.231692 -0.614971 -0.753744
1946.519531 3088.649902 6231.520020 -0.945404 -0.260564 -0.195750
1978.729980 2972.985352 6229.916504 -0.945404 -0.260564 -0.195750
1925.666992 2951.714844 6514.505859 -0.945404 -0.260564 -0.195750
2940.411377 4472.645508 5927.039551 -0.363303 0.912227 0.189346
2738.156982 4398.167969 5897.785156 -0.363303 0.912227 0.189346
3257.410889 4473.833496 6529.550781 -0.363303 0.912227 0.189346
3457.918213 3741.370850 6565.004395 0.511276 -0.332804 -0.792362
2752.499023 3581.690186 6176.897461 0.511276 -0.332804 -0.792362
3209.510010 4080.027832 6262.476562 0.511276 -0.332804 -0.792362
3364.761963 4451.640625 6448.735352 0.145008 0.986332 -0.078238
2940.411377 4472.645508 5927.039551 0.145008 0.986332 -0.078238
3257.410889 4473.833496 6529.550781 0.145008 0.986332 -0.078238
1925.666992 2951.714844 6514.505859 -0.927376 0.358984 0.105374
2011.796143 3127.570312 6673.415039 -0.927376 0.358984 0.105374
1946.519531 3088.649902 6231.520020 -0.927376 0.358984 0.105374
1946.519531 3088.649902 6231.520020 -0.853961 0.484548 0.189640
2513.528809 3864.854004 6801.526367 -0.853961 0.484548 0.189640
2227.831543 3664.294678 6027.460938 -0.853961 0.484548 0.189640
2678.849854 4028.251221 6756.121094 -0.639490 0.721099 0.266586
2738.156982 4398.167969 5897.785156 -0.639490 0.721099 0.266586
2513.528809 3864.854004 6801.526367 -0.639490 0.721099 0.266586
3153.842285 4356.794434 6654.800781 -0.637790 0.666142 0.386624
2738.156982 4398.167969 5897.785156 -0.637790 0.666142 0.386624
2982.117188 4191.205566 6656.821289 -0.637790 0.666142 0.386624
2738.156982 4398.167969 5897.785156 -0.509723 0.797215 0.323465
3153.842285 4356.794434 6654.800781 -0.509723 0.797215 0.323465
3257.410889 4473.833496 6529.550781 -0.509723 0.797215 0.323465
1994.566406 2891.190430 6611.369141 -0.254968 -0.947573 -0.192603
1978.729980 2972.985352 6229.916504 -0.254968 -0.947573 -0.192603
2153.195801 2913.282227 6292.687500 -0.254968 -0.947573 -0.192603
2547.755127 2901.796875 6423.341309 0.048173 -0.971784 -0.230903
2447.572266 2838.146729 6670.320312 0.048173 -0.971784 -0.230903
2153.195801 2913.282227 6292.687500 0.048173 -0.971784 -0.230903
3364.761963 4451.640625 6448.735352 0.673060 0.086934 -0.734461
3573.284668 3947.140625 6580.110840 0.673060 0.086934 -0.734461
3209.510010 4080.027832 6262.476562 0.673060 0.086934 -0.734461
2011.796143 3127.570312 6673.415039 -0.830396 0.552234 0.074027
2513.528809 3864.854004 6801.526367 -0.830396 0.552234 0.074027
1946.519531 3088.649902 6231.520020 -0.830396 0.552234 0.074027
1994.566406 2891.190430 6611.369141 -0.100268 -0.987891 -0.118393
2153.195801 2913.282227 6292.687500 -0.100268 -0.987891 -0.118393
2447.572266 2838.146729 6670.320312 -0.100268 -0.987891 -0.118393
3573.284668 3947.140625 6580.110840 0.576781 -0.266691 -0.772140
3457.918213 3741.370850 6565.004395 0.576781 -0.266691 -0.772140
3209.510010 4080.027832 6262.476562 0.576781 -0.266691 -0.772140
2738.156982 4398.167969 5897.785156 -0.351950 0.868183 0.349842
2678.849854 4028.251221 6756.121094 -0.351950 0.868183 0.349842
2982.117188 4191.205566 6656.821289 -0.351950 0.868183 0.349842
2752.499023 3581.690186 6176.897461 0.507229 -0.424589 -0.749962
3300.171875 3090.925781 6825.155762 0.507229 -0.424589 -0.749962
2547.755127 2901.796875 6423.341309 0.507229 -0.424589 -0.749962
1978.729980 2972.985352 6229.916504 -0.515813 -0.841800 -0.159093
1994.566406 2891.190430 6611.369141 -0.515813 -0.841800 -0.159093
1925.666992 2951.714844 6514.505859 -0.515813 -0.841800 -0.159093
3457.918213 3741.370850 6565.004395 0.508402 -0.423239 -0.749931
3300.171875 3090.925781 6825.155762 0.508402 -0.423239 -0.749931
2752.499023 3581.690186 6176.897461 0.508402 -0.423239 -0.749931
3364.761963 4451.640625 6448.735352 0.253382 0.964709 0.071659
3257.410889 4473.833496 6529.550781 0.253382 0.964709 0.071659
3375.437988 4429.782715 6705.247559 0.253382 0.964709 0.071659
3364.761963 4451.640625 6448.735352 0.789255 0.172772 -0.589259
3626.700439 4106.190918 6698.290039 0.789255 0.172772 -0.589259
3573.284668 3947.140625 6580.110840 0.789255 0.172772 -0.589259
2547.755127 2901.796875 6423.341309 0.137960 -0.971187 -0.194328
2840.958008 2889.643311 6692.234375 0.137960 -0.971187 -0.194328
2447.572266 2838.146729 6670.320312 0.137960 -0.971187 -0.194328
2547.755127 2901.796875 6423.341309 0.464152 -0.703707 -0.537921
3300.171875 3090.925781 6825.155762 0.464152 -0.703707 -0.537921
2840.958008 2889.643311 6692.234375 0.464152 -0.703707 -0.537921
3375.437988 4429.782715 6705.247559 0.565910 0.823149 0.046589
3518.393066 4332.574707 6686.293457 0.565910 0.823149 0.046589
3364.761963 4451.640625 6448.735352 0.565910 0.823149 0.046589
1925.666992 2951.714844 6514.505859 -0.835561 -0.081701 0.543289
1994.566406 2891.190430 6611.369141 -0.835561 -0.081701 0.543289
2011.796143 3127.570312 6673.415039 -0.835561 -0.081701 0.543289
3338.901855 3225.719727 6897.822266 0.819713 -0.431965 -0.376134
3457.918213 3741.370850 6565.004395 0.819713 -0.431965 -0.376134
3573.284668 3947.140625 6580.110840 0.819713 -0.431965 -0.376134
3573.284668 3947.140625 6580.110840 0.952501 -0.303761 -0.021707
3626.700439 4106.190918 6698.290039 0.952501 -0.303761 -0.021707
3563.579834 3910.010010 6673.858398 0.952501 -0.303761 -0.021707
3563.579834 3910.010010 6673.858398 0.946865 -0.320335 -0.028855
3338.901855 3225.719727 6897.822266 0.946865 -0.320335 -0.028855
3573.284668 3947.140625 6580.110840 0.946865 -0.320335 -0.028855
3626.700439 4106.190918 6698.290039 0.850355 0.387993 -0.355468
3364.761963 4451.640625 6448.735352 0.850355 0.387993 -0.355468
3518.393066 4332.574707 6686.293457 0.850355 0.387993 -0.355468
3257.410889 4473.833496 6529.550781 -0.370215 0.811479 0.452152
3153.842285 4356.794434 6654.800781 -0.370215 0.811479 0.452152
3375.437988 4429.782715 6705.247559 -0.370215 0.811479 0.452152
2011.796143 3127.570312 6673.415039 -0.451284 -0.195643 0.870670
1994.566406 2891.190430 6611.369141 -0.451284 -0.195643 0.870670
2121.196289 3026.610596 6707.433105 -0.451284 -0.195643 0.870670
3434.664795 4008.934814 6694.015625 -0.054299 0.068466 0.996175
3153.842285 4356.794434 6654.800781 -0.054299 0.068466 0.996175
2982.117188 4191.205566 6656.821289 -0.054299 0.068466 0.996175
2121.196289 3026.610596 6707.433105 -0.167410 -0.461476 0.871214
1994.566406 2891.190430 6611.369141 -0.167410 -0.461476 0.871214
2447.572266 2838.146729 6670.320312 -0.167410 -0.461476 0.871214
3434.664795 4008.934814 6694.015625 -0.283689 -0.121794 0.951150
3544.142090 4189.463379 6749.784668 -0.283689 -0.121794 0.951150
3153.842285 4356.794434 6654.800781 -0.283689 -0.121794 0.951150
3544.142090 4189.463379 6749.784668 -0.228240 0.020170 0.973396
3375.437988 4429.782715 6705.247559 -0.228240 0.020170 0.973396
3153.842285 4356.794434 6654.800781 -0.228240 0.020170 0.973396
2840.958008 2889.643311 6692.234375 0.112688 -0.963749 0.241844
2837.351074 2916.729004 6801.851562 0.112688 -0.963749 0.241844
2447.572266 2838.146729 6670.320312 0.112688 -0.963749 0.241844
2840.958008 2889.643311 6692.234375 0.436370 -0.883674 -0.169414
3300.171875 3090.925781 6825.155762 0.436370 -0.883674 -0.169414
3222.411133 3045.000488 6864.412109 0.436370 -0.883674 -0.169414
3300.171875 3090.925781 6825.155762 0.966414 -0.252818 -0.046112
3457.918213 3741.370850 6565.004395 0.966414 -0.252818 -0.046112
3338.901855 3225.719727 6897.822266 0.966414 -0.252818 -0.046112
2358.243896 3584.755615 6817.342285 -0.780226 0.456687 0.427417
2513.528809 3864.854004 6801.526367 -0.780226 0.456687 0.427417
2011.796143 3127.570312 6673.415039 -0.780226 0.456687 0.427417
3563.579834 3910.010010 6673.858398 -0.053015 -0.265254 0.962720
3544.142090 4189.463379 6749.784668 -0.053015 -0.265254 0.962720
3434.664795 4008.934814 6694.015625 -0.053015 -0.265254 0.962720
3626.700439 4106.190918 6698.290039 0.343062 -0.223983 0.912217
3544.142090 4189.463379 6749.784668 0.343062 -0.223983 0.912217
3563.579834 3910.010010 6673.858398 0.343062 -0.223983 0.912217
2840.958008 2889.643311 6692.234375 0.271653 -0.932176 0.239273
3222.411133 3045.000488 6864.412109 0.271653 -0.932176 0.239273
2837.351074 2916.729004 6801.851562 0.271653 -0.932176 0.239273
2837.351074 2916.729004 6801.851562 -0.187592 -0.492250 0.849999
2121.196289 3026.610596 6707.433105 -0.187592 -0.492250 0.849999
2447.572266 2838.146729 6670.320312 -0.187592 -0.492250 0.849999
3337.089600 3462.518311 6910.797852 0.067434 0.357506 0.931473
3434.664795 4008.934814 6694.015625 0.067434 0.357506 0.931473
2982.117188 4191.205566 6656.821289 0.067434 0.357506 0.931473
3626.700439 4106.190918 6698.290039 0.734595 0.381193 0.561304
3518.393066 4332.574707 6686.293457 0.734595 0.381193 0.561304
3544.142090 4189.463379 6749.784668 0.734595 0.381193 0.561304
3544.142090 4189.463379 6749.784668 0.400210 0.430844 0.808830
3518.393066 4332.574707 6686.293457 0.400210 0.430844 0.808830
3375.437988 4429.782715 6705.247559 0.400210 0.430844 0.808830
3337.089600 3462.518311 6910.797852 0.750608 -0.030423 0.660047
3338.901855 3225.719727 6897.822266 0.750608 -0.030423 0.660047
3563.579834 3910.010010 6673.858398 0.750608 -0.030423 0.660047
3563.579834 3910.010010 6673.858398 0.359693 0.287889 0.887548
3434.664795 4008.934814 6694.015625 0.359693 0.287889 0.887548
3337.089600 3462.518311 6910.797852 0.359693 0.287889 0.887548
2121.196289 3026.610596 6707.433105 -0.333344 -0.043881 0.941783
2358.243896 3584.755615 6817.342285 -0.333344 -0.043881 0.941783
2011.796143 3127.570312 6673.415039 -0.333344 -0.043881 0.941783
2982.117188 4191.205566 6656.821289 0.102496 0.371542 0.922741
2678.849854 4028.251221 6756.121094 0.102496 0.371542 0.922741
3337.089600 3462.518311 6910.797852 0.102496 0.371542 0.922741
3089.698486 3321.537354 6931.558594 -0.159367 -0.209753 0.964679
2121.196289 3026.610596 6707.433105 -0.159367 -0.209753 0.964679
2837.351074 2916.729004 6801.851562 -0.159367 -0.209753 0.964679
2358.243896 3584.755615 6817.342285 -0.192024 -0.110472 0.975153
2121.196289 3026.610596 6707.433105 -0.192024 -0.110472 0.975153
3089.698486 3321.537354 6931.558594 -0.192024 -0.110472 0.975153
3337.089600 3462.518311 6910.797852 0.001982 0.265875 0.964006
2678.849854 4028.251221 6756.121094 0.001982 0.265875 0.964006
2513.528809 3864.854004 6801.526367 0.001982 0.265875 0.964006
3337.089600 3462.518311 6910.797852 -0.081992 0.101439 0.991457
2513.528809 3864.854004 6801.526367 -0.081992 0.101439 0.991457
2358.243896 3584.755615 6817.342285 -0.081992 0.101439 0.991457
2837.351074 2916.729004 6801.851562 -0.067639 -0.265951 0.961611
3222.411133 3045.000488 6864.412109 -0.067639 -0.265951 0.961611
3089.698486 3321.537354 6931.558594 -0.067639 -0.265951 0.961611
3300.171875 3090.925781 6825.155762 0.607688 -0.505024 0.612916
3338.901855 3225.719727 6897.822266 0.607688 -0.505024 0.612916
3222.411133 3045.000488 6864.412109 0.607688 -0.505024 0.612916
3089.698486 3321.537354 6931.558594 -0.061107 0.249546 0.966433
3337.089600 3462.518311 6910.797852 -0.061107 0.249546 0.966433
2358.243896 3584.755615 6817.342285 -0.061107 0.249546 0.966433
3338.901855 3225.719727 6897.822266 0.050277 -0.212808 0.975800
3089.698486 3321.537354 6931.558594 0.050277 -0.212808 0.975800
3222.411133 3045.000488 6864.412109 0.050277 -0.212808 0.975800
3338.901855 3225.719727 6897.822266 0.113736 -0.053491 0.992070
3337.089600 3462.518311 6910.797852 0.113736 -0.053491 0.992070
3089.698486 3321.537354 6931.558594 0.113736 -0.053491 0.992070
3 0 1 2
3 3 4 5
3 6 7 8
3 9 10 11
3 12 13 14
3 15 16 17
3 18 19 20
3 21 22 23
3 24 25 26
3 27 28 29
3 30 31 32
3 33 34 35
3 36 37 38
3 39 40 41
3 42 43 44
3 45 46 47
3 48 49 50
3 51 52 53
3 54 55 56
3 57 58 59
3 60 61 62
3 63 64 65
3 66 67 68
3 69 70 71
3 72 73 74
3 75 76 77
3 78 79 80
3 81 82 83
3 84 85 86
3 87 88 89
3 90 91 92
3 93 94 95
3 96 97 98
3 99 100 101
3 102 103 104
3 105 106 107
3 108 109 110
3 111 112 113
3 114 115 116
3 117 118 119
3 120 121 122
3 123 124 125
3 126 127 128
3 129 130 131
3 132 133 134
3 135 136 137
3 138 139 140
3 141 142 143
3 144 145 146
3 147 148 149
3 150 151 152
3 153 154 155
3 156 157 158
3 159 160 161
3 162 163 164
3 165 166 167
3 168 169 170
3 171 172 173
3 174 175 176
3 177 178 179
3 180 181 182
3 183 184 185
3 186 187 188
3 189 190 191
3 192 193 194
3 195 196 197
3 198 199 200
3 201 202 203
3 204 205 206
3 207 208 209
3 210 211 212
3 213 214 215
3 216 217 218
3 219 220 221
3 222 223 224
3 225 226 227
3 228 229 230
3 231 232 233
3 234 235 236
3 237 238 239
3 240 241 242
3 243 244 245
3 246 247 248
3 249 250 251
3 252 253 254
3 255 256 257
3 258 259 260
3 261 262 263
3 264 265 266
3 267 268 269
3 270 271 272
3 273 274 275
3 276 277 278
3 279 280 281
3 282 283 284
3 285 286 287
3 288 289 290
3 291 292 293
3 294 295 296
3 297 298 299
3 300 301 302
3 303 304 305
3 306 307 308
3 309 310 311
3 312 313 314
3 315 316 317
3 318 319 320
3 321 322 323
3 324 325 326
3 327 328 329
3 330 331 332
3 333 334 335
3 336 337 338
3 339 340 341
3 342 343 344
3 345 346 347
3 348 349 350
3 351 352 353
3 354 355 356
3 357 358 359
3 360 361 362
3 363 364 365
3 366 367 368
3 369 370 371
3 372 373 374
3 375 376 377
3 378 379 380
3 381 382 383
3 384 385 386
3 387 388 389
3 390 391 392
3 393 394 395
3 396 397 398
3 399 400 401
3 402 403 404
3 405 406 407
3 408 409 410
3 411 412 413
3 414 415 416
3 417 418 419
3 420 421 422
3 423 424 425
3 426 427 428
3 429 430 431
3 432 433 434
3 435 436 437
3 438 439 440
3 441 442 443
3 444 445 446
3 447 448 449
3 450 451 452
3 453 454 455
3 456 457 458
3 459 460 461
