ply
format ascii 1.0
comment Created by Blender 2.80 (sub 75) - www.blender.org, source file: 'downsample_ccf.blend'
element vertex 78
property float x
property float y
property float z
property float nx
property float ny
property float nz
element face 26
property list uchar uint vertex_indices
end_header
12150.181641 5302.600586 3497.832275 -0.181820 -0.756566 -0.628131
12388.736328 5355.963379 3364.505859 -0.181820 -0.756566 -0.628131
12417.552734 5011.491211 3771.071777 -0.181820 -0.756566 -0.628131
12417.552734 5011.491211 3771.071777 0.435264 -0.671449 -0.599751
12388.736328 5355.963379 3364.505859 0.435264 -0.671449 -0.599751
12668.251953 5183.334961 3760.627197 0.435264 -0.671449 -0.599751
12150.181641 5302.600586 3497.832275 -0.244589 -0.773479 -0.584728
12417.552734 5011.491211 3771.071777 -0.244589 -0.773479 -0.584728
12183.227539 5119.742676 3725.893799 -0.244589 -0.773479 -0.584728
12683.682617 5210.210938 3923.117920 0.689916 0.700785 -0.181427
12668.251953 5183.334961 3760.627197 0.689916 0.700785 -0.181427
12388.736328 5355.963379 3364.505859 0.689916 0.700785 -0.181427
12388.736328 5355.963379 3364.505859 -0.057608 0.958148 0.280416
12150.181641 5302.600586 3497.832275 -0.057608 0.958148 0.280416
12683.682617 5210.210938 3923.117920 -0.057608 0.958148 0.280416
12183.227539 5119.742676 3725.893799 -0.368076 0.698658 0.613512
12683.682617 5210.210938 3923.117920 -0.368076 0.698658 0.613512
12150.181641 5302.600586 3497.832275 -0.368076 0.698658 0.613512
12683.682617 5210.210938 3923.117920 -0.381361 0.625262 0.680890
12183.227539 5119.742676 3725.893799 -0.381361 0.625262 0.680890
12374.629883 5027.429199 3917.868408 -0.381361 0.625262 0.680890
12668.251953 5183.334961 3760.627197 0.531088 0.826397 -0.187120
12683.682617 5210.210938 3923.117920 0.531088 0.826397 -0.187120
12972.629883 5059.713867 4078.558594 0.531088 0.826397 -0.187120
12374.629883 5027.429199 3917.868408 -0.415644 -0.909241 -0.022815
12183.227539 5119.742676 3725.893799 -0.415644 -0.909241 -0.022815
12417.552734 5011.491211 3771.071777 -0.415644 -0.909241 -0.022815
12972.629883 5059.713867 4078.558594 0.413356 -0.642268 -0.645468
12417.552734 5011.491211 3771.071777 0.413356 -0.642268 -0.645468
12668.251953 5183.334961 3760.627197 0.413356 -0.642268 -0.645468
12683.682617 5210.210938 3923.117920 -0.257280 0.409883 0.875102
12374.629883 5027.429199 3917.868408 -0.257280 0.409883 0.875102
12972.629883 5059.713867 4078.558594 -0.257280 0.409883 0.875102
12374.629883 5027.429199 3917.868408 0.022848 -0.993159 0.114510
12417.552734 5011.491211 3771.071777 0.022848 -0.993159 0.114510
12972.629883 5059.713867 4078.558594 0.022848 -0.993159 0.114510
12501.559570 5003.145996 7565.554199 0.317997 -0.890757 0.324701
12935.170898 5050.098145 7269.699707 0.317997 -0.890757 0.324701
12928.518555 5081.650391 7362.772461 0.317997 -0.890757 0.324701
12753.627930 5129.109863 7334.645996 -0.468492 -0.452953 -0.758517
12935.170898 5050.098145 7269.699707 -0.468492 -0.452953 -0.758517
12501.559570 5003.145996 7565.554199 -0.468492 -0.452953 -0.758517
12370.946289 5011.051270 7457.348633 0.192044 -0.934384 -0.300077
12753.627930 5129.109863 7334.645996 0.192044 -0.934384 -0.300077
12501.559570 5003.145996 7565.554199 0.192044 -0.934384 -0.300077
12935.170898 5050.098145 7269.699707 0.293666 0.911488 -0.288010
12753.627930 5129.109863 7334.645996 0.293666 0.911488 -0.288010
12928.518555 5081.650391 7362.772461 0.293666 0.911488 -0.288010
12573.062500 5281.147949 7704.699219 0.289941 0.926658 -0.239247
12928.518555 5081.650391 7362.772461 0.289941 0.926658 -0.239247
12753.627930 5129.109863 7334.645996 0.289941 0.926658 -0.239247
12753.627930 5129.109863 7334.645996 -0.404835 0.565157 -0.718823
12370.946289 5011.051270 7457.348633 -0.404835 0.565157 -0.718823
12115.090820 5279.684570 7812.650879 -0.404835 0.565157 -0.718823
12753.627930 5129.109863 7334.645996 -0.101929 0.901689 -0.420199
12115.090820 5279.684570 7812.650879 -0.101929 0.901689 -0.420199
12573.062500 5281.147949 7704.699219 -0.101929 0.901689 -0.420199
12370.946289 5011.051270 7457.348633 -0.866542 -0.329517 -0.374865
12190.814453 5125.533691 7773.110352 -0.866542 -0.329517 -0.374865
12115.090820 5279.684570 7812.650879 -0.866542 -0.329517 -0.374865
12370.946289 5011.051270 7457.348633 -0.232640 -0.949296 0.211463
12501.559570 5003.145996 7565.554199 -0.232640 -0.949296 0.211463
12190.814453 5125.533691 7773.110352 -0.232640 -0.949296 0.211463
12928.518555 5081.650391 7362.772461 0.620223 0.757805 0.202621
12573.062500 5281.147949 7704.699219 0.620223 0.757805 0.202621
12402.547852 5342.015137 7999.000000 0.620223 0.757805 0.202621
12928.518555 5081.650391 7362.772461 0.415931 -0.667901 0.617178
12402.547852 5342.015137 7999.000000 0.415931 -0.667901 0.617178
12501.559570 5003.145996 7565.554199 0.415931 -0.667901 0.617178
12501.559570 5003.145996 7565.554199 0.116515 -0.769358 0.628102
12402.547852 5342.015137 7999.000000 0.116515 -0.769358 0.628102
12190.814453 5125.533691 7773.110352 0.116515 -0.769358 0.628102
12190.814453 5125.533691 7773.110352 -0.429255 -0.416439 0.801448
12402.547852 5342.015137 7999.000000 -0.429255 -0.416439 0.801448
12115.090820 5279.684570 7812.650879 -0.429255 -0.416439 0.801448
12573.062500 5281.147949 7704.699219 -0.058379 0.970358 -0.234514
12115.090820 5279.684570 7812.650879 -0.058379 0.970358 -0.234514
12402.547852 5342.015137 7999.000000 -0.058379 0.970358 -0.234514
3 0 1 2
3 3 4 5
3 6 7 8
3 9 10 11
3 12 13 14
3 15 16 17
3 18 19 20
3 21 22 23
3 24 25 26
3 27 28 29
3 30 31 32
3 33 34 35
3 36 37 38
3 39 40 41
3 42 43 44
3 45 46 47
3 48 49 50
3 51 52 53
3 54 55 56
3 57 58 59
3 60 61 62
3 63 64 65
3 66 67 68
3 69 70 71
3 72 73 74
3 75 76 77
