ply
format ascii 1.0
comment Created by Blender 2.80 (sub 75) - www.blender.org, source file: 'downsample_ccf.blend'
element vertex 384
property float x
property float y
property float z
property float nx
property float ny
property float nz
element face 128
property list uchar uint vertex_indices
end_header
10313.930664 2468.106689 1991.781616 0.866769 -0.303792 -0.395502
10271.801758 2612.622559 1788.448120 0.866769 -0.303792 -0.395502
10377.764648 2604.791748 2026.687988 0.866769 -0.303792 -0.395502
10140.804688 2454.188232 2187.712158 -0.450965 -0.768979 -0.453103
10271.801758 2612.622559 1788.448120 -0.450965 -0.768979 -0.453103
10313.930664 2468.106689 1991.781616 -0.450965 -0.768979 -0.453103
10140.804688 2454.188232 2187.712158 -0.828472 0.557749 -0.050495
10241.311523 2603.160400 2184.187500 -0.828472 0.557749 -0.050495
10271.801758 2612.622559 1788.448120 -0.828472 0.557749 -0.050495
10308.509766 2661.922607 2468.798096 0.259317 0.962157 -0.083712
10377.764648 2604.791748 2026.687988 0.259317 0.962157 -0.083712
10271.801758 2612.622559 1788.448120 0.259317 0.962157 -0.083712
10241.311523 2603.160400 2184.187500 -0.592378 0.805228 -0.026387
10308.509766 2661.922607 2468.798096 -0.592378 0.805228 -0.026387
10271.801758 2612.622559 1788.448120 -0.592378 0.805228 -0.026387
10313.930664 2468.106689 1991.781616 0.910786 -0.405479 -0.077813
10377.764648 2604.791748 2026.687988 0.910786 -0.405479 -0.077813
10334.994141 2437.459717 2398.025635 0.910786 -0.405479 -0.077813
10140.804688 2454.188232 2187.712158 0.013447 -0.998166 -0.059025
10313.930664 2468.106689 1991.781616 0.013447 -0.998166 -0.059025
10015.184570 2433.224365 2513.609619 0.013447 -0.998166 -0.059025
10308.509766 2661.922607 2468.798096 0.383173 0.882511 -0.272677
10241.311523 2603.160400 2184.187500 0.383173 0.882511 -0.272677
10251.728516 2700.459473 2513.730957 0.383173 0.882511 -0.272677
10334.994141 2437.459717 2398.025635 0.986843 0.070573 0.145466
10377.764648 2604.791748 2026.687988 0.986843 0.070573 0.145466
10308.509766 2661.922607 2468.798096 0.986843 0.070573 0.145466
10015.184570 2433.224365 2513.609619 -0.800213 0.533392 -0.274138
10241.311523 2603.160400 2184.187500 -0.800213 0.533392 -0.274138
10140.804688 2454.188232 2187.712158 -0.800213 0.533392 -0.274138
10313.930664 2468.106689 1991.781616 -0.013724 -0.997126 -0.074511
10334.994141 2437.459717 2398.025635 -0.013724 -0.997126 -0.074511
10015.184570 2433.224365 2513.609619 -0.013724 -0.997126 -0.074511
10251.728516 2700.459473 2513.730957 -0.737917 0.653247 -0.169548
10241.311523 2603.160400 2184.187500 -0.737917 0.653247 -0.169548
10015.184570 2433.224365 2513.609619 -0.737917 0.653247 -0.169548
10334.994141 2437.459717 2398.025635 0.961894 0.027729 0.272014
10308.509766 2661.922607 2468.798096 0.961894 0.027729 0.272014
10206.076172 2445.861572 2853.047363 0.961894 0.027729 0.272014
10334.994141 2437.459717 2398.025635 -0.214368 -0.754117 -0.620768
9764.299805 2360.008301 2689.190674 -0.214368 -0.754117 -0.620768
10015.184570 2433.224365 2513.609619 -0.214368 -0.754117 -0.620768
9464.755859 3558.601318 2605.038086 -0.445876 -0.008058 -0.895058
9425.101562 4978.899414 2612.005615 -0.445876 -0.008058 -0.895058
9552.307617 4350.751465 2554.292480 -0.445876 -0.008058 -0.895058
9552.307617 4350.751465 2554.292480 0.531007 0.183540 -0.827251
9425.101562 4978.899414 2612.005615 0.531007 0.183540 -0.827251
9598.425781 4944.879395 2715.713379 0.531007 0.183540 -0.827251
10015.184570 2433.224365 2513.609619 -0.586507 0.519431 -0.621451
9764.299805 2360.008301 2689.190674 -0.586507 0.519431 -0.621451
10251.728516 2700.459473 2513.730957 -0.586507 0.519431 -0.621451
10144.608398 2966.797607 2699.598633 -0.519113 0.338816 -0.784682
10251.728516 2700.459473 2513.730957 -0.519113 0.338816 -0.784682
9764.299805 2360.008301 2689.190674 -0.519113 0.338816 -0.784682
10308.509766 2661.922607 2468.798096 -0.206085 0.598762 -0.773959
10251.728516 2700.459473 2513.730957 -0.206085 0.598762 -0.773959
10152.111328 2959.252686 2740.468018 -0.206085 0.598762 -0.773959
10144.608398 2966.797607 2699.598633 0.901640 0.423579 -0.087329
10152.111328 2959.252686 2740.468018 0.901640 0.423579 -0.087329
10251.728516 2700.459473 2513.730957 0.901640 0.423579 -0.087329
9552.307617 4350.751465 2554.292480 0.347773 -0.098169 -0.932425
9839.185547 3511.308838 2749.670898 0.347773 -0.098169 -0.932425
9464.755859 3558.601318 2605.038086 0.347773 -0.098169 -0.932425
9766.809570 4413.865723 2750.943359 0.642704 0.154011 -0.750475
9552.307617 4350.751465 2554.292480 0.642704 0.154011 -0.750475
9598.425781 4944.879395 2715.713379 0.642704 0.154011 -0.750475
9766.809570 4413.865723 2750.943359 0.666014 0.054456 -0.743949
9839.185547 3511.308838 2749.670898 0.666014 0.054456 -0.743949
9552.307617 4350.751465 2554.292480 0.666014 0.054456 -0.743949
9764.299805 2360.008301 2689.190674 -0.494421 0.323718 -0.806694
9692.024414 2548.033936 2808.940918 -0.494421 0.323718 -0.806694
10144.608398 2966.797607 2699.598633 -0.494421 0.323718 -0.806694
9839.185547 3511.308838 2749.670898 0.308713 -0.307988 -0.899911
9549.981445 3099.142578 2791.520996 0.308713 -0.307988 -0.899911
9464.755859 3558.601318 2605.038086 0.308713 -0.307988 -0.899911
9549.981445 3099.142578 2791.520996 -0.984800 -0.171492 0.027545
9371.350586 4164.074219 3035.174316 -0.984800 -0.171492 0.027545
9464.755859 3558.601318 2605.038086 -0.984800 -0.171492 0.027545
9598.425781 4944.879395 2715.713379 0.509617 0.529851 -0.677900
9425.101562 4978.899414 2612.005615 0.509617 0.529851 -0.677900
9472.973633 5252.527832 2861.863770 0.509617 0.529851 -0.677900
10152.111328 2959.252686 2740.468018 0.923389 0.172284 0.343032
10206.076172 2445.861572 2853.047363 0.923389 0.172284 0.343032
10308.509766 2661.922607 2468.798096 0.923389 0.172284 0.343032
9952.395508 3531.658203 2796.478271 0.326907 0.266738 -0.906632
10144.608398 2966.797607 2699.598633 0.326907 0.266738 -0.906632
9839.185547 3511.308838 2749.670898 0.326907 0.266738 -0.906632
9472.973633 5252.527832 2861.863770 0.243161 0.630524 -0.737097
9425.101562 4978.899414 2612.005615 0.243161 0.630524 -0.737097
9378.711914 5191.202637 2778.309326 0.243161 0.630524 -0.737097
9839.185547 3511.308838 2749.670898 0.042050 -0.130089 -0.990610
9645.510742 2856.776123 2827.404053 0.042050 -0.130089 -0.990610
9549.981445 3099.142578 2791.520996 0.042050 -0.130089 -0.990610
10144.608398 2966.797607 2699.598633 0.935126 0.336982 -0.109463
9952.395508 3531.658203 2796.478271 0.935126 0.336982 -0.109463
10152.111328 2959.252686 2740.468018 0.935126 0.336982 -0.109463
9952.395508 3531.658203 2796.478271 0.377049 0.031541 -0.925656
9839.185547 3511.308838 2749.670898 0.377049 0.031541 -0.925656
9766.809570 4413.865723 2750.943359 0.377049 0.031541 -0.925656
9764.299805 2360.008301 2689.190674 0.166910 -0.983797 0.065455
10334.994141 2437.459717 2398.025635 0.166910 -0.983797 0.065455
10206.076172 2445.861572 2853.047363 0.166910 -0.983797 0.065455
9692.024414 2548.033936 2808.940918 -0.252129 0.019872 -0.967490
9645.510742 2856.776123 2827.404053 -0.252129 0.019872 -0.967490
10144.608398 2966.797607 2699.598633 -0.252129 0.019872 -0.967490
10144.608398 2966.797607 2699.598633 -0.238581 -0.044614 -0.970097
9645.510742 2856.776123 2827.404053 -0.238581 -0.044614 -0.970097
9839.185547 3511.308838 2749.670898 -0.238581 -0.044614 -0.970097
9766.809570 4413.865723 2750.943359 0.938326 0.307969 0.157159
9598.425781 4944.879395 2715.713379 0.938326 0.307969 0.157159
9472.973633 5252.527832 2861.863770 0.938326 0.307969 0.157159
9764.299805 2360.008301 2689.190674 -0.807796 -0.504586 0.304729
9714.833984 2555.373779 2881.559814 -0.807796 -0.504586 0.304729
9692.024414 2548.033936 2808.940918 -0.807796 -0.504586 0.304729
9549.981445 3099.142578 2791.520996 -0.184772 -0.214814 -0.959018
9645.510742 2856.776123 2827.404053 -0.184772 -0.214814 -0.959018
9714.833984 2555.373779 2881.559814 -0.184772 -0.214814 -0.959018
9549.981445 3099.142578 2791.520996 -0.965615 -0.199980 0.166121
9466.676758 3788.935547 3137.679443 -0.965615 -0.199980 0.166121
9371.350586 4164.074219 3035.174316 -0.965615 -0.199980 0.166121
9714.833984 2555.373779 2881.559814 -0.488631 -0.671841 0.556659
9764.299805 2360.008301 2689.190674 -0.488631 -0.671841 0.556659
9910.967773 2411.936523 2880.607666 -0.488631 -0.671841 0.556659
9692.024414 2548.033936 2808.940918 -0.937063 -0.159740 0.310477
9714.833984 2555.373779 2881.559814 -0.937063 -0.159740 0.310477
9645.510742 2856.776123 2827.404053 -0.937063 -0.159740 0.310477
9378.711914 5191.202637 2778.309326 -0.431079 0.887137 -0.164798
9373.416016 5215.517578 2923.054443 -0.431079 0.887137 -0.164798
9472.973633 5252.527832 2861.863770 -0.431079 0.887137 -0.164798
9764.299805 2360.008301 2689.190674 0.127991 -0.977591 0.167135
10206.076172 2445.861572 2853.047363 0.127991 -0.977591 0.167135
9910.967773 2411.936523 2880.607666 0.127991 -0.977591 0.167135
9714.833984 2555.373779 2881.559814 -0.936090 -0.241431 0.255827
9466.676758 3788.935547 3137.679443 -0.936090 -0.241431 0.255827
9549.981445 3099.142578 2791.520996 -0.936090 -0.241431 0.255827
9371.350586 4164.074219 3035.174316 -0.983991 -0.026608 -0.176222
9425.101562 4978.899414 2612.005615 -0.983991 -0.026608 -0.176222
9464.755859 3558.601318 2605.038086 -0.983991 -0.026608 -0.176222
10084.986328 2547.606934 3020.398193 0.847285 0.197207 0.493171
10206.076172 2445.861572 2853.047363 0.847285 0.197207 0.493171
10152.111328 2959.252686 2740.468018 0.847285 0.197207 0.493171
10152.111328 2959.252686 2740.468018 0.836833 0.244023 0.490064
9952.395508 3531.658203 2796.478271 0.836833 0.244023 0.490064
9974.774414 2857.347412 3094.031006 0.836833 0.244023 0.490064
9766.809570 4413.865723 2750.943359 0.830418 0.223447 0.510369
9472.973633 5252.527832 2861.863770 0.830418 0.223447 0.510369
9974.774414 2857.347412 3094.031006 0.830418 0.223447 0.510369
9974.774414 2857.347412 3094.031006 0.890364 0.208198 0.404852
9952.395508 3531.658203 2796.478271 0.890364 0.208198 0.404852
9766.809570 4413.865723 2750.943359 0.890364 0.208198 0.404852
9371.350586 4164.074219 3035.174316 -0.975928 -0.046303 -0.213120
9378.711914 5191.202637 2778.309326 -0.975928 -0.046303 -0.213120
9425.101562 4978.899414 2612.005615 -0.975928 -0.046303 -0.213120
9371.350586 4164.074219 3035.174316 -0.999341 -0.001902 -0.036244
9373.416016 5215.517578 2923.054443 -0.999341 -0.001902 -0.036244
9378.711914 5191.202637 2778.309326 -0.999341 -0.001902 -0.036244
9910.967773 2411.936523 2880.607666 0.146372 -0.794711 0.589076
10206.076172 2445.861572 2853.047363 0.146372 -0.794711 0.589076
10084.986328 2547.606934 3020.398193 0.146372 -0.794711 0.589076
9714.833984 2555.373779 2881.559814 -0.322448 -0.446450 0.834691
9910.967773 2411.936523 2880.607666 -0.322448 -0.446450 0.834691
10084.986328 2547.606934 3020.398193 -0.322448 -0.446450 0.834691
10152.111328 2959.252686 2740.468018 0.854767 0.189257 0.483275
9974.774414 2857.347412 3094.031006 0.854767 0.189257 0.483275
10084.986328 2547.606934 3020.398193 0.854767 0.189257 0.483275
9371.350586 4164.074219 3035.174316 -0.998218 0.008263 0.059096
9375.367188 4542.013672 3050.178711 -0.998218 0.008263 0.059096
9373.416016 5215.517578 2923.054443 -0.998218 0.008263 0.059096
9472.973633 5252.527832 2861.863770 0.471239 0.164908 0.866452
9373.416016 5215.517578 2923.054443 0.471239 0.164908 0.866452
9375.367188 4542.013672 3050.178711 0.471239 0.164908 0.866452
9974.774414 2857.347412 3094.031006 0.532967 0.191547 0.824170
9472.973633 5252.527832 2861.863770 0.532967 0.191547 0.824170
9675.379883 3249.593506 3196.478516 0.532967 0.191547 0.824170
9675.379883 3249.593506 3196.478516 0.373208 0.189441 0.908200
9472.973633 5252.527832 2861.863770 0.373208 0.189441 0.908200
9375.367188 4542.013672 3050.178711 0.373208 0.189441 0.908200
9675.379883 3249.593506 3196.478516 -0.328455 -0.405610 0.852993
9714.833984 2555.373779 2881.559814 -0.328455 -0.405610 0.852993
10084.986328 2547.606934 3020.398193 -0.328455 -0.405610 0.852993
9675.379883 3249.593506 3196.478516 -0.830861 -0.268362 0.487495
9466.676758 3788.935547 3137.679443 -0.830861 -0.268362 0.487495
9714.833984 2555.373779 2881.559814 -0.830861 -0.268362 0.487495
9974.774414 2857.347412 3094.031006 0.056169 -0.211953 0.975664
9675.379883 3249.593506 3196.478516 0.056169 -0.211953 0.975664
10084.986328 2547.606934 3020.398193 0.056169 -0.211953 0.975664
9371.350586 4164.074219 3035.174316 -0.763346 -0.017524 0.645752
9466.676758 3788.935547 3137.679443 -0.763346 -0.017524 0.645752
9375.367188 4542.013672 3050.178711 -0.763346 -0.017524 0.645752
9466.676758 3788.935547 3137.679443 0.026787 0.118577 0.992584
9675.379883 3249.593506 3196.478516 0.026787 0.118577 0.992584
9375.367188 4542.013672 3050.178711 0.026787 0.118577 0.992584
9474.098633 3780.426270 8240.733398 0.230664 0.171662 -0.957772
9585.674805 4174.023438 8338.149414 0.230664 0.171662 -0.957772
9668.094727 3232.071533 8189.172363 0.230664 0.171662 -0.957772
9585.674805 4174.023438 8338.149414 0.483243 0.177861 -0.857229
9954.095703 2843.391113 8269.753906 0.483243 0.177861 -0.857229
9668.094727 3232.071533 8189.172363 0.483243 0.177861 -0.857229
9474.098633 3780.426270 8240.733398 0.231125 0.171510 -0.957687
9364.700195 4276.774902 8303.221680 0.231125 0.171510 -0.957687
9585.674805 4174.023438 8338.149414 0.231125 0.171510 -0.957687
9709.189453 2633.263184 8456.391602 -0.285785 -0.428326 -0.857242
9954.095703 2843.391113 8269.753906 -0.285785 -0.428326 -0.857242
10108.489258 2551.214111 8364.270508 -0.285785 -0.428326 -0.857242
9709.189453 2633.263184 8456.391602 -0.308222 -0.405236 -0.860688
9668.094727 3232.071533 8189.172363 -0.308222 -0.405236 -0.860688
9954.095703 2843.391113 8269.753906 -0.308222 -0.405236 -0.860688
9954.095703 2843.391113 8269.753906 0.730180 0.235144 -0.641517
9585.674805 4174.023438 8338.149414 0.730180 0.235144 -0.641517
9909.114258 3707.223877 8535.188477 0.730180 0.235144 -0.641517
9585.674805 4174.023438 8338.149414 0.218261 0.141146 -0.965629
9364.700195 4276.774902 8303.221680 0.218261 0.141146 -0.965629
9354.708008 5116.854980 8423.757812 0.218261 0.141146 -0.965629
9474.098633 3780.426270 8240.733398 -0.967320 -0.192414 -0.165131
9458.902344 3445.138428 8720.437500 -0.967320 -0.192414 -0.165131
9364.700195 4276.774902 8303.221680 -0.967320 -0.192414 -0.165131
10108.489258 2551.214111 8364.270508 -0.283397 -0.401210 -0.871044
9854.515625 2422.892090 8506.007812 -0.283397 -0.401210 -0.871044
9709.189453 2633.263184 8456.391602 -0.283397 -0.401210 -0.871044
10108.489258 2551.214111 8364.270508 0.085676 -0.810140 -0.579942
10206.839844 2424.255127 8556.153320 0.085676 -0.810140 -0.579942
9854.515625 2422.892090 8506.007812 0.085676 -0.810140 -0.579942
9954.095703 2843.391113 8269.753906 0.778251 0.221121 -0.587733
9909.114258 3707.223877 8535.188477 0.778251 0.221121 -0.587733
10108.489258 2551.214111 8364.270508 0.778251 0.221121 -0.587733
9585.674805 4174.023438 8338.149414 0.572239 0.212112 -0.792181
9354.708008 5116.854980 8423.757812 0.572239 0.212112 -0.792181
9423.111328 5265.716797 8513.028320 0.572239 0.212112 -0.792181
9909.114258 3707.223877 8535.188477 0.713948 0.213155 -0.666965
9585.674805 4174.023438 8338.149414 0.713948 0.213155 -0.666965
9423.111328 5265.716797 8513.028320 0.713948 0.213155 -0.666965
9709.189453 2633.263184 8456.391602 -0.914247 -0.215772 -0.342921
9566.218750 3045.515137 8578.164062 -0.914247 -0.215772 -0.342921
9668.094727 3232.071533 8189.172363 -0.914247 -0.215772 -0.342921
10092.632812 3123.466064 8651.781250 0.905026 0.210719 -0.369494
10108.489258 2551.214111 8364.270508 0.905026 0.210719 -0.369494
9909.114258 3707.223877 8535.188477 0.905026 0.210719 -0.369494
9668.094727 3232.071533 8189.172363 -0.887456 -0.279504 -0.366470
9566.218750 3045.515137 8578.164062 -0.887456 -0.279504 -0.366470
9474.098633 3780.426270 8240.733398 -0.887456 -0.279504 -0.366470
9474.098633 3780.426270 8240.733398 -0.965251 -0.198846 -0.169560
9566.218750 3045.515137 8578.164062 -0.965251 -0.198846 -0.169560
9458.902344 3445.138428 8720.437500 -0.965251 -0.198846 -0.169560
9605.897461 5014.683105 8596.516602 0.598056 0.175379 -0.782030
9909.114258 3707.223877 8535.188477 0.598056 0.175379 -0.782030
9423.111328 5265.716797 8513.028320 0.598056 0.175379 -0.782030
9709.189453 2633.263184 8456.391602 -0.868238 -0.407165 -0.283511
9757.993164 2370.555420 8684.220703 -0.868238 -0.407165 -0.283511
9679.656250 2618.153564 8568.535156 -0.868238 -0.407165 -0.283511
9679.656250 2618.153564 8568.535156 -0.930136 -0.240643 -0.277376
9566.218750 3045.515137 8578.164062 -0.930136 -0.240643 -0.277376
9709.189453 2633.263184 8456.391602 -0.930136 -0.240643 -0.277376
9854.515625 2422.892090 8506.007812 0.040891 -0.964449 -0.261087
10206.839844 2424.255127 8556.153320 0.040891 -0.964449 -0.261087
9757.993164 2370.555420 8684.220703 0.040891 -0.964449 -0.261087
10269.307617 2705.427734 8802.958008 0.914840 0.131798 -0.381703
10206.839844 2424.255127 8556.153320 0.914840 0.131798 -0.381703
10108.489258 2551.214111 8364.270508 0.914840 0.131798 -0.381703
10108.489258 2551.214111 8364.270508 0.885572 0.227895 -0.404755
10092.632812 3123.466064 8651.781250 0.885572 0.227895 -0.404755
10269.307617 2705.427734 8802.958008 0.885572 0.227895 -0.404755
9605.897461 5014.683105 8596.516602 0.957669 0.230204 -0.172847
9809.190430 4184.744141 8617.532227 0.957669 0.230204 -0.172847
9909.114258 3707.223877 8535.188477 0.957669 0.230204 -0.172847
9433.931641 4890.232422 8785.341797 -0.980916 -0.038998 0.190479
9354.708008 5116.854980 8423.757812 -0.980916 -0.038998 0.190479
9364.700195 4276.774902 8303.221680 -0.980916 -0.038998 0.190479
9709.189453 2633.263184 8456.391602 -0.643719 -0.566127 -0.514904
9854.515625 2422.892090 8506.007812 -0.643719 -0.566127 -0.514904
9757.993164 2370.555420 8684.220703 -0.643719 -0.566127 -0.514904
9897.808594 3611.203857 8614.654297 0.940600 0.143790 0.307564
9909.114258 3707.223877 8535.188477 0.940600 0.143790 0.307564
9809.190430 4184.744141 8617.532227 0.940600 0.143790 0.307564
9354.708008 5116.854980 8423.757812 -0.929813 0.296551 0.217958
9421.174805 5122.477051 8699.657227 -0.929813 0.296551 0.217958
9423.111328 5265.716797 8513.028320 -0.929813 0.296551 0.217958
9909.114258 3707.223877 8535.188477 0.772020 0.348824 0.531326
9897.808594 3611.203857 8614.654297 0.772020 0.348824 0.531326
10092.632812 3123.466064 8651.781250 0.772020 0.348824 0.531326
9423.111328 5265.716797 8513.028320 0.626326 0.615260 0.478718
9421.174805 5122.477051 8699.657227 0.626326 0.615260 0.478718
9605.897461 5014.683105 8596.516602 0.626326 0.615260 0.478718
9679.656250 2618.153564 8568.535156 -0.130019 -0.056815 0.989882
10092.632812 3123.466064 8651.781250 -0.130019 -0.056815 0.989882
9566.218750 3045.515137 8578.164062 -0.130019 -0.056815 0.989882
10092.632812 3123.466064 8651.781250 -0.141223 0.018933 0.989797
9897.808594 3611.203857 8614.654297 -0.141223 0.018933 0.989797
9566.218750 3045.515137 8578.164062 -0.141223 0.018933 0.989797
9486.225586 3658.480713 8790.198242 0.352476 -0.264515 0.897659
9566.218750 3045.515137 8578.164062 0.352476 -0.264515 0.897659
9897.808594 3611.203857 8614.654297 0.352476 -0.264515 0.897659
9364.700195 4276.774902 8303.221680 -0.984624 -0.024780 0.172921
9458.902344 3445.138428 8720.437500 -0.984624 -0.024780 0.172921
9433.931641 4890.232422 8785.341797 -0.984624 -0.024780 0.172921
9809.190430 4184.744141 8617.532227 0.830010 0.216328 0.514088
9605.897461 5014.683105 8596.516602 0.830010 0.216328 0.514088
9622.333008 4487.337891 8791.887695 0.830010 0.216328 0.514088
9757.993164 2370.555420 8684.220703 -0.473969 0.245187 0.845717
10132.785156 2625.088623 8820.473633 -0.473969 0.245187 0.845717
9679.656250 2618.153564 8568.535156 -0.473969 0.245187 0.845717
10132.785156 2625.088623 8820.473633 -0.473666 0.247890 0.845098
10092.632812 3123.466064 8651.781250 -0.473666 0.247890 0.845098
9679.656250 2618.153564 8568.535156 -0.473666 0.247890 0.845098
9433.931641 4890.232422 8785.341797 -0.971816 0.032750 0.233452
9421.174805 5122.477051 8699.657227 -0.971816 0.032750 0.233452
9354.708008 5116.854980 8423.757812 -0.971816 0.032750 0.233452
9458.902344 3445.138428 8720.437500 0.069206 -0.318047 0.945546
9566.218750 3045.515137 8578.164062 0.069206 -0.318047 0.945546
9486.225586 3658.480713 8790.198242 0.069206 -0.318047 0.945546
9809.190430 4184.744141 8617.532227 0.771581 0.116079 0.625451
9622.333008 4487.337891 8791.887695 0.771581 0.116079 0.625451
9897.808594 3611.203857 8614.654297 0.771581 0.116079 0.625451
10132.785156 2625.088623 8820.473633 -0.558472 0.448932 0.697545
9757.993164 2370.555420 8684.220703 -0.558472 0.448932 0.697545
9985.415039 2420.114990 8834.404297 -0.558472 0.448932 0.697545
9622.333008 4487.337891 8791.887695 0.602380 0.293743 0.742195
9605.897461 5014.683105 8596.516602 0.602380 0.293743 0.742195
9433.931641 4890.232422 8785.341797 0.602380 0.293743 0.742195
9605.897461 5014.683105 8596.516602 0.594211 0.306926 0.743445
9421.174805 5122.477051 8699.657227 0.594211 0.306926 0.743445
9433.931641 4890.232422 8785.341797 0.594211 0.306926 0.743445
9757.993164 2370.555420 8684.220703 -0.284516 0.951524 0.116844
10325.432617 2458.087158 9353.121094 -0.284516 0.951524 0.116844
9985.415039 2420.114990 8834.404297 -0.284516 0.951524 0.116844
10206.839844 2424.255127 8556.153320 0.125354 -0.991835 0.023451
10325.432617 2458.087158 9353.121094 0.125354 -0.991835 0.023451
9757.993164 2370.555420 8684.220703 0.125354 -0.991835 0.023451
10206.839844 2424.255127 8556.153320 0.956871 0.039990 -0.287749
10269.307617 2705.427734 8802.958008 0.956871 0.039990 -0.287749
10378.666992 2619.547607 9154.682617 0.956871 0.039990 -0.287749
10269.307617 2705.427734 8802.958008 -0.064080 0.315320 0.946820
10092.632812 3123.466064 8651.781250 -0.064080 0.315320 0.946820
10132.785156 2625.088623 8820.473633 -0.064080 0.315320 0.946820
9622.333008 4487.337891 8791.887695 0.385145 -0.065121 0.920555
9486.225586 3658.480713 8790.198242 0.385145 -0.065121 0.920555
9897.808594 3611.203857 8614.654297 0.385145 -0.065121 0.920555
10269.307617 2705.427734 8802.958008 -0.464557 0.846283 0.260752
10132.785156 2625.088623 8820.473633 -0.464557 0.846283 0.260752
10270.899414 2673.786377 8908.487305 -0.464557 0.846283 0.260752
10105.775391 2418.728516 9074.483398 0.443994 -0.866643 -0.227595
9985.415039 2420.114990 8834.404297 0.443994 -0.866643 -0.227595
10325.432617 2458.087158 9353.121094 0.443994 -0.866643 -0.227595
10206.839844 2424.255127 8556.153320 0.960336 -0.171789 -0.219643
10378.666992 2619.547607 9154.682617 0.960336 -0.171789 -0.219643
10371.425781 2480.025635 9232.146484 0.960336 -0.171789 -0.219643
9458.902344 3445.138428 8720.437500 -0.888350 -0.035910 0.457761
9486.225586 3658.480713 8790.198242 -0.888350 -0.035910 0.457761
9433.931641 4890.232422 8785.341797 -0.888350 -0.035910 0.457761
9486.225586 3658.480713 8790.198242 -0.028928 0.002713 0.999578
9622.333008 4487.337891 8791.887695 -0.028928 0.002713 0.999578
9433.931641 4890.232422 8785.341797 -0.028928 0.002713 0.999578
10206.839844 2424.255127 8556.153320 0.389561 -0.920807 -0.018880
10371.425781 2480.025635 9232.146484 0.389561 -0.920807 -0.018880
10325.432617 2458.087158 9353.121094 0.389561 -0.920807 -0.018880
10105.775391 2418.728516 9074.483398 -0.740591 0.557916 0.374507
10132.785156 2625.088623 8820.473633 -0.740591 0.557916 0.374507
9985.415039 2420.114990 8834.404297 -0.740591 0.557916 0.374507
10269.307617 2705.427734 8802.958008 -0.177243 0.941965 0.285107
10270.899414 2673.786377 8908.487305 -0.177243 0.941965 0.285107
10378.666992 2619.547607 9154.682617 -0.177243 0.941965 0.285107
10270.899414 2673.786377 8908.487305 0.388255 0.920963 0.032944
10309.233398 2635.860840 9516.941406 0.388255 0.920963 0.032944
10378.666992 2619.547607 9154.682617 0.388255 0.920963 0.032944
10270.899414 2673.786377 8908.487305 -0.395404 0.911106 0.116370
10132.785156 2625.088623 8820.473633 -0.395404 0.911106 0.116370
10240.207031 2579.281738 9544.116211 -0.395404 0.911106 0.116370
10132.785156 2625.088623 8820.473633 -0.934716 0.317906 0.158878
10105.775391 2418.728516 9074.483398 -0.934716 0.317906 0.158878
10240.207031 2579.281738 9544.116211 -0.934716 0.317906 0.158878
10270.899414 2673.786377 8908.487305 -0.610658 0.787042 0.087530
10240.207031 2579.281738 9544.116211 -0.610658 0.787042 0.087530
10309.233398 2635.860840 9516.941406 -0.610658 0.787042 0.087530
10105.775391 2418.728516 9074.483398 -0.341649 -0.855039 0.390108
10325.432617 2458.087158 9353.121094 -0.341649 -0.855039 0.390108
10240.207031 2579.281738 9544.116211 -0.341649 -0.855039 0.390108
10371.425781 2480.025635 9232.146484 0.981216 0.052187 0.185718
10378.666992 2619.547607 9154.682617 0.981216 0.052187 0.185718
10309.233398 2635.860840 9516.941406 0.981216 0.052187 0.185718
10309.233398 2635.860840 9516.941406 0.926534 -0.205790 0.314938
10325.432617 2458.087158 9353.121094 0.926534 -0.205790 0.314938
10371.425781 2480.025635 9232.146484 0.926534 -0.205790 0.314938
10240.207031 2579.281738 9544.116211 0.636428 -0.490541 0.595255
10325.432617 2458.087158 9353.121094 0.636428 -0.490541 0.595255
10309.233398 2635.860840 9516.941406 0.636428 -0.490541 0.595255
3 0 1 2
3 3 4 5
3 6 7 8
3 9 10 11
3 12 13 14
3 15 16 17
3 18 19 20
3 21 22 23
3 24 25 26
3 27 28 29
3 30 31 32
3 33 34 35
3 36 37 38
3 39 40 41
3 42 43 44
3 45 46 47
3 48 49 50
3 51 52 53
3 54 55 56
3 57 58 59
3 60 61 62
3 63 64 65
3 66 67 68
3 69 70 71
3 72 73 74
3 75 76 77
3 78 79 80
3 81 82 83
3 84 85 86
3 87 88 89
3 90 91 92
3 93 94 95
3 96 97 98
3 99 100 101
3 102 103 104
3 105 106 107
3 108 109 110
3 111 112 113
3 114 115 116
3 117 118 119
3 120 121 122
3 123 124 125
3 126 127 128
3 129 130 131
3 132 133 134
3 135 136 137
3 138 139 140
3 141 142 143
3 144 145 146
3 147 148 149
3 150 151 152
3 153 154 155
3 156 157 158
3 159 160 161
3 162 163 164
3 165 166 167
3 168 169 170
3 171 172 173
3 174 175 176
3 177 178 179
3 180 181 182
3 183 184 185
3 186 187 188
3 189 190 191
3 192 193 194
3 195 196 197
3 198 199 200
3 201 202 203
3 204 205 206
3 207 208 209
3 210 211 212
3 213 214 215
3 216 217 218
3 219 220 221
3 222 223 224
3 225 226 227
3 228 229 230
3 231 232 233
3 234 235 236
3 237 238 239
3 240 241 242
3 243 244 245
3 246 247 248
3 249 250 251
3 252 253 254
3 255 256 257
3 258 259 260
3 261 262 263
3 264 265 266
3 267 268 269
3 270 271 272
3 273 274 275
3 276 277 278
3 279 280 281
3 282 283 284
3 285 286 287
3 288 289 290
3 291 292 293
3 294 295 296
3 297 298 299
3 300 301 302
3 303 304 305
3 306 307 308
3 309 310 311
3 312 313 314
3 315 316 317
3 318 319 320
3 321 322 323
3 324 325 326
3 327 328 329
3 330 331 332
3 333 334 335
3 336 337 338
3 339 340 341
3 342 343 344
3 345 346 347
3 348 349 350
3 351 352 353
3 354 355 356
3 357 358 359
3 360 361 362
3 363 364 365
3 366 367 368
3 369 370 371
3 372 373 374
3 375 376 377
3 378 379 380
3 381 382 383
