ply
format ascii 1.0
comment Created by Blender 2.80 (sub 75) - www.blender.org, source file: 'downsample_ccf.blend'
element vertex 576
property float x
property float y
property float z
property float nx
property float ny
property float nz
element face 192
property list uchar uint vertex_indices
end_header
12150.797852 6752.168457 3713.545654 0.223856 -0.454095 -0.862372
12363.125000 6775.213867 3756.526855 0.223856 -0.454095 -0.862372
12389.615234 6617.166992 3846.625244 0.223856 -0.454095 -0.862372
12363.125000 6775.213867 3756.526855 0.062733 0.716941 -0.694305
12150.797852 6752.168457 3713.545654 0.062733 0.716941 -0.694305
12008.280273 6783.012695 3732.518555 0.062733 0.716941 -0.694305
12389.615234 6617.166992 3846.625244 -0.245458 -0.865210 -0.437220
12008.280273 6783.012695 3732.518555 -0.245458 -0.865210 -0.437220
12150.797852 6752.168457 3713.545654 -0.245458 -0.865210 -0.437220
11721.549805 6517.539551 3845.278076 -0.020132 -0.372367 -0.927867
11043.231445 6562.514648 3841.946045 -0.020132 -0.372367 -0.927867
12008.280273 6783.012695 3732.518555 -0.020132 -0.372367 -0.927867
12363.125000 6775.213867 3756.526855 0.040360 0.957535 -0.285478
12008.280273 6783.012695 3732.518555 0.040360 0.957535 -0.285478
11918.401367 6838.071289 3904.486572 0.040360 0.957535 -0.285478
12363.125000 6775.213867 3756.526855 0.147652 0.988754 0.023748
11918.401367 6838.071289 3904.486572 0.147652 0.988754 0.023748
12394.562500 6763.769531 4037.549072 0.147652 0.988754 0.023748
11043.231445 6562.514648 3841.946045 0.012819 0.119794 -0.992716
11721.549805 6517.539551 3845.278076 0.012819 0.119794 -0.992716
10822.605469 6498.108398 3831.324951 0.012819 0.119794 -0.992716
12389.615234 6617.166992 3846.625244 0.069267 -0.452455 -0.889093
11721.549805 6517.539551 3845.278076 0.069267 -0.452455 -0.889093
12008.280273 6783.012695 3732.518555 0.069267 -0.452455 -0.889093
11328.910156 6697.609375 3914.108643 -0.245256 0.806219 -0.538388
12008.280273 6783.012695 3732.518555 -0.245256 0.806219 -0.538388
11043.231445 6562.514648 3841.946045 -0.245256 0.806219 -0.538388
12363.125000 6775.213867 3756.526855 0.988760 0.105110 -0.106330
12394.562500 6763.769531 4037.549072 0.988760 0.105110 -0.106330
12389.615234 6617.166992 3846.625244 0.988760 0.105110 -0.106330
12008.280273 6783.012695 3732.518555 -0.218666 0.890342 -0.399344
11328.910156 6697.609375 3914.108643 -0.218666 0.890342 -0.399344
11918.401367 6838.071289 3904.486572 -0.218666 0.890342 -0.399344
10607.604492 5783.445312 3881.373047 -0.000329 0.158006 -0.987438
10396.482422 5749.867188 3876.070312 -0.000329 0.158006 -0.987438
10797.155273 5917.203125 3902.713379 -0.000329 0.158006 -0.987438
10396.482422 5749.867188 3876.070312 -0.153244 0.028202 -0.987786
10482.916016 6358.763672 3880.045654 -0.153244 0.028202 -0.987786
10822.605469 6498.108398 3831.324951 -0.153244 0.028202 -0.987786
10797.155273 5917.203125 3902.713379 0.118208 -0.126219 -0.984934
10396.482422 5749.867188 3876.070312 0.118208 -0.126219 -0.984934
10822.605469 6498.108398 3831.324951 0.118208 -0.126219 -0.984934
11594.650391 6176.873535 3868.332520 -0.003118 -0.121839 -0.992545
10797.155273 5917.203125 3902.713379 -0.003118 -0.121839 -0.992545
10822.605469 6498.108398 3831.324951 -0.003118 -0.121839 -0.992545
11721.549805 6517.539551 3845.278076 0.017073 -0.073840 -0.997124
11594.650391 6176.873535 3868.332520 0.017073 -0.073840 -0.997124
10822.605469 6498.108398 3831.324951 0.017073 -0.073840 -0.997124
11828.257812 5991.442871 3943.966064 0.202001 -0.140837 -0.969206
11594.650391 6176.873535 3868.332520 0.202001 -0.140837 -0.969206
11721.549805 6517.539551 3845.278076 0.202001 -0.140837 -0.969206
12350.943359 6132.500977 3936.447510 0.029483 -0.184420 -0.982405
11721.549805 6517.539551 3845.278076 0.029483 -0.184420 -0.982405
12389.615234 6617.166992 3846.625244 0.029483 -0.184420 -0.982405
10572.997070 5286.424316 3944.410889 0.045367 -0.128802 -0.990632
10396.482422 5749.867188 3876.070312 0.045367 -0.128802 -0.990632
10607.604492 5783.445312 3881.373047 0.045367 -0.128802 -0.990632
11828.257812 5991.442871 3943.966064 0.033792 -0.177639 -0.983515
11721.549805 6517.539551 3845.278076 0.033792 -0.177639 -0.983515
12350.943359 6132.500977 3936.447510 0.033792 -0.177639 -0.983515
10482.916016 6358.763672 3880.045654 -0.346694 0.590288 -0.728947
10544.750000 6464.169922 3935.992920 -0.346694 0.590288 -0.728947
10822.605469 6498.108398 3831.324951 -0.346694 0.590288 -0.728947
10822.605469 6498.108398 3831.324951 -0.175373 0.972999 -0.150058
10544.750000 6464.169922 3935.992920 -0.175373 0.972999 -0.150058
10951.242188 6532.767578 3905.722168 -0.175373 0.972999 -0.150058
11043.231445 6562.514648 3841.946045 -0.281800 0.958611 0.040662
10822.605469 6498.108398 3831.324951 -0.281800 0.958611 0.040662
10951.242188 6532.767578 3905.722168 -0.281800 0.958611 0.040662
10396.482422 5749.867188 3876.070312 -0.687619 0.102301 -0.718829
10347.602539 6099.763672 3972.624023 -0.687619 0.102301 -0.718829
10482.916016 6358.763672 3880.045654 -0.687619 0.102301 -0.718829
10797.155273 5917.203125 3902.713379 0.060333 -0.310880 -0.948532
11594.650391 6176.873535 3868.332520 0.060333 -0.310880 -0.948532
11828.257812 5991.442871 3943.966064 0.060333 -0.310880 -0.948532
11918.401367 6838.071289 3904.486572 -0.012725 0.852957 0.521825
12114.638672 6746.900879 4058.295898 -0.012725 0.852957 0.521825
12394.562500 6763.769531 4037.549072 -0.012725 0.852957 0.521825
10572.997070 5286.424316 3944.410889 0.639829 -0.140383 -0.755587
10607.604492 5783.445312 3881.373047 0.639829 -0.140383 -0.755587
10677.006836 5155.624512 4056.787842 0.639829 -0.140383 -0.755587
12350.943359 6132.500977 3936.447510 0.839338 -0.163077 -0.518572
12389.615234 6617.166992 3846.625244 0.839338 -0.163077 -0.518572
12392.956055 5935.830566 4066.295166 0.839338 -0.163077 -0.518572
11828.257812 5991.442871 3943.966064 0.130084 -0.526792 -0.839981
12350.943359 6132.500977 3936.447510 0.130084 -0.526792 -0.839981
12392.956055 5935.830566 4066.295166 0.130084 -0.526792 -0.839981
10396.482422 5749.867188 3876.070312 -0.927190 -0.365344 -0.082723
10572.997070 5286.424316 3944.410889 -0.927190 -0.365344 -0.082723
10363.341797 5768.424805 4165.562500 -0.927190 -0.365344 -0.082723
10396.482422 5749.867188 3876.070312 -0.988380 -0.108776 -0.106175
10363.341797 5768.424805 4165.562500 -0.988380 -0.108776 -0.106175
10347.602539 6099.763672 3972.624023 -0.988380 -0.108776 -0.106175
10482.916016 6358.763672 3880.045654 -0.875100 0.479794 0.063231
10347.602539 6099.763672 3972.624023 -0.875100 0.479794 0.063231
10544.750000 6464.169922 3935.992920 -0.875100 0.479794 0.063231
10580.197266 5166.801758 3971.888428 0.644594 -0.134092 -0.752674
10572.997070 5286.424316 3944.410889 0.644594 -0.134092 -0.752674
10677.006836 5155.624512 4056.787842 0.644594 -0.134092 -0.752674
10797.155273 5917.203125 3902.713379 0.387623 -0.418247 -0.821473
11020.785156 5665.929688 4136.170410 0.387623 -0.418247 -0.821473
10607.604492 5783.445312 3881.373047 0.387623 -0.418247 -0.821473
10951.242188 6532.767578 3905.722168 -0.183835 0.965369 0.185116
11354.836914 6561.152344 4158.499512 -0.183835 0.965369 0.185116
11043.231445 6562.514648 3841.946045 -0.183835 0.965369 0.185116
11043.231445 6562.514648 3841.946045 -0.471650 0.747659 0.467496
11354.836914 6561.152344 4158.499512 -0.471650 0.747659 0.467496
11328.910156 6697.609375 3914.108643 -0.471650 0.747659 0.467496
11328.910156 6697.609375 3914.108643 -0.193913 0.847645 0.493859
11354.836914 6561.152344 4158.499512 -0.193913 0.847645 0.493859
11918.401367 6838.071289 3904.486572 -0.193913 0.847645 0.493859
10564.806641 5106.626465 4183.763184 0.120243 -0.957237 -0.263134
10580.197266 5166.801758 3971.888428 0.120243 -0.957237 -0.263134
10677.006836 5155.624512 4056.787842 0.120243 -0.957237 -0.263134
10580.197266 5166.801758 3971.888428 -0.992105 -0.081593 -0.095240
10564.806641 5106.626465 4183.763184 -0.992105 -0.081593 -0.095240
10572.997070 5286.424316 3944.410889 -0.992105 -0.081593 -0.095240
11828.257812 5991.442871 3943.966064 0.053388 -0.792953 -0.606939
12392.956055 5935.830566 4066.295166 0.053388 -0.792953 -0.606939
12363.909180 5731.206055 4331.077637 0.053388 -0.792953 -0.606939
10544.750000 6464.169922 3935.992920 -0.813696 0.246103 0.526624
10687.028320 6064.719238 4342.501953 -0.813696 0.246103 0.526624
10634.275391 6331.814453 4136.172852 -0.813696 0.246103 0.526624
10347.602539 6099.763672 3972.624023 -0.650156 0.415675 0.636012
10687.028320 6064.719238 4342.501953 -0.650156 0.415675 0.636012
10544.750000 6464.169922 3935.992920 -0.650156 0.415675 0.636012
10491.500977 5499.322266 4346.428223 -0.910832 -0.411437 0.033244
10363.341797 5768.424805 4165.562500 -0.910832 -0.411437 0.033244
10572.997070 5286.424316 3944.410889 -0.910832 -0.411437 0.033244
11918.401367 6838.071289 3904.486572 -0.111841 0.785699 0.608415
11354.836914 6561.152344 4158.499512 -0.111841 0.785699 0.608415
12114.638672 6746.900879 4058.295898 -0.111841 0.785699 0.608415
10607.604492 5783.445312 3881.373047 0.476447 -0.187342 -0.859012
11020.785156 5665.929688 4136.170410 0.476447 -0.187342 -0.859012
10677.006836 5155.624512 4056.787842 0.476447 -0.187342 -0.859012
10797.155273 5917.203125 3902.713379 0.080804 -0.771829 -0.630674
11828.257812 5991.442871 3943.966064 0.080804 -0.771829 -0.630674
12363.909180 5731.206055 4331.077637 0.080804 -0.771829 -0.630674
10951.242188 6532.767578 3905.722168 -0.093767 0.810675 0.577939
10544.750000 6464.169922 3935.992920 -0.093767 0.810675 0.577939
10634.275391 6331.814453 4136.172852 -0.093767 0.810675 0.577939
11216.816406 5442.057129 4324.800781 0.527330 -0.227919 -0.818521
10677.006836 5155.624512 4056.787842 0.527330 -0.227919 -0.818521
11020.785156 5665.929688 4136.170410 0.527330 -0.227919 -0.818521
12363.909180 5731.206055 4331.077637 0.143238 -0.602213 -0.785380
11020.785156 5665.929688 4136.170410 0.143238 -0.602213 -0.785380
10797.155273 5917.203125 3902.713379 0.143238 -0.602213 -0.785380
10634.275391 6331.814453 4136.172852 -0.023936 0.769556 0.638131
11064.265625 6191.424805 4321.604980 -0.023936 0.769556 0.638131
10951.242188 6532.767578 3905.722168 -0.023936 0.769556 0.638131
10951.242188 6532.767578 3905.722168 -0.443603 0.629884 0.637544
11064.265625 6191.424805 4321.604980 -0.443603 0.629884 0.637544
11354.836914 6561.152344 4158.499512 -0.443603 0.629884 0.637544
10564.806641 5106.626465 4183.763184 0.435706 -0.899287 0.037984
10677.006836 5155.624512 4056.787842 0.435706 -0.899287 0.037984
10652.958008 5163.968262 4530.187012 0.435706 -0.899287 0.037984
10564.806641 5106.626465 4183.763184 -0.982942 -0.129317 -0.130777
10491.500977 5499.322266 4346.428223 -0.982942 -0.129317 -0.130777
10572.997070 5286.424316 3944.410889 -0.982942 -0.129317 -0.130777
12363.909180 5731.206055 4331.077637 0.150504 -0.407979 -0.900501
11546.238281 5555.378906 4274.077148 0.150504 -0.407979 -0.900501
11020.785156 5665.929688 4136.170410 0.150504 -0.407979 -0.900501
10347.602539 6099.763672 3972.624023 -0.674258 0.347435 0.651664
10363.341797 5768.424805 4165.562500 -0.674258 0.347435 0.651664
10687.028320 6064.719238 4342.501953 -0.674258 0.347435 0.651664
12352.293945 6503.534180 4300.062500 -0.066251 0.669916 0.739475
12114.638672 6746.900879 4058.295898 -0.066251 0.669916 0.739475
11354.836914 6561.152344 4158.499512 -0.066251 0.669916 0.739475
12394.562500 6763.769531 4037.549072 0.009485 0.709386 0.704757
12114.638672 6746.900879 4058.295898 0.009485 0.709386 0.704757
12352.293945 6503.534180 4300.062500 0.009485 0.709386 0.704757
10677.006836 5155.624512 4056.787842 0.554702 -0.783599 -0.279782
11216.816406 5442.057129 4324.800781 0.554702 -0.783599 -0.279782
10983.264648 5270.058594 4343.480469 0.554702 -0.783599 -0.279782
11216.816406 5442.057129 4324.800781 0.083199 -0.598504 -0.796788
11020.785156 5665.929688 4136.170410 0.083199 -0.598504 -0.796788
11546.238281 5555.378906 4274.077148 0.083199 -0.598504 -0.796788
12382.449219 5637.121094 4872.166016 0.999514 0.018753 0.024905
12389.615234 6617.166992 3846.625244 0.999514 0.018753 0.024905
12381.036133 6191.708008 4511.287109 0.999514 0.018753 0.024905
12389.615234 6617.166992 3846.625244 0.999609 -0.027561 -0.004739
12394.562500 6763.769531 4037.549072 0.999609 -0.027561 -0.004739
12381.036133 6191.708008 4511.287109 0.999609 -0.027561 -0.004739
11546.238281 5555.378906 4274.077148 0.200789 -0.717536 -0.666953
12363.909180 5731.206055 4331.077637 0.200789 -0.717536 -0.666953
12119.315430 5531.700195 4472.078613 0.200789 -0.717536 -0.666953
10677.006836 5155.624512 4056.787842 0.322524 -0.945984 0.033057
10983.264648 5270.058594 4343.480469 0.322524 -0.945984 0.033057
10652.958008 5163.968262 4530.187012 0.322524 -0.945984 0.033057
12394.562500 6763.769531 4037.549072 0.713269 0.436956 0.548011
12352.293945 6503.534180 4300.062500 0.713269 0.436956 0.548011
12381.036133 6191.708008 4511.287109 0.713269 0.436956 0.548011
12352.293945 6503.534180 4300.062500 -0.096031 0.479988 0.872003
11354.836914 6561.152344 4158.499512 -0.096031 0.479988 0.872003
11708.664062 5965.514648 4525.330566 -0.096031 0.479988 0.872003
11546.238281 5555.378906 4274.077148 0.232029 -0.869592 -0.435858
11442.889648 5395.640137 4537.758789 0.232029 -0.869592 -0.435858
11216.816406 5442.057129 4324.800781 0.232029 -0.869592 -0.435858
12363.909180 5731.206055 4331.077637 -0.698308 -0.527280 -0.484088
12392.956055 5935.830566 4066.295166 -0.698308 -0.527280 -0.484088
12386.773438 5494.885254 4555.501465 -0.698308 -0.527280 -0.484088
11064.265625 6191.424805 4321.604980 -0.152422 0.585159 0.796465
10634.275391 6331.814453 4136.172852 -0.152422 0.585159 0.796465
10687.028320 6064.719238 4342.501953 -0.152422 0.585159 0.796465
11708.664062 5965.514648 4525.330566 -0.110689 0.472671 0.874260
11354.836914 6561.152344 4158.499512 -0.110689 0.472671 0.874260
11064.265625 6191.424805 4321.604980 -0.110689 0.472671 0.874260
10687.028320 6064.719238 4342.501953 -0.613944 0.217585 0.758769
10363.341797 5768.424805 4165.562500 -0.613944 0.217585 0.758769
10491.500977 5499.322266 4346.428223 -0.613944 0.217585 0.758769
10983.264648 5270.058594 4343.480469 0.318869 -0.947449 0.025759
11192.449219 5349.193359 4664.669434 0.318869 -0.947449 0.025759
10652.958008 5163.968262 4530.187012 0.318869 -0.947449 0.025759
11442.889648 5395.640137 4537.758789 0.128680 -0.869734 -0.476450
11546.238281 5555.378906 4274.077148 0.128680 -0.869734 -0.476450
12119.315430 5531.700195 4472.078613 0.128680 -0.869734 -0.476450
12392.956055 5935.830566 4066.295166 0.999804 0.010341 0.016868
12389.615234 6617.166992 3846.625244 0.999804 0.010341 0.016868
12382.449219 5637.121094 4872.166016 0.999804 0.010341 0.016868
12381.036133 6191.708008 4511.287109 -0.165341 0.542615 0.823548
12352.293945 6503.534180 4300.062500 -0.165341 0.542615 0.823548
11708.664062 5965.514648 4525.330566 -0.165341 0.542615 0.823548
10564.806641 5106.626465 4183.763184 -0.962433 -0.235580 0.134998
10572.805664 5270.012207 4525.908203 -0.962433 -0.235580 0.134998
10491.500977 5499.322266 4346.428223 -0.962433 -0.235580 0.134998
10983.264648 5270.058594 4343.480469 0.438103 -0.661045 -0.609168
11216.816406 5442.057129 4324.800781 0.438103 -0.661045 -0.609168
11442.889648 5395.640137 4537.758789 0.438103 -0.661045 -0.609168
12363.909180 5731.206055 4331.077637 0.133150 -0.675683 -0.725068
12386.773438 5494.885254 4555.501465 0.133150 -0.675683 -0.725068
12119.315430 5531.700195 4472.078613 0.133150 -0.675683 -0.725068
11708.664062 5965.514648 4525.330566 -0.110481 0.473086 0.874061
11064.265625 6191.424805 4321.604980 -0.110481 0.473086 0.874061
10687.028320 6064.719238 4342.501953 -0.110481 0.473086 0.874061
10652.958008 5163.968262 4530.187012 -0.769072 -0.569596 0.289981
10572.805664 5270.012207 4525.908203 -0.769072 -0.569596 0.289981
10564.806641 5106.626465 4183.763184 -0.769072 -0.569596 0.289981
10491.500977 5499.322266 4346.428223 -0.718124 0.252846 0.648357
10572.805664 5270.012207 4525.908203 -0.718124 0.252846 0.648357
10687.028320 6064.719238 4342.501953 -0.718124 0.252846 0.648357
11442.889648 5395.640137 4537.758789 0.192286 -0.980067 -0.049947
12119.315430 5531.700195 4472.078613 0.192286 -0.980067 -0.049947
11772.553711 5448.875000 4762.322266 0.192286 -0.980067 -0.049947
11442.889648 5395.640137 4537.758789 0.226255 -0.969754 0.091573
11192.449219 5349.193359 4664.669434 0.226255 -0.969754 0.091573
10983.264648 5270.058594 4343.480469 0.226255 -0.969754 0.091573
10572.805664 5270.012207 4525.908203 -0.470809 0.262084 0.842408
10818.114258 5331.524414 4643.870117 -0.470809 0.262084 0.842408
10687.028320 6064.719238 4342.501953 -0.470809 0.262084 0.842408
12392.956055 5935.830566 4066.295166 0.999911 0.000753 0.013316
12382.449219 5637.121094 4872.166016 0.999911 0.000753 0.013316
12386.773438 5494.885254 4555.501465 0.999911 0.000753 0.013316
11192.449219 5349.193359 4664.669434 -0.020655 -0.547307 0.836677
10818.114258 5331.524414 4643.870117 -0.020655 -0.547307 0.836677
10652.958008 5163.968262 4530.187012 -0.020655 -0.547307 0.836677
11772.553711 5448.875000 4762.322266 -0.123487 0.401096 0.907675
11708.664062 5965.514648 4525.330566 -0.123487 0.401096 0.907675
10687.028320 6064.719238 4342.501953 -0.123487 0.401096 0.907675
12381.036133 6191.708008 4511.287109 -0.163636 0.537766 0.827062
11708.664062 5965.514648 4525.330566 -0.163636 0.537766 0.827062
12382.449219 5637.121094 4872.166016 -0.163636 0.537766 0.827062
10652.958008 5163.968262 4530.187012 -0.370049 -0.243524 0.896526
10818.114258 5331.524414 4643.870117 -0.370049 -0.243524 0.896526
10572.805664 5270.012207 4525.908203 -0.370049 -0.243524 0.896526
11772.553711 5448.875000 4762.322266 -0.033654 -0.949739 -0.311229
12119.315430 5531.700195 4472.078613 -0.033654 -0.949739 -0.311229
12386.773438 5494.885254 4555.501465 -0.033654 -0.949739 -0.311229
11772.553711 5448.875000 4762.322266 -0.157718 0.351160 0.922936
10687.028320 6064.719238 4342.501953 -0.157718 0.351160 0.922936
10818.114258 5331.524414 4643.870117 -0.157718 0.351160 0.922936
11772.553711 5448.875000 4762.322266 0.172568 -0.984797 -0.019878
11192.449219 5349.193359 4664.669434 0.172568 -0.984797 -0.019878
11442.889648 5395.640137 4537.758789 0.172568 -0.984797 -0.019878
11772.553711 5448.875000 4762.322266 -0.009531 -0.670916 0.741472
10818.114258 5331.524414 4643.870117 -0.009531 -0.670916 0.741472
11192.449219 5349.193359 4664.669434 -0.009531 -0.670916 0.741472
12382.449219 5637.121094 4872.166016 -0.274659 0.372641 0.886398
11708.664062 5965.514648 4525.330566 -0.274659 0.372641 0.886398
11772.553711 5448.875000 4762.322266 -0.274659 0.372641 0.886398
12386.773438 5494.885254 4555.501465 0.072770 -0.997332 -0.005759
12362.772461 5491.498047 4838.843750 0.072770 -0.997332 -0.005759
11772.553711 5448.875000 4762.322266 0.072770 -0.997332 -0.005759
12362.772461 5491.498047 4838.843750 0.985039 -0.151777 0.081625
12386.773438 5494.885254 4555.501465 0.985039 -0.151777 0.081625
12382.449219 5637.121094 4872.166016 0.985039 -0.151777 0.081625
12276.780273 5517.381348 4908.871094 0.019487 -0.929783 0.367593
11772.553711 5448.875000 4762.322266 0.019487 -0.929783 0.367593
12362.772461 5491.498047 4838.843750 0.019487 -0.929783 0.367593
12276.780273 5517.381348 4908.871094 -0.303085 0.513545 0.802752
12382.449219 5637.121094 4872.166016 -0.303085 0.513545 0.802752
11772.553711 5448.875000 4762.322266 -0.303085 0.513545 0.802752
12362.772461 5491.498047 4838.843750 0.562952 -0.255895 0.785877
12382.449219 5637.121094 4872.166016 0.562952 -0.255895 0.785877
12276.780273 5517.381348 4908.871094 0.562952 -0.255895 0.785877
12401.390625 5596.794922 6528.792969 0.756268 -0.605747 -0.247244
12342.807617 5468.883789 6662.981445 0.756268 -0.605747 -0.247244
12319.737305 5524.227539 6456.822266 0.756268 -0.605747 -0.247244
12319.737305 5524.227539 6456.822266 0.281293 0.497393 -0.820655
12358.579102 6248.356445 6909.025879 0.281293 0.497393 -0.820655
12401.390625 5596.794922 6528.792969 0.281293 0.497393 -0.820655
12319.737305 5524.227539 6456.822266 0.033453 -0.964320 -0.262617
12342.807617 5468.883789 6662.981445 0.033453 -0.964320 -0.262617
11776.788086 5463.163086 6611.887207 0.033453 -0.964320 -0.262617
12342.807617 5468.883789 6662.981445 0.863939 -0.494677 -0.094364
12401.390625 5596.794922 6528.792969 0.863939 -0.494677 -0.094364
12385.538086 5510.819824 6834.358398 0.863939 -0.494677 -0.094364
12319.737305 5524.227539 6456.822266 -0.292578 0.420219 -0.858961
11776.788086 5463.163086 6611.887207 -0.292578 0.420219 -0.858961
11773.021484 6041.384766 6896.046387 -0.292578 0.420219 -0.858961
11773.021484 6041.384766 6896.046387 -0.168397 0.528600 -0.832000
12358.579102 6248.356445 6909.025879 -0.168397 0.528600 -0.832000
12319.737305 5524.227539 6456.822266 -0.168397 0.528600 -0.832000
11212.045898 5364.217285 6700.111816 -0.143505 0.269541 -0.952236
10805.385742 5305.445312 6744.760742 -0.143505 0.269541 -0.952236
10762.152344 5705.246582 6864.444336 -0.143505 0.269541 -0.952236
11776.788086 5463.163086 6611.887207 0.019370 -0.994468 -0.103238
12342.807617 5468.883789 6662.981445 0.019370 -0.994468 -0.103238
11329.855469 5415.532715 6986.841797 0.019370 -0.994468 -0.103238
12385.538086 5510.819824 6834.358398 0.992734 -0.118972 0.018028
12401.390625 5596.794922 6528.792969 0.992734 -0.118972 0.018028
12406.674805 5713.870117 7010.424805 0.992734 -0.118972 0.018028
10805.385742 5305.445312 6744.760742 0.013834 -0.663806 -0.747777
11212.045898 5364.217285 6700.111816 0.013834 -0.663806 -0.747777
10722.869141 5181.926270 6852.882812 0.013834 -0.663806 -0.747777
10722.869141 5181.926270 6852.882812 -0.116023 -0.609192 -0.784490
10571.602539 5215.225098 6849.396484 -0.116023 -0.609192 -0.784490
10805.385742 5305.445312 6744.760742 -0.116023 -0.609192 -0.784490
10805.385742 5305.445312 6744.760742 -0.465188 0.207321 -0.860592
10571.602539 5215.225098 6849.396484 -0.465188 0.207321 -0.860592
10762.152344 5705.246582 6864.444336 -0.465188 0.207321 -0.860592
11212.045898 5364.217285 6700.111816 -0.187363 0.214718 -0.958536
10762.152344 5705.246582 6864.444336 -0.187363 0.214718 -0.958536
11776.788086 5463.163086 6611.887207 -0.187363 0.214718 -0.958536
11212.045898 5364.217285 6700.111816 0.147363 -0.977227 -0.152684
11776.788086 5463.163086 6611.887207 0.147363 -0.977227 -0.152684
11047.469727 5292.400879 7000.918945 0.147363 -0.977227 -0.152684
12385.538086 5510.819824 6834.358398 0.001549 -0.971430 0.237323
11688.749023 5570.264648 7082.229004 0.001549 -0.971430 0.237323
12342.807617 5468.883789 6662.981445 0.001549 -0.971430 0.237323
10610.444336 5087.859375 7232.242188 -0.199274 -0.935716 -0.291078
10571.602539 5215.225098 6849.396484 -0.199274 -0.935716 -0.291078
10722.869141 5181.926270 6852.882812 -0.199274 -0.935716 -0.291078
11776.788086 5463.163086 6611.887207 0.388473 -0.850319 0.355030
11329.855469 5415.532715 6986.841797 0.388473 -0.850319 0.355030
11047.469727 5292.400879 7000.918945 0.388473 -0.850319 0.355030
10571.602539 5215.225098 6849.396484 -0.599714 0.256482 -0.757997
10512.798828 5511.838867 6996.285645 -0.599714 0.256482 -0.757997
10762.152344 5705.246582 6864.444336 -0.599714 0.256482 -0.757997
12342.807617 5468.883789 6662.981445 0.212807 -0.820586 0.530426
11688.749023 5570.264648 7082.229004 0.212807 -0.820586 0.530426
11329.855469 5415.532715 6986.841797 0.212807 -0.820586 0.530426
10762.152344 5705.246582 6864.444336 -0.596738 0.249454 -0.762677
10512.798828 5511.838867 6996.285645 -0.596738 0.249454 -0.762677
10668.974609 6121.259766 7073.417480 -0.596738 0.249454 -0.762677
11773.021484 6041.384766 6896.046387 -0.117567 0.437379 -0.891559
11776.788086 5463.163086 6611.887207 -0.117567 0.437379 -0.891559
10762.152344 5705.246582 6864.444336 -0.117567 0.437379 -0.891559
11688.749023 5570.264648 7082.229004 0.203623 -0.653409 0.729105
12385.538086 5510.819824 6834.358398 0.203623 -0.653409 0.729105
12406.674805 5713.870117 7010.424805 0.203623 -0.653409 0.729105
10668.974609 6121.259766 7073.417480 -0.017265 0.445716 -0.895008
11031.270508 6295.408691 7153.155273 -0.017265 0.445716 -0.895008
10762.152344 5705.246582 6864.444336 -0.017265 0.445716 -0.895008
10762.152344 5705.246582 6864.444336 -0.120814 0.446669 -0.886505
11341.767578 6527.820801 7199.911133 -0.120814 0.446669 -0.886505
11773.021484 6041.384766 6896.046387 -0.120814 0.446669 -0.886505
12401.390625 5596.794922 6528.792969 0.775467 0.355470 -0.521816
12358.579102 6248.356445 6909.025879 0.775467 0.355470 -0.521816
12401.228516 6721.504883 7294.723633 0.775467 0.355470 -0.521816
10722.869141 5181.926270 6852.882812 0.306196 -0.941221 -0.142645
11212.045898 5364.217285 6700.111816 0.306196 -0.941221 -0.142645
10610.444336 5087.859375 7232.242188 0.306196 -0.941221 -0.142645
12406.674805 5713.870117 7010.424805 0.186016 -0.510040 0.839796
11780.822266 5724.672363 7155.612305 0.186016 -0.510040 0.839796
11688.749023 5570.264648 7082.229004 0.186016 -0.510040 0.839796
10762.152344 5705.246582 6864.444336 -0.265947 0.518756 -0.812505
11031.270508 6295.408691 7153.155273 -0.265947 0.518756 -0.812505
11341.767578 6527.820801 7199.911133 -0.265947 0.518756 -0.812505
12358.579102 6248.356445 6909.025879 0.017789 0.630776 -0.775761
12089.248047 6698.995605 7269.267090 0.017789 0.630776 -0.775761
12401.228516 6721.504883 7294.723633 0.017789 0.630776 -0.775761
11047.469727 5292.400879 7000.918945 0.433313 -0.900976 0.021968
10610.444336 5087.859375 7232.242188 0.433313 -0.900976 0.021968
11212.045898 5364.217285 6700.111816 0.433313 -0.900976 0.021968
11773.021484 6041.384766 6896.046387 -0.134545 0.436440 -0.889617
11341.767578 6527.820801 7199.911133 -0.134545 0.436440 -0.889617
12358.579102 6248.356445 6909.025879 -0.134545 0.436440 -0.889617
10571.602539 5215.225098 6849.396484 -0.776762 -0.616970 -0.126448
10610.444336 5087.859375 7232.242188 -0.776762 -0.616970 -0.126448
10554.182617 5140.584961 7320.593750 -0.776762 -0.616970 -0.126448
10512.798828 5511.838867 6996.285645 -0.986061 -0.157295 -0.054237
10554.182617 5140.584961 7320.593750 -0.986061 -0.157295 -0.054237
10491.834961 5484.393066 7457.021973 -0.986061 -0.157295 -0.054237
11688.749023 5570.264648 7082.229004 0.115320 -0.701207 0.703570
10981.718750 5605.191895 7232.925781 0.115320 -0.701207 0.703570
11329.855469 5415.532715 6986.841797 0.115320 -0.701207 0.703570
11341.767578 6527.820801 7199.911133 -0.063341 0.599785 -0.797650
12089.248047 6698.995605 7269.267090 -0.063341 0.599785 -0.797650
12358.579102 6248.356445 6909.025879 -0.063341 0.599785 -0.797650
10571.602539 5215.225098 6849.396484 -0.984441 -0.164257 -0.062413
10554.182617 5140.584961 7320.593750 -0.984441 -0.164257 -0.062413
10512.798828 5511.838867 6996.285645 -0.984441 -0.164257 -0.062413
11329.855469 5415.532715 6986.841797 0.369377 -0.791437 0.487019
10926.483398 5365.817383 7211.986816 0.369377 -0.791437 0.487019
11047.469727 5292.400879 7000.918945 0.369377 -0.791437 0.487019
10512.798828 5511.838867 6996.285645 -0.932058 -0.229930 -0.280001
10351.041992 5731.568359 7354.299805 -0.932058 -0.229930 -0.280001
10403.502930 5756.877441 7158.886230 -0.932058 -0.229930 -0.280001
10378.982422 6158.815430 7394.090820 -0.699959 0.263397 -0.663837
10668.974609 6121.259766 7073.417480 -0.699959 0.263397 -0.663837
10512.798828 5511.838867 6996.285645 -0.699959 0.263397 -0.663837
12401.390625 5596.794922 6528.792969 0.999871 0.009125 -0.013188
12401.228516 6721.504883 7294.723633 0.999871 0.009125 -0.013188
12406.674805 5713.870117 7010.424805 0.999871 0.009125 -0.013188
10491.834961 5484.393066 7457.021973 -0.854110 -0.515418 -0.069566
10351.041992 5731.568359 7354.299805 -0.854110 -0.515418 -0.069566
10512.798828 5511.838867 6996.285645 -0.854110 -0.515418 -0.069566
10512.798828 5511.838867 6996.285645 -0.173985 0.489426 -0.854512
10403.502930 5756.877441 7158.886230 -0.173985 0.489426 -0.854512
10378.982422 6158.815430 7394.090820 -0.173985 0.489426 -0.854512
11047.469727 5292.400879 7000.918945 0.545565 -0.755553 0.362627
10616.250000 5175.958008 7407.065918 0.545565 -0.755553 0.362627
10610.444336 5087.859375 7232.242188 0.545565 -0.755553 0.362627
11047.469727 5292.400879 7000.918945 0.659378 -0.507649 0.554539
10926.483398 5365.817383 7211.986816 0.659378 -0.507649 0.554539
10616.250000 5175.958008 7407.065918 0.659378 -0.507649 0.554539
10981.718750 5605.191895 7232.925781 0.496252 -0.188638 0.847437
10926.483398 5365.817383 7211.986816 0.496252 -0.188638 0.847437
11329.855469 5415.532715 6986.841797 0.496252 -0.188638 0.847437
10981.718750 5605.191895 7232.925781 0.157042 -0.498753 0.852399
11688.749023 5570.264648 7082.229004 0.157042 -0.498753 0.852399
11780.822266 5724.672363 7155.612305 0.157042 -0.498753 0.852399
12406.674805 5713.870117 7010.424805 0.116644 -0.817733 0.563655
12378.379883 5915.753418 7309.166504 0.116644 -0.817733 0.563655
11780.822266 5724.672363 7155.612305 0.116644 -0.817733 0.563655
10378.982422 6158.815430 7394.090820 -0.659261 0.391386 -0.642022
10578.619141 6395.274414 7333.242676 -0.659261 0.391386 -0.642022
10668.974609 6121.259766 7073.417480 -0.659261 0.391386 -0.642022
11341.767578 6527.820801 7199.911133 -0.422492 0.750581 -0.508063
11030.775391 6565.670898 7514.441895 -0.422492 0.750581 -0.508063
11352.965820 6693.428223 7435.257324 -0.422492 0.750581 -0.508063
12378.379883 5915.753418 7309.166504 0.071579 -0.751178 0.656208
10824.535156 5913.322754 7475.875977 0.071579 -0.751178 0.656208
11780.822266 5724.672363 7155.612305 0.071579 -0.751178 0.656208
10668.974609 6121.259766 7073.417480 -0.150901 0.653535 -0.741702
10578.619141 6395.274414 7333.242676 -0.150901 0.653535 -0.741702
11031.270508 6295.408691 7153.155273 -0.150901 0.653535 -0.741702
12089.248047 6698.995605 7269.267090 -0.120059 0.775441 -0.619901
11341.767578 6527.820801 7199.911133 -0.120059 0.775441 -0.619901
11898.454102 6839.652344 7482.167969 -0.120059 0.775441 -0.619901
12378.379883 5915.753418 7309.166504 0.984811 -0.085552 0.151090
12406.674805 5713.870117 7010.424805 0.984811 -0.085552 0.151090
12389.439453 6358.060547 7487.529785 0.984811 -0.085552 0.151090
11780.822266 5724.672363 7155.612305 0.162219 -0.558600 0.813419
10824.535156 5913.322754 7475.875977 0.162219 -0.558600 0.813419
10981.718750 5605.191895 7232.925781 0.162219 -0.558600 0.813419
10378.982422 6158.815430 7394.090820 -0.964947 0.086191 -0.247888
10403.502930 5756.877441 7158.886230 -0.964947 0.086191 -0.247888
10351.041992 5731.568359 7354.299805 -0.964947 0.086191 -0.247888
11341.767578 6527.820801 7199.911133 -0.453515 0.713366 -0.534259
11031.270508 6295.408691 7153.155273 -0.453515 0.713366 -0.534259
11030.775391 6565.670898 7514.441895 -0.453515 0.713366 -0.534259
11341.767578 6527.820801 7199.911133 -0.168772 0.809847 -0.561839
11352.965820 6693.428223 7435.257324 -0.168772 0.809847 -0.561839
11898.454102 6839.652344 7482.167969 -0.168772 0.809847 -0.561839
12089.248047 6698.995605 7269.267090 -0.034891 0.921376 -0.387103
12283.104492 6823.825684 7548.913086 -0.034891 0.921376 -0.387103
12401.228516 6721.504883 7294.723633 -0.034891 0.921376 -0.387103
10926.483398 5365.817383 7211.986816 0.608560 -0.207422 0.765918
10981.718750 5605.191895 7232.925781 0.608560 -0.207422 0.765918
10616.250000 5175.958008 7407.065918 0.608560 -0.207422 0.765918
10647.870117 5809.372559 7498.268066 0.368946 -0.452096 0.812088
10981.718750 5605.191895 7232.925781 0.368946 -0.452096 0.812088
10824.535156 5913.322754 7475.875977 0.368946 -0.452096 0.812088
12406.674805 5713.870117 7010.424805 0.998888 -0.007725 0.046515
12401.228516 6721.504883 7294.723633 0.998888 -0.007725 0.046515
12389.439453 6358.060547 7487.529785 0.998888 -0.007725 0.046515
11898.454102 6839.652344 7482.167969 0.117811 0.873834 -0.471736
12283.104492 6823.825684 7548.913086 0.117811 0.873834 -0.471736
12089.248047 6698.995605 7269.267090 0.117811 0.873834 -0.471736
10616.250000 5175.958008 7407.065918 0.559564 -0.145415 0.815930
10981.718750 5605.191895 7232.925781 0.559564 -0.145415 0.815930
10647.870117 5809.372559 7498.268066 0.559564 -0.145415 0.815930
12389.439453 6358.060547 7487.529785 0.737945 -0.268183 0.619286
12333.999023 6115.188965 7448.416992 0.737945 -0.268183 0.619286
12378.379883 5915.753418 7309.166504 0.737945 -0.268183 0.619286
10378.982422 6158.815430 7394.090820 -0.750811 0.533775 -0.389059
10539.866211 6455.808105 7491.078613 -0.750811 0.533775 -0.389059
10578.619141 6395.274414 7333.242676 -0.750811 0.533775 -0.389059
10554.182617 5140.584961 7320.593750 -0.122585 -0.884643 0.449867
10610.444336 5087.859375 7232.242188 -0.122585 -0.884643 0.449867
10616.250000 5175.958008 7407.065918 -0.122585 -0.884643 0.449867
10405.406250 5720.465820 7496.124512 -0.876233 -0.371614 0.306787
10351.041992 5731.568359 7354.299805 -0.876233 -0.371614 0.306787
10491.834961 5484.393066 7457.021973 -0.876233 -0.371614 0.306787
10351.041992 5731.568359 7354.299805 -0.997577 0.066988 -0.018796
10368.685547 6031.479004 7486.762695 -0.997577 0.066988 -0.018796
10378.982422 6158.815430 7394.090820 -0.997577 0.066988 -0.018796
11031.270508 6295.408691 7153.155273 -0.061563 0.799188 -0.597921
10578.619141 6395.274414 7333.242676 -0.061563 0.799188 -0.597921
11030.775391 6565.670898 7514.441895 -0.061563 0.799188 -0.597921
10554.182617 5140.584961 7320.593750 -0.673662 -0.374894 0.636894
10616.250000 5175.958008 7407.065918 -0.673662 -0.374894 0.636894
10491.834961 5484.393066 7457.021973 -0.673662 -0.374894 0.636894
10351.041992 5731.568359 7354.299805 -0.931696 -0.099488 0.349349
10405.406250 5720.465820 7496.124512 -0.931696 -0.099488 0.349349
10368.685547 6031.479004 7486.762695 -0.931696 -0.099488 0.349349
10824.535156 5913.322754 7475.875977 0.089476 -0.556726 0.825864
12378.379883 5915.753418 7309.166504 0.089476 -0.556726 0.825864
12333.999023 6115.188965 7448.416992 0.089476 -0.556726 0.825864
10539.866211 6455.808105 7491.078613 -0.183256 0.901993 -0.390929
11030.775391 6565.670898 7514.441895 -0.183256 0.901993 -0.390929
10578.619141 6395.274414 7333.242676 -0.183256 0.901993 -0.390929
12389.439453 6358.060547 7487.529785 0.993146 0.027988 0.113484
12401.228516 6721.504883 7294.723633 0.993146 0.027988 0.113484
12378.460938 6579.604004 7528.968750 0.993146 0.027988 0.113484
10616.250000 5175.958008 7407.065918 0.039222 -0.144323 0.988753
10647.870117 5809.372559 7498.268066 0.039222 -0.144323 0.988753
10491.834961 5484.393066 7457.021973 0.039222 -0.144323 0.988753
10368.685547 6031.479004 7486.762695 -0.860590 0.343349 0.376160
10539.866211 6455.808105 7491.078613 -0.860590 0.343349 0.376160
10378.982422 6158.815430 7394.090820 -0.860590 0.343349 0.376160
10647.870117 5809.372559 7498.268066 0.045208 -0.147113 0.988086
10405.406250 5720.465820 7496.124512 0.045208 -0.147113 0.988086
10491.834961 5484.393066 7457.021973 0.045208 -0.147113 0.988086
10647.870117 5809.372559 7498.268066 -0.195025 0.511692 0.836742
10824.535156 5913.322754 7475.875977 -0.195025 0.511692 0.836742
10405.406250 5720.465820 7496.124512 -0.195025 0.511692 0.836742
10368.685547 6031.479004 7486.762695 0.032648 0.033922 0.998891
10405.406250 5720.465820 7496.124512 0.032648 0.033922 0.998891
10824.535156 5913.322754 7475.875977 0.032648 0.033922 0.998891
12389.439453 6358.060547 7487.529785 0.008923 -0.057557 0.998302
10368.685547 6031.479004 7486.762695 0.008923 -0.057557 0.998302
10824.535156 5913.322754 7475.875977 0.008923 -0.057557 0.998302
12333.999023 6115.188965 7448.416992 0.040364 -0.167839 0.984988
12389.439453 6358.060547 7487.529785 0.040364 -0.167839 0.984988
10824.535156 5913.322754 7475.875977 0.040364 -0.167839 0.984988
12389.439453 6358.060547 7487.529785 0.032768 -0.205051 0.978203
11137.793945 6536.130371 7566.784180 0.032768 -0.205051 0.978203
10368.685547 6031.479004 7486.762695 0.032768 -0.205051 0.978203
12378.460938 6579.604004 7528.968750 0.036328 -0.181997 0.982628
11137.793945 6536.130371 7566.784180 0.036328 -0.181997 0.982628
12389.439453 6358.060547 7487.529785 0.036328 -0.181997 0.982628
11137.793945 6536.130371 7566.784180 -0.131157 0.042837 0.990436
10539.866211 6455.808105 7491.078613 -0.131157 0.042837 0.990436
10368.685547 6031.479004 7486.762695 -0.131157 0.042837 0.990436
11030.775391 6565.670898 7514.441895 -0.180798 0.651116 0.737129
10539.866211 6455.808105 7491.078613 -0.180798 0.651116 0.737129
11137.793945 6536.130371 7566.784180 -0.180798 0.651116 0.737129
12378.460938 6579.604004 7528.968750 0.990225 0.053652 0.128747
12401.228516 6721.504883 7294.723633 0.990225 0.053652 0.128747
12355.600586 6742.553223 7636.888672 0.990225 0.053652 0.128747
11352.965820 6693.428223 7435.257324 -0.270547 0.897753 0.347627
11030.775391 6565.670898 7514.441895 -0.270547 0.897753 0.347627
11898.454102 6839.652344 7482.167969 -0.270547 0.897753 0.347627
12355.600586 6742.553223 7636.888672 0.716200 0.695903 0.052697
12401.228516 6721.504883 7294.723633 0.716200 0.695903 0.052697
12283.104492 6823.825684 7548.913086 0.716200 0.695903 0.052697
11137.793945 6536.130371 7566.784180 0.043877 -0.499696 0.865089
12378.460938 6579.604004 7528.968750 0.043877 -0.499696 0.865089
11965.054688 6756.633789 7652.193359 0.043877 -0.499696 0.865089
11965.054688 6756.633789 7652.193359 0.012841 -0.550874 0.834490
12378.460938 6579.604004 7528.968750 0.012841 -0.550874 0.834490
12355.600586 6742.553223 7636.888672 0.012841 -0.550874 0.834490
11898.454102 6839.652344 7482.167969 -0.243608 0.830496 0.500931
11030.775391 6565.670898 7514.441895 -0.243608 0.830496 0.500931
11965.054688 6756.633789 7652.193359 -0.243608 0.830496 0.500931
11898.454102 6839.652344 7482.167969 -0.041675 0.891289 0.451516
11965.054688 6756.633789 7652.193359 -0.041675 0.891289 0.451516
12283.104492 6823.825684 7548.913086 -0.041675 0.891289 0.451516
11965.054688 6756.633789 7652.193359 -0.232096 0.563717 0.792688
11030.775391 6565.670898 7514.441895 -0.232096 0.563717 0.792688
11137.793945 6536.130371 7566.784180 -0.232096 0.563717 0.792688
11965.054688 6756.633789 7652.193359 0.052835 0.754835 0.653783
12355.600586 6742.553223 7636.888672 0.052835 0.754835 0.653783
12283.104492 6823.825684 7548.913086 0.052835 0.754835 0.653783
3 0 1 2
3 3 4 5
3 6 7 8
3 9 10 11
3 12 13 14
3 15 16 17
3 18 19 20
3 21 22 23
3 24 25 26
3 27 28 29
3 30 31 32
3 33 34 35
3 36 37 38
3 39 40 41
3 42 43 44
3 45 46 47
3 48 49 50
3 51 52 53
3 54 55 56
3 57 58 59
3 60 61 62
3 63 64 65
3 66 67 68
3 69 70 71
3 72 73 74
3 75 76 77
3 78 79 80
3 81 82 83
3 84 85 86
3 87 88 89
3 90 91 92
3 93 94 95
3 96 97 98
3 99 100 101
3 102 103 104
3 105 106 107
3 108 109 110
3 111 112 113
3 114 115 116
3 117 118 119
3 120 121 122
3 123 124 125
3 126 127 128
3 129 130 131
3 132 133 134
3 135 136 137
3 138 139 140
3 141 142 143
3 144 145 146
3 147 148 149
3 150 151 152
3 153 154 155
3 156 157 158
3 159 160 161
3 162 163 164
3 165 166 167
3 168 169 170
3 171 172 173
3 174 175 176
3 177 178 179
3 180 181 182
3 183 184 185
3 186 187 188
3 189 190 191
3 192 193 194
3 195 196 197
3 198 199 200
3 201 202 203
3 204 205 206
3 207 208 209
3 210 211 212
3 213 214 215
3 216 217 218
3 219 220 221
3 222 223 224
3 225 226 227
3 228 229 230
3 231 232 233
3 234 235 236
3 237 238 239
3 240 241 242
3 243 244 245
3 246 247 248
3 249 250 251
3 252 253 254
3 255 256 257
3 258 259 260
3 261 262 263
3 264 265 266
3 267 268 269
3 270 271 272
3 273 274 275
3 276 277 278
3 279 280 281
3 282 283 284
3 285 286 287
3 288 289 290
3 291 292 293
3 294 295 296
3 297 298 299
3 300 301 302
3 303 304 305
3 306 307 308
3 309 310 311
3 312 313 314
3 315 316 317
3 318 319 320
3 321 322 323
3 324 325 326
3 327 328 329
3 330 331 332
3 333 334 335
3 336 337 338
3 339 340 341
3 342 343 344
3 345 346 347
3 348 349 350
3 351 352 353
3 354 355 356
3 357 358 359
3 360 361 362
3 363 364 365
3 366 367 368
3 369 370 371
3 372 373 374
3 375 376 377
3 378 379 380
3 381 382 383
3 384 385 386
3 387 388 389
3 390 391 392
3 393 394 395
3 396 397 398
3 399 400 401
3 402 403 404
3 405 406 407
3 408 409 410
3 411 412 413
3 414 415 416
3 417 418 419
3 420 421 422
3 423 424 425
3 426 427 428
3 429 430 431
3 432 433 434
3 435 436 437
3 438 439 440
3 441 442 443
3 444 445 446
3 447 448 449
3 450 451 452
3 453 454 455
3 456 457 458
3 459 460 461
3 462 463 464
3 465 466 467
3 468 469 470
3 471 472 473
3 474 475 476
3 477 478 479
3 480 481 482
3 483 484 485
3 486 487 488
3 489 490 491
3 492 493 494
3 495 496 497
3 498 499 500
3 501 502 503
3 504 505 506
3 507 508 509
3 510 511 512
3 513 514 515
3 516 517 518
3 519 520 521
3 522 523 524
3 525 526 527
3 528 529 530
3 531 532 533
3 534 535 536
3 537 538 539
3 540 541 542
3 543 544 545
3 546 547 548
3 549 550 551
3 552 553 554
3 555 556 557
3 558 559 560
3 561 562 563
3 564 565 566
3 567 568 569
3 570 571 572
3 573 574 575
