ply
format ascii 1.0
comment Created by Blender 2.80 (sub 75) - www.blender.org, source file: 'downsample_ccf.blend'
element vertex 276
property float x
property float y
property float z
property float nx
property float ny
property float nz
element face 92
property list uchar uint vertex_indices
end_header
10522.206055 4326.809082 4807.549316 0.146671 -0.475854 -0.867209
10865.636719 4272.320312 4895.532715 0.146671 -0.475854 -0.867209
10448.944336 3687.612549 5145.897949 0.146671 -0.475854 -0.867209
10448.944336 3687.612549 5145.897949 -0.984359 0.156078 0.081716
10518.719727 4059.213867 5276.660156 -0.984359 0.156078 0.081716
10522.206055 4326.809082 4807.549316 -0.984359 0.156078 0.081716
10522.206055 4326.809082 4807.549316 -0.488397 -0.756406 -0.435107
10518.719727 4059.213867 5276.660156 -0.488397 -0.756406 -0.435107
10263.740234 4240.746094 5247.286133 -0.488397 -0.756406 -0.435107
10522.206055 4326.809082 4807.549316 0.287874 0.560074 -0.776817
10426.232422 4723.166016 5057.750977 0.287874 0.560074 -0.776817
10865.636719 4272.320312 4895.532715 0.287874 0.560074 -0.776817
10426.232422 4723.166016 5057.750977 -0.866215 0.099374 -0.489690
10522.206055 4326.809082 4807.549316 -0.866215 0.099374 -0.489690
10263.740234 4240.746094 5247.286133 -0.866215 0.099374 -0.489690
10865.636719 4272.320312 4895.532715 0.936024 0.166011 -0.310322
10877.375000 4995.459473 5317.792480 0.936024 0.166011 -0.310322
10964.033203 4724.445801 5434.196777 0.936024 0.166011 -0.310322
10426.232422 4723.166016 5057.750977 0.191996 0.492546 -0.848844
10877.375000 4995.459473 5317.792480 0.191996 0.492546 -0.848844
10865.636719 4272.320312 4895.532715 0.191996 0.492546 -0.848844
10877.375000 4995.459473 5317.792480 0.337056 0.295306 -0.893973
10426.232422 4723.166016 5057.750977 0.337056 0.295306 -0.893973
10825.341797 5050.571289 5316.379395 0.337056 0.295306 -0.893973
10564.890625 4703.374023 5449.776855 -0.711406 0.642809 0.284075
10825.341797 5050.571289 5316.379395 -0.711406 0.642809 0.284075
10426.232422 4723.166016 5057.750977 -0.711406 0.642809 0.284075
10263.740234 4240.746094 5247.286133 -0.571281 -0.312825 -0.758801
10322.992188 4177.720215 5228.660156 -0.571281 -0.312825 -0.758801
10219.682617 3982.029053 5387.115234 -0.571281 -0.312825 -0.758801
10623.709961 4322.877441 5496.256836 -0.461063 -0.452268 0.763462
10322.992188 4177.720215 5228.660156 -0.461063 -0.452268 0.763462
10518.719727 4059.213867 5276.660156 -0.461063 -0.452268 0.763462
10322.992188 4177.720215 5228.660156 0.868313 -0.059686 0.492412
10204.640625 4234.857910 5444.285645 0.868313 -0.059686 0.492412
10219.682617 3982.029053 5387.115234 0.868313 -0.059686 0.492412
10263.740234 4240.746094 5247.286133 -0.953099 0.295730 -0.064395
10341.933594 4588.760254 5688.195312 -0.953099 0.295730 -0.064395
10426.232422 4723.166016 5057.750977 -0.953099 0.295730 -0.064395
10448.944336 3687.612549 5145.897949 -0.404452 0.370219 -0.836275
10219.682617 3982.029053 5387.115234 -0.404452 0.370219 -0.836275
10518.719727 4059.213867 5276.660156 -0.404452 0.370219 -0.836275
10346.208984 3869.027344 5417.150391 0.186785 0.442295 0.877204
10263.740234 4240.746094 5247.286133 0.186785 0.442295 0.877204
10219.682617 3982.029053 5387.115234 0.186785 0.442295 0.877204
10204.640625 4234.857910 5444.285645 0.154399 -0.930776 0.331388
10322.992188 4177.720215 5228.660156 0.154399 -0.930776 0.331388
10623.709961 4322.877441 5496.256836 0.154399 -0.930776 0.331388
10204.640625 4234.857910 5444.285645 -0.902007 -0.328257 -0.280412
10263.740234 4240.746094 5247.286133 -0.902007 -0.328257 -0.280412
10346.208984 3869.027344 5417.150391 -0.902007 -0.328257 -0.280412
10426.232422 4723.166016 5057.750977 -0.312669 0.936649 0.157878
10341.933594 4588.760254 5688.195312 -0.312669 0.936649 0.157878
10564.890625 4703.374023 5449.776855 -0.312669 0.936649 0.157878
10564.890625 4703.374023 5449.776855 -0.665063 0.225349 -0.711975
10730.166016 5004.741699 5390.778320 -0.665063 0.225349 -0.711975
10825.341797 5050.571289 5316.379395 -0.665063 0.225349 -0.711975
10964.033203 4724.445801 5434.196777 0.029077 0.176660 0.983842
10730.166016 5004.741699 5390.778320 0.029077 0.176660 0.983842
10564.890625 4703.374023 5449.776855 0.029077 0.176660 0.983842
10877.375000 4995.459473 5317.792480 0.416075 0.467932 0.779693
10730.166016 5004.741699 5390.778320 0.416075 0.467932 0.779693
10964.033203 4724.445801 5434.196777 0.416075 0.467932 0.779693
10448.944336 3687.612549 5145.897949 -0.678472 -0.703007 0.213206
10346.208984 3869.027344 5417.150391 -0.678472 -0.703007 0.213206
10219.682617 3982.029053 5387.115234 -0.678472 -0.703007 0.213206
10448.944336 3687.612549 5145.897949 0.835692 -0.486186 0.255425
10865.636719 4272.320312 4895.532715 0.835692 -0.486186 0.255425
10964.033203 4724.445801 5434.196777 0.835692 -0.486186 0.255425
10204.640625 4234.857910 5444.285645 -0.839362 0.489093 -0.237189
10341.933594 4588.760254 5688.195312 -0.839362 0.489093 -0.237189
10263.740234 4240.746094 5247.286133 -0.839362 0.489093 -0.237189
10518.719727 4059.213867 5276.660156 0.052742 0.745873 0.663997
10219.682617 3982.029053 5387.115234 0.052742 0.745873 0.663997
10270.884766 3918.331055 5454.600586 0.052742 0.745873 0.663997
10346.208984 3869.027344 5417.150391 0.517992 0.151968 0.841778
10518.719727 4059.213867 5276.660156 0.517992 0.151968 0.841778
10270.884766 3918.331055 5454.600586 0.517992 0.151968 0.841778
10346.208984 3869.027344 5417.150391 -0.802986 0.536295 -0.260002
10623.709961 4322.877441 5496.256836 -0.802986 0.536295 -0.260002
10518.719727 4059.213867 5276.660156 -0.802986 0.536295 -0.260002
10782.392578 4660.600098 5475.714355 0.004674 0.535768 0.844352
10964.033203 4724.445801 5434.196777 0.004674 0.535768 0.844352
10564.890625 4703.374023 5449.776855 0.004674 0.535768 0.844352
10871.982422 4970.568359 5499.583984 0.720829 0.683511 0.114969
10877.375000 4995.459473 5317.792480 0.720829 0.683511 0.114969
10825.341797 5050.571289 5316.379395 0.720829 0.683511 0.114969
10877.375000 4995.459473 5317.792480 -0.130470 -0.981760 -0.138294
10871.982422 4970.568359 5499.583984 -0.130470 -0.981760 -0.138294
10730.166016 5004.741699 5390.778320 -0.130470 -0.981760 -0.138294
10782.392578 4660.600098 5475.714355 -0.270526 0.151403 -0.950733
10871.982422 4970.568359 5499.583984 -0.270526 0.151403 -0.950733
10964.033203 4724.445801 5434.196777 -0.270526 0.151403 -0.950733
10871.982422 4970.568359 5499.583984 0.588549 -0.108413 -0.801160
10782.392578 4660.600098 5475.714355 0.588549 -0.108413 -0.801160
10730.166016 5004.741699 5390.778320 0.588549 -0.108413 -0.801160
10802.315430 5030.493164 5652.322266 -0.417334 0.908390 0.025686
10825.341797 5050.571289 5316.379395 -0.417334 0.908390 0.025686
10730.166016 5004.741699 5390.778320 -0.417334 0.908390 0.025686
10448.944336 3687.612549 5145.897949 0.657957 -0.486660 0.574678
10964.033203 4724.445801 5434.196777 0.657957 -0.486660 0.574678
10346.208984 3869.027344 5417.150391 0.657957 -0.486660 0.574678
10802.315430 5030.493164 5652.322266 0.756086 0.648176 0.090563
10871.982422 4970.568359 5499.583984 0.756086 0.648176 0.090563
10825.341797 5050.571289 5316.379395 0.756086 0.648176 0.090563
10346.208984 3869.027344 5417.150391 -0.938937 0.266710 -0.217403
10304.798828 4017.398193 5778.017578 -0.938937 0.266710 -0.217403
10353.155273 4125.434570 5701.710938 -0.938937 0.266710 -0.217403
10346.208984 3869.027344 5417.150391 -0.723760 0.521333 -0.452087
10353.155273 4125.434570 5701.710938 -0.723760 0.521333 -0.452087
10623.709961 4322.877441 5496.256836 -0.723760 0.521333 -0.452087
10204.640625 4234.857910 5444.285645 -0.943384 0.326793 0.056854
10200.762695 4162.592773 5795.314453 -0.943384 0.326793 0.056854
10341.933594 4588.760254 5688.195312 -0.943384 0.326793 0.056854
10200.762695 4162.592773 5795.314453 -0.342753 -0.919375 -0.193055
10204.640625 4234.857910 5444.285645 -0.342753 -0.919375 -0.193055
10353.155273 4125.434570 5701.710938 -0.342753 -0.919375 -0.193055
10623.709961 4322.877441 5496.256836 0.236968 -0.837347 -0.492642
10353.155273 4125.434570 5701.710938 0.236968 -0.837347 -0.492642
10204.640625 4234.857910 5444.285645 0.236968 -0.837347 -0.492642
10667.417969 4808.564941 5827.802734 0.219232 0.922982 -0.316292
10782.392578 4660.600098 5475.714355 0.219232 0.922982 -0.316292
10564.890625 4703.374023 5449.776855 0.219232 0.922982 -0.316292
10964.033203 4724.445801 5434.196777 0.913269 0.257766 0.315429
10871.982422 4970.568359 5499.583984 0.913269 0.257766 0.315429
10802.315430 5030.493164 5652.322266 0.913269 0.257766 0.315429
10564.890625 4703.374023 5449.776855 -0.530328 0.842925 -0.090721
10341.933594 4588.760254 5688.195312 -0.530328 0.842925 -0.090721
10667.417969 4808.564941 5827.802734 -0.530328 0.842925 -0.090721
10782.392578 4660.600098 5475.714355 -0.953029 -0.200630 -0.226897
10667.417969 4808.564941 5827.802734 -0.953029 -0.200630 -0.226897
10730.166016 5004.741699 5390.778320 -0.953029 -0.200630 -0.226897
10802.315430 5030.493164 5652.322266 -0.783888 0.600700 0.157098
10730.166016 5004.741699 5390.778320 -0.783888 0.600700 0.157098
10667.417969 4808.564941 5827.802734 -0.783888 0.600700 0.157098
10872.385742 4820.138184 5967.507324 0.903711 0.420636 0.079824
10964.033203 4724.445801 5434.196777 0.903711 0.420636 0.079824
10802.315430 5030.493164 5652.322266 0.903711 0.420636 0.079824
10346.208984 3869.027344 5417.150391 -0.912063 -0.405336 0.061993
10463.778320 3712.195557 6121.436523 -0.912063 -0.405336 0.061993
10304.798828 4017.398193 5778.017578 -0.912063 -0.405336 0.061993
10353.155273 4125.434570 5701.710938 -0.533196 -0.674738 0.510324
10465.166016 4190.935059 5905.345215 -0.533196 -0.674738 0.510324
10433.903320 4323.107422 6047.436523 -0.533196 -0.674738 0.510324
10463.778320 3712.195557 6121.436523 0.785972 -0.562555 -0.256476
10346.208984 3869.027344 5417.150391 0.785972 -0.562555 -0.256476
10964.033203 4724.445801 5434.196777 0.785972 -0.562555 -0.256476
10889.496094 4978.457031 5898.404297 0.892151 -0.258208 -0.370667
10872.385742 4820.138184 5967.507324 0.892151 -0.258208 -0.370667
10802.315430 5030.493164 5652.322266 0.892151 -0.258208 -0.370667
10802.315430 5030.493164 5652.322266 -0.884286 0.455194 -0.104099
10667.417969 4808.564941 5827.802734 -0.884286 0.455194 -0.104099
10695.914062 4943.669922 6176.511230 -0.884286 0.455194 -0.104099
10353.155273 4125.434570 5701.710938 0.081997 -0.873327 0.480184
10433.903320 4323.107422 6047.436523 0.081997 -0.873327 0.480184
10200.762695 4162.592773 5795.314453 0.081997 -0.873327 0.480184
10223.214844 3987.488525 6024.849609 -0.662789 -0.685165 -0.302092
10304.798828 4017.398193 5778.017578 -0.662789 -0.685165 -0.302092
10463.778320 3712.195557 6121.436523 -0.662789 -0.685165 -0.302092
10652.370117 4596.262695 5943.857422 -0.523303 0.436999 0.731564
10872.385742 4820.138184 5967.507324 -0.523303 0.436999 0.731564
10667.417969 4808.564941 5827.802734 -0.523303 0.436999 0.731564
10802.315430 5030.493164 5652.322266 0.080636 0.980578 0.178784
10695.914062 4943.669922 6176.511230 0.080636 0.980578 0.178784
10889.496094 4978.457031 5898.404297 0.080636 0.980578 0.178784
10667.417969 4808.564941 5827.802734 -0.582607 0.421251 0.695066
10341.933594 4588.760254 5688.195312 -0.582607 0.421251 0.695066
10652.370117 4596.262695 5943.857422 -0.582607 0.421251 0.695066
10257.854492 4039.667236 5835.595703 0.671405 -0.725938 0.149094
10429.207031 4169.755371 5697.354980 0.671405 -0.725938 0.149094
10423.229492 4216.670410 5952.701660 0.671405 -0.725938 0.149094
10889.496094 4978.457031 5898.404297 -0.262480 0.962927 -0.062256
10695.914062 4943.669922 6176.511230 -0.262480 0.962927 -0.062256
10889.987305 4987.945801 6043.097168 -0.262480 0.962927 -0.062256
10341.933594 4588.760254 5688.195312 0.575714 0.403928 -0.710912
10695.914062 4943.669922 6176.511230 0.575714 0.403928 -0.710912
10652.370117 4596.262695 5943.857422 0.575714 0.403928 -0.710912
10872.385742 4820.138184 5967.507324 -0.534347 0.385980 0.751993
10889.496094 4978.457031 5898.404297 -0.534347 0.385980 0.751993
10667.417969 4808.564941 5827.802734 -0.534347 0.385980 0.751993
10304.798828 4017.398193 5778.017578 -0.801821 0.489673 0.342498
10528.523438 4125.851562 6146.721680 -0.801821 0.489673 0.342498
10465.166016 4190.935059 5905.345215 -0.801821 0.489673 0.342498
10667.417969 4808.564941 5827.802734 0.162476 -0.834160 0.527047
10889.987305 4987.945801 6043.097168 0.162476 -0.834160 0.527047
10734.612305 4946.343262 6025.150879 0.162476 -0.834160 0.527047
10667.417969 4808.564941 5827.802734 0.596651 -0.800910 0.050497
10889.496094 4978.457031 5898.404297 0.596651 -0.800910 0.050497
10889.987305 4987.945801 6043.097168 0.596651 -0.800910 0.050497
10223.214844 3987.488525 6024.849609 -0.317551 0.948189 0.009938
10273.652344 4004.275146 6034.871582 -0.317551 0.948189 0.009938
10304.798828 4017.398193 5778.017578 -0.317551 0.948189 0.009938
10964.033203 4724.445801 5434.196777 0.809700 -0.546071 -0.214923
10818.444336 4126.382812 6405.247559 0.809700 -0.546071 -0.214923
10463.778320 3712.195557 6121.436523 0.809700 -0.546071 -0.214923
10223.214844 3987.488525 6024.849609 0.358194 -0.725083 -0.588177
10200.762695 4162.592773 5795.314453 0.358194 -0.725083 -0.588177
10273.652344 4004.275146 6034.871582 0.358194 -0.725083 -0.588177
10734.612305 4946.343262 6025.150879 -0.004792 0.411123 -0.911567
10889.987305 4987.945801 6043.097168 -0.004792 0.411123 -0.911567
10872.385742 4820.138184 5967.507324 -0.004792 0.411123 -0.911567
10528.523438 4125.851562 6146.721680 -0.428458 0.903543 -0.005792
10304.798828 4017.398193 5778.017578 -0.428458 0.903543 -0.005792
10273.652344 4004.275146 6034.871582 -0.428458 0.903543 -0.005792
10465.166016 4190.935059 5905.345215 -0.918456 -0.369350 0.141490
10528.523438 4125.851562 6146.721680 -0.918456 -0.369350 0.141490
10433.903320 4323.107422 6047.436523 -0.918456 -0.369350 0.141490
10652.370117 4596.262695 5943.857422 -0.465343 0.532047 -0.707377
10695.914062 4943.669922 6176.511230 -0.465343 0.532047 -0.707377
10872.385742 4820.138184 5967.507324 -0.465343 0.532047 -0.707377
10371.310547 4451.903809 6453.707031 -0.789345 0.598406 0.137273
10695.914062 4943.669922 6176.511230 -0.789345 0.598406 0.137273
10341.933594 4588.760254 5688.195312 -0.789345 0.598406 0.137273
10223.214844 3987.488525 6024.849609 -0.266835 0.103021 0.958220
10463.778320 3712.195557 6121.436523 -0.266835 0.103021 0.958220
10433.903320 4323.107422 6047.436523 -0.266835 0.103021 0.958220
10433.903320 4323.107422 6047.436523 0.278025 -0.102099 -0.955132
10463.778320 3712.195557 6121.436523 0.278025 -0.102099 -0.955132
10273.652344 4004.275146 6034.871582 0.278025 -0.102099 -0.955132
10528.523438 4125.851562 6146.721680 -0.404831 0.007473 0.914361
10273.652344 4004.275146 6034.871582 -0.404831 0.007473 0.914361
10463.778320 3712.195557 6121.436523 -0.404831 0.007473 0.914361
10273.652344 4004.275146 6034.871582 0.787280 -0.376456 -0.488335
10200.762695 4162.592773 5795.314453 0.787280 -0.376456 -0.488335
10433.903320 4323.107422 6047.436523 0.787280 -0.376456 -0.488335
10200.762695 4162.592773 5795.314453 -0.937470 0.334623 0.095799
10371.310547 4451.903809 6453.707031 -0.937470 0.334623 0.095799
10341.933594 4588.760254 5688.195312 -0.937470 0.334623 0.095799
10734.612305 4946.343262 6025.150879 0.755565 -0.629265 0.182061
10695.914062 4943.669922 6176.511230 0.755565 -0.629265 0.182061
10667.417969 4808.564941 5827.802734 0.755565 -0.629265 0.182061
10818.444336 4126.382812 6405.247559 0.646563 -0.722143 0.245898
10405.170898 3733.676025 6338.621094 0.646563 -0.722143 0.245898
10463.778320 3712.195557 6121.436523 0.646563 -0.722143 0.245898
10223.214844 3987.488525 6024.849609 -0.972191 0.130366 0.194548
10371.310547 4451.903809 6453.707031 -0.972191 0.130366 0.194548
10200.762695 4162.592773 5795.314453 -0.972191 0.130366 0.194548
10463.778320 3712.195557 6121.436523 -0.986215 0.150105 0.069636
10592.635742 4337.245605 6599.036133 -0.986215 0.150105 0.069636
10528.523438 4125.851562 6146.721680 -0.986215 0.150105 0.069636
10371.310547 4451.903809 6453.707031 0.801845 -0.522836 0.289288
10223.214844 3987.488525 6024.849609 0.801845 -0.522836 0.289288
10433.903320 4323.107422 6047.436523 0.801845 -0.522836 0.289288
10818.444336 4126.382812 6405.247559 0.985992 0.027171 0.164564
10964.033203 4724.445801 5434.196777 0.985992 0.027171 0.164564
10872.385742 4820.138184 5967.507324 0.985992 0.027171 0.164564
10695.914062 4943.669922 6176.511230 -0.705408 -0.682189 -0.192400
10734.612305 4946.343262 6025.150879 -0.705408 -0.682189 -0.192400
10872.385742 4820.138184 5967.507324 -0.705408 -0.682189 -0.192400
10463.778320 3712.195557 6121.436523 -0.863513 0.406305 -0.298766
10406.020508 3748.574707 6337.845215 -0.863513 0.406305 -0.298766
10592.635742 4337.245605 6599.036133 -0.863513 0.406305 -0.298766
10433.903320 4323.107422 6047.436523 -0.901329 -0.433133 -0.001553
10528.523438 4125.851562 6146.721680 -0.901329 -0.433133 -0.001553
10371.310547 4451.903809 6453.707031 -0.901329 -0.433133 -0.001553
10889.987305 4987.945801 6043.097168 0.425988 0.467247 0.774735
10695.914062 4943.669922 6176.511230 0.425988 0.467247 0.774735
10592.635742 4337.245605 6599.036133 0.425988 0.467247 0.774735
10872.385742 4820.138184 5967.507324 0.943194 -0.213574 0.254501
10889.987305 4987.945801 6043.097168 0.943194 -0.213574 0.254501
10592.635742 4337.245605 6599.036133 0.943194 -0.213574 0.254501
10872.385742 4820.138184 5967.507324 0.766711 0.298888 0.568173
10592.635742 4337.245605 6599.036133 0.766711 0.298888 0.568173
10818.444336 4126.382812 6405.247559 0.766711 0.298888 0.568173
10592.635742 4337.245605 6599.036133 -0.213085 0.582712 0.784246
10695.914062 4943.669922 6176.511230 -0.213085 0.582712 0.784246
10371.310547 4451.903809 6453.707031 -0.213085 0.582712 0.784246
10592.635742 4337.245605 6599.036133 -0.883155 0.074481 0.463130
10406.020508 3748.574707 6337.845215 -0.883155 0.074481 0.463130
10405.170898 3733.676025 6338.621094 -0.883155 0.074481 0.463130
10371.310547 4451.903809 6453.707031 -0.615643 -0.676832 0.403587
10528.523438 4125.851562 6146.721680 -0.615643 -0.676832 0.403587
10592.635742 4337.245605 6599.036133 -0.615643 -0.676832 0.403587
10592.635742 4337.245605 6599.036133 0.296455 -0.454490 0.839972
10405.170898 3733.676025 6338.621094 0.296455 -0.454490 0.839972
10818.444336 4126.382812 6405.247559 0.296455 -0.454490 0.839972
3 0 1 2
3 3 4 5
3 6 7 8
3 9 10 11
3 12 13 14
3 15 16 17
3 18 19 20
3 21 22 23
3 24 25 26
3 27 28 29
3 30 31 32
3 33 34 35
3 36 37 38
3 39 40 41
3 42 43 44
3 45 46 47
3 48 49 50
3 51 52 53
3 54 55 56
3 57 58 59
3 60 61 62
3 63 64 65
3 66 67 68
3 69 70 71
3 72 73 74
3 75 76 77
3 78 79 80
3 81 82 83
3 84 85 86
3 87 88 89
3 90 91 92
3 93 94 95
3 96 97 98
3 99 100 101
3 102 103 104
3 105 106 107
3 108 109 110
3 111 112 113
3 114 115 116
3 117 118 119
3 120 121 122
3 123 124 125
3 126 127 128
3 129 130 131
3 132 133 134
3 135 136 137
3 138 139 140
3 141 142 143
3 144 145 146
3 147 148 149
3 150 151 152
3 153 154 155
3 156 157 158
3 159 160 161
3 162 163 164
3 165 166 167
3 168 169 170
3 171 172 173
3 174 175 176
3 177 178 179
3 180 181 182
3 183 184 185
3 186 187 188
3 189 190 191
3 192 193 194
3 195 196 197
3 198 199 200
3 201 202 203
3 204 205 206
3 207 208 209
3 210 211 212
3 213 214 215
3 216 217 218
3 219 220 221
3 222 223 224
3 225 226 227
3 228 229 230
3 231 232 233
3 234 235 236
3 237 238 239
3 240 241 242
3 243 244 245
3 246 247 248
3 249 250 251
3 252 253 254
3 255 256 257
3 258 259 260
3 261 262 263
3 264 265 266
3 267 268 269
3 270 271 272
3 273 274 275
