ply
format ascii 1.0
comment Created by Blender 2.80 (sub 75) - www.blender.org, source file: 'downsample_ccf.blend'
element vertex 204
property float x
property float y
property float z
property float nx
property float ny
property float nz
element face 68
property list uchar uint vertex_indices
end_header
8692.467773 4471.465820 877.701538 -0.002232 -0.218753 -0.975778
8221.915039 4484.757812 875.798035 -0.002232 -0.218753 -0.975778
8067.409668 4751.677734 816.312561 -0.002232 -0.218753 -0.975778
8221.915039 4484.757812 875.798035 -0.195704 -0.319878 -0.927026
7628.098145 4759.625000 906.313110 -0.195704 -0.319878 -0.927026
8067.409668 4751.677734 816.312561 -0.195704 -0.319878 -0.927026
8692.467773 4471.465820 877.701538 0.000516 -0.123853 -0.992300
8931.203125 4048.180176 930.657471 0.000516 -0.123853 -0.992300
8221.915039 4484.757812 875.798035 0.000516 -0.123853 -0.992300
7057.243652 4903.740234 902.980469 -0.162264 -0.659713 -0.733791
8067.409668 4751.677734 816.312561 -0.162264 -0.659713 -0.733791
7628.098145 4759.625000 906.313110 -0.162264 -0.659713 -0.733791
7057.243652 4903.740234 902.980469 -0.032765 0.321672 -0.946284
7134.116699 5144.226074 982.067444 -0.032765 0.321672 -0.946284
8067.409668 4751.677734 816.312561 -0.032765 0.321672 -0.946284
9386.092773 3522.506104 979.624329 -0.103717 -0.180855 -0.978026
8931.203125 4048.180176 930.657471 -0.103717 -0.180855 -0.978026
8692.467773 4471.465820 877.701538 -0.103717 -0.180855 -0.978026
8692.467773 4471.465820 877.701538 0.410355 0.911779 -0.016365
8067.409668 4751.677734 816.312561 0.410355 0.911779 -0.016365
8071.968750 4755.195312 1126.608032 0.410355 0.911779 -0.016365
8067.409668 4751.677734 816.312561 0.385223 0.922683 -0.016120
7134.116699 5144.226074 982.067444 0.385223 0.922683 -0.016120
8071.968750 4755.195312 1126.608032 0.385223 0.922683 -0.016120
9386.092773 3522.506104 979.624329 0.530520 0.302734 -0.791771
8692.467773 4471.465820 877.701538 0.530520 0.302734 -0.791771
9376.327148 3686.758789 1035.883057 0.530520 0.302734 -0.791771
8221.915039 4484.757812 875.798035 -0.527148 -0.842363 0.111981
8931.203125 4048.180176 930.657471 -0.527148 -0.842363 0.111981
8869.696289 4099.312500 1025.751709 -0.527148 -0.842363 0.111981
8221.915039 4484.757812 875.798035 -0.403604 -0.828948 -0.387232
8869.696289 4099.312500 1025.751709 -0.403604 -0.828948 -0.387232
7628.098145 4759.625000 906.313110 -0.403604 -0.828948 -0.387232
7134.116699 5144.226074 982.067444 -0.955137 0.294244 0.033670
7057.243652 4903.740234 902.980469 -0.955137 0.294244 0.033670
7118.220703 5070.610840 1174.460815 -0.955137 0.294244 0.033670
7118.220703 5070.610840 1174.460815 -0.969655 0.232783 0.074709
7057.243652 4903.740234 902.980469 -0.969655 0.232783 0.074709
7070.566895 4892.669434 1110.399536 -0.969655 0.232783 0.074709
9417.817383 3435.797363 1146.478638 -0.731695 -0.651760 -0.199578
8931.203125 4048.180176 930.657471 -0.731695 -0.651760 -0.199578
9386.092773 3522.506104 979.624329 -0.731695 -0.651760 -0.199578
9417.817383 3435.797363 1146.478638 -0.750991 -0.645602 -0.138599
8869.696289 4099.312500 1025.751709 -0.750991 -0.645602 -0.138599
8931.203125 4048.180176 930.657471 -0.750991 -0.645602 -0.138599
7751.114258 4736.050293 1067.651367 -0.473832 -0.848020 0.237372
7628.098145 4759.625000 906.313110 -0.473832 -0.848020 0.237372
8869.696289 4099.312500 1025.751709 -0.473832 -0.848020 0.237372
7057.243652 4903.740234 902.980469 -0.244419 -0.969000 -0.036020
7628.098145 4759.625000 906.313110 -0.244419 -0.969000 -0.036020
7070.566895 4892.669434 1110.399536 -0.244419 -0.969000 -0.036020
9376.327148 3686.758789 1035.883057 0.759740 0.643987 -0.089863
8692.467773 4471.465820 877.701538 0.759740 0.643987 -0.089863
8938.437500 4213.118164 1105.834717 0.759740 0.643987 -0.089863
9386.092773 3522.506104 979.624329 0.985589 0.104231 -0.133228
9376.327148 3686.758789 1035.883057 0.985589 0.104231 -0.133228
9417.817383 3435.797363 1146.478638 0.985589 0.104231 -0.133228
8071.968750 4755.195312 1126.608032 0.502402 0.789546 0.352433
8938.437500 4213.118164 1105.834717 0.502402 0.789546 0.352433
8692.467773 4471.465820 877.701538 0.502402 0.789546 0.352433
9163.454102 3918.489014 1108.839111 0.741690 0.570054 0.353461
9376.327148 3686.758789 1035.883057 0.741690 0.570054 0.353461
8938.437500 4213.118164 1105.834717 0.741690 0.570054 0.353461
8938.437500 4213.118164 1105.834717 -0.231260 -0.462583 0.855883
7751.114258 4736.050293 1067.651367 -0.231260 -0.462583 0.855883
8869.696289 4099.312500 1025.751709 -0.231260 -0.462583 0.855883
7628.098145 4759.625000 906.313110 -0.222562 -0.974536 0.027299
7751.114258 4736.050293 1067.651367 -0.222562 -0.974536 0.027299
7070.566895 4892.669434 1110.399536 -0.222562 -0.974536 0.027299
9376.327148 3686.758789 1035.883057 0.725268 0.526641 0.443437
9163.454102 3918.489014 1108.839111 0.725268 0.526641 0.443437
9377.963867 3567.986084 1174.264648 0.725268 0.526641 0.443437
9417.817383 3435.797363 1146.478638 -0.565316 -0.329400 0.756249
9377.963867 3567.986084 1174.264648 -0.565316 -0.329400 0.756249
8869.696289 4099.312500 1025.751709 -0.565316 -0.329400 0.756249
8869.696289 4099.312500 1025.751709 -0.260114 0.021002 0.965349
9377.963867 3567.986084 1174.264648 -0.260114 0.021002 0.965349
9163.454102 3918.489014 1108.839111 -0.260114 0.021002 0.965349
9163.454102 3918.489014 1108.839111 -0.437493 -0.325579 0.838211
8938.437500 4213.118164 1105.834717 -0.437493 -0.325579 0.838211
8869.696289 4099.312500 1025.751709 -0.437493 -0.325579 0.838211
7751.114258 4736.050293 1067.651367 -0.156583 -0.286508 0.945196
8938.437500 4213.118164 1105.834717 -0.156583 -0.286508 0.945196
8071.968750 4755.195312 1126.608032 -0.156583 -0.286508 0.945196
9376.327148 3686.758789 1035.883057 0.949124 0.244415 0.198555
9377.963867 3567.986084 1174.264648 0.949124 0.244415 0.198555
9417.817383 3435.797363 1146.478638 0.949124 0.244415 0.198555
7070.566895 4892.669434 1110.399536 -0.100770 -0.644698 0.757766
7751.114258 4736.050293 1067.651367 -0.100770 -0.644698 0.757766
8071.968750 4755.195312 1126.608032 -0.100770 -0.644698 0.757766
7118.220703 5070.610840 1174.460815 -0.059751 -0.323921 0.944195
7070.566895 4892.669434 1110.399536 -0.059751 -0.323921 0.944195
8071.968750 4755.195312 1126.608032 -0.059751 -0.323921 0.944195
7118.220703 5070.610840 1174.460815 0.309011 0.879456 0.362036
8071.968750 4755.195312 1126.608032 0.309011 0.879456 0.362036
7134.116699 5144.226074 982.067444 0.309011 0.879456 0.362036
7722.243164 4881.442383 10233.816406 -0.011725 -0.339513 -0.940528
7107.717285 4900.792969 10234.492188 -0.011725 -0.339513 -0.940528
7180.540039 5065.238281 10174.222656 -0.011725 -0.339513 -0.940528
7722.243164 4881.442383 10233.816406 -0.013880 -0.408921 -0.912464
7715.893555 4777.481934 10280.502930 -0.013880 -0.408921 -0.912464
7107.717285 4900.792969 10234.492188 -0.013880 -0.408921 -0.912464
9438.976562 3470.846436 10192.639648 -0.509062 -0.222890 -0.831370
9007.378906 3957.036865 10326.566406 -0.509062 -0.222890 -0.831370
8962.447266 4208.654297 10286.620117 -0.509062 -0.222890 -0.831370
8355.946289 4612.722656 10256.290039 -0.136967 -0.398832 -0.906738
7715.893555 4777.481934 10280.502930 -0.136967 -0.398832 -0.906738
7722.243164 4881.442383 10233.816406 -0.136967 -0.398832 -0.906738
7246.348633 5103.232422 10415.048828 0.335400 0.912151 -0.235558
7722.243164 4881.442383 10233.816406 0.335400 0.912151 -0.235558
7180.540039 5065.238281 10174.222656 0.335400 0.912151 -0.235558
9438.976562 3470.846436 10192.639648 -0.759746 -0.627046 -0.172043
9421.939453 3445.571289 10359.996094 -0.759746 -0.627046 -0.172043
9007.378906 3957.036865 10326.566406 -0.759746 -0.627046 -0.172043
9438.976562 3470.846436 10192.639648 0.793165 0.546513 -0.268724
8962.447266 4208.654297 10286.620117 0.793165 0.546513 -0.268724
9089.464844 4084.993164 10410.031250 0.793165 0.546513 -0.268724
8962.447266 4208.654297 10286.620117 -0.062274 -0.167328 -0.983933
9007.378906 3957.036865 10326.566406 -0.062274 -0.167328 -0.983933
8355.946289 4612.722656 10256.290039 -0.062274 -0.167328 -0.983933
7046.906738 5113.243652 10400.008789 -0.830753 0.174117 -0.528708
7180.540039 5065.238281 10174.222656 -0.830753 0.174117 -0.528708
7107.717285 4900.792969 10234.492188 -0.830753 0.174117 -0.528708
8355.946289 4612.722656 10256.290039 -0.183228 -0.597022 -0.781020
8505.163086 4300.694824 10459.801758 -0.183228 -0.597022 -0.781020
7715.893555 4777.481934 10280.502930 -0.183228 -0.597022 -0.781020
8150.099121 4732.425293 10558.592773 0.391479 0.915185 -0.095815
8355.946289 4612.722656 10256.290039 0.391479 0.915185 -0.095815
7722.243164 4881.442383 10233.816406 0.391479 0.915185 -0.095815
7107.717285 4900.792969 10234.492188 -0.966523 -0.089232 -0.240564
7057.992188 4879.925293 10442.014648 -0.966523 -0.089232 -0.240564
7046.906738 5113.243652 10400.008789 -0.966523 -0.089232 -0.240564
9007.378906 3957.036865 10326.566406 -0.568649 -0.622582 -0.537615
8505.163086 4300.694824 10459.801758 -0.568649 -0.622582 -0.537615
8355.946289 4612.722656 10256.290039 -0.568649 -0.622582 -0.537615
7715.893555 4777.481934 10280.502930 -0.180257 -0.963283 -0.198983
7664.114746 4745.587891 10481.808594 -0.180257 -0.963283 -0.198983
7107.717285 4900.792969 10234.492188 -0.180257 -0.963283 -0.198983
7246.348633 5103.232422 10415.048828 0.062328 0.983100 -0.172132
7180.540039 5065.238281 10174.222656 0.062328 0.983100 -0.172132
7046.906738 5113.243652 10400.008789 0.062328 0.983100 -0.172132
9438.976562 3470.846436 10192.639648 0.881198 0.445899 0.157049
9089.464844 4084.993164 10410.031250 0.881198 0.445899 0.157049
9421.939453 3445.571289 10359.996094 0.881198 0.445899 0.157049
7664.114746 4745.587891 10481.808594 -0.204880 -0.967775 -0.146408
7057.992188 4879.925293 10442.014648 -0.204880 -0.967775 -0.146408
7107.717285 4900.792969 10234.492188 -0.204880 -0.967775 -0.146408
8948.707031 4003.770020 10441.367188 -0.765409 -0.629217 -0.135040
9007.378906 3957.036865 10326.566406 -0.765409 -0.629217 -0.135040
9421.939453 3445.571289 10359.996094 -0.765409 -0.629217 -0.135040
9007.378906 3957.036865 10326.566406 -0.553864 -0.830780 0.055128
8948.707031 4003.770020 10441.367188 -0.553864 -0.830780 0.055128
8505.163086 4300.694824 10459.801758 -0.553864 -0.830780 0.055128
8505.163086 4300.694824 10459.801758 -0.457562 -0.852496 -0.252758
7664.114746 4745.587891 10481.808594 -0.457562 -0.852496 -0.252758
7715.893555 4777.481934 10280.502930 -0.457562 -0.852496 -0.252758
9421.939453 3445.571289 10359.996094 -0.591178 -0.582511 0.557844
9255.545898 3674.966309 10423.198242 -0.591178 -0.582511 0.557844
8948.707031 4003.770020 10441.367188 -0.591178 -0.582511 0.557844
8962.447266 4208.654297 10286.620117 0.549107 0.808237 -0.212687
8355.946289 4612.722656 10256.290039 0.549107 0.808237 -0.212687
8597.773438 4515.919922 10512.767578 0.549107 0.808237 -0.212687
7722.243164 4881.442383 10233.816406 0.330917 0.943655 -0.002969
7785.696777 4860.151855 10539.333984 0.330917 0.943655 -0.002969
8150.099121 4732.425293 10558.592773 0.330917 0.943655 -0.002969
7722.243164 4881.442383 10233.816406 0.415154 0.909464 -0.022847
7246.348633 5103.232422 10415.048828 0.415154 0.909464 -0.022847
7785.696777 4860.151855 10539.333984 0.415154 0.909464 -0.022847
8597.773438 4515.919922 10512.767578 0.429109 0.900943 -0.064553
8355.946289 4612.722656 10256.290039 0.429109 0.900943 -0.064553
8150.099121 4732.425293 10558.592773 0.429109 0.900943 -0.064553
9255.545898 3674.966309 10423.198242 0.662789 0.290623 0.690108
9421.939453 3445.571289 10359.996094 0.662789 0.290623 0.690108
9089.464844 4084.993164 10410.031250 0.662789 0.290623 0.690108
8962.447266 4208.654297 10286.620117 0.665078 0.744258 0.061251
8597.773438 4515.919922 10512.767578 0.665078 0.744258 0.061251
9089.464844 4084.993164 10410.031250 0.665078 0.744258 0.061251
9255.545898 3674.966309 10423.198242 0.340133 0.167486 0.925342
9089.464844 4084.993164 10410.031250 0.340133 0.167486 0.925342
8597.773438 4515.919922 10512.767578 0.340133 0.167486 0.925342
9255.545898 3674.966309 10423.198242 -0.303109 -0.332215 0.893173
8597.773438 4515.919922 10512.767578 -0.303109 -0.332215 0.893173
8948.707031 4003.770020 10441.367188 -0.303109 -0.332215 0.893173
8948.707031 4003.770020 10441.367188 -0.093279 -0.199895 0.975367
8597.773438 4515.919922 10512.767578 -0.093279 -0.199895 0.975367
8505.163086 4300.694824 10459.801758 -0.093279 -0.199895 0.975367
7785.696777 4860.151855 10539.333984 -0.052135 0.360491 0.931304
7246.348633 5103.232422 10415.048828 -0.052135 0.360491 0.931304
7046.906738 5113.243652 10400.008789 -0.052135 0.360491 0.931304
7057.992188 4879.925293 10442.014648 -0.133982 -0.327457 0.935319
7664.114746 4745.587891 10481.808594 -0.133982 -0.327457 0.935319
7785.696777 4860.151855 10539.333984 -0.133982 -0.327457 0.935319
7785.696777 4860.151855 10539.333984 -0.126087 0.169968 0.977350
7046.906738 5113.243652 10400.008789 -0.126087 0.169968 0.977350
7057.992188 4879.925293 10442.014648 -0.126087 0.169968 0.977350
7664.114746 4745.587891 10481.808594 -0.155733 -0.340277 0.927339
8505.163086 4300.694824 10459.801758 -0.155733 -0.340277 0.927339
8150.099121 4732.425293 10558.592773 -0.155733 -0.340277 0.927339
8150.099121 4732.425293 10558.592773 -0.013403 -0.233502 0.972264
8505.163086 4300.694824 10459.801758 -0.013403 -0.233502 0.972264
8597.773438 4515.919922 10512.767578 -0.013403 -0.233502 0.972264
8150.099121 4732.425293 10558.592773 -0.156671 -0.305357 0.939261
7785.696777 4860.151855 10539.333984 -0.156671 -0.305357 0.939261
7664.114746 4745.587891 10481.808594 -0.156671 -0.305357 0.939261
3 0 1 2
3 3 4 5
3 6 7 8
3 9 10 11
3 12 13 14
3 15 16 17
3 18 19 20
3 21 22 23
3 24 25 26
3 27 28 29
3 30 31 32
3 33 34 35
3 36 37 38
3 39 40 41
3 42 43 44
3 45 46 47
3 48 49 50
3 51 52 53
3 54 55 56
3 57 58 59
3 60 61 62
3 63 64 65
3 66 67 68
3 69 70 71
3 72 73 74
3 75 76 77
3 78 79 80
3 81 82 83
3 84 85 86
3 87 88 89
3 90 91 92
3 93 94 95
3 96 97 98
3 99 100 101
3 102 103 104
3 105 106 107
3 108 109 110
3 111 112 113
3 114 115 116
3 117 118 119
3 120 121 122
3 123 124 125
3 126 127 128
3 129 130 131
3 132 133 134
3 135 136 137
3 138 139 140
3 141 142 143
3 144 145 146
3 147 148 149
3 150 151 152
3 153 154 155
3 156 157 158
3 159 160 161
3 162 163 164
3 165 166 167
3 168 169 170
3 171 172 173
3 174 175 176
3 177 178 179
3 180 181 182
3 183 184 185
3 186 187 188
3 189 190 191
3 192 193 194
3 195 196 197
3 198 199 200
3 201 202 203
