ply
format ascii 1.0
comment Created by Blender 2.80 (sub 75) - www.blender.org, source file: 'downsample_ccf.blend'
element vertex 141
property float x
property float y
property float z
property float nx
property float ny
property float nz
element face 47
property list uchar uint vertex_indices
end_header
11070.763672 5069.495117 5211.718750 0.108951 -0.558414 -0.822377
11873.515625 4916.039551 5422.269531 0.108951 -0.558414 -0.822377
11034.576172 4775.458496 5406.582520 0.108951 -0.558414 -0.822377
11901.337891 5312.549316 5290.555176 0.182269 -0.321460 -0.929215
11873.515625 4916.039551 5422.269531 0.182269 -0.321460 -0.929215
11070.763672 5069.495117 5211.718750 0.182269 -0.321460 -0.929215
12453.265625 5803.542480 5275.649902 -0.271451 0.212262 -0.938754
12142.006836 5636.100586 5327.793457 -0.271451 0.212262 -0.938754
12340.657227 5862.401855 5321.520508 -0.271451 0.212262 -0.938754
12771.391602 5934.447266 5314.977051 -0.394516 0.869250 0.297931
12453.265625 5803.542480 5275.649902 -0.394516 0.869250 0.297931
12772.655273 5923.048828 5349.906738 -0.394516 0.869250 0.297931
12755.879883 5939.683105 5335.277344 -0.069926 0.526526 -0.847279
12453.265625 5803.542480 5275.649902 -0.069926 0.526526 -0.847279
12340.657227 5862.401855 5321.520508 -0.069926 0.526526 -0.847279
12772.655273 5923.048828 5349.906738 0.346379 -0.397843 -0.849554
12453.265625 5803.542480 5275.649902 0.346379 -0.397843 -0.849554
12755.879883 5939.683105 5335.277344 0.346379 -0.397843 -0.849554
11034.576172 4775.458496 5406.582520 -0.994172 0.065724 -0.085451
11039.839844 5084.845703 5583.305176 -0.994172 0.065724 -0.085451
11070.763672 5069.495117 5211.718750 -0.994172 0.065724 -0.085451
12142.006836 5636.100586 5327.793457 0.392442 -0.843628 -0.366442
12453.265625 5803.542480 5275.649902 0.392442 -0.843628 -0.366442
12771.391602 5934.447266 5314.977051 0.392442 -0.843628 -0.366442
11901.337891 5312.549316 5290.555176 0.397792 -0.314249 -0.861980
12042.972656 5043.772949 5453.904297 0.397792 -0.314249 -0.861980
11873.515625 4916.039551 5422.269531 0.397792 -0.314249 -0.861980
12142.006836 5636.100586 5327.793457 0.421679 -0.880210 0.217754
12771.391602 5934.447266 5314.977051 0.421679 -0.880210 0.217754
12113.783203 5651.312988 5443.940430 0.421679 -0.880210 0.217754
12142.006836 5636.100586 5327.793457 -0.729225 0.632914 -0.260097
12113.783203 5651.312988 5443.940430 -0.729225 0.632914 -0.260097
12340.657227 5862.401855 5321.520508 -0.729225 0.632914 -0.260097
12442.786133 5923.946289 5438.116699 -0.160469 0.923976 -0.347156
12755.879883 5939.683105 5335.277344 -0.160469 0.923976 -0.347156
12340.657227 5862.401855 5321.520508 -0.160469 0.923976 -0.347156
12755.879883 5939.683105 5335.277344 0.165267 -0.917088 0.362817
12442.786133 5923.946289 5438.116699 0.165267 -0.917088 0.362817
12771.391602 5934.447266 5314.977051 0.165267 -0.917088 0.362817
11070.763672 5069.495117 5211.718750 -0.274837 0.959457 -0.062508
11039.839844 5084.845703 5583.305176 -0.274837 0.959457 -0.062508
11901.337891 5312.549316 5290.555176 -0.274837 0.959457 -0.062508
12340.657227 5862.401855 5321.520508 -0.629404 0.762716 0.148713
12113.783203 5651.312988 5443.940430 -0.629404 0.762716 0.148713
12442.786133 5923.946289 5438.116699 -0.629404 0.762716 0.148713
11039.839844 5084.845703 5583.305176 -0.206249 0.967597 0.145660
11060.577148 5067.183594 5729.994629 -0.206249 0.967597 0.145660
11901.337891 5312.549316 5290.555176 -0.206249 0.967597 0.145660
12042.972656 5043.772949 5453.904297 0.908875 0.308099 -0.281107
11901.337891 5312.549316 5290.555176 0.908875 0.308099 -0.281107
12059.039062 5208.397461 5686.281738 0.908875 0.308099 -0.281107
11873.515625 4916.039551 5422.269531 0.127917 -0.824822 0.550733
11534.403320 5036.770996 5681.851562 0.127917 -0.824822 0.550733
11034.576172 4775.458496 5406.582520 0.127917 -0.824822 0.550733
12771.391602 5934.447266 5314.977051 0.334574 -0.385381 0.859966
12442.786133 5923.946289 5438.116699 0.334574 -0.385381 0.859966
12113.783203 5651.312988 5443.940430 0.334574 -0.385381 0.859966
11873.515625 4916.039551 5422.269531 0.464369 -0.737499 0.490364
12042.972656 5043.772949 5453.904297 0.464369 -0.737499 0.490364
12059.039062 5208.397461 5686.281738 0.464369 -0.737499 0.490364
11534.403320 5036.770996 5681.851562 0.233064 -0.729054 0.643553
11873.515625 4916.039551 5422.269531 0.233064 -0.729054 0.643553
12059.039062 5208.397461 5686.281738 0.233064 -0.729054 0.643553
11039.839844 5084.845703 5583.305176 -0.587074 -0.393967 0.707201
11034.576172 4775.458496 5406.582520 -0.587074 -0.393967 0.707201
11222.014648 5011.873047 5693.883789 -0.587074 -0.393967 0.707201
11534.403320 5036.770996 5681.851562 0.086524 -0.796240 0.598761
11222.014648 5011.873047 5693.883789 0.086524 -0.796240 0.598761
11034.576172 4775.458496 5406.582520 0.086524 -0.796240 0.598761
12059.039062 5208.397461 5686.281738 0.673766 0.735127 -0.075023
11901.337891 5312.549316 5290.555176 0.673766 0.735127 -0.075023
11920.070312 5360.100586 5924.723145 0.673766 0.735127 -0.075023
11060.577148 5067.183594 5729.994629 -0.336509 -0.939397 -0.065536
11039.839844 5084.845703 5583.305176 -0.336509 -0.939397 -0.065536
11222.014648 5011.873047 5693.883789 -0.336509 -0.939397 -0.065536
11901.337891 5312.549316 5290.555176 -0.336333 0.933794 -0.122098
11060.577148 5067.183594 5729.994629 -0.336333 0.933794 -0.122098
11038.929688 5101.541016 6052.387695 -0.336333 0.933794 -0.122098
11901.337891 5312.549316 5290.555176 -0.289407 0.955126 -0.063069
11038.929688 5101.541016 6052.387695 -0.289407 0.955126 -0.063069
11920.070312 5360.100586 5924.723145 -0.289407 0.955126 -0.063069
11060.577148 5067.183594 5729.994629 -0.361723 -0.578435 -0.731143
11222.014648 5011.873047 5693.883789 -0.361723 -0.578435 -0.731143
11060.592773 4770.496094 5964.707520 -0.361723 -0.578435 -0.731143
11534.403320 5036.770996 5681.851562 0.055704 -0.903882 -0.424140
11951.821289 4938.250000 5946.630371 0.055704 -0.903882 -0.424140
11222.014648 5011.873047 5693.883789 0.055704 -0.903882 -0.424140
11222.014648 5011.873047 5693.883789 0.134019 -0.778128 -0.613641
11951.821289 4938.250000 5946.630371 0.134019 -0.778128 -0.613641
11060.592773 4770.496094 5964.707520 0.134019 -0.778128 -0.613641
11534.403320 5036.770996 5681.851562 0.241468 -0.721376 -0.649084
12059.039062 5208.397461 5686.281738 0.241468 -0.721376 -0.649084
11951.821289 4938.250000 5946.630371 0.241468 -0.721376 -0.649084
12059.039062 5208.397461 5686.281738 0.851811 -0.497159 -0.165075
12050.870117 5112.963379 5931.549316 0.851811 -0.497159 -0.165075
11951.821289 4938.250000 5946.630371 0.851811 -0.497159 -0.165075
12498.744141 5926.429688 5957.433594 -0.270254 0.580537 -0.768075
12173.358398 5700.773438 5901.364746 -0.270254 0.580537 -0.768075
12362.752930 5923.218262 6002.855957 -0.270254 0.580537 -0.768075
12173.358398 5700.773438 5901.364746 -0.768948 0.638301 0.035942
12142.104492 5654.347168 6057.206543 -0.768948 0.638301 0.035942
12362.752930 5923.218262 6002.855957 -0.768948 0.638301 0.035942
12050.870117 5112.963379 5931.549316 0.862031 0.461997 0.208475
12059.039062 5208.397461 5686.281738 0.862031 0.461997 0.208475
11920.070312 5360.100586 5924.723145 0.862031 0.461997 0.208475
12498.744141 5926.429688 5957.433594 0.579799 -0.805324 -0.123633
12142.104492 5654.347168 6057.206543 0.579799 -0.805324 -0.123633
12173.358398 5700.773438 5901.364746 0.579799 -0.805324 -0.123633
11060.592773 4770.496094 5964.707520 0.130605 -0.609613 0.781866
11951.821289 4938.250000 5946.630371 0.130605 -0.609613 0.781866
11079.937500 5032.010254 6165.375977 0.130605 -0.609613 0.781866
11060.592773 4770.496094 5964.707520 -0.998173 0.037456 0.047412
11079.937500 5032.010254 6165.375977 -0.998173 0.037456 0.047412
11060.577148 5067.183594 5729.994629 -0.998173 0.037456 0.047412
11060.577148 5067.183594 5729.994629 -0.859104 -0.511791 -0.003144
11079.937500 5032.010254 6165.375977 -0.859104 -0.511791 -0.003144
11038.929688 5101.541016 6052.387695 -0.859104 -0.511791 -0.003144
12050.870117 5112.963379 5931.549316 0.581700 -0.263348 0.769593
11886.486328 5252.757812 6103.635742 0.581700 -0.263348 0.769593
11951.821289 4938.250000 5946.630371 0.581700 -0.263348 0.769593
11951.821289 4938.250000 5946.630371 0.180429 -0.409058 0.894493
11886.486328 5252.757812 6103.635742 0.180429 -0.409058 0.894493
11079.937500 5032.010254 6165.375977 0.180429 -0.409058 0.894493
12050.870117 5112.963379 5931.549316 0.800822 0.435207 0.411436
11920.070312 5360.100586 5924.723145 0.800822 0.435207 0.411436
11886.486328 5252.757812 6103.635742 0.800822 0.435207 0.411436
12498.744141 5926.429688 5957.433594 0.277532 -0.629815 -0.725472
12760.010742 5918.823730 6063.985352 0.277532 -0.629815 -0.725472
12142.104492 5654.347168 6057.206543 0.277532 -0.629815 -0.725472
12362.752930 5923.218262 6002.855957 0.000125 0.997484 0.070897
12760.010742 5918.823730 6063.985352 0.000125 0.997484 0.070897
12498.744141 5926.429688 5957.433594 0.000125 0.997484 0.070897
11038.929688 5101.541016 6052.387695 -0.182112 0.857870 0.480515
11886.486328 5252.757812 6103.635742 -0.182112 0.857870 0.480515
11920.070312 5360.100586 5924.723145 -0.182112 0.857870 0.480515
11038.929688 5101.541016 6052.387695 -0.178107 0.807877 0.561794
11079.937500 5032.010254 6165.375977 -0.178107 0.807877 0.561794
11886.486328 5252.757812 6103.635742 -0.178107 0.807877 0.561794
12362.752930 5923.218262 6002.855957 -0.141463 0.306377 0.941340
12142.104492 5654.347168 6057.206543 -0.141463 0.306377 0.941340
12760.010742 5918.823730 6063.985352 -0.141463 0.306377 0.941340
3 0 1 2
3 3 4 5
3 6 7 8
3 9 10 11
3 12 13 14
3 15 16 17
3 18 19 20
3 21 22 23
3 24 25 26
3 27 28 29
3 30 31 32
3 33 34 35
3 36 37 38
3 39 40 41
3 42 43 44
3 45 46 47
3 48 49 50
3 51 52 53
3 54 55 56
3 57 58 59
3 60 61 62
3 63 64 65
3 66 67 68
3 69 70 71
3 72 73 74
3 75 76 77
3 78 79 80
3 81 82 83
3 84 85 86
3 87 88 89
3 90 91 92
3 93 94 95
3 96 97 98
3 99 100 101
3 102 103 104
3 105 106 107
3 108 109 110
3 111 112 113
3 114 115 116
3 117 118 119
3 120 121 122
3 123 124 125
3 126 127 128
3 129 130 131
3 132 133 134
3 135 136 137
3 138 139 140
