ply
format ascii 1.0
comment Created by Blender 2.80 (sub 75) - www.blender.org, source file: 'downsample_ccf.blend'
element vertex 492
property float x
property float y
property float z
property float nx
property float ny
property float nz
element face 164
property list uchar uint vertex_indices
end_header
3431.271973 3056.386963 4525.090332 0.011181 -0.451037 -0.892435
3351.279785 2818.115479 4644.510742 0.011181 -0.451037 -0.892435
2939.537109 2745.520996 4676.041504 0.011181 -0.451037 -0.892435
3431.271973 3056.386963 4525.090332 -0.543715 0.553876 -0.630552
2939.537109 2745.520996 4676.041504 -0.543715 0.553876 -0.630552
2870.738770 2900.218262 4871.250977 -0.543715 0.553876 -0.630552
3754.603271 2922.019531 4639.662598 0.111883 -0.475021 -0.872833
3351.279785 2818.115479 4644.510742 0.111883 -0.475021 -0.872833
3431.271973 3056.386963 4525.090332 0.111883 -0.475021 -0.872833
3431.271973 3056.386963 4525.090332 -0.545422 0.543661 -0.637924
2870.738770 2900.218262 4871.250977 -0.545422 0.543661 -0.637924
3490.314209 3271.883545 4658.263184 -0.545422 0.543661 -0.637924
3754.603271 2922.019531 4639.662598 0.445083 0.379344 -0.811172
3431.271973 3056.386963 4525.090332 0.445083 0.379344 -0.811172
3490.314209 3271.883545 4658.263184 0.445083 0.379344 -0.811172
3351.279785 2818.115479 4644.510742 0.061918 -0.671793 -0.738146
2750.251221 2413.456543 4962.378418 0.061918 -0.671793 -0.738146
2939.537109 2745.520996 4676.041504 0.061918 -0.671793 -0.738146
4042.366699 2824.048340 4777.731934 0.504915 0.421463 -0.753279
3754.603271 2922.019531 4639.662598 0.504915 0.421463 -0.753279
3490.314209 3271.883545 4658.263184 0.504915 0.421463 -0.753279
4042.366699 2824.048340 4777.731934 0.152539 -0.627726 -0.763342
3351.279785 2818.115479 4644.510742 0.152539 -0.627726 -0.763342
3754.603271 2922.019531 4639.662598 0.152539 -0.627726 -0.763342
2431.966064 2530.847900 4858.156250 0.005878 -0.654945 -0.755653
2939.537109 2745.520996 4676.041504 0.005878 -0.654945 -0.755653
2750.251221 2413.456543 4962.378418 0.005878 -0.654945 -0.755653
3351.279785 2818.115479 4644.510742 0.133135 -0.741494 -0.657619
4042.366699 2824.048340 4777.731934 0.133135 -0.741494 -0.657619
3844.790527 2585.478027 5006.730957 0.133135 -0.741494 -0.657619
3918.428711 3387.639893 4945.325684 0.006216 0.924168 -0.381936
3490.314209 3271.883545 4658.263184 0.006216 0.924168 -0.381936
3558.064697 3335.038330 4812.181152 0.006216 0.924168 -0.381936
2750.251221 2413.456543 4962.378418 0.388157 -0.852170 -0.350915
3351.279785 2818.115479 4644.510742 0.388157 -0.852170 -0.350915
3052.927246 2585.735107 4878.812012 0.388157 -0.852170 -0.350915
3918.428711 3387.639893 4945.325684 0.456847 0.344361 -0.820187
4042.366699 2824.048340 4777.731934 0.456847 0.344361 -0.820187
3490.314209 3271.883545 4658.263184 0.456847 0.344361 -0.820187
2939.537109 2745.520996 4676.041504 -0.482381 0.595783 -0.642146
2431.966064 2530.847900 4858.156250 -0.482381 0.595783 -0.642146
2870.738770 2900.218262 4871.250977 -0.482381 0.595783 -0.642146
2707.331543 3019.897217 5273.587402 -0.568375 0.696483 -0.438019
3490.314209 3271.883545 4658.263184 -0.568375 0.696483 -0.438019
2870.738770 2900.218262 4871.250977 -0.568375 0.696483 -0.438019
2750.251221 2413.456543 4962.378418 0.070826 -0.547964 -0.833498
2007.288696 2308.828369 4968.031250 0.070826 -0.547964 -0.833498
2431.966064 2530.847900 4858.156250 0.070826 -0.547964 -0.833498
3844.790527 2585.478027 5006.730957 0.059917 -0.800788 -0.595944
3519.173096 2450.072754 5155.941406 0.059917 -0.800788 -0.595944
3351.279785 2818.115479 4644.510742 0.059917 -0.800788 -0.595944
4012.746826 3310.514648 5018.627930 0.733874 0.336804 -0.589908
4042.366699 2824.048340 4777.731934 0.733874 0.336804 -0.589908
3918.428711 3387.639893 4945.325684 0.733874 0.336804 -0.589908
3519.173096 2450.072754 5155.941406 0.133093 -0.783224 -0.607327
3052.927246 2585.735107 4878.812012 0.133093 -0.783224 -0.607327
3351.279785 2818.115479 4644.510742 0.133093 -0.783224 -0.607327
3558.064697 3335.038330 4812.181152 -0.144474 0.989509 0.000100
3330.378662 3301.715820 5591.827637 -0.144474 0.989509 0.000100
3918.428711 3387.639893 4945.325684 -0.144474 0.989509 0.000100
2431.966064 2530.847900 4858.156250 -0.484334 0.621899 -0.615354
2007.288696 2308.828369 4968.031250 -0.484334 0.621899 -0.615354
1937.037354 2694.282227 5412.878418 -0.484334 0.621899 -0.615354
3897.030762 2622.707520 5163.068359 0.727984 -0.680776 -0.081139
3844.790527 2585.478027 5006.730957 0.727984 -0.680776 -0.081139
4042.366699 2824.048340 4777.731934 0.727984 -0.680776 -0.081139
4042.366699 2824.048340 4777.731934 0.946786 -0.094685 0.307622
4012.746826 3310.514648 5018.627930 0.946786 -0.094685 0.307622
3897.030762 2622.707520 5163.068359 0.946786 -0.094685 0.307622
3490.314209 3271.883545 4658.263184 -0.378749 0.902801 -0.203717
2981.373779 3247.958740 5498.452148 -0.378749 0.902801 -0.203717
3558.064697 3335.038330 4812.181152 -0.378749 0.902801 -0.203717
2750.251221 2413.456543 4962.378418 0.058673 -0.464382 -0.883690
2046.757202 2235.711914 5009.074707 0.058673 -0.464382 -0.883690
2007.288696 2308.828369 4968.031250 0.058673 -0.464382 -0.883690
2981.373779 3247.958740 5498.452148 -0.478329 0.836954 -0.265913
3490.314209 3271.883545 4658.263184 -0.478329 0.836954 -0.265913
2707.331543 3019.897217 5273.587402 -0.478329 0.836954 -0.265913
2046.757202 2235.711914 5009.074707 0.150577 -0.761569 -0.630348
2750.251221 2413.456543 4962.378418 0.150577 -0.761569 -0.630348
2417.761719 2061.359863 5308.347168 0.150577 -0.761569 -0.630348
2046.757202 2235.711914 5009.074707 -0.876414 -0.481334 -0.014685
1910.167725 2474.896240 5321.055176 -0.876414 -0.481334 -0.014685
2007.288696 2308.828369 4968.031250 -0.876414 -0.481334 -0.014685
2431.966064 2530.847900 4858.156250 -0.494191 0.609039 -0.620360
1937.037354 2694.282227 5412.878418 -0.494191 0.609039 -0.620360
2870.738770 2900.218262 4871.250977 -0.494191 0.609039 -0.620360
2046.757202 2235.711914 5009.074707 0.162189 -0.751846 -0.639079
2417.761719 2061.359863 5308.347168 0.162189 -0.751846 -0.639079
2280.176758 2076.723145 5255.355957 0.162189 -0.751846 -0.639079
2750.251221 2413.456543 4962.378418 0.420800 -0.867685 -0.264668
3052.927246 2585.735107 4878.812012 0.420800 -0.867685 -0.264668
2843.411865 2328.654053 5388.511719 0.420800 -0.867685 -0.264668
4012.746826 3310.514648 5018.627930 0.871091 -0.043827 0.489163
3891.628906 3292.029053 5232.655762 0.871091 -0.043827 0.489163
3897.030762 2622.707520 5163.068359 0.871091 -0.043827 0.489163
1910.167725 2474.896240 5321.055176 -0.696482 -0.683348 0.218969
2046.757202 2235.711914 5009.074707 -0.696482 -0.683348 0.218969
2280.176758 2076.723145 5255.355957 -0.696482 -0.683348 0.218969
3891.628906 3292.029053 5232.655762 0.437905 0.840005 0.320361
4012.746826 3310.514648 5018.627930 0.437905 0.840005 0.320361
3918.428711 3387.639893 4945.325684 0.437905 0.840005 0.320361
3052.927246 2585.735107 4878.812012 0.006341 -0.893886 -0.448249
3519.173096 2450.072754 5155.941406 0.006341 -0.893886 -0.448249
2843.411865 2328.654053 5388.511719 0.006341 -0.893886 -0.448249
2750.251221 2413.456543 4962.378418 0.279283 -0.928221 -0.245777
2843.411865 2328.654053 5388.511719 0.279283 -0.928221 -0.245777
2712.819580 2247.842773 5545.314453 0.279283 -0.928221 -0.245777
3918.428711 3387.639893 4945.325684 0.224768 0.918095 0.326466
3330.378662 3301.715820 5591.827637 0.224768 0.918095 0.326466
3891.628906 3292.029053 5232.655762 0.224768 0.918095 0.326466
2007.288696 2308.828369 4968.031250 -0.891158 0.263675 -0.369205
1910.167725 2474.896240 5321.055176 -0.891158 0.263675 -0.369205
1937.037354 2694.282227 5412.878418 -0.891158 0.263675 -0.369205
3558.064697 3335.038330 4812.181152 -0.151697 0.988425 -0.002055
2981.373779 3247.958740 5498.452148 -0.151697 0.988425 -0.002055
3330.378662 3301.715820 5591.827637 -0.151697 0.988425 -0.002055
2750.251221 2413.456543 4962.378418 0.623223 -0.761882 -0.176434
2712.819580 2247.842773 5545.314453 0.623223 -0.761882 -0.176434
2417.761719 2061.359863 5308.347168 0.623223 -0.761882 -0.176434
3897.030762 2622.707520 5163.068359 0.742480 -0.663791 -0.090028
3799.968750 2457.765869 5578.720215 0.742480 -0.663791 -0.090028
3844.790527 2585.478027 5006.730957 0.742480 -0.663791 -0.090028
2870.738770 2900.218262 4871.250977 -0.417015 0.810881 -0.410573
1937.037354 2694.282227 5412.878418 -0.417015 0.810881 -0.410573
2707.331543 3019.897217 5273.587402 -0.417015 0.810881 -0.410573
3897.030762 2622.707520 5163.068359 0.975006 -0.015176 0.221659
3891.628906 3292.029053 5232.655762 0.975006 -0.015176 0.221659
3799.968750 2457.765869 5578.720215 0.975006 -0.015176 0.221659
2707.331543 3019.897217 5273.587402 -0.535413 0.824392 -0.183605
2549.006348 3002.155029 5655.618652 -0.535413 0.824392 -0.183605
2981.373779 3247.958740 5498.452148 -0.535413 0.824392 -0.183605
3844.790527 2585.478027 5006.730957 0.303932 -0.934587 -0.184856
3799.968750 2457.765869 5578.720215 0.303932 -0.934587 -0.184856
3519.173096 2450.072754 5155.941406 0.303932 -0.934587 -0.184856
2530.416504 2178.439697 5517.746094 -0.309154 -0.749499 0.585385
2280.176758 2076.723145 5255.355957 -0.309154 -0.749499 0.585385
2417.761719 2061.359863 5308.347168 -0.309154 -0.749499 0.585385
2417.761719 2061.359863 5308.347168 0.287867 -0.893485 0.344698
2712.819580 2247.842773 5545.314453 0.287867 -0.893485 0.344698
2530.416504 2178.439697 5517.746094 0.287867 -0.893485 0.344698
1937.037354 2694.282227 5412.878418 -0.926791 -0.042669 0.373146
1910.167725 2474.896240 5321.055176 -0.926791 -0.042669 0.373146
1974.522583 2687.808838 5505.241211 -0.926791 -0.042669 0.373146
3330.378662 3301.715820 5591.827637 0.028934 0.999415 0.018258
3791.574219 3288.525635 5582.978516 0.028934 0.999415 0.018258
3891.628906 3292.029053 5232.655762 0.028934 0.999415 0.018258
2280.176758 2076.723145 5255.355957 -0.481233 -0.558655 0.675514
2530.416504 2178.439697 5517.746094 -0.481233 -0.558655 0.675514
1910.167725 2474.896240 5321.055176 -0.481233 -0.558655 0.675514
2707.331543 3019.897217 5273.587402 -0.405498 0.905370 -0.126004
1937.037354 2694.282227 5412.878418 -0.405498 0.905370 -0.126004
2549.006348 3002.155029 5655.618652 -0.405498 0.905370 -0.126004
3519.173096 2450.072754 5155.941406 0.111130 -0.976111 -0.186699
3206.187988 2320.709717 5645.983887 0.111130 -0.976111 -0.186699
2843.411865 2328.654053 5388.511719 0.111130 -0.976111 -0.186699
3519.173096 2450.072754 5155.941406 0.210099 -0.970052 -0.121889
3799.968750 2457.765869 5578.720215 0.210099 -0.970052 -0.121889
3206.187988 2320.709717 5645.983887 0.210099 -0.970052 -0.121889
1974.522583 2687.808838 5505.241211 -0.608512 0.735265 0.298495
2215.042725 2830.526611 5644.017090 -0.608512 0.735265 0.298495
1937.037354 2694.282227 5412.878418 -0.608512 0.735265 0.298495
2981.373779 3247.958740 5498.452148 -0.490373 0.871403 0.013823
2549.006348 3002.155029 5655.618652 -0.490373 0.871403 0.013823
2908.502686 3204.437500 5656.916504 -0.490373 0.871403 0.013823
2530.416504 2178.439697 5517.746094 -0.464487 -0.476584 0.746404
2305.350342 2643.532959 5674.652832 -0.464487 -0.476584 0.746404
1910.167725 2474.896240 5321.055176 -0.464487 -0.476584 0.746404
1910.167725 2474.896240 5321.055176 -0.446058 -0.504623 0.739180
2305.350342 2643.532959 5674.652832 -0.446058 -0.504623 0.739180
1974.522583 2687.808838 5505.241211 -0.446058 -0.504623 0.739180
2549.006348 3002.155029 5655.618652 -0.457655 0.888732 0.026589
1937.037354 2694.282227 5412.878418 -0.457655 0.888732 0.026589
2215.042725 2830.526611 5644.017090 -0.457655 0.888732 0.026589
3798.330566 2914.066406 5648.974609 0.980332 -0.026589 0.195556
3799.968750 2457.765869 5578.720215 0.980332 -0.026589 0.195556
3891.628906 3292.029053 5232.655762 0.980332 -0.026589 0.195556
3891.628906 3292.029053 5232.655762 0.959299 0.065712 0.274640
3791.574219 3288.525635 5582.978516 0.959299 0.065712 0.274640
3798.330566 2914.066406 5648.974609 0.959299 0.065712 0.274640
2843.411865 2328.654053 5388.511719 0.200736 -0.928804 -0.311494
3206.187988 2320.709717 5645.983887 0.200736 -0.928804 -0.311494
2712.819580 2247.842773 5545.314453 0.200736 -0.928804 -0.311494
3799.968750 2457.765869 5578.720215 0.226864 -0.973749 0.018569
3652.309814 2425.023438 5665.722168 0.226864 -0.973749 0.018569
3206.187988 2320.709717 5645.983887 0.226864 -0.973749 0.018569
2530.416504 2178.439697 5517.746094 0.304355 -0.910757 0.279088
2712.819580 2247.842773 5545.314453 0.304355 -0.910757 0.279088
2847.234863 2334.092773 5680.192383 0.304355 -0.910757 0.279088
2712.819580 2247.842773 5545.314453 0.018377 -0.850545 0.525581
3206.187988 2320.709717 5645.983887 0.018377 -0.850545 0.525581
2847.234863 2334.092773 5680.192383 0.018377 -0.850545 0.525581
2305.350342 2643.532959 5674.652832 -0.245656 -0.414499 0.876267
2530.416504 2178.439697 5517.746094 -0.245656 -0.414499 0.876267
2847.234863 2334.092773 5680.192383 -0.245656 -0.414499 0.876267
2305.350342 2643.532959 5674.652832 -0.462715 -0.078802 0.882998
2215.042725 2830.526611 5644.017090 -0.462715 -0.078802 0.882998
1974.522583 2687.808838 5505.241211 -0.462715 -0.078802 0.882998
2981.373779 3247.958740 5498.452148 -0.195483 0.964945 0.175121
2908.502686 3204.437500 5656.916504 -0.195483 0.964945 0.175121
3330.378662 3301.715820 5591.827637 -0.195483 0.964945 0.175121
3791.574219 3288.525635 5582.978516 0.033695 0.926173 0.375591
3330.378662 3301.715820 5591.827637 0.033695 0.926173 0.375591
3616.028809 3255.095703 5681.162109 0.033695 0.926173 0.375591
3799.968750 2457.765869 5578.720215 0.524357 -0.127735 0.841863
3798.330566 2914.066406 5648.974609 0.524357 -0.127735 0.841863
3652.309814 2425.023438 5665.722168 0.524357 -0.127735 0.841863
3798.330566 2914.066406 5648.974609 0.457946 0.162306 0.874038
3791.574219 3288.525635 5582.978516 0.457946 0.162306 0.874038
3616.028809 3255.095703 5681.162109 0.457946 0.162306 0.874038
2908.502686 3204.437500 5656.916504 -0.076602 0.762255 0.642728
3616.028809 3255.095703 5681.162109 -0.076602 0.762255 0.642728
3330.378662 3301.715820 5591.827637 -0.076602 0.762255 0.642728
3652.309814 2425.023438 5665.722168 0.067517 -0.456611 0.887101
2847.234863 2334.092773 5680.192383 0.067517 -0.456611 0.887101
3206.187988 2320.709717 5645.983887 0.067517 -0.456611 0.887101
3652.309814 2425.023438 5665.722168 0.019969 -0.017721 0.999644
3616.028809 3255.095703 5681.162109 0.019969 -0.017721 0.999644
2847.234863 2334.092773 5680.192383 0.019969 -0.017721 0.999644
3616.028809 3255.095703 5681.162109 -0.007330 0.005066 0.999960
2305.350342 2643.532959 5674.652832 -0.007330 0.005066 0.999960
2847.234863 2334.092773 5680.192383 -0.007330 0.005066 0.999960
3798.330566 2914.066406 5648.974609 0.152571 -0.011713 0.988223
3616.028809 3255.095703 5681.162109 0.152571 -0.011713 0.988223
3652.309814 2425.023438 5665.722168 0.152571 -0.011713 0.988223
2549.006348 3002.155029 5655.618652 -0.094210 0.116486 0.988714
2215.042725 2830.526611 5644.017090 -0.094210 0.116486 0.988714
2305.350342 2643.532959 5674.652832 -0.094210 0.116486 0.988714
3616.028809 3255.095703 5681.162109 -0.043343 0.082294 0.995665
2549.006348 3002.155029 5655.618652 -0.043343 0.082294 0.995665
2305.350342 2643.532959 5674.652832 -0.043343 0.082294 0.995665
3616.028809 3255.095703 5681.162109 -0.038634 0.062261 0.997312
2908.502686 3204.437500 5656.916504 -0.038634 0.062261 0.997312
2549.006348 3002.155029 5655.618652 -0.038634 0.062261 0.997312
3663.671875 2404.030762 5706.012207 0.008326 -0.142713 -0.989729
2996.045410 2298.207275 5715.655273 0.008326 -0.142713 -0.989729
2617.706299 2424.200928 5694.305176 0.008326 -0.142713 -0.989729
3663.671875 2404.030762 5706.012207 0.011071 -0.006266 -0.999919
2617.706299 2424.200928 5694.305176 0.011071 -0.006266 -0.999919
3781.947754 3170.595459 5702.518066 0.011071 -0.006266 -0.999919
2617.706299 2424.200928 5694.305176 0.002666 0.006844 -0.999973
2524.157227 2971.710205 5697.803223 0.002666 0.006844 -0.999973
3781.947754 3170.595459 5702.518066 0.002666 0.006844 -0.999973
2524.157227 2971.710205 5697.803223 -0.040188 -0.000483 -0.999192
2617.706299 2424.200928 5694.305176 -0.040188 -0.000483 -0.999192
2258.939697 2832.639648 5708.537598 -0.040188 -0.000483 -0.999192
3781.947754 3170.595459 5702.518066 -0.007220 0.069310 -0.997569
2524.157227 2971.710205 5697.803223 -0.007220 0.069310 -0.997569
2967.748535 3224.002197 5712.121582 -0.007220 0.069310 -0.997569
3692.960205 3279.494629 5727.996582 0.003652 0.230639 -0.973033
3781.947754 3170.595459 5702.518066 0.003652 0.230639 -0.973033
2967.748535 3224.002197 5712.121582 0.003652 0.230639 -0.973033
2752.145752 2267.199219 5770.662109 -0.124890 -0.518381 -0.845981
2617.706299 2424.200928 5694.305176 -0.124890 -0.518381 -0.845981
2996.045410 2298.207275 5715.655273 -0.124890 -0.518381 -0.845981
3781.947754 3170.595459 5702.518066 0.503038 -0.081537 -0.860410
3793.422119 2480.117676 5774.660156 0.503038 -0.081537 -0.860410
3663.671875 2404.030762 5706.012207 0.503038 -0.081537 -0.860410
2617.706299 2424.200928 5694.305176 -0.259039 -0.194569 -0.946066
2148.771240 2631.211182 5780.128418 -0.259039 -0.194569 -0.946066
2258.939697 2832.639648 5708.537598 -0.259039 -0.194569 -0.946066
2967.748535 3224.002197 5712.121582 -0.476987 0.851108 -0.219315
2524.157227 2971.710205 5697.803223 -0.476987 0.851108 -0.219315
2960.704346 3242.868652 5800.658203 -0.476987 0.851108 -0.219315
3692.960205 3279.494629 5727.996582 -0.063075 0.928788 -0.365205
2967.748535 3224.002197 5712.121582 -0.063075 0.928788 -0.365205
3414.074707 3308.211182 5849.195312 -0.063075 0.928788 -0.365205
2520.861572 2147.578125 5911.719238 -0.199465 -0.561405 -0.803143
2617.706299 2424.200928 5694.305176 -0.199465 -0.561405 -0.803143
2752.145752 2267.199219 5770.662109 -0.199465 -0.561405 -0.803143
2967.748535 3224.002197 5712.121582 -0.116612 0.969437 -0.215857
2960.704346 3242.868652 5800.658203 -0.116612 0.969437 -0.215857
3414.074707 3308.211182 5849.195312 -0.116612 0.969437 -0.215857
2524.157227 2971.710205 5697.803223 -0.478502 0.851578 -0.214126
1947.826660 2711.372314 5950.352051 -0.478502 0.851578 -0.214126
2960.704346 3242.868652 5800.658203 -0.478502 0.851578 -0.214126
1936.230591 2660.838379 5920.521484 -0.550713 0.004546 -0.834682
2258.939697 2832.639648 5708.537598 -0.550713 0.004546 -0.834682
2148.771240 2631.211182 5780.128418 -0.550713 0.004546 -0.834682
2258.939697 2832.639648 5708.537598 -0.645589 0.492622 -0.583556
1936.230591 2660.838379 5920.521484 -0.645589 0.492622 -0.583556
1947.826660 2711.372314 5950.352051 -0.645589 0.492622 -0.583556
2524.157227 2971.710205 5697.803223 -0.463515 0.871667 -0.159216
2258.939697 2832.639648 5708.537598 -0.463515 0.871667 -0.159216
1947.826660 2711.372314 5950.352051 -0.463515 0.871667 -0.159216
2115.360107 2336.032227 5972.937988 -0.351596 -0.499297 -0.791886
2617.706299 2424.200928 5694.305176 -0.351596 -0.499297 -0.791886
2520.861572 2147.578125 5911.719238 -0.351596 -0.499297 -0.791886
2996.045410 2298.207275 5715.655273 0.141143 -0.987573 0.069119
3317.247559 2363.926270 5998.742676 0.141143 -0.987573 0.069119
2752.145752 2267.199219 5770.662109 0.141143 -0.987573 0.069119
2617.706299 2424.200928 5694.305176 -0.358930 -0.481611 -0.799512
2115.360107 2336.032227 5972.937988 -0.358930 -0.481611 -0.799512
2148.771240 2631.211182 5780.128418 -0.358930 -0.481611 -0.799512
3663.671875 2404.030762 5706.012207 0.157066 -0.986283 0.050753
3317.247559 2363.926270 5998.742676 0.157066 -0.986283 0.050753
2996.045410 2298.207275 5715.655273 0.157066 -0.986283 0.050753
2115.360107 2336.032227 5972.937988 -0.540833 -0.416223 -0.730929
1936.230591 2660.838379 5920.521484 -0.540833 -0.416223 -0.730929
2148.771240 2631.211182 5780.128418 -0.540833 -0.416223 -0.730929
2752.145752 2267.199219 5770.662109 0.029830 -0.944653 0.326711
3317.247559 2363.926270 5998.742676 0.029830 -0.944653 0.326711
2908.945557 2426.752441 6217.677734 0.029830 -0.944653 0.326711
1947.826660 2711.372314 5950.352051 -0.431860 0.879416 0.200309
3352.364990 3279.375977 6484.787598 -0.431860 0.879416 0.200309
2960.704346 3242.868652 5800.658203 -0.431860 0.879416 0.200309
3692.960205 3279.494629 5727.996582 0.703319 0.644763 -0.299372
3878.535156 3243.872314 6087.249512 0.703319 0.644763 -0.299372
3781.947754 3170.595459 5702.518066 0.703319 0.644763 -0.299372
3885.279053 2624.181885 6180.193848 0.970718 -0.025266 -0.238888
3781.947754 3170.595459 5702.518066 0.970718 -0.025266 -0.238888
3878.535156 3243.872314 6087.249512 0.970718 -0.025266 -0.238888
3414.074707 3308.211182 5849.195312 -0.145804 0.988837 0.030705
2960.704346 3242.868652 5800.658203 -0.145804 0.988837 0.030705
3352.364990 3279.375977 6484.787598 -0.145804 0.988837 0.030705
3793.422119 2480.117676 5774.660156 0.975777 -0.006631 -0.218666
3781.947754 3170.595459 5702.518066 0.975777 -0.006631 -0.218666
3885.279053 2624.181885 6180.193848 0.975777 -0.006631 -0.218666
3663.671875 2404.030762 5706.012207 0.248954 -0.954556 0.163842
3829.530273 2540.854492 6251.139160 0.248954 -0.954556 0.163842
3317.247559 2363.926270 5998.742676 0.248954 -0.954556 0.163842
3793.422119 2480.117676 5774.660156 0.474218 -0.877132 0.075871
3829.530273 2540.854492 6251.139160 0.474218 -0.877132 0.075871
3663.671875 2404.030762 5706.012207 0.474218 -0.877132 0.075871
2115.360107 2336.032227 5972.937988 -0.689990 -0.469438 -0.550946
1952.234985 2389.787109 6131.429199 -0.689990 -0.469438 -0.550946
1936.230591 2660.838379 5920.521484 -0.689990 -0.469438 -0.550946
2429.279785 2068.327148 6058.981934 -0.406576 -0.674744 -0.615968
2115.360107 2336.032227 5972.937988 -0.406576 -0.674744 -0.615968
2520.861572 2147.578125 5911.719238 -0.406576 -0.674744 -0.615968
1947.826660 2711.372314 5950.352051 -0.980579 0.182260 0.072428
1936.230591 2660.838379 5920.521484 -0.980579 0.182260 0.072428
1927.542603 2541.194092 6103.974121 -0.980579 0.182260 0.072428
2226.116943 2100.621826 6201.406250 -0.472377 -0.718161 -0.510984
2115.360107 2336.032227 5972.937988 -0.472377 -0.718161 -0.510984
2429.279785 2068.327148 6058.981934 -0.472377 -0.718161 -0.510984
2226.116943 2100.621826 6201.406250 -0.614272 -0.679068 -0.401915
1952.234985 2389.787109 6131.429199 -0.614272 -0.679068 -0.401915
2115.360107 2336.032227 5972.937988 -0.614272 -0.679068 -0.401915
1952.234985 2389.787109 6131.429199 -0.967505 -0.188372 -0.168672
1927.542603 2541.194092 6103.974121 -0.967505 -0.188372 -0.168672
1936.230591 2660.838379 5920.521484 -0.967505 -0.188372 -0.168672
2752.145752 2267.199219 5770.662109 0.513961 -0.848986 0.122746
2908.945557 2426.752441 6217.677734 0.513961 -0.848986 0.122746
2520.861572 2147.578125 5911.719238 0.513961 -0.848986 0.122746
1947.826660 2711.372314 5950.352051 -0.485060 0.663849 0.569229
2946.677246 2936.276611 6539.218262 -0.485060 0.663849 0.569229
3352.364990 3279.375977 6484.787598 -0.485060 0.663849 0.569229
1952.234985 2389.787109 6131.429199 -0.982563 -0.137560 0.125087
1996.509888 2267.971191 6345.247559 -0.982563 -0.137560 0.125087
1927.542603 2541.194092 6103.974121 -0.982563 -0.137560 0.125087
3829.530273 2540.854492 6251.139160 0.833922 -0.551836 0.007147
3793.422119 2480.117676 5774.660156 0.833922 -0.551836 0.007147
3885.279053 2624.181885 6180.193848 0.833922 -0.551836 0.007147
2520.889404 2203.939453 6241.558594 0.222866 -0.832790 0.506745
2226.116943 2100.621826 6201.406250 0.222866 -0.832790 0.506745
2429.279785 2068.327148 6058.981934 0.222866 -0.832790 0.506745
2520.861572 2147.578125 5911.719238 0.747028 -0.655306 0.111912
2520.889404 2203.939453 6241.558594 0.747028 -0.655306 0.111912
2429.279785 2068.327148 6058.981934 0.747028 -0.655306 0.111912
2520.861572 2147.578125 5911.719238 0.499344 -0.854032 0.145891
2908.945557 2426.752441 6217.677734 0.499344 -0.854032 0.145891
2520.889404 2203.939453 6241.558594 0.499344 -0.854032 0.145891
3829.530273 2540.854492 6251.139160 0.143875 -0.923575 0.355400
3536.168945 2559.361572 6417.994141 0.143875 -0.923575 0.355400
3317.247559 2363.926270 5998.742676 0.143875 -0.923575 0.355400
3601.756836 3354.595947 6605.584473 -0.295242 0.955310 0.014675
3414.074707 3308.211182 5849.195312 -0.295242 0.955310 0.014675
3352.364990 3279.375977 6484.787598 -0.295242 0.955310 0.014675
2016.786377 2315.492188 6422.330566 -0.965089 -0.012581 0.261620
1927.542603 2541.194092 6103.974121 -0.965089 -0.012581 0.261620
1996.509888 2267.971191 6345.247559 -0.965089 -0.012581 0.261620
3996.419678 3334.849609 6332.470703 0.889147 0.067762 -0.452577
3878.535156 3243.872314 6087.249512 0.889147 0.067762 -0.452577
3692.960205 3279.494629 5727.996582 0.889147 0.067762 -0.452577
3692.960205 3279.494629 5727.996582 0.051435 0.991840 -0.116650
3414.074707 3308.211182 5849.195312 0.051435 0.991840 -0.116650
3996.419678 3334.849609 6332.470703 0.051435 0.991840 -0.116650
1952.234985 2389.787109 6131.429199 -0.669440 -0.696545 -0.258214
2226.116943 2100.621826 6201.406250 -0.669440 -0.696545 -0.258214
1996.509888 2267.971191 6345.247559 -0.669440 -0.696545 -0.258214
3317.247559 2363.926270 5998.742676 0.068873 -0.917498 0.391731
3536.168945 2559.361572 6417.994141 0.068873 -0.917498 0.391731
2908.945557 2426.752441 6217.677734 0.068873 -0.917498 0.391731
3885.279053 2624.181885 6180.193848 0.907503 -0.052628 -0.416736
3878.535156 3243.872314 6087.249512 0.907503 -0.052628 -0.416736
3996.419678 3334.849609 6332.470703 0.907503 -0.052628 -0.416736
3414.074707 3308.211182 5849.195312 0.133434 0.967650 -0.214125
3815.369629 3391.964111 6477.752930 0.133434 0.967650 -0.214125
3996.419678 3334.849609 6332.470703 0.133434 0.967650 -0.214125
4050.562988 2835.757812 6579.001953 0.817259 -0.575297 -0.033502
3829.530273 2540.854492 6251.139160 0.817259 -0.575297 -0.033502
3885.279053 2624.181885 6180.193848 0.817259 -0.575297 -0.033502
2016.786377 2315.492188 6422.330566 0.125360 -0.649213 0.750205
2226.116943 2100.621826 6201.406250 0.125360 -0.649213 0.750205
2520.889404 2203.939453 6241.558594 0.125360 -0.649213 0.750205
2016.786377 2315.492188 6422.330566 0.086530 -0.721773 0.686699
2520.889404 2203.939453 6241.558594 0.086530 -0.721773 0.686699
2771.963623 2471.433350 6491.077637 0.086530 -0.721773 0.686699
2520.889404 2203.939453 6241.558594 0.479572 -0.795546 0.370294
2908.945557 2426.752441 6217.677734 0.479572 -0.795546 0.370294
2771.963623 2471.433350 6491.077637 0.479572 -0.795546 0.370294
1927.542603 2541.194092 6103.974121 -0.499193 0.612645 0.612758
2946.677246 2936.276611 6539.218262 -0.499193 0.612645 0.612758
1947.826660 2711.372314 5950.352051 -0.499193 0.612645 0.612758
3885.279053 2624.181885 6180.193848 0.934260 -0.071240 -0.349405
3996.419678 3334.849609 6332.470703 0.934260 -0.071240 -0.349405
4050.562988 2835.757812 6579.001953 0.934260 -0.071240 -0.349405
2226.116943 2100.621826 6201.406250 -0.234919 -0.798599 0.554124
2016.786377 2315.492188 6422.330566 -0.234919 -0.798599 0.554124
1996.509888 2267.971191 6345.247559 -0.234919 -0.798599 0.554124
1927.542603 2541.194092 6103.974121 -0.478232 0.647619 0.593197
2016.786377 2315.492188 6422.330566 -0.478232 0.647619 0.593197
2447.298584 2538.806152 6525.605469 -0.478232 0.647619 0.593197
3414.074707 3308.211182 5849.195312 -0.181198 0.983327 -0.015341
3601.756836 3354.595947 6605.584473 -0.181198 0.983327 -0.015341
3815.369629 3391.964111 6477.752930 -0.181198 0.983327 -0.015341
4003.698242 2772.302246 6578.793945 0.220543 -0.848063 0.481820
3536.168945 2559.361572 6417.994141 0.220543 -0.848063 0.481820
3829.530273 2540.854492 6251.139160 0.220543 -0.848063 0.481820
4003.698242 2772.302246 6578.793945 0.804388 -0.594051 -0.007957
3829.530273 2540.854492 6251.139160 0.804388 -0.594051 -0.007957
4050.562988 2835.757812 6579.001953 0.804388 -0.594051 -0.007957
4011.597656 3282.919434 6430.725586 0.517748 0.786841 0.335886
3996.419678 3334.849609 6332.470703 0.517748 0.786841 0.335886
3815.369629 3391.964111 6477.752930 0.517748 0.786841 0.335886
3536.168945 2559.361572 6417.994141 -0.020225 -0.803359 0.595151
3329.986816 2743.283447 6659.252441 -0.020225 -0.803359 0.595151
2908.945557 2426.752441 6217.677734 -0.020225 -0.803359 0.595151
2946.677246 2936.276611 6539.218262 -0.499360 0.606192 0.619008
1927.542603 2541.194092 6103.974121 -0.499360 0.606192 0.619008
2447.298584 2538.806152 6525.605469 -0.499360 0.606192 0.619008
2016.786377 2315.492188 6422.330566 0.006693 -0.430342 0.902641
2771.963623 2471.433350 6491.077637 0.006693 -0.430342 0.902641
2447.298584 2538.806152 6525.605469 0.006693 -0.430342 0.902641
3329.986816 2743.283447 6659.252441 0.337593 -0.887320 0.314157
2771.963623 2471.433350 6491.077637 0.337593 -0.887320 0.314157
2908.945557 2426.752441 6217.677734 0.337593 -0.887320 0.314157
4050.562988 2835.757812 6579.001953 0.990547 0.043136 -0.130217
3996.419678 3334.849609 6332.470703 0.990547 0.043136 -0.130217
4011.597656 3282.919434 6430.725586 0.990547 0.043136 -0.130217
4003.698242 2772.302246 6578.793945 0.110885 -0.742394 0.660723
3329.986816 2743.283447 6659.252441 0.110885 -0.742394 0.660723
3536.168945 2559.361572 6417.994141 0.110885 -0.742394 0.660723
2946.677246 2936.276611 6539.218262 -0.554912 0.721766 0.413673
3446.799072 3166.851318 6807.793945 -0.554912 0.721766 0.413673
3352.364990 3279.375977 6484.787598 -0.554912 0.721766 0.413673
3446.799072 3166.851318 6807.793945 0.433638 0.441596 0.785463
4011.597656 3282.919434 6430.725586 0.433638 0.441596 0.785463
3815.369629 3391.964111 6477.752930 0.433638 0.441596 0.785463
4050.562988 2835.757812 6579.001953 0.563048 0.303900 0.768519
4011.597656 3282.919434 6430.725586 0.563048 0.303900 0.768519
3826.647949 2904.170654 6715.998047 0.563048 0.303900 0.768519
3826.647949 2904.170654 6715.998047 0.457802 0.381349 0.803113
4011.597656 3282.919434 6430.725586 0.457802 0.381349 0.803113
3446.799072 3166.851318 6807.793945 0.457802 0.381349 0.803113
4050.562988 2835.757812 6579.001953 0.423277 -0.315393 0.849331
3826.647949 2904.170654 6715.998047 0.423277 -0.315393 0.849331
4003.698242 2772.302246 6578.793945 0.423277 -0.315393 0.849331
3446.799072 3166.851318 6807.793945 0.368170 0.523615 0.768296
3815.369629 3391.964111 6477.752930 0.368170 0.523615 0.768296
3601.756836 3354.595947 6605.584473 0.368170 0.523615 0.768296
2447.298584 2538.806152 6525.605469 -0.038545 -0.596575 0.801631
2771.963623 2471.433350 6491.077637 -0.038545 -0.596575 0.801631
3186.338867 2849.803955 6792.585938 -0.038545 -0.596575 0.801631
3826.647949 2904.170654 6715.998047 0.118513 -0.635073 0.763307
3329.986816 2743.283447 6659.252441 0.118513 -0.635073 0.763307
4003.698242 2772.302246 6578.793945 0.118513 -0.635073 0.763307
3329.986816 2743.283447 6659.252441 0.130446 -0.701312 0.700817
3186.338867 2849.803955 6792.585938 0.130446 -0.701312 0.700817
2771.963623 2471.433350 6491.077637 0.130446 -0.701312 0.700817
3186.338867 2849.803955 6792.585938 -0.481675 0.582757 0.654510
2946.677246 2936.276611 6539.218262 -0.481675 0.582757 0.654510
2447.298584 2538.806152 6525.605469 -0.481675 0.582757 0.654510
3352.364990 3279.375977 6484.787598 -0.438864 0.800928 0.407323
3446.799072 3166.851318 6807.793945 -0.438864 0.800928 0.407323
3601.756836 3354.595947 6605.584473 -0.438864 0.800928 0.407323
3186.338867 2849.803955 6792.585938 0.264833 -0.593845 0.759744
3329.986816 2743.283447 6659.252441 0.264833 -0.593845 0.759744
3439.819824 3039.207764 6852.272461 0.264833 -0.593845 0.759744
3439.819824 3039.207764 6852.272461 0.090279 -0.567379 0.818493
3329.986816 2743.283447 6659.252441 0.090279 -0.567379 0.818493
3826.647949 2904.170654 6715.998047 0.090279 -0.567379 0.818493
3186.338867 2849.803955 6792.585938 -0.573646 0.438061 0.692122
3446.799072 3166.851318 6807.793945 -0.573646 0.438061 0.692122
2946.677246 2936.276611 6539.218262 -0.573646 0.438061 0.692122
3446.799072 3166.851318 6807.793945 0.404681 0.281096 0.870183
3439.819824 3039.207764 6852.272461 0.404681 0.281096 0.870183
3826.647949 2904.170654 6715.998047 0.404681 0.281096 0.870183
3446.799072 3166.851318 6807.793945 -0.435488 0.317353 0.842400
3186.338867 2849.803955 6792.585938 -0.435488 0.317353 0.842400
3439.819824 3039.207764 6852.272461 -0.435488 0.317353 0.842400
3 0 1 2
3 3 4 5
3 6 7 8
3 9 10 11
3 12 13 14
3 15 16 17
3 18 19 20
3 21 22 23
3 24 25 26
3 27 28 29
3 30 31 32
3 33 34 35
3 36 37 38
3 39 40 41
3 42 43 44
3 45 46 47
3 48 49 50
3 51 52 53
3 54 55 56
3 57 58 59
3 60 61 62
3 63 64 65
3 66 67 68
3 69 70 71
3 72 73 74
3 75 76 77
3 78 79 80
3 81 82 83
3 84 85 86
3 87 88 89
3 90 91 92
3 93 94 95
3 96 97 98
3 99 100 101
3 102 103 104
3 105 106 107
3 108 109 110
3 111 112 113
3 114 115 116
3 117 118 119
3 120 121 122
3 123 124 125
3 126 127 128
3 129 130 131
3 132 133 134
3 135 136 137
3 138 139 140
3 141 142 143
3 144 145 146
3 147 148 149
3 150 151 152
3 153 154 155
3 156 157 158
3 159 160 161
3 162 163 164
3 165 166 167
3 168 169 170
3 171 172 173
3 174 175 176
3 177 178 179
3 180 181 182
3 183 184 185
3 186 187 188
3 189 190 191
3 192 193 194
3 195 196 197
3 198 199 200
3 201 202 203
3 204 205 206
3 207 208 209
3 210 211 212
3 213 214 215
3 216 217 218
3 219 220 221
3 222 223 224
3 225 226 227
3 228 229 230
3 231 232 233
3 234 235 236
3 237 238 239
3 240 241 242
3 243 244 245
3 246 247 248
3 249 250 251
3 252 253 254
3 255 256 257
3 258 259 260
3 261 262 263
3 264 265 266
3 267 268 269
3 270 271 272
3 273 274 275
3 276 277 278
3 279 280 281
3 282 283 284
3 285 286 287
3 288 289 290
3 291 292 293
3 294 295 296
3 297 298 299
3 300 301 302
3 303 304 305
3 306 307 308
3 309 310 311
3 312 313 314
3 315 316 317
3 318 319 320
3 321 322 323
3 324 325 326
3 327 328 329
3 330 331 332
3 333 334 335
3 336 337 338
3 339 340 341
3 342 343 344
3 345 346 347
3 348 349 350
3 351 352 353
3 354 355 356
3 357 358 359
3 360 361 362
3 363 364 365
3 366 367 368
3 369 370 371
3 372 373 374
3 375 376 377
3 378 379 380
3 381 382 383
3 384 385 386
3 387 388 389
3 390 391 392
3 393 394 395
3 396 397 398
3 399 400 401
3 402 403 404
3 405 406 407
3 408 409 410
3 411 412 413
3 414 415 416
3 417 418 419
3 420 421 422
3 423 424 425
3 426 427 428
3 429 430 431
3 432 433 434
3 435 436 437
3 438 439 440
3 441 442 443
3 444 445 446
3 447 448 449
3 450 451 452
3 453 454 455
3 456 457 458
3 459 460 461
3 462 463 464
3 465 466 467
3 468 469 470
3 471 472 473
3 474 475 476
3 477 478 479
3 480 481 482
3 483 484 485
3 486 487 488
3 489 490 491
