ply
format ascii 1.0
comment Created by Blender 2.80 (sub 75) - www.blender.org, source file: 'downsample_ccf.blend'
element vertex 240
property float x
property float y
property float z
property float nx
property float ny
property float nz
element face 80
property list uchar uint vertex_indices
end_header
2110.370361 2370.991211 4975.800781 0.021900 -0.686656 -0.726652
2174.489014 2401.223877 4949.164551 0.021900 -0.686656 -0.726652
2469.896240 2218.627197 5130.613770 0.021900 -0.686656 -0.726652
2110.370361 2370.991211 4975.800781 0.099336 -0.584117 -0.805568
2469.896240 2218.627197 5130.613770 0.099336 -0.584117 -0.805568
2242.139160 2241.410645 5086.008301 0.099336 -0.584117 -0.805568
2242.139160 2241.410645 5086.008301 -0.005573 -0.901783 -0.432153
2469.896240 2218.627197 5130.613770 -0.005573 -0.901783 -0.432153
2438.820312 2165.794922 5241.260742 -0.005573 -0.901783 -0.432153
2110.370361 2370.991211 4975.800781 -0.787232 -0.523919 0.325230
2242.139160 2241.410645 5086.008301 -0.787232 -0.523919 0.325230
2080.417236 2634.938965 5328.496582 -0.787232 -0.523919 0.325230
2174.489014 2401.223877 4949.164551 -0.530563 0.583733 -0.614620
2110.370361 2370.991211 4975.800781 -0.530563 0.583733 -0.614620
2140.661621 2720.164551 5281.278320 -0.530563 0.583733 -0.614620
2140.661621 2720.164551 5281.278320 0.655745 0.576802 -0.487132
2469.896240 2218.627197 5130.613770 0.655745 0.576802 -0.487132
2174.489014 2401.223877 4949.164551 0.655745 0.576802 -0.487132
2438.820312 2165.794922 5241.260742 -0.630799 -0.578135 0.517545
2080.417236 2634.938965 5328.496582 -0.630799 -0.578135 0.517545
2242.139160 2241.410645 5086.008301 -0.630799 -0.578135 0.517545
2140.661621 2720.164551 5281.278320 0.435054 0.508761 -0.742894
2693.927246 2350.785645 5352.317871 0.435054 0.508761 -0.742894
2469.896240 2218.627197 5130.613770 0.435054 0.508761 -0.742894
2140.661621 2720.164551 5281.278320 -0.843376 0.393379 -0.366019
2110.370361 2370.991211 4975.800781 -0.843376 0.393379 -0.366019
2080.417236 2634.938965 5328.496582 -0.843376 0.393379 -0.366019
2731.795410 2312.536133 5392.429688 0.530685 -0.813114 -0.239204
2438.820312 2165.794922 5241.260742 0.530685 -0.813114 -0.239204
2469.896240 2218.627197 5130.613770 0.530685 -0.813114 -0.239204
2693.927246 2350.785645 5352.317871 0.712118 -0.030527 -0.701395
2731.795410 2312.536133 5392.429688 0.712118 -0.030527 -0.701395
2469.896240 2218.627197 5130.613770 0.712118 -0.030527 -0.701395
2487.514893 2909.538086 5461.394043 0.310717 0.291400 -0.904733
2693.927246 2350.785645 5352.317871 0.310717 0.291400 -0.904733
2140.661621 2720.164551 5281.278320 0.310717 0.291400 -0.904733
2731.795410 2312.536133 5392.429688 0.410529 -0.907821 0.085599
2750.283203 2330.473877 5494.001465 0.410529 -0.907821 0.085599
2438.820312 2165.794922 5241.260742 0.410529 -0.907821 0.085599
2438.820312 2165.794922 5241.260742 -0.527128 -0.526703 0.666873
2333.038818 2621.515625 5517.578613 -0.527128 -0.526703 0.666873
2080.417236 2634.938965 5328.496582 -0.527128 -0.526703 0.666873
2731.795410 2312.536133 5392.429688 0.130915 -0.621352 -0.772518
3738.553711 2490.282715 5420.075195 0.130915 -0.621352 -0.772518
3379.519043 2363.228760 5461.423340 0.130915 -0.621352 -0.772518
2731.795410 2312.536133 5392.429688 0.825674 0.385436 -0.411949
2693.927246 2350.785645 5352.317871 0.825674 0.385436 -0.411949
2487.514893 2909.538086 5461.394043 0.825674 0.385436 -0.411949
3522.161865 3251.857178 5434.136719 -0.056535 0.091713 -0.994179
2731.795410 2312.536133 5392.429688 -0.056535 0.091713 -0.994179
2487.514893 2909.538086 5461.394043 -0.056535 0.091713 -0.994179
3738.553711 2490.282715 5420.075195 0.023031 0.024997 -0.999422
2731.795410 2312.536133 5392.429688 0.023031 0.024997 -0.999422
3522.161865 3251.857178 5434.136719 0.023031 0.024997 -0.999422
2080.417236 2634.938965 5328.496582 -0.757599 0.630038 0.170574
2288.633301 2838.176025 5502.598633 -0.757599 0.630038 0.170574
2140.661621 2720.164551 5281.278320 -0.757599 0.630038 0.170574
2487.514893 2909.538086 5461.394043 -0.370717 0.899378 -0.231706
2140.661621 2720.164551 5281.278320 -0.370717 0.899378 -0.231706
2288.633301 2838.176025 5502.598633 -0.370717 0.899378 -0.231706
3522.161865 3251.857178 5434.136719 -0.090824 0.196779 -0.976232
2487.514893 2909.538086 5461.394043 -0.090824 0.196779 -0.976232
2952.032227 3175.398926 5471.767090 -0.090824 0.196779 -0.976232
3807.404541 3215.082764 5474.931641 0.148963 0.060550 -0.986987
3738.553711 2490.282715 5420.075195 0.148963 0.060550 -0.986987
3522.161865 3251.857178 5434.136719 0.148963 0.060550 -0.986987
2438.820312 2165.794922 5241.260742 -0.336108 -0.544127 0.768738
2750.283203 2330.473877 5494.001465 -0.336108 -0.544127 0.768738
2333.038818 2621.515625 5517.578613 -0.336108 -0.544127 0.768738
3522.161865 3251.857178 5434.136719 -0.147486 0.915301 -0.374797
2952.032227 3175.398926 5471.767090 -0.147486 0.915301 -0.374797
3617.895752 3306.526367 5529.973633 -0.147486 0.915301 -0.374797
3807.404541 3215.082764 5474.931641 0.186948 0.761212 -0.620973
3522.161865 3251.857178 5434.136719 0.186948 0.761212 -0.620973
3617.895752 3306.526367 5529.973633 0.186948 0.761212 -0.620973
3738.553711 2490.282715 5420.075195 0.297197 -0.921363 -0.250528
3757.885986 2468.127930 5524.486816 0.297197 -0.921363 -0.250528
3379.519043 2363.228760 5461.423340 0.297197 -0.921363 -0.250528
3738.553711 2490.282715 5420.075195 0.977212 -0.077883 -0.197461
3807.404541 3215.082764 5474.931641 0.977212 -0.077883 -0.197461
3757.885986 2468.127930 5524.486816 0.977212 -0.077883 -0.197461
3617.895752 3306.526367 5529.973633 -0.147906 0.916287 -0.372213
2952.032227 3175.398926 5471.767090 -0.147906 0.916287 -0.372213
3000.211182 3214.347656 5548.503418 -0.147906 0.916287 -0.372213
2333.038818 2621.515625 5517.578613 -0.600148 -0.067898 0.797002
2288.633301 2838.176025 5502.598633 -0.600148 -0.067898 0.797002
2080.417236 2634.938965 5328.496582 -0.600148 -0.067898 0.797002
2487.514893 2909.538086 5461.394043 -0.382579 0.783460 -0.489719
2288.633301 2838.176025 5502.598633 -0.382579 0.783460 -0.489719
3000.211182 3214.347656 5548.503418 -0.382579 0.783460 -0.489719
3000.211182 3214.347656 5548.503418 -0.490366 0.861832 -0.129560
2952.032227 3175.398926 5471.767090 -0.490366 0.861832 -0.129560
2487.514893 2909.538086 5461.394043 -0.490366 0.861832 -0.129560
3379.519043 2363.228760 5461.423340 0.059706 -0.984809 0.163051
2750.283203 2330.473877 5494.001465 0.059706 -0.984809 0.163051
2731.795410 2312.536133 5392.429688 0.059706 -0.984809 0.163051
3757.885986 2468.127930 5524.486816 0.073210 -0.694415 0.715841
2750.283203 2330.473877 5494.001465 0.073210 -0.694415 0.715841
3379.519043 2363.228760 5461.423340 0.073210 -0.694415 0.715841
2750.283203 2330.473877 5494.001465 -0.015957 -0.103442 0.994507
3757.885986 2468.127930 5524.486816 -0.015957 -0.103442 0.994507
2333.038818 2621.515625 5517.578613 -0.015957 -0.103442 0.994507
3757.885986 2468.127930 5524.486816 0.297960 0.043511 0.953586
3807.404541 3215.082764 5474.931641 0.297960 0.043511 0.953586
3617.895752 3306.526367 5529.973633 0.297960 0.043511 0.953586
3617.895752 3306.526367 5529.973633 0.030209 -0.001497 0.999542
3000.211182 3214.347656 5548.503418 0.030209 -0.001497 0.999542
3757.885986 2468.127930 5524.486816 0.030209 -0.001497 0.999542
3000.211182 3214.347656 5548.503418 -0.009325 -0.041623 0.999090
2333.038818 2621.515625 5517.578613 -0.009325 -0.041623 0.999090
3757.885986 2468.127930 5524.486816 -0.009325 -0.041623 0.999090
3000.211182 3214.347656 5548.503418 -0.090691 0.050180 0.994614
2288.633301 2838.176025 5502.598633 -0.090691 0.050180 0.994614
2333.038818 2621.515625 5517.578613 -0.090691 0.050180 0.994614
2458.411377 2917.692871 5828.601074 -0.285893 -0.056941 -0.956568
2472.101562 2586.871094 5844.202148 -0.285893 -0.056941 -0.956568
2198.887695 2700.081543 5919.119629 -0.285893 -0.056941 -0.956568
3614.419922 2442.405762 5844.074707 -0.035131 -0.276940 -0.960245
3290.934082 2347.424316 5883.302734 -0.035131 -0.276940 -0.960245
2472.101562 2586.871094 5844.202148 -0.035131 -0.276940 -0.960245
3614.419922 2442.405762 5844.074707 0.341216 -0.044033 -0.938953
3803.181396 3204.249023 5876.943848 0.341216 -0.044033 -0.938953
3815.032959 2503.413086 5914.116699 0.341216 -0.044033 -0.938953
3803.181396 3204.249023 5876.943848 0.005178 0.041823 -0.999112
3614.419922 2442.405762 5844.074707 0.005178 0.041823 -0.999112
2472.101562 2586.871094 5844.202148 0.005178 0.041823 -0.999112
3803.181396 3204.249023 5876.943848 0.052395 -0.060101 -0.996816
2472.101562 2586.871094 5844.202148 0.052395 -0.060101 -0.996816
3226.444824 3268.471680 5842.756836 0.052395 -0.060101 -0.996816
3226.444824 3268.471680 5842.756836 0.039158 -0.045453 -0.998199
2472.101562 2586.871094 5844.202148 0.039158 -0.045453 -0.998199
2458.411377 2917.692871 5828.601074 0.039158 -0.045453 -0.998199
3226.444824 3268.471680 5842.756836 -0.247267 0.572928 -0.781417
2458.411377 2917.692871 5828.601074 -0.247267 0.572928 -0.781417
2988.992920 3214.716553 5878.481934 -0.247267 0.572928 -0.781417
2458.411377 2917.692871 5828.601074 -0.492121 0.868034 0.065830
2409.718994 2882.017822 5935.006348 -0.492121 0.868034 0.065830
2988.992920 3214.716553 5878.481934 -0.492121 0.868034 0.065830
2753.122314 2310.255615 5930.974121 -0.193348 -0.467085 -0.862814
2526.734619 2189.224609 6047.225586 -0.193348 -0.467085 -0.862814
2472.101562 2586.871094 5844.202148 -0.193348 -0.467085 -0.862814
3290.934082 2347.424316 5883.302734 -0.058440 -0.352369 -0.934035
2753.122314 2310.255615 5930.974121 -0.058440 -0.352369 -0.934035
2472.101562 2586.871094 5844.202148 -0.058440 -0.352369 -0.934035
3614.419922 2442.405762 5844.074707 0.284046 -0.958573 0.021368
3815.032959 2503.413086 5914.116699 0.284046 -0.958573 0.021368
3290.934082 2347.424316 5883.302734 0.284046 -0.958573 0.021368
3548.523193 3275.443604 5945.560547 0.125142 0.883217 -0.451959
3803.181396 3204.249023 5876.943848 0.125142 0.883217 -0.451959
3226.444824 3268.471680 5842.756836 0.125142 0.883217 -0.451959
2458.411377 2917.692871 5828.601074 -0.624722 0.493248 -0.605333
2198.887695 2700.081543 5919.119629 -0.624722 0.493248 -0.605333
2126.786621 2749.326416 6033.656738 -0.624722 0.493248 -0.605333
2458.411377 2917.692871 5828.601074 -0.383048 0.914353 0.131272
2126.786621 2749.326416 6033.656738 -0.383048 0.914353 0.131272
2409.718994 2882.017822 5935.006348 -0.383048 0.914353 0.131272
2988.992920 3214.716553 5878.481934 -0.145822 0.906882 0.395349
3548.523193 3275.443604 5945.560547 -0.145822 0.906882 0.395349
3226.444824 3268.471680 5842.756836 -0.145822 0.906882 0.395349
3290.934082 2347.424316 5883.302734 0.249794 -0.906506 0.340369
3815.032959 2503.413086 5914.116699 0.249794 -0.906506 0.340369
3776.697266 2514.580322 5971.992676 0.249794 -0.906506 0.340369
3776.697266 2514.580322 5971.992676 0.836731 0.043105 0.545914
3815.032959 2503.413086 5914.116699 0.836731 0.043105 0.545914
3803.181396 3204.249023 5876.943848 0.836731 0.043105 0.545914
2526.734619 2189.224609 6047.225586 -0.406801 -0.459115 -0.789764
2198.887695 2700.081543 5919.119629 -0.406801 -0.459115 -0.789764
2472.101562 2586.871094 5844.202148 -0.406801 -0.459115 -0.789764
2409.718994 2882.017822 5935.006348 -0.152728 0.418060 0.895489
3548.523193 3275.443604 5945.560547 -0.152728 0.418060 0.895489
2988.992920 3214.716553 5878.481934 -0.152728 0.418060 0.895489
3290.934082 2347.424316 5883.302734 0.105361 -0.838168 0.535139
2798.776367 2361.369385 6002.042969 0.105361 -0.838168 0.535139
2753.122314 2310.255615 5930.974121 0.105361 -0.838168 0.535139
2798.776367 2361.369385 6002.042969 0.136677 -0.744136 0.653897
3290.934082 2347.424316 5883.302734 0.136677 -0.744136 0.653897
3776.697266 2514.580322 5971.992676 0.136677 -0.744136 0.653897
2798.776367 2361.369385 6002.042969 -0.042484 0.096295 0.994446
3548.523193 3275.443604 5945.560547 -0.042484 0.096295 0.994446
2409.718994 2882.017822 5935.006348 -0.042484 0.096295 0.994446
3776.697266 2514.580322 5971.992676 0.289376 0.119772 0.949693
3803.181396 3204.249023 5876.943848 0.289376 0.119772 0.949693
3548.523193 3275.443604 5945.560547 0.289376 0.119772 0.949693
2526.734619 2189.224609 6047.225586 0.547402 -0.805336 0.227563
2753.122314 2310.255615 5930.974121 0.547402 -0.805336 0.227563
2798.776367 2361.369385 6002.042969 0.547402 -0.805336 0.227563
2075.583740 2519.036621 6163.612793 -0.547421 -0.516441 -0.658498
2198.887695 2700.081543 5919.119629 -0.547421 -0.516441 -0.658498
2526.734619 2189.224609 6047.225586 -0.547421 -0.516441 -0.658498
2198.887695 2700.081543 5919.119629 -0.860048 -0.091980 -0.501854
2075.583740 2519.036621 6163.612793 -0.860048 -0.091980 -0.501854
2126.786621 2749.326416 6033.656738 -0.860048 -0.091980 -0.501854
3776.697266 2514.580322 5971.992676 0.024123 0.041933 0.998829
3548.523193 3275.443604 5945.560547 0.024123 0.041933 0.998829
2798.776367 2361.369385 6002.042969 0.024123 0.041933 0.998829
2798.776367 2361.369385 6002.042969 0.308913 0.344957 0.886328
2409.718994 2882.017822 5935.006348 0.308913 0.344957 0.886328
2627.670898 2298.321289 6086.216797 0.308913 0.344957 0.886328
2627.670898 2298.321289 6086.216797 0.416952 0.370683 0.829907
2409.718994 2882.017822 5935.006348 0.416952 0.370683 0.829907
2149.727051 2591.953125 6195.187500 0.416952 0.370683 0.829907
2798.776367 2361.369385 6002.042969 0.544347 -0.777719 0.314388
2490.569580 2236.309326 6226.319824 0.544347 -0.777719 0.314388
2526.734619 2189.224609 6047.225586 0.544347 -0.777719 0.314388
2627.670898 2298.321289 6086.216797 -0.275940 0.949370 0.150180
2490.569580 2236.309326 6226.319824 -0.275940 0.949370 0.150180
2798.776367 2361.369385 6002.042969 -0.275940 0.949370 0.150180
2526.734619 2189.224609 6047.225586 -0.575319 -0.585394 -0.571246
2325.453369 2205.380859 6233.385742 -0.575319 -0.585394 -0.571246
2075.583740 2519.036621 6163.612793 -0.575319 -0.585394 -0.571246
2149.727051 2591.953125 6195.187500 -0.087135 0.707326 0.701496
2409.718994 2882.017822 5935.006348 -0.087135 0.707326 0.701496
2126.786621 2749.326416 6033.656738 -0.087135 0.707326 0.701496
2627.670898 2298.321289 6086.216797 0.481724 0.523214 0.702986
2149.727051 2591.953125 6195.187500 0.481724 0.523214 0.702986
2490.569580 2236.309326 6226.319824 0.481724 0.523214 0.702986
2075.583740 2519.036621 6163.612793 -0.692379 0.465193 0.551550
2149.727051 2591.953125 6195.187500 -0.692379 0.465193 0.551550
2126.786621 2749.326416 6033.656738 -0.692379 0.465193 0.551550
2325.453369 2205.380859 6233.385742 0.188243 -0.939831 0.285099
2526.734619 2189.224609 6047.225586 0.188243 -0.939831 0.285099
2490.569580 2236.309326 6226.319824 0.188243 -0.939831 0.285099
2114.272949 2382.055176 6404.827148 -0.720023 0.547495 0.426400
2149.727051 2591.953125 6195.187500 -0.720023 0.547495 0.426400
2075.583740 2519.036621 6163.612793 -0.720023 0.547495 0.426400
2149.727051 2591.953125 6195.187500 0.635273 0.645896 0.423375
2205.746094 2379.771729 6434.832520 0.635273 0.645896 0.423375
2490.569580 2236.309326 6226.319824 0.635273 0.645896 0.423375
2490.569580 2236.309326 6226.319824 0.160476 -0.697073 0.698811
2205.746094 2379.771729 6434.832520 0.160476 -0.697073 0.698811
2325.453369 2205.380859 6233.385742 0.160476 -0.697073 0.698811
2114.272949 2382.055176 6404.827148 -0.731210 -0.636873 -0.244388
2075.583740 2519.036621 6163.612793 -0.731210 -0.636873 -0.244388
2325.453369 2205.380859 6233.385742 -0.731210 -0.636873 -0.244388
2149.727051 2591.953125 6195.187500 -0.203808 0.708859 0.675264
2114.272949 2382.055176 6404.827148 -0.203808 0.708859 0.675264
2205.746094 2379.771729 6434.832520 -0.203808 0.708859 0.675264
2205.746094 2379.771729 6434.832520 -0.206080 -0.797105 0.567587
2114.272949 2382.055176 6404.827148 -0.206080 -0.797105 0.567587
2325.453369 2205.380859 6233.385742 -0.206080 -0.797105 0.567587
3 0 1 2
3 3 4 5
3 6 7 8
3 9 10 11
3 12 13 14
3 15 16 17
3 18 19 20
3 21 22 23
3 24 25 26
3 27 28 29
3 30 31 32
3 33 34 35
3 36 37 38
3 39 40 41
3 42 43 44
3 45 46 47
3 48 49 50
3 51 52 53
3 54 55 56
3 57 58 59
3 60 61 62
3 63 64 65
3 66 67 68
3 69 70 71
3 72 73 74
3 75 76 77
3 78 79 80
3 81 82 83
3 84 85 86
3 87 88 89
3 90 91 92
3 93 94 95
3 96 97 98
3 99 100 101
3 102 103 104
3 105 106 107
3 108 109 110
3 111 112 113
3 114 115 116
3 117 118 119
3 120 121 122
3 123 124 125
3 126 127 128
3 129 130 131
3 132 133 134
3 135 136 137
3 138 139 140
3 141 142 143
3 144 145 146
3 147 148 149
3 150 151 152
3 153 154 155
3 156 157 158
3 159 160 161
3 162 163 164
3 165 166 167
3 168 169 170
3 171 172 173
3 174 175 176
3 177 178 179
3 180 181 182
3 183 184 185
3 186 187 188
3 189 190 191
3 192 193 194
3 195 196 197
3 198 199 200
3 201 202 203
3 204 205 206
3 207 208 209
3 210 211 212
3 213 214 215
3 216 217 218
3 219 220 221
3 222 223 224
3 225 226 227
3 228 229 230
3 231 232 233
3 234 235 236
3 237 238 239
