ply
format ascii 1.0
comment Created by Blender 2.80 (sub 75) - www.blender.org, source file: 'downsample_ccf.blend'
element vertex 66
property float x
property float y
property float z
property float nx
property float ny
property float nz
element face 22
property list uchar uint vertex_indices
end_header
11239.747070 7226.325195 4842.303223 0.097549 -0.264565 -0.959421
11263.468750 7067.472656 4888.519531 0.097549 -0.264565 -0.959421
10618.222656 7089.464844 4816.849609 0.097549 -0.264565 -0.959421
11263.468750 7067.472656 4888.519531 0.092542 -0.337570 -0.936740
10520.666992 6846.704102 4894.694824 0.092542 -0.337570 -0.936740
10618.222656 7089.464844 4816.849609 0.092542 -0.337570 -0.936740
10618.222656 7089.464844 4816.849609 -0.901567 0.248807 -0.353939
10520.666992 6846.704102 4894.694824 -0.901567 0.248807 -0.353939
10450.306641 6842.141113 5070.711914 -0.901567 0.248807 -0.353939
10513.213867 6800.830566 5020.408691 0.267859 -0.910088 -0.316215
10520.666992 6846.704102 4894.694824 0.267859 -0.910088 -0.316215
11263.468750 7067.472656 4888.519531 0.267859 -0.910088 -0.316215
11239.747070 7226.325195 4842.303223 -0.214809 0.909162 0.356766
10618.222656 7089.464844 4816.849609 -0.214809 0.909162 0.356766
11233.010742 7149.877441 5033.062012 -0.214809 0.909162 0.356766
10450.306641 6842.141113 5070.711914 -0.675743 -0.678670 -0.287712
10520.666992 6846.704102 4894.694824 -0.675743 -0.678670 -0.287712
10513.213867 6800.830566 5020.408691 -0.675743 -0.678670 -0.287712
11263.468750 7067.472656 4888.519531 0.978585 0.176802 0.105412
11239.747070 7226.325195 4842.303223 0.978585 0.176802 0.105412
11233.010742 7149.877441 5033.062012 0.978585 0.176802 0.105412
10450.306641 6842.141113 5070.711914 -0.276616 0.773344 0.570459
11233.010742 7149.877441 5033.062012 -0.276616 0.773344 0.570459
10618.222656 7089.464844 4816.849609 -0.276616 0.773344 0.570459
11263.468750 7067.472656 4888.519531 0.365859 -0.773241 0.517924
11233.010742 7149.877441 5033.062012 0.365859 -0.773241 0.517924
10513.213867 6800.830566 5020.408691 0.365859 -0.773241 0.517924
10450.306641 6842.141113 5070.711914 0.258838 -0.562241 0.785422
10513.213867 6800.830566 5020.408691 0.258838 -0.562241 0.785422
11233.010742 7149.877441 5033.062012 0.258838 -0.562241 0.785422
10736.281250 6891.711426 6409.174316 0.322721 -0.758783 -0.565772
10458.169922 6853.292969 6302.062012 0.322721 -0.758783 -0.565772
11142.408203 7130.318848 6320.825195 0.322721 -0.758783 -0.565772
11142.408203 7130.318848 6320.825195 0.562143 0.671601 -0.482647
11198.054688 7229.894531 6524.196289 0.562143 0.671601 -0.482647
11265.552734 7069.815430 6380.062500 0.562143 0.671601 -0.482647
10458.169922 6853.292969 6302.062012 0.186357 -0.973189 -0.134809
10736.281250 6891.711426 6409.174316 0.186357 -0.973189 -0.134809
10457.162109 6828.099121 6482.543945 0.186357 -0.973189 -0.134809
11265.552734 7069.815430 6380.062500 0.135472 -0.538518 -0.831652
10736.281250 6891.711426 6409.174316 0.135472 -0.538518 -0.831652
11142.408203 7130.318848 6320.825195 0.135472 -0.538518 -0.831652
10458.169922 6853.292969 6302.062012 -0.295872 0.769154 -0.566447
10767.693359 7157.212402 6553.067383 -0.295872 0.769154 -0.566447
11142.408203 7130.318848 6320.825195 -0.295872 0.769154 -0.566447
11198.054688 7229.894531 6524.196289 0.849233 0.502919 -0.160860
11262.916016 7131.007812 6557.457031 0.849233 0.502919 -0.160860
11265.552734 7069.815430 6380.062500 0.849233 0.502919 -0.160860
10767.693359 7157.212402 6553.067383 -0.178703 0.902097 -0.392793
11198.054688 7229.894531 6524.196289 -0.178703 0.902097 -0.392793
11142.408203 7130.318848 6320.825195 -0.178703 0.902097 -0.392793
11265.552734 7069.815430 6380.062500 0.318309 -0.894699 0.313358
11262.916016 7131.007812 6557.457031 0.318309 -0.894699 0.313358
10736.281250 6891.711426 6409.174316 0.318309 -0.894699 0.313358
10767.693359 7157.212402 6553.067383 -0.733940 0.673241 0.089881
10458.169922 6853.292969 6302.062012 -0.733940 0.673241 0.089881
10457.162109 6828.099121 6482.543945 -0.733940 0.673241 0.089881
11262.916016 7131.007812 6557.457031 0.297305 -0.881545 0.366726
10457.162109 6828.099121 6482.543945 0.297305 -0.881545 0.366726
10736.281250 6891.711426 6409.174316 0.297305 -0.881545 0.366726
11262.916016 7131.007812 6557.457031 -0.018879 -0.192427 0.981130
10767.693359 7157.212402 6553.067383 -0.018879 -0.192427 0.981130
10457.162109 6828.099121 6482.543945 -0.018879 -0.192427 0.981130
11198.054688 7229.894531 6524.196289 0.008756 0.323944 0.946036
10767.693359 7157.212402 6553.067383 0.008756 0.323944 0.946036
11262.916016 7131.007812 6557.457031 0.008756 0.323944 0.946036
3 0 1 2
3 3 4 5
3 6 7 8
3 9 10 11
3 12 13 14
3 15 16 17
3 18 19 20
3 21 22 23
3 24 25 26
3 27 28 29
3 30 31 32
3 33 34 35
3 36 37 38
3 39 40 41
3 42 43 44
3 45 46 47
3 48 49 50
3 51 52 53
3 54 55 56
3 57 58 59
3 60 61 62
3 63 64 65
