ply
format ascii 1.0
comment Created by Blender 2.80 (sub 75) - www.blender.org, source file: 'downsample_ccf.blend'
element vertex 594
property float x
property float y
property float z
property float nx
property float ny
property float nz
element face 198
property list uchar uint vertex_indices
end_header
7720.879883 1121.440796 2098.118896 -0.462152 -0.540969 -0.702686
7867.521973 1302.384521 1862.372437 -0.462152 -0.540969 -0.702686
7915.048828 1213.508667 1899.536133 -0.462152 -0.540969 -0.702686
7867.521973 1302.384521 1862.372437 0.522204 -0.075941 -0.849433
8335.203125 1097.105957 2168.240234 0.522204 -0.075941 -0.849433
7915.048828 1213.508667 1899.536133 0.522204 -0.075941 -0.849433
7867.521973 1302.384521 1862.372437 -0.896719 0.261202 -0.357307
7720.879883 1121.440796 2098.118896 -0.896719 0.261202 -0.357307
7852.397461 1551.946899 2082.767334 -0.896719 0.261202 -0.357307
8336.229492 1046.082764 2186.227783 0.458308 -0.287293 -0.841081
7915.048828 1213.508667 1899.536133 0.458308 -0.287293 -0.841081
8335.203125 1097.105957 2168.240234 0.458308 -0.287293 -0.841081
7926.714355 1886.063965 2364.281494 -0.107266 0.654468 -0.748442
7867.521973 1302.384521 1862.372437 -0.107266 0.654468 -0.748442
7852.397461 1551.946899 2082.767334 -0.107266 0.654468 -0.748442
7915.048828 1213.508667 1899.536133 -0.478874 -0.518320 -0.708536
7634.435547 975.896606 2263.014404 -0.478874 -0.518320 -0.708536
7720.879883 1121.440796 2098.118896 -0.478874 -0.518320 -0.708536
7915.048828 1213.508667 1899.536133 0.065105 -0.817090 -0.572822
8336.229492 1046.082764 2186.227783 0.065105 -0.817090 -0.572822
8077.984863 888.175720 2382.119873 0.065105 -0.817090 -0.572822
7915.048828 1213.508667 1899.536133 -0.015309 -0.831467 -0.555363
8077.984863 888.175720 2382.119873 -0.015309 -0.831467 -0.555363
7634.435547 975.896606 2263.014404 -0.015309 -0.831467 -0.555363
8337.187500 1108.067261 2274.759033 0.999715 0.013070 -0.019969
8336.229492 1046.082764 2186.227783 0.999715 0.013070 -0.019969
8335.203125 1097.105957 2168.240234 0.999715 0.013070 -0.019969
8335.203125 1097.105957 2168.240234 0.618071 0.476458 -0.625281
7867.521973 1302.384521 1862.372437 0.618071 0.476458 -0.625281
8154.482910 1805.738770 2529.575684 0.618071 0.476458 -0.625281
7926.714355 1886.063965 2364.281494 0.620506 0.474174 -0.624605
8154.482910 1805.738770 2529.575684 0.620506 0.474174 -0.624605
7867.521973 1302.384521 1862.372437 0.620506 0.474174 -0.624605
7634.435547 975.896606 2263.014404 -0.749366 -0.249722 -0.613261
7416.517578 904.119629 2558.524170 -0.749366 -0.249722 -0.613261
7720.879883 1121.440796 2098.118896 -0.749366 -0.249722 -0.613261
8337.187500 1108.067261 2274.759033 0.994176 0.103742 -0.029196
8335.203125 1097.105957 2168.240234 0.994176 0.103742 -0.029196
8287.669922 1673.711182 2598.496826 0.994176 0.103742 -0.029196
7926.714355 1886.063965 2364.281494 -0.902763 0.376324 -0.208322
7852.397461 1551.946899 2082.767334 -0.902763 0.376324 -0.208322
7918.769043 1895.226807 2415.264648 -0.902763 0.376324 -0.208322
7634.435547 975.896606 2263.014404 -0.035644 -0.863443 -0.503186
8077.984863 888.175720 2382.119873 -0.035644 -0.863443 -0.503186
7754.524902 688.068665 2748.406250 -0.035644 -0.863443 -0.503186
7720.879883 1121.440796 2098.118896 -0.913524 0.268170 -0.305873
7639.361816 1560.103638 2726.172607 -0.913524 0.268170 -0.305873
7852.397461 1551.946899 2082.767334 -0.913524 0.268170 -0.305873
7720.879883 1121.440796 2098.118896 -0.843445 0.382843 -0.376871
7416.517578 904.119629 2558.524170 -0.843445 0.382843 -0.376871
7639.361816 1560.103638 2726.172607 -0.843445 0.382843 -0.376871
7639.361816 1560.103638 2726.172607 -0.849748 0.442245 -0.286964
7918.769043 1895.226807 2415.264648 -0.849748 0.442245 -0.286964
7852.397461 1551.946899 2082.767334 -0.849748 0.442245 -0.286964
7754.524902 688.068665 2748.406250 0.512461 -0.858552 -0.016495
8077.984863 888.175720 2382.119873 0.512461 -0.858552 -0.016495
8336.229492 1046.082764 2186.227783 0.512461 -0.858552 -0.016495
8337.187500 1108.067261 2274.759033 0.725547 -0.567399 0.389409
7754.524902 688.068665 2748.406250 0.725547 -0.567399 0.389409
8336.229492 1046.082764 2186.227783 0.725547 -0.567399 0.389409
8335.203125 1097.105957 2168.240234 0.720326 0.451990 -0.526152
8154.482910 1805.738770 2529.575684 0.720326 0.451990 -0.526152
8287.669922 1673.711182 2598.496826 0.720326 0.451990 -0.526152
7634.435547 975.896606 2263.014404 -0.078756 -0.865901 -0.493977
7754.524902 688.068665 2748.406250 -0.078756 -0.865901 -0.493977
7399.782227 809.166504 2592.689697 -0.078756 -0.865901 -0.493977
7399.782227 809.166504 2592.689697 -0.793334 -0.077447 -0.603840
7416.517578 904.119629 2558.524170 -0.793334 -0.077447 -0.603840
7634.435547 975.896606 2263.014404 -0.793334 -0.077447 -0.603840
8287.669922 1673.711182 2598.496826 0.799052 -0.244449 0.549328
8223.450195 1677.996704 2693.817871 0.799052 -0.244449 0.549328
8337.187500 1108.067261 2274.759033 0.799052 -0.244449 0.549328
7918.769043 1895.226807 2415.264648 0.396037 0.912520 -0.102282
8154.482910 1805.738770 2529.575684 0.396037 0.912520 -0.102282
7926.714355 1886.063965 2364.281494 0.396037 0.912520 -0.102282
8337.187500 1108.067261 2274.759033 0.729400 -0.347121 0.589476
7936.226074 1368.600098 2924.314697 0.729400 -0.347121 0.589476
7754.524902 688.068665 2748.406250 0.729400 -0.347121 0.589476
7738.171875 1688.229492 2782.663086 -0.783665 0.620150 -0.035815
7918.769043 1895.226807 2415.264648 -0.783665 0.620150 -0.035815
7639.361816 1560.103638 2726.172607 -0.783665 0.620150 -0.035815
8154.482910 1805.738770 2529.575684 0.563980 0.749687 0.346260
8223.450195 1677.996704 2693.817871 0.563980 0.749687 0.346260
8287.669922 1673.711182 2598.496826 0.563980 0.749687 0.346260
8154.482910 1805.738770 2529.575684 0.073304 0.853051 0.516653
7918.769043 1895.226807 2415.264648 0.073304 0.853051 0.516653
7738.171875 1688.229492 2782.663086 0.073304 0.853051 0.516653
7754.524902 688.068665 2748.406250 -0.111377 -0.891338 -0.439446
7151.713379 709.801819 2857.105957 -0.111377 -0.891338 -0.439446
7399.782227 809.166504 2592.689697 -0.111377 -0.891338 -0.439446
7399.782227 809.166504 2592.689697 -0.698188 -0.130243 -0.703967
7151.713379 709.801819 2857.105957 -0.698188 -0.130243 -0.703967
7416.517578 904.119629 2558.524170 -0.698188 -0.130243 -0.703967
7639.361816 1560.103638 2726.172607 -0.714280 0.657079 -0.240938
7546.545410 1567.636230 3021.876953 -0.714280 0.657079 -0.240938
7738.171875 1688.229492 2782.663086 -0.714280 0.657079 -0.240938
7416.517578 904.119629 2558.524170 -0.785678 0.389694 -0.480467
7342.738770 1342.434326 3034.675537 -0.785678 0.389694 -0.480467
7639.361816 1560.103638 2726.172607 -0.785678 0.389694 -0.480467
8223.450195 1677.996704 2693.817871 0.764569 -0.275771 0.582567
7936.226074 1368.600098 2924.314697 0.764569 -0.275771 0.582567
8337.187500 1108.067261 2274.759033 0.764569 -0.275771 0.582567
7694.793945 662.007996 2960.433105 0.925820 -0.304923 0.223338
7754.524902 688.068665 2748.406250 0.925820 -0.304923 0.223338
7936.226074 1368.600098 2924.314697 0.925820 -0.304923 0.223338
8154.482910 1805.738770 2529.575684 0.163923 0.810854 0.561822
7832.968262 1490.524292 3078.319824 0.163923 0.810854 0.561822
8223.450195 1677.996704 2693.817871 0.163923 0.810854 0.561822
7738.171875 1688.229492 2782.663086 0.087435 0.840814 0.534217
7832.968262 1490.524292 3078.319824 0.087435 0.840814 0.534217
8154.482910 1805.738770 2529.575684 0.087435 0.840814 0.534217
7630.631348 604.912415 2967.613525 0.667668 -0.738063 0.097375
7754.524902 688.068665 2748.406250 0.667668 -0.738063 0.097375
7694.793945 662.007996 2960.433105 0.667668 -0.738063 0.097375
7151.713379 709.801819 2857.105957 -0.564553 0.376620 -0.734464
7032.005371 877.582458 3035.155762 -0.564553 0.376620 -0.734464
7342.738770 1342.434326 3034.675537 -0.564553 0.376620 -0.734464
7151.713379 709.801819 2857.105957 -0.801229 0.373210 -0.467703
7342.738770 1342.434326 3034.675537 -0.801229 0.373210 -0.467703
7416.517578 904.119629 2558.524170 -0.801229 0.373210 -0.467703
7027.306641 673.875732 2976.113281 -0.706815 0.211920 -0.674909
7032.005371 877.582458 3035.155762 -0.706815 0.211920 -0.674909
7151.713379 709.801819 2857.105957 -0.706815 0.211920 -0.674909
7694.793945 662.007996 2960.433105 0.859830 -0.271694 0.432289
7936.226074 1368.600098 2924.314697 0.859830 -0.271694 0.432289
7750.479004 1325.957886 3266.968262 0.859830 -0.271694 0.432289
7546.545410 1567.636230 3021.876953 -0.725864 0.643024 -0.244216
7639.361816 1560.103638 2726.172607 -0.725864 0.643024 -0.244216
7342.738770 1342.434326 3034.675537 -0.725864 0.643024 -0.244216
7832.968262 1490.524292 3078.319824 0.123649 0.842755 0.523903
7738.171875 1688.229492 2782.663086 0.123649 0.842755 0.523903
7546.545410 1567.636230 3021.876953 0.123649 0.842755 0.523903
7832.968262 1490.524292 3078.319824 0.734366 -0.198089 0.649205
7936.226074 1368.600098 2924.314697 0.734366 -0.198089 0.649205
8223.450195 1677.996704 2693.817871 0.734366 -0.198089 0.649205
7151.713379 709.801819 2857.105957 -0.099918 -0.923885 -0.369394
7754.524902 688.068665 2748.406250 -0.099918 -0.923885 -0.369394
7138.002441 453.303314 3502.338867 -0.099918 -0.923885 -0.369394
7754.524902 688.068665 2748.406250 -0.231190 -0.859122 -0.456574
7630.631348 604.912415 2967.613525 -0.231190 -0.859122 -0.456574
7138.002441 453.303314 3502.338867 -0.231190 -0.859122 -0.456574
7733.046387 597.523926 3282.673828 0.992050 -0.026394 -0.123046
7694.793945 662.007996 2960.433105 0.992050 -0.026394 -0.123046
7750.479004 1325.957886 3266.968262 0.992050 -0.026394 -0.123046
7032.005371 877.582458 3035.155762 -0.706376 0.471637 -0.527818
7215.498535 1440.830566 3292.883301 -0.706376 0.471637 -0.527818
7342.738770 1342.434326 3034.675537 -0.706376 0.471637 -0.527818
7832.968262 1490.524292 3078.319824 0.866227 0.121404 0.484676
7750.479004 1325.957886 3266.968262 0.866227 0.121404 0.484676
7936.226074 1368.600098 2924.314697 0.866227 0.121404 0.484676
7670.618164 497.375092 3273.276123 0.605630 -0.722524 -0.333425
7630.631348 604.912415 2967.613525 0.605630 -0.722524 -0.333425
7694.793945 662.007996 2960.433105 0.605630 -0.722524 -0.333425
7342.738770 1342.434326 3034.675537 -0.644280 0.553049 -0.528242
7215.498535 1440.830566 3292.883301 -0.644280 0.553049 -0.528242
7546.545410 1567.636230 3021.876953 -0.644280 0.553049 -0.528242
7138.002441 453.303314 3502.338867 -0.086405 -0.925160 -0.369613
7027.306641 673.875732 2976.113281 -0.086405 -0.925160 -0.369613
7151.713379 709.801819 2857.105957 -0.086405 -0.925160 -0.369613
7733.046387 597.523926 3282.673828 0.839708 -0.504606 -0.200657
7670.618164 497.375092 3273.276123 0.839708 -0.504606 -0.200657
7694.793945 662.007996 2960.433105 0.839708 -0.504606 -0.200657
7237.861816 1468.430542 3422.158936 0.175160 0.915576 0.361993
7832.968262 1490.524292 3078.319824 0.175160 0.915576 0.361993
7546.545410 1567.636230 3021.876953 0.175160 0.915576 0.361993
7832.968262 1490.524292 3078.319824 0.947937 -0.158573 0.276169
7726.940430 1366.100708 3370.812744 0.947937 -0.158573 0.276169
7750.479004 1325.957886 3266.968262 0.947937 -0.158573 0.276169
7546.545410 1567.636230 3021.876953 -0.436100 0.892506 -0.115107
7215.498535 1440.830566 3292.883301 -0.436100 0.892506 -0.115107
7237.861816 1468.430542 3422.158936 -0.436100 0.892506 -0.115107
7630.631348 604.912415 2967.613525 -0.061276 -0.944033 -0.324111
7670.618164 497.375092 3273.276123 -0.061276 -0.944033 -0.324111
7138.002441 453.303314 3502.338867 -0.061276 -0.944033 -0.324111
7027.306641 673.875732 2976.113281 -0.974630 0.082756 -0.207960
6813.107422 548.177490 3929.964600 -0.974630 0.082756 -0.207960
7032.005371 877.582458 3035.155762 -0.974630 0.082756 -0.207960
7670.618164 497.375092 3273.276123 -0.031919 -0.965107 -0.259904
7274.342773 347.277435 3879.302246 -0.031919 -0.965107 -0.259904
7138.002441 453.303314 3502.338867 -0.031919 -0.965107 -0.259904
7562.683105 446.940979 3576.378906 0.822012 -0.531573 0.204269
7670.618164 497.375092 3273.276123 0.822012 -0.531573 0.204269
7733.046387 597.523926 3282.673828 0.822012 -0.531573 0.204269
7832.968262 1490.524292 3078.319824 0.227905 0.863491 0.449936
7237.861816 1468.430542 3422.158936 0.227905 0.863491 0.449936
7726.940430 1366.100708 3370.812744 0.227905 0.863491 0.449936
6975.854492 1119.489136 4020.077148 -0.920194 0.364778 -0.142054
7215.498535 1440.830566 3292.883301 -0.920194 0.364778 -0.142054
7032.005371 877.582458 3035.155762 -0.920194 0.364778 -0.142054
7750.479004 1325.957886 3266.968262 0.957669 0.263873 0.115072
7726.940430 1366.100708 3370.812744 0.957669 0.263873 0.115072
7735.780273 1247.470459 3569.277832 0.957669 0.263873 0.115072
7237.861816 1468.430542 3422.158936 0.227140 0.904565 0.360790
7121.868652 1329.970703 3842.327637 0.227140 0.904565 0.360790
7726.940430 1366.100708 3370.812744 0.227140 0.904565 0.360790
7733.046387 597.523926 3282.673828 0.998828 -0.022985 0.042597
7750.479004 1325.957886 3266.968262 0.998828 -0.022985 0.042597
7735.780273 1247.470459 3569.277832 0.998828 -0.022985 0.042597
7726.940430 1366.100708 3370.812744 0.206403 0.919223 0.335302
7121.868652 1329.970703 3842.327637 0.206403 0.919223 0.335302
7462.892578 1193.645508 4006.135254 0.206403 0.919223 0.335302
7670.618164 497.375092 3273.276123 0.262734 -0.962567 -0.066605
7562.683105 446.940979 3576.378906 0.262734 -0.962567 -0.066605
7274.342773 347.277435 3879.302246 0.262734 -0.962567 -0.066605
7027.306641 673.875732 2976.113281 -0.968215 -0.097612 -0.230288
6808.563477 400.252686 4011.769531 -0.968215 -0.097612 -0.230288
6813.107422 548.177490 3929.964600 -0.968215 -0.097612 -0.230288
7237.861816 1468.430542 3422.158936 -0.770637 0.637268 -0.002743
7215.498535 1440.830566 3292.883301 -0.770637 0.637268 -0.002743
7121.868652 1329.970703 3842.327637 -0.770637 0.637268 -0.002743
7027.306641 673.875732 2976.113281 -0.328508 -0.893726 -0.305510
7138.002441 453.303314 3502.338867 -0.328508 -0.893726 -0.305510
6808.563477 400.252686 4011.769531 -0.328508 -0.893726 -0.305510
7733.046387 597.523926 3282.673828 0.888583 -0.202523 0.411588
7600.570312 1104.981323 3818.374268 0.888583 -0.202523 0.411588
7562.683105 446.940979 3576.378906 0.888583 -0.202523 0.411588
7733.046387 597.523926 3282.673828 0.903855 -0.175801 0.390052
7735.780273 1247.470459 3569.277832 0.903855 -0.175801 0.390052
7600.570312 1104.981323 3818.374268 0.903855 -0.175801 0.390052
7274.342773 347.277435 3879.302246 0.378735 -0.923775 0.056575
7562.683105 446.940979 3576.378906 0.378735 -0.923775 0.056575
7336.786621 373.993683 3897.510742 0.378735 -0.923775 0.056575
6813.107422 548.177490 3929.964600 -0.948773 0.290040 -0.125327
6975.854492 1119.489136 4020.077148 -0.948773 0.290040 -0.125327
7032.005371 877.582458 3035.155762 -0.948773 0.290040 -0.125327
7726.940430 1366.100708 3370.812744 0.525135 0.740568 0.419276
7462.892578 1193.645508 4006.135254 0.525135 0.740568 0.419276
7735.780273 1247.470459 3569.277832 0.525135 0.740568 0.419276
7121.868652 1329.970703 3842.327637 -0.833173 0.552168 -0.030570
7215.498535 1440.830566 3292.883301 -0.833173 0.552168 -0.030570
6975.854492 1119.489136 4020.077148 -0.833173 0.552168 -0.030570
7600.570312 1104.981323 3818.374268 0.829869 0.151359 0.537036
7735.780273 1247.470459 3569.277832 0.829869 0.151359 0.537036
7462.892578 1193.645508 4006.135254 0.829869 0.151359 0.537036
7600.570312 1104.981323 3818.374268 0.818920 -0.239029 0.521762
7336.786621 373.993683 3897.510742 0.818920 -0.239029 0.521762
7562.683105 446.940979 3576.378906 0.818920 -0.239029 0.521762
6808.563477 400.252686 4011.769531 -0.216925 -0.946517 -0.238849
7138.002441 453.303314 3502.338867 -0.216925 -0.946517 -0.238849
6852.416992 314.768677 4310.699707 -0.216925 -0.946517 -0.238849
7274.342773 347.277435 3879.302246 -0.148266 -0.964687 -0.217706
6852.416992 314.768677 4310.699707 -0.148266 -0.964687 -0.217706
7138.002441 453.303314 3502.338867 -0.148266 -0.964687 -0.217706
6808.563477 400.252686 4011.769531 -0.955509 -0.119726 -0.269571
6701.152344 428.024200 4380.159180 -0.955509 -0.119726 -0.269571
6813.107422 548.177490 3929.964600 -0.955509 -0.119726 -0.269571
6813.107422 548.177490 3929.964600 -0.930437 0.298564 -0.212479
6772.767578 769.972412 4418.264648 -0.930437 0.298564 -0.212479
6975.854492 1119.489136 4020.077148 -0.930437 0.298564 -0.212479
7274.342773 347.277435 3879.302246 0.345658 -0.923032 0.168917
7336.786621 373.993683 3897.510742 0.345658 -0.923032 0.168917
7090.537598 351.743073 4279.828613 0.345658 -0.923032 0.168917
7156.515137 855.650574 4394.414551 0.816332 -0.237587 0.526454
7336.786621 373.993683 3897.510742 0.816332 -0.237587 0.526454
7600.570312 1104.981323 3818.374268 0.816332 -0.237587 0.526454
6931.725098 1195.712646 4469.237793 -0.870045 0.464769 -0.164353
7121.868652 1329.970703 3842.327637 -0.870045 0.464769 -0.164353
6975.854492 1119.489136 4020.077148 -0.870045 0.464769 -0.164353
7121.868652 1329.970703 3842.327637 0.283295 0.939583 0.192168
7003.431152 1244.826904 4433.229980 0.283295 0.939583 0.192168
7462.892578 1193.645508 4006.135254 0.283295 0.939583 0.192168
7156.515137 855.650574 4394.414551 0.824916 -0.225839 0.518180
7090.537598 351.743073 4279.828613 0.824916 -0.225839 0.518180
7336.786621 373.993683 3897.510742 0.824916 -0.225839 0.518180
7156.515137 855.650574 4394.414551 0.814286 -0.163371 0.557000
7600.570312 1104.981323 3818.374268 0.814286 -0.163371 0.557000
7218.688477 1177.955811 4398.056152 0.814286 -0.163371 0.557000
7274.342773 347.277435 3879.302246 0.163758 -0.982735 0.086107
7090.537598 351.743073 4279.828613 0.163758 -0.982735 0.086107
6852.416992 314.768677 4310.699707 0.163758 -0.982735 0.086107
7462.892578 1193.645508 4006.135254 0.831803 0.178888 0.525454
7218.688477 1177.955811 4398.056152 0.831803 0.178888 0.525454
7600.570312 1104.981323 3818.374268 0.831803 0.178888 0.525454
7462.892578 1193.645508 4006.135254 0.323416 0.915790 0.238181
7003.431152 1244.826904 4433.229980 0.323416 0.915790 0.238181
7218.688477 1177.955811 4398.056152 0.323416 0.915790 0.238181
7121.868652 1329.970703 3842.327637 -0.562943 0.826472 0.006254
6931.725098 1195.712646 4469.237793 -0.562943 0.826472 0.006254
7003.431152 1244.826904 4433.229980 -0.562943 0.826472 0.006254
6813.107422 548.177490 3929.964600 -0.958668 0.220777 -0.179479
6701.152344 428.024200 4380.159180 -0.958668 0.220777 -0.179479
6772.767578 769.972412 4418.264648 -0.958668 0.220777 -0.179479
6852.416992 314.768677 4310.699707 -0.631058 -0.765386 -0.126298
6701.152344 428.024200 4380.159180 -0.631058 -0.765386 -0.126298
6808.563477 400.252686 4011.769531 -0.631058 -0.765386 -0.126298
6975.854492 1119.489136 4020.077148 -0.919891 0.361626 -0.151747
6772.767578 769.972412 4418.264648 -0.919891 0.361626 -0.151747
6931.725098 1195.712646 4469.237793 -0.919891 0.361626 -0.151747
6805.256348 363.317810 4387.675781 0.198192 -0.769691 0.606873
6852.416992 314.768677 4310.699707 0.198192 -0.769691 0.606873
7090.537598 351.743073 4279.828613 0.198192 -0.769691 0.606873
6805.256348 363.317810 4387.675781 0.333450 -0.250343 0.908922
7090.537598 351.743073 4279.828613 0.333450 -0.250343 0.908922
7156.515137 855.650574 4394.414551 0.333450 -0.250343 0.908922
6805.256348 363.317810 4387.675781 -0.527732 -0.826085 0.197692
6701.152344 428.024200 4380.159180 -0.527732 -0.826085 0.197692
6852.416992 314.768677 4310.699707 -0.527732 -0.826085 0.197692
7156.515137 855.650574 4394.414551 0.147411 -0.118612 0.981938
6931.725098 1195.712646 4469.237793 0.147411 -0.118612 0.981938
6805.256348 363.317810 4387.675781 0.147411 -0.118612 0.981938
6772.767578 769.972412 4418.264648 -0.123762 -0.084261 0.988728
6701.152344 428.024200 4380.159180 -0.123762 -0.084261 0.988728
6805.256348 363.317810 4387.675781 -0.123762 -0.084261 0.988728
6805.256348 363.317810 4387.675781 -0.097392 -0.082387 0.991830
6931.725098 1195.712646 4469.237793 -0.097392 -0.082387 0.991830
6772.767578 769.972412 4418.264648 -0.097392 -0.082387 0.991830
7156.515137 855.650574 4394.414551 0.237062 -0.056688 0.969839
7218.688477 1177.955811 4398.056152 0.237062 -0.056688 0.969839
6931.725098 1195.712646 4469.237793 0.237062 -0.056688 0.969839
6931.725098 1195.712646 4469.237793 0.246877 0.312147 0.917396
7218.688477 1177.955811 4398.056152 0.246877 0.312147 0.917396
7003.431152 1244.826904 4433.229980 0.246877 0.312147 0.917396
6709.018555 448.232330 6974.349609 -0.359927 0.033997 -0.932361
6775.479004 772.097900 6960.502441 -0.359927 0.033997 -0.932361
6929.363281 1181.049561 6916.008789 -0.359927 0.033997 -0.932361
7005.567871 1237.572144 6939.978516 0.217573 0.117566 -0.968938
7190.350098 1089.229126 6963.471680 0.217573 0.117566 -0.968938
6929.363281 1181.049561 6916.008789 0.217573 0.117566 -0.968938
7190.350098 1089.229126 6963.471680 0.136818 -0.119427 -0.983371
6709.018555 448.232330 6974.349609 0.136818 -0.119427 -0.983371
6929.363281 1181.049561 6916.008789 0.136818 -0.119427 -0.983371
7005.567871 1237.572144 6939.978516 0.332698 0.271392 -0.903138
7228.327637 1182.016235 7005.344238 0.332698 0.271392 -0.903138
7190.350098 1089.229126 6963.471680 0.332698 0.271392 -0.903138
7190.350098 1089.229126 6963.471680 0.162621 -0.138692 -0.976892
6921.861816 326.114563 7027.118652 0.162621 -0.138692 -0.976892
6709.018555 448.232330 6974.349609 0.162621 -0.138692 -0.976892
6709.018555 448.232330 6974.349609 -0.041898 -0.456961 -0.888499
6921.861816 326.114563 7027.118652 -0.041898 -0.456961 -0.888499
6726.681641 362.705078 7017.503906 -0.041898 -0.456961 -0.888499
6921.861816 326.114563 7027.118652 0.356029 -0.201371 -0.912520
7190.350098 1089.229126 6963.471680 0.356029 -0.201371 -0.912520
7070.590332 391.012756 7070.825195 0.356029 -0.201371 -0.912520
7374.125488 414.742889 7501.821289 0.802783 -0.222738 -0.553108
7070.590332 391.012756 7070.825195 0.802783 -0.222738 -0.553108
7190.350098 1089.229126 6963.471680 0.802783 -0.222738 -0.553108
6775.479004 772.097900 6960.502441 -0.921475 0.362052 0.140721
6928.807617 1010.227600 7351.867188 -0.921475 0.362052 0.140721
6929.363281 1181.049561 6916.008789 -0.921475 0.362052 0.140721
6921.861816 326.114563 7027.118652 0.457475 -0.825077 -0.331610
7070.590332 391.012756 7070.825195 0.457475 -0.825077 -0.331610
7287.970703 342.967407 7490.255371 0.457475 -0.825077 -0.331610
6921.861816 326.114563 7027.118652 -0.188828 -0.973659 0.127801
6883.205078 395.555054 7499.040039 -0.188828 -0.973659 0.127801
6726.681641 362.705078 7017.503906 -0.188828 -0.973659 0.127801
7585.011719 1162.107788 7529.398926 0.822400 -0.082591 -0.562883
7190.350098 1089.229126 6963.471680 0.822400 -0.082591 -0.562883
7228.327637 1182.016235 7005.344238 0.822400 -0.082591 -0.562883
7287.970703 342.967407 7490.255371 -0.124799 -0.983034 0.134425
6883.205078 395.555054 7499.040039 -0.124799 -0.983034 0.134425
6921.861816 326.114563 7027.118652 -0.124799 -0.983034 0.134425
7005.567871 1237.572144 6939.978516 -0.592989 0.805102 -0.013265
6929.363281 1181.049561 6916.008789 -0.592989 0.805102 -0.013265
7134.430664 1343.143311 7586.889648 -0.592989 0.805102 -0.013265
7287.970703 342.967407 7490.255371 0.618146 -0.677848 -0.398017
7070.590332 391.012756 7070.825195 0.618146 -0.677848 -0.398017
7374.125488 414.742889 7501.821289 0.618146 -0.677848 -0.398017
6709.018555 448.232330 6974.349609 -0.947249 0.204921 0.246426
6928.807617 1010.227600 7351.867188 -0.947249 0.204921 0.246426
6775.479004 772.097900 6960.502441 -0.947249 0.204921 0.246426
7374.125488 414.742889 7501.821289 0.814452 -0.209855 -0.540951
7190.350098 1089.229126 6963.471680 0.814452 -0.209855 -0.540951
7585.011719 1162.107788 7529.398926 0.814452 -0.209855 -0.540951
7228.327637 1182.016235 7005.344238 0.306284 0.913658 -0.267245
7005.567871 1237.572144 6939.978516 0.306284 0.913658 -0.267245
7583.457031 1233.330322 7587.783203 0.306284 0.913658 -0.267245
7585.011719 1162.107788 7529.398926 0.755764 0.424934 -0.498248
7228.327637 1182.016235 7005.344238 0.755764 0.424934 -0.498248
7583.457031 1233.330322 7587.783203 0.755764 0.424934 -0.498248
7134.430664 1343.143311 7586.889648 0.233055 0.951322 -0.201673
7583.457031 1233.330322 7587.783203 0.233055 0.951322 -0.201673
7005.567871 1237.572144 6939.978516 0.233055 0.951322 -0.201673
6726.681641 362.705078 7017.503906 -0.701388 -0.658465 0.272906
6883.205078 395.555054 7499.040039 -0.701388 -0.658465 0.272906
6907.040527 539.340088 7907.221680 -0.701388 -0.658465 0.272906
6726.681641 362.705078 7017.503906 -0.972181 -0.092110 0.215362
6907.040527 539.340088 7907.221680 -0.972181 -0.092110 0.215362
6709.018555 448.232330 6974.349609 -0.972181 -0.092110 0.215362
6928.807617 1010.227600 7351.867188 -0.917326 0.371081 0.144265
7226.361328 1476.946655 8043.392578 -0.917326 0.371081 0.144265
6929.363281 1181.049561 6916.008789 -0.917326 0.371081 0.144265
7693.275391 494.567322 8049.277832 0.855783 -0.224276 -0.466193
7374.125488 414.742889 7501.821289 0.855783 -0.224276 -0.466193
7585.011719 1162.107788 7529.398926 0.855783 -0.224276 -0.466193
6907.040527 539.340088 7907.221680 -0.951117 0.252942 0.177192
6928.807617 1010.227600 7351.867188 -0.951117 0.252942 0.177192
6709.018555 448.232330 6974.349609 -0.951117 0.252942 0.177192
7226.361328 1476.946655 8043.392578 0.417608 0.845799 -0.332006
7134.430664 1343.143311 7586.889648 0.417608 0.845799 -0.332006
6929.363281 1181.049561 6916.008789 0.417608 0.845799 -0.332006
7374.125488 414.742889 7501.821289 0.637803 -0.722642 -0.266451
7693.275391 494.567322 8049.277832 0.637803 -0.722642 -0.266451
7287.970703 342.967407 7490.255371 0.637803 -0.722642 -0.266451
7585.011719 1162.107788 7529.398926 0.771456 0.413366 -0.483719
7583.457031 1233.330322 7587.783203 0.771456 0.413366 -0.483719
7752.154785 1226.141602 7850.686523 0.771456 0.413366 -0.483719
7735.468262 1375.199097 8049.451172 0.666493 0.622212 -0.410656
7752.154785 1226.141602 7850.686523 0.666493 0.622212 -0.410656
7583.457031 1233.330322 7587.783203 0.666493 0.622212 -0.410656
6883.205078 395.555054 7499.040039 -0.118737 -0.957702 0.262123
7287.970703 342.967407 7490.255371 -0.118737 -0.957702 0.262123
7033.857910 559.268799 8165.433105 -0.118737 -0.957702 0.262123
7720.446289 558.428833 8081.461914 0.895240 -0.174207 -0.410119
7693.275391 494.567322 8049.277832 0.895240 -0.174207 -0.410119
7585.011719 1162.107788 7529.398926 0.895240 -0.174207 -0.410119
7585.011719 1162.107788 7529.398926 0.886117 -0.188426 -0.423430
7752.154785 1226.141602 7850.686523 0.886117 -0.188426 -0.423430
7720.446289 558.428833 8081.461914 0.886117 -0.188426 -0.423430
7583.457031 1233.330322 7587.783203 0.222955 0.908795 -0.352680
7134.430664 1343.143311 7586.889648 0.222955 0.908795 -0.352680
7735.468262 1375.199097 8049.451172 0.222955 0.908795 -0.352680
7027.662598 884.407471 8331.615234 -0.916044 0.375602 0.140663
7226.361328 1476.946655 8043.392578 -0.916044 0.375602 0.140663
6928.807617 1010.227600 7351.867188 -0.916044 0.375602 0.140663
7632.209473 1565.664185 8353.548828 0.006120 0.959277 -0.282401
7134.430664 1343.143311 7586.889648 0.006120 0.959277 -0.282401
7226.361328 1476.946655 8043.392578 0.006120 0.959277 -0.282401
7287.970703 342.967407 7490.255371 -0.052807 -0.956599 0.286583
7645.140625 596.880676 8403.617188 -0.052807 -0.956599 0.286583
7033.857910 559.268799 8165.433105 -0.052807 -0.956599 0.286583
6907.040527 539.340088 7907.221680 -0.974155 0.189681 0.122650
7027.662598 884.407471 8331.615234 -0.974155 0.189681 0.122650
6928.807617 1010.227600 7351.867188 -0.974155 0.189681 0.122650
7720.446289 558.428833 8081.461914 0.995416 -0.014603 0.094518
7752.154785 1226.141602 7850.686523 0.995416 -0.014603 0.094518
7735.468262 1375.199097 8049.451172 0.995416 -0.014603 0.094518
7735.468262 1375.199097 8049.451172 0.289682 0.852321 -0.435469
7134.430664 1343.143311 7586.889648 0.289682 0.852321 -0.435469
7632.209473 1565.664185 8353.548828 0.289682 0.852321 -0.435469
7693.275391 494.567322 8049.277832 -0.019604 -0.961273 0.274899
7645.140625 596.880676 8403.617188 -0.019604 -0.961273 0.274899
7287.970703 342.967407 7490.255371 -0.019604 -0.961273 0.274899
7033.857910 559.268799 8165.433105 -0.509642 -0.801752 0.312183
6907.040527 539.340088 7907.221680 -0.509642 -0.801752 0.312183
6883.205078 395.555054 7499.040039 -0.509642 -0.801752 0.312183
6907.040527 539.340088 7907.221680 -0.976381 0.121976 0.178333
7008.377441 676.756958 8368.056641 -0.976381 0.121976 0.178333
7027.662598 884.407471 8331.615234 -0.976381 0.121976 0.178333
7720.446289 558.428833 8081.461914 0.998188 -0.016086 0.057982
7735.468262 1375.199097 8049.451172 0.998188 -0.016086 0.057982
7704.033691 687.857483 8399.920898 0.998188 -0.016086 0.057982
7632.209473 1565.664185 8353.548828 -0.209841 0.977722 -0.005086
7226.361328 1476.946655 8043.392578 -0.209841 0.977722 -0.005086
7421.254395 1519.789917 8238.478516 -0.209841 0.977722 -0.005086
7735.468262 1375.199097 8049.451172 0.305076 0.850254 -0.428948
7632.209473 1565.664185 8353.548828 0.305076 0.850254 -0.428948
7831.681152 1452.777466 8271.654297 0.305076 0.850254 -0.428948
7693.275391 494.567322 8049.277832 0.837476 -0.484096 0.253546
7720.446289 558.428833 8081.461914 0.837476 -0.484096 0.253546
7645.140625 596.880676 8403.617188 0.837476 -0.484096 0.253546
7226.361328 1476.946655 8043.392578 -0.662962 0.506835 0.550999
7224.212402 962.847473 8513.699219 -0.662962 0.506835 0.550999
7421.254395 1519.789917 8238.478516 -0.662962 0.506835 0.550999
7720.446289 558.428833 8081.461914 0.816842 -0.518504 0.252829
7704.033691 687.857483 8399.920898 0.816842 -0.518504 0.252829
7645.140625 596.880676 8403.617188 0.816842 -0.518504 0.252829
7033.857910 559.268799 8165.433105 -0.592411 -0.727044 0.347068
7008.377441 676.756958 8368.056641 -0.592411 -0.727044 0.347068
6907.040527 539.340088 7907.221680 -0.592411 -0.727044 0.347068
7224.212402 962.847473 8513.699219 -0.689484 0.490458 0.532976
7226.361328 1476.946655 8043.392578 -0.689484 0.490458 0.532976
7027.662598 884.407471 8331.615234 -0.689484 0.490458 0.532976
7704.033691 687.857483 8399.920898 0.921941 -0.208579 -0.326374
7735.468262 1375.199097 8049.451172 0.921941 -0.208579 -0.326374
7831.681152 1452.777466 8271.654297 0.921941 -0.208579 -0.326374
7645.140625 596.880676 8403.617188 -0.099534 -0.911374 0.399363
7349.503418 772.560364 8730.847656 -0.099534 -0.911374 0.399363
7033.857910 559.268799 8165.433105 -0.099534 -0.911374 0.399363
7224.212402 962.847473 8513.699219 -0.785431 0.474358 0.397597
7657.791016 1639.579102 8562.827148 -0.785431 0.474358 0.397597
7421.254395 1519.789917 8238.478516 -0.785431 0.474358 0.397597
7645.140625 596.880676 8403.617188 -0.079506 -0.906430 0.414804
7853.442871 759.385620 8798.648438 -0.079506 -0.906430 0.414804
7349.503418 772.560364 8730.847656 -0.079506 -0.906430 0.414804
7632.209473 1565.664185 8353.548828 0.207792 0.787803 -0.579818
7986.221191 1554.127319 8464.742188 0.207792 0.787803 -0.579818
7831.681152 1452.777466 8271.654297 0.207792 0.787803 -0.579818
7421.254395 1519.789917 8238.478516 -0.025077 0.943579 -0.330197
7657.791016 1639.579102 8562.827148 -0.025077 0.943579 -0.330197
7632.209473 1565.664185 8353.548828 -0.025077 0.943579 -0.330197
7883.046875 815.083557 8706.881836 0.879692 -0.217696 -0.422789
7704.033691 687.857483 8399.920898 0.879692 -0.217696 -0.422789
7831.681152 1452.777466 8271.654297 0.879692 -0.217696 -0.422789
7349.503418 772.560364 8730.847656 -0.251949 -0.850599 0.461523
7008.377441 676.756958 8368.056641 -0.251949 -0.850599 0.461523
7033.857910 559.268799 8165.433105 -0.251949 -0.850599 0.461523
7224.212402 962.847473 8513.699219 -0.706617 0.185463 0.682859
7027.662598 884.407471 8331.615234 -0.706617 0.185463 0.682859
7008.377441 676.756958 8368.056641 -0.706617 0.185463 0.682859
7657.791016 1639.579102 8562.827148 -0.757236 0.450850 0.472576
7224.212402 962.847473 8513.699219 -0.757236 0.450850 0.472576
7483.606934 1057.210693 8839.317383 -0.757236 0.450850 0.472576
7704.033691 687.857483 8399.920898 0.816887 -0.537325 -0.209708
7853.442871 759.385620 8798.648438 0.816887 -0.537325 -0.209708
7645.140625 596.880676 8403.617188 0.816887 -0.537325 -0.209708
7883.046875 815.083557 8706.881836 0.815832 -0.279724 -0.506136
7831.681152 1452.777466 8271.654297 0.815832 -0.279724 -0.506136
7986.221191 1554.127319 8464.742188 0.815832 -0.279724 -0.506136
7986.221191 1554.127319 8464.742188 0.199882 0.809252 -0.552411
7632.209473 1565.664185 8353.548828 0.199882 0.809252 -0.552411
7975.408203 1897.550415 8963.925781 0.199882 0.809252 -0.552411
7853.442871 759.385620 8798.648438 0.738640 -0.655013 -0.159276
7704.033691 687.857483 8399.920898 0.738640 -0.655013 -0.159276
7883.046875 815.083557 8706.881836 0.738640 -0.655013 -0.159276
8350.951172 1069.607788 9141.800781 0.731981 -0.302249 -0.610614
7883.046875 815.083557 8706.881836 0.731981 -0.302249 -0.610614
7986.221191 1554.127319 8464.742188 0.731981 -0.302249 -0.610614
7632.209473 1565.664185 8353.548828 -0.383099 0.884688 -0.265634
7657.791016 1639.579102 8562.827148 -0.383099 0.884688 -0.265634
7975.408203 1897.550415 8963.925781 -0.383099 0.884688 -0.265634
7986.221191 1554.127319 8464.742188 0.097835 0.820897 -0.562633
7975.408203 1897.550415 8963.925781 0.097835 0.820897 -0.562633
8278.338867 1709.319092 8741.966797 0.097835 0.820897 -0.562633
7008.377441 676.756958 8368.056641 -0.783933 0.320836 0.531521
7483.606934 1057.210693 8839.317383 -0.783933 0.320836 0.531521
7224.212402 962.847473 8513.699219 -0.783933 0.320836 0.531521
7657.791016 1639.579102 8562.827148 -0.400899 0.881497 -0.249486
7911.024414 1882.223511 9013.230469 -0.400899 0.881497 -0.249486
7975.408203 1897.550415 8963.925781 -0.400899 0.881497 -0.249486
7008.377441 676.756958 8368.056641 -0.737476 0.092503 0.669008
7349.503418 772.560364 8730.847656 -0.737476 0.092503 0.669008
7483.606934 1057.210693 8839.317383 -0.737476 0.092503 0.669008
8278.338867 1709.319092 8741.966797 0.735593 -0.297036 -0.608829
8350.951172 1069.607788 9141.800781 0.735593 -0.297036 -0.608829
7986.221191 1554.127319 8464.742188 0.735593 -0.297036 -0.608829
7853.442871 759.385620 8798.648438 -0.086144 -0.878704 0.469530
7670.249023 903.993225 9035.665039 -0.086144 -0.878704 0.469530
7349.503418 772.560364 8730.847656 -0.086144 -0.878704 0.469530
8350.951172 1069.607788 9141.800781 0.628995 -0.737824 -0.244909
7853.442871 759.385620 8798.648438 0.628995 -0.737824 -0.244909
7883.046875 815.083557 8706.881836 0.628995 -0.737824 -0.244909
8278.338867 1709.319092 8741.966797 0.692531 0.487334 0.531889
7975.408203 1897.550415 8963.925781 0.692531 0.487334 0.531889
8317.530273 1138.068481 9214.336914 0.692531 0.487334 0.531889
8278.338867 1709.319092 8741.966797 0.947778 0.239335 0.210799
8317.530273 1138.068481 9214.336914 0.947778 0.239335 0.210799
8350.951172 1069.607788 9141.800781 0.947778 0.239335 0.210799
8324.084961 1030.157227 9185.065430 0.635524 -0.724738 -0.266204
7853.442871 759.385620 8798.648438 0.635524 -0.724738 -0.266204
8350.951172 1069.607788 9141.800781 0.635524 -0.724738 -0.266204
7483.606934 1057.210693 8839.317383 -0.884112 0.271635 0.380212
7349.503418 772.560364 8730.847656 -0.884112 0.271635 0.380212
7851.316895 1382.598999 9461.890625 -0.884112 0.271635 0.380212
7670.249023 903.993225 9035.665039 -0.313125 -0.706858 0.634275
7797.381348 1161.648682 9385.567383 -0.313125 -0.706858 0.634275
7349.503418 772.560364 8730.847656 -0.313125 -0.706858 0.634275
7483.606934 1057.210693 8839.317383 -0.864950 0.401595 0.300971
7851.316895 1382.598999 9461.890625 -0.864950 0.401595 0.300971
7657.791016 1639.579102 8562.827148 -0.864950 0.401595 0.300971
7670.249023 903.993225 9035.665039 0.018850 -0.846964 0.531316
7853.442871 759.385620 8798.648438 0.018850 -0.846964 0.531316
8124.819336 1116.634277 9358.505859 0.018850 -0.846964 0.531316
7975.408203 1897.550415 8963.925781 0.390238 0.601930 0.696703
7911.024414 1882.223511 9013.230469 0.390238 0.601930 0.696703
7881.024902 1569.998169 9299.787109 0.390238 0.601930 0.696703
8324.084961 1030.157227 9185.065430 0.876559 -0.075686 0.475306
8350.951172 1069.607788 9141.800781 0.876559 -0.075686 0.475306
8317.530273 1138.068481 9214.336914 0.876559 -0.075686 0.475306
8324.084961 1030.157227 9185.065430 0.073138 -0.856436 0.511046
8124.819336 1116.634277 9358.505859 0.073138 -0.856436 0.511046
7853.442871 759.385620 8798.648438 0.073138 -0.856436 0.511046
7851.316895 1382.598999 9461.890625 -0.880565 0.370553 0.295459
7911.024414 1882.223511 9013.230469 -0.880565 0.370553 0.295459
7657.791016 1639.579102 8562.827148 -0.880565 0.370553 0.295459
8124.819336 1116.634277 9358.505859 -0.059021 -0.793477 0.605732
7797.381348 1161.648682 9385.567383 -0.059021 -0.793477 0.605732
7670.249023 903.993225 9035.665039 -0.059021 -0.793477 0.605732
7349.503418 772.560364 8730.847656 -0.827576 0.008128 0.561294
7797.381348 1161.648682 9385.567383 -0.827576 0.008128 0.561294
7851.316895 1382.598999 9461.890625 -0.827576 0.008128 0.561294
7851.316895 1382.598999 9461.890625 -0.513145 0.606603 0.607219
7881.024902 1569.998169 9299.787109 -0.513145 0.606603 0.607219
7911.024414 1882.223511 9013.230469 -0.513145 0.606603 0.607219
8324.084961 1030.157227 9185.065430 0.602203 -0.174726 0.778988
8317.530273 1138.068481 9214.336914 0.602203 -0.174726 0.778988
8124.819336 1116.634277 9358.505859 0.602203 -0.174726 0.778988
8317.530273 1138.068481 9214.336914 0.601038 0.481156 0.638155
7975.408203 1897.550415 8963.925781 0.601038 0.481156 0.638155
7881.024902 1569.998169 9299.787109 0.601038 0.481156 0.638155
7922.523926 1257.095337 9502.528320 0.605674 0.487706 0.628731
8317.530273 1138.068481 9214.336914 0.605674 0.487706 0.628731
7881.024902 1569.998169 9299.787109 0.605674 0.487706 0.628731
8124.819336 1116.634277 9358.505859 -0.048129 -0.748024 0.661925
7922.523926 1257.095337 9502.528320 -0.048129 -0.748024 0.661925
7797.381348 1161.648682 9385.567383 -0.048129 -0.748024 0.661925
8124.819336 1116.634277 9358.505859 0.596071 0.036014 0.802124
8317.530273 1138.068481 9214.336914 0.596071 0.036014 0.802124
7922.523926 1257.095337 9502.528320 0.596071 0.036014 0.802124
7922.523926 1257.095337 9502.528320 0.512841 0.513690 0.687835
7881.024902 1569.998169 9299.787109 0.512841 0.513690 0.687835
7851.316895 1382.598999 9461.890625 0.512841 0.513690 0.687835
7797.381348 1161.648682 9385.567383 -0.632351 -0.110502 0.766761
7922.523926 1257.095337 9502.528320 -0.632351 -0.110502 0.766761
7851.316895 1382.598999 9461.890625 -0.632351 -0.110502 0.766761
3 0 1 2
3 3 4 5
3 6 7 8
3 9 10 11
3 12 13 14
3 15 16 17
3 18 19 20
3 21 22 23
3 24 25 26
3 27 28 29
3 30 31 32
3 33 34 35
3 36 37 38
3 39 40 41
3 42 43 44
3 45 46 47
3 48 49 50
3 51 52 53
3 54 55 56
3 57 58 59
3 60 61 62
3 63 64 65
3 66 67 68
3 69 70 71
3 72 73 74
3 75 76 77
3 78 79 80
3 81 82 83
3 84 85 86
3 87 88 89
3 90 91 92
3 93 94 95
3 96 97 98
3 99 100 101
3 102 103 104
3 105 106 107
3 108 109 110
3 111 112 113
3 114 115 116
3 117 118 119
3 120 121 122
3 123 124 125
3 126 127 128
3 129 130 131
3 132 133 134
3 135 136 137
3 138 139 140
3 141 142 143
3 144 145 146
3 147 148 149
3 150 151 152
3 153 154 155
3 156 157 158
3 159 160 161
3 162 163 164
3 165 166 167
3 168 169 170
3 171 172 173
3 174 175 176
3 177 178 179
3 180 181 182
3 183 184 185
3 186 187 188
3 189 190 191
3 192 193 194
3 195 196 197
3 198 199 200
3 201 202 203
3 204 205 206
3 207 208 209
3 210 211 212
3 213 214 215
3 216 217 218
3 219 220 221
3 222 223 224
3 225 226 227
3 228 229 230
3 231 232 233
3 234 235 236
3 237 238 239
3 240 241 242
3 243 244 245
3 246 247 248
3 249 250 251
3 252 253 254
3 255 256 257
3 258 259 260
3 261 262 263
3 264 265 266
3 267 268 269
3 270 271 272
3 273 274 275
3 276 277 278
3 279 280 281
3 282 283 284
3 285 286 287
3 288 289 290
3 291 292 293
3 294 295 296
3 297 298 299
3 300 301 302
3 303 304 305
3 306 307 308
3 309 310 311
3 312 313 314
3 315 316 317
3 318 319 320
3 321 322 323
3 324 325 326
3 327 328 329
3 330 331 332
3 333 334 335
3 336 337 338
3 339 340 341
3 342 343 344
3 345 346 347
3 348 349 350
3 351 352 353
3 354 355 356
3 357 358 359
3 360 361 362
3 363 364 365
3 366 367 368
3 369 370 371
3 372 373 374
3 375 376 377
3 378 379 380
3 381 382 383
3 384 385 386
3 387 388 389
3 390 391 392
3 393 394 395
3 396 397 398
3 399 400 401
3 402 403 404
3 405 406 407
3 408 409 410
3 411 412 413
3 414 415 416
3 417 418 419
3 420 421 422
3 423 424 425
3 426 427 428
3 429 430 431
3 432 433 434
3 435 436 437
3 438 439 440
3 441 442 443
3 444 445 446
3 447 448 449
3 450 451 452
3 453 454 455
3 456 457 458
3 459 460 461
3 462 463 464
3 465 466 467
3 468 469 470
3 471 472 473
3 474 475 476
3 477 478 479
3 480 481 482
3 483 484 485
3 486 487 488
3 489 490 491
3 492 493 494
3 495 496 497
3 498 499 500
3 501 502 503
3 504 505 506
3 507 508 509
3 510 511 512
3 513 514 515
3 516 517 518
3 519 520 521
3 522 523 524
3 525 526 527
3 528 529 530
3 531 532 533
3 534 535 536
3 537 538 539
3 540 541 542
3 543 544 545
3 546 547 548
3 549 550 551
3 552 553 554
3 555 556 557
3 558 559 560
3 561 562 563
3 564 565 566
3 567 568 569
3 570 571 572
3 573 574 575
3 576 577 578
3 579 580 581
3 582 583 584
3 585 586 587
3 588 589 590
3 591 592 593
