ply
format ascii 1.0
comment Created by Blender 2.80 (sub 75) - www.blender.org, source file: 'downsample_ccf.blend'
element vertex 384
property float x
property float y
property float z
property float nx
property float ny
property float nz
element face 128
property list uchar uint vertex_indices
end_header
9755.772461 1909.240356 3399.243652 -0.377890 0.758010 0.531620
9791.388672 2023.320679 3261.899414 -0.377890 0.758010 0.531620
9739.470703 1914.753906 3379.794434 -0.377890 0.758010 0.531620
9763.541992 1753.090942 3444.925537 -0.688089 -0.356974 -0.631746
9739.470703 1914.753906 3379.794434 -0.688089 -0.356974 -0.631746
9791.388672 2023.320679 3261.899414 -0.688089 -0.356974 -0.631746
9763.541992 1753.090942 3444.925537 0.918524 0.152426 0.364800
9791.388672 2023.320679 3261.899414 0.918524 0.152426 0.364800
9755.772461 1909.240356 3399.243652 0.918524 0.152426 0.364800
9763.541992 1753.090942 3444.925537 -0.290619 -0.394480 -0.871738
9442.086914 1577.672974 3631.472168 -0.290619 -0.394480 -0.871738
9739.470703 1914.753906 3379.794434 -0.290619 -0.394480 -0.871738
9442.086914 1577.672974 3631.472168 -0.390286 0.746592 0.538773
9755.772461 1909.240356 3399.243652 -0.390286 0.746592 0.538773
9739.470703 1914.753906 3379.794434 -0.390286 0.746592 0.538773
9755.772461 1909.240356 3399.243652 -0.727350 0.686262 -0.002657
9442.086914 1577.672974 3631.472168 -0.727350 0.686262 -0.002657
9569.090820 1712.576904 3707.917969 -0.727350 0.686262 -0.002657
9763.541992 1753.090942 3444.925537 -0.016102 -0.714412 -0.699540
9128.194336 1222.919800 4000.992432 -0.016102 -0.714412 -0.699540
9442.086914 1577.672974 3631.472168 -0.016102 -0.714412 -0.699540
9755.772461 1909.240356 3399.243652 0.838408 0.191053 0.510461
9543.241211 1262.809937 3990.260010 0.838408 0.191053 0.510461
9763.541992 1753.090942 3444.925537 0.838408 0.191053 0.510461
9128.194336 1222.919800 4000.992432 -0.073048 -0.678816 -0.730666
9763.541992 1753.090942 3444.925537 -0.073048 -0.678816 -0.730666
9448.051758 1172.403564 4015.946289 -0.073048 -0.678816 -0.730666
9264.292969 1489.721313 3874.696533 -0.649439 0.730695 -0.210507
9569.090820 1712.576904 3707.917969 -0.649439 0.730695 -0.210507
9442.086914 1577.672974 3631.472168 -0.649439 0.730695 -0.210507
9543.241211 1262.809937 3990.260010 0.676531 0.363249 0.640590
9755.772461 1909.240356 3399.243652 0.676531 0.363249 0.640590
9569.090820 1712.576904 3707.917969 0.676531 0.363249 0.640590
9448.051758 1172.403564 4015.946289 0.566258 -0.713470 -0.412689
9763.541992 1753.090942 3444.925537 0.566258 -0.713470 -0.412689
9543.241211 1262.809937 3990.260010 0.566258 -0.713470 -0.412689
9128.194336 1222.919800 4000.992432 -0.823666 0.163063 -0.543125
9264.292969 1489.721313 3874.696533 -0.823666 0.163063 -0.543125
9442.086914 1577.672974 3631.472168 -0.823666 0.163063 -0.543125
9128.194336 1222.919800 4000.992432 -0.730105 0.049826 -0.681516
8977.153320 1165.006836 4158.567871 -0.730105 0.049826 -0.681516
9264.292969 1489.721313 3874.696533 -0.730105 0.049826 -0.681516
9569.090820 1712.576904 3707.917969 0.492595 0.442210 0.749534
9093.434570 1024.845581 4426.268066 0.492595 0.442210 0.749534
9543.241211 1262.809937 3990.260010 0.492595 0.442210 0.749534
9128.194336 1222.919800 4000.992432 -0.103785 -0.822627 -0.559029
9448.051758 1172.403564 4015.946289 -0.103785 -0.822627 -0.559029
8739.205078 954.641296 4467.989258 -0.103785 -0.822627 -0.559029
9264.292969 1489.721313 3874.696533 -0.252589 0.776988 0.576618
9093.434570 1024.845581 4426.268066 -0.252589 0.776988 0.576618
9569.090820 1712.576904 3707.917969 -0.252589 0.776988 0.576618
9448.051758 1172.403564 4015.946289 0.701740 -0.670250 0.241508
9543.241211 1262.809937 3990.260010 0.701740 -0.670250 0.241508
8989.411133 875.168640 4523.693848 0.701740 -0.670250 0.241508
8739.205078 954.641296 4467.989258 -0.601472 -0.364957 -0.710660
8977.153320 1165.006836 4158.567871 -0.601472 -0.364957 -0.710660
9128.194336 1222.919800 4000.992432 -0.601472 -0.364957 -0.710660
9264.292969 1489.721313 3874.696533 -0.330201 0.769675 0.546413
8977.153320 1165.006836 4158.567871 -0.330201 0.769675 0.546413
9093.434570 1024.845581 4426.268066 -0.330201 0.769675 0.546413
8977.153320 1165.006836 4158.567871 -0.549807 -0.430748 -0.715659
8739.205078 954.641296 4467.989258 -0.549807 -0.430748 -0.715659
8728.434570 996.143921 4451.283691 -0.549807 -0.430748 -0.715659
9093.434570 1024.845581 4426.268066 0.702727 -0.025591 0.710999
8989.411133 875.168640 4523.693848 0.702727 -0.025591 0.710999
9543.241211 1262.809937 3990.260010 0.702727 -0.025591 0.710999
8872.003906 894.438477 4747.085449 0.093516 0.898150 0.429629
9093.434570 1024.845581 4426.268066 0.093516 0.898150 0.429629
8977.153320 1165.006836 4158.567871 0.093516 0.898150 0.429629
9448.051758 1172.403564 4015.946289 -0.125182 -0.802762 -0.583011
8989.411133 875.168640 4523.693848 -0.125182 -0.802762 -0.583011
8739.205078 954.641296 4467.989258 -0.125182 -0.802762 -0.583011
8728.434570 996.143921 4451.283691 -0.158426 0.907542 0.388933
8872.003906 894.438477 4747.085449 -0.158426 0.907542 0.388933
8977.153320 1165.006836 4158.567871 -0.158426 0.907542 0.388933
8739.205078 954.641296 4467.989258 -0.200878 -0.151325 -0.967858
8171.301758 770.659241 4614.623047 -0.200878 -0.151325 -0.967858
7935.464844 939.447815 4637.180664 -0.200878 -0.151325 -0.967858
8989.411133 875.168640 4523.693848 -0.012329 -0.599667 -0.800155
8171.301758 770.659241 4614.623047 -0.012329 -0.599667 -0.800155
8739.205078 954.641296 4467.989258 -0.012329 -0.599667 -0.800155
8895.806641 822.236023 4772.886230 0.862810 -0.451046 0.228289
8989.411133 875.168640 4523.693848 0.862810 -0.451046 0.228289
9093.434570 1024.845581 4426.268066 0.862810 -0.451046 0.228289
7763.125977 989.955872 4891.855957 0.117708 0.955265 0.271318
8872.003906 894.438477 4747.085449 0.117708 0.955265 0.271318
8728.434570 996.143921 4451.283691 0.117708 0.955265 0.271318
7763.125977 989.955872 4891.855957 -0.372955 -0.428128 -0.823171
8728.434570 996.143921 4451.283691 -0.372955 -0.428128 -0.823171
8739.205078 954.641296 4467.989258 -0.372955 -0.428128 -0.823171
9093.434570 1024.845581 4426.268066 0.647602 0.436639 0.624466
8872.003906 894.438477 4747.085449 0.647602 0.436639 0.624466
8895.806641 822.236023 4772.886230 0.647602 0.436639 0.624466
8989.411133 875.168640 4523.693848 0.055877 -0.867487 -0.494312
8088.710449 677.798462 4768.251953 0.055877 -0.867487 -0.494312
8171.301758 770.659241 4614.623047 0.055877 -0.867487 -0.494312
8171.301758 770.659241 4614.623047 -0.108737 -0.019104 -0.993887
7011.693848 897.736328 4739.048340 -0.108737 -0.019104 -0.993887
7935.464844 939.447815 4637.180664 -0.108737 -0.019104 -0.993887
7935.464844 939.447815 4637.180664 -0.113625 0.103149 -0.988155
7011.693848 897.736328 4739.048340 -0.113625 0.103149 -0.988155
6697.844238 1175.368530 4804.117676 -0.113625 0.103149 -0.988155
8088.710449 677.798462 4768.251953 0.085675 -0.905621 -0.415343
8989.411133 875.168640 4523.693848 0.085675 -0.905621 -0.415343
8682.999023 708.681213 4823.500977 0.085675 -0.905621 -0.415343
8739.205078 954.641296 4467.989258 -0.068515 0.968726 -0.238485
7935.464844 939.447815 4637.180664 -0.068515 0.968726 -0.238485
7763.125977 989.955872 4891.855957 -0.068515 0.968726 -0.238485
8171.301758 770.659241 4614.623047 -0.149670 -0.808493 -0.569155
8088.710449 677.798462 4768.251953 -0.149670 -0.808493 -0.569155
7011.693848 897.736328 4739.048340 -0.149670 -0.808493 -0.569155
6870.689453 850.392273 5027.333008 -0.187389 -0.950527 -0.247757
7011.693848 897.736328 4739.048340 -0.187389 -0.950527 -0.247757
8088.710449 677.798462 4768.251953 -0.187389 -0.950527 -0.247757
8989.411133 875.168640 4523.693848 0.468589 -0.883340 -0.011619
8895.806641 822.236023 4772.886230 0.468589 -0.883340 -0.011619
8682.999023 708.681213 4823.500977 0.468589 -0.883340 -0.011619
6697.844238 1175.368530 4804.117676 0.176973 0.981364 -0.074870
7763.125977 989.955872 4891.855957 0.176973 0.981364 -0.074870
7935.464844 939.447815 4637.180664 0.176973 0.981364 -0.074870
6697.844238 1175.368530 4804.117676 0.122273 0.247726 -0.961083
6799.559570 1194.917358 4822.097168 0.122273 0.247726 -0.961083
7763.125977 989.955872 4891.855957 0.122273 0.247726 -0.961083
7011.693848 897.736328 4739.048340 -0.370205 -0.206210 -0.905774
6359.985352 1073.261719 4965.452148 -0.370205 -0.206210 -0.905774
6697.844238 1175.368530 4804.117676 -0.370205 -0.206210 -0.905774
8088.710449 677.798462 4768.251953 0.024427 -0.961256 0.274572
8682.999023 708.681213 4823.500977 0.024427 -0.961256 0.274572
7480.125977 733.721863 5018.177246 0.024427 -0.961256 0.274572
6342.135254 1474.310303 4986.614746 0.040190 0.555039 -0.830853
6799.559570 1194.917358 4822.097168 0.040190 0.555039 -0.830853
6697.844238 1175.368530 4804.117676 0.040190 0.555039 -0.830853
6870.689453 850.392273 5027.333008 -0.347304 -0.883288 -0.314931
6359.985352 1073.261719 4965.452148 -0.347304 -0.883288 -0.314931
7011.693848 897.736328 4739.048340 -0.347304 -0.883288 -0.314931
7763.125977 989.955872 4891.855957 0.146974 0.775348 0.614194
8492.307617 775.820923 4987.686035 0.146974 0.775348 0.614194
8872.003906 894.438477 4747.085449 0.146974 0.775348 0.614194
6697.844238 1175.368530 4804.117676 -0.437608 0.027947 -0.898731
6359.985352 1073.261719 4965.452148 -0.437608 0.027947 -0.898731
6342.135254 1474.310303 4986.614746 -0.437608 0.027947 -0.898731
8492.307617 775.820923 4987.686035 0.448336 -0.514355 0.731050
8682.999023 708.681213 4823.500977 0.448336 -0.514355 0.731050
8895.806641 822.236023 4772.886230 0.448336 -0.514355 0.731050
8682.999023 708.681213 4823.500977 0.050421 -0.902544 0.427636
8492.307617 775.820923 4987.686035 0.050421 -0.902544 0.427636
7480.125977 733.721863 5018.177246 0.050421 -0.902544 0.427636
8895.806641 822.236023 4772.886230 0.388053 0.420913 0.819907
8872.003906 894.438477 4747.085449 0.388053 0.420913 0.819907
8492.307617 775.820923 4987.686035 0.388053 0.420913 0.819907
6799.559570 1194.917358 4822.097168 0.206244 0.978176 0.025216
6940.634277 1160.584473 5000.074219 0.206244 0.978176 0.025216
7763.125977 989.955872 4891.855957 0.206244 0.978176 0.025216
8088.710449 677.798462 4768.251953 -0.186015 -0.952848 -0.239749
7480.125977 733.721863 5018.177246 -0.186015 -0.952848 -0.239749
6870.689453 850.392273 5027.333008 -0.186015 -0.952848 -0.239749
6940.634277 1160.584473 5000.074219 0.458688 0.866620 -0.196406
6799.559570 1194.917358 4822.097168 0.458688 0.866620 -0.196406
6342.135254 1474.310303 4986.614746 0.458688 0.866620 -0.196406
7763.125977 989.955872 4891.855957 0.125196 0.727982 0.674068
7155.375977 871.118530 5133.076660 0.125196 0.727982 0.674068
8492.307617 775.820923 4987.686035 0.125196 0.727982 0.674068
6940.634277 1160.584473 5000.074219 0.218560 0.536624 0.815025
7155.375977 871.118530 5133.076660 0.218560 0.536624 0.815025
7763.125977 989.955872 4891.855957 0.218560 0.536624 0.815025
6227.022461 1388.198120 5115.763672 -0.747110 0.001822 -0.664698
6342.135254 1474.310303 4986.614746 -0.747110 0.001822 -0.664698
6359.985352 1073.261719 4965.452148 -0.747110 0.001822 -0.664698
6227.022461 1388.198120 5115.763672 -0.860031 -0.127267 -0.494115
6359.985352 1073.261719 4965.452148 -0.860031 -0.127267 -0.494115
6268.059570 1159.916260 5103.134277 -0.860031 -0.127267 -0.494115
8492.307617 775.820923 4987.686035 0.048435 -0.570907 0.819585
7155.375977 871.118530 5133.076660 0.048435 -0.570907 0.819585
7480.125977 733.721863 5018.177246 0.048435 -0.570907 0.819585
6870.689453 850.392273 5027.333008 -0.412387 -0.869487 0.271902
6268.059570 1159.916260 5103.134277 -0.412387 -0.869487 0.271902
6359.985352 1073.261719 4965.452148 -0.412387 -0.869487 0.271902
6940.634277 1160.584473 5000.074219 0.277943 0.563609 0.777877
6342.135254 1474.310303 4986.614746 0.277943 0.563609 0.777877
7155.375977 871.118530 5133.076660 0.277943 0.563609 0.777877
7155.375977 871.118530 5133.076660 0.332443 0.620638 0.710134
6342.135254 1474.310303 4986.614746 0.332443 0.620638 0.710134
6227.022461 1388.198120 5115.763672 0.332443 0.620638 0.710134
6870.689453 850.392273 5027.333008 -0.147906 -0.816405 0.558217
7480.125977 733.721863 5018.177246 -0.147906 -0.816405 0.558217
7155.375977 871.118530 5133.076660 -0.147906 -0.816405 0.558217
6268.059570 1159.916260 5103.134277 -0.229899 -0.629390 0.742304
6870.689453 850.392273 5027.333008 -0.229899 -0.629390 0.742304
7155.375977 871.118530 5133.076660 -0.229899 -0.629390 0.742304
7155.375977 871.118530 5133.076660 -0.054769 -0.064969 0.996383
6227.022461 1388.198120 5115.763672 -0.054769 -0.064969 0.996383
6268.059570 1159.916260 5103.134277 -0.054769 -0.064969 0.996383
6881.000000 947.621155 6237.872070 -0.237927 -0.428981 -0.871416
6273.431641 1147.632812 6305.297852 -0.237927 -0.428981 -0.871416
6234.985352 1313.247681 6234.266113 -0.237927 -0.428981 -0.871416
7774.271973 782.783020 6312.053711 -0.022989 -0.511216 -0.859145
7120.159668 781.589111 6330.266602 -0.022989 -0.511216 -0.859145
6881.000000 947.621155 6237.872070 -0.022989 -0.511216 -0.859145
7120.159668 781.589111 6330.266602 -0.314276 -0.765297 -0.561740
6273.431641 1147.632812 6305.297852 -0.314276 -0.765297 -0.561740
6881.000000 947.621155 6237.872070 -0.314276 -0.765297 -0.561740
6310.562012 1490.807495 6378.541992 0.273687 0.533686 -0.800172
6912.276855 1167.370850 6368.629395 0.273687 0.533686 -0.800172
6234.985352 1313.247681 6234.266113 0.273687 0.533686 -0.800172
6912.276855 1167.370850 6368.629395 0.161236 0.487611 -0.858043
7774.271973 782.783020 6312.053711 0.161236 0.487611 -0.858043
6881.000000 947.621155 6237.872070 0.161236 0.487611 -0.858043
6234.985352 1313.247681 6234.266113 0.267502 0.464314 -0.844308
6912.276855 1167.370850 6368.629395 0.267502 0.464314 -0.844308
6881.000000 947.621155 6237.872070 0.267502 0.464314 -0.844308
6407.054688 1037.360962 6409.639160 -0.346527 -0.831234 -0.434706
6273.431641 1147.632812 6305.297852 -0.346527 -0.831234 -0.434706
7120.159668 781.589111 6330.266602 -0.346527 -0.831234 -0.434706
6273.431641 1147.632812 6305.297852 -0.883618 -0.004321 0.468188
6310.562012 1490.807495 6378.541992 -0.883618 -0.004321 0.468188
6234.985352 1313.247681 6234.266113 -0.883618 -0.004321 0.468188
7120.159668 781.589111 6330.266602 0.000960 -0.999518 -0.031032
7774.271973 782.783020 6312.053711 0.000960 -0.999518 -0.031032
8455.239258 781.161743 6385.346680 0.000960 -0.999518 -0.031032
6912.276855 1167.370850 6368.629395 0.234885 0.634752 -0.736152
7667.108398 990.228882 6456.732422 0.234885 0.634752 -0.736152
7774.271973 782.783020 6312.053711 0.234885 0.634752 -0.736152
8455.239258 781.161743 6385.346680 0.018843 -0.885840 -0.463608
7947.109375 679.871643 6558.234375 0.018843 -0.885840 -0.463608
7120.159668 781.589111 6330.266602 0.018843 -0.885840 -0.463608
6460.215820 1228.265137 6511.851562 -0.726832 -0.067243 0.683516
6310.562012 1490.807495 6378.541992 -0.726832 -0.067243 0.683516
6273.431641 1147.632812 6305.297852 -0.726832 -0.067243 0.683516
7774.271973 782.783020 6312.053711 0.087043 0.599735 -0.795451
7667.108398 990.228882 6456.732422 0.087043 0.599735 -0.795451
8455.239258 781.161743 6385.346680 0.087043 0.599735 -0.795451
6912.276855 1167.370850 6368.629395 0.473323 0.878628 0.063073
6310.562012 1490.807495 6378.541992 0.473323 0.878628 0.063073
6778.771484 1228.494141 6519.035645 0.473323 0.878628 0.063073
6407.054688 1037.360962 6409.639160 -0.693497 -0.180344 0.697522
6460.215820 1228.265137 6511.851562 -0.693497 -0.180344 0.697522
6273.431641 1147.632812 6305.297852 -0.693497 -0.180344 0.697522
7947.109375 679.871643 6558.234375 0.076142 -0.941641 -0.327895
8455.239258 781.161743 6385.346680 0.076142 -0.941641 -0.327895
8830.269531 733.716736 6608.685059 0.076142 -0.941641 -0.327895
8830.269531 733.716736 6608.685059 0.418099 -0.438934 -0.795318
8455.239258 781.161743 6385.346680 0.418099 -0.438934 -0.795318
8872.910156 824.455872 6581.022461 0.418099 -0.438934 -0.795318
6778.771484 1228.494141 6519.035645 0.305860 0.945383 -0.112701
7522.209961 1008.821838 6693.958984 0.305860 0.945383 -0.112701
6912.276855 1167.370850 6368.629395 0.305860 0.945383 -0.112701
8872.910156 824.455872 6581.022461 0.152063 0.845615 -0.511676
8455.239258 781.161743 6385.346680 0.152063 0.845615 -0.511676
9050.104492 995.384644 6916.165527 0.152063 0.845615 -0.511676
6912.276855 1167.370850 6368.629395 0.221537 0.973364 0.059027
7522.209961 1008.821838 6693.958984 0.221537 0.973364 0.059027
7667.108398 990.228882 6456.732422 0.221537 0.973364 0.059027
8455.239258 781.161743 6385.346680 0.172558 0.831044 -0.528763
7667.108398 990.228882 6456.732422 0.172558 0.831044 -0.528763
9050.104492 995.384644 6916.165527 0.172558 0.831044 -0.528763
7120.159668 781.589111 6330.266602 -0.295957 -0.912640 0.281952
7160.571777 876.131531 6678.707520 -0.295957 -0.912640 0.281952
6407.054688 1037.360962 6409.639160 -0.295957 -0.912640 0.281952
6407.054688 1037.360962 6409.639160 -0.380651 -0.351863 0.855159
7160.571777 876.131531 6678.707520 -0.380651 -0.351863 0.855159
6460.215820 1228.265137 6511.851562 -0.380651 -0.351863 0.855159
6778.771484 1228.494141 6519.035645 -0.020528 0.443320 0.896128
6310.562012 1490.807495 6378.541992 -0.020528 0.443320 0.896128
6460.215820 1228.265137 6511.851562 -0.020528 0.443320 0.896128
8487.244141 983.553589 6828.602539 -0.036053 0.994595 0.097366
9050.104492 995.384644 6916.165527 -0.036053 0.994595 0.097366
7667.108398 990.228882 6456.732422 -0.036053 0.994595 0.097366
8830.269531 733.716736 6608.685059 0.047705 -0.977034 0.207673
8348.532227 742.507996 6760.706055 0.047705 -0.977034 0.207673
7947.109375 679.871643 6558.234375 0.047705 -0.977034 0.207673
7947.109375 679.871643 6558.234375 -0.192324 -0.941223 0.277688
7160.571777 876.131531 6678.707520 -0.192324 -0.941223 0.277688
7120.159668 781.589111 6330.266602 -0.192324 -0.941223 0.277688
8487.244141 983.553589 6828.602539 0.034128 0.997770 -0.057356
7667.108398 990.228882 6456.732422 0.034128 0.997770 -0.057356
7522.209961 1008.821838 6693.958984 0.034128 0.997770 -0.057356
7522.209961 1008.821838 6693.958984 -0.018733 0.583251 0.812076
6778.771484 1228.494141 6519.035645 -0.018733 0.583251 0.812076
6460.215820 1228.265137 6511.851562 -0.018733 0.583251 0.812076
8487.244141 983.553589 6828.602539 0.023051 0.960325 -0.277928
8784.945312 1029.036621 7010.451172 0.023051 0.960325 -0.277928
9050.104492 995.384644 6916.165527 0.023051 0.960325 -0.277928
7160.571777 876.131531 6678.707520 -0.120940 0.218311 0.968356
7522.209961 1008.821838 6693.958984 -0.120940 0.218311 0.968356
6460.215820 1228.265137 6511.851562 -0.120940 0.218311 0.968356
8830.269531 733.716736 6608.685059 0.119898 -0.894041 0.431644
9040.673828 907.626221 6910.450684 0.119898 -0.894041 0.431644
8348.532227 742.507996 6760.706055 0.119898 -0.894041 0.431644
7160.571777 876.131531 6678.707520 -0.130837 -0.843815 0.520440
7947.109375 679.871643 6558.234375 -0.130837 -0.843815 0.520440
8348.532227 742.507996 6760.706055 -0.130837 -0.843815 0.520440
8830.269531 733.716736 6608.685059 0.825199 -0.479026 -0.299299
8872.910156 824.455872 6581.022461 0.825199 -0.479026 -0.299299
9040.673828 907.626221 6910.450684 0.825199 -0.479026 -0.299299
9040.673828 907.626221 6910.450684 0.895866 -0.067674 -0.439141
8872.910156 824.455872 6581.022461 0.895866 -0.067674 -0.439141
9050.104492 995.384644 6916.165527 0.895866 -0.067674 -0.439141
7522.209961 1008.821838 6693.958984 -0.133833 0.126285 0.982925
8302.107422 897.508057 6814.449707 -0.133833 0.126285 0.982925
8487.244141 983.553589 6828.602539 -0.133833 0.126285 0.982925
8348.532227 742.507996 6760.706055 -0.103928 -0.353470 0.929655
8302.107422 897.508057 6814.449707 -0.103928 -0.353470 0.929655
7160.571777 876.131531 6678.707520 -0.103928 -0.353470 0.929655
8302.107422 897.508057 6814.449707 -0.119297 0.213692 0.969590
7522.209961 1008.821838 6693.958984 -0.119297 0.213692 0.969590
7160.571777 876.131531 6678.707520 -0.119297 0.213692 0.969590
9040.673828 907.626221 6910.450684 -0.115647 -0.356145 0.927247
8302.107422 897.508057 6814.449707 -0.115647 -0.356145 0.927247
8348.532227 742.507996 6760.706055 -0.115647 -0.356145 0.927247
8302.107422 897.508057 6814.449707 -0.078662 -0.727275 0.681823
9040.673828 907.626221 6910.450684 -0.078662 -0.727275 0.681823
8784.945312 1029.036621 7010.451172 -0.078662 -0.727275 0.681823
8302.107422 897.508057 6814.449707 -0.402673 0.790491 0.461496
8784.945312 1029.036621 7010.451172 -0.402673 0.790491 0.461496
8487.244141 983.553589 6828.602539 -0.402673 0.790491 0.461496
9518.335938 1270.972778 7356.876953 0.693711 -0.027679 -0.719721
9040.673828 907.626221 6910.450684 0.693711 -0.027679 -0.719721
9050.104492 995.384644 6916.165527 0.693711 -0.027679 -0.719721
9518.335938 1270.972778 7356.876953 0.765371 -0.320325 -0.558210
9440.446289 1149.747437 7319.645508 0.765371 -0.320325 -0.558210
9040.673828 907.626221 6910.450684 0.765371 -0.320325 -0.558210
9050.104492 995.384644 6916.165527 -0.113691 0.790466 -0.601862
8784.945312 1029.036621 7010.451172 -0.113691 0.790466 -0.601862
9183.531250 1405.485352 7429.574219 -0.113691 0.790466 -0.601862
9050.104492 995.384644 6916.165527 0.437911 0.475804 -0.762788
9492.316406 1623.360596 7561.748047 0.437911 0.475804 -0.762788
9518.335938 1270.972778 7356.876953 0.437911 0.475804 -0.762788
9492.316406 1623.360596 7561.748047 -0.318856 0.779229 -0.539567
9050.104492 995.384644 6916.165527 -0.318856 0.779229 -0.539567
9183.531250 1405.485352 7429.574219 -0.318856 0.779229 -0.539567
9040.673828 907.626221 6910.450684 -0.149130 -0.796615 0.585803
9284.755859 1302.712036 7509.852051 -0.149130 -0.796615 0.585803
8784.945312 1029.036621 7010.451172 -0.149130 -0.796615 0.585803
9440.446289 1149.747437 7319.645508 -0.096176 -0.812627 0.574794
9284.755859 1302.712036 7509.852051 -0.096176 -0.812627 0.574794
9040.673828 907.626221 6910.450684 -0.096176 -0.812627 0.574794
9183.531250 1405.485352 7429.574219 -0.814393 0.436388 0.382531
8784.945312 1029.036621 7010.451172 -0.814393 0.436388 0.382531
9175.849609 1361.446045 7463.459961 -0.814393 0.436388 0.382531
9175.849609 1361.446045 7463.459961 -0.532051 -0.394981 0.748940
8784.945312 1029.036621 7010.451172 -0.532051 -0.394981 0.748940
9284.755859 1302.712036 7509.852051 -0.532051 -0.394981 0.748940
9736.907227 1631.221191 7813.007812 0.836509 -0.547063 0.031223
9440.446289 1149.747437 7319.645508 0.836509 -0.547063 0.031223
9518.335938 1270.972778 7356.876953 0.836509 -0.547063 0.031223
9175.849609 1361.446045 7463.459961 -0.812202 0.438087 0.385236
9503.281250 1652.719238 7822.558105 -0.812202 0.438087 0.385236
9183.531250 1405.485352 7429.574219 -0.812202 0.438087 0.385236
9183.531250 1405.485352 7429.574219 -0.554938 0.828943 -0.069981
9503.281250 1652.719238 7822.558105 -0.554938 0.828943 -0.069981
9492.316406 1623.360596 7561.748047 -0.554938 0.828943 -0.069981
9492.316406 1623.360596 7561.748047 0.619349 0.428285 -0.658011
9782.083008 1928.585571 8033.153809 0.619349 0.428285 -0.658011
9518.335938 1270.972778 7356.876953 0.619349 0.428285 -0.658011
9782.083008 1928.585571 8033.153809 0.709484 0.346512 -0.613647
9736.907227 1631.221191 7813.007812 0.709484 0.346512 -0.613647
9518.335938 1270.972778 7356.876953 0.709484 0.346512 -0.613647
9175.849609 1361.446045 7463.459961 -0.523721 -0.361988 0.771155
9284.755859 1302.712036 7509.852051 -0.523721 -0.361988 0.771155
9503.281250 1652.719238 7822.558105 -0.523721 -0.361988 0.771155
9707.706055 1879.653198 7956.251953 -0.728476 0.683504 -0.046314
9492.316406 1623.360596 7561.748047 -0.728476 0.683504 -0.046314
9503.281250 1652.719238 7822.558105 -0.728476 0.683504 -0.046314
9736.907227 1631.221191 7813.007812 0.089409 -0.739134 0.667598
9284.755859 1302.712036 7509.852051 0.089409 -0.739134 0.667598
9440.446289 1149.747437 7319.645508 0.089409 -0.739134 0.667598
9736.907227 1631.221191 7813.007812 -0.029491 -0.655660 0.754480
9503.281250 1652.719238 7822.558105 -0.029491 -0.655660 0.754480
9284.755859 1302.712036 7509.852051 -0.029491 -0.655660 0.754480
9492.316406 1623.360596 7561.748047 0.026382 0.831641 -0.554686
9707.706055 1879.653198 7956.251953 0.026382 0.831641 -0.554686
9782.083008 1928.585571 8033.153809 0.026382 0.831641 -0.554686
9503.281250 1652.719238 7822.558105 -0.021633 -0.592747 0.805098
9736.907227 1631.221191 7813.007812 -0.021633 -0.592747 0.805098
9782.083008 1928.585571 8033.153809 -0.021633 -0.592747 0.805098
9782.083008 1928.585571 8033.153809 0.304234 0.642653 -0.703163
9707.706055 1879.653198 7956.251953 0.304234 0.642653 -0.703163
9800.513672 2034.187012 8137.642090 0.304234 0.642653 -0.703163
9503.281250 1652.719238 7822.558105 -0.607256 0.730745 -0.311852
9800.513672 2034.187012 8137.642090 -0.607256 0.730745 -0.311852
9707.706055 1879.653198 7956.251953 -0.607256 0.730745 -0.311852
9800.513672 2034.187012 8137.642090 0.184490 -0.707360 0.682353
9503.281250 1652.719238 7822.558105 0.184490 -0.707360 0.682353
9782.083008 1928.585571 8033.153809 0.184490 -0.707360 0.682353
3 0 1 2
3 3 4 5
3 6 7 8
3 9 10 11
3 12 13 14
3 15 16 17
3 18 19 20
3 21 22 23
3 24 25 26
3 27 28 29
3 30 31 32
3 33 34 35
3 36 37 38
3 39 40 41
3 42 43 44
3 45 46 47
3 48 49 50
3 51 52 53
3 54 55 56
3 57 58 59
3 60 61 62
3 63 64 65
3 66 67 68
3 69 70 71
3 72 73 74
3 75 76 77
3 78 79 80
3 81 82 83
3 84 85 86
3 87 88 89
3 90 91 92
3 93 94 95
3 96 97 98
3 99 100 101
3 102 103 104
3 105 106 107
3 108 109 110
3 111 112 113
3 114 115 116
3 117 118 119
3 120 121 122
3 123 124 125
3 126 127 128
3 129 130 131
3 132 133 134
3 135 136 137
3 138 139 140
3 141 142 143
3 144 145 146
3 147 148 149
3 150 151 152
3 153 154 155
3 156 157 158
3 159 160 161
3 162 163 164
3 165 166 167
3 168 169 170
3 171 172 173
3 174 175 176
3 177 178 179
3 180 181 182
3 183 184 185
3 186 187 188
3 189 190 191
3 192 193 194
3 195 196 197
3 198 199 200
3 201 202 203
3 204 205 206
3 207 208 209
3 210 211 212
3 213 214 215
3 216 217 218
3 219 220 221
3 222 223 224
3 225 226 227
3 228 229 230
3 231 232 233
3 234 235 236
3 237 238 239
3 240 241 242
3 243 244 245
3 246 247 248
3 249 250 251
3 252 253 254
3 255 256 257
3 258 259 260
3 261 262 263
3 264 265 266
3 267 268 269
3 270 271 272
3 273 274 275
3 276 277 278
3 279 280 281
3 282 283 284
3 285 286 287
3 288 289 290
3 291 292 293
3 294 295 296
3 297 298 299
3 300 301 302
3 303 304 305
3 306 307 308
3 309 310 311
3 312 313 314
3 315 316 317
3 318 319 320
3 321 322 323
3 324 325 326
3 327 328 329
3 330 331 332
3 333 334 335
3 336 337 338
3 339 340 341
3 342 343 344
3 345 346 347
3 348 349 350
3 351 352 353
3 354 355 356
3 357 358 359
3 360 361 362
3 363 364 365
3 366 367 368
3 369 370 371
3 372 373 374
3 375 376 377
3 378 379 380
3 381 382 383
