ply
format ascii 1.0
comment Created by Blender 2.80 (sub 75) - www.blender.org, source file: 'downsample_ccf.blend'
element vertex 492
property float x
property float y
property float z
property float nx
property float ny
property float nz
element face 164
property list uchar uint vertex_indices
end_header
9424.712891 1957.258179 4040.877441 0.279608 0.881795 -0.379812
9038.118164 2083.911133 4050.321045 0.279608 0.881795 -0.379812
9580.056641 1935.916870 4105.690430 0.279608 0.881795 -0.379812
9038.118164 2083.911133 4050.321045 -0.228527 -0.643053 -0.730929
9424.712891 1957.258179 4040.877441 -0.228527 -0.643053 -0.730929
9347.570312 1853.824463 4155.994629 -0.228527 -0.643053 -0.730929
9131.627930 1775.427856 4386.092285 -0.340796 -0.744866 -0.573614
8793.528320 2136.289062 4118.368164 -0.340796 -0.744866 -0.573614
9347.570312 1853.824463 4155.994629 -0.340796 -0.744866 -0.573614
9038.118164 2083.911133 4050.321045 -0.324892 -0.719090 -0.614292
9347.570312 1853.824463 4155.994629 -0.324892 -0.719090 -0.614292
8793.528320 2136.289062 4118.368164 -0.324892 -0.719090 -0.614292
8672.044922 2225.094482 4173.581543 -0.190627 0.316887 -0.929109
9038.118164 2083.911133 4050.321045 -0.190627 0.316887 -0.929109
8793.528320 2136.289062 4118.368164 -0.190627 0.316887 -0.929109
9424.712891 1957.258179 4040.877441 0.145210 -0.782367 -0.605654
9580.056641 1935.916870 4105.690430 0.145210 -0.782367 -0.605654
9347.570312 1853.824463 4155.994629 0.145210 -0.782367 -0.605654
8672.044922 2225.094482 4173.581543 0.436308 0.831870 0.342968
9404.068359 1605.098389 4746.137695 0.436308 0.831870 0.342968
9038.118164 2083.911133 4050.321045 0.436308 0.831870 0.342968
8460.226562 2282.230225 4276.989258 -0.527415 -0.376956 -0.761405
8793.528320 2136.289062 4118.368164 -0.527415 -0.376956 -0.761405
8441.346680 2196.232910 4332.642578 -0.527415 -0.376956 -0.761405
8460.226562 2282.230225 4276.989258 -0.451879 -0.064996 -0.889708
8672.044922 2225.094482 4173.581543 -0.451879 -0.064996 -0.889708
8793.528320 2136.289062 4118.368164 -0.451879 -0.064996 -0.889708
9580.056641 1935.916870 4105.690430 0.091048 -0.694934 -0.713286
9797.092773 1789.478394 4276.064941 0.091048 -0.694934 -0.713286
9347.570312 1853.824463 4155.994629 0.091048 -0.694934 -0.713286
8793.528320 2136.289062 4118.368164 -0.426496 -0.761593 -0.487932
9131.627930 1775.427856 4386.092285 -0.426496 -0.761593 -0.487932
8441.346680 2196.232910 4332.642578 -0.426496 -0.761593 -0.487932
9404.068359 1605.098389 4746.137695 0.182614 0.852171 0.490363
9580.056641 1935.916870 4105.690430 0.182614 0.852171 0.490363
9038.118164 2083.911133 4050.321045 0.182614 0.852171 0.490363
9797.092773 1789.478394 4276.064941 0.036597 -0.817321 -0.575019
9896.972656 1679.525635 4438.706543 0.036597 -0.817321 -0.575019
9347.570312 1853.824463 4155.994629 0.036597 -0.817321 -0.575019
8460.226562 2282.230225 4276.989258 0.375243 0.883466 0.280500
8463.780273 2154.347656 4675.015137 0.375243 0.883466 0.280500
8672.044922 2225.094482 4173.581543 0.375243 0.883466 0.280500
8955.726562 1743.993408 4934.433594 0.413529 0.831276 0.371448
9404.068359 1605.098389 4746.137695 0.413529 0.831276 0.371448
8672.044922 2225.094482 4173.581543 0.413529 0.831276 0.371448
9347.570312 1853.824463 4155.994629 -0.194067 -0.858521 -0.474636
9564.405273 1450.989868 4795.983398 -0.194067 -0.858521 -0.474636
9131.627930 1775.427856 4386.092285 -0.194067 -0.858521 -0.474636
9564.405273 1450.989868 4795.983398 0.006804 -0.845245 -0.534336
9347.570312 1853.824463 4155.994629 0.006804 -0.845245 -0.534336
9896.972656 1679.525635 4438.706543 0.006804 -0.845245 -0.534336
8441.346680 2196.232910 4332.642578 -0.960449 0.031836 -0.276630
8315.763672 2050.084717 4751.842773 -0.960449 0.031836 -0.276630
8460.226562 2282.230225 4276.989258 -0.960449 0.031836 -0.276630
10078.745117 1510.339722 4876.986328 0.817895 0.562247 -0.122174
9896.972656 1679.525635 4438.706543 0.817895 0.562247 -0.122174
9797.092773 1789.478394 4276.064941 0.817895 0.562247 -0.122174
9404.068359 1605.098389 4746.137695 0.188353 0.850507 0.491081
9797.092773 1789.478394 4276.064941 0.188353 0.850507 0.491081
9580.056641 1935.916870 4105.690430 0.188353 0.850507 0.491081
8672.044922 2225.094482 4173.581543 0.500860 0.803638 0.321411
8463.780273 2154.347656 4675.015137 0.500860 0.803638 0.321411
8955.726562 1743.993408 4934.433594 0.500860 0.803638 0.321411
8460.226562 2282.230225 4276.989258 -0.453470 0.847363 0.276300
8315.763672 2050.084717 4751.842773 -0.453470 0.847363 0.276300
8463.780273 2154.347656 4675.015137 -0.453470 0.847363 0.276300
9564.405273 1450.989868 4795.983398 0.168528 -0.894065 -0.415025
9896.972656 1679.525635 4438.706543 0.168528 -0.894065 -0.415025
10078.745117 1510.339722 4876.986328 0.168528 -0.894065 -0.415025
10067.195312 1477.868042 5108.796387 -0.014530 0.934920 0.354562
9797.092773 1789.478394 4276.064941 -0.014530 0.934920 0.354562
9404.068359 1605.098389 4746.137695 -0.014530 0.934920 0.354562
9797.092773 1789.478394 4276.064941 0.524920 0.838938 0.143671
10067.195312 1477.868042 5108.796387 0.524920 0.838938 0.143671
10078.745117 1510.339722 4876.986328 0.524920 0.838938 0.143671
8441.346680 2196.232910 4332.642578 -0.464484 -0.807978 -0.362527
9131.627930 1775.427856 4386.092285 -0.464484 -0.807978 -0.362527
9169.150391 1411.081299 5150.049805 -0.464484 -0.807978 -0.362527
8315.763672 2050.084717 4751.842773 -0.592726 0.803779 -0.051140
8290.741211 2051.617188 5065.943848 -0.592726 0.803779 -0.051140
8463.780273 2154.347656 4675.015137 -0.592726 0.803779 -0.051140
9699.777344 1343.689087 5122.052734 0.163687 -0.914892 -0.369024
9564.405273 1450.989868 4795.983398 0.163687 -0.914892 -0.369024
10078.745117 1510.339722 4876.986328 0.163687 -0.914892 -0.369024
9169.150391 1411.081299 5150.049805 -0.528351 -0.796325 -0.294468
8481.214844 1889.916992 5089.475098 -0.528351 -0.796325 -0.294468
8441.346680 2196.232910 4332.642578 -0.528351 -0.796325 -0.294468
10067.195312 1477.868042 5108.796387 -0.041172 0.916912 0.396960
9404.068359 1605.098389 4746.137695 -0.041172 0.916912 0.396960
9650.349609 1487.922852 5042.337402 -0.041172 0.916912 0.396960
8315.763672 2050.084717 4751.842773 -0.146454 -0.919620 -0.364487
8441.346680 2196.232910 4332.642578 -0.146454 -0.919620 -0.364487
8481.214844 1889.916992 5089.475098 -0.146454 -0.919620 -0.364487
8463.780273 2154.347656 4675.015137 -0.281279 0.951383 0.125506
8290.741211 2051.617188 5065.943848 -0.281279 0.951383 0.125506
8401.480469 2062.322998 5232.975098 -0.281279 0.951383 0.125506
9169.150391 1411.081299 5150.049805 -0.272961 -0.873469 -0.403168
9131.627930 1775.427856 4386.092285 -0.272961 -0.873469 -0.403168
9564.405273 1450.989868 4795.983398 -0.272961 -0.873469 -0.403168
8463.780273 2154.347656 4675.015137 0.565440 0.801333 0.195299
8401.480469 2062.322998 5232.975098 0.565440 0.801333 0.195299
8955.726562 1743.993408 4934.433594 0.565440 0.801333 0.195299
9699.777344 1343.689087 5122.052734 0.254988 -0.936104 -0.242262
10078.745117 1510.339722 4876.986328 0.254988 -0.936104 -0.242262
10143.779297 1455.280640 5158.186035 0.254988 -0.936104 -0.242262
9564.405273 1450.989868 4795.983398 -0.135124 -0.956473 -0.258652
9699.777344 1343.689087 5122.052734 -0.135124 -0.956473 -0.258652
9169.150391 1411.081299 5150.049805 -0.135124 -0.956473 -0.258652
9650.349609 1487.922852 5042.337402 0.255026 0.952775 0.164867
9404.068359 1605.098389 4746.137695 0.255026 0.952775 0.164867
9502.294922 1487.210327 5275.474609 0.255026 0.952775 0.164867
9404.068359 1605.098389 4746.137695 0.363205 0.911639 0.192346
8955.726562 1743.993408 4934.433594 0.363205 0.911639 0.192346
9050.844727 1621.488770 5335.442383 0.363205 0.911639 0.192346
8290.741211 2051.617188 5065.943848 -0.537679 0.841842 -0.046941
8315.763672 2050.084717 4751.842773 -0.537679 0.841842 -0.046941
8222.952148 2022.607300 5322.160645 -0.537679 0.841842 -0.046941
9050.844727 1621.488770 5335.442383 0.300423 0.941310 0.153890
9502.294922 1487.210327 5275.474609 0.300423 0.941310 0.153890
9404.068359 1605.098389 4746.137695 0.300423 0.941310 0.153890
9699.777344 1343.689087 5122.052734 -0.134365 -0.965773 -0.221877
9607.883789 1317.402344 5292.121094 -0.134365 -0.965773 -0.221877
9169.150391 1411.081299 5150.049805 -0.134365 -0.965773 -0.221877
8222.952148 2022.607300 5322.160645 -0.542191 -0.830411 -0.128243
8315.763672 2050.084717 4751.842773 -0.542191 -0.830411 -0.128243
8481.214844 1889.916992 5089.475098 -0.542191 -0.830411 -0.128243
8401.480469 2062.322998 5232.975098 0.543767 0.829941 0.124559
9050.844727 1621.488770 5335.442383 0.543767 0.829941 0.124559
8955.726562 1743.993408 4934.433594 0.543767 0.829941 0.124559
8222.952148 2022.607300 5322.160645 -0.551995 -0.821259 -0.144344
8481.214844 1889.916992 5089.475098 -0.551995 -0.821259 -0.144344
8809.479492 1607.723999 5439.699707 -0.551995 -0.821259 -0.144344
10172.862305 1450.459106 5507.906250 0.774436 0.630195 -0.055714
10143.779297 1455.280640 5158.186035 0.774436 0.630195 -0.055714
10078.745117 1510.339722 4876.986328 0.774436 0.630195 -0.055714
10067.195312 1477.868042 5108.796387 0.021453 0.999631 0.016679
9650.349609 1487.922852 5042.337402 0.021453 0.999631 0.016679
9502.294922 1487.210327 5275.474609 0.021453 0.999631 0.016679
9222.238281 1426.265137 5427.544922 -0.238184 -0.966219 0.098436
9169.150391 1411.081299 5150.049805 -0.238184 -0.966219 0.098436
9607.883789 1317.402344 5292.121094 -0.238184 -0.966219 0.098436
8809.479492 1607.723999 5439.699707 -0.557766 -0.818643 -0.136828
8481.214844 1889.916992 5089.475098 -0.557766 -0.818643 -0.136828
9169.150391 1411.081299 5150.049805 -0.557766 -0.818643 -0.136828
10067.195312 1477.868042 5108.796387 -0.219625 0.967595 0.124597
10172.862305 1450.459106 5507.906250 -0.219625 0.967595 0.124597
10078.745117 1510.339722 4876.986328 -0.219625 0.967595 0.124597
9699.777344 1343.689087 5122.052734 0.304807 -0.952253 0.017511
9974.004883 1438.474365 5503.132324 0.304807 -0.952253 0.017511
9607.883789 1317.402344 5292.121094 0.304807 -0.952253 0.017511
10143.779297 1455.280640 5158.186035 0.246200 -0.968629 -0.033828
10172.862305 1450.459106 5507.906250 0.246200 -0.968629 -0.033828
9699.777344 1343.689087 5122.052734 0.246200 -0.968629 -0.033828
8401.480469 2062.322998 5232.975098 0.281379 0.927529 -0.246000
8290.741211 2051.617188 5065.943848 0.281379 0.927529 -0.246000
8252.911133 2180.340088 5508.016602 0.281379 0.927529 -0.246000
9974.004883 1438.474365 5503.132324 0.054004 -0.977428 0.204252
9699.777344 1343.689087 5122.052734 0.054004 -0.977428 0.204252
10172.862305 1450.459106 5507.906250 0.054004 -0.977428 0.204252
8809.479492 1607.723999 5439.699707 -0.396165 -0.909554 0.125559
9169.150391 1411.081299 5150.049805 -0.396165 -0.909554 0.125559
9222.238281 1426.265137 5427.544922 -0.396165 -0.909554 0.125559
8290.741211 2051.617188 5065.943848 -0.897333 0.397189 -0.192442
8222.952148 2022.607300 5322.160645 -0.897333 0.397189 -0.192442
8252.911133 2180.340088 5508.016602 -0.897333 0.397189 -0.192442
9050.844727 1621.488770 5335.442383 0.560771 0.739457 -0.372476
8401.480469 2062.322998 5232.975098 0.560771 0.739457 -0.372476
8795.910156 1942.081909 5588.089355 0.560771 0.739457 -0.372476
10067.195312 1477.868042 5108.796387 -0.036800 0.983011 -0.179819
9502.294922 1487.210327 5275.474609 -0.036800 0.983011 -0.179819
10042.810547 1567.129883 5601.750488 -0.036800 0.983011 -0.179819
9502.294922 1487.210327 5275.474609 0.172353 0.821917 -0.542907
9050.844727 1621.488770 5335.442383 0.172353 0.821917 -0.542907
9641.940430 1665.086914 5589.097656 0.172353 0.821917 -0.542907
9607.883789 1317.402344 5292.121094 -0.041851 -0.833538 0.550875
9974.004883 1438.474365 5503.132324 -0.041851 -0.833538 0.550875
9222.238281 1426.265137 5427.544922 -0.041851 -0.833538 0.550875
9502.294922 1487.210327 5275.474609 0.214293 0.805610 -0.552332
9641.940430 1665.086914 5589.097656 0.214293 0.805610 -0.552332
10042.810547 1567.129883 5601.750488 0.214293 0.805610 -0.552332
9641.940430 1665.086914 5589.097656 0.233076 0.709466 -0.665082
9050.844727 1621.488770 5335.442383 0.233076 0.709466 -0.665082
8795.910156 1942.081909 5588.089355 0.233076 0.709466 -0.665082
10067.195312 1477.868042 5108.796387 0.618422 0.778067 -0.110298
10042.810547 1567.129883 5601.750488 0.618422 0.778067 -0.110298
10172.862305 1450.459106 5507.906250 0.618422 0.778067 -0.110298
8222.952148 2022.607300 5322.160645 -0.586277 -0.728355 0.354651
8809.479492 1607.723999 5439.699707 -0.586277 -0.728355 0.354651
8378.483398 2041.564453 5618.203613 -0.586277 -0.728355 0.354651
8222.952148 2022.607300 5322.160645 -0.810167 -0.376016 0.449713
8378.483398 2041.564453 5618.203613 -0.810167 -0.376016 0.449713
8252.911133 2180.340088 5508.016602 -0.810167 -0.376016 0.449713
8252.911133 2180.340088 5508.016602 0.416275 0.895184 -0.159254
8795.910156 1942.081909 5588.089355 0.416275 0.895184 -0.159254
8401.480469 2062.322998 5232.975098 0.416275 0.895184 -0.159254
10098.246094 1495.121948 5681.212891 0.051467 -0.961499 0.269947
9974.004883 1438.474365 5503.132324 0.051467 -0.961499 0.269947
10172.862305 1450.459106 5507.906250 0.051467 -0.961499 0.269947
9048.578125 1703.806885 5644.875977 -0.066510 -0.640628 0.764966
9222.238281 1426.265137 5427.544922 -0.066510 -0.640628 0.764966
9974.004883 1438.474365 5503.132324 -0.066510 -0.640628 0.764966
8809.479492 1607.723999 5439.699707 -0.344871 -0.629202 0.696541
9048.578125 1703.806885 5644.875977 -0.344871 -0.629202 0.696541
8378.483398 2041.564453 5618.203613 -0.344871 -0.629202 0.696541
9222.238281 1426.265137 5427.544922 -0.286271 -0.695328 0.659218
9048.578125 1703.806885 5644.875977 -0.286271 -0.695328 0.659218
8809.479492 1607.723999 5439.699707 -0.286271 -0.695328 0.659218
8252.911133 2180.340088 5508.016602 -0.775181 -0.236215 0.585915
8378.483398 2041.564453 5618.203613 -0.775181 -0.236215 0.585915
8395.473633 2122.106934 5673.153320 -0.775181 -0.236215 0.585915
10098.246094 1495.121948 5681.212891 0.712068 0.690214 0.128702
10172.862305 1450.459106 5507.906250 0.712068 0.690214 0.128702
10042.810547 1567.129883 5601.750488 0.712068 0.690214 0.128702
8395.473633 2122.106934 5673.153320 0.405038 0.913889 -0.027399
8795.910156 1942.081909 5588.089355 0.405038 0.913889 -0.027399
8252.911133 2180.340088 5508.016602 0.405038 0.913889 -0.027399
10098.246094 1495.121948 5681.212891 -0.191145 -0.888982 0.416142
9048.578125 1703.806885 5644.875977 -0.191145 -0.888982 0.416142
9974.004883 1438.474365 5503.132324 -0.191145 -0.888982 0.416142
8395.473633 2122.106934 5673.153320 0.388464 0.915112 -0.108010
8288.141602 2188.495361 5849.601562 0.388464 0.915112 -0.108010
8795.910156 1942.081909 5588.089355 0.388464 0.915112 -0.108010
9965.306641 1519.143799 5747.057129 -0.193768 -0.980475 -0.033513
9048.578125 1703.806885 5644.875977 -0.193768 -0.980475 -0.033513
10098.246094 1495.121948 5681.212891 -0.193768 -0.980475 -0.033513
9641.940430 1665.086914 5589.097656 0.305321 0.952146 -0.014050
8982.234375 1879.151367 5759.808105 0.305321 0.952146 -0.014050
9844.508789 1603.158203 5794.310547 0.305321 0.952146 -0.014050
9146.120117 1688.373657 5721.323730 -0.354282 -0.894895 0.271378
8668.954102 1878.464966 5725.231445 -0.354282 -0.894895 0.271378
9048.578125 1703.806885 5644.875977 -0.354282 -0.894895 0.271378
9641.940430 1665.086914 5589.097656 0.311124 0.950309 0.010678
8795.910156 1942.081909 5588.089355 0.311124 0.950309 0.010678
8982.234375 1879.151367 5759.808105 0.311124 0.950309 0.010678
8668.954102 1878.464966 5725.231445 -0.439769 -0.884694 -0.154662
8378.483398 2041.564453 5618.203613 -0.439769 -0.884694 -0.154662
9048.578125 1703.806885 5644.875977 -0.439769 -0.884694 -0.154662
8795.910156 1942.081909 5588.089355 0.395131 0.913818 -0.093847
8288.141602 2188.495361 5849.601562 0.395131 0.913818 -0.093847
8982.234375 1879.151367 5759.808105 0.395131 0.913818 -0.093847
8378.483398 2041.564453 5618.203613 -0.883681 0.376324 -0.278366
8353.854492 2071.987549 5737.518066 -0.883681 0.376324 -0.278366
8395.473633 2122.106934 5673.153320 -0.883681 0.376324 -0.278366
8378.483398 2041.564453 5618.203613 -0.517073 -0.848880 0.109715
8668.954102 1878.464966 5725.231445 -0.517073 -0.848880 0.109715
8353.854492 2071.987549 5737.518066 -0.517073 -0.848880 0.109715
9048.578125 1703.806885 5644.875977 -0.203803 -0.976995 0.062804
9965.306641 1519.143799 5747.057129 -0.203803 -0.976995 0.062804
9146.120117 1688.373657 5721.323730 -0.203803 -0.976995 0.062804
10042.810547 1567.129883 5601.750488 0.235133 0.970070 0.060643
9641.940430 1665.086914 5589.097656 0.235133 0.970070 0.060643
9844.508789 1603.158203 5794.310547 0.235133 0.970070 0.060643
10176.938477 1461.833984 5864.975098 0.887941 0.329931 -0.320477
10098.246094 1495.121948 5681.212891 0.887941 0.329931 -0.320477
10042.810547 1567.129883 5601.750488 0.887941 0.329931 -0.320477
8353.854492 2071.987549 5737.518066 -0.849270 0.028180 -0.527207
8288.141602 2188.495361 5849.601562 -0.849270 0.028180 -0.527207
8395.473633 2122.106934 5673.153320 -0.849270 0.028180 -0.527207
9965.306641 1519.143799 5747.057129 -0.216990 -0.972616 -0.083265
10098.246094 1495.121948 5681.212891 -0.216990 -0.972616 -0.083265
10176.938477 1461.833984 5864.975098 -0.216990 -0.972616 -0.083265
8220.334961 2120.546143 5925.683105 -0.793585 0.125223 -0.595434
8288.141602 2188.495361 5849.601562 -0.793585 0.125223 -0.595434
8353.854492 2071.987549 5737.518066 -0.793585 0.125223 -0.595434
9658.906250 1363.690552 5950.481445 -0.120741 -0.692606 -0.711139
9146.120117 1688.373657 5721.323730 -0.120741 -0.692606 -0.711139
9965.306641 1519.143799 5747.057129 -0.120741 -0.692606 -0.711139
9658.906250 1363.690552 5950.481445 -0.138623 -0.707810 -0.692668
9066.773438 1468.125488 5962.266113 -0.138623 -0.707810 -0.692668
9146.120117 1688.373657 5721.323730 -0.138623 -0.707810 -0.692668
8668.954102 1878.464966 5725.231445 -0.270454 -0.664574 -0.696560
9146.120117 1688.373657 5721.323730 -0.270454 -0.664574 -0.696560
9066.773438 1468.125488 5962.266113 -0.270454 -0.664574 -0.696560
9066.773438 1468.125488 5962.266113 -0.390527 -0.714172 -0.580902
8752.755859 1643.464233 5957.808105 -0.390527 -0.714172 -0.580902
8668.954102 1878.464966 5725.231445 -0.390527 -0.714172 -0.580902
8668.954102 1878.464966 5725.231445 -0.453364 -0.703428 -0.547404
8752.755859 1643.464233 5957.808105 -0.453364 -0.703428 -0.547404
8353.854492 2071.987549 5737.518066 -0.453364 -0.703428 -0.547404
10042.810547 1567.129883 5601.750488 0.349961 0.917558 0.188719
9844.508789 1603.158203 5794.310547 0.349961 0.917558 0.188719
10176.938477 1461.833984 5864.975098 0.349961 0.917558 0.188719
9844.508789 1603.158203 5794.310547 0.208752 0.733113 0.647278
8982.234375 1879.151367 5759.808105 0.208752 0.733113 0.647278
9252.554688 1566.496826 6026.743164 0.208752 0.733113 0.647278
8353.854492 2071.987549 5737.518066 -0.768765 -0.481107 -0.421350
8251.851562 2010.583374 5993.738281 -0.768765 -0.481107 -0.421350
8220.334961 2120.546143 5925.683105 -0.768765 -0.481107 -0.421350
8982.234375 1879.151367 5759.808105 0.400627 0.743474 0.535485
8288.141602 2188.495361 5849.601562 0.400627 0.743474 0.535485
8978.439453 1656.800049 6071.362305 0.400627 0.743474 0.535485
9965.306641 1519.143799 5747.057129 0.070887 -0.841199 -0.536059
10176.938477 1461.833984 5864.975098 0.070887 -0.841199 -0.536059
9658.906250 1363.690552 5950.481445 0.070887 -0.841199 -0.536059
9692.912109 1455.308594 6183.799316 -0.037747 0.939028 0.341762
10073.681641 1492.998413 6122.298340 -0.037747 0.939028 0.341762
9844.508789 1603.158203 5794.310547 -0.037747 0.939028 0.341762
10176.938477 1461.833984 5864.975098 0.383305 0.922663 0.042066
9844.508789 1603.158203 5794.310547 0.383305 0.922663 0.042066
10073.681641 1492.998413 6122.298340 0.383305 0.922663 0.042066
8353.854492 2071.987549 5737.518066 -0.560845 -0.726339 -0.397346
8752.755859 1643.464233 5957.808105 -0.560845 -0.726339 -0.397346
8251.851562 2010.583374 5993.738281 -0.560845 -0.726339 -0.397346
9252.554688 1566.496826 6026.743164 0.340794 0.763272 0.548886
8982.234375 1879.151367 5759.808105 0.340794 0.763272 0.548886
8978.439453 1656.800049 6071.362305 0.340794 0.763272 0.548886
9692.912109 1455.308594 6183.799316 0.094400 0.917988 0.385210
9844.508789 1603.158203 5794.310547 0.094400 0.917988 0.385210
9252.554688 1566.496826 6026.743164 0.094400 0.917988 0.385210
8372.264648 2077.310059 6150.264648 0.576588 0.805541 0.136565
8978.439453 1656.800049 6071.362305 0.576588 0.805541 0.136565
8288.141602 2188.495361 5849.601562 0.576588 0.805541 0.136565
8220.334961 2120.546143 5925.683105 -0.371812 0.832016 0.411710
8372.264648 2077.310059 6150.264648 -0.371812 0.832016 0.411710
8288.141602 2188.495361 5849.601562 -0.371812 0.832016 0.411710
9658.906250 1363.690552 5950.481445 -0.165747 -0.892406 -0.419689
9232.802734 1366.222778 6113.377441 -0.165747 -0.892406 -0.419689
9066.773438 1468.125488 5962.266113 -0.165747 -0.892406 -0.419689
9066.773438 1468.125488 5962.266113 -0.486228 -0.872167 -0.053921
9232.802734 1366.222778 6113.377441 -0.486228 -0.872167 -0.053921
8752.755859 1643.464233 5957.808105 -0.486228 -0.872167 -0.053921
10176.938477 1461.833984 5864.975098 0.181262 -0.982974 -0.030089
10141.105469 1445.205811 6192.331055 0.181262 -0.982974 -0.030089
9658.906250 1363.690552 5950.481445 0.181262 -0.982974 -0.030089
8251.851562 2010.583374 5993.738281 -0.580686 -0.804510 0.124770
8752.755859 1643.464233 5957.808105 -0.580686 -0.804510 0.124770
8557.238281 1842.067383 6328.441406 -0.580686 -0.804510 0.124770
9658.906250 1363.690552 5950.481445 0.202796 -0.976324 -0.075265
10141.105469 1445.205811 6192.331055 0.202796 -0.976324 -0.075265
9723.875000 1352.112671 6275.722656 0.202796 -0.976324 -0.075265
10176.938477 1461.833984 5864.975098 0.209657 0.977176 -0.034216
10073.681641 1492.998413 6122.298340 0.209657 0.977176 -0.034216
10098.225586 1498.440063 6428.095215 0.209657 0.977176 -0.034216
8752.755859 1643.464233 5957.808105 -0.532652 -0.830306 0.163932
9232.802734 1366.222778 6113.377441 -0.532652 -0.830306 0.163932
8557.238281 1842.067383 6328.441406 -0.532652 -0.830306 0.163932
8251.851562 2010.583374 5993.738281 -0.970395 -0.226892 0.082784
8285.246094 1990.680420 6330.639160 -0.970395 -0.226892 0.082784
8220.334961 2120.546143 5925.683105 -0.970395 -0.226892 0.082784
9658.906250 1363.690552 5950.481445 -0.018152 -0.999325 -0.031948
9723.875000 1352.112671 6275.722656 -0.018152 -0.999325 -0.031948
9232.802734 1366.222778 6113.377441 -0.018152 -0.999325 -0.031948
10141.105469 1445.205811 6192.331055 0.960644 0.251507 0.117929
10176.938477 1461.833984 5864.975098 0.960644 0.251507 0.117929
10098.225586 1498.440063 6428.095215 0.960644 0.251507 0.117929
8978.439453 1656.800049 6071.362305 0.318237 0.947251 0.037962
9331.080078 1529.183594 6299.524902 0.318237 0.947251 0.037962
9252.554688 1566.496826 6026.743164 0.318237 0.947251 0.037962
8557.238281 1842.067383 6328.441406 -0.479505 -0.877528 -0.004312
8285.246094 1990.680420 6330.639160 -0.479505 -0.877528 -0.004312
8251.851562 2010.583374 5993.738281 -0.479505 -0.877528 -0.004312
9692.912109 1455.308594 6183.799316 0.220849 0.972829 0.069496
9252.554688 1566.496826 6026.743164 0.220849 0.972829 0.069496
9331.080078 1529.183594 6299.524902 0.220849 0.972829 0.069496
8372.264648 2077.310059 6150.264648 0.102702 0.987373 0.120610
8220.334961 2120.546143 5925.683105 0.102702 0.987373 0.120610
8296.667969 2051.366699 6427.022461 0.102702 0.987373 0.120610
9201.529297 1539.438843 6619.100586 -0.502283 -0.827098 0.252230
8557.238281 1842.067383 6328.441406 -0.502283 -0.827098 0.252230
9232.802734 1366.222778 6113.377441 -0.502283 -0.827098 0.252230
9232.802734 1366.222778 6113.377441 -0.068705 -0.990178 0.121763
9723.875000 1352.112671 6275.722656 -0.068705 -0.990178 0.121763
9372.566406 1386.632935 6358.214844 -0.068705 -0.990178 0.121763
9201.529297 1539.438843 6619.100586 -0.363697 -0.887923 0.281633
9232.802734 1366.222778 6113.377441 -0.363697 -0.887923 0.281633
9372.566406 1386.632935 6358.214844 -0.363697 -0.887923 0.281633
10073.681641 1492.998413 6122.298340 -0.128982 0.970473 -0.203826
9692.912109 1455.308594 6183.799316 -0.128982 0.970473 -0.203826
9981.587891 1616.226562 6767.300781 -0.128982 0.970473 -0.203826
9029.133789 1754.873291 6594.469238 0.544268 0.813417 -0.205246
8978.439453 1656.800049 6071.362305 0.544268 0.813417 -0.205246
8500.144531 2131.115723 6682.802734 0.544268 0.813417 -0.205246
8372.264648 2077.310059 6150.264648 0.538320 0.815721 -0.211686
8500.144531 2131.115723 6682.802734 0.538320 0.815721 -0.211686
8978.439453 1656.800049 6071.362305 0.538320 0.815721 -0.211686
8220.334961 2120.546143 5925.683105 -0.988547 -0.043468 0.144516
8285.246094 1990.680420 6330.639160 -0.988547 -0.043468 0.144516
8296.667969 2051.366699 6427.022461 -0.988547 -0.043468 0.144516
10073.681641 1492.998413 6122.298340 0.612226 0.788156 -0.063164
9981.587891 1616.226562 6767.300781 0.612226 0.788156 -0.063164
10098.225586 1498.440063 6428.095215 0.612226 0.788156 -0.063164
8372.264648 2077.310059 6150.264648 -0.354771 0.934907 -0.009267
8296.667969 2051.366699 6427.022461 -0.354771 0.934907 -0.009267
8500.144531 2131.115723 6682.802734 -0.354771 0.934907 -0.009267
9331.080078 1529.183594 6299.524902 0.448336 0.869686 -0.206499
8978.439453 1656.800049 6071.362305 0.448336 0.869686 -0.206499
9029.133789 1754.873291 6594.469238 0.448336 0.869686 -0.206499
10141.105469 1445.205811 6192.331055 0.259142 -0.930928 0.257330
10098.225586 1498.440063 6428.095215 0.259142 -0.930928 0.257330
9723.875000 1352.112671 6275.722656 0.259142 -0.930928 0.257330
9420.230469 1638.746094 6710.712402 0.106213 0.954850 -0.277452
9692.912109 1455.308594 6183.799316 0.106213 0.954850 -0.277452
9331.080078 1529.183594 6299.524902 0.106213 0.954850 -0.277452
9372.566406 1386.632935 6358.214844 0.003449 -0.917166 0.398491
9723.875000 1352.112671 6275.722656 0.003449 -0.917166 0.398491
9857.747070 1594.428101 6832.277344 0.003449 -0.917166 0.398491
8335.434570 2087.476807 6749.046875 -0.992777 -0.003605 0.119919
8296.667969 2051.366699 6427.022461 -0.992777 -0.003605 0.119919
8285.246094 1990.680420 6330.639160 -0.992777 -0.003605 0.119919
9723.875000 1352.112671 6275.722656 0.216284 -0.913138 0.345542
10098.225586 1498.440063 6428.095215 0.216284 -0.913138 0.345542
9857.747070 1594.428101 6832.277344 0.216284 -0.913138 0.345542
9857.747070 1594.428101 6832.277344 -0.077388 -0.881590 0.465629
9201.529297 1539.438843 6619.100586 -0.077388 -0.881590 0.465629
9372.566406 1386.632935 6358.214844 -0.077388 -0.881590 0.465629
9981.587891 1616.226562 6767.300781 0.068096 0.952632 -0.296406
9692.912109 1455.308594 6183.799316 0.068096 0.952632 -0.296406
9420.230469 1638.746094 6710.712402 0.068096 0.952632 -0.296406
9420.230469 1638.746094 6710.712402 0.078851 0.902705 -0.422973
9813.790039 1770.266357 7064.770020 0.078851 0.902705 -0.422973
9981.587891 1616.226562 6767.300781 0.078851 0.902705 -0.422973
8403.232422 2221.643555 7026.461914 -0.043226 0.963038 -0.265876
8500.144531 2131.115723 6682.802734 -0.043226 0.963038 -0.265876
8296.667969 2051.366699 6427.022461 -0.043226 0.963038 -0.265876
10098.225586 1498.440063 6428.095215 0.364401 -0.833751 0.414815
9981.587891 1616.226562 6767.300781 0.364401 -0.833751 0.414815
9857.747070 1594.428101 6832.277344 0.364401 -0.833751 0.414815
9420.230469 1638.746094 6710.712402 0.354426 0.881588 -0.311746
9331.080078 1529.183594 6299.524902 0.354426 0.881588 -0.311746
9029.133789 1754.873291 6594.469238 0.354426 0.881588 -0.311746
8557.238281 1842.067383 6328.441406 -0.462423 -0.850058 0.252125
8335.434570 2087.476807 6749.046875 -0.462423 -0.850058 0.252125
8285.246094 1990.680420 6330.639160 -0.462423 -0.850058 0.252125
8296.667969 2051.366699 6427.022461 -0.945626 0.315654 0.078443
8335.434570 2087.476807 6749.046875 -0.945626 0.315654 0.078443
8403.232422 2221.643555 7026.461914 -0.945626 0.315654 0.078443
8500.144531 2131.115723 6682.802734 -0.515077 0.781883 -0.351218
8403.232422 2221.643555 7026.461914 -0.515077 0.781883 -0.351218
8451.166016 2280.877197 7088.031250 -0.515077 0.781883 -0.351218
9614.623047 1867.096558 7257.819336 -0.090329 -0.861185 0.500202
9201.529297 1539.438843 6619.100586 -0.090329 -0.861185 0.500202
9857.747070 1594.428101 6832.277344 -0.090329 -0.861185 0.500202
9813.790039 1770.266357 7064.770020 0.431423 -0.678415 0.594666
9857.747070 1594.428101 6832.277344 0.431423 -0.678415 0.594666
9981.587891 1616.226562 6767.300781 0.431423 -0.678415 0.594666
8678.932617 2222.881592 7211.403320 0.370603 0.829114 -0.418597
9420.230469 1638.746094 6710.712402 0.370603 0.829114 -0.418597
9029.133789 1754.873291 6594.469238 0.370603 0.829114 -0.418597
9527.756836 1959.131226 7298.940430 0.159335 0.854443 -0.494508
9813.790039 1770.266357 7064.770020 0.159335 0.854443 -0.494508
9420.230469 1638.746094 6710.712402 0.159335 0.854443 -0.494508
8678.932617 2222.881592 7211.403320 0.515274 0.797903 -0.312798
9029.133789 1754.873291 6594.469238 0.515274 0.797903 -0.312798
8500.144531 2131.115723 6682.802734 0.515274 0.797903 -0.312798
9201.529297 1539.438843 6619.100586 -0.516838 -0.794768 0.318155
8403.232422 2221.643555 7026.461914 -0.516838 -0.794768 0.318155
8557.238281 1842.067383 6328.441406 -0.516838 -0.794768 0.318155
8403.232422 2221.643555 7026.461914 -0.114244 -0.883120 0.455025
8335.434570 2087.476807 6749.046875 -0.114244 -0.883120 0.455025
8557.238281 1842.067383 6328.441406 -0.114244 -0.883120 0.455025
9813.790039 1770.266357 7064.770020 0.228322 -0.755253 0.614379
9614.623047 1867.096558 7257.819336 0.228322 -0.755253 0.614379
9857.747070 1594.428101 6832.277344 0.228322 -0.755253 0.614379
8845.129883 2117.087402 7294.804688 -0.447869 -0.782440 0.432667
8403.232422 2221.643555 7026.461914 -0.447869 -0.782440 0.432667
9201.529297 1539.438843 6619.100586 -0.447869 -0.782440 0.432667
8451.166016 2280.877197 7088.031250 0.376809 0.882738 -0.280692
8678.932617 2222.881592 7211.403320 0.376809 0.882738 -0.280692
8500.144531 2131.115723 6682.802734 0.376809 0.882738 -0.280692
9527.756836 1959.131226 7298.940430 0.192305 0.846605 -0.496266
9420.230469 1638.746094 6710.712402 0.192305 0.846605 -0.496266
9057.929688 2079.387451 7322.031738 0.192305 0.846605 -0.496266
9420.230469 1638.746094 6710.712402 0.419733 0.835876 -0.353746
8678.932617 2222.881592 7211.403320 0.419733 0.835876 -0.353746
9057.929688 2079.387451 7322.031738 0.419733 0.835876 -0.353746
9813.790039 1770.266357 7064.770020 0.724515 0.450908 0.521307
9527.756836 1959.131226 7298.940430 0.724515 0.450908 0.521307
9614.623047 1867.096558 7257.819336 0.724515 0.450908 0.521307
9201.529297 1539.438843 6619.100586 -0.153421 -0.835408 0.527783
9614.623047 1867.096558 7257.819336 -0.153421 -0.835408 0.527783
9270.138672 1980.126587 7336.592285 -0.153421 -0.835408 0.527783
9270.138672 1980.126587 7336.592285 -0.307968 -0.797276 0.519141
8845.129883 2117.087402 7294.804688 -0.307968 -0.797276 0.519141
9201.529297 1539.438843 6619.100586 -0.307968 -0.797276 0.519141
8403.232422 2221.643555 7026.461914 -0.545320 -0.350274 0.761534
8845.129883 2117.087402 7294.804688 -0.545320 -0.350274 0.761534
8451.166016 2280.877197 7088.031250 -0.545320 -0.350274 0.761534
8678.932617 2222.881592 7211.403320 -0.492015 -0.090319 0.865889
8451.166016 2280.877197 7088.031250 -0.492015 -0.090319 0.865889
8845.129883 2117.087402 7294.804688 -0.492015 -0.090319 0.865889
9057.929688 2079.387451 7322.031738 0.012590 0.631168 0.775544
8678.932617 2222.881592 7211.403320 0.012590 0.631168 0.775544
8845.129883 2117.087402 7294.804688 0.012590 0.631168 0.775544
9270.138672 1980.126587 7336.592285 0.112032 -0.315304 0.942355
9614.623047 1867.096558 7257.819336 0.112032 -0.315304 0.942355
9527.756836 1959.131226 7298.940430 0.112032 -0.315304 0.942355
9270.138672 1980.126587 7336.592285 0.165045 0.479295 0.861995
9527.756836 1959.131226 7298.940430 0.165045 0.479295 0.861995
9057.929688 2079.387451 7322.031738 0.165045 0.479295 0.861995
9270.138672 1980.126587 7336.592285 -0.158763 -0.197516 0.967358
9057.929688 2079.387451 7322.031738 -0.158763 -0.197516 0.967358
8845.129883 2117.087402 7294.804688 -0.158763 -0.197516 0.967358
3 0 1 2
3 3 4 5
3 6 7 8
3 9 10 11
3 12 13 14
3 15 16 17
3 18 19 20
3 21 22 23
3 24 25 26
3 27 28 29
3 30 31 32
3 33 34 35
3 36 37 38
3 39 40 41
3 42 43 44
3 45 46 47
3 48 49 50
3 51 52 53
3 54 55 56
3 57 58 59
3 60 61 62
3 63 64 65
3 66 67 68
3 69 70 71
3 72 73 74
3 75 76 77
3 78 79 80
3 81 82 83
3 84 85 86
3 87 88 89
3 90 91 92
3 93 94 95
3 96 97 98
3 99 100 101
3 102 103 104
3 105 106 107
3 108 109 110
3 111 112 113
3 114 115 116
3 117 118 119
3 120 121 122
3 123 124 125
3 126 127 128
3 129 130 131
3 132 133 134
3 135 136 137
3 138 139 140
3 141 142 143
3 144 145 146
3 147 148 149
3 150 151 152
3 153 154 155
3 156 157 158
3 159 160 161
3 162 163 164
3 165 166 167
3 168 169 170
3 171 172 173
3 174 175 176
3 177 178 179
3 180 181 182
3 183 184 185
3 186 187 188
3 189 190 191
3 192 193 194
3 195 196 197
3 198 199 200
3 201 202 203
3 204 205 206
3 207 208 209
3 210 211 212
3 213 214 215
3 216 217 218
3 219 220 221
3 222 223 224
3 225 226 227
3 228 229 230
3 231 232 233
3 234 235 236
3 237 238 239
3 240 241 242
3 243 244 245
3 246 247 248
3 249 250 251
3 252 253 254
3 255 256 257
3 258 259 260
3 261 262 263
3 264 265 266
3 267 268 269
3 270 271 272
3 273 274 275
3 276 277 278
3 279 280 281
3 282 283 284
3 285 286 287
3 288 289 290
3 291 292 293
3 294 295 296
3 297 298 299
3 300 301 302
3 303 304 305
3 306 307 308
3 309 310 311
3 312 313 314
3 315 316 317
3 318 319 320
3 321 322 323
3 324 325 326
3 327 328 329
3 330 331 332
3 333 334 335
3 336 337 338
3 339 340 341
3 342 343 344
3 345 346 347
3 348 349 350
3 351 352 353
3 354 355 356
3 357 358 359
3 360 361 362
3 363 364 365
3 366 367 368
3 369 370 371
3 372 373 374
3 375 376 377
3 378 379 380
3 381 382 383
3 384 385 386
3 387 388 389
3 390 391 392
3 393 394 395
3 396 397 398
3 399 400 401
3 402 403 404
3 405 406 407
3 408 409 410
3 411 412 413
3 414 415 416
3 417 418 419
3 420 421 422
3 423 424 425
3 426 427 428
3 429 430 431
3 432 433 434
3 435 436 437
3 438 439 440
3 441 442 443
3 444 445 446
3 447 448 449
3 450 451 452
3 453 454 455
3 456 457 458
3 459 460 461
3 462 463 464
3 465 466 467
3 468 469 470
3 471 472 473
3 474 475 476
3 477 478 479
3 480 481 482
3 483 484 485
3 486 487 488
3 489 490 491
