ply
format ascii 1.0
comment Created by Blender 2.80 (sub 75) - www.blender.org, source file: 'downsample_ccf.blend'
element vertex 213
property float x
property float y
property float z
property float nx
property float ny
property float nz
element face 71
property list uchar uint vertex_indices
end_header
6131.739746 2478.409668 3590.080078 -0.371793 0.843724 -0.387169
6122.469727 2467.677490 3575.594238 -0.371793 0.843724 -0.387169
5982.970215 2455.229248 3682.426270 -0.371793 0.843724 -0.387169
6078.982910 2499.981201 3648.139648 -0.497778 0.561562 -0.660958
6131.739746 2478.409668 3590.080078 -0.497778 0.561562 -0.660958
5982.970215 2455.229248 3682.426270 -0.497778 0.561562 -0.660958
5982.970215 2455.229248 3682.426270 -0.054301 0.971448 0.230956
5844.376465 2366.792725 4021.823486 -0.054301 0.971448 0.230956
5960.558594 2421.161377 3820.453613 -0.054301 0.971448 0.230956
5960.558594 2421.161377 3820.453613 -0.587146 -0.503503 -0.633833
5868.917969 2487.935059 3852.300537 -0.587146 -0.503503 -0.633833
6078.982910 2499.981201 3648.139648 -0.587146 -0.503503 -0.633833
5960.558594 2421.161377 3820.453613 -0.614352 -0.597187 -0.515693
5844.376465 2366.792725 4021.823486 -0.614352 -0.597187 -0.515693
5868.917969 2487.935059 3852.300537 -0.614352 -0.597187 -0.515693
5844.376465 2366.792725 4021.823486 0.732587 0.523147 0.435470
5982.970215 2455.229248 3682.426270 0.732587 0.523147 0.435470
5559.604004 2328.869629 4546.452148 0.732587 0.523147 0.435470
5559.604004 2328.869629 4546.452148 0.788188 0.422042 0.447928
5982.970215 2455.229248 3682.426270 0.788188 0.422042 0.447928
5868.917969 2487.935059 3852.300537 0.788188 0.422042 0.447928
5868.917969 2487.935059 3852.300537 -0.443703 -0.697510 -0.562679
5844.376465 2366.792725 4021.823486 -0.443703 -0.697510 -0.562679
5587.544434 2242.159668 4378.847168 -0.443703 -0.697510 -0.562679
5868.917969 2487.935059 3852.300537 -0.620068 -0.529800 -0.578643
5587.544434 2242.159668 4378.847168 -0.620068 -0.529800 -0.578643
5061.026855 2698.995605 4524.784180 -0.620068 -0.529800 -0.578643
5559.604004 2328.869629 4546.452148 0.532878 0.741663 0.407403
5868.917969 2487.935059 3852.300537 0.532878 0.741663 0.407403
5061.026855 2698.995605 4524.784180 0.532878 0.741663 0.407403
5587.544434 2242.159668 4378.847168 -0.327033 -0.860488 0.390653
5559.604004 2328.869629 4546.452148 -0.327033 -0.860488 0.390653
5383.981934 2550.004639 4886.522949 -0.327033 -0.860488 0.390653
5559.604004 2328.869629 4546.452148 0.520384 0.669987 -0.529450
5061.026855 2698.995605 4524.784180 0.520384 0.669987 -0.529450
5598.828613 2341.303711 4600.739746 0.520384 0.669987 -0.529450
5061.026855 2698.995605 4524.784180 0.562267 0.809601 -0.168530
5383.981934 2550.004639 4886.522949 0.562267 0.809601 -0.168530
5598.828613 2341.303711 4600.739746 0.562267 0.809601 -0.168530
5061.026855 2698.995605 4524.784180 0.530388 0.837978 -0.128381
4954.519531 2818.062744 4861.947266 0.530388 0.837978 -0.128381
5383.981934 2550.004639 4886.522949 0.530388 0.837978 -0.128381
5061.026855 2698.995605 4524.784180 -0.664262 -0.744612 -0.065647
5587.544434 2242.159668 4378.847168 -0.664262 -0.744612 -0.065647
4764.140137 2946.045410 4726.689453 -0.664262 -0.744612 -0.065647
5061.026855 2698.995605 4524.784180 0.481100 0.823612 -0.300344
4764.140137 2946.045410 4726.689453 0.481100 0.823612 -0.300344
4756.366699 2958.771729 4749.136230 0.481100 0.823612 -0.300344
4756.366699 2958.771729 4749.136230 0.608950 0.788522 -0.086099
4954.519531 2818.062744 4861.947266 0.608950 0.788522 -0.086099
5061.026855 2698.995605 4524.784180 0.608950 0.788522 -0.086099
4610.594238 3142.659424 4783.498047 -0.782836 -0.507223 -0.360406
4764.140137 2946.045410 4726.689453 -0.782836 -0.507223 -0.360406
4692.135742 3028.936279 4766.432129 -0.782836 -0.507223 -0.360406
4610.594238 3142.659424 4783.498047 -0.286458 -0.061919 -0.956090
4692.135742 3028.936279 4766.432129 -0.286458 -0.061919 -0.956090
4311.280273 3398.088623 4856.634277 -0.286458 -0.061919 -0.956090
4954.519531 2818.062744 4861.947266 -0.660861 -0.701706 0.266217
4692.135742 3028.936279 4766.432129 -0.660861 -0.701706 0.266217
4764.140137 2946.045410 4726.689453 -0.660861 -0.701706 0.266217
4764.140137 2946.045410 4726.689453 0.792301 0.609242 0.032900
4610.594238 3142.659424 4783.498047 0.792301 0.609242 0.032900
4630.470703 3115.973389 4799.002930 0.792301 0.609242 0.032900
4764.140137 2946.045410 4726.689453 0.760921 0.641098 -0.099963
4630.470703 3115.973389 4799.002930 0.760921 0.641098 -0.099963
4756.366699 2958.771729 4749.136230 0.760921 0.641098 -0.099963
4375.208496 3461.442383 5069.423340 0.777338 0.626366 -0.058409
4610.594238 3142.659424 4783.498047 0.777338 0.626366 -0.058409
3984.992676 3934.073486 4944.626465 0.777338 0.626366 -0.058409
4610.594238 3142.659424 4783.498047 -0.211922 0.031348 -0.976784
4311.280273 3398.088623 4856.634277 -0.211922 0.031348 -0.976784
3984.992676 3934.073486 4944.626465 -0.211922 0.031348 -0.976784
5587.544434 2242.159668 4378.847168 -0.613428 -0.779688 0.125667
4954.519531 2818.062744 4861.947266 -0.613428 -0.779688 0.125667
4764.140137 2946.045410 4726.689453 -0.613428 -0.779688 0.125667
5587.544434 2242.159668 4378.847168 -0.344809 -0.796140 0.497261
5082.620117 2815.312012 4946.370117 -0.344809 -0.796140 0.497261
4954.519531 2818.062744 4861.947266 -0.344809 -0.796140 0.497261
5383.981934 2550.004639 4886.522949 -0.788067 -0.613059 0.055756
5285.052734 2678.609131 4902.292480 -0.788067 -0.613059 0.055756
5587.544434 2242.159668 4378.847168 -0.788067 -0.613059 0.055756
5383.981934 2550.004639 4886.522949 0.371888 0.525666 -0.765098
4954.519531 2818.062744 4861.947266 0.371888 0.525666 -0.765098
5297.536133 2646.770508 4910.988281 0.371888 0.525666 -0.765098
5587.544434 2242.159668 4378.847168 -0.449848 -0.796446 0.404117
5285.052734 2678.609131 4902.292480 -0.449848 -0.796446 0.404117
5082.620117 2815.312012 4946.370117 -0.449848 -0.796446 0.404117
4954.519531 2818.062744 4861.947266 0.007901 -0.260579 -0.965420
5285.052734 2678.609131 4902.292480 0.007901 -0.260579 -0.965420
5297.536133 2646.770508 4910.988281 0.007901 -0.260579 -0.965420
4692.135742 3028.936279 4766.432129 -0.318094 -0.521620 0.791662
4630.470703 3115.973389 4799.002930 -0.318094 -0.521620 0.791662
4311.280273 3398.088623 4856.634277 -0.318094 -0.521620 0.791662
4375.208496 3461.442383 5069.423340 0.228962 -0.067380 -0.971101
3984.992676 3934.073486 4944.626465 0.228962 -0.067380 -0.971101
4239.629883 4223.971191 4984.549316 0.228962 -0.067380 -0.971101
4375.208496 3461.442383 5069.423340 -0.570411 -0.724443 0.387057
4311.280273 3398.088623 4856.634277 -0.570411 -0.724443 0.387057
4630.470703 3115.973389 4799.002930 -0.570411 -0.724443 0.387057
4311.280273 3398.088623 4856.634277 -0.654945 -0.492761 0.572916
4285.420410 3780.425049 5155.916992 -0.654945 -0.492761 0.572916
3984.992676 3934.073486 4944.626465 -0.654945 -0.492761 0.572916
4239.629883 4223.971191 4984.549316 0.073043 0.072821 -0.994667
3984.992676 3934.073486 4944.626465 0.073043 0.072821 -0.994667
4063.202637 4483.571289 4990.599121 0.073043 0.072821 -0.994667
4311.280273 3398.088623 4856.634277 -0.866918 -0.342276 0.362354
4375.208496 3461.442383 5069.423340 -0.866918 -0.342276 0.362354
4285.420410 3780.425049 5155.916992 -0.866918 -0.342276 0.362354
4145.981934 4401.407715 4966.039551 0.517449 0.354353 0.778897
4285.420410 3780.425049 5155.916992 0.517449 0.354353 0.778897
4239.629883 4223.971191 4984.549316 0.517449 0.354353 0.778897
3984.992676 3934.073486 4944.626465 -0.570915 0.012578 0.820913
4285.420410 3780.425049 5155.916992 -0.570915 0.012578 0.820913
4063.202637 4483.571289 4990.599121 -0.570915 0.012578 0.820913
4145.981934 4401.407715 4966.039551 0.571520 0.354605 0.740013
4063.202637 4483.571289 4990.599121 0.571520 0.354605 0.740013
4285.420410 3780.425049 5155.916992 0.571520 0.354605 0.740013
4375.208496 3461.442383 5069.423340 0.952020 0.195480 0.235470
4239.629883 4223.971191 4984.549316 0.952020 0.195480 0.235470
4293.979980 3755.747559 5153.512695 0.952020 0.195480 0.235470
4239.629883 4223.971191 4984.549316 0.863140 0.257039 0.434650
4285.420410 3780.425049 5155.916992 0.863140 0.257039 0.434650
4293.979980 3755.747559 5153.512695 0.863140 0.257039 0.434650
4506.198730 3361.586670 6287.342285 -0.857931 -0.503526 -0.102057
4551.488281 3257.978271 6417.800293 -0.857931 -0.503526 -0.102057
4333.202148 3674.105469 6199.724609 -0.857931 -0.503526 -0.102057
4551.488281 3257.978271 6417.800293 -0.650683 -0.591117 -0.476646
4099.702637 3715.738037 6466.850586 -0.650683 -0.591117 -0.476646
4333.202148 3674.105469 6199.724609 -0.650683 -0.591117 -0.476646
4333.202148 3674.105469 6199.724609 0.859491 0.336986 -0.384337
4122.027832 4482.648438 6436.406250 0.859491 0.336986 -0.384337
4353.064453 3627.239746 6203.050781 0.859491 0.336986 -0.384337
4099.702637 3715.738037 6466.850586 0.687634 0.547641 0.476706
4506.198730 3361.586670 6287.342285 0.687634 0.547641 0.476706
4353.064453 3627.239746 6203.050781 0.687634 0.547641 0.476706
4099.702637 3715.738037 6466.850586 -0.756660 -0.081452 -0.648715
4039.233398 4497.980957 6439.164062 -0.756660 -0.081452 -0.648715
4333.202148 3674.105469 6199.724609 -0.756660 -0.081452 -0.648715
4333.202148 3674.105469 6199.724609 0.021040 0.285932 -0.958019
4039.233398 4497.980957 6439.164062 0.021040 0.285932 -0.958019
4122.027832 4482.648438 6436.406250 0.021040 0.285932 -0.958019
4122.027832 4482.648438 6436.406250 0.722293 0.006427 0.691557
4099.702637 3715.738037 6466.850586 0.722293 0.006427 0.691557
4353.064453 3627.239746 6203.050781 0.722293 0.006427 0.691557
4099.702637 3715.738037 6466.850586 0.211806 -0.018212 -0.977142
3966.515625 4371.405762 6425.760742 0.211806 -0.018212 -0.977142
4039.233398 4497.980957 6439.164062 0.211806 -0.018212 -0.977142
4099.702637 3715.738037 6466.850586 0.694701 0.682954 0.225751
4673.176270 3107.277344 6542.854492 0.694701 0.682954 0.225751
4506.198730 3361.586670 6287.342285 0.694701 0.682954 0.225751
5224.165039 2700.012939 6424.144043 -0.624269 -0.737862 -0.256608
5600.585449 2306.655029 6639.477539 -0.624269 -0.737862 -0.256608
5150.004395 2748.042725 6466.453125 -0.624269 -0.737862 -0.256608
4122.027832 4482.648438 6436.406250 -0.147460 0.043518 0.988110
4009.333496 4475.963867 6419.882812 -0.147460 0.043518 0.988110
4099.702637 3715.738037 6466.850586 -0.147460 0.043518 0.988110
5600.585449 2306.655029 6639.477539 -0.474521 -0.695770 -0.539198
4810.508301 2839.136230 6647.681152 -0.474521 -0.695770 -0.539198
5150.004395 2748.042725 6466.453125 -0.474521 -0.695770 -0.539198
4099.702637 3715.738037 6466.850586 -0.010511 0.060416 0.998118
4009.333496 4475.963867 6419.882812 -0.010511 0.060416 0.998118
3966.515625 4371.405762 6425.760742 -0.010511 0.060416 0.998118
4792.263184 2885.932373 6695.629395 0.622967 0.642824 0.445746
4673.176270 3107.277344 6542.854492 0.622967 0.642824 0.445746
4099.702637 3715.738037 6466.850586 0.622967 0.642824 0.445746
5231.973145 2702.492676 6430.264648 0.550734 0.728337 0.407698
4981.832520 2820.543701 6557.270996 0.550734 0.728337 0.407698
5600.585449 2306.655029 6639.477539 0.550734 0.728337 0.407698
5231.973145 2702.492676 6430.264648 0.568482 0.510353 0.645265
5150.004395 2748.042725 6466.453125 0.568482 0.510353 0.645265
4981.832520 2820.543701 6557.270996 0.568482 0.510353 0.645265
4698.830078 2999.808594 6667.109863 -0.331218 -0.746418 -0.577196
4551.488281 3257.978271 6417.800293 -0.331218 -0.746418 -0.577196
4673.176270 3107.277344 6542.854492 -0.331218 -0.746418 -0.577196
4099.702637 3715.738037 6466.850586 -0.699410 -0.661206 -0.271353
4551.488281 3257.978271 6417.800293 -0.699410 -0.661206 -0.271353
4698.830078 2999.808594 6667.109863 -0.699410 -0.661206 -0.271353
4981.832520 2820.543701 6557.270996 -0.443290 -0.514102 -0.734297
4810.508301 2839.136230 6647.681152 -0.443290 -0.514102 -0.734297
4673.176270 3107.277344 6542.854492 -0.443290 -0.514102 -0.734297
4698.830078 2999.808594 6667.109863 0.750429 0.510603 -0.419691
4792.263184 2885.932373 6695.629395 0.750429 0.510603 -0.419691
4099.702637 3715.738037 6466.850586 0.750429 0.510603 -0.419691
5600.585449 2306.655029 6639.477539 0.550018 0.727786 0.409644
4981.832520 2820.543701 6557.270996 0.550018 0.727786 0.409644
4792.263184 2885.932373 6695.629395 0.550018 0.727786 0.409644
4673.176270 3107.277344 6542.854492 0.581279 0.650312 0.489090
4792.263184 2885.932373 6695.629395 0.581279 0.650312 0.489090
4981.832520 2820.543701 6557.270996 0.581279 0.650312 0.489090
4810.508301 2839.136230 6647.681152 -0.802545 -0.523146 -0.286776
4698.830078 2999.808594 6667.109863 -0.802545 -0.523146 -0.286776
4673.176270 3107.277344 6542.854492 -0.802545 -0.523146 -0.286776
5600.585449 2306.655029 6639.477539 0.535909 0.779292 -0.324815
4792.263184 2885.932373 6695.629395 0.535909 0.779292 -0.324815
5925.935547 2463.836670 7553.379395 0.535909 0.779292 -0.324815
5600.585449 2306.655029 6639.477539 -0.527966 -0.788248 0.316097
6005.460938 2442.233643 7653.816406 -0.527966 -0.788248 0.316097
4810.508301 2839.136230 6647.681152 -0.527966 -0.788248 0.316097
5925.935547 2463.836670 7553.379395 -0.586356 -0.679869 0.440415
4792.263184 2885.932373 6695.629395 -0.586356 -0.679869 0.440415
4810.508301 2839.136230 6647.681152 -0.586356 -0.679869 0.440415
6005.460938 2442.233643 7653.816406 -0.671065 -0.272116 0.689656
6092.903809 2468.916260 7749.430176 -0.671065 -0.272116 0.689656
4810.508301 2839.136230 6647.681152 -0.671065 -0.272116 0.689656
6005.460938 2442.233643 7653.816406 0.783594 -0.003794 -0.621261
5925.935547 2463.836670 7553.379395 0.783594 -0.003794 -0.621261
6091.367676 2472.594482 7761.984863 0.783594 -0.003794 -0.621261
6092.903809 2468.916260 7749.430176 0.631391 0.544806 -0.551845
5925.935547 2463.836670 7553.379395 0.631391 0.544806 -0.551845
4810.508301 2839.136230 6647.681152 0.631391 0.544806 -0.551845
6091.367676 2472.594482 7761.984863 -0.256525 -0.935567 0.242712
5925.935547 2463.836670 7553.379395 -0.256525 -0.935567 0.242712
6092.903809 2468.916260 7749.430176 -0.256525 -0.935567 0.242712
3 0 1 2
3 3 4 5
3 6 7 8
3 9 10 11
3 12 13 14
3 15 16 17
3 18 19 20
3 21 22 23
3 24 25 26
3 27 28 29
3 30 31 32
3 33 34 35
3 36 37 38
3 39 40 41
3 42 43 44
3 45 46 47
3 48 49 50
3 51 52 53
3 54 55 56
3 57 58 59
3 60 61 62
3 63 64 65
3 66 67 68
3 69 70 71
3 72 73 74
3 75 76 77
3 78 79 80
3 81 82 83
3 84 85 86
3 87 88 89
3 90 91 92
3 93 94 95
3 96 97 98
3 99 100 101
3 102 103 104
3 105 106 107
3 108 109 110
3 111 112 113
3 114 115 116
3 117 118 119
3 120 121 122
3 123 124 125
3 126 127 128
3 129 130 131
3 132 133 134
3 135 136 137
3 138 139 140
3 141 142 143
3 144 145 146
3 147 148 149
3 150 151 152
3 153 154 155
3 156 157 158
3 159 160 161
3 162 163 164
3 165 166 167
3 168 169 170
3 171 172 173
3 174 175 176
3 177 178 179
3 180 181 182
3 183 184 185
3 186 187 188
3 189 190 191
3 192 193 194
3 195 196 197
3 198 199 200
3 201 202 203
3 204 205 206
3 207 208 209
3 210 211 212
