ply
format ascii 1.0
comment Created by Blender 2.80 (sub 75) - www.blender.org, source file: 'downsample_ccf.blend'
element vertex 18
property float x
property float y
property float z
property float nx
property float ny
property float nz
element face 6
property list uchar uint vertex_indices
end_header
5898.948242 3464.840332 5774.193848 0.757610 0.576965 -0.305186
5982.442871 3232.157471 5541.570801 0.757610 0.576965 -0.305186
5724.277344 3583.601074 5565.103027 0.757610 0.576965 -0.305186
5898.948242 3464.840332 5774.193848 0.605320 0.794105 -0.054633
5724.277344 3583.601074 5565.103027 0.605320 0.794105 -0.054633
5732.960938 3593.036377 5798.461426 0.605320 0.794105 -0.054633
5982.442871 3232.157471 5541.570801 -0.801642 -0.578884 -0.149210
5988.571777 3154.054199 5811.656250 -0.801642 -0.578884 -0.149210
5724.277344 3583.601074 5565.103027 -0.801642 -0.578884 -0.149210
5724.277344 3583.601074 5565.103027 -0.863671 -0.501324 0.052408
5988.571777 3154.054199 5811.656250 -0.863671 -0.501324 0.052408
5732.960938 3593.036377 5798.461426 -0.863671 -0.501324 0.052408
5988.571777 3154.054199 5811.656250 0.957148 0.283275 0.060198
5982.442871 3232.157471 5541.570801 0.957148 0.283275 0.060198
5898.948242 3464.840332 5774.193848 0.957148 0.283275 0.060198
5988.571777 3154.054199 5811.656250 0.288521 0.196169 0.937163
5898.948242 3464.840332 5774.193848 0.288521 0.196169 0.937163
5732.960938 3593.036377 5798.461426 0.288521 0.196169 0.937163
3 0 1 2
3 3 4 5
3 6 7 8
3 9 10 11
3 12 13 14
3 15 16 17
