ply
format ascii 1.0
comment Created by Blender 2.80 (sub 75) - www.blender.org, source file: 'downsample_ccf.blend'
element vertex 96
property float x
property float y
property float z
property float nx
property float ny
property float nz
element face 32
property list uchar uint vertex_indices
end_header
8764.483398 3244.284180 3371.911621 -0.078131 0.090197 -0.992854
8328.553711 3335.412598 3414.495117 -0.078131 0.090197 -0.992854
8826.314453 3576.342529 3397.212158 -0.078131 0.090197 -0.992854
8704.163086 3197.231445 3492.021484 -0.224625 -0.863709 -0.451165
8328.553711 3335.412598 3414.495117 -0.224625 -0.863709 -0.451165
8764.483398 3244.284180 3371.911621 -0.224625 -0.863709 -0.451165
7945.651367 3546.797363 3695.382812 -0.286866 0.535693 -0.794192
8826.314453 3576.342529 3397.212158 -0.286866 0.535693 -0.794192
8328.553711 3335.412598 3414.495117 -0.286866 0.535693 -0.794192
8704.163086 3197.231445 3492.021484 0.904894 -0.197235 0.377180
8764.483398 3244.284180 3371.911621 0.904894 -0.197235 0.377180
8826.314453 3576.342529 3397.212158 0.904894 -0.197235 0.377180
8704.163086 3197.231445 3492.021484 0.921188 -0.215842 0.323767
8826.314453 3576.342529 3397.212158 0.921188 -0.215842 0.323767
8680.612305 3326.812500 3645.415283 0.921188 -0.215842 0.323767
8826.314453 3576.342529 3397.212158 0.027418 0.983569 0.178440
7945.651367 3546.797363 3695.382812 0.027418 0.983569 0.178440
8446.745117 3534.242432 3687.591553 0.027418 0.983569 0.178440
8446.745117 3534.242432 3687.591553 0.517006 0.432733 0.738544
8680.612305 3326.812500 3645.415283 0.517006 0.432733 0.738544
8826.314453 3576.342529 3397.212158 0.517006 0.432733 0.738544
7945.651367 3546.797363 3695.382812 -0.671083 -0.538550 -0.509521
8328.553711 3335.412598 3414.495117 -0.671083 -0.538550 -0.509521
7857.936035 3450.222656 3912.988525 -0.671083 -0.538550 -0.509521
8680.612305 3326.812500 3645.415283 0.202968 -0.732427 0.649888
7960.698242 3419.152100 3974.320801 0.202968 -0.732427 0.649888
8704.163086 3197.231445 3492.021484 0.202968 -0.732427 0.649888
7945.651367 3546.797363 3695.382812 0.016351 0.909879 -0.414552
7942.022461 3634.916016 3888.646973 0.016351 0.909879 -0.414552
8446.745117 3534.242432 3687.591553 0.016351 0.909879 -0.414552
7945.651367 3546.797363 3695.382812 -0.902390 0.385441 -0.192686
7857.936035 3450.222656 3912.988525 -0.902390 0.385441 -0.192686
7942.022461 3634.916016 3888.646973 -0.902390 0.385441 -0.192686
8704.163086 3197.231445 3492.021484 -0.330339 -0.940770 -0.076340
7960.698242 3419.152100 3974.320801 -0.330339 -0.940770 -0.076340
8328.553711 3335.412598 3414.495117 -0.330339 -0.940770 -0.076340
8328.553711 3335.412598 3414.495117 -0.270641 -0.962082 -0.033926
7960.698242 3419.152100 3974.320801 -0.270641 -0.962082 -0.033926
7857.936035 3450.222656 3912.988525 -0.270641 -0.962082 -0.033926
8680.612305 3326.812500 3645.415283 0.402743 0.276671 0.872497
8446.745117 3534.242432 3687.591553 0.402743 0.276671 0.872497
7942.022461 3634.916016 3888.646973 0.402743 0.276671 0.872497
8680.612305 3326.812500 3645.415283 0.425176 0.365576 0.827997
7942.022461 3634.916016 3888.646973 0.425176 0.365576 0.827997
7960.698242 3419.152100 3974.320801 0.425176 0.365576 0.827997
7942.022461 3634.916016 3888.646973 -0.418975 0.303534 0.855761
7857.936035 3450.222656 3912.988525 -0.418975 0.303534 0.855761
7960.698242 3419.152100 3974.320801 -0.418975 0.303534 0.855761
7897.031250 3435.647949 7386.663086 -0.775014 0.498689 -0.388153
7885.819336 3598.477051 7618.248047 -0.775014 0.498689 -0.388153
7968.083984 3625.887939 7489.209473 -0.775014 0.498689 -0.388153
8561.677734 3541.093506 7739.974121 0.432274 0.212011 -0.876465
8513.684570 3299.403809 7657.840820 0.432274 0.212011 -0.876465
7897.031250 3435.647949 7386.663086 0.432274 0.212011 -0.876465
7968.083984 3625.887939 7489.209473 0.407210 0.310842 -0.858811
8561.677734 3541.093506 7739.974121 0.407210 0.310842 -0.858811
7897.031250 3435.647949 7386.663086 0.407210 0.310842 -0.858811
7897.031250 3435.647949 7386.663086 -0.191722 -0.979832 -0.056312
8513.684570 3299.403809 7657.840820 -0.191722 -0.979832 -0.056312
8222.745117 3342.119629 7905.123535 -0.191722 -0.979832 -0.056312
7897.031250 3435.647949 7386.663086 -0.739884 -0.566653 0.362597
8222.745117 3342.119629 7905.123535 -0.739884 -0.566653 0.362597
7885.819336 3598.477051 7618.248047 -0.739884 -0.566653 0.362597
7885.819336 3598.477051 7618.248047 0.040661 0.971782 0.232352
8561.677734 3541.093506 7739.974121 0.040661 0.971782 0.232352
7968.083984 3625.887939 7489.209473 0.040661 0.971782 0.232352
8561.677734 3541.093506 7739.974121 0.731496 0.084662 -0.676569
8718.442383 3193.526611 7865.973145 0.731496 0.084662 -0.676569
8513.684570 3299.403809 7657.840820 0.731496 0.084662 -0.676569
8561.677734 3541.093506 7739.974121 0.000532 0.905665 0.423993
7885.819336 3598.477051 7618.248047 0.000532 0.905665 0.423993
8353.918945 3438.144043 7960.138672 0.000532 0.905665 0.423993
7885.819336 3598.477051 7618.248047 -0.518498 0.237703 0.821375
8222.745117 3342.119629 7905.123535 -0.518498 0.237703 0.821375
8353.918945 3438.144043 7960.138672 -0.518498 0.237703 0.821375
8718.442383 3193.526611 7865.973145 0.690030 0.049458 -0.722089
8561.677734 3541.093506 7739.974121 0.690030 0.049458 -0.722089
8814.892578 3583.120850 7984.825684 0.690030 0.049458 -0.722089
8513.684570 3299.403809 7657.840820 -0.295580 -0.937057 -0.185895
8718.442383 3193.526611 7865.973145 -0.295580 -0.937057 -0.185895
8222.745117 3342.119629 7905.123535 -0.295580 -0.937057 -0.185895
8353.918945 3438.144043 7960.138672 -0.303928 0.940344 0.152905
8814.892578 3583.120850 7984.825684 -0.303928 0.940344 0.152905
8561.677734 3541.093506 7739.974121 -0.303928 0.940344 0.152905
8718.442383 3193.526611 7865.973145 -0.246227 -0.909585 0.334704
8750.933594 3238.375732 8011.756836 -0.246227 -0.909585 0.334704
8222.745117 3342.119629 7905.123535 -0.246227 -0.909585 0.334704
8814.892578 3583.120850 7984.825684 0.968782 -0.191987 -0.156852
8750.933594 3238.375732 8011.756836 0.968782 -0.191987 -0.156852
8718.442383 3193.526611 7865.973145 0.968782 -0.191987 -0.156852
8814.892578 3583.120850 7984.825684 -0.082323 0.092789 0.992277
8353.918945 3438.144043 7960.138672 -0.082323 0.092789 0.992277
8750.933594 3238.375732 8011.756836 -0.082323 0.092789 0.992277
8222.745117 3342.119629 7905.123535 -0.234628 -0.221739 0.946457
8750.933594 3238.375732 8011.756836 -0.234628 -0.221739 0.946457
8353.918945 3438.144043 7960.138672 -0.234628 -0.221739 0.946457
3 0 1 2
3 3 4 5
3 6 7 8
3 9 10 11
3 12 13 14
3 15 16 17
3 18 19 20
3 21 22 23
3 24 25 26
3 27 28 29
3 30 31 32
3 33 34 35
3 36 37 38
3 39 40 41
3 42 43 44
3 45 46 47
3 48 49 50
3 51 52 53
3 54 55 56
3 57 58 59
3 60 61 62
3 63 64 65
3 66 67 68
3 69 70 71
3 72 73 74
3 75 76 77
3 78 79 80
3 81 82 83
3 84 85 86
3 87 88 89
3 90 91 92
3 93 94 95
