ply
format ascii 1.0
comment Created by Blender 2.80 (sub 75) - www.blender.org, source file: 'downsample_ccf.blend'
element vertex 204
property float x
property float y
property float z
property float nx
property float ny
property float nz
element face 68
property list uchar uint vertex_indices
end_header
5964.087891 5328.470215 4568.222168 0.918580 -0.374007 0.127790
5968.392090 5356.031738 4617.947754 0.918580 -0.374007 0.127790
5810.402832 5000.391602 4712.741699 0.918580 -0.374007 0.127790
5719.288574 4597.331543 5108.570801 0.854623 -0.449119 -0.260601
5810.402832 5000.391602 4712.741699 0.854623 -0.449119 -0.260601
5968.392090 5356.031738 4617.947754 0.854623 -0.449119 -0.260601
5770.718750 4998.828613 4937.188477 -0.919105 0.360066 -0.159998
5964.087891 5328.470215 4568.222168 -0.919105 0.360066 -0.159998
5810.402832 5000.391602 4712.741699 -0.919105 0.360066 -0.159998
5770.718750 4998.828613 4937.188477 -0.913024 0.385117 -0.134430
5968.392090 5356.031738 4617.947754 -0.913024 0.385117 -0.134430
5964.087891 5328.470215 4568.222168 -0.913024 0.385117 -0.134430
5477.527832 4709.442383 5160.652344 -0.793452 -0.028184 -0.607980
5810.402832 5000.391602 4712.741699 -0.793452 -0.028184 -0.607980
5657.187500 4219.375000 4948.902832 -0.793452 -0.028184 -0.607980
5657.187500 4219.375000 4948.902832 0.256756 -0.325532 -0.910003
5810.402832 5000.391602 4712.741699 0.256756 -0.325532 -0.910003
5782.973633 4141.785645 5012.148926 0.256756 -0.325532 -0.910003
5770.718750 4998.828613 4937.188477 -0.744134 0.655847 -0.127002
5810.402832 5000.391602 4712.741699 -0.744134 0.655847 -0.127002
5477.527832 4709.442383 5160.652344 -0.744134 0.655847 -0.127002
5719.288574 4597.331543 5108.570801 0.725888 0.189279 0.661256
5968.392090 5356.031738 4617.947754 0.725888 0.189279 0.661256
5770.718750 4998.828613 4937.188477 0.725888 0.189279 0.661256
6954.711426 3113.936035 5022.500000 0.154794 0.412045 -0.897919
6713.138672 3112.798096 4980.332520 0.154794 0.412045 -0.897919
6324.726074 3416.766602 5052.860840 0.154794 0.412045 -0.897919
5849.033203 3749.756104 5018.111816 0.481253 0.067801 -0.873956
5657.187500 4219.375000 4948.902832 0.481253 0.067801 -0.873956
5782.973633 4141.785645 5012.148926 0.481253 0.067801 -0.873956
5657.187500 4219.375000 4948.902832 -0.943021 -0.330982 -0.034094
5637.103516 4245.679199 5249.054199 -0.943021 -0.330982 -0.034094
5477.527832 4709.442383 5160.652344 -0.943021 -0.330982 -0.034094
6713.138672 3112.798096 4980.332520 0.092709 -0.856346 -0.508013
6954.711426 3113.936035 5022.500000 0.092709 -0.856346 -0.508013
6873.572754 3047.999512 5118.840332 0.092709 -0.856346 -0.508013
6713.138672 3112.798096 4980.332520 -0.100361 0.107761 -0.989098
6099.573730 3277.066895 5060.486328 -0.100361 0.107761 -0.989098
6324.726074 3416.766602 5052.860840 -0.100361 0.107761 -0.989098
5849.033203 3749.756104 5018.111816 0.016315 -0.080694 -0.996605
6324.726074 3416.766602 5052.860840 0.016315 -0.080694 -0.996605
6099.573730 3277.066895 5060.486328 0.016315 -0.080694 -0.996605
5849.033203 3749.756104 5018.111816 0.516336 0.683812 -0.515557
6085.526855 3664.589111 5142.000977 0.516336 0.683812 -0.515557
6324.726074 3416.766602 5052.860840 0.516336 0.683812 -0.515557
5849.033203 3749.756104 5018.111816 0.482059 0.067944 -0.873500
5782.973633 4141.785645 5012.148926 0.482059 0.067944 -0.873500
6085.526855 3664.589111 5142.000977 0.482059 0.067944 -0.873500
5637.103516 4245.679199 5249.054199 -0.923890 -0.381604 -0.028378
5657.187500 4219.375000 4948.902832 -0.923890 -0.381604 -0.028378
5849.033203 3749.756104 5018.111816 -0.923890 -0.381604 -0.028378
5782.973633 4141.785645 5012.148926 0.953659 0.071456 0.292281
5810.402832 5000.391602 4712.741699 0.953659 0.071456 0.292281
5719.288574 4597.331543 5108.570801 0.953659 0.071456 0.292281
5770.718750 4998.828613 4937.188477 0.839187 0.119020 0.530660
5635.376953 4883.513184 5177.082031 0.839187 0.119020 0.530660
5719.288574 4597.331543 5108.570801 0.839187 0.119020 0.530660
6954.711426 3113.936035 5022.500000 0.333612 0.623097 0.707427
6324.726074 3416.766602 5052.860840 0.333612 0.623097 0.707427
6873.572754 3047.999512 5118.840332 0.333612 0.623097 0.707427
5849.033203 3749.756104 5018.111816 -0.877791 -0.450707 0.162317
6099.573730 3277.066895 5060.486328 -0.877791 -0.450707 0.162317
5637.103516 4245.679199 5249.054199 -0.877791 -0.450707 0.162317
6099.573730 3277.066895 5060.486328 -0.284332 -0.818140 -0.499802
6713.138672 3112.798096 4980.332520 -0.284332 -0.818140 -0.499802
6242.286133 3119.782959 5236.761230 -0.284332 -0.818140 -0.499802
5635.376953 4883.513184 5177.082031 -0.733531 0.673669 -0.090011
5770.718750 4998.828613 4937.188477 -0.733531 0.673669 -0.090011
5477.527832 4709.442383 5160.652344 -0.733531 0.673669 -0.090011
6324.726074 3416.766602 5052.860840 0.521898 0.686064 -0.506891
6085.526855 3664.589111 5142.000977 0.521898 0.686064 -0.506891
6873.572754 3047.999512 5118.840332 0.521898 0.686064 -0.506891
6099.573730 3277.066895 5060.486328 -0.845282 -0.457366 0.276251
6242.286133 3119.782959 5236.761230 -0.845282 -0.457366 0.276251
5637.103516 4245.679199 5249.054199 -0.845282 -0.457366 0.276251
5637.103516 4245.679199 5249.054199 -0.849890 -0.459640 0.257715
6242.286133 3119.782959 5236.761230 -0.849890 -0.459640 0.257715
6006.218750 3580.594727 5280.127441 -0.849890 -0.459640 0.257715
6242.286133 3119.782959 5236.761230 -0.157370 -0.951866 -0.263033
6713.138672 3112.798096 4980.332520 -0.157370 -0.951866 -0.263033
6873.572754 3047.999512 5118.840332 -0.157370 -0.951866 -0.263033
6085.526855 3664.589111 5142.000977 0.678780 0.241667 -0.693437
5782.973633 4141.785645 5012.148926 0.678780 0.241667 -0.693437
5719.288574 4597.331543 5108.570801 0.678780 0.241667 -0.693437
5637.103516 4245.679199 5249.054199 0.769374 0.073683 0.634535
5719.288574 4597.331543 5108.570801 0.769374 0.073683 0.634535
5635.376953 4883.513184 5177.082031 0.769374 0.073683 0.634535
6085.526855 3664.589111 5142.000977 0.489519 0.222427 0.843147
5719.288574 4597.331543 5108.570801 0.489519 0.222427 0.843147
5637.103516 4245.679199 5249.054199 0.489519 0.222427 0.843147
6503.883301 3104.297852 5240.548828 -0.060808 -0.963436 0.260949
6242.286133 3119.782959 5236.761230 -0.060808 -0.963436 0.260949
6873.572754 3047.999512 5118.840332 -0.060808 -0.963436 0.260949
6503.883301 3104.297852 5240.548828 0.340975 0.403905 0.848879
6873.572754 3047.999512 5118.840332 0.340975 0.403905 0.848879
6085.526855 3664.589111 5142.000977 0.340975 0.403905 0.848879
5635.376953 4883.513184 5177.082031 -0.220828 0.108768 0.969229
5477.527832 4709.442383 5160.652344 -0.220828 0.108768 0.969229
5637.103516 4245.679199 5249.054199 -0.220828 0.108768 0.969229
6006.218750 3580.594727 5280.127441 0.668297 0.400196 0.627074
6085.526855 3664.589111 5142.000977 0.668297 0.400196 0.627074
5637.103516 4245.679199 5249.054199 0.668297 0.400196 0.627074
6085.526855 3664.589111 5142.000977 0.556707 0.528420 0.640976
6006.218750 3580.594727 5280.127441 0.556707 0.528420 0.640976
6503.883301 3104.297852 5240.548828 0.556707 0.528420 0.640976
6242.286133 3119.782959 5236.761230 -0.020560 -0.104109 0.994353
6503.883301 3104.297852 5240.548828 -0.020560 -0.104109 0.994353
6006.218750 3580.594727 5280.127441 -0.020560 -0.104109 0.994353
6289.897461 3108.824219 6116.651855 0.491849 0.299341 -0.817606
5726.177246 4086.121826 6135.339844 0.491849 0.299341 -0.817606
6356.208984 3425.381348 6272.440430 0.491849 0.299341 -0.817606
6289.897461 3108.824219 6116.651855 0.275960 0.377258 -0.884038
6356.208984 3425.381348 6272.440430 0.275960 0.377258 -0.884038
6843.078125 3027.329102 6254.554688 0.275960 0.377258 -0.884038
5993.969238 3403.261719 6344.456055 -0.780295 -0.441618 -0.442847
5726.177246 4086.121826 6135.339844 -0.780295 -0.441618 -0.442847
6289.897461 3108.824219 6116.651855 -0.780295 -0.441618 -0.442847
5726.177246 4086.121826 6135.339844 0.904273 0.129997 -0.406684
5647.165039 4918.483398 6225.719238 0.904273 0.129997 -0.406684
5742.529785 4461.546387 6291.705078 0.904273 0.129997 -0.406684
5647.165039 4918.483398 6225.719238 0.034548 0.111124 -0.993206
5726.177246 4086.121826 6135.339844 0.034548 0.111124 -0.993206
5478.450684 4733.379883 6199.140625 0.034548 0.111124 -0.993206
5726.177246 4086.121826 6135.339844 0.695111 0.698279 0.170961
6057.290039 3715.019287 6304.810059 0.695111 0.698279 0.170961
6356.208984 3425.381348 6272.440430 0.695111 0.698279 0.170961
5726.177246 4086.121826 6135.339844 -0.896492 -0.312121 -0.314455
5522.520996 4476.774414 6328.199219 -0.896492 -0.312121 -0.314455
5478.450684 4733.379883 6199.140625 -0.896492 -0.312121 -0.314455
5726.177246 4086.121826 6135.339844 0.657829 0.264986 -0.705013
5742.529785 4461.546387 6291.705078 0.657829 0.264986 -0.705013
6057.290039 3715.019287 6304.810059 0.657829 0.264986 -0.705013
5802.319336 5030.768066 6515.911133 0.859004 0.106977 -0.500668
5742.529785 4461.546387 6291.705078 0.859004 0.106977 -0.500668
5647.165039 4918.483398 6225.719238 0.859004 0.106977 -0.500668
6843.078125 3027.329102 6254.554688 0.372375 0.490854 -0.787654
6356.208984 3425.381348 6272.440430 0.372375 0.490854 -0.787654
6959.516602 3097.776367 6353.504395 0.372375 0.490854 -0.787654
5726.177246 4086.121826 6135.339844 -0.936271 -0.332217 0.114139
5993.969238 3403.261719 6344.456055 -0.936271 -0.332217 0.114139
5775.439941 4036.398193 6394.709473 -0.936271 -0.332217 0.114139
5742.529785 4461.546387 6291.705078 0.530934 0.238136 0.813265
5775.439941 4036.398193 6394.709473 0.530934 0.238136 0.813265
6057.290039 3715.019287 6304.810059 0.530934 0.238136 0.813265
5647.165039 4918.483398 6225.719238 -0.741613 0.655430 0.142904
5478.450684 4733.379883 6199.140625 -0.741613 0.655430 0.142904
5802.319336 5030.768066 6515.911133 -0.741613 0.655430 0.142904
6843.078125 3027.329102 6254.554688 -0.231762 -0.883188 0.407757
6709.344238 3127.419922 6395.335938 -0.231762 -0.883188 0.407757
6289.897461 3108.824219 6116.651855 -0.231762 -0.883188 0.407757
5726.177246 4086.121826 6135.339844 -0.869565 -0.488616 0.071486
5775.439941 4036.398193 6394.709473 -0.869565 -0.488616 0.071486
5522.520996 4476.774414 6328.199219 -0.869565 -0.488616 0.071486
5478.450684 4733.379883 6199.140625 -0.766841 0.178391 0.616549
5522.520996 4476.774414 6328.199219 -0.766841 0.178391 0.616549
5802.319336 5030.768066 6515.911133 -0.766841 0.178391 0.616549
6289.897461 3108.824219 6116.651855 -0.333677 -0.763336 0.553152
6709.344238 3127.419922 6395.335938 -0.333677 -0.763336 0.553152
5993.969238 3403.261719 6344.456055 -0.333677 -0.763336 0.553152
6356.208984 3425.381348 6272.440430 0.143105 0.477982 0.866634
5993.969238 3403.261719 6344.456055 0.143105 0.477982 0.866634
6959.516602 3097.776367 6353.504395 0.143105 0.477982 0.866634
6959.516602 3097.776367 6353.504395 0.000377 -0.814842 0.579683
6709.344238 3127.419922 6395.335938 0.000377 -0.814842 0.579683
6843.078125 3027.329102 6254.554688 0.000377 -0.814842 0.579683
6356.208984 3425.381348 6272.440430 0.189217 0.085961 0.978165
6057.290039 3715.019287 6304.810059 0.189217 0.085961 0.978165
5993.969238 3403.261719 6344.456055 0.189217 0.085961 0.978165
5993.969238 3403.261719 6344.456055 0.352139 0.047349 0.934749
6057.290039 3715.019287 6304.810059 0.352139 0.047349 0.934749
5775.439941 4036.398193 6394.709473 0.352139 0.047349 0.934749
5522.520996 4476.774414 6328.199219 -0.824578 -0.415602 0.383856
5775.439941 4036.398193 6394.709473 -0.824578 -0.415602 0.383856
5636.791504 4393.783691 6483.814453 -0.824578 -0.415602 0.383856
6709.344238 3127.419922 6395.335938 0.199558 0.652397 0.731133
6959.516602 3097.776367 6353.504395 0.199558 0.652397 0.731133
5993.969238 3403.261719 6344.456055 0.199558 0.652397 0.731133
5742.529785 4461.546387 6291.705078 0.829840 0.191241 0.524206
5636.791504 4393.783691 6483.814453 0.829840 0.191241 0.524206
5775.439941 4036.398193 6394.709473 0.829840 0.191241 0.524206
5924.972168 5272.380859 6806.186523 -0.795390 0.038961 0.604845
5522.520996 4476.774414 6328.199219 -0.795390 0.038961 0.604845
5636.791504 4393.783691 6483.814453 -0.795390 0.038961 0.604845
5636.791504 4393.783691 6483.814453 0.860867 -0.378170 0.340435
5742.529785 4461.546387 6291.705078 0.860867 -0.378170 0.340435
5880.803711 5146.587891 6703.022461 0.860867 -0.378170 0.340435
5742.529785 4461.546387 6291.705078 0.903131 0.071871 -0.423308
5802.319336 5030.768066 6515.911133 0.903131 0.071871 -0.423308
5880.803711 5146.587891 6703.022461 0.903131 0.071871 -0.423308
5522.520996 4476.774414 6328.199219 -0.892976 0.450097 0.002676
5924.972168 5272.380859 6806.186523 -0.892976 0.450097 0.002676
5802.319336 5030.768066 6515.911133 -0.892976 0.450097 0.002676
6028.843262 5375.296387 6810.341309 -0.668026 0.685881 -0.288631
5802.319336 5030.768066 6515.911133 -0.668026 0.685881 -0.288631
5924.972168 5272.380859 6806.186523 -0.668026 0.685881 -0.288631
5636.791504 4393.783691 6483.814453 0.954218 -0.295123 -0.048679
5880.803711 5146.587891 6703.022461 0.954218 -0.295123 -0.048679
5924.972168 5272.380859 6806.186523 0.954218 -0.295123 -0.048679
5802.319336 5030.768066 6515.911133 0.844026 -0.535837 -0.022352
6028.843262 5375.296387 6810.341309 0.844026 -0.535837 -0.022352
5880.803711 5146.587891 6703.022461 0.844026 -0.535837 -0.022352
5880.803711 5146.587891 6703.022461 0.597499 -0.623407 0.504339
6028.843262 5375.296387 6810.341309 0.597499 -0.623407 0.504339
5924.972168 5272.380859 6806.186523 0.597499 -0.623407 0.504339
3 0 1 2
3 3 4 5
3 6 7 8
3 9 10 11
3 12 13 14
3 15 16 17
3 18 19 20
3 21 22 23
3 24 25 26
3 27 28 29
3 30 31 32
3 33 34 35
3 36 37 38
3 39 40 41
3 42 43 44
3 45 46 47
3 48 49 50
3 51 52 53
3 54 55 56
3 57 58 59
3 60 61 62
3 63 64 65
3 66 67 68
3 69 70 71
3 72 73 74
3 75 76 77
3 78 79 80
3 81 82 83
3 84 85 86
3 87 88 89
3 90 91 92
3 93 94 95
3 96 97 98
3 99 100 101
3 102 103 104
3 105 106 107
3 108 109 110
3 111 112 113
3 114 115 116
3 117 118 119
3 120 121 122
3 123 124 125
3 126 127 128
3 129 130 131
3 132 133 134
3 135 136 137
3 138 139 140
3 141 142 143
3 144 145 146
3 147 148 149
3 150 151 152
3 153 154 155
3 156 157 158
3 159 160 161
3 162 163 164
3 165 166 167
3 168 169 170
3 171 172 173
3 174 175 176
3 177 178 179
3 180 181 182
3 183 184 185
3 186 187 188
3 189 190 191
3 192 193 194
3 195 196 197
3 198 199 200
3 201 202 203
