ply
format ascii 1.0
comment Created by Blender 2.80 (sub 75) - www.blender.org, source file: 'downsample_ccf.blend'
element vertex 3
property float x
property float y
property float z
property float nx
property float ny
property float nz
element face 1
property list uchar uint vertex_indices
end_header
7976.479980 5765.759766 5650.790039 -0.046286 -0.997572 -0.052035
8000.720215 5762.720215 5687.500000 -0.046286 -0.997572 -0.052035
7978.430176 5761.950195 5722.089844 -0.046286 -0.997572 -0.052035
3 0 1 2
