ply
format ascii 1.0
comment Created by Blender 2.80 (sub 75) - www.blender.org, source file: 'downsample_ccf.blend'
element vertex 132
property float x
property float y
property float z
property float nx
property float ny
property float nz
element face 44
property list uchar uint vertex_indices
end_header
6493.423828 5166.265137 4996.540039 -0.752327 -0.094991 -0.651906
6485.487793 4557.232422 5094.442383 -0.752327 -0.094991 -0.651906
6374.701172 5027.372070 5153.789551 -0.752327 -0.094991 -0.651906
6965.739258 4722.614746 5214.401367 0.289489 -0.155593 -0.944450
6485.487793 4557.232422 5094.442383 0.289489 -0.155593 -0.944450
6493.423828 5166.265137 4996.540039 0.289489 -0.155593 -0.944450
6485.487793 4557.232422 5094.442383 0.413320 -0.017528 0.910417
6558.695312 5184.906250 5073.291016 0.413320 -0.017528 0.910417
6374.701172 5027.372070 5153.789551 0.413320 -0.017528 0.910417
6493.423828 5166.265137 4996.540039 0.417780 -0.001382 -0.908547
6982.813477 5224.350586 5221.489258 0.417780 -0.001382 -0.908547
6965.739258 4722.614746 5214.401367 0.417780 -0.001382 -0.908547
6558.695312 5184.906250 5073.291016 0.731350 -0.449688 -0.512744
6450.989258 4849.550293 5213.779785 0.731350 -0.449688 -0.512744
6493.423828 5166.265137 4996.540039 0.731350 -0.449688 -0.512744
6485.487793 4557.232422 5094.442383 -0.879885 0.086881 -0.467176
6450.989258 4849.550293 5213.779785 -0.879885 0.086881 -0.467176
6558.695312 5184.906250 5073.291016 -0.879885 0.086881 -0.467176
6450.989258 4849.550293 5213.779785 -0.401068 0.554092 0.729470
6982.813477 5224.350586 5221.489258 -0.401068 0.554092 0.729470
6493.423828 5166.265137 4996.540039 -0.401068 0.554092 0.729470
6450.989258 4849.550293 5213.779785 0.184494 -0.242195 -0.952525
6374.701172 5027.372070 5153.789551 0.184494 -0.242195 -0.952525
6982.813477 5224.350586 5221.489258 0.184494 -0.242195 -0.952525
6982.813477 5224.350586 5221.489258 0.296126 -0.685657 -0.664969
6374.701172 5027.372070 5153.789551 0.296126 -0.685657 -0.664969
6558.695312 5184.906250 5073.291016 0.296126 -0.685657 -0.664969
6574.775879 5162.290039 5405.612793 -0.668717 0.730201 0.140083
6493.423828 5166.265137 4996.540039 -0.668717 0.730201 0.140083
6374.701172 5027.372070 5153.789551 -0.668717 0.730201 0.140083
6558.695312 5184.906250 5073.291016 -0.360285 0.929347 0.080681
6493.423828 5166.265137 4996.540039 -0.360285 0.929347 0.080681
6574.775879 5162.290039 5405.612793 -0.360285 0.929347 0.080681
6574.775879 5162.290039 5405.612793 -0.117647 0.990362 0.073092
6982.813477 5224.350586 5221.489258 -0.117647 0.990362 0.073092
6558.695312 5184.906250 5073.291016 -0.117647 0.990362 0.073092
6491.717773 4740.035156 5497.654785 -0.915891 -0.400757 -0.023201
6374.701172 5027.372070 5153.789551 -0.915891 -0.400757 -0.023201
6450.989258 4849.550293 5213.779785 -0.915891 -0.400757 -0.023201
6485.487793 4557.232422 5094.442383 -0.985121 -0.150292 0.083358
6491.717773 4740.035156 5497.654785 -0.985121 -0.150292 0.083358
6450.989258 4849.550293 5213.779785 -0.985121 -0.150292 0.083358
6485.487793 4557.232422 5094.442383 0.207016 -0.892240 0.401313
6965.739258 4722.614746 5214.401367 0.207016 -0.892240 0.401313
6491.717773 4740.035156 5497.654785 0.207016 -0.892240 0.401313
6982.813477 5224.350586 5221.489258 0.195125 0.713519 0.672917
6574.775879 5162.290039 5405.612793 0.195125 0.713519 0.672917
6922.438965 4925.731934 5555.632812 0.195125 0.713519 0.672917
6574.775879 5162.290039 5405.612793 -0.819107 0.271293 0.505435
6374.701172 5027.372070 5153.789551 -0.819107 0.271293 0.505435
6491.717773 4740.035156 5497.654785 -0.819107 0.271293 0.505435
6965.739258 4722.614746 5214.401367 0.988537 -0.035713 0.146697
6982.813477 5224.350586 5221.489258 0.988537 -0.035713 0.146697
6922.438965 4925.731934 5555.632812 0.988537 -0.035713 0.146697
6965.739258 4722.614746 5214.401367 0.279236 -0.809120 0.517060
6922.438965 4925.731934 5555.632812 0.279236 -0.809120 0.517060
6491.717773 4740.035156 5497.654785 0.279236 -0.809120 0.517060
6922.438965 4925.731934 5555.632812 -0.234572 0.250859 0.939173
6574.775879 5162.290039 5405.612793 -0.234572 0.250859 0.939173
6491.717773 4740.035156 5497.654785 -0.234572 0.250859 0.939173
6883.355469 4805.472656 5787.192383 -0.163258 0.550803 -0.818512
6469.694336 5247.826172 6167.374023 -0.163258 0.550803 -0.818512
6865.596680 5288.161133 6115.551270 -0.163258 0.550803 -0.818512
6373.502441 4777.776367 6057.356445 -0.460293 0.290539 -0.838879
6469.694336 5247.826172 6167.374023 -0.460293 0.290539 -0.838879
6883.355469 4805.472656 5787.192383 -0.460293 0.290539 -0.838879
7019.141602 5206.287598 6186.791016 0.566332 0.477713 -0.671610
6883.355469 4805.472656 5787.192383 0.566332 0.477713 -0.671610
6865.596680 5288.161133 6115.551270 0.566332 0.477713 -0.671610
6373.502441 4777.776367 6057.356445 -0.293769 -0.720414 -0.628255
6883.355469 4805.472656 5787.192383 -0.293769 -0.720414 -0.628255
6488.095703 4548.836426 6266.296387 -0.293769 -0.720414 -0.628255
6883.355469 4805.472656 5787.192383 0.971227 -0.199777 -0.129644
7019.141602 5206.287598 6186.791016 0.971227 -0.199777 -0.129644
6942.170410 4795.369629 6243.372559 0.971227 -0.199777 -0.129644
6883.355469 4805.472656 5787.192383 0.472466 -0.877678 -0.080353
6942.170410 4795.369629 6243.372559 0.472466 -0.877678 -0.080353
6488.095703 4548.836426 6266.296387 0.472466 -0.877678 -0.080353
6373.502441 4777.776367 6057.356445 -0.859235 0.276568 -0.430378
6364.759766 5019.080078 6229.876465 -0.859235 0.276568 -0.430378
6469.694336 5247.826172 6167.374023 -0.859235 0.276568 -0.430378
7019.141602 5206.287598 6186.791016 -0.320610 0.203644 0.925061
6865.596680 5288.161133 6115.551270 -0.320610 0.203644 0.925061
6373.502441 4777.776367 6057.356445 -0.320610 0.203644 0.925061
6373.502441 4777.776367 6057.356445 0.191619 -0.566215 0.801675
6552.342285 5188.261230 6304.530762 0.191619 -0.566215 0.801675
6364.759766 5019.080078 6229.876465 0.191619 -0.566215 0.801675
6373.502441 4777.776367 6057.356445 0.545945 -0.593776 0.591078
6865.596680 5288.161133 6115.551270 0.545945 -0.593776 0.591078
6552.342285 5188.261230 6304.530762 0.545945 -0.593776 0.591078
7019.141602 5206.287598 6186.791016 -0.457295 0.803887 -0.380325
6373.502441 4777.776367 6057.356445 -0.457295 0.803887 -0.380325
6716.867676 5122.410645 6372.949707 -0.457295 0.803887 -0.380325
6364.759766 5019.080078 6229.876465 0.444004 -0.099348 -0.890500
6552.342285 5188.261230 6304.530762 0.444004 -0.099348 -0.890500
6521.205566 5050.952637 6304.324707 0.444004 -0.099348 -0.890500
6865.596680 5288.161133 6115.551270 -0.037903 0.908032 0.417183
6469.694336 5247.826172 6167.374023 -0.037903 0.908032 0.417183
6552.342285 5188.261230 6304.530762 -0.037903 0.908032 0.417183
6364.759766 5019.080078 6229.876465 0.427500 -0.663067 -0.614480
6521.205566 5050.952637 6304.324707 0.427500 -0.663067 -0.614480
6472.299316 4977.420410 6349.646484 0.427500 -0.663067 -0.614480
6472.299316 4977.420410 6349.646484 -0.849869 0.522385 -0.069543
6521.205566 5050.952637 6304.324707 -0.849869 0.522385 -0.069543
6373.502441 4777.776367 6057.356445 -0.849869 0.522385 -0.069543
6373.502441 4777.776367 6057.356445 0.019130 0.664794 -0.746782
6521.205566 5050.952637 6304.324707 0.019130 0.664794 -0.746782
6716.867676 5122.410645 6372.949707 0.019130 0.664794 -0.746782
6373.502441 4777.776367 6057.356445 -0.916928 -0.108480 0.384026
6488.095703 4548.836426 6266.296387 -0.916928 -0.108480 0.384026
6472.299316 4977.420410 6349.646484 -0.916928 -0.108480 0.384026
6472.299316 4977.420410 6349.646484 -0.580189 0.451398 0.677953
6469.694336 5247.826172 6167.374023 -0.580189 0.451398 0.677953
6364.759766 5019.080078 6229.876465 -0.580189 0.451398 0.677953
6716.867676 5122.410645 6372.949707 0.355569 -0.079233 -0.931286
6521.205566 5050.952637 6304.324707 0.355569 -0.079233 -0.931286
6552.342285 5188.261230 6304.530762 0.355569 -0.079233 -0.931286
6942.170410 4795.369629 6243.372559 0.520233 0.020115 0.853788
7019.141602 5206.287598 6186.791016 0.520233 0.020115 0.853788
6716.867676 5122.410645 6372.949707 0.520233 0.020115 0.853788
6552.342285 5188.261230 6304.530762 -0.701827 0.393500 0.593798
6469.694336 5247.826172 6167.374023 -0.701827 0.393500 0.593798
6472.299316 4977.420410 6349.646484 -0.701827 0.393500 0.593798
6488.095703 4548.836426 6266.296387 0.148683 -0.183496 0.971711
6942.170410 4795.369629 6243.372559 0.148683 -0.183496 0.971711
6472.299316 4977.420410 6349.646484 0.148683 -0.183496 0.971711
6472.299316 4977.420410 6349.646484 -0.263178 0.296367 0.918098
6716.867676 5122.410645 6372.949707 -0.263178 0.296367 0.918098
6552.342285 5188.261230 6304.530762 -0.263178 0.296367 0.918098
6472.299316 4977.420410 6349.646484 0.093773 -0.310224 0.946027
6942.170410 4795.369629 6243.372559 0.093773 -0.310224 0.946027
6716.867676 5122.410645 6372.949707 0.093773 -0.310224 0.946027
3 0 1 2
3 3 4 5
3 6 7 8
3 9 10 11
3 12 13 14
3 15 16 17
3 18 19 20
3 21 22 23
3 24 25 26
3 27 28 29
3 30 31 32
3 33 34 35
3 36 37 38
3 39 40 41
3 42 43 44
3 45 46 47
3 48 49 50
3 51 52 53
3 54 55 56
3 57 58 59
3 60 61 62
3 63 64 65
3 66 67 68
3 69 70 71
3 72 73 74
3 75 76 77
3 78 79 80
3 81 82 83
3 84 85 86
3 87 88 89
3 90 91 92
3 93 94 95
3 96 97 98
3 99 100 101
3 102 103 104
3 105 106 107
3 108 109 110
3 111 112 113
3 114 115 116
3 117 118 119
3 120 121 122
3 123 124 125
3 126 127 128
3 129 130 131
