ply
format ascii 1.0
comment Created by Blender 2.80 (sub 75) - www.blender.org, source file: 'downsample_ccf.blend'
element vertex 408
property float x
property float y
property float z
property float nx
property float ny
property float nz
element face 136
property list uchar uint vertex_indices
end_header
8571.648438 5094.314453 3514.829346 0.040178 0.228410 -0.972736
8574.447266 4657.374512 3412.346191 0.040178 0.228410 -0.972736
8105.013672 5060.178711 3487.540039 0.040178 0.228410 -0.972736
8797.178711 4467.213867 3520.638184 -0.294161 -0.709330 -0.640562
8592.356445 4491.081543 3588.267334 -0.294161 -0.709330 -0.640562
8574.447266 4657.374512 3412.346191 -0.294161 -0.709330 -0.640562
8797.178711 4467.213867 3520.638184 0.420411 -0.024103 -0.907013
8574.447266 4657.374512 3412.346191 0.420411 -0.024103 -0.907013
8945.913086 4568.709961 3586.881104 0.420411 -0.024103 -0.907013
8945.913086 4568.709961 3586.881104 0.455980 0.205997 -0.865822
8574.447266 4657.374512 3412.346191 0.455980 0.205997 -0.865822
8571.648438 5094.314453 3514.829346 0.455980 0.205997 -0.865822
8574.447266 4657.374512 3412.346191 -0.448204 -0.370473 -0.813549
7899.265625 5061.074219 3600.483887 -0.448204 -0.370473 -0.813549
8105.013672 5060.178711 3487.540039 -0.448204 -0.370473 -0.813549
7899.265625 5061.074219 3600.483887 -0.472407 0.183662 -0.862032
7864.528320 5402.894043 3692.347656 -0.472407 0.183662 -0.862032
8105.013672 5060.178711 3487.540039 -0.472407 0.183662 -0.862032
8078.718750 4840.547363 3753.648193 -0.588100 -0.616794 -0.523167
8574.447266 4657.374512 3412.346191 -0.588100 -0.616794 -0.523167
8592.356445 4491.081543 3588.267334 -0.588100 -0.616794 -0.523167
7899.265625 5061.074219 3600.483887 -0.549637 -0.729728 -0.406691
8574.447266 4657.374512 3412.346191 -0.549637 -0.729728 -0.406691
8078.718750 4840.547363 3753.648193 -0.549637 -0.729728 -0.406691
8105.013672 5060.178711 3487.540039 0.012002 0.519137 -0.854607
7864.528320 5402.894043 3692.347656 0.012002 0.519137 -0.854607
8571.648438 5094.314453 3514.829346 0.012002 0.519137 -0.854607
8945.913086 4568.709961 3586.881104 0.565866 0.297524 -0.768944
8571.648438 5094.314453 3514.829346 0.565866 0.297524 -0.768944
9015.333008 4931.791992 3778.453125 0.565866 0.297524 -0.768944
7864.528320 5402.894043 3692.347656 0.071496 0.615405 -0.784962
8129.977539 5612.301758 3880.699463 0.071496 0.615405 -0.784962
8571.648438 5094.314453 3514.829346 0.071496 0.615405 -0.784962
8129.977539 5612.301758 3880.699463 0.270496 0.698557 -0.662457
8751.509766 5254.451172 3757.134033 0.270496 0.698557 -0.662457
8571.648438 5094.314453 3514.829346 0.270496 0.698557 -0.662457
8797.178711 4467.213867 3520.638184 0.626499 -0.573819 -0.527476
8945.913086 4568.709961 3586.881104 0.626499 -0.573819 -0.527476
8890.769531 4400.464844 3704.412109 0.626499 -0.573819 -0.527476
8592.356445 4491.081543 3588.267334 -0.192245 -0.949740 -0.247053
8797.178711 4467.213867 3520.638184 -0.192245 -0.949740 -0.247053
8890.769531 4400.464844 3704.412109 -0.192245 -0.949740 -0.247053
7899.265625 5061.074219 3600.483887 -0.635844 0.139397 -0.759125
7771.182617 5376.298340 3765.650391 -0.635844 0.139397 -0.759125
7864.528320 5402.894043 3692.347656 -0.635844 0.139397 -0.759125
8592.356445 4491.081543 3588.267334 -0.516750 -0.839349 0.168709
8640.513672 4527.478516 3916.851318 -0.516750 -0.839349 0.168709
8078.718750 4840.547363 3753.648193 -0.516750 -0.839349 0.168709
8945.913086 4568.709961 3586.881104 0.876181 0.082987 -0.474784
9015.333008 4931.791992 3778.453125 0.876181 0.082987 -0.474784
9078.127930 4713.147461 3856.120117 0.876181 0.082987 -0.474784
7771.182617 5376.298340 3765.650391 -0.873464 -0.105904 -0.475231
7899.265625 5061.074219 3600.483887 -0.873464 -0.105904 -0.475231
7795.604004 5145.878418 3772.113037 -0.873464 -0.105904 -0.475231
8890.769531 4400.464844 3704.412109 0.880223 -0.429498 -0.201839
8945.913086 4568.709961 3586.881104 0.880223 -0.429498 -0.201839
9078.127930 4713.147461 3856.120117 0.880223 -0.429498 -0.201839
8592.356445 4491.081543 3588.267334 -0.341103 -0.927535 0.152734
8890.769531 4400.464844 3704.412109 -0.341103 -0.927535 0.152734
8640.513672 4527.478516 3916.851318 -0.341103 -0.927535 0.152734
7899.265625 5061.074219 3600.483887 -0.732136 -0.672209 -0.110053
8078.718750 4840.547363 3753.648193 -0.732136 -0.672209 -0.110053
7795.604004 5145.878418 3772.113037 -0.732136 -0.672209 -0.110053
9015.333008 4931.791992 3778.453125 0.572335 0.421495 -0.703402
8571.648438 5094.314453 3514.829346 0.572335 0.421495 -0.703402
8751.509766 5254.451172 3757.134033 0.572335 0.421495 -0.703402
8890.769531 4400.464844 3704.412109 0.826197 -0.551317 0.115962
9078.127930 4713.147461 3856.120117 0.826197 -0.551317 0.115962
9044.505859 4734.543457 4197.390625 0.826197 -0.551317 0.115962
9015.333008 4931.791992 3778.453125 0.735463 0.577992 -0.353581
8751.509766 5254.451172 3757.134033 0.735463 0.577992 -0.353581
8963.443359 5387.759766 4415.881348 0.735463 0.577992 -0.353581
8640.513672 4527.478516 3916.851318 0.044634 -0.833405 0.550858
8890.769531 4400.464844 3704.412109 0.044634 -0.833405 0.550858
9044.505859 4734.543457 4197.390625 0.044634 -0.833405 0.550858
9078.127930 4713.147461 3856.120117 0.965240 0.243306 -0.095468
9015.333008 4931.791992 3778.453125 0.965240 0.243306 -0.095468
8963.443359 5387.759766 4415.881348 0.965240 0.243306 -0.095468
7795.604004 5145.878418 3772.113037 -0.994430 -0.105400 -0.000156
7746.421875 5609.212402 4236.482422 -0.994430 -0.105400 -0.000156
7771.182617 5376.298340 3765.650391 -0.994430 -0.105400 -0.000156
8194.535156 5764.596680 4203.514160 0.374318 0.807531 -0.455828
8751.509766 5254.451172 3757.134033 0.374318 0.807531 -0.455828
8129.977539 5612.301758 3880.699463 0.374318 0.807531 -0.455828
8640.513672 4527.478516 3916.851318 -0.525206 -0.666953 0.528519
8400.222656 4873.525879 4114.753418 -0.525206 -0.666953 0.528519
8078.718750 4840.547363 3753.648193 -0.525206 -0.666953 0.528519
7795.604004 5145.878418 3772.113037 -0.606285 -0.594138 0.528601
8078.718750 4840.547363 3753.648193 -0.606285 -0.594138 0.528601
7746.421875 5609.212402 4236.482422 -0.606285 -0.594138 0.528601
7792.931641 5709.843262 4125.115234 -0.589735 0.609482 -0.529853
7864.528320 5402.894043 3692.347656 -0.589735 0.609482 -0.529853
7771.182617 5376.298340 3765.650391 -0.589735 0.609482 -0.529853
8078.718750 4840.547363 3753.648193 -0.612364 -0.522884 0.592961
8400.222656 4873.525879 4114.753418 -0.612364 -0.522884 0.592961
8134.073730 5292.976562 4209.774902 -0.612364 -0.522884 0.592961
8078.718750 4840.547363 3753.648193 -0.215084 -0.680186 0.700775
8134.073730 5292.976562 4209.774902 -0.215084 -0.680186 0.700775
7842.848633 5692.391113 4508.070801 -0.215084 -0.680186 0.700775
8078.718750 4840.547363 3753.648193 -0.703127 -0.570538 0.424381
7842.848633 5692.391113 4508.070801 -0.703127 -0.570538 0.424381
7746.421875 5609.212402 4236.482422 -0.703127 -0.570538 0.424381
8129.977539 5612.301758 3880.699463 -0.200196 0.783219 -0.588634
7864.528320 5402.894043 3692.347656 -0.200196 0.783219 -0.588634
7792.931641 5709.843262 4125.115234 -0.200196 0.783219 -0.588634
7771.182617 5376.298340 3765.650391 -0.952952 0.248778 -0.173182
7746.421875 5609.212402 4236.482422 -0.952952 0.248778 -0.173182
7792.931641 5709.843262 4125.115234 -0.952952 0.248778 -0.173182
8129.977539 5612.301758 3880.699463 -0.078159 0.884147 -0.460626
7792.931641 5709.843262 4125.115234 -0.078159 0.884147 -0.460626
8007.670410 5860.694824 4378.229980 -0.078159 0.884147 -0.460626
8963.443359 5387.759766 4415.881348 0.486807 0.812384 -0.321016
8751.509766 5254.451172 3757.134033 0.486807 0.812384 -0.321016
8194.535156 5764.596680 4203.514160 0.486807 0.812384 -0.321016
8129.977539 5612.301758 3880.699463 0.055396 0.898697 -0.435058
8007.670410 5860.694824 4378.229980 0.055396 0.898697 -0.435058
8194.535156 5764.596680 4203.514160 0.055396 0.898697 -0.435058
8977.957031 5309.129883 4456.452148 0.984300 0.176181 -0.010665
9078.127930 4713.147461 3856.120117 0.984300 0.176181 -0.010665
8963.443359 5387.759766 4415.881348 0.984300 0.176181 -0.010665
8640.513672 4527.478516 3916.851318 -0.090667 -0.734406 0.672628
9044.505859 4734.543457 4197.390625 -0.090667 -0.734406 0.672628
8643.535156 4972.162598 4402.785156 -0.090667 -0.734406 0.672628
9078.127930 4713.147461 3856.120117 0.992966 0.072961 0.093253
8977.957031 5309.129883 4456.452148 0.992966 0.072961 0.093253
9044.505859 4734.543457 4197.390625 0.992966 0.072961 0.093253
7792.931641 5709.843262 4125.115234 -0.661463 0.740322 0.119958
7842.848633 5692.391113 4508.070801 -0.661463 0.740322 0.119958
8007.670410 5860.694824 4378.229980 -0.661463 0.740322 0.119958
8640.513672 4527.478516 3916.851318 -0.258806 -0.711788 0.652976
8643.535156 4972.162598 4402.785156 -0.258806 -0.711788 0.652976
8265.536133 5329.804199 4642.819824 -0.258806 -0.711788 0.652976
8640.513672 4527.478516 3916.851318 -0.615366 -0.667273 0.419608
8265.536133 5329.804199 4642.819824 -0.615366 -0.667273 0.419608
8400.222656 4873.525879 4114.753418 -0.615366 -0.667273 0.419608
7842.848633 5692.391113 4508.070801 -0.835281 0.533448 0.133187
7792.931641 5709.843262 4125.115234 -0.835281 0.533448 0.133187
7746.421875 5609.212402 4236.482422 -0.835281 0.533448 0.133187
9044.505859 4734.543457 4197.390625 0.272085 -0.324060 0.906066
8963.359375 5142.986328 4367.840332 0.272085 -0.324060 0.906066
8643.535156 4972.162598 4402.785156 0.272085 -0.324060 0.906066
9044.505859 4734.543457 4197.390625 -0.340809 -0.418935 0.841631
8977.957031 5309.129883 4456.452148 -0.340809 -0.418935 0.841631
8963.359375 5142.986328 4367.840332 -0.340809 -0.418935 0.841631
8963.359375 5142.986328 4367.840332 -0.105912 0.385778 0.916492
8846.899414 5157.997070 4348.063477 -0.105912 0.385778 0.916492
8643.535156 4972.162598 4402.785156 -0.105912 0.385778 0.916492
8010.393555 5669.166016 4659.586426 -0.516933 -0.721249 0.461064
7842.848633 5692.391113 4508.070801 -0.516933 -0.721249 0.461064
8134.073730 5292.976562 4209.774902 -0.516933 -0.721249 0.461064
8963.359375 5142.986328 4367.840332 -0.177943 -0.919802 0.349716
8683.728516 5317.226562 4683.834473 -0.177943 -0.919802 0.349716
8846.899414 5157.997070 4348.063477 -0.177943 -0.919802 0.349716
7842.848633 5692.391113 4508.070801 -0.368920 0.766669 0.525468
8010.393555 5669.166016 4659.586426 -0.368920 0.766669 0.525468
8007.670410 5860.694824 4378.229980 -0.368920 0.766669 0.525468
8493.705078 5379.266113 4711.627930 -0.098416 -0.624196 0.775044
8265.536133 5329.804199 4642.819824 -0.098416 -0.624196 0.775044
8643.535156 4972.162598 4402.785156 -0.098416 -0.624196 0.775044
8265.536133 5329.804199 4642.819824 -0.779173 -0.558749 0.284057
8134.073730 5292.976562 4209.774902 -0.779173 -0.558749 0.284057
8400.222656 4873.525879 4114.753418 -0.779173 -0.558749 0.284057
8846.899414 5157.997070 4348.063477 0.542477 -0.371828 0.753302
8493.705078 5379.266113 4711.627930 0.542477 -0.371828 0.753302
8643.535156 4972.162598 4402.785156 0.542477 -0.371828 0.753302
8846.899414 5157.997070 4348.063477 -0.253524 -0.915922 0.311147
8683.728516 5317.226562 4683.834473 -0.253524 -0.915922 0.311147
8493.705078 5379.266113 4711.627930 -0.253524 -0.915922 0.311147
8682.307617 5479.376953 4803.598633 0.576672 -0.423336 0.698739
8963.359375 5142.986328 4367.840332 0.576672 -0.423336 0.698739
8977.957031 5309.129883 4456.452148 0.576672 -0.423336 0.698739
8194.535156 5764.596680 4203.514160 0.443990 0.895853 -0.017879
8007.670410 5860.694824 4378.229980 0.443990 0.895853 -0.017879
8963.443359 5387.759766 4415.881348 0.443990 0.895853 -0.017879
8683.728516 5317.226562 4683.834473 0.477373 -0.519339 0.708804
8963.359375 5142.986328 4367.840332 0.477373 -0.519339 0.708804
8682.307617 5479.376953 4803.598633 0.477373 -0.519339 0.708804
8977.957031 5309.129883 4456.452148 0.786410 0.391631 0.477688
8963.443359 5387.759766 4415.881348 0.786410 0.391631 0.477688
8682.307617 5479.376953 4803.598633 0.786410 0.391631 0.477688
8134.073730 5292.976562 4209.774902 -0.760460 -0.585603 0.280660
8265.536133 5329.804199 4642.819824 -0.760460 -0.585603 0.280660
8010.393555 5669.166016 4659.586426 -0.760460 -0.585603 0.280660
8265.536133 5329.804199 4642.819824 0.015891 -0.836110 0.548332
8493.705078 5379.266113 4711.627930 0.015891 -0.836110 0.548332
8457.789062 5510.253906 4912.402344 0.015891 -0.836110 0.548332
8377.557617 5624.126465 4883.101562 -0.235459 0.802341 0.548460
8007.670410 5860.694824 4378.229980 -0.235459 0.802341 0.548460
8010.393555 5669.166016 4659.586426 -0.235459 0.802341 0.548460
8682.307617 5479.376953 4803.598633 0.450987 0.884702 0.117959
8963.443359 5387.759766 4415.881348 0.450987 0.884702 0.117959
8377.557617 5624.126465 4883.101562 0.450987 0.884702 0.117959
8010.393555 5669.166016 4659.586426 -0.508969 -0.419787 0.751485
8265.536133 5329.804199 4642.819824 -0.508969 -0.419787 0.751485
8377.557617 5624.126465 4883.101562 -0.508969 -0.419787 0.751485
8963.443359 5387.759766 4415.881348 0.438289 0.893523 0.097573
8007.670410 5860.694824 4378.229980 0.438289 0.893523 0.097573
8377.557617 5624.126465 4883.101562 0.438289 0.893523 0.097573
8683.728516 5317.226562 4683.834473 -0.198527 -0.836723 0.510375
8457.789062 5510.253906 4912.402344 -0.198527 -0.836723 0.510375
8493.705078 5379.266113 4711.627930 -0.198527 -0.836723 0.510375
8682.307617 5479.376953 4803.598633 0.295202 -0.565963 0.769767
8457.789062 5510.253906 4912.402344 0.295202 -0.565963 0.769767
8683.728516 5317.226562 4683.834473 0.295202 -0.565963 0.769767
8265.536133 5329.804199 4642.819824 -0.671295 -0.298397 0.678471
8457.789062 5510.253906 4912.402344 -0.671295 -0.298397 0.678471
8377.557617 5624.126465 4883.101562 -0.671295 -0.298397 0.678471
8377.557617 5624.126465 4883.101562 0.432655 0.498184 0.751414
8457.789062 5510.253906 4912.402344 0.432655 0.498184 0.751414
8682.307617 5479.376953 4803.598633 0.432655 0.498184 0.751414
8720.857422 5456.312988 6607.339355 0.248195 -0.546515 -0.799826
8622.833008 5354.089844 6646.769531 0.248195 -0.546515 -0.799826
8434.597656 5555.229980 6450.920410 0.248195 -0.546515 -0.799826
8434.597656 5555.229980 6450.920410 -0.183959 -0.768667 -0.612626
8622.833008 5354.089844 6646.769531 -0.183959 -0.768667 -0.612626
8430.405273 5410.915527 6633.251953 -0.183959 -0.768667 -0.612626
8720.857422 5456.312988 6607.339355 0.467191 0.816809 -0.338461
8434.597656 5555.229980 6450.920410 0.467191 0.816809 -0.338461
8307.332031 5666.825684 6544.564941 0.467191 0.816809 -0.338461
8430.405273 5410.915527 6633.251953 -0.753091 -0.507343 -0.418875
8307.332031 5666.825684 6544.564941 -0.753091 -0.507343 -0.418875
8434.597656 5555.229980 6450.920410 -0.753091 -0.507343 -0.418875
8307.332031 5666.825684 6544.564941 -0.340745 -0.449951 -0.825492
8430.405273 5410.915527 6633.251953 -0.340745 -0.449951 -0.825492
8107.350586 5600.458496 6663.287598 -0.340745 -0.449951 -0.825492
8720.857422 5456.312988 6607.339355 0.467858 0.865062 -0.181043
8307.332031 5666.825684 6544.564941 0.467858 0.865062 -0.181043
8955.354492 5393.468262 6913.049805 0.467858 0.865062 -0.181043
8107.350586 5600.458496 6663.287598 -0.401564 -0.570948 -0.716076
8430.405273 5410.915527 6633.251953 -0.401564 -0.570948 -0.716076
8334.685547 5138.260742 6904.325684 -0.401564 -0.570948 -0.716076
8549.633789 5026.467285 6939.467285 -0.218058 -0.648517 -0.729299
8334.685547 5138.260742 6904.325684 -0.218058 -0.648517 -0.729299
8430.405273 5410.915527 6633.251953 -0.218058 -0.648517 -0.729299
8879.734375 5337.243652 7318.500000 0.291097 0.938740 0.184469
8955.354492 5393.468262 6913.049805 0.291097 0.938740 0.184469
8307.332031 5666.825684 6544.564941 0.291097 0.938740 0.184469
8307.332031 5666.825684 6544.564941 -0.531143 0.439658 -0.724285
7871.397949 5678.393066 6871.271973 -0.531143 0.439658 -0.724285
7795.904785 5715.725586 6949.295410 -0.531143 0.439658 -0.724285
8307.332031 5666.825684 6544.564941 -0.560469 0.330120 -0.759537
8107.350586 5600.458496 6663.287598 -0.560469 0.330120 -0.759537
7871.397949 5678.393066 6871.271973 -0.560469 0.330120 -0.759537
8622.833008 5354.089844 6646.769531 0.367701 -0.619961 -0.693141
8720.857422 5456.312988 6607.339355 0.367701 -0.619961 -0.693141
8944.834961 5184.413086 6969.349609 0.367701 -0.619961 -0.693141
8307.332031 5666.825684 6544.564941 0.553531 0.830976 -0.055518
8073.087891 5850.756836 6962.104980 0.553531 0.830976 -0.055518
8879.734375 5337.243652 7318.500000 0.553531 0.830976 -0.055518
8549.633789 5026.467285 6939.467285 0.435683 -0.474237 -0.765035
8430.405273 5410.915527 6633.251953 0.435683 -0.474237 -0.765035
8872.826172 5162.975586 7038.903320 0.435683 -0.474237 -0.765035
8149.112793 5274.290039 7179.112793 -0.584993 -0.706052 -0.399091
7871.397949 5678.393066 6871.271973 -0.584993 -0.706052 -0.399091
8107.350586 5600.458496 6663.287598 -0.584993 -0.706052 -0.399091
7795.904785 5715.725586 6949.295410 -0.349885 0.768975 -0.535031
8073.087891 5850.756836 6962.104980 -0.349885 0.768975 -0.535031
8307.332031 5666.825684 6544.564941 -0.349885 0.768975 -0.535031
8622.833008 5354.089844 6646.769531 -0.098296 -0.917814 -0.384650
8944.834961 5184.413086 6969.349609 -0.098296 -0.917814 -0.384650
8872.826172 5162.975586 7038.903320 -0.098296 -0.917814 -0.384650
8622.833008 5354.089844 6646.769531 -0.252381 -0.923416 -0.289147
8872.826172 5162.975586 7038.903320 -0.252381 -0.923416 -0.289147
8430.405273 5410.915527 6633.251953 -0.252381 -0.923416 -0.289147
8149.112793 5274.290039 7179.112793 -0.798632 -0.535767 -0.274119
8107.350586 5600.458496 6663.287598 -0.798632 -0.535767 -0.274119
8334.685547 5138.260742 6904.325684 -0.798632 -0.535767 -0.274119
8944.834961 5184.413086 6969.349609 0.755666 -0.205501 -0.621883
8720.857422 5456.312988 6607.339355 0.755666 -0.205501 -0.621883
8955.354492 5393.468262 6913.049805 0.755666 -0.205501 -0.621883
8628.072266 4647.283203 7295.893066 -0.247863 -0.690258 -0.679785
8334.685547 5138.260742 6904.325684 -0.247863 -0.690258 -0.679785
8549.633789 5026.467285 6939.467285 -0.247863 -0.690258 -0.679785
8992.180664 4894.212402 7076.994629 0.295644 -0.004100 -0.955289
8549.633789 5026.467285 6939.467285 0.295644 -0.004100 -0.955289
8872.826172 5162.975586 7038.903320 0.295644 -0.004100 -0.955289
7795.904785 5715.725586 6949.295410 -0.431357 0.895701 -0.107940
7815.137207 5757.674805 7220.536621 -0.431357 0.895701 -0.107940
8073.087891 5850.756836 6962.104980 -0.431357 0.895701 -0.107940
8549.633789 5026.467285 6939.467285 0.023253 -0.682159 -0.730834
8992.180664 4894.212402 7076.994629 0.023253 -0.682159 -0.730834
8628.072266 4647.283203 7295.893066 0.023253 -0.682159 -0.730834
8992.180664 4894.212402 7076.994629 -0.588841 -0.363789 -0.721751
8872.826172 5162.975586 7038.903320 -0.588841 -0.363789 -0.721751
8944.834961 5184.413086 6969.349609 -0.588841 -0.363789 -0.721751
8992.180664 4894.212402 7076.994629 0.415530 -0.255965 -0.872821
8944.834961 5184.413086 6969.349609 0.415530 -0.255965 -0.872821
8955.354492 5393.468262 6913.049805 0.415530 -0.255965 -0.872821
8992.180664 4894.212402 7076.994629 0.971602 -0.006008 -0.236544
8955.354492 5393.468262 6913.049805 0.971602 -0.006008 -0.236544
9076.567383 4939.904297 7422.451660 0.971602 -0.006008 -0.236544
7871.397949 5678.393066 6871.271973 -0.277046 -0.695465 -0.663004
8149.112793 5274.290039 7179.112793 -0.277046 -0.695465 -0.663004
7935.018066 5017.759277 7537.666016 -0.277046 -0.695465 -0.663004
7871.397949 5678.393066 6871.271973 -0.723697 -0.523405 -0.449790
7935.018066 5017.759277 7537.666016 -0.723697 -0.523405 -0.449790
7795.904785 5715.725586 6949.295410 -0.723697 -0.523405 -0.449790
9036.769531 4743.443848 7184.674805 0.962551 0.106662 -0.249235
8992.180664 4894.212402 7076.994629 0.962551 0.106662 -0.249235
9076.567383 4939.904297 7422.451660 0.962551 0.106662 -0.249235
8073.087891 5850.756836 6962.104980 0.047283 0.923805 0.379932
7815.137207 5757.674805 7220.536621 0.047283 0.923805 0.379932
8217.583008 5659.102539 7410.129883 0.047283 0.923805 0.379932
8217.583008 5659.102539 7410.129883 0.450962 0.863943 0.224132
8879.734375 5337.243652 7318.500000 0.450962 0.863943 0.224132
8073.087891 5850.756836 6962.104980 0.450962 0.863943 0.224132
9036.769531 4743.443848 7184.674805 0.980629 -0.195862 -0.002304
9076.567383 4939.904297 7422.451660 0.980629 -0.195862 -0.002304
8989.620117 4500.853027 7739.484863 0.980629 -0.195862 -0.002304
7751.979004 5352.631348 7572.877930 -0.981293 0.188217 0.040470
7815.137207 5757.674805 7220.536621 -0.981293 0.188217 0.040470
7795.904785 5715.725586 6949.295410 -0.981293 0.188217 0.040470
8628.072266 4647.283203 7295.893066 -0.077876 -0.594581 -0.800256
8992.180664 4894.212402 7076.994629 -0.077876 -0.594581 -0.800256
9036.769531 4743.443848 7184.674805 -0.077876 -0.594581 -0.800256
8628.072266 4647.283203 7295.893066 -0.758633 -0.617953 -0.206422
8149.112793 5274.290039 7179.112793 -0.758633 -0.617953 -0.206422
8334.685547 5138.260742 6904.325684 -0.758633 -0.617953 -0.206422
8628.072266 4647.283203 7295.893066 0.026127 -0.801702 -0.597152
9036.769531 4743.443848 7184.674805 0.026127 -0.801702 -0.597152
8931.498047 4414.028809 7622.322754 0.026127 -0.801702 -0.597152
9036.769531 4743.443848 7184.674805 0.890783 -0.439276 -0.116372
8989.620117 4500.853027 7739.484863 0.890783 -0.439276 -0.116372
8931.498047 4414.028809 7622.322754 0.890783 -0.439276 -0.116372
8217.583008 5659.102539 7410.129883 -0.051642 0.836987 0.544780
7815.137207 5757.674805 7220.536621 -0.051642 0.836987 0.544780
7951.674316 5513.381836 7608.805176 -0.051642 0.836987 0.544780
7795.904785 5715.725586 6949.295410 -0.775218 -0.490285 -0.398319
7935.018066 5017.759277 7537.666016 -0.775218 -0.490285 -0.398319
7825.776855 5078.215820 7675.858887 -0.775218 -0.490285 -0.398319
7825.776855 5078.215820 7675.858887 -0.902683 -0.341167 -0.262238
7751.979004 5352.631348 7572.877930 -0.902683 -0.341167 -0.262238
7795.904785 5715.725586 6949.295410 -0.902683 -0.341167 -0.262238
8149.112793 5274.290039 7179.112793 -0.515688 -0.520655 -0.680429
8628.072266 4647.283203 7295.893066 -0.515688 -0.520655 -0.680429
7935.018066 5017.759277 7537.666016 -0.515688 -0.520655 -0.680429
8602.743164 4459.890625 7745.991699 -0.267464 -0.884118 -0.383142
8628.072266 4647.283203 7295.893066 -0.267464 -0.884118 -0.383142
8931.498047 4414.028809 7622.322754 -0.267464 -0.884118 -0.383142
8955.354492 5393.468262 6913.049805 0.848506 0.479115 0.224694
8879.734375 5337.243652 7318.500000 0.848506 0.479115 0.224694
9076.567383 4939.904297 7422.451660 0.848506 0.479115 0.224694
8602.743164 4459.890625 7745.991699 -0.533680 -0.769649 -0.350466
7935.018066 5017.759277 7537.666016 -0.533680 -0.769649 -0.350466
8628.072266 4647.283203 7295.893066 -0.533680 -0.769649 -0.350466
9076.567383 4939.904297 7422.451660 0.720090 0.486226 0.495031
8879.734375 5337.243652 7318.500000 0.720090 0.486226 0.495031
8868.573242 4859.679199 7803.805664 0.720090 0.486226 0.495031
7751.979004 5352.631348 7572.877930 -0.574676 0.586291 0.570974
7951.674316 5513.381836 7608.805176 -0.574676 0.586291 0.570974
7815.137207 5757.674805 7220.536621 -0.574676 0.586291 0.570974
8879.734375 5337.243652 7318.500000 0.577527 0.575205 0.579312
8556.603516 5142.682129 7833.817383 0.577527 0.575205 0.579312
8868.573242 4859.679199 7803.805664 0.577527 0.575205 0.579312
8556.603516 5142.682129 7833.817383 0.427004 0.724376 0.541246
8879.734375 5337.243652 7318.500000 0.427004 0.724376 0.541246
8217.583008 5659.102539 7410.129883 0.427004 0.724376 0.541246
8799.621094 4406.963867 7763.858398 -0.228632 -0.938190 -0.259860
8602.743164 4459.890625 7745.991699 -0.228632 -0.938190 -0.259860
8931.498047 4414.028809 7622.322754 -0.228632 -0.938190 -0.259860
7935.018066 5017.759277 7537.666016 -0.608846 -0.780897 -0.139666
8602.743164 4459.890625 7745.991699 -0.608846 -0.780897 -0.139666
7825.776855 5078.215820 7675.858887 -0.608846 -0.780897 -0.139666
9076.567383 4939.904297 7422.451660 0.843316 0.194695 0.500911
8868.573242 4859.679199 7803.805664 0.843316 0.194695 0.500911
8989.620117 4500.853027 7739.484863 0.843316 0.194695 0.500911
8931.498047 4414.028809 7622.322754 0.448698 -0.809971 0.377647
8989.620117 4500.853027 7739.484863 0.448698 -0.809971 0.377647
8799.621094 4406.963867 7763.858398 0.448698 -0.809971 0.377647
8176.989746 4836.645996 7876.151855 -0.622892 -0.763228 0.171724
7825.776855 5078.215820 7675.858887 -0.622892 -0.763228 0.171724
8602.743164 4459.890625 7745.991699 -0.622892 -0.763228 0.171724
7951.674316 5513.381836 7608.805176 -0.504357 0.463753 0.728394
7751.979004 5352.631348 7572.877930 -0.504357 0.463753 0.728394
7990.687500 5195.124512 7838.446289 -0.504357 0.463753 0.728394
8556.603516 5142.682129 7833.817383 0.155617 0.685606 0.711145
8217.583008 5659.102539 7410.129883 0.155617 0.685606 0.711145
7951.674316 5513.381836 7608.805176 0.155617 0.685606 0.711145
7825.776855 5078.215820 7675.858887 -0.723157 0.063617 0.687747
7990.687500 5195.124512 7838.446289 -0.723157 0.063617 0.687747
7751.979004 5352.631348 7572.877930 -0.723157 0.063617 0.687747
8629.830078 4670.371582 7967.157715 0.324090 -0.438192 0.838423
8799.621094 4406.963867 7763.858398 0.324090 -0.438192 0.838423
8989.620117 4500.853027 7739.484863 0.324090 -0.438192 0.838423
7825.776855 5078.215820 7675.858887 -0.596281 -0.228958 0.769433
8176.989746 4836.645996 7876.151855 -0.596281 -0.228958 0.769433
7990.687500 5195.124512 7838.446289 -0.596281 -0.228958 0.769433
8556.603516 5142.682129 7833.817383 0.061169 0.588961 0.805843
7951.674316 5513.381836 7608.805176 0.061169 0.588961 0.805843
7990.687500 5195.124512 7838.446289 0.061169 0.588961 0.805843
8602.743164 4459.890625 7745.991699 -0.246669 -0.686739 0.683772
8799.621094 4406.963867 7763.858398 -0.246669 -0.686739 0.683772
8629.830078 4670.371582 7967.157715 -0.246669 -0.686739 0.683772
8989.620117 4500.853027 7739.484863 0.545825 0.034057 0.837206
8868.573242 4859.679199 7803.805664 0.545825 0.034057 0.837206
8629.830078 4670.371582 7967.157715 0.545825 0.034057 0.837206
8629.830078 4670.371582 7967.157715 0.033465 0.276345 0.960476
8556.603516 5142.682129 7833.817383 0.033465 0.276345 0.960476
7990.687500 5195.124512 7838.446289 0.033465 0.276345 0.960476
8176.989746 4836.645996 7876.151855 -0.371751 -0.649312 0.663472
8602.743164 4459.890625 7745.991699 -0.371751 -0.649312 0.663472
8629.830078 4670.371582 7967.157715 -0.371751 -0.649312 0.663472
8868.573242 4859.679199 7803.805664 0.361273 0.304798 0.881238
8556.603516 5142.682129 7833.817383 0.361273 0.304798 0.881238
8629.830078 4670.371582 7967.157715 0.361273 0.304798 0.881238
8629.830078 4670.371582 7967.157715 -0.196711 0.000896 0.980461
7990.687500 5195.124512 7838.446289 -0.196711 0.000896 0.980461
8176.989746 4836.645996 7876.151855 -0.196711 0.000896 0.980461
3 0 1 2
3 3 4 5
3 6 7 8
3 9 10 11
3 12 13 14
3 15 16 17
3 18 19 20
3 21 22 23
3 24 25 26
3 27 28 29
3 30 31 32
3 33 34 35
3 36 37 38
3 39 40 41
3 42 43 44
3 45 46 47
3 48 49 50
3 51 52 53
3 54 55 56
3 57 58 59
3 60 61 62
3 63 64 65
3 66 67 68
3 69 70 71
3 72 73 74
3 75 76 77
3 78 79 80
3 81 82 83
3 84 85 86
3 87 88 89
3 90 91 92
3 93 94 95
3 96 97 98
3 99 100 101
3 102 103 104
3 105 106 107
3 108 109 110
3 111 112 113
3 114 115 116
3 117 118 119
3 120 121 122
3 123 124 125
3 126 127 128
3 129 130 131
3 132 133 134
3 135 136 137
3 138 139 140
3 141 142 143
3 144 145 146
3 147 148 149
3 150 151 152
3 153 154 155
3 156 157 158
3 159 160 161
3 162 163 164
3 165 166 167
3 168 169 170
3 171 172 173
3 174 175 176
3 177 178 179
3 180 181 182
3 183 184 185
3 186 187 188
3 189 190 191
3 192 193 194
3 195 196 197
3 198 199 200
3 201 202 203
3 204 205 206
3 207 208 209
3 210 211 212
3 213 214 215
3 216 217 218
3 219 220 221
3 222 223 224
3 225 226 227
3 228 229 230
3 231 232 233
3 234 235 236
3 237 238 239
3 240 241 242
3 243 244 245
3 246 247 248
3 249 250 251
3 252 253 254
3 255 256 257
3 258 259 260
3 261 262 263
3 264 265 266
3 267 268 269
3 270 271 272
3 273 274 275
3 276 277 278
3 279 280 281
3 282 283 284
3 285 286 287
3 288 289 290
3 291 292 293
3 294 295 296
3 297 298 299
3 300 301 302
3 303 304 305
3 306 307 308
3 309 310 311
3 312 313 314
3 315 316 317
3 318 319 320
3 321 322 323
3 324 325 326
3 327 328 329
3 330 331 332
3 333 334 335
3 336 337 338
3 339 340 341
3 342 343 344
3 345 346 347
3 348 349 350
3 351 352 353
3 354 355 356
3 357 358 359
3 360 361 362
3 363 364 365
3 366 367 368
3 369 370 371
3 372 373 374
3 375 376 377
3 378 379 380
3 381 382 383
3 384 385 386
3 387 388 389
3 390 391 392
3 393 394 395
3 396 397 398
3 399 400 401
3 402 403 404
3 405 406 407
