ply
format ascii 1.0
comment Created by Blender 2.80 (sub 75) - www.blender.org, source file: 'downsample_ccf.blend'
element vertex 132
property float x
property float y
property float z
property float nx
property float ny
property float nz
element face 44
property list uchar uint vertex_indices
end_header
10349.555664 6558.754395 4125.770508 0.223364 -0.373238 -0.900445
10143.679688 6311.770996 4177.076660 0.223364 -0.373238 -0.900445
10047.192383 6686.179688 3997.948242 0.223364 -0.373238 -0.900445
10047.192383 6686.179688 3997.948242 -0.339209 0.328030 -0.881665
9593.608398 6675.754395 4168.579590 -0.339209 0.328030 -0.881665
9761.594727 6911.008301 4191.477051 -0.339209 0.328030 -0.881665
9729.753906 6147.380371 4175.245117 0.159781 -0.392226 -0.905885
10047.192383 6686.179688 3997.948242 0.159781 -0.392226 -0.905885
10143.679688 6311.770996 4177.076660 0.159781 -0.392226 -0.905885
9593.608398 6675.754395 4168.579590 -0.348233 -0.101485 -0.931898
10047.192383 6686.179688 3997.948242 -0.348233 -0.101485 -0.931898
9729.753906 6147.380371 4175.245117 -0.348233 -0.101485 -0.931898
10349.555664 6558.754395 4125.770508 0.429328 0.120935 -0.895015
10047.192383 6686.179688 3997.948242 0.429328 0.120935 -0.895015
10411.624023 6959.398926 4209.679199 0.429328 0.120935 -0.895015
10411.624023 6959.398926 4209.679199 -0.025493 0.633371 -0.773428
10047.192383 6686.179688 3997.948242 -0.025493 0.633371 -0.773428
9761.594727 6911.008301 4191.477051 -0.025493 0.633371 -0.773428
10143.679688 6311.770996 4177.076660 0.052623 -0.121459 -0.991201
10018.749023 6038.504883 4203.929199 0.052623 -0.121459 -0.991201
9729.753906 6147.380371 4175.245117 0.052623 -0.121459 -0.991201
10411.624023 6959.398926 4209.679199 -0.071718 0.994082 -0.081597
9761.594727 6911.008301 4191.477051 -0.071718 0.994082 -0.081597
9962.659180 6940.774902 4377.395020 -0.071718 0.994082 -0.081597
10018.749023 6038.504883 4203.929199 -0.204141 -0.296031 0.933109
9991.774414 6317.864258 4286.655273 -0.204141 -0.296031 0.933109
9729.753906 6147.380371 4175.245117 -0.204141 -0.296031 0.933109
10018.749023 6038.504883 4203.929199 0.570437 -0.182089 0.800903
10143.679688 6311.770996 4177.076660 0.570437 -0.182089 0.800903
9991.774414 6317.864258 4286.655273 0.570437 -0.182089 0.800903
10411.624023 6959.398926 4209.679199 0.979342 -0.117211 -0.164778
10442.175781 6935.865234 4408.000977 0.979342 -0.117211 -0.164778
10349.555664 6558.754395 4125.770508 0.979342 -0.117211 -0.164778
10349.555664 6558.754395 4125.770508 0.550757 -0.297057 0.780015
9991.774414 6317.864258 4286.655273 0.550757 -0.297057 0.780015
10143.679688 6311.770996 4177.076660 0.550757 -0.297057 0.780015
10349.555664 6558.754395 4125.770508 0.625340 -0.704144 0.336349
10404.489258 6793.362793 4514.789062 0.625340 -0.704144 0.336349
9991.774414 6317.864258 4286.655273 0.625340 -0.704144 0.336349
9729.753906 6147.380371 4175.245117 -0.562980 -0.134776 0.815407
10080.200195 6615.920410 4494.646484 -0.562980 -0.134776 0.815407
9593.608398 6675.754395 4168.579590 -0.562980 -0.134776 0.815407
9593.608398 6675.754395 4168.579590 -0.652650 0.403626 0.641198
9962.659180 6940.774902 4377.395020 -0.652650 0.403626 0.641198
9761.594727 6911.008301 4191.477051 -0.652650 0.403626 0.641198
9729.753906 6147.380371 4175.245117 0.029154 -0.577824 0.815640
9991.774414 6317.864258 4286.655273 0.029154 -0.577824 0.815640
10080.200195 6615.920410 4494.646484 0.029154 -0.577824 0.815640
10404.489258 6793.362793 4514.789062 0.968913 -0.247099 0.012199
10349.555664 6558.754395 4125.770508 0.968913 -0.247099 0.012199
10442.175781 6935.865234 4408.000977 0.968913 -0.247099 0.012199
10411.624023 6959.398926 4209.679199 0.002673 0.993077 0.117431
9962.659180 6940.774902 4377.395020 0.002673 0.993077 0.117431
10442.175781 6935.865234 4408.000977 0.002673 0.993077 0.117431
10080.200195 6615.920410 4494.646484 -0.544918 0.103175 0.832117
9962.659180 6940.774902 4377.395020 -0.544918 0.103175 0.832117
9593.608398 6675.754395 4168.579590 -0.544918 0.103175 0.832117
9991.774414 6317.864258 4286.655273 0.284210 -0.603942 0.744633
10404.489258 6793.362793 4514.789062 0.284210 -0.603942 0.744633
10080.200195 6615.920410 4494.646484 0.284210 -0.603942 0.744633
10442.175781 6935.865234 4408.000977 -0.044453 0.606590 0.793771
9962.659180 6940.774902 4377.395020 -0.044453 0.606590 0.793771
10404.489258 6793.362793 4514.789062 -0.044453 0.606590 0.793771
10404.489258 6793.362793 4514.789062 -0.204149 0.266158 0.942063
9962.659180 6940.774902 4377.395020 -0.204149 0.266158 0.942063
10080.200195 6615.920410 4494.646484 -0.204149 0.266158 0.942063
10255.905273 6681.792480 6850.336914 -0.245125 0.314499 -0.917063
9790.209961 6939.309082 7063.127441 -0.245125 0.314499 -0.917063
10414.142578 6901.908203 6883.527832 -0.245125 0.314499 -0.917063
10192.634766 6396.300781 7145.129395 0.103307 -0.725493 -0.680431
9856.960938 6431.489746 7056.645996 0.103307 -0.725493 -0.680431
10255.905273 6681.792480 6850.336914 0.103307 -0.725493 -0.680431
10255.905273 6681.792480 6850.336914 -0.436024 -0.045843 -0.898767
9856.960938 6431.489746 7056.645996 -0.436024 -0.045843 -0.898767
9790.209961 6939.309082 7063.127441 -0.436024 -0.045843 -0.898767
10255.905273 6681.792480 6850.336914 0.803686 -0.540092 -0.249778
10414.142578 6901.908203 6883.527832 0.803686 -0.540092 -0.249778
10374.179688 6653.398926 7292.291992 0.803686 -0.540092 -0.249778
10414.142578 6901.908203 6883.527832 0.021091 0.990882 -0.133075
9790.209961 6939.309082 7063.127441 0.021091 0.990882 -0.133075
10371.211914 6949.212402 7228.953125 0.021091 0.990882 -0.133075
10192.634766 6396.300781 7145.129395 0.852624 -0.454734 -0.257391
10255.905273 6681.792480 6850.336914 0.852624 -0.454734 -0.257391
10374.179688 6653.398926 7292.291992 0.852624 -0.454734 -0.257391
9856.960938 6431.489746 7056.645996 -0.569080 -0.064341 -0.819761
9601.451172 6579.919434 7222.371582 -0.569080 -0.064341 -0.819761
9790.209961 6939.309082 7063.127441 -0.569080 -0.064341 -0.819761
9790.209961 6939.309082 7063.127441 -0.862740 0.261317 -0.432890
9601.451172 6579.919434 7222.371582 -0.862740 0.261317 -0.432890
9732.798828 6894.856445 7150.712402 -0.862740 0.261317 -0.432890
10043.838867 6084.632812 7186.510254 -0.041211 -0.112146 -0.992837
9791.997070 6057.670898 7200.009277 -0.041211 -0.112146 -0.992837
10192.634766 6396.300781 7145.129395 -0.041211 -0.112146 -0.992837
10192.634766 6396.300781 7145.129395 0.198154 -0.380811 -0.903171
9791.997070 6057.670898 7200.009277 0.198154 -0.380811 -0.903171
9856.960938 6431.489746 7056.645996 0.198154 -0.380811 -0.903171
9601.451172 6579.919434 7222.371582 -0.609388 -0.189372 -0.769925
9856.960938 6431.489746 7056.645996 -0.609388 -0.189372 -0.769925
9791.997070 6057.670898 7200.009277 -0.609388 -0.189372 -0.769925
10414.142578 6901.908203 6883.527832 0.992326 0.035327 0.118492
10371.211914 6949.212402 7228.953125 0.992326 0.035327 0.118492
10374.179688 6653.398926 7292.291992 0.992326 0.035327 0.118492
9759.352539 6770.312012 7320.726562 -0.790085 0.429116 0.437750
9732.798828 6894.856445 7150.712402 -0.790085 0.429116 0.437750
9601.451172 6579.919434 7222.371582 -0.790085 0.429116 0.437750
9759.352539 6770.312012 7320.726562 0.222533 0.802721 0.553279
9790.209961 6939.309082 7063.127441 0.222533 0.802721 0.553279
9732.798828 6894.856445 7150.712402 0.222533 0.802721 0.553279
9790.209961 6939.309082 7063.127441 -0.164675 0.833643 0.527183
9759.352539 6770.312012 7320.726562 -0.164675 0.833643 0.527183
10371.211914 6949.212402 7228.953125 -0.164675 0.833643 0.527183
10043.838867 6084.632812 7186.510254 0.084158 -0.312336 0.946237
9958.091797 6563.031738 7352.047363 0.084158 -0.312336 0.946237
9791.997070 6057.670898 7200.009277 0.084158 -0.312336 0.946237
10192.634766 6396.300781 7145.129395 0.852464 -0.443691 -0.276485
10374.179688 6653.398926 7292.291992 0.852464 -0.443691 -0.276485
10043.838867 6084.632812 7186.510254 0.852464 -0.443691 -0.276485
9791.997070 6057.670898 7200.009277 -0.363285 -0.171757 0.915709
9759.352539 6770.312012 7320.726562 -0.363285 -0.171757 0.915709
9601.451172 6579.919434 7222.371582 -0.363285 -0.171757 0.915709
9958.091797 6563.031738 7352.047363 -0.326269 -0.172385 0.929426
9759.352539 6770.312012 7320.726562 -0.326269 -0.172385 0.929426
9791.997070 6057.670898 7200.009277 -0.326269 -0.172385 0.929426
10374.179688 6653.398926 7292.291992 0.197267 -0.288811 0.936842
9958.091797 6563.031738 7352.047363 0.197267 -0.288811 0.936842
10043.838867 6084.632812 7186.510254 0.197267 -0.288811 0.936842
10374.179688 6653.398926 7292.291992 0.094310 0.209343 0.973284
10371.211914 6949.212402 7228.953125 0.094310 0.209343 0.973284
9958.091797 6563.031738 7352.047363 0.094310 0.209343 0.973284
9958.091797 6563.031738 7352.047363 0.080274 0.223739 0.971338
10371.211914 6949.212402 7228.953125 0.080274 0.223739 0.971338
9759.352539 6770.312012 7320.726562 0.080274 0.223739 0.971338
3 0 1 2
3 3 4 5
3 6 7 8
3 9 10 11
3 12 13 14
3 15 16 17
3 18 19 20
3 21 22 23
3 24 25 26
3 27 28 29
3 30 31 32
3 33 34 35
3 36 37 38
3 39 40 41
3 42 43 44
3 45 46 47
3 48 49 50
3 51 52 53
3 54 55 56
3 57 58 59
3 60 61 62
3 63 64 65
3 66 67 68
3 69 70 71
3 72 73 74
3 75 76 77
3 78 79 80
3 81 82 83
3 84 85 86
3 87 88 89
3 90 91 92
3 93 94 95
3 96 97 98
3 99 100 101
3 102 103 104
3 105 106 107
3 108 109 110
3 111 112 113
3 114 115 116
3 117 118 119
3 120 121 122
3 123 124 125
3 126 127 128
3 129 130 131
