ply
format ascii 1.0
comment Created by Blender 2.80 (sub 75) - www.blender.org, source file: 'downsample_ccf.blend'
element vertex 60
property float x
property float y
property float z
property float nx
property float ny
property float nz
element face 20
property list uchar uint vertex_indices
end_header
7601.899414 3669.890381 5452.137207 -0.000368 -0.004858 -0.999988
7401.774414 4539.502930 5447.986328 -0.000368 -0.004858 -0.999988
7616.105957 4483.367676 5448.180176 -0.000368 -0.004858 -0.999988
7616.105957 4483.367676 5448.180176 0.097656 0.369671 -0.924017
7401.774414 4539.502930 5447.986328 0.097656 0.369671 -0.924017
7532.293457 4764.498047 5551.793945 0.097656 0.369671 -0.924017
7500.312500 3657.373535 5489.138184 -0.332291 -0.080956 -0.939696
7401.774414 4539.502930 5447.986328 -0.332291 -0.080956 -0.939696
7601.899414 3669.890381 5452.137207 -0.332291 -0.080956 -0.939696
7401.774414 4539.502930 5447.986328 -0.393143 0.563342 -0.726694
7407.942383 4872.610840 5702.878418 -0.393143 0.563342 -0.726694
7532.293457 4764.498047 5551.793945 -0.393143 0.563342 -0.726694
7601.899414 3669.890381 5452.137207 -0.177300 -0.675839 -0.715407
7499.996094 3498.356689 5639.438477 -0.177300 -0.675839 -0.715407
7500.312500 3657.373535 5489.138184 -0.177300 -0.675839 -0.715407
7379.882812 4599.246094 5869.935059 -0.993005 -0.112583 -0.035579
7401.774414 4539.502930 5447.986328 -0.993005 -0.112583 -0.035579
7500.312500 3657.373535 5489.138184 -0.993005 -0.112583 -0.035579
7499.996094 3498.356689 5639.438477 0.855274 -0.518095 -0.009159
7601.899414 3669.890381 5452.137207 0.855274 -0.518095 -0.009159
7615.458008 3683.917480 5924.806152 0.855274 -0.518095 -0.009159
7499.996094 3498.356689 5639.438477 -0.991523 -0.088205 -0.095408
7379.882812 4599.246094 5869.935059 -0.991523 -0.088205 -0.095408
7500.312500 3657.373535 5489.138184 -0.991523 -0.088205 -0.095408
7379.882812 4599.246094 5869.935059 -0.996024 0.065030 -0.060883
7407.942383 4872.610840 5702.878418 -0.996024 0.065030 -0.060883
7401.774414 4539.502930 5447.986328 -0.996024 0.065030 -0.060883
7499.996094 3498.356689 5639.438477 -0.984216 -0.132052 0.117820
7517.230957 3600.573975 5897.974609 -0.984216 -0.132052 0.117820
7379.882812 4599.246094 5869.935059 -0.984216 -0.132052 0.117820
7615.458008 3683.917480 5924.806152 0.999449 -0.017591 -0.028147
7601.899414 3669.890381 5452.137207 0.999449 -0.017591 -0.028147
7616.105957 4483.367676 5448.180176 0.999449 -0.017591 -0.028147
7616.105957 4483.367676 5448.180176 0.950032 0.305986 -0.061744
7532.293457 4764.498047 5551.793945 0.950032 0.305986 -0.061744
7609.785645 4601.779785 5937.749023 0.950032 0.305986 -0.061744
7615.458008 3683.917480 5924.806152 0.999916 0.006018 0.011453
7616.105957 4483.367676 5448.180176 0.999916 0.006018 0.011453
7609.785645 4601.779785 5937.749023 0.999916 0.006018 0.011453
7532.293457 4764.498047 5551.793945 0.736696 0.663271 0.131720
7407.942383 4872.610840 5702.878418 0.736696 0.663271 0.131720
7609.785645 4601.779785 5937.749023 0.736696 0.663271 0.131720
7499.996094 3498.356689 5639.438477 0.580521 -0.769703 0.265618
7615.458008 3683.917480 5924.806152 0.580521 -0.769703 0.265618
7517.230957 3600.573975 5897.974609 0.580521 -0.769703 0.265618
7524.096680 4489.293457 5972.451172 -0.304065 0.484648 0.820159
7609.785645 4601.779785 5937.749023 -0.304065 0.484648 0.820159
7407.942383 4872.610840 5702.878418 -0.304065 0.484648 0.820159
7517.230957 3600.573975 5897.974609 -0.609045 -0.061561 0.790743
7524.096680 4489.293457 5972.451172 -0.609045 -0.061561 0.790743
7379.882812 4599.246094 5869.935059 -0.609045 -0.061561 0.790743
7517.230957 3600.573975 5897.974609 -0.198663 -0.080321 0.976771
7615.458008 3683.917480 5924.806152 -0.198663 -0.080321 0.976771
7524.096680 4489.293457 5972.451172 -0.198663 -0.080321 0.976771
7609.785645 4601.779785 5937.749023 0.387274 -0.010607 0.921904
7524.096680 4489.293457 5972.451172 0.387274 -0.010607 0.921904
7615.458008 3683.917480 5924.806152 0.387274 -0.010607 0.921904
7407.942383 4872.610840 5702.878418 -0.188376 0.526121 0.829283
7379.882812 4599.246094 5869.935059 -0.188376 0.526121 0.829283
7524.096680 4489.293457 5972.451172 -0.188376 0.526121 0.829283
3 0 1 2
3 3 4 5
3 6 7 8
3 9 10 11
3 12 13 14
3 15 16 17
3 18 19 20
3 21 22 23
3 24 25 26
3 27 28 29
3 30 31 32
3 33 34 35
3 36 37 38
3 39 40 41
3 42 43 44
3 45 46 47
3 48 49 50
3 51 52 53
3 54 55 56
3 57 58 59
