ply
format ascii 1.0
comment Created by Blender 2.80 (sub 75) - www.blender.org, source file: 'downsample_ccf.blend'
element vertex 492
property float x
property float y
property float z
property float nx
property float ny
property float nz
element face 164
property list uchar uint vertex_indices
end_header
6613.719727 2450.262451 1785.449097 -0.240405 -0.560697 -0.792353
6246.941895 2527.065186 1842.383667 -0.240405 -0.560697 -0.792353
6321.136719 2614.779297 1757.802856 -0.240405 -0.560697 -0.792353
6321.136719 2614.779297 1757.802856 0.419369 0.637155 -0.646655
6424.509766 2720.885986 1929.390259 0.419369 0.637155 -0.646655
6613.719727 2450.262451 1785.449097 0.419369 0.637155 -0.646655
6424.509766 2720.885986 1929.390259 -0.036974 0.859748 -0.509378
6321.136719 2614.779297 1757.802856 -0.036974 0.859748 -0.509378
6340.417969 2716.094482 1927.406982 -0.036974 0.859748 -0.509378
6246.941895 2527.065186 1842.383667 -0.836446 0.507111 -0.207839
6340.417969 2716.094482 1927.406982 -0.836446 0.507111 -0.207839
6321.136719 2614.779297 1757.802856 -0.836446 0.507111 -0.207839
6149.976074 2305.975830 2053.247803 -0.244788 -0.610806 -0.752991
6246.941895 2527.065186 1842.383667 -0.244788 -0.610806 -0.752991
6613.719727 2450.262451 1785.449097 -0.244788 -0.610806 -0.752991
6613.719727 2450.262451 1785.449097 -0.227013 -0.637253 -0.736460
7048.206055 2147.883789 1913.164917 -0.227013 -0.637253 -0.736460
6149.976074 2305.975830 2053.247803 -0.227013 -0.637253 -0.736460
6613.719727 2450.262451 1785.449097 0.512911 0.654228 -0.555794
6424.509766 2720.885986 1929.390259 0.512911 0.654228 -0.555794
6882.780762 2429.731445 2009.583496 0.512911 0.654228 -0.555794
7048.206055 2147.883789 1913.164917 0.550237 0.512045 -0.659583
6613.719727 2450.262451 1785.449097 0.550237 0.512045 -0.659583
7216.136230 2193.663574 2088.795166 0.550237 0.512045 -0.659583
6613.719727 2450.262451 1785.449097 0.550024 0.572750 -0.607809
6882.780762 2429.731445 2009.583496 0.550024 0.572750 -0.607809
7216.136230 2193.663574 2088.795166 0.550024 0.572750 -0.607809
7048.206055 2147.883789 1913.164917 0.560238 0.494461 -0.664562
7216.136230 2193.663574 2088.795166 0.560238 0.494461 -0.664562
7431.894043 1898.805298 2051.296387 0.560238 0.494461 -0.664562
7431.894043 1898.805298 2051.296387 0.503084 0.461085 -0.730963
7216.136230 2193.663574 2088.795166 0.503084 0.461085 -0.730963
7479.218750 2006.394287 2151.733643 0.503084 0.461085 -0.730963
6340.417969 2716.094482 1927.406982 -0.891053 0.453058 -0.027630
6246.941895 2527.065186 1842.383667 -0.891053 0.453058 -0.027630
6087.407715 2252.113037 2478.792725 -0.891053 0.453058 -0.027630
7431.894043 1898.805298 2051.296387 0.157957 0.635810 -0.755510
7479.218750 2006.394287 2151.733643 0.157957 0.635810 -0.755510
7797.145996 1787.691406 2034.151245 0.157957 0.635810 -0.755510
7479.218750 2006.394287 2151.733643 0.216657 0.687561 -0.693051
7834.096680 1881.389038 2138.657959 0.216657 0.687561 -0.693051
7797.145996 1787.691406 2034.151245 0.216657 0.687561 -0.693051
6246.941895 2527.065186 1842.383667 -0.942404 0.319770 -0.098088
6149.976074 2305.975830 2053.247803 -0.942404 0.319770 -0.098088
6087.407715 2252.113037 2478.792725 -0.942404 0.319770 -0.098088
7830.302734 1722.424805 2099.736328 -0.146662 -0.737243 -0.659517
7781.110352 1612.140259 2233.957520 -0.146662 -0.737243 -0.659517
7797.145996 1787.691406 2034.151245 -0.146662 -0.737243 -0.659517
7797.145996 1787.691406 2034.151245 -0.248840 -0.717613 -0.650470
7781.110352 1612.140259 2233.957520 -0.248840 -0.717613 -0.650470
7431.894043 1898.805298 2051.296387 -0.248840 -0.717613 -0.650470
6149.976074 2305.975830 2053.247803 -0.228740 -0.702227 -0.674207
7048.206055 2147.883789 1913.164917 -0.228740 -0.702227 -0.674207
6056.886230 2129.564209 2268.574219 -0.228740 -0.702227 -0.674207
6173.260742 2364.684570 2291.794434 0.089653 0.678535 0.729077
6395.721191 2306.970215 2318.152344 0.089653 0.678535 0.729077
6424.509766 2720.885986 1929.390259 0.089653 0.678535 0.729077
7830.302734 1722.424805 2099.736328 0.917627 0.073722 -0.390545
7797.145996 1787.691406 2034.151245 0.917627 0.073722 -0.390545
7834.096680 1881.389038 2138.657959 0.917627 0.073722 -0.390545
7431.894043 1898.805298 2051.296387 -0.182808 -0.676978 -0.712939
7781.110352 1612.140259 2233.957520 -0.182808 -0.676978 -0.712939
7048.206055 2147.883789 1913.164917 -0.182808 -0.676978 -0.712939
6882.780762 2429.731445 2009.583496 0.286070 0.645355 0.708295
6424.509766 2720.885986 1929.390259 0.286070 0.645355 0.708295
6395.721191 2306.970215 2318.152344 0.286070 0.645355 0.708295
6424.509766 2720.885986 1929.390259 -0.057710 0.731706 0.679173
6340.417969 2716.094482 1927.406982 -0.057710 0.731706 0.679173
6173.260742 2364.684570 2291.794434 -0.057710 0.731706 0.679173
7850.113281 1795.191528 2244.960449 0.990030 0.010758 -0.140444
7830.302734 1722.424805 2099.736328 0.990030 0.010758 -0.140444
7834.096680 1881.389038 2138.657959 0.990030 0.010758 -0.140444
7781.110352 1612.140259 2233.957520 0.933525 -0.354937 0.050501
7830.302734 1722.424805 2099.736328 0.933525 -0.354937 0.050501
7850.113281 1795.191528 2244.960449 0.933525 -0.354937 0.050501
7048.206055 2147.883789 1913.164917 -0.226252 -0.709280 -0.667631
7781.110352 1612.140259 2233.957520 -0.226252 -0.709280 -0.667631
6056.886230 2129.564209 2268.574219 -0.226252 -0.709280 -0.667631
7216.136230 2193.663574 2088.795166 0.287214 0.643619 0.709410
6882.780762 2429.731445 2009.583496 0.287214 0.643619 0.709410
6395.721191 2306.970215 2318.152344 0.287214 0.643619 0.709410
6149.976074 2305.975830 2053.247803 -0.921111 0.379359 -0.087415
6056.886230 2129.564209 2268.574219 -0.921111 0.379359 -0.087415
6087.407715 2252.113037 2478.792725 -0.921111 0.379359 -0.087415
7834.096680 1881.389038 2138.657959 0.290406 0.764195 0.575908
7479.218750 2006.394287 2151.733643 0.290406 0.764195 0.575908
7850.113281 1795.191528 2244.960449 0.290406 0.764195 0.575908
7216.136230 2193.663574 2088.795166 0.287337 0.642429 0.710438
6395.721191 2306.970215 2318.152344 0.287337 0.642429 0.710438
7479.218750 2006.394287 2151.733643 0.287337 0.642429 0.710438
6340.417969 2716.094482 1927.406982 0.908581 0.000944 0.417708
6087.407715 2252.113037 2478.792725 0.908581 0.000944 0.417708
6173.260742 2364.684570 2291.794434 0.908581 0.000944 0.417708
6173.260742 2364.684570 2291.794434 0.145689 0.816620 0.558486
6087.407715 2252.113037 2478.792725 0.145689 0.816620 0.558486
6395.721191 2306.970215 2318.152344 0.145689 0.816620 0.558486
7781.110352 1612.140259 2233.957520 -0.225831 -0.775135 -0.590056
7497.340332 1343.519653 2695.440918 -0.225831 -0.775135 -0.590056
6738.358398 1718.597656 2493.199219 -0.225831 -0.775135 -0.590056
6738.358398 1718.597656 2493.199219 -0.233331 -0.734936 -0.636730
6056.886230 2129.564209 2268.574219 -0.233331 -0.734936 -0.636730
7781.110352 1612.140259 2233.957520 -0.233331 -0.734936 -0.636730
7781.110352 1612.140259 2233.957520 0.910196 -0.355846 0.211936
7850.113281 1795.191528 2244.960449 0.910196 -0.355846 0.211936
7736.883301 1639.340942 2469.569092 0.910196 -0.355846 0.211936
7736.883301 1639.340942 2469.569092 0.860940 -0.461112 0.214843
7586.888184 1476.477783 2721.095947 0.860940 -0.461112 0.214843
7781.110352 1612.140259 2233.957520 0.860940 -0.461112 0.214843
6395.721191 2306.970215 2318.152344 0.300314 0.773653 0.557918
7850.113281 1795.191528 2244.960449 0.300314 0.773653 0.557918
7479.218750 2006.394287 2151.733643 0.300314 0.773653 0.557918
7497.340332 1343.519653 2695.440918 0.803912 -0.572519 0.161080
7781.110352 1612.140259 2233.957520 0.803912 -0.572519 0.161080
7586.888184 1476.477783 2721.095947 0.803912 -0.572519 0.161080
6056.886230 2129.564209 2268.574219 -0.697441 -0.487794 -0.525008
5940.020020 1902.832886 2634.483643 -0.697441 -0.487794 -0.525008
5890.097656 1978.875000 2630.150391 -0.697441 -0.487794 -0.525008
6056.886230 2129.564209 2268.574219 -0.279196 -0.773766 -0.568626
6738.358398 1718.597656 2493.199219 -0.279196 -0.773766 -0.568626
5940.020020 1902.832886 2634.483643 -0.279196 -0.773766 -0.568626
6056.886230 2129.564209 2268.574219 -0.828612 0.527579 -0.187251
5963.177246 2137.845703 2706.582275 -0.828612 0.527579 -0.187251
6087.407715 2252.113037 2478.792725 -0.828612 0.527579 -0.187251
7736.883301 1639.340942 2469.569092 0.283723 0.714897 0.639081
7850.113281 1795.191528 2244.960449 0.283723 0.714897 0.639081
6395.721191 2306.970215 2318.152344 0.283723 0.714897 0.639081
6395.721191 2306.970215 2318.152344 0.116040 0.850432 0.513127
6087.407715 2252.113037 2478.792725 0.116040 0.850432 0.513127
6100.165039 2034.299194 2836.902100 0.116040 0.850432 0.513127
5963.177246 2137.845703 2706.582275 -0.853487 0.484549 -0.191760
6056.886230 2129.564209 2268.574219 -0.853487 0.484549 -0.191760
5890.097656 1978.875000 2630.150391 -0.853487 0.484549 -0.191760
7736.883301 1639.340942 2469.569092 0.311603 0.756398 0.575122
6395.721191 2306.970215 2318.152344 0.311603 0.756398 0.575122
6100.165039 2034.299194 2836.902100 0.311603 0.756398 0.575122
5890.097656 1978.875000 2630.150391 -0.902655 0.429326 -0.029890
5912.020996 2033.867310 2757.966309 -0.902655 0.429326 -0.029890
5963.177246 2137.845703 2706.582275 -0.902655 0.429326 -0.029890
5963.177246 2137.845703 2706.582275 0.155301 0.846455 0.509309
6100.165039 2034.299194 2836.902100 0.155301 0.846455 0.509309
6087.407715 2252.113037 2478.792725 0.155301 0.846455 0.509309
5890.097656 1978.875000 2630.150391 -0.823039 -0.548696 -0.146764
5940.020020 1902.832886 2634.483643 -0.823039 -0.548696 -0.146764
5946.761230 1853.270264 2781.975830 -0.823039 -0.548696 -0.146764
5946.761230 1853.270264 2781.975830 -0.960661 -0.154077 0.231066
5912.020996 2033.867310 2757.966309 -0.960661 -0.154077 0.231066
5890.097656 1978.875000 2630.150391 -0.960661 -0.154077 0.231066
7497.340332 1343.519653 2695.440918 -0.277452 -0.825997 -0.490662
5940.020020 1902.832886 2634.483643 -0.277452 -0.825997 -0.490662
6738.358398 1718.597656 2493.199219 -0.277452 -0.825997 -0.490662
6550.391602 1424.093994 3098.327881 -0.278040 -0.827349 -0.488044
5940.020020 1902.832886 2634.483643 -0.278040 -0.827349 -0.488044
7497.340332 1343.519653 2695.440918 -0.278040 -0.827349 -0.488044
7257.727539 1372.420288 3109.782227 0.634673 0.418650 0.649555
7586.888184 1476.477783 2721.095947 0.634673 0.418650 0.649555
7736.883301 1639.340942 2469.569092 0.634673 0.418650 0.649555
6100.165039 2034.299194 2836.902100 0.310735 0.772033 0.554444
7257.727539 1372.420288 3109.782227 0.310735 0.772033 0.554444
7736.883301 1639.340942 2469.569092 0.310735 0.772033 0.554444
6134.790527 1681.333374 2916.471924 -0.554703 -0.796035 -0.242143
5946.761230 1853.270264 2781.975830 -0.554703 -0.796035 -0.242143
5940.020020 1902.832886 2634.483643 -0.554703 -0.796035 -0.242143
7497.340332 1343.519653 2695.440918 0.754124 -0.570632 0.325080
7586.888184 1476.477783 2721.095947 0.754124 -0.570632 0.325080
7350.495117 1321.179443 2996.878418 0.754124 -0.570632 0.325080
6063.350098 1950.392944 2922.926025 -0.089471 0.731861 0.675555
6100.165039 2034.299194 2836.902100 -0.089471 0.731861 0.675555
5963.177246 2137.845703 2706.582275 -0.089471 0.731861 0.675555
5912.020996 2033.867310 2757.966309 -0.446864 0.563300 0.694986
6063.350098 1950.392944 2922.926025 -0.446864 0.563300 0.694986
5963.177246 2137.845703 2706.582275 -0.446864 0.563300 0.694986
7497.340332 1343.519653 2695.440918 0.550855 -0.808149 0.208455
7350.495117 1321.179443 2996.878418 0.550855 -0.808149 0.208455
7180.061523 1225.039673 3074.540039 0.550855 -0.808149 0.208455
6134.790527 1681.333374 2916.471924 -0.331170 -0.839534 -0.430707
5940.020020 1902.832886 2634.483643 -0.331170 -0.839534 -0.430707
6550.391602 1424.093994 3098.327881 -0.331170 -0.839534 -0.430707
6063.350098 1950.392944 2922.926025 -0.749817 -0.056597 0.659220
5912.020996 2033.867310 2757.966309 -0.749817 -0.056597 0.659220
5946.761230 1853.270264 2781.975830 -0.749817 -0.056597 0.659220
6550.391602 1424.093994 3098.327881 -0.279321 -0.824834 -0.491557
7497.340332 1343.519653 2695.440918 -0.279321 -0.824834 -0.491557
7180.061523 1225.039673 3074.540039 -0.279321 -0.824834 -0.491557
7257.727539 1372.420288 3109.782227 0.766372 -0.026768 0.641839
7350.495117 1321.179443 2996.878418 0.766372 -0.026768 0.641839
7586.888184 1476.477783 2721.095947 0.766372 -0.026768 0.641839
6891.660156 1443.960571 3225.476562 0.321509 0.782267 0.533564
7257.727539 1372.420288 3109.782227 0.321509 0.782267 0.533564
6100.165039 2034.299194 2836.902100 0.321509 0.782267 0.533564
6134.790527 1681.333374 2916.471924 -0.683726 -0.198388 0.702254
6063.350098 1950.392944 2922.926025 -0.683726 -0.198388 0.702254
5946.761230 1853.270264 2781.975830 -0.683726 -0.198388 0.702254
6063.350098 1950.392944 2922.926025 0.056506 0.702525 0.709413
6241.210938 1819.885132 3037.999756 0.056506 0.702525 0.709413
6100.165039 2034.299194 2836.902100 0.056506 0.702525 0.709413
6300.755859 1590.879028 3030.483887 -0.622614 -0.183563 0.760695
6063.350098 1950.392944 2922.926025 -0.622614 -0.183563 0.760695
6134.790527 1681.333374 2916.471924 -0.622614 -0.183563 0.760695
7257.727539 1372.420288 3109.782227 0.694224 -0.239052 0.678902
7192.259277 1329.824219 3161.729248 0.694224 -0.239052 0.678902
7350.495117 1321.179443 2996.878418 0.694224 -0.239052 0.678902
6300.755859 1590.879028 3030.483887 -0.583130 -0.778869 0.230916
6134.790527 1681.333374 2916.471924 -0.583130 -0.778869 0.230916
6550.391602 1424.093994 3098.327881 -0.583130 -0.778869 0.230916
6241.210938 1819.885132 3037.999756 -0.626983 -0.187838 0.756049
6063.350098 1950.392944 2922.926025 -0.626983 -0.187838 0.756049
6300.755859 1590.879028 3030.483887 -0.626983 -0.187838 0.756049
6241.210938 1819.885132 3037.999756 0.252749 0.745118 0.617185
6891.660156 1443.960571 3225.476562 0.252749 0.745118 0.617185
6100.165039 2034.299194 2836.902100 0.252749 0.745118 0.617185
7350.495117 1321.179443 2996.878418 0.583632 -0.558449 0.589498
7192.259277 1329.824219 3161.729248 0.583632 -0.558449 0.589498
7180.061523 1225.039673 3074.540039 0.583632 -0.558449 0.589498
6891.660156 1443.960571 3225.476562 0.139699 0.624812 0.768175
6241.210938 1819.885132 3037.999756 0.139699 0.624812 0.768175
6560.834961 1580.314575 3174.733398 0.139699 0.624812 0.768175
6816.480957 1319.558350 3166.483154 -0.300807 -0.922755 -0.240910
6550.391602 1424.093994 3098.327881 -0.300807 -0.922755 -0.240910
7180.061523 1225.039673 3074.540039 -0.300807 -0.922755 -0.240910
6550.391602 1424.093994 3098.327881 -0.462978 -0.364263 0.808062
6560.834961 1580.314575 3174.733398 -0.462978 -0.364263 0.808062
6300.755859 1590.879028 3030.483887 -0.462978 -0.364263 0.808062
6300.755859 1590.879028 3030.483887 -0.484014 -0.154121 0.861381
6560.834961 1580.314575 3174.733398 -0.484014 -0.154121 0.861381
6241.210938 1819.885132 3037.999756 -0.484014 -0.154121 0.861381
6816.480957 1319.558350 3166.483154 0.027220 -0.641249 0.766850
7180.061523 1225.039673 3074.540039 0.027220 -0.641249 0.766850
7192.259277 1329.824219 3161.729248 0.027220 -0.641249 0.766850
7192.259277 1329.824219 3161.729248 0.023374 -0.439858 0.897763
6891.660156 1443.960571 3225.476562 0.023374 -0.439858 0.897763
6816.480957 1319.558350 3166.483154 0.023374 -0.439858 0.897763
7192.259277 1329.824219 3161.729248 0.348073 0.460710 0.816450
7257.727539 1372.420288 3109.782227 0.348073 0.460710 0.816450
6891.660156 1443.960571 3225.476562 0.348073 0.460710 0.816450
6816.480957 1319.558350 3166.483154 -0.368867 -0.388357 0.844462
6560.834961 1580.314575 3174.733398 -0.368867 -0.388357 0.844462
6550.391602 1424.093994 3098.327881 -0.368867 -0.388357 0.844462
6560.834961 1580.314575 3174.733398 -0.258048 -0.282226 0.923991
6816.480957 1319.558350 3166.483154 -0.258048 -0.282226 0.923991
6891.660156 1443.960571 3225.476562 -0.258048 -0.282226 0.923991
7118.785156 1387.202148 8204.410156 0.150368 -0.114087 -0.982025
7186.145020 1284.722290 8226.629883 0.150368 -0.114087 -0.982025
6821.351562 1436.279541 8153.165527 0.150368 -0.114087 -0.982025
6821.351562 1436.279541 8153.165527 -0.037298 -0.507151 -0.861050
7186.145020 1284.722290 8226.629883 -0.037298 -0.507151 -0.861050
6804.675293 1320.843262 8221.878906 -0.037298 -0.507151 -0.861050
6821.351562 1436.279541 8153.165527 -0.442724 -0.410546 -0.797150
6804.675293 1320.843262 8221.878906 -0.442724 -0.410546 -0.797150
6470.494141 1651.633057 8237.115234 -0.442724 -0.410546 -0.797150
6470.494141 1651.633057 8237.115234 0.231994 0.657436 -0.716908
7118.785156 1387.202148 8204.410156 0.231994 0.657436 -0.716908
6821.351562 1436.279541 8153.165527 0.231994 0.657436 -0.716908
7117.098145 1234.261475 8273.972656 -0.051565 -0.644872 -0.762549
6804.675293 1320.843262 8221.878906 -0.051565 -0.644872 -0.762549
7186.145020 1284.722290 8226.629883 -0.051565 -0.644872 -0.762549
7295.866699 1363.223999 8308.172852 0.515006 0.155751 -0.842918
7186.145020 1284.722290 8226.629883 0.515006 0.155751 -0.842918
7118.785156 1387.202148 8204.410156 0.515006 0.155751 -0.842918
6804.675293 1320.843262 8221.878906 -0.313148 -0.274481 -0.909175
6429.649414 1502.059570 8296.339844 -0.313148 -0.274481 -0.909175
6470.494141 1651.633057 8237.115234 -0.313148 -0.274481 -0.909175
6528.939453 1442.050537 8308.617188 -0.462869 -0.829694 -0.312026
6429.649414 1502.059570 8296.339844 -0.462869 -0.829694 -0.312026
6804.675293 1320.843262 8221.878906 -0.462869 -0.829694 -0.312026
6804.675293 1320.843262 8221.878906 -0.301227 -0.903481 0.304934
7117.098145 1234.261475 8273.972656 -0.301227 -0.903481 0.304934
6528.939453 1442.050537 8308.617188 -0.301227 -0.903481 0.304934
6470.494141 1651.633057 8237.115234 0.262302 0.722225 -0.639991
6201.689453 1868.153687 8371.287109 0.262302 0.722225 -0.639991
7118.785156 1387.202148 8204.410156 0.262302 0.722225 -0.639991
7117.098145 1234.261475 8273.972656 0.416967 -0.856353 -0.304629
7186.145020 1284.722290 8226.629883 0.416967 -0.856353 -0.304629
7322.862305 1263.999268 8472.019531 0.416967 -0.856353 -0.304629
6201.689453 1868.153687 8371.287109 -0.548446 -0.174073 -0.817866
6470.494141 1651.633057 8237.115234 -0.548446 -0.174073 -0.817866
6429.649414 1502.059570 8296.339844 -0.548446 -0.174073 -0.817866
6062.549805 1733.319336 8507.930664 -0.519821 -0.853705 0.031199
6429.649414 1502.059570 8296.339844 -0.519821 -0.853705 0.031199
6528.939453 1442.050537 8308.617188 -0.519821 -0.853705 0.031199
7555.165039 1447.475952 8625.698242 0.715384 -0.542614 -0.440222
7186.145020 1284.722290 8226.629883 0.715384 -0.542614 -0.440222
7295.866699 1363.223999 8308.172852 0.715384 -0.542614 -0.440222
6201.689453 1868.153687 8371.287109 0.359774 0.832331 -0.421650
7295.866699 1363.223999 8308.172852 0.359774 0.832331 -0.421650
7118.785156 1387.202148 8204.410156 0.359774 0.832331 -0.421650
6429.649414 1502.059570 8296.339844 -0.580869 -0.200171 -0.789001
6062.549805 1733.319336 8507.930664 -0.580869 -0.200171 -0.789001
6201.689453 1868.153687 8371.287109 -0.580869 -0.200171 -0.789001
6005.658691 2003.620850 8510.324219 -0.630326 -0.125883 -0.766057
6201.689453 1868.153687 8371.287109 -0.630326 -0.125883 -0.766057
6062.549805 1733.319336 8507.930664 -0.630326 -0.125883 -0.766057
7322.862305 1263.999268 8472.019531 -0.280091 -0.862937 0.420580
6528.939453 1442.050537 8308.617188 -0.280091 -0.862937 0.420580
7117.098145 1234.261475 8273.972656 -0.280091 -0.862937 0.420580
7555.165039 1447.475952 8625.698242 0.717566 -0.535766 -0.445033
7322.862305 1263.999268 8472.019531 0.717566 -0.535766 -0.445033
7186.145020 1284.722290 8226.629883 0.717566 -0.535766 -0.445033
6062.549805 1733.319336 8507.930664 -0.778974 -0.158581 -0.606672
5884.451172 1916.053345 8688.845703 -0.778974 -0.158581 -0.606672
6005.658691 2003.620850 8510.324219 -0.778974 -0.158581 -0.606672
6005.658691 2003.620850 8510.324219 0.066794 0.760079 -0.646389
5964.897461 2105.102051 8625.442383 0.066794 0.760079 -0.646389
6201.689453 1868.153687 8371.287109 0.066794 0.760079 -0.646389
5884.451172 1916.053345 8688.845703 -0.820486 -0.447580 -0.355633
6062.549805 1733.319336 8507.930664 -0.820486 -0.447580 -0.355633
5970.913086 1815.916748 8615.394531 -0.820486 -0.447580 -0.355633
5884.451172 1916.053345 8688.845703 -0.842330 0.079031 -0.533136
5884.083496 2008.652100 8703.153320 -0.842330 0.079031 -0.533136
6005.658691 2003.620850 8510.324219 -0.842330 0.079031 -0.533136
6005.658691 2003.620850 8510.324219 -0.813087 0.262713 -0.519491
5884.083496 2008.652100 8703.153320 -0.813087 0.262713 -0.519491
5964.897461 2105.102051 8625.442383 -0.813087 0.262713 -0.519491
7581.317871 1405.888672 8808.403320 0.697072 -0.671059 -0.252527
7322.862305 1263.999268 8472.019531 0.697072 -0.671059 -0.252527
7555.165039 1447.475952 8625.698242 0.697072 -0.671059 -0.252527
5970.913086 1815.916748 8615.394531 -0.400163 -0.859102 0.319084
6062.549805 1733.319336 8507.930664 -0.400163 -0.859102 0.319084
6528.939453 1442.050537 8308.617188 -0.400163 -0.859102 0.319084
7322.862305 1263.999268 8472.019531 -0.285562 -0.823624 0.489998
6836.213867 1692.353760 8908.418945 -0.285562 -0.823624 0.489998
6528.939453 1442.050537 8308.617188 -0.285562 -0.823624 0.489998
6836.213867 1692.353760 8908.418945 -0.283491 -0.824702 0.489387
5970.913086 1815.916748 8615.394531 -0.283491 -0.824702 0.489387
6528.939453 1442.050537 8308.617188 -0.283491 -0.824702 0.489387
6255.761719 2316.900391 9030.653320 0.199269 0.802449 -0.562466
6201.689453 1868.153687 8371.287109 0.199269 0.802449 -0.562466
5964.897461 2105.102051 8625.442383 0.199269 0.802449 -0.562466
7581.317871 1405.888672 8808.403320 -0.241771 -0.813513 0.528907
6836.213867 1692.353760 8908.418945 -0.241771 -0.813513 0.528907
7322.862305 1263.999268 8472.019531 -0.241771 -0.813513 0.528907
7555.165039 1447.475952 8625.698242 0.685464 0.332194 -0.647909
7295.866699 1363.223999 8308.172852 0.685464 0.332194 -0.647909
7808.316406 1709.772705 9028.006836 0.685464 0.332194 -0.647909
6255.761719 2316.900391 9030.653320 0.323455 0.769718 -0.550374
7295.866699 1363.223999 8308.172852 0.323455 0.769718 -0.550374
6201.689453 1868.153687 8371.287109 0.323455 0.769718 -0.550374
7581.317871 1405.888672 8808.403320 0.760837 -0.600661 -0.245630
7555.165039 1447.475952 8625.698242 0.760837 -0.600661 -0.245630
7707.273926 1505.184814 8955.733398 0.760837 -0.600661 -0.245630
6043.575684 2170.608154 9054.005859 -0.751049 0.659202 0.037123
5964.897461 2105.102051 8625.442383 -0.751049 0.659202 0.037123
5884.083496 2008.652100 8703.153320 -0.751049 0.659202 0.037123
6255.761719 2316.900391 9030.653320 -0.058265 0.901294 -0.429271
5964.897461 2105.102051 8625.442383 -0.058265 0.901294 -0.429271
6144.672363 2324.293945 9061.254883 -0.058265 0.901294 -0.429271
6836.213867 1692.353760 8908.418945 -0.294903 -0.789815 0.537797
6088.139648 2135.027588 9148.326172 -0.294903 -0.789815 0.537797
5970.913086 1815.916748 8615.394531 -0.294903 -0.789815 0.537797
7808.316406 1709.772705 9028.006836 0.336201 0.732482 -0.591979
7295.866699 1363.223999 8308.172852 0.336201 0.732482 -0.591979
7513.114746 1958.183350 9167.723633 0.336201 0.732482 -0.591979
6144.672363 2324.293945 9061.254883 -0.834918 0.545927 0.069834
5964.897461 2105.102051 8625.442383 -0.834918 0.545927 0.069834
6043.575684 2170.608154 9054.005859 -0.834918 0.545927 0.069834
5970.913086 1815.916748 8615.394531 -0.406004 -0.741936 0.533566
6088.139648 2135.027588 9148.326172 -0.406004 -0.741936 0.533566
5884.451172 1916.053345 8688.845703 -0.406004 -0.741936 0.533566
7295.866699 1363.223999 8308.172852 0.280005 0.754783 -0.593212
6255.761719 2316.900391 9030.653320 0.280005 0.754783 -0.593212
7513.114746 1958.183350 9167.723633 0.280005 0.754783 -0.593212
5884.451172 1916.053345 8688.845703 -0.895169 -0.071532 0.439950
6043.575684 2170.608154 9054.005859 -0.895169 -0.071532 0.439950
5884.083496 2008.652100 8703.153320 -0.895169 -0.071532 0.439950
6043.575684 2170.608154 9054.005859 -0.908196 -0.031032 0.417394
5884.451172 1916.053345 8688.845703 -0.908196 -0.031032 0.417394
6088.139648 2135.027588 9148.326172 -0.908196 -0.031032 0.417394
7555.165039 1447.475952 8625.698242 0.882553 -0.311422 -0.352303
7808.316406 1709.772705 9028.006836 0.882553 -0.311422 -0.352303
7707.273926 1505.184814 8955.733398 0.882553 -0.311422 -0.352303
7581.317871 1405.888672 8808.403320 0.211702 -0.884716 0.415284
7707.273926 1505.184814 8955.733398 0.211702 -0.884716 0.415284
7800.408203 1635.901123 9186.732422 0.211702 -0.884716 0.415284
7581.317871 1405.888672 8808.403320 -0.217261 -0.773141 0.595862
7800.408203 1635.901123 9186.732422 -0.217261 -0.773141 0.595862
6836.213867 1692.353760 8908.418945 -0.217261 -0.773141 0.595862
7800.408203 1635.901123 9186.732422 0.906526 -0.398204 -0.140160
7707.273926 1505.184814 8955.733398 0.906526 -0.398204 -0.140160
7808.316406 1709.772705 9028.006836 0.906526 -0.398204 -0.140160
7808.316406 1709.772705 9028.006836 0.945613 -0.310389 -0.097343
7860.132812 1812.032349 9205.297852 0.945613 -0.310389 -0.097343
7800.408203 1635.901123 9186.732422 0.945613 -0.310389 -0.097343
7800.408203 1635.901123 9186.732422 -0.226546 -0.738502 0.635053
7429.191406 1852.476318 9306.161133 -0.226546 -0.738502 0.635053
6836.213867 1692.353760 8908.418945 -0.226546 -0.738502 0.635053
7808.316406 1709.772705 9028.006836 0.521134 0.664503 -0.535589
7811.852539 1889.227783 9254.096680 0.521134 0.664503 -0.535589
7860.132812 1812.032349 9205.297852 0.521134 0.664503 -0.535589
7429.191406 1852.476318 9306.161133 -0.229902 -0.734521 0.638454
6088.139648 2135.027588 9148.326172 -0.229902 -0.734521 0.638454
6836.213867 1692.353760 8908.418945 -0.229902 -0.734521 0.638454
7513.114746 1958.183350 9167.723633 0.339474 0.734151 -0.588030
7811.852539 1889.227783 9254.096680 0.339474 0.734151 -0.588030
7808.316406 1709.772705 9028.006836 0.339474 0.734151 -0.588030
6340.348633 2709.650146 9448.561523 -0.133991 0.735520 -0.664121
6255.761719 2316.900391 9030.653320 -0.133991 0.735520 -0.664121
6144.672363 2324.293945 9061.254883 -0.133991 0.735520 -0.664121
7800.408203 1635.901123 9186.732422 0.926464 -0.332706 0.175984
7860.132812 1812.032349 9205.297852 0.926464 -0.332706 0.175984
7829.605957 1795.301758 9334.375977 0.926464 -0.332706 0.175984
7513.114746 1958.183350 9167.723633 0.308547 0.877826 -0.366362
7487.862793 1996.290894 9237.764648 0.308547 0.877826 -0.366362
7811.852539 1889.227783 9254.096680 0.308547 0.877826 -0.366362
7487.862793 1996.290894 9237.764648 0.525431 0.812472 -0.252611
7513.114746 1958.183350 9167.723633 0.525431 0.812472 -0.252611
6896.149902 2422.873291 9379.017578 0.525431 0.812472 -0.252611
6255.761719 2316.900391 9030.653320 0.266546 0.669259 -0.693574
6896.149902 2422.873291 9379.017578 0.266546 0.669259 -0.693574
7513.114746 1958.183350 9167.723633 0.266546 0.669259 -0.693574
6255.761719 2316.900391 9030.653320 0.297247 0.612245 -0.732667
6447.146973 2696.453369 9425.468750 0.297247 0.612245 -0.732667
6896.149902 2422.873291 9379.017578 0.297247 0.612245 -0.732667
6088.139648 2135.027588 9148.326172 -0.913502 -0.096352 0.395260
6144.922852 2340.577148 9329.666992 -0.913502 -0.096352 0.395260
6043.575684 2170.608154 9054.005859 -0.913502 -0.096352 0.395260
6294.376465 2627.820801 9594.347656 -0.831031 0.550439 -0.080031
6144.672363 2324.293945 9061.254883 -0.831031 0.550439 -0.080031
6043.575684 2170.608154 9054.005859 -0.831031 0.550439 -0.080031
7860.132812 1812.032349 9205.297852 0.884005 0.388860 0.259469
7811.852539 1889.227783 9254.096680 0.884005 0.388860 0.259469
7829.605957 1795.301758 9334.375977 0.884005 0.388860 0.259469
7811.852539 1889.227783 9254.096680 0.227933 0.778890 0.584274
7487.862793 1996.290894 9237.764648 0.227933 0.778890 0.584274
7425.718750 1942.760864 9333.368164 0.227933 0.778890 0.584274
6043.575684 2170.608154 9054.005859 -0.917290 0.385591 0.099493
6144.922852 2340.577148 9329.666992 -0.917290 0.385591 0.099493
6294.376465 2627.820801 9594.347656 -0.917290 0.385591 0.099493
7829.605957 1795.301758 9334.375977 0.237961 0.656660 0.715662
7811.852539 1889.227783 9254.096680 0.237961 0.656660 0.715662
7425.718750 1942.760864 9333.368164 0.237961 0.656660 0.715662
7800.408203 1635.901123 9186.732422 -0.145987 -0.657728 0.738974
7829.605957 1795.301758 9334.375977 -0.145987 -0.657728 0.738974
7429.191406 1852.476318 9306.161133 -0.145987 -0.657728 0.738974
7429.191406 1852.476318 9306.161133 -0.225829 -0.684807 0.692850
6923.412598 2212.073242 9496.728516 -0.225829 -0.684807 0.692850
6088.139648 2135.027588 9148.326172 -0.225829 -0.684807 0.692850
7487.862793 1996.290894 9237.764648 0.540281 0.534109 0.650249
6896.149902 2422.873291 9379.017578 0.540281 0.534109 0.650249
7425.718750 1942.760864 9333.368164 0.540281 0.534109 0.650249
7829.605957 1795.301758 9334.375977 -0.108489 -0.290652 0.950659
7425.718750 1942.760864 9333.368164 -0.108489 -0.290652 0.950659
7429.191406 1852.476318 9306.161133 -0.108489 -0.290652 0.950659
6340.348633 2709.650146 9448.561523 -0.055945 0.733186 -0.677724
6447.146973 2696.453369 9425.468750 -0.055945 0.733186 -0.677724
6255.761719 2316.900391 9030.653320 -0.055945 0.733186 -0.677724
6923.412598 2212.073242 9496.728516 -0.233955 -0.666122 0.708200
6271.391113 2484.954834 9538.000000 -0.233955 -0.666122 0.708200
6088.139648 2135.027588 9148.326172 -0.233955 -0.666122 0.708200
6294.376465 2627.820801 9594.347656 -0.884442 0.466336 -0.017147
6340.348633 2709.650146 9448.561523 -0.884442 0.466336 -0.017147
6144.672363 2324.293945 9061.254883 -0.884442 0.466336 -0.017147
7425.718750 1942.760864 9333.368164 0.574528 0.578674 0.578838
6896.149902 2422.873291 9379.017578 0.574528 0.578674 0.578838
6833.934082 2336.239014 9527.379883 0.574528 0.578674 0.578838
6088.139648 2135.027588 9148.326172 -0.621489 -0.414696 0.664664
6271.391113 2484.954834 9538.000000 -0.621489 -0.414696 0.664664
6144.922852 2340.577148 9329.666992 -0.621489 -0.414696 0.664664
7429.191406 1852.476318 9306.161133 0.158254 -0.279310 0.947070
7425.718750 1942.760864 9333.368164 0.158254 -0.279310 0.947070
6923.412598 2212.073242 9496.728516 0.158254 -0.279310 0.947070
6144.922852 2340.577148 9329.666992 -0.822903 -0.088939 0.561178
6271.391113 2484.954834 9538.000000 -0.822903 -0.088939 0.561178
6294.376465 2627.820801 9594.347656 -0.822903 -0.088939 0.561178
7425.718750 1942.760864 9333.368164 0.299787 -0.019418 0.953808
6833.934082 2336.239014 9527.379883 0.299787 -0.019418 0.953808
6923.412598 2212.073242 9496.728516 0.299787 -0.019418 0.953808
6896.149902 2422.873291 9379.017578 0.526626 0.619225 0.582430
6413.692871 2639.530273 9584.905273 0.526626 0.619225 0.582430
6833.934082 2336.239014 9527.379883 0.526626 0.619225 0.582430
6896.149902 2422.873291 9379.017578 0.509343 0.771053 0.382161
6447.146973 2696.453369 9425.468750 0.509343 0.771053 0.382161
6413.692871 2639.530273 9584.905273 0.509343 0.771053 0.382161
6447.146973 2696.453369 9425.468750 0.191573 0.910917 0.365419
6340.348633 2709.650146 9448.561523 0.191573 0.910917 0.365419
6413.692871 2639.530273 9584.905273 0.191573 0.910917 0.365419
6294.376465 2627.820801 9594.347656 -0.048341 0.877433 0.477257
6413.692871 2639.530273 9584.905273 -0.048341 0.877433 0.477257
6340.348633 2709.650146 9448.561523 -0.048341 0.877433 0.477257
6521.791016 2475.932129 9602.040039 0.185561 -0.107396 0.976746
6923.412598 2212.073242 9496.728516 0.185561 -0.107396 0.976746
6833.934082 2336.239014 9527.379883 0.185561 -0.107396 0.976746
6271.391113 2484.954834 9538.000000 -0.214373 -0.625663 0.750060
6923.412598 2212.073242 9496.728516 -0.214373 -0.625663 0.750060
6521.791016 2475.932129 9602.040039 -0.214373 -0.625663 0.750060
6833.934082 2336.239014 9527.379883 0.355658 0.326715 0.875651
6413.692871 2639.530273 9584.905273 0.355658 0.326715 0.875651
6521.791016 2475.932129 9602.040039 0.355658 0.326715 0.875651
6294.376465 2627.820801 9594.347656 -0.245492 -0.321240 0.914625
6271.391113 2484.954834 9538.000000 -0.245492 -0.321240 0.914625
6521.791016 2475.932129 9602.040039 -0.245492 -0.321240 0.914625
6521.791016 2475.932129 9602.040039 0.063843 0.145590 0.987283
6413.692871 2639.530273 9584.905273 0.063843 0.145590 0.987283
6294.376465 2627.820801 9594.347656 0.063843 0.145590 0.987283
3 0 1 2
3 3 4 5
3 6 7 8
3 9 10 11
3 12 13 14
3 15 16 17
3 18 19 20
3 21 22 23
3 24 25 26
3 27 28 29
3 30 31 32
3 33 34 35
3 36 37 38
3 39 40 41
3 42 43 44
3 45 46 47
3 48 49 50
3 51 52 53
3 54 55 56
3 57 58 59
3 60 61 62
3 63 64 65
3 66 67 68
3 69 70 71
3 72 73 74
3 75 76 77
3 78 79 80
3 81 82 83
3 84 85 86
3 87 88 89
3 90 91 92
3 93 94 95
3 96 97 98
3 99 100 101
3 102 103 104
3 105 106 107
3 108 109 110
3 111 112 113
3 114 115 116
3 117 118 119
3 120 121 122
3 123 124 125
3 126 127 128
3 129 130 131
3 132 133 134
3 135 136 137
3 138 139 140
3 141 142 143
3 144 145 146
3 147 148 149
3 150 151 152
3 153 154 155
3 156 157 158
3 159 160 161
3 162 163 164
3 165 166 167
3 168 169 170
3 171 172 173
3 174 175 176
3 177 178 179
3 180 181 182
3 183 184 185
3 186 187 188
3 189 190 191
3 192 193 194
3 195 196 197
3 198 199 200
3 201 202 203
3 204 205 206
3 207 208 209
3 210 211 212
3 213 214 215
3 216 217 218
3 219 220 221
3 222 223 224
3 225 226 227
3 228 229 230
3 231 232 233
3 234 235 236
3 237 238 239
3 240 241 242
3 243 244 245
3 246 247 248
3 249 250 251
3 252 253 254
3 255 256 257
3 258 259 260
3 261 262 263
3 264 265 266
3 267 268 269
3 270 271 272
3 273 274 275
3 276 277 278
3 279 280 281
3 282 283 284
3 285 286 287
3 288 289 290
3 291 292 293
3 294 295 296
3 297 298 299
3 300 301 302
3 303 304 305
3 306 307 308
3 309 310 311
3 312 313 314
3 315 316 317
3 318 319 320
3 321 322 323
3 324 325 326
3 327 328 329
3 330 331 332
3 333 334 335
3 336 337 338
3 339 340 341
3 342 343 344
3 345 346 347
3 348 349 350
3 351 352 353
3 354 355 356
3 357 358 359
3 360 361 362
3 363 364 365
3 366 367 368
3 369 370 371
3 372 373 374
3 375 376 377
3 378 379 380
3 381 382 383
3 384 385 386
3 387 388 389
3 390 391 392
3 393 394 395
3 396 397 398
3 399 400 401
3 402 403 404
3 405 406 407
3 408 409 410
3 411 412 413
3 414 415 416
3 417 418 419
3 420 421 422
3 423 424 425
3 426 427 428
3 429 430 431
3 432 433 434
3 435 436 437
3 438 439 440
3 441 442 443
3 444 445 446
3 447 448 449
3 450 451 452
3 453 454 455
3 456 457 458
3 459 460 461
3 462 463 464
3 465 466 467
3 468 469 470
3 471 472 473
3 474 475 476
3 477 478 479
3 480 481 482
3 483 484 485
3 486 487 488
3 489 490 491
