ply
format ascii 1.0
comment Created by Blender 2.80 (sub 75) - www.blender.org, source file: 'downsample_ccf.blend'
element vertex 132
property float x
property float y
property float z
property float nx
property float ny
property float nz
element face 44
property list uchar uint vertex_indices
end_header
5757.595703 1872.601318 2578.614990 0.496403 -0.377183 -0.781868
5872.689453 1600.563232 2782.921875 0.496403 -0.377183 -0.781868
5664.149414 1810.508667 2549.240723 0.496403 -0.377183 -0.781868
5757.595703 1872.601318 2578.614990 0.101923 0.295916 -0.949761
5664.149414 1810.508667 2549.240723 0.101923 0.295916 -0.949761
5203.723633 2031.188599 2568.587646 0.101923 0.295916 -0.949761
5757.595703 1872.601318 2578.614990 0.200954 0.655831 -0.727669
5203.723633 2031.188599 2568.587646 0.200954 0.655831 -0.727669
5325.729004 2075.711670 2642.408447 0.200954 0.655831 -0.727669
5203.723633 2031.188599 2568.587646 -0.189920 0.947423 -0.257529
5125.521973 2071.674805 2775.203857 -0.189920 0.947423 -0.257529
5325.729004 2075.711670 2642.408447 -0.189920 0.947423 -0.257529
5056.326660 2015.231934 2747.641602 -0.506253 0.789771 -0.346365
5125.521973 2071.674805 2775.203857 -0.506253 0.789771 -0.346365
5203.723633 2031.188599 2568.587646 -0.506253 0.789771 -0.346365
5664.149414 1810.508667 2549.240723 -0.334446 -0.829688 -0.446950
5872.689453 1600.563232 2782.921875 -0.334446 -0.829688 -0.446950
5737.796875 1609.314819 2867.614258 -0.334446 -0.829688 -0.446950
5203.723633 2031.188599 2568.587646 -0.408348 -0.816129 -0.408882
5664.149414 1810.508667 2549.240723 -0.408348 -0.816129 -0.408882
5056.326660 2015.231934 2747.641602 -0.408348 -0.816129 -0.408882
5056.326660 2015.231934 2747.641602 -0.409530 -0.811015 -0.417781
5664.149414 1810.508667 2549.240723 -0.409530 -0.811015 -0.417781
5737.796875 1609.314819 2867.614258 -0.409530 -0.811015 -0.417781
5872.689453 1600.563232 2782.921875 0.718696 -0.196789 -0.666896
5757.595703 1872.601318 2578.614990 0.718696 -0.196789 -0.666896
6042.919922 1632.114380 2957.064453 0.718696 -0.196789 -0.666896
6042.919922 1632.114380 2957.064453 0.441581 0.869871 0.219841
5757.595703 1872.601318 2578.614990 0.441581 0.869871 0.219841
5325.729004 2075.711670 2642.408447 0.441581 0.869871 0.219841
5125.521973 2071.674805 2775.203857 0.300575 0.825190 0.478243
6042.919922 1632.114380 2957.064453 0.300575 0.825190 0.478243
5325.729004 2075.711670 2642.408447 0.300575 0.825190 0.478243
5872.689453 1600.563232 2782.921875 0.592809 0.457951 -0.662464
6042.919922 1632.114380 2957.064453 0.592809 0.457951 -0.662464
6318.573242 1445.196899 3074.521240 0.592809 0.457951 -0.662464
5125.521973 2071.674805 2775.203857 -0.257579 -0.150324 0.954492
5056.326660 2015.231934 2747.641602 -0.257579 -0.150324 0.954492
5737.796875 1609.314819 2867.614258 -0.257579 -0.150324 0.954492
6360.219238 1293.997803 3050.016357 0.592228 0.285256 -0.753588
5872.689453 1600.563232 2782.921875 0.592228 0.285256 -0.753588
6318.573242 1445.196899 3074.521240 0.592228 0.285256 -0.753588
5737.796875 1609.314819 2867.614258 -0.539677 -0.595779 0.594807
5936.646484 1567.588257 3006.238770 -0.539677 -0.595779 0.594807
5125.521973 2071.674805 2775.203857 -0.539677 -0.595779 0.594807
6360.219238 1293.997803 3050.016357 -0.313403 -0.856219 -0.410692
5737.796875 1609.314819 2867.614258 -0.313403 -0.856219 -0.410692
5872.689453 1600.563232 2782.921875 -0.313403 -0.856219 -0.410692
6042.919922 1632.114380 2957.064453 0.079446 0.518143 0.851597
5125.521973 2071.674805 2775.203857 0.079446 0.518143 0.851597
5936.646484 1567.588257 3006.238770 0.079446 0.518143 0.851597
6318.573242 1445.196899 3074.521240 0.388807 0.250773 -0.886534
6692.798828 1176.106812 3162.528076 0.388807 0.250773 -0.886534
6360.219238 1293.997803 3050.016357 0.388807 0.250773 -0.886534
6318.573242 1445.196899 3074.521240 0.035203 0.568435 0.821975
6042.919922 1632.114380 2957.064453 0.035203 0.568435 0.821975
5936.646484 1567.588257 3006.238770 0.035203 0.568435 0.821975
6360.219238 1293.997803 3050.016357 -0.387543 -0.894328 -0.223581
6530.806152 1165.101685 3269.917480 -0.387543 -0.894328 -0.223581
5737.796875 1609.314819 2867.614258 -0.387543 -0.894328 -0.223581
6530.806152 1165.101685 3269.917480 -0.580494 -0.387920 0.715923
5936.646484 1567.588257 3006.238770 -0.580494 -0.387920 0.715923
5737.796875 1609.314819 2867.614258 -0.580494 -0.387920 0.715923
6318.573242 1445.196899 3074.521240 0.146278 0.789218 0.596437
5936.646484 1567.588257 3006.238770 0.146278 0.789218 0.596437
6629.895996 1221.857178 3293.696533 0.146278 0.789218 0.596437
6530.806152 1165.101685 3269.917480 -0.191486 -0.904309 -0.381521
6360.219238 1293.997803 3050.016357 -0.191486 -0.904309 -0.381521
6692.798828 1176.106812 3162.528076 -0.191486 -0.904309 -0.381521
6692.798828 1176.106812 3162.528076 0.584246 0.811571 -0.002889
6318.573242 1445.196899 3074.521240 0.584246 0.811571 -0.002889
6629.895996 1221.857178 3293.696533 0.584246 0.811571 -0.002889
6530.806152 1165.101685 3269.917480 -0.312527 0.152841 0.937532
6629.895996 1221.857178 3293.696533 -0.312527 0.152841 0.937532
5936.646484 1567.588257 3006.238770 -0.312527 0.152841 0.937532
6629.895996 1221.857178 3293.696533 0.357517 -0.815144 0.455765
6530.806152 1165.101685 3269.917480 0.357517 -0.815144 0.455765
6692.798828 1176.106812 3162.528076 0.357517 -0.815144 0.455765
6719.634766 1182.067627 8195.672852 0.379439 0.832795 -0.403086
6622.578125 1165.399902 8069.873535 0.379439 0.832795 -0.403086
6072.479980 1594.141846 8437.848633 0.379439 0.832795 -0.403086
6072.479980 1594.141846 8437.848633 0.330963 0.822159 -0.463162
6622.578125 1165.399902 8069.873535 0.330963 0.822159 -0.463162
5878.118652 1662.470703 8420.253906 0.330963 0.822159 -0.463162
6622.578125 1165.399902 8069.873535 -0.242532 -0.919630 0.308964
6719.634766 1182.067627 8195.672852 -0.242532 -0.919630 0.308964
6057.857910 1446.333130 8462.774414 -0.242532 -0.919630 0.308964
6622.578125 1165.399902 8069.873535 -0.456533 -0.889477 -0.020183
6057.857910 1446.333130 8462.774414 -0.456533 -0.889477 -0.020183
5747.482910 1604.951538 8492.951172 -0.456533 -0.889477 -0.020183
6622.578125 1165.399902 8069.873535 -0.461923 -0.068505 -0.884270
5747.482910 1604.951538 8492.951172 -0.461923 -0.068505 -0.884270
5878.118652 1662.470703 8420.253906 -0.461923 -0.068505 -0.884270
6057.857910 1446.333130 8462.774414 0.410078 0.112071 0.905138
6719.634766 1182.067627 8195.672852 0.410078 0.112071 0.905138
6072.479980 1594.141846 8437.848633 0.410078 0.112071 0.905138
5878.118652 1662.470703 8420.253906 -0.350768 -0.317033 -0.881165
5747.482910 1604.951538 8492.951172 -0.350768 -0.317033 -0.881165
5127.376465 2055.749756 8577.606445 -0.350768 -0.317033 -0.881165
5061.186035 1993.314331 8641.988281 -0.408473 -0.408610 -0.816204
5127.376465 2055.749756 8577.606445 -0.408473 -0.408610 -0.816204
5747.482910 1604.951538 8492.951172 -0.408473 -0.408610 -0.816204
5752.898438 1912.692627 8769.775391 0.331150 0.819369 -0.467947
5878.118652 1662.470703 8420.253906 0.331150 0.819369 -0.467947
5127.376465 2055.749756 8577.606445 0.331150 0.819369 -0.467947
5753.345215 1787.437622 8811.632812 0.768198 0.031834 0.639420
6057.857910 1446.333130 8462.774414 0.768198 0.031834 0.639420
6072.479980 1594.141846 8437.848633 0.768198 0.031834 0.639420
6072.479980 1594.141846 8437.848633 0.793463 0.195445 0.576383
5752.898438 1912.692627 8769.775391 0.793463 0.195445 0.576383
5753.345215 1787.437622 8811.632812 0.793463 0.195445 0.576383
6072.479980 1594.141846 8437.848633 0.330477 0.819464 -0.468256
5878.118652 1662.470703 8420.253906 0.330477 0.819464 -0.468256
5752.898438 1912.692627 8769.775391 0.330477 0.819464 -0.468256
6057.857910 1446.333130 8462.774414 -0.365804 -0.804732 0.467541
5753.345215 1787.437622 8811.632812 -0.365804 -0.804732 0.467541
5747.482910 1604.951538 8492.951172 -0.365804 -0.804732 0.467541
5061.186035 1993.314331 8641.988281 -0.588310 0.791993 0.163213
5197.912598 2060.778564 8807.455078 -0.588310 0.791993 0.163213
5127.376465 2055.749756 8577.606445 -0.588310 0.791993 0.163213
5061.186035 1993.314331 8641.988281 -0.309082 -0.763699 0.566773
5747.482910 1604.951538 8492.951172 -0.309082 -0.763699 0.566773
5197.912598 2060.778564 8807.455078 -0.309082 -0.763699 0.566773
5127.376465 2055.749756 8577.606445 0.250359 0.963190 -0.097904
5197.912598 2060.778564 8807.455078 0.250359 0.963190 -0.097904
5752.898438 1912.692627 8769.775391 0.250359 0.963190 -0.097904
5197.912598 2060.778564 8807.455078 -0.394375 -0.794312 0.462100
5747.482910 1604.951538 8492.951172 -0.394375 -0.794312 0.462100
5753.345215 1787.437622 8811.632812 -0.394375 -0.794312 0.462100
5752.898438 1912.692627 8769.775391 0.147451 0.313957 0.937918
5197.912598 2060.778564 8807.455078 0.147451 0.313957 0.937918
5753.345215 1787.437622 8811.632812 0.147451 0.313957 0.937918
3 0 1 2
3 3 4 5
3 6 7 8
3 9 10 11
3 12 13 14
3 15 16 17
3 18 19 20
3 21 22 23
3 24 25 26
3 27 28 29
3 30 31 32
3 33 34 35
3 36 37 38
3 39 40 41
3 42 43 44
3 45 46 47
3 48 49 50
3 51 52 53
3 54 55 56
3 57 58 59
3 60 61 62
3 63 64 65
3 66 67 68
3 69 70 71
3 72 73 74
3 75 76 77
3 78 79 80
3 81 82 83
3 84 85 86
3 87 88 89
3 90 91 92
3 93 94 95
3 96 97 98
3 99 100 101
3 102 103 104
3 105 106 107
3 108 109 110
3 111 112 113
3 114 115 116
3 117 118 119
3 120 121 122
3 123 124 125
3 126 127 128
3 129 130 131
