ply
format ascii 1.0
comment Created by Blender 2.80 (sub 75) - www.blender.org, source file: 'downsample_ccf.blend'
element vertex 156
property float x
property float y
property float z
property float nx
property float ny
property float nz
element face 52
property list uchar uint vertex_indices
end_header
5798.791504 1984.792725 2663.010986 0.168021 0.570072 -0.804231
5274.558105 2157.136963 2675.652344 0.168021 0.570072 -0.804231
5813.471191 2137.224121 2774.127441 0.168021 0.570072 -0.804231
5274.558105 2157.136963 2675.652344 0.171676 0.525609 -0.833224
5372.971680 2301.821289 2787.197998 0.171676 0.525609 -0.833224
5813.471191 2137.224121 2774.127441 0.171676 0.525609 -0.833224
5372.971680 2301.821289 2787.197998 -0.502486 0.715723 -0.485024
5274.558105 2157.136963 2675.652344 -0.502486 0.715723 -0.485024
5119.200684 2173.417969 2860.627930 -0.502486 0.715723 -0.485024
6051.069336 1919.022339 2980.627686 0.789093 0.099438 -0.606172
6088.609863 1646.478516 2984.787598 0.789093 0.099438 -0.606172
5798.791504 1984.792725 2663.010986 0.789093 0.099438 -0.606172
5798.791504 1984.792725 2663.010986 0.772354 0.323919 -0.546393
5813.471191 2137.224121 2774.127441 0.772354 0.323919 -0.546393
6051.069336 1919.022339 2980.627686 0.772354 0.323919 -0.546393
5274.558105 2157.136963 2675.652344 -0.268467 -0.774615 -0.572623
5798.791504 1984.792725 2663.010986 -0.268467 -0.774615 -0.572623
6088.609863 1646.478516 2984.787598 -0.268467 -0.774615 -0.572623
5119.200684 2173.417969 2860.627930 -0.503101 0.770809 -0.390824
5271.749023 2298.330078 2910.614746 -0.503101 0.770809 -0.390824
5372.971680 2301.821289 2787.197998 -0.503101 0.770809 -0.390824
5813.471191 2137.224121 2774.127441 0.341269 0.889090 0.305049
5372.971680 2301.821289 2787.197998 0.341269 0.889090 0.305049
5271.749023 2298.330078 2910.614746 0.341269 0.889090 0.305049
5271.749023 2298.330078 2910.614746 0.357590 0.812796 0.459883
5883.845215 1929.900269 3085.830322 0.357590 0.812796 0.459883
5813.471191 2137.224121 2774.127441 0.357590 0.812796 0.459883
5274.558105 2157.136963 2675.652344 -0.297557 -0.794659 -0.529129
6088.609863 1646.478516 2984.787598 -0.297557 -0.794659 -0.529129
5898.463867 1707.434937 3000.170898 -0.297557 -0.794659 -0.529129
5898.463867 1707.434937 3000.170898 -0.448612 -0.840880 -0.302768
5119.200684 2173.417969 2860.627930 -0.448612 -0.840880 -0.302768
5274.558105 2157.136963 2675.652344 -0.448612 -0.840880 -0.302768
5883.845215 1929.900269 3085.830322 -0.366406 -0.355211 0.859984
5119.200684 2173.417969 2860.627930 -0.366406 -0.355211 0.859984
5898.463867 1707.434937 3000.170898 -0.366406 -0.355211 0.859984
6051.069336 1919.022339 2980.627686 0.345256 0.815513 0.464475
5813.471191 2137.224121 2774.127441 0.345256 0.815513 0.464475
5883.845215 1929.900269 3085.830322 0.345256 0.815513 0.464475
5883.845215 1929.900269 3085.830322 -0.290573 -0.027886 0.956447
5271.749023 2298.330078 2910.614746 -0.290573 -0.027886 0.956447
5119.200684 2173.417969 2860.627930 -0.290573 -0.027886 0.956447
6088.609863 1646.478516 2984.787598 0.452909 0.048797 -0.890220
6051.069336 1919.022339 2980.627686 0.452909 0.048797 -0.890220
6556.524902 1572.802124 3218.805908 0.452909 0.048797 -0.890220
5883.845215 1929.900269 3085.830322 0.333647 0.831388 0.444380
6657.701660 1461.982788 3380.232666 0.333647 0.831388 0.444380
6051.069336 1919.022339 2980.627686 0.333647 0.831388 0.444380
6642.950684 1257.714966 3334.030273 -0.305463 -0.839406 -0.449543
5898.463867 1707.434937 3000.170898 -0.305463 -0.839406 -0.449543
6088.609863 1646.478516 2984.787598 -0.305463 -0.839406 -0.449543
6088.609863 1646.478516 2984.787598 0.462683 0.346194 -0.816133
6556.524902 1572.802124 3218.805908 0.462683 0.346194 -0.816133
6721.084961 1330.996460 3209.527344 0.462683 0.346194 -0.816133
6657.701660 1461.982788 3380.232666 0.434114 0.846255 0.308865
6556.524902 1572.802124 3218.805908 0.434114 0.846255 0.308865
6051.069336 1919.022339 2980.627686 0.434114 0.846255 0.308865
6088.609863 1646.478516 2984.787598 -0.187265 -0.790668 -0.582903
6721.084961 1330.996460 3209.527344 -0.187265 -0.790668 -0.582903
6642.950684 1257.714966 3334.030273 -0.187265 -0.790668 -0.582903
6642.950684 1257.714966 3334.030273 -0.545647 -0.332109 0.769398
5883.845215 1929.900269 3085.830322 -0.545647 -0.332109 0.769398
5898.463867 1707.434937 3000.170898 -0.545647 -0.332109 0.769398
6770.325684 1369.649292 3375.278564 0.664135 -0.747258 -0.023040
6642.950684 1257.714966 3334.030273 0.664135 -0.747258 -0.023040
6721.084961 1330.996460 3209.527344 0.664135 -0.747258 -0.023040
6770.325684 1369.649292 3375.278564 0.767196 0.535651 -0.352828
6721.084961 1330.996460 3209.527344 0.767196 0.535651 -0.352828
6556.524902 1572.802124 3218.805908 0.767196 0.535651 -0.352828
6657.701660 1461.982788 3380.232666 0.632129 0.764152 0.128393
6770.325684 1369.649292 3375.278564 0.632129 0.764152 0.128393
6556.524902 1572.802124 3218.805908 0.632129 0.764152 0.128393
6642.950684 1257.714966 3334.030273 -0.437705 -0.168170 0.883251
6657.701660 1461.982788 3380.232666 -0.437705 -0.168170 0.883251
5883.845215 1929.900269 3085.830322 -0.437705 -0.168170 0.883251
6657.701660 1461.982788 3380.232666 -0.129419 -0.209857 0.969129
6642.950684 1257.714966 3334.030273 -0.129419 -0.209857 0.969129
6770.325684 1369.649292 3375.278564 -0.129419 -0.209857 0.969129
6770.983398 1449.054932 8065.699707 0.935877 -0.230424 -0.266533
6756.907227 1304.725220 8141.050781 0.935877 -0.230424 -0.266533
6717.778320 1356.159668 7959.190918 0.935877 -0.230424 -0.266533
6717.778320 1356.159668 7959.190918 0.070039 -0.955844 -0.285406
6756.907227 1304.725220 8141.050781 0.070039 -0.955844 -0.285406
6550.301758 1304.213135 8092.064453 0.070039 -0.955844 -0.285406
5957.973145 1920.771484 8296.408203 0.200101 0.686684 -0.698873
6770.983398 1449.054932 8065.699707 0.200101 0.686684 -0.698873
6717.778320 1356.159668 7959.190918 0.200101 0.686684 -0.698873
6124.910645 1725.377075 8206.386719 -0.526748 -0.318064 -0.788271
6717.778320 1356.159668 7959.190918 -0.526748 -0.318064 -0.788271
6550.301758 1304.213135 8092.064453 -0.526748 -0.318064 -0.788271
6717.778320 1356.159668 7959.190918 -0.261749 0.210338 -0.941937
6124.910645 1725.377075 8206.386719 -0.261749 0.210338 -0.941937
5957.973145 1920.771484 8296.408203 -0.261749 0.210338 -0.941937
6069.727051 1896.052856 8384.584961 0.418025 0.861474 -0.288301
6770.983398 1449.054932 8065.699707 0.418025 0.861474 -0.288301
5957.973145 1920.771484 8296.408203 0.418025 0.861474 -0.288301
6756.907227 1304.725220 8141.050781 -0.151618 -0.747023 0.647277
6049.800293 1695.793335 8426.750000 -0.151618 -0.747023 0.647277
6550.301758 1304.213135 8092.064453 -0.151618 -0.747023 0.647277
5743.157227 1804.515015 8439.198242 -0.540179 -0.336187 -0.771483
6124.910645 1725.377075 8206.386719 -0.540179 -0.336187 -0.771483
6550.301758 1304.213135 8092.064453 -0.540179 -0.336187 -0.771483
6770.983398 1449.054932 8065.699707 0.512999 0.357417 0.780439
6049.800293 1695.793335 8426.750000 0.512999 0.357417 0.780439
6756.907227 1304.725220 8141.050781 0.512999 0.357417 0.780439
6550.301758 1304.213135 8092.064453 -0.260831 -0.797883 0.543462
6049.800293 1695.793335 8426.750000 -0.260831 -0.797883 0.543462
5743.157227 1804.515015 8439.198242 -0.260831 -0.797883 0.543462
6124.910645 1725.377075 8206.386719 -0.529004 -0.062033 -0.846349
5743.157227 1804.515015 8439.198242 -0.529004 -0.062033 -0.846349
5957.973145 1920.771484 8296.408203 -0.529004 -0.062033 -0.846349
6049.800293 1695.793335 8426.750000 0.480063 0.134743 0.866824
6770.983398 1449.054932 8065.699707 0.480063 0.134743 0.866824
6069.727051 1896.052856 8384.584961 0.480063 0.134743 0.866824
5823.745117 2142.932373 8584.399414 0.478634 0.788876 -0.385467
6069.727051 1896.052856 8384.584961 0.478634 0.788876 -0.385467
5957.973145 1920.771484 8296.408203 0.478634 0.788876 -0.385467
5957.973145 1920.771484 8296.408203 -0.367001 -0.370081 -0.853435
5743.157227 1804.515015 8439.198242 -0.367001 -0.370081 -0.853435
5248.564453 2275.354736 8447.713867 -0.367001 -0.370081 -0.853435
5823.745117 2142.932373 8584.399414 0.304387 0.817564 -0.488812
5957.973145 1920.771484 8296.408203 0.304387 0.817564 -0.488812
5248.564453 2275.354736 8447.713867 0.304387 0.817564 -0.488812
5743.157227 1804.515015 8439.198242 -0.325723 -0.326104 -0.887446
5133.353516 2145.902100 8537.569336 -0.325723 -0.326104 -0.887446
5248.564453 2275.354736 8447.713867 -0.325723 -0.326104 -0.887446
5248.564453 2275.354736 8447.713867 -0.665551 0.722433 0.187435
5133.353516 2145.902100 8537.569336 -0.665551 0.722433 0.187435
5326.058594 2312.823730 8578.465820 -0.665551 0.722433 0.187435
5823.745117 2142.932373 8584.399414 0.297422 0.856551 -0.421734
5248.564453 2275.354736 8447.713867 0.297422 0.856551 -0.421734
5326.058594 2312.823730 8578.465820 0.297422 0.856551 -0.421734
6069.727051 1896.052856 8384.584961 0.784458 0.052062 0.617993
5811.822266 1999.675049 8703.230469 0.784458 0.052062 0.617993
6049.800293 1695.793335 8426.750000 0.784458 0.052062 0.617993
5133.353516 2145.902100 8537.569336 -0.371381 -0.799444 0.472192
5743.157227 1804.515015 8439.198242 -0.371381 -0.799444 0.472192
5268.887207 2177.857666 8698.269531 -0.371381 -0.799444 0.472192
5133.353516 2145.902100 8537.569336 -0.644274 0.641936 0.415727
5268.887207 2177.857666 8698.269531 -0.644274 0.641936 0.415727
5326.058594 2312.823730 8578.465820 -0.644274 0.641936 0.415727
6049.800293 1695.793335 8426.750000 -0.240722 -0.749546 0.616631
5811.822266 1999.675049 8703.230469 -0.240722 -0.749546 0.616631
5743.157227 1804.515015 8439.198242 -0.240722 -0.749546 0.616631
5811.822266 1999.675049 8703.230469 0.778852 0.360765 0.513067
6069.727051 1896.052856 8384.584961 0.778852 0.360765 0.513067
5823.745117 2142.932373 8584.399414 0.778852 0.360765 0.513067
5811.822266 1999.675049 8703.230469 -0.250538 -0.746235 0.616737
5268.887207 2177.857666 8698.269531 -0.250538 -0.746235 0.616737
5743.157227 1804.515015 8439.198242 -0.250538 -0.746235 0.616737
5823.745117 2142.932373 8584.399414 0.201003 0.615444 0.762119
5326.058594 2312.823730 8578.465820 0.201003 0.615444 0.762119
5811.822266 1999.675049 8703.230469 0.201003 0.615444 0.762119
5811.822266 1999.675049 8703.230469 0.191475 0.604957 0.772894
5326.058594 2312.823730 8578.465820 0.191475 0.604957 0.772894
5268.887207 2177.857666 8698.269531 0.191475 0.604957 0.772894
3 0 1 2
3 3 4 5
3 6 7 8
3 9 10 11
3 12 13 14
3 15 16 17
3 18 19 20
3 21 22 23
3 24 25 26
3 27 28 29
3 30 31 32
3 33 34 35
3 36 37 38
3 39 40 41
3 42 43 44
3 45 46 47
3 48 49 50
3 51 52 53
3 54 55 56
3 57 58 59
3 60 61 62
3 63 64 65
3 66 67 68
3 69 70 71
3 72 73 74
3 75 76 77
3 78 79 80
3 81 82 83
3 84 85 86
3 87 88 89
3 90 91 92
3 93 94 95
3 96 97 98
3 99 100 101
3 102 103 104
3 105 106 107
3 108 109 110
3 111 112 113
3 114 115 116
3 117 118 119
3 120 121 122
3 123 124 125
3 126 127 128
3 129 130 131
3 132 133 134
3 135 136 137
3 138 139 140
3 141 142 143
3 144 145 146
3 147 148 149
3 150 151 152
3 153 154 155
