ply
format ascii 1.0
comment Created by Blender 2.80 (sub 75) - www.blender.org, source file: 'downsample_ccf.blend'
element vertex 510
property float x
property float y
property float z
property float nx
property float ny
property float nz
element face 170
property list uchar uint vertex_indices
end_header
5582.236816 1479.024780 2275.177734 -0.019713 0.563519 -0.825868
5309.886719 1548.923950 2329.373291 -0.019713 0.563519 -0.825868
5729.408203 1800.815063 2491.233887 -0.019713 0.563519 -0.825868
5712.007324 1301.353638 2487.384277 -0.163616 -0.803366 -0.572567
5594.890625 1208.387329 2651.291992 -0.163616 -0.803366 -0.572567
5582.236816 1479.024780 2275.177734 -0.163616 -0.803366 -0.572567
4950.147949 1684.789185 2419.341309 -0.410776 -0.704003 -0.579347
5027.713379 1739.315552 2298.086182 -0.410776 -0.704003 -0.579347
5309.886719 1548.923950 2329.373291 -0.410776 -0.704003 -0.579347
5309.886719 1548.923950 2329.373291 0.337916 0.357760 -0.870529
5027.713379 1739.315552 2298.086182 0.337916 0.357760 -0.870529
5474.833008 1848.912109 2516.686768 0.337916 0.357760 -0.870529
5594.890625 1208.387329 2651.291992 -0.308600 -0.776977 -0.548701
5309.886719 1548.923950 2329.373291 -0.308600 -0.776977 -0.548701
5582.236816 1479.024780 2275.177734 -0.308600 -0.776977 -0.548701
4950.147949 1684.789185 2419.341309 -0.412460 -0.743935 -0.525774
5309.886719 1548.923950 2329.373291 -0.412460 -0.743935 -0.525774
5237.745117 1425.330688 2560.843018 -0.412460 -0.743935 -0.525774
5712.007324 1301.353638 2487.384277 0.843306 -0.025242 -0.536841
5582.236816 1479.024780 2275.177734 0.843306 -0.025242 -0.536841
5729.408203 1800.815063 2491.233887 0.843306 -0.025242 -0.536841
5474.833008 1848.912109 2516.686768 0.013876 0.524083 -0.851554
5729.408203 1800.815063 2491.233887 0.013876 0.524083 -0.851554
5309.886719 1548.923950 2329.373291 0.013876 0.524083 -0.851554
5594.890625 1208.387329 2651.291992 -0.341663 -0.780648 -0.523312
5237.745117 1425.330688 2560.843018 -0.341663 -0.780648 -0.523312
5309.886719 1548.923950 2329.373291 -0.341663 -0.780648 -0.523312
4832.208008 1692.184692 2529.274414 -0.466459 -0.762012 -0.449170
4950.147949 1684.789185 2419.341309 -0.466459 -0.762012 -0.449170
5237.745117 1425.330688 2560.843018 -0.466459 -0.762012 -0.449170
5474.833008 1848.912109 2516.686768 0.029884 0.586504 -0.809395
5990.716797 2387.643311 2926.109863 0.029884 0.586504 -0.809395
5729.408203 1800.815063 2491.233887 0.029884 0.586504 -0.809395
4950.147949 1684.789185 2419.341309 -0.781738 0.574934 -0.241530
5214.539062 2112.413818 2581.520996 -0.781738 0.574934 -0.241530
5027.713379 1739.315552 2298.086182 -0.781738 0.574934 -0.241530
4950.147949 1684.789185 2419.341309 -0.747594 0.582928 -0.318273
5186.241699 2187.105225 2784.789062 -0.747594 0.582928 -0.318273
5214.539062 2112.413818 2581.520996 -0.747594 0.582928 -0.318273
4957.236328 1970.881348 2716.551758 -0.510645 0.625493 -0.589915
4950.147949 1684.789185 2419.341309 -0.510645 0.625493 -0.589915
4832.208008 1692.184692 2529.274414 -0.510645 0.625493 -0.589915
5594.890625 1208.387329 2651.291992 -0.167792 -0.801235 -0.574342
5712.007324 1301.353638 2487.384277 -0.167792 -0.801235 -0.574342
5894.791504 1027.170654 2816.482666 -0.167792 -0.801235 -0.574342
5027.713379 1739.315552 2298.086182 0.285223 0.485138 -0.826613
5214.539062 2112.413818 2581.520996 0.285223 0.485138 -0.826613
5474.833008 1848.912109 2516.686768 0.285223 0.485138 -0.826613
5905.769531 1143.417236 2661.332275 -0.106119 -0.792151 -0.601029
5894.791504 1027.170654 2816.482666 -0.106119 -0.792151 -0.601029
5712.007324 1301.353638 2487.384277 -0.106119 -0.792151 -0.601029
4832.208008 1692.184692 2529.274414 -0.338016 -0.413678 0.845349
5237.745117 1425.330688 2560.843018 -0.338016 -0.413678 0.845349
5684.489746 2155.074463 3096.581787 -0.338016 -0.413678 0.845349
5894.791504 1027.170654 2816.482666 -0.284291 -0.757505 -0.587677
5905.769531 1143.417236 2661.332275 -0.284291 -0.757505 -0.587677
6110.130371 939.891174 2824.813477 -0.284291 -0.757505 -0.587677
5468.746094 2586.580811 2944.987305 0.282948 0.483341 -0.828445
5474.833008 1848.912109 2516.686768 0.282948 0.483341 -0.828445
5214.539062 2112.413818 2581.520996 0.282948 0.483341 -0.828445
4957.236328 1970.881348 2716.551758 -0.433291 0.654453 -0.619637
5186.241699 2187.105225 2784.789062 -0.433291 0.654453 -0.619637
4950.147949 1684.789185 2419.341309 -0.433291 0.654453 -0.619637
5905.769531 1143.417236 2661.332275 0.714214 0.116000 -0.690248
5712.007324 1301.353638 2487.384277 0.714214 0.116000 -0.690248
6113.437988 2339.575439 3077.231934 0.714214 0.116000 -0.690248
5684.489746 2155.074463 3096.581787 -0.509371 -0.284428 0.812184
5237.745117 1425.330688 2560.843018 -0.509371 -0.284428 0.812184
5641.445801 1516.659912 2846.012451 -0.509371 -0.284428 0.812184
5905.769531 1143.417236 2661.332275 0.320004 -0.376885 -0.869227
6219.475586 999.346802 2839.289551 0.320004 -0.376885 -0.869227
6110.130371 939.891174 2824.813477 0.320004 -0.376885 -0.869227
5237.745117 1425.330688 2560.843018 -0.520828 -0.853613 0.009127
5594.890625 1208.387329 2651.291992 -0.520828 -0.853613 0.009127
5894.791504 1027.170654 2816.482666 -0.520828 -0.853613 0.009127
4832.208008 1692.184692 2529.274414 -0.335770 -0.416944 0.844639
5684.489746 2155.074463 3096.581787 -0.335770 -0.416944 0.844639
4957.236328 1970.881348 2716.551758 -0.335770 -0.416944 0.844639
5894.791504 1027.170654 2816.482666 -0.501354 -0.308260 0.808468
5641.445801 1516.659912 2846.012451 -0.501354 -0.308260 0.808468
5237.745117 1425.330688 2560.843018 -0.501354 -0.308260 0.808468
5840.937988 2505.156250 3016.132812 -0.002170 0.606386 -0.795167
5990.716797 2387.643311 2926.109863 -0.002170 0.606386 -0.795167
5474.833008 1848.912109 2516.686768 -0.002170 0.606386 -0.795167
5186.241699 2187.105225 2784.789062 -0.744395 0.586531 -0.319151
5390.687988 2621.905518 3107.002441 -0.744395 0.586531 -0.319151
5214.539062 2112.413818 2581.520996 -0.744395 0.586531 -0.319151
6219.475586 999.346802 2839.289551 0.208518 -0.148109 -0.966739
6556.597656 800.041626 2942.538818 0.208518 -0.148109 -0.966739
6110.130371 939.891174 2824.813477 0.208518 -0.148109 -0.966739
5712.007324 1301.353638 2487.384277 0.872312 -0.026628 -0.488224
5729.408203 1800.815063 2491.233887 0.872312 -0.026628 -0.488224
5990.716797 2387.643311 2926.109863 0.872312 -0.026628 -0.488224
5186.241699 2187.105225 2784.789062 -0.431842 0.653541 -0.621608
4957.236328 1970.881348 2716.551758 -0.431842 0.653541 -0.621608
5294.588867 2570.910156 3113.039551 -0.431842 0.653541 -0.621608
5840.937988 2505.156250 3016.132812 0.265461 0.485737 -0.832820
5474.833008 1848.912109 2516.686768 0.265461 0.485737 -0.832820
5468.746094 2586.580811 2944.987305 0.265461 0.485737 -0.832820
5712.007324 1301.353638 2487.384277 0.782979 0.049543 -0.620073
5990.716797 2387.643311 2926.109863 0.782979 0.049543 -0.620073
6113.437988 2339.575439 3077.231934 0.782979 0.049543 -0.620073
6110.130371 939.891174 2824.813477 -0.361070 -0.910208 -0.202855
6213.584961 860.397034 2997.359375 -0.361070 -0.910208 -0.202855
5894.791504 1027.170654 2816.482666 -0.361070 -0.910208 -0.202855
5641.445801 1516.659912 2846.012451 -0.580910 -0.345135 0.737174
5894.791504 1027.170654 2816.482666 -0.580910 -0.345135 0.737174
6444.566895 822.973694 3154.115967 -0.580910 -0.345135 0.737174
5294.588867 2570.910156 3113.039551 -0.355852 -0.367662 0.859182
4957.236328 1970.881348 2716.551758 -0.355852 -0.367662 0.859182
5684.489746 2155.074463 3096.581787 -0.355852 -0.367662 0.859182
5390.687988 2621.905518 3107.002441 -0.608746 0.661779 -0.437581
5468.746094 2586.580811 2944.987305 -0.608746 0.661779 -0.437581
5214.539062 2112.413818 2581.520996 -0.608746 0.661779 -0.437581
6110.130371 939.891174 2824.813477 -0.172743 -0.895944 -0.409200
6556.597656 800.041626 2942.538818 -0.172743 -0.895944 -0.409200
6537.698730 725.875977 3112.902832 -0.172743 -0.895944 -0.409200
5905.769531 1143.417236 2661.332275 0.548525 0.188042 -0.814715
6113.437988 2339.575439 3077.231934 0.548525 0.188042 -0.814715
6219.475586 999.346802 2839.289551 0.548525 0.188042 -0.814715
5468.746094 2586.580811 2944.987305 0.278118 0.772630 -0.570695
5522.878906 2641.302246 3045.452148 0.278118 0.772630 -0.570695
5840.937988 2505.156250 3016.132812 0.278118 0.772630 -0.570695
6537.698730 725.875977 3112.902832 -0.294353 -0.922783 -0.248651
6213.584961 860.397034 2997.359375 -0.294353 -0.922783 -0.248651
6110.130371 939.891174 2824.813477 -0.294353 -0.922783 -0.248651
6213.584961 860.397034 2997.359375 -0.571407 -0.241663 0.784279
6444.566895 822.973694 3154.115967 -0.571407 -0.241663 0.784279
5894.791504 1027.170654 2816.482666 -0.571407 -0.241663 0.784279
6113.437988 2339.575439 3077.231934 0.539733 0.823129 -0.176484
5990.716797 2387.643311 2926.109863 0.539733 0.823129 -0.176484
5840.937988 2505.156250 3016.132812 0.539733 0.823129 -0.176484
6608.194824 804.390503 2993.072998 0.394998 -0.857556 -0.329507
6537.698730 725.875977 3112.902832 0.394998 -0.857556 -0.329507
6556.597656 800.041626 2942.538818 0.394998 -0.857556 -0.329507
5186.241699 2187.105225 2784.789062 -0.390352 0.659561 -0.642343
5294.588867 2570.910156 3113.039551 -0.390352 0.659561 -0.642343
5390.687988 2621.905518 3107.002441 -0.390352 0.659561 -0.642343
5522.878906 2641.302246 3045.452148 -0.287299 0.897669 -0.334141
5468.746094 2586.580811 2944.987305 -0.287299 0.897669 -0.334141
5390.687988 2621.905518 3107.002441 -0.287299 0.897669 -0.334141
6556.597656 800.041626 2942.538818 0.425481 0.272668 -0.862912
6219.475586 999.346802 2839.289551 0.425481 0.272668 -0.862912
6543.541504 1860.598877 3271.221680 0.425481 0.272668 -0.862912
6113.437988 2339.575439 3077.231934 0.785153 0.167950 -0.596094
6209.735840 2237.253906 3175.242676 0.785153 0.167950 -0.596094
6219.475586 999.346802 2839.289551 0.785153 0.167950 -0.596094
6608.194824 804.390503 2993.072998 0.690552 0.111346 -0.714660
6556.597656 800.041626 2942.538818 0.690552 0.111346 -0.714660
6739.505859 1210.657837 3183.252197 0.690552 0.111346 -0.714660
5641.445801 1516.659912 2846.012451 -0.418725 -0.307180 0.854581
6213.761719 2067.916504 3324.583984 -0.418725 -0.307180 0.854581
5684.489746 2155.074463 3096.581787 -0.418725 -0.307180 0.854581
6114.277344 2270.909424 3287.095459 0.453307 0.847695 0.275547
6113.437988 2339.575439 3077.231934 0.453307 0.847695 0.275547
5840.937988 2505.156250 3016.132812 0.453307 0.847695 0.275547
6543.541504 1860.598877 3271.221680 0.500076 0.230475 -0.834749
6219.475586 999.346802 2839.289551 0.500076 0.230475 -0.834749
6209.735840 2237.253906 3175.242676 0.500076 0.230475 -0.834749
6213.584961 860.397034 2997.359375 -0.479626 -0.690081 0.541985
6537.698730 725.875977 3112.902832 -0.479626 -0.690081 0.541985
6444.566895 822.973694 3154.115967 -0.479626 -0.690081 0.541985
6114.277344 2270.909424 3287.095459 0.396523 0.853572 0.337911
5840.937988 2505.156250 3016.132812 0.396523 0.853572 0.337911
5522.878906 2641.302246 3045.452148 0.396523 0.853572 0.337911
5390.687988 2621.905518 3107.002441 0.159445 0.790372 0.591514
5547.206055 2545.226318 3167.269775 0.159445 0.790372 0.591514
5522.878906 2641.302246 3045.452148 0.159445 0.790372 0.591514
6537.698730 725.875977 3112.902832 0.879468 -0.402884 0.253417
6608.194824 804.390503 2993.072998 0.879468 -0.402884 0.253417
6739.505859 1210.657837 3183.252197 0.879468 -0.402884 0.253417
5522.878906 2641.302246 3045.452148 0.309754 0.775668 0.549901
5547.206055 2545.226318 3167.269775 0.309754 0.775668 0.549901
5838.273926 2397.241699 3212.055176 0.309754 0.775668 0.549901
6892.129883 1611.403687 3369.663574 0.436217 0.271271 -0.857978
6556.597656 800.041626 2942.538818 0.436217 0.271271 -0.857978
6543.541504 1860.598877 3271.221680 0.436217 0.271271 -0.857978
6114.277344 2270.909424 3287.095459 0.571701 0.780456 0.253074
6209.735840 2237.253906 3175.242676 0.571701 0.780456 0.253074
6113.437988 2339.575439 3077.231934 0.571701 0.780456 0.253074
5838.273926 2397.241699 3212.055176 -0.276735 -0.264743 0.923758
5547.206055 2545.226318 3167.269775 -0.276735 -0.264743 0.923758
5684.489746 2155.074463 3096.581787 -0.276735 -0.264743 0.923758
5547.206055 2545.226318 3167.269775 -0.227480 -0.250535 0.941002
5294.588867 2570.910156 3113.039551 -0.227480 -0.250535 0.941002
5684.489746 2155.074463 3096.581787 -0.227480 -0.250535 0.941002
5522.878906 2641.302246 3045.452148 0.076912 0.628015 0.774391
5838.273926 2397.241699 3212.055176 0.076912 0.628015 0.774391
6114.277344 2270.909424 3287.095459 0.076912 0.628015 0.774391
5390.687988 2621.905518 3107.002441 -0.153866 0.397070 0.904799
5294.588867 2570.910156 3113.039551 -0.153866 0.397070 0.904799
5547.206055 2545.226318 3167.269775 -0.153866 0.397070 0.904799
6658.019043 1840.957642 3358.307617 0.604047 0.353296 -0.714359
6543.541504 1860.598877 3271.221680 0.604047 0.353296 -0.714359
6209.735840 2237.253906 3175.242676 0.604047 0.353296 -0.714359
5838.273926 2397.241699 3212.055176 -0.412994 -0.164831 0.895693
5684.489746 2155.074463 3096.581787 -0.412994 -0.164831 0.895693
6213.761719 2067.916504 3324.583984 -0.412994 -0.164831 0.895693
6556.597656 800.041626 2942.538818 0.876279 -0.116235 -0.467572
6892.129883 1611.403687 3369.663574 0.876279 -0.116235 -0.467572
6739.505859 1210.657837 3183.252197 0.876279 -0.116235 -0.467572
6114.277344 2270.909424 3287.095459 0.565298 0.787511 0.245487
6437.038086 2011.966675 3374.530762 0.565298 0.787511 0.245487
6209.735840 2237.253906 3175.242676 0.565298 0.787511 0.245487
6537.698730 725.875977 3112.902832 -0.049382 -0.429998 0.901478
6667.999512 1173.932861 3333.760254 -0.049382 -0.429998 0.901478
6444.566895 822.973694 3154.115967 -0.049382 -0.429998 0.901478
6739.505859 1210.657837 3183.252197 0.860740 -0.403373 0.310512
6667.999512 1173.932861 3333.760254 0.860740 -0.403373 0.310512
6537.698730 725.875977 3112.902832 0.860740 -0.403373 0.310512
6444.566895 822.973694 3154.115967 -0.501760 -0.207992 0.839629
6213.761719 2067.916504 3324.583984 -0.501760 -0.207992 0.839629
5641.445801 1516.659912 2846.012451 -0.501760 -0.207992 0.839629
6543.541504 1860.598877 3271.221680 0.564760 0.545330 -0.619404
6658.019043 1840.957642 3358.307617 0.564760 0.545330 -0.619404
6892.129883 1611.403687 3369.663574 0.564760 0.545330 -0.619404
6209.735840 2237.253906 3175.242676 0.610470 0.772111 0.176556
6437.038086 2011.966675 3374.530762 0.610470 0.772111 0.176556
6658.019043 1840.957642 3358.307617 0.610470 0.772111 0.176556
5838.273926 2397.241699 3212.055176 -0.234294 0.064320 0.970036
6213.761719 2067.916504 3324.583984 -0.234294 0.064320 0.970036
6114.277344 2270.909424 3287.095459 -0.234294 0.064320 0.970036
6739.505859 1210.657837 3183.252197 0.929705 -0.367220 0.028252
6892.129883 1611.403687 3369.663574 0.929705 -0.367220 0.028252
6889.963379 1614.872925 3486.052734 0.929705 -0.367220 0.028252
6667.999512 1173.932861 3333.760254 0.821238 -0.504183 0.267146
6739.505859 1210.657837 3183.252197 0.821238 -0.504183 0.267146
6825.354004 1512.630493 3489.256348 0.821238 -0.504183 0.267146
6825.354004 1512.630493 3489.256348 0.817317 -0.507960 0.271973
6739.505859 1210.657837 3183.252197 0.817317 -0.507960 0.271973
6889.963379 1614.872925 3486.052734 0.817317 -0.507960 0.271973
6437.038086 2011.966675 3374.530762 -0.197553 0.083562 0.976724
6114.277344 2270.909424 3287.095459 -0.197553 0.083562 0.976724
6213.761719 2067.916504 3324.583984 -0.197553 0.083562 0.976724
6725.737305 1665.891113 3501.866211 -0.459241 -0.203540 0.864679
6213.761719 2067.916504 3324.583984 -0.459241 -0.203540 0.864679
6444.566895 822.973694 3154.115967 -0.459241 -0.203540 0.864679
6892.129883 1611.403687 3369.663574 0.700303 0.713798 -0.008241
6658.019043 1840.957642 3358.307617 0.700303 0.713798 -0.008241
6889.963379 1614.872925 3486.052734 0.700303 0.713798 -0.008241
6667.999512 1173.932861 3333.760254 -0.299219 -0.276904 0.913122
6725.737305 1665.891113 3501.866211 -0.299219 -0.276904 0.913122
6444.566895 822.973694 3154.115967 -0.299219 -0.276904 0.913122
6725.737305 1665.891113 3501.866211 -0.307923 -0.275081 0.910777
6667.999512 1173.932861 3333.760254 -0.307923 -0.275081 0.910777
6825.354004 1512.630493 3489.256348 -0.307923 -0.275081 0.910777
6658.019043 1840.957642 3358.307617 0.604652 0.758194 0.244005
6437.038086 2011.966675 3374.530762 0.604652 0.758194 0.244005
6889.963379 1614.872925 3486.052734 0.604652 0.758194 0.244005
6725.737305 1665.891113 3501.866211 -0.159962 0.220578 0.962163
6437.038086 2011.966675 3374.530762 -0.159962 0.220578 0.962163
6213.761719 2067.916504 3324.583984 -0.159962 0.220578 0.962163
6889.963379 1614.872925 3486.052734 0.236318 0.503022 0.831338
6437.038086 2011.966675 3374.530762 0.236318 0.503022 0.831338
6725.737305 1665.891113 3501.866211 0.236318 0.503022 0.831338
6825.354004 1512.630493 3489.256348 0.088254 -0.024568 0.995795
6889.963379 1614.872925 3486.052734 0.088254 -0.024568 0.995795
6725.737305 1665.891113 3501.866211 0.088254 -0.024568 0.995795
6704.454590 1754.937256 7902.682617 0.583503 0.567208 -0.581205
6833.106445 1706.024048 7984.107910 0.583503 0.567208 -0.581205
6840.796875 1574.013672 7862.997559 0.583503 0.567208 -0.581205
6897.869141 1612.288574 8014.192383 0.806174 0.424809 -0.411851
6840.796875 1574.013672 7862.997559 0.806174 0.424809 -0.411851
6833.106445 1706.024048 7984.107910 0.806174 0.424809 -0.411851
6704.454590 1754.937256 7902.682617 -0.302015 -0.018531 -0.953123
6840.796875 1574.013672 7862.997559 -0.302015 -0.018531 -0.953123
6352.504395 1986.174683 8009.708984 -0.302015 -0.018531 -0.953123
6707.767578 1261.798706 8018.758789 0.642208 -0.543367 -0.540667
6578.634766 1013.811157 8114.600098 0.642208 -0.543367 -0.540667
6840.796875 1574.013672 7862.997559 0.642208 -0.543367 -0.540667
6707.767578 1261.798706 8018.758789 0.756854 -0.520009 -0.395933
6840.796875 1574.013672 7862.997559 0.756854 -0.520009 -0.395933
6756.807129 1240.762085 8140.130371 0.756854 -0.520009 -0.395933
6897.869141 1612.288574 8014.192383 0.881916 -0.412312 -0.228525
6756.807129 1240.762085 8140.130371 0.881916 -0.412312 -0.228525
6840.796875 1574.013672 7862.997559 0.881916 -0.412312 -0.228525
6625.732422 1868.766968 8048.980469 0.513542 0.788908 -0.337489
6833.106445 1706.024048 7984.107910 0.513542 0.788908 -0.337489
6704.454590 1754.937256 7902.682617 0.513542 0.788908 -0.337489
6840.796875 1574.013672 7862.997559 -0.429530 -0.195006 -0.881746
6578.634766 1013.811157 8114.600098 -0.429530 -0.195006 -0.881746
6352.504395 1986.174683 8009.708984 -0.429530 -0.195006 -0.881746
6704.454590 1754.937256 7902.682617 -0.031580 0.379838 -0.924514
6352.504395 1986.174683 8009.708984 -0.031580 0.379838 -0.924514
6245.532715 2203.141113 8102.503906 -0.031580 0.379838 -0.924514
6704.454590 1754.937256 7902.682617 0.620440 0.744791 -0.245642
6245.532715 2203.141113 8102.503906 0.620440 0.744791 -0.245642
6625.732422 1868.766968 8048.980469 0.620440 0.744791 -0.245642
6245.532715 2203.141113 8102.503906 0.136500 0.445687 -0.884721
6352.504395 1986.174683 8009.708984 0.136500 0.445687 -0.884721
6083.479004 2225.355225 8088.691895 0.136500 0.445687 -0.884721
6625.732422 1868.766968 8048.980469 0.664364 0.744000 0.071303
6245.532715 2203.141113 8102.503906 0.664364 0.744000 0.071303
6261.557617 2179.712402 8197.655273 0.664364 0.744000 0.071303
6707.767578 1261.798706 8018.758789 0.167468 -0.430060 -0.887132
6531.291016 732.810974 8241.884766 0.167468 -0.430060 -0.887132
6578.634766 1013.811157 8114.600098 0.167468 -0.430060 -0.887132
6833.106445 1706.024048 7984.107910 0.624785 0.594229 0.506494
6625.732422 1868.766968 8048.980469 0.624785 0.594229 0.506494
6897.869141 1612.288574 8014.192383 0.624785 0.594229 0.506494
5766.677246 2423.557861 8177.005371 0.148578 0.590822 -0.793003
6245.532715 2203.141113 8102.503906 0.148578 0.590822 -0.793003
6083.479004 2225.355225 8088.691895 0.148578 0.590822 -0.793003
6578.634766 1013.811157 8114.600098 -0.432247 -0.195484 -0.880312
6083.479004 2225.355225 8088.691895 -0.432247 -0.195484 -0.880312
6352.504395 1986.174683 8009.708984 -0.432247 -0.195484 -0.880312
6245.532715 2203.141113 8102.503906 0.152551 0.597501 -0.787223
5766.677246 2423.557861 8177.005371 0.152551 0.597501 -0.787223
5439.763184 2648.587891 8284.452148 0.152551 0.597501 -0.787223
6756.807129 1240.762085 8140.130371 0.804776 -0.437631 -0.401017
6531.291016 732.810974 8241.884766 0.804776 -0.437631 -0.401017
6707.767578 1261.798706 8018.758789 0.804776 -0.437631 -0.401017
6619.487305 840.783203 8403.508789 0.917509 -0.383760 -0.104426
6756.807129 1240.762085 8140.130371 0.917509 -0.383760 -0.104426
6897.869141 1612.288574 8014.192383 0.917509 -0.383760 -0.104426
6257.971191 834.364685 8352.648438 -0.498276 -0.221570 -0.838229
6083.479004 2225.355225 8088.691895 -0.498276 -0.221570 -0.838229
6578.634766 1013.811157 8114.600098 -0.498276 -0.221570 -0.838229
5766.677246 2423.557861 8177.005371 0.086938 0.529281 -0.843981
5337.881348 2600.841797 8244.014648 0.086938 0.529281 -0.843981
5439.763184 2648.587891 8284.452148 0.086938 0.529281 -0.843981
6257.971191 834.364685 8352.648438 -0.452578 -0.303550 -0.838469
6578.634766 1013.811157 8114.600098 -0.452578 -0.303550 -0.838469
6531.291016 732.810974 8241.884766 -0.452578 -0.303550 -0.838469
6083.479004 2225.355225 8088.691895 -0.535301 -0.221810 -0.815017
6257.971191 834.364685 8352.648438 -0.535301 -0.221810 -0.815017
5842.598633 1064.751099 8562.763672 -0.535301 -0.221810 -0.815017
6897.869141 1612.288574 8014.192383 0.391953 0.297816 0.870447
6625.732422 1868.766968 8048.980469 0.391953 0.297816 0.870447
6619.487305 840.783203 8403.508789 0.391953 0.297816 0.870447
6245.532715 2203.141113 8102.503906 0.360593 0.827817 -0.429758
5439.763184 2648.587891 8284.452148 0.360593 0.827817 -0.429758
5999.241699 2454.612549 8380.245117 0.360593 0.827817 -0.429758
6619.487305 840.783203 8403.508789 0.881685 -0.430246 -0.193701
6531.291016 732.810974 8241.884766 0.881685 -0.430246 -0.193701
6756.807129 1240.762085 8140.130371 0.881685 -0.430246 -0.193701
5372.827148 1529.688477 8674.342773 -0.289190 -0.364965 -0.884969
5337.881348 2600.841797 8244.014648 -0.289190 -0.364965 -0.884969
5766.677246 2423.557861 8177.005371 -0.289190 -0.364965 -0.884969
6245.532715 2203.141113 8102.503906 0.736657 0.674953 0.042127
5999.241699 2454.612549 8380.245117 0.736657 0.674953 0.042127
6261.557617 2179.712402 8197.655273 0.736657 0.674953 0.042127
6625.732422 1868.766968 8048.980469 0.527777 0.226741 0.818559
6261.557617 2179.712402 8197.655273 0.527777 0.226741 0.818559
6252.861816 1080.086792 8507.858398 0.527777 0.226741 0.818559
6083.479004 2225.355225 8088.691895 -0.454503 -0.254362 -0.853655
5842.598633 1064.751099 8562.763672 -0.454503 -0.254362 -0.853655
5372.827148 1529.688477 8674.342773 -0.454503 -0.254362 -0.853655
6083.479004 2225.355225 8088.691895 -0.421840 -0.291759 -0.858445
5372.827148 1529.688477 8674.342773 -0.421840 -0.291759 -0.858445
5766.677246 2423.557861 8177.005371 -0.421840 -0.291759 -0.858445
5439.763184 2648.587891 8284.452148 0.351341 0.914667 -0.199859
5488.870605 2649.493896 8374.926758 0.351341 0.914667 -0.199859
5999.241699 2454.612549 8380.245117 0.351341 0.914667 -0.199859
6568.963379 769.047119 8386.148438 0.823670 -0.562237 -0.073867
6531.291016 732.810974 8241.884766 0.823670 -0.562237 -0.073867
6619.487305 840.783203 8403.508789 0.823670 -0.562237 -0.073867
6619.487305 840.783203 8403.508789 0.433045 0.291525 0.852927
6625.732422 1868.766968 8048.980469 0.433045 0.291525 0.852927
6252.861816 1080.086792 8507.858398 0.433045 0.291525 0.852927
5337.881348 2600.841797 8244.014648 -0.036442 -0.542151 -0.839490
5034.088867 2096.584473 8582.856445 -0.036442 -0.542151 -0.839490
5178.968262 2351.909668 8411.675781 -0.036442 -0.542151 -0.839490
6261.557617 2179.712402 8197.655273 0.775699 0.439115 0.453287
5999.241699 2454.612549 8380.245117 0.775699 0.439115 0.453287
6005.383789 2366.436768 8455.153320 0.775699 0.439115 0.453287
5783.781250 2508.514893 8388.615234 0.123113 0.347784 0.929457
5999.241699 2454.612549 8380.245117 0.123113 0.347784 0.929457
5488.870605 2649.493896 8374.926758 0.123113 0.347784 0.929457
6531.291016 732.810974 8241.884766 -0.238323 -0.933528 0.267821
6210.166504 899.522156 8537.224609 -0.238323 -0.933528 0.267821
6257.971191 834.364685 8352.648438 -0.238323 -0.933528 0.267821
6568.963379 769.047119 8386.148438 -0.216539 -0.932006 0.290647
6210.166504 899.522156 8537.224609 -0.216539 -0.932006 0.290647
6531.291016 732.810974 8241.884766 -0.216539 -0.932006 0.290647
5372.827148 1529.688477 8674.342773 -0.365690 -0.357212 -0.859459
5034.088867 2096.584473 8582.856445 -0.365690 -0.357212 -0.859459
5337.881348 2600.841797 8244.014648 -0.365690 -0.357212 -0.859459
5337.881348 2600.841797 8244.014648 -0.522742 0.679996 0.514146
5178.968262 2351.909668 8411.675781 -0.522742 0.679996 0.514146
5439.763184 2648.587891 8284.452148 -0.522742 0.679996 0.514146
5999.241699 2454.612549 8380.245117 0.176075 0.580345 0.795109
5783.781250 2508.514893 8388.615234 0.176075 0.580345 0.795109
5863.830078 2100.687256 8668.559570 0.176075 0.580345 0.795109
5863.830078 2100.687256 8668.559570 -0.058887 0.643932 0.762813
6005.383789 2366.436768 8455.153320 -0.058887 0.643932 0.762813
5999.241699 2454.612549 8380.245117 -0.058887 0.643932 0.762813
6210.166504 899.522156 8537.224609 -0.387813 -0.896098 0.215890
5842.598633 1064.751099 8562.763672 -0.387813 -0.896098 0.215890
6257.971191 834.364685 8352.648438 -0.387813 -0.896098 0.215890
6568.963379 769.047119 8386.148438 0.236767 -0.382853 0.892953
6619.487305 840.783203 8403.508789 0.236767 -0.382853 0.892953
6210.166504 899.522156 8537.224609 0.236767 -0.382853 0.892953
6619.487305 840.783203 8403.508789 0.319677 0.077989 0.944311
6252.861816 1080.086792 8507.858398 0.319677 0.077989 0.944311
6210.166504 899.522156 8537.224609 0.319677 0.077989 0.944311
5372.827148 1529.688477 8674.342773 -0.377001 -0.362799 -0.852201
4894.970215 1851.290161 8748.827148 -0.377001 -0.362799 -0.852201
5034.088867 2096.584473 8582.856445 -0.377001 -0.362799 -0.852201
6005.383789 2366.436768 8455.153320 0.732909 0.072686 0.676432
5751.340332 1260.345337 8849.261719 0.732909 0.072686 0.676432
6261.557617 2179.712402 8197.655273 0.732909 0.072686 0.676432
5783.781250 2508.514893 8388.615234 0.205383 0.510698 0.834869
5488.870605 2649.493896 8374.926758 0.205383 0.510698 0.834869
5357.552734 1619.587524 9037.236328 0.205383 0.510698 0.834869
5178.968262 2351.909668 8411.675781 -0.460561 0.659580 0.594001
5034.088867 2096.584473 8582.856445 -0.460561 0.659580 0.594001
5439.763184 2648.587891 8284.452148 -0.460561 0.659580 0.594001
5357.552734 1619.587524 9037.236328 0.334793 0.479106 0.811401
5488.870605 2649.493896 8374.926758 0.334793 0.479106 0.811401
5237.568359 2168.650879 8762.539062 0.334793 0.479106 0.811401
5936.189941 1111.205444 8706.511719 0.532206 0.011834 0.846532
6210.166504 899.522156 8537.224609 0.532206 0.011834 0.846532
6252.861816 1080.086792 8507.858398 0.532206 0.011834 0.846532
5936.189941 1111.205444 8706.511719 0.533515 0.225724 0.815114
6252.861816 1080.086792 8507.858398 0.533515 0.225724 0.815114
6261.557617 2179.712402 8197.655273 0.533515 0.225724 0.815114
5842.598633 1064.751099 8562.763672 -0.408104 -0.912453 0.029665
6210.166504 899.522156 8537.224609 -0.408104 -0.912453 0.029665
5792.834473 1089.884033 8651.205078 -0.408104 -0.912453 0.029665
5439.763184 2648.587891 8284.452148 -0.675498 0.643396 0.360201
5237.568359 2168.650879 8762.539062 -0.675498 0.643396 0.360201
5488.870605 2649.493896 8374.926758 -0.675498 0.643396 0.360201
5936.189941 1111.205444 8706.511719 -0.149627 -0.728380 0.668636
5792.834473 1089.884033 8651.205078 -0.149627 -0.728380 0.668636
6210.166504 899.522156 8537.224609 -0.149627 -0.728380 0.668636
5792.834473 1089.884033 8651.205078 -0.712475 -0.669320 -0.210690
5372.827148 1529.688477 8674.342773 -0.712475 -0.669320 -0.210690
5842.598633 1064.751099 8562.763672 -0.712475 -0.669320 -0.210690
6261.557617 2179.712402 8197.655273 0.673639 0.140424 0.725597
5751.340332 1260.345337 8849.261719 0.673639 0.140424 0.725597
5936.189941 1111.205444 8706.511719 0.673639 0.140424 0.725597
5372.827148 1529.688477 8674.342773 -0.394280 -0.393505 -0.830480
4846.406250 1675.091797 8855.371094 -0.394280 -0.393505 -0.830480
4894.970215 1851.290161 8748.827148 -0.394280 -0.393505 -0.830480
5863.830078 2100.687256 8668.559570 0.827569 0.009914 0.561277
5751.340332 1260.345337 8849.261719 0.827569 0.009914 0.561277
6005.383789 2366.436768 8455.153320 0.827569 0.009914 0.561277
4931.751465 1669.120117 8954.265625 -0.419463 0.650531 0.633135
5439.763184 2648.587891 8284.452148 -0.419463 0.650531 0.633135
5034.088867 2096.584473 8582.856445 -0.419463 0.650531 0.633135
5783.781250 2508.514893 8388.615234 0.030108 0.579708 0.814268
5357.552734 1619.587524 9037.236328 0.030108 0.579708 0.814268
5624.768066 1566.187866 9065.373047 0.030108 0.579708 0.814268
5863.830078 2100.687256 8668.559570 0.070958 0.573932 0.815823
5783.781250 2508.514893 8388.615234 0.070958 0.573932 0.815823
5624.768066 1566.187866 9065.373047 0.070958 0.573932 0.815823
5792.834473 1089.884033 8651.205078 -0.129716 -0.764805 0.631068
5936.189941 1111.205444 8706.511719 -0.129716 -0.764805 0.631068
5751.340332 1260.345337 8849.261719 -0.129716 -0.764805 0.631068
5792.834473 1089.884033 8651.205078 -0.500028 -0.438223 -0.746949
5207.200684 1443.602783 8835.722656 -0.500028 -0.438223 -0.746949
5372.827148 1529.688477 8674.342773 -0.500028 -0.438223 -0.746949
4931.751465 1669.120117 8954.265625 -0.782577 0.572748 0.243993
5237.568359 2168.650879 8762.539062 -0.782577 0.572748 0.243993
5439.763184 2648.587891 8284.452148 -0.782577 0.572748 0.243993
5207.200684 1443.602783 8835.722656 -0.357402 -0.822517 0.442413
5792.834473 1089.884033 8651.205078 -0.357402 -0.822517 0.442413
5615.684082 1334.331421 8962.561523 -0.357402 -0.822517 0.442413
5207.200684 1443.602783 8835.722656 -0.403557 -0.568099 -0.717220
4846.406250 1675.091797 8855.371094 -0.403557 -0.568099 -0.717220
5372.827148 1529.688477 8674.342773 -0.403557 -0.568099 -0.717220
5034.088867 2096.584473 8582.856445 -0.381607 0.656613 0.650566
4894.970215 1851.290161 8748.827148 -0.381607 0.656613 0.650566
4931.751465 1669.120117 8954.265625 -0.381607 0.656613 0.650566
5357.552734 1619.587524 9037.236328 0.328569 0.479037 0.813981
5237.568359 2168.650879 8762.539062 0.328569 0.479037 0.813981
5042.310547 1796.762207 9060.216797 0.328569 0.479037 0.813981
4894.970215 1851.290161 8748.827148 -0.630120 0.521536 0.575281
4846.406250 1675.091797 8855.371094 -0.630120 0.521536 0.575281
4931.751465 1669.120117 8954.265625 -0.630120 0.521536 0.575281
5751.340332 1260.345337 8849.261719 0.154029 -0.732705 0.662887
5615.684082 1334.331421 8962.561523 0.154029 -0.732705 0.662887
5792.834473 1089.884033 8651.205078 0.154029 -0.732705 0.662887
4931.751465 1669.120117 8954.265625 -0.486738 -0.790224 0.372334
4846.406250 1675.091797 8855.371094 -0.486738 -0.790224 0.372334
5207.200684 1443.602783 8835.722656 -0.486738 -0.790224 0.372334
5863.830078 2100.687256 8668.559570 0.859645 -0.005220 0.510865
5624.768066 1566.187866 9065.373047 0.859645 -0.005220 0.510865
5751.340332 1260.345337 8849.261719 0.859645 -0.005220 0.510865
5237.568359 2168.650879 8762.539062 -0.810219 0.561082 0.169507
4931.751465 1669.120117 8954.265625 -0.810219 0.561082 0.169507
5042.310547 1796.762207 9060.216797 -0.810219 0.561082 0.169507
5624.768066 1566.187866 9065.373047 0.789490 -0.101045 0.605388
5599.518066 1468.384888 9081.977539 0.789490 -0.101045 0.605388
5751.340332 1260.345337 8849.261719 0.789490 -0.101045 0.605388
5615.684082 1334.331421 8962.561523 -0.369888 -0.756211 0.539747
5119.865234 1660.231689 9079.378906 -0.369888 -0.756211 0.539747
5207.200684 1443.602783 8835.722656 -0.369888 -0.756211 0.539747
5599.518066 1468.384888 9081.977539 0.274559 -0.620930 0.734209
5615.684082 1334.331421 8962.561523 0.274559 -0.620930 0.734209
5751.340332 1260.345337 8849.261719 0.274559 -0.620930 0.734209
5119.865234 1660.231689 9079.378906 -0.388476 -0.753381 0.530569
4931.751465 1669.120117 8954.265625 -0.388476 -0.753381 0.530569
5207.200684 1443.602783 8835.722656 -0.388476 -0.753381 0.530569
5599.518066 1468.384888 9081.977539 -0.267285 -0.658736 0.703297
5119.865234 1660.231689 9079.378906 -0.267285 -0.658736 0.703297
5615.684082 1334.331421 8962.561523 -0.267285 -0.658736 0.703297
5357.552734 1619.587524 9037.236328 0.210582 0.252179 0.944490
5042.310547 1796.762207 9060.216797 0.210582 0.252179 0.944490
5119.865234 1660.231689 9079.378906 0.210582 0.252179 0.944490
5119.865234 1660.231689 9079.378906 0.238186 0.605791 0.759134
5599.518066 1468.384888 9081.977539 0.238186 0.605791 0.759134
5357.552734 1619.587524 9037.236328 0.238186 0.605791 0.759134
5624.768066 1566.187866 9065.373047 -0.066559 0.183687 0.980729
5357.552734 1619.587524 9037.236328 -0.066559 0.183687 0.980729
5599.518066 1468.384888 9081.977539 -0.066559 0.183687 0.980729
4931.751465 1669.120117 8954.265625 -0.549292 -0.198081 0.811814
5119.865234 1660.231689 9079.378906 -0.549292 -0.198081 0.811814
5042.310547 1796.762207 9060.216797 -0.549292 -0.198081 0.811814
3 0 1 2
3 3 4 5
3 6 7 8
3 9 10 11
3 12 13 14
3 15 16 17
3 18 19 20
3 21 22 23
3 24 25 26
3 27 28 29
3 30 31 32
3 33 34 35
3 36 37 38
3 39 40 41
3 42 43 44
3 45 46 47
3 48 49 50
3 51 52 53
3 54 55 56
3 57 58 59
3 60 61 62
3 63 64 65
3 66 67 68
3 69 70 71
3 72 73 74
3 75 76 77
3 78 79 80
3 81 82 83
3 84 85 86
3 87 88 89
3 90 91 92
3 93 94 95
3 96 97 98
3 99 100 101
3 102 103 104
3 105 106 107
3 108 109 110
3 111 112 113
3 114 115 116
3 117 118 119
3 120 121 122
3 123 124 125
3 126 127 128
3 129 130 131
3 132 133 134
3 135 136 137
3 138 139 140
3 141 142 143
3 144 145 146
3 147 148 149
3 150 151 152
3 153 154 155
3 156 157 158
3 159 160 161
3 162 163 164
3 165 166 167
3 168 169 170
3 171 172 173
3 174 175 176
3 177 178 179
3 180 181 182
3 183 184 185
3 186 187 188
3 189 190 191
3 192 193 194
3 195 196 197
3 198 199 200
3 201 202 203
3 204 205 206
3 207 208 209
3 210 211 212
3 213 214 215
3 216 217 218
3 219 220 221
3 222 223 224
3 225 226 227
3 228 229 230
3 231 232 233
3 234 235 236
3 237 238 239
3 240 241 242
3 243 244 245
3 246 247 248
3 249 250 251
3 252 253 254
3 255 256 257
3 258 259 260
3 261 262 263
3 264 265 266
3 267 268 269
3 270 271 272
3 273 274 275
3 276 277 278
3 279 280 281
3 282 283 284
3 285 286 287
3 288 289 290
3 291 292 293
3 294 295 296
3 297 298 299
3 300 301 302
3 303 304 305
3 306 307 308
3 309 310 311
3 312 313 314
3 315 316 317
3 318 319 320
3 321 322 323
3 324 325 326
3 327 328 329
3 330 331 332
3 333 334 335
3 336 337 338
3 339 340 341
3 342 343 344
3 345 346 347
3 348 349 350
3 351 352 353
3 354 355 356
3 357 358 359
3 360 361 362
3 363 364 365
3 366 367 368
3 369 370 371
3 372 373 374
3 375 376 377
3 378 379 380
3 381 382 383
3 384 385 386
3 387 388 389
3 390 391 392
3 393 394 395
3 396 397 398
3 399 400 401
3 402 403 404
3 405 406 407
3 408 409 410
3 411 412 413
3 414 415 416
3 417 418 419
3 420 421 422
3 423 424 425
3 426 427 428
3 429 430 431
3 432 433 434
3 435 436 437
3 438 439 440
3 441 442 443
3 444 445 446
3 447 448 449
3 450 451 452
3 453 454 455
3 456 457 458
3 459 460 461
3 462 463 464
3 465 466 467
3 468 469 470
3 471 472 473
3 474 475 476
3 477 478 479
3 480 481 482
3 483 484 485
3 486 487 488
3 489 490 491
3 492 493 494
3 495 496 497
3 498 499 500
3 501 502 503
3 504 505 506
3 507 508 509
