ply
format ascii 1.0
comment Created by Blender 2.80 (sub 75) - www.blender.org, source file: 'downsample_ccf.blend'
element vertex 240
property float x
property float y
property float z
property float nx
property float ny
property float nz
element face 80
property list uchar uint vertex_indices
end_header
5502.361816 3096.676270 1755.528809 0.362392 0.588490 -0.722739
6271.880859 2768.548096 1874.199097 0.362392 0.588490 -0.722739
6218.734375 2651.569824 1752.301025 0.362392 0.588490 -0.722739
5397.061035 2886.478516 1898.076904 -0.293322 -0.533836 -0.793084
6218.734375 2651.569824 1752.301025 -0.293322 -0.533836 -0.793084
5304.729492 2589.457031 2132.155029 -0.293322 -0.533836 -0.793084
6218.734375 2651.569824 1752.301025 -0.277358 -0.440198 -0.853990
5397.061035 2886.478516 1898.076904 -0.277358 -0.440198 -0.853990
5502.361816 3096.676270 1755.528809 -0.277358 -0.440198 -0.853990
5522.711426 3184.360596 1863.097534 0.385630 0.678085 -0.625692
6271.880859 2768.548096 1874.199097 0.385630 0.678085 -0.625692
5502.361816 3096.676270 1755.528809 0.385630 0.678085 -0.625692
5522.711426 3184.360596 1863.097534 -0.918963 0.372399 -0.129712
5502.361816 3096.676270 1755.528809 -0.918963 0.372399 -0.129712
5397.061035 2886.478516 1898.076904 -0.918963 0.372399 -0.129712
6218.734375 2651.569824 1752.301025 0.946612 -0.295290 -0.129342
6271.880859 2768.548096 1874.199097 0.946612 -0.295290 -0.129342
6274.214355 2733.787598 1970.635986 0.946612 -0.295290 -0.129342
6271.880859 2768.548096 1874.199097 0.481600 0.863738 -0.148387
5522.711426 3184.360596 1863.097534 0.481600 0.863738 -0.148387
5610.321777 3146.247314 1925.591553 0.481600 0.863738 -0.148387
6218.734375 2651.569824 1752.301025 0.909105 -0.409419 -0.076834
6274.214355 2733.787598 1970.635986 0.909105 -0.409419 -0.076834
6123.929688 2352.964111 2221.721680 0.909105 -0.409419 -0.076834
6218.734375 2651.569824 1752.301025 -0.274649 -0.592035 -0.757669
6071.738281 2330.459229 2056.498535 -0.274649 -0.592035 -0.757669
5304.729492 2589.457031 2132.155029 -0.274649 -0.592035 -0.757669
5397.061035 2886.478516 1898.076904 -0.912223 0.396774 0.102077
5347.366699 2666.521240 2308.951172 -0.912223 0.396774 0.102077
5522.711426 3184.360596 1863.097534 -0.912223 0.396774 0.102077
5610.321777 3146.247314 1925.591553 0.491876 0.822810 0.284678
6274.214355 2733.787598 1970.635986 0.491876 0.822810 0.284678
6271.880859 2768.548096 1874.199097 0.491876 0.822810 0.284678
6218.734375 2651.569824 1752.301025 0.816497 -0.547463 -0.183349
6123.929688 2352.964111 2221.721680 0.816497 -0.547463 -0.183349
6071.738281 2330.459229 2056.498535 0.816497 -0.547463 -0.183349
5438.548828 2926.898926 2090.950928 -0.201199 0.685244 0.699971
5610.321777 3146.247314 1925.591553 -0.201199 0.685244 0.699971
5522.711426 3184.360596 1863.097534 -0.201199 0.685244 0.699971
5347.366699 2666.521240 2308.951172 -0.742552 0.563355 0.362282
5438.548828 2926.898926 2090.950928 -0.742552 0.563355 0.362282
5522.711426 3184.360596 1863.097534 -0.742552 0.563355 0.362282
5299.062012 2258.479004 2449.263672 -0.291005 -0.659272 -0.693308
5304.729492 2589.457031 2132.155029 -0.291005 -0.659272 -0.693308
6071.738281 2330.459229 2056.498535 -0.291005 -0.659272 -0.693308
6274.214355 2733.787598 1970.635986 0.922237 -0.122071 0.366849
6124.816895 2432.006104 2245.792969 0.922237 -0.122071 0.366849
6123.929688 2352.964111 2221.721680 0.922237 -0.122071 0.366849
5944.403809 2102.397705 2365.130615 -0.258385 -0.722920 -0.640800
5299.062012 2258.479004 2449.263672 -0.258385 -0.722920 -0.640800
6071.738281 2330.459229 2056.498535 -0.258385 -0.722920 -0.640800
5304.729492 2589.457031 2132.155029 -0.934459 0.348403 0.073493
5347.366699 2666.521240 2308.951172 -0.934459 0.348403 0.073493
5397.061035 2886.478516 1898.076904 -0.934459 0.348403 0.073493
6124.816895 2432.006104 2245.792969 0.239790 0.586605 0.773560
6274.214355 2733.787598 1970.635986 0.239790 0.586605 0.773560
5347.366699 2666.521240 2308.951172 0.239790 0.586605 0.773560
5347.366699 2666.521240 2308.951172 0.261815 0.510841 0.818837
6274.214355 2733.787598 1970.635986 0.261815 0.510841 0.818837
5610.321777 3146.247314 1925.591553 0.261815 0.510841 0.818837
6123.929688 2352.964111 2221.721680 0.759437 -0.632142 -0.153791
5944.403809 2102.397705 2365.130615 0.759437 -0.632142 -0.153791
6071.738281 2330.459229 2056.498535 0.759437 -0.632142 -0.153791
5610.321777 3146.247314 1925.591553 -0.141391 0.664146 0.734111
5438.548828 2926.898926 2090.950928 -0.141391 0.664146 0.734111
5347.366699 2666.521240 2308.951172 -0.141391 0.664146 0.734111
5304.729492 2589.457031 2132.155029 -0.928755 0.364969 0.064897
5225.247559 2316.522217 2529.607666 -0.928755 0.364969 0.064897
5347.366699 2666.521240 2308.951172 -0.928755 0.364969 0.064897
6124.816895 2432.006104 2245.792969 0.934487 -0.113270 0.337497
5988.035645 2241.424316 2560.560303 0.934487 -0.113270 0.337497
6123.929688 2352.964111 2221.721680 0.934487 -0.113270 0.337497
5304.729492 2589.457031 2132.155029 -0.799889 -0.407994 -0.440134
5299.062012 2258.479004 2449.263672 -0.799889 -0.407994 -0.440134
5225.247559 2316.522217 2529.607666 -0.799889 -0.407994 -0.440134
5944.403809 2102.397705 2365.130615 -0.264266 -0.812844 -0.519084
5784.540527 2019.578857 2576.204590 -0.264266 -0.812844 -0.519084
5299.062012 2258.479004 2449.263672 -0.264266 -0.812844 -0.519084
5225.247559 2316.522217 2529.607666 -0.912264 0.392385 0.117512
5293.380371 2459.034912 2582.667725 -0.912264 0.392385 0.117512
5347.366699 2666.521240 2308.951172 -0.912264 0.392385 0.117512
5347.366699 2666.521240 2308.951172 0.277685 0.763561 0.582980
5988.035645 2241.424316 2560.560303 0.277685 0.763561 0.582980
6124.816895 2432.006104 2245.792969 0.277685 0.763561 0.582980
5898.508789 2151.551514 2687.176025 0.846788 -0.494446 0.196144
5944.403809 2102.397705 2365.130615 0.846788 -0.494446 0.196144
6123.929688 2352.964111 2221.721680 0.846788 -0.494446 0.196144
5898.508789 2151.551514 2687.176025 0.649312 -0.732556 0.204344
5784.540527 2019.578857 2576.204590 0.649312 -0.732556 0.204344
5944.403809 2102.397705 2365.130615 0.649312 -0.732556 0.204344
5988.035645 2241.424316 2560.560303 0.774985 -0.623077 0.105708
5898.508789 2151.551514 2687.176025 0.774985 -0.623077 0.105708
6123.929688 2352.964111 2221.721680 0.774985 -0.623077 0.105708
5299.062012 2258.479004 2449.263672 -0.649772 -0.758550 -0.048963
5423.753418 2139.188965 2642.600830 -0.649772 -0.758550 -0.048963
5225.247559 2316.522217 2529.607666 -0.649772 -0.758550 -0.048963
5293.380371 2459.034912 2582.667725 0.016075 0.795285 0.606023
5366.075684 2362.705322 2707.152832 0.016075 0.795285 0.606023
5347.366699 2666.521240 2308.951172 0.016075 0.795285 0.606023
5423.753418 2139.188965 2642.600830 -0.350537 -0.881071 -0.317549
5299.062012 2258.479004 2449.263672 -0.350537 -0.881071 -0.317549
5784.540527 2019.578857 2576.204590 -0.350537 -0.881071 -0.317549
5293.380371 2459.034912 2582.667725 -0.793207 0.160513 0.587416
5225.247559 2316.522217 2529.607666 -0.793207 0.160513 0.587416
5366.075684 2362.705322 2707.152832 -0.793207 0.160513 0.587416
5423.753418 2139.188965 2642.600830 -0.683159 -0.359814 0.635474
5366.075684 2362.705322 2707.152832 -0.683159 -0.359814 0.635474
5225.247559 2316.522217 2529.607666 -0.683159 -0.359814 0.635474
5988.035645 2241.424316 2560.560303 0.284893 0.768485 0.572946
5347.366699 2666.521240 2308.951172 0.284893 0.768485 0.572946
5366.075684 2362.705322 2707.152832 0.284893 0.768485 0.572946
5366.075684 2362.705322 2707.152832 0.291540 0.670595 0.682134
5898.508789 2151.551514 2687.176025 0.291540 0.670595 0.682134
5988.035645 2241.424316 2560.560303 0.291540 0.670595 0.682134
5423.753418 2139.188965 2642.600830 -0.118773 -0.731170 0.671776
5784.540527 2019.578857 2576.204590 -0.118773 -0.731170 0.671776
5585.505371 2209.237793 2747.441406 -0.118773 -0.731170 0.671776
5585.505371 2209.237793 2747.441406 0.024458 -0.655677 0.754645
5784.540527 2019.578857 2576.204590 0.024458 -0.655677 0.754645
5898.508789 2151.551514 2687.176025 0.024458 -0.655677 0.754645
5366.075684 2362.705322 2707.152832 -0.399129 -0.347983 0.848295
5423.753418 2139.188965 2642.600830 -0.399129 -0.347983 0.848295
5585.505371 2209.237793 2747.441406 -0.399129 -0.347983 0.848295
5898.508789 2151.551514 2687.176025 0.255419 0.570180 0.780805
5366.075684 2362.705322 2707.152832 0.255419 0.570180 0.780805
5585.505371 2209.237793 2747.441406 0.255419 0.570180 0.780805
5548.266113 2061.508545 8749.537109 -0.285977 -0.438721 -0.851904
5293.292480 2255.436523 8735.258789 -0.285977 -0.438721 -0.851904
5686.983887 2200.431885 8631.426758 -0.285977 -0.438721 -0.851904
5686.983887 2200.431885 8631.426758 -0.281015 -0.276570 -0.918988
5293.292480 2255.436523 8735.258789 -0.281015 -0.276570 -0.918988
5360.522949 2382.015869 8676.606445 -0.281015 -0.276570 -0.918988
5360.522949 2382.015869 8676.606445 0.323472 0.731037 -0.600792
5946.107910 2165.908203 8728.933594 0.323472 0.731037 -0.600792
5686.983887 2200.431885 8631.426758 0.323472 0.731037 -0.600792
5548.266113 2061.508545 8749.537109 0.155642 -0.725431 -0.670466
5686.983887 2200.431885 8631.426758 0.155642 -0.725431 -0.670466
5946.107910 2165.908203 8728.933594 0.155642 -0.725431 -0.670466
5946.107910 2165.908203 8728.933594 0.136109 -0.663813 -0.735409
5867.037598 2022.863281 8843.417969 0.136109 -0.663813 -0.735409
5548.266113 2061.508545 8749.537109 0.136109 -0.663813 -0.735409
5293.292480 2255.436523 8735.258789 -0.812691 0.173960 -0.556122
5257.310059 2406.265381 8835.022461 -0.812691 0.173960 -0.556122
5360.522949 2382.015869 8676.606445 -0.812691 0.173960 -0.556122
5946.107910 2165.908203 8728.933594 0.323639 0.731708 -0.599884
5360.522949 2382.015869 8676.606445 0.323639 0.731708 -0.599884
6101.962891 2393.356934 9090.448242 0.323639 0.731708 -0.599884
5244.835449 2299.147949 8949.304688 -0.606076 -0.795009 0.025146
5293.292480 2255.436523 8735.258789 -0.606076 -0.795009 0.025146
5548.266113 2061.508545 8749.537109 -0.606076 -0.795009 0.025146
5293.292480 2255.436523 8735.258789 -0.974629 -0.100091 -0.200202
5244.835449 2299.147949 8949.304688 -0.974629 -0.100091 -0.200202
5257.310059 2406.265381 8835.022461 -0.974629 -0.100091 -0.200202
5380.726562 2699.471191 9132.560547 0.297532 0.777278 -0.554359
6101.962891 2393.356934 9090.448242 0.297532 0.777278 -0.554359
5360.522949 2382.015869 8676.606445 0.297532 0.777278 -0.554359
5946.107910 2165.908203 8728.933594 0.792116 -0.582860 -0.181181
6012.612793 2161.527344 9033.783203 0.792116 -0.582860 -0.181181
5867.037598 2022.863281 8843.417969 0.792116 -0.582860 -0.181181
5257.310059 2406.265381 8835.022461 -0.545574 0.698923 -0.462446
5380.726562 2699.471191 9132.560547 -0.545574 0.698923 -0.462446
5360.522949 2382.015869 8676.606445 -0.545574 0.698923 -0.462446
5867.037598 2022.863281 8843.417969 -0.258496 -0.793365 0.551137
5244.835449 2299.147949 8949.304688 -0.258496 -0.793365 0.551137
5548.266113 2061.508545 8749.537109 -0.258496 -0.793365 0.551137
5244.835449 2299.147949 8949.304688 -0.990937 0.133281 0.016758
5299.860352 2670.791016 9247.274414 -0.990937 0.133281 0.016758
5257.310059 2406.265381 8835.022461 -0.990937 0.133281 0.016758
6040.293945 2295.324463 9297.261719 -0.251781 -0.784313 0.566974
5244.835449 2299.147949 8949.304688 -0.251781 -0.784313 0.566974
5867.037598 2022.863281 8843.417969 -0.251781 -0.784313 0.566974
6012.612793 2161.527344 9033.783203 0.928796 -0.307364 -0.207040
5946.107910 2165.908203 8728.933594 0.928796 -0.307364 -0.207040
6101.962891 2393.356934 9090.448242 0.928796 -0.307364 -0.207040
5257.310059 2406.265381 8835.022461 -0.698388 0.632971 -0.334069
5299.860352 2670.791016 9247.274414 -0.698388 0.632971 -0.334069
5380.726562 2699.471191 9132.560547 -0.698388 0.632971 -0.334069
6012.612793 2161.527344 9033.783203 0.289405 -0.865401 0.409055
6040.293945 2295.324463 9297.261719 0.289405 -0.865401 0.409055
5867.037598 2022.863281 8843.417969 0.289405 -0.865401 0.409055
5380.726562 2699.471191 9132.560547 0.170030 0.516097 -0.839484
5537.089844 3178.609863 9458.794922 0.170030 0.516097 -0.839484
6101.962891 2393.356934 9090.448242 0.170030 0.516097 -0.839484
5537.089844 3178.609863 9458.794922 -0.754101 0.519595 -0.401688
5380.726562 2699.471191 9132.560547 -0.754101 0.519595 -0.401688
5299.860352 2670.791016 9247.274414 -0.754101 0.519595 -0.401688
5244.835449 2299.147949 8949.304688 -0.708025 -0.374961 0.598419
5396.057129 2772.539307 9424.844727 -0.708025 -0.374961 0.598419
5299.860352 2670.791016 9247.274414 -0.708025 -0.374961 0.598419
5537.089844 3178.609863 9458.794922 0.294049 0.571049 -0.766445
6263.865723 2783.795898 9443.463867 0.294049 0.571049 -0.766445
6101.962891 2393.356934 9090.448242 0.294049 0.571049 -0.766445
6012.612793 2161.527344 9033.783203 0.926637 -0.302607 -0.223099
6101.962891 2393.356934 9090.448242 0.926637 -0.302607 -0.223099
6278.702148 2675.107178 9442.371094 0.926637 -0.302607 -0.223099
6200.651855 2578.471924 9571.926758 0.712978 -0.652592 0.256487
6040.293945 2295.324463 9297.261719 0.712978 -0.652592 0.256487
6012.612793 2161.527344 9033.783203 0.712978 -0.652592 0.256487
6101.962891 2393.356934 9090.448242 0.845038 0.120588 -0.520930
6263.865723 2783.795898 9443.463867 0.845038 0.120588 -0.520930
6278.702148 2675.107178 9442.371094 0.845038 0.120588 -0.520930
6012.612793 2161.527344 9033.783203 0.842096 -0.527109 0.114148
6278.702148 2675.107178 9442.371094 0.842096 -0.527109 0.114148
6200.651855 2578.471924 9571.926758 0.842096 -0.527109 0.114148
5396.057129 2772.539307 9424.844727 -0.316988 -0.619848 0.717849
5244.835449 2299.147949 8949.304688 -0.316988 -0.619848 0.717849
6040.293945 2295.324463 9297.261719 -0.316988 -0.619848 0.717849
6278.702148 2675.107178 9442.371094 0.966702 0.129741 0.220578
6263.865723 2783.795898 9443.463867 0.966702 0.129741 0.220578
6236.469727 2709.792969 9607.056641 0.966702 0.129741 0.220578
5537.089844 3178.609863 9458.794922 -0.879558 0.460587 -0.119316
5299.860352 2670.791016 9247.274414 -0.879558 0.460587 -0.119316
5507.811035 3153.776855 9578.767578 -0.879558 0.460587 -0.119316
6200.651855 2578.471924 9571.926758 -0.279948 -0.582037 0.763454
5396.057129 2772.539307 9424.844727 -0.279948 -0.582037 0.763454
6040.293945 2295.324463 9297.261719 -0.279948 -0.582037 0.763454
6263.865723 2783.795898 9443.463867 0.462003 0.839334 0.286483
5537.089844 3178.609863 9458.794922 0.462003 0.839334 0.286483
5507.811035 3153.776855 9578.767578 0.462003 0.839334 0.286483
6200.651855 2578.471924 9571.926758 0.897486 -0.324650 0.298531
6278.702148 2675.107178 9442.371094 0.897486 -0.324650 0.298531
6236.469727 2709.792969 9607.056641 0.897486 -0.324650 0.298531
5396.057129 2772.539307 9424.844727 -0.868607 -0.040622 0.493835
5494.192871 3062.702881 9621.324219 -0.868607 -0.040622 0.493835
5299.860352 2670.791016 9247.274414 -0.868607 -0.040622 0.493835
6263.865723 2783.795898 9443.463867 0.457834 0.778720 0.428933
5507.811035 3153.776855 9578.767578 0.457834 0.778720 0.428933
6236.469727 2709.792969 9607.056641 0.457834 0.778720 0.428933
5494.192871 3062.702881 9621.324219 -0.941263 0.247889 0.229294
5507.811035 3153.776855 9578.767578 -0.941263 0.247889 0.229294
5299.860352 2670.791016 9247.274414 -0.941263 0.247889 0.229294
5396.057129 2772.539307 9424.844727 -0.267984 -0.476395 0.837396
6200.651855 2578.471924 9571.926758 -0.267984 -0.476395 0.837396
5494.192871 3062.702881 9621.324219 -0.267984 -0.476395 0.837396
5494.192871 3062.702881 9621.324219 0.202481 0.389556 0.898470
6236.469727 2709.792969 9607.056641 0.202481 0.389556 0.898470
5507.811035 3153.776855 9578.767578 0.202481 0.389556 0.898470
5494.192871 3062.702881 9621.324219 -0.092504 -0.233694 0.967900
6200.651855 2578.471924 9571.926758 -0.092504 -0.233694 0.967900
6236.469727 2709.792969 9607.056641 -0.092504 -0.233694 0.967900
3 0 1 2
3 3 4 5
3 6 7 8
3 9 10 11
3 12 13 14
3 15 16 17
3 18 19 20
3 21 22 23
3 24 25 26
3 27 28 29
3 30 31 32
3 33 34 35
3 36 37 38
3 39 40 41
3 42 43 44
3 45 46 47
3 48 49 50
3 51 52 53
3 54 55 56
3 57 58 59
3 60 61 62
3 63 64 65
3 66 67 68
3 69 70 71
3 72 73 74
3 75 76 77
3 78 79 80
3 81 82 83
3 84 85 86
3 87 88 89
3 90 91 92
3 93 94 95
3 96 97 98
3 99 100 101
3 102 103 104
3 105 106 107
3 108 109 110
3 111 112 113
3 114 115 116
3 117 118 119
3 120 121 122
3 123 124 125
3 126 127 128
3 129 130 131
3 132 133 134
3 135 136 137
3 138 139 140
3 141 142 143
3 144 145 146
3 147 148 149
3 150 151 152
3 153 154 155
3 156 157 158
3 159 160 161
3 162 163 164
3 165 166 167
3 168 169 170
3 171 172 173
3 174 175 176
3 177 178 179
3 180 181 182
3 183 184 185
3 186 187 188
3 189 190 191
3 192 193 194
3 195 196 197
3 198 199 200
3 201 202 203
3 204 205 206
3 207 208 209
3 210 211 212
3 213 214 215
3 216 217 218
3 219 220 221
3 222 223 224
3 225 226 227
3 228 229 230
3 231 232 233
3 234 235 236
3 237 238 239
