ply
format ascii 1.0
comment Created by Blender 2.80 (sub 75) - www.blender.org, source file: 'downsample_ccf.blend'
element vertex 318
property float x
property float y
property float z
property float nx
property float ny
property float nz
element face 106
property list uchar uint vertex_indices
end_header
5105.103027 2330.580566 2997.683350 0.223708 0.339085 -0.913770
5509.126953 1919.345825 2943.993896 0.223708 0.339085 -0.913770
4886.506836 2201.524658 2896.276367 0.223708 0.339085 -0.913770
5105.103027 2330.580566 2997.683350 0.303048 0.410045 -0.860247
5535.071777 2121.006592 3049.257324 0.303048 0.410045 -0.860247
5509.126953 1919.345825 2943.993896 0.303048 0.410045 -0.860247
4514.360352 2458.799072 3035.198730 -0.945605 -0.115917 -0.303964
4556.474609 2326.040771 2954.812500 -0.945605 -0.115917 -0.303964
4531.271484 2281.932617 3050.038086 -0.945605 -0.115917 -0.303964
4556.474609 2326.040771 2954.812500 0.049173 0.528697 -0.847385
4514.360352 2458.799072 3035.198730 0.049173 0.528697 -0.847385
4886.506836 2201.524658 2896.276367 0.049173 0.528697 -0.847385
4886.506836 2201.524658 2896.276367 0.065387 0.545694 -0.835429
4514.360352 2458.799072 3035.198730 0.065387 0.545694 -0.835429
5105.103027 2330.580566 2997.683350 0.065387 0.545694 -0.835429
6099.120117 1524.833740 3164.815430 -0.306654 -0.771007 -0.558132
4886.506836 2201.524658 2896.276367 -0.306654 -0.771007 -0.558132
5509.126953 1919.345825 2943.993896 -0.306654 -0.771007 -0.558132
5535.071777 2121.006592 3049.257324 0.443342 0.369289 -0.816746
5952.853027 1875.481567 3165.022217 0.443342 0.369289 -0.816746
5509.126953 1919.345825 2943.993896 0.443342 0.369289 -0.816746
5105.103027 2330.580566 2997.683350 0.106413 0.697593 -0.708548
4514.360352 2458.799072 3035.198730 0.106413 0.697593 -0.708548
4648.197754 2489.802002 3085.822754 0.106413 0.697593 -0.708548
5952.853027 1875.481567 3165.022217 0.452733 0.189364 -0.871306
6099.120117 1524.833740 3164.815430 0.452733 0.189364 -0.871306
5509.126953 1919.345825 2943.993896 0.452733 0.189364 -0.871306
4531.271484 2281.932617 3050.038086 -0.383342 -0.795201 -0.469792
4556.474609 2326.040771 2954.812500 -0.383342 -0.795201 -0.469792
4886.506836 2201.524658 2896.276367 -0.383342 -0.795201 -0.469792
4531.271484 2281.932617 3050.038086 -0.378933 -0.806611 -0.453639
4886.506836 2201.524658 2896.276367 -0.378933 -0.806611 -0.453639
4820.562012 1976.309937 3351.813477 -0.378933 -0.806611 -0.453639
4514.360352 2458.799072 3035.198730 -0.782939 -0.022701 0.621684
4531.271484 2281.932617 3050.038086 -0.782939 -0.022701 0.621684
4701.701172 2337.301514 3266.696289 -0.782939 -0.022701 0.621684
4820.562012 1976.309937 3351.813477 -0.356966 -0.856455 -0.372906
6099.120117 1524.833740 3164.815430 -0.356966 -0.856455 -0.372906
5153.228027 1709.765015 3645.542236 -0.356966 -0.856455 -0.372906
4820.562012 1976.309937 3351.813477 -0.354929 -0.816634 -0.455119
4886.506836 2201.524658 2896.276367 -0.354929 -0.816634 -0.455119
6099.120117 1524.833740 3164.815430 -0.354929 -0.816634 -0.455119
4648.197754 2489.802002 3085.822754 0.368809 0.849501 0.377265
5535.071777 2121.006592 3049.257324 0.368809 0.849501 0.377265
5105.103027 2330.580566 2997.683350 0.368809 0.849501 0.377265
4648.197754 2489.802002 3085.822754 -0.397026 0.640443 0.657421
4514.360352 2458.799072 3035.198730 -0.397026 0.640443 0.657421
4701.701172 2337.301514 3266.696289 -0.397026 0.640443 0.657421
6099.120117 1524.833740 3164.815430 0.466610 0.195148 -0.862666
5952.853027 1875.481567 3165.022217 0.466610 0.195148 -0.862666
6629.251465 1415.414795 3426.807617 0.466610 0.195148 -0.862666
4701.701172 2337.301514 3266.696289 -0.768571 -0.104228 0.631217
4531.271484 2281.932617 3050.038086 -0.768571 -0.104228 0.631217
4820.562012 1976.309937 3351.813477 -0.768571 -0.104228 0.631217
6130.559570 1374.830322 3450.804443 -0.290601 -0.860130 -0.419198
6099.120117 1524.833740 3164.815430 -0.290601 -0.860130 -0.419198
6627.154785 1217.493408 3429.380127 -0.290601 -0.860130 -0.419198
6130.559570 1374.830322 3450.804443 -0.346039 -0.845979 -0.405681
5987.135254 1425.370239 3467.750488 -0.346039 -0.845979 -0.405681
6099.120117 1524.833740 3164.815430 -0.346039 -0.845979 -0.405681
6629.251465 1415.414795 3426.807617 0.609260 0.751153 -0.254108
5952.853027 1875.481567 3165.022217 0.609260 0.751153 -0.254108
6692.496094 1392.756348 3511.466309 0.609260 0.751153 -0.254108
6629.251465 1415.414795 3426.807617 0.440280 -0.016332 -0.897712
6627.154785 1217.493408 3429.380127 0.440280 -0.016332 -0.897712
6099.120117 1524.833740 3164.815430 0.440280 -0.016332 -0.897712
5987.135254 1425.370239 3467.750488 -0.371527 -0.832632 -0.410721
5153.228027 1709.765015 3645.542236 -0.371527 -0.832632 -0.410721
6099.120117 1524.833740 3164.815430 -0.371527 -0.832632 -0.410721
4648.197754 2489.802002 3085.822754 0.359702 0.821059 0.443257
5952.853027 1875.481567 3165.022217 0.359702 0.821059 0.443257
5535.071777 2121.006592 3049.257324 0.359702 0.821059 0.443257
6627.154785 1217.493408 3429.380127 0.798931 -0.016278 -0.601202
6629.251465 1415.414795 3426.807617 0.798931 -0.016278 -0.601202
6692.496094 1392.756348 3511.466309 0.798931 -0.016278 -0.601202
5952.853027 1875.481567 3165.022217 0.394493 0.851811 0.344664
6151.729492 1637.064209 3526.624512 0.394493 0.851811 0.344664
6692.496094 1392.756348 3511.466309 0.394493 0.851811 0.344664
6527.328125 1181.541382 3600.576172 -0.295977 -0.885360 -0.358518
6130.559570 1374.830322 3450.804443 -0.295977 -0.885360 -0.358518
6627.154785 1217.493408 3429.380127 -0.295977 -0.885360 -0.358518
5952.853027 1875.481567 3165.022217 0.386201 0.862388 0.327314
4648.197754 2489.802002 3085.822754 0.386201 0.862388 0.327314
5456.595215 1871.970825 3759.812012 0.386201 0.862388 0.327314
5106.397949 2036.837158 3639.842529 -0.701639 -0.063690 0.709680
4701.701172 2337.301514 3266.696289 -0.701639 -0.063690 0.709680
4820.562012 1976.309937 3351.813477 -0.701639 -0.063690 0.709680
4701.701172 2337.301514 3266.696289 -0.036469 0.758673 0.650450
5106.397949 2036.837158 3639.842529 -0.036469 0.758673 0.650450
4648.197754 2489.802002 3085.822754 -0.036469 0.758673 0.650450
5456.595215 1871.970825 3759.812012 0.401435 0.850459 0.339954
6151.729492 1637.064209 3526.624512 0.401435 0.850459 0.339954
5952.853027 1875.481567 3165.022217 0.401435 0.850459 0.339954
6627.154785 1217.493408 3429.380127 0.911149 -0.394875 0.117819
6692.496094 1392.756348 3511.466309 0.911149 -0.394875 0.117819
6618.087402 1267.078857 3665.689941 0.911149 -0.394875 0.117819
5987.135254 1425.370239 3467.750488 -0.064532 -0.477028 0.876516
6130.559570 1374.830322 3450.804443 -0.064532 -0.477028 0.876516
6078.368652 1570.038940 3553.200684 -0.064532 -0.477028 0.876516
6078.368652 1570.038940 3553.200684 0.239055 -0.601158 0.762536
5591.029297 1534.665649 3678.094482 0.239055 -0.601158 0.762536
5987.135254 1425.370239 3467.750488 0.239055 -0.601158 0.762536
5987.135254 1425.370239 3467.750488 -0.352674 -0.916706 -0.187809
5591.029297 1534.665649 3678.094482 -0.352674 -0.916706 -0.187809
5153.228027 1709.765015 3645.542236 -0.352674 -0.916706 -0.187809
5106.397949 2036.837158 3639.842529 -0.697823 -0.087526 0.710903
4820.562012 1976.309937 3351.813477 -0.697823 -0.087526 0.710903
5153.228027 1709.765015 3645.542236 -0.697823 -0.087526 0.710903
6527.328125 1181.541382 3600.576172 0.599758 -0.778191 0.186303
6627.154785 1217.493408 3429.380127 0.599758 -0.778191 0.186303
6618.087402 1267.078857 3665.689941 0.599758 -0.778191 0.186303
6130.559570 1374.830322 3450.804443 -0.439028 -0.506607 0.742027
6618.087402 1267.078857 3665.689941 -0.439028 -0.506607 0.742027
6078.368652 1570.038940 3553.200684 -0.439028 -0.506607 0.742027
6618.087402 1267.078857 3665.689941 0.008174 0.360835 0.932594
6151.729492 1637.064209 3526.624512 0.008174 0.360835 0.932594
6078.368652 1570.038940 3553.200684 0.008174 0.360835 0.932594
6151.729492 1637.064209 3526.624512 0.393889 0.850185 0.349337
6590.635254 1382.599731 3651.036133 0.393889 0.850185 0.349337
6692.496094 1392.756348 3511.466309 0.393889 0.850185 0.349337
6618.087402 1267.078857 3665.689941 -0.432686 -0.208566 0.877088
6130.559570 1374.830322 3450.804443 -0.432686 -0.208566 0.877088
6527.328125 1181.541382 3600.576172 -0.432686 -0.208566 0.877088
5106.397949 2036.837158 3639.842529 0.222674 0.836872 0.500062
5456.595215 1871.970825 3759.812012 0.222674 0.836872 0.500062
4648.197754 2489.802002 3085.822754 0.222674 0.836872 0.500062
5591.029297 1534.665649 3678.094482 0.251256 -0.465757 0.848493
6078.368652 1570.038940 3553.200684 0.251256 -0.465757 0.848493
5662.710938 1732.731934 3765.591064 0.251256 -0.465757 0.848493
6590.635254 1382.599731 3651.036133 0.771583 0.257163 0.581831
6618.087402 1267.078857 3665.689941 0.771583 0.257163 0.581831
6692.496094 1392.756348 3511.466309 0.771583 0.257163 0.581831
6618.087402 1267.078857 3665.689941 -0.236018 0.066887 0.969444
6590.635254 1382.599731 3651.036133 -0.236018 0.066887 0.969444
6151.729492 1637.064209 3526.624512 -0.236018 0.066887 0.969444
5662.710938 1732.731934 3765.591064 0.420431 -0.102723 0.901491
6078.368652 1570.038940 3553.200684 0.420431 -0.102723 0.901491
6151.729492 1637.064209 3526.624512 0.420431 -0.102723 0.901491
5106.397949 2036.837158 3639.842529 -0.623518 -0.075715 0.778134
5153.228027 1709.765015 3645.542236 -0.623518 -0.075715 0.778134
5253.792969 1863.878052 3741.120605 -0.623518 -0.075715 0.778134
5662.710938 1732.731934 3765.591064 0.429717 0.661616 0.614498
6151.729492 1637.064209 3526.624512 0.429717 0.661616 0.614498
5456.595215 1871.970825 3759.812012 0.429717 0.661616 0.614498
5662.710938 1732.731934 3765.591064 -0.201925 -0.333690 0.920802
5153.228027 1709.765015 3645.542236 -0.201925 -0.333690 0.920802
5591.029297 1534.665649 3678.094482 -0.201925 -0.333690 0.920802
5662.710938 1732.731934 3765.591064 -0.189363 -0.425306 0.885018
5253.792969 1863.878052 3741.120605 -0.189363 -0.425306 0.885018
5153.228027 1709.765015 3645.542236 -0.189363 -0.425306 0.885018
5253.792969 1863.878052 3741.120605 -0.099820 0.438064 0.893384
5456.595215 1871.970825 3759.812012 -0.099820 0.438064 0.893384
5106.397949 2036.837158 3639.842529 -0.099820 0.438064 0.893384
5662.710938 1732.731934 3765.591064 -0.087894 -0.088930 0.992152
5456.595215 1871.970825 3759.812012 -0.087894 -0.088930 0.992152
5253.792969 1863.878052 3741.120605 -0.087894 -0.088930 0.992152
5669.092773 1740.374756 7608.676270 -0.189777 -0.220415 -0.956766
5150.883301 1717.235474 7716.795410 -0.189777 -0.220415 -0.956766
5266.003906 1949.702637 7640.406250 -0.189777 -0.220415 -0.956766
5669.092773 1740.374756 7608.676270 -0.179364 -0.323774 -0.928977
5557.273438 1535.762207 7701.579102 -0.179364 -0.323774 -0.928977
5150.883301 1717.235474 7716.795410 -0.179364 -0.323774 -0.928977
5052.916504 2082.039062 7804.217285 -0.596614 0.031947 -0.801892
5266.003906 1949.702637 7640.406250 -0.596614 0.031947 -0.801892
5150.883301 1717.235474 7716.795410 -0.596614 0.031947 -0.801892
6562.256836 1172.339600 7769.368164 -0.345130 -0.201342 -0.916705
6156.203125 1427.419312 7866.218262 -0.345130 -0.201342 -0.916705
6631.804199 1335.712036 7707.301758 -0.345130 -0.201342 -0.916705
6631.804199 1335.712036 7707.301758 -0.328126 -0.069152 -0.942100
6156.203125 1427.419312 7866.218262 -0.328126 -0.069152 -0.942100
6235.937988 1560.496460 7828.679199 -0.328126 -0.069152 -0.942100
6562.256836 1172.339600 7769.368164 0.835406 -0.466220 -0.291095
6631.804199 1335.712036 7707.301758 0.835406 -0.466220 -0.291095
6710.770020 1368.702271 7881.085938 0.835406 -0.466220 -0.291095
5557.273438 1535.762207 7701.579102 0.278424 -0.519074 -0.808111
5669.092773 1740.374756 7608.676270 0.278424 -0.519074 -0.808111
5998.454590 1424.591309 7924.990723 0.278424 -0.519074 -0.808111
6008.263184 1658.480469 7797.232422 0.343430 -0.461275 -0.818096
5998.454590 1424.591309 7924.990723 0.343430 -0.461275 -0.818096
5669.092773 1740.374756 7608.676270 0.343430 -0.461275 -0.818096
5557.273438 1535.762207 7701.579102 -0.377640 -0.871837 0.311911
5998.454590 1424.591309 7924.990723 -0.377640 -0.871837 0.311911
5150.883301 1717.235474 7716.795410 -0.377640 -0.871837 0.311911
6631.804199 1335.712036 7707.301758 0.311348 0.813526 -0.491160
6235.937988 1560.496460 7828.679199 0.311348 0.813526 -0.491160
6223.547363 1699.916504 8051.750977 0.311348 0.813526 -0.491160
6235.937988 1560.496460 7828.679199 0.012766 -0.278546 -0.960338
6156.203125 1427.419312 7866.218262 0.012766 -0.278546 -0.960338
6008.263184 1658.480469 7797.232422 0.012766 -0.278546 -0.960338
5998.454590 1424.591309 7924.990723 -0.305335 -0.446593 -0.841026
6008.263184 1658.480469 7797.232422 -0.305335 -0.446593 -0.841026
6156.203125 1427.419312 7866.218262 -0.305335 -0.446593 -0.841026
5266.003906 1949.702637 7640.406250 0.405986 0.837292 -0.366219
5526.722656 2125.622803 8331.644531 0.405986 0.837292 -0.366219
5669.092773 1740.374756 7608.676270 0.405986 0.837292 -0.366219
6235.937988 1560.496460 7828.679199 0.403017 0.785975 -0.468850
6008.263184 1658.480469 7797.232422 0.403017 0.785975 -0.468850
6223.547363 1699.916504 8051.750977 0.403017 0.785975 -0.468850
6223.547363 1699.916504 8051.750977 0.457905 0.730752 -0.506286
6008.263184 1658.480469 7797.232422 0.457905 0.730752 -0.506286
5669.092773 1740.374756 7608.676270 0.457905 0.730752 -0.506286
6665.355469 1245.131470 7950.919434 0.835495 -0.468936 -0.286441
6562.256836 1172.339600 7769.368164 0.835495 -0.468936 -0.286441
6710.770020 1368.702271 7881.085938 0.835495 -0.468936 -0.286441
6156.203125 1427.419312 7866.218262 -0.339685 -0.191071 -0.920927
6562.256836 1172.339600 7769.368164 -0.339685 -0.191071 -0.920927
5998.454590 1424.591309 7924.990723 -0.339685 -0.191071 -0.920927
6631.804199 1335.712036 7707.301758 0.437124 0.826177 -0.355462
6223.547363 1699.916504 8051.750977 0.437124 0.826177 -0.355462
6710.770020 1368.702271 7881.085938 0.437124 0.826177 -0.355462
5669.092773 1740.374756 7608.676270 0.366017 0.849276 -0.380476
5526.722656 2125.622803 8331.644531 0.366017 0.849276 -0.380476
6223.547363 1699.916504 8051.750977 0.366017 0.849276 -0.380476
4786.881348 2278.538330 8032.977051 -0.648443 0.008282 -0.761218
5052.916504 2082.039062 7804.217285 -0.648443 0.008282 -0.761218
5150.883301 1717.235474 7716.795410 -0.648443 0.008282 -0.761218
6072.187012 1539.502075 8233.655273 -0.385465 -0.830845 0.401388
5150.883301 1717.235474 7716.795410 -0.385465 -0.830845 0.401388
5998.454590 1424.591309 7924.990723 -0.385465 -0.830845 0.401388
4774.608887 2459.595215 8323.663086 0.176716 0.838785 -0.514986
5052.916504 2082.039062 7804.217285 0.176716 0.838785 -0.514986
4786.881348 2278.538330 8032.977051 0.176716 0.838785 -0.514986
6072.187012 1539.502075 8233.655273 -0.359375 -0.868259 0.342017
4791.010254 2000.494019 8057.751465 -0.359375 -0.868259 0.342017
5150.883301 1717.235474 7716.795410 -0.359375 -0.868259 0.342017
5526.722656 2125.622803 8331.644531 0.381728 0.851043 -0.360569
5266.003906 1949.702637 7640.406250 0.381728 0.851043 -0.360569
4774.608887 2459.595215 8323.663086 0.381728 0.851043 -0.360569
4774.608887 2459.595215 8323.663086 0.087635 0.827533 -0.554535
5266.003906 1949.702637 7640.406250 0.087635 0.827533 -0.554535
5052.916504 2082.039062 7804.217285 0.087635 0.827533 -0.554535
4517.577148 2282.104736 8335.165039 -0.742709 -0.109530 -0.660596
4786.881348 2278.538330 8032.977051 -0.742709 -0.109530 -0.660596
5150.883301 1717.235474 7716.795410 -0.742709 -0.109530 -0.660596
6665.355469 1245.131470 7950.919434 -0.114863 -0.897786 0.425190
6456.515625 1315.744629 8043.601562 -0.114863 -0.897786 0.425190
6562.256836 1172.339600 7769.368164 -0.114863 -0.897786 0.425190
6456.515625 1315.744629 8043.601562 -0.301104 -0.887770 0.348140
5998.454590 1424.591309 7924.990723 -0.301104 -0.887770 0.348140
6562.256836 1172.339600 7769.368164 -0.301104 -0.887770 0.348140
5150.883301 1717.235474 7716.795410 -0.575354 0.217938 -0.788334
4791.010254 2000.494019 8057.751465 -0.575354 0.217938 -0.788334
4517.577148 2282.104736 8335.165039 -0.575354 0.217938 -0.788334
6665.355469 1245.131470 7950.919434 0.543171 0.252843 0.800647
6710.770020 1368.702271 7881.085938 0.543171 0.252843 0.800647
6069.672363 1782.487305 8185.343750 0.543171 0.252843 0.800647
6223.547363 1699.916504 8051.750977 0.599263 0.771604 0.213332
6069.672363 1782.487305 8185.343750 0.599263 0.771604 0.213332
6710.770020 1368.702271 7881.085938 0.599263 0.771604 0.213332
6069.672363 1782.487305 8185.343750 0.492925 0.174575 0.852378
6072.187012 1539.502075 8233.655273 0.492925 0.174575 0.852378
6665.355469 1245.131470 7950.919434 0.492925 0.174575 0.852378
5998.454590 1424.591309 7924.990723 -0.308047 -0.865185 0.395679
6456.515625 1315.744629 8043.601562 -0.308047 -0.865185 0.395679
6072.187012 1539.502075 8233.655273 -0.308047 -0.865185 0.395679
6665.355469 1245.131470 7950.919434 0.343482 -0.191049 0.919522
6072.187012 1539.502075 8233.655273 0.343482 -0.191049 0.919522
6456.515625 1315.744629 8043.601562 0.343482 -0.191049 0.919522
4786.881348 2278.538330 8032.977051 0.236553 0.829173 -0.506472
4581.470215 2488.432129 8280.666016 0.236553 0.829173 -0.506472
4774.608887 2459.595215 8323.663086 0.236553 0.829173 -0.506472
6069.672363 1782.487305 8185.343750 0.554606 0.821753 0.130900
6223.547363 1699.916504 8051.750977 0.554606 0.821753 0.130900
5526.722656 2125.622803 8331.644531 0.554606 0.821753 0.130900
6072.187012 1539.502075 8233.655273 -0.356012 -0.814882 0.457408
5703.901367 1770.778931 8359.034180 -0.356012 -0.814882 0.457408
4791.010254 2000.494019 8057.751465 -0.356012 -0.814882 0.457408
4581.470215 2488.432129 8280.666016 -0.745099 0.055169 -0.664669
4786.881348 2278.538330 8032.977051 -0.745099 0.055169 -0.664669
4517.577148 2282.104736 8335.165039 -0.745099 0.055169 -0.664669
4517.577148 2282.104736 8335.165039 -0.357757 -0.808193 0.467797
4791.010254 2000.494019 8057.751465 -0.357757 -0.808193 0.467797
5703.901367 1770.778931 8359.034180 -0.357757 -0.808193 0.467797
6072.187012 1539.502075 8233.655273 0.463090 0.177445 0.868367
6069.672363 1782.487305 8185.343750 0.463090 0.177445 0.868367
5603.339355 1927.938843 8404.311523 0.463090 0.177445 0.868367
4517.577148 2282.104736 8335.165039 -0.856801 0.133786 -0.497989
4499.702148 2387.704590 8394.289062 -0.856801 0.133786 -0.497989
4581.470215 2488.432129 8280.666016 -0.856801 0.133786 -0.497989
6069.672363 1782.487305 8185.343750 0.490917 0.461817 0.738732
5526.722656 2125.622803 8331.644531 0.490917 0.461817 0.738732
5603.339355 1927.938843 8404.311523 0.490917 0.461817 0.738732
4774.608887 2459.595215 8323.663086 0.404953 0.909787 -0.091105
5040.343262 2347.963379 8390.056641 0.404953 0.909787 -0.091105
5526.722656 2125.622803 8331.644531 0.404953 0.909787 -0.091105
6072.187012 1539.502075 8233.655273 0.256029 -0.112768 0.960069
5603.339355 1927.938843 8404.311523 0.256029 -0.112768 0.960069
5703.901367 1770.778931 8359.034180 0.256029 -0.112768 0.960069
4499.702148 2387.704590 8394.289062 -0.031436 0.759047 0.650277
4774.608887 2459.595215 8323.663086 -0.031436 0.759047 0.650277
4581.470215 2488.432129 8280.666016 -0.031436 0.759047 0.650277
5703.901367 1770.778931 8359.034180 -0.354795 -0.800620 0.482834
5280.698730 2019.504883 8460.486328 -0.354795 -0.800620 0.482834
4517.577148 2282.104736 8335.165039 -0.354795 -0.800620 0.482834
4774.608887 2459.595215 8323.663086 0.050078 0.595901 0.801495
4499.702148 2387.704590 8394.289062 0.050078 0.595901 0.801495
5040.343262 2347.963379 8390.056641 0.050078 0.595901 0.801495
4895.363770 2219.566650 8490.947266 0.049150 0.582202 0.811557
5040.343262 2347.963379 8390.056641 0.049150 0.582202 0.811557
4499.702148 2387.704590 8394.289062 0.049150 0.582202 0.811557
5703.901367 1770.778931 8359.034180 0.109632 -0.209761 0.971587
5603.339355 1927.938843 8404.311523 0.109632 -0.209761 0.971587
5280.698730 2019.504883 8460.486328 0.109632 -0.209761 0.971587
4895.363770 2219.566650 8490.947266 -0.351312 -0.759924 0.546896
4517.577148 2282.104736 8335.165039 -0.351312 -0.759924 0.546896
5280.698730 2019.504883 8460.486328 -0.351312 -0.759924 0.546896
5603.339355 1927.938843 8404.311523 0.280401 0.425042 0.860648
5526.722656 2125.622803 8331.644531 0.280401 0.425042 0.860648
4895.363770 2219.566650 8490.947266 0.280401 0.425042 0.860648
5526.722656 2125.622803 8331.644531 0.279001 0.378463 0.882567
5040.343262 2347.963379 8390.056641 0.279001 0.378463 0.882567
4895.363770 2219.566650 8490.947266 0.279001 0.378463 0.882567
4517.577148 2282.104736 8335.165039 -0.399728 -0.498386 0.769304
4895.363770 2219.566650 8490.947266 -0.399728 -0.498386 0.769304
4499.702148 2387.704590 8394.289062 -0.399728 -0.498386 0.769304
5603.339355 1927.938843 8404.311523 0.258607 0.361721 0.895701
4895.363770 2219.566650 8490.947266 0.258607 0.361721 0.895701
5280.698730 2019.504883 8460.486328 0.258607 0.361721 0.895701
3 0 1 2
3 3 4 5
3 6 7 8
3 9 10 11
3 12 13 14
3 15 16 17
3 18 19 20
3 21 22 23
3 24 25 26
3 27 28 29
3 30 31 32
3 33 34 35
3 36 37 38
3 39 40 41
3 42 43 44
3 45 46 47
3 48 49 50
3 51 52 53
3 54 55 56
3 57 58 59
3 60 61 62
3 63 64 65
3 66 67 68
3 69 70 71
3 72 73 74
3 75 76 77
3 78 79 80
3 81 82 83
3 84 85 86
3 87 88 89
3 90 91 92
3 93 94 95
3 96 97 98
3 99 100 101
3 102 103 104
3 105 106 107
3 108 109 110
3 111 112 113
3 114 115 116
3 117 118 119
3 120 121 122
3 123 124 125
3 126 127 128
3 129 130 131
3 132 133 134
3 135 136 137
3 138 139 140
3 141 142 143
3 144 145 146
3 147 148 149
3 150 151 152
3 153 154 155
3 156 157 158
3 159 160 161
3 162 163 164
3 165 166 167
3 168 169 170
3 171 172 173
3 174 175 176
3 177 178 179
3 180 181 182
3 183 184 185
3 186 187 188
3 189 190 191
3 192 193 194
3 195 196 197
3 198 199 200
3 201 202 203
3 204 205 206
3 207 208 209
3 210 211 212
3 213 214 215
3 216 217 218
3 219 220 221
3 222 223 224
3 225 226 227
3 228 229 230
3 231 232 233
3 234 235 236
3 237 238 239
3 240 241 242
3 243 244 245
3 246 247 248
3 249 250 251
3 252 253 254
3 255 256 257
3 258 259 260
3 261 262 263
3 264 265 266
3 267 268 269
3 270 271 272
3 273 274 275
3 276 277 278
3 279 280 281
3 282 283 284
3 285 286 287
3 288 289 290
3 291 292 293
3 294 295 296
3 297 298 299
3 300 301 302
3 303 304 305
3 306 307 308
3 309 310 311
3 312 313 314
3 315 316 317
