ply
format ascii 1.0
comment Created by Blender 2.80 (sub 75) - www.blender.org, source file: 'downsample_ccf.blend'
element vertex 186
property float x
property float y
property float z
property float nx
property float ny
property float nz
element face 62
property list uchar uint vertex_indices
end_header
5792.068359 1350.270996 2627.607666 -0.220088 -0.770589 -0.598126
5414.145508 1624.996704 2412.729492 -0.220088 -0.770589 -0.598126
5632.815918 1596.831421 2368.553223 -0.220088 -0.770589 -0.598126
5414.145508 1624.996704 2412.729492 -0.074727 0.630984 -0.772188
5666.628906 1740.389893 2482.588135 -0.074727 0.630984 -0.772188
5632.815918 1596.831421 2368.553223 -0.074727 0.630984 -0.772188
5632.815918 1596.831421 2368.553223 0.894802 0.128809 -0.427479
5666.628906 1740.389893 2482.588135 0.894802 0.128809 -0.427479
5792.068359 1350.270996 2627.607666 0.894802 0.128809 -0.427479
5156.001465 1965.708252 2510.313965 0.101090 0.343966 -0.933525
5666.628906 1740.389893 2482.588135 0.101090 0.343966 -0.933525
5414.145508 1624.996704 2412.729492 0.101090 0.343966 -0.933525
5099.203125 1834.991211 2390.943115 0.397965 0.518322 -0.756946
5156.001465 1965.708252 2510.313965 0.397965 0.518322 -0.756946
5414.145508 1624.996704 2412.729492 0.397965 0.518322 -0.756946
5099.203125 1834.991211 2390.943115 -0.686624 0.629878 -0.363043
4939.664062 1775.739990 2589.879395 -0.686624 0.629878 -0.363043
5156.001465 1965.708252 2510.313965 -0.686624 0.629878 -0.363043
5099.203125 1834.991211 2390.943115 -0.433219 -0.707636 -0.558187
5414.145508 1624.996704 2412.729492 -0.433219 -0.707636 -0.558187
4939.664062 1775.739990 2589.879395 -0.433219 -0.707636 -0.558187
5156.001465 1965.708252 2510.313965 -0.673261 0.568895 -0.472310
4939.664062 1775.739990 2589.879395 -0.673261 0.568895 -0.472310
4986.559082 1903.833008 2677.319580 -0.673261 0.568895 -0.472310
5392.837891 1487.428101 2653.271973 -0.310933 -0.812904 -0.492451
5414.145508 1624.996704 2412.729492 -0.310933 -0.812904 -0.492451
5792.068359 1350.270996 2627.607666 -0.310933 -0.812904 -0.492451
5392.837891 1487.428101 2653.271973 -0.422994 -0.769926 -0.477797
4939.664062 1775.739990 2589.879395 -0.422994 -0.769926 -0.477797
5414.145508 1624.996704 2412.729492 -0.422994 -0.769926 -0.477797
6091.297852 1390.653931 2911.335938 0.690604 -0.046241 -0.721753
5792.068359 1350.270996 2627.607666 0.690604 -0.046241 -0.721753
5666.628906 1740.389893 2482.588135 0.690604 -0.046241 -0.721753
4939.664062 1775.739990 2589.879395 -0.419733 -0.492044 0.762704
5392.837891 1487.428101 2653.271973 -0.419733 -0.492044 0.762704
5769.797363 1511.902710 2876.510254 -0.419733 -0.492044 0.762704
5156.001465 1965.708252 2510.313965 0.390203 0.837123 0.383363
5769.797363 1511.902710 2876.510254 0.390203 0.837123 0.383363
5666.628906 1740.389893 2482.588135 0.390203 0.837123 0.383363
6026.954590 1107.264282 2925.414551 -0.317280 -0.841817 -0.436667
5392.837891 1487.428101 2653.271973 -0.317280 -0.841817 -0.436667
5792.068359 1350.270996 2627.607666 -0.317280 -0.841817 -0.436667
6192.819824 1102.348389 2877.238037 0.632723 0.306890 -0.710971
5792.068359 1350.270996 2627.607666 0.632723 0.306890 -0.710971
6091.297852 1390.653931 2911.335938 0.632723 0.306890 -0.710971
4986.559082 1903.833008 2677.319580 -0.410959 -0.406560 0.815979
4939.664062 1775.739990 2589.879395 -0.410959 -0.406560 0.815979
5769.797363 1511.902710 2876.510254 -0.410959 -0.406560 0.815979
5769.797363 1511.902710 2876.510254 0.255924 0.792665 0.553339
5156.001465 1965.708252 2510.313965 0.255924 0.792665 0.553339
4986.559082 1903.833008 2677.319580 0.255924 0.792665 0.553339
6026.954590 1107.264282 2925.414551 -0.179366 -0.826776 -0.533169
5792.068359 1350.270996 2627.607666 -0.179366 -0.826776 -0.533169
6192.819824 1102.348389 2877.238037 -0.179366 -0.826776 -0.533169
5769.797363 1511.902710 2876.510254 0.278411 0.860671 0.426301
6091.297852 1390.653931 2911.335938 0.278411 0.860671 0.426301
5666.628906 1740.389893 2482.588135 0.278411 0.860671 0.426301
5392.837891 1487.428101 2653.271973 -0.488386 -0.207954 0.847487
6026.954590 1107.264282 2925.414551 -0.488386 -0.207954 0.847487
5769.797363 1511.902710 2876.510254 -0.488386 -0.207954 0.847487
6026.954590 1107.264282 2925.414551 -0.170451 -0.848960 -0.500213
6192.819824 1102.348389 2877.238037 -0.170451 -0.848960 -0.500213
6627.606934 918.005432 3041.947754 -0.170451 -0.848960 -0.500213
6627.606934 918.005432 3041.947754 -0.170259 -0.848681 -0.500752
6525.765625 868.563477 3160.369385 -0.170259 -0.848681 -0.500752
6026.954590 1107.264282 2925.414551 -0.170259 -0.848681 -0.500752
6192.819824 1102.348389 2877.238037 0.426351 0.222105 -0.876866
6604.036621 1109.858521 3079.082520 0.426351 0.222105 -0.876866
6627.606934 918.005432 3041.947754 0.426351 0.222105 -0.876866
6604.036621 1109.858521 3079.082520 0.422719 0.251816 -0.870573
6192.819824 1102.348389 2877.238037 0.422719 0.251816 -0.870573
6091.297852 1390.653931 2911.335938 0.422719 0.251816 -0.870573
6613.642090 974.893799 3228.015137 0.653245 -0.708963 0.265786
6525.765625 868.563477 3160.369385 0.653245 -0.708963 0.265786
6627.606934 918.005432 3041.947754 0.653245 -0.708963 0.265786
6627.606934 918.005432 3041.947754 0.992659 0.114298 0.039556
6604.036621 1109.858521 3079.082520 0.992659 0.114298 0.039556
6613.642090 974.893799 3228.015137 0.992659 0.114298 0.039556
5769.797363 1511.902710 2876.510254 -0.515056 -0.227449 0.826429
6026.954590 1107.264282 2925.414551 -0.515056 -0.227449 0.826429
6550.340332 1091.876831 3247.370117 -0.515056 -0.227449 0.826429
6604.036621 1109.858521 3079.082520 0.410236 0.883706 0.225321
6091.297852 1390.653931 2911.335938 0.410236 0.883706 0.225321
6550.340332 1091.876831 3247.370117 0.410236 0.883706 0.225321
6604.036621 1109.858521 3079.082520 0.855167 0.410348 0.316708
6550.340332 1091.876831 3247.370117 0.855167 0.410348 0.316708
6613.642090 974.893799 3228.015137 0.855167 0.410348 0.316708
5769.797363 1511.902710 2876.510254 0.288933 0.876637 0.384741
6550.340332 1091.876831 3247.370117 0.288933 0.876637 0.384741
6091.297852 1390.653931 2911.335938 0.288933 0.876637 0.384741
6550.340332 1091.876831 3247.370117 -0.511149 -0.262590 0.818397
6026.954590 1107.264282 2925.414551 -0.511149 -0.262590 0.818397
6525.765625 868.563477 3160.369385 -0.511149 -0.262590 0.818397
6525.765625 868.563477 3160.369385 -0.308840 -0.315568 0.897237
6613.642090 974.893799 3228.015137 -0.308840 -0.315568 0.897237
6550.340332 1091.876831 3247.370117 -0.308840 -0.315568 0.897237
6595.028809 1047.034180 8121.261230 -0.481221 -0.189495 -0.855873
6513.937988 857.362366 8208.849609 -0.481221 -0.189495 -0.855873
6289.675293 1217.357178 8255.238281 -0.481221 -0.189495 -0.855873
6635.447754 920.741760 8333.805664 0.729481 -0.518100 -0.446575
6513.937988 857.362366 8208.849609 0.729481 -0.518100 -0.446575
6595.028809 1047.034180 8121.261230 0.729481 -0.518100 -0.446575
6635.447754 920.741760 8333.805664 0.982540 0.001345 -0.186048
6595.028809 1047.034180 8121.261230 0.982540 0.001345 -0.186048
6619.740234 1116.925293 8252.270508 0.982540 0.001345 -0.186048
6289.675293 1217.357178 8255.238281 0.249377 0.834104 -0.492018
6619.740234 1116.925293 8252.270508 0.249377 0.834104 -0.492018
6595.028809 1047.034180 8121.261230 0.249377 0.834104 -0.492018
6289.675293 1217.357178 8255.238281 -0.525488 -0.221506 -0.821460
6513.937988 857.362366 8208.849609 -0.525488 -0.221506 -0.821460
5706.518555 1558.590576 8536.270508 -0.525488 -0.221506 -0.821460
6635.447754 920.741760 8333.805664 0.536077 0.360218 0.763455
6619.740234 1116.925293 8252.270508 0.536077 0.360218 0.763455
6038.226562 1407.525513 8523.480469 0.536077 0.360218 0.763455
6289.675293 1217.357178 8255.238281 0.266295 0.886359 -0.378754
6038.226562 1407.525513 8523.480469 0.266295 0.886359 -0.378754
6619.740234 1116.925293 8252.270508 0.266295 0.886359 -0.378754
6635.447754 920.741760 8333.805664 -0.113289 -0.837312 0.534860
6237.083008 1066.368408 8477.403320 -0.113289 -0.837312 0.534860
6513.937988 857.362366 8208.849609 -0.113289 -0.837312 0.534860
6513.937988 857.362366 8208.849609 -0.279416 -0.875808 0.393557
6237.083008 1066.368408 8477.403320 -0.279416 -0.875808 0.393557
5860.962891 1282.391968 8691.097656 -0.279416 -0.875808 0.393557
6237.083008 1066.368408 8477.403320 0.366208 0.088347 0.926329
6635.447754 920.741760 8333.805664 0.366208 0.088347 0.926329
6038.226562 1407.525513 8523.480469 0.366208 0.088347 0.926329
5672.468750 1754.314819 8867.756836 0.266212 0.841753 -0.469663
6289.675293 1217.357178 8255.238281 0.266212 0.841753 -0.469663
5706.518555 1558.590576 8536.270508 0.266212 0.841753 -0.469663
6513.937988 857.362366 8208.849609 -0.546203 -0.256599 -0.797383
5583.577637 1371.885498 8680.566406 -0.546203 -0.256599 -0.797383
5706.518555 1558.590576 8536.270508 -0.546203 -0.256599 -0.797383
5672.468750 1754.314819 8867.756836 0.794149 0.332722 0.508550
6038.226562 1407.525513 8523.480469 0.794149 0.332722 0.508550
6289.675293 1217.357178 8255.238281 0.794149 0.332722 0.508550
6513.937988 857.362366 8208.849609 -0.297798 -0.879280 0.371729
5860.962891 1282.391968 8691.097656 -0.297798 -0.879280 0.371729
5583.577637 1371.885498 8680.566406 -0.297798 -0.879280 0.371729
5860.962891 1282.391968 8691.097656 0.577497 0.230853 0.783074
6237.083008 1066.368408 8477.403320 0.577497 0.230853 0.783074
6038.226562 1407.525513 8523.480469 0.577497 0.230853 0.783074
5583.577637 1371.885498 8680.566406 -0.387776 -0.390098 -0.835137
5028.686523 1916.820435 8683.673828 -0.387776 -0.390098 -0.835137
5706.518555 1558.590576 8536.270508 -0.387776 -0.390098 -0.835137
5583.577637 1371.885498 8680.566406 -0.388931 -0.391281 -0.834045
4933.370117 1769.516113 8797.227539 -0.388931 -0.391281 -0.834045
5028.686523 1916.820435 8683.673828 -0.388931 -0.391281 -0.834045
5672.468750 1754.314819 8867.756836 0.337735 0.825285 -0.452593
5706.518555 1558.590576 8536.270508 0.337735 0.825285 -0.452593
5028.686523 1916.820435 8683.673828 0.337735 0.825285 -0.452593
5672.468750 1754.314819 8867.756836 0.339249 0.818239 -0.464107
5028.686523 1916.820435 8683.673828 0.339249 0.818239 -0.464107
5150.922363 1970.217041 8867.165039 0.339249 0.818239 -0.464107
5672.468750 1754.314819 8867.756836 0.779657 0.254123 0.572326
5625.830566 1592.544067 9003.119141 0.779657 0.254123 0.572326
6038.226562 1407.525513 8523.480469 0.779657 0.254123 0.572326
5583.577637 1371.885498 8680.566406 -0.272281 -0.777173 0.567332
5860.962891 1282.391968 8691.097656 -0.272281 -0.777173 0.567332
5625.830566 1592.544067 9003.119141 -0.272281 -0.777173 0.567332
6038.226562 1407.525513 8523.480469 0.727364 -0.127028 0.674392
5625.830566 1592.544067 9003.119141 0.727364 -0.127028 0.674392
5860.962891 1282.391968 8691.097656 0.727364 -0.127028 0.674392
5028.686523 1916.820435 8683.673828 -0.698268 0.661925 0.272541
4933.370117 1769.516113 8797.227539 -0.698268 0.661925 0.272541
5150.922363 1970.217041 8867.165039 -0.698268 0.661925 0.272541
4933.370117 1769.516113 8797.227539 -0.395759 -0.786332 0.474401
5583.577637 1371.885498 8680.566406 -0.395759 -0.786332 0.474401
5295.742676 1692.792725 8972.358398 -0.395759 -0.786332 0.474401
5583.577637 1371.885498 8680.566406 -0.287392 -0.772570 0.566163
5625.830566 1592.544067 9003.119141 -0.287392 -0.772570 0.566163
5295.742676 1692.792725 8972.358398 -0.287392 -0.772570 0.566163
4933.370117 1769.516113 8797.227539 -0.698795 0.677881 0.228390
5096.021973 1880.702637 8964.875000 -0.698795 0.677881 0.228390
5150.922363 1970.217041 8867.165039 -0.698795 0.677881 0.228390
5295.742676 1692.792725 8972.358398 0.115115 0.617736 0.777915
5625.830566 1592.544067 9003.119141 0.115115 0.617736 0.777915
5672.468750 1754.314819 8867.756836 0.115115 0.617736 0.777915
5096.021973 1880.702637 8964.875000 0.456029 0.513636 0.726784
5295.742676 1692.792725 8972.358398 0.456029 0.513636 0.726784
5150.922363 1970.217041 8867.165039 0.456029 0.513636 0.726784
4933.370117 1769.516113 8797.227539 -0.463284 -0.462292 0.756078
5295.742676 1692.792725 8972.358398 -0.463284 -0.462292 0.756078
5096.021973 1880.702637 8964.875000 -0.463284 -0.462292 0.756078
5150.922363 1970.217041 8867.165039 0.176206 0.428085 0.886394
5295.742676 1692.792725 8972.358398 0.176206 0.428085 0.886394
5672.468750 1754.314819 8867.756836 0.176206 0.428085 0.886394
3 0 1 2
3 3 4 5
3 6 7 8
3 9 10 11
3 12 13 14
3 15 16 17
3 18 19 20
3 21 22 23
3 24 25 26
3 27 28 29
3 30 31 32
3 33 34 35
3 36 37 38
3 39 40 41
3 42 43 44
3 45 46 47
3 48 49 50
3 51 52 53
3 54 55 56
3 57 58 59
3 60 61 62
3 63 64 65
3 66 67 68
3 69 70 71
3 72 73 74
3 75 76 77
3 78 79 80
3 81 82 83
3 84 85 86
3 87 88 89
3 90 91 92
3 93 94 95
3 96 97 98
3 99 100 101
3 102 103 104
3 105 106 107
3 108 109 110
3 111 112 113
3 114 115 116
3 117 118 119
3 120 121 122
3 123 124 125
3 126 127 128
3 129 130 131
3 132 133 134
3 135 136 137
3 138 139 140
3 141 142 143
3 144 145 146
3 147 148 149
3 150 151 152
3 153 154 155
3 156 157 158
3 159 160 161
3 162 163 164
3 165 166 167
3 168 169 170
3 171 172 173
3 174 175 176
3 177 178 179
3 180 181 182
3 183 184 185
