ply
format ascii 1.0
comment Created by Blender 2.80 (sub 75) - www.blender.org, source file: 'downsample_ccf.blend'
element vertex 378
property float x
property float y
property float z
property float nx
property float ny
property float nz
element face 126
property list uchar uint vertex_indices
end_header
6964.203125 734.482117 2948.563477 -0.070088 -0.895969 -0.438552
6952.831543 658.880798 3104.835449 -0.070088 -0.895969 -0.438552
6724.711426 750.260498 2954.602539 -0.070088 -0.895969 -0.438552
6899.171387 1456.953491 3286.922119 -0.185832 0.455326 -0.870715
6724.711426 750.260498 2954.602539 -0.185832 0.455326 -0.870715
6760.976074 1169.797607 3166.252930 -0.185832 0.455326 -0.870715
6602.780273 784.876160 3118.591064 -0.807255 -0.063904 -0.586733
6724.711426 750.260498 2954.602539 -0.807255 -0.063904 -0.586733
6589.538086 694.296570 3146.675781 -0.807255 -0.063904 -0.586733
6724.711426 750.260498 2954.602539 -0.708223 0.365832 -0.603810
6602.780273 784.876160 3118.591064 -0.708223 0.365832 -0.603810
6760.976074 1169.797607 3166.252930 -0.708223 0.365832 -0.603810
6899.171387 1456.953491 3286.922119 0.005136 0.424499 -0.905414
6964.203125 734.482117 2948.563477 0.005136 0.424499 -0.905414
6724.711426 750.260498 2954.602539 0.005136 0.424499 -0.905414
7074.998535 1203.388306 3168.210938 0.000250 0.424144 -0.905595
6964.203125 734.482117 2948.563477 0.000250 0.424144 -0.905595
6899.171387 1456.953491 3286.922119 0.000250 0.424144 -0.905595
6952.831543 658.880798 3104.835449 0.964480 -0.258403 -0.054827
6964.203125 734.482117 2948.563477 0.964480 -0.258403 -0.054827
7187.561035 1484.801392 3341.421387 0.964480 -0.258403 -0.054827
6724.711426 750.260498 2954.602539 -0.137266 -0.925032 -0.354223
6952.831543 658.880798 3104.835449 -0.137266 -0.925032 -0.354223
6432.584961 530.205627 3642.465820 -0.137266 -0.925032 -0.354223
7187.561035 1484.801392 3341.421387 0.656507 0.187170 -0.730730
6964.203125 734.482117 2948.563477 0.656507 0.187170 -0.730730
7074.998535 1203.388306 3168.210938 0.656507 0.187170 -0.730730
6589.538086 694.296570 3146.675781 -0.095688 -0.935568 -0.339936
6724.711426 750.260498 2954.602539 -0.095688 -0.935568 -0.339936
6432.584961 530.205627 3642.465820 -0.095688 -0.935568 -0.339936
6899.171387 1456.953491 3286.922119 0.085206 0.470312 -0.878377
7160.039062 1527.737915 3350.127441 0.085206 0.470312 -0.878377
7074.998535 1203.388306 3168.210938 0.085206 0.470312 -0.878377
7187.561035 1484.801392 3341.421387 0.339242 0.390941 -0.855617
7074.998535 1203.388306 3168.210938 0.339242 0.390941 -0.855617
7160.039062 1527.737915 3350.127441 0.339242 0.390941 -0.855617
6952.831543 658.880798 3104.835449 -0.108430 -0.937941 -0.329409
6842.114746 517.910767 3542.670166 -0.108430 -0.937941 -0.329409
6432.584961 530.205627 3642.465820 -0.108430 -0.937941 -0.329409
6993.183105 1584.488281 3410.192139 -0.017791 0.701622 -0.712328
7160.039062 1527.737915 3350.127441 -0.017791 0.701622 -0.712328
6899.171387 1456.953491 3286.922119 -0.017791 0.701622 -0.712328
6952.831543 658.880798 3104.835449 0.944425 -0.304140 0.124737
7187.561035 1484.801392 3341.421387 0.944425 -0.304140 0.124737
6887.009277 807.930969 3966.617432 0.944425 -0.304140 0.124737
6993.183105 1584.488281 3410.192139 -0.670239 0.708280 -0.221627
6899.171387 1456.953491 3286.922119 -0.670239 0.708280 -0.221627
6838.064941 1523.763184 3685.230469 -0.670239 0.708280 -0.221627
6602.780273 784.876160 3118.591064 -0.883417 0.394399 -0.253028
6517.700684 1246.414429 4135.043457 -0.883417 0.394399 -0.253028
6760.976074 1169.797607 3166.252930 -0.883417 0.394399 -0.253028
6589.538086 694.296570 3146.675781 -0.942611 0.034844 -0.332070
6282.582031 579.820007 4005.987549 -0.942611 0.034844 -0.332070
6602.780273 784.876160 3118.591064 -0.942611 0.034844 -0.332070
6517.700684 1246.414429 4135.043457 -0.899811 0.363955 -0.240577
6602.780273 784.876160 3118.591064 -0.899811 0.363955 -0.240577
6282.582031 579.820007 4005.987549 -0.899811 0.363955 -0.240577
6432.584961 530.205627 3642.465820 -0.916643 -0.188380 -0.352531
6282.582031 579.820007 4005.987549 -0.916643 -0.188380 -0.352531
6589.538086 694.296570 3146.675781 -0.916643 -0.188380 -0.352531
6899.171387 1456.953491 3286.922119 -0.828214 0.502684 -0.247730
6760.976074 1169.797607 3166.252930 -0.828214 0.502684 -0.247730
6517.700684 1246.414429 4135.043457 -0.828214 0.502684 -0.247730
6899.171387 1456.953491 3286.922119 -0.795031 0.566432 -0.216979
6517.700684 1246.414429 4135.043457 -0.795031 0.566432 -0.216979
6838.064941 1523.763184 3685.230469 -0.795031 0.566432 -0.216979
6737.654785 1474.008667 4097.438477 0.399766 0.870031 0.288502
7160.039062 1527.737915 3350.127441 0.399766 0.870031 0.288502
6993.183105 1584.488281 3410.192139 0.399766 0.870031 0.288502
6838.064941 1523.763184 3685.230469 -0.297900 0.953649 0.042542
6737.654785 1474.008667 4097.438477 -0.297900 0.953649 0.042542
6993.183105 1584.488281 3410.192139 -0.297900 0.953649 0.042542
6432.584961 530.205627 3642.465820 -0.090106 -0.963777 -0.251028
6842.114746 517.910767 3542.670166 -0.090106 -0.963777 -0.251028
6703.709961 381.171021 4117.337891 -0.090106 -0.963777 -0.251028
6732.392578 421.363312 4188.129883 0.897748 -0.431621 0.088047
6842.114746 517.910767 3542.670166 0.897748 -0.431621 0.088047
6952.831543 658.880798 3104.835449 0.897748 -0.431621 0.088047
7160.039062 1527.737915 3350.127441 0.830539 0.472617 0.294683
6977.148438 1281.610107 4260.333984 0.830539 0.472617 0.294683
7187.561035 1484.801392 3341.421387 0.830539 0.472617 0.294683
6977.148438 1281.610107 4260.333984 0.453923 0.832956 0.316447
7160.039062 1527.737915 3350.127441 0.453923 0.832956 0.316447
6737.654785 1474.008667 4097.438477 0.453923 0.832956 0.316447
6842.114746 517.910767 3542.670166 0.779588 -0.625076 0.039024
6732.392578 421.363312 4188.129883 0.779588 -0.625076 0.039024
6703.709961 381.171021 4117.337891 0.779588 -0.625076 0.039024
6952.831543 658.880798 3104.835449 0.943829 -0.305882 0.124993
6887.009277 807.930969 3966.617432 0.943829 -0.305882 0.124993
6732.392578 421.363312 4188.129883 0.943829 -0.305882 0.124993
6517.700684 1246.414429 4135.043457 -0.723602 0.683825 -0.093723
6737.654785 1474.008667 4097.438477 -0.723602 0.683825 -0.093723
6838.064941 1523.763184 3685.230469 -0.723602 0.683825 -0.093723
6282.582031 579.820007 4005.987549 -0.925504 -0.035095 -0.377108
6432.584961 530.205627 3642.465820 -0.925504 -0.035095 -0.377108
6204.832520 463.358826 4207.639648 -0.925504 -0.035095 -0.377108
6432.584961 530.205627 3642.465820 -0.193222 -0.962250 -0.191676
6703.709961 381.171021 4117.337891 -0.193222 -0.962250 -0.191676
6204.832520 463.358826 4207.639648 -0.193222 -0.962250 -0.191676
6887.009277 807.930969 3966.617432 0.948131 -0.277058 0.155840
7187.561035 1484.801392 3341.421387 0.948131 -0.277058 0.155840
6977.148438 1281.610107 4260.333984 0.948131 -0.277058 0.155840
6732.392578 421.363312 4188.129883 0.944061 -0.265582 0.195485
6887.009277 807.930969 3966.617432 0.944061 -0.265582 0.195485
6915.244629 1244.057739 4422.770996 0.944061 -0.265582 0.195485
6188.972168 978.871643 4526.912598 -0.820320 0.373234 -0.433325
6517.700684 1246.414429 4135.043457 -0.820320 0.373234 -0.433325
6282.582031 579.820007 4005.987549 -0.820320 0.373234 -0.433325
6703.709961 381.171021 4117.337891 0.523923 -0.814247 0.250013
6732.392578 421.363312 4188.129883 0.523923 -0.814247 0.250013
6559.373535 378.832550 4412.190430 0.523923 -0.814247 0.250013
6282.582031 579.820007 4005.987549 -0.886560 -0.159824 -0.434128
6204.832520 463.358826 4207.639648 -0.886560 -0.159824 -0.434128
6050.468750 525.734070 4499.912109 -0.886560 -0.159824 -0.434128
6977.148438 1281.610107 4260.333984 0.903086 -0.336956 0.266263
6915.244629 1244.057739 4422.770996 0.903086 -0.336956 0.266263
6887.009277 807.930969 3966.617432 0.903086 -0.336956 0.266263
6977.148438 1281.610107 4260.333984 0.516708 0.827899 0.218166
6737.654785 1474.008667 4097.438477 0.516708 0.827899 0.218166
6641.080078 1405.996826 4584.259277 0.516708 0.827899 0.218166
6703.709961 381.171021 4117.337891 -0.178566 -0.979314 -0.095179
6559.373535 378.832550 4412.190430 -0.178566 -0.979314 -0.095179
6204.832520 463.358826 4207.639648 -0.178566 -0.979314 -0.095179
6050.468750 525.734070 4499.912109 -0.877757 0.290970 -0.380628
6188.972168 978.871643 4526.912598 -0.877757 0.290970 -0.380628
6282.582031 579.820007 4005.987549 -0.877757 0.290970 -0.380628
6732.392578 421.363312 4188.129883 0.571415 -0.765440 0.295951
6644.944336 441.566223 4409.225098 0.571415 -0.765440 0.295951
6559.373535 378.832550 4412.190430 0.571415 -0.765440 0.295951
6737.654785 1474.008667 4097.438477 0.424773 0.881227 0.207379
6480.568848 1488.391113 4562.910645 0.424773 0.881227 0.207379
6641.080078 1405.996826 4584.259277 0.424773 0.881227 0.207379
6841.751465 1252.572021 4498.199219 0.890334 -0.257270 0.375656
6644.944336 441.566223 4409.225098 0.890334 -0.257270 0.375656
6732.392578 421.363312 4188.129883 0.890334 -0.257270 0.375656
6841.751465 1252.572021 4498.199219 0.654630 -0.338307 0.676024
6732.392578 421.363312 4188.129883 0.654630 -0.338307 0.676024
6915.244629 1244.057739 4422.770996 0.654630 -0.338307 0.676024
6204.832520 463.358826 4207.639648 -0.222639 -0.974754 -0.016903
6559.373535 378.832550 4412.190430 -0.222639 -0.974754 -0.016903
6145.973633 470.344971 4580.024902 -0.222639 -0.974754 -0.016903
6480.568848 1488.391113 4562.910645 -0.804314 0.484601 -0.343863
6517.700684 1246.414429 4135.043457 -0.804314 0.484601 -0.343863
6188.972168 978.871643 4526.912598 -0.804314 0.484601 -0.343863
6204.832520 463.358826 4207.639648 -0.464748 -0.883614 -0.056881
6145.973633 470.344971 4580.024902 -0.464748 -0.883614 -0.056881
6050.468750 525.734070 4499.912109 -0.464748 -0.883614 -0.056881
6737.654785 1474.008667 4097.438477 -0.691110 0.601769 -0.400302
6517.700684 1246.414429 4135.043457 -0.691110 0.601769 -0.400302
6480.568848 1488.391113 4562.910645 -0.691110 0.601769 -0.400302
6641.080078 1405.996826 4584.259277 0.628376 0.670474 0.394472
6915.244629 1244.057739 4422.770996 0.628376 0.670474 0.394472
6977.148438 1281.610107 4260.333984 0.628376 0.670474 0.394472
6644.944336 441.566223 4409.225098 0.309524 -0.177597 0.934160
6841.751465 1252.572021 4498.199219 0.309524 -0.177597 0.934160
6145.973633 470.344971 4580.024902 0.309524 -0.177597 0.934160
6915.244629 1244.057739 4422.770996 0.640219 0.520421 0.565050
6641.080078 1405.996826 4584.259277 0.640219 0.520421 0.565050
6841.751465 1252.572021 4498.199219 0.640219 0.520421 0.565050
6559.373535 378.832550 4412.190430 0.285678 -0.347458 0.893119
6644.944336 441.566223 4409.225098 0.285678 -0.347458 0.893119
6145.973633 470.344971 4580.024902 0.285678 -0.347458 0.893119
6145.973633 470.344971 4580.024902 0.215697 -0.090151 0.972290
6841.751465 1252.572021 4498.199219 0.215697 -0.090151 0.972290
6169.168457 705.564270 4596.688965 0.215697 -0.090151 0.972290
6050.468750 525.734070 4499.912109 -0.639702 0.008631 0.768575
6145.973633 470.344971 4580.024902 -0.639702 0.008631 0.768575
6169.168457 705.564270 4596.688965 -0.639702 0.008631 0.768575
6050.468750 525.734070 4499.912109 -0.786445 0.205677 0.582410
6169.168457 705.564270 4596.688965 -0.786445 0.205677 0.582410
6188.972168 978.871643 4526.912598 -0.786445 0.205677 0.582410
6169.168457 705.564270 4596.688965 0.276255 -0.169337 0.946049
6841.751465 1252.572021 4498.199219 0.276255 -0.169337 0.946049
6641.080078 1405.996826 4584.259277 0.276255 -0.169337 0.946049
6480.568848 1488.391113 4562.910645 -0.706189 0.361123 0.609005
6188.972168 978.871643 4526.912598 -0.706189 0.361123 0.609005
6473.778320 1411.085693 4600.876465 -0.706189 0.361123 0.609005
6473.778320 1411.085693 4600.876465 -0.570639 0.241716 0.784821
6188.972168 978.871643 4526.912598 -0.570639 0.241716 0.784821
6169.168457 705.564270 4596.688965 -0.570639 0.241716 0.784821
6641.080078 1405.996826 4584.259277 0.097282 -0.047902 0.994103
6473.778320 1411.085693 4600.876465 0.097282 -0.047902 0.994103
6169.168457 705.564270 4596.688965 0.097282 -0.047902 0.994103
6641.080078 1405.996826 4584.259277 0.102155 0.431272 0.896420
6480.568848 1488.391113 4562.910645 0.102155 0.431272 0.896420
6473.778320 1411.085693 4600.876465 0.102155 0.431272 0.896420
6591.670898 1391.372925 6784.111328 -0.121683 0.094435 -0.988066
6400.515625 1229.500732 6792.181641 -0.121683 0.094435 -0.988066
6426.041992 1427.505493 6807.962402 -0.121683 0.094435 -0.988066
6515.111328 1482.355103 6824.049316 -0.054981 0.362185 -0.930483
6591.670898 1391.372925 6784.111328 -0.054981 0.362185 -0.930483
6426.041992 1427.505493 6807.962402 -0.054981 0.362185 -0.930483
6155.373047 474.603455 6809.083008 0.124818 -0.062702 -0.990196
6098.906738 564.110413 6796.297363 0.124818 -0.062702 -0.990196
6400.515625 1229.500732 6792.181641 0.124818 -0.062702 -0.990196
6098.906738 564.110413 6796.297363 -0.535342 0.237647 -0.810514
6150.308594 900.632202 6861.016602 -0.535342 0.237647 -0.810514
6400.515625 1229.500732 6792.181641 -0.535342 0.237647 -0.810514
6591.670898 1391.372925 6784.111328 -0.032063 -0.011964 -0.999414
6155.373047 474.603455 6809.083008 -0.032063 -0.011964 -0.999414
6400.515625 1229.500732 6792.181641 -0.032063 -0.011964 -0.999414
6426.041992 1427.505493 6807.962402 -0.412660 0.125108 -0.902252
6400.515625 1229.500732 6792.181641 -0.412660 0.125108 -0.902252
6150.308594 900.632202 6861.016602 -0.412660 0.125108 -0.902252
6910.162598 1272.217407 6933.791504 0.472665 0.179640 -0.862738
6860.951660 1229.416382 6897.918457 0.472665 0.179640 -0.862738
6591.670898 1391.372925 6784.111328 0.472665 0.179640 -0.862738
6591.670898 1391.372925 6784.111328 0.506472 0.666384 -0.547192
6515.111328 1482.355103 6824.049316 0.506472 0.666384 -0.547192
6910.162598 1272.217407 6933.791504 0.506472 0.666384 -0.547192
6155.373047 474.603455 6809.083008 -0.640088 -0.488512 -0.592995
6059.819336 500.308319 6891.049316 -0.640088 -0.488512 -0.592995
6098.906738 564.110413 6796.297363 -0.640088 -0.488512 -0.592995
6860.951660 1229.416382 6897.918457 0.270465 -0.140735 -0.952388
6481.662109 400.818695 6912.647949 0.270465 -0.140735 -0.952388
6155.373047 474.603455 6809.083008 0.270465 -0.140735 -0.952388
6860.951660 1229.416382 6897.918457 0.296955 -0.166933 -0.940187
6155.373047 474.603455 6809.083008 0.296955 -0.166933 -0.940187
6591.670898 1391.372925 6784.111328 0.296955 -0.166933 -0.940187
6150.308594 900.632202 6861.016602 -0.946016 0.194380 -0.259366
6098.906738 564.110413 6796.297363 -0.946016 0.194380 -0.259366
6059.819336 500.308319 6891.049316 -0.946016 0.194380 -0.259366
6155.373047 474.603455 6809.083008 -0.188151 -0.976716 -0.103077
6481.662109 400.818695 6912.647949 -0.188151 -0.976716 -0.103077
6153.979004 451.636658 7029.251953 -0.188151 -0.976716 -0.103077
6153.979004 451.636658 7029.251953 -0.337401 -0.936058 -0.099781
6059.819336 500.308319 6891.049316 -0.337401 -0.936058 -0.099781
6155.373047 474.603455 6809.083008 -0.337401 -0.936058 -0.099781
6481.662109 400.818695 6912.647949 0.445425 -0.219323 -0.868040
6860.951660 1229.416382 6897.918457 0.445425 -0.219323 -0.868040
6630.007324 409.853790 6986.486816 0.445425 -0.219323 -0.868040
6515.111328 1482.355103 6824.049316 -0.523362 0.713048 0.466536
6426.041992 1427.505493 6807.962402 -0.523362 0.713048 0.466536
6466.955566 1193.555908 7211.425293 -0.523362 0.713048 0.466536
6899.589844 1422.249268 7379.359375 0.372230 0.914465 -0.158739
6515.111328 1482.355103 6824.049316 0.372230 0.914465 -0.158739
6754.357910 1484.520264 7397.534180 0.372230 0.914465 -0.158739
6899.589844 1422.249268 7379.359375 0.509084 0.819296 -0.263794
6910.162598 1272.217407 6933.791504 0.509084 0.819296 -0.263794
6515.111328 1482.355103 6824.049316 0.509084 0.819296 -0.263794
6481.662109 400.818695 6912.647949 -0.139585 -0.989444 0.038952
6707.337891 383.084869 7270.894043 -0.139585 -0.989444 0.038952
6153.979004 451.636658 7029.251953 -0.139585 -0.989444 0.038952
6742.937988 452.012024 7231.222656 0.887244 -0.288882 -0.359646
6630.007324 409.853790 6986.486816 0.887244 -0.288882 -0.359646
6860.951660 1229.416382 6897.918457 0.887244 -0.288882 -0.359646
6860.951660 1229.416382 6897.918457 0.733203 -0.358929 -0.577566
6910.162598 1272.217407 6933.791504 0.733203 -0.358929 -0.577566
6742.937988 452.012024 7231.222656 0.733203 -0.358929 -0.577566
6630.007324 409.853790 6986.486816 0.122679 -0.984414 -0.126011
6707.337891 383.084869 7270.894043 0.122679 -0.984414 -0.126011
6481.662109 400.818695 6912.647949 0.122679 -0.984414 -0.126011
6426.041992 1427.505493 6807.962402 -0.814881 0.461741 0.350376
6150.308594 900.632202 6861.016602 -0.814881 0.461741 0.350376
6466.955566 1193.555908 7211.425293 -0.814881 0.461741 0.350376
6515.111328 1482.355103 6824.049316 -0.768319 0.555236 0.318431
6466.955566 1193.555908 7211.425293 -0.768319 0.555236 0.318431
6754.357910 1484.520264 7397.534180 -0.768319 0.555236 0.318431
6707.337891 383.084869 7270.894043 0.785406 -0.558838 -0.266152
6630.007324 409.853790 6986.486816 0.785406 -0.558838 -0.266152
6742.937988 452.012024 7231.222656 0.785406 -0.558838 -0.266152
6276.827148 532.625122 7388.251953 -0.897128 0.231036 0.376542
6150.308594 900.632202 6861.016602 -0.897128 0.231036 0.376542
6059.819336 500.308319 6891.049316 -0.897128 0.231036 0.376542
6742.937988 452.012024 7231.222656 0.931374 -0.275989 -0.237430
6910.162598 1272.217407 6933.791504 0.931374 -0.275989 -0.237430
7062.603027 1316.007080 7480.873535 0.931374 -0.275989 -0.237430
6153.979004 451.636658 7029.251953 -0.798148 -0.468470 0.378807
6276.827148 532.625122 7388.251953 -0.798148 -0.468470 0.378807
6059.819336 500.308319 6891.049316 -0.798148 -0.468470 0.378807
6150.308594 900.632202 6861.016602 -0.821738 0.355538 0.445353
6276.827148 532.625122 7388.251953 -0.821738 0.355538 0.445353
6466.955566 1193.555908 7211.425293 -0.821738 0.355538 0.445353
7062.603027 1316.007080 7480.873535 0.629092 0.741081 -0.234610
6910.162598 1272.217407 6933.791504 0.629092 0.741081 -0.234610
6899.589844 1422.249268 7379.359375 0.629092 0.741081 -0.234610
6153.979004 451.636658 7029.251953 -0.701763 -0.604752 0.376569
6430.317871 488.048828 7602.705566 -0.701763 -0.604752 0.376569
6276.827148 532.625122 7388.251953 -0.701763 -0.604752 0.376569
6153.979004 451.636658 7029.251953 -0.186397 -0.970730 0.151460
6707.337891 383.084869 7270.894043 -0.186397 -0.970730 0.151460
6430.317871 488.048828 7602.705566 -0.186397 -0.970730 0.151460
6754.357910 1484.520264 7397.534180 -0.748345 0.647709 0.143012
6466.955566 1193.555908 7211.425293 -0.748345 0.647709 0.143012
6949.800293 1584.763916 7966.224609 -0.748345 0.647709 0.143012
6742.937988 452.012024 7231.222656 0.941769 -0.312739 -0.123556
7062.603027 1316.007080 7480.873535 0.941769 -0.312739 -0.123556
7033.866211 898.992676 8317.363281 0.941769 -0.312739 -0.123556
6742.937988 452.012024 7231.222656 0.855368 -0.505902 -0.111394
6842.052734 502.802063 7761.634277 0.855368 -0.505902 -0.111394
6707.337891 383.084869 7270.894043 0.855368 -0.505902 -0.111394
6403.905273 550.306885 7727.346191 -0.585590 -0.767949 0.259498
6276.827148 532.625122 7388.251953 -0.585590 -0.767949 0.259498
6430.317871 488.048828 7602.705566 -0.585590 -0.767949 0.259498
6466.955566 1193.555908 7211.425293 -0.807888 0.539500 0.237186
6748.436035 1184.621704 8190.509277 -0.807888 0.539500 0.237186
6949.800293 1584.763916 7966.224609 -0.807888 0.539500 0.237186
7062.603027 1316.007080 7480.873535 0.662128 0.633648 -0.400096
6899.589844 1422.249268 7379.359375 0.662128 0.633648 -0.400096
7187.856934 1490.925415 7965.184082 0.662128 0.633648 -0.400096
7187.856934 1490.925415 7965.184082 0.349211 0.895233 -0.276784
6899.589844 1422.249268 7379.359375 0.349211 0.895233 -0.276784
6754.357910 1484.520264 7397.534180 0.349211 0.895233 -0.276784
6742.937988 452.012024 7231.222656 0.956893 -0.245428 -0.155308
7033.866211 898.992676 8317.363281 0.956893 -0.245428 -0.155308
6842.052734 502.802063 7761.634277 0.956893 -0.245428 -0.155308
7033.866211 898.992676 8317.363281 0.938849 -0.319951 -0.127252
7062.603027 1316.007080 7480.873535 0.938849 -0.319951 -0.127252
7187.856934 1490.925415 7965.184082 0.938849 -0.319951 -0.127252
6593.778320 701.338928 8251.531250 -0.904693 0.331770 0.267317
6466.955566 1193.555908 7211.425293 -0.904693 0.331770 0.267317
6276.827148 532.625122 7388.251953 -0.904693 0.331770 0.267317
6950.476562 653.779663 8284.185547 0.945610 -0.307029 -0.107496
6842.052734 502.802063 7761.634277 0.945610 -0.307029 -0.107496
7033.866211 898.992676 8317.363281 0.945610 -0.307029 -0.107496
6754.357910 1484.520264 7397.534180 0.351185 0.893997 -0.278278
6949.800293 1584.763916 7966.224609 0.351185 0.893997 -0.278278
7187.856934 1490.925415 7965.184082 0.351185 0.893997 -0.278278
6842.052734 502.802063 7761.634277 -0.062993 -0.965461 0.252819
6430.317871 488.048828 7602.705566 -0.062993 -0.965461 0.252819
6707.337891 383.084869 7270.894043 -0.062993 -0.965461 0.252819
6593.778320 701.338928 8251.531250 -0.908420 0.324057 0.264122
6748.436035 1184.621704 8190.509277 -0.908420 0.324057 0.264122
6466.955566 1193.555908 7211.425293 -0.908420 0.324057 0.264122
6403.905273 550.306885 7727.346191 -0.934397 -0.049623 0.352760
6593.778320 701.338928 8251.531250 -0.934397 -0.049623 0.352760
6276.827148 532.625122 7388.251953 -0.934397 -0.049623 0.352760
6842.052734 502.802063 7761.634277 -0.078439 -0.953287 0.291703
6950.476562 653.779663 8284.185547 -0.078439 -0.953287 0.291703
6430.317871 488.048828 7602.705566 -0.078439 -0.953287 0.291703
6430.317871 488.048828 7602.705566 -0.321271 -0.872642 0.367805
6593.778320 701.338928 8251.531250 -0.321271 -0.872642 0.367805
6403.905273 550.306885 7727.346191 -0.321271 -0.872642 0.367805
7187.856934 1490.925415 7965.184082 0.365297 0.925615 0.098972
6949.800293 1584.763916 7966.224609 0.365297 0.925615 0.098972
7140.495117 1498.045410 8073.403809 0.365297 0.925615 0.098972
6748.436035 1184.621704 8190.509277 -0.624133 0.596760 0.504318
6931.746094 1441.057007 8113.929688 -0.624133 0.596760 0.504318
6949.800293 1584.763916 7966.224609 -0.624133 0.596760 0.504318
6430.317871 488.048828 7602.705566 -0.154950 -0.926270 0.343532
6950.476562 653.779663 8284.185547 -0.154950 -0.926270 0.343532
6593.778320 701.338928 8251.531250 -0.154950 -0.926270 0.343532
6931.746094 1441.057007 8113.929688 -0.061963 0.719139 0.692099
7140.495117 1498.045410 8073.403809 -0.061963 0.719139 0.692099
6949.800293 1584.763916 7966.224609 -0.061963 0.719139 0.692099
7086.066406 1192.759277 8212.062500 0.943093 -0.049725 0.328791
7033.866211 898.992676 8317.363281 0.943093 -0.049725 0.328791
7187.856934 1490.925415 7965.184082 0.943093 -0.049725 0.328791
7086.066406 1192.759277 8212.062500 0.916396 0.018230 0.399857
7187.856934 1490.925415 7965.184082 0.916396 0.018230 0.399857
7140.495117 1498.045410 8073.403809 0.916396 0.018230 0.399857
6931.746094 1441.057007 8113.929688 0.061020 0.420290 0.905336
6954.703125 768.361816 8424.671875 0.061020 0.420290 0.905336
7140.495117 1498.045410 8073.403809 0.061020 0.420290 0.905336
7086.066406 1192.759277 8212.062500 0.315066 0.345339 0.884010
7140.495117 1498.045410 8073.403809 0.315066 0.345339 0.884010
6954.703125 768.361816 8424.671875 0.315066 0.345339 0.884010
6703.436035 773.160400 8413.413086 -0.327377 0.477513 0.815356
6931.746094 1441.057007 8113.929688 -0.327377 0.477513 0.815356
6748.436035 1184.621704 8190.509277 -0.327377 0.477513 0.815356
6593.778320 701.338928 8251.531250 -0.843787 0.324042 0.427809
6703.436035 773.160400 8413.413086 -0.843787 0.324042 0.427809
6748.436035 1184.621704 8190.509277 -0.843787 0.324042 0.427809
6954.703125 768.361816 8424.671875 0.729439 0.112256 0.674772
7033.866211 898.992676 8317.363281 0.729439 0.112256 0.674772
7086.066406 1192.759277 8212.062500 0.729439 0.112256 0.674772
6593.778320 701.338928 8251.531250 -0.159109 -0.857973 0.488433
6950.476562 653.779663 8284.185547 -0.159109 -0.857973 0.488433
6703.436035 773.160400 8413.413086 -0.159109 -0.857973 0.488433
6703.436035 773.160400 8413.413086 -0.032688 0.418212 0.907761
6954.703125 768.361816 8424.671875 -0.032688 0.418212 0.907761
6931.746094 1441.057007 8113.929688 -0.032688 0.418212 0.907761
7033.866211 898.992676 8317.363281 0.905395 -0.341948 0.251657
6954.703125 768.361816 8424.671875 0.905395 -0.341948 0.251657
6950.476562 653.779663 8284.185547 0.905395 -0.341948 0.251657
6954.703125 768.361816 8424.671875 -0.043103 -0.773577 0.632235
6703.436035 773.160400 8413.413086 -0.043103 -0.773577 0.632235
6950.476562 653.779663 8284.185547 -0.043103 -0.773577 0.632235
3 0 1 2
3 3 4 5
3 6 7 8
3 9 10 11
3 12 13 14
3 15 16 17
3 18 19 20
3 21 22 23
3 24 25 26
3 27 28 29
3 30 31 32
3 33 34 35
3 36 37 38
3 39 40 41
3 42 43 44
3 45 46 47
3 48 49 50
3 51 52 53
3 54 55 56
3 57 58 59
3 60 61 62
3 63 64 65
3 66 67 68
3 69 70 71
3 72 73 74
3 75 76 77
3 78 79 80
3 81 82 83
3 84 85 86
3 87 88 89
3 90 91 92
3 93 94 95
3 96 97 98
3 99 100 101
3 102 103 104
3 105 106 107
3 108 109 110
3 111 112 113
3 114 115 116
3 117 118 119
3 120 121 122
3 123 124 125
3 126 127 128
3 129 130 131
3 132 133 134
3 135 136 137
3 138 139 140
3 141 142 143
3 144 145 146
3 147 148 149
3 150 151 152
3 153 154 155
3 156 157 158
3 159 160 161
3 162 163 164
3 165 166 167
3 168 169 170
3 171 172 173
3 174 175 176
3 177 178 179
3 180 181 182
3 183 184 185
3 186 187 188
3 189 190 191
3 192 193 194
3 195 196 197
3 198 199 200
3 201 202 203
3 204 205 206
3 207 208 209
3 210 211 212
3 213 214 215
3 216 217 218
3 219 220 221
3 222 223 224
3 225 226 227
3 228 229 230
3 231 232 233
3 234 235 236
3 237 238 239
3 240 241 242
3 243 244 245
3 246 247 248
3 249 250 251
3 252 253 254
3 255 256 257
3 258 259 260
3 261 262 263
3 264 265 266
3 267 268 269
3 270 271 272
3 273 274 275
3 276 277 278
3 279 280 281
3 282 283 284
3 285 286 287
3 288 289 290
3 291 292 293
3 294 295 296
3 297 298 299
3 300 301 302
3 303 304 305
3 306 307 308
3 309 310 311
3 312 313 314
3 315 316 317
3 318 319 320
3 321 322 323
3 324 325 326
3 327 328 329
3 330 331 332
3 333 334 335
3 336 337 338
3 339 340 341
3 342 343 344
3 345 346 347
3 348 349 350
3 351 352 353
3 354 355 356
3 357 358 359
3 360 361 362
3 363 364 365
3 366 367 368
3 369 370 371
3 372 373 374
3 375 376 377
