ply
format ascii 1.0
comment Created by Blender 2.80 (sub 75) - www.blender.org, source file: 'downsample_ccf.blend'
element vertex 204
property float x
property float y
property float z
property float nx
property float ny
property float nz
element face 68
property list uchar uint vertex_indices
end_header
6212.967285 1911.483154 3746.237061 -0.276220 0.447154 -0.850738
6178.103027 1642.655273 3616.259033 -0.276220 0.447154 -0.850738
5758.749023 1778.382446 3823.755127 -0.276220 0.447154 -0.850738
6436.226074 1768.342773 3726.786621 0.183964 0.408421 -0.894064
6178.103027 1642.655273 3616.259033 0.183964 0.408421 -0.894064
6212.967285 1911.483154 3746.237061 0.183964 0.408421 -0.894064
6659.010254 1395.541870 3788.376221 0.357530 0.046110 -0.932762
6465.941406 1463.224854 3717.718262 0.357530 0.046110 -0.932762
6178.103027 1642.655273 3616.259033 0.357530 0.046110 -0.932762
6659.010254 1395.541870 3788.376221 0.365789 0.065213 -0.928410
6178.103027 1642.655273 3616.259033 0.365789 0.065213 -0.928410
6436.226074 1768.342773 3726.786621 0.365789 0.065213 -0.928410
6659.010254 1395.541870 3788.376221 0.405853 0.092319 -0.909264
6436.226074 1768.342773 3726.786621 0.405853 0.092319 -0.909264
6694.212402 1527.284912 3817.464844 0.405853 0.092319 -0.909264
5848.860352 2039.786377 3929.383789 -0.274867 0.440166 -0.854811
6212.967285 1911.483154 3746.237061 -0.274867 0.440166 -0.854811
5758.749023 1778.382446 3823.755127 -0.274867 0.440166 -0.854811
5603.965332 1754.689941 4054.782959 -0.414720 -0.849578 -0.325921
6178.103027 1642.655273 3616.259033 -0.414720 -0.849578 -0.325921
6465.941406 1463.224854 3717.718262 -0.414720 -0.849578 -0.325921
5603.965332 1754.689941 4054.782959 -0.451028 -0.805313 -0.384766
5758.749023 1778.382446 3823.755127 -0.451028 -0.805313 -0.384766
6178.103027 1642.655273 3616.259033 -0.451028 -0.805313 -0.384766
6659.010254 1395.541870 3788.376221 -0.225864 -0.933840 -0.277360
6452.493164 1300.752197 4275.696777 -0.225864 -0.933840 -0.277360
6465.941406 1463.224854 3717.718262 -0.225864 -0.933840 -0.277360
5758.749023 1778.382446 3823.755127 -0.383801 -0.856554 -0.344981
5603.965332 1754.689941 4054.782959 -0.383801 -0.856554 -0.344981
5376.587891 1939.971558 3847.710449 -0.383801 -0.856554 -0.344981
6465.941406 1463.224854 3717.718262 -0.409633 -0.860206 -0.303721
6218.474121 1313.180420 4476.441406 -0.409633 -0.860206 -0.303721
5603.965332 1754.689941 4054.782959 -0.409633 -0.860206 -0.303721
5376.587891 1939.971558 3847.710449 0.088157 0.346919 -0.933743
5848.860352 2039.786377 3929.383789 0.088157 0.346919 -0.933743
5758.749023 1778.382446 3823.755127 0.088157 0.346919 -0.933743
5848.860352 2039.786377 3929.383789 0.090603 0.337868 -0.936822
5376.587891 1939.971558 3847.710449 0.090603 0.337868 -0.936822
5492.333008 2186.635498 3947.864746 0.090603 0.337868 -0.936822
6694.212402 1527.284912 3817.464844 0.621097 0.750124 0.227051
6436.226074 1768.342773 3726.786621 0.621097 0.750124 0.227051
6593.599121 1478.404907 4254.179688 0.621097 0.750124 0.227051
6659.010254 1395.541870 3788.376221 0.938801 -0.291405 0.183671
6694.212402 1527.284912 3817.464844 0.938801 -0.291405 0.183671
6593.599121 1478.404907 4254.179688 0.938801 -0.291405 0.183671
5376.587891 1939.971558 3847.710449 -0.668157 0.011464 0.743932
5603.965332 1754.689941 4054.782959 -0.668157 0.011464 0.743932
5492.333008 2186.635498 3947.864746 -0.668157 0.011464 0.743932
6465.941406 1463.224854 3717.718262 -0.284134 -0.918693 -0.274354
6452.493164 1300.752197 4275.696777 -0.284134 -0.918693 -0.274354
6218.474121 1313.180420 4476.441406 -0.284134 -0.918693 -0.274354
6377.950195 1564.740967 4518.427734 0.538180 0.805862 0.246877
6436.226074 1768.342773 3726.786621 0.538180 0.805862 0.246877
6212.967285 1911.483154 3746.237061 0.538180 0.805862 0.246877
6452.493164 1300.752197 4275.696777 0.777324 -0.591449 0.214371
6659.010254 1395.541870 3788.376221 0.777324 -0.591449 0.214371
6593.599121 1478.404907 4254.179688 0.777324 -0.591449 0.214371
6212.967285 1911.483154 3746.237061 0.481486 0.833390 0.271351
5947.822266 1889.333130 4284.740234 0.481486 0.833390 0.271351
6377.950195 1564.740967 4518.427734 0.481486 0.833390 0.271351
5848.860352 2039.786377 3929.383789 0.430422 0.867995 0.247631
5947.822266 1889.333130 4284.740234 0.430422 0.867995 0.247631
6212.967285 1911.483154 3746.237061 0.430422 0.867995 0.247631
5947.822266 1889.333130 4284.740234 -0.569996 0.055603 0.819764
5492.333008 2186.635498 3947.864746 -0.569996 0.055603 0.819764
5603.965332 1754.689941 4054.782959 -0.569996 0.055603 0.819764
5947.822266 1889.333130 4284.740234 0.378670 0.885446 0.269432
5848.860352 2039.786377 3929.383789 0.378670 0.885446 0.269432
5492.333008 2186.635498 3947.864746 0.378670 0.885446 0.269432
6218.474121 1313.180420 4476.441406 -0.624997 -0.774165 0.100236
5933.485840 1521.880493 4311.343750 -0.624997 -0.774165 0.100236
5603.965332 1754.689941 4054.782959 -0.624997 -0.774165 0.100236
5947.822266 1889.333130 4284.740234 -0.575879 0.081364 0.813476
5603.965332 1754.689941 4054.782959 -0.575879 0.081364 0.813476
5933.485840 1521.880493 4311.343750 -0.575879 0.081364 0.813476
6436.226074 1768.342773 3726.786621 0.600047 0.762987 0.240404
6377.950195 1564.740967 4518.427734 0.600047 0.762987 0.240404
6593.599121 1478.404907 4254.179688 0.600047 0.762987 0.240404
5933.485840 1521.880493 4311.343750 -0.578340 0.081334 0.811731
6205.905273 1611.690796 4496.437500 -0.578340 0.081334 0.811731
5947.822266 1889.333130 4284.740234 -0.578340 0.081334 0.811731
6377.950195 1564.740967 4518.427734 0.081167 0.650948 0.754771
5947.822266 1889.333130 4284.740234 0.081167 0.650948 0.754771
6205.905273 1611.690796 4496.437500 0.081167 0.650948 0.754771
6452.493164 1300.752197 4275.696777 0.398050 -0.761737 0.511188
6341.105957 1411.753906 4527.838379 0.398050 -0.761737 0.511188
6218.474121 1313.180420 4476.441406 0.398050 -0.761737 0.511188
6218.474121 1313.180420 4476.441406 -0.542326 -0.078866 0.836458
6205.905273 1611.690796 4496.437500 -0.542326 -0.078866 0.836458
5933.485840 1521.880493 4311.343750 -0.542326 -0.078866 0.836458
6593.599121 1478.404907 4254.179688 0.696876 -0.490095 0.523613
6341.105957 1411.753906 4527.838379 0.696876 -0.490095 0.523613
6452.493164 1300.752197 4275.696777 0.696876 -0.490095 0.523613
6377.950195 1564.740967 4518.427734 0.744467 -0.139124 0.653004
6341.105957 1411.753906 4527.838379 0.744467 -0.139124 0.653004
6593.599121 1478.404907 4254.179688 0.744467 -0.139124 0.653004
6341.105957 1411.753906 4527.838379 -0.332144 -0.076958 0.940084
6205.905273 1611.690796 4496.437500 -0.332144 -0.076958 0.940084
6218.474121 1313.180420 4476.441406 -0.332144 -0.076958 0.940084
6377.950195 1564.740967 4518.427734 -0.103240 0.085819 0.990947
6205.905273 1611.690796 4496.437500 -0.103240 0.085819 0.990947
6341.105957 1411.753906 4527.838379 -0.103240 0.085819 0.990947
6308.929688 1293.958008 6906.743164 -0.197611 -0.245528 -0.949034
6126.758789 1367.772217 6925.578613 -0.197611 -0.245528 -0.949034
6383.469238 1496.122925 6838.919434 -0.197611 -0.245528 -0.949034
6126.758789 1367.772217 6925.578613 -0.330477 0.023944 -0.943510
6215.941406 1670.012329 6902.011230 -0.330477 0.023944 -0.943510
6383.469238 1496.122925 6838.919434 -0.330477 0.023944 -0.943510
6383.469238 1496.122925 6838.919434 0.587349 0.708080 -0.391974
6215.941406 1670.012329 6902.011230 0.587349 0.708080 -0.391974
6545.941406 1472.947632 7040.508789 0.587349 0.708080 -0.391974
6545.941406 1472.947632 7040.508789 0.671087 -0.446093 -0.592151
6308.929688 1293.958008 6906.743164 0.671087 -0.446093 -0.592151
6383.469238 1496.122925 6838.919434 0.671087 -0.446093 -0.592151
6215.941406 1670.012329 6902.011230 -0.379502 0.325992 -0.865856
5773.146973 1975.409058 7211.067383 -0.379502 0.325992 -0.865856
6043.569824 1822.095215 7034.819824 -0.379502 0.325992 -0.865856
6215.941406 1670.012329 6902.011230 -0.527631 0.089822 -0.844712
6126.758789 1367.772217 6925.578613 -0.527631 0.089822 -0.844712
5773.146973 1975.409058 7211.067383 -0.527631 0.089822 -0.844712
6126.758789 1367.772217 6925.578613 -0.602194 0.024472 -0.797975
5649.558105 1725.104248 7296.657715 -0.602194 0.024472 -0.797975
5773.146973 1975.409058 7211.067383 -0.602194 0.024472 -0.797975
6215.941406 1670.012329 6902.011230 0.576243 0.767428 -0.281066
6388.263672 1813.479492 7647.031250 0.576243 0.767428 -0.281066
6545.941406 1472.947632 7040.508789 0.576243 0.767428 -0.281066
6308.929688 1293.958008 6906.743164 0.671451 -0.693063 -0.262330
6545.941406 1472.947632 7040.508789 0.671451 -0.693063 -0.262330
6674.034668 1398.650269 7564.662598 0.671451 -0.693063 -0.262330
6534.876465 1418.233154 7638.522949 -0.339701 -0.904323 0.258464
6126.758789 1367.772217 6925.578613 -0.339701 -0.904323 0.258464
6308.929688 1293.958008 6906.743164 -0.339701 -0.904323 0.258464
6388.263672 1813.479492 7647.031250 0.610946 0.747468 -0.260838
6712.529297 1507.354980 7529.296875 0.610946 0.747468 -0.260838
6545.941406 1472.947632 7040.508789 0.610946 0.747468 -0.260838
6215.941406 1670.012329 6902.011230 0.508379 0.816127 -0.274748
6043.569824 1822.095215 7034.819824 0.508379 0.816127 -0.274748
6388.263672 1813.479492 7647.031250 0.508379 0.816127 -0.274748
5773.146973 1975.409058 7211.067383 0.257939 0.889245 -0.377770
5842.962402 2054.465088 7444.829590 0.257939 0.889245 -0.377770
6043.569824 1822.095215 7034.819824 0.257939 0.889245 -0.377770
5842.962402 2054.465088 7444.829590 0.354697 0.848437 -0.392867
5773.146973 1975.409058 7211.067383 0.354697 0.848437 -0.392867
5508.186035 2186.680664 7428.112793 0.354697 0.848437 -0.392867
5649.558105 1725.104248 7296.657715 -0.616306 0.035290 -0.786715
5508.186035 2186.680664 7428.112793 -0.616306 0.035290 -0.786715
5773.146973 1975.409058 7211.067383 -0.616306 0.035290 -0.786715
6674.034668 1398.650269 7564.662598 -0.042713 -0.982724 0.180080
6534.876465 1418.233154 7638.522949 -0.042713 -0.982724 0.180080
6308.929688 1293.958008 6906.743164 -0.042713 -0.982724 0.180080
6388.263672 1813.479492 7647.031250 0.467705 0.847376 -0.251407
6043.569824 1822.095215 7034.819824 0.467705 0.847376 -0.251407
5842.962402 2054.465088 7444.829590 0.467705 0.847376 -0.251407
6674.034668 1398.650269 7564.662598 0.876377 -0.398393 -0.270641
6545.941406 1472.947632 7040.508789 0.876377 -0.398393 -0.270641
6712.529297 1507.354980 7529.296875 0.876377 -0.398393 -0.270641
5649.558105 1725.104248 7296.657715 -0.413195 -0.860694 0.297448
6126.758789 1367.772217 6925.578613 -0.413195 -0.860694 0.297448
6534.876465 1418.233154 7638.522949 -0.413195 -0.860694 0.297448
5649.558105 1725.104248 7296.657715 -0.502355 -0.827282 0.251482
5695.507812 1771.721558 7541.799805 -0.502355 -0.827282 0.251482
5376.000000 1962.568115 7531.372070 -0.502355 -0.827282 0.251482
5376.000000 1962.568115 7531.372070 -0.639403 0.023036 -0.768526
5508.186035 2186.680664 7428.112793 -0.639403 0.023036 -0.768526
5649.558105 1725.104248 7296.657715 -0.639403 0.023036 -0.768526
5649.558105 1725.104248 7296.657715 -0.400139 -0.883641 0.243040
6534.876465 1418.233154 7638.522949 -0.400139 -0.883641 0.243040
5695.507812 1771.721558 7541.799805 -0.400139 -0.883641 0.243040
5842.962402 2054.465088 7444.829590 0.420266 0.905802 -0.053838
5943.612305 2011.954224 7515.286621 0.420266 0.905802 -0.053838
6388.263672 1813.479492 7647.031250 0.420266 0.905802 -0.053838
5943.612305 2011.954224 7515.286621 -0.054977 0.818247 0.572232
5842.962402 2054.465088 7444.829590 -0.054977 0.818247 0.572232
5376.000000 1962.568115 7531.372070 -0.054977 0.818247 0.572232
5842.962402 2054.465088 7444.829590 0.099021 0.367640 0.924681
5508.186035 2186.680664 7428.112793 0.099021 0.367640 0.924681
5376.000000 1962.568115 7531.372070 0.099021 0.367640 0.924681
6534.876465 1418.233154 7638.522949 -0.395360 -0.832732 0.387618
6063.377930 1685.279175 7731.310547 -0.395360 -0.832732 0.387618
5695.507812 1771.721558 7541.799805 -0.395360 -0.832732 0.387618
5943.612305 2011.954224 7515.286621 0.020501 0.088734 0.995844
5376.000000 1962.568115 7531.372070 0.020501 0.088734 0.995844
5695.507812 1771.721558 7541.799805 0.020501 0.088734 0.995844
6712.529297 1507.354980 7529.296875 0.445006 0.130646 0.885947
6388.263672 1813.479492 7647.031250 0.445006 0.130646 0.885947
6674.034668 1398.650269 7564.662598 0.445006 0.130646 0.885947
5943.612305 2011.954224 7515.286621 -0.330114 0.433474 0.838525
5695.507812 1771.721558 7541.799805 -0.330114 0.433474 0.838525
6063.377930 1685.279175 7731.310547 -0.330114 0.433474 0.838525
6674.034668 1398.650269 7564.662598 0.477203 0.096637 0.873463
6299.103027 1648.449219 7741.863770 0.477203 0.096637 0.873463
6534.876465 1418.233154 7638.522949 0.477203 0.096637 0.873463
6674.034668 1398.650269 7564.662598 0.522247 0.194921 0.830219
6388.263672 1813.479492 7647.031250 0.522247 0.194921 0.830219
6299.103027 1648.449219 7741.863770 0.522247 0.194921 0.830219
6299.103027 1648.449219 7741.863770 0.036313 0.483085 0.874820
6388.263672 1813.479492 7647.031250 0.036313 0.483085 0.874820
6063.377930 1685.279175 7731.310547 0.036313 0.483085 0.874820
6388.263672 1813.479492 7647.031250 -0.001115 0.551301 0.834305
5943.612305 2011.954224 7515.286621 -0.001115 0.551301 0.834305
6063.377930 1685.279175 7731.310547 -0.001115 0.551301 0.834305
6534.876465 1418.233154 7638.522949 -0.117057 -0.504008 0.855730
6299.103027 1648.449219 7741.863770 -0.117057 -0.504008 0.855730
6063.377930 1685.279175 7731.310547 -0.117057 -0.504008 0.855730
3 0 1 2
3 3 4 5
3 6 7 8
3 9 10 11
3 12 13 14
3 15 16 17
3 18 19 20
3 21 22 23
3 24 25 26
3 27 28 29
3 30 31 32
3 33 34 35
3 36 37 38
3 39 40 41
3 42 43 44
3 45 46 47
3 48 49 50
3 51 52 53
3 54 55 56
3 57 58 59
3 60 61 62
3 63 64 65
3 66 67 68
3 69 70 71
3 72 73 74
3 75 76 77
3 78 79 80
3 81 82 83
3 84 85 86
3 87 88 89
3 90 91 92
3 93 94 95
3 96 97 98
3 99 100 101
3 102 103 104
3 105 106 107
3 108 109 110
3 111 112 113
3 114 115 116
3 117 118 119
3 120 121 122
3 123 124 125
3 126 127 128
3 129 130 131
3 132 133 134
3 135 136 137
3 138 139 140
3 141 142 143
3 144 145 146
3 147 148 149
3 150 151 152
3 153 154 155
3 156 157 158
3 159 160 161
3 162 163 164
3 165 166 167
3 168 169 170
3 171 172 173
3 174 175 176
3 177 178 179
3 180 181 182
3 183 184 185
3 186 187 188
3 189 190 191
3 192 193 194
3 195 196 197
3 198 199 200
3 201 202 203
