ply
format ascii 1.0
comment Created by Blender 2.80 (sub 75) - www.blender.org, source file: 'downsample_ccf.blend'
element vertex 366
property float x
property float y
property float z
property float nx
property float ny
property float nz
element face 122
property list uchar uint vertex_indices
end_header
4743.010742 1789.810425 2628.851318 0.060603 0.466718 -0.882327
4288.798340 2011.062866 2714.687988 0.060603 0.466718 -0.882327
4833.431152 1985.104370 2738.364990 0.060603 0.466718 -0.882327
4743.010742 1789.810425 2628.851318 0.258071 0.378883 -0.888733
4833.431152 1985.104370 2738.364990 0.258071 0.378883 -0.888733
5128.723633 1615.578857 2666.576660 0.258071 0.378883 -0.888733
5423.835938 1424.438721 2722.816895 -0.104289 -0.425513 -0.898923
4743.010742 1789.810425 2628.851318 -0.104289 -0.425513 -0.898923
5128.723633 1615.578857 2666.576660 -0.104289 -0.425513 -0.898923
5128.723633 1615.578857 2666.576660 0.369527 0.313115 -0.874876
5565.627441 1594.944092 2843.729492 0.369527 0.313115 -0.874876
5423.835938 1424.438721 2722.816895 0.369527 0.313115 -0.874876
4833.431152 1985.104370 2738.364990 0.354712 0.443372 -0.823165
5565.627441 1594.944092 2843.729492 0.354712 0.443372 -0.823165
5128.723633 1615.578857 2666.576660 0.354712 0.443372 -0.823165
4288.798340 2011.062866 2714.687988 -0.458606 -0.768121 -0.446846
4743.010742 1789.810425 2628.851318 -0.458606 -0.768121 -0.446846
4432.417969 1785.191162 2955.558350 -0.458606 -0.768121 -0.446846
4302.471191 2127.303955 2794.262451 0.062583 0.558752 -0.826970
4833.431152 1985.104370 2738.364990 0.062583 0.558752 -0.826970
4288.798340 2011.062866 2714.687988 0.062583 0.558752 -0.826970
4430.700195 2160.123535 2840.089355 0.097930 0.658856 -0.745868
4833.431152 1985.104370 2738.364990 0.097930 0.658856 -0.745868
4302.471191 2127.303955 2794.262451 0.097930 0.658856 -0.745868
4743.010742 1789.810425 2628.851318 -0.374179 -0.812297 -0.447397
5423.835938 1424.438721 2722.816895 -0.374179 -0.812297 -0.447397
5071.567871 1249.490356 3335.071533 -0.374179 -0.812297 -0.447397
4833.431152 1985.104370 2738.364990 0.483021 0.852526 -0.199727
5633.983398 1574.206543 2920.524658 0.483021 0.852526 -0.199727
5565.627441 1594.944092 2843.729492 0.483021 0.852526 -0.199727
5940.302734 1118.500977 2963.579102 0.502006 0.182098 -0.845477
5423.835938 1424.438721 2722.816895 0.502006 0.182098 -0.845477
5565.627441 1594.944092 2843.729492 0.502006 0.182098 -0.845477
4288.798340 2011.062866 2714.687988 -0.906664 -0.160438 0.390153
4432.417969 1785.191162 2955.558350 -0.906664 -0.160438 0.390153
4302.471191 2127.303955 2794.262451 -0.906664 -0.160438 0.390153
4302.471191 2127.303955 2794.262451 -0.367750 0.817224 0.443740
4411.109863 2099.754150 2935.034424 -0.367750 0.817224 0.443740
4430.700195 2160.123535 2840.089355 -0.367750 0.817224 0.443740
4833.431152 1985.104370 2738.364990 0.361606 0.862001 0.355239
4695.291016 1844.085205 3221.169189 0.361606 0.862001 0.355239
5633.983398 1574.206543 2920.524658 0.361606 0.862001 0.355239
4432.417969 1785.191162 2955.558350 -0.426004 -0.803228 -0.416348
4743.010742 1789.810425 2628.851318 -0.426004 -0.803228 -0.416348
5071.567871 1249.490356 3335.071533 -0.426004 -0.803228 -0.416348
4432.417969 1785.191162 2955.558350 -0.792908 -0.013964 0.609182
4411.109863 2099.754150 2935.034424 -0.792908 -0.013964 0.609182
4302.471191 2127.303955 2794.262451 -0.792908 -0.013964 0.609182
5071.567871 1249.490356 3335.071533 -0.308740 -0.852749 -0.421305
5423.835938 1424.438721 2722.816895 -0.308740 -0.852749 -0.421305
5940.302734 1118.500977 2963.579102 -0.308740 -0.852749 -0.421305
5940.302734 1118.500977 2963.579102 0.486371 0.166728 -0.857698
5565.627441 1594.944092 2843.729492 0.486371 0.166728 -0.857698
6528.638672 854.302368 3245.846436 0.486371 0.166728 -0.857698
5940.302734 1118.500977 2963.579102 -0.312910 -0.844918 -0.433820
5883.182617 977.360168 3279.668457 -0.312910 -0.844918 -0.433820
5071.567871 1249.490356 3335.071533 -0.312910 -0.844918 -0.433820
4695.291016 1844.085205 3221.169189 0.447147 0.816024 0.366285
4833.431152 1985.104370 2738.364990 0.447147 0.816024 0.366285
4430.700195 2160.123535 2840.089355 0.447147 0.816024 0.366285
5565.627441 1594.944092 2843.729492 0.537769 0.264618 -0.800489
6478.301758 1098.053833 3292.607178 0.537769 0.264618 -0.800489
6528.638672 854.302368 3245.846436 0.537769 0.264618 -0.800489
4411.109863 2099.754150 2935.034424 0.174898 0.814119 0.553733
4695.291016 1844.085205 3221.169189 0.174898 0.814119 0.553733
4430.700195 2160.123535 2840.089355 0.174898 0.814119 0.553733
5940.302734 1118.500977 2963.579102 0.104075 -0.608632 -0.786598
6528.638672 854.302368 3245.846436 0.104075 -0.608632 -0.786598
6323.063477 864.168518 3211.012695 0.104075 -0.608632 -0.786598
6323.063477 864.168518 3211.012695 -0.287432 -0.854164 -0.433344
5883.182617 977.360168 3279.668457 -0.287432 -0.854164 -0.433344
5940.302734 1118.500977 2963.579102 -0.287432 -0.854164 -0.433344
5565.627441 1594.944092 2843.729492 0.564573 0.771133 -0.294296
5633.983398 1574.206543 2920.524658 0.564573 0.771133 -0.294296
6478.301758 1098.053833 3292.607178 0.564573 0.771133 -0.294296
4411.109863 2099.754150 2935.034424 -0.768530 -0.010319 0.639731
4432.417969 1785.191162 2955.558350 -0.768530 -0.010319 0.639731
4661.693848 1565.043213 3227.443848 -0.768530 -0.010319 0.639731
5633.983398 1574.206543 2920.524658 0.366009 0.849331 0.380360
4695.291016 1844.085205 3221.169189 0.366009 0.849331 0.380360
5798.863281 1283.508423 3410.984619 0.366009 0.849331 0.380360
4661.693848 1565.043213 3227.443848 -0.714452 -0.698720 0.036725
4432.417969 1785.191162 2955.558350 -0.714452 -0.698720 0.036725
4964.524414 1269.495605 3495.737793 -0.714452 -0.698720 0.036725
4411.109863 2099.754150 2935.034424 -0.661820 0.096402 0.743439
4661.693848 1565.043213 3227.443848 -0.661820 0.096402 0.743439
4695.291016 1844.085205 3221.169189 -0.661820 0.096402 0.743439
4964.524414 1269.495605 3495.737793 -0.529433 -0.810102 -0.251864
4432.417969 1785.191162 2955.558350 -0.529433 -0.810102 -0.251864
5071.567871 1249.490356 3335.071533 -0.529433 -0.810102 -0.251864
6478.301758 1098.053833 3292.607178 0.307887 0.819983 0.482529
5798.863281 1283.508423 3410.984619 0.307887 0.819983 0.482529
6064.052734 1198.385864 3386.427979 0.307887 0.819983 0.482529
6528.638672 854.302368 3245.846436 0.018988 -0.926985 -0.374618
6422.951660 763.126526 3466.102539 0.018988 -0.926985 -0.374618
6323.063477 864.168518 3211.012695 0.018988 -0.926985 -0.374618
6323.063477 864.168518 3211.012695 -0.278304 -0.925321 -0.257544
6422.951660 763.126526 3466.102539 -0.278304 -0.925321 -0.257544
5883.182617 977.360168 3279.668457 -0.278304 -0.925321 -0.257544
5071.567871 1249.490356 3335.071533 -0.313173 -0.846281 -0.430966
5883.182617 977.360168 3279.668457 -0.313173 -0.846281 -0.430966
5556.318848 1041.144165 3391.940918 -0.313173 -0.846281 -0.430966
6478.301758 1098.053833 3292.607178 0.305853 0.860582 0.407251
5633.983398 1574.206543 2920.524658 0.305853 0.860582 0.407251
5798.863281 1283.508423 3410.984619 0.305853 0.860582 0.407251
6528.638672 854.302368 3245.846436 0.946508 0.237390 -0.218558
6478.301758 1098.053833 3292.607178 0.946508 0.237390 -0.218558
6544.109375 1001.464172 3472.687500 0.946508 0.237390 -0.218558
5798.863281 1283.508423 3410.984619 0.377836 0.859978 0.343040
4695.291016 1844.085205 3221.169189 0.377836 0.859978 0.343040
5159.082520 1496.486938 3581.738281 0.377836 0.859978 0.343040
4695.291016 1844.085205 3221.169189 -0.662870 0.096507 0.742489
4661.693848 1565.043213 3227.443848 -0.662870 0.096507 0.742489
5049.000000 1426.178711 3591.267334 -0.662870 0.096507 0.742489
6422.951660 763.126526 3466.102539 0.797727 -0.586547 0.139975
6528.638672 854.302368 3245.846436 0.797727 -0.586547 0.139975
6474.096680 843.500122 3511.418701 0.797727 -0.586547 0.139975
6474.096680 843.500122 3511.418701 0.915439 -0.363265 0.173233
6528.638672 854.302368 3245.846436 0.915439 -0.363265 0.173233
6544.109375 1001.464172 3472.687500 0.915439 -0.363265 0.173233
5049.000000 1426.178711 3591.267334 -0.685778 0.061792 0.725183
4961.616699 1598.578613 3493.942383 -0.685778 0.061792 0.725183
4695.291016 1844.085205 3221.169189 -0.685778 0.061792 0.725183
5939.245117 1142.852417 3369.328125 -0.419881 -0.318244 0.849953
5883.182617 977.360168 3279.668457 -0.419881 -0.318244 0.849953
6422.951660 763.126526 3466.102539 -0.419881 -0.318244 0.849953
5939.245117 1142.852417 3369.328125 0.290605 -0.530037 0.796624
5413.727539 1093.794067 3528.393799 0.290605 -0.530037 0.796624
5883.182617 977.360168 3279.668457 0.290605 -0.530037 0.796624
5883.182617 977.360168 3279.668457 -0.093539 -0.957793 0.271814
5413.727539 1093.794067 3528.393799 -0.093539 -0.957793 0.271814
5556.318848 1041.144165 3391.940918 -0.093539 -0.957793 0.271814
4695.291016 1844.085205 3221.169189 0.166895 0.808330 0.564578
4961.616699 1598.578613 3493.942383 0.166895 0.808330 0.564578
5159.082520 1496.486938 3581.738281 0.166895 0.808330 0.564578
6064.052734 1198.385864 3386.427979 -0.003471 -0.287149 0.957880
5798.863281 1283.508423 3410.984619 -0.003471 -0.287149 0.957880
5939.245117 1142.852417 3369.328125 -0.003471 -0.287149 0.957880
5939.245117 1142.852417 3369.328125 -0.413467 -0.308349 0.856718
6422.951660 763.126526 3466.102539 -0.413467 -0.308349 0.856718
6391.902344 980.048523 3529.191895 -0.413467 -0.308349 0.856718
4964.524414 1269.495605 3495.737793 -0.377469 -0.915763 -0.137462
5071.567871 1249.490356 3335.071533 -0.377469 -0.915763 -0.137462
5556.318848 1041.144165 3391.940918 -0.377469 -0.915763 -0.137462
6064.052734 1198.385864 3386.427979 0.296429 0.882539 0.365042
6544.109375 1001.464172 3472.687500 0.296429 0.882539 0.365042
6478.301758 1098.053833 3292.607178 0.296429 0.882539 0.365042
5939.245117 1142.852417 3369.328125 0.297523 -0.440152 0.847199
5490.975586 1290.999390 3603.721191 0.297523 -0.440152 0.847199
5413.727539 1093.794067 3528.393799 0.297523 -0.440152 0.847199
5490.975586 1290.999390 3603.721191 0.515138 0.273571 0.812276
5939.245117 1142.852417 3369.328125 0.515138 0.273571 0.812276
5798.863281 1283.508423 3410.984619 0.515138 0.273571 0.812276
5049.000000 1426.178711 3591.267334 -0.695063 -0.061968 0.716273
4661.693848 1565.043213 3227.443848 -0.695063 -0.061968 0.716273
4964.524414 1269.495605 3495.737793 -0.695063 -0.061968 0.716273
6391.902344 980.048523 3529.191895 -0.240489 0.251834 0.937414
6064.052734 1198.385864 3386.427979 -0.240489 0.251834 0.937414
5939.245117 1142.852417 3369.328125 -0.240489 0.251834 0.937414
4964.524414 1269.495605 3495.737793 -0.362946 -0.931600 -0.019818
5556.318848 1041.144165 3391.940918 -0.362946 -0.931600 -0.019818
5413.727539 1093.794067 3528.393799 -0.362946 -0.931600 -0.019818
5159.082520 1496.486938 3581.738281 0.392251 0.697677 0.599487
5490.975586 1290.999390 3603.721191 0.392251 0.697677 0.599487
5798.863281 1283.508423 3410.984619 0.392251 0.697677 0.599487
6391.902344 980.048523 3529.191895 0.160883 0.697905 0.697887
6544.109375 1001.464172 3472.687500 0.160883 0.697905 0.697887
6064.052734 1198.385864 3386.427979 0.160883 0.697905 0.697887
6474.096680 843.500122 3511.418701 -0.314636 -0.306332 0.898423
6391.902344 980.048523 3529.191895 -0.314636 -0.306332 0.898423
6422.951660 763.126526 3466.102539 -0.314636 -0.306332 0.898423
6544.109375 1001.464172 3472.687500 0.336893 0.080690 0.938079
6391.902344 980.048523 3529.191895 0.336893 0.080690 0.938079
6474.096680 843.500122 3511.418701 0.336893 0.080690 0.938079
4964.524414 1269.495605 3495.737793 -0.226434 -0.415141 0.881128
5413.727539 1093.794067 3528.393799 -0.226434 -0.415141 0.881128
5049.000000 1426.178711 3591.267334 -0.226434 -0.415141 0.881128
5490.975586 1290.999390 3603.721191 -0.122005 -0.312099 0.942183
5049.000000 1426.178711 3591.267334 -0.122005 -0.312099 0.942183
5413.727539 1093.794067 3528.393799 -0.122005 -0.312099 0.942183
5159.082520 1496.486938 3581.738281 -0.184833 0.410422 0.892967
4961.616699 1598.578613 3493.942383 -0.184833 0.410422 0.892967
5049.000000 1426.178711 3591.267334 -0.184833 0.410422 0.892967
5490.975586 1290.999390 3603.721191 0.008911 0.120586 0.992663
5159.082520 1496.486938 3581.738281 0.008911 0.120586 0.992663
5049.000000 1426.178711 3591.267334 0.008911 0.120586 0.992663
5458.101074 1307.924805 7765.244141 -0.205566 -0.173276 -0.963181
5011.588867 1239.750732 7872.805176 -0.205566 -0.173276 -0.963181
5040.069824 1536.883423 7813.272461 -0.205566 -0.173276 -0.963181
5385.943848 1078.381348 7862.595215 -0.171185 -0.338586 -0.925233
5011.588867 1239.750732 7872.805176 -0.171185 -0.338586 -0.925233
5458.101074 1307.924805 7765.244141 -0.171185 -0.338586 -0.925233
6469.337891 860.929016 7847.195801 0.698895 0.022513 -0.714869
6464.126465 988.030090 7846.103516 0.698895 0.022513 -0.714869
6553.842285 1017.174622 7934.732422 0.698895 0.022513 -0.714869
5011.588867 1239.750732 7872.805176 -0.554542 -0.112056 -0.824577
4901.638184 1331.430420 7934.290039 -0.554542 -0.112056 -0.824577
5040.069824 1536.883423 7813.272461 -0.554542 -0.112056 -0.824577
6469.337891 860.929016 7847.195801 -0.498015 -0.276905 -0.821770
6398.368164 774.591248 7919.297852 -0.498015 -0.276905 -0.821770
6061.729980 1174.650024 7988.505371 -0.498015 -0.276905 -0.821770
6469.337891 860.929016 7847.195801 -0.342630 -0.022120 -0.939210
6061.729980 1174.650024 7988.505371 -0.342630 -0.022120 -0.939210
6464.126465 988.030090 7846.103516 -0.342630 -0.022120 -0.939210
5804.503906 1271.997681 7962.527832 0.368955 0.779745 -0.505836
5458.101074 1307.924805 7765.244141 0.368955 0.779745 -0.505836
5040.069824 1536.883423 7813.272461 0.368955 0.779745 -0.505836
5458.101074 1307.924805 7765.244141 0.350989 -0.456960 -0.817309
5728.661133 1038.850586 8031.875000 0.350989 -0.456960 -0.817309
5385.943848 1078.381348 7862.595215 0.350989 -0.456960 -0.817309
5804.503906 1271.997681 7962.527832 0.426955 -0.382595 -0.819348
5728.661133 1038.850586 8031.875000 0.426955 -0.382595 -0.819348
5458.101074 1307.924805 7765.244141 0.426955 -0.382595 -0.819348
6398.368164 774.591248 7919.297852 0.659434 -0.720689 -0.213903
6469.337891 860.929016 7847.195801 0.659434 -0.720689 -0.213903
6517.261230 824.072205 8119.116211 0.659434 -0.720689 -0.213903
6398.368164 774.591248 7919.297852 -0.300112 -0.088224 -0.949815
5966.509766 1060.453003 8029.199219 -0.300112 -0.088224 -0.949815
6061.729980 1174.650024 7988.505371 -0.300112 -0.088224 -0.949815
5869.401367 993.975952 8154.586914 0.131446 -0.872851 -0.469951
5385.943848 1078.381348 7862.595215 0.131446 -0.872851 -0.469951
5728.661133 1038.850586 8031.875000 0.131446 -0.872851 -0.469951
6553.842285 1017.174622 7934.732422 0.215335 0.841892 -0.494822
6464.126465 988.030090 7846.103516 0.215335 0.841892 -0.494822
6061.729980 1174.650024 7988.505371 0.215335 0.841892 -0.494822
6398.368164 774.591248 7919.297852 -0.501968 -0.482334 -0.717901
5969.743164 946.460999 8103.525879 -0.501968 -0.482334 -0.717901
5966.509766 1060.453003 8029.199219 -0.501968 -0.482334 -0.717901
5804.503906 1271.997681 7962.527832 0.015546 -0.289704 -0.956990
5966.509766 1060.453003 8029.199219 0.015546 -0.289704 -0.956990
5728.661133 1038.850586 8031.875000 0.015546 -0.289704 -0.956990
6061.729980 1174.650024 7988.505371 -0.024405 -0.317454 -0.947960
5966.509766 1060.453003 8029.199219 -0.024405 -0.317454 -0.947960
5804.503906 1271.997681 7962.527832 -0.024405 -0.317454 -0.947960
4901.638184 1331.430420 7934.290039 -0.691158 0.040675 -0.721558
4665.000000 1545.221069 8173.009766 -0.691158 0.040675 -0.721558
5040.069824 1536.883423 7813.272461 -0.691158 0.040675 -0.721558
6517.261230 824.072205 8119.116211 0.914835 -0.346058 -0.208136
6469.337891 860.929016 7847.195801 0.914835 -0.346058 -0.208136
6577.073730 1027.977539 8042.990234 0.914835 -0.346058 -0.208136
6469.337891 860.929016 7847.195801 0.902610 -0.402135 -0.153566
6553.842285 1017.174622 7934.732422 0.902610 -0.402135 -0.153566
6577.073730 1027.977539 8042.990234 0.902610 -0.402135 -0.153566
5969.743164 946.460999 8103.525879 0.040073 -0.544949 -0.837511
5728.661133 1038.850586 8031.875000 0.040073 -0.544949 -0.837511
5966.509766 1060.453003 8029.199219 0.040073 -0.544949 -0.837511
4585.571289 1931.364502 8250.715820 -0.692166 0.002862 -0.721733
5040.069824 1536.883423 7813.272461 -0.692166 0.002862 -0.721733
4665.000000 1545.221069 8173.009766 -0.692166 0.002862 -0.721733
6398.368164 774.591248 7919.297852 -0.213683 -0.910999 0.352733
6517.261230 824.072205 8119.116211 -0.213683 -0.910999 0.352733
5969.743164 946.460999 8103.525879 -0.213683 -0.910999 0.352733
4901.638184 1331.430420 7934.290039 -0.594024 -0.794971 0.123109
5011.588867 1239.750732 7872.805176 -0.594024 -0.794971 0.123109
4665.000000 1545.221069 8173.009766 -0.594024 -0.794971 0.123109
5040.069824 1536.883423 7813.272461 0.368285 0.847699 -0.381801
4585.571289 1931.364502 8250.715820 0.368285 0.847699 -0.381801
5804.503906 1271.997681 7962.527832 0.368285 0.847699 -0.381801
5388.284668 1403.358765 8631.599609 -0.360295 -0.858869 0.364050
5011.588867 1239.750732 7872.805176 -0.360295 -0.858869 0.364050
5385.943848 1078.381348 7862.595215 -0.360295 -0.858869 0.364050
4585.571289 1931.364502 8250.715820 -0.666828 0.012777 -0.745102
4665.000000 1545.221069 8173.009766 -0.666828 0.012777 -0.745102
4452.114746 1771.275269 8367.407227 -0.666828 0.012777 -0.745102
5969.743164 946.460999 8103.525879 -0.382463 -0.918227 0.102866
5869.401367 993.975952 8154.586914 -0.382463 -0.918227 0.102866
5728.661133 1038.850586 8031.875000 -0.382463 -0.918227 0.102866
6553.842285 1017.174622 7934.732422 0.285592 0.945627 -0.155649
6061.729980 1174.650024 7988.505371 0.285592 0.945627 -0.155649
6577.073730 1027.977539 8042.990234 0.285592 0.945627 -0.155649
5804.503906 1271.997681 7962.527832 0.119078 0.050027 -0.991624
6577.073730 1027.977539 8042.990234 0.119078 0.050027 -0.991624
6061.729980 1174.650024 7988.505371 0.119078 0.050027 -0.991624
5385.943848 1078.381348 7862.595215 -0.368553 -0.855883 0.362814
5869.401367 993.975952 8154.586914 -0.368553 -0.855883 0.362814
5388.284668 1403.358765 8631.599609 -0.368553 -0.855883 0.362814
6517.261230 824.072205 8119.116211 -0.209902 -0.886478 0.412429
5869.401367 993.975952 8154.586914 -0.209902 -0.886478 0.412429
5969.743164 946.460999 8103.525879 -0.209902 -0.886478 0.412429
5454.171875 1675.201050 8513.424805 0.312659 0.850246 -0.423469
6577.073730 1027.977539 8042.990234 0.312659 0.850246 -0.423469
5804.503906 1271.997681 7962.527832 0.312659 0.850246 -0.423469
6517.261230 824.072205 8119.116211 -0.206092 -0.876623 0.434809
6087.833984 1036.179565 8343.207031 -0.206092 -0.876623 0.434809
5869.401367 993.975952 8154.586914 -0.206092 -0.876623 0.434809
5011.588867 1239.750732 7872.805176 -0.404140 -0.832016 0.380027
5388.284668 1403.358765 8631.599609 -0.404140 -0.832016 0.380027
4665.000000 1545.221069 8173.009766 -0.404140 -0.832016 0.380027
5804.503906 1271.997681 7962.527832 0.366484 0.846388 -0.386416
4585.571289 1931.364502 8250.715820 0.366484 0.846388 -0.386416
5454.171875 1675.201050 8513.424805 0.366484 0.846388 -0.386416
6577.073730 1027.977539 8042.990234 0.520508 0.160419 0.838652
5803.750000 1454.954346 8441.279297 0.520508 0.160419 0.838652
6517.261230 824.072205 8119.116211 0.520508 0.160419 0.838652
6087.833984 1036.179565 8343.207031 -0.252233 -0.840175 0.480088
5783.297852 1219.747314 8504.458984 -0.252233 -0.840175 0.480088
5869.401367 993.975952 8154.586914 -0.252233 -0.840175 0.480088
5803.750000 1454.954346 8441.279297 0.515223 0.151979 0.843474
6087.833984 1036.179565 8343.207031 0.515223 0.151979 0.843474
6517.261230 824.072205 8119.116211 0.515223 0.151979 0.843474
5869.401367 993.975952 8154.586914 -0.235132 -0.842028 0.485492
5783.297852 1219.747314 8504.458984 -0.235132 -0.842028 0.485492
5388.284668 1403.358765 8631.599609 -0.235132 -0.842028 0.485492
5388.284668 1403.358765 8631.599609 -0.398624 -0.839617 0.368976
4519.862793 1822.130981 8646.328125 -0.398624 -0.839617 0.368976
4665.000000 1545.221069 8173.009766 -0.398624 -0.839617 0.368976
5454.171875 1675.201050 8513.424805 0.551646 0.808717 0.204117
5803.750000 1454.954346 8441.279297 0.551646 0.808717 0.204117
6577.073730 1027.977539 8042.990234 0.551646 0.808717 0.204117
5803.750000 1454.954346 8441.279297 0.540701 0.174055 0.823011
5783.297852 1219.747314 8504.458984 0.540701 0.174055 0.823011
6087.833984 1036.179565 8343.207031 0.540701 0.174055 0.823011
4519.862793 1822.130981 8646.328125 -0.567609 -0.774550 0.279092
4452.114746 1771.275269 8367.407227 -0.567609 -0.774550 0.279092
4665.000000 1545.221069 8173.009766 -0.567609 -0.774550 0.279092
4879.246094 1971.955811 8637.744141 0.413517 0.818132 -0.399580
4585.571289 1931.364502 8250.715820 0.413517 0.818132 -0.399580
4375.998535 2172.213623 8526.966797 0.413517 0.818132 -0.399580
4585.571289 1931.364502 8250.715820 -0.734350 0.126018 -0.666970
4452.114746 1771.275269 8367.407227 -0.734350 0.126018 -0.666970
4375.998535 2172.213623 8526.966797 -0.734350 0.126018 -0.666970
5454.171875 1675.201050 8513.424805 0.363292 0.856970 -0.365542
4585.571289 1931.364502 8250.715820 0.363292 0.856970 -0.365542
4879.246094 1971.955811 8637.744141 0.363292 0.856970 -0.365542
4375.998535 2172.213623 8526.966797 -0.763538 0.108391 -0.636601
4452.114746 1771.275269 8367.407227 -0.763538 0.108391 -0.636601
4281.053711 2085.114990 8626.013672 -0.763538 0.108391 -0.636601
5783.297852 1219.747314 8504.458984 0.478580 0.188727 0.857522
5803.750000 1454.954346 8441.279297 0.478580 0.188727 0.857522
5363.322754 1530.955322 8670.353516 0.478580 0.188727 0.857522
4452.114746 1771.275269 8367.407227 -0.583151 -0.762348 0.280643
4519.862793 1822.130981 8646.328125 -0.583151 -0.762348 0.280643
4286.888184 2000.062988 8645.568359 -0.583151 -0.762348 0.280643
4452.114746 1771.275269 8367.407227 -0.900153 -0.155312 -0.406943
4286.888184 2000.062988 8645.568359 -0.900153 -0.155312 -0.406943
4281.053711 2085.114990 8626.013672 -0.900153 -0.155312 -0.406943
5803.750000 1454.954346 8441.279297 0.465899 0.500448 0.729719
5454.171875 1675.201050 8513.424805 0.465899 0.500448 0.729719
5363.322754 1530.955322 8670.353516 0.465899 0.500448 0.729719
5363.322754 1530.955322 8670.353516 0.430337 0.526584 0.733157
5454.171875 1675.201050 8513.424805 0.430337 0.526584 0.733157
4879.246094 1971.955811 8637.744141 0.430337 0.526584 0.733157
4879.246094 1971.955811 8637.744141 0.116107 0.688032 0.716332
4375.998535 2172.213623 8526.966797 0.116107 0.688032 0.716332
4281.053711 2085.114990 8626.013672 0.116107 0.688032 0.716332
5783.297852 1219.747314 8504.458984 0.188686 -0.251413 0.949310
5363.322754 1530.955322 8670.353516 0.188686 -0.251413 0.949310
5388.284668 1403.358765 8631.599609 0.188686 -0.251413 0.949310
4788.141602 1790.026123 8756.056641 -0.379234 -0.493206 0.782898
4286.888184 2000.062988 8645.568359 -0.379234 -0.493206 0.782898
4519.862793 1822.130981 8646.328125 -0.379234 -0.493206 0.782898
5363.322754 1530.955322 8670.353516 0.310263 0.404194 0.860444
4879.246094 1971.955811 8637.744141 0.310263 0.404194 0.860444
4788.141602 1790.026123 8756.056641 0.310263 0.404194 0.860444
4879.246094 1971.955811 8637.744141 0.080629 0.514713 0.853563
4281.053711 2085.114990 8626.013672 0.080629 0.514713 0.853563
4788.141602 1790.026123 8756.056641 0.080629 0.514713 0.853563
4788.141602 1790.026123 8756.056641 0.012810 -0.288295 0.957456
5388.284668 1403.358765 8631.599609 0.012810 -0.288295 0.957456
5363.322754 1530.955322 8670.353516 0.012810 -0.288295 0.957456
4519.862793 1822.130981 8646.328125 -0.335572 -0.717360 0.610562
5388.284668 1403.358765 8631.599609 -0.335572 -0.717360 0.610562
4788.141602 1790.026123 8756.056641 -0.335572 -0.717360 0.610562
4281.053711 2085.114990 8626.013672 -0.123783 0.214272 0.968899
4286.888184 2000.062988 8645.568359 -0.123783 0.214272 0.968899
4788.141602 1790.026123 8756.056641 -0.123783 0.214272 0.968899
3 0 1 2
3 3 4 5
3 6 7 8
3 9 10 11
3 12 13 14
3 15 16 17
3 18 19 20
3 21 22 23
3 24 25 26
3 27 28 29
3 30 31 32
3 33 34 35
3 36 37 38
3 39 40 41
3 42 43 44
3 45 46 47
3 48 49 50
3 51 52 53
3 54 55 56
3 57 58 59
3 60 61 62
3 63 64 65
3 66 67 68
3 69 70 71
3 72 73 74
3 75 76 77
3 78 79 80
3 81 82 83
3 84 85 86
3 87 88 89
3 90 91 92
3 93 94 95
3 96 97 98
3 99 100 101
3 102 103 104
3 105 106 107
3 108 109 110
3 111 112 113
3 114 115 116
3 117 118 119
3 120 121 122
3 123 124 125
3 126 127 128
3 129 130 131
3 132 133 134
3 135 136 137
3 138 139 140
3 141 142 143
3 144 145 146
3 147 148 149
3 150 151 152
3 153 154 155
3 156 157 158
3 159 160 161
3 162 163 164
3 165 166 167
3 168 169 170
3 171 172 173
3 174 175 176
3 177 178 179
3 180 181 182
3 183 184 185
3 186 187 188
3 189 190 191
3 192 193 194
3 195 196 197
3 198 199 200
3 201 202 203
3 204 205 206
3 207 208 209
3 210 211 212
3 213 214 215
3 216 217 218
3 219 220 221
3 222 223 224
3 225 226 227
3 228 229 230
3 231 232 233
3 234 235 236
3 237 238 239
3 240 241 242
3 243 244 245
3 246 247 248
3 249 250 251
3 252 253 254
3 255 256 257
3 258 259 260
3 261 262 263
3 264 265 266
3 267 268 269
3 270 271 272
3 273 274 275
3 276 277 278
3 279 280 281
3 282 283 284
3 285 286 287
3 288 289 290
3 291 292 293
3 294 295 296
3 297 298 299
3 300 301 302
3 303 304 305
3 306 307 308
3 309 310 311
3 312 313 314
3 315 316 317
3 318 319 320
3 321 322 323
3 324 325 326
3 327 328 329
3 330 331 332
3 333 334 335
3 336 337 338
3 339 340 341
3 342 343 344
3 345 346 347
3 348 349 350
3 351 352 353
3 354 355 356
3 357 358 359
3 360 361 362
3 363 364 365
