ply
format ascii 1.0
comment Created by Blender 2.80 (sub 75) - www.blender.org, source file: 'downsample_ccf.blend'
element vertex 102
property float x
property float y
property float z
property float nx
property float ny
property float nz
element face 34
property list uchar uint vertex_indices
end_header
6324.522461 2936.811768 2318.650635 -0.357406 -0.617110 0.701025
6286.618164 2995.362061 2350.867432 -0.357406 -0.617110 0.701025
5759.042969 3306.344482 2355.649170 -0.357406 -0.617110 0.701025
6286.618164 2995.362061 2350.867432 -0.101163 -0.156514 -0.982481
6311.276367 2927.623047 2359.119629 -0.101163 -0.156514 -0.982481
5759.042969 3306.344482 2355.649170 -0.101163 -0.156514 -0.982481
5685.514648 3217.866211 2447.500488 -0.350594 -0.518367 -0.779987
5759.042969 3306.344482 2355.649170 -0.350594 -0.518367 -0.779987
6311.276367 2927.623047 2359.119629 -0.350594 -0.518367 -0.779987
5699.803711 3168.587891 2455.521973 0.346802 0.448203 0.823919
6324.522461 2936.811768 2318.650635 0.346802 0.448203 0.823919
5759.042969 3306.344482 2355.649170 0.346802 0.448203 0.823919
6311.276367 2927.623047 2359.119629 -0.376372 -0.595279 -0.709921
5618.265137 2987.349365 2676.445312 -0.376372 -0.595279 -0.709921
5685.514648 3217.866211 2447.500488 -0.376372 -0.595279 -0.709921
5685.514648 3217.866211 2447.500488 0.777576 0.314136 0.544696
5618.265137 2987.349365 2676.445312 0.777576 0.314136 0.544696
5699.803711 3168.587891 2455.521973 0.777576 0.314136 0.544696
6324.522461 2936.811768 2318.650635 0.364634 0.531198 0.764768
5699.803711 3168.587891 2455.521973 0.364634 0.531198 0.764768
5595.275879 2963.513672 2647.801758 0.364634 0.531198 0.764768
6311.276367 2927.623047 2359.119629 -0.362243 0.927529 0.092033
6324.522461 2936.811768 2318.650635 -0.362243 0.927529 0.092033
5753.757812 2650.094971 2961.706787 -0.362243 0.927529 0.092033
5753.757812 2650.094971 2961.706787 0.296247 0.746510 0.595786
6324.522461 2936.811768 2318.650635 0.296247 0.746510 0.595786
5595.275879 2963.513672 2647.801758 0.296247 0.746510 0.595786
5618.265137 2987.349365 2676.445312 -0.370341 -0.619439 -0.692202
6311.276367 2927.623047 2359.119629 -0.370341 -0.619439 -0.692202
5572.242676 2756.272217 2907.854736 -0.370341 -0.619439 -0.692202
5753.757812 2650.094971 2961.706787 -0.266548 -0.757762 -0.595608
5572.242676 2756.272217 2907.854736 -0.266548 -0.757762 -0.595608
6311.276367 2927.623047 2359.119629 -0.266548 -0.757762 -0.595608
5618.265137 2987.349365 2676.445312 0.839203 -0.459079 -0.291520
5572.242676 2756.272217 2907.854736 0.839203 -0.459079 -0.291520
5595.275879 2963.513672 2647.801758 0.839203 -0.459079 -0.291520
5595.275879 2963.513672 2647.801758 -0.445326 0.511112 0.735153
5700.009766 2651.563477 2928.127441 -0.445326 0.511112 0.735153
5753.757812 2650.094971 2961.706787 -0.445326 0.511112 0.735153
5700.009766 2651.563477 2928.127441 0.460552 0.673837 0.577786
5595.275879 2963.513672 2647.801758 0.460552 0.673837 0.577786
5572.242676 2756.272217 2907.854736 0.460552 0.673837 0.577786
5908.926270 2581.919434 8430.712891 -0.233048 -0.780408 0.580217
6126.545898 2621.423340 8571.254883 -0.233048 -0.780408 0.580217
5550.270996 2750.498535 8513.400391 -0.233048 -0.780408 0.580217
5908.926270 2581.919434 8430.712891 -0.012979 0.967667 -0.251898
6108.425293 2645.527100 8664.783203 -0.012979 0.967667 -0.251898
6126.545898 2621.423340 8571.254883 -0.012979 0.967667 -0.251898
6108.425293 2645.527100 8664.783203 -0.114316 0.979030 -0.168615
5908.926270 2581.919434 8430.712891 -0.114316 0.979030 -0.168615
5790.320801 2571.454834 8450.363281 -0.114316 0.979030 -0.168615
6126.545898 2621.423340 8571.254883 -0.238030 -0.862887 0.445834
6140.377930 2670.315430 8673.267578 -0.238030 -0.862887 0.445834
5550.270996 2750.498535 8513.400391 -0.238030 -0.862887 0.445834
5550.270996 2750.498535 8513.400391 0.290977 0.640381 -0.710806
5718.801270 3241.099609 9024.383789 0.290977 0.640381 -0.710806
5790.320801 2571.454834 8450.363281 0.290977 0.640381 -0.710806
5550.270996 2750.498535 8513.400391 -0.282023 -0.208348 0.936512
6140.377930 2670.315430 8673.267578 -0.282023 -0.208348 0.936512
5609.767090 2866.235840 8557.065430 -0.282023 -0.208348 0.936512
6108.425293 2645.527100 8664.783203 0.324415 0.635352 -0.700773
5790.320801 2571.454834 8450.363281 0.324415 0.635352 -0.700773
5718.801270 3241.099609 9024.383789 0.324415 0.635352 -0.700773
6140.377930 2670.315430 8673.267578 -0.504145 0.778101 -0.374695
6108.425293 2645.527100 8664.783203 -0.504145 0.778101 -0.374695
6308.458984 2972.586426 9074.821289 -0.504145 0.778101 -0.374695
6140.377930 2670.315430 8673.267578 -0.904508 -0.058255 0.422458
6308.458984 2972.586426 9074.821289 -0.904508 -0.058255 0.422458
6289.993652 3001.227295 9039.235352 -0.904508 -0.058255 0.422458
6108.425293 2645.527100 8664.783203 0.350439 0.641362 -0.682530
5718.801270 3241.099609 9024.383789 0.350439 0.641362 -0.682530
6308.458984 2972.586426 9074.821289 0.350439 0.641362 -0.682530
5718.801270 3241.099609 9024.383789 -0.386620 -0.673264 0.630270
5609.767090 2866.235840 8557.065430 -0.386620 -0.673264 0.630270
6140.377930 2670.315430 8673.267578 -0.386620 -0.673264 0.630270
6043.161621 3127.268066 9051.175781 0.072508 -0.028043 -0.996973
6308.458984 2972.586426 9074.821289 0.072508 -0.028043 -0.996973
5718.801270 3241.099609 9024.383789 0.072508 -0.028043 -0.996973
5748.972656 3293.681641 9052.040039 0.202335 0.362417 -0.909788
6043.161621 3127.268066 9051.175781 0.202335 0.362417 -0.909788
5718.801270 3241.099609 9024.383789 0.202335 0.362417 -0.909788
6043.161621 3127.268066 9051.175781 -0.403826 -0.768483 -0.496345
6178.752930 3054.577637 9053.404297 -0.403826 -0.768483 -0.496345
6308.458984 2972.586426 9074.821289 -0.403826 -0.768483 -0.496345
5718.801270 3241.099609 9024.383789 -0.290330 -0.647733 0.704380
6140.377930 2670.315430 8673.267578 -0.290330 -0.647733 0.704380
6289.993652 3001.227295 9039.235352 -0.290330 -0.647733 0.704380
6289.993652 3001.227295 9039.235352 -0.052292 -0.062812 0.996655
5779.628906 3289.351074 9030.616211 -0.052292 -0.062812 0.996655
5718.801270 3241.099609 9024.383789 -0.052292 -0.062812 0.996655
6043.161621 3127.268066 9051.175781 -0.340719 -0.598564 -0.725005
5748.972656 3293.681641 9052.040039 -0.340719 -0.598564 -0.725005
6289.993652 3001.227295 9039.235352 -0.340719 -0.598564 -0.725005
6178.752930 3054.577637 9053.404297 -0.427615 -0.762794 -0.485068
6289.993652 3001.227295 9039.235352 -0.427615 -0.762794 -0.485068
6306.951172 2973.917480 9067.232422 -0.427615 -0.762794 -0.485068
6308.458984 2972.586426 9074.821289 -0.528658 -0.847712 -0.043647
6178.752930 3054.577637 9053.404297 -0.528658 -0.847712 -0.043647
6306.951172 2973.917480 9067.232422 -0.528658 -0.847712 -0.043647
6289.993652 3001.227295 9039.235352 -0.430772 -0.776785 -0.459392
5748.972656 3293.681641 9052.040039 -0.430772 -0.776785 -0.459392
5779.628906 3289.351074 9030.616211 -0.430772 -0.776785 -0.459392
3 0 1 2
3 3 4 5
3 6 7 8
3 9 10 11
3 12 13 14
3 15 16 17
3 18 19 20
3 21 22 23
3 24 25 26
3 27 28 29
3 30 31 32
3 33 34 35
3 36 37 38
3 39 40 41
3 42 43 44
3 45 46 47
3 48 49 50
3 51 52 53
3 54 55 56
3 57 58 59
3 60 61 62
3 63 64 65
3 66 67 68
3 69 70 71
3 72 73 74
3 75 76 77
3 78 79 80
3 81 82 83
3 84 85 86
3 87 88 89
3 90 91 92
3 93 94 95
3 96 97 98
3 99 100 101
