ply
format ascii 1.0
comment Created by Blender 2.80 (sub 75) - www.blender.org, source file: 'downsample_ccf.blend'
element vertex 114
property float x
property float y
property float z
property float nx
property float ny
property float nz
element face 38
property list uchar uint vertex_indices
end_header
7217.840820 5023.982910 3652.798096 -0.065859 0.402322 -0.913126
6995.163086 5106.753418 3705.327148 -0.065859 0.402322 -0.913126
7137.148926 5279.906250 3771.377441 -0.065859 0.402322 -0.913126
7564.831543 5115.194824 3774.228027 0.183035 0.460227 -0.868729
7217.840820 5023.982910 3652.798096 0.183035 0.460227 -0.868729
7137.148926 5279.906250 3771.377441 0.183035 0.460227 -0.868729
6995.163086 5106.753418 3705.327148 -0.284635 -0.925150 0.251160
7217.840820 5023.982910 3652.798096 -0.284635 -0.925150 0.251160
6991.979980 5144.639648 3841.274170 -0.284635 -0.925150 0.251160
7217.840820 5023.982910 3652.798096 0.128567 -0.933761 0.334007
7564.831543 5115.194824 3774.228027 0.128567 -0.933761 0.334007
7371.970215 5150.730469 3947.809570 0.128567 -0.933761 0.334007
6991.979980 5144.639648 3841.274170 -0.109057 -0.891378 0.439945
7217.840820 5023.982910 3652.798096 -0.109057 -0.891378 0.439945
7371.970215 5150.730469 3947.809570 -0.109057 -0.891378 0.439945
7137.148926 5279.906250 3771.377441 -0.480943 0.627823 -0.611990
6995.163086 5106.753418 3705.327148 -0.480943 0.627823 -0.611990
6951.004395 5463.647949 4106.157715 -0.480943 0.627823 -0.611990
7137.148926 5279.906250 3771.377441 0.240770 0.612139 -0.753204
7590.123535 5730.705566 4282.546875 0.240770 0.612139 -0.753204
7564.831543 5115.194824 3774.228027 0.240770 0.612139 -0.753204
6991.979980 5144.639648 3841.274170 -0.989966 -0.140400 0.015948
6951.004395 5463.647949 4106.157715 -0.989966 -0.140400 0.015948
6995.163086 5106.753418 3705.327148 -0.989966 -0.140400 0.015948
7201.262207 5703.307617 4237.531250 -0.369324 0.712620 -0.596467
7137.148926 5279.906250 3771.377441 -0.369324 0.712620 -0.596467
6951.004395 5463.647949 4106.157715 -0.369324 0.712620 -0.596467
7590.123535 5730.705566 4282.546875 0.026022 0.738202 -0.674078
7137.148926 5279.906250 3771.377441 0.026022 0.738202 -0.674078
7201.262207 5703.307617 4237.531250 0.026022 0.738202 -0.674078
7371.970215 5150.730469 3947.809570 0.286991 -0.824513 0.487662
7564.831543 5115.194824 3774.228027 0.286991 -0.824513 0.487662
7568.713867 5279.194824 4049.225830 0.286991 -0.824513 0.487662
7590.123535 5730.705566 4282.546875 0.998114 -0.057886 0.020430
7568.713867 5279.194824 4049.225830 0.998114 -0.057886 0.020430
7564.831543 5115.194824 3774.228027 0.998114 -0.057886 0.020430
7371.970215 5150.730469 3947.809570 0.024324 -0.642135 0.766206
7568.713867 5279.194824 4049.225830 0.024324 -0.642135 0.766206
7557.098633 5645.139648 4356.282227 0.024324 -0.642135 0.766206
6951.004395 5463.647949 4106.157715 -0.197628 -0.641123 0.741555
6991.979980 5144.639648 3841.274170 -0.197628 -0.641123 0.741555
7371.970215 5150.730469 3947.809570 -0.197628 -0.641123 0.741555
7371.970215 5150.730469 3947.809570 -0.146855 -0.596760 0.788867
7557.098633 5645.139648 4356.282227 -0.146855 -0.596760 0.788867
6951.004395 5463.647949 4106.157715 -0.146855 -0.596760 0.788867
7568.713867 5279.194824 4049.225830 0.957518 -0.166921 0.235154
7590.123535 5730.705566 4282.546875 0.957518 -0.166921 0.235154
7557.098633 5645.139648 4356.282227 0.957518 -0.166921 0.235154
7590.123535 5730.705566 4282.546875 0.018520 0.775011 -0.631676
7201.262207 5703.307617 4237.531250 0.018520 0.775011 -0.631676
7507.904297 5789.650879 4352.457031 0.018520 0.775011 -0.631676
7201.262207 5703.307617 4237.531250 -0.335764 -0.158380 0.928535
6951.004395 5463.647949 4106.157715 -0.335764 -0.158380 0.928535
7557.098633 5645.139648 4356.282227 -0.335764 -0.158380 0.928535
7590.123535 5730.705566 4282.546875 0.727710 0.264478 0.632842
7507.904297 5789.650879 4352.457031 0.727710 0.264478 0.632842
7557.098633 5645.139648 4356.282227 0.727710 0.264478 0.632842
7507.904297 5789.650879 4352.457031 -0.328104 -0.086794 0.940646
7201.262207 5703.307617 4237.531250 -0.328104 -0.086794 0.940646
7557.098633 5645.139648 4356.282227 -0.328104 -0.086794 0.940646
7544.045898 5251.767090 7333.452148 0.740674 -0.384535 -0.550940
7545.927246 5759.524902 6981.586426 0.740674 -0.384535 -0.550940
7598.814941 5668.107910 7116.493164 0.740674 -0.384535 -0.550940
7545.927246 5759.524902 6981.586426 -0.464503 0.248992 -0.849847
7045.800293 5533.290039 7188.658691 -0.464503 0.248992 -0.849847
7363.664551 5791.949219 7090.706055 -0.464503 0.248992 -0.849847
7545.927246 5759.524902 6981.586426 0.390399 0.825967 0.406652
7363.664551 5791.949219 7090.706055 0.390399 0.825967 0.406652
7598.814941 5668.107910 7116.493164 0.390399 0.825967 0.406652
7045.800293 5533.290039 7188.658691 -0.082530 -0.567433 -0.819273
7545.927246 5759.524902 6981.586426 -0.082530 -0.567433 -0.819273
7544.045898 5251.767090 7333.452148 -0.082530 -0.567433 -0.819273
7544.045898 5251.767090 7333.452148 0.915688 -0.273776 -0.294216
7598.814941 5668.107910 7116.493164 0.915688 -0.273776 -0.294216
7602.992188 5271.823242 7498.248047 0.915688 -0.273776 -0.294216
7598.814941 5668.107910 7116.493164 0.288487 0.686716 0.667230
7363.664551 5791.949219 7090.706055 0.288487 0.686716 0.667230
7350.749512 5281.607910 7621.535156 0.288487 0.686716 0.667230
7045.800293 5533.290039 7188.658691 -0.155197 -0.655015 -0.739506
7544.045898 5251.767090 7333.452148 -0.155197 -0.655015 -0.739506
6971.054688 5118.762695 7571.511230 -0.155197 -0.655015 -0.739506
7045.800293 5533.290039 7188.658691 -0.591956 0.789267 0.163238
6942.538086 5406.658203 7426.469238 -0.591956 0.789267 0.163238
7363.664551 5791.949219 7090.706055 -0.591956 0.789267 0.163238
6971.054688 5118.762695 7571.511230 -0.782893 -0.340034 -0.521013
6942.538086 5406.658203 7426.469238 -0.782893 -0.340034 -0.521013
7045.800293 5533.290039 7188.658691 -0.782893 -0.340034 -0.521013
6942.538086 5406.658203 7426.469238 -0.108635 0.717934 0.687582
7350.749512 5281.607910 7621.535156 -0.108635 0.717934 0.687582
7363.664551 5791.949219 7090.706055 -0.108635 0.717934 0.687582
7602.992188 5271.823242 7498.248047 0.353598 0.650891 0.671795
7598.814941 5668.107910 7116.493164 0.353598 0.650891 0.671795
7350.749512 5281.607910 7621.535156 0.353598 0.650891 0.671795
7544.045898 5251.767090 7333.452148 -0.011390 -0.861009 -0.508462
7413.615234 5045.181152 7686.197754 -0.011390 -0.861009 -0.508462
6971.054688 5118.762695 7571.511230 -0.011390 -0.861009 -0.508462
7602.992188 5271.823242 7498.248047 0.688151 -0.707702 -0.160017
7413.615234 5045.181152 7686.197754 0.688151 -0.707702 -0.160017
7544.045898 5251.767090 7333.452148 0.688151 -0.707702 -0.160017
7602.992188 5271.823242 7498.248047 0.423314 0.342011 0.838948
7350.749512 5281.607910 7621.535156 0.423314 0.342011 0.838948
7413.615234 5045.181152 7686.197754 0.423314 0.342011 0.838948
6971.054688 5118.762695 7571.511230 -0.031737 -0.892417 -0.450094
7413.615234 5045.181152 7686.197754 -0.031737 -0.892417 -0.450094
7052.408203 5060.481934 7681.330078 -0.031737 -0.892417 -0.450094
6971.054688 5118.762695 7571.511230 -0.703163 0.263134 0.660546
7052.408203 5060.481934 7681.330078 -0.703163 0.263134 0.660546
6942.538086 5406.658203 7426.469238 -0.703163 0.263134 0.660546
7350.749512 5281.607910 7621.535156 -0.228409 0.529150 0.817208
6942.538086 5406.658203 7426.469238 -0.228409 0.529150 0.817208
7052.408203 5060.481934 7681.330078 -0.228409 0.529150 0.817208
7052.408203 5060.481934 7681.330078 -0.001845 0.263354 0.964697
7413.615234 5045.181152 7686.197754 -0.001845 0.263354 0.964697
7350.749512 5281.607910 7621.535156 -0.001845 0.263354 0.964697
3 0 1 2
3 3 4 5
3 6 7 8
3 9 10 11
3 12 13 14
3 15 16 17
3 18 19 20
3 21 22 23
3 24 25 26
3 27 28 29
3 30 31 32
3 33 34 35
3 36 37 38
3 39 40 41
3 42 43 44
3 45 46 47
3 48 49 50
3 51 52 53
3 54 55 56
3 57 58 59
3 60 61 62
3 63 64 65
3 66 67 68
3 69 70 71
3 72 73 74
3 75 76 77
3 78 79 80
3 81 82 83
3 84 85 86
3 87 88 89
3 90 91 92
3 93 94 95
3 96 97 98
3 99 100 101
3 102 103 104
3 105 106 107
3 108 109 110
3 111 112 113
