ply
format ascii 1.0
comment Created by Blender 2.80 (sub 75) - www.blender.org, source file: 'downsample_ccf.blend'
element vertex 24
property float x
property float y
property float z
property float nx
property float ny
property float nz
element face 8
property list uchar uint vertex_indices
end_header
7824.120605 4548.040527 3165.452148 0.055887 0.330950 -0.941992
7531.616211 4402.858398 3097.091309 0.055887 0.330950 -0.941992
7557.968262 4615.344727 3173.307617 0.055887 0.330950 -0.941992
7531.616211 4402.858398 3097.091309 -0.055887 -0.330950 0.941992
7824.120605 4548.040527 3165.452148 -0.055887 -0.330950 0.941992
7557.968262 4615.344727 3173.307617 -0.055887 -0.330950 0.941992
7678.354492 4626.265625 8155.491699 -0.426486 0.174235 -0.887554
7505.971191 4480.634766 8209.736328 -0.426486 0.174235 -0.887554
7518.493164 4588.695801 8224.932617 -0.426486 0.174235 -0.887554
7678.354492 4626.265625 8155.491699 0.237207 -0.572988 -0.784486
7809.320312 4528.603027 8266.424805 0.237207 -0.572988 -0.784486
7505.971191 4480.634766 8209.736328 0.237207 -0.572988 -0.784486
7518.493164 4588.695801 8224.932617 0.077145 0.791747 0.605958
7809.320312 4528.603027 8266.424805 0.077145 0.791747 0.605958
7678.354492 4626.265625 8155.491699 0.077145 0.791747 0.605958
7505.971191 4480.634766 8209.736328 0.232660 -0.771467 -0.592206
7809.320312 4528.603027 8266.424805 0.232660 -0.771467 -0.592206
7560.583984 4420.741699 8309.214844 0.232660 -0.771467 -0.592206
7505.971191 4480.634766 8209.736328 -0.868190 0.030957 0.495266
7560.583984 4420.741699 8309.214844 -0.868190 0.030957 0.495266
7518.493164 4588.695801 8224.932617 -0.868190 0.030957 0.495266
7518.493164 4588.695801 8224.932617 -0.036869 0.440811 0.896842
7560.583984 4420.741699 8309.214844 -0.036869 0.440811 0.896842
7809.320312 4528.603027 8266.424805 -0.036869 0.440811 0.896842
3 0 1 2
3 3 4 5
3 6 7 8
3 9 10 11
3 12 13 14
3 15 16 17
3 18 19 20
3 21 22 23
