ply
format ascii 1.0
comment Created by Blender 2.80 (sub 75) - www.blender.org, source file: 'downsample_ccf.blend'
element vertex 132
property float x
property float y
property float z
property float nx
property float ny
property float nz
element face 44
property list uchar uint vertex_indices
end_header
8282.933594 6052.401367 5017.970215 0.399044 -0.554564 -0.730221
8230.157227 5633.334961 5307.388184 0.399044 -0.554564 -0.730221
7855.257812 6019.405273 4809.316895 0.399044 -0.554564 -0.730221
7855.257812 6019.405273 4809.316895 -0.875068 -0.038096 -0.482498
7710.990234 5710.426270 5095.359375 -0.875068 -0.038096 -0.482498
7618.148438 5869.060547 5251.213867 -0.875068 -0.038096 -0.482498
8230.157227 5633.334961 5307.388184 0.172624 -0.711342 -0.681317
7710.990234 5710.426270 5095.359375 0.172624 -0.711342 -0.681317
7855.257812 6019.405273 4809.316895 0.172624 -0.711342 -0.681317
7855.257812 6019.405273 4809.316895 0.265152 0.860488 0.435034
7618.148438 5869.060547 5251.213867 0.265152 0.860488 0.435034
7749.604492 5828.135742 5252.040039 0.265152 0.860488 0.435034
7749.604492 5828.135742 5252.040039 0.940004 -0.331367 0.081166
7703.447754 5701.559570 5269.834961 0.940004 -0.331367 0.081166
7855.257812 6019.405273 4809.316895 0.940004 -0.331367 0.081166
7710.990234 5710.426270 5095.359375 -0.005514 -0.944053 -0.329746
8230.157227 5633.334961 5307.388184 -0.005514 -0.944053 -0.329746
8056.388672 5424.898438 5907.041016 -0.005514 -0.944053 -0.329746
7703.447754 5701.559570 5269.834961 -0.539080 -0.839667 -0.065975
7710.990234 5710.426270 5095.359375 -0.539080 -0.839667 -0.065975
8056.388672 5424.898438 5907.041016 -0.539080 -0.839667 -0.065975
7749.604492 5828.135742 5252.040039 0.739081 -0.613300 0.278606
7663.970215 5751.505859 5310.522461 0.739081 -0.613300 0.278606
7710.990234 5710.426270 5095.359375 0.739081 -0.613300 0.278606
7703.447754 5701.559570 5269.834961 -0.940282 0.339591 -0.023390
7749.604492 5828.135742 5252.040039 -0.940282 0.339591 -0.023390
7710.990234 5710.426270 5095.359375 -0.940282 0.339591 -0.023390
7618.148438 5869.060547 5251.213867 -0.903392 -0.412046 -0.118751
7710.990234 5710.426270 5095.359375 -0.903392 -0.412046 -0.118751
7663.970215 5751.505859 5310.522461 -0.903392 -0.412046 -0.118751
8282.933594 6052.401367 5017.970215 -0.295575 0.829010 0.474740
7855.257812 6019.405273 4809.316895 -0.295575 0.829010 0.474740
7703.447754 5701.559570 5269.834961 -0.295575 0.829010 0.474740
7703.447754 5701.559570 5269.834961 0.041929 0.650741 -0.758141
7663.970215 5751.505859 5310.522461 0.041929 0.650741 -0.758141
7772.262695 5814.909180 5370.933105 0.041929 0.650741 -0.758141
7663.970215 5751.505859 5310.522461 0.575135 -0.793758 -0.197911
7749.604492 5828.135742 5252.040039 0.575135 -0.793758 -0.197911
7772.262695 5814.909180 5370.933105 0.575135 -0.793758 -0.197911
7772.262695 5814.909180 5370.933105 0.296598 0.953715 0.049574
7749.604492 5828.135742 5252.040039 0.296598 0.953715 0.049574
7618.148438 5869.060547 5251.213867 0.296598 0.953715 0.049574
7703.447754 5701.559570 5269.834961 0.664357 0.230736 -0.710909
7772.262695 5814.909180 5370.933105 0.664357 0.230736 -0.710909
8245.183594 5695.567383 5774.151855 0.664357 0.230736 -0.710909
8282.933594 6052.401367 5017.970215 -0.349454 0.853961 0.385529
7703.447754 5701.559570 5269.834961 -0.349454 0.853961 0.385529
8245.183594 5695.567383 5774.151855 -0.349454 0.853961 0.385529
7663.970215 5751.505859 5310.522461 -0.924766 -0.378798 -0.036337
7620.333496 5781.531738 6108.050293 -0.924766 -0.378798 -0.036337
7618.148438 5869.060547 5251.213867 -0.924766 -0.378798 -0.036337
7602.397461 6169.057129 5686.405273 0.584608 0.677716 -0.446021
7772.262695 5814.909180 5370.933105 0.584608 0.677716 -0.446021
7618.148438 5869.060547 5251.213867 0.584608 0.677716 -0.446021
8230.157227 5633.334961 5307.388184 0.990824 -0.134433 -0.013974
8282.933594 6052.401367 5017.970215 0.990824 -0.134433 -0.013974
8245.183594 5695.567383 5774.151855 0.990824 -0.134433 -0.013974
7620.333496 5781.531738 6108.050293 -0.998801 -0.048891 -0.002447
7602.397461 6169.057129 5686.405273 -0.998801 -0.048891 -0.002447
7618.148438 5869.060547 5251.213867 -0.998801 -0.048891 -0.002447
8245.183594 5695.567383 5774.151855 0.220781 0.974874 0.029590
7772.262695 5814.909180 5370.933105 0.220781 0.974874 0.029590
7782.836914 5791.684082 6057.219727 0.220781 0.974874 0.029590
7620.333496 5781.531738 6108.050293 -0.792384 -0.609681 -0.020402
7663.970215 5751.505859 5310.522461 -0.792384 -0.609681 -0.020402
7703.447754 5701.559570 5269.834961 -0.792384 -0.609681 -0.020402
7782.836914 5791.684082 6057.219727 0.901898 0.431948 0.000722
7772.262695 5814.909180 5370.933105 0.901898 0.431948 0.000722
7602.397461 6169.057129 5686.405273 0.901898 0.431948 0.000722
8056.388672 5424.898438 5907.041016 -0.580698 -0.813507 -0.031565
7717.880371 5659.877930 6078.556641 -0.580698 -0.813507 -0.031565
7703.447754 5701.559570 5269.834961 -0.580698 -0.813507 -0.031565
7717.880371 5659.877930 6078.556641 -0.782181 -0.622787 -0.018140
7620.333496 5781.531738 6108.050293 -0.782181 -0.622787 -0.018140
7703.447754 5701.559570 5269.834961 -0.782181 -0.622787 -0.018140
7620.333496 5781.531738 6108.050293 -0.974342 0.143534 0.173366
7648.814941 5842.682617 6217.491699 -0.974342 0.143534 0.173366
7602.397461 6169.057129 5686.405273 -0.974342 0.143534 0.173366
7602.397461 6169.057129 5686.405273 0.828787 0.540087 0.146349
7729.613770 5853.703125 6129.751953 0.828787 0.540087 0.146349
7782.836914 5791.684082 6057.219727 0.828787 0.540087 0.146349
7729.613770 5853.703125 6129.751953 0.387931 0.799998 0.457726
7602.397461 6169.057129 5686.405273 0.387931 0.799998 0.457726
7648.814941 5842.682617 6217.491699 0.387931 0.799998 0.457726
8056.388672 5424.898438 5907.041016 0.906869 -0.403167 0.122655
8230.157227 5633.334961 5307.388184 0.906869 -0.403167 0.122655
8274.180664 6052.641602 6360.153320 0.906869 -0.403167 0.122655
7717.880371 5659.877930 6078.556641 0.502503 -0.108797 0.857702
8245.183594 5695.567383 5774.151855 0.502503 -0.108797 0.857702
7782.836914 5791.684082 6057.219727 0.502503 -0.108797 0.857702
8230.157227 5633.334961 5307.388184 -0.998968 0.036286 0.027322
8245.183594 5695.567383 5774.151855 -0.998968 0.036286 0.027322
8274.180664 6052.641602 6360.153320 -0.998968 0.036286 0.027322
7717.880371 5659.877930 6078.556641 0.298091 0.007612 0.954507
7782.836914 5791.684082 6057.219727 0.298091 0.007612 0.954507
7620.333496 5781.531738 6108.050293 0.298091 0.007612 0.954507
7782.836914 5791.684082 6057.219727 0.268132 -0.626153 0.732146
7729.613770 5853.703125 6129.751953 0.268132 -0.626153 0.732146
7620.333496 5781.531738 6108.050293 0.268132 -0.626153 0.732146
8274.180664 6052.641602 6360.153320 -0.331487 0.812871 -0.478912
8245.183594 5695.567383 5774.151855 -0.331487 0.812871 -0.478912
7717.880371 5659.877930 6078.556641 -0.331487 0.812871 -0.478912
7717.880371 5659.877930 6078.556641 -0.997253 0.068080 -0.029191
7714.742188 5686.944824 6248.895020 -0.997253 0.068080 -0.029191
7729.613770 5853.703125 6129.751953 -0.997253 0.068080 -0.029191
7714.742188 5686.944824 6248.895020 0.490110 -0.535242 -0.687974
7620.333496 5781.531738 6108.050293 0.490110 -0.535242 -0.687974
7729.613770 5853.703125 6129.751953 0.490110 -0.535242 -0.687974
7717.880371 5659.877930 6078.556641 -0.522500 -0.843514 0.124409
8056.388672 5424.898438 5907.041016 -0.522500 -0.843514 0.124409
7714.742188 5686.944824 6248.895020 -0.522500 -0.843514 0.124409
7717.880371 5659.877930 6078.556641 0.731696 -0.215132 0.646791
7729.613770 5853.703125 6129.751953 0.731696 -0.215132 0.646791
7648.814941 5842.682617 6217.491699 0.731696 -0.215132 0.646791
7648.814941 5842.682617 6217.491699 -0.873563 -0.291153 0.390023
7620.333496 5781.531738 6108.050293 -0.873563 -0.291153 0.390023
7714.742188 5686.944824 6248.895020 -0.873563 -0.291153 0.390023
7717.880371 5659.877930 6078.556641 -0.019186 0.600377 -0.799487
7648.814941 5842.682617 6217.491699 -0.019186 0.600377 -0.799487
8274.180664 6052.641602 6360.153320 -0.019186 0.600377 -0.799487
7714.742188 5686.944824 6248.895020 0.113378 -0.730589 0.673338
8056.388672 5424.898438 5907.041016 0.113378 -0.730589 0.673338
7865.634277 6018.843750 6583.606445 0.113378 -0.730589 0.673338
7714.742188 5686.944824 6248.895020 -0.789801 -0.218797 0.573011
7865.634277 6018.843750 6583.606445 -0.789801 -0.218797 0.573011
7648.814941 5842.682617 6217.491699 -0.789801 -0.218797 0.573011
7865.634277 6018.843750 6583.606445 -0.241048 0.922601 -0.301170
8274.180664 6052.641602 6360.153320 -0.241048 0.922601 -0.301170
7648.814941 5842.682617 6217.491699 -0.241048 0.922601 -0.301170
7865.634277 6018.843750 6583.606445 0.414470 -0.622786 0.663591
8056.388672 5424.898438 5907.041016 0.414470 -0.622786 0.663591
8274.180664 6052.641602 6360.153320 0.414470 -0.622786 0.663591
3 0 1 2
3 3 4 5
3 6 7 8
3 9 10 11
3 12 13 14
3 15 16 17
3 18 19 20
3 21 22 23
3 24 25 26
3 27 28 29
3 30 31 32
3 33 34 35
3 36 37 38
3 39 40 41
3 42 43 44
3 45 46 47
3 48 49 50
3 51 52 53
3 54 55 56
3 57 58 59
3 60 61 62
3 63 64 65
3 66 67 68
3 69 70 71
3 72 73 74
3 75 76 77
3 78 79 80
3 81 82 83
3 84 85 86
3 87 88 89
3 90 91 92
3 93 94 95
3 96 97 98
3 99 100 101
3 102 103 104
3 105 106 107
3 108 109 110
3 111 112 113
3 114 115 116
3 117 118 119
3 120 121 122
3 123 124 125
3 126 127 128
3 129 130 131
