ply
format ascii 1.0
comment Created by Blender 2.80 (sub 75) - www.blender.org, source file: 'downsample_ccf.blend'
element vertex 120
property float x
property float y
property float z
property float nx
property float ny
property float nz
element face 40
property list uchar uint vertex_indices
end_header
10150.821289 5001.187988 3816.325195 0.019687 0.539144 -0.841984
9820.081055 4933.032715 3764.950439 0.019687 0.539144 -0.841984
9695.359375 5087.821777 3861.149658 0.019687 0.539144 -0.841984
10250.907227 4732.140137 3888.122070 0.188335 -0.187214 -0.964096
9820.081055 4933.032715 3764.950439 0.188335 -0.187214 -0.964096
10150.821289 5001.187988 3816.325195 0.188335 -0.187214 -0.964096
10150.821289 5001.187988 3816.325195 0.183044 0.982343 -0.038695
9695.359375 5087.821777 3861.149658 0.183044 0.982343 -0.038695
9769.575195 5088.854004 4238.423340 0.183044 0.982343 -0.038695
10455.122070 4885.683594 4027.186523 0.567303 -0.008709 -0.823463
10250.907227 4732.140137 3888.122070 0.567303 -0.008709 -0.823463
10150.821289 5001.187988 3816.325195 0.567303 -0.008709 -0.823463
10455.122070 4885.683594 4027.186523 0.703749 -0.411407 -0.579208
10422.693359 4677.420898 4135.712402 0.703749 -0.411407 -0.579208
10250.907227 4732.140137 3888.122070 0.703749 -0.411407 -0.579208
9753.024414 4785.335449 4227.705566 -0.824994 -0.492710 -0.276806
9695.359375 5087.821777 3861.149658 -0.824994 -0.492710 -0.276806
9820.081055 4933.032715 3764.950439 -0.824994 -0.492710 -0.276806
9820.081055 4933.032715 3764.950439 -0.319864 -0.888198 -0.329836
10250.907227 4732.140137 3888.122070 -0.319864 -0.888198 -0.329836
9753.024414 4785.335449 4227.705566 -0.319864 -0.888198 -0.329836
10157.046875 4650.467285 4359.965820 -0.052713 -0.982163 -0.180491
10250.907227 4732.140137 3888.122070 -0.052713 -0.982163 -0.180491
10422.693359 4677.420898 4135.712402 -0.052713 -0.982163 -0.180491
10250.907227 4732.140137 3888.122070 -0.246062 -0.945643 -0.212632
10157.046875 4650.467285 4359.965820 -0.246062 -0.945643 -0.212632
9753.024414 4785.335449 4227.705566 -0.246062 -0.945643 -0.212632
10455.122070 4885.683594 4027.186523 0.308073 0.948408 0.074924
10150.821289 5001.187988 3816.325195 0.308073 0.948408 0.074924
10383.455078 4873.829102 4471.925781 0.308073 0.948408 0.074924
9753.024414 4785.335449 4227.705566 -0.980152 0.046643 0.192684
9769.575195 5088.854004 4238.423340 -0.980152 0.046643 0.192684
9695.359375 5087.821777 3861.149658 -0.980152 0.046643 0.192684
10098.635742 4895.130371 4519.027832 0.391566 0.905110 0.165686
10150.821289 5001.187988 3816.325195 0.391566 0.905110 0.165686
9769.575195 5088.854004 4238.423340 0.391566 0.905110 0.165686
10150.821289 5001.187988 3816.325195 0.099252 0.982805 0.155704
10098.635742 4895.130371 4519.027832 0.099252 0.982805 0.155704
10383.455078 4873.829102 4471.925781 0.099252 0.982805 0.155704
10422.693359 4677.420898 4135.712402 0.985024 -0.071659 0.156820
10455.122070 4885.683594 4027.186523 0.985024 -0.071659 0.156820
10383.455078 4873.829102 4471.925781 0.985024 -0.071659 0.156820
9753.024414 4785.335449 4227.705566 -0.416238 -0.765052 0.491367
10157.046875 4650.467285 4359.965820 -0.416238 -0.765052 0.491367
10213.506836 4752.676270 4566.931152 -0.416238 -0.765052 0.491367
10157.046875 4650.467285 4359.965820 0.366570 -0.870029 0.329660
10422.693359 4677.420898 4135.712402 0.366570 -0.870029 0.329660
10213.506836 4752.676270 4566.931152 0.366570 -0.870029 0.329660
10383.455078 4873.829102 4471.925781 0.671016 -0.603432 0.430823
10213.506836 4752.676270 4566.931152 0.671016 -0.603432 0.430823
10422.693359 4677.420898 4135.712402 0.671016 -0.603432 0.430823
9753.024414 4785.335449 4227.705566 -0.592928 0.003898 0.805246
10213.506836 4752.676270 4566.931152 -0.592928 0.003898 0.805246
9769.575195 5088.854004 4238.423340 -0.592928 0.003898 0.805246
10098.635742 4895.130371 4519.027832 -0.719535 -0.386108 0.577226
9769.575195 5088.854004 4238.423340 -0.719535 -0.386108 0.577226
10213.506836 4752.676270 4566.931152 -0.719535 -0.386108 0.577226
10213.506836 4752.676270 4566.931152 0.178453 0.439870 0.880153
10383.455078 4873.829102 4471.925781 0.178453 0.439870 0.880153
10098.635742 4895.130371 4519.027832 0.178453 0.439870 0.880153
9968.441406 4774.439453 6905.955566 -0.064382 -0.624043 -0.778733
10308.080078 4851.300293 6816.282715 -0.064382 -0.624043 -0.778733
10329.817383 4651.039551 6974.965820 -0.064382 -0.624043 -0.778733
9968.441406 4774.439453 6905.955566 -0.313057 0.356193 -0.880410
9782.668945 5064.212891 7089.248047 -0.313057 0.356193 -0.880410
10308.080078 4851.300293 6816.282715 -0.313057 0.356193 -0.880410
10308.080078 4851.300293 6816.282715 0.425563 0.897008 0.119470
9782.668945 5064.212891 7089.248047 0.425563 0.897008 0.119470
10126.205078 4899.029785 7105.773926 0.425563 0.897008 0.119470
10308.080078 4851.300293 6816.282715 0.882331 -0.229709 -0.410763
10494.862305 4852.546875 7216.799316 0.882331 -0.229709 -0.410763
10329.817383 4651.039551 6974.965820 0.882331 -0.229709 -0.410763
10329.817383 4651.039551 6974.965820 -0.283066 -0.938780 -0.196380
9769.090820 4770.479492 7212.233398 -0.283066 -0.938780 -0.196380
9968.441406 4774.439453 6905.955566 -0.283066 -0.938780 -0.196380
9769.090820 4770.479492 7212.233398 -0.822202 -0.187074 -0.537575
9782.668945 5064.212891 7089.248047 -0.822202 -0.187074 -0.537575
9968.441406 4774.439453 6905.955566 -0.822202 -0.187074 -0.537575
10308.080078 4851.300293 6816.282715 0.145822 0.986754 -0.071076
10126.205078 4899.029785 7105.773926 0.145822 0.986754 -0.071076
10494.862305 4852.546875 7216.799316 0.145822 0.986754 -0.071076
10329.817383 4651.039551 6974.965820 -0.148169 -0.978644 0.142483
10309.632812 4726.008301 7468.896973 -0.148169 -0.978644 0.142483
9769.090820 4770.479492 7212.233398 -0.148169 -0.978644 0.142483
10329.817383 4651.039551 6974.965820 0.679244 -0.720977 0.137187
10494.862305 4852.546875 7216.799316 0.679244 -0.720977 0.137187
10309.632812 4726.008301 7468.896973 0.679244 -0.720977 0.137187
9769.090820 4770.479492 7212.233398 -0.995992 0.008771 -0.089014
9738.022461 5047.130371 7587.124023 -0.995992 0.008771 -0.089014
9782.668945 5064.212891 7089.248047 -0.995992 0.008771 -0.089014
9782.668945 5064.212891 7089.248047 -0.994918 0.049795 -0.087510
9738.022461 5047.130371 7587.124023 -0.994918 0.049795 -0.087510
9754.472656 5134.527832 7449.828613 -0.994918 0.049795 -0.087510
9782.668945 5064.212891 7089.248047 0.434545 0.889776 -0.139531
9754.472656 5134.527832 7449.828613 0.434545 0.889776 -0.139531
10126.205078 4899.029785 7105.773926 0.434545 0.889776 -0.139531
10126.205078 4899.029785 7105.773926 0.347504 0.905319 -0.244212
9754.472656 5134.527832 7449.828613 0.347504 0.905319 -0.244212
10148.660156 5014.715820 7566.585938 0.347504 0.905319 -0.244212
9769.090820 4770.479492 7212.233398 -0.783974 -0.528776 0.325240
9844.281250 4882.384277 7575.410645 -0.783974 -0.528776 0.325240
9738.022461 5047.130371 7587.124023 -0.783974 -0.528776 0.325240
10126.205078 4899.029785 7105.773926 0.194287 0.949143 -0.247748
10148.660156 5014.715820 7566.585938 0.194287 0.949143 -0.247748
10494.862305 4852.546875 7216.799316 0.194287 0.949143 -0.247748
9769.090820 4770.479492 7212.233398 -0.231963 -0.915046 0.329975
10309.632812 4726.008301 7468.896973 -0.231963 -0.915046 0.329975
9844.281250 4882.384277 7575.410645 -0.231963 -0.915046 0.329975
10494.862305 4852.546875 7216.799316 0.740847 0.195653 0.642546
10148.660156 5014.715820 7566.585938 0.740847 0.195653 0.642546
10309.632812 4726.008301 7468.896973 0.740847 0.195653 0.642546
9738.022461 5047.130371 7587.124023 0.093037 0.834838 0.542576
10148.660156 5014.715820 7566.585938 0.093037 0.834838 0.542576
9754.472656 5134.527832 7449.828613 0.093037 0.834838 0.542576
9844.281250 4882.384277 7575.410645 0.135929 -0.248702 0.958994
10309.632812 4726.008301 7468.896973 0.135929 -0.248702 0.958994
10148.660156 5014.715820 7566.585938 0.135929 -0.248702 0.958994
9844.281250 4882.384277 7575.410645 0.046695 -0.040845 0.998074
10148.660156 5014.715820 7566.585938 0.046695 -0.040845 0.998074
9738.022461 5047.130371 7587.124023 0.046695 -0.040845 0.998074
3 0 1 2
3 3 4 5
3 6 7 8
3 9 10 11
3 12 13 14
3 15 16 17
3 18 19 20
3 21 22 23
3 24 25 26
3 27 28 29
3 30 31 32
3 33 34 35
3 36 37 38
3 39 40 41
3 42 43 44
3 45 46 47
3 48 49 50
3 51 52 53
3 54 55 56
3 57 58 59
3 60 61 62
3 63 64 65
3 66 67 68
3 69 70 71
3 72 73 74
3 75 76 77
3 78 79 80
3 81 82 83
3 84 85 86
3 87 88 89
3 90 91 92
3 93 94 95
3 96 97 98
3 99 100 101
3 102 103 104
3 105 106 107
3 108 109 110
3 111 112 113
3 114 115 116
3 117 118 119
