ply
format ascii 1.0
comment Created by Blender 2.80 (sub 75) - www.blender.org, source file: 'downsample_ccf.blend'
element vertex 228
property float x
property float y
property float z
property float nx
property float ny
property float nz
element face 76
property list uchar uint vertex_indices
end_header
10009.223633 7040.444336 4091.114502 0.065722 0.929296 -0.363441
10175.178711 7217.355469 4573.475586 0.065722 0.929296 -0.363441
10290.988281 7041.096191 4143.733398 0.065722 0.929296 -0.363441
10175.178711 7217.355469 4573.475586 -0.040255 0.942485 -0.331817
10009.223633 7040.444336 4091.114502 -0.040255 0.942485 -0.331817
9686.434570 7146.655762 4431.954590 -0.040255 0.942485 -0.331817
10290.988281 7041.096191 4143.733398 -0.369027 -0.821992 0.433760
10412.041016 7097.940430 4354.442871 -0.369027 -0.821992 0.433760
10196.518555 7063.748535 4106.289062 -0.369027 -0.821992 0.433760
9686.434570 7146.655762 4431.954590 0.085245 -0.925464 0.369120
10009.223633 7040.444336 4091.114502 0.085245 -0.925464 0.369120
10196.518555 7063.748535 4106.289062 0.085245 -0.925464 0.369120
10364.456055 7062.319824 4404.180664 0.500509 0.839967 -0.209633
10290.988281 7041.096191 4143.733398 0.500509 0.839967 -0.209633
10175.178711 7217.355469 4573.475586 0.500509 0.839967 -0.209633
10196.518555 7063.748535 4106.289062 -0.010907 -0.989257 0.145778
10412.041016 7097.940430 4354.442871 -0.010907 -0.989257 0.145778
10269.036133 7140.334961 4631.435547 -0.010907 -0.989257 0.145778
9686.434570 7146.655762 4431.954590 -0.110073 -0.990714 0.079809
10196.518555 7063.748535 4106.289062 -0.110073 -0.990714 0.079809
10160.845703 7110.680176 4639.680176 -0.110073 -0.990714 0.079809
10160.845703 7110.680176 4639.680176 -0.129261 -0.983721 0.124842
9670.841797 7157.447754 4500.847656 -0.129261 -0.983721 0.124842
9686.434570 7146.655762 4431.954590 -0.129261 -0.983721 0.124842
10196.518555 7063.748535 4106.289062 0.270205 -0.957352 0.102306
10269.036133 7140.334961 4631.435547 0.270205 -0.957352 0.102306
10160.845703 7110.680176 4639.680176 0.270205 -0.957352 0.102306
10364.456055 7062.319824 4404.180664 0.762648 0.312972 0.566055
10175.178711 7217.355469 4573.475586 0.762648 0.312972 0.566055
10210.191406 7153.022461 4561.872559 0.762648 0.312972 0.566055
9686.434570 7146.655762 4431.954590 -0.142847 0.989744 -0.001123
9502.161133 7120.566406 4878.300781 -0.142847 0.989744 -0.001123
10175.178711 7217.355469 4573.475586 -0.142847 0.989744 -0.001123
9670.841797 7157.447754 4500.847656 -0.059576 -0.990565 -0.123413
10160.845703 7110.680176 4639.680176 -0.059576 -0.990565 -0.123413
9502.161133 7120.566406 4878.300781 -0.059576 -0.990565 -0.123413
10210.191406 7153.022461 4561.872559 0.429705 0.897845 -0.096065
10323.607422 7147.391602 5016.561523 0.429705 0.897845 -0.096065
10364.456055 7062.319824 4404.180664 0.429705 0.897845 -0.096065
10210.191406 7153.022461 4561.872559 0.476118 0.872730 -0.107953
10216.442383 7169.821777 4725.252930 0.476118 0.872730 -0.107953
10323.607422 7147.391602 5016.561523 0.476118 0.872730 -0.107953
10160.845703 7110.680176 4639.680176 -0.073274 -0.984150 -0.161490
9702.924805 7062.639160 5140.227051 -0.073274 -0.984150 -0.161490
9502.161133 7120.566406 4878.300781 -0.073274 -0.984150 -0.161490
9702.924805 7062.639160 5140.227051 0.427362 -0.849476 0.309438
10160.845703 7110.680176 4639.680176 0.427362 -0.849476 0.309438
10216.442383 7169.821777 4725.252930 0.427362 -0.849476 0.309438
10216.442383 7169.821777 4725.252930 -0.553313 0.654087 -0.515766
10269.036133 7140.334961 4631.435547 -0.553313 0.654087 -0.515766
9702.924805 7062.639160 5140.227051 -0.553313 0.654087 -0.515766
10269.036133 7140.334961 4631.435547 0.135098 -0.990832 -0.000988
10323.607422 7147.391602 5016.561523 0.135098 -0.990832 -0.000988
9702.924805 7062.639160 5140.227051 0.135098 -0.990832 -0.000988
10216.442383 7169.821777 4725.252930 0.157968 0.953750 0.255749
10175.178711 7217.355469 4573.475586 0.157968 0.953750 0.255749
9808.168945 7141.798340 5081.936035 0.157968 0.953750 0.255749
10216.442383 7169.821777 4725.252930 -0.001034 0.997019 0.077149
9808.168945 7141.798340 5081.936035 -0.001034 0.997019 0.077149
10323.607422 7147.391602 5016.561523 -0.001034 0.997019 0.077149
10175.178711 7217.355469 4573.475586 -0.112697 0.991436 0.065982
9502.161133 7120.566406 4878.300781 -0.112697 0.991436 0.065982
9808.168945 7141.798340 5081.936035 -0.112697 0.991436 0.065982
9808.168945 7141.798340 5081.936035 0.103919 0.496459 0.861817
9702.924805 7062.639160 5140.227051 0.103919 0.496459 0.861817
10323.607422 7147.391602 5016.561523 0.103919 0.496459 0.861817
10038.351562 6667.357422 4883.766602 -0.121099 -0.987395 -0.101915
10032.978516 6570.128418 5832.142578 -0.121099 -0.987395 -0.101915
9922.595703 6634.936523 5335.417480 -0.121099 -0.987395 -0.101915
9922.595703 6634.936523 5335.417480 -0.509563 0.857660 -0.069033
10304.982422 6847.205078 5150.060547 -0.509563 0.857660 -0.069033
10038.351562 6667.357422 4883.766602 -0.509563 0.857660 -0.069033
10144.840820 7116.861328 5567.081055 0.434902 -0.831945 -0.344568
9702.924805 7062.639160 5140.227051 0.434902 -0.831945 -0.344568
9808.168945 7141.798340 5081.936035 0.434902 -0.831945 -0.344568
10304.982422 6847.205078 5150.060547 0.609519 -0.788981 -0.077434
10032.978516 6570.128418 5832.142578 0.609519 -0.788981 -0.077434
10038.351562 6667.357422 4883.766602 0.609519 -0.788981 -0.077434
9808.168945 7141.798340 5081.936035 -0.185962 0.966168 0.178712
9502.161133 7120.566406 4878.300781 -0.185962 0.966168 0.178712
10144.840820 7116.861328 5567.081055 -0.185962 0.966168 0.178712
10304.982422 6847.205078 5150.060547 -0.502191 0.163090 -0.849238
9922.595703 6634.936523 5335.417480 -0.502191 0.163090 -0.849238
9797.560547 6798.534180 5440.773926 -0.502191 0.163090 -0.849238
9702.924805 7062.639160 5140.227051 0.187183 -0.919094 -0.346739
9484.376953 6854.594238 5573.707520 0.187183 -0.919094 -0.346739
9502.161133 7120.566406 4878.300781 0.187183 -0.919094 -0.346739
10304.982422 6847.205078 5150.060547 -0.410149 0.685941 -0.601050
9797.560547 6798.534180 5440.773926 -0.410149 0.685941 -0.601050
10144.840820 7116.861328 5567.081055 -0.410149 0.685941 -0.601050
9484.376953 6854.594238 5573.707520 -0.366679 -0.753065 -0.546295
9702.924805 7062.639160 5140.227051 -0.366679 -0.753065 -0.546295
9797.560547 6798.534180 5440.773926 -0.366679 -0.753065 -0.546295
10144.840820 7116.861328 5567.081055 0.644860 -0.461894 -0.608941
9797.560547 6798.534180 5440.773926 0.644860 -0.461894 -0.608941
9702.924805 7062.639160 5140.227051 0.644860 -0.461894 -0.608941
9484.376953 6854.594238 5573.707520 -0.946633 0.308382 0.093738
9562.153320 7048.390625 5721.590820 -0.946633 0.308382 0.093738
9502.161133 7120.566406 4878.300781 -0.946633 0.308382 0.093738
10144.840820 7116.861328 5567.081055 -0.092269 0.991528 0.091427
9502.161133 7120.566406 4878.300781 -0.092269 0.991528 0.091427
9562.153320 7048.390625 5721.590820 -0.092269 0.991528 0.091427
10144.840820 7116.861328 5567.081055 -0.119398 0.992793 -0.010318
9562.153320 7048.390625 5721.590820 -0.119398 0.992793 -0.010318
10258.241211 7132.368652 5746.942383 -0.119398 0.992793 -0.010318
10032.978516 6570.128418 5832.142578 -0.763950 -0.639474 0.086333
9797.560547 6798.534180 5440.773926 -0.763950 -0.639474 0.086333
9922.595703 6634.936523 5335.417480 -0.763950 -0.639474 0.086333
9797.560547 6798.534180 5440.773926 -0.302916 -0.891121 -0.337854
10032.978516 6570.128418 5832.142578 -0.302916 -0.891121 -0.337854
9484.376953 6854.594238 5573.707520 -0.302916 -0.891121 -0.337854
10304.982422 6847.205078 5150.060547 0.697107 -0.716846 -0.013203
10200.101562 6721.633301 6430.281250 0.697107 -0.716846 -0.013203
10032.978516 6570.128418 5832.142578 0.697107 -0.716846 -0.013203
10304.982422 6847.205078 5150.060547 0.451945 0.818153 -0.355486
10144.840820 7116.861328 5567.081055 0.451945 0.818153 -0.355486
10258.241211 7132.368652 5746.942383 0.451945 0.818153 -0.355486
10032.978516 6570.128418 5832.142578 -0.573693 -0.594969 0.562928
9858.376953 6826.438477 5925.101074 -0.573693 -0.594969 0.562928
9484.376953 6854.594238 5573.707520 -0.573693 -0.594969 0.562928
10258.241211 7132.368652 5746.942383 0.996917 -0.000819 0.078459
10225.253906 6906.245605 6163.724609 0.996917 -0.000819 0.078459
10304.982422 6847.205078 5150.060547 0.996917 -0.000819 0.078459
9484.376953 6854.594238 5573.707520 -0.887399 0.445783 -0.117474
9481.501953 7115.436035 6585.251465 -0.887399 0.445783 -0.117474
9562.153320 7048.390625 5721.590820 -0.887399 0.445783 -0.117474
9484.376953 6854.594238 5573.707520 -0.293263 -0.925950 0.237937
9858.376953 6826.438477 5925.101074 -0.293263 -0.925950 0.237937
9481.501953 7115.436035 6585.251465 -0.293263 -0.925950 0.237937
10200.101562 6721.633301 6430.281250 0.996609 -0.020848 0.079601
10304.982422 6847.205078 5150.060547 0.996609 -0.020848 0.079601
10225.253906 6906.245605 6163.724609 0.996609 -0.020848 0.079601
9858.376953 6826.438477 5925.101074 -0.436595 0.804805 0.402087
10225.253906 6906.245605 6163.724609 -0.436595 0.804805 0.402087
10258.241211 7132.368652 5746.942383 -0.436595 0.804805 0.402087
9858.376953 6826.438477 5925.101074 0.636586 -0.480982 0.602839
10258.241211 7132.368652 5746.942383 0.636586 -0.480982 0.602839
9695.430664 7082.282715 6301.296875 0.636586 -0.480982 0.602839
10258.241211 7132.368652 5746.942383 -0.118614 0.992464 -0.030754
9562.153320 7048.390625 5721.590820 -0.118614 0.992464 -0.030754
9695.430664 7082.282715 6301.296875 -0.118614 0.992464 -0.030754
10032.978516 6570.128418 5832.142578 -0.830843 -0.555798 -0.028077
9958.155273 6652.650879 6412.703613 -0.830843 -0.555798 -0.028077
9858.376953 6826.438477 5925.101074 -0.830843 -0.555798 -0.028077
9695.430664 7082.282715 6301.296875 0.707956 -0.402470 0.580358
9481.501953 7115.436035 6585.251465 0.707956 -0.402470 0.580358
9858.376953 6826.438477 5925.101074 0.707956 -0.402470 0.580358
9958.155273 6652.650879 6412.703613 -0.279380 0.884949 0.372576
10200.101562 6721.633301 6430.281250 -0.279380 0.884949 0.372576
9858.376953 6826.438477 5925.101074 -0.279380 0.884949 0.372576
9858.376953 6826.438477 5925.101074 -0.469492 0.745969 0.472343
10200.101562 6721.633301 6430.281250 -0.469492 0.745969 0.472343
10225.253906 6906.245605 6163.724609 -0.469492 0.745969 0.472343
9695.430664 7082.282715 6301.296875 0.116238 -0.992728 0.031315
9562.153320 7048.390625 5721.590820 0.116238 -0.992728 0.031315
10151.819336 7136.713379 6332.757324 0.116238 -0.992728 0.031315
10032.978516 6570.128418 5832.142578 0.258920 -0.951077 0.168558
10200.101562 6721.633301 6430.281250 0.258920 -0.951077 0.168558
9958.155273 6652.650879 6412.703613 0.258920 -0.951077 0.168558
9695.430664 7082.282715 6301.296875 0.121214 -0.991711 -0.042629
10151.819336 7136.713379 6332.757324 0.121214 -0.991711 -0.042629
10271.944336 7136.692871 6674.804199 0.121214 -0.991711 -0.042629
10151.819336 7136.713379 6332.757324 -0.004478 0.990311 -0.138794
9562.153320 7048.390625 5721.590820 -0.004478 0.990311 -0.138794
9944.094727 7221.891113 6947.212402 -0.004478 0.990311 -0.138794
10271.944336 7136.692871 6674.804199 -0.517700 -0.209297 0.829567
10265.632812 7158.455078 6676.355957 -0.517700 -0.209297 0.829567
9695.430664 7082.282715 6301.296875 -0.517700 -0.209297 0.829567
10151.819336 7136.713379 6332.757324 0.204894 0.976140 -0.071899
10170.979492 7154.975098 6635.289551 0.204894 0.976140 -0.071899
10271.944336 7136.692871 6674.804199 0.204894 0.976140 -0.071899
9944.094727 7221.891113 6947.212402 -0.155275 0.983684 -0.090863
9562.153320 7048.390625 5721.590820 -0.155275 0.983684 -0.090863
9481.501953 7115.436035 6585.251465 -0.155275 0.983684 -0.090863
9695.430664 7082.282715 6301.296875 0.045767 -0.987657 0.149795
10170.979492 7154.975098 6635.289551 0.045767 -0.987657 0.149795
9481.501953 7115.436035 6585.251465 0.045767 -0.987657 0.149795
10265.632812 7158.455078 6676.355957 -0.137150 -0.909184 0.393159
10170.979492 7154.975098 6635.289551 -0.137150 -0.909184 0.393159
9695.430664 7082.282715 6301.296875 -0.137150 -0.909184 0.393159
10151.819336 7136.713379 6332.757324 0.190882 0.979028 -0.071186
9944.094727 7221.891113 6947.212402 0.190882 0.979028 -0.071186
10170.979492 7154.975098 6635.289551 0.190882 0.979028 -0.071186
10241.837891 7144.941895 6832.682129 -0.950002 -0.263586 -0.167388
10265.632812 7158.455078 6676.355957 -0.950002 -0.263586 -0.167388
10271.944336 7136.692871 6674.804199 -0.950002 -0.263586 -0.167388
10176.699219 7164.654785 6834.597168 0.214092 0.975347 -0.053513
10170.979492 7154.975098 6635.289551 0.214092 0.975347 -0.053513
9944.094727 7221.891113 6947.212402 0.214092 0.975347 -0.053513
10170.979492 7154.975098 6635.289551 0.053797 -0.997450 0.046899
10176.699219 7164.654785 6834.597168 0.053797 -0.997450 0.046899
9481.501953 7115.436035 6585.251465 0.053797 -0.997450 0.046899
10241.837891 7144.941895 6832.682129 -0.567095 -0.755109 0.328959
10378.117188 7119.302734 7008.761719 -0.567095 -0.755109 0.328959
10211.010742 7175.768066 6850.298828 -0.567095 -0.755109 0.328959
10176.699219 7164.654785 6834.597168 0.146142 -0.965184 -0.216938
10065.878906 7044.842285 7293.001953 0.146142 -0.965184 -0.216938
9481.501953 7115.436035 6585.251465 0.146142 -0.965184 -0.216938
10176.699219 7164.654785 6834.597168 0.290808 0.949465 0.118096
9944.094727 7221.891113 6947.212402 0.290808 0.949465 0.118096
10241.837891 7144.941895 6832.682129 0.290808 0.949465 0.118096
10241.837891 7144.941895 6832.682129 0.273715 0.959479 0.066929
9944.094727 7221.891113 6947.212402 0.273715 0.959479 0.066929
10387.881836 7092.012695 6994.197266 0.273715 0.959479 0.066929
10176.699219 7164.654785 6834.597168 0.366579 -0.918000 -0.151315
10211.010742 7175.768066 6850.298828 0.366579 -0.918000 -0.151315
10065.878906 7044.842285 7293.001953 0.366579 -0.918000 -0.151315
9944.094727 7221.891113 6947.212402 -0.558747 0.641720 0.525355
9481.501953 7115.436035 6585.251465 -0.558747 0.641720 0.525355
10065.878906 7044.842285 7293.001953 -0.558747 0.641720 0.525355
10387.881836 7092.012695 6994.197266 0.239538 0.522447 -0.818334
9944.094727 7221.891113 6947.212402 0.239538 0.522447 -0.818334
10378.117188 7119.302734 7008.761719 0.239538 0.522447 -0.818334
10378.117188 7119.302734 7008.761719 -0.065759 -0.959855 -0.272681
10257.127930 7062.730469 7237.077148 -0.065759 -0.959855 -0.272681
10211.010742 7175.768066 6850.298828 -0.065759 -0.959855 -0.272681
9944.094727 7221.891113 6947.212402 0.155204 0.900430 0.406371
10065.878906 7044.842285 7293.001953 0.155204 0.900430 0.406371
10378.117188 7119.302734 7008.761719 0.155204 0.900430 0.406371
10211.010742 7175.768066 6850.298828 -0.165539 -0.929636 -0.329201
10103.231445 7043.278809 7278.634277 -0.165539 -0.929636 -0.329201
10065.878906 7044.842285 7293.001953 -0.165539 -0.929636 -0.329201
10211.010742 7175.768066 6850.298828 0.044040 -0.957491 -0.285082
10257.127930 7062.730469 7237.077148 0.044040 -0.957491 -0.285082
10103.231445 7043.278809 7278.634277 0.044040 -0.957491 -0.285082
10065.878906 7044.842285 7293.001953 -0.024276 0.973289 0.228298
10257.127930 7062.730469 7237.077148 -0.024276 0.973289 0.228298
10378.117188 7119.302734 7008.761719 -0.024276 0.973289 0.228298
3 0 1 2
3 3 4 5
3 6 7 8
3 9 10 11
3 12 13 14
3 15 16 17
3 18 19 20
3 21 22 23
3 24 25 26
3 27 28 29
3 30 31 32
3 33 34 35
3 36 37 38
3 39 40 41
3 42 43 44
3 45 46 47
3 48 49 50
3 51 52 53
3 54 55 56
3 57 58 59
3 60 61 62
3 63 64 65
3 66 67 68
3 69 70 71
3 72 73 74
3 75 76 77
3 78 79 80
3 81 82 83
3 84 85 86
3 87 88 89
3 90 91 92
3 93 94 95
3 96 97 98
3 99 100 101
3 102 103 104
3 105 106 107
3 108 109 110
3 111 112 113
3 114 115 116
3 117 118 119
3 120 121 122
3 123 124 125
3 126 127 128
3 129 130 131
3 132 133 134
3 135 136 137
3 138 139 140
3 141 142 143
3 144 145 146
3 147 148 149
3 150 151 152
3 153 154 155
3 156 157 158
3 159 160 161
3 162 163 164
3 165 166 167
3 168 169 170
3 171 172 173
3 174 175 176
3 177 178 179
3 180 181 182
3 183 184 185
3 186 187 188
3 189 190 191
3 192 193 194
3 195 196 197
3 198 199 200
3 201 202 203
3 204 205 206
3 207 208 209
3 210 211 212
3 213 214 215
3 216 217 218
3 219 220 221
3 222 223 224
3 225 226 227
