ply
format ascii 1.0
comment Created by Blender 2.80 (sub 75) - www.blender.org, source file: 'downsample_ccf.blend'
element vertex 288
property float x
property float y
property float z
property float nx
property float ny
property float nz
element face 96
property list uchar uint vertex_indices
end_header
8714.196289 3522.167725 1195.200195 -0.121126 -0.092145 -0.988351
8034.187012 3802.116211 1252.437866 -0.121126 -0.092145 -0.988351
8267.926758 4015.972412 1203.854248 -0.121126 -0.092145 -0.988351
8267.926758 4015.972412 1203.854248 0.163573 0.164873 -0.972656
8738.081055 3755.121338 1238.704468 0.163573 0.164873 -0.972656
8714.196289 3522.167725 1195.200195 0.163573 0.164873 -0.972656
8427.419922 3585.634766 1294.606201 -0.357397 -0.756018 -0.548365
8034.187012 3802.116211 1252.437866 -0.357397 -0.756018 -0.548365
8714.196289 3522.167725 1195.200195 -0.357397 -0.756018 -0.548365
8427.419922 3585.634766 1294.606201 -0.372954 -0.653412 -0.658755
8714.196289 3522.167725 1195.200195 -0.372954 -0.653412 -0.658755
8709.659180 3353.061279 1365.503906 -0.372954 -0.653412 -0.658755
8738.081055 3755.121338 1238.704468 0.484051 0.839442 -0.247046
8267.926758 4015.972412 1203.854248 0.484051 0.839442 -0.247046
8360.058594 3990.004639 1296.137085 0.484051 0.839442 -0.247046
8714.196289 3522.167725 1195.200195 0.418886 0.125014 -0.899392
8738.081055 3755.121338 1238.704468 0.418886 0.125014 -0.899392
9184.762695 3348.482422 1390.221802 0.418886 0.125014 -0.899392
8059.613281 3753.305908 1354.766479 -0.435879 -0.849605 -0.296952
8034.187012 3802.116211 1252.437866 -0.435879 -0.849605 -0.296952
8427.419922 3585.634766 1294.606201 -0.435879 -0.849605 -0.296952
8034.187012 3802.116211 1252.437866 -0.184475 -0.021599 -0.982600
7129.644531 4376.469238 1409.632935 -0.184475 -0.021599 -0.982600
8267.926758 4015.972412 1203.854248 -0.184475 -0.021599 -0.982600
8738.081055 3755.121338 1238.704468 0.467657 0.592198 0.656200
8360.058594 3990.004639 1296.137085 0.467657 0.592198 0.656200
8606.419922 3783.044922 1307.335815 0.467657 0.592198 0.656200
7142.333008 3827.273438 1444.483154 -0.211837 -0.066766 -0.975022
7129.644531 4376.469238 1409.632935 -0.211837 -0.066766 -0.975022
8034.187012 3802.116211 1252.437866 -0.211837 -0.066766 -0.975022
8714.196289 3522.167725 1195.200195 -0.968101 -0.164427 -0.189063
8771.033203 2850.093750 1488.665527 -0.968101 -0.164427 -0.189063
8709.659180 3353.061279 1365.503906 -0.968101 -0.164427 -0.189063
8714.196289 3522.167725 1195.200195 0.234754 -0.372245 -0.897956
9184.762695 3348.482422 1390.221802 0.234754 -0.372245 -0.897956
8771.033203 2850.093750 1488.665527 0.234754 -0.372245 -0.897956
8034.187012 3802.116211 1252.437866 -0.332538 -0.880654 -0.337440
8059.613281 3753.305908 1354.766479 -0.332538 -0.880654 -0.337440
7765.402832 3817.110107 1478.186157 -0.332538 -0.880654 -0.337440
8606.419922 3783.044922 1307.335815 -0.170879 0.091684 0.981017
8427.419922 3585.634766 1294.606201 -0.170879 0.091684 0.981017
8709.659180 3353.061279 1365.503906 -0.170879 0.091684 0.981017
8059.613281 3753.305908 1354.766479 0.093461 -0.148230 0.984527
8427.419922 3585.634766 1294.606201 0.093461 -0.148230 0.984527
8606.419922 3783.044922 1307.335815 0.093461 -0.148230 0.984527
7142.333008 3827.273438 1444.483154 -0.018679 -0.998852 0.044103
8034.187012 3802.116211 1252.437866 -0.018679 -0.998852 0.044103
7765.402832 3817.110107 1478.186157 -0.018679 -0.998852 0.044103
8267.926758 4015.972412 1203.854248 0.262990 0.944037 -0.199073
7129.644531 4376.469238 1409.632935 0.262990 0.944037 -0.199073
7573.236328 4289.099121 1581.327148 0.262990 0.944037 -0.199073
9159.416992 3326.753418 1501.120728 0.591361 0.755080 0.283101
9184.762695 3348.482422 1390.221802 0.591361 0.755080 0.283101
8738.081055 3755.121338 1238.704468 0.591361 0.755080 0.283101
8709.659180 3353.061279 1365.503906 -0.284883 0.061011 0.956619
9159.416992 3326.753418 1501.120728 -0.284883 0.061011 0.956619
8606.419922 3783.044922 1307.335815 -0.284883 0.061011 0.956619
9159.416992 3326.753418 1501.120728 0.427837 0.739331 0.519948
8738.081055 3755.121338 1238.704468 0.427837 0.739331 0.519948
8606.419922 3783.044922 1307.335815 0.427837 0.739331 0.519948
8606.419922 3783.044922 1307.335815 0.096509 -0.771480 0.628892
7765.402832 3817.110107 1478.186157 0.096509 -0.771480 0.628892
8059.613281 3753.305908 1354.766479 0.096509 -0.771480 0.628892
8606.419922 3783.044922 1307.335815 0.201776 0.290798 0.935266
8360.058594 3990.004639 1296.137085 0.201776 0.290798 0.935266
7765.402832 3817.110107 1478.186157 0.201776 0.290798 0.935266
8267.926758 4015.972412 1203.854248 0.332955 0.940505 -0.067758
7573.236328 4289.099121 1581.327148 0.332955 0.940505 -0.067758
8360.058594 3990.004639 1296.137085 0.332955 0.940505 -0.067758
8709.659180 3353.061279 1365.503906 -0.864407 -0.216588 -0.453751
8771.033203 2850.093750 1488.665527 -0.864407 -0.216588 -0.453751
8711.935547 2795.677246 1627.222656 -0.864407 -0.216588 -0.453751
8360.058594 3990.004639 1296.137085 0.312855 -0.079451 0.946472
7573.236328 4289.099121 1581.327148 0.312855 -0.079451 0.946472
7765.402832 3817.110107 1478.186157 0.312855 -0.079451 0.946472
7142.333008 3827.273438 1444.483154 -0.979760 -0.035142 -0.197069
7092.541992 4285.870117 1610.249268 -0.979760 -0.035142 -0.197069
7129.644531 4376.469238 1409.632935 -0.979760 -0.035142 -0.197069
7765.402832 3817.110107 1478.186157 -0.014846 -0.999527 -0.026946
7184.256348 3821.806885 1624.162109 -0.014846 -0.999527 -0.026946
7142.333008 3827.273438 1444.483154 -0.014846 -0.999527 -0.026946
9184.762695 3348.482422 1390.221802 0.361264 -0.460099 -0.811047
9063.793945 2698.449707 1705.096069 0.361264 -0.460099 -0.811047
8771.033203 2850.093750 1488.665527 0.361264 -0.460099 -0.811047
9000.347656 2964.116699 1643.738892 -0.234918 0.443259 0.865064
9159.416992 3326.753418 1501.120728 -0.234918 0.443259 0.865064
8709.659180 3353.061279 1365.503906 -0.234918 0.443259 0.865064
7184.256348 3821.806885 1624.162109 -0.958630 -0.182918 0.218106
7092.541992 4285.870117 1610.249268 -0.958630 -0.182918 0.218106
7142.333008 3827.273438 1444.483154 -0.958630 -0.182918 0.218106
7226.569824 4358.103027 1635.357788 -0.495569 0.822300 0.279702
7129.644531 4376.469238 1409.632935 -0.495569 0.822300 0.279702
7092.541992 4285.870117 1610.249268 -0.495569 0.822300 0.279702
8709.659180 3353.061279 1365.503906 -0.286911 0.406197 0.867575
8711.935547 2795.677246 1627.222656 -0.286911 0.406197 0.867575
9000.347656 2964.116699 1643.738892 -0.286911 0.406197 0.867575
9159.416992 3326.753418 1501.120728 0.974982 -0.081210 0.206918
9063.793945 2698.449707 1705.096069 0.974982 -0.081210 0.206918
9184.762695 3348.482422 1390.221802 0.974982 -0.081210 0.206918
7129.644531 4376.469238 1409.632935 0.194653 0.980865 -0.003774
7226.569824 4358.103027 1635.357788 0.194653 0.980865 -0.003774
7573.236328 4289.099121 1581.327148 0.194653 0.980865 -0.003774
8523.780273 2273.919434 1849.231445 0.259676 -0.589903 -0.764580
8771.033203 2850.093750 1488.665527 0.259676 -0.589903 -0.764580
9063.793945 2698.449707 1705.096069 0.259676 -0.589903 -0.764580
9063.793945 2698.449707 1705.096069 0.224368 0.269849 0.936398
9159.416992 3326.753418 1501.120728 0.224368 0.269849 0.936398
9000.347656 2964.116699 1643.738892 0.224368 0.269849 0.936398
7765.402832 3817.110107 1478.186157 0.241219 -0.112433 0.963936
7573.236328 4289.099121 1581.327148 0.241219 -0.112433 0.963936
7184.256348 3821.806885 1624.162109 0.241219 -0.112433 0.963936
7573.236328 4289.099121 1581.327148 0.147641 -0.032285 0.988514
7226.569824 4358.103027 1635.357788 0.147641 -0.032285 0.988514
7184.256348 3821.806885 1624.162109 0.147641 -0.032285 0.988514
7092.541992 4285.870117 1610.249268 -0.180870 -0.006261 0.983487
7184.256348 3821.806885 1624.162109 -0.180870 -0.006261 0.983487
7226.569824 4358.103027 1635.357788 -0.180870 -0.006261 0.983487
8963.602539 2484.602295 1882.377197 0.376859 -0.689408 -0.618622
8523.780273 2273.919434 1849.231445 0.376859 -0.689408 -0.618622
9063.793945 2698.449707 1705.096069 0.376859 -0.689408 -0.618622
8523.780273 2273.919434 1849.231445 -0.927176 0.199411 -0.317145
8711.935547 2795.677246 1627.222656 -0.927176 0.199411 -0.317145
8771.033203 2850.093750 1488.665527 -0.927176 0.199411 -0.317145
9063.793945 2698.449707 1705.096069 0.613026 0.313856 0.725047
9000.347656 2964.116699 1643.738892 0.613026 0.313856 0.725047
8963.602539 2484.602295 1882.377197 0.613026 0.313856 0.725047
8523.780273 2273.919434 1849.231445 -0.917998 0.180870 -0.352939
8490.695312 2286.185059 1941.571411 -0.917998 0.180870 -0.352939
8711.935547 2795.677246 1627.222656 -0.917998 0.180870 -0.352939
8711.935547 2795.677246 1627.222656 -0.390524 0.600236 0.698002
8490.695312 2286.185059 1941.571411 -0.390524 0.600236 0.698002
9000.347656 2964.116699 1643.738892 -0.390524 0.600236 0.698002
8490.695312 2286.185059 1941.571411 -0.076929 0.448940 0.890244
8963.602539 2484.602295 1882.377197 -0.076929 0.448940 0.890244
9000.347656 2964.116699 1643.738892 -0.076929 0.448940 0.890244
8963.602539 2484.602295 1882.377197 0.401082 -0.878261 0.260366
8490.695312 2286.185059 1941.571411 0.401082 -0.878261 0.260366
8523.780273 2273.919434 1849.231445 0.401082 -0.878261 0.260366
8484.766602 2280.159424 9431.876953 0.351845 -0.906880 -0.231892
8870.604492 2400.641113 9546.122070 0.351845 -0.906880 -0.231892
8499.474609 2264.576416 9515.134766 0.351845 -0.906880 -0.231892
8940.491211 2492.215332 9493.541992 0.395279 -0.665313 -0.633335
8870.604492 2400.641113 9546.122070 0.395279 -0.665313 -0.633335
8484.766602 2280.159424 9431.876953 0.395279 -0.665313 -0.633335
8724.376953 2814.996338 9775.443359 -0.935252 0.279288 0.217491
8484.766602 2280.159424 9431.876953 -0.935252 0.279288 0.217491
8499.474609 2264.576416 9515.134766 -0.935252 0.279288 0.217491
8870.604492 2400.641113 9546.122070 0.810652 -0.582043 0.063782
8940.491211 2492.215332 9493.541992 0.810652 -0.582043 0.063782
9048.005859 2663.538086 9690.465820 0.810652 -0.582043 0.063782
8870.604492 2400.641113 9546.122070 0.156436 -0.604567 0.781042
8694.185547 2635.474365 9763.230469 0.156436 -0.604567 0.781042
8499.474609 2264.576416 9515.134766 0.156436 -0.604567 0.781042
8724.376953 2814.996338 9775.443359 -0.164276 0.584176 -0.794828
8940.491211 2492.215332 9493.541992 -0.164276 0.584176 -0.794828
8484.766602 2280.159424 9431.876953 -0.164276 0.584176 -0.794828
7393.305664 4323.399902 9741.384766 0.046250 -0.028964 -0.998510
7175.835938 3824.182129 9745.792969 0.046250 -0.028964 -0.998510
7131.444336 4306.562500 9729.744141 0.046250 -0.028964 -0.998510
8694.185547 2635.474365 9763.230469 0.208319 -0.574982 0.791201
8870.604492 2400.641113 9546.122070 0.208319 -0.574982 0.791201
9048.005859 2663.538086 9690.465820 0.208319 -0.574982 0.791201
8724.376953 2814.996338 9775.443359 -0.354483 0.469098 -0.808881
9166.229492 3339.663086 9886.079102 -0.354483 0.469098 -0.808881
8940.491211 2492.215332 9493.541992 -0.354483 0.469098 -0.808881
7785.063477 3842.166016 9897.937500 0.243879 -0.114742 -0.962994
7175.835938 3824.182129 9745.792969 0.243879 -0.114742 -0.962994
7393.305664 4323.399902 9741.384766 0.243879 -0.114742 -0.962994
8724.376953 2814.996338 9775.443359 -0.854696 0.109214 0.507511
8499.474609 2264.576416 9515.134766 -0.854696 0.109214 0.507511
8694.185547 2635.474365 9763.230469 -0.854696 0.109214 0.507511
9048.005859 2663.538086 9690.465820 0.884738 -0.019978 -0.465660
8940.491211 2492.215332 9493.541992 0.884738 -0.019978 -0.465660
9166.229492 3339.663086 9886.079102 0.884738 -0.019978 -0.465660
7131.444336 4306.562500 9729.744141 -0.948754 -0.097313 -0.300658
7175.835938 3824.182129 9745.792969 -0.948754 -0.097313 -0.300658
7060.776367 4281.954590 9960.708008 -0.948754 -0.097313 -0.300658
7393.305664 4323.399902 9741.384766 -0.039400 0.905244 -0.423062
7131.444336 4306.562500 9729.744141 -0.039400 0.905244 -0.423062
7171.811035 4405.626953 9937.957031 -0.039400 0.905244 -0.423062
7171.811035 4405.626953 9937.957031 -0.748946 0.642858 -0.160662
7131.444336 4306.562500 9729.744141 -0.748946 0.642858 -0.160662
7060.776367 4281.954590 9960.708008 -0.748946 0.642858 -0.160662
8809.665039 3183.421387 10063.980469 0.212150 -0.504185 0.837132
8694.185547 2635.474365 9763.230469 0.212150 -0.504185 0.837132
9048.005859 2663.538086 9690.465820 0.212150 -0.504185 0.837132
8047.891602 4112.080566 9977.490234 0.327402 -0.040574 -0.944014
7785.063477 3842.166016 9897.937500 0.327402 -0.040574 -0.944014
7393.305664 4323.399902 9741.384766 0.327402 -0.040574 -0.944014
8047.891602 4112.080566 9977.490234 0.318983 0.947049 -0.036730
7393.305664 4323.399902 9741.384766 0.318983 0.947049 -0.036730
7171.811035 4405.626953 9937.957031 0.318983 0.947049 -0.036730
7175.835938 3824.182129 9745.792969 -0.003809 -0.998357 -0.057175
7975.649902 3800.812744 10100.571289 -0.003809 -0.998357 -0.057175
7137.631836 3814.308594 9920.745117 -0.003809 -0.998357 -0.057175
7785.063477 3842.166016 9897.937500 0.100166 -0.952215 -0.288538
7975.649902 3800.812744 10100.571289 0.100166 -0.952215 -0.288538
7175.835938 3824.182129 9745.792969 0.100166 -0.952215 -0.288538
7137.631836 3814.308594 9920.745117 -0.965678 -0.140009 -0.218776
7060.776367 4281.954590 9960.708008 -0.965678 -0.140009 -0.218776
7175.835938 3824.182129 9745.792969 -0.965678 -0.140009 -0.218776
9187.256836 3295.020508 9963.734375 0.949931 -0.078608 -0.302411
9048.005859 2663.538086 9690.465820 0.949931 -0.078608 -0.302411
9166.229492 3339.663086 9886.079102 0.949931 -0.078608 -0.302411
9166.229492 3339.663086 9886.079102 -0.237015 0.387466 -0.890895
8724.376953 2814.996338 9775.443359 -0.237015 0.387466 -0.890895
8723.855469 3384.584229 10023.305664 -0.237015 0.387466 -0.890895
8694.185547 2635.474365 9763.230469 -0.983359 0.159455 0.087065
8809.665039 3183.421387 10063.980469 -0.983359 0.159455 0.087065
8724.376953 2814.996338 9775.443359 -0.983359 0.159455 0.087065
8518.676758 3859.795654 10081.375000 0.241114 0.050861 -0.969163
7785.063477 3842.166016 9897.937500 0.241114 0.050861 -0.969163
8047.891602 4112.080566 9977.490234 0.241114 0.050861 -0.969163
8809.665039 3183.421387 10063.980469 -0.808189 -0.235613 0.539738
8723.855469 3384.584229 10023.305664 -0.808189 -0.235613 0.539738
8724.376953 2814.996338 9775.443359 -0.808189 -0.235613 0.539738
8213.291016 3711.886719 10052.261719 0.237663 -0.309469 -0.920731
7785.063477 3842.166016 9897.937500 0.237663 -0.309469 -0.920731
8518.676758 3859.795654 10081.375000 0.237663 -0.309469 -0.920731
9166.229492 3339.663086 9886.079102 -0.297342 -0.011720 -0.954699
8723.855469 3384.584229 10023.305664 -0.297342 -0.011720 -0.954699
8518.676758 3859.795654 10081.375000 -0.297342 -0.011720 -0.954699
8807.325195 3704.396484 10078.275391 0.364012 0.688647 -0.627105
9166.229492 3339.663086 9886.079102 0.364012 0.688647 -0.627105
8518.676758 3859.795654 10081.375000 0.364012 0.688647 -0.627105
7975.649902 3800.812744 10100.571289 -0.327241 -0.937743 0.116412
7785.063477 3842.166016 9897.937500 -0.327241 -0.937743 0.116412
8213.291016 3711.886719 10052.261719 -0.327241 -0.937743 0.116412
8047.891602 4112.080566 9977.490234 0.312342 0.945106 0.096008
7171.811035 4405.626953 9937.957031 0.312342 0.945106 0.096008
8281.678711 4014.033691 10182.087891 0.312342 0.945106 0.096008
9048.005859 2663.538086 9690.465820 0.349072 -0.435943 0.829519
9187.256836 3295.020508 9963.734375 0.349072 -0.435943 0.829519
8809.665039 3183.421387 10063.980469 0.349072 -0.435943 0.829519
9166.229492 3339.663086 9886.079102 0.793453 0.595170 0.127302
8998.435547 3518.679688 10094.961914 0.793453 0.595170 0.127302
9187.256836 3295.020508 9963.734375 0.793453 0.595170 0.127302
8723.855469 3384.584229 10023.305664 0.029615 0.133830 -0.990562
8213.291016 3711.886719 10052.261719 0.029615 0.133830 -0.990562
8518.676758 3859.795654 10081.375000 0.029615 0.133830 -0.990562
8809.665039 3183.421387 10063.980469 -0.677429 -0.412163 -0.609272
8551.050781 3504.128906 10134.571289 -0.677429 -0.412163 -0.609272
8723.855469 3384.584229 10023.305664 -0.677429 -0.412163 -0.609272
9166.229492 3339.663086 9886.079102 0.698294 0.713994 -0.050972
8807.325195 3704.396484 10078.275391 0.698294 0.713994 -0.050972
8998.435547 3518.679688 10094.961914 0.698294 0.713994 -0.050972
8213.291016 3711.886719 10052.261719 -0.535333 -0.841506 0.072705
8723.855469 3384.584229 10023.305664 -0.535333 -0.841506 0.072705
8551.050781 3504.128906 10134.571289 -0.535333 -0.841506 0.072705
7975.649902 3800.812744 10100.571289 -0.210372 -0.070832 0.975052
8281.678711 4014.033691 10182.087891 -0.210372 -0.070832 0.975052
7137.631836 3814.308594 9920.745117 -0.210372 -0.070832 0.975052
8281.678711 4014.033691 10182.087891 -0.201853 -0.116278 0.972489
7060.776367 4281.954590 9960.708008 -0.201853 -0.116278 0.972489
7137.631836 3814.308594 9920.745117 -0.201853 -0.116278 0.972489
8809.665039 3183.421387 10063.980469 0.319641 -0.264071 0.909998
9187.256836 3295.020508 9963.734375 0.319641 -0.264071 0.909998
8998.435547 3518.679688 10094.961914 0.319641 -0.264071 0.909998
8551.050781 3504.128906 10134.571289 -0.391806 -0.809909 -0.436504
7975.649902 3800.812744 10100.571289 -0.391806 -0.809909 -0.436504
8213.291016 3711.886719 10052.261719 -0.391806 -0.809909 -0.436504
8518.676758 3859.795654 10081.375000 0.492744 0.856709 -0.152492
8047.891602 4112.080566 9977.490234 0.492744 0.856709 -0.152492
8281.678711 4014.033691 10182.087891 0.492744 0.856709 -0.152492
8281.678711 4014.033691 10182.087891 -0.112388 0.276481 0.954425
7171.811035 4405.626953 9937.957031 -0.112388 0.276481 0.954425
7060.776367 4281.954590 9960.708008 -0.112388 0.276481 0.954425
8628.161133 3769.352783 10212.515625 0.591792 0.651615 0.474532
8998.435547 3518.679688 10094.961914 0.591792 0.651615 0.474532
8807.325195 3704.396484 10078.275391 0.591792 0.651615 0.474532
8807.325195 3704.396484 10078.275391 0.526897 0.786256 0.322770
8281.678711 4014.033691 10182.087891 0.526897 0.786256 0.322770
8628.161133 3769.352783 10212.515625 0.526897 0.786256 0.322770
8518.676758 3859.795654 10081.375000 0.459083 0.857371 -0.232717
8281.678711 4014.033691 10182.087891 0.459083 0.857371 -0.232717
8807.325195 3704.396484 10078.275391 0.459083 0.857371 -0.232717
8628.161133 3769.352783 10212.515625 -0.064709 -0.264003 0.962349
8551.050781 3504.128906 10134.571289 -0.064709 -0.264003 0.962349
8809.665039 3183.421387 10063.980469 -0.064709 -0.264003 0.962349
8809.665039 3183.421387 10063.980469 0.178207 -0.189569 0.965560
8998.435547 3518.679688 10094.961914 0.178207 -0.189569 0.965560
8628.161133 3769.352783 10212.515625 0.178207 -0.189569 0.965560
7975.649902 3800.812744 10100.571289 -0.175320 -0.230328 0.957190
8551.050781 3504.128906 10134.571289 -0.175320 -0.230328 0.957190
8628.161133 3769.352783 10212.515625 -0.175320 -0.230328 0.957190
8628.161133 3769.352783 10212.515625 -0.173597 -0.124335 0.976936
8281.678711 4014.033691 10182.087891 -0.173597 -0.124335 0.976936
7975.649902 3800.812744 10100.571289 -0.173597 -0.124335 0.976936
3 0 1 2
3 3 4 5
3 6 7 8
3 9 10 11
3 12 13 14
3 15 16 17
3 18 19 20
3 21 22 23
3 24 25 26
3 27 28 29
3 30 31 32
3 33 34 35
3 36 37 38
3 39 40 41
3 42 43 44
3 45 46 47
3 48 49 50
3 51 52 53
3 54 55 56
3 57 58 59
3 60 61 62
3 63 64 65
3 66 67 68
3 69 70 71
3 72 73 74
3 75 76 77
3 78 79 80
3 81 82 83
3 84 85 86
3 87 88 89
3 90 91 92
3 93 94 95
3 96 97 98
3 99 100 101
3 102 103 104
3 105 106 107
3 108 109 110
3 111 112 113
3 114 115 116
3 117 118 119
3 120 121 122
3 123 124 125
3 126 127 128
3 129 130 131
3 132 133 134
3 135 136 137
3 138 139 140
3 141 142 143
3 144 145 146
3 147 148 149
3 150 151 152
3 153 154 155
3 156 157 158
3 159 160 161
3 162 163 164
3 165 166 167
3 168 169 170
3 171 172 173
3 174 175 176
3 177 178 179
3 180 181 182
3 183 184 185
3 186 187 188
3 189 190 191
3 192 193 194
3 195 196 197
3 198 199 200
3 201 202 203
3 204 205 206
3 207 208 209
3 210 211 212
3 213 214 215
3 216 217 218
3 219 220 221
3 222 223 224
3 225 226 227
3 228 229 230
3 231 232 233
3 234 235 236
3 237 238 239
3 240 241 242
3 243 244 245
3 246 247 248
3 249 250 251
3 252 253 254
3 255 256 257
3 258 259 260
3 261 262 263
3 264 265 266
3 267 268 269
3 270 271 272
3 273 274 275
3 276 277 278
3 279 280 281
3 282 283 284
3 285 286 287
