ply
format ascii 1.0
comment Created by Blender 2.80 (sub 75) - www.blender.org, source file: 'downsample_ccf.blend'
element vertex 72
property float x
property float y
property float z
property float nx
property float ny
property float nz
element face 24
property list uchar uint vertex_indices
end_header
5953.236816 3024.885010 5225.386719 -0.710587 -0.352400 -0.609000
6007.507324 2662.365479 5371.836426 -0.710587 -0.352400 -0.609000
5770.746094 3363.745605 5242.235840 -0.710587 -0.352400 -0.609000
6007.878906 2880.635986 5287.206543 0.099554 -0.359858 -0.927680
6007.507324 2662.365479 5371.836426 0.099554 -0.359858 -0.927680
5953.236816 3024.885010 5225.386719 0.099554 -0.359858 -0.927680
5670.152832 3510.833252 5334.159180 -0.858601 -0.357691 -0.367236
5770.746094 3363.745605 5242.235840 -0.858601 -0.357691 -0.367236
6007.507324 2662.365479 5371.836426 -0.858601 -0.357691 -0.367236
6007.507324 2662.365479 5371.836426 -0.787311 -0.335995 -0.516961
5971.182129 2677.040771 5417.620117 -0.787311 -0.335995 -0.516961
5670.152832 3510.833252 5334.159180 -0.787311 -0.335995 -0.516961
5634.771973 3621.476807 5411.833008 0.165400 0.601540 -0.781532
5770.746094 3363.745605 5242.235840 0.165400 0.601540 -0.781532
5670.152832 3510.833252 5334.159180 0.165400 0.601540 -0.781532
5953.236816 3024.885010 5225.386719 0.850038 0.443665 0.283896
5770.746094 3363.745605 5242.235840 0.850038 0.443665 0.283896
6007.878906 2880.635986 5287.206543 0.850038 0.443665 0.283896
5770.746094 3363.745605 5242.235840 0.889459 0.456609 0.019228
5634.771973 3621.476807 5411.833008 0.889459 0.456609 0.019228
6034.935059 2828.971924 5720.570312 0.889459 0.456609 0.019228
6007.507324 2662.365479 5371.836426 0.997484 -0.027097 -0.065506
6007.878906 2880.635986 5287.206543 0.997484 -0.027097 -0.065506
6034.935059 2828.971924 5720.570312 0.997484 -0.027097 -0.065506
5637.062012 3576.617432 5991.006836 -0.965256 -0.260329 -0.022556
5624.762695 3635.002197 5843.493164 -0.965256 -0.260329 -0.022556
5670.152832 3510.833252 5334.159180 -0.965256 -0.260329 -0.022556
5670.152832 3510.833252 5334.159180 -0.954992 -0.296354 -0.012858
5624.762695 3635.002197 5843.493164 -0.954992 -0.296354 -0.012858
5634.771973 3621.476807 5411.833008 -0.954992 -0.296354 -0.012858
6007.878906 2880.635986 5287.206543 0.897815 0.440359 -0.003555
5770.746094 3363.745605 5242.235840 0.897815 0.440359 -0.003555
6034.935059 2828.971924 5720.570312 0.897815 0.440359 -0.003555
5971.182129 2677.040771 5417.620117 -0.941075 -0.337306 0.024543
5864.899902 3018.961426 6041.511719 -0.941075 -0.337306 0.024543
5670.152832 3510.833252 5334.159180 -0.941075 -0.337306 0.024543
6007.507324 2662.365479 5371.836426 0.981829 -0.189307 0.013221
6034.935059 2828.971924 5720.570312 0.981829 -0.189307 0.013221
6001.510254 2674.125244 5985.600098 0.981829 -0.189307 0.013221
5637.062012 3576.617432 5991.006836 -0.925408 -0.378874 -0.008676
5670.152832 3510.833252 5334.159180 -0.925408 -0.378874 -0.008676
5864.899902 3018.961426 6041.511719 -0.925408 -0.378874 -0.008676
6034.935059 2828.971924 5720.570312 0.891620 0.452738 0.006489
5634.771973 3621.476807 5411.833008 0.891620 0.452738 0.006489
5624.762695 3635.002197 5843.493164 0.891620 0.452738 0.006489
6007.507324 2662.365479 5371.836426 -0.358917 -0.933259 0.014374
6001.510254 2674.125244 5985.600098 -0.358917 -0.933259 0.014374
5971.182129 2677.040771 5417.620117 -0.358917 -0.933259 0.014374
6001.510254 2674.125244 5985.600098 -0.925990 -0.374546 0.047522
5864.899902 3018.961426 6041.511719 -0.925990 -0.374546 0.047522
5971.182129 2677.040771 5417.620117 -0.925990 -0.374546 0.047522
5624.762695 3635.002197 5843.493164 0.798603 0.579436 0.162751
5637.062012 3576.617432 5991.006836 0.798603 0.579436 0.162751
5800.462891 3309.324463 6140.848145 0.798603 0.579436 0.162751
6034.935059 2828.971924 5720.570312 0.887905 0.458156 -0.041439
5624.762695 3635.002197 5843.493164 0.887905 0.458156 -0.041439
5975.297363 2982.350342 6138.498047 0.887905 0.458156 -0.041439
6034.935059 2828.971924 5720.570312 0.990691 0.017269 0.135033
5975.297363 2982.350342 6138.498047 0.990691 0.017269 0.135033
6001.510254 2674.125244 5985.600098 0.990691 0.017269 0.135033
6001.510254 2674.125244 5985.600098 -0.679230 -0.371693 0.632844
5975.297363 2982.350342 6138.498047 -0.679230 -0.371693 0.632844
5864.899902 3018.961426 6041.511719 -0.679230 -0.371693 0.632844
5975.297363 2982.350342 6138.498047 0.881827 0.471550 -0.004587
5624.762695 3635.002197 5843.493164 0.881827 0.471550 -0.004587
5800.462891 3309.324463 6140.848145 0.881827 0.471550 -0.004587
5800.462891 3309.324463 6140.848145 -0.869530 -0.321287 0.375090
5637.062012 3576.617432 5991.006836 -0.869530 -0.321287 0.375090
5864.899902 3018.961426 6041.511719 -0.869530 -0.321287 0.375090
5975.297363 2982.350342 6138.498047 -0.679580 -0.367936 0.634660
5800.462891 3309.324463 6140.848145 -0.679580 -0.367936 0.634660
5864.899902 3018.961426 6041.511719 -0.679580 -0.367936 0.634660
3 0 1 2
3 3 4 5
3 6 7 8
3 9 10 11
3 12 13 14
3 15 16 17
3 18 19 20
3 21 22 23
3 24 25 26
3 27 28 29
3 30 31 32
3 33 34 35
3 36 37 38
3 39 40 41
3 42 43 44
3 45 46 47
3 48 49 50
3 51 52 53
3 54 55 56
3 57 58 59
3 60 61 62
3 63 64 65
3 66 67 68
3 69 70 71
