ply
format ascii 1.0
comment Created by Blender 2.80 (sub 75) - www.blender.org, source file: 'downsample_ccf.blend'
element vertex 102
property float x
property float y
property float z
property float nx
property float ny
property float nz
element face 34
property list uchar uint vertex_indices
end_header
10651.141602 5518.094727 4473.678711 0.049838 -0.495919 -0.866937
10227.857422 6294.006348 4005.496338 0.049838 -0.495919 -0.866937
10330.233398 6364.521973 3971.044189 0.049838 -0.495919 -0.866937
10227.857422 6294.006348 4005.496338 -0.794557 -0.566038 -0.219726
10651.141602 5518.094727 4473.678711 -0.794557 -0.566038 -0.219726
10553.920898 5659.268555 4461.562012 -0.794557 -0.566038 -0.219726
10330.233398 6364.521973 3971.044189 -0.097245 0.547314 0.831259
10227.857422 6294.006348 4005.496338 -0.097245 0.547314 0.831259
10553.920898 5659.268555 4461.562012 -0.097245 0.547314 0.831259
10762.486328 5221.861816 4914.496582 -0.905135 0.008538 0.425038
10330.233398 6364.521973 3971.044189 -0.905135 0.008538 0.425038
10553.920898 5659.268555 4461.562012 -0.905135 0.008538 0.425038
10762.486328 5221.861816 4914.496582 0.934374 0.356277 0.003410
10651.141602 5518.094727 4473.678711 0.934374 0.356277 0.003410
10330.233398 6364.521973 3971.044189 0.934374 0.356277 0.003410
10651.141602 5518.094727 4473.678711 -0.754666 -0.550364 -0.357182
10677.376953 5053.548828 5134.042969 -0.754666 -0.550364 -0.357182
10553.920898 5659.268555 4461.562012 -0.754666 -0.550364 -0.357182
10677.376953 5053.548828 5134.042969 0.175410 0.747304 0.640912
10762.486328 5221.861816 4914.496582 0.175410 0.747304 0.640912
10553.920898 5659.268555 4461.562012 0.175410 0.747304 0.640912
10651.141602 5518.094727 4473.678711 -0.066638 -0.817323 -0.572314
10927.912109 5042.992676 5119.946777 -0.066638 -0.817323 -0.572314
10677.376953 5053.548828 5134.042969 -0.066638 -0.817323 -0.572314
10927.912109 5042.992676 5119.946777 0.296744 0.825629 0.479875
10651.141602 5518.094727 4473.678711 0.296744 0.825629 0.479875
10762.486328 5221.861816 4914.496582 0.296744 0.825629 0.479875
10967.089844 5229.221680 4983.445312 0.273643 -0.605397 -0.747405
10927.912109 5042.992676 5119.946777 0.273643 -0.605397 -0.747405
10762.486328 5221.861816 4914.496582 0.273643 -0.605397 -0.747405
10967.089844 5229.221680 4983.445312 0.972394 -0.230620 -0.035545
11031.637695 5495.703125 5020.302246 0.972394 -0.230620 -0.035545
10927.912109 5042.992676 5119.946777 0.972394 -0.230620 -0.035545
10934.324219 5247.193359 5190.087891 -0.006301 0.996133 -0.087633
10967.089844 5229.221680 4983.445312 -0.006301 0.996133 -0.087633
10762.486328 5221.861816 4914.496582 -0.006301 0.996133 -0.087633
11031.637695 5495.703125 5020.302246 -0.951500 0.254402 -0.172997
10967.089844 5229.221680 4983.445312 -0.951500 0.254402 -0.172997
10934.324219 5247.193359 5190.087891 -0.951500 0.254402 -0.172997
10762.486328 5221.861816 4914.496582 -0.613988 0.723139 0.316368
10677.376953 5053.548828 5134.042969 -0.613988 0.723139 0.316368
10934.324219 5247.193359 5190.087891 -0.613988 0.723139 0.316368
10934.324219 5247.193359 5190.087891 0.934070 -0.141889 0.327689
10927.912109 5042.992676 5119.946777 0.934070 -0.141889 0.327689
11031.637695 5495.703125 5020.302246 0.934070 -0.141889 0.327689
10927.912109 5042.992676 5119.946777 0.039426 -0.325715 0.944646
10934.324219 5247.193359 5190.087891 0.039426 -0.325715 0.944646
10677.376953 5053.548828 5134.042969 0.039426 -0.325715 0.944646
10945.792969 5047.148438 6257.339844 0.667408 0.076334 -0.740769
10792.669922 5102.334473 6125.067871 0.667408 0.076334 -0.740769
10935.677734 5276.627441 6271.873535 0.667408 0.076334 -0.740769
10945.792969 5047.148438 6257.339844 0.785682 0.073534 -0.614244
10935.677734 5276.627441 6271.873535 0.785682 0.073534 -0.614244
11039.300781 5491.519531 6430.144043 0.785682 0.073534 -0.614244
10643.350586 5080.536621 6500.067871 -0.222526 -0.964136 -0.144649
10792.669922 5102.334473 6125.067871 -0.222526 -0.964136 -0.144649
10945.792969 5047.148438 6257.339844 -0.222526 -0.964136 -0.144649
10792.669922 5102.334473 6125.067871 -0.754430 0.654990 -0.042715
10852.549805 5189.930664 6410.671387 -0.754430 0.654990 -0.042715
10935.677734 5276.627441 6271.873535 -0.754430 0.654990 -0.042715
10792.669922 5102.334473 6125.067871 0.613121 0.710033 -0.346318
10642.593750 5581.158203 6841.072754 0.613121 0.710033 -0.346318
10852.549805 5189.930664 6410.671387 0.613121 0.710033 -0.346318
10792.669922 5102.334473 6125.067871 -0.907562 0.235462 -0.347691
10643.350586 5080.536621 6500.067871 -0.907562 0.235462 -0.347691
10642.593750 5581.158203 6841.072754 -0.907562 0.235462 -0.347691
10935.677734 5276.627441 6271.873535 -0.832901 0.526718 -0.169834
10852.549805 5189.930664 6410.671387 -0.832901 0.526718 -0.169834
11039.300781 5491.519531 6430.144043 -0.832901 0.526718 -0.169834
10852.549805 5189.930664 6410.671387 0.535570 -0.430469 0.726540
10643.350586 5080.536621 6500.067871 0.535570 -0.430469 0.726540
10945.792969 5047.148438 6257.339844 0.535570 -0.430469 0.726540
10945.792969 5047.148438 6257.339844 0.569824 -0.399225 0.718276
11039.300781 5491.519531 6430.144043 0.569824 -0.399225 0.718276
10852.549805 5189.930664 6410.671387 0.569824 -0.399225 0.718276
10650.468750 5600.560059 6936.595703 0.553370 -0.539958 0.634213
10643.350586 5080.536621 6500.067871 0.553370 -0.539958 0.634213
10852.549805 5189.930664 6410.671387 0.553370 -0.539958 0.634213
10852.549805 5189.930664 6410.671387 0.763951 0.617177 -0.188337
10642.593750 5581.158203 6841.072754 0.763951 0.617177 -0.188337
10650.468750 5600.560059 6936.595703 0.763951 0.617177 -0.188337
10642.593750 5581.158203 6841.072754 -0.467407 0.497204 -0.730971
10643.350586 5080.536621 6500.067871 -0.467407 0.497204 -0.730971
10542.214844 5763.088867 7029.006836 -0.467407 0.497204 -0.730971
10650.468750 5600.560059 6936.595703 -0.292617 -0.612446 0.734361
10542.214844 5763.088867 7029.006836 -0.292617 -0.612446 0.734361
10643.350586 5080.536621 6500.067871 -0.292617 -0.612446 0.734361
10642.593750 5581.158203 6841.072754 0.850340 0.497616 -0.171175
10315.640625 6336.173828 7411.757812 0.850340 0.497616 -0.171175
10650.468750 5600.560059 6936.595703 0.850340 0.497616 -0.171175
10642.593750 5581.158203 6841.072754 -0.830052 -0.550453 0.089524
10542.214844 5763.088867 7029.006836 -0.830052 -0.550453 0.089524
10244.166016 6260.374023 7323.186035 -0.830052 -0.550453 0.089524
10642.593750 5581.158203 6841.072754 0.219039 0.646937 -0.730407
10244.166016 6260.374023 7323.186035 0.219039 0.646937 -0.730407
10315.640625 6336.173828 7411.757812 0.219039 0.646937 -0.730407
10542.214844 5763.088867 7029.006836 -0.260066 -0.602328 0.754696
10650.468750 5600.560059 6936.595703 -0.260066 -0.602328 0.754696
10244.166016 6260.374023 7323.186035 -0.260066 -0.602328 0.754696
10244.166016 6260.374023 7323.186035 -0.278148 -0.607304 0.744188
10650.468750 5600.560059 6936.595703 -0.278148 -0.607304 0.744188
10315.640625 6336.173828 7411.757812 -0.278148 -0.607304 0.744188
3 0 1 2
3 3 4 5
3 6 7 8
3 9 10 11
3 12 13 14
3 15 16 17
3 18 19 20
3 21 22 23
3 24 25 26
3 27 28 29
3 30 31 32
3 33 34 35
3 36 37 38
3 39 40 41
3 42 43 44
3 45 46 47
3 48 49 50
3 51 52 53
3 54 55 56
3 57 58 59
3 60 61 62
3 63 64 65
3 66 67 68
3 69 70 71
3 72 73 74
3 75 76 77
3 78 79 80
3 81 82 83
3 84 85 86
3 87 88 89
3 90 91 92
3 93 94 95
3 96 97 98
3 99 100 101
