ply
format ascii 1.0
comment Created by Blender 2.80 (sub 75) - www.blender.org, source file: 'downsample_ccf.blend'
element vertex 132
property float x
property float y
property float z
property float nx
property float ny
property float nz
element face 44
property list uchar uint vertex_indices
end_header
7422.005859 1299.425659 3211.254395 0.219179 0.699685 -0.680001
7234.548340 1449.931641 3305.695312 0.219179 0.699685 -0.680001
7710.501465 1274.305786 3278.395752 0.219179 0.699685 -0.680001
7710.501465 1274.305786 3278.395752 0.340470 0.936218 -0.087039
7234.548340 1449.931641 3305.695312 0.340470 0.936218 -0.087039
7736.177734 1280.015991 3440.254639 0.340470 0.936218 -0.087039
7131.302246 1206.966919 3608.149414 -0.179641 -0.920842 -0.346092
7422.005859 1299.425659 3211.254395 -0.179641 -0.920842 -0.346092
7610.015137 1084.338257 3685.947510 -0.179641 -0.920842 -0.346092
7131.302246 1206.966919 3608.149414 -0.664288 -0.455491 -0.592663
7234.548340 1449.931641 3305.695312 -0.664288 -0.455491 -0.592663
7422.005859 1299.425659 3211.254395 -0.664288 -0.455491 -0.592663
7710.501465 1274.305786 3278.395752 0.018382 -0.907948 -0.418679
7610.015137 1084.338257 3685.947510 0.018382 -0.907948 -0.418679
7422.005859 1299.425659 3211.254395 0.018382 -0.907948 -0.418679
7736.177734 1280.015991 3440.254639 0.773822 -0.625349 -0.100693
7610.015137 1084.338257 3685.947510 0.773822 -0.625349 -0.100693
7710.501465 1274.305786 3278.395752 0.773822 -0.625349 -0.100693
7610.015137 1084.338257 3685.947510 0.912347 -0.085505 0.400389
7736.177734 1280.015991 3440.254639 0.912347 -0.085505 0.400389
7523.414551 1160.266479 3899.495117 0.912347 -0.085505 0.400389
7736.177734 1280.015991 3440.254639 0.218680 0.914710 0.339829
7234.548340 1449.931641 3305.695312 0.218680 0.914710 0.339829
7523.414551 1160.266479 3899.495117 0.218680 0.914710 0.339829
7077.884766 1265.361084 3972.613281 0.266542 0.910989 0.314730
7523.414551 1160.266479 3899.495117 0.266542 0.910989 0.314730
7234.548340 1449.931641 3305.695312 0.266542 0.910989 0.314730
7131.302246 1206.966919 3608.149414 -0.965430 0.195181 -0.172770
7077.884766 1265.361084 3972.613281 -0.965430 0.195181 -0.172770
7234.548340 1449.931641 3305.695312 -0.965430 0.195181 -0.172770
7523.414551 1160.266479 3899.495117 0.812715 -0.360490 0.457757
7219.530273 1022.582703 4330.591797 0.812715 -0.360490 0.457757
7610.015137 1084.338257 3685.947510 0.812715 -0.360490 0.457757
6945.497559 1056.201782 4375.779297 -0.950192 0.254413 -0.180026
7077.884766 1265.361084 3972.613281 -0.950192 0.254413 -0.180026
7131.302246 1206.966919 3608.149414 -0.950192 0.254413 -0.180026
6945.497559 1056.201782 4375.779297 -0.204939 -0.949857 -0.236161
7131.302246 1206.966919 3608.149414 -0.204939 -0.949857 -0.236161
7610.015137 1084.338257 3685.947510 -0.204939 -0.949857 -0.236161
6951.466309 1205.538696 4421.956055 0.255697 0.946281 0.197919
7523.414551 1160.266479 3899.495117 0.255697 0.946281 0.197919
7077.884766 1265.361084 3972.613281 0.255697 0.946281 0.197919
6945.497559 1056.201782 4375.779297 -0.959964 0.117060 -0.254492
6951.466309 1205.538696 4421.956055 -0.959964 0.117060 -0.254492
7077.884766 1265.361084 3972.613281 -0.959964 0.117060 -0.254492
6945.497559 1056.201782 4375.779297 -0.149472 -0.971568 -0.183615
7610.015137 1084.338257 3685.947510 -0.149472 -0.971568 -0.183615
7219.530273 1022.582703 4330.591797 -0.149472 -0.971568 -0.183615
7219.530273 1022.582703 4330.591797 0.826377 -0.077561 0.557750
7523.414551 1160.266479 3899.495117 0.826377 -0.077561 0.557750
7202.738770 1147.979370 4372.908203 0.826377 -0.077561 0.557750
7202.738770 1147.979370 4372.908203 0.255364 0.946450 0.197540
7523.414551 1160.266479 3899.495117 0.255364 0.946450 0.197540
6951.466309 1205.538696 4421.956055 0.255364 0.946450 0.197540
6945.497559 1056.201782 4375.779297 -0.970631 -0.034811 0.238043
6962.933594 1100.712524 4453.384766 -0.970631 -0.034811 0.238043
6951.466309 1205.538696 4421.956055 -0.970631 -0.034811 0.238043
6962.933594 1100.712524 4453.384766 -0.023440 -0.864928 0.501348
6945.497559 1056.201782 4375.779297 -0.023440 -0.864928 0.501348
7219.530273 1022.582703 4330.591797 -0.023440 -0.864928 0.501348
7202.738770 1147.979370 4372.908203 0.352570 -0.256486 0.899950
6962.933594 1100.712524 4453.384766 0.352570 -0.256486 0.899950
7219.530273 1022.582703 4330.591797 0.352570 -0.256486 0.899950
7202.738770 1147.979370 4372.908203 0.248975 0.303033 0.919882
6951.466309 1205.538696 4421.956055 0.248975 0.303033 0.919882
6962.933594 1100.712524 4453.384766 0.248975 0.303033 0.919882
7145.319824 1153.347656 6965.238770 0.091152 -0.289770 -0.952746
6929.969238 1051.734131 6975.540527 0.091152 -0.289770 -0.952746
6936.383301 1175.262817 6938.583984 0.091152 -0.289770 -0.952746
7163.493164 1004.210815 7012.057129 0.090407 -0.288245 -0.953279
6929.969238 1051.734131 6975.540527 0.090407 -0.288245 -0.953279
7145.319824 1153.347656 6965.238770 0.090407 -0.288245 -0.953279
7163.493164 1004.210815 7012.057129 0.802343 -0.087574 -0.590404
7145.319824 1153.347656 6965.238770 0.802343 -0.087574 -0.590404
7623.967773 1144.482544 7617.022949 0.802343 -0.087574 -0.590404
7124.174316 1307.800659 7609.279297 -0.961683 0.123207 0.244919
6936.383301 1175.262817 6938.583984 -0.961683 0.123207 0.244919
6929.969238 1051.734131 6975.540527 -0.961683 0.123207 0.244919
7145.319824 1153.347656 6965.238770 0.130211 0.965109 -0.227176
6936.383301 1175.262817 6938.583984 0.130211 0.965109 -0.227176
7124.174316 1307.800659 7609.279297 0.130211 0.965109 -0.227176
7688.737305 1119.369507 7840.006836 -0.233065 -0.932030 0.277489
6929.969238 1051.734131 6975.540527 -0.233065 -0.932030 0.277489
7163.493164 1004.210815 7012.057129 -0.233065 -0.932030 0.277489
7145.319824 1153.347656 6965.238770 0.306490 0.927861 -0.212456
7124.174316 1307.800659 7609.279297 0.306490 0.927861 -0.212456
7623.967773 1144.482544 7617.022949 0.306490 0.927861 -0.212456
7163.493164 1004.210815 7012.057129 0.571258 -0.780533 -0.253837
7623.967773 1144.482544 7617.022949 0.571258 -0.780533 -0.253837
7688.737305 1119.369507 7840.006836 0.571258 -0.780533 -0.253837
6929.969238 1051.734131 6975.540527 -0.218333 -0.939171 0.265118
7688.737305 1119.369507 7840.006836 -0.218333 -0.939171 0.265118
7198.544434 1278.108276 7998.643555 -0.218333 -0.939171 0.265118
7623.967773 1144.482544 7617.022949 0.290157 0.868941 -0.400937
7124.174316 1307.800659 7609.279297 0.290157 0.868941 -0.400937
7504.202148 1402.979736 8090.583008 0.290157 0.868941 -0.400937
7738.735840 1238.036987 7874.499023 0.229251 0.877584 -0.421059
7623.967773 1144.482544 7617.022949 0.229251 0.877584 -0.421059
7504.202148 1402.979736 8090.583008 0.229251 0.877584 -0.421059
7124.174316 1307.800659 7609.279297 -0.894448 0.436349 0.097788
6929.969238 1051.734131 6975.540527 -0.894448 0.436349 0.097788
7221.145996 1394.497437 8109.403320 -0.894448 0.436349 0.097788
7623.967773 1144.482544 7617.022949 0.907783 -0.296143 -0.297034
7738.735840 1238.036987 7874.499023 0.907783 -0.296143 -0.297034
7688.737305 1119.369507 7840.006836 0.907783 -0.296143 -0.297034
6929.969238 1051.734131 6975.540527 -0.961225 -0.067728 0.267317
7198.544434 1278.108276 7998.643555 -0.961225 -0.067728 0.267317
7221.145996 1394.497437 8109.403320 -0.961225 -0.067728 0.267317
7229.596680 1432.571655 7971.255371 -0.866498 0.492287 0.082672
7124.174316 1307.800659 7609.279297 -0.866498 0.492287 0.082672
7221.145996 1394.497437 8109.403320 -0.866498 0.492287 0.082672
7504.202148 1402.979736 8090.583008 0.261408 0.886542 -0.381718
7124.174316 1307.800659 7609.279297 0.261408 0.886542 -0.381718
7229.596680 1432.571655 7971.255371 0.261408 0.886542 -0.381718
7688.737305 1119.369507 7840.006836 0.840958 -0.444155 0.309057
7738.735840 1238.036987 7874.499023 0.840958 -0.444155 0.309057
7657.733398 1254.117676 8118.020508 0.840958 -0.444155 0.309057
7688.737305 1119.369507 7840.006836 -0.155153 -0.895657 0.416806
7657.733398 1254.117676 8118.020508 -0.155153 -0.895657 0.416806
7198.544434 1278.108276 7998.643555 -0.155153 -0.895657 0.416806
7657.733398 1254.117676 8118.020508 0.669095 0.722312 0.174864
7738.735840 1238.036987 7874.499023 0.669095 0.722312 0.174864
7504.202148 1402.979736 8090.583008 0.669095 0.722312 0.174864
7229.596680 1432.571655 7971.255371 -0.011271 0.964171 0.265041
7221.145996 1394.497437 8109.403320 -0.011271 0.964171 0.265041
7504.202148 1402.979736 8090.583008 -0.011271 0.964171 0.265041
7221.145996 1394.497437 8109.403320 -0.223015 -0.648935 0.727425
7198.544434 1278.108276 7998.643555 -0.223015 -0.648935 0.727425
7657.733398 1254.117676 8118.020508 -0.223015 -0.648935 0.727425
7657.733398 1254.117676 8118.020508 0.057341 0.237853 0.969607
7504.202148 1402.979736 8090.583008 0.057341 0.237853 0.969607
7221.145996 1394.497437 8109.403320 0.057341 0.237853 0.969607
3 0 1 2
3 3 4 5
3 6 7 8
3 9 10 11
3 12 13 14
3 15 16 17
3 18 19 20
3 21 22 23
3 24 25 26
3 27 28 29
3 30 31 32
3 33 34 35
3 36 37 38
3 39 40 41
3 42 43 44
3 45 46 47
3 48 49 50
3 51 52 53
3 54 55 56
3 57 58 59
3 60 61 62
3 63 64 65
3 66 67 68
3 69 70 71
3 72 73 74
3 75 76 77
3 78 79 80
3 81 82 83
3 84 85 86
3 87 88 89
3 90 91 92
3 93 94 95
3 96 97 98
3 99 100 101
3 102 103 104
3 105 106 107
3 108 109 110
3 111 112 113
3 114 115 116
3 117 118 119
3 120 121 122
3 123 124 125
3 126 127 128
3 129 130 131
