ply
format ascii 1.0
comment Created by Blender 2.80 (sub 75) - www.blender.org, source file: 'downsample_ccf.blend'
element vertex 168
property float x
property float y
property float z
property float nx
property float ny
property float nz
element face 56
property list uchar uint vertex_indices
end_header
7350.272461 1123.504395 3124.584473 -0.316721 0.234006 -0.919200
7132.166992 1181.017944 3214.376709 -0.316721 0.234006 -0.919200
7197.687500 1301.273682 3222.415039 -0.316721 0.234006 -0.919200
7618.411621 1209.430420 3217.486816 0.110426 0.550262 -0.827658
7350.272461 1123.504395 3124.584473 0.110426 0.550262 -0.827658
7197.687500 1301.273682 3222.415039 0.110426 0.550262 -0.827658
7350.272461 1123.504395 3124.584473 0.253778 0.225138 -0.940696
7618.411621 1209.430420 3217.486816 0.253778 0.225138 -0.940696
7678.923340 1055.612549 3196.998047 0.253778 0.225138 -0.940696
7350.272461 1123.504395 3124.584473 -0.398582 -0.793478 -0.459919
7039.550781 991.276978 3621.993164 -0.398582 -0.793478 -0.459919
7132.166992 1181.017944 3214.376709 -0.398582 -0.793478 -0.459919
7350.272461 1123.504395 3124.584473 -0.092534 -0.900694 -0.424485
7678.923340 1055.612549 3196.998047 -0.092534 -0.900694 -0.424485
7634.770508 882.723206 3573.468506 -0.092534 -0.900694 -0.424485
7618.411621 1209.430420 3217.486816 0.894477 0.382685 -0.231222
7725.805664 1098.232300 3448.898926 0.894477 0.382685 -0.231222
7678.923340 1055.612549 3196.998047 0.894477 0.382685 -0.231222
7618.411621 1209.430420 3217.486816 0.204005 0.915986 0.345475
7197.687500 1301.273682 3222.415039 0.204005 0.915986 0.345475
7725.805664 1098.232300 3448.898926 0.204005 0.915986 0.345475
7350.272461 1123.504395 3124.584473 -0.195748 -0.910471 -0.364313
7634.770508 882.723206 3573.468506 -0.195748 -0.910471 -0.364313
7039.550781 991.276978 3621.993164 -0.195748 -0.910471 -0.364313
7725.805664 1098.232300 3448.898926 0.896587 -0.432857 -0.093631
7634.770508 882.723206 3573.468506 0.896587 -0.432857 -0.093631
7678.923340 1055.612549 3196.998047 0.896587 -0.432857 -0.093631
7132.166992 1181.017944 3214.376709 -0.872705 0.481065 -0.083439
7085.795898 1172.396851 3649.675781 -0.872705 0.481065 -0.083439
7197.687500 1301.273682 3222.415039 -0.872705 0.481065 -0.083439
7593.969238 964.273987 3737.069824 0.922858 -0.199357 0.329530
7634.770508 882.723206 3573.468506 0.922858 -0.199357 0.329530
7725.805664 1098.232300 3448.898926 0.922858 -0.199357 0.329530
7197.687500 1301.273682 3222.415039 0.210826 0.919241 0.332487
7085.795898 1172.396851 3649.675781 0.210826 0.919241 0.332487
7725.805664 1098.232300 3448.898926 0.210826 0.919241 0.332487
7039.550781 991.276978 3621.993164 -0.974312 -0.007916 -0.225062
6856.304688 960.217285 4416.372070 -0.974312 -0.007916 -0.225062
7132.166992 1181.017944 3214.376709 -0.974312 -0.007916 -0.225062
7132.166992 1181.017944 3214.376709 -0.797720 0.598578 -0.073124
6856.304688 960.217285 4416.372070 -0.797720 0.598578 -0.073124
7085.795898 1172.396851 3649.675781 -0.797720 0.598578 -0.073124
7039.550781 991.276978 3621.993164 -0.195191 -0.926649 -0.321282
7634.770508 882.723206 3573.468506 -0.195191 -0.926649 -0.321282
7119.888184 725.627136 4339.379395 -0.195191 -0.926649 -0.321282
6823.404785 778.313477 4391.873535 -0.956107 0.201568 -0.212672
6856.304688 960.217285 4416.372070 -0.956107 0.201568 -0.212672
7039.550781 991.276978 3621.993164 -0.956107 0.201568 -0.212672
7725.805664 1098.232300 3448.898926 0.761627 0.379847 0.525014
7241.961914 960.842346 4250.202148 0.761627 0.379847 0.525014
7593.969238 964.273987 3737.069824 0.761627 0.379847 0.525014
7085.795898 1172.396851 3649.675781 -0.513828 0.853916 0.082516
6856.304688 960.217285 4416.372070 -0.513828 0.853916 0.082516
6960.579102 1032.329956 4319.432129 -0.513828 0.853916 0.082516
7085.795898 1172.396851 3649.675781 0.184050 0.954643 0.234055
6960.579102 1032.329956 4319.432129 0.184050 0.954643 0.234055
7725.805664 1098.232300 3448.898926 0.184050 0.954643 0.234055
7634.770508 882.723206 3573.468506 0.775549 -0.466105 0.425758
7593.969238 964.273987 3737.069824 0.775549 -0.466105 0.425758
7119.888184 725.627136 4339.379395 0.775549 -0.466105 0.425758
6823.404785 778.313477 4391.873535 -0.220064 -0.922549 -0.316978
7039.550781 991.276978 3621.993164 -0.220064 -0.922549 -0.316978
7119.888184 725.627136 4339.379395 -0.220064 -0.922549 -0.316978
7725.805664 1098.232300 3448.898926 0.309150 0.888535 0.339018
6960.579102 1032.329956 4319.432129 0.309150 0.888535 0.339018
7241.961914 960.842346 4250.202148 0.309150 0.888535 0.339018
7593.969238 964.273987 3737.069824 0.806980 -0.209462 0.552185
7241.961914 960.842346 4250.202148 0.806980 -0.209462 0.552185
7119.888184 725.627136 4339.379395 0.806980 -0.209462 0.552185
7119.888184 725.627136 4339.379395 0.680941 -0.077299 0.728247
7241.961914 960.842346 4250.202148 0.680941 -0.077299 0.728247
7054.416504 908.319885 4419.989746 0.680941 -0.077299 0.728247
6960.579102 1032.329956 4319.432129 0.332267 0.732864 0.593724
7054.416504 908.319885 4419.989746 0.332267 0.732864 0.593724
7241.961914 960.842346 4250.202148 0.332267 0.732864 0.593724
7054.416504 908.319885 4419.989746 0.097240 -0.372396 0.922965
6823.404785 778.313477 4391.873535 0.097240 -0.372396 0.922965
7119.888184 725.627136 4339.379395 0.097240 -0.372396 0.922965
7054.416504 908.319885 4419.989746 -0.050657 -0.124298 0.990951
6856.304688 960.217285 4416.372070 -0.050657 -0.124298 0.990951
6823.404785 778.313477 4391.873535 -0.050657 -0.124298 0.990951
6960.579102 1032.329956 4319.432129 0.169259 0.694847 0.698955
6856.304688 960.217285 4416.372070 0.169259 0.694847 0.698955
7054.416504 908.319885 4419.989746 0.169259 0.694847 0.698955
6867.515137 974.109070 6945.004883 0.131307 -0.181435 -0.974597
7100.498535 740.751465 7019.837402 0.131307 -0.181435 -0.974597
6825.737793 783.754150 6974.813477 0.131307 -0.181435 -0.974597
7184.110840 950.681946 7060.402344 0.344984 0.043768 -0.937587
7100.498535 740.751465 7019.837402 0.344984 0.043768 -0.937587
6867.515137 974.109070 6945.004883 0.344984 0.043768 -0.937587
7184.110840 950.681946 7060.402344 0.189022 0.924544 -0.330893
6867.515137 974.109070 6945.004883 0.189022 0.924544 -0.330893
6978.159668 1071.663086 7280.785156 0.189022 0.924544 -0.330893
7404.178223 803.828308 7439.520508 0.806308 -0.214636 -0.551180
7100.498535 740.751465 7019.837402 0.806308 -0.214636 -0.551180
7184.110840 950.681946 7060.402344 0.806308 -0.214636 -0.551180
6825.737793 783.754150 6974.813477 -0.190336 -0.947632 0.256447
7100.498535 740.751465 7019.837402 -0.190336 -0.947632 0.256447
7466.239746 879.445557 7803.800781 -0.190336 -0.947632 0.256447
6825.737793 783.754150 6974.813477 -0.939958 0.243708 0.238926
6978.159668 1071.663086 7280.785156 -0.939958 0.243708 0.238926
6867.515137 974.109070 6945.004883 -0.939958 0.243708 0.238926
7404.178223 803.828308 7439.520508 -0.100503 -0.970624 0.218604
7466.239746 879.445557 7803.800781 -0.100503 -0.970624 0.218604
7100.498535 740.751465 7019.837402 -0.100503 -0.970624 0.218604
6825.737793 783.754150 6974.813477 -0.255041 -0.918215 0.303044
7466.239746 879.445557 7803.800781 -0.255041 -0.918215 0.303044
6948.064453 901.193909 7433.602539 -0.255041 -0.918215 0.303044
7184.110840 950.681946 7060.402344 0.814409 -0.192669 -0.547373
7714.714355 1024.045654 7824.038086 0.814409 -0.192669 -0.547373
7404.178223 803.828308 7439.520508 0.814409 -0.192669 -0.547373
6825.737793 783.754150 6974.813477 -0.933852 0.315644 0.168195
6948.064453 901.193909 7433.602539 -0.933852 0.315644 0.168195
6978.159668 1071.663086 7280.785156 -0.933852 0.315644 0.168195
6948.064453 901.193909 7433.602539 -0.952493 0.278552 0.123147
7124.292480 1202.705200 8114.650879 -0.952493 0.278552 0.123147
6978.159668 1071.663086 7280.785156 -0.952493 0.278552 0.123147
6978.159668 1071.663086 7280.785156 0.226928 0.927493 -0.297087
7169.993652 1275.396362 8063.361816 0.226928 0.927493 -0.297087
7184.110840 950.681946 7060.402344 0.226928 0.927493 -0.297087
7404.178223 803.828308 7439.520508 0.810489 -0.406491 -0.421749
7714.714355 1024.045654 7824.038086 0.810489 -0.406491 -0.421749
7687.262207 922.130859 7869.510254 0.810489 -0.406491 -0.421749
6978.159668 1071.663086 7280.785156 -0.826640 0.559849 0.056886
7124.292480 1202.705200 8114.650879 -0.826640 0.559849 0.056886
7169.993652 1275.396362 8063.361816 -0.826640 0.559849 0.056886
7466.239746 879.445557 7803.800781 -0.298813 -0.881133 0.366491
7178.820312 1148.893799 8217.277344 -0.298813 -0.881133 0.366491
6948.064453 901.193909 7433.602539 -0.298813 -0.881133 0.366491
7683.358398 1177.499146 8109.197266 0.204441 0.932127 -0.298904
7184.110840 950.681946 7060.402344 0.204441 0.932127 -0.298904
7169.993652 1275.396362 8063.361816 0.204441 0.932127 -0.298904
7683.358398 1177.499146 8109.197266 0.444077 0.808468 -0.386233
7714.714355 1024.045654 7824.038086 0.444077 0.808468 -0.386233
7184.110840 950.681946 7060.402344 0.444077 0.808468 -0.386233
7404.178223 803.828308 7439.520508 0.134895 -0.974501 0.179305
7687.262207 922.130859 7869.510254 0.134895 -0.974501 0.179305
7466.239746 879.445557 7803.800781 0.134895 -0.974501 0.179305
6948.064453 901.193909 7433.602539 -0.902940 -0.254492 0.346312
7178.820312 1148.893799 8217.277344 -0.902940 -0.254492 0.346312
7124.292480 1202.705200 8114.650879 -0.902940 -0.254492 0.346312
7676.908691 1058.408936 8184.123047 0.994582 0.011162 0.103357
7714.714355 1024.045654 7824.038086 0.994582 0.011162 0.103357
7683.358398 1177.499146 8109.197266 0.994582 0.011162 0.103357
7714.714355 1024.045654 7824.038086 0.970706 -0.207179 0.121687
7676.908691 1058.408936 8184.123047 0.970706 -0.207179 0.121687
7687.262207 922.130859 7869.510254 0.970706 -0.207179 0.121687
7687.262207 922.130859 7869.510254 0.058331 -0.915349 0.398413
7676.908691 1058.408936 8184.123047 0.058331 -0.915349 0.398413
7466.239746 879.445557 7803.800781 0.058331 -0.915349 0.398413
7178.820312 1148.893799 8217.277344 -0.125989 -0.868913 0.478662
7466.239746 879.445557 7803.800781 -0.125989 -0.868913 0.478662
7676.908691 1058.408936 8184.123047 -0.125989 -0.868913 0.478662
7259.037598 1268.132690 8205.928711 -0.609218 0.675784 0.414934
7169.993652 1275.396362 8063.361816 -0.609218 0.675784 0.414934
7124.292480 1202.705200 8114.650879 -0.609218 0.675784 0.414934
7169.993652 1275.396362 8063.361816 0.192936 0.978665 -0.070641
7259.037598 1268.132690 8205.928711 0.192936 0.978665 -0.070641
7683.358398 1177.499146 8109.197266 0.192936 0.978665 -0.070641
7259.037598 1268.132690 8205.928711 0.292465 0.497842 0.816467
7676.908691 1058.408936 8184.123047 0.292465 0.497842 0.816467
7683.358398 1177.499146 8109.197266 0.292465 0.497842 0.816467
7178.820312 1148.893799 8217.277344 -0.639473 0.486835 0.595035
7259.037598 1268.132690 8205.928711 -0.639473 0.486835 0.595035
7124.292480 1202.705200 8114.650879 -0.639473 0.486835 0.595035
7676.908691 1058.408936 8184.123047 0.074439 0.044738 0.996222
7259.037598 1268.132690 8205.928711 0.074439 0.044738 0.996222
7178.820312 1148.893799 8217.277344 0.074439 0.044738 0.996222
3 0 1 2
3 3 4 5
3 6 7 8
3 9 10 11
3 12 13 14
3 15 16 17
3 18 19 20
3 21 22 23
3 24 25 26
3 27 28 29
3 30 31 32
3 33 34 35
3 36 37 38
3 39 40 41
3 42 43 44
3 45 46 47
3 48 49 50
3 51 52 53
3 54 55 56
3 57 58 59
3 60 61 62
3 63 64 65
3 66 67 68
3 69 70 71
3 72 73 74
3 75 76 77
3 78 79 80
3 81 82 83
3 84 85 86
3 87 88 89
3 90 91 92
3 93 94 95
3 96 97 98
3 99 100 101
3 102 103 104
3 105 106 107
3 108 109 110
3 111 112 113
3 114 115 116
3 117 118 119
3 120 121 122
3 123 124 125
3 126 127 128
3 129 130 131
3 132 133 134
3 135 136 137
3 138 139 140
3 141 142 143
3 144 145 146
3 147 148 149
3 150 151 152
3 153 154 155
3 156 157 158
3 159 160 161
3 162 163 164
3 165 166 167
