ply
format ascii 1.0
comment Created by Blender 2.80 (sub 75) - www.blender.org, source file: 'downsample_ccf.blend'
element vertex 90
property float x
property float y
property float z
property float nx
property float ny
property float nz
element face 30
property list uchar uint vertex_indices
end_header
7305.840820 342.768402 4022.062744 -0.466744 -0.717341 -0.517274
7733.990723 533.915466 3370.659180 -0.466744 -0.717341 -0.517274
7761.941406 425.689941 3495.522949 -0.466744 -0.717341 -0.517274
7761.941406 425.689941 3495.522949 0.942576 -0.117340 -0.312700
7733.990723 533.915466 3370.659180 0.942576 -0.117340 -0.312700
7888.336914 419.704346 3878.765137 0.942576 -0.117340 -0.312700
7451.450195 445.235809 3857.298584 -0.770973 0.531574 -0.350755
7733.990723 533.915466 3370.659180 -0.770973 0.531574 -0.350755
7305.840820 342.768402 4022.062744 -0.770973 0.531574 -0.350755
8040.891602 344.811096 4163.471191 0.746672 0.621712 -0.236547
7761.941406 425.689941 3495.522949 0.746672 0.621712 -0.236547
7888.336914 419.704346 3878.765137 0.746672 0.621712 -0.236547
7761.941406 425.689941 3495.522949 0.801335 -0.453937 -0.389621
8040.891602 344.811096 4163.471191 0.801335 -0.453937 -0.389621
8012.039551 250.501801 4214.008301 0.801335 -0.453937 -0.389621
7888.336914 419.704346 3878.765137 0.047032 0.977538 0.205442
7733.990723 533.915466 3370.659180 0.047032 0.977538 0.205442
7451.450195 445.235809 3857.298584 0.047032 0.977538 0.205442
7761.941406 425.689941 3495.522949 -0.069293 -0.974485 -0.213488
8012.039551 250.501801 4214.008301 -0.069293 -0.974485 -0.213488
7305.840820 342.768402 4022.062744 -0.069293 -0.974485 -0.213488
7305.840820 342.768402 4022.062744 -0.793722 0.419270 -0.440702
7180.515137 383.925415 4286.935059 -0.793722 0.419270 -0.440702
7451.450195 445.235809 3857.298584 -0.793722 0.419270 -0.440702
8012.039551 250.501801 4214.008301 -0.091204 -0.986156 -0.138483
7188.169922 320.947235 4254.952148 -0.091204 -0.986156 -0.138483
7305.840820 342.768402 4022.062744 -0.091204 -0.986156 -0.138483
7305.840820 342.768402 4022.062744 -0.890923 0.114852 -0.439391
7188.169922 320.947235 4254.952148 -0.890923 0.114852 -0.439391
7180.515137 383.925415 4286.935059 -0.890923 0.114852 -0.439391
8040.891602 344.811096 4163.471191 0.045428 0.971821 0.231300
7888.336914 419.704346 3878.765137 0.045428 0.971821 0.231300
7451.450195 445.235809 3857.298584 0.045428 0.971821 0.231300
8040.891602 344.811096 4163.471191 0.071067 0.980223 0.184696
7451.450195 445.235809 3857.298584 0.071067 0.980223 0.184696
7180.515137 383.925415 4286.935059 0.071067 0.980223 0.184696
8012.039551 250.501801 4214.008301 0.147325 0.431778 0.889867
8040.891602 344.811096 4163.471191 0.147325 0.431778 0.889867
7180.515137 383.925415 4286.935059 0.147325 0.431778 0.889867
8012.039551 250.501801 4214.008301 0.005654 -0.452244 0.891876
7180.515137 383.925415 4286.935059 0.005654 -0.452244 0.891876
7188.169922 320.947235 4254.952148 0.005654 -0.452244 0.891876
8049.725586 291.917938 7156.663086 0.089607 0.206490 -0.974337
7190.594238 324.658600 7084.590332 0.089607 0.206490 -0.974337
8040.369141 343.398926 7166.712891 0.089607 0.206490 -0.974337
8040.369141 343.398926 7166.712891 0.068205 0.551246 -0.831551
7190.594238 324.658600 7084.590332 0.068205 0.551246 -0.831551
7181.214355 385.009125 7123.828125 0.068205 0.551246 -0.831551
7190.594238 324.658600 7084.590332 -0.989118 -0.069381 -0.129738
7179.083984 344.703491 7161.624512 -0.989118 -0.069381 -0.129738
7181.214355 385.009125 7123.828125 -0.989118 -0.069381 -0.129738
8043.563477 254.182159 7186.487793 0.041710 -0.623715 -0.780538
7190.594238 324.658600 7084.590332 0.041710 -0.623715 -0.780538
8049.725586 291.917938 7156.663086 0.041710 -0.623715 -0.780538
7602.340820 306.549774 7473.266602 -0.240491 -0.947525 0.210620
7179.083984 344.703491 7161.624512 -0.240491 -0.947525 0.210620
7190.594238 324.658600 7084.590332 -0.240491 -0.947525 0.210620
8043.563477 254.182159 7186.487793 -0.087787 -0.995047 0.046637
7602.340820 306.549774 7473.266602 -0.087787 -0.995047 0.046637
7190.594238 324.658600 7084.590332 -0.087787 -0.995047 0.046637
8043.563477 254.182159 7186.487793 0.938471 0.106425 0.328553
8049.725586 291.917938 7156.663086 0.938471 0.106425 0.328553
8040.369141 343.398926 7166.712891 0.938471 0.106425 0.328553
7181.214355 385.009125 7123.828125 0.057313 0.978333 -0.198945
7742.833984 526.300903 7980.439941 0.057313 0.978333 -0.198945
8040.369141 343.398926 7166.712891 0.057313 0.978333 -0.198945
7181.214355 385.009125 7123.828125 -0.778916 0.450393 0.436391
7179.083984 344.703491 7161.624512 -0.778916 0.450393 0.436391
7742.833984 526.300903 7980.439941 -0.778916 0.450393 0.436391
7602.340820 306.549774 7473.266602 -0.341730 -0.869053 0.357725
7682.331543 470.604370 7948.233398 -0.341730 -0.869053 0.357725
7179.083984 344.703491 7161.624512 -0.341730 -0.869053 0.357725
7838.786621 404.547607 7725.286621 0.938960 0.106151 0.327239
8043.563477 254.182159 7186.487793 0.938960 0.106151 0.327239
8040.369141 343.398926 7166.712891 0.938960 0.106151 0.327239
7179.083984 344.703491 7161.624512 -0.728018 0.574699 0.373779
7682.331543 470.604370 7948.233398 -0.728018 0.574699 0.373779
7742.833984 526.300903 7980.439941 -0.728018 0.574699 0.373779
7742.833984 526.300903 7980.439941 0.941261 0.038835 0.335438
7838.786621 404.547607 7725.286621 0.941261 0.038835 0.335438
8040.369141 343.398926 7166.712891 0.941261 0.038835 0.335438
8043.563477 254.182159 7186.487793 0.079271 -0.951956 0.295795
7838.786621 404.547607 7725.286621 0.079271 -0.951956 0.295795
7602.340820 306.549774 7473.266602 0.079271 -0.951956 0.295795
7602.340820 306.549774 7473.266602 0.053426 -0.946598 0.317959
7838.786621 404.547607 7725.286621 0.053426 -0.946598 0.317959
7682.331543 470.604370 7948.233398 0.053426 -0.946598 0.317959
7838.786621 404.547607 7725.286621 0.416381 -0.749724 0.514335
7742.833984 526.300903 7980.439941 0.416381 -0.749724 0.514335
7682.331543 470.604370 7948.233398 0.416381 -0.749724 0.514335
3 0 1 2
3 3 4 5
3 6 7 8
3 9 10 11
3 12 13 14
3 15 16 17
3 18 19 20
3 21 22 23
3 24 25 26
3 27 28 29
3 30 31 32
3 33 34 35
3 36 37 38
3 39 40 41
3 42 43 44
3 45 46 47
3 48 49 50
3 51 52 53
3 54 55 56
3 57 58 59
3 60 61 62
3 63 64 65
3 66 67 68
3 69 70 71
3 72 73 74
3 75 76 77
3 78 79 80
3 81 82 83
3 84 85 86
3 87 88 89
