ply
format ascii 1.0
comment Created by Blender 2.80 (sub 75) - www.blender.org, source file: 'downsample_ccf.blend'
element vertex 81
property float x
property float y
property float z
property float nx
property float ny
property float nz
element face 27
property list uchar uint vertex_indices
end_header
5799.718262 4552.714355 1957.111328 0.163416 0.674759 -0.719719
6988.894043 3994.083496 1703.386108 0.163416 0.674759 -0.719719
6864.791992 4046.530762 1724.379028 0.163416 0.674759 -0.719719
6890.539551 4601.527344 1757.483276 -0.182222 0.057909 -0.981551
6988.894043 3994.083496 1703.386108 -0.182222 0.057909 -0.981551
5799.718262 4552.714355 1957.111328 -0.182222 0.057909 -0.981551
6988.894043 3994.083496 1703.386108 0.052281 -0.080183 0.995408
6890.539551 4601.527344 1757.483276 0.052281 -0.080183 0.995408
6721.326172 4156.428711 1730.516724 0.052281 -0.080183 0.995408
5799.718262 4552.714355 1957.111328 0.280928 0.876659 -0.390574
6721.326172 4156.428711 1730.516724 0.280928 0.876659 -0.390574
6132.236816 4383.182617 1815.760986 0.280928 0.876659 -0.390574
6721.326172 4156.428711 1730.516724 0.072906 -0.179411 0.981069
6479.066406 4645.994629 1838.048096 0.072906 -0.179411 0.981069
6132.236816 4383.182617 1815.760986 0.072906 -0.179411 0.981069
6890.539551 4601.527344 1757.483276 0.177411 -0.126576 0.975963
6479.066406 4645.994629 1838.048096 0.177411 -0.126576 0.975963
6721.326172 4156.428711 1730.516724 0.177411 -0.126576 0.975963
5799.718262 4552.714355 1957.111328 -0.377101 0.032107 -0.925616
6132.236816 4383.182617 1815.760986 -0.377101 0.032107 -0.925616
5703.151367 4465.225586 1993.418457 -0.377101 0.032107 -0.925616
6132.236816 4383.182617 1815.760986 0.241392 -0.393777 0.886944
6479.066406 4645.994629 1838.048096 0.241392 -0.393777 0.886944
5733.275879 4463.426758 1959.968750 0.241392 -0.393777 0.886944
6479.066406 4645.994629 1838.048096 0.185882 -0.107065 0.976722
5799.718262 4552.714355 1957.111328 0.185882 -0.107065 0.976722
5733.275879 4463.426758 1959.968750 0.185882 -0.107065 0.976722
6019.701660 4653.522949 9498.613281 0.414352 -0.906183 0.084525
5637.626465 4468.376953 9386.664062 0.414352 -0.906183 0.084525
5602.123535 4447.967773 9341.899414 0.414352 -0.906183 0.084525
5972.655273 4633.988281 9478.632812 0.462382 -0.881319 -0.097367
5809.528809 4549.784668 9466.139648 0.462382 -0.881319 -0.097367
5637.626465 4468.376953 9386.664062 0.462382 -0.881319 -0.097367
6019.701660 4653.522949 9498.613281 -0.492104 0.770243 0.405659
5972.655273 4633.988281 9478.632812 -0.492104 0.770243 0.405659
5637.626465 4468.376953 9386.664062 -0.492104 0.770243 0.405659
5602.123535 4447.967773 9341.899414 -0.443270 0.896372 0.005400
5809.528809 4549.784668 9466.139648 -0.443270 0.896372 0.005400
6019.701660 4653.522949 9498.613281 -0.443270 0.896372 0.005400
6796.088867 4594.330566 9583.099609 0.131609 0.535979 -0.833910
5972.655273 4633.988281 9478.632812 0.131609 0.535979 -0.833910
6019.701660 4653.522949 9498.613281 0.131609 0.535979 -0.833910
6796.088867 4594.330566 9583.099609 0.103658 -0.324427 -0.940214
6201.711914 4378.186035 9592.152344 0.103658 -0.324427 -0.940214
5972.655273 4633.988281 9478.632812 0.103658 -0.324427 -0.940214
6201.711914 4378.186035 9592.152344 0.198451 -0.243602 -0.949355
5809.528809 4549.784668 9466.139648 0.198451 -0.243602 -0.949355
5972.655273 4633.988281 9478.632812 0.198451 -0.243602 -0.949355
6515.015137 4319.568848 9599.740234 0.010789 -0.071443 -0.997386
6201.711914 4378.186035 9592.152344 0.010789 -0.071443 -0.997386
6796.088867 4594.330566 9583.099609 0.010789 -0.071443 -0.997386
6796.088867 4594.330566 9583.099609 0.105824 -0.167618 -0.980156
6790.911133 4104.685059 9666.275391 0.105824 -0.167618 -0.980156
6515.015137 4319.568848 9599.740234 0.105824 -0.167618 -0.980156
6790.911133 4104.685059 9666.275391 0.364351 -0.159702 -0.917466
6796.088867 4594.330566 9583.099609 0.364351 -0.159702 -0.917466
6995.361328 4570.424316 9666.397461 0.364351 -0.159702 -0.917466
6515.015137 4319.568848 9599.740234 -0.172705 0.041846 0.984084
6019.701660 4653.522949 9498.613281 -0.172705 0.041846 0.984084
5809.528809 4549.784668 9466.139648 -0.172705 0.041846 0.984084
7009.423340 4178.839355 9668.165039 0.010056 -0.004153 -0.999941
6790.911133 4104.685059 9666.275391 0.010056 -0.004153 -0.999941
6995.361328 4570.424316 9666.397461 0.010056 -0.004153 -0.999941
7024.783203 4005.874268 9636.814453 -0.991707 -0.102194 0.077939
7033.635742 3964.055908 9694.623047 -0.991707 -0.102194 0.077939
7009.423340 4178.839355 9668.165039 -0.991707 -0.102194 0.077939
7033.635742 3964.055908 9694.623047 0.048203 -0.116764 -0.991989
6790.911133 4104.685059 9666.275391 0.048203 -0.116764 -0.991989
7009.423340 4178.839355 9668.165039 0.048203 -0.116764 -0.991989
7015.348145 4547.252441 9610.008789 -0.100150 0.099431 0.989992
6796.088867 4594.330566 9583.099609 -0.100150 0.099431 0.989992
6019.701660 4653.522949 9498.613281 -0.100150 0.099431 0.989992
7024.783203 4005.874268 9636.814453 -0.187783 -0.191296 0.963402
7009.423340 4178.839355 9668.165039 -0.187783 -0.191296 0.963402
6515.015137 4319.568848 9599.740234 -0.187783 -0.191296 0.963402
7009.423340 4178.839355 9668.165039 -0.091494 0.156707 0.983398
7015.348145 4547.252441 9610.008789 -0.091494 0.156707 0.983398
6515.015137 4319.568848 9599.740234 -0.091494 0.156707 0.983398
7015.348145 4547.252441 9610.008789 -0.092896 0.159816 0.982766
6019.701660 4653.522949 9498.613281 -0.092896 0.159816 0.982766
6515.015137 4319.568848 9599.740234 -0.092896 0.159816 0.982766
3 0 1 2
3 3 4 5
3 6 7 8
3 9 10 11
3 12 13 14
3 15 16 17
3 18 19 20
3 21 22 23
3 24 25 26
3 27 28 29
3 30 31 32
3 33 34 35
3 36 37 38
3 39 40 41
3 42 43 44
3 45 46 47
3 48 49 50
3 51 52 53
3 54 55 56
3 57 58 59
3 60 61 62
3 63 64 65
3 66 67 68
3 69 70 71
3 72 73 74
3 75 76 77
3 78 79 80
