ply
format ascii 1.0
comment Created by Blender 2.80 (sub 75) - www.blender.org, source file: 'downsample_ccf.blend'
element vertex 246
property float x
property float y
property float z
property float nx
property float ny
property float nz
element face 82
property list uchar uint vertex_indices
end_header
6957.713379 4500.327148 1082.486816 -0.092215 0.051702 -0.994396
6934.817383 4074.386963 1062.463989 -0.092215 0.051702 -0.994396
6183.188965 4514.306641 1155.039307 -0.092215 0.051702 -0.994396
6934.817383 4074.386963 1062.463989 -0.226627 -0.186017 -0.956053
5987.247559 4327.992676 1237.736938 -0.226627 -0.186017 -0.956053
6183.188965 4514.306641 1155.039307 -0.226627 -0.186017 -0.956053
6957.713379 4500.327148 1082.486816 0.788051 -0.013429 -0.615463
7031.449219 3987.976318 1188.078613 0.788051 -0.013429 -0.615463
6934.817383 4074.386963 1062.463989 0.788051 -0.013429 -0.615463
6934.817383 4074.386963 1062.463989 0.773985 -0.051857 -0.631077
7031.449219 3987.976318 1188.078613 0.773985 -0.051857 -0.631077
6969.675293 3812.055420 1126.771729 0.773985 -0.051857 -0.631077
6969.675293 3812.055420 1126.771729 -0.262784 -0.262519 -0.928455
6440.357910 4128.369629 1187.149292 -0.262784 -0.262519 -0.928455
6934.817383 4074.386963 1062.463989 -0.262784 -0.262519 -0.928455
6440.357910 4128.369629 1187.149292 -0.264956 -0.376436 -0.887747
5987.247559 4327.992676 1237.736938 -0.264956 -0.376436 -0.887747
6934.817383 4074.386963 1062.463989 -0.264956 -0.376436 -0.887747
6957.713379 4500.327148 1082.486816 -0.089130 0.162145 -0.982733
6183.188965 4514.306641 1155.039307 -0.089130 0.162145 -0.982733
6564.276855 4747.745117 1158.992188 -0.089130 0.162145 -0.982733
6941.438965 4689.704102 1154.206177 0.043109 0.357074 -0.933081
6957.713379 4500.327148 1082.486816 0.043109 0.357074 -0.933081
6564.276855 4747.745117 1158.992188 0.043109 0.357074 -0.933081
6564.276855 4747.745117 1158.992188 -0.175692 0.302680 -0.936759
6183.188965 4514.306641 1155.039307 -0.175692 0.302680 -0.936759
6049.726562 4848.090332 1287.920776 -0.175692 0.302680 -0.936759
6941.438965 4689.704102 1154.206177 0.147835 0.974554 -0.168492
6564.276855 4747.745117 1158.992188 0.147835 0.974554 -0.168492
6049.726562 4848.090332 1287.920776 0.147835 0.974554 -0.168492
7031.449219 3987.976318 1188.078613 0.966934 0.089979 -0.238625
6957.713379 4500.327148 1082.486816 0.966934 0.089979 -0.238625
7017.384766 4682.022461 1392.794556 0.966934 0.089979 -0.238625
6969.675293 3812.055420 1126.771729 0.943057 -0.257975 -0.209980
7031.449219 3987.976318 1188.078613 0.943057 -0.257975 -0.209980
7032.290527 3830.052490 1385.877075 0.943057 -0.257975 -0.209980
6440.357910 4128.369629 1187.149292 -0.501579 -0.858974 0.102871
6969.675293 3812.055420 1126.771729 -0.501579 -0.858974 0.102871
6477.500488 4136.381836 1435.151245 -0.501579 -0.858974 0.102871
5987.247559 4327.992676 1237.736938 -0.307310 -0.096994 -0.946654
5441.162598 4409.724121 1406.636841 -0.307310 -0.096994 -0.946654
6183.188965 4514.306641 1155.039307 -0.307310 -0.096994 -0.946654
7017.384766 4682.022461 1392.794556 0.937079 0.191162 -0.292130
6957.713379 4500.327148 1082.486816 0.937079 0.191162 -0.292130
6941.438965 4689.704102 1154.206177 0.937079 0.191162 -0.292130
6183.188965 4514.306641 1155.039307 -0.323039 0.015560 -0.946258
5441.162598 4409.724121 1406.636841 -0.323039 0.015560 -0.946258
5558.341797 4668.160156 1370.883179 -0.323039 0.015560 -0.946258
6183.188965 4514.306641 1155.039307 -0.254969 0.267928 -0.929089
5558.341797 4668.160156 1370.883179 -0.254969 0.267928 -0.929089
6049.726562 4848.090332 1287.920776 -0.254969 0.267928 -0.929089
6941.438965 4689.704102 1154.206177 0.171510 0.984917 -0.022883
6049.726562 4848.090332 1287.920776 0.171510 0.984917 -0.022883
7017.384766 4682.022461 1392.794556 0.171510 0.984917 -0.022883
6969.675293 3812.055420 1126.771729 -0.464327 -0.868693 0.172547
7032.290527 3830.052490 1385.877075 -0.464327 -0.868693 0.172547
6477.500488 4136.381836 1435.151245 -0.464327 -0.868693 0.172547
6440.357910 4128.369629 1187.149292 -0.393300 -0.915144 0.088469
6477.500488 4136.381836 1435.151245 -0.393300 -0.915144 0.088469
5987.247559 4327.992676 1237.736938 -0.393300 -0.915144 0.088469
5441.162598 4409.724121 1406.636841 -0.159513 -0.986449 -0.038389
5987.247559 4327.992676 1237.736938 -0.159513 -0.986449 -0.038389
6148.594727 4291.901855 1494.707397 -0.159513 -0.986449 -0.038389
6049.726562 4848.090332 1287.920776 0.152009 0.977614 0.145481
6199.401855 4787.427734 1539.173584 0.152009 0.977614 0.145481
7017.384766 4682.022461 1392.794556 0.152009 0.977614 0.145481
5987.247559 4327.992676 1237.736938 -0.405078 -0.905393 0.127181
6477.500488 4136.381836 1435.151245 -0.405078 -0.905393 0.127181
6148.594727 4291.901855 1494.707397 -0.405078 -0.905393 0.127181
6049.726562 4848.090332 1287.920776 -0.359355 0.925213 -0.121838
5558.341797 4668.160156 1370.883179 -0.359355 0.925213 -0.121838
5868.161133 4813.313477 1559.351196 -0.359355 0.925213 -0.121838
7032.290527 3830.052490 1385.877075 0.993979 0.087649 0.065752
7031.449219 3987.976318 1188.078613 0.993979 0.087649 0.065752
6959.381836 4624.500977 1429.026855 0.993979 0.087649 0.065752
6959.381836 4624.500977 1429.026855 0.654875 -0.201567 0.728361
7031.449219 3987.976318 1188.078613 0.654875 -0.201567 0.728361
7017.384766 4682.022461 1392.794556 0.654875 -0.201567 0.728361
5868.161133 4813.313477 1559.351196 0.087721 0.978984 0.184110
6199.401855 4787.427734 1539.173584 0.087721 0.978984 0.184110
6049.726562 4848.090332 1287.920776 0.087721 0.978984 0.184110
5441.162598 4409.724121 1406.636841 -0.014647 -0.988525 -0.150346
5775.869629 4379.596191 1572.119751 -0.014647 -0.988525 -0.150346
5042.466309 4377.445312 1657.711182 -0.014647 -0.988525 -0.150346
5441.162598 4409.724121 1406.636841 -0.185065 -0.962344 0.199110
6148.594727 4291.901855 1494.707397 -0.185065 -0.962344 0.199110
5775.869629 4379.596191 1572.119751 -0.185065 -0.962344 0.199110
5042.466309 4377.445312 1657.711182 -0.535901 0.127523 -0.834595
5558.341797 4668.160156 1370.883179 -0.535901 0.127523 -0.834595
5441.162598 4409.724121 1406.636841 -0.535901 0.127523 -0.834595
5558.341797 4668.160156 1370.883179 -0.523024 0.821510 0.227084
5538.881836 4576.993652 1655.870605 -0.523024 0.821510 0.227084
5868.161133 4813.313477 1559.351196 -0.523024 0.821510 0.227084
6477.500488 4136.381836 1435.151245 -0.430234 -0.684532 -0.588486
7032.290527 3830.052490 1385.877075 -0.430234 -0.684532 -0.588486
6148.594727 4291.901855 1494.707397 -0.430234 -0.684532 -0.588486
7032.290527 3830.052490 1385.877075 0.098952 -0.044911 0.994078
6959.381836 4624.500977 1429.026855 0.098952 -0.044911 0.994078
6148.594727 4291.901855 1494.707397 0.098952 -0.044911 0.994078
6959.381836 4624.500977 1429.026855 0.156540 -0.190211 0.969183
5775.869629 4379.596191 1572.119751 0.156540 -0.190211 0.969183
6148.594727 4291.901855 1494.707397 0.156540 -0.190211 0.969183
7017.384766 4682.022461 1392.794556 0.209174 0.361418 0.908638
6199.401855 4787.427734 1539.173584 0.209174 0.361418 0.908638
6959.381836 4624.500977 1429.026855 0.209174 0.361418 0.908638
6959.381836 4624.500977 1429.026855 0.131344 -0.056446 0.989729
6199.401855 4787.427734 1539.173584 0.131344 -0.056446 0.989729
5775.869629 4379.596191 1572.119751 0.131344 -0.056446 0.989729
5042.466309 4377.445312 1657.711182 -0.359104 0.895759 0.262029
5538.881836 4576.993652 1655.870605 -0.359104 0.895759 0.262029
5558.341797 4668.160156 1370.883179 -0.359104 0.895759 0.262029
5042.466309 4377.445312 1657.711182 0.004161 -0.999936 0.010524
5775.869629 4379.596191 1572.119751 0.004161 -0.999936 0.010524
5137.307129 4379.282715 1794.799805 0.004161 -0.999936 0.010524
5042.466309 4377.445312 1657.711182 -0.361495 0.901484 0.238007
5137.307129 4379.282715 1794.799805 -0.361495 0.901484 0.238007
5538.881836 4576.993652 1655.870605 -0.361495 0.901484 0.238007
5775.869629 4379.596191 1572.119751 0.217614 -0.148056 0.964740
6199.401855 4787.427734 1539.173584 0.217614 -0.148056 0.964740
5538.881836 4576.993652 1655.870605 0.217614 -0.148056 0.964740
6199.401855 4787.427734 1539.173584 0.080108 0.279199 0.956886
5868.161133 4813.313477 1559.351196 0.080108 0.279199 0.956886
5538.881836 4576.993652 1655.870605 0.080108 0.279199 0.956886
5137.307129 4379.282715 1794.799805 0.329272 -0.005298 0.944220
5775.869629 4379.596191 1572.119751 0.329272 -0.005298 0.944220
5538.881836 4576.993652 1655.870605 0.329272 -0.005298 0.944220
5893.853027 4380.665039 9839.797852 0.309985 -0.115219 -0.943734
5105.818848 4372.775879 9581.917969 0.309985 -0.115219 -0.943734
5755.022949 4680.729492 9757.562500 0.309985 -0.115219 -0.943734
5893.853027 4380.665039 9839.797852 0.034410 -0.996615 -0.074660
5826.095215 4359.851562 10086.401367 0.034410 -0.996615 -0.074660
5105.818848 4372.775879 9581.917969 0.034410 -0.996615 -0.074660
5609.396484 4703.239746 10004.416016 -0.399084 0.890014 -0.220469
5105.818848 4372.775879 9581.917969 -0.399084 0.890014 -0.220469
5044.767090 4379.239258 9718.523438 -0.399084 0.890014 -0.220469
5755.022949 4680.729492 9757.562500 -0.522592 0.764217 -0.377981
5609.396484 4703.239746 10004.416016 -0.522592 0.764217 -0.377981
5888.142578 4867.885742 9951.913086 -0.522592 0.764217 -0.377981
5826.095215 4359.851562 10086.401367 -0.038858 -0.998798 0.029891
5044.767090 4379.239258 9718.523438 -0.038858 -0.998798 0.029891
5105.818848 4372.775879 9581.917969 -0.038858 -0.998798 0.029891
5044.767090 4379.239258 9718.523438 -0.545631 0.825991 0.141514
5196.492188 4455.500977 9858.399414 -0.545631 0.825991 0.141514
5609.396484 4703.239746 10004.416016 -0.545631 0.825991 0.141514
5755.022949 4680.729492 9757.562500 -0.348275 0.782965 -0.515432
5888.142578 4867.885742 9951.913086 -0.348275 0.782965 -0.515432
5947.972168 4803.237793 9813.283203 -0.348275 0.782965 -0.515432
5105.818848 4372.775879 9581.917969 -0.346468 0.893443 -0.285864
5609.396484 4703.239746 10004.416016 -0.346468 0.893443 -0.285864
5755.022949 4680.729492 9757.562500 -0.346468 0.893443 -0.285864
5947.972168 4803.237793 9813.283203 0.335065 -0.101685 -0.936692
5893.853027 4380.665039 9839.797852 0.335065 -0.101685 -0.936692
5755.022949 4680.729492 9757.562500 0.335065 -0.101685 -0.936692
5826.095215 4359.851562 10086.401367 -0.324370 -0.930947 -0.167698
5893.853027 4380.665039 9839.797852 -0.324370 -0.930947 -0.167698
6472.464844 4162.749023 9930.342773 -0.324370 -0.930947 -0.167698
6996.730469 4322.438965 9976.998047 0.117765 -0.097911 -0.988203
6472.464844 4162.749023 9930.342773 0.117765 -0.097911 -0.988203
5893.853027 4380.665039 9839.797852 0.117765 -0.097911 -0.988203
6996.730469 4322.438965 9976.998047 0.119058 -0.077358 -0.989869
5893.853027 4380.665039 9839.797852 0.119058 -0.077358 -0.989869
5947.972168 4803.237793 9813.283203 0.119058 -0.077358 -0.989869
6996.730469 4322.438965 9976.998047 0.133475 -0.045949 -0.989986
5947.972168 4803.237793 9813.283203 0.133475 -0.045949 -0.989986
6996.160156 4674.805176 9960.566406 0.133475 -0.045949 -0.989986
7039.626953 3850.751709 9985.087891 0.091290 -0.008776 -0.995786
6472.464844 4162.749023 9930.342773 0.091290 -0.008776 -0.995786
6996.730469 4322.438965 9976.998047 0.091290 -0.008776 -0.995786
6996.160156 4674.805176 9960.566406 0.162986 0.919254 -0.358339
5947.972168 4803.237793 9813.283203 0.162986 0.919254 -0.358339
5888.142578 4867.885742 9951.913086 0.162986 0.919254 -0.358339
7039.626953 3850.751709 9985.087891 -0.450721 -0.860810 -0.236339
6306.963379 4188.504883 10152.160156 -0.450721 -0.860810 -0.236339
6472.464844 4162.749023 9930.342773 -0.450721 -0.860810 -0.236339
5826.095215 4359.851562 10086.401367 -0.350267 -0.608763 0.711843
5196.492188 4455.500977 9858.399414 -0.350267 -0.608763 0.711843
5044.767090 4379.239258 9718.523438 -0.350267 -0.608763 0.711843
6996.730469 4322.438965 9976.998047 0.999995 0.001480 -0.002979
6996.160156 4674.805176 9960.566406 0.999995 0.001480 -0.002979
6996.806641 4692.102539 10186.182617 0.999995 0.001480 -0.002979
7039.626953 3850.751709 9985.087891 -0.452185 -0.854603 -0.255307
7026.915527 3794.961182 10194.352539 -0.452185 -0.854603 -0.255307
6306.963379 4188.504883 10152.160156 -0.452185 -0.854603 -0.255307
7039.626953 3850.751709 9985.087891 0.992178 0.091684 0.084711
6996.730469 4322.438965 9976.998047 0.992178 0.091684 0.084711
7026.915527 3794.961182 10194.352539 0.992178 0.091684 0.084711
5826.095215 4359.851562 10086.401367 -0.364887 -0.304556 0.879831
5983.541992 4450.789551 10183.176758 -0.364887 -0.304556 0.879831
5196.492188 4455.500977 9858.399414 -0.364887 -0.304556 0.879831
5983.541992 4450.789551 10183.176758 -0.379455 0.089686 0.920853
5609.396484 4703.239746 10004.416016 -0.379455 0.089686 0.920853
5196.492188 4455.500977 9858.399414 -0.379455 0.089686 0.920853
6996.806641 4692.102539 10186.182617 0.171751 0.982220 -0.075796
6996.160156 4674.805176 9960.566406 0.171751 0.982220 -0.075796
5888.142578 4867.885742 9951.913086 0.171751 0.982220 -0.075796
5888.142578 4867.885742 9951.913086 0.172051 0.982047 -0.077343
6647.881836 4756.004395 10221.375000 0.172051 0.982047 -0.077343
6996.806641 4692.102539 10186.182617 0.172051 0.982047 -0.077343
6049.161621 4816.696777 10115.846680 -0.337487 0.751946 0.566286
5888.142578 4867.885742 9951.913086 -0.337487 0.751946 0.566286
5609.396484 4703.239746 10004.416016 -0.337487 0.751946 0.566286
5826.095215 4359.851562 10086.401367 -0.317368 -0.939667 -0.127686
6472.464844 4162.749023 9930.342773 -0.317368 -0.939667 -0.127686
6306.963379 4188.504883 10152.160156 -0.317368 -0.939667 -0.127686
6920.937500 3838.119385 10248.711914 -0.459376 -0.862949 -0.210459
6306.963379 4188.504883 10152.160156 -0.459376 -0.862949 -0.210459
7026.915527 3794.961182 10194.352539 -0.459376 -0.862949 -0.210459
5983.541992 4450.789551 10183.176758 -0.293223 0.223625 0.929523
6049.161621 4816.696777 10115.846680 -0.293223 0.223625 0.929523
5609.396484 4703.239746 10004.416016 -0.293223 0.223625 0.929523
6996.730469 4322.438965 9976.998047 0.997738 0.032951 -0.058594
6996.806641 4692.102539 10186.182617 0.997738 0.032951 -0.058594
7026.915527 3794.961182 10194.352539 0.997738 0.032951 -0.058594
6049.161621 4816.696777 10115.846680 0.054188 0.967053 0.248742
6647.881836 4756.004395 10221.375000 0.054188 0.967053 0.248742
5888.142578 4867.885742 9951.913086 0.054188 0.967053 0.248742
5983.541992 4450.789551 10183.176758 -0.462875 -0.642931 0.610235
6306.963379 4188.504883 10152.160156 -0.462875 -0.642931 0.610235
6920.937500 3838.119385 10248.711914 -0.462875 -0.642931 0.610235
6306.963379 4188.504883 10152.160156 -0.273250 -0.438208 0.856334
5983.541992 4450.789551 10183.176758 -0.273250 -0.438208 0.856334
5826.095215 4359.851562 10086.401367 -0.273250 -0.438208 0.856334
6674.533691 4533.757324 10300.650391 -0.188343 0.210300 0.959323
6049.161621 4816.696777 10115.846680 -0.188343 0.210300 0.959323
5983.541992 4450.789551 10183.176758 -0.188343 0.210300 0.959323
6996.806641 4692.102539 10186.182617 0.912547 0.034337 0.407527
6961.460449 4158.160156 10310.319336 0.912547 0.034337 0.407527
7026.915527 3794.961182 10194.352539 0.912547 0.034337 0.407527
6647.881836 4756.004395 10221.375000 -0.133091 0.318780 0.938438
6049.161621 4816.696777 10115.846680 -0.133091 0.318780 0.938438
6674.533691 4533.757324 10300.650391 -0.133091 0.318780 0.938438
7026.915527 3794.961182 10194.352539 0.372492 -0.220685 0.901414
6961.460449 4158.160156 10310.319336 0.372492 -0.220685 0.901414
6920.937500 3838.119385 10248.711914 0.372492 -0.220685 0.901414
6961.460449 4158.160156 10310.319336 -0.155908 -0.093789 0.983309
6674.533691 4533.757324 10300.650391 -0.155908 -0.093789 0.983309
5983.541992 4450.789551 10183.176758 -0.155908 -0.093789 0.983309
6961.460449 4158.160156 10310.319336 0.236535 0.205143 0.949720
6996.806641 4692.102539 10186.182617 0.236535 0.205143 0.949720
6674.533691 4533.757324 10300.650391 0.236535 0.205143 0.949720
6996.806641 4692.102539 10186.182617 0.157017 0.348449 0.924083
6647.881836 4756.004395 10221.375000 0.157017 0.348449 0.924083
6674.533691 4533.757324 10300.650391 0.157017 0.348449 0.924083
5983.541992 4450.789551 10183.176758 -0.175457 -0.164628 0.970625
6920.937500 3838.119385 10248.711914 -0.175457 -0.164628 0.970625
6961.460449 4158.160156 10310.319336 -0.175457 -0.164628 0.970625
3 0 1 2
3 3 4 5
3 6 7 8
3 9 10 11
3 12 13 14
3 15 16 17
3 18 19 20
3 21 22 23
3 24 25 26
3 27 28 29
3 30 31 32
3 33 34 35
3 36 37 38
3 39 40 41
3 42 43 44
3 45 46 47
3 48 49 50
3 51 52 53
3 54 55 56
3 57 58 59
3 60 61 62
3 63 64 65
3 66 67 68
3 69 70 71
3 72 73 74
3 75 76 77
3 78 79 80
3 81 82 83
3 84 85 86
3 87 88 89
3 90 91 92
3 93 94 95
3 96 97 98
3 99 100 101
3 102 103 104
3 105 106 107
3 108 109 110
3 111 112 113
3 114 115 116
3 117 118 119
3 120 121 122
3 123 124 125
3 126 127 128
3 129 130 131
3 132 133 134
3 135 136 137
3 138 139 140
3 141 142 143
3 144 145 146
3 147 148 149
3 150 151 152
3 153 154 155
3 156 157 158
3 159 160 161
3 162 163 164
3 165 166 167
3 168 169 170
3 171 172 173
3 174 175 176
3 177 178 179
3 180 181 182
3 183 184 185
3 186 187 188
3 189 190 191
3 192 193 194
3 195 196 197
3 198 199 200
3 201 202 203
3 204 205 206
3 207 208 209
3 210 211 212
3 213 214 215
3 216 217 218
3 219 220 221
3 222 223 224
3 225 226 227
3 228 229 230
3 231 232 233
3 234 235 236
3 237 238 239
3 240 241 242
3 243 244 245
