ply
format ascii 1.0
comment Created by Blender 2.80 (sub 75) - www.blender.org, source file: 'downsample_ccf.blend'
element vertex 78
property float x
property float y
property float z
property float nx
property float ny
property float nz
element face 26
property list uchar uint vertex_indices
end_header
8924.647461 1787.412231 1673.120972 0.292344 -0.582212 -0.758659
8766.577148 1914.471558 1514.701538 0.292344 -0.582212 -0.758659
9534.038086 2219.771973 1576.143311 0.292344 -0.582212 -0.758659
8766.577148 1914.471558 1514.701538 -0.111197 0.457115 -0.882429
9446.356445 2290.474365 1623.817505 -0.111197 0.457115 -0.882429
9534.038086 2219.771973 1576.143311 -0.111197 0.457115 -0.882429
9446.356445 2290.474365 1623.817505 -0.346754 0.778655 -0.522933
8766.577148 1914.471558 1514.701538 -0.346754 0.778655 -0.522933
8613.672852 1920.953613 1625.743286 -0.346754 0.778655 -0.522933
8766.577148 1914.471558 1514.701538 -0.555605 -0.372527 -0.743321
8618.804688 1737.217529 1713.989502 -0.555605 -0.372527 -0.743321
8613.672852 1920.953613 1625.743286 -0.555605 -0.372527 -0.743321
9577.969727 2093.525879 1706.671875 0.327773 -0.621567 -0.711491
8924.647461 1787.412231 1673.120972 0.327773 -0.621567 -0.711491
9534.038086 2219.771973 1576.143311 0.327773 -0.621567 -0.711491
8618.804688 1737.217529 1713.989502 0.038215 -0.760564 -0.648137
8766.577148 1914.471558 1514.701538 0.038215 -0.760564 -0.648137
8924.647461 1787.412231 1673.120972 0.038215 -0.760564 -0.648137
9565.616211 2160.099121 1769.878418 0.661897 0.739924 0.120019
9534.038086 2219.771973 1576.143311 0.661897 0.739924 0.120019
9446.356445 2290.474365 1623.817505 0.661897 0.739924 0.120019
9577.969727 2093.525879 1706.671875 0.964019 0.253840 -0.078946
9534.038086 2219.771973 1576.143311 0.964019 0.253840 -0.078946
9565.616211 2160.099121 1769.878418 0.964019 0.253840 -0.078946
8613.672852 1920.953613 1625.743286 -0.265215 0.601565 0.753512
9565.616211 2160.099121 1769.878418 -0.265215 0.601565 0.753512
9446.356445 2290.474365 1623.817505 -0.265215 0.601565 0.753512
8618.804688 1737.217529 1713.989502 -0.237279 0.415185 0.878248
9565.616211 2160.099121 1769.878418 -0.237279 0.415185 0.878248
8613.672852 1920.953613 1625.743286 -0.237279 0.415185 0.878248
9565.616211 2160.099121 1769.878418 0.198814 -0.552147 0.809696
8618.804688 1737.217529 1713.989502 0.198814 -0.552147 0.809696
8924.647461 1787.412231 1673.120972 0.198814 -0.552147 0.809696
8924.647461 1787.412231 1673.120972 0.261990 -0.638470 0.723683
9577.969727 2093.525879 1706.671875 0.261990 -0.638470 0.723683
9565.616211 2160.099121 1769.878418 0.261990 -0.638470 0.723683
9560.700195 2052.558594 9647.194336 0.119297 -0.434707 -0.892635
8642.231445 1801.006470 9646.949219 0.119297 -0.434707 -0.892635
9523.574219 2147.076416 9596.203125 0.119297 -0.434707 -0.892635
8642.231445 1801.006470 9646.949219 0.165161 -0.602274 -0.781017
9560.700195 2052.558594 9647.194336 0.165161 -0.602274 -0.781017
8672.249023 1721.689087 9714.461914 0.165161 -0.602274 -0.781017
8642.231445 1801.006470 9646.949219 -0.292056 0.639503 -0.711153
8744.582031 1994.713135 9779.106445 -0.292056 0.639503 -0.711153
9523.574219 2147.076416 9596.203125 -0.292056 0.639503 -0.711153
8744.582031 1994.713135 9779.106445 -0.290360 0.695323 -0.657432
9410.892578 2292.168945 9799.424805 -0.290360 0.695323 -0.657432
9523.574219 2147.076416 9596.203125 -0.290360 0.695323 -0.657432
9556.589844 2246.574951 9774.722656 0.933657 0.210335 -0.289903
9560.700195 2052.558594 9647.194336 0.933657 0.210335 -0.289903
9523.574219 2147.076416 9596.203125 0.933657 0.210335 -0.289903
9556.589844 2246.574951 9774.722656 0.178958 0.844943 -0.504029
9523.574219 2147.076416 9596.203125 0.178958 0.844943 -0.504029
9410.892578 2292.168945 9799.424805 0.178958 0.844943 -0.504029
8642.231445 1801.006470 9646.949219 -0.941910 -0.334908 0.025326
8672.249023 1721.689087 9714.461914 -0.941910 -0.334908 0.025326
8627.410156 1854.634277 9804.894531 -0.941910 -0.334908 0.025326
8744.582031 1994.713135 9779.106445 -0.762291 0.587728 -0.271086
8642.231445 1801.006470 9646.949219 -0.762291 0.587728 -0.271086
8627.410156 1854.634277 9804.894531 -0.762291 0.587728 -0.271086
9028.095703 2002.340820 9870.221680 0.373614 -0.503958 0.778742
9560.700195 2052.558594 9647.194336 0.373614 -0.503958 0.778742
9556.589844 2246.574951 9774.722656 0.373614 -0.503958 0.778742
8672.249023 1721.689087 9714.461914 0.065156 -0.546125 0.835166
9028.095703 2002.340820 9870.221680 0.065156 -0.546125 0.835166
8627.410156 1854.634277 9804.894531 0.065156 -0.546125 0.835166
9560.700195 2052.558594 9647.194336 0.319320 -0.736103 0.596814
9028.095703 2002.340820 9870.221680 0.319320 -0.736103 0.596814
8672.249023 1721.689087 9714.461914 0.319320 -0.736103 0.596814
8627.410156 1854.634277 9804.894531 -0.289901 0.402358 0.868370
9028.095703 2002.340820 9870.221680 -0.289901 0.402358 0.868370
8744.582031 1994.713135 9779.106445 -0.289901 0.402358 0.868370
9028.095703 2002.340820 9870.221680 -0.269123 0.548782 0.791461
9410.892578 2292.168945 9799.424805 -0.269123 0.548782 0.791461
8744.582031 1994.713135 9779.106445 -0.269123 0.548782 0.791461
9556.589844 2246.574951 9774.722656 0.171454 0.014179 0.985090
9410.892578 2292.168945 9799.424805 0.171454 0.014179 0.985090
9028.095703 2002.340820 9870.221680 0.171454 0.014179 0.985090
3 0 1 2
3 3 4 5
3 6 7 8
3 9 10 11
3 12 13 14
3 15 16 17
3 18 19 20
3 21 22 23
3 24 25 26
3 27 28 29
3 30 31 32
3 33 34 35
3 36 37 38
3 39 40 41
3 42 43 44
3 45 46 47
3 48 49 50
3 51 52 53
3 54 55 56
3 57 58 59
3 60 61 62
3 63 64 65
3 66 67 68
3 69 70 71
3 72 73 74
3 75 76 77
