ply
format ascii 1.0
comment Created by Blender 2.80 (sub 75) - www.blender.org, source file: 'downsample_ccf.blend'
element vertex 60
property float x
property float y
property float z
property float nx
property float ny
property float nz
element face 20
property list uchar uint vertex_indices
end_header
9301.780273 2376.638916 2067.954590 0.234818 -0.581437 -0.778969
8554.970703 2236.308350 1947.576294 0.234818 -0.581437 -0.778969
9259.222656 2538.368652 1934.407593 0.234818 -0.581437 -0.778969
8554.970703 2236.308350 1947.576294 -0.302140 0.675096 -0.673021
9198.923828 2587.495605 2010.755981 -0.302140 0.675096 -0.673021
9259.222656 2538.368652 1934.407593 -0.302140 0.675096 -0.673021
8554.970703 2236.308350 1947.576294 0.238741 -0.657538 -0.714596
9301.780273 2376.638916 2067.954590 0.238741 -0.657538 -0.714596
8558.462891 2105.853516 2068.781494 0.238741 -0.657538 -0.714596
9198.923828 2587.495605 2010.755981 -0.402886 0.617161 0.675866
8554.970703 2236.308350 1947.576294 -0.402886 0.617161 0.675866
8558.462891 2105.853516 2068.781494 -0.402886 0.617161 0.675866
9259.222656 2538.368652 1934.407593 0.980029 0.153111 -0.126885
9297.201172 2466.702881 2141.266113 0.980029 0.153111 -0.126885
9301.780273 2376.638916 2067.954590 0.980029 0.153111 -0.126885
9297.201172 2466.702881 2141.266113 0.708603 0.696774 0.111299
9259.222656 2538.368652 1934.407593 0.708603 0.696774 0.111299
9198.923828 2587.495605 2010.755981 0.708603 0.696774 0.111299
9301.780273 2376.638916 2067.954590 0.222565 -0.608625 0.761604
9297.201172 2466.702881 2141.266113 0.222565 -0.608625 0.761604
8558.462891 2105.853516 2068.781494 0.222565 -0.608625 0.761604
9198.923828 2587.495605 2010.755981 -0.342174 0.547043 0.763977
8558.462891 2105.853516 2068.781494 -0.342174 0.547043 0.763977
9297.201172 2466.702881 2141.266113 -0.342174 0.547043 0.763977
8621.448242 2098.856934 9350.333008 0.165009 -0.570083 -0.804846
8556.960938 2152.085693 9299.409180 0.165009 -0.570083 -0.804846
9250.388672 2454.921143 9227.073242 0.165009 -0.570083 -0.804846
8621.448242 2098.856934 9350.333008 0.188451 -0.601593 -0.776255
9250.388672 2454.921143 9227.073242 0.188451 -0.601593 -0.776255
9323.041016 2404.508789 9283.780273 0.188451 -0.601593 -0.776255
9203.086914 2585.091553 9408.223633 0.689430 0.661439 -0.295272
9323.041016 2404.508789 9283.780273 0.689430 0.661439 -0.295272
9250.388672 2454.921143 9227.073242 0.689430 0.661439 -0.295272
9203.086914 2585.091553 9408.223633 -0.373790 0.704209 -0.603631
9250.388672 2454.921143 9227.073242 -0.373790 0.704209 -0.603631
8555.236328 2236.659180 9402.907227 -0.373790 0.704209 -0.603631
9288.870117 2528.700195 9421.226562 0.528903 0.690938 -0.492814
9323.041016 2404.508789 9283.780273 0.528903 0.690938 -0.492814
9203.086914 2585.091553 9408.223633 0.528903 0.690938 -0.492814
8555.236328 2236.659180 9402.907227 -0.373916 0.715117 -0.590589
9250.388672 2454.921143 9227.073242 -0.373916 0.715117 -0.590589
8556.960938 2152.085693 9299.409180 -0.373916 0.715117 -0.590589
8621.448242 2098.856934 9350.333008 -0.751012 -0.517370 0.410255
8555.236328 2236.659180 9402.907227 -0.751012 -0.517370 0.410255
8556.960938 2152.085693 9299.409180 -0.751012 -0.517370 0.410255
9288.870117 2528.700195 9421.226562 0.380321 -0.637211 0.670313
8814.777344 2313.170410 9485.330078 0.380321 -0.637211 0.670313
9323.041016 2404.508789 9283.780273 0.380321 -0.637211 0.670313
8814.777344 2313.170410 9485.330078 0.366230 -0.709567 0.601989
8621.448242 2098.856934 9350.333008 0.366230 -0.709567 0.601989
9323.041016 2404.508789 9283.780273 0.366230 -0.709567 0.601989
8814.777344 2313.170410 9485.330078 -0.160614 -0.418257 0.894016
8555.236328 2236.659180 9402.907227 -0.160614 -0.418257 0.894016
8621.448242 2098.856934 9350.333008 -0.160614 -0.418257 0.894016
9203.086914 2585.091553 9408.223633 -0.393475 0.722934 0.567929
8555.236328 2236.659180 9402.907227 -0.393475 0.722934 0.567929
8814.777344 2313.170410 9485.330078 -0.393475 0.722934 0.567929
8814.777344 2313.170410 9485.330078 0.017392 0.249700 0.968167
9288.870117 2528.700195 9421.226562 0.017392 0.249700 0.968167
9203.086914 2585.091553 9408.223633 0.017392 0.249700 0.968167
3 0 1 2
3 3 4 5
3 6 7 8
3 9 10 11
3 12 13 14
3 15 16 17
3 18 19 20
3 21 22 23
3 24 25 26
3 27 28 29
3 30 31 32
3 33 34 35
3 36 37 38
3 39 40 41
3 42 43 44
3 45 46 47
3 48 49 50
3 51 52 53
3 54 55 56
3 57 58 59
