ply
format ascii 1.0
comment Created by Blender 2.80 (sub 75) - www.blender.org, source file: 'downsample_ccf.blend'
element vertex 120
property float x
property float y
property float z
property float nx
property float ny
property float nz
element face 40
property list uchar uint vertex_indices
end_header
9250.971680 3361.202393 1471.565552 0.302052 0.325660 -0.895941
9294.204102 3433.711914 1512.496704 0.302052 0.325660 -0.895941
9436.483398 3314.049805 1516.968628 0.302052 0.325660 -0.895941
9436.483398 3314.049805 1516.968628 0.146766 -0.322881 -0.934991
9135.562500 2870.702393 1622.834473 0.146766 -0.322881 -0.934991
9250.971680 3361.202393 1471.565552 0.146766 -0.322881 -0.934991
9436.483398 3314.049805 1516.968628 0.586338 0.711626 0.387035
9294.204102 3433.711914 1512.496704 0.586338 0.711626 0.387035
9510.248047 3095.809814 1806.487671 0.586338 0.711626 0.387035
9436.483398 3314.049805 1516.968628 0.479005 -0.497775 -0.723031
9077.150391 2531.674805 1817.541870 0.479005 -0.497775 -0.723031
9135.562500 2870.702393 1622.834473 0.479005 -0.497775 -0.723031
9436.483398 3314.049805 1516.968628 0.396842 -0.482295 -0.780966
9631.683594 2841.129883 1908.215942 0.396842 -0.482295 -0.780966
9077.150391 2531.674805 1817.541870 0.396842 -0.482295 -0.780966
9510.248047 3095.809814 1806.487671 0.873578 0.468780 0.130794
9631.683594 2841.129883 1908.215942 0.873578 0.468780 0.130794
9436.483398 3314.049805 1516.968628 0.873578 0.468780 0.130794
9042.187500 2565.570801 1890.570679 -0.973935 0.191825 -0.121050
9250.971680 3361.202393 1471.565552 -0.973935 0.191825 -0.121050
9135.562500 2870.702393 1622.834473 -0.973935 0.191825 -0.121050
9294.204102 3433.711914 1512.496704 -0.755071 0.083074 0.650358
9250.971680 3361.202393 1471.565552 -0.755071 0.083074 0.650358
9510.248047 3095.809814 1806.487671 -0.755071 0.083074 0.650358
9077.150391 2531.674805 1817.541870 -0.912427 -0.073957 -0.402502
9042.187500 2565.570801 1890.570679 -0.912427 -0.073957 -0.402502
9135.562500 2870.702393 1622.834473 -0.912427 -0.073957 -0.402502
9077.150391 2531.674805 1817.541870 0.421981 -0.543573 -0.725576
9631.683594 2841.129883 1908.215942 0.421981 -0.543573 -0.725576
9612.194336 2568.801270 2100.899170 0.421981 -0.543573 -0.725576
9236.139648 2596.124756 1957.354980 -0.001782 -0.907382 0.420304
9042.187500 2565.570801 1890.570679 -0.001782 -0.907382 0.420304
9077.150391 2531.674805 1817.541870 -0.001782 -0.907382 0.420304
9077.150391 2531.674805 1817.541870 -0.302027 -0.687517 0.660378
9612.194336 2568.801270 2100.899170 -0.302027 -0.687517 0.660378
9236.139648 2596.124756 1957.354980 -0.302027 -0.687517 0.660378
9250.971680 3361.202393 1471.565552 -0.350964 0.506771 0.787406
9042.187500 2565.570801 1890.570679 -0.350964 0.506771 0.787406
9236.139648 2596.124756 1957.354980 -0.350964 0.506771 0.787406
9236.139648 2596.124756 1957.354980 -0.624600 0.427202 0.653738
9468.067383 2570.753418 2195.524902 -0.624600 0.427202 0.653738
9250.971680 3361.202393 1471.565552 -0.624600 0.427202 0.653738
9510.248047 3095.809814 1806.487671 -0.362117 0.573535 0.734799
9250.971680 3361.202393 1471.565552 -0.362117 0.573535 0.734799
9468.067383 2570.753418 2195.524902 -0.362117 0.573535 0.734799
9236.139648 2596.124756 1957.354980 0.207468 -0.705378 -0.677789
9612.194336 2568.801270 2100.899170 0.207468 -0.705378 -0.677789
9427.511719 2443.344482 2174.932129 0.207468 -0.705378 -0.677789
9631.683594 2841.129883 1908.215942 0.423384 0.502877 0.753565
9510.248047 3095.809814 1806.487671 0.423384 0.502877 0.753565
9612.194336 2568.801270 2100.899170 0.423384 0.502877 0.753565
9427.511719 2443.344482 2174.932129 -0.705978 0.111683 0.699372
9468.067383 2570.753418 2195.524902 -0.705978 0.111683 0.699372
9236.139648 2596.124756 1957.354980 -0.705978 0.111683 0.699372
9468.067383 2570.753418 2195.524902 0.481047 0.496649 0.722449
9612.194336 2568.801270 2100.899170 0.481047 0.496649 0.722449
9510.248047 3095.809814 1806.487671 0.481047 0.496649 0.722449
9612.194336 2568.801270 2100.899170 0.521539 -0.295389 0.800464
9468.067383 2570.753418 2195.524902 0.521539 -0.295389 0.800464
9427.511719 2443.344482 2174.932129 0.521539 -0.295389 0.800464
9477.117188 2434.586914 9201.284180 0.503670 -0.037731 -0.863072
9416.825195 2488.924316 9163.723633 0.503670 -0.037731 -0.863072
9640.208984 2642.893799 9287.354492 0.503670 -0.037731 -0.863072
9416.825195 2488.924316 9163.723633 -0.664998 -0.746735 -0.012820
9477.117188 2434.586914 9201.284180 -0.664998 -0.746735 -0.012820
9319.928711 2570.134521 9459.622070 -0.664998 -0.746735 -0.012820
9268.991211 2656.418457 9375.824219 -0.808069 -0.579554 -0.105554
9416.825195 2488.924316 9163.723633 -0.808069 -0.579554 -0.105554
9319.928711 2570.134521 9459.622070 -0.808069 -0.579554 -0.105554
9477.117188 2434.586914 9201.284180 0.474696 -0.626915 0.617771
9640.208984 2642.893799 9287.354492 0.474696 -0.626915 0.617771
9319.928711 2570.134521 9459.622070 0.474696 -0.626915 0.617771
9319.928711 2570.134521 9459.622070 -0.033120 -0.706308 -0.707130
9034.559570 2547.924805 9495.171875 -0.033120 -0.706308 -0.707130
9268.991211 2656.418457 9375.824219 -0.033120 -0.706308 -0.707130
9034.559570 2547.924805 9495.171875 0.027992 -0.933185 -0.358306
9319.928711 2570.134521 9459.622070 0.027992 -0.933185 -0.358306
9042.485352 2528.637939 9546.022461 0.027992 -0.933185 -0.358306
9605.182617 2957.757568 9576.617188 0.487403 -0.560713 0.669357
9319.928711 2570.134521 9459.622070 0.487403 -0.560713 0.669357
9640.208984 2642.893799 9287.354492 0.487403 -0.560713 0.669357
9416.825195 2488.924316 9163.723633 -0.132979 0.730651 -0.669676
9268.991211 2656.418457 9375.824219 -0.132979 0.730651 -0.669676
9640.208984 2642.893799 9287.354492 -0.132979 0.730651 -0.669676
9605.182617 2957.757568 9576.617188 0.403930 0.642850 -0.650834
9640.208984 2642.893799 9287.354492 0.403930 0.642850 -0.650834
9303.470703 3430.468506 9856.276367 0.403930 0.642850 -0.650834
9303.470703 3430.468506 9856.276367 -0.179239 0.524579 -0.832280
9640.208984 2642.893799 9287.354492 -0.179239 0.524579 -0.832280
9268.991211 2656.418457 9375.824219 -0.179239 0.524579 -0.832280
9605.182617 2957.757568 9576.617188 0.397840 0.641790 -0.655613
9303.470703 3430.468506 9856.276367 0.397840 0.641790 -0.655613
9469.725586 3302.173340 9831.573242 0.397840 0.641790 -0.655613
9172.981445 2977.307617 9813.293945 0.322088 -0.551892 0.769204
9042.485352 2528.637939 9546.022461 0.322088 -0.551892 0.769204
9319.928711 2570.134521 9459.622070 0.322088 -0.551892 0.769204
9319.928711 2570.134521 9459.622070 0.392619 -0.518252 0.759780
9605.182617 2957.757568 9576.617188 0.392619 -0.518252 0.759780
9172.981445 2977.307617 9813.293945 0.392619 -0.518252 0.759780
9268.991211 2656.418457 9375.824219 -0.562079 0.454108 -0.691269
9034.559570 2547.924805 9495.171875 -0.562079 0.454108 -0.691269
9303.470703 3430.468506 9856.276367 -0.562079 0.454108 -0.691269
9172.981445 2977.307617 9813.293945 -0.965281 0.155904 0.209585
9034.559570 2547.924805 9495.171875 -0.965281 0.155904 0.209585
9042.485352 2528.637939 9546.022461 -0.965281 0.155904 0.209585
9469.725586 3302.173340 9831.573242 0.419143 -0.427917 0.800754
9172.981445 2977.307617 9813.293945 0.419143 -0.427917 0.800754
9605.182617 2957.757568 9576.617188 0.419143 -0.427917 0.800754
9034.559570 2547.924805 9495.171875 -0.960974 0.271859 0.051201
9172.981445 2977.307617 9813.293945 -0.960974 0.271859 0.051201
9303.470703 3430.468506 9856.276367 -0.960974 0.271859 0.051201
9172.981445 2977.307617 9813.293945 -0.891873 0.219299 0.395564
9323.468750 3406.400391 9914.708984 -0.891873 0.219299 0.395564
9303.470703 3430.468506 9856.276367 -0.891873 0.219299 0.395564
9323.468750 3406.400391 9914.708984 0.617402 0.778982 0.109559
9469.725586 3302.173340 9831.573242 0.617402 0.778982 0.109559
9303.470703 3430.468506 9856.276367 0.617402 0.778982 0.109559
9172.981445 2977.307617 9813.293945 0.289263 -0.315084 0.903907
9469.725586 3302.173340 9831.573242 0.289263 -0.315084 0.903907
9323.468750 3406.400391 9914.708984 0.289263 -0.315084 0.903907
3 0 1 2
3 3 4 5
3 6 7 8
3 9 10 11
3 12 13 14
3 15 16 17
3 18 19 20
3 21 22 23
3 24 25 26
3 27 28 29
3 30 31 32
3 33 34 35
3 36 37 38
3 39 40 41
3 42 43 44
3 45 46 47
3 48 49 50
3 51 52 53
3 54 55 56
3 57 58 59
3 60 61 62
3 63 64 65
3 66 67 68
3 69 70 71
3 72 73 74
3 75 76 77
3 78 79 80
3 81 82 83
3 84 85 86
3 87 88 89
3 90 91 92
3 93 94 95
3 96 97 98
3 99 100 101
3 102 103 104
3 105 106 107
3 108 109 110
3 111 112 113
3 114 115 116
3 117 118 119
