ply
format ascii 1.0
comment Created by Blender 2.80 (sub 75) - www.blender.org, source file: 'downsample_ccf.blend'
element vertex 126
property float x
property float y
property float z
property float nx
property float ny
property float nz
element face 42
property list uchar uint vertex_indices
end_header
9652.573242 2217.999023 2038.477661 -0.403777 0.237011 -0.883623
9774.812500 2582.008789 2080.256836 -0.403777 0.237011 -0.883623
9970.189453 2474.416992 1962.119019 -0.403777 0.237011 -0.883623
9774.812500 2582.008789 2080.256836 0.546266 0.823427 0.153496
9929.095703 2423.377441 2382.165527 0.546266 0.823427 0.153496
9970.189453 2474.416992 1962.119019 0.546266 0.823427 0.153496
9652.573242 2217.999023 2038.477661 0.378872 -0.661904 -0.646791
9970.189453 2474.416992 1962.119019 0.378872 -0.661904 -0.646791
9825.033203 2056.770996 2304.495117 0.378872 -0.661904 -0.646791
9652.573242 2217.999023 2038.477661 -0.653519 0.299256 -0.695239
9555.603516 2305.647949 2167.355713 -0.653519 0.299256 -0.695239
9774.812500 2582.008789 2080.256836 -0.653519 0.299256 -0.695239
9652.573242 2217.999023 2038.477661 -0.676326 -0.736559 -0.007950
9825.033203 2056.770996 2304.495117 -0.676326 -0.736559 -0.007950
9555.603516 2305.647949 2167.355713 -0.676326 -0.736559 -0.007950
9970.189453 2474.416992 1962.119019 0.341644 0.928384 0.146231
9929.095703 2423.377441 2382.165527 0.341644 0.928384 0.146231
10138.663086 2342.951172 2403.152588 0.341644 0.928384 0.146231
9970.189453 2474.416992 1962.119019 0.677672 -0.592540 -0.435497
10138.663086 2342.951172 2403.152588 0.677672 -0.592540 -0.435497
9825.033203 2056.770996 2304.495117 0.677672 -0.592540 -0.435497
9774.812500 2582.008789 2080.256836 -0.518628 0.602552 0.606594
9555.603516 2305.647949 2167.355713 -0.518628 0.602552 0.606594
9861.164062 2059.618652 2672.995117 -0.518628 0.602552 0.606594
9929.095703 2423.377441 2382.165527 -0.562792 0.577744 0.591165
9774.812500 2582.008789 2080.256836 -0.562792 0.577744 0.591165
9861.164062 2059.618652 2672.995117 -0.562792 0.577744 0.591165
9825.033203 2056.770996 2304.495117 -0.696699 -0.713554 0.073824
9861.164062 2059.618652 2672.995117 -0.696699 -0.713554 0.073824
9555.603516 2305.647949 2167.355713 -0.696699 -0.713554 0.073824
9825.033203 2056.770996 2304.495117 0.676641 -0.589405 -0.441315
10138.663086 2342.951172 2403.152588 0.676641 -0.589405 -0.441315
10016.172852 1985.861694 2692.262207 0.676641 -0.589405 -0.441315
9929.095703 2423.377441 2382.165527 0.351889 0.933803 0.064697
9990.236328 2361.311035 2945.455566 0.351889 0.933803 0.064697
10138.663086 2342.951172 2403.152588 0.351889 0.933803 0.064697
9825.033203 2056.770996 2304.495117 -0.434149 -0.899479 0.049519
10016.172852 1985.861694 2692.262207 -0.434149 -0.899479 0.049519
9861.164062 2059.618652 2672.995117 -0.434149 -0.899479 0.049519
10138.663086 2342.951172 2403.152588 0.963630 -0.245986 0.104446
9981.216797 2044.069092 3151.859131 0.963630 -0.245986 0.104446
10016.172852 1985.861694 2692.262207 0.963630 -0.245986 0.104446
9861.164062 2059.618652 2672.995117 -0.954036 0.274437 0.120412
9904.467773 2012.899170 3122.573730 -0.954036 0.274437 0.120412
9929.095703 2423.377441 2382.165527 -0.954036 0.274437 0.120412
9990.236328 2361.311035 2945.455566 0.956223 0.140007 0.256975
9981.216797 2044.069092 3151.859131 0.956223 0.140007 0.256975
10138.663086 2342.951172 2403.152588 0.956223 0.140007 0.256975
9929.095703 2423.377441 2382.165527 -0.943832 0.301299 0.135644
9904.467773 2012.899170 3122.573730 -0.943832 0.301299 0.135644
9990.236328 2361.311035 2945.455566 -0.943832 0.301299 0.135644
10016.172852 1985.861694 2692.262207 -0.423661 -0.904260 -0.053162
9904.467773 2012.899170 3122.573730 -0.423661 -0.904260 -0.053162
9861.164062 2059.618652 2672.995117 -0.423661 -0.904260 -0.053162
9981.216797 2044.069092 3151.859131 -0.477180 0.488751 0.730357
9990.236328 2361.311035 2945.455566 -0.477180 0.488751 0.730357
9904.467773 2012.899170 3122.573730 -0.477180 0.488751 0.730357
10016.172852 1985.861694 2692.262207 0.325043 -0.934808 0.143114
9981.216797 2044.069092 3151.859131 0.325043 -0.934808 0.143114
9904.467773 2012.899170 3122.573730 0.325043 -0.934808 0.143114
9946.500000 1990.864624 8192.786133 0.920308 0.056645 -0.387073
10019.095703 2328.502930 8414.800781 0.920308 0.056645 -0.387073
10060.125977 2025.397461 8467.998047 0.920308 0.056645 -0.387073
9946.500000 1990.864624 8192.786133 -0.496706 0.548881 -0.672319
9905.276367 2231.745850 8419.897461 -0.496706 0.548881 -0.672319
10019.095703 2328.502930 8414.800781 -0.496706 0.548881 -0.672319
9946.500000 1990.864624 8192.786133 -0.673031 -0.739565 -0.008530
9930.469727 1997.462036 8885.599609 -0.673031 -0.739565 -0.008530
9841.924805 2079.552734 8754.543945 -0.673031 -0.739565 -0.008530
9946.500000 1990.864624 8192.786133 -0.982954 0.005057 -0.183782
9841.924805 2079.552734 8754.543945 -0.982954 0.005057 -0.183782
9905.276367 2231.745850 8419.897461 -0.982954 0.005057 -0.183782
10060.125977 2025.397461 8467.998047 0.256985 -0.966297 0.015148
9930.469727 1997.462036 8885.599609 0.256985 -0.966297 0.015148
9946.500000 1990.864624 8192.786133 0.256985 -0.966297 0.015148
10019.095703 2328.502930 8414.800781 -0.639600 0.741761 -0.201747
9905.276367 2231.745850 8419.897461 -0.639600 0.741761 -0.201747
9932.755859 2403.482910 8964.203125 -0.639600 0.741761 -0.201747
9841.924805 2079.552734 8754.543945 -0.953816 0.296921 -0.045530
9932.755859 2403.482910 8964.203125 -0.953816 0.296921 -0.045530
9905.276367 2231.745850 8419.897461 -0.953816 0.296921 -0.045530
10060.125977 2025.397461 8467.998047 0.971780 0.093540 -0.216549
10019.095703 2328.502930 8414.800781 0.971780 0.093540 -0.216549
10129.331055 2347.264648 8917.595703 0.971780 0.093540 -0.216549
9930.469727 1997.462036 8885.599609 0.837622 -0.496932 0.226821
10060.125977 2025.397461 8467.998047 0.837622 -0.496932 0.226821
10129.331055 2347.264648 8917.595703 0.837622 -0.496932 0.226821
10019.095703 2328.502930 8414.800781 0.253685 0.962945 -0.091551
9932.755859 2403.482910 8964.203125 0.253685 0.962945 -0.091551
10129.331055 2347.264648 8917.595703 0.253685 0.962945 -0.091551
9841.924805 2079.552734 8754.543945 -0.656585 -0.753714 -0.028504
9930.469727 1997.462036 8885.599609 -0.656585 -0.753714 -0.028504
9556.734375 2309.059326 9255.147461 -0.656585 -0.753714 -0.028504
9985.214844 2507.842041 9383.722656 0.207866 0.942824 -0.260528
10129.331055 2347.264648 8917.595703 0.207866 0.942824 -0.260528
9932.755859 2403.482910 8964.203125 0.207866 0.942824 -0.260528
9930.469727 1997.462036 8885.599609 -0.680273 -0.729311 -0.073037
9668.598633 2197.994873 9322.268555 -0.680273 -0.729311 -0.073037
9556.734375 2309.059326 9255.147461 -0.680273 -0.729311 -0.073037
9985.214844 2507.842041 9383.722656 0.778120 -0.479472 0.405752
9930.469727 1997.462036 8885.599609 0.778120 -0.479472 0.405752
10129.331055 2347.264648 8917.595703 0.778120 -0.479472 0.405752
9985.214844 2507.842041 9383.722656 0.373388 0.888227 -0.267645
9932.755859 2403.482910 8964.203125 0.373388 0.888227 -0.267645
9758.068359 2572.636963 9281.867188 0.373388 0.888227 -0.267645
9841.924805 2079.552734 8754.543945 -0.569696 0.553157 -0.607835
9758.068359 2572.636963 9281.867188 -0.569696 0.553157 -0.607835
9932.755859 2403.482910 8964.203125 -0.569696 0.553157 -0.607835
9556.734375 2309.059326 9255.147461 -0.611632 0.527011 -0.590056
9758.068359 2572.636963 9281.867188 -0.611632 0.527011 -0.590056
9841.924805 2079.552734 8754.543945 -0.611632 0.527011 -0.590056
9930.469727 1997.462036 8885.599609 0.653185 -0.563596 0.505677
9985.214844 2507.842041 9383.722656 0.653185 -0.563596 0.505677
9854.144531 2364.445557 9393.206055 0.653185 -0.563596 0.505677
9668.598633 2197.994873 9322.268555 0.414763 -0.706651 0.573251
9930.469727 1997.462036 8885.599609 0.414763 -0.706651 0.573251
9854.144531 2364.445557 9393.206055 0.414763 -0.706651 0.573251
9985.214844 2507.842041 9383.722656 -0.358859 0.181295 0.915616
9758.068359 2572.636963 9281.867188 -0.358859 0.181295 0.915616
9556.734375 2309.059326 9255.147461 -0.358859 0.181295 0.915616
9668.598633 2197.994873 9322.268555 -0.434534 0.103066 0.894739
9854.144531 2364.445557 9393.206055 -0.434534 0.103066 0.894739
9556.734375 2309.059326 9255.147461 -0.434534 0.103066 0.894739
9985.214844 2507.842041 9383.722656 -0.443176 0.456118 0.771719
9556.734375 2309.059326 9255.147461 -0.443176 0.456118 0.771719
9854.144531 2364.445557 9393.206055 -0.443176 0.456118 0.771719
3 0 1 2
3 3 4 5
3 6 7 8
3 9 10 11
3 12 13 14
3 15 16 17
3 18 19 20
3 21 22 23
3 24 25 26
3 27 28 29
3 30 31 32
3 33 34 35
3 36 37 38
3 39 40 41
3 42 43 44
3 45 46 47
3 48 49 50
3 51 52 53
3 54 55 56
3 57 58 59
3 60 61 62
3 63 64 65
3 66 67 68
3 69 70 71
3 72 73 74
3 75 76 77
3 78 79 80
3 81 82 83
3 84 85 86
3 87 88 89
3 90 91 92
3 93 94 95
3 96 97 98
3 99 100 101
3 102 103 104
3 105 106 107
3 108 109 110
3 111 112 113
3 114 115 116
3 117 118 119
3 120 121 122
3 123 124 125
