ply
format ascii 1.0
comment Created by Blender 2.80 (sub 75) - www.blender.org, source file: 'downsample_ccf.blend'
element vertex 108
property float x
property float y
property float z
property float nx
property float ny
property float nz
element face 36
property list uchar uint vertex_indices
end_header
7606.028809 4427.046875 4641.899414 0.334690 0.335916 -0.880422
7435.404297 4443.187500 4583.195312 0.334690 0.335916 -0.880422
7323.390137 4754.925293 4659.553711 0.334690 0.335916 -0.880422
7323.390137 4754.925293 4659.553711 -0.724814 -0.093241 -0.682606
7435.404297 4443.187500 4583.195312 -0.724814 -0.093241 -0.682606
7147.571777 4665.556641 4858.451172 -0.724814 -0.093241 -0.682606
7450.967773 4450.261230 5349.105469 -0.097983 -0.995125 0.011182
7435.404297 4443.187500 4583.195312 -0.097983 -0.995125 0.011182
7606.028809 4427.046875 4641.899414 -0.097983 -0.995125 0.011182
7323.390137 4754.925293 4659.553711 0.746414 0.650889 -0.138602
7302.251953 4905.101562 5250.960938 0.746414 0.650889 -0.138602
7606.028809 4427.046875 4641.899414 0.746414 0.650889 -0.138602
7553.849609 4460.731934 5256.418945 0.161159 -0.984607 0.067656
7450.967773 4450.261230 5349.105469 0.161159 -0.984607 0.067656
7606.028809 4427.046875 4641.899414 0.161159 -0.984607 0.067656
7450.967773 4450.261230 5349.105469 -0.599462 -0.800164 0.019571
7147.571777 4665.556641 4858.451172 -0.599462 -0.800164 0.019571
7435.404297 4443.187500 4583.195312 -0.599462 -0.800164 0.019571
7606.028809 4427.046875 4641.899414 0.850537 0.525789 0.011522
7302.251953 4905.101562 5250.960938 0.850537 0.525789 0.011522
7350.611816 4823.685547 5396.398438 0.850537 0.525789 0.011522
7350.611816 4823.685547 5396.398438 0.879377 0.473628 0.048706
7553.849609 4460.731934 5256.418945 0.879377 0.473628 0.048706
7606.028809 4427.046875 4641.899414 0.879377 0.473628 0.048706
7323.390137 4754.925293 4659.553711 -0.385406 0.890984 -0.240023
7154.849609 4896.741699 5456.612793 -0.385406 0.890984 -0.240023
7302.251953 4905.101562 5250.960938 -0.385406 0.890984 -0.240023
7323.390137 4754.925293 4659.553711 -0.657763 0.705233 -0.264564
7147.571777 4665.556641 4858.451172 -0.657763 0.705233 -0.264564
7154.849609 4896.741699 5456.612793 -0.657763 0.705233 -0.264564
7100.979004 4823.909668 5427.733887 -0.708913 -0.692341 0.134562
7147.571777 4665.556641 4858.451172 -0.708913 -0.692341 0.134562
7450.967773 4450.261230 5349.105469 -0.708913 -0.692341 0.134562
7100.979004 4823.909668 5427.733887 -0.733708 0.636730 -0.237164
7154.849609 4896.741699 5456.612793 -0.733708 0.636730 -0.237164
7147.571777 4665.556641 4858.451172 -0.733708 0.636730 -0.237164
7553.849609 4460.731934 5256.418945 0.662273 0.083685 0.744575
7350.611816 4823.685547 5396.398438 0.662273 0.083685 0.744575
7450.967773 4450.261230 5349.105469 0.662273 0.083685 0.744575
7248.310059 4745.212891 5490.148438 -0.563236 -0.638055 0.525026
7100.979004 4823.909668 5427.733887 -0.563236 -0.638055 0.525026
7450.967773 4450.261230 5349.105469 -0.563236 -0.638055 0.525026
7350.611816 4823.685547 5396.398438 0.418003 0.844838 0.333950
7302.251953 4905.101562 5250.960938 0.418003 0.844838 0.333950
7154.849609 4896.741699 5456.612793 0.418003 0.844838 0.333950
7450.967773 4450.261230 5349.105469 0.641491 0.075717 0.763385
7350.611816 4823.685547 5396.398438 0.641491 0.075717 0.763385
7248.310059 4745.212891 5490.148438 0.641491 0.075717 0.763385
7248.310059 4745.212891 5490.148438 0.408166 0.429977 0.805308
7350.611816 4823.685547 5396.398438 0.408166 0.429977 0.805308
7154.849609 4896.741699 5456.612793 0.408166 0.429977 0.805308
7248.310059 4745.212891 5490.148438 -0.413898 -0.054174 0.908710
7154.849609 4896.741699 5456.612793 -0.413898 -0.054174 0.908710
7100.979004 4823.909668 5427.733887 -0.413898 -0.054174 0.908710
7173.984375 4927.666016 5967.737305 -0.510476 0.329003 -0.794462
7235.872070 4771.535645 5863.314941 -0.510476 0.329003 -0.794462
7111.488770 4815.170410 5961.306641 -0.510476 0.329003 -0.794462
7312.653809 4887.591797 5988.061523 0.284402 0.608318 -0.740989
7235.872070 4771.535645 5863.314941 0.284402 0.608318 -0.740989
7173.984375 4927.666016 5967.737305 0.284402 0.608318 -0.740989
7558.097656 4477.560547 6109.687500 0.716011 0.233454 -0.657896
7235.872070 4771.535645 5863.314941 0.716011 0.233454 -0.657896
7312.653809 4887.591797 5988.061523 0.716011 0.233454 -0.657896
7111.488770 4815.170410 5961.306641 -0.600262 -0.643041 -0.475588
7235.872070 4771.535645 5863.314941 -0.600262 -0.643041 -0.475588
7465.590820 4441.121582 6020.127441 -0.600262 -0.643041 -0.475588
7465.590820 4441.121582 6020.127441 -0.704910 -0.691883 -0.156205
7132.009277 4679.921387 6467.767090 -0.704910 -0.691883 -0.156205
7111.488770 4815.170410 5961.306641 -0.704910 -0.691883 -0.156205
7558.097656 4477.560547 6109.687500 0.667297 0.114676 -0.735911
7465.590820 4441.121582 6020.127441 0.667297 0.114676 -0.735911
7235.872070 4771.535645 5863.314941 0.667297 0.114676 -0.735911
7132.009277 4679.921387 6467.767090 -0.866612 0.472220 0.161218
7173.984375 4927.666016 5967.737305 -0.866612 0.472220 0.161218
7111.488770 4815.170410 5961.306641 -0.866612 0.472220 0.161218
7173.984375 4927.666016 5967.737305 -0.724691 0.639709 0.256116
7132.009277 4679.921387 6467.767090 -0.724691 0.639709 0.256116
7268.891113 4768.594727 6633.598145 -0.724691 0.639709 0.256116
7132.009277 4679.921387 6467.767090 -0.634327 -0.770606 -0.061610
7465.590820 4441.121582 6020.127441 -0.634327 -0.770606 -0.061610
7294.435059 4524.864258 6734.881836 -0.634327 -0.770606 -0.061610
7268.891113 4768.594727 6633.598145 0.246423 0.949989 0.191825
7312.653809 4887.591797 5988.061523 0.246423 0.949989 0.191825
7173.984375 4927.666016 5967.737305 0.246423 0.949989 0.191825
7474.901367 4695.600098 6652.308594 0.864755 0.497653 -0.067383
7558.097656 4477.560547 6109.687500 0.864755 0.497653 -0.067383
7312.653809 4887.591797 5988.061523 0.864755 0.497653 -0.067383
7268.891113 4768.594727 6633.598145 0.312132 0.930301 0.192650
7474.901367 4695.600098 6652.308594 0.312132 0.930301 0.192650
7312.653809 4887.591797 5988.061523 0.312132 0.930301 0.192650
7465.590820 4441.121582 6020.127441 -0.367592 -0.929752 0.020909
7566.446777 4418.176758 6772.969727 -0.367592 -0.929752 0.020909
7294.435059 4524.864258 6734.881836 -0.367592 -0.929752 0.020909
7558.097656 4477.560547 6109.687500 0.435875 -0.895918 -0.085698
7566.446777 4418.176758 6772.969727 0.435875 -0.895918 -0.085698
7465.590820 4441.121582 6020.127441 0.435875 -0.895918 -0.085698
7558.097656 4477.560547 6109.687500 0.947315 0.319868 0.016713
7474.901367 4695.600098 6652.308594 0.947315 0.319868 0.016713
7566.446777 4418.176758 6772.969727 0.947315 0.319868 0.016713
7268.891113 4768.594727 6633.598145 -0.801120 0.156138 0.577778
7132.009277 4679.921387 6467.767090 -0.801120 0.156138 0.577778
7294.435059 4524.864258 6734.881836 -0.801120 0.156138 0.577778
7474.901367 4695.600098 6652.308594 0.053912 0.387996 0.920083
7268.891113 4768.594727 6633.598145 0.053912 0.387996 0.920083
7294.435059 4524.864258 6734.881836 0.053912 0.387996 0.920083
7566.446777 4418.176758 6772.969727 0.032043 0.407512 0.912638
7474.901367 4695.600098 6652.308594 0.032043 0.407512 0.912638
7294.435059 4524.864258 6734.881836 0.032043 0.407512 0.912638
3 0 1 2
3 3 4 5
3 6 7 8
3 9 10 11
3 12 13 14
3 15 16 17
3 18 19 20
3 21 22 23
3 24 25 26
3 27 28 29
3 30 31 32
3 33 34 35
3 36 37 38
3 39 40 41
3 42 43 44
3 45 46 47
3 48 49 50
3 51 52 53
3 54 55 56
3 57 58 59
3 60 61 62
3 63 64 65
3 66 67 68
3 69 70 71
3 72 73 74
3 75 76 77
3 78 79 80
3 81 82 83
3 84 85 86
3 87 88 89
3 90 91 92
3 93 94 95
3 96 97 98
3 99 100 101
3 102 103 104
3 105 106 107
