ply
format ascii 1.0
comment Created by Blender 2.80 (sub 75) - www.blender.org, source file: 'downsample_ccf.blend'
element vertex 30
property float x
property float y
property float z
property float nx
property float ny
property float nz
element face 10
property list uchar uint vertex_indices
end_header
10120.568359 4348.012207 5417.776855 0.551296 0.485206 -0.678710
9832.305664 4454.754395 5259.938965 0.551296 0.485206 -0.678710
9871.509766 4601.811523 5396.913574 0.551296 0.485206 -0.678710
10120.568359 4348.012207 5417.776855 -0.214694 -0.944947 -0.246945
9742.278320 4434.895508 5414.199707 -0.214694 -0.944947 -0.246945
9832.305664 4454.754395 5259.938965 -0.214694 -0.944947 -0.246945
9871.509766 4601.811523 5396.913574 -0.752940 0.544704 -0.369296
9832.305664 4454.754395 5259.938965 -0.752940 0.544704 -0.369296
9742.278320 4434.895508 5414.199707 -0.752940 0.544704 -0.369296
9742.278320 4434.895508 5414.199707 0.012112 0.093721 0.995525
10120.568359 4348.012207 5417.776855 0.012112 0.093721 0.995525
9871.509766 4601.811523 5396.913574 0.012112 0.093721 0.995525
9798.072266 4504.466797 5926.604492 0.333793 0.883952 -0.327432
9765.177734 4564.727539 6055.753906 0.333793 0.883952 -0.327432
10093.477539 4390.900879 5921.160645 0.333793 0.883952 -0.327432
10093.477539 4390.900879 5921.160645 -0.301945 -0.757677 -0.578580
9858.463867 4359.138672 6085.401855 -0.301945 -0.757677 -0.578580
9798.072266 4504.466797 5926.604492 -0.301945 -0.757677 -0.578580
9858.463867 4359.138672 6085.401855 -0.908035 -0.417295 -0.036569
9765.177734 4564.727539 6055.753906 -0.908035 -0.417295 -0.036569
9798.072266 4504.466797 5926.604492 -0.908035 -0.417295 -0.036569
10093.477539 4390.900879 5921.160645 0.217468 0.820303 -0.528971
9765.177734 4564.727539 6055.753906 0.217468 0.820303 -0.528971
10126.168945 4445.898438 6019.888184 0.217468 0.820303 -0.528971
10093.477539 4390.900879 5921.160645 0.365951 -0.859239 0.357475
10126.168945 4445.898438 6019.888184 0.365951 -0.859239 0.357475
9858.463867 4359.138672 6085.401855 0.365951 -0.859239 0.357475
10126.168945 4445.898438 6019.888184 0.166142 0.214197 0.962557
9765.177734 4564.727539 6055.753906 0.166142 0.214197 0.962557
9858.463867 4359.138672 6085.401855 0.166142 0.214197 0.962557
3 0 1 2
3 3 4 5
3 6 7 8
3 9 10 11
3 12 13 14
3 15 16 17
3 18 19 20
3 21 22 23
3 24 25 26
3 27 28 29
