ply
format ascii 1.0
comment Created by Blender 2.80 (sub 75) - www.blender.org, source file: 'downsample_ccf.blend'
element vertex 114
property float x
property float y
property float z
property float nx
property float ny
property float nz
element face 38
property list uchar uint vertex_indices
end_header
12162.549805 5575.783691 5257.867676 -0.010306 0.215152 -0.976526
12820.387695 5864.582520 5314.554688 -0.010306 0.215152 -0.976526
12362.540039 5386.470703 5214.046875 -0.010306 0.215152 -0.976526
12362.540039 5386.470703 5214.046875 -0.572670 -0.445706 -0.688037
12083.392578 5428.631836 5419.076172 -0.572670 -0.445706 -0.688037
12162.549805 5575.783691 5257.867676 -0.572670 -0.445706 -0.688037
12362.540039 5386.470703 5214.046875 0.416729 -0.213307 -0.883650
12820.387695 5864.582520 5314.554688 0.416729 -0.213307 -0.883650
12989.799805 5757.819336 5420.221191 0.416729 -0.213307 -0.883650
12362.540039 5386.470703 5214.046875 -0.434409 -0.792241 -0.428535
12226.064453 5294.738770 5521.979492 -0.434409 -0.792241 -0.428535
12083.392578 5428.631836 5419.076172 -0.434409 -0.792241 -0.428535
12989.799805 5757.819336 5420.221191 0.515703 -0.856356 -0.026546
12226.064453 5294.738770 5521.979492 0.515703 -0.856356 -0.026546
12362.540039 5386.470703 5214.046875 0.515703 -0.856356 -0.026546
12820.387695 5864.582520 5314.554688 -0.305565 0.797991 -0.519461
12162.549805 5575.783691 5257.867676 -0.305565 0.797991 -0.519461
12917.195312 6087.110840 5599.455078 -0.305565 0.797991 -0.519461
12140.039062 5608.792480 5561.307129 -0.920361 0.375535 -0.109129
12162.549805 5575.783691 5257.867676 -0.920361 0.375535 -0.109129
12083.392578 5428.631836 5419.076172 -0.920361 0.375535 -0.109129
12989.799805 5757.819336 5420.221191 0.660715 0.465990 -0.588480
12820.387695 5864.582520 5314.554688 0.660715 0.465990 -0.588480
12917.195312 6087.110840 5599.455078 0.660715 0.465990 -0.588480
12162.549805 5575.783691 5257.867676 -0.393052 0.835952 -0.383006
12567.695312 5947.360352 5653.101562 -0.393052 0.835952 -0.383006
12917.195312 6087.110840 5599.455078 -0.393052 0.835952 -0.383006
12162.549805 5575.783691 5257.867676 -0.598056 0.790776 -0.130389
12140.039062 5608.792480 5561.307129 -0.598056 0.790776 -0.130389
12567.695312 5947.360352 5653.101562 -0.598056 0.790776 -0.130389
12964.448242 5901.916016 5652.156738 0.970865 0.236164 -0.040604
12989.799805 5757.819336 5420.221191 0.970865 0.236164 -0.040604
12917.195312 6087.110840 5599.455078 0.970865 0.236164 -0.040604
12226.064453 5294.738770 5521.979492 -0.763185 -0.485460 0.426471
12173.630859 5477.625977 5636.332031 -0.763185 -0.485460 0.426471
12083.392578 5428.631836 5419.076172 -0.763185 -0.485460 0.426471
12226.064453 5294.738770 5521.979492 0.497494 -0.711419 0.496368
12989.799805 5757.819336 5420.221191 0.497494 -0.711419 0.496368
12964.448242 5901.916016 5652.156738 0.497494 -0.711419 0.496368
12173.630859 5477.625977 5636.332031 -0.922187 -0.015132 0.386447
12140.039062 5608.792480 5561.307129 -0.922187 -0.015132 0.386447
12083.392578 5428.631836 5419.076172 -0.922187 -0.015132 0.386447
12964.448242 5901.916016 5652.156738 0.233257 -0.466579 0.853168
12173.630859 5477.625977 5636.332031 0.233257 -0.466579 0.853168
12226.064453 5294.738770 5521.979492 0.233257 -0.466579 0.853168
12567.695312 5947.360352 5653.101562 -0.454218 0.351828 0.818476
12140.039062 5608.792480 5561.307129 -0.454218 0.351828 0.818476
12173.630859 5477.625977 5636.332031 -0.454218 0.351828 0.818476
12964.448242 5901.916016 5652.156738 -0.001557 -0.034373 0.999408
12567.695312 5947.360352 5653.101562 -0.001557 -0.034373 0.999408
12173.630859 5477.625977 5636.332031 -0.001557 -0.034373 0.999408
12964.448242 5901.916016 5652.156738 0.034548 0.281689 0.958884
12917.195312 6087.110840 5599.455078 0.034548 0.281689 0.958884
12567.695312 5947.360352 5653.101562 0.034548 0.281689 0.958884
12934.841797 6003.027832 5698.571777 -0.195422 0.324855 -0.925354
12327.069336 5759.807129 5741.539551 -0.195422 0.324855 -0.925354
12840.723633 6081.868164 5746.125977 -0.195422 0.324855 -0.925354
12283.782227 5380.365234 5777.970703 -0.134514 -0.079488 -0.987718
12121.261719 5438.926270 5795.391113 -0.134514 -0.079488 -0.987718
12327.069336 5759.807129 5741.539551 -0.134514 -0.079488 -0.987718
12934.841797 6003.027832 5698.571777 -0.033657 -0.091714 -0.995217
12283.782227 5380.365234 5777.970703 -0.033657 -0.091714 -0.995217
12327.069336 5759.807129 5741.539551 -0.033657 -0.091714 -0.995217
12934.841797 6003.027832 5698.571777 0.312486 -0.434455 -0.844749
12858.292969 5664.281738 5844.472656 0.312486 -0.434455 -0.844749
12283.782227 5380.365234 5777.970703 0.312486 -0.434455 -0.844749
12934.841797 6003.027832 5698.571777 0.781566 -0.387260 -0.489064
13029.434570 5958.105957 5885.310059 0.781566 -0.387260 -0.489064
12858.292969 5664.281738 5844.472656 0.781566 -0.387260 -0.489064
12840.723633 6081.868164 5746.125977 0.602906 0.789407 -0.115504
13029.434570 5958.105957 5885.310059 0.602906 0.789407 -0.115504
12934.841797 6003.027832 5698.571777 0.602906 0.789407 -0.115504
12198.330078 5313.032715 6049.845703 -0.351171 -0.877128 -0.327605
12121.261719 5438.926270 5795.391113 -0.351171 -0.877128 -0.327605
12283.782227 5380.365234 5777.970703 -0.351171 -0.877128 -0.327605
12121.261719 5438.926270 5795.391113 -0.836393 0.498026 -0.228947
12142.027344 5601.629395 6073.456543 -0.836393 0.498026 -0.228947
12327.069336 5759.807129 5741.539551 -0.836393 0.498026 -0.228947
12840.723633 6081.868164 5746.125977 -0.528882 0.841998 0.106412
12327.069336 5759.807129 5741.539551 -0.528882 0.841998 0.106412
12142.027344 5601.629395 6073.456543 -0.528882 0.841998 0.106412
12283.782227 5380.365234 5777.970703 0.449007 -0.890003 -0.079292
12858.292969 5664.281738 5844.472656 0.449007 -0.890003 -0.079292
12198.330078 5313.032715 6049.845703 0.449007 -0.890003 -0.079292
12812.043945 5978.963379 5997.191406 0.285288 0.874965 0.391213
13029.434570 5958.105957 5885.310059 0.285288 0.874965 0.391213
12840.723633 6081.868164 5746.125977 0.285288 0.874965 0.391213
12142.027344 5601.629395 6073.456543 -0.442852 0.846234 0.296260
12812.043945 5978.963379 5997.191406 -0.442852 0.846234 0.296260
12840.723633 6081.868164 5746.125977 -0.442852 0.846234 0.296260
12811.856445 5659.892578 6100.299316 0.846118 -0.512955 0.144783
12858.292969 5664.281738 5844.472656 0.846118 -0.512955 0.144783
13029.434570 5958.105957 5885.310059 0.846118 -0.512955 0.144783
12121.261719 5438.926270 5795.391113 -0.960479 -0.202965 0.190488
12198.330078 5313.032715 6049.845703 -0.960479 -0.202965 0.190488
12142.027344 5601.629395 6073.456543 -0.960479 -0.202965 0.190488
13029.434570 5958.105957 5885.310059 0.460823 0.272653 0.844572
12812.043945 5978.963379 5997.191406 0.460823 0.272653 0.844572
12811.856445 5659.892578 6100.299316 0.460823 0.272653 0.844572
12858.292969 5664.281738 5844.472656 0.486247 -0.870740 0.073322
12811.856445 5659.892578 6100.299316 0.486247 -0.870740 0.073322
12198.330078 5313.032715 6049.845703 0.486247 -0.870740 0.073322
12233.709961 5481.374512 6158.291992 -0.794602 -0.201865 0.572590
12142.027344 5601.629395 6073.456543 -0.794602 -0.201865 0.572590
12198.330078 5313.032715 6049.845703 -0.794602 -0.201865 0.572590
12812.043945 5978.963379 5997.191406 -0.170906 0.477647 0.861768
12142.027344 5601.629395 6073.456543 -0.170906 0.477647 0.861768
12233.709961 5481.374512 6158.291992 -0.170906 0.477647 0.861768
12811.856445 5659.892578 6100.299316 0.000501 0.307494 0.951550
12812.043945 5978.963379 5997.191406 0.000501 0.307494 0.951550
12233.709961 5481.374512 6158.291992 0.000501 0.307494 0.951550
12198.330078 5313.032715 6049.845703 0.252299 -0.560955 0.788463
12811.856445 5659.892578 6100.299316 0.252299 -0.560955 0.788463
12233.709961 5481.374512 6158.291992 0.252299 -0.560955 0.788463
3 0 1 2
3 3 4 5
3 6 7 8
3 9 10 11
3 12 13 14
3 15 16 17
3 18 19 20
3 21 22 23
3 24 25 26
3 27 28 29
3 30 31 32
3 33 34 35
3 36 37 38
3 39 40 41
3 42 43 44
3 45 46 47
3 48 49 50
3 51 52 53
3 54 55 56
3 57 58 59
3 60 61 62
3 63 64 65
3 66 67 68
3 69 70 71
3 72 73 74
3 75 76 77
3 78 79 80
3 81 82 83
3 84 85 86
3 87 88 89
3 90 91 92
3 93 94 95
3 96 97 98
3 99 100 101
3 102 103 104
3 105 106 107
3 108 109 110
3 111 112 113
