ply
format ascii 1.0
comment Created by Blender 2.80 (sub 75) - www.blender.org, source file: 'color_and_decimate.blend'
element vertex 247
property float x
property float y
property float z
property float nx
property float ny
property float nz
element face 490
property list uchar uint vertex_indices
end_header
-5750.017090 -7561.481445 -617.109497 -0.834864 -0.015290 -0.550188
-5746.031250 -8019.108887 -620.656494 -0.734581 0.473556 -0.485885
-5801.901367 -8015.444824 -557.966553 -0.738273 0.329905 -0.588305
-5728.937012 -8037.478516 -709.190552 -0.286447 0.949370 -0.128880
-5717.451660 -8018.731934 -679.881714 -0.808588 0.427015 -0.404767
-5687.683594 -7456.502441 -735.813782 -0.854213 -0.479568 -0.200690
-5725.201172 -7460.114258 -667.334290 -0.778802 -0.420454 -0.465468
-5691.276367 -8022.467773 -732.283875 -0.836848 0.514267 -0.187597
-5688.491211 -7988.908691 -1495.674194 -0.868618 0.435224 0.236763
-5702.416016 -8032.942871 -1433.377686 -0.594623 0.803003 0.039583
-6480.644531 -7936.600586 -1338.766113 0.743553 -0.604602 0.285592
-6540.972656 -8025.405273 -1361.561646 0.929167 0.269753 0.252663
-6467.286133 -7978.828125 -1458.128296 0.727042 -0.640126 0.248177
-6480.282715 -8026.140625 -1641.739990 0.974059 0.207221 0.090609
-6379.479980 -7918.752441 -1533.132690 0.548692 -0.797235 0.251656
-6338.341309 -7909.736328 -1570.109985 0.569628 -0.781060 0.255745
-6436.185547 -7998.099609 -1674.657227 0.593554 -0.804437 -0.023011
-6070.882812 -7816.462891 -1979.634766 0.351939 -0.798700 0.488021
-6163.393066 -7833.568848 -1946.889404 0.413282 -0.839045 0.353801
-6172.868652 -7948.299316 -2069.449463 0.376446 -0.804224 0.459853
-6266.808105 -7946.174805 -1981.504395 0.472121 -0.739067 0.480483
-6281.134766 -7893.643555 -1900.995117 0.528764 -0.799646 0.284494
-6367.591309 -7923.016602 -1846.596436 0.485824 -0.857875 0.167272
-6452.235352 -7993.971680 -1757.433228 0.665242 -0.745476 -0.040925
-5771.201660 -7858.745117 -1826.296265 -0.880428 0.067110 0.469375
-5716.767578 -7793.774902 -1725.057617 -0.925871 -0.045808 0.374981
-5745.686523 -7739.427734 -1755.585693 -0.808466 -0.383099 0.446699
-5808.056152 -7717.715332 -1846.126831 -0.350444 -0.854823 0.382641
-5970.156250 -7729.977051 -1762.722900 0.290353 -0.884121 0.366039
-5865.569336 -7761.275391 -1949.122681 -0.157872 -0.868465 0.469863
-6524.999512 -7958.745605 -1205.346313 0.908902 -0.399243 0.120182
-6477.692383 -7887.026855 -1238.849121 0.844966 -0.486343 0.222388
-6366.760742 -7777.588379 -1330.807495 0.719077 -0.548479 0.426679
-6374.756836 -7887.666992 -1454.174438 0.678060 -0.641530 0.358623
-6267.731445 -7746.438477 -1432.681152 0.660970 -0.568407 0.489883
-6533.489746 -8037.494141 -988.991455 0.054231 0.997436 0.046449
-6517.866211 -8037.478516 -1338.591309 0.232490 0.972106 0.030427
-6058.507812 -8037.401855 -258.715729 -0.347636 0.763207 -0.544633
-6556.946777 -8026.243164 -1066.850220 0.752922 0.603717 0.261910
-6540.371094 -7991.301758 -1125.872192 0.953734 -0.264046 0.143590
-6445.890137 -7792.606445 -1201.848999 0.860561 -0.384411 0.334117
-6417.428223 -7873.270020 -1360.192871 0.734794 -0.568621 0.369732
-6563.653809 -7920.913574 -1031.441772 0.700736 -0.142613 0.698996
-6511.003418 -7838.995605 -1070.684448 0.748680 -0.267098 0.606708
-6575.535156 -7781.632812 -1014.874084 0.277108 -0.073916 0.957976
-6608.542969 -8020.246094 -1012.887207 0.215461 0.532701 0.818415
-6720.965332 -7855.520020 -1013.578979 -0.261513 0.141179 0.954802
-6800.229492 -8034.479004 -998.792847 -0.128880 0.888638 0.440077
-6780.734863 -7993.382324 -1013.590454 -0.221168 0.255470 0.941160
-6898.534668 -8034.225098 -1057.913330 0.040773 0.732078 0.679983
-6836.767578 -7929.251465 -1057.463501 -0.339305 0.169073 0.925321
-6922.676270 -7971.241699 -1074.121216 0.332469 0.206030 0.920316
-6958.010742 -8020.958496 -1019.030762 0.772454 0.551897 0.314066
-6961.094238 -7873.767578 -1036.289795 0.954650 0.049379 0.293497
-6963.725098 -7771.252930 -942.314331 0.956694 0.027161 0.289743
-6986.250977 -7710.340332 -912.026489 0.957793 0.025117 0.286264
-6986.914062 -7979.018555 -886.859314 0.950652 0.193945 0.242073
-7013.992676 -7700.889648 -678.488586 0.980010 0.022095 0.197699
-7011.472656 -7620.483887 -773.430908 0.974578 0.019440 0.223090
-7014.107910 -7480.904297 -694.520203 0.976928 -0.096042 0.190619
-7039.893066 -7519.249512 -562.807861 0.976684 -0.023347 0.213294
-7010.752930 -7438.748047 -623.206909 0.439009 -0.898404 0.009796
-7058.153809 -7452.911133 -516.333740 0.862148 -0.472701 0.182257
-6489.041504 -8025.557617 -1500.910156 0.950438 -0.268807 0.156011
-5705.803711 -7966.306152 -1556.862793 -0.900418 0.363964 0.238197
-5720.742676 -8021.425293 -1580.128784 -0.730949 0.650472 0.206214
-5690.122070 -7881.359863 -1630.755371 -0.965758 0.120945 0.229469
-5688.922363 -7662.109375 -1517.859497 -0.976196 -0.111728 0.185736
-5694.859375 -7803.126465 -1651.204712 -0.974151 -0.060457 0.217597
-5745.938477 -7903.276855 -1746.819458 -0.910855 0.220771 0.348643
-5691.697754 -7451.426270 -1437.907837 -0.819697 -0.553178 0.148473
-5710.479004 -7612.539062 -1528.007568 -0.930174 -0.160924 0.329875
-5715.322266 -7443.139648 -1477.121460 -0.586871 -0.789819 0.178167
-5716.964844 -7564.265625 -1589.886353 -0.868068 -0.199683 0.454451
-5718.395020 -7680.215820 -1652.043701 -0.894009 -0.273202 0.355052
-5752.787598 -7643.972656 -1661.037964 -0.362285 -0.560350 0.744774
-5716.800781 -7458.506348 -1560.288208 -0.764153 -0.479019 0.431898
-5810.704102 -7453.049805 -544.403381 -0.768731 -0.389813 -0.507004
-5841.201172 -7663.487305 -490.079468 -0.892727 -0.021302 -0.450056
-5726.626465 -7437.505371 -716.378540 -0.312754 -0.939055 -0.142613
-5825.461426 -8035.987793 -554.919128 -0.369579 0.893033 -0.256661
-5930.576172 -7437.962402 -1537.370117 0.159795 -0.873775 0.459273
-6116.174316 -7438.216797 -1404.379028 0.214667 -0.946501 0.240822
-6280.026367 -7679.791016 -1348.159790 0.730094 -0.418500 0.540147
-6369.152344 -7605.862305 -1181.476807 0.742180 -0.149907 0.653188
-6373.590332 -7725.155273 -1241.467651 0.753990 -0.440260 0.487442
-5774.828613 -7577.047363 -1627.292969 0.175024 -0.356578 0.917692
-5879.317871 -7633.286621 -1648.180542 0.157414 -0.582720 0.797235
-5773.125000 -7708.125488 -1748.685059 -0.353313 -0.822077 0.446425
-5916.145020 -7704.441406 -1704.097534 0.188238 -0.709769 0.678793
-5967.051758 -7645.951660 -1632.464233 0.351787 -0.636158 0.686666
-6029.778320 -7711.487793 -1680.548706 0.375530 -0.808283 0.453444
-5891.404297 -7541.631348 -1595.158081 0.292032 -0.413984 0.862117
-5773.049805 -7505.227051 -1601.643799 -0.160741 -0.351329 0.922330
-7033.645020 -7452.216797 -651.587891 0.678152 -0.664968 0.312876
-6836.322754 -7699.405273 -1106.897461 -0.344249 0.182653 0.920927
-6818.521973 -7780.464355 -1067.556763 -0.343272 0.178777 0.922025
-6726.581543 -7599.678223 -1067.329224 -0.379345 0.227393 0.896847
-6651.543457 -7583.503906 -1058.348511 -0.208167 0.176244 0.962066
-6543.674316 -7510.005371 -1055.306519 0.093905 0.180425 0.979064
-6625.430664 -7452.649902 -1060.856689 -0.151585 0.170721 0.973571
-6486.263672 -7456.707520 -1068.201904 0.392315 -0.385357 0.835200
-6486.787598 -7439.654297 -1047.043945 0.080874 -0.958220 0.274331
-5764.554688 -7440.379395 -1575.706299 -0.166112 -0.788568 0.592059
-6000.578125 -7566.364258 -1551.605469 0.508469 -0.376995 0.774132
-5781.737305 -8037.085938 -1623.601074 -0.200323 0.976531 0.078829
-5756.484375 -8020.352539 -1648.328491 -0.658528 0.696738 0.284310
-5780.428711 -8015.645996 -1748.815918 -0.771752 0.589740 0.237861
-6502.185547 -8025.146973 -1863.130493 0.952727 0.139866 0.269601
-6465.372070 -8006.416504 -1865.034912 0.525315 -0.824946 0.208472
-5792.833008 -7951.401367 -1844.471680 -0.879940 0.256813 0.399609
-5842.201660 -8035.030273 -1861.109741 -0.550005 0.796838 0.249947
-5869.792480 -7946.272461 -1998.763550 -0.826197 0.183355 0.532640
-5901.717773 -8037.366211 -1988.343750 -0.506760 0.803400 0.312540
-5914.160156 -7851.246582 -2059.892090 -0.494675 -0.408734 0.766930
-5861.798828 -7789.663574 -1982.057373 -0.542711 -0.482986 0.687124
-5878.155762 -7566.065918 -435.567047 -0.876247 -0.139744 -0.461135
-5871.768555 -7615.744141 -416.930817 -0.858882 -0.111332 -0.499893
-5924.106445 -7513.934570 -374.100403 -0.730186 -0.156468 -0.665059
-5847.404785 -7875.937012 -475.820374 -0.897397 0.012299 -0.441023
-6746.001953 -7437.575684 -1083.357300 -0.088778 -0.965484 0.244758
-6917.128418 -7832.896484 -1112.067993 0.254891 0.189642 0.948149
-5870.224121 -7471.805176 -1578.424072 0.208045 -0.432569 0.877224
-5799.312500 -7765.812988 -1879.435303 -0.831629 -0.256966 0.492233
-5821.581055 -7854.520020 -1929.676147 -0.877590 0.015534 0.479110
-6339.070312 -8025.292969 -2053.109375 0.727531 0.225379 0.647969
-6309.663574 -7996.249512 -2031.652710 0.461287 -0.775567 0.430860
-6084.521973 -7956.577148 -2163.230713 0.088321 -0.339915 0.936277
-6167.220703 -7984.465820 -2166.980713 0.278207 -0.202002 0.939024
-6073.874512 -8015.734863 -2143.746094 -0.193365 0.641316 0.742485
-6003.768066 -7929.095703 -2150.171387 -0.365978 -0.163732 0.916074
-5858.549805 -8021.576660 -478.561371 -0.918516 -0.138615 -0.370220
-6989.498535 -7604.660645 -824.501221 0.967711 -0.002472 0.252022
-6988.689453 -7828.499512 -801.939819 0.976836 0.030457 0.211737
-5871.314941 -7444.750000 -457.516846 -0.592364 -0.676840 -0.436964
-5875.077148 -8029.560059 -416.105286 -0.676962 0.606952 -0.416272
-5982.428223 -7640.458984 -305.420624 -0.675283 -0.033815 -0.736747
-6013.992188 -8017.440918 -275.049622 -0.552660 0.300821 -0.777215
-6035.858887 -7555.441895 -263.137512 -0.628254 -0.103702 -0.771050
-6171.816406 -7753.687012 -1570.804565 0.629505 -0.675863 0.383251
-6174.640137 -7726.167480 -1512.477539 0.611744 -0.622639 0.487869
-6051.646484 -7759.733398 -255.562210 -0.688131 0.002106 -0.725547
-6027.815918 -7453.179199 -291.976318 -0.546373 -0.534410 -0.644856
-7060.719727 -7444.193359 -407.425018 0.638112 -0.753929 0.156072
-7037.053711 -7719.800781 -616.975586 0.979919 0.023713 0.197851
-6965.394043 -7982.997070 -926.793884 0.965667 0.133793 0.222633
-5985.680664 -7467.280762 -1538.888062 0.428358 -0.442579 0.787774
-5973.918945 -7848.760742 -2055.384277 0.075777 -0.820002 0.567278
-6000.486328 -7881.959473 -2113.209473 -0.054598 -0.709342 0.702719
-5941.455566 -7991.062500 -2073.542725 -0.666280 0.341685 0.662770
-5995.986816 -8034.742188 -2088.481934 -0.319742 0.805170 0.499405
-6084.685547 -7904.043945 -218.279739 -0.524216 0.018372 -0.851375
-6090.021484 -7762.016113 -217.658234 -0.455916 -0.017823 -0.889828
-6098.034180 -7559.501953 -220.324997 -0.377667 -0.102817 -0.920194
-6151.876465 -7606.541992 -207.645996 -0.321970 -0.052705 -0.945250
-7010.924316 -7849.506836 -747.962585 0.974273 0.027894 0.223548
-6078.975098 -7765.108887 -1750.241089 0.422254 -0.872127 0.247078
-5946.728516 -7772.783203 -1979.447388 0.067568 -0.862239 0.501938
-5938.738770 -7911.547363 -2083.995361 -0.675893 -0.034272 0.736167
-6043.655762 -7765.132324 -1912.741821 0.335032 -0.913633 0.230140
-6110.504883 -7804.879883 -1858.701294 0.484848 -0.862545 0.144566
-6125.064453 -7439.062500 -232.910873 -0.256874 -0.727928 -0.635670
-6240.486816 -7607.193359 -162.679138 -0.240272 -0.032319 -0.970153
-6233.320312 -8004.428223 -164.020294 -0.224555 0.190435 -0.955657
-6238.300293 -8033.002930 -176.019806 -0.111820 0.803461 -0.584704
-6117.091797 -7456.899414 -1438.047852 0.559160 -0.511734 0.652242
-6085.895020 -7555.866699 -1482.335571 0.606677 -0.240913 0.757530
-6174.726074 -7634.323242 -1445.731201 0.651357 -0.406659 0.640553
-6957.127441 -8034.502930 -890.253723 0.524796 0.843593 0.113437
-6155.941406 -8019.033691 -204.497375 -0.360393 0.283059 -0.888791
-6097.677246 -8017.357422 -221.236679 -0.398572 0.398450 -0.826044
-7065.132324 -7439.756836 -268.212402 0.514756 -0.794580 -0.321909
-7083.338379 -7453.945801 -367.605682 0.866817 -0.454482 0.205084
-7088.060547 -7495.100098 -253.489548 0.864223 -0.258095 -0.431806
-7063.797852 -7649.049805 -407.150909 0.981506 0.000458 0.191290
-7060.639160 -7604.895508 -493.154480 0.981414 0.020295 0.190741
-7011.117676 -8028.276855 -644.537903 0.653188 0.744041 0.140263
-6980.623047 -8033.310547 -789.616455 0.601581 0.786401 0.140110
-6105.400879 -7674.511230 -1547.531006 0.584552 -0.599780 0.546373
-7038.856934 -7786.505859 -522.358398 0.973357 0.027741 0.227454
-7010.643066 -8019.067871 -739.412537 0.882717 0.417127 0.216285
-6167.314453 -7814.699707 -1741.962036 0.532517 -0.832301 0.153783
-6146.857422 -7773.786621 -1651.355347 0.580309 -0.745964 0.326670
-6232.180176 -8035.727051 -2119.510498 0.200323 0.816095 0.542039
-6437.873047 -8036.986816 -1805.695557 0.099643 0.994842 0.018342
-6277.953613 -8022.207520 -2105.484619 0.639424 0.046571 0.767418
-6205.463867 -7438.185059 -225.670181 -0.154881 -0.888394 -0.432112
-6789.979004 -7442.656250 -220.161926 0.163274 -0.833094 -0.528428
-6233.886230 -7861.351074 -1840.263672 0.540361 -0.840541 0.038362
-6946.414551 -8023.737793 -167.369781 0.211066 0.506668 -0.835871
-7018.254883 -8037.401367 -218.897781 0.260994 0.850124 -0.457289
-6694.330078 -7441.325684 -178.495590 0.116733 -0.818018 -0.563189
-6997.515625 -7453.250000 -216.862823 0.148900 -0.581164 -0.800012
-6200.451660 -7512.345703 -1364.519897 0.705496 -0.185980 0.683828
-6186.929199 -7492.846680 -204.702499 -0.382488 -0.215735 -0.898404
-6282.176270 -7905.692383 -1788.695801 0.468917 -0.883145 0.011536
-6356.495117 -7437.880859 -1162.827393 0.211737 -0.958129 0.192633
-6275.766113 -7456.380859 -162.736511 -0.175268 -0.556261 -0.812281
-6273.516113 -7884.684570 -1663.609863 0.578936 -0.801874 0.147649
-6291.387695 -7558.836426 -1275.385498 0.758812 -0.158086 0.631794
-6704.611328 -7477.581543 -162.950775 0.177404 -0.259011 -0.949431
-7086.391113 -7670.500977 -347.175568 0.981323 0.013276 0.191900
-7064.514160 -7870.575684 -381.661377 0.981506 0.022675 0.189947
-7061.306152 -7796.022461 -473.594025 0.971343 0.023621 0.236457
-6380.156250 -7936.597656 -1732.571533 0.643361 -0.764000 -0.048463
-6831.783203 -7658.319336 -162.840958 0.221564 -0.117588 -0.968017
-6912.687500 -7612.130859 -211.034424 0.199133 -0.123844 -0.972106
-7079.773438 -7585.651367 -213.738525 0.609424 -0.063082 -0.790307
-6361.878906 -7452.411133 -1190.707153 0.637898 -0.495895 0.589190
-6402.751465 -7622.922363 -1151.108765 0.769066 -0.146672 0.622089
-6458.457520 -7556.841797 -1076.631836 0.627949 0.061220 0.775811
-6408.419922 -7453.909668 -1139.094116 0.654408 -0.405744 0.638020
-6458.481934 -7672.910156 -1087.789551 0.807581 -0.123417 0.576647
-6975.454590 -7768.460449 -211.593094 0.250465 -0.052980 -0.966643
-7086.130859 -7764.886230 -221.523056 0.746849 0.014740 -0.664815
-6562.766113 -7614.245605 -1010.134338 0.011109 0.214118 0.976714
-6467.214355 -7838.587891 -1143.481567 0.874905 -0.380749 0.299173
-6469.058594 -7746.368652 -1077.889282 0.823634 -0.174352 0.539628
-6904.728027 -7787.302246 -171.161530 0.353313 -0.080752 -0.931974
-6520.019043 -7689.377930 -1019.236328 0.451521 -0.066469 0.889767
-6598.266113 -7684.712402 -1014.357666 -0.137181 0.088931 0.986541
-6767.431152 -7810.814941 -1057.647583 -0.345439 0.173467 0.922239
-6683.456055 -7741.708496 -1025.566162 -0.336314 0.188116 0.922758
-6750.409668 -7528.885742 -1108.563232 -0.347697 0.156774 0.924375
-6893.981934 -7917.805664 -164.159210 0.191748 -0.020783 -0.981201
-7085.863281 -7903.494141 -318.359863 0.993194 0.104404 0.051515
-6978.244141 -7917.602539 -207.937012 0.286142 -0.093326 -0.953612
-6760.625488 -7451.754395 -1115.052612 -0.335673 -0.454268 0.825159
-6920.137695 -7605.704102 -1155.081665 0.343852 0.195654 0.918393
-6920.238770 -7442.248047 -1151.620483 0.445204 -0.611011 0.654500
-6951.550293 -7451.537598 -1080.458252 0.867031 -0.456923 0.198553
-6838.457520 -7454.968750 -1155.579956 -0.261940 -0.415967 0.870815
-6825.129395 -7572.123047 -1117.086304 -0.298959 0.170202 0.938932
-6924.002930 -7716.260254 -1116.385376 0.491348 0.130100 0.861171
-7034.854980 -7989.727051 -209.249222 0.299905 0.058931 -0.952116
-7080.513184 -8021.115234 -225.641296 0.714164 0.521958 -0.466384
-6954.192383 -7441.286621 -982.143494 0.590258 -0.787591 0.176824
-6980.641113 -7443.319336 -834.719788 0.623646 -0.763909 0.165716
-6961.460938 -7675.131836 -1042.537720 0.977844 0.029756 0.207160
-6963.759277 -7551.960449 -964.147339 0.927030 0.014374 0.374645
-6943.852051 -7645.101562 -1098.540039 0.921293 0.077242 0.381054
-7069.875000 -8022.589355 -340.278229 0.784387 0.616840 0.065065
-7061.253418 -8013.636719 -455.053894 0.912900 0.341166 0.223975
-7034.339355 -8032.049316 -503.284637 0.626514 0.764824 0.149937
-6985.065430 -7458.283691 -948.068298 0.881375 -0.360088 0.305704
-7007.937012 -7453.763672 -793.122192 0.855922 -0.450911 0.252998
-7036.023926 -8012.780762 -587.740662 0.933409 0.312204 0.176763
3 0 1 2
3 3 1 4
3 5 4 6
3 7 5 8
3 7 8 9
3 10 11 12
3 12 13 14
3 15 14 16
3 17 18 19
3 20 21 22
3 23 16 13
3 24 25 26
3 27 28 29
3 30 11 31
3 31 11 10
3 32 33 34
3 35 36 11
3 37 36 35
3 38 35 11
3 38 11 39
3 39 11 30
3 40 41 32
3 42 43 44
3 42 44 45
3 45 44 46
3 47 48 49
3 49 50 51
3 52 51 53
3 54 55 56
3 57 58 59
3 60 61 62
3 3 7 9
3 3 9 36
3 7 4 5
3 37 3 36
3 12 63 13
3 9 8 64
3 9 64 65
3 5 66 8
3 8 66 64
3 64 66 65
3 5 67 68
3 5 68 66
3 66 68 69
3 5 70 67
3 67 71 68
3 70 72 71
3 71 73 74
3 74 73 75
3 71 72 76
3 71 76 73
3 71 67 70
3 77 2 78
3 0 4 1
3 6 4 0
3 79 5 6
3 4 7 3
3 3 37 80
3 5 79 70
3 70 79 72
3 81 79 82
3 83 84 85
3 75 86 87
3 75 87 88
3 88 87 89
3 87 90 91
3 92 90 87
3 73 76 93
3 25 71 74
3 87 93 92
3 71 25 68
3 68 25 69
3 69 25 24
3 74 75 88
3 65 66 69
3 74 88 26
3 61 94 59
3 95 96 97
3 98 99 100
3 100 99 101
3 100 101 102
3 79 81 72
3 76 72 103
3 92 104 90
3 9 65 105
3 76 103 93
3 86 93 87
3 93 86 75
3 106 105 65
3 93 75 73
3 106 69 107
3 13 108 109
3 107 110 111
3 110 112 111
3 111 112 113
3 114 115 29
3 65 69 106
3 25 74 26
3 116 117 118
3 116 78 117
3 77 6 0
3 77 0 2
3 78 2 119
3 1 3 80
3 120 79 61
3 121 51 96
3 96 51 50
3 72 81 103
3 9 105 36
3 36 105 113
3 103 122 93
3 93 122 92
3 113 105 111
3 26 88 27
3 26 27 123
3 110 124 112
3 69 24 110
3 107 69 110
3 26 123 24
3 80 2 1
3 6 77 79
3 106 107 105
3 105 107 111
3 109 108 125
3 109 125 126
3 127 128 129
3 127 129 130
3 110 24 123
3 119 2 131
3 132 133 55
3 123 124 110
3 77 78 134
3 119 131 135
3 131 2 80
3 136 137 138
3 103 81 122
3 92 122 104
3 139 140 34
3 27 115 123
3 123 115 124
3 124 115 112
3 135 117 119
3 119 117 78
3 135 136 117
3 138 37 141
3 134 116 118
3 142 118 136
3 116 134 78
3 61 143 62
3 94 144 57
3 133 56 55
3 54 56 145
3 53 54 52
3 77 134 79
3 122 146 104
3 29 115 27
3 114 147 148
3 115 114 112
3 113 149 150
3 141 37 151
3 141 151 152
3 153 152 154
3 61 79 143
3 58 57 155
3 58 155 133
3 135 131 80
3 122 81 146
3 29 28 156
3 29 157 114
3 112 114 158
3 136 118 117
3 135 137 136
3 135 80 37
3 88 89 91
3 88 91 27
3 27 91 28
3 159 29 156
3 159 160 17
3 114 157 147
3 147 157 17
3 158 149 112
3 112 149 113
3 158 114 148
3 138 137 37
3 134 161 79
3 159 156 160
3 148 130 158
3 142 136 138
3 162 154 163
3 152 151 154
3 164 37 35
3 37 137 135
3 134 118 142
3 134 142 161
3 146 165 166
3 34 167 83
3 87 91 89
3 29 159 157
3 150 149 129
3 129 149 130
3 158 130 149
3 45 35 38
3 45 38 42
3 145 168 52
3 52 168 49
3 48 47 45
3 138 141 153
3 153 141 152
3 154 169 163
3 37 170 151
3 161 138 153
3 163 169 164
3 79 171 143
3 143 171 172
3 172 171 173
3 143 174 175
3 57 144 176
3 133 155 177
3 104 178 90
3 157 159 17
3 148 147 17
3 142 138 161
3 175 179 60
3 60 179 144
3 57 180 155
3 81 82 165
3 81 165 146
3 146 166 104
3 90 178 91
3 91 156 28
3 181 156 182
3 15 139 34
3 113 183 184
3 184 125 108
3 184 183 125
3 113 150 183
3 125 185 126
3 130 148 127
3 79 161 186
3 79 187 171
3 188 18 160
3 19 148 17
3 38 39 42
3 151 170 169
3 169 37 164
3 91 178 182
3 91 182 156
3 160 181 188
3 17 160 18
3 19 127 148
3 161 153 154
3 189 164 190
3 190 164 35
3 154 151 169
3 169 170 37
3 79 191 187
3 187 192 171
3 167 166 193
3 165 193 166
3 178 139 182
3 156 181 160
3 150 129 183
3 127 19 128
3 129 128 183
3 161 154 194
3 166 167 104
3 104 167 178
3 140 178 167
3 178 140 139
3 18 188 21
3 21 195 22
3 186 161 194
3 79 196 82
3 19 20 128
3 154 162 194
3 194 162 197
3 197 162 163
3 197 163 189
3 189 163 164
3 34 83 32
3 34 140 167
3 181 182 198
3 188 198 195
3 181 198 188
3 19 18 20
3 186 194 197
3 167 193 199
3 139 15 182
3 36 113 184
3 18 21 20
3 128 20 126
3 128 185 183
3 200 187 191
3 171 192 173
3 201 202 174
3 174 202 203
3 168 177 35
3 199 83 167
3 182 15 198
3 195 198 15
3 204 22 15
3 23 204 16
3 185 128 126
3 197 200 191
3 197 205 200
3 206 207 192
3 35 45 47
3 82 196 208
3 82 208 165
3 165 208 193
3 188 195 21
3 126 20 22
3 186 197 191
3 200 205 206
3 208 199 193
3 14 15 33
3 33 15 34
3 22 195 15
3 84 83 199
3 83 85 32
3 184 63 36
3 185 125 183
3 186 191 79
3 199 208 84
3 84 209 85
3 210 101 99
3 15 16 204
3 126 22 109
3 196 211 208
3 208 211 209
3 208 209 84
3 85 40 32
3 32 41 33
3 184 13 63
3 13 16 14
3 211 210 209
3 85 212 40
3 41 40 31
3 41 31 10
3 12 33 41
3 14 33 12
3 22 204 109
3 206 205 213
3 206 213 207
3 207 214 173
3 196 102 211
3 211 102 101
3 215 99 98
3 212 209 210
3 215 210 99
3 216 217 43
3 211 101 210
3 209 212 85
3 212 217 40
3 40 217 216
3 204 23 109
3 205 218 213
3 213 214 207
3 173 214 201
3 79 102 196
3 219 212 210
3 219 210 215
3 217 212 219
3 220 215 98
3 44 217 219
3 40 216 31
3 41 10 12
3 109 23 13
3 184 108 13
3 217 44 43
3 216 43 30
3 30 43 39
3 31 216 30
3 43 42 39
3 63 11 36
3 12 11 63
3 221 222 97
3 221 97 96
3 100 97 98
3 97 223 95
3 219 215 220
3 222 98 97
3 44 219 220
3 205 224 218
3 201 225 202
3 214 225 201
3 79 120 102
3 102 120 100
3 44 220 46
3 46 220 222
3 48 45 46
3 205 197 224
3 218 224 226
3 218 226 213
3 100 223 97
3 46 221 50
3 220 98 222
3 226 224 189
3 100 227 223
3 228 229 230
3 120 227 100
3 197 189 224
3 222 221 46
3 227 120 231
3 200 206 187
3 187 206 192
3 46 50 48
3 96 95 121
3 227 231 232
3 227 232 223
3 221 96 50
3 229 228 231
3 223 232 95
3 49 48 50
3 95 232 233
3 231 228 232
3 35 47 168
3 168 47 49
3 231 120 229
3 95 233 121
3 232 228 233
3 213 234 214
3 214 234 235
3 120 236 229
3 49 51 52
3 189 234 226
3 189 190 234
3 120 237 236
3 236 230 229
3 133 132 58
3 144 94 60
3 60 94 61
3 57 59 94
3 53 238 239
3 53 239 54
3 54 239 55
3 53 121 238
3 238 230 236
3 239 238 236
3 240 238 233
3 233 238 121
3 51 121 53
3 230 240 228
3 233 228 240
3 226 234 213
3 214 235 241
3 214 241 225
3 225 241 202
3 203 242 243
3 243 35 176
3 176 177 180
3 176 35 177
3 120 61 237
3 237 244 236
3 60 62 175
3 175 62 143
3 54 145 52
3 236 244 239
3 230 238 240
3 61 245 237
3 246 179 243
3 180 177 155
3 176 180 57
3 203 179 175
3 201 143 172
3 201 172 173
3 246 176 144
3 174 143 201
3 133 177 56
3 56 177 168
3 237 132 55
3 132 237 245
3 132 245 58
3 244 55 239
3 244 237 55
3 56 168 145
3 190 35 243
3 190 243 241
3 241 243 242
3 243 176 246
3 174 203 175
3 246 144 179
3 61 59 245
3 245 59 58
3 234 190 235
3 242 203 202
3 179 203 243
3 207 173 192
3 235 190 241
3 241 242 202
