ply
format ascii 1.0
comment Created by Blender 2.80 (sub 75) - www.blender.org, source file: 'color_and_decimate.blend'
element vertex 362
property float x
property float y
property float z
property float nx
property float ny
property float nz
element face 720
property list uchar uint vertex_indices
end_header
-6989.302246 -7822.910645 -806.074524 -0.981628 -0.020814 -0.189642
-6988.502930 -8031.366699 -873.556519 -0.733329 0.667348 -0.129795
-6991.100586 -8018.706055 -782.105042 -0.911466 0.333903 -0.240242
-7011.109863 -7854.561035 -742.255371 -0.982086 -0.014496 -0.187780
-7036.762695 -7926.706543 -606.726196 -0.969268 -0.000488 -0.245888
-7013.689453 -8018.700195 -646.695557 -0.905301 0.365825 -0.215766
-7051.285156 -8037.129883 -581.479675 -0.578051 0.810450 -0.094607
-7040.827148 -8022.121582 -503.854645 -0.827204 0.520676 -0.211066
-7064.393555 -7877.057617 -376.171753 -0.971923 0.001556 -0.235145
-7086.719727 -7885.336426 -327.899384 -0.973907 -0.007233 -0.226783
-7086.740234 -7668.677246 -348.590179 -0.971557 -0.022523 -0.235603
-7060.564453 -7604.560547 -493.495026 -0.975738 -0.043947 -0.214331
-7069.380371 -7455.416016 -401.107544 -0.918851 -0.373486 -0.127201
-7070.228027 -7438.365234 -508.527283 -0.605243 -0.783715 -0.139470
-7890.762207 -7438.276367 -455.989380 0.170080 -0.866207 -0.469802
-8033.395020 -7458.977051 -466.661346 0.249763 -0.445906 -0.859493
-8120.702637 -7445.418457 -515.056335 0.169439 -0.717765 -0.675344
-7055.007324 -7437.518066 -672.292175 -0.431440 -0.893674 -0.123234
-8339.391602 -7857.475586 -1516.770264 -0.411664 0.051698 0.909848
-8299.360352 -7680.211426 -1523.931030 -0.464675 0.145207 0.873470
-8392.041016 -7735.939941 -1565.931274 -0.523881 0.163427 0.835932
-9195.561523 -7484.050293 -1018.974365 0.708121 -0.325327 -0.626637
-9225.633789 -7527.680176 -1051.121338 0.732749 -0.258126 -0.629597
-9178.638672 -7440.261719 -1039.599609 0.391614 -0.776818 -0.493088
-9039.939453 -7439.632812 -947.874512 0.330332 -0.821039 -0.465560
-9097.713867 -7543.394531 -955.986328 0.544694 -0.117496 -0.830348
-8571.962891 -8034.969727 -658.497375 0.229072 0.758812 -0.609668
-8492.579102 -7994.523438 -614.293030 0.387127 0.134800 -0.912107
-8488.038086 -8031.184082 -628.023193 0.211188 0.814203 -0.540757
-9591.900391 -8037.466309 -1784.408691 0.370190 0.774957 0.512192
-7020.071777 -8037.432129 -734.870056 -0.600909 0.789209 -0.126530
-7975.695801 -8037.003906 -1341.222778 -0.089785 0.870083 0.484603
-8021.420898 -7975.400391 -1369.776123 -0.422437 0.023225 0.906064
-7983.570801 -7835.103027 -1355.981445 -0.329203 0.007782 0.944212
-8026.349609 -7786.929688 -1368.915405 -0.488449 0.038697 0.871700
-8066.826660 -8017.746094 -1402.538330 -0.369884 0.329691 0.868587
-8064.977539 -7706.207031 -1407.773193 -0.366375 0.094272 0.925657
-8102.620605 -7686.666016 -1415.744141 -0.379070 0.153264 0.912564
-8138.475098 -7847.856445 -1415.377808 -0.337840 0.034944 0.940550
-8159.729004 -7686.208984 -1455.533813 -0.473769 0.142796 0.868954
-8290.697266 -7824.470703 -1506.479980 -0.463546 0.086703 0.881802
-8233.458984 -7688.897461 -1488.860352 -0.438063 0.119480 0.890927
-8234.595703 -7692.499512 -515.422180 0.299631 -0.038820 -0.953246
-8267.641602 -7992.793945 -520.160217 0.362011 0.145390 -0.920743
-8327.422852 -8034.910645 -562.307861 0.233131 0.754540 -0.613422
-8420.376953 -7511.792480 -607.083496 0.339183 -0.141789 -0.929960
-8426.967773 -7883.422363 -609.358887 0.414106 -0.059358 -0.908261
-8496.624023 -7709.808594 -618.005066 0.312143 -0.041231 -0.949126
-8595.484375 -7605.337891 -667.781189 0.377117 -0.122471 -0.918027
-8633.295898 -7837.312012 -679.587891 0.416486 0.001526 -0.909116
-8699.070312 -7681.805176 -714.411316 0.452101 -0.047792 -0.890652
-8696.812500 -7562.720215 -724.338013 0.382275 -0.096866 -0.918943
-8782.662109 -7587.196289 -763.999023 0.478622 -0.078005 -0.874508
-7692.205566 -8030.622559 -367.116699 0.146886 0.761742 -0.630970
-7793.942383 -8018.433594 -366.385590 0.223304 0.468764 -0.854610
-7789.230957 -7783.540527 -363.402802 0.267617 -0.040712 -0.962645
-7968.650879 -7499.293457 -459.012604 0.241401 -0.100375 -0.965209
-7979.535645 -7666.182129 -459.362030 0.358806 -0.127476 -0.924650
-8132.072266 -7591.642090 -509.782043 0.326243 -0.104923 -0.939421
-9321.891602 -7437.641113 -2000.380615 0.392773 -0.769555 0.503433
-9627.201172 -7441.283691 -1371.791138 0.362835 -0.821253 -0.440260
-9795.649414 -7437.286133 -1544.941162 0.327097 -0.937254 -0.120457
-9774.929688 -8019.850098 -1635.899170 0.560015 0.533464 0.633839
-9697.688477 -7788.687500 -1714.336182 0.603870 -0.050020 0.795495
-9800.264648 -7890.396484 -1613.434204 0.661824 -0.020447 0.749352
-9727.386719 -8033.645508 -1437.905151 0.303659 0.873623 -0.380169
-9575.276367 -8036.656738 -1321.431519 0.222297 0.944823 -0.240608
-6938.141113 -8010.465820 -1078.699707 -0.853267 0.451399 0.261055
-6960.572754 -8016.077637 -1011.748047 -0.849971 0.512803 -0.120609
-6937.957031 -7898.791992 -1068.865967 -0.994964 -0.038118 -0.092654
-7062.688477 -8022.518066 -458.778748 -0.946776 0.243751 -0.210150
-7060.690918 -7790.586426 -478.079163 -0.964965 -0.013947 -0.261940
-6952.753418 -7822.859863 -1115.975586 -0.844295 0.076907 0.530290
-6936.878906 -7665.460449 -1112.166748 -0.996521 0.043489 0.071047
-6965.899414 -7700.875000 -1161.586914 -0.518265 0.063021 0.852870
-6982.311523 -8032.555176 -1101.334961 -0.384564 0.756798 0.528520
-7050.587891 -7868.628418 -1160.798096 -0.227943 0.099765 0.968535
-7102.425781 -8028.937012 -1152.197998 -0.145390 0.683218 0.715537
-7941.276367 -8019.141113 -415.291779 0.247200 0.418928 -0.873684
-8029.130859 -8030.823242 -462.462128 0.169622 0.738609 -0.652425
-7944.318848 -7731.214844 -415.871521 0.312784 -0.078097 -0.946593
-6960.922363 -7682.472168 -1042.949219 -0.986450 0.009491 -0.163640
-6963.970215 -7746.795898 -957.395447 -0.979980 -0.024262 -0.197546
-6964.544434 -7458.306641 -986.600708 -0.838435 -0.472549 -0.271462
-6943.908203 -7459.499023 -1105.493286 -0.900876 -0.426649 -0.079623
-6990.943848 -7454.294434 -835.759827 -0.886380 -0.422681 -0.188849
-6989.674316 -7614.929199 -818.712463 -0.966338 -0.029206 -0.255501
-7016.237793 -7439.708008 -793.586487 -0.649770 -0.743919 -0.156041
-7011.295898 -7610.137207 -778.484375 -0.966460 -0.033082 -0.254646
-7015.615234 -7453.549316 -715.133179 -0.861080 -0.465896 -0.203558
-7014.198730 -7709.727051 -672.519226 -0.971526 -0.022309 -0.235786
-7032.061035 -7498.804688 -650.911499 -0.970611 -0.150151 -0.187933
-6949.857422 -7448.728027 -1154.924927 -0.564043 -0.580950 0.586749
-7143.358398 -7495.808105 -1163.107910 -0.230659 0.028413 0.972594
-8120.736816 -8019.854492 -467.530334 0.294168 0.466048 -0.834407
-8164.914062 -8036.494629 -521.413330 0.092868 0.969268 -0.227699
-8186.239746 -8025.606445 -511.006439 0.286447 0.518113 -0.805872
-8108.057129 -7908.942871 -465.972717 0.305399 -0.016907 -0.952055
-7276.656250 -8023.324707 -1205.695312 -0.227973 0.517594 0.824671
-7302.938477 -7818.750977 -1211.974976 -0.252602 -0.037477 0.966826
-7474.365234 -8036.366699 -1204.963989 -0.085116 0.770653 0.631519
-7202.526367 -7859.747559 -1163.011597 -0.235572 -0.008118 0.971801
-7197.797852 -8035.586426 -1155.216309 -0.189032 0.779656 0.596973
-7268.879883 -7669.844238 -1171.958862 -0.367168 0.030152 0.929655
-6966.169922 -8021.166016 -921.179260 -0.841060 0.515915 -0.162603
-6986.807617 -7776.440430 -892.261230 -0.981384 -0.020783 -0.190893
-6985.692871 -7509.603516 -931.288330 -0.968261 -0.110263 -0.224189
-7115.708496 -7440.695801 -1150.157593 -0.074221 -0.819544 0.568163
-7220.954102 -7447.114258 -1208.552856 -0.220893 -0.593890 0.773614
-7004.616699 -7438.165039 -950.385071 -0.456862 -0.880978 -0.122806
-8387.641602 -7979.005859 -565.678406 0.313852 0.078310 -0.946226
-8626.918945 -7992.533691 -668.654297 0.424055 0.107517 -0.899197
-7036.444336 -7716.065918 -625.474182 -0.969848 -0.018372 -0.242897
-7039.560059 -7457.489746 -567.563232 -0.897031 -0.408918 -0.167608
-7674.946777 -7721.392578 -360.763550 0.241310 -0.034272 -0.969817
-7576.333008 -8017.899414 -1256.290283 -0.269631 0.357738 0.894009
-7539.278320 -7918.469727 -1214.028198 -0.256905 -0.089785 0.962249
-7670.611328 -8029.142090 -1259.438232 -0.152135 0.709403 0.688131
-7039.850586 -7792.315918 -516.866760 -0.965514 -0.018342 -0.259651
-7594.595703 -8027.673828 -318.138916 0.190405 0.653432 -0.732627
-7634.512695 -7908.134277 -1260.715332 -0.242653 -0.066286 0.967834
-7086.333496 -8036.432617 -332.152679 -0.658406 0.741386 -0.129521
-7090.628906 -7790.274902 -229.205170 -0.820887 -0.012757 -0.570940
-7063.206543 -7652.102051 -403.765747 -0.976562 -0.021027 -0.214057
-7095.852539 -7450.344727 -271.586578 -0.540605 -0.593921 -0.595782
-7107.367188 -7572.047852 -237.749741 -0.283700 -0.184637 -0.940947
-7172.317383 -7568.163574 -260.640900 0.153600 -0.103427 -0.982696
-7262.472168 -7499.743164 -263.455231 0.220191 -0.242134 -0.944914
-7573.567871 -7439.431152 -371.186371 0.142735 -0.830927 -0.537736
-7678.975586 -7438.986816 -369.117767 0.131535 -0.707053 -0.694784
-7876.388672 -8030.775391 -413.219116 0.177160 0.761711 -0.623188
-7132.319824 -7732.699707 -211.834900 0.007904 -0.104831 -0.994446
-7142.485840 -7910.725586 -207.901855 0.010193 -0.031892 -0.999420
-7252.646484 -7886.714355 -261.235138 0.247169 -0.035310 -0.968322
-7203.177246 -8012.640625 -215.277695 0.266091 0.430860 -0.862270
-7274.020996 -8033.934082 -270.314148 0.155736 0.792657 -0.589404
-7392.679688 -8020.639160 -266.303802 0.213507 0.491531 -0.844264
-7478.180664 -8031.417480 -312.325043 0.183111 0.764885 -0.617542
-7094.196289 -8024.281738 -225.637207 -0.584826 0.568621 -0.578448
-7232.569336 -7729.833984 -261.926514 0.213111 -0.057375 -0.975311
-7327.947754 -7623.125000 -1210.976440 -0.193060 0.045412 0.980102
-7221.120117 -7441.773438 -279.500671 0.090243 -0.791406 -0.604572
-7473.705078 -7774.553711 -309.884766 0.212409 -0.046846 -0.976043
-7383.098633 -7784.960938 -263.813873 0.264718 -0.063753 -0.962188
-7461.592285 -7442.826172 -1205.586060 -0.121860 -0.736595 0.665242
-7593.036133 -7764.573730 -1212.740234 -0.347301 -0.032136 0.937193
-7310.261719 -7440.116699 -327.574921 0.137638 -0.894528 -0.425275
-7640.328125 -7440.397949 -1262.346069 -0.209418 -0.734153 0.645863
-7884.556641 -7438.615723 -1358.780640 -0.235450 -0.759667 0.606128
-7371.208008 -7505.756836 -310.226410 0.170507 -0.172216 -0.970183
-7589.767578 -7735.361816 -313.140869 0.275857 -0.046876 -0.960021
-7394.344238 -7608.699707 -311.675446 0.257790 -0.098148 -0.961180
-7540.512695 -7581.319336 -314.228333 0.225501 -0.098819 -0.969207
-7487.927246 -7452.880859 -316.430908 0.172277 -0.571734 -0.802118
-7556.532227 -7610.497070 -1213.953735 -0.331126 0.127293 0.934935
-7661.564941 -7650.346191 -1260.025024 -0.260323 0.062014 0.963500
-7629.432617 -7525.343750 -359.553497 0.173620 -0.133549 -0.975707
-7553.151855 -7456.384766 -1252.380615 -0.323862 -0.282876 0.902799
-7820.783203 -7893.342285 -1306.038940 -0.279000 -0.041444 0.959380
-7817.945801 -7703.209473 -1307.391357 -0.310526 0.060854 0.948607
-7878.986816 -7721.240723 -1315.082153 -0.353801 0.096011 0.930357
-7889.374023 -7897.757812 -1315.720093 -0.323710 -0.066317 0.943815
-7655.097656 -7530.539551 -1265.959229 -0.505539 0.102298 0.856685
-7744.230957 -7682.965332 -1265.733521 -0.319376 0.086886 0.943632
-7730.846191 -7564.951660 -364.097534 0.263222 -0.100162 -0.959502
-7849.823730 -7584.777832 -1319.818848 -0.345531 0.158879 0.924833
-7851.532715 -7497.214844 -1358.148926 -0.468093 0.089633 0.879086
-7972.060059 -7615.798828 -1367.862061 -0.406201 0.143834 0.902371
-7935.595215 -7497.389648 -1386.726318 -0.361309 0.051088 0.931028
-8025.551758 -7514.323242 -1424.642090 -0.470962 0.091983 0.877316
-8002.952637 -7438.757324 -1399.827393 -0.263161 -0.793847 0.548173
-7795.375488 -7673.688965 -387.989532 0.461562 -0.119205 -0.879025
-7763.266602 -7571.810547 -1305.035400 -0.306162 0.135411 0.942289
-7741.345703 -7892.259277 -1264.620239 -0.283364 -0.061647 0.956999
-7757.436523 -8030.060059 -1302.726562 -0.273904 0.589007 0.760247
-7716.466797 -7451.961426 -1304.418335 -0.219520 -0.566668 0.794122
-7784.146973 -7457.111816 -1315.887085 -0.339427 0.078707 0.937315
-7770.784180 -7451.908691 -412.257690 0.358806 0.043733 -0.932371
-7831.848633 -7579.978027 -411.078918 0.231178 -0.070803 -0.970306
-9461.329102 -7437.519043 -1247.924805 0.260933 -0.916623 -0.302744
-7880.897949 -7780.781738 -410.955231 0.246193 -0.030641 -0.968719
-7884.684570 -7501.344238 -416.382416 0.263009 -0.245582 -0.932981
-7912.755859 -7622.442383 -415.144287 0.315806 -0.055605 -0.947172
-8672.002930 -8016.366211 -707.547729 0.422987 -0.113102 -0.899014
-8825.223633 -7774.229004 -772.537476 0.396130 -0.013520 -0.918058
-8773.609375 -8022.901855 -758.322815 0.462416 -0.236885 -0.854396
-8827.685547 -8015.866211 -769.744629 0.389386 0.355449 -0.849696
-7843.182617 -8022.501953 -1311.654541 -0.215949 -0.238411 0.946837
-7918.154785 -8016.206543 -1355.246826 -0.306131 0.398419 0.864589
-8091.187012 -7681.500977 -464.850861 0.290689 -0.068270 -0.954344
-8214.440430 -7551.343750 -515.601318 0.292978 -0.074160 -0.953215
-8269.672852 -7479.783203 -555.745728 0.294748 0.063417 -0.953459
-8192.189453 -7442.168945 -525.776917 0.172796 -0.714072 -0.678365
-8365.306641 -7438.353027 -620.033264 0.203528 -0.904233 -0.375378
-8030.923340 -7726.278809 -460.869995 0.216773 -0.056978 -0.974548
-8329.856445 -7729.999512 -561.447815 0.291330 -0.022095 -0.956359
-8334.884766 -7462.740234 -565.915710 0.363170 -0.435896 -0.823420
-8370.905273 -7676.056152 -569.221985 0.393445 -0.017243 -0.919156
-8175.160645 -7685.224609 -507.663391 0.280587 -0.072024 -0.957091
-7928.544434 -7692.413574 -1358.065674 -0.391217 0.091281 0.915738
-8132.435059 -8033.468750 -1414.093750 -0.254707 0.714042 0.652089
-8364.606445 -8031.613281 -1522.622681 -0.269295 0.709830 0.650838
-8297.756836 -8014.359375 -1505.699097 -0.455061 0.298715 0.838832
-8393.583008 -7877.790039 -1556.805542 -0.521226 0.074099 0.850185
-8736.331055 -8032.558594 -728.018311 0.362804 0.654653 -0.663137
-8119.573730 -7456.785645 -1490.899658 -0.449751 -0.298532 0.841731
-8180.805664 -7438.658691 -1500.464600 -0.193213 -0.841212 0.504959
-8184.561523 -8023.077637 -1449.189331 -0.355419 0.372845 0.857082
-8192.661133 -7828.406738 -1456.534668 -0.406751 0.087527 0.909299
-8251.755859 -8035.625000 -1460.461548 -0.264321 0.819910 0.507767
-8249.669922 -7835.400391 -1468.181885 -0.457228 0.096896 0.884030
-8179.914062 -7599.827148 -1476.086914 -0.426832 0.196844 0.882626
-8218.027344 -7489.063965 -1534.177612 -0.463301 0.043214 0.885128
-8292.266602 -7485.304199 -1577.256592 -0.565233 0.033052 0.824244
-8301.721680 -7439.598145 -1566.914795 -0.337016 -0.821436 0.460005
-8380.663086 -7451.810059 -1646.631836 -0.546648 -0.356090 0.757836
-8317.655273 -7574.580566 -1556.230957 -0.520768 0.265542 0.811335
-8859.645508 -7582.624023 -813.195190 0.522629 -0.092166 -0.847530
-8897.402344 -7661.978027 -817.459290 0.538011 -0.139561 -0.831294
-8432.108398 -7637.140137 -1624.073853 -0.538865 0.249916 0.804437
-8547.431641 -7684.404297 -1680.140137 -0.541520 0.196631 0.817347
-8495.406250 -7768.089355 -1625.201904 -0.524552 0.177587 0.832606
-8606.636719 -7793.179688 -1697.318115 -0.572314 0.189825 0.797723
-8950.077148 -7724.999023 -851.428284 0.571306 -0.071291 -0.817621
-8921.924805 -7605.945312 -855.330566 0.459059 -0.088229 -0.883999
-8968.174805 -7565.051758 -871.129150 0.467269 -0.038606 -0.883236
-8409.493164 -7542.152832 -1641.492798 -0.552873 0.273354 0.787133
-8513.175781 -7497.759277 -1728.664673 -0.579760 0.179388 0.794763
-8598.727539 -7460.894531 -1810.739380 -0.601764 -0.164525 0.781518
-8515.196289 -7439.454102 -1725.095215 -0.394391 -0.758812 0.518265
-9021.744141 -7791.772461 -2021.824341 -0.663747 0.291330 0.688864
-9068.708984 -7880.461914 -2040.760010 -0.693228 0.182836 0.697104
-8980.559570 -7915.915039 -1950.550781 -0.632130 0.210974 0.745537
-8918.948242 -7880.262207 -1909.076050 -0.615986 0.191839 0.764000
-8944.858398 -8029.419922 -1896.060547 -0.355663 0.760369 0.543382
-8878.073242 -8012.656250 -1860.590820 -0.563524 0.407331 0.718680
-8802.879883 -8035.413086 -1768.290527 -0.282815 0.851222 0.442030
-8772.721680 -7922.620605 -1791.226685 -0.579791 0.126133 0.804926
-8465.207031 -7458.541016 -622.790039 0.317576 -0.418073 -0.851070
-8462.441406 -7911.817383 -1587.949341 -0.462416 0.113315 0.879360
-8807.116211 -7847.518555 -1824.482422 -0.608783 0.160161 0.776971
-8749.811523 -7784.473633 -1791.757202 -0.671529 0.321207 0.667684
-8694.858398 -7706.515137 -1779.013428 -0.525071 0.249123 0.813746
-8788.192383 -7664.105957 -1870.416016 -0.625874 0.319712 0.711325
-8523.071289 -7442.172363 -662.582275 0.299478 -0.721946 -0.623737
-8527.883789 -8036.365723 -1598.594604 -0.193793 0.946745 0.257057
-8461.350586 -8022.125000 -1571.987061 -0.453505 0.221534 0.863247
-8526.125000 -7638.352051 -657.412048 0.295358 -0.272835 -0.915586
-8575.344727 -7624.155762 -1712.013184 -0.557817 0.259804 0.788232
-8879.831055 -8033.636719 -812.851501 0.307505 0.755608 -0.578295
-8934.348633 -7975.632812 -823.918213 0.421979 0.054201 -0.904965
-8561.609375 -7867.999023 -1645.594727 -0.562944 0.117161 0.818110
-8582.500000 -8019.751953 -1657.560791 -0.506333 0.411603 0.757714
-9602.610352 -7459.523438 -1783.604126 0.547380 -0.464370 0.696188
-9739.678711 -7455.879395 -1646.196777 0.478713 -0.614856 0.626667
-8604.347656 -7458.420410 -694.128174 0.418195 -0.221015 -0.881039
-8625.128906 -7545.555176 -704.859192 0.484756 -0.064608 -0.872219
-8698.111328 -7442.740234 -745.070190 0.284951 -0.743095 -0.605426
-9542.474609 -7441.658691 -1804.932617 0.432569 -0.694906 0.574389
-8674.560547 -7581.581543 -1805.953979 -0.603107 0.328929 0.726646
-8654.821289 -7749.028320 -1746.509766 -0.542985 0.222480 0.809717
-8676.843750 -8036.031738 -1698.334717 -0.250801 0.884884 0.392468
-8994.108398 -8018.184570 -867.122131 0.508866 0.396649 -0.763970
-9000.820312 -7800.768066 -869.714355 0.667562 -0.205145 -0.715720
-8652.394531 -8008.583984 -1703.685303 -0.519700 0.280587 0.806940
-8685.495117 -7875.262695 -1726.106201 -0.523148 0.101138 0.846187
-8695.321289 -7441.542480 -1862.675659 -0.381970 -0.792840 0.474837
-8789.676758 -7602.334961 -1908.144531 -0.637745 0.374218 0.673208
-8880.021484 -7711.671875 -1928.126709 -0.642933 0.295938 0.706381
-8709.318359 -7501.616211 -1883.914917 -0.664052 0.196356 0.721397
-8776.308594 -7454.932129 -772.115784 0.441633 -0.417188 -0.794275
-8821.414062 -7441.276855 -815.412415 0.274453 -0.827937 -0.489059
-8739.170898 -7442.527832 -1922.776245 -0.547929 -0.633717 0.546007
-8723.299805 -8010.458496 -1753.180542 -0.441725 0.386822 0.809442
-9554.015625 -7611.627930 -1832.718262 0.587420 -0.064394 0.806696
-9662.473633 -7711.213867 -1725.519897 0.602405 -0.042726 0.797021
-9517.606445 -7746.283691 -1869.209351 0.595233 -0.056887 0.801508
-9617.666992 -7892.023926 -1770.244507 0.594836 -0.034913 0.803064
-9454.195312 -7824.366699 -1913.774048 0.579485 -0.056276 0.813013
-9516.932617 -7569.087402 -1846.200439 0.594012 -0.089389 0.799432
-9407.371094 -7454.456055 -1953.023560 0.581072 -0.437910 0.685965
-8890.425781 -7438.126465 -2035.386597 -0.233833 -0.947569 0.217627
-9438.451172 -8019.139648 -1945.220093 0.495743 0.392407 0.774743
-9406.802734 -7964.360840 -1956.728638 0.585101 0.006928 0.810907
-8881.959961 -7464.094238 -826.562500 0.395001 -0.321421 -0.860591
-8846.653320 -7548.724609 -1989.480469 -0.636097 0.322398 0.701010
-8816.932617 -7459.303223 -1997.248535 -0.661794 -0.145177 0.735466
-8994.287109 -7554.398438 -2116.301270 -0.645344 0.380840 0.662160
-8896.628906 -7458.269531 -2077.605225 -0.703116 -0.215217 0.677664
-9385.259766 -8035.414062 -1958.689941 0.346202 0.802423 0.486007
-8951.496094 -7673.378906 -2014.703003 -0.625904 0.333445 0.704978
-9013.955078 -7606.932129 -2098.292236 -0.638142 0.397259 0.659474
-8988.699219 -7450.580566 -900.357117 0.471938 -0.506211 -0.721793
-9038.968750 -7443.406250 -2217.321533 -0.378735 -0.555162 0.740501
-9078.673828 -7457.740723 -2228.012695 0.195624 -0.351878 0.915342
-9072.036133 -7576.112305 -2193.269531 -0.515000 0.311533 0.798547
-9229.069336 -7738.798828 -1020.264465 0.531205 -0.128880 -0.837336
-9252.384766 -8019.832520 -1040.845947 0.541459 -0.046022 -0.839442
-9301.511719 -7732.805176 -1075.730225 0.708518 -0.129978 -0.693594
-9214.222656 -7456.735352 -2121.526367 0.483718 -0.574419 0.660298
-9298.174805 -7659.410156 -2039.820068 0.596423 -0.059114 0.800439
-9030.828125 -7826.336914 -904.136169 0.591083 -0.031800 -0.805963
-9047.375977 -8035.925781 -926.012451 0.188208 0.937956 -0.291147
-9308.565430 -8034.519531 -1075.377197 0.382458 0.707633 -0.594073
-9375.365234 -8020.519043 -1123.885498 0.596057 0.068117 -0.800043
-9328.993164 -7913.470703 -1099.951660 0.609607 -0.023041 -0.792322
-9335.134766 -7545.535156 -1110.461670 0.590075 -0.103641 -0.800623
-9267.442383 -7444.196289 -1092.932495 0.428083 -0.604236 -0.671987
-9033.050781 -8032.728027 -1954.509033 -0.393323 0.814020 0.427320
-9044.493164 -7539.959473 -918.845459 0.541246 -0.113376 -0.833155
-9457.219727 -8032.917480 -1190.129883 0.442274 0.705496 -0.553728
-9442.301758 -7855.723633 -1174.864868 0.635701 -0.043886 -0.770653
-9749.139648 -7995.976074 -1424.908325 0.611316 0.238716 -0.754509
-9784.247070 -7699.731934 -1461.171387 0.633717 -0.134678 -0.761711
-9747.629883 -7828.016113 -1423.710083 0.628986 -0.025971 -0.776971
-9860.742188 -7823.558105 -1560.222778 0.962188 -0.024812 0.271187
-9847.900391 -7587.040039 -1558.788208 0.995483 -0.093753 0.013977
-9849.668945 -8034.010254 -1528.621338 0.689535 0.664968 -0.286935
-9638.582031 -8016.919922 -1772.353027 0.503494 0.339915 0.794305
-9072.901367 -7787.522461 -2082.453857 -0.686026 0.274209 0.673910
-9055.856445 -7708.181641 -2091.275879 -0.684652 0.282266 0.671957
-9141.195312 -7738.212402 -2177.617432 -0.155675 0.244240 0.957121
-9168.151367 -7456.413574 -2142.912109 0.607929 -0.016938 0.793786
-9062.568359 -7681.883789 -919.471069 0.431898 -0.039033 -0.901059
-9110.340820 -7602.224609 -2195.757568 0.169591 0.080020 0.982238
-9180.990234 -7833.488770 -2154.020264 0.112125 0.145390 0.982971
-9236.226562 -7890.512207 -2102.206055 0.575121 -0.030305 0.817469
-9168.756836 -7610.984863 -2167.512207 0.560045 -0.035340 0.827693
-9101.870117 -8019.432617 -940.041199 0.499100 0.344951 -0.794885
-9136.656250 -7671.625488 -966.605408 0.620350 -0.082980 -0.779900
-9177.237305 -7671.543945 -1006.992493 0.596667 -0.090945 -0.797296
-9529.958984 -8016.426270 -1242.510986 0.625813 0.363811 -0.689901
-9498.925781 -7901.698730 -1223.193481 0.607990 -0.016938 -0.793756
-9199.470703 -8028.199707 -2121.789062 -0.083193 0.635426 0.767632
-9177.597656 -7917.758789 -2140.215576 -0.368816 0.199103 0.907895
-9169.104492 -7808.980957 -984.996155 0.502396 -0.008606 -0.864559
-9310.798828 -7699.250977 -1095.619141 0.549486 -0.078066 -0.831813
-9577.721680 -7441.450684 -1313.057373 0.474807 -0.732810 -0.487350
-9142.270508 -8036.793945 -2048.716309 -0.172124 0.965087 0.197333
-9254.698242 -8015.243164 -2106.347168 0.470748 0.409864 0.781274
-9310.419922 -7828.280762 -2051.381836 0.609668 -0.048341 0.791162
-9171.929688 -8027.310547 -988.015564 0.427778 0.667348 -0.609577
-9357.012695 -7441.636230 -1151.306885 0.371807 -0.743919 -0.555254
-9638.750977 -8018.093262 -1352.590576 0.590869 0.365764 -0.719047
-9648.260742 -7812.318848 -1357.222046 0.635975 -0.022919 -0.771355
-9563.638672 -7684.919922 -1279.126709 0.660482 -0.020447 -0.750542
-9416.313477 -7455.296387 -1183.409790 0.525864 -0.391949 -0.754845
-9430.065430 -7589.931641 -1190.633789 0.563555 -0.109500 -0.818751
-9533.511719 -7483.333008 -1259.805542 0.602893 -0.234443 -0.762566
-9509.852539 -7615.836914 -1237.773193 0.585864 -0.040010 -0.809381
-9352.422852 -7652.181152 -2009.557251 0.595660 -0.058504 0.801080
-9386.123047 -7642.313965 -1147.837891 0.622791 -0.067476 -0.779443
-9364.123047 -7832.161133 -1120.427246 0.527329 -0.028230 -0.849178
-9695.172852 -7647.976562 -1407.317017 0.660512 -0.062532 -0.748192
-9612.055664 -7539.208984 -1325.671509 0.639027 -0.081851 -0.764794
-9685.371094 -7461.168945 -1400.130371 0.621387 -0.396435 -0.675771
-9836.509766 -7456.446777 -1557.659058 0.865780 -0.498367 -0.045015
-9732.740234 -7577.363770 -1670.339233 0.592944 -0.065188 0.802576
-9791.703125 -7458.206543 -1619.934326 0.545946 -0.557512 0.625355
-9847.952148 -7678.854004 -1522.478027 0.855129 -0.125645 -0.502884
-9855.047852 -8024.257812 -1577.533203 0.741661 0.542680 0.394208
-9814.396484 -8019.917969 -1491.942993 0.637989 0.270730 -0.720847
3 0 1 2
3 0 2 3
3 4 5 6
3 4 6 7
3 8 9 10
3 11 12 13
3 14 15 16
3 14 16 17
3 18 19 20
3 21 22 23
3 21 24 25
3 26 27 28
3 29 30 31
3 32 33 34
3 35 36 37
3 38 37 39
3 40 41 19
3 42 43 44
3 45 46 47
3 47 46 27
3 48 49 50
3 51 50 52
3 53 54 55
3 56 57 15
3 15 58 16
3 59 60 61
3 62 63 64
3 29 65 66
3 67 68 69
3 70 71 7
3 72 73 74
3 75 76 77
3 78 79 80
3 81 73 72
3 69 81 72
3 81 69 68
3 68 82 81
3 67 72 75
3 83 84 81
3 85 86 87
3 87 86 88
3 89 88 90
3 89 90 91
3 74 92 93
3 94 95 96
3 94 96 97
3 98 99 100
3 79 95 94
3 73 84 92
3 84 73 81
3 73 92 74
3 98 101 99
3 76 74 101
3 102 98 100
3 102 100 30
3 79 94 97
3 102 101 98
3 30 95 79
3 69 72 67
3 101 103 99
3 72 74 76
3 104 105 82
3 104 1 105
3 88 0 3
3 104 82 68
3 104 68 1
3 1 68 75
3 83 82 106
3 82 83 81
3 106 105 85
3 106 82 105
3 105 86 85
3 68 67 75
3 30 75 77
3 107 17 108
3 90 3 5
3 0 86 105
3 86 0 88
3 1 0 105
3 89 87 88
3 2 1 30
3 85 109 106
3 106 109 83
3 83 109 84
3 84 109 92
3 92 109 107
3 46 110 27
3 26 111 49
3 112 90 5
3 112 5 4
3 13 113 11
3 90 112 91
3 91 112 113
3 90 88 3
3 5 3 30
3 5 30 6
3 30 3 2
3 85 87 109
3 114 53 55
3 1 75 30
3 72 76 75
3 92 107 93
3 115 100 116
3 100 115 117
3 7 118 4
3 71 118 7
3 118 11 113
3 118 113 4
3 11 118 71
3 113 112 4
3 113 17 91
3 91 17 89
3 89 17 87
3 109 87 17
3 30 53 119
3 116 120 115
3 9 8 121
3 121 8 70
3 9 121 122
3 10 123 8
3 123 71 70
3 8 123 70
3 121 70 6
3 124 12 10
3 123 12 11
3 123 11 71
3 12 123 10
3 124 125 126
3 124 126 127
3 17 128 129
3 6 70 7
3 113 13 17
3 53 30 130
3 53 130 54
3 131 122 132
3 133 132 134
3 133 135 136
3 136 135 137
3 122 138 132
3 138 122 121
3 132 138 134
3 126 125 139
3 139 131 133
3 125 124 122
3 122 124 10
3 122 10 9
3 131 125 122
3 138 121 135
3 109 17 107
3 93 107 108
3 93 108 140
3 131 132 133
3 124 13 12
3 101 77 76
3 125 131 139
3 138 135 134
3 124 127 141
3 102 77 101
3 74 93 101
3 93 140 103
3 30 77 102
3 142 143 137
3 126 139 127
3 124 141 13
3 108 17 144
3 99 145 116
3 134 135 133
3 13 141 146
3 140 108 145
3 143 136 137
3 139 133 143
3 143 133 136
3 13 146 17
3 93 103 101
3 147 17 148
3 108 144 145
3 139 143 127
3 137 135 121
3 141 127 149
3 114 150 53
3 141 149 146
3 151 150 152
3 99 116 100
3 127 143 151
3 143 142 151
3 149 127 151
3 137 121 6
3 103 140 99
3 149 151 152
3 146 153 128
3 146 149 153
3 145 144 154
3 145 154 155
3 140 145 99
3 114 152 150
3 17 146 128
3 153 149 152
3 151 142 150
3 150 119 53
3 137 6 30
3 156 152 114
3 137 30 119
3 154 157 155
3 158 159 160
3 158 160 161
3 142 137 150
3 150 137 119
3 155 162 163
3 128 153 152
3 128 152 156
3 164 156 114
3 144 157 154
3 157 147 155
3 159 165 160
3 165 166 167
3 167 166 168
3 169 148 170
3 164 114 55
3 164 55 171
3 95 30 44
3 95 44 96
3 147 144 17
3 155 147 162
3 162 172 163
3 129 156 164
3 157 144 147
3 128 156 129
3 116 145 120
3 117 120 173
3 174 117 158
3 158 163 159
3 147 175 162
3 162 175 172
3 172 165 159
3 115 120 117
3 145 155 120
3 175 176 172
3 17 129 14
3 172 176 165
3 155 163 120
3 120 163 173
3 165 176 166
3 129 164 177
3 177 164 178
3 129 177 14
3 175 147 176
3 176 147 148
3 170 148 179
3 173 158 117
3 30 100 117
3 30 117 174
3 172 159 163
3 163 158 173
3 180 55 130
3 130 55 54
3 171 55 180
3 178 164 171
3 181 177 178
3 181 178 182
3 26 183 111
3 184 185 186
3 174 158 187
3 187 188 31
3 174 187 31
3 174 31 30
3 171 180 178
3 178 180 182
3 15 57 189
3 15 189 58
3 190 191 192
3 17 192 193
3 14 177 181
3 182 180 80
3 80 57 182
3 57 194 189
3 190 42 191
3 191 195 196
3 196 195 197
3 187 158 161
3 176 148 166
3 189 198 58
3 160 199 33
3 187 161 188
3 188 33 32
3 31 32 35
3 31 35 200
3 31 200 29
3 166 148 168
3 79 130 30
3 80 180 78
3 180 130 78
3 14 181 56
3 199 165 167
3 36 167 169
3 169 168 148
3 160 165 199
3 42 195 191
3 130 79 78
3 160 33 161
3 33 199 34
3 199 167 34
3 80 194 57
3 56 181 182
3 56 182 57
3 161 33 188
3 31 188 32
3 167 36 34
3 167 168 169
3 194 97 189
3 198 96 42
3 15 14 56
3 201 202 40
3 201 40 18
3 201 18 203
3 80 79 194
3 194 79 97
3 189 97 96
3 189 96 198
3 197 46 45
3 26 204 183
3 96 43 42
3 197 110 46
3 26 29 204
3 205 169 170
3 17 179 148
3 205 170 206
3 32 36 35
3 35 37 200
3 200 37 38
3 200 38 207
3 32 34 36
3 169 37 36
3 207 208 209
3 209 208 210
3 207 38 208
3 169 211 39
3 169 39 37
3 169 205 211
3 42 44 195
3 195 110 197
3 16 58 190
3 190 58 42
3 192 16 190
3 16 192 17
3 29 200 209
3 38 39 208
3 39 211 41
3 205 206 212
3 213 214 215
3 170 179 206
3 210 40 202
3 198 42 58
3 208 39 41
3 208 41 210
3 205 212 211
3 210 41 40
3 211 212 216
3 19 216 20
3 206 214 212
3 212 214 213
3 44 30 29
3 200 207 209
3 214 206 179
3 211 19 41
3 195 44 110
3 47 26 48
3 217 184 218
3 26 49 48
3 43 96 44
3 196 192 191
3 210 202 209
3 18 20 203
3 40 19 18
3 212 213 216
3 219 220 221
3 221 220 222
3 218 223 224
3 224 223 225
3 192 196 193
3 17 193 179
3 19 211 216
3 226 213 215
3 209 201 29
3 202 201 209
3 216 213 226
3 216 226 219
3 20 216 219
3 193 196 45
3 44 29 28
3 226 215 227
3 228 227 229
3 230 231 232
3 233 234 235
3 235 234 236
3 235 236 237
3 238 193 45
3 28 29 26
3 203 20 239
3 214 179 229
3 240 241 242
3 240 242 243
3 45 196 197
3 110 44 28
3 110 28 27
3 193 238 244
3 179 193 244
3 201 245 29
3 201 203 246
3 215 214 229
3 215 229 227
3 204 185 52
3 45 47 238
3 238 247 244
3 201 246 245
3 203 239 246
3 219 221 20
3 20 221 239
3 226 227 248
3 238 47 247
3 27 26 47
3 49 183 50
3 185 184 52
3 184 249 218
3 218 249 250
3 218 250 223
3 221 251 239
3 239 251 246
3 245 246 252
3 226 248 219
3 219 248 220
3 253 61 254
3 255 48 256
3 255 244 48
3 48 244 247
3 179 244 257
3 251 252 246
3 258 61 253
3 248 227 259
3 227 228 259
3 244 255 257
3 247 47 48
3 111 183 49
3 183 204 50
3 222 220 260
3 222 251 221
3 248 259 260
3 258 59 61
3 245 252 261
3 220 248 260
3 260 259 242
3 242 259 243
3 204 52 50
3 186 249 184
3 223 250 262
3 223 262 263
3 255 256 51
3 255 51 257
3 29 245 261
3 264 222 265
3 252 251 264
3 261 252 264
3 251 222 264
3 228 229 266
3 266 229 179
3 243 259 267
3 243 267 268
3 50 256 48
3 260 242 241
3 259 228 269
3 228 266 269
3 257 51 52
3 257 52 270
3 256 50 51
3 257 271 179
3 222 260 265
3 266 179 272
3 272 179 59
3 271 24 179
3 264 265 237
3 264 237 273
3 264 273 261
3 265 260 241
3 274 253 275
3 52 184 217
3 270 52 217
3 270 217 271
3 236 273 237
3 265 241 237
3 237 241 240
3 235 240 233
3 269 267 259
3 266 272 269
3 257 270 271
3 276 274 277
3 276 278 279
3 273 236 261
3 280 59 258
3 272 59 281
3 277 29 282
3 276 282 278
3 278 283 280
3 271 217 284
3 185 204 249
3 204 29 249
3 29 261 236
3 269 272 285
3 269 285 267
3 286 272 281
3 285 272 286
3 240 243 268
3 240 268 233
3 186 185 249
3 240 235 237
3 287 285 286
3 286 288 287
3 283 282 289
3 289 282 29
3 267 285 268
3 286 281 288
3 290 287 291
3 217 224 284
3 284 224 225
3 284 225 292
3 24 271 292
3 233 232 234
3 285 290 268
3 287 288 293
3 293 288 281
3 293 294 295
3 293 295 287
3 217 218 224
3 250 249 262
3 296 297 298
3 271 284 292
3 29 236 234
3 233 268 290
3 285 287 290
3 299 59 300
3 263 262 301
3 262 249 302
3 249 29 302
3 303 304 305
3 22 306 307
3 234 232 308
3 232 233 230
3 290 230 233
3 225 223 301
3 225 301 309
3 301 223 263
3 225 309 292
3 292 309 25
3 292 25 24
3 304 310 311
3 312 313 314
3 315 64 316
3 316 64 63
3 65 29 317
3 317 318 62
3 62 318 63
3 317 29 318
3 29 234 308
3 319 320 321
3 322 59 299
3 309 323 25
3 24 23 179
3 29 310 303
3 319 290 320
3 230 290 319
3 291 287 295
3 321 295 324
3 325 300 326
3 290 291 320
3 293 281 59
3 327 322 299
3 293 59 294
3 294 59 322
3 262 328 301
3 301 323 309
3 25 329 330
3 25 330 21
3 262 302 328
3 303 310 304
3 310 331 332
3 333 308 232
3 333 232 334
3 231 230 319
3 323 301 328
3 329 335 330
3 21 330 336
3 22 336 306
3 25 323 329
3 59 179 337
3 29 308 338
3 320 291 295
3 295 294 324
3 323 328 329
3 330 335 296
3 339 340 283
3 338 308 333
3 325 334 319
3 319 334 231
3 231 334 232
3 320 295 321
3 294 322 324
3 329 328 341
3 329 341 335
3 298 297 303
3 328 302 341
3 341 302 29
3 341 29 303
3 23 24 21
3 29 338 289
3 319 321 325
3 321 324 327
3 338 333 289
3 324 322 327
3 321 327 325
3 335 341 297
3 335 297 296
3 21 336 22
3 289 333 339
3 300 327 299
3 23 307 179
3 327 300 325
3 334 325 333
3 297 341 303
3 179 307 342
3 331 343 344
3 325 326 333
3 336 330 296
3 336 296 298
3 23 22 307
3 326 339 333
3 345 331 344
3 310 29 66
3 310 66 331
3 326 340 339
3 307 306 342
3 346 342 347
3 348 347 349
3 300 340 326
3 336 298 305
3 298 303 305
3 300 350 340
3 349 351 332
3 345 349 331
3 349 332 331
3 351 311 332
3 306 352 351
3 351 352 311
3 306 336 352
3 352 336 305
3 352 305 304
3 352 304 311
3 350 280 283
3 306 351 342
3 342 346 179
3 348 349 345
3 313 353 314
3 342 351 347
3 59 280 300
3 300 280 350
3 340 350 283
3 339 283 289
3 331 66 343
3 347 351 349
3 346 347 348
3 280 279 278
3 283 278 282
3 311 310 332
3 346 348 179
3 59 337 60
3 280 258 279
3 279 274 276
3 179 348 337
3 348 345 337
3 354 337 345
3 282 276 277
3 258 253 279
3 279 253 274
3 60 355 61
3 355 316 356
3 357 358 63
3 343 66 65
3 274 275 277
3 337 354 60
3 353 345 344
3 29 277 318
3 60 354 355
3 344 343 312
3 318 277 63
3 354 345 353
3 312 343 65
3 254 357 253
3 253 357 275
3 275 63 277
3 354 353 355
3 312 314 344
3 353 344 314
3 357 63 275
3 358 316 63
3 316 353 359
3 355 353 316
3 315 317 360
3 313 312 361
3 317 361 65
3 361 312 65
3 254 61 358
3 254 358 357
3 313 361 359
3 353 313 359
3 61 356 358
3 355 356 61
3 360 317 62
3 359 317 315
3 316 358 356
3 62 64 360
3 361 317 359
3 315 316 359
3 360 64 315
