ply
format ascii 1.0
comment Created by Blender 2.80 (sub 75) - www.blender.org, source file: 'color_and_decimate.blend'
element vertex 370
property float x
property float y
property float z
property float nx
property float ny
property float nz
element face 736
property list uchar uint vertex_indices
end_header
-7122.256836 -8050.724609 -218.727997 -0.567186 -0.574389 -0.590167
-7175.840820 -8277.357422 -210.030243 0.092349 0.103092 -0.990356
-7199.847168 -8055.259277 -219.083694 0.214881 -0.503616 -0.836756
-7279.044434 -8042.669922 -263.035889 0.143864 -0.761559 -0.631886
-7280.868164 -8299.520508 -260.468231 0.211707 0.042207 -0.976409
-7394.922363 -8239.218750 -265.589142 0.310831 0.042512 -0.949492
-7341.453613 -8434.716797 -264.464813 0.260537 0.081881 -0.961974
-7454.570312 -8289.135742 -310.102844 0.276894 0.053011 -0.959410
-7759.800781 -8463.398438 -1366.460449 -0.283425 -0.128483 0.950316
-7704.861816 -8428.891602 -1357.482422 -0.356761 -0.129002 0.925230
-7880.833984 -8278.203125 -1366.125000 -0.288644 -0.171026 0.942015
-7825.847168 -8245.295898 -1359.284302 -0.249672 -0.143315 0.957640
-7966.739258 -8261.082031 -1406.693848 -0.300821 -0.156133 0.940794
-8070.109863 -8195.255859 -1416.908203 -0.299020 -0.142369 0.943541
-8008.328613 -8326.381836 -1418.465942 -0.321635 -0.197913 0.925932
-8075.582520 -8332.040039 -1457.646484 -0.302744 -0.180731 0.935759
-8056.814941 -8463.081055 -1468.169434 -0.339488 -0.227454 0.912687
-8181.845703 -8264.822266 -1466.701782 -0.375011 -0.183996 0.908536
-8169.832520 -8374.894531 -1504.451172 -0.367809 -0.222388 0.902890
-8201.211914 -8437.635742 -1517.635010 -0.351909 -0.217658 0.910367
-8260.076172 -8432.836914 -1551.711426 -0.392376 -0.233345 0.889706
-8142.285645 -8618.644531 -1557.884521 -0.393933 0.282937 0.874477
-8209.757812 -8635.654297 -1555.673340 0.016938 0.917112 0.398206
-8224.692383 -8576.038086 -1569.192261 -0.337016 -0.085238 0.937620
-8301.956055 -8631.409180 -1611.995972 -0.316233 0.645405 0.695273
-7207.514648 -8637.470703 -839.659668 -0.574389 0.816950 0.051424
-8506.228516 -8057.000000 -1605.628784 -0.563524 -0.242866 0.789544
-8582.825195 -8043.483887 -1654.923706 -0.381695 -0.709372 0.592517
-8552.235352 -8235.878906 -1643.994019 -0.479965 -0.091678 0.872463
-8461.638672 -8256.019531 -1605.572388 -0.444136 -0.126621 0.886929
-8429.760742 -8179.121582 -1569.794556 -0.420972 -0.121830 0.898831
-8355.759766 -8371.254883 -1569.282471 -0.402722 -0.203742 0.892331
-8389.723633 -8403.860352 -1602.747681 -0.422803 -0.236976 0.874660
-7163.126465 -8484.025391 -647.520569 -0.959655 0.199347 0.198279
-7186.356445 -8477.194336 -708.231812 -0.962096 0.197211 0.188299
-7196.787109 -8636.707031 -566.286072 -0.504379 0.852138 0.139439
-7114.429688 -8222.161133 -232.664795 -0.901608 0.168432 -0.398389
-7144.659668 -8334.183594 -219.805740 -0.571062 0.178991 -0.801111
-7136.965820 -8192.585938 -322.634277 -0.974334 0.151769 0.166082
-7118.002441 -8052.740234 -404.915924 -0.904752 -0.369457 0.211921
-7140.220215 -8043.042480 -463.200256 -0.690237 -0.721091 0.059755
-7161.511719 -8227.075195 -613.630798 -0.973968 0.144688 0.174352
-7163.058105 -8279.353516 -833.852478 -0.955077 0.187139 0.229774
-7215.368164 -8622.476562 -902.088562 -0.988128 -0.004059 0.153478
-7188.154297 -8580.133789 -886.049988 -0.946623 0.249245 0.204291
-7211.757812 -8513.511719 -975.831055 -0.941527 0.212622 0.261299
-7218.765137 -8628.297852 -1109.369629 -0.695944 0.650716 0.303568
-7140.594238 -8054.173340 -703.120056 -0.898984 -0.353374 0.258644
-7163.978516 -8044.830078 -752.069153 -0.691458 -0.717521 0.083773
-8452.113281 -8037.948242 -1554.621582 -0.241646 -0.825556 0.509903
-7504.766113 -8037.521484 -331.173737 0.055239 -0.926511 -0.372112
-9498.722656 -8037.507812 -1260.726562 0.163274 -0.969024 -0.185186
-7280.694824 -8580.419922 -264.102692 0.201514 0.305612 -0.930570
-7367.988281 -8588.073242 -310.028839 0.215308 0.222816 -0.950774
-7490.217285 -8631.478516 -325.809814 0.104160 0.773186 -0.625507
-7591.953125 -8633.038086 -372.677277 0.181524 0.840541 -0.510422
-7138.506348 -8414.098633 -399.190643 -0.956084 0.210425 0.203986
-7158.887207 -8553.187500 -263.611786 -0.622578 0.305246 -0.720511
-7161.326660 -8414.016602 -447.247620 -0.963195 0.175970 0.203070
-7166.007324 -8622.268555 -516.635437 -0.838435 0.535508 0.100986
-7320.268066 -8634.401367 -317.264771 0.133641 0.873226 -0.468551
-7149.878906 -8430.581055 -231.931488 -0.329630 0.182287 -0.926328
-7231.265625 -8400.244141 -260.359467 0.191900 0.084902 -0.977722
-7139.895508 -8533.923828 -275.845032 -0.851497 0.523667 -0.025605
-7173.864746 -8630.234375 -276.945038 -0.501663 0.674886 -0.541093
-7138.399414 -8248.636719 -532.408020 -0.973632 0.146855 0.174505
-7185.475098 -8317.266602 -845.671936 -0.955290 0.190100 0.226356
-7188.079590 -8433.474609 -995.607117 -0.970550 0.168249 0.172246
-7325.769043 -8591.264648 -1203.641113 -0.385266 0.334147 0.860164
-7222.444824 -8518.159180 -1150.442017 -0.798700 0.101535 0.593066
-7314.790039 -8490.891602 -1208.342041 -0.364208 0.044801 0.930235
-7559.657715 -8445.041992 -1305.596680 -0.365246 -0.045137 0.929777
-7497.494141 -8403.822266 -1264.589844 -0.271279 -0.045228 0.961425
-7560.928223 -8238.753906 -1265.083862 -0.241981 -0.114628 0.963469
-7658.134766 -8050.209961 -1258.762329 -0.363201 -0.136082 0.921690
-7757.327637 -8046.207520 -1307.547363 -0.157292 -0.697134 0.699454
-7215.177734 -8359.800781 -1152.081055 -0.826289 0.154576 0.541581
-7186.954590 -8183.347168 -955.852783 -0.949370 0.201025 0.241401
-7189.549316 -8292.220703 -1134.463013 -0.914884 0.080050 0.395672
-7594.588379 -8363.561523 -315.928467 0.277444 0.054720 -0.959166
-7542.774414 -8449.945312 -312.904297 0.200140 0.062349 -0.977752
-7673.009766 -8398.418945 -356.555298 0.257393 0.051729 -0.964904
-7623.922852 -8516.895508 -358.954163 0.257912 0.112369 -0.959593
-7732.680176 -8480.108398 -364.703094 0.251167 0.075198 -0.964995
-7691.279785 -8627.429688 -368.206665 0.141881 0.672689 -0.726188
-7476.102539 -8059.264160 -309.051422 0.323588 -0.194464 -0.925962
-7393.794922 -8055.850098 -266.379974 0.223182 -0.463393 -0.857570
-7164.567871 -8055.519531 -1021.762085 -0.902005 -0.385388 0.194494
-7275.864746 -8366.816406 -1209.266968 -0.406537 0.091647 0.908994
-7186.646973 -8075.578125 -1065.556641 -0.969176 0.099582 0.225288
-7376.650879 -8319.301758 -1213.439087 -0.327921 -0.051851 0.943266
-7290.878418 -8053.908203 -1210.310181 -0.180670 -0.558214 0.809778
-7525.775391 -8578.184570 -312.887085 0.270699 0.201849 -0.941252
-7211.529785 -8038.083496 -1143.940918 -0.398328 -0.896817 0.192328
-7196.833984 -8053.692871 -1157.360962 -0.777184 -0.430250 0.459151
-7481.749023 -8211.133789 -1260.407715 -0.260628 -0.095401 0.960692
-7391.819336 -8180.179688 -1213.381958 -0.203314 -0.067415 0.976775
-7455.952148 -8053.190430 -1210.797607 -0.150670 -0.399701 0.904172
-7550.339844 -8057.115234 -1259.678467 -0.159642 -0.563891 0.810236
-7244.379883 -8140.625488 -1199.276733 -0.496567 -0.008820 0.867916
-7541.154785 -8037.575684 -1202.306152 -0.036897 -0.983764 0.175481
-7430.135742 -8443.012695 -310.276917 0.223182 0.061190 -0.972839
-7681.824707 -8055.623535 -361.076080 0.228950 -0.338115 -0.912809
-7878.084961 -8039.631348 -416.689423 0.129215 -0.923246 -0.361736
-7791.617188 -8055.350098 -366.239471 0.200903 -0.533525 -0.821528
-7824.802246 -8500.213867 -409.298798 0.250618 0.072970 -0.965300
-7774.325684 -8634.017578 -418.526459 0.177038 0.822871 -0.539933
-7399.129395 -8633.677734 -1206.900513 -0.284066 0.810724 0.511826
-7385.501953 -8535.657227 -1225.045654 -0.366375 0.083285 0.926725
-7427.961914 -8334.672852 -1259.073975 -0.402966 -0.076144 0.912015
-7468.484863 -8634.903320 -1259.894287 -0.144597 0.727165 0.671010
-7627.101562 -8479.393555 -1316.018066 -0.316263 -0.061922 0.946623
-7645.222656 -8248.859375 -1309.705811 -0.268532 -0.136723 0.953490
-7681.568848 -8332.611328 -1316.266235 -0.269997 -0.142216 0.952269
-7920.979004 -8055.052734 -1357.253418 -0.194525 -0.583880 0.788171
-7974.844727 -8086.136719 -1366.542603 -0.285989 -0.324564 0.901578
-7986.211914 -8038.202637 -1341.257568 -0.093570 -0.907682 0.409040
-7593.820312 -8056.902832 -315.767151 0.244819 -0.521592 -0.817286
-7762.173340 -8353.999023 -365.342651 0.309458 0.022004 -0.950652
-8118.174316 -8548.513672 -505.522247 -0.183294 0.377209 -0.907773
-8073.379883 -8636.555664 -521.421448 0.181677 0.873806 -0.451003
-8158.145996 -8618.599609 -517.025940 0.248939 0.510880 -0.822810
-8373.150391 -8291.597656 -568.716553 0.443068 0.028260 -0.896023
-8411.610352 -8413.238281 -606.840271 0.368908 0.067324 -0.927000
-8416.530273 -8051.774414 -602.052124 0.299631 -0.508591 -0.807184
-7887.675781 -8477.998047 -414.480835 0.276711 0.077517 -0.957793
-7862.433594 -8616.674805 -417.574097 0.277749 0.456160 -0.845424
-7923.327637 -8632.661133 -467.075806 0.181921 0.811640 -0.555071
-7964.978027 -8476.917969 -452.193359 0.328318 0.079409 -0.941191
-8008.104492 -8615.691406 -464.637909 0.227515 0.470931 -0.852290
-7831.066406 -8258.560547 -410.415588 0.311777 0.150395 -0.938169
-7504.005859 -8629.206055 -1262.578735 -0.230110 0.743004 0.628468
-7560.776367 -8619.039062 -1306.536377 -0.422437 0.401929 0.812372
-7609.940430 -8634.928711 -1305.945068 -0.142979 0.941160 0.306131
-7770.371094 -8229.417969 -363.573242 0.256142 0.066591 -0.964324
-7842.809082 -8193.052734 -391.127197 0.337352 0.085940 -0.937437
-7933.615723 -8259.841797 -415.182983 0.334452 0.054140 -0.940825
-8178.379395 -8352.259766 -509.521057 0.277810 0.049898 -0.959319
-8056.837891 -8416.168945 -468.548065 0.235267 0.058626 -0.970153
-7705.429688 -8621.999023 -1365.512451 -0.375378 0.407788 0.832301
-7832.547363 -8055.713867 -1313.579102 -0.229347 0.051851 0.971954
-7822.072266 -8636.420898 -1395.805176 -0.147008 0.947172 0.285012
-7832.978027 -8467.839844 -1405.926636 -0.314982 -0.168584 0.933988
-7780.341309 -8611.400391 -1409.081665 -0.422987 0.284127 0.860408
-7913.345215 -8466.155273 -1417.099243 -0.325694 -0.218360 0.919889
-7996.680176 -8281.073242 -458.391632 0.325938 0.037751 -0.944609
-7879.070312 -8617.213867 -1458.767578 -0.315989 0.366527 0.875088
-7986.094238 -8450.835938 -1455.589355 -0.333110 -0.226539 0.915250
-7943.653809 -8056.434570 -415.905548 0.251228 -0.394269 -0.883969
-8031.329102 -8047.678223 -463.281128 0.223029 -0.563158 -0.795648
-7965.756348 -8636.665039 -1452.430176 -0.100223 0.928037 0.358684
-8235.695312 -8282.309570 -515.453430 0.331553 0.067568 -0.941008
-8221.166016 -8463.587891 -522.681030 0.419752 0.071444 -0.904813
-8089.939453 -8315.019531 -464.654663 0.263405 0.052980 -0.963195
-8276.981445 -8338.028320 -559.083740 0.385510 0.097476 -0.917508
-8258.519531 -8522.207031 -556.141357 0.347362 0.111820 -0.931028
-8326.082031 -8476.176758 -566.419983 0.301370 0.052034 -0.952055
-8078.277344 -8630.943359 -1512.970093 -0.228584 0.679403 0.697195
-8080.293457 -8519.845703 -1506.497803 -0.313822 -0.207526 0.926511
-7960.986816 -8592.924805 -1467.576660 -0.316568 0.018250 0.948363
-8284.812500 -8290.810547 -1520.613525 -0.406293 -0.185095 0.894772
-8011.447754 -8616.208008 -1507.088257 -0.392438 0.293710 0.871609
-8031.802734 -8094.500488 -1407.916626 -0.326518 -0.316630 0.890561
-8177.258301 -8044.771484 -510.382050 0.237037 -0.697134 -0.676595
-8116.754883 -8041.628906 -1410.184326 -0.250526 -0.786645 0.564257
-8225.602539 -8120.139160 -1469.280884 -0.340617 -0.096805 0.935179
-8250.711914 -8231.375000 -1504.975342 -0.391064 -0.162572 0.905881
-8327.724609 -8163.370117 -1520.370728 -0.471541 -0.147374 0.869411
-8117.548828 -8059.564941 -467.005402 0.305765 -0.407331 -0.860561
-8326.357422 -8244.707031 -558.561401 0.299661 0.041353 -0.953124
-8168.910156 -8155.701660 -1458.430298 -0.325205 -0.109317 0.939268
-8232.034180 -8633.200195 -573.142151 0.174596 0.831599 -0.527207
-8321.041992 -8039.336426 -1493.801880 -0.231910 -0.817774 0.526688
-8344.759766 -8265.396484 -1554.106934 -0.409803 -0.151860 0.899411
-8244.692383 -8056.299805 -516.387573 0.280404 -0.454787 -0.845271
-8398.126953 -8037.975098 -618.513855 -0.105472 -0.904111 0.414045
-8179.428223 -8050.805176 -1453.363281 -0.355205 -0.479171 0.802606
-8319.815430 -8054.404785 -556.378479 0.387829 -0.450148 -0.804315
-8296.955078 -8065.507324 -1505.021362 -0.374493 -0.466262 0.801416
-8916.512695 -8634.979492 -880.331726 0.326579 0.789758 -0.519211
-8997.828125 -8630.484375 -931.463257 0.296335 0.783563 -0.546068
-8294.299805 -8622.188477 -569.691406 0.205695 0.533586 -0.820338
-8366.547852 -8636.011719 -626.016113 0.232124 0.880581 -0.413068
-8415.385742 -8581.262695 -617.696838 0.431013 0.254555 -0.865658
-8277.052734 -8587.762695 -1604.952393 -0.460860 -0.094913 0.882351
-8517.852539 -8475.763672 -656.573792 0.413038 0.090762 -0.906156
-8601.603516 -8490.785156 -692.381531 0.420515 0.088687 -0.902921
-8586.344727 -8294.765625 -664.085022 0.385144 0.101871 -0.917173
-8526.398438 -8306.310547 -657.416931 0.355785 0.225227 -0.907010
-8687.449219 -8354.876953 -716.305786 0.401044 0.123447 -0.907682
-8664.103516 -8043.024414 -704.824585 0.295633 -0.645985 -0.703726
-8759.795898 -8180.623047 -748.023804 0.405011 0.028809 -0.913846
-8827.038086 -8069.321289 -765.010071 0.390698 -0.291177 -0.873226
-8765.694336 -8038.332520 -763.666016 0.261299 -0.810144 -0.524735
-8892.795898 -8055.729004 -817.226562 0.483077 -0.414502 -0.771233
-8481.429688 -8635.185547 -1689.214722 -0.178411 0.906430 0.382763
-9070.912109 -8596.556641 -954.742004 0.519822 0.320597 -0.791803
-9125.388672 -8634.965820 -1021.908813 0.306497 0.850093 -0.428175
-9137.601562 -8527.500977 -986.980713 0.550829 0.142521 -0.822321
-8414.771484 -8496.224609 -1633.508545 -0.401746 -0.220618 0.888730
-9232.591797 -8601.880859 -1064.264038 0.552110 0.315928 -0.771569
-9235.487305 -8467.358398 -1060.794556 0.664388 0.230720 -0.710868
-9228.826172 -8262.415039 -1020.011658 0.543565 0.121097 -0.830561
-9159.114258 -8334.147461 -994.369995 0.556505 0.092502 -0.825648
-9304.916992 -8265.472656 -1084.307739 0.611072 0.026307 -0.791131
-9387.024414 -8323.431641 -1152.037598 0.651387 0.080477 -0.754418
-9347.648438 -8385.291992 -1119.108521 0.613178 0.082766 -0.785546
-9386.593750 -8488.357422 -1163.743164 0.614551 0.129002 -0.778222
-9448.313477 -8388.711914 -1209.733765 0.618091 0.122929 -0.776421
-9430.383789 -8619.654297 -1225.778931 0.535508 0.538011 -0.650929
-9465.723633 -8510.261719 -1233.293701 0.597858 0.096408 -0.795740
-9518.178711 -8618.615234 -1299.490845 0.561449 0.509751 -0.651845
-9449.965820 -8637.493164 -1280.333374 0.177099 0.961425 -0.210364
-9027.898438 -8353.851562 -1965.923096 -0.598346 -0.155309 0.786004
-9082.314453 -8204.405273 -2014.739014 -0.647237 0.003876 0.762261
-9171.866211 -8318.382812 -2107.779053 -0.690390 -0.084323 0.718467
-9369.012695 -8050.812988 -2326.430908 -0.085543 -0.515976 0.852290
-9369.776367 -8185.806152 -2305.432129 -0.413495 0.018250 0.910306
-9305.420898 -8054.085449 -2238.223633 -0.665273 -0.432447 0.608570
-9377.175781 -8040.143066 -2291.800293 0.208686 -0.922727 0.323954
-9402.398438 -8085.096191 -2310.071289 0.595691 -0.206915 0.776086
-9557.120117 -8115.154785 -2132.140381 0.724387 -0.210303 0.656484
-8403.230469 -8059.936523 -1554.550049 -0.318278 -0.357830 0.877834
-8478.697266 -8545.018555 -1678.028564 -0.433393 -0.237129 0.869411
-8533.541992 -8053.154785 -635.898376 0.321574 -0.501663 -0.803034
-8481.857422 -8329.318359 -1618.570312 -0.384075 -0.147252 0.911466
-8473.198242 -8398.853516 -620.584167 0.424024 0.062624 -0.903470
-8466.240234 -8617.934570 -658.809937 0.375469 0.335124 -0.864101
-8546.819336 -8392.111328 -1669.269897 -0.485824 -0.201117 0.850581
-8612.968750 -8357.772461 -1705.734375 -0.463118 -0.158971 0.871914
-8594.052734 -8486.197266 -1719.046509 -0.462569 -0.226905 0.857021
-8483.883789 -8258.230469 -614.828491 0.322123 0.063082 -0.944578
-8549.575195 -8633.532227 -700.993164 0.240150 0.804193 -0.543657
-8531.923828 -8621.577148 -1725.894165 -0.437788 0.210273 0.874111
-8534.529297 -8569.098633 -666.438599 0.389355 0.195044 -0.900174
-8632.794922 -8616.376953 -720.649902 0.361827 0.446852 -0.818140
-8738.870117 -8576.679688 -766.740173 0.444288 0.246620 -0.861232
-8694.101562 -8634.358398 -774.986023 0.251625 0.870968 -0.421949
-9024.329102 -8137.133301 -905.025208 0.561510 0.053560 -0.825709
-9061.103516 -8437.676758 -933.738464 0.537217 0.065218 -0.840907
-9075.696289 -8255.613281 -923.313965 0.382611 0.060366 -0.921903
-8656.662109 -8397.592773 -1728.526001 -0.433943 -0.186254 0.881436
-8692.287109 -8466.093750 -1772.256592 -0.509415 -0.249031 0.823695
-8651.730469 -8617.845703 -1787.958984 -0.459365 0.267830 0.846889
-8791.346680 -8333.125000 -766.865967 0.484451 0.106845 -0.868252
-8772.119141 -8491.758789 -773.166870 0.457900 0.055147 -0.887265
-8830.331055 -8373.257812 -805.577637 0.480758 0.125401 -0.867794
-8882.864258 -8289.098633 -813.555054 0.534013 0.100009 -0.839534
-8628.637695 -8241.169922 -1690.818970 -0.518143 -0.073611 0.852077
-8659.779297 -8056.348633 -1709.616821 -0.508560 -0.343516 0.789483
-8779.879883 -8301.758789 -1797.471802 -0.569170 -0.147343 0.808893
-8775.969727 -8189.723633 -1769.544189 -0.462935 -0.042665 0.885342
-8844.857422 -8252.387695 -1821.561279 -0.617695 -0.114811 0.777947
-8925.872070 -8312.865234 -1900.758789 -0.559984 -0.108280 0.821375
-8953.955078 -8189.515137 -1892.830444 -0.588549 -0.044832 0.807184
-9941.610352 -8041.453125 -1629.662842 0.561449 -0.736503 -0.377239
-9937.490234 -8121.748047 -1612.330566 0.767663 0.136448 -0.626118
-9973.256836 -8051.063477 -1671.685181 0.819147 -0.573382 -0.013703
-9740.921875 -8550.987305 -1499.411621 0.668722 0.236549 -0.704856
-9847.853516 -8513.000977 -1579.160645 0.693319 0.208319 -0.689840
-9775.876953 -8492.986328 -1503.986328 0.670278 0.210395 -0.711631
-8714.862305 -8342.966797 -1747.678589 -0.522874 -0.135197 0.841609
-8751.613281 -8637.007812 -1815.577515 -0.170110 0.945921 0.276193
-8626.814453 -8355.564453 -707.395935 0.362835 0.189734 -0.912320
-8724.685547 -8418.169922 -755.954102 0.411573 0.101199 -0.905728
-8755.279297 -8573.074219 -1842.334961 -0.512314 -0.159368 0.843867
-8852.357422 -8482.563477 -1880.540894 -0.508164 -0.201636 0.837306
-8862.204102 -8589.129883 -1907.934937 -0.540300 -0.130284 0.831294
-8922.166016 -8637.192383 -1920.433594 -0.103397 0.985015 0.137822
-8722.615234 -8060.352051 -1755.650024 -0.370708 -0.378094 0.848262
-8726.984375 -8057.899902 -720.700439 0.441877 -0.265969 -0.856716
-8775.308594 -8039.333496 -1757.419434 -0.261574 -0.807459 0.528733
-8847.531250 -8054.641602 -1824.146973 -0.569567 -0.320658 0.756798
-8877.231445 -8132.520020 -1842.870239 -0.572344 -0.001923 0.819971
-8857.191406 -8334.727539 -1846.973999 -0.571490 -0.127537 0.810633
-8782.492188 -8420.952148 -1812.779541 -0.545183 -0.217597 0.809564
-8806.469727 -8633.316406 -824.811646 0.280801 0.787317 -0.548845
-8844.395508 -8623.920898 -1898.661377 -0.472213 0.482376 0.737754
-9802.315430 -8037.763672 -1858.386841 0.404126 -0.831263 0.381634
-9618.125000 -8039.204590 -1361.409424 0.174017 -0.967193 -0.184973
-9704.939453 -8046.197266 -1419.374146 0.496048 -0.679067 -0.541063
-9827.824219 -8039.987793 -1524.799072 0.351726 -0.838282 -0.416547
-8835.450195 -8540.863281 -813.272034 0.475204 0.148534 -0.867214
-8892.617188 -8484.151367 -835.831360 0.480239 0.073305 -0.874050
-8923.172852 -8317.841797 -855.823486 0.511765 0.096805 -0.853633
-8972.618164 -8218.112305 -864.282715 0.548265 0.037873 -0.835414
-8975.967773 -8406.087891 -874.929016 0.373791 0.086642 -0.923429
-9015.233398 -8054.600586 -884.510437 0.494186 -0.430586 -0.755211
-8935.277344 -8434.558594 -1916.491455 -0.564043 -0.152898 0.811426
-9109.466797 -8055.359863 -945.576477 0.458754 -0.498032 -0.735832
-8972.610352 -8524.907227 -888.388855 0.492111 0.135136 -0.859951
-8976.455078 -8038.291016 -887.986328 0.161657 -0.945769 -0.281686
-8981.403320 -8090.693848 -1923.489990 -0.641407 -0.105594 0.759880
-9000.955078 -8508.838867 -1983.467896 -0.613788 -0.168249 0.771294
-9024.196289 -8631.990234 -2029.766479 -0.466659 0.648488 0.601367
-9094.201172 -8580.716797 -2080.852051 -0.643117 -0.074892 0.762078
-8991.711914 -8041.348145 -1913.950073 -0.369060 -0.813105 0.450117
-9149.470703 -8277.649414 -969.026184 0.617481 0.156865 -0.770745
-9186.406250 -8198.173828 -1001.897766 0.603931 0.053987 -0.795160
-8985.964844 -8378.509766 -1948.039917 -0.557115 -0.165990 0.813654
-9514.924805 -8054.169434 -1234.631714 0.575884 -0.494644 -0.650868
-9072.886719 -8460.826172 -2038.448120 -0.632832 -0.198065 0.748497
-9185.004883 -8635.555664 -2147.974365 -0.409192 0.822871 0.394238
-9266.943359 -8620.003906 -2245.051025 -0.632679 0.399060 0.663656
-9394.069336 -8425.457031 -2331.586914 -0.332560 -0.088626 0.938902
-9251.683594 -8502.679688 -2207.031738 -0.687765 -0.178503 0.703635
-9190.818359 -8447.802734 -2129.074707 -0.662770 -0.191046 0.724021
-9267.115234 -8332.433594 -2204.161621 -0.722282 -0.034608 0.690695
-9160.906250 -8082.662598 -2098.630127 -0.701041 -0.029206 0.712485
-9342.757812 -8638.064453 -2277.523193 -0.167608 0.961699 0.216865
-9484.218750 -8630.833008 -2238.697266 0.456038 0.769372 0.447279
-9936.003906 -8636.954102 -1753.913330 0.596118 0.795831 0.106052
-9892.280273 -8621.317383 -1839.435913 0.692312 0.404889 0.597247
-9135.456055 -8200.280273 -2045.950317 -0.578631 0.007477 0.815546
-9161.876953 -8037.818848 -1018.621277 0.098483 -0.982665 -0.156865
-9315.349609 -8043.804199 -1092.326904 0.416547 -0.649098 -0.636494
-9451.791016 -8052.715332 -1181.477661 0.542650 -0.512528 -0.665426
-9142.060547 -8039.021973 -2050.478027 -0.188208 -0.962371 0.195898
-9400.091797 -8584.350586 -2341.446289 0.511856 -0.106540 0.852412
-9578.043945 -8398.690430 -2135.048096 0.744469 -0.168157 0.646107
-9563.506836 -8430.995117 -2173.556396 0.743675 -0.177740 0.644429
-9408.782227 -8307.207031 -2304.898682 0.736473 -0.174810 0.653432
-9270.167969 -8126.167969 -2204.938965 -0.730735 0.027802 0.682058
-9215.877930 -8056.413574 -1015.755615 0.491287 -0.467208 -0.735038
-9197.202148 -8481.500000 -1019.867310 0.646352 0.306650 -0.698691
-9390.457031 -8163.597168 -1138.974121 0.560350 0.042909 -0.827113
-9372.345703 -8055.089355 -1118.322021 0.499161 -0.347942 -0.793542
-9237.621094 -8210.752930 -2144.965088 -0.772362 0.000366 0.635151
-9237.760742 -8576.020508 -2210.104980 -0.660512 -0.150456 0.735557
-9293.615234 -8628.606445 -1127.009033 0.402692 0.740196 -0.538408
-9723.266602 -8526.132812 -2013.502441 0.748924 -0.159948 0.643025
-9336.290039 -8528.931641 -1143.930786 0.494400 0.103061 -0.863063
-9370.957031 -8492.993164 -2330.066162 -0.498245 -0.145848 0.854671
-9267.162109 -8413.370117 -1065.550781 0.600146 0.157292 -0.784234
-9353.553711 -8634.132812 -1188.858765 0.189093 0.950743 -0.245521
-9260.588867 -8038.954590 -2164.117920 -0.202795 -0.956206 0.210913
-9957.664062 -8339.186523 -1730.129517 0.857356 -0.126896 0.498795
-9864.505859 -8084.876953 -1822.747070 0.711692 -0.231727 0.663137
-9980.273438 -8141.144043 -1705.905884 0.944823 -0.077578 0.318217
-9409.538086 -8357.918945 -2326.618896 0.389660 -0.150945 0.908475
-9368.253906 -8611.372070 -2356.567383 -0.286538 0.289407 0.913297
-9406.951172 -8631.237305 -2344.169922 0.388562 0.604236 0.695608
-9524.429688 -8323.023438 -1249.949341 0.627674 0.104892 -0.771355
-9679.967773 -8633.778320 -1468.578613 0.357585 0.852382 -0.381481
-9785.734375 -8632.117188 -1563.835571 0.491226 0.729026 -0.476638
-9742.302734 -8496.700195 -1970.639526 0.746147 -0.167394 0.644337
-9577.578125 -8634.669922 -1374.549927 0.383038 0.839381 -0.385601
-9683.388672 -8238.339844 -2028.669312 0.745445 -0.156407 0.647938
-9537.340820 -8476.278320 -1296.846802 0.643635 0.138890 -0.752586
-9467.747070 -8173.928711 -1198.633057 0.622639 0.030915 -0.781854
-9572.841797 -8213.918945 -1287.078369 0.674581 0.018952 -0.737938
-9626.038086 -8592.867188 -1389.990723 0.666433 0.252754 -0.701376
-9596.008789 -8414.324219 -1327.639404 0.634358 0.136631 -0.760857
-9740.213867 -8368.451172 -1453.798950 0.695608 0.047853 -0.716788
-9816.628906 -8184.472168 -1528.521484 0.671773 0.129734 -0.729270
-9633.631836 -8323.172852 -1350.970947 0.669790 0.064089 -0.739738
-9669.618164 -8467.629883 -1398.340454 0.636158 0.226661 -0.737480
-9785.611328 -8080.727539 -1464.180420 0.527787 0.025330 -0.848964
-9766.636719 -8246.414062 -1921.368286 0.744224 -0.184851 0.641804
-9951.701172 -8593.600586 -1760.102905 0.903714 0.190466 0.383343
-9972.527344 -8522.303711 -1728.666016 0.985656 0.148869 -0.079440
-9946.800781 -8614.007812 -1716.139526 0.800195 0.447157 -0.399579
-9853.945312 -8631.811523 -1634.069580 0.492752 0.727378 -0.477584
-9972.964844 -8392.708008 -1738.023682 0.916929 -0.118046 0.381115
-9973.349609 -8377.826172 -1690.971924 0.946043 -0.017365 -0.323557
-9911.811523 -8386.035156 -1628.707520 0.713401 0.043367 -0.699393
-9929.471680 -8482.380859 -1655.414185 0.739250 0.201758 -0.642476
-9842.019531 -8393.305664 -1556.035645 0.713187 0.053774 -0.698874
-9889.544922 -8085.796387 -1554.461304 0.689291 -0.061525 -0.721824
-9978.557617 -8198.605469 -1692.220093 0.968078 0.092807 -0.232734
3 0 1 2
3 3 1 4
3 5 6 7
3 8 9 10
3 10 9 11
3 12 13 14
3 14 13 15
3 16 17 18
3 19 20 21
3 22 23 24
3 22 24 25
3 26 27 28
3 26 29 30
3 31 32 23
3 20 23 21
3 33 34 35
3 0 36 1
3 37 36 38
3 0 39 36
3 36 39 40
3 36 40 38
3 41 42 33
3 43 44 45
3 43 45 46
3 0 2 3
3 0 3 40
3 47 40 48
3 49 50 51
3 6 52 53
3 54 35 55
3 1 36 37
3 37 38 56
3 57 58 33
3 57 33 59
3 53 60 54
3 37 61 62
3 61 37 63
3 63 37 56
3 63 56 58
3 64 57 59
3 61 63 57
3 0 40 39
3 63 58 57
3 56 38 65
3 33 42 34
3 34 42 66
3 34 66 67
3 44 67 45
3 38 40 65
3 68 69 70
3 71 72 73
3 73 74 75
3 65 58 56
3 65 47 41
3 65 41 58
3 65 40 47
3 41 47 48
3 67 76 45
3 66 42 77
3 67 78 76
3 46 76 69
3 45 76 46
3 46 69 68
3 79 80 81
3 81 80 82
3 83 82 84
3 7 85 5
3 5 85 86
3 1 37 4
3 64 59 35
3 59 33 35
3 41 33 58
3 42 41 48
3 42 87 77
3 77 78 67
3 78 88 76
3 42 48 87
3 87 89 77
3 88 90 70
3 91 90 88
3 40 3 50
3 92 53 54
3 54 60 35
3 57 62 61
3 53 52 60
3 57 64 52
3 64 35 60
3 40 50 48
3 34 44 35
3 25 44 43
3 35 44 25
3 87 48 93
3 34 67 44
3 66 77 67
3 77 89 78
3 87 93 89
3 89 94 78
3 95 90 96
3 95 96 97
3 95 97 98
3 78 94 99
3 78 99 88
3 89 93 94
3 99 94 91
3 91 96 90
3 94 93 91
3 2 1 3
3 62 4 37
3 62 57 52
3 52 64 60
3 48 50 93
3 43 46 25
3 69 76 70
3 92 54 55
3 93 50 100
3 76 88 70
3 86 3 5
3 4 62 6
3 101 6 53
3 62 52 6
3 50 102 103
3 103 102 104
3 81 82 83
3 83 84 105
3 105 84 106
3 25 46 107
3 68 70 108
3 108 109 110
3 110 107 108
3 99 91 88
3 4 6 3
3 3 6 5
3 91 93 100
3 91 100 97
3 111 71 112
3 111 112 113
3 111 113 9
3 10 114 115
3 115 114 116
3 46 68 107
3 91 97 96
3 102 79 81
3 6 101 7
3 3 86 50
3 70 90 108
3 68 108 107
3 107 110 25
3 108 90 109
3 110 109 72
3 50 86 85
3 117 80 79
3 118 83 105
3 119 120 121
3 122 123 124
3 7 101 92
3 7 92 80
3 85 7 80
3 125 126 127
3 128 127 129
3 129 120 119
3 53 92 101
3 95 109 90
3 109 95 72
3 118 105 130
3 72 95 73
3 50 85 117
3 117 85 80
3 117 79 102
3 102 81 83
3 110 72 131
3 131 72 71
3 80 92 82
3 55 35 25
3 110 131 25
3 95 98 73
3 71 132 131
3 130 105 125
3 92 55 82
3 97 100 98
3 98 100 74
3 74 100 75
3 75 100 50
3 131 133 25
3 102 83 118
3 130 134 118
3 98 74 73
3 71 73 112
3 131 132 133
3 71 111 132
3 50 117 102
3 135 130 136
3 137 138 121
3 82 55 84
3 139 132 111
3 133 132 139
3 134 102 118
3 130 125 136
3 136 125 128
3 55 25 84
3 84 25 106
3 112 73 75
3 113 75 140
3 104 134 135
3 133 139 141
3 111 9 139
3 112 75 113
3 102 134 104
3 141 25 133
3 11 140 114
3 142 8 10
3 139 9 8
3 139 8 142
3 143 142 144
3 144 142 12
3 144 12 14
3 139 143 141
3 126 106 127
3 127 106 25
3 75 50 116
3 113 11 9
3 142 143 139
3 113 140 11
3 136 128 145
3 135 134 130
3 145 128 129
3 145 129 138
3 138 129 119
3 105 106 126
3 75 116 140
3 142 10 12
3 103 104 135
3 103 135 136
3 125 105 126
3 141 143 146
3 146 143 144
3 146 144 147
3 103 136 148
3 149 148 136
3 149 136 145
3 140 116 114
3 141 150 25
3 151 137 152
3 137 153 138
3 125 127 128
3 11 114 10
3 141 146 150
3 154 155 156
3 157 158 19
3 157 19 21
3 150 146 159
3 146 147 159
3 10 115 12
3 19 160 20
3 150 159 161
3 103 148 149
3 145 138 153
3 50 103 149
3 129 127 120
3 127 25 120
3 12 115 162
3 12 162 13
3 144 14 147
3 159 147 16
3 149 145 153
3 163 153 137
3 151 152 154
3 154 152 155
3 116 164 115
3 115 164 162
3 17 165 166
3 166 167 160
3 168 153 163
3 169 151 154
3 158 16 18
3 158 18 19
3 16 15 17
3 14 15 147
3 147 15 16
3 16 158 161
3 150 157 25
3 16 161 159
3 122 169 156
3 122 156 123
3 168 149 153
3 163 149 168
3 164 116 50
3 13 164 170
3 150 161 157
3 161 158 157
3 137 121 152
3 152 121 155
3 155 121 171
3 149 163 50
3 162 164 13
3 172 50 49
3 166 165 167
3 160 167 173
3 138 119 121
3 15 13 170
3 15 170 17
3 157 21 22
3 174 163 151
3 163 175 50
3 137 151 163
3 121 120 171
3 171 120 25
3 172 164 50
3 170 164 176
3 170 176 165
3 170 165 17
3 25 157 22
3 21 23 22
3 174 151 177
3 177 151 169
3 176 164 172
3 165 178 167
3 163 174 175
3 176 172 165
3 17 166 18
3 18 166 160
3 18 160 19
3 179 25 180
3 181 182 183
3 155 171 181
3 181 171 182
3 171 25 182
3 165 172 178
3 160 173 20
3 23 184 24
3 175 174 177
3 185 186 187
3 185 187 188
3 187 189 190
3 191 192 193
3 193 192 194
3 156 155 181
3 24 195 25
3 196 197 198
3 184 199 24
3 198 197 200
3 198 200 201
3 202 203 204
3 205 206 207
3 208 207 209
3 208 209 210
3 210 209 211
3 211 209 212
3 213 214 215
3 216 217 218
3 216 218 219
3 220 216 219
3 220 219 221
3 177 169 122
3 154 156 169
3 193 50 190
3 167 222 173
3 23 20 31
3 184 23 199
3 24 199 223
3 124 177 122
3 156 181 183
3 167 172 222
3 178 172 167
3 20 173 31
3 50 175 190
3 222 49 30
3 23 32 199
3 124 175 177
3 156 183 123
3 175 224 190
3 173 222 30
3 31 173 30
3 32 225 199
3 25 197 180
3 123 183 226
3 226 183 185
3 183 182 227
3 222 172 49
3 30 49 26
3 29 31 30
3 31 29 32
3 228 229 230
3 32 29 225
3 224 231 187
3 224 124 231
3 231 188 187
3 124 123 231
3 188 231 226
3 188 226 185
3 123 226 231
3 224 175 124
3 227 185 183
3 227 182 232
3 232 182 25
3 199 225 228
3 199 228 223
3 223 228 230
3 24 223 233
3 195 24 233
3 185 227 234
3 234 227 232
3 49 51 27
3 29 26 28
3 225 28 228
3 186 185 234
3 186 234 232
3 186 232 235
3 236 235 237
3 238 239 240
3 26 49 27
3 225 29 28
3 230 229 241
3 230 241 242
3 223 230 233
3 242 243 230
3 244 245 246
3 192 247 194
3 237 232 25
3 28 248 228
3 224 187 190
3 190 189 191
3 189 244 191
3 232 237 235
3 248 27 249
3 250 251 252
3 213 253 254
3 255 256 257
3 258 259 260
3 28 27 248
3 248 249 261
3 228 248 229
3 25 195 262
3 233 230 243
3 195 233 243
3 187 263 189
3 263 187 186
3 263 186 189
3 186 264 189
3 229 261 241
3 265 266 267
3 25 262 268
3 25 268 212
3 244 189 264
3 186 235 245
3 186 245 264
3 264 245 244
3 261 249 269
3 229 248 261
3 242 265 243
3 195 243 262
3 270 190 191
3 249 27 271
3 251 271 272
3 252 272 273
3 274 273 253
3 261 250 275
3 245 235 236
3 237 25 276
3 250 274 275
3 241 275 242
3 243 265 277
3 270 193 190
3 236 237 276
3 51 271 27
3 249 271 269
3 269 251 261
3 261 251 250
3 241 261 275
3 266 242 275
3 193 270 191
3 278 51 279
3 278 279 280
3 278 280 281
3 269 271 251
3 251 272 252
3 252 273 274
3 242 266 265
3 277 265 267
3 262 243 277
3 191 244 247
3 247 244 246
3 246 245 282
3 247 283 284
3 285 286 239
3 238 287 285
3 285 247 284
3 246 282 283
3 284 286 285
3 245 236 282
3 236 276 282
3 276 25 179
3 275 274 266
3 250 252 274
3 274 253 288
3 191 247 192
3 246 283 247
3 285 239 238
3 238 240 289
3 238 289 287
3 282 276 179
3 274 288 266
3 262 277 268
3 196 290 180
3 283 282 179
3 193 194 291
3 193 291 50
3 50 291 51
3 273 272 292
3 254 292 213
3 288 293 267
3 294 267 293
3 294 293 295
3 294 268 277
3 294 277 267
3 194 247 285
3 290 283 179
3 272 271 296
3 272 296 292
3 267 266 288
3 284 283 290
3 284 290 286
3 297 203 298
3 296 271 51
3 273 292 254
3 253 273 254
3 253 299 288
3 299 253 213
3 268 294 212
3 194 285 287
3 290 179 180
3 51 300 279
3 293 301 295
3 302 295 303
3 304 305 306
3 304 306 307
3 307 306 215
3 291 194 287
3 286 290 239
3 288 299 293
3 293 299 301
3 213 292 214
3 214 292 308
3 309 310 311
3 311 310 312
3 240 239 203
3 203 297 240
3 290 196 239
3 292 296 308
3 214 308 313
3 301 299 213
3 213 215 306
3 212 309 311
3 291 287 314
3 239 196 198
3 291 314 51
3 51 315 316
3 296 51 317
3 317 51 278
3 289 314 287
3 51 314 315
3 296 317 218
3 296 218 308
3 239 198 203
3 196 180 197
3 301 213 306
3 312 310 318
3 319 320 321
3 218 217 322
3 294 295 302
3 323 297 298
3 314 289 323
3 240 297 289
3 203 198 324
3 323 202 204
3 315 325 326
3 215 214 313
3 212 294 302
3 313 308 327
3 305 328 295
3 295 301 305
3 323 289 297
3 329 197 25
3 307 217 304
3 318 320 330
3 306 305 301
3 200 329 331
3 201 331 207
3 201 207 206
3 305 304 332
3 323 298 202
3 298 203 202
3 314 323 315
3 204 203 324
3 333 324 201
3 324 198 201
3 200 197 329
3 329 25 334
3 317 278 335
3 336 337 338
3 313 327 215
3 215 327 307
3 218 317 335
3 327 308 322
3 308 218 322
3 295 328 303
3 315 204 206
3 315 206 325
3 204 324 333
3 333 201 206
3 339 320 318
3 327 322 307
3 340 341 309
3 309 341 310
3 315 323 204
3 201 200 331
3 335 278 219
3 307 322 217
3 217 321 339
3 302 303 309
3 205 342 325
3 204 333 206
3 339 321 320
3 302 309 212
3 325 206 205
3 331 329 207
3 334 25 212
3 343 212 344
3 217 220 321
3 320 319 345
3 328 305 303
3 303 305 332
3 303 332 340
3 212 346 211
3 218 335 219
3 321 347 319
3 303 340 309
3 315 326 316
3 329 334 209
3 329 209 207
3 341 340 318
3 318 304 339
3 316 326 325
3 205 207 208
3 208 210 348
3 217 216 220
3 220 347 321
3 217 339 304
3 332 304 318
3 332 318 340
3 325 349 316
3 280 300 350
3 209 334 212
3 325 342 349
3 342 350 300
3 205 208 342
3 319 347 345
3 349 342 300
3 316 349 300
3 348 211 351
3 278 257 337
3 300 51 316
3 208 348 342
3 342 348 352
3 220 221 347
3 318 310 341
3 350 353 354
3 342 352 350
3 210 211 348
3 346 343 351
3 350 352 355
3 352 348 356
3 346 212 343
3 351 211 346
3 278 255 257
3 279 300 280
3 280 354 357
3 280 350 354
3 219 337 221
3 350 355 353
3 352 356 355
3 348 351 258
3 258 356 348
3 219 278 337
3 347 221 358
3 330 320 345
3 258 260 356
3 278 281 255
3 359 360 361
3 311 361 362
3 355 356 353
3 358 221 337
3 363 347 358
3 364 365 366
3 356 260 353
3 353 367 354
3 363 358 336
3 351 343 344
3 258 351 344
3 312 318 330
3 312 330 345
3 345 363 359
3 344 212 362
3 347 363 345
3 357 281 280
3 357 354 368
3 368 354 256
3 353 260 367
3 258 344 362
3 367 260 259
3 257 369 338
3 362 259 258
3 362 212 311
3 358 337 336
3 359 363 360
3 360 363 364
3 360 364 366
3 359 312 345
3 368 281 357
3 255 368 256
3 259 362 360
3 336 369 364
3 354 367 365
3 354 365 369
3 367 259 365
3 365 259 366
3 336 338 369
3 368 255 281
3 369 365 364
3 362 361 360
3 337 257 338
3 312 359 311
3 361 311 359
3 369 256 354
3 259 360 366
3 256 369 257
3 336 364 363
