ply
format ascii 1.0
comment Created by Blender 2.80 (sub 75) - www.blender.org, source file: 'color_and_decimate.blend'
element vertex 181
property float x
property float y
property float z
property float nx
property float ny
property float nz
element face 358
property list uchar uint vertex_indices
end_header
-10033.643555 -8393.678711 -2129.848877 -0.824183 0.033906 -0.565264
-10017.654297 -8431.208984 -2168.586426 -0.812220 0.041749 -0.581805
-10078.658203 -8618.178711 -2084.123291 -0.685446 0.439192 -0.580737
-10047.720703 -8633.431641 -2145.758789 -0.516221 0.759209 -0.396313
-10294.647461 -8423.262695 -2079.334717 0.788141 0.165899 -0.592669
-10185.144531 -8527.391602 -1972.491333 0.057527 0.236030 -0.970031
-10317.000977 -8554.565430 -2160.232178 0.789422 0.214240 -0.575182
-10404.281250 -8412.275391 -2234.457275 0.824122 0.153111 -0.545274
-10370.421875 -8311.534180 -2154.090088 0.802637 0.133396 -0.581347
-10437.749023 -8319.234375 -2265.684082 0.837397 0.141423 -0.527940
-10431.737305 -8211.707031 -2218.775635 0.832636 0.096774 -0.545244
-10363.924805 -8182.813965 -2124.575684 0.799493 0.073458 -0.596118
-10377.841797 -8058.659180 -2134.484131 0.767449 -0.344554 -0.540574
-10291.485352 -8054.443359 -2019.153320 0.716178 -0.391491 -0.577746
-10215.284180 -8047.569336 -1935.309326 0.045991 -0.561541 -0.826136
-10288.573242 -8207.476562 -2022.349487 0.771844 0.101230 -0.627644
-10240.651367 -8169.769043 -1953.934937 0.581957 0.199744 -0.788263
-9730.479492 -8378.150391 -2866.305664 -0.894070 0.056612 0.444258
-9754.941406 -8274.954102 -2925.988770 -0.903226 0.176519 0.391156
-9767.435547 -8326.591797 -2954.212402 -0.900479 0.111972 0.420179
-9953.849609 -8436.878906 -3352.998291 -0.931455 0.114536 0.345256
-9924.512695 -8440.250000 -3277.924316 -0.948851 0.104770 0.297769
-9922.269531 -8210.319336 -3429.555420 -0.624683 0.156926 0.764916
-9976.519531 -8339.757812 -3434.767090 -0.441298 0.115452 0.889889
-10702.996094 -8038.285645 -2804.018799 0.483810 -0.862819 -0.146275
-10532.492188 -8037.564941 -3351.435303 0.143468 -0.818415 0.556383
-10656.375000 -8041.934570 -2632.832764 0.646413 -0.719565 -0.253639
-10705.776367 -8057.996094 -2721.677979 0.881008 -0.364116 -0.302011
-10594.873047 -8202.492188 -2495.220947 0.899472 0.038514 -0.435224
-10580.291016 -8054.933105 -2468.545898 0.852748 -0.336406 -0.399548
-10550.220703 -8283.758789 -2435.762695 0.868770 0.122410 -0.479812
-10503.963867 -8190.560059 -2335.160645 0.859676 0.087436 -0.503250
-9678.407227 -8278.562500 -2567.264404 -0.776940 0.005524 -0.629505
-9708.693359 -8443.609375 -2529.878174 -0.802240 0.027741 -0.596301
-9768.570312 -8206.678711 -2467.397461 -0.834193 0.020569 -0.551073
-9885.269531 -8297.894531 -2326.368164 -0.811487 0.027802 -0.583697
-9843.717773 -8613.479492 -2370.161621 -0.754662 0.395398 -0.523545
-9907.633789 -8494.219727 -2303.937500 -0.777429 0.042207 -0.627491
-9587.961914 -8038.985352 -2691.820068 -0.815424 -0.577288 -0.042085
-9600.417969 -8153.365234 -2669.379639 -0.983032 0.045198 -0.177679
-9657.653320 -8050.334961 -2591.697021 -0.732627 -0.330943 -0.594714
-9707.851562 -8495.665039 -2797.615723 -0.888363 -0.010529 0.458998
-9668.842773 -8333.068359 -2751.875000 -0.847896 0.119785 0.516404
-9769.312500 -8632.042969 -2918.160645 -0.552324 0.740379 0.383038
-9780.958008 -8482.948242 -2944.476807 -0.869533 0.051973 0.491104
-9816.506836 -8627.467773 -3002.346680 -0.639515 0.679891 0.358776
-9615.067383 -8226.614258 -2706.341309 -0.913022 0.117618 0.390515
-9615.687500 -8349.750000 -2674.640625 -0.890011 0.098788 0.445082
-9616.559570 -8459.883789 -2653.907471 -0.993530 0.038240 -0.106662
-9716.271484 -8611.135742 -2848.105469 -0.863216 0.178625 0.472152
-9682.855469 -8632.204102 -2767.829834 -0.615284 0.708731 0.345103
-9614.622070 -8633.232422 -2665.042725 -0.808069 0.588122 -0.033143
-10550.953125 -8169.118652 -3363.395508 0.234107 -0.056459 0.970550
-10697.886719 -8062.843262 -3361.885010 0.156590 -0.414563 0.896420
-10812.020508 -8311.557617 -3189.242188 0.957244 0.117496 -0.264321
-10810.904297 -8059.737305 -3102.820312 0.899258 -0.394787 -0.188269
-10792.962891 -8121.765625 -3080.136963 0.941710 0.088626 -0.324442
-10789.871094 -8405.300781 -3189.264160 0.961241 0.142430 -0.236000
-10785.837891 -8283.020508 -3066.817139 0.969024 0.076571 -0.234687
-10742.237305 -8213.694336 -2881.809570 0.936003 0.066713 -0.345531
-10718.979492 -8299.927734 -2841.998535 0.961180 0.074221 -0.265694
-10760.638672 -8392.435547 -2972.602051 0.963286 0.090670 -0.252632
-10709.433594 -8424.067383 -2828.262695 0.939604 0.121952 -0.319712
-10668.783203 -8430.959961 -2758.806396 0.922422 0.132023 -0.362896
-10706.583984 -8574.300781 -2882.776367 0.930784 0.237526 -0.277810
-9847.988281 -8637.474609 -2409.576660 -0.393292 0.888424 -0.236610
-10609.543945 -8634.627930 -2711.593506 0.539750 0.803552 -0.250801
-10427.768555 -8635.396484 -2387.257080 0.395672 0.886288 -0.240547
-9683.316406 -8470.310547 -2578.316162 -0.810785 0.054567 -0.582751
-10542.262695 -8038.405273 -2420.436035 0.399823 -0.892087 -0.210517
-9707.397461 -8037.995117 -2932.894531 -0.355296 -0.922147 0.152898
-9768.928711 -8178.684082 -3031.306396 -0.868831 0.240577 0.432661
-9802.053711 -8340.125000 -3009.396973 -0.873440 0.164129 0.458357
-9869.885742 -8493.780273 -3138.497070 -0.920103 0.049287 0.388531
-9858.062500 -8326.552734 -3130.907715 -0.908505 0.191260 0.371502
-9908.188477 -8444.109375 -3216.317139 -0.932432 0.082614 0.351756
-9936.528320 -8618.437500 -3295.298340 -0.840297 0.437757 0.319742
-9647.676758 -8052.801270 -2829.546143 -0.894070 -0.137120 0.426374
-9661.842773 -8191.252930 -2794.541748 -0.834803 0.204840 0.510971
-9707.382812 -8168.939453 -2880.248047 -0.911222 0.176336 0.372204
-9722.493164 -8204.162109 -2917.346191 -0.896329 0.222663 0.383404
-9704.465820 -8633.990234 -2564.757324 -0.677755 0.532548 -0.506943
-9764.582031 -8040.841309 -2474.494141 -0.541002 -0.763909 -0.351756
-9772.687500 -8062.854492 -2439.508789 -0.849605 -0.198675 -0.488540
-9783.545898 -8395.543945 -2453.065674 -0.803186 0.024873 -0.595172
-9848.726562 -8060.654297 -2362.327148 -0.708731 0.340739 -0.617664
-9807.232422 -8365.829102 -2406.174316 -0.807337 0.024506 -0.589557
-9995.478516 -8232.662109 -2190.005859 -0.827631 0.023927 -0.560747
-9916.388672 -8362.705078 -2272.481445 -0.812708 0.027131 -0.581988
-10524.003906 -8622.925781 -2517.011230 0.718345 0.574938 -0.391644
-10574.185547 -8623.125977 -2618.845947 0.814325 0.433088 -0.386364
-10619.621094 -8057.645508 -2548.863525 0.862606 -0.195410 -0.466567
-9765.132812 -8039.637695 -3067.851562 -0.648579 -0.700278 0.298166
-9718.169922 -8055.329102 -3001.165527 -0.868068 -0.240852 0.434034
-9985.865234 -8042.813477 -2202.976807 -0.548967 -0.754662 -0.359233
-9726.182617 -8617.781250 -2512.929199 -0.741325 0.373913 -0.557298
-9809.685547 -8584.109375 -2426.677002 -0.783593 0.148686 -0.603198
-10670.555664 -8635.374023 -2872.644531 0.485122 0.857448 -0.171484
-9878.553711 -8624.515625 -3147.822021 -0.805994 0.514298 0.292947
-9927.210938 -8636.883789 -3201.269287 -0.227760 0.967620 0.108554
-9838.133789 -8476.408203 -3052.250732 -0.908292 0.072756 0.411939
-10622.355469 -8236.744141 -2578.160889 0.905484 0.103763 -0.411420
-9861.666992 -8630.199219 -3078.663818 -0.656850 0.714255 0.241554
-9797.545898 -8050.874023 -3181.962402 -0.931913 -0.154729 0.327952
-9806.521484 -8183.835938 -3095.770996 -0.906919 0.229743 0.353130
-9820.567383 -8192.205078 -3148.051270 -0.909207 0.242042 0.338664
-9867.912109 -8208.780273 -3264.289551 -0.934049 0.209632 0.289102
-9860.583984 -8044.605957 -3350.910645 -0.726127 -0.660268 0.191595
-9857.432617 -8167.025879 -3240.017090 -0.914060 0.252663 0.317209
-9875.281250 -8045.907715 -2317.596436 -0.590472 -0.666097 -0.455641
-10429.441406 -8038.770508 -2244.734863 0.276254 -0.940184 -0.199286
-9907.882812 -8226.852539 -3333.722900 -0.923490 0.241462 0.298074
-9930.771484 -8631.688477 -2288.471924 -0.655141 0.585070 -0.477920
-10324.631836 -8038.249512 -3381.401367 0.110324 -0.771355 0.626759
-9874.584961 -8048.315430 -3430.227783 -0.593707 -0.492752 0.636128
-9950.262695 -8615.216797 -2238.536133 -0.760063 0.339183 -0.554247
-10093.304688 -8039.843750 -3409.546875 0.169286 -0.818354 0.549181
-10344.143555 -8634.802734 -2230.511963 0.508652 0.783837 -0.356090
-9993.555664 -8624.166016 -3432.622803 -0.446242 0.591296 0.671682
-9970.697266 -8522.323242 -3413.082520 -0.941649 0.130711 0.310099
-10187.375000 -8632.716797 -3405.272705 0.138340 0.784875 0.603992
-10765.301758 -8043.779297 -2979.483398 0.693045 -0.708792 -0.131291
-10758.626953 -8054.101074 -2901.675781 0.873135 -0.428297 -0.232704
-10146.170898 -8613.470703 -3436.747314 0.248939 0.379528 0.891018
-10313.098633 -8377.993164 -3412.283203 0.200385 -0.026215 0.979339
-10173.961914 -8490.896484 -3413.549072 0.260170 -0.010956 0.965484
-10143.673828 -8292.286133 -3414.230713 0.225440 -0.046663 0.973113
-10069.966797 -8053.344238 -3432.759766 0.266335 -0.430891 0.862178
-10088.284180 -8250.085938 -3436.722168 0.212989 -0.051180 0.975707
-10091.064453 -8040.994141 -2073.690674 -0.516892 -0.748466 -0.415387
-9996.299805 -8064.214844 -2166.014893 -0.829676 -0.219855 -0.513077
-10110.767578 -8251.167969 -2050.573975 -0.809107 0.035035 -0.586566
-10102.976562 -8087.473633 -2034.848022 -0.848964 -0.091769 -0.520402
-10157.705078 -8334.054688 -1976.482910 -0.695181 0.029786 -0.718192
-10203.414062 -8194.218750 -1948.530029 0.036500 0.136540 -0.989929
-10204.033203 -8356.919922 -1949.953003 0.181158 0.103549 -0.977966
-10335.233398 -8039.068359 -2104.017578 0.329997 -0.912229 -0.242683
-10258.885742 -8056.450684 -3409.817871 0.148412 -0.376659 0.914365
-10132.364258 -8520.043945 -2025.212280 -0.727622 0.033753 -0.685110
-10294.732422 -8319.231445 -2063.752197 0.787591 0.123814 -0.603595
-10181.032227 -8633.862305 -2012.443970 0.089511 0.720145 -0.687979
-10353.885742 -8623.121094 -3409.391602 0.141636 0.431501 0.890896
-10357.674805 -8293.569336 -3388.530762 0.188177 -0.036805 0.981414
-10420.737305 -8634.875977 -3385.036133 0.136174 0.739982 0.658650
-10532.644531 -8367.948242 -3386.937012 0.206580 -0.021393 0.978179
-10596.864258 -8629.425781 -3365.696533 0.086154 0.726310 0.681936
-10263.258789 -8630.105469 -2113.334473 0.518509 0.759606 -0.392560
-10386.220703 -8496.584961 -2229.334717 0.796594 0.175909 -0.578326
-10599.488281 -8433.395508 -3363.114014 0.169073 -0.015809 0.985473
-10441.513672 -8595.973633 -2359.676270 0.801721 0.363262 -0.474624
-10487.553711 -8061.598145 -3386.901367 0.216315 -0.375835 0.901059
-10468.619141 -8052.652832 -2269.886230 0.750114 -0.442824 -0.491104
-10449.449219 -8484.304688 -2328.479980 0.843562 0.183874 -0.504562
-10499.815430 -8360.937500 -2369.338379 0.850673 0.153813 -0.502609
-10504.692383 -8485.760742 -2426.382324 0.856533 0.187353 -0.480819
-10550.458008 -8065.479980 -2392.304688 0.872951 -0.221351 -0.434645
-10559.056641 -8503.639648 -2529.690430 0.865963 0.187139 -0.463729
-10667.996094 -8201.444336 -2693.710693 0.929014 0.069704 -0.363384
-10709.128906 -8257.241211 -2773.651611 0.945830 0.073122 -0.316233
-10590.931641 -8356.422852 -2540.396484 0.888821 0.139073 -0.436628
-10601.809570 -8509.373047 -2613.412842 0.878842 0.198584 -0.433790
-10656.260742 -8106.448242 -2601.935059 0.925535 -0.009156 -0.378521
-10662.890625 -8302.499023 -2685.957031 0.922056 0.095431 -0.375042
-10717.007812 -8081.001953 -2795.672607 0.961913 -0.124516 -0.243233
-10653.962891 -8581.424805 -2760.237305 0.888058 0.271950 -0.370647
-10716.328125 -8631.143555 -2987.809814 0.580218 0.788995 -0.201880
-10769.687500 -8629.139648 -3203.156738 0.646870 0.759789 -0.065310
-10774.929688 -8624.045898 -3357.536621 0.513047 0.622303 0.591144
-10809.416992 -8520.092773 -3316.686279 0.969787 0.108158 0.218635
-10650.955078 -8409.201172 -2677.852539 0.930631 0.117862 -0.346385
-10806.161133 -8039.577637 -3264.876709 0.596332 -0.799188 -0.075167
-10734.252930 -8280.507812 -3361.668457 0.233192 -0.029725 0.971954
-10755.635742 -8050.258301 -3335.511963 0.217139 -0.674520 0.705557
-10839.492188 -8051.049316 -3319.587158 0.774895 -0.517533 0.362804
-10795.540039 -8343.073242 -3335.575439 0.723594 -0.021058 0.689871
-10836.306641 -8190.677246 -3318.740723 0.939512 0.094729 0.329051
-10717.857422 -8496.100586 -2923.459473 0.954405 0.127873 -0.269692
-10772.296875 -8496.775391 -3112.660400 0.988891 0.079470 -0.125370
-10758.375977 -8619.165039 -3073.794189 0.833186 0.517838 -0.193854
-10763.574219 -8265.031250 -3006.025391 0.980316 0.041261 -0.192907
-10815.796875 -8209.593750 -3273.468018 0.985351 0.068056 -0.156224
3 0 1 2
3 2 1 3
3 4 5 6
3 4 6 7
3 4 7 8
3 8 7 9
3 8 10 11
3 11 12 13
3 13 14 15
3 15 14 16
3 17 18 19
3 20 21 22
3 20 22 23
3 24 25 26
3 24 26 27
3 28 29 30
3 30 29 31
3 32 33 34
3 35 36 37
3 38 39 40
3 41 42 17
3 43 44 45
3 39 46 47
3 47 46 42
3 48 39 47
3 41 17 49
3 39 48 40
3 42 41 50
3 40 48 32
3 50 51 48
3 52 25 53
3 54 55 56
3 57 56 58
3 59 60 61
3 62 63 64
3 65 66 67
3 48 51 68
3 69 26 25
3 70 38 25
3 19 71 72
3 73 74 75
3 75 21 76
3 38 77 39
3 39 77 46
3 78 79 42
3 42 79 80
3 42 80 18
3 48 68 32
3 68 33 32
3 51 81 68
3 81 51 65
3 46 78 42
3 77 78 46
3 82 34 83
3 40 32 82
3 33 84 34
3 51 50 65
3 47 42 48
3 48 42 50
3 77 38 70
3 85 86 35
3 87 88 1
3 67 66 89
3 89 66 90
3 69 91 26
3 41 49 50
3 25 92 70
3 77 79 78
3 77 70 93
3 77 93 79
3 83 86 85
3 94 88 87
3 87 1 0
3 82 32 34
3 33 95 84
3 33 68 81
3 95 33 81
3 95 96 84
3 84 96 86
3 96 36 86
3 40 82 38
3 66 65 97
3 50 49 43
3 42 18 17
3 98 75 76
3 98 76 99
3 79 93 80
3 92 93 70
3 49 17 43
3 100 72 74
3 100 74 73
3 98 73 75
3 93 71 80
3 80 71 18
3 93 92 71
3 95 65 96
3 29 28 101
3 17 19 44
3 44 19 72
3 17 44 43
3 45 44 102
3 18 71 19
3 92 103 71
3 71 103 104
3 86 83 34
3 86 34 84
3 65 95 81
3 50 43 65
3 44 100 102
3 71 104 72
3 72 104 105
3 74 106 75
3 104 103 105
3 105 107 108
3 83 109 82
3 72 100 44
3 105 74 72
3 103 107 105
3 36 96 65
3 83 85 109
3 82 109 25
3 25 110 69
3 38 82 25
3 45 102 65
3 102 98 99
3 106 111 75
3 75 111 21
3 105 108 74
3 103 92 107
3 108 107 106
3 35 86 36
3 37 36 112
3 37 112 88
3 43 45 65
3 100 73 102
3 102 73 98
3 92 113 107
3 108 106 74
3 107 114 106
3 111 106 114
3 109 85 35
3 88 109 35
3 109 88 94
3 35 37 88
3 112 115 88
3 92 25 113
3 111 114 22
3 112 36 65
3 102 99 65
3 107 113 116
3 107 116 114
3 111 22 21
3 88 115 1
3 109 94 25
3 117 65 67
3 118 20 119
3 118 120 99
3 99 120 65
3 121 122 61
3 21 20 76
3 118 123 120
3 3 112 65
3 124 125 126
3 20 118 76
3 127 114 116
3 118 23 123
3 20 23 119
3 114 128 22
3 23 128 123
3 129 130 131
3 132 131 133
3 134 133 135
3 130 94 87
3 3 115 112
3 25 136 110
3 99 76 118
3 116 113 137
3 114 127 128
3 22 128 23
3 123 125 120
3 23 118 119
3 0 130 87
3 130 0 131
3 3 1 115
3 128 116 126
3 125 124 120
3 16 134 15
3 0 138 131
3 94 130 129
3 25 94 129
3 25 129 136
3 127 116 128
3 126 116 124
3 0 2 138
3 131 138 133
3 123 128 126
3 123 126 125
3 14 133 134
3 131 132 129
3 133 5 135
3 135 4 139
3 138 5 133
3 12 11 10
3 2 3 140
3 129 132 14
3 14 132 133
3 16 14 134
3 124 137 113
3 124 141 120
3 129 14 136
3 136 14 13
3 138 2 5
3 116 137 124
3 140 5 2
3 117 3 65
3 124 113 142
3 141 142 143
3 141 124 142
3 143 144 145
3 134 135 15
3 5 4 135
3 6 146 117
3 140 146 5
3 146 140 3
3 146 3 117
3 143 65 120
3 139 11 15
3 135 139 15
3 139 4 8
3 5 146 6
3 65 143 145
3 120 141 143
3 13 15 11
3 7 6 147
3 144 148 145
3 136 13 12
3 11 139 8
3 144 52 148
3 142 144 143
3 117 67 149
3 113 25 150
3 148 52 53
3 113 150 142
3 150 144 142
3 110 12 151
3 151 10 31
3 31 10 9
3 136 12 110
3 10 8 9
3 7 147 152
3 7 152 153
3 7 153 9
3 147 6 117
3 12 10 151
3 147 149 152
3 117 149 147
3 149 67 89
3 25 24 121
3 152 149 154
3 110 151 69
3 69 151 155
3 155 151 31
3 153 152 154
3 154 149 89
3 24 122 121
3 150 25 52
3 9 153 31
3 31 153 30
3 155 31 29
3 156 154 89
3 157 158 26
3 26 158 27
3 153 154 30
3 30 156 159
3 154 156 30
3 160 156 90
3 150 52 144
3 69 155 29
3 91 101 161
3 26 161 157
3 28 30 159
3 159 156 160
3 101 162 161
3 161 162 157
3 27 158 163
3 156 89 90
3 164 66 97
3 164 97 64
3 64 97 165
3 166 167 168
3 29 91 69
3 159 169 101
3 158 62 60
3 28 159 101
3 101 169 162
3 90 66 160
3 160 66 164
3 25 121 170
3 170 121 55
3 91 29 101
3 162 169 63
3 159 160 169
3 24 27 163
3 91 161 26
3 157 162 158
3 59 61 122
3 160 164 169
3 169 164 63
3 63 164 64
3 171 145 148
3 55 121 56
3 25 172 53
3 172 173 174
3 174 173 175
3 53 171 148
3 162 63 158
3 60 62 176
3 177 178 166
3 167 145 171
3 172 25 170
3 172 170 173
3 158 63 62
3 64 165 176
3 165 97 65
3 163 60 59
3 163 158 60
3 163 59 122
3 64 176 62
3 176 178 61
3 176 165 178
3 165 65 166
3 24 163 122
3 61 60 176
3 121 179 58
3 177 166 57
3 57 166 168
3 178 165 166
3 166 65 167
3 167 65 145
3 171 53 172
3 121 61 179
3 56 57 54
3 180 174 175
3 179 61 177
3 177 61 178
3 58 179 177
3 170 180 173
3 172 174 171
3 171 174 167
3 56 121 58
3 173 180 175
3 58 177 57
3 167 174 168
3 170 55 180
3 55 54 180
3 57 168 54
3 54 168 180
3 180 168 174
