ply
format ascii 1.0
comment Created by Blender 2.80 (sub 75) - www.blender.org, source file: 'color_and_decimate.blend'
element vertex 334
property float x
property float y
property float z
property float nx
property float ny
property float nz
element face 656
property list uchar uint vertex_indices
end_header
-5795.158203 -8642.612305 -4115.162109 -0.711081 -0.661824 -0.237312
-5801.565918 -8780.969727 -4097.831055 -0.913144 0.062227 -0.402783
-5835.958496 -8658.233398 -4069.752441 -0.655232 -0.308786 -0.689383
-5874.734863 -8710.702148 -4010.411133 -0.767266 -0.228767 -0.599109
-5880.596680 -9114.260742 -4002.566406 -0.822687 -0.247780 -0.511582
-5896.801270 -8736.058594 -3964.717773 -0.921995 -0.098727 -0.374371
-6096.572266 -8658.159180 -3769.912842 -0.493789 -0.416517 -0.763298
-6032.973145 -8656.387695 -3828.212402 -0.536729 -0.323771 -0.779138
-6098.954590 -9221.735352 -3768.896973 -0.385327 0.611255 -0.691244
-6134.037109 -9217.701172 -3753.042969 -0.600818 0.181951 -0.778375
-7643.604004 -8641.744141 -3068.105957 0.268593 -0.925077 -0.268441
-7645.896484 -8682.331055 -2971.420654 0.152135 -0.508530 -0.847468
-7675.977051 -8708.401367 -3043.392090 0.779351 -0.380505 -0.497757
-7734.588867 -8646.004883 -3080.088135 0.423719 -0.683798 -0.593982
-7696.398438 -8760.440430 -2971.799805 0.793359 -0.455428 -0.403851
-7723.291016 -8887.081055 -2918.863770 -0.105289 -0.177068 -0.978545
-7689.354492 -8797.463867 -2949.754883 -0.061892 -0.236946 -0.969543
-7668.854980 -9221.466797 -2960.857422 -0.474044 0.499710 -0.724937
-7712.327148 -9203.905273 -3937.056152 0.898099 0.037263 0.438185
-7679.166504 -9221.420898 -4001.781494 0.874477 0.166509 0.455550
-7675.146484 -8779.503906 -4011.189453 0.910215 -0.263283 0.319559
-7618.741699 -8675.174805 -4147.428223 0.933409 -0.288430 0.213294
-7607.172852 -9219.921875 -4199.550293 0.834559 0.408826 0.369213
-7591.132812 -8649.227539 -4226.347168 0.823237 -0.539262 0.177221
-6912.749512 -8637.500000 -4105.013184 0.000702 -0.999969 0.001556
-7266.687988 -8640.787109 -4822.192871 0.242378 -0.785913 0.568804
-6889.483887 -8645.402344 -4830.052734 -0.147496 -0.700919 0.697775
-7028.419922 -9116.696289 -4836.252441 -0.224586 0.089816 0.970275
-7269.279785 -8676.279297 -4837.370605 0.358592 -0.172277 0.917447
-7022.326660 -9195.866211 -4832.525391 -0.268014 0.383740 0.883663
-6715.609375 -9229.764648 -3175.876221 -0.191595 0.630329 -0.752281
-7197.885254 -9236.375977 -3177.051025 -0.104740 0.872250 -0.477645
-6750.000977 -9200.000977 -3162.500000 -0.135716 0.164006 -0.977050
-6728.444824 -8653.464844 -3166.373779 -0.197607 -0.399243 -0.895260
-6694.589844 -8639.652344 -3186.641602 -0.242958 -0.747429 -0.618275
-6638.467285 -8656.121094 -3197.248047 -0.548936 -0.486007 -0.680013
-5786.014160 -8696.933594 -4132.619141 -0.988830 0.103763 0.106906
-5954.147949 -8942.194336 -4288.877930 -0.679800 0.565722 0.466689
-5880.838379 -8864.915039 -4274.945312 -0.736198 0.261757 0.624073
-5957.546875 -8903.966797 -4352.276367 -0.779351 0.342387 0.524705
-6009.770508 -8924.080078 -4426.295410 -0.791131 0.437117 0.427778
-6019.757324 -8890.060547 -4480.288086 -0.851405 0.237373 0.467696
-6092.149414 -8929.549805 -4530.997559 -0.570818 0.577197 0.583911
-6146.567871 -8981.605469 -4510.868652 -0.638813 0.532456 0.555284
-6167.358398 -8934.625977 -4571.915039 -0.643391 0.536546 0.546007
-6210.859863 -9042.714844 -4546.881348 -0.892300 0.195807 0.406751
-5808.091797 -8661.521484 -4187.120605 -0.955596 -0.091830 0.279916
-5818.277832 -8793.015625 -4182.852051 -0.946776 0.102206 0.305185
-5815.137207 -8923.554688 -4156.795898 -0.880764 0.281594 0.380627
-5904.736328 -8997.244141 -4173.932617 -0.587664 0.460341 0.665334
-5823.292480 -9180.662109 -4144.952637 0.854915 -0.157048 -0.494369
-5800.159180 -9193.472656 -4087.210205 -0.117252 0.111911 -0.986755
-5800.649902 -9225.597656 -4124.507812 -0.255409 0.753777 -0.605396
-5793.143066 -9222.065430 -4247.341797 -0.807550 0.480544 0.341868
-5831.920410 -9236.420898 -4274.251465 -0.191382 0.765648 0.614093
-5897.695312 -9213.839844 -4245.390137 0.919950 0.352367 -0.171789
-5890.098633 -9213.132812 -4285.534668 0.638020 0.321696 0.699545
-5831.779297 -9072.284180 -4280.143066 0.160710 -0.751732 0.639546
-5799.958008 -9089.353516 -4184.802246 -0.206000 -0.762688 -0.613025
-5789.371582 -9086.708984 -4243.654785 -0.813868 -0.522355 0.254402
-5815.598633 -9168.540039 -3990.586182 -0.811365 -0.213233 -0.544206
-5852.692871 -9227.819336 -3980.036133 -0.218360 0.872341 -0.437361
-5888.925781 -9209.780273 -3946.513428 -0.616108 0.372234 -0.694113
-5827.981445 -9236.673828 -4044.943604 -0.595019 0.793695 0.126255
-5883.244141 -9218.007812 -4095.448486 -0.090457 0.499619 0.861476
-5972.330566 -9224.238281 -4081.330811 -0.309336 -0.254311 0.916288
-6050.664062 -9234.673828 -4126.538086 -0.347758 0.877194 0.331004
-5845.941895 -9131.674805 -4082.474365 -0.644063 -0.034333 0.764153
-5906.849121 -9134.074219 -4088.624512 -0.132603 0.281594 0.950316
-5820.707031 -8986.853516 -4093.892578 -0.981628 0.185675 -0.043275
-5843.054199 -9118.126953 -4048.047852 -0.931547 -0.288247 -0.221625
-5808.936523 -9182.849609 -4074.275879 -0.850795 0.028840 0.524674
-5925.417480 -8640.212891 -4013.104980 -0.362377 -0.919034 -0.154912
-7602.840820 -8640.818359 -4095.784424 0.509384 -0.857997 -0.065737
-7635.159668 -8688.138672 -4054.708008 0.825159 -0.552690 -0.116581
-5860.581543 -9031.029297 -4122.897949 -0.574480 0.388989 0.720145
-6059.955566 -9058.634766 -4317.575195 -0.703177 0.510483 0.494888
-6030.850098 -9125.595703 -4201.123047 -0.720420 0.488479 0.492264
-5967.237305 -9027.212891 -4211.084961 -0.646290 0.547014 0.531999
-7541.131836 -8638.567383 -4015.626953 0.239814 -0.968993 -0.059236
-5832.766113 -8642.233398 -4262.176758 -0.586871 -0.622578 0.517655
-5838.953613 -8740.253906 -4266.463379 -0.736808 0.100375 0.668569
-5827.075684 -9076.925781 -4240.743164 0.419263 -0.868099 -0.265664
-5921.992676 -8677.123047 -4303.743164 -0.653188 -0.136265 0.744804
-6087.259277 -8850.314453 -4565.646973 -0.797174 0.146123 0.585772
-6132.040527 -8833.292969 -4636.005371 -0.487381 0.175665 0.855312
-6356.731445 -9080.505859 -4672.797363 -0.379498 0.230842 0.895901
-6294.409180 -9112.184570 -4639.718750 -0.138249 0.106418 0.984649
-6292.270996 -8662.284180 -4638.523438 -0.205542 -0.334086 0.919828
-6369.104980 -8653.859375 -4680.212402 -0.464858 -0.473983 0.747795
-6488.775391 -8860.622070 -4784.730957 -0.854366 0.342692 0.390606
-6481.154297 -8675.027344 -4750.150391 -0.790246 -0.195379 0.580767
-6498.736816 -8847.895508 -4826.809082 -0.651112 0.325663 0.685507
-6503.651367 -8646.746094 -4830.643555 -0.498184 -0.594470 0.631153
-6546.754883 -8847.375000 -4837.342773 -0.130375 0.187811 0.973510
-6718.272949 -8654.690430 -4833.596680 0.071474 -0.600818 0.796167
-6834.252930 -8740.813477 -4835.053711 -0.021271 -0.143925 0.989349
-6033.009277 -9201.187500 -3827.930908 -0.528336 0.179144 -0.829890
-5914.607910 -8637.930664 -3924.391602 -0.693991 -0.677877 -0.242500
-6252.083008 -8656.770508 -3635.642090 -0.683035 -0.462539 -0.565203
-6251.769043 -9199.803711 -3635.093750 -0.783135 0.178899 -0.595538
-6279.520996 -8659.404297 -3582.014404 -0.626087 -0.475173 -0.618213
-5924.834473 -8942.722656 -3913.079590 -0.812342 0.003174 -0.583117
-5912.944336 -8790.244141 -3924.411865 -0.884945 0.026185 -0.464919
-5893.819336 -8971.226562 -3967.671143 -0.918180 -0.024964 -0.395367
-5953.171387 -8656.724609 -3868.039551 -0.550798 -0.439955 -0.709220
-5966.510254 -8920.768555 -3864.959961 -0.766533 0.030488 -0.641438
-5923.069336 -8640.810547 -4287.416504 -0.263680 -0.892758 0.365276
-6133.999023 -8638.284180 -3772.473389 -0.247505 -0.887875 -0.387768
-6282.175781 -9215.619141 -3579.379639 -0.614795 0.462539 -0.638783
-6336.127930 -8656.805664 -3551.680176 -0.565905 -0.465835 -0.680227
-5973.977051 -8654.370117 -4381.518066 -0.773309 -0.297464 0.559893
-5993.175781 -9217.350586 -3846.718262 -0.520280 0.475173 -0.709555
-5952.004395 -9098.547852 -4118.575684 -0.481246 0.484848 0.730277
-6092.359375 -9115.643555 -4305.091797 -0.754601 0.457991 0.469863
-6110.108887 -9224.292969 -4229.761230 -0.761223 0.446577 0.470168
-6011.148926 -8644.110352 -4422.872070 -0.571459 -0.767388 0.290719
-6018.567383 -8660.702148 -4476.360840 -0.807459 -0.408795 0.425275
-6047.959961 -9237.276367 -3838.472900 -0.283608 0.884884 -0.369427
-7603.888184 -8683.985352 -3987.354248 0.665670 -0.739311 -0.101321
-6122.373535 -9045.033203 -4415.261719 -0.733482 0.481796 0.479385
-5972.824707 -9214.467773 -4284.698730 -0.328745 0.233375 -0.915098
-5964.845215 -9220.728516 -4367.753418 -0.749290 0.605090 0.269021
-6004.452637 -9216.317383 -4306.321289 0.757927 0.383343 -0.527787
-6006.657715 -9219.031250 -4403.487305 0.437696 0.407086 0.801660
-5979.270020 -9125.638672 -4374.554199 -0.085574 -0.961058 0.262734
-7552.472168 -8645.155273 -3821.484375 0.678426 -0.734153 -0.026307
-7711.971191 -8797.191406 -3939.404541 0.876949 -0.416944 0.238868
-7643.611816 -8723.489258 -4073.544189 0.952269 -0.165288 0.256508
-6079.310547 -8637.853516 -4497.436035 -0.226417 -0.966735 0.118900
-6082.970703 -8653.181641 -4545.170410 -0.883236 -0.285989 0.371563
-6103.614258 -8640.470703 -4612.431641 -0.569567 -0.646809 0.507096
-6025.000000 -9181.540039 -4450.000000 -0.321238 0.017945 0.946806
-6024.562012 -9202.672852 -4452.574707 -0.316172 0.018189 0.948515
-6025.856934 -9202.309570 -4448.587891 -0.308451 0.018189 0.951048
-6335.628418 -9218.387695 -3551.842285 -0.594440 0.365337 -0.716330
-6273.308594 -9235.363281 -3631.875732 -0.391552 0.874020 -0.287667
-6517.779785 -9234.238281 -3387.454834 -0.408338 0.872768 -0.267403
-6329.006348 -8638.057617 -4625.715332 -0.125401 -0.955351 0.267525
-7628.057617 -8745.062500 -3838.048584 0.741997 -0.633137 -0.220283
-7793.590332 -9237.484375 -3455.209229 0.410504 0.903989 0.119327
-6659.740234 -9237.407227 -3213.963379 -0.255531 0.921873 -0.291208
-6130.938477 -8673.327148 -4636.783691 -0.306162 -0.211707 0.928129
-6134.659180 -8674.146484 -3751.977539 -0.561083 -0.184515 -0.806909
-6307.035156 -8637.800781 -3615.191406 -0.183691 -0.965972 -0.182012
-6155.961426 -9181.511719 -4360.108398 -0.863643 0.364116 0.348521
-6168.542969 -9235.090820 -4312.571777 -0.403760 0.894070 0.193884
-6183.655273 -9231.716797 -4413.500000 -0.622272 0.768517 0.148778
-6196.644043 -9221.985352 -4499.604492 -0.874020 0.429273 0.227515
-6180.690918 -9115.670898 -4473.442871 -0.896695 0.201666 0.393963
-6222.769531 -8975.666016 -4633.676270 -0.503555 0.174291 0.846187
-6546.169434 -9233.881836 -4636.005371 -0.125980 0.882992 0.452132
-6472.336426 -9097.998047 -4707.441406 0.027711 -0.174017 0.984344
-6566.839355 -9162.597656 -4691.546875 -0.262978 0.516129 0.815119
-6729.261230 -9135.214844 -4677.628906 0.168950 -0.725791 0.666829
-6677.929199 -9098.326172 -4659.926758 0.011078 -0.425977 0.904660
-6816.973633 -9099.998047 -4660.360840 -0.308512 0.110874 0.944731
-6770.236816 -9180.733398 -4766.175781 0.015992 -0.167455 0.985748
-6811.391113 -9200.946289 -4750.813965 0.337077 -0.306345 0.890225
-6830.588379 -9226.429688 -4741.509766 -0.057253 0.753990 0.654347
-6665.129883 -9216.246094 -4679.497559 -0.178625 0.755486 0.630299
-6658.130859 -9144.861328 -4744.947266 0.091800 0.005097 0.995758
-6632.362305 -9121.778320 -4746.837402 -0.075411 -0.385846 0.919462
-6814.678711 -9160.144531 -4689.169922 0.017182 -0.680013 0.732963
-6879.861816 -9066.564453 -4716.834473 -0.471572 0.548235 0.690664
-6869.725586 -9172.540039 -4710.184082 -0.108493 -0.390332 0.914243
-7627.313965 -8770.373047 -3699.338867 0.757469 -0.652547 0.018464
-7677.453613 -8808.125977 -3771.892090 0.545244 -0.826594 -0.139256
-7766.865234 -8839.107422 -3842.122803 0.830164 -0.488815 0.267953
-7742.606445 -8837.859375 -3875.529053 0.833277 0.132969 0.536576
-7840.501465 -8821.026367 -3365.680908 0.730552 -0.568102 0.378826
-7832.518555 -8833.882812 -3423.008545 0.898556 -0.311441 0.309091
-7811.560547 -8826.085938 -3461.042969 0.651692 -0.713187 0.258126
-6205.639648 -9165.646484 -4575.539551 -0.998230 -0.025544 -0.053377
-6225.016113 -9104.166016 -4633.428711 -0.637501 -0.075747 0.766686
-6186.114746 -9178.492188 -4619.229004 -0.933561 0.095523 0.345378
-6250.693359 -9226.912109 -4637.478027 -0.175665 0.656209 0.733818
-6336.286133 -9233.354492 -4599.189941 0.077303 0.867336 0.491623
-6353.181152 -9152.419922 -4629.869629 -0.073916 0.385937 0.919553
-6434.334473 -9232.093750 -4609.110352 -0.114902 0.865108 0.488205
-6229.315430 -9234.379883 -4563.661133 -0.470473 0.873928 0.121830
-6385.229492 -9023.176758 -4680.309570 0.387066 0.187780 0.902707
-6425.691895 -9073.910156 -4707.439941 -0.008393 -0.111057 0.993774
-6501.769043 -9199.609375 -3385.096191 -0.807520 0.175390 -0.563128
-6522.514648 -8658.058594 -3341.706543 -0.739464 -0.434828 -0.513871
-6523.441406 -9216.217773 -3340.389648 -0.752617 0.413984 -0.512009
-6399.891113 -8957.079102 -4706.782227 -0.297403 0.255928 0.919797
-6554.606445 -9115.836914 -4707.775391 -0.100803 -0.381664 0.918760
-6509.710938 -9077.955078 -4647.055176 0.193915 -0.625813 0.755455
-6511.276855 -8971.835938 -4666.974609 0.021577 0.666646 0.745048
-6485.079102 -9038.407227 -4637.488281 0.242500 0.022950 0.969848
-6672.033203 -8911.577148 -4832.604980 -0.179113 0.471023 0.863704
-6544.425293 -8933.908203 -4733.091797 -0.209143 0.777032 0.593646
-6494.677734 -8640.467773 -4742.436523 -0.291665 -0.920286 0.260720
-6515.493164 -8639.706055 -3392.018799 -0.399487 -0.873775 -0.277291
-7549.404297 -8641.579102 -3654.183594 0.445875 -0.894223 0.038697
-7597.633301 -8642.906250 -3441.543213 0.466079 -0.878750 0.102542
-7578.383789 -8653.254883 -3555.038818 0.823573 -0.535386 0.187231
-6477.129395 -8903.473633 -4745.022949 -0.348369 0.363872 0.863826
-6501.718262 -8674.955078 -3385.279785 -0.813959 -0.180029 -0.552293
-6603.236816 -9200.305664 -3257.463867 -0.774010 0.144993 -0.616321
-6602.852539 -8656.587891 -3259.210938 -0.703330 -0.415876 -0.576464
-6632.010742 -9217.891602 -3204.487305 -0.653462 0.460372 -0.600848
-7671.636230 -8771.621094 -3520.729248 0.726859 -0.662557 0.180731
-7607.427734 -8641.495117 -3328.183838 0.388958 -0.913266 0.120884
-7664.999512 -8637.951172 -3205.119873 0.249031 -0.940123 0.232673
-7698.574219 -8695.557617 -3235.919189 0.519272 -0.680563 0.516861
-7792.009766 -8727.893555 -3209.620117 0.637745 -0.686270 0.349651
-7702.247559 -8739.271484 -3324.513672 0.559648 -0.774499 0.294778
-6619.463867 -9007.884766 -4656.978516 -0.237159 0.564776 0.790399
-6641.343750 -9063.904297 -4638.439453 -0.374889 0.039644 0.926206
-7670.566406 -8747.803711 -3426.660156 0.720450 -0.651723 0.237007
-6829.639648 -8638.552734 -4767.130859 -0.003174 -0.974761 0.223121
-6826.514648 -8666.539062 -4798.688477 -0.097079 -0.608966 0.787194
-6697.713379 -9018.293945 -4683.059082 -0.293191 0.588275 0.753624
-6703.383301 -8964.586914 -4760.203125 -0.385205 0.780297 0.492630
-6810.242676 -8993.736328 -4831.178711 -0.194555 0.589801 0.783746
-6778.647461 -9237.485352 -4660.882324 -0.060518 0.991882 0.111545
-7192.588867 -8678.635742 -3160.870361 -0.263497 -0.185034 -0.946715
-7193.378418 -8641.375000 -3177.229248 -0.128697 -0.876888 -0.463088
-7352.211426 -8637.817383 -3118.933594 -0.093539 -0.966430 -0.239265
-6724.299805 -9154.175781 -4744.232910 -0.050295 -0.506821 0.860561
-7200.287598 -9195.256836 -3158.468750 -0.253151 0.200262 -0.946440
-7247.581543 -8660.086914 -3132.206055 -0.403027 -0.416425 -0.814936
-7325.493164 -9215.046875 -3093.399902 -0.352794 0.337107 -0.872860
-7323.303223 -8655.065430 -3094.350830 -0.336100 -0.525742 -0.781396
-7390.395996 -8656.597656 -3073.616211 -0.265481 -0.492264 -0.828944
-7605.765137 -8641.023438 -3007.332031 -0.029176 -0.755699 -0.654225
-7601.178223 -9199.647461 -3007.212158 -0.425336 0.183630 -0.886196
-7465.030762 -8656.517578 -3048.824463 -0.308573 -0.398938 -0.863460
-7536.250000 -8652.695312 -3026.797852 -0.293558 -0.116825 -0.948759
-7547.820801 -9214.666992 -3019.112793 -0.230506 0.409986 -0.882473
-6877.135742 -9022.743164 -4775.591309 -0.433973 0.794916 0.423933
-6897.080078 -9012.047852 -4825.546387 -0.332652 0.927274 0.171697
-6968.266113 -9030.595703 -4836.924805 -0.195502 0.239265 0.951048
-7464.946777 -9219.118164 -3049.700439 -0.282571 0.435652 -0.854579
-6904.151367 -9232.563477 -4736.043945 -0.249001 0.611713 0.750847
-6969.318359 -9213.868164 -4795.388184 -0.515610 0.475448 0.712760
-7089.814941 -9237.440430 -4787.125488 -0.058565 0.951720 0.301279
-6923.480957 -9157.430664 -4714.604980 -0.558977 -0.017243 0.828974
-6938.845215 -9106.406250 -4762.121582 -0.706626 0.343028 0.618854
-7310.069336 -9233.926758 -3116.221436 -0.236183 0.860805 -0.450789
-7390.466797 -9217.107422 -3074.154053 -0.294473 0.329661 -0.896969
-7587.397461 -9235.189453 -3033.096680 -0.131077 0.909177 -0.395184
-7783.855957 -9235.234375 -3783.104004 0.611377 0.764824 0.202979
-7641.294434 -9232.310547 -4068.268555 0.678426 0.687460 0.259011
-7589.446777 -9198.077148 -4232.265137 0.940367 0.147435 0.306497
-7446.779785 -8658.024414 -4566.255371 0.724174 -0.435835 0.534410
-7448.165527 -9218.174805 -4564.656250 0.776086 0.076479 0.625935
-7430.056641 -9216.828125 -4603.493164 0.743553 0.470504 0.475112
-7530.254883 -8659.715820 -4480.589355 0.786035 -0.441877 0.432234
-7528.623535 -9229.160156 -4480.646973 0.673940 0.633869 0.379437
-7348.730957 -8656.291992 -4714.200684 0.776605 -0.504471 0.377300
-7370.338379 -9215.193359 -4669.588379 0.806513 0.299295 0.509812
-7308.124512 -8658.169922 -4797.241699 0.745842 -0.426496 0.511612
-7626.408203 -9218.511719 -4134.297363 0.956114 0.130070 0.262429
-7571.263184 -9235.236328 -4237.385742 0.441755 0.889615 0.115726
-7371.901855 -8656.538086 -4666.648438 0.783135 -0.365215 0.503250
-7324.407227 -9223.366211 -4762.253418 0.784600 0.472152 0.401776
-7584.700195 -9217.396484 -4294.413574 0.887204 0.415937 0.199591
-7304.493164 -9215.667969 -4804.384277 0.788079 0.260750 0.557573
-7559.752441 -9217.979492 -4393.734375 0.899441 0.357830 0.250832
-7273.353516 -9230.373047 -4832.929199 0.311258 0.623890 0.716819
-7364.744141 -9236.424805 -4649.721680 0.312113 0.928434 0.201422
-7183.911133 -9215.767578 -4835.928223 -0.059206 0.449751 0.891171
-7406.812988 -8637.861328 -4578.778320 0.241218 -0.955565 0.169225
-7572.810059 -8639.556641 -4231.770020 0.259835 -0.963103 0.069826
-7541.870605 -8642.351562 -4409.592285 0.605640 -0.762932 0.226081
-7563.661621 -8653.767578 -4332.589844 0.909787 -0.350902 0.221564
-7431.321289 -8659.470703 -4601.493652 0.747887 -0.447920 0.489883
-7585.325684 -8656.949219 -4290.771484 0.847652 -0.462050 0.260720
-7756.755371 -9237.283203 -2942.576416 0.246498 0.868007 -0.431013
-7542.481445 -9213.863281 -4424.480469 0.891385 -0.261818 0.369945
-7560.128418 -8671.579102 -4394.872070 0.898648 -0.152684 0.411176
-7564.951660 -9199.107422 -4329.957031 0.941527 -0.194586 0.274941
-7801.112793 -8698.096680 -3136.262207 0.862239 -0.457778 -0.216651
-7774.443848 -8798.311523 -3078.264648 0.320048 -0.155187 -0.934568
-7813.800293 -8806.425781 -3109.561768 0.894589 0.161107 -0.416761
-7798.379883 -8856.029297 -3080.615479 0.948149 0.306986 -0.081973
-7770.780273 -8839.493164 -3160.077881 0.916318 0.364574 -0.165471
-7809.607422 -8931.914062 -3186.978027 0.824366 -0.309976 -0.473617
-7763.021484 -8948.937500 -3102.089111 0.905911 -0.227088 -0.357341
-7803.687500 -8988.816406 -3121.049561 0.716575 -0.336833 -0.610767
-7762.149902 -8875.415039 -3080.789551 0.724784 0.352672 -0.591815
-7751.335449 -8920.876953 -3045.986816 0.925443 -0.322916 0.198096
-7774.912598 -8922.573242 -3043.126221 0.084170 0.519181 0.850490
-7775.468750 -8888.563477 -3035.098389 -0.182012 -0.584735 -0.790490
-7780.353027 -8929.108398 -2983.577393 0.850673 -0.485611 -0.201178
-7787.084961 -8938.702148 -3023.985107 0.900754 0.125156 0.415876
-7676.150879 -8804.602539 -3632.567139 0.590747 -0.800989 0.096835
-7738.488281 -8817.648438 -3470.395020 0.412976 -0.883236 0.222053
-7732.100586 -8768.627930 -3369.048828 0.451674 -0.832820 0.319926
-7786.345215 -8843.253906 -3788.938477 0.721183 -0.653523 0.229713
-7725.295410 -8830.709961 -3711.803711 0.331858 -0.943297 -0.004852
-7714.143066 -8738.755859 -3079.401367 0.490677 -0.098636 -0.865719
-7847.835449 -8773.799805 -3253.277100 0.919706 -0.392560 0.003906
-7753.267578 -8642.816406 -3173.495850 0.472365 -0.830592 0.294870
-7742.757324 -9221.063477 -3871.280762 0.863338 0.105106 0.493515
-7737.395020 -8834.250977 -3568.871338 0.387524 -0.916105 0.102573
-7809.203613 -8853.507812 -3745.045654 0.841456 -0.516465 0.158727
-7808.887695 -8852.210938 -3536.883789 0.829829 -0.541490 0.134587
-7812.096680 -9218.707031 -3737.881348 0.886135 0.416211 0.203589
-7712.660156 -8805.039062 -3024.275879 0.955412 -0.294900 0.014344
-7744.167480 -8888.244141 -2928.279053 0.739250 -0.312723 -0.596362
-7769.523438 -9019.286133 -2923.858643 0.716514 0.044801 -0.696097
-7793.881348 -8992.477539 -2979.090332 0.992798 0.118686 0.014985
-7764.951172 -9072.272461 -2961.023926 0.974883 0.122166 -0.186102
-7840.127441 -9218.589844 -3016.293457 0.820032 0.230018 -0.524003
-7845.664062 -9234.436523 -3053.624023 0.480331 0.853175 -0.203223
-7880.751953 -9221.125977 -3120.629150 0.875332 0.427686 -0.225440
-7882.073730 -9153.208008 -3143.664551 0.938536 -0.220008 -0.265938
-7847.916504 -9218.681641 -3364.367676 0.961516 -0.058535 0.268349
-7743.152832 -9090.506836 -2912.967285 0.427259 0.004059 -0.904111
-7774.458496 -9111.577148 -2992.789307 0.886196 -0.260964 -0.382763
-7741.458984 -9218.387695 -2911.720703 0.052858 0.428419 -0.902005
-7788.212891 -9191.916016 -2953.492920 0.784051 -0.063051 -0.617450
-7781.711426 -9219.702148 -3826.183105 0.824091 0.413434 0.387158
-7719.676270 -8871.037109 -3065.402832 0.839686 -0.387310 -0.380596
-7732.146484 -8823.782227 -2953.312256 0.792566 -0.444868 -0.417005
-7857.117676 -9112.002930 -3127.100586 0.851436 -0.344707 -0.395184
-7758.057617 -9018.429688 -3013.305908 0.996277 -0.001831 0.086062
-7809.571777 -8849.829102 -3228.750732 0.859035 -0.058260 -0.508560
-7831.827637 -9220.259766 -3423.707520 0.825098 0.414014 0.384381
-7868.347656 -9233.113281 -3296.686035 0.622822 0.727683 0.287210
-7813.997070 -9197.165039 -3457.045898 0.939299 0.188025 0.286905
-7842.858887 -8793.265625 -3168.686035 0.963439 0.253639 -0.086184
-7881.572754 -9074.148438 -3267.678711 0.978820 -0.147465 0.141820
-7858.747559 -8996.423828 -3225.324463 0.930662 -0.244209 -0.272347
-7859.568359 -8885.555664 -3296.295410 0.959227 -0.102298 -0.263436
-7860.190430 -8834.679688 -3344.186523 0.913022 -0.264016 0.310862
-7853.421875 -8809.425781 -3291.833496 0.978179 -0.162236 -0.129551
-7865.369141 -9033.872070 -3299.855957 0.985198 -0.072207 0.155309
-7896.123535 -9182.500977 -3249.568359 0.970794 -0.143773 0.192022
-7905.578125 -9222.858398 -3268.321533 0.851344 0.328776 0.408765
3 0 1 2
3 3 4 5
3 6 7 8
3 6 8 9
3 10 11 12
3 10 12 13
3 12 11 14
3 15 16 17
3 18 19 20
3 21 22 23
3 24 25 26
3 27 28 29
3 30 31 32
3 30 33 34
3 30 34 35
3 1 0 36
3 37 38 39
3 40 41 42
3 43 44 45
3 36 46 1
3 1 46 47
3 48 47 38
3 49 48 38
3 49 38 37
3 50 51 52
3 52 53 54
3 55 54 56
3 55 56 57
3 50 58 51
3 51 59 52
3 54 53 57
3 57 53 59
3 36 0 46
3 51 58 59
3 52 59 53
3 60 61 62
3 63 64 65
3 63 65 66
3 64 67 68
3 69 70 3
3 60 63 61
3 60 62 4
3 67 70 69
3 63 60 71
3 71 67 64
3 63 71 64
3 0 2 72
3 73 74 21
3 48 1 47
3 1 69 2
3 69 1 48
3 75 48 49
3 76 77 78
3 69 48 75
3 70 4 3
3 24 0 72
3 24 79 73
3 23 73 21
3 46 80 81
3 82 58 50
3 82 59 58
3 0 80 46
3 38 83 39
3 42 84 85
3 86 87 88
3 86 88 89
3 90 91 92
3 92 91 93
3 94 95 96
3 46 81 47
3 47 81 38
3 59 82 57
3 57 82 55
3 55 82 50
3 7 97 8
3 60 4 70
3 5 98 72
3 99 100 101
3 69 3 2
3 5 102 103
3 4 104 5
3 103 102 105
3 5 104 102
3 102 106 105
3 70 71 60
3 67 71 70
3 69 75 67
3 50 52 55
3 80 24 107
3 81 80 83
3 80 107 83
3 57 56 54
3 72 2 3
3 98 7 108
3 108 7 6
3 101 109 110
3 0 24 80
3 55 52 54
3 39 111 40
3 102 104 62
3 62 104 4
3 106 112 105
3 105 112 97
3 62 61 63
3 72 98 24
3 113 78 77
3 66 77 114
3 66 114 115
3 65 68 113
3 64 68 65
3 66 65 113
3 66 113 77
3 75 113 67
3 67 113 68
3 81 83 38
3 103 98 5
3 98 103 105
3 102 112 106
3 102 62 112
3 5 72 3
3 113 75 78
3 75 49 78
3 49 37 78
3 83 111 39
3 111 116 40
3 41 40 117
3 41 84 42
3 112 62 118
3 118 62 63
3 98 108 24
3 119 74 79
3 76 37 120
3 120 37 39
3 120 39 40
3 107 111 83
3 112 118 97
3 78 37 76
3 121 122 123
3 123 122 124
3 125 121 123
3 121 125 122
3 105 7 98
3 79 126 119
3 119 126 127
3 74 20 128
3 118 63 66
3 111 107 116
3 116 107 24
3 125 123 124
3 124 122 125
3 105 97 7
3 74 119 20
3 129 116 24
3 41 117 130
3 84 131 85
3 40 116 117
3 132 133 134
3 134 133 132
3 110 109 135
3 20 119 127
3 8 118 9
3 9 118 136
3 135 136 137
3 30 32 33
3 77 76 114
3 129 24 138
3 40 42 43
3 116 129 117
3 117 129 130
3 97 118 8
3 126 139 127
3 137 140 141
3 131 129 138
3 41 130 84
3 136 118 140
3 136 140 137
3 120 40 43
3 84 130 131
3 131 138 142
3 85 142 88
3 108 6 143
3 6 9 143
3 108 144 24
3 115 114 145
3 76 120 114
3 114 120 145
3 145 120 43
3 43 42 44
3 130 129 131
3 85 131 142
3 108 143 99
3 66 115 146
3 145 146 115
3 42 85 44
3 9 99 143
3 99 9 100
3 108 99 144
3 66 146 140
3 140 146 147
3 146 145 147
3 45 148 149
3 145 43 149
3 145 149 147
3 45 44 150
3 142 138 88
3 151 152 153
3 154 155 156
3 157 158 159
3 157 159 160
3 160 151 153
3 161 162 155
3 161 155 154
3 154 156 163
3 156 164 165
3 136 100 9
3 139 166 167
3 139 167 168
3 168 169 127
3 170 171 172
3 118 66 140
3 147 149 148
3 149 43 45
3 173 174 175
3 176 174 87
3 177 178 179
3 173 175 180
3 44 85 150
3 150 85 88
3 86 181 182
3 110 135 183
3 184 183 185
3 147 148 180
3 148 45 173
3 148 173 180
3 173 45 174
3 176 87 178
3 45 150 174
3 178 86 179
3 174 150 87
3 175 176 180
3 150 88 87
3 175 174 176
3 100 109 101
3 147 180 140
3 180 176 177
3 181 86 186
3 187 188 155
3 187 162 161
3 109 100 136
3 140 180 177
3 181 186 189
3 181 189 190
3 109 136 135
3 101 144 99
3 191 192 92
3 92 94 191
3 101 110 144
3 176 178 177
3 177 179 140
3 87 86 178
3 88 138 89
3 91 89 193
3 144 194 24
3 186 86 89
3 144 110 194
3 195 196 197
3 86 182 152
3 186 89 91
3 186 91 198
3 110 199 194
3 137 183 135
3 185 200 201
3 201 200 202
3 24 196 195
3 152 188 187
3 89 138 193
3 110 183 199
3 196 203 197
3 86 152 179
3 138 24 193
3 186 198 192
3 204 205 206
3 206 207 208
3 188 181 190
3 179 152 151
3 190 189 209
3 188 190 210
3 182 188 152
3 181 188 182
3 194 199 184
3 199 183 184
3 24 204 196
3 186 192 189
3 153 152 187
3 198 91 90
3 193 93 91
3 198 90 192
3 185 183 137
3 196 211 203
3 140 179 151
3 190 209 210
3 93 212 95
3 95 212 213
3 90 92 192
3 94 92 93
3 185 201 184
3 196 204 208
3 196 208 211
3 153 187 161
3 193 24 93
3 185 141 200
3 194 34 24
3 184 34 194
3 189 192 209
3 209 214 155
3 155 214 156
3 209 191 215
3 209 215 214
3 216 214 215
3 93 95 94
3 201 202 35
3 141 185 137
3 184 201 34
3 209 192 191
3 202 200 141
3 35 202 30
3 188 210 155
3 187 155 162
3 153 161 160
3 202 141 30
3 35 34 201
3 151 160 217
3 151 217 140
3 24 212 93
3 33 32 218
3 219 220 24
3 210 209 155
3 160 161 221
3 154 163 157
3 161 154 221
3 157 221 154
3 160 221 157
3 96 26 28
3 94 96 28
3 191 94 28
3 218 222 223
3 223 224 225
3 225 224 226
3 227 228 11
3 215 191 216
3 95 213 96
3 191 28 216
3 33 218 219
3 219 218 223
3 219 223 220
3 220 229 227
3 220 205 24
3 230 231 227
3 11 16 14
3 214 232 156
3 156 232 164
3 205 204 24
3 32 222 218
3 217 160 159
3 232 214 216
3 232 216 233
3 216 28 234
3 216 234 233
3 163 165 158
3 163 158 157
3 229 235 230
3 231 228 227
3 217 159 236
3 159 158 236
3 236 158 165
3 226 235 229
3 165 163 156
3 236 237 238
3 165 239 236
3 26 212 24
3 213 212 26
3 96 213 26
3 234 28 27
3 33 219 34
3 238 140 217
3 239 164 240
3 164 239 165
3 164 232 240
3 223 222 224
3 239 237 236
3 239 240 237
3 240 232 233
3 240 233 234
3 34 219 24
3 11 17 16
3 237 240 27
3 238 217 236
3 240 234 27
3 32 31 222
3 222 31 241
3 222 241 224
3 224 241 242
3 235 243 231
3 228 231 243
3 228 17 11
3 27 29 237
3 30 141 31
3 141 140 31
3 244 245 19
3 244 140 245
3 19 245 128
3 23 22 246
3 247 248 249
3 25 28 26
3 250 248 247
3 251 248 250
3 252 253 254
3 245 22 255
3 245 140 256
3 245 256 22
3 257 253 252
3 253 258 254
3 140 238 256
3 256 259 246
3 254 260 28
3 256 238 251
3 256 251 261
3 260 262 28
3 258 260 254
3 238 263 251
3 251 263 248
3 248 263 249
3 249 263 253
3 238 262 263
3 263 262 258
3 263 258 253
3 238 237 29
3 28 264 29
3 264 238 29
3 254 25 252
3 238 264 262
3 258 262 260
3 25 265 257
3 25 257 252
3 223 225 220
3 24 265 25
3 28 25 254
3 28 262 264
3 224 242 226
3 24 266 267
3 267 266 268
3 257 265 269
3 241 31 140
3 268 266 270
3 269 265 247
3 225 226 220
3 241 140 243
3 241 243 235
3 226 242 235
3 235 231 230
3 266 23 270
3 247 265 250
3 235 242 241
3 265 24 267
3 265 267 250
3 249 257 269
3 253 257 249
3 249 269 247
3 226 229 220
3 228 243 17
3 17 243 271
3 229 230 227
3 220 227 205
3 243 140 271
3 24 195 79
3 250 267 272
3 272 267 273
3 273 267 268
3 268 270 259
3 274 268 259
3 79 195 126
3 261 272 273
3 261 273 268
3 261 251 272
3 250 272 251
3 275 13 276
3 275 276 277
3 277 278 279
3 280 279 281
3 280 281 282
3 281 283 284
3 285 284 286
3 286 284 287
3 286 287 288
3 286 288 278
3 278 288 285
3 278 283 279
3 195 197 166
3 289 166 203
3 289 203 290
3 290 211 291
3 79 74 73
3 24 73 266
3 259 270 23
3 255 21 128
3 274 259 261
3 259 256 261
3 268 274 261
3 227 10 205
3 166 197 203
3 195 166 139
3 126 195 139
3 266 73 23
3 255 22 21
3 246 22 256
3 23 246 259
3 227 11 10
3 292 168 293
3 293 168 167
3 166 289 167
3 74 128 21
3 245 255 128
3 12 294 13
3 208 207 295
3 291 295 170
3 204 206 208
3 19 128 20
3 206 296 207
3 211 208 291
3 167 289 293
3 169 297 18
3 289 298 293
3 293 298 292
3 292 298 299
3 299 300 301
3 294 12 302
3 276 286 278
3 10 13 205
3 205 13 296
3 203 211 290
3 298 300 299
3 139 168 127
3 127 18 20
3 244 19 297
3 303 15 304
3 287 304 305
3 305 304 306
3 307 308 309
3 307 309 310
3 311 171 170
3 15 312 304
3 312 313 306
3 15 314 312
3 312 315 313
3 15 17 314
3 312 314 315
3 316 244 297
3 317 302 284
3 318 16 15
3 314 17 271
3 16 318 14
3 14 318 302
3 302 317 294
3 14 302 12
3 317 283 294
3 294 283 276
3 294 276 13
3 205 296 206
3 289 290 298
3 297 19 18
3 18 127 169
3 281 319 282
3 314 307 315
3 318 15 303
3 284 303 287
3 288 320 284
3 284 320 281
3 318 303 284
3 302 318 284
3 317 284 283
3 290 170 172
3 298 290 172
3 298 172 300
3 297 169 316
3 316 292 244
3 244 292 299
3 303 304 287
3 314 271 307
3 306 320 305
3 281 320 319
3 320 306 313
3 320 288 305
3 286 283 285
3 288 284 285
3 286 276 283
3 296 13 275
3 279 283 281
3 208 295 291
3 291 170 290
3 300 172 301
3 299 301 244
3 316 169 168
3 292 316 168
3 304 312 306
3 307 271 308
3 308 271 140
3 140 244 301
3 305 288 287
3 320 313 319
3 313 315 319
3 319 307 310
3 283 278 285
3 277 276 278
3 280 321 279
3 207 296 275
3 322 323 140
3 322 140 324
3 324 140 301
3 325 275 277
3 326 319 310
3 207 325 295
3 295 325 279
3 325 277 279
3 280 282 327
3 327 282 319
3 280 327 328
3 275 325 207
3 321 280 328
3 170 329 311
3 295 279 330
3 330 279 321
3 322 311 323
3 172 324 301
3 319 315 307
3 308 140 323
3 327 319 326
3 331 327 326
3 330 321 328
3 295 330 170
3 170 330 329
3 311 322 171
3 322 324 172
3 322 172 171
3 332 309 333
3 310 309 332
3 309 308 333
3 333 308 323
3 330 328 329
3 329 331 311
3 327 331 328
3 328 331 329
3 323 331 326
3 332 323 326
3 331 323 311
3 326 310 332
3 332 333 323
