ply
format ascii 1.0
comment Created by Blender 2.80 (sub 75) - www.blender.org, source file: 'color_and_decimate.blend'
element vertex 511
property float x
property float y
property float z
property float nx
property float ny
property float nz
element face 1018
property list uchar uint vertex_indices
end_header
-7030.862305 -9347.751953 -416.946777 -0.453230 0.340739 -0.823664
-7019.380371 -9396.587891 -459.295349 -0.751915 0.323222 -0.574541
-7292.162598 -9397.031250 -456.420715 0.067690 0.348582 -0.934812
-7344.306641 -9444.282227 -467.677551 0.100620 0.416089 -0.903714
-7803.015137 -9837.221680 -767.688354 0.151738 0.895688 -0.417920
-7476.348633 -9833.309570 -1149.376953 -0.349864 0.793054 0.498611
-7584.770020 -9831.835938 -1234.450439 -0.326243 0.791253 0.517136
-8099.385254 -9837.442383 -884.975647 0.069399 0.942137 -0.327921
-7714.469727 -9834.383789 -1312.584961 -0.351878 0.846278 0.399915
-8627.641602 -9837.288086 -1138.616699 0.266701 0.886380 -0.378338
-9951.255859 -9837.489258 -2389.061768 0.237709 0.953215 -0.186621
-8761.300781 -9835.583008 -1214.957275 0.298410 0.837336 -0.458022
-9937.333008 -9759.618164 -3024.979980 -0.389203 0.639393 0.663045
-9994.686523 -9702.253906 -3119.033447 -0.374248 0.664510 0.646748
-10052.886719 -9833.086914 -3063.861328 -0.306772 0.856258 0.415509
-10132.593750 -9821.605469 -3124.928711 -0.393078 0.711936 0.581896
-10094.284180 -9722.129883 -3173.150391 -0.472488 0.579058 0.664388
-10204.081055 -9700.479492 -3269.139160 -0.309671 0.546159 0.778314
-10181.516602 -9646.481445 -3310.767822 -0.042940 0.380505 0.923765
-10241.214844 -9683.907227 -3282.886719 0.167119 0.269723 0.948302
-10206.341797 -9480.514648 -3304.951660 0.328501 0.045259 0.943388
-10408.165039 -9243.296875 -3232.137695 0.222846 -0.719016 0.658254
-10428.708984 -9383.812500 -3229.666016 0.304636 0.008179 0.952422
-10353.987305 -9399.613281 -3256.919678 0.339793 0.006531 0.940458
-7015.872559 -9564.567383 -635.291138 -0.978484 0.008545 0.206030
-7070.655762 -9580.291992 -742.223145 -0.896207 -0.011963 0.443403
-7051.540039 -9718.454102 -714.409424 -0.955718 0.050600 0.289834
-7018.540039 -9644.068359 -609.321655 -0.933378 0.302896 -0.192358
-7018.099609 -9248.495117 -408.320618 -0.580950 -0.531724 -0.616199
-7013.669922 -9258.599609 -605.227600 -0.849147 -0.508621 0.142155
-7021.656250 -9465.170898 -482.010345 -0.683584 0.278390 -0.674673
-7025.290527 -9466.981445 -648.886597 -0.916471 -0.018159 0.399640
-7060.187500 -9399.109375 -738.317993 -0.898892 -0.007660 0.438093
-7135.687012 -9441.320312 -846.327454 -0.780908 -0.008576 0.624531
-7104.454102 -9560.666016 -809.003540 -0.832911 -0.015870 0.553148
-7126.417969 -9681.646484 -852.954834 -0.780389 0.048219 0.623402
-7184.522461 -9647.545898 -903.185608 -0.775292 -0.028199 0.630940
-7218.995605 -9677.166992 -954.709534 -0.747887 -0.038789 0.662648
-7261.585938 -9660.668945 -998.899414 -0.658681 -0.069796 0.749138
-7242.800781 -9816.100586 -973.797363 -0.654256 0.346629 0.672140
-7228.454590 -9487.981445 -490.956390 0.018403 0.452925 -0.891324
-7040.191895 -9546.883789 -518.566223 -0.247597 0.498032 -0.831050
-7039.886719 -9337.852539 -665.618835 -0.930784 -0.017060 0.365123
-7311.491211 -9566.681641 -531.944397 0.042024 0.417249 -0.907804
-7030.315430 -9601.353516 -559.547729 -0.494949 0.481948 -0.722983
-7163.194824 -9681.025391 -593.899536 -0.042879 0.505081 -0.861995
-7370.192871 -9648.968750 -570.553101 0.062532 0.511368 -0.857051
-7331.527832 -9660.319336 -1049.219604 -0.661245 -0.033265 0.749413
-7385.730957 -9815.314453 -1105.152100 -0.567248 0.322184 0.757866
-7356.062988 -9266.634766 -1082.156128 -0.661367 -0.186926 0.726371
-7289.134277 -9360.484375 -1003.197449 -0.688040 0.009430 0.725578
-7296.750000 -9241.583008 -1009.140808 -0.499771 -0.724204 0.475112
-7232.688477 -9273.005859 -953.044800 -0.676656 -0.142888 0.722251
-7194.335449 -9240.534180 -895.856689 -0.372478 -0.867733 0.329020
-7169.820801 -9270.731445 -905.428406 -0.761742 -0.348491 0.546129
-7190.454590 -9400.056641 -904.471741 -0.741508 0.004028 0.670919
-7040.305176 -9662.432617 -597.274170 -0.441359 0.572100 -0.691275
-7063.573730 -9289.944336 -739.598328 -0.902676 -0.150212 0.403180
-7121.768066 -9318.958984 -835.921936 -0.799524 0.011322 0.600482
-7080.526367 -9660.503906 -772.072388 -0.882992 -0.029603 0.468398
-7144.751953 -9745.183594 -861.710876 -0.793207 -0.042177 0.607440
-7202.638184 -9836.860352 -904.167664 -0.253700 0.936888 0.240486
-7331.492188 -9835.424805 -1046.170288 -0.388470 0.811701 0.436079
-7354.674316 -9490.918945 -507.270081 0.091891 0.446425 -0.890072
-7410.350586 -9522.639648 -516.368225 0.090030 0.380230 -0.920469
-7479.750000 -9565.453125 -556.518738 0.137089 0.398816 -0.906705
-7596.162109 -9561.387695 -567.601685 0.188269 0.411756 -0.891598
-7607.535156 -9612.722656 -606.743774 0.203131 0.394421 -0.896176
-7830.972656 -9442.076172 -567.393982 0.340037 0.372051 -0.863674
-7764.845703 -9548.473633 -604.050903 0.202521 0.376385 -0.904019
-7508.708984 -9243.013672 -454.612976 0.135075 -0.563738 -0.814814
-7234.136719 -9241.288086 -424.491974 0.006073 -0.761498 -0.648091
-7426.649902 -9257.082031 -415.496307 0.251625 -0.294076 -0.922025
-9458.485352 -9237.531250 -1483.448608 0.454054 -0.761040 -0.463240
-8874.438477 -9237.652344 -1041.519287 0.115177 -0.974883 -0.190466
-9041.658203 -9240.458984 -1131.046631 0.382733 -0.757897 -0.528275
-9197.750977 -9240.174805 -1245.505615 0.411054 -0.742851 -0.528336
-10201.372070 -9283.412109 -3315.992432 0.321116 -0.099521 0.941771
-10286.626953 -9444.675781 -3279.373779 0.328501 0.027589 0.944090
-7075.840820 -9238.544922 -716.027893 -0.503037 -0.837550 0.213080
-7053.813477 -9757.492188 -689.670959 -0.794183 0.515549 -0.321574
-7144.714355 -9753.713867 -641.800781 -0.161199 0.626148 -0.762841
-7070.696289 -9812.077148 -774.951416 -0.839961 0.454451 0.296396
-7157.599609 -9817.537109 -892.738892 -0.703635 0.440352 0.557604
-7096.631348 -9835.017578 -745.202209 -0.412183 0.883328 -0.223121
-7249.909180 -9331.797852 -412.339691 0.058443 0.245643 -0.967589
-7111.008301 -9254.341797 -825.307129 -0.705527 -0.477432 0.523667
-7249.138672 -9834.482422 -694.257385 -0.040864 0.872646 -0.486587
-7571.609375 -9237.683594 -478.536957 0.038728 -0.977660 -0.206458
-7208.311035 -9542.563477 -938.610291 -0.700125 -0.022645 0.713645
-7274.415527 -9564.008789 -988.133606 -0.650105 -0.051729 0.758049
-7498.633789 -9442.405273 -507.275574 0.157628 0.353893 -0.921903
-7547.763184 -9481.459961 -520.663757 0.142338 0.392376 -0.908689
-7538.634277 -9354.437500 -466.470734 0.181494 0.313242 -0.932157
-7687.414551 -9333.067383 -507.930176 0.222480 0.234230 -0.946348
-7751.420410 -9237.848633 -515.415344 0.171270 -0.745476 -0.644124
-7776.117188 -9347.892578 -516.224426 0.331889 0.307169 -0.891873
-7832.843262 -9254.594727 -519.382751 0.320414 -0.329234 -0.888211
-7911.908203 -9240.517578 -569.680115 0.154454 -0.789911 -0.593432
-7461.831543 -9750.035156 -638.682129 0.056795 0.488845 -0.870510
-7503.125000 -9816.242188 -678.572327 0.083895 0.707266 -0.701926
-7402.525879 -9537.833008 -1113.462524 -0.624897 -0.007843 0.780633
-7466.213867 -9737.602539 -1163.914795 -0.585772 0.052095 0.808771
-7471.051758 -9578.689453 -1159.061401 -0.625263 -0.030244 0.779809
-7525.956543 -9837.342773 -726.675781 0.026795 0.975890 -0.216559
-7421.832520 -9345.713867 -458.732300 0.152440 0.262703 -0.952727
-7225.254395 -9425.149414 -946.817566 -0.704154 -0.021393 0.709708
-7432.267578 -9400.563477 -1143.231567 -0.670217 0.075930 0.738243
-7650.000977 -9824.063477 -716.018250 0.130558 0.729453 -0.671438
-7459.067871 -9683.842773 -605.038513 0.101260 0.455550 -0.884396
-7413.043457 -9297.344727 -1126.726685 -0.693136 -0.040101 0.719657
-7429.332520 -9238.711914 -1125.462891 -0.420423 -0.812128 0.404492
-7679.997070 -9482.842773 -554.987183 0.220008 0.402509 -0.888577
-7880.792480 -9292.500000 -554.919861 0.323191 0.131504 -0.937132
-7973.773926 -9260.399414 -566.357117 0.396924 -0.225227 -0.889767
-8334.652344 -9253.947266 -719.559937 0.458785 -0.307352 -0.833674
-8268.007812 -9241.931641 -717.421204 0.372997 -0.408948 -0.832820
-8241.169922 -9283.426758 -692.172058 0.364238 0.026368 -0.930906
-8237.070312 -9400.104492 -721.272827 0.377575 0.325327 -0.866939
-8177.425293 -9397.546875 -705.054138 0.362957 0.311716 -0.878079
-7656.921387 -9434.639648 -1349.596924 -0.730491 0.223548 0.645253
-7577.766602 -9350.970703 -1292.587280 -0.728965 0.184118 0.659291
-7494.611816 -9254.510742 -1222.520630 -0.715537 -0.299600 0.631031
-7463.354004 -9457.166992 -1150.853638 -0.596545 0.120121 0.793512
-7532.160645 -9820.968750 -1205.227417 -0.568834 0.355327 0.741691
-7655.890625 -9750.666992 -1305.345703 -0.584857 0.139012 0.799097
-7658.716797 -9618.173828 -1320.635742 -0.662343 0.092685 0.743400
-7742.884277 -9687.971680 -1365.974854 -0.618091 0.138005 0.773858
-7579.781738 -9592.510742 -1244.046753 -0.598437 0.129826 0.790551
-7532.518066 -9563.890625 -1218.835938 -0.646596 0.055086 0.760826
-7551.378418 -9239.842773 -1267.493286 -0.379589 -0.850795 0.363353
-7650.464844 -9440.937500 -517.273560 0.182684 0.354106 -0.917173
-7578.654297 -9693.148438 -620.226196 0.162328 0.427503 -0.889279
-7630.486816 -9714.758789 -651.419983 0.206458 0.513077 -0.833094
-7591.431641 -9280.043945 -1334.577271 -0.810053 0.080905 0.580706
-7724.157715 -9644.863281 -633.096069 0.197485 0.395886 -0.896786
-8033.486328 -9423.222656 -653.722168 0.364025 0.331675 -0.870296
-7935.255859 -9603.610352 -680.563782 0.294259 0.354869 -0.887356
-8108.691895 -9417.837891 -671.869751 0.374126 0.306009 -0.875393
-7658.305664 -9242.867188 -1435.806763 -0.485061 -0.703543 0.519333
-7687.685059 -9252.647461 -467.605957 0.359294 -0.315744 -0.878140
-7686.764648 -9517.416992 -1355.369141 -0.684896 0.174413 0.707419
-7778.263672 -9746.360352 -704.009216 0.214057 0.415418 -0.884060
-7770.706543 -9802.839844 -722.637085 0.211005 0.529984 -0.821314
-7701.007324 -9372.612305 -1438.421997 -0.737877 0.371685 0.563311
-7679.511719 -9296.609375 -1473.531616 -0.682089 -0.050264 0.729514
-7713.542480 -9238.533203 -1442.506104 -0.181707 -0.982360 0.043886
-7793.779785 -9574.626953 -1447.609253 -0.702506 0.222419 0.675985
-7742.916504 -9341.753906 -1524.218506 -0.603870 0.080874 0.792932
-7804.144531 -9675.784180 -667.993103 0.280465 0.446150 -0.849849
-7822.923340 -9460.002930 -1524.033813 -0.744194 0.325266 0.583361
-7808.682617 -9379.814453 -1566.746460 -0.656728 0.026368 0.753624
-7953.302246 -9376.772461 -1647.111938 -0.442701 -0.462142 0.768364
-7989.710938 -9241.666992 -1614.361694 -0.296854 -0.803766 0.515549
-8098.803711 -9260.169922 -1688.045654 -0.537004 -0.097262 0.837916
-8038.731445 -9244.631836 -1651.170776 -0.513230 -0.483993 0.708731
-8281.901367 -9239.206055 -1788.159180 -0.256386 -0.889065 0.379223
-7810.962891 -9240.803711 -1505.798950 -0.243751 -0.825678 0.508713
-7863.199707 -9529.064453 -621.004944 0.312479 0.363994 -0.877407
-7792.005859 -9834.500977 -1391.456055 -0.445814 0.761559 0.470382
-7814.516113 -9679.729492 -1438.506836 -0.698599 0.181341 0.692129
-7881.066406 -9562.935547 -651.892639 0.330027 0.390942 -0.859188
-7883.440430 -9511.664062 -1582.355957 -0.841487 0.303842 0.446669
-7922.935059 -9741.171875 -751.636475 0.299203 0.436384 -0.848537
-7980.677734 -9651.680664 -718.543945 0.353221 0.449019 -0.820704
-7854.400391 -9400.613281 -1618.862793 -0.693838 -0.248482 0.675863
-7840.628418 -9817.458008 -1448.353271 -0.587848 0.433058 0.683248
-7964.113281 -9825.762695 -1538.755859 -0.543718 0.642933 0.539384
-7966.395020 -9837.006836 -1509.690430 -0.150914 0.975433 0.160436
-7924.229004 -9721.672852 -1537.967163 -0.699118 0.214972 0.681875
-8034.529297 -9242.549805 -611.947144 0.251900 -0.688223 -0.680319
-8054.648438 -9650.318359 -756.506775 0.345531 0.421247 -0.838527
-8106.690430 -9536.372070 -721.846375 0.392102 0.367260 -0.843410
-7970.618164 -9832.637695 -819.509766 0.256691 0.799432 -0.543107
-7897.735352 -9238.245117 -1549.096069 -0.279641 -0.859218 0.428388
-8028.827637 -9759.102539 -1648.409912 -0.655965 0.299173 0.692923
-8144.148926 -9831.696289 -1711.017578 -0.389050 0.842586 0.372387
-8055.776367 -9834.041016 -1623.633179 -0.366588 0.845637 0.387890
-7903.970703 -9603.845703 -1558.250488 -0.736961 0.307810 0.601733
-7981.302734 -9630.988281 -1636.277100 -0.780114 0.358104 0.512986
-7965.057617 -9483.063477 -1751.869751 -0.697745 -0.263222 0.666189
-8000.725586 -9557.049805 -1770.150024 -0.816187 0.397259 0.419477
-8056.550781 -9571.967773 -1863.697510 -0.725242 0.345622 0.595416
-8115.316895 -9683.661133 -1785.367432 -0.664388 0.522294 0.534532
-8357.778320 -9608.187500 -2131.569580 -0.573077 -0.690664 0.441023
-8251.315430 -9587.021484 -2024.862671 -0.514389 -0.283792 0.809198
-8436.390625 -9549.141602 -2087.874023 -0.347514 -0.742546 0.572558
-8391.238281 -9433.081055 -1951.846680 -0.483566 -0.465285 0.741356
-8833.077148 -9306.868164 -2242.638184 -0.630818 -0.299051 0.715964
-8792.677734 -9240.668945 -2180.385254 -0.364299 -0.815912 0.448927
-8901.230469 -9249.154297 -2270.499023 -0.639821 -0.167364 0.750023
-7927.352051 -9815.383789 -778.993835 0.249336 0.579730 -0.775689
-7892.696289 -9447.030273 -1672.642944 -0.730613 -0.092227 0.676504
-7983.570801 -9337.996094 -607.767029 0.347880 0.240516 -0.906125
-8005.129395 -9390.415039 -618.441528 0.330546 0.287027 -0.899075
-8022.314453 -9698.427734 -1660.707642 -0.731193 0.335612 0.593860
-8392.707031 -9833.763672 -2024.332275 -0.174810 0.889950 -0.421155
-8210.165039 -9833.166992 -2007.007446 -0.633381 0.643300 -0.430097
-8273.641602 -9834.465820 -2115.039307 -0.462020 0.800165 0.382397
-8242.040039 -9741.078125 -2131.638428 -0.713797 0.075198 0.696280
-8331.204102 -9786.864258 -2193.378174 -0.507126 0.204871 0.837153
-8298.889648 -9659.658203 -2152.782471 -0.612232 -0.637349 0.467879
-8387.602539 -9673.492188 -2212.187988 -0.432966 -0.289132 0.853755
-8462.007812 -9590.121094 -2189.506104 -0.285287 -0.762078 0.581195
-8343.702148 -9659.608398 -2078.817871 -0.988189 -0.132725 -0.076296
-8281.619141 -9684.851562 -2073.274658 -0.130253 -0.636982 -0.759758
-8389.439453 -9726.843750 -2031.554199 -0.957274 0.131199 -0.257668
-7946.431641 -9450.849609 -1701.074951 -0.334513 -0.661428 0.671224
-8034.933105 -9526.796875 -1845.025513 -0.657399 -0.305094 0.688955
-8178.631836 -9586.949219 -1986.415161 -0.614368 -0.035890 0.788171
-8231.248047 -9690.028320 -1912.689087 -0.598865 0.565752 0.566790
-8130.979004 -9241.377930 -629.659668 0.385998 -0.551225 -0.739677
-8118.003906 -9444.193359 -1773.990112 -0.390362 -0.570177 0.722800
-8126.125000 -9494.079102 -1851.028320 -0.323923 -0.725639 0.607013
-8088.604492 -9723.625000 -805.704346 0.292795 0.377453 -0.878506
-8120.459961 -9760.794922 -824.801086 0.315561 0.425947 -0.847896
-8139.806641 -9337.189453 -1741.807373 -0.510636 -0.324870 0.796045
-8185.608398 -9251.913086 -1746.179443 -0.464766 -0.494919 0.734153
-8270.916992 -9284.664062 -1813.961060 -0.525193 -0.388012 0.757317
-8110.582031 -9565.456055 -1908.187500 -0.528794 -0.522416 0.668905
-8118.477051 -9824.465820 -862.399780 -0.046846 0.664022 -0.746208
-8158.529785 -9253.515625 -655.629639 0.450514 0.358470 -0.817591
-8170.270020 -9605.329102 -766.606018 0.321299 0.357952 -0.876705
-8199.117188 -9826.844727 -907.065002 0.298532 0.705130 -0.643147
-8390.613281 -9777.908203 -2009.613403 -0.807154 0.434980 -0.399091
-8289.582031 -9822.899414 -1863.532349 -0.564287 0.573138 0.594165
-8335.432617 -9527.214844 -818.631836 0.452712 0.377911 -0.807581
-8450.362305 -9535.429688 -877.786804 0.397778 0.331706 -0.855403
-8226.053711 -9835.010742 -1793.329224 -0.356639 0.872494 0.333934
-8281.152344 -9422.290039 -758.717590 0.428602 0.323435 -0.843593
-8225.060547 -9437.736328 -1832.695801 -0.476485 -0.495865 0.725974
-8291.653320 -9639.105469 -2033.366699 -0.608600 0.541032 0.580370
-8201.018555 -9702.132812 -2080.750000 -0.823267 -0.551530 0.134129
-8189.946289 -9738.314453 -2021.359131 -0.740165 -0.374157 -0.558672
-8197.669922 -9792.430664 -2026.877563 -0.950957 0.299142 -0.078402
-8238.039062 -9796.623047 -1993.231812 -0.134922 -0.065523 -0.988678
-8411.244141 -9505.153320 -854.545349 0.380993 0.328013 -0.864406
-8306.318359 -9450.775391 -1907.423462 -0.500443 -0.527207 0.686697
-8392.651367 -9240.324219 -766.979858 0.278695 -0.709372 -0.647359
-8332.871094 -9825.257812 -962.779602 0.305673 0.714438 -0.629353
-8323.458984 -9766.211914 -920.520508 0.349437 0.408612 -0.843135
-8367.451172 -9254.803711 -1869.891113 -0.510605 -0.485641 0.709494
-8431.883789 -9837.040039 -1975.508301 -0.230232 0.970946 0.065127
-8399.958008 -9821.497070 -2215.948486 -0.464614 0.341502 0.816980
-8365.858398 -9413.864258 -793.727600 0.409558 0.311869 -0.857295
-8478.971680 -9261.571289 -792.109680 0.405591 -0.157048 -0.900449
-8483.344727 -9711.323242 -983.072876 0.435987 0.380688 -0.815455
-8495.865234 -9589.740234 -928.268555 0.433454 0.368480 -0.822382
-8474.214844 -9835.062500 -1048.406738 0.265938 0.835292 -0.481124
-8454.729492 -9786.975586 -998.116821 0.419050 0.447859 -0.789788
-8623.559570 -9681.966797 -1045.502808 0.454329 0.373974 -0.808527
-8497.909180 -9487.401367 -2059.114014 -0.455733 -0.538560 0.708670
-8458.446289 -9833.710938 -2246.083008 -0.279824 0.682760 0.674917
-8469.799805 -9242.405273 -1934.338135 -0.339366 -0.804559 0.487320
-8495.121094 -9357.133789 -1995.245361 -0.561571 -0.309366 0.767388
-8503.689453 -9653.291992 -2258.334961 -0.298563 -0.357921 0.884701
-8532.865234 -9830.732422 -2270.247070 -0.230445 0.639790 0.733177
-8594.725586 -9680.705078 -2289.855469 -0.256050 -0.249641 0.933866
-8651.212891 -9818.341797 -2315.173828 -0.358531 0.062502 0.931394
-8702.571289 -9626.841797 -2298.949707 -0.384564 -0.394482 0.834529
-8745.884766 -9710.280273 -2358.701172 -0.423933 -0.232948 0.875179
-8781.107422 -9638.591797 -2332.260742 -0.374035 -0.350017 0.858821
-8484.769531 -9385.538086 -841.348877 0.420179 0.330515 -0.845088
-8578.125000 -9238.599609 -860.669128 0.262520 -0.828242 -0.495041
-8549.447266 -9426.521484 -892.945679 0.443648 0.336161 -0.830714
-8595.808594 -9388.197266 -2081.171387 -0.560198 -0.287393 0.776879
-8684.619141 -9296.764648 -2120.603760 -0.575915 -0.345347 0.740959
-8578.385742 -9282.500000 -844.992615 0.480758 0.056459 -0.874996
-8595.520508 -9580.175781 -970.241760 0.480605 0.376354 -0.792016
-8583.646484 -9589.883789 -2226.298340 -0.276009 -0.643757 0.713675
-8674.728516 -9565.783203 -1022.024658 0.485305 0.372051 -0.791192
-8771.542969 -9571.756836 -1081.823120 0.493057 0.380108 -0.782525
-8820.069336 -9435.946289 -1044.374023 0.492508 0.354991 -0.794610
-8797.432617 -9775.125000 -2383.235596 -0.397015 -0.003784 0.917783
-8917.577148 -9820.237305 -2438.509277 -0.320872 0.457503 0.829279
-9017.924805 -9760.692383 -2481.868652 -0.441847 0.159612 0.882748
-9003.001953 -9836.058594 -2442.444092 -0.145543 0.866970 0.476577
-8673.415039 -9240.035156 -907.524780 0.344676 -0.718314 -0.604297
-8630.681641 -9493.232422 -963.236938 0.463179 0.341105 -0.817957
-8565.860352 -9818.666992 -1073.530762 0.366039 0.578356 -0.729026
-8572.435547 -9241.869141 -2011.689575 -0.363567 -0.801630 0.474502
-8677.888672 -9488.209961 -2177.948486 -0.504257 -0.455184 0.733818
-8633.487305 -9400.338867 -920.350281 0.413190 0.301309 -0.859340
-8760.187500 -9379.177734 -985.216919 0.476028 0.324229 -0.817438
-8839.447266 -9255.584961 -987.145630 0.490524 -0.325846 -0.808191
-8701.930664 -9759.090820 -1131.132446 0.483566 0.434950 -0.759545
-8754.326172 -9648.901367 -1105.645996 0.509354 0.385235 -0.769463
-8745.075195 -9835.576172 -2345.534912 -0.231269 0.816767 0.528520
-8714.849609 -9281.373047 -926.485291 0.466262 0.136631 -0.874020
-8695.263672 -9239.925781 -2086.700439 -0.285836 -0.883236 0.371654
-8776.612305 -9386.970703 -2215.548340 -0.619221 -0.233283 0.749748
-8872.317383 -9449.801758 -2315.653809 -0.638447 -0.218207 0.738060
-8869.846680 -9350.202148 -1040.643433 0.499130 0.320872 -0.804895
-8954.434570 -9361.432617 -1099.329346 0.523972 0.332499 -0.784112
-8926.479492 -9257.955078 -1041.627808 0.505783 -0.283670 -0.814661
-8837.548828 -9746.368164 -1210.799927 0.525132 0.389721 -0.756493
-8861.662109 -9650.350586 -1185.168701 0.518296 0.395795 -0.758049
-8921.320312 -9512.092773 -1147.287842 0.520188 0.386914 -0.761345
-8888.719727 -9654.646484 -2388.397217 -0.464125 -0.190954 0.864925
-8957.137695 -9724.434570 -2445.855225 -0.494430 -0.100284 0.863399
-8915.513672 -9835.346680 -1329.197510 0.255013 0.905576 -0.338939
-8871.461914 -9818.608398 -1278.203003 0.502487 0.537309 -0.677297
-8976.301758 -9738.620117 -1315.047852 0.552873 0.404584 -0.728416
-8967.351562 -9637.766602 -1245.878662 0.531632 0.426283 -0.731864
-8997.404297 -9426.847656 -1160.222656 0.548418 0.367992 -0.750847
-9042.489258 -9568.740234 -1266.852539 0.562181 0.392407 -0.727958
-9095.409180 -9470.010742 -1256.433716 0.566637 0.380474 -0.730827
-9003.118164 -9240.442383 -2356.622070 -0.352306 -0.864681 0.358013
-9044.767578 -9281.354492 -2431.285889 -0.619617 -0.448378 0.644185
-8901.673828 -9540.958984 -2381.314209 -0.595660 -0.241981 0.765893
-9235.536133 -9786.750000 -2593.526123 -0.494217 0.438032 0.750877
-9302.695312 -9836.662109 -2590.171875 -0.233619 0.925047 0.299448
-9176.250000 -9835.505859 -2522.869141 -0.196478 0.895413 0.399487
-9018.959961 -9370.943359 -2454.319824 -0.687918 -0.197424 0.698386
-9069.834961 -9503.862305 -2509.071045 -0.652791 -0.070528 0.754204
-9130.667969 -9809.393555 -2522.884277 -0.412152 0.423261 0.806787
-9048.541992 -9820.769531 -1413.054565 0.506119 0.614002 -0.605640
-9064.487305 -9836.291016 -1453.364014 0.264504 0.929289 -0.257698
-8997.790039 -9564.522461 -2471.112793 -0.600452 -0.126469 0.789575
-9041.998047 -9342.022461 -1151.885986 0.536088 0.362896 -0.762139
-9091.056641 -9280.372070 -1154.703125 0.584094 0.087802 -0.806879
-9176.277344 -9378.179688 -1272.006470 0.562456 0.366710 -0.741020
-9229.787109 -9400.513672 -1322.673462 0.585833 0.376812 -0.717460
-9242.115234 -9275.720703 -1272.465332 0.634724 0.076724 -0.768883
-9111.599609 -9667.763672 -2546.142090 -0.577044 0.119816 0.807855
-9103.586914 -9617.997070 -1341.475342 0.574725 0.401715 -0.712912
-9189.749023 -9546.511719 -1375.874268 0.593341 0.406323 -0.694815
-9215.712891 -9287.809570 -2601.872314 -0.653676 -0.460860 0.600238
-9187.005859 -9617.717773 -2625.999756 -0.715049 0.231849 0.659474
-9379.071289 -9240.692383 -2727.007080 -0.343394 -0.881497 0.324015
-9298.625977 -9278.432617 -2685.653076 -0.607593 -0.540574 0.581866
-9195.163086 -9237.596680 -2536.092529 -0.331339 -0.882321 0.334208
-9148.944336 -9709.239258 -1431.498657 0.605640 0.413587 -0.679769
-9203.768555 -9790.730469 -1538.727051 0.593463 0.519272 -0.614887
-9284.501953 -9490.379883 -1420.293701 0.606739 0.414502 -0.678213
-9297.311523 -9637.962891 -1531.584717 0.622608 0.420911 -0.659627
-9396.330078 -9565.791016 -1578.120972 0.634693 0.421552 -0.647603
-9433.827148 -9410.273438 -1513.954224 0.651570 0.380993 -0.655934
-9231.064453 -9835.316406 -1612.831421 0.318949 0.882351 -0.345927
-9169.499023 -9393.056641 -2617.576172 -0.742302 -0.182195 0.644795
-9199.765625 -9589.639648 -2661.077637 -0.774041 0.208289 0.597827
-9329.546875 -9242.034180 -1355.977051 0.552141 -0.575152 -0.603565
-9278.219727 -9702.395508 -2660.196045 -0.571245 0.370769 0.732231
-9244.045898 -9378.138672 -2704.782959 -0.741905 -0.256264 0.619587
-9293.421875 -9456.629883 -2774.288330 -0.797143 -0.004273 0.603748
-9285.179688 -9551.586914 -2752.318115 -0.700858 0.234993 0.673452
-9408.950195 -9450.163086 -2936.687500 -0.767998 -0.065798 0.637013
-9375.385742 -9503.833984 -2875.834717 -0.768761 0.253334 0.587176
-9330.303711 -9380.944336 -2807.433838 -0.720939 -0.320658 0.614307
-9416.733398 -9361.538086 -2888.061768 -0.699545 -0.449293 0.555620
-9484.938477 -9623.380859 -2898.290283 -0.598468 0.585223 0.547105
-9549.383789 -9591.183594 -3018.196289 -0.582293 0.619465 0.526444
-9667.194336 -9650.026367 -3048.648438 -0.397107 0.684866 0.610920
-9740.916016 -9733.095703 -2988.461426 -0.246773 0.738456 0.627491
-9853.904297 -9666.450195 -3110.284424 -0.244850 0.766869 0.593188
-9830.012695 -9744.601562 -2997.451416 -0.222663 0.733085 0.642628
-9369.752930 -9707.241211 -1642.888306 0.630573 0.437605 -0.640950
-9369.156250 -9288.832031 -1388.163696 0.677694 0.140934 -0.721671
-9340.501953 -9833.372070 -1708.183594 0.408124 0.817652 -0.405988
-10517.302734 -9237.509766 -2923.537842 0.262337 -0.959014 -0.106815
-9397.669922 -9635.739258 -2798.643799 -0.614490 0.437757 0.656270
-9457.689453 -9240.966797 -2834.601318 -0.410596 -0.854213 0.318918
-9381.836914 -9833.501953 -2666.338135 -0.321635 0.836818 0.442976
-9482.206055 -9822.913086 -2752.432373 -0.447035 0.667043 0.595965
-9367.857422 -9746.979492 -2703.199951 -0.564287 0.417982 0.711936
-9561.983398 -9712.136719 -2909.107422 -0.526627 0.543870 0.653310
-9457.166992 -9283.166016 -1471.314819 0.696524 0.087374 -0.712180
-9453.782227 -9790.578125 -1788.633057 0.617206 0.506485 -0.602069
-9594.155273 -9240.700195 -1622.476807 0.521287 -0.688498 -0.504166
-9587.458984 -9282.049805 -1602.908325 0.722678 0.104221 -0.683248
-9488.333984 -9835.722656 -1870.669312 0.042085 0.995239 -0.087588
-9697.851562 -9835.983398 -2840.438232 -0.129032 0.941832 0.310282
-9830.591797 -9826.450195 -2913.168457 -0.339427 0.614307 0.712272
-9925.866211 -9836.958984 -2954.426514 -0.206000 0.909116 0.361950
-9602.776367 -9441.476562 -3225.092529 -0.780725 0.135563 0.609943
-9528.907227 -9380.860352 -3054.976318 -0.764244 -0.372936 0.526109
-9603.737305 -9277.897461 -3066.059814 -0.711844 -0.531175 0.459426
-9439.448242 -9519.087891 -2956.976074 -0.733268 0.354381 0.580248
-9526.694336 -9562.357422 -1707.174438 0.649403 0.412885 -0.638569
-9550.614258 -9835.393555 -2776.913086 -0.198401 0.913358 0.355480
-9459.349609 -9400.745117 -2980.590820 -0.753227 -0.295480 0.587603
-9521.710938 -9489.486328 -3080.447510 -0.778069 0.236396 0.581957
-9581.041016 -9434.074219 -1680.295288 0.686026 0.349834 -0.637898
-9598.841797 -9360.291016 -1667.031860 0.697684 0.342112 -0.629383
-9546.927734 -9241.098633 -2938.186035 -0.386273 -0.874905 0.292062
-9617.818359 -9545.253906 -1789.710205 0.693442 0.377941 -0.613392
-9633.118164 -9697.702148 -1902.548096 0.684866 0.407544 -0.603992
-9644.250000 -9810.161133 -2854.840820 -0.290201 0.743950 0.601886
-9583.927734 -9797.774414 -1920.749268 0.610889 0.538255 -0.580554
-9624.938477 -9836.001953 -2009.618652 0.335429 0.890316 -0.307840
-9678.230469 -9520.829102 -1849.486206 0.707633 0.373943 -0.599475
-9696.625000 -9238.268555 -3149.428223 -0.311563 -0.925657 0.214606
-9654.281250 -9250.979492 -3123.036865 -0.465621 -0.882107 0.070925
-9724.157227 -9502.468750 -3250.004639 -0.389080 0.693533 0.606281
-9625.402344 -9555.832031 -3122.850342 -0.486740 0.639851 0.594684
-9773.074219 -9301.644531 -1830.962646 0.748894 0.249397 -0.613941
-9717.899414 -9470.742188 -1861.121826 0.690359 0.384503 -0.612812
-9808.323242 -9499.657227 -1988.011841 0.715781 0.353008 -0.602496
-9699.180664 -9261.337891 -1717.685913 0.741905 -0.201605 -0.639454
-9680.970703 -9238.036133 -1736.240845 0.265969 -0.938169 -0.221534
-9706.375977 -9832.343750 -2095.861084 0.542589 0.671560 -0.504562
-9720.180664 -9728.826172 -2030.140381 0.684133 0.418348 -0.597400
-9767.710938 -9611.485352 -2005.525513 0.695791 0.385815 -0.605792
-9859.925781 -9593.572266 -3211.508789 -0.264565 0.773309 0.576159
-9722.911133 -9611.605469 -3120.228516 -0.323038 0.717246 0.617389
-9736.020508 -9371.335938 -1821.852051 0.715140 0.331156 -0.615528
-9794.145508 -9243.871094 -1844.687256 0.579333 -0.663381 -0.473556
-9858.317383 -9387.754883 -1983.495728 0.723685 0.350230 -0.594592
-9902.499023 -9279.291016 -1970.398315 0.774316 0.068331 -0.629078
-9811.075195 -9811.293945 -2176.198730 0.635914 0.538255 -0.553026
-9714.097656 -9364.039062 -3384.300537 -0.717124 0.076907 0.692648
-9855.081055 -9506.841797 -3328.929443 -0.320261 0.707694 0.629719
-9699.449219 -9321.967773 -3266.460449 -0.829157 -0.453383 0.326914
-9728.211914 -9268.056641 -3289.964600 -0.771447 -0.549516 0.320719
-9645.382812 -9422.000000 -3289.572998 -0.779534 0.175878 0.601123
-9677.074219 -9388.610352 -3351.483154 -0.601611 0.360118 0.712973
-9754.572266 -9326.349609 -3415.899170 -0.723991 -0.136479 0.676138
-9769.688477 -9240.622070 -3314.540283 -0.377300 -0.901578 0.211585
-9815.950195 -9704.272461 -2128.655518 0.691427 0.360973 -0.625751
-9895.401367 -9682.439453 -2196.943115 0.695334 0.368969 -0.616688
-9881.007812 -9575.448242 -2116.086182 0.718680 0.359478 -0.595141
-9851.625977 -9835.505859 -2257.686523 0.364483 0.870968 -0.329417
-9812.725586 -9358.631836 -3437.046631 -0.300424 0.453658 0.838984
-9900.824219 -9439.287109 -3416.057617 -0.005737 0.408734 0.912595
-9798.083008 -9284.125977 -3464.596680 -0.347148 -0.249306 0.904050
-9897.777344 -9240.034180 -1980.728638 0.470687 -0.795251 -0.382122
-9940.137695 -9242.418945 -3401.915039 0.232093 -0.712577 0.662038
-9819.954102 -9246.954102 -3435.313965 -0.188025 -0.836909 0.513993
-10003.016602 -9546.453125 -2245.877441 0.724815 0.329539 -0.604968
-9938.153320 -9563.663086 -2183.696289 0.716422 0.345225 -0.606220
-9915.297852 -9821.128906 -2306.569092 0.600726 0.609882 -0.516861
-10030.093750 -9734.291016 -2392.470459 0.738762 0.380139 -0.556505
-9998.571289 -9671.507812 -2311.252197 0.728050 0.356945 -0.585192
-10063.844727 -9437.776367 -2265.672607 0.735923 0.331462 -0.590350
-10038.270508 -9355.677734 -2181.098633 0.732902 0.344584 -0.586566
-9931.697266 -9455.891602 -2110.422119 0.726127 0.338237 -0.598590
-9976.656250 -9384.852539 -2126.144775 0.717215 0.332347 -0.612476
-9922.490234 -9539.328125 -3316.283936 -0.221686 0.767083 0.601978
-10006.217773 -9277.211914 -2098.176025 0.766656 0.102695 -0.633747
-10004.629883 -9241.258789 -2104.371338 0.504929 -0.751946 -0.423750
-10175.058594 -9690.547852 -2571.742676 0.786767 0.384960 -0.482437
-10165.243164 -9827.745117 -2702.511475 0.616901 0.727042 -0.301309
-10223.720703 -9774.702148 -2737.424316 0.781823 0.536424 -0.317728
-10182.809570 -9836.761719 -2779.992676 0.411969 0.901425 -0.133000
-10022.010742 -9628.887695 -3215.924316 -0.328318 0.745140 0.580432
-10071.160156 -9609.934570 -3276.322510 -0.305887 0.721061 0.621662
-9976.282227 -9495.451172 -3381.460449 0.040407 0.471236 0.881039
-9999.160156 -9403.856445 -3382.791504 0.314982 0.033601 0.948485
-10109.791992 -9304.714844 -3347.967529 0.337840 -0.035401 0.940519
-10051.375977 -9250.848633 -3366.040771 0.322367 -0.275307 0.905667
-10212.120117 -9837.789062 -3135.914062 0.085330 0.992309 0.089480
-10244.594727 -9825.779297 -3225.886475 0.094028 0.841273 0.532334
-10236.371094 -9826.619141 -3057.712158 0.567431 0.823328 -0.011567
-10282.089844 -9787.717773 -3244.480469 0.521500 0.600940 0.605670
-10108.747070 -9625.761719 -2430.653320 0.761864 0.350322 -0.544755
-10006.245117 -9824.045898 -2427.965332 0.612598 0.653706 -0.444227
-10094.184570 -9241.093750 -2212.637207 0.552080 -0.693869 -0.462294
-10081.812500 -9516.790039 -2327.698730 0.745140 0.323252 -0.583270
-10079.917969 -9834.614258 -2557.245361 0.456679 0.841334 -0.289071
-10130.188477 -9597.522461 -3318.140625 -0.086856 0.423475 0.901700
-10101.501953 -9296.464844 -2228.470215 0.746147 0.243233 -0.619709
-10081.392578 -9752.586914 -2475.608398 0.752037 0.412458 -0.514084
-10087.953125 -9546.420898 -3347.608887 0.130558 0.398724 0.907712
-10236.046875 -9260.159180 -2380.430664 0.778344 -0.224799 -0.586169
-10167.360352 -9237.732422 -2332.845947 -0.193915 -0.979705 0.050600
-10150.926758 -9259.907227 -2269.763184 0.784906 -0.188726 -0.590106
-10168.806641 -9239.731445 -3314.812500 0.187994 -0.789544 0.584124
-10150.963867 -9470.547852 -2391.099609 0.758660 0.327677 -0.563036
-10193.897461 -9334.992188 -2378.309326 0.756767 0.342265 -0.556871
-10195.723633 -9587.053711 -2531.035156 0.777245 0.358013 -0.517350
-10146.380859 -9778.157227 -2594.226318 0.787286 0.458785 -0.411878
-10202.334961 -9492.636719 -2474.134033 0.763298 0.352763 -0.541185
-10249.815430 -9624.820312 -2642.617432 0.803461 0.382672 -0.456038
-10299.910156 -9695.210938 -2812.573975 0.806299 0.482772 -0.341685
-10237.350586 -9824.230469 -2883.751709 0.595538 0.790918 -0.140355
-10289.024414 -9253.602539 -3280.924072 0.336406 -0.263619 0.904050
-10273.667969 -9363.627930 -2496.200195 0.780663 0.329875 -0.530747
-10275.482422 -9502.269531 -2595.925049 0.799829 0.351909 -0.486160
-10309.732422 -9241.870117 -2511.326904 0.591876 -0.721183 -0.359905
-10344.750977 -9281.935547 -2556.961182 0.841121 0.118198 -0.527696
-10434.401367 -9249.139648 -2700.991699 0.779656 -0.455947 -0.429182
-10477.735352 -9299.023438 -2793.228760 0.864986 0.246071 -0.437300
-10294.945312 -9592.340820 -3272.245117 0.333048 0.064882 0.940672
-10284.819336 -9774.545898 -2954.664307 0.771264 0.629231 -0.095706
-10342.156250 -9719.547852 -3051.342773 0.746818 0.664388 -0.028077
-10311.125000 -9744.400391 -3082.232910 0.718863 0.691580 0.070284
-10325.111328 -9715.943359 -3249.267334 0.642323 0.423536 0.638752
-10601.029297 -9279.274414 -3173.259766 0.826594 -0.006958 0.562731
-10588.419922 -9239.749023 -3166.959961 0.516617 -0.735771 0.437819
-10608.446289 -9256.748047 -3070.961914 0.913297 -0.367412 -0.175634
-10344.388672 -9409.331055 -2642.986328 0.809442 0.352886 -0.469283
-10306.675781 -9559.119141 -2692.311523 0.810633 0.376629 -0.448317
-10367.728516 -9624.356445 -2872.553467 0.825831 0.466964 -0.316111
-10382.574219 -9645.303711 -2969.106201 0.816858 0.538316 -0.207160
-10436.862305 -9540.091797 -2952.700195 0.850368 0.436628 -0.293558
-10539.105469 -9255.184570 -2904.784912 0.866298 -0.331767 -0.373394
-10566.602539 -9293.721680 -2992.962158 0.862545 0.340312 -0.374340
-10556.923828 -9417.637695 -3128.157959 0.826899 0.561724 -0.026032
-10387.615234 -9238.350586 -2656.096924 0.048494 -0.997681 -0.047578
-10394.096680 -9543.124023 -3238.727051 0.388928 0.114566 0.914090
-10496.314453 -9505.909180 -3204.887695 0.642659 0.285379 0.710990
-10485.061523 -9294.166992 -3216.540283 0.311930 -0.056001 0.948424
-10556.261719 -9410.336914 -3174.706299 0.816736 0.298379 0.493820
-10389.650391 -9652.029297 -3225.205078 0.671133 0.448775 0.590045
-10395.977539 -9415.133789 -2741.897461 0.829249 0.345256 -0.439436
-10394.544922 -9466.906250 -2764.938965 0.867977 0.274758 -0.413587
-10430.547852 -9619.399414 -3193.847656 0.745567 0.537370 0.394147
-10415.458984 -9628.503906 -3062.503418 0.806940 0.572436 -0.145329
-10490.944336 -9548.681641 -3158.184814 0.853694 0.518052 0.052644
-10500.303711 -9420.281250 -2957.592529 0.884335 0.360729 -0.296243
-10502.600586 -9470.821289 -3047.431641 0.864589 0.437727 -0.246651
3 0 1 2
3 2 1 3
3 4 5 6
3 7 6 8
3 9 10 11
3 12 13 14
3 15 16 17
3 17 16 18
3 19 18 20
3 21 22 23
3 24 25 26
3 24 26 27
3 1 28 29
3 0 28 1
3 1 29 30
3 24 29 31
3 32 33 34
3 35 34 36
3 37 38 39
3 40 30 41
3 31 42 32
3 40 41 43
3 29 24 27
3 44 45 46
3 30 29 27
3 31 29 42
3 39 38 47
3 39 47 48
3 49 50 51
3 51 52 53
3 53 52 54
3 54 52 55
3 43 41 44
3 41 30 44
3 44 56 45
3 44 30 27
3 29 57 42
3 42 57 32
3 32 57 58
3 32 58 33
3 44 27 56
3 59 25 34
3 59 34 35
3 59 35 60
3 61 39 62
3 63 43 64
3 65 43 46
3 66 67 68
3 67 69 68
3 70 71 72
3 73 74 75
3 73 75 76
3 77 78 20
3 28 79 29
3 29 79 57
3 56 27 80
3 80 27 26
3 80 81 56
3 31 25 24
3 26 59 82
3 82 59 60
3 82 60 83
3 80 26 82
3 28 71 79
3 25 59 26
3 31 32 25
3 25 32 34
3 80 84 81
3 80 82 84
3 28 0 85
3 85 0 2
3 3 40 63
3 79 86 57
3 65 46 66
3 1 30 3
3 81 84 87
3 53 79 88
3 36 34 89
3 82 61 84
3 57 86 58
3 33 55 89
3 61 82 83
3 35 36 60
3 60 37 83
3 83 37 39
3 79 71 88
3 30 40 3
3 45 56 81
3 79 53 86
3 86 53 58
3 33 89 34
3 33 58 55
3 37 90 38
3 71 28 85
3 91 64 92
3 93 91 94
3 95 96 97
3 95 97 98
3 81 87 99
3 99 87 100
3 38 90 47
3 47 101 48
3 53 54 58
3 58 54 55
3 102 101 103
3 37 60 36
3 84 61 87
3 87 61 104
3 39 48 62
3 85 2 105
3 53 88 95
3 55 52 106
3 61 83 39
3 106 52 50
3 55 106 89
3 89 106 90
3 47 90 101
3 36 89 37
3 89 90 37
3 50 107 90
3 93 3 91
3 40 43 63
3 81 99 45
3 53 95 51
3 48 101 102
3 108 100 104
3 108 104 4
3 45 99 109
3 45 109 46
3 50 52 51
3 106 50 90
3 50 49 110
3 107 50 110
3 71 70 88
3 2 3 105
3 44 46 43
3 72 71 85
3 72 85 105
3 104 61 62
3 51 95 111
3 91 63 64
3 66 46 109
3 112 66 68
3 112 68 113
3 113 114 98
3 115 116 117
3 118 117 119
3 49 51 111
3 107 101 90
3 49 111 110
3 120 107 121
3 70 72 105
3 110 122 121
3 105 3 93
3 3 63 91
3 64 43 65
3 87 104 100
3 107 123 101
3 48 102 5
3 6 124 125
3 125 126 127
3 62 48 5
3 111 122 110
3 101 123 103
3 125 128 126
3 105 93 70
3 62 5 4
3 102 129 124
3 103 123 129
3 103 129 102
3 95 73 111
3 64 65 92
3 4 104 62
3 111 73 130
3 5 102 124
3 122 111 130
3 121 107 110
3 131 112 96
3 109 99 132
3 100 108 133
3 5 124 6
3 122 134 121
3 92 65 112
3 91 131 94
3 66 109 67
3 109 132 67
3 132 99 133
3 129 128 124
3 129 123 120
3 122 130 134
3 65 66 112
3 99 100 133
3 133 108 135
3 136 137 138
3 124 128 125
3 134 130 139
3 88 70 140
3 140 70 93
3 140 93 94
3 92 112 131
3 92 131 91
3 67 135 69
3 128 141 126
3 130 73 139
3 107 120 123
3 142 108 143
3 4 6 7
3 121 134 144
3 144 134 145
3 145 134 139
3 120 121 144
3 145 139 146
3 129 120 141
3 88 140 95
3 96 112 113
3 132 133 135
3 132 135 67
3 6 125 8
3 128 129 141
3 139 73 146
3 94 131 96
3 126 141 147
3 135 108 142
3 144 145 148
3 95 140 94
3 149 135 142
3 143 108 4
3 150 141 144
3 141 120 144
3 150 144 151
3 152 153 154
3 155 73 156
3 148 145 157
3 73 95 98
3 95 94 96
3 158 69 135
3 125 127 159
3 125 159 8
3 160 127 147
3 145 146 157
3 135 161 158
3 127 126 147
3 157 146 73
3 147 141 150
3 150 162 147
3 144 148 151
3 135 149 161
3 143 163 164
3 165 151 152
3 151 148 157
3 97 96 113
3 113 68 114
3 163 143 4
3 166 167 168
3 127 160 169
3 127 169 166
3 127 166 159
3 150 151 165
3 98 97 113
3 73 98 170
3 161 149 137
3 164 171 172
3 4 7 173
3 7 8 159
3 157 73 174
3 167 169 175
3 176 177 175
3 160 147 178
3 178 147 162
3 150 165 162
3 179 178 180
3 179 180 181
3 181 182 183
3 184 185 186
3 186 185 187
3 188 189 190
3 170 98 114
3 137 142 164
3 143 164 142
3 4 191 163
3 166 168 159
3 178 169 160
3 151 174 153
3 157 174 151
3 162 165 192
3 178 192 180
3 114 68 193
3 193 69 158
3 193 158 194
3 193 68 69
3 149 142 137
3 173 191 4
3 165 152 192
3 7 159 168
3 169 167 166
3 153 174 73
3 169 179 195
3 151 153 152
3 178 162 192
3 158 161 194
3 194 161 136
3 171 163 191
3 178 179 169
3 196 197 198
3 198 199 200
3 200 201 202
3 184 203 201
3 201 200 199
3 204 205 206
3 192 152 207
3 192 207 180
3 181 180 208
3 209 210 182
3 114 193 170
3 73 170 211
3 180 212 213
3 161 137 136
3 119 137 172
3 164 163 171
3 214 173 215
3 215 173 7
3 169 195 175
3 195 181 183
3 195 179 181
3 193 194 211
3 172 171 118
3 137 164 172
3 171 191 214
3 214 191 173
3 168 167 177
3 168 177 9
3 175 177 167
3 153 155 154
3 152 154 216
3 152 216 207
3 207 216 212
3 217 216 154
3 212 180 207
3 181 208 182
3 208 180 213
3 212 216 218
3 193 211 170
3 211 194 136
3 155 153 73
3 175 195 176
3 195 183 176
3 208 219 182
3 215 7 220
3 208 213 219
3 209 219 213
3 221 211 136
3 221 136 117
3 117 136 138
3 117 138 119
3 138 137 119
3 171 214 222
3 220 7 223
3 224 225 210
3 221 117 116
3 177 176 9
3 154 155 217
3 217 155 156
3 182 210 183
3 209 182 219
3 211 116 73
3 119 172 118
3 214 215 226
3 227 220 223
3 9 176 10
3 217 156 218
3 228 176 210
3 210 176 183
3 229 222 226
3 7 168 9
3 218 216 217
3 212 230 213
3 209 213 185
3 210 209 231
3 232 205 204
3 233 234 235
3 233 232 234
3 197 199 198
3 221 116 211
3 229 118 171
3 171 222 229
3 226 222 214
3 236 220 227
3 230 212 218
3 213 230 185
3 235 234 197
3 233 205 232
3 232 199 234
3 234 199 197
3 176 228 10
3 218 237 230
3 228 210 225
3 209 185 231
3 233 235 205
3 232 201 199
3 118 115 117
3 116 115 238
3 73 116 238
3 215 220 236
3 239 240 223
3 239 223 7
3 235 197 196
3 187 185 237
3 232 204 201
3 226 215 236
3 218 241 237
3 241 187 237
3 230 237 185
3 206 210 231
3 185 184 231
3 224 196 242
3 206 224 210
3 198 200 243
3 229 244 245
3 115 118 229
3 244 229 226
3 240 246 247
3 239 7 248
3 228 225 242
3 156 241 218
3 225 224 242
3 206 231 204
3 224 235 196
3 231 184 204
3 201 204 184
3 243 200 202
3 249 239 248
3 246 249 250
3 186 187 251
3 235 224 205
3 184 186 203
3 10 198 252
3 115 229 238
3 238 229 245
3 10 228 242
3 156 73 253
3 254 241 253
3 206 205 224
3 243 202 252
3 252 202 255
3 252 255 256
3 256 255 257
3 258 257 259
3 260 259 261
3 226 236 244
3 246 239 249
3 246 240 239
3 241 156 253
3 196 198 10
3 201 203 202
3 202 203 255
3 258 256 257
3 262 244 236
3 73 238 263
3 245 244 262
3 236 227 262
3 262 227 264
3 227 223 240
3 227 240 247
3 241 254 187
3 251 254 265
3 265 254 266
3 198 243 252
3 267 245 262
3 247 246 268
3 248 7 9
3 203 186 269
3 270 271 272
3 187 254 251
3 242 196 10
3 252 256 10
3 238 245 263
3 273 258 260
3 274 275 276
3 263 277 73
3 278 247 268
3 250 249 248
3 279 248 9
3 253 73 280
3 253 280 254
3 186 251 269
3 203 269 255
3 245 267 263
3 262 264 267
3 264 227 247
3 264 247 278
3 268 246 270
3 270 246 250
3 73 277 74
3 279 250 248
3 251 281 269
3 282 264 278
3 282 278 283
3 254 280 266
3 277 284 74
3 285 279 9
3 250 286 270
3 270 286 271
3 251 265 281
3 257 269 259
3 255 269 257
3 10 256 287
3 287 258 273
3 277 263 267
3 264 288 267
3 278 268 270
3 250 279 285
3 280 73 289
3 269 281 259
3 290 291 281
3 277 267 288
3 288 264 282
3 292 293 294
3 285 295 296
3 296 271 286
3 271 297 272
3 289 266 280
3 290 265 266
3 265 290 281
3 256 258 287
3 288 282 283
3 286 250 285
3 285 9 11
3 290 266 188
3 283 278 270
3 285 11 295
3 289 73 189
3 289 189 266
3 258 259 260
3 284 277 288
3 283 270 272
3 266 189 188
3 260 261 298
3 287 273 274
3 274 273 299
3 299 273 298
3 273 260 298
3 300 11 10
3 281 291 259
3 283 284 288
3 272 292 284
3 286 285 296
3 11 301 295
3 296 302 303
3 304 297 305
3 304 305 306
3 188 307 308
3 283 272 284
3 301 11 300
3 259 291 261
3 261 291 309
3 297 271 296
3 295 302 296
3 301 302 295
3 261 309 298
3 284 294 74
3 284 292 294
3 272 297 292
3 292 297 293
3 310 311 312
3 298 309 299
3 287 274 276
3 287 276 10
3 74 294 75
3 293 297 304
3 307 189 73
3 190 189 307
3 188 313 290
3 290 313 291
3 314 291 313
3 276 315 312
3 301 300 316
3 301 316 302
3 300 10 317
3 299 309 318
3 299 318 275
3 297 296 303
3 297 303 305
3 188 190 307
3 319 320 294
3 294 320 75
3 321 322 323
3 313 188 308
3 275 318 324
3 324 310 315
3 314 318 309
3 293 319 294
3 293 304 319
3 300 317 316
3 309 291 314
3 318 314 324
3 299 275 274
3 303 302 305
3 305 302 325
3 325 326 306
3 325 306 305
3 313 308 327
3 324 314 328
3 329 330 331
3 304 306 319
3 319 306 321
3 275 315 276
3 325 302 332
3 302 316 332
3 333 316 317
3 334 335 336
3 336 337 334
3 308 307 331
3 314 313 328
3 76 75 320
3 321 306 322
3 317 10 338
3 313 339 328
3 328 339 340
3 76 320 323
3 320 319 321
3 332 316 333
3 308 331 327
3 313 327 339
3 275 324 315
3 320 321 323
3 326 322 306
3 73 76 341
3 326 325 332
3 317 338 333
3 307 73 331
3 312 315 310
3 326 334 322
3 10 276 312
3 334 326 335
3 326 332 335
3 310 324 342
3 339 327 343
3 324 328 342
3 343 344 345
3 346 347 348
3 346 348 349
3 327 330 343
3 345 344 347
3 339 343 340
3 328 340 342
3 350 351 352
3 353 354 355
3 76 323 341
3 335 332 333
3 333 356 335
3 331 330 327
3 340 343 345
3 323 322 357
3 357 322 334
3 358 333 338
3 338 10 358
3 329 331 359
3 345 347 360
3 340 345 342
3 343 330 348
3 342 345 360
3 356 333 358
3 10 312 311
3 343 348 344
3 349 329 361
3 341 323 357
3 311 310 362
3 363 364 365
3 342 364 310
3 342 360 364
3 357 366 73
3 364 362 310
3 344 348 347
3 357 334 337
3 358 367 356
3 368 73 369
3 369 73 366
3 369 366 337
3 358 10 370
3 371 353 372
3 371 372 373
3 371 373 10
3 330 329 348
3 360 347 350
3 374 375 376
3 350 347 377
3 377 347 346
3 341 357 73
3 366 357 337
3 378 337 336
3 379 362 363
3 348 329 349
3 356 336 335
3 367 358 370
3 329 359 361
3 346 349 380
3 336 356 378
3 10 311 362
3 363 362 364
3 377 380 381
3 346 380 377
3 337 382 383
3 337 383 369
3 364 360 365
3 361 359 384
3 360 350 352
3 360 352 365
3 349 361 380
3 380 361 384
3 380 384 375
3 375 384 376
3 382 337 378
3 385 382 378
3 386 356 367
3 362 379 10
3 365 387 379
3 377 381 350
3 380 375 381
3 386 378 356
3 367 388 386
3 370 388 367
3 370 10 389
3 363 365 379
3 379 371 10
3 381 375 374
3 350 381 351
3 382 385 390
3 388 370 389
3 376 384 391
3 391 392 376
3 393 394 374
3 351 381 394
3 351 394 352
3 395 383 382
3 385 378 386
3 396 390 397
3 381 374 394
3 368 369 398
3 399 368 398
3 368 399 73
3 390 385 386
3 400 401 386
3 400 386 388
3 402 397 390
3 371 379 387
3 387 365 352
3 403 404 393
3 376 392 374
3 398 369 383
3 382 405 395
3 406 398 395
3 395 405 407
3 395 407 408
3 409 401 400
3 390 401 402
3 388 389 400
3 384 359 391
3 352 394 404
3 393 410 411
3 399 331 73
3 382 390 405
3 387 353 371
3 387 352 353
3 353 352 404
3 392 391 412
3 394 393 404
3 392 412 374
3 410 412 413
3 374 412 414
3 414 393 374
3 412 415 414
3 415 412 410
3 393 414 410
3 383 395 398
3 390 396 405
3 390 386 401
3 400 389 10
3 416 413 417
3 414 415 410
3 399 398 406
3 405 396 397
3 404 403 354
3 391 413 412
3 399 406 331
3 418 419 420
3 421 400 10
3 417 391 359
3 391 417 413
3 416 410 413
3 402 401 418
3 400 421 409
3 404 354 353
3 411 422 423
3 417 424 416
3 410 416 422
3 416 424 422
3 408 406 395
3 406 425 331
3 401 409 418
3 353 355 372
3 411 403 393
3 417 359 426
3 411 410 422
3 423 422 424
3 424 427 426
3 417 427 424
3 425 406 408
3 405 397 407
3 402 420 397
3 372 355 373
3 427 417 426
3 420 402 418
3 428 429 419
3 409 419 418
3 430 431 432
3 433 434 435
3 435 434 436
3 373 355 12
3 435 407 397
3 397 420 435
3 419 421 430
3 421 419 409
3 12 355 354
3 403 411 437
3 425 408 438
3 407 435 436
3 420 419 429
3 403 13 354
3 424 426 423
3 425 438 439
3 331 425 439
3 435 420 429
3 435 429 428
3 432 428 419
3 419 430 432
3 440 441 442
3 373 443 10
3 430 421 10
3 12 14 373
3 13 12 354
3 403 444 13
3 13 444 16
3 437 445 444
3 437 411 446
3 446 411 423
3 447 423 426
3 448 447 449
3 436 438 407
3 407 438 408
3 450 15 451
3 452 451 453
3 444 403 437
3 437 446 445
3 432 431 454
3 430 455 431
3 10 455 430
3 447 426 449
3 423 447 446
3 439 456 331
3 331 456 359
3 435 428 433
3 457 432 454
3 455 10 458
3 16 445 459
3 16 459 18
3 456 439 438
3 456 438 460
3 460 434 433
3 438 436 434
3 434 460 438
3 428 432 457
3 461 455 458
3 18 459 20
3 462 445 446
3 463 464 465
3 433 428 457
3 431 455 461
3 373 14 443
3 444 445 16
3 447 462 446
3 461 454 431
3 458 10 443
3 451 17 19
3 451 19 453
3 359 466 426
3 426 466 449
3 445 462 459
3 447 448 462
3 465 456 460
3 456 464 359
3 433 457 467
3 454 461 440
3 15 13 16
3 13 15 14
3 465 467 468
3 456 465 464
3 457 454 467
3 454 469 467
3 461 458 470
3 14 15 450
3 449 466 448
3 460 467 465
3 433 467 460
3 440 461 470
3 440 470 441
3 441 458 443
3 470 458 441
3 465 468 463
3 468 467 471
3 467 469 471
3 454 440 469
3 469 440 472
3 442 443 473
3 474 443 450
3 15 17 451
3 462 20 459
3 466 475 77
3 466 77 448
3 77 20 448
3 448 20 462
3 442 441 443
3 450 443 14
3 476 468 471
3 477 469 472
3 478 479 480
3 480 479 481
3 474 450 452
3 482 20 78
3 482 19 20
3 18 19 17
3 464 463 478
3 478 463 479
3 463 468 476
3 464 478 359
3 476 471 477
3 477 471 469
3 440 442 472
3 473 443 474
3 483 452 484
3 483 474 452
3 452 485 484
3 485 453 486
3 487 488 489
3 77 475 78
3 485 452 453
3 452 450 451
3 490 476 477
3 463 476 479
3 491 477 472
3 491 472 473
3 492 493 494
3 491 473 492
3 483 484 493
3 495 496 489
3 489 496 497
3 19 486 453
3 359 478 498
3 472 442 473
3 473 474 492
3 492 474 483
3 359 21 466
3 466 21 475
3 499 23 22
3 500 22 501
3 500 501 502
3 499 482 78
3 499 78 23
3 499 22 500
3 475 23 78
3 485 486 484
3 503 484 486
3 19 482 486
3 486 482 503
3 479 476 490
3 498 478 480
3 490 477 504
3 477 491 504
3 491 505 504
3 505 491 492
3 483 493 492
3 506 503 499
3 506 499 500
3 475 21 23
3 506 484 503
3 482 499 503
3 479 490 481
3 493 507 494
3 493 484 507
3 507 484 506
3 490 504 481
3 504 505 494
3 494 505 492
3 501 487 502
3 507 506 508
3 498 480 359
3 359 480 495
3 481 504 494
3 494 509 481
3 508 494 507
3 21 501 22
3 509 494 510
3 359 488 21
3 501 21 487
3 510 494 508
3 508 506 500
3 508 502 510
3 495 480 481
3 21 488 487
3 481 509 495
3 495 509 510
3 510 502 497
3 502 508 500
3 496 495 510
3 510 497 496
3 359 495 489
3 489 497 502
3 359 489 488
3 502 487 489
