ply
format ascii 1.0
comment Created by Blender 2.80 (sub 75) - www.blender.org, source file: 'color_and_decimate.blend'
element vertex 360
property float x
property float y
property float z
property float nx
property float ny
property float nz
element face 716
property list uchar uint vertex_indices
end_header
-6182.054199 -10135.229492 -1172.805664 0.070376 0.520035 -0.851222
-6011.495117 -10209.595703 -1252.607178 -0.143345 0.878567 -0.455519
-6324.375000 -10214.987305 -1254.275024 0.010743 0.197546 -0.980224
-6075.933594 -10220.589844 -1302.601196 -0.349498 0.733909 -0.582385
-6150.434570 -10285.557617 -1278.723511 -0.269936 -0.515732 -0.813074
-6242.083496 -10238.455078 -1285.976318 -0.213172 0.048708 -0.975768
-6427.797852 -10283.053711 -1179.880249 -0.091983 -0.606433 -0.789788
-6346.248535 -10256.305664 -1240.069214 -0.126286 -0.599963 -0.789972
-6330.530273 -10333.731445 -1167.859863 -0.198706 -0.489883 -0.848811
-6448.856445 -10348.709961 -1153.681152 -0.005432 -0.450514 -0.892727
-5881.536621 -10206.326172 -1326.103516 -0.694205 0.719718 -0.005707
-5865.849609 -9971.921875 -1286.568848 -0.977996 -0.070040 0.196356
-5888.686035 -10005.204102 -1358.668091 -0.961058 -0.030122 0.274667
-5926.193359 -10235.916016 -1598.689941 -0.924680 0.150243 0.349773
-5933.140137 -10180.837891 -1515.505005 -0.974181 -0.112430 0.195685
-5949.510254 -10169.191406 -1587.119873 -0.959410 -0.163549 0.229713
-5987.246094 -10349.993164 -1510.379639 -0.987182 0.003479 0.159520
-5957.523926 -10388.782227 -1508.229736 -0.897519 -0.431318 0.091403
-5953.504883 -10387.995117 -1355.406982 -0.891049 -0.438856 -0.115604
-5946.522949 -10432.356445 -1509.580200 -0.803064 0.589312 0.088076
-5946.988770 -10434.451172 -1345.793823 -0.781396 0.615314 -0.103580
-6140.051270 -10415.013672 -1172.960571 -0.237892 0.137577 -0.961486
-6249.689453 -10436.205078 -1169.346680 -0.103488 0.720176 -0.685995
-5845.093750 -9898.182617 -1187.376709 -0.978423 -0.103763 -0.178533
-5882.221191 -9842.088867 -1288.529785 -0.672994 -0.726493 0.138676
-5859.575195 -9976.686523 -1180.546143 -0.863002 0.164129 -0.477767
-5900.296875 -9838.553711 -1131.731323 -0.526688 -0.656301 -0.540208
-5942.254395 -9869.901367 -1104.444946 -0.390118 -0.029450 -0.920286
-5981.299805 -10005.470703 -1125.757690 -0.258431 0.307382 -0.915799
-5993.313477 -10345.204102 -1350.376831 -0.821833 -0.393170 -0.412244
-5911.156738 -10273.056641 -1495.819702 -0.942991 0.331980 0.023377
-5864.151367 -10167.409180 -1300.510498 -0.960784 0.269662 0.064547
-5894.695801 -10160.630859 -1239.400024 -0.526322 0.570177 -0.630726
-6042.228516 -10134.205078 -1172.231812 -0.124393 0.569659 -0.812372
-6063.059570 -10293.164062 -1720.587280 -0.796289 -0.174139 0.579272
-6154.107422 -10280.303711 -1864.327271 -0.658742 -0.653249 0.373180
-6130.397461 -10339.354492 -1904.339966 -0.708335 -0.618183 0.340678
-6070.659668 -10250.140625 -1747.729370 -0.604724 0.607410 0.515091
-6212.106934 -10252.160156 -1910.198730 -0.762108 0.228370 0.605792
-5940.027832 -10086.522461 -1176.384888 -0.364818 0.434492 -0.823450
-5949.235352 -10252.162109 -1416.490234 -0.763939 0.170202 -0.622395
-6059.755859 -10253.231445 -1314.257324 -0.554552 -0.133396 -0.821375
-6037.039551 -10330.333984 -1295.200439 -0.548814 -0.630146 -0.549272
-6123.689941 -10346.154297 -1223.609497 -0.284402 -0.643025 -0.711051
-5908.035645 -9850.445312 -1400.053467 -0.926420 -0.283853 0.247291
-5912.636719 -10070.839844 -1457.741333 -0.957457 -0.002503 0.288491
-6059.657715 -9968.591797 -1106.202271 -0.094119 0.323740 -0.941435
-6072.933105 -10046.649414 -1134.433350 -0.025239 0.373119 -0.927427
-5970.952637 -10222.660156 -1693.469482 -0.802301 0.471023 0.366588
-5935.053223 -9909.390625 -1513.565063 -0.957060 -0.064821 0.282510
-5957.341309 -9984.267578 -1600.902222 -0.968078 -0.033753 0.248360
-5970.462891 -10025.494141 -1659.623169 -0.969024 -0.028565 0.245247
-5913.107422 -10209.510742 -1432.967896 -0.942320 0.330332 -0.053591
-6881.062988 -9837.506836 -1441.661743 0.050050 -0.997711 -0.045381
-5985.892578 -10386.302734 -1231.762207 -0.626087 -0.453017 -0.634632
-5971.163086 -10435.245117 -1238.762207 -0.670888 0.555620 -0.491073
-5955.748047 -9844.579102 -1559.243530 -0.653066 -0.735771 0.179174
-5991.190918 -10298.587891 -1608.834106 -0.822687 0.447951 0.349956
-7614.104004 -10437.488281 -2807.652832 0.315744 0.929868 0.188665
-6017.613281 -10329.362305 -1696.577881 -0.897885 -0.095645 0.429640
-6407.960938 -9839.350586 -1119.367798 0.129032 -0.851283 -0.508560
-6015.542480 -10354.994141 -1667.203003 -0.920621 -0.297433 0.252907
-5971.781250 -10398.287109 -1665.690430 -0.927061 -0.321085 0.193457
-6976.676270 -9918.094727 -2962.509033 -0.640217 -0.107212 0.760643
-7023.639648 -9875.727539 -2936.948242 -0.554765 -0.521683 0.648091
-7093.181641 -9893.659180 -3037.793945 -0.561388 -0.598682 0.571276
-7165.538574 -9886.602539 -3122.091553 -0.517808 -0.632069 0.576464
-7283.551270 -9847.414062 -3164.253906 -0.073611 -0.781121 0.619983
-7134.022949 -9978.356445 -3156.348877 -0.564440 -0.314615 0.763115
-7270.397949 -9939.200195 -3212.137939 -0.169958 -0.290414 0.941649
-7190.887695 -10061.635742 -3204.468994 -0.305063 -0.051210 0.950926
-7341.172852 -10097.368164 -3211.196777 0.308878 0.164342 0.936766
-7295.147949 -10226.719727 -3166.949463 0.068300 0.337230 0.938932
-7381.889160 -10153.318359 -3161.739746 0.062471 0.119114 0.990905
-7432.187500 -10216.281250 -3174.477783 -0.062990 0.260201 0.963469
-7615.114258 -10347.547852 -2993.369629 0.538713 0.679434 0.498123
-7466.587891 -10432.762695 -3004.593506 0.236000 0.887783 0.395062
-7622.472168 -10189.249023 -3146.842041 0.445753 0.525773 0.724448
-7457.721680 -10271.440430 -3149.507568 0.157018 0.501541 0.850734
-7529.451172 -10160.314453 -3190.163330 0.153172 0.385083 0.910062
-7630.811035 -10087.047852 -3199.752930 0.315653 0.356273 0.879421
-5977.812988 -10433.156250 -1679.933838 -0.685049 0.710501 0.160772
-5980.435547 -9850.968750 -1668.968262 -0.934599 -0.271737 0.229377
-5994.882324 -9897.092773 -1748.298950 -0.959655 -0.084964 0.267953
-5997.587402 -10066.979492 -1759.029785 -0.966247 -0.030396 0.255684
-6065.912109 -10156.263672 -1987.505249 -0.750084 0.574511 0.327525
-6042.238770 -10164.865234 -1936.905151 -0.796960 0.475967 0.371807
-6047.673828 -10007.313477 -1942.619873 -0.966033 -0.028108 0.256783
-6044.608887 -9838.625000 -1858.017212 -0.601276 -0.776513 0.188238
-6020.455566 -9965.834961 -1841.899414 -0.953246 -0.063631 0.295358
-6022.504883 -9840.045898 -1808.381836 -0.640248 -0.734397 0.225135
-6004.481445 -10156.862305 -1803.050659 -0.925901 0.176336 0.334025
-6025.245117 -10173.368164 -1862.489990 -0.881771 0.412519 0.228614
-6090.237305 -9861.151367 -1060.084473 -0.088198 -0.355144 -0.930631
-6035.288574 -10418.544922 -1861.732788 -0.918943 0.070620 0.387982
-6057.849121 -10210.613281 -1842.089478 -0.530503 0.786554 0.316019
-6164.121582 -10196.731445 -1980.627563 -0.401502 0.853114 0.333110
-6256.223633 -10214.614258 -2068.235840 -0.434553 0.867306 0.242622
-6415.449707 -10248.042969 -2201.405762 -0.826899 -0.320414 0.462081
-6346.485352 -10316.149414 -2315.090576 -0.520188 -0.822413 0.230201
-6337.559082 -10301.734375 -2212.052734 -0.465773 -0.862178 0.199164
-6197.726074 -10166.835938 -2108.379395 -0.396222 0.909604 0.124882
-6255.095215 -10210.563477 -2218.816406 -0.433454 0.853236 0.289895
-6264.957031 -10279.086914 -1223.414673 -0.198828 -0.690756 -0.695181
-6807.558105 -9839.398438 -1342.339600 0.424024 -0.737938 -0.524949
-6962.871582 -9840.759766 -1496.546875 0.572344 -0.696829 -0.432203
-6122.763184 -10436.941406 -2013.477051 -0.608020 0.765069 0.212012
-6299.765137 -10249.848633 -2028.180542 -0.783258 0.291147 0.549272
-6274.711426 -10277.061523 -2013.952026 -0.622791 -0.662862 0.415540
-6240.604004 -10329.222656 -2143.759033 -0.553148 -0.798425 0.237617
-6158.767578 -10420.843750 -2163.227783 -0.944548 0.029084 0.327036
-6227.577148 -10434.888672 -2321.277100 -0.719382 0.605487 0.340342
-6056.542480 -9850.559570 -1948.832642 -0.889615 -0.409009 0.203162
-6108.075684 -10154.137695 -2146.997559 -0.664876 0.653615 0.361492
-6196.895508 -10159.624023 -2206.805176 -0.541704 0.735527 0.406842
-6074.206543 -9899.014648 -2033.424805 -0.957213 -0.094821 0.273324
-6078.902832 -10145.737305 -2063.008789 -0.923246 0.290628 0.251259
-6132.744629 -10113.784180 -2196.238037 -0.691092 0.227729 0.685903
-6090.579102 -9964.875977 -2108.257080 -0.945585 -0.054048 0.320811
-6112.198730 -10392.878906 -1992.725708 -0.833735 -0.410718 0.368999
-6202.659668 -9953.513672 -1098.852905 0.059725 0.313120 -0.947813
-6237.952148 -9851.469727 -1070.560791 0.091128 -0.485672 -0.869350
-6239.749023 -10012.594727 -1119.091309 0.108554 0.406384 -0.907193
-6119.113281 -9990.862305 -2180.487305 -0.840052 -0.009980 0.542375
-6208.965820 -10312.981445 -2014.303345 -0.563952 -0.773705 0.288614
-6108.370117 -9844.910156 -2111.761719 -0.654195 -0.735893 0.174444
-6271.920898 -10088.518555 -1169.183716 0.203528 0.466536 -0.860744
-6438.880371 -9999.053711 -1168.417725 0.311319 0.443739 -0.840327
-6125.506348 -9840.180664 -2196.088135 -0.647420 -0.644917 0.406049
-6436.710449 -10137.600586 -2447.153809 -0.730155 0.239631 0.639851
-6417.986816 -9994.262695 -2429.392334 -0.732109 0.050478 0.679281
-6482.457520 -9858.358398 -2495.000732 -0.817530 0.015839 0.575610
-6821.303223 -10123.629883 -2825.851562 -0.790307 -0.220710 0.571551
-6831.117676 -10012.425781 -2872.059814 -0.601367 -0.238899 0.762383
-6860.469238 -10077.717773 -2863.990479 -0.716727 -0.053316 0.695273
-6194.952637 -9858.813477 -2253.271729 -0.440443 -0.262429 0.858547
-6270.380371 -9844.797852 -2278.669434 -0.366192 -0.748497 0.552812
-6173.650391 -9949.025391 -2231.990723 -0.560320 0.030885 0.827662
-6575.873047 -10155.873047 -2514.267334 -0.642506 0.472335 0.603351
-6578.461426 -10243.380859 -2555.457520 -0.678671 -0.565813 0.468184
-6513.963867 -10204.803711 -2463.200439 -0.670705 0.443495 0.594501
-6278.666016 -10157.663086 -2286.093994 -0.602374 0.309702 0.735649
-6210.958008 -10384.333984 -2250.504639 -0.752129 -0.576159 0.319834
-6307.946289 -10015.650391 -2319.283691 -0.681692 0.059114 0.729209
-6589.948730 -10279.151367 -1186.133423 0.082247 -0.619007 -0.781030
-6341.706543 -10208.011719 -2301.563477 -0.371654 0.845973 0.382244
-6377.300781 -10048.665039 -2360.134521 -0.685629 0.161229 0.709830
-6288.199707 -10392.402344 -2429.666992 -0.791406 -0.361095 0.493210
-6411.287109 -9869.828125 -1103.961304 0.262246 -0.028626 -0.964568
-6530.232910 -9847.803711 -1147.030029 0.354839 -0.516526 -0.779260
-6400.520020 -10216.953125 -2191.625977 -0.541093 0.697928 0.469100
-6389.788086 -10420.016602 -1108.993652 -0.116459 0.328562 -0.937254
-6390.149414 -10152.179688 -1248.251709 0.322855 0.374645 -0.869106
-6795.195312 -9891.736328 -1321.934570 0.614948 0.176153 -0.768609
-6891.795898 -9888.508789 -1405.867310 0.708426 0.205145 -0.675283
-6844.466309 -10062.567383 -1438.119629 0.411603 -0.665242 -0.622883
-6762.150879 -10034.384766 -1395.081787 0.665609 -0.028230 -0.745720
-6752.018555 -10074.714844 -1364.780884 0.470077 -0.262429 -0.842677
-6905.831543 -10096.129883 -1446.545776 0.287973 -0.646779 -0.706168
-7001.062500 -10141.831055 -1421.183472 0.207434 -0.767479 -0.606555
-6892.128418 -10185.715820 -1336.490723 0.155797 -0.700919 -0.695975
-6788.566895 -10384.084961 -1155.350708 0.136052 -0.380413 -0.914731
-6664.214355 -10381.054688 -1149.031860 0.123814 -0.407208 -0.904874
-6755.309570 -10433.447266 -1142.637817 0.094180 0.620808 -0.778252
-6484.238281 -10223.111328 -2359.893066 -0.802484 0.446333 0.395886
-7835.202637 -9837.544922 -2930.866211 0.683187 -0.722312 0.106998
-6335.112305 -10433.312500 -2485.593262 -0.552629 0.712424 0.432447
-6473.615234 -10202.174805 -1277.438721 0.120182 -0.456374 -0.881588
-6662.785645 -9840.438477 -1234.426758 0.397046 -0.710837 -0.580523
-6427.359375 -9839.500000 -2409.223145 -0.190588 -0.964049 0.185034
-6418.786621 -10173.062500 -2408.583740 -0.663137 0.420667 0.619068
-6416.515625 -10319.113281 -2463.177979 -0.544176 -0.769372 0.334544
-6428.769531 -10434.625000 -2608.468506 -0.571825 0.686239 0.449507
-6412.189453 -10387.458008 -2583.210693 -0.724387 -0.413312 0.551714
-6545.558105 -10396.025391 -2750.051025 -0.744102 -0.222388 0.629933
-6574.000000 -10434.861328 -2768.410645 -0.461165 0.774285 0.433302
-6565.097168 -10088.475586 -2624.372803 -0.648183 0.395123 0.650929
-6597.899902 -9965.971680 -2694.593506 -0.601856 0.199530 0.773247
-6642.068359 -10060.231445 -2688.377197 -0.536760 0.305521 0.786462
-6606.880859 -10346.048828 -2760.924805 -0.671865 -0.621326 0.403119
-6588.356445 -10276.964844 -2646.373779 -0.647694 -0.652791 0.392834
-6699.405762 -10231.778320 -2787.525146 -0.712821 -0.592700 0.374859
-6645.144531 -10177.328125 -2574.762695 -0.738975 0.014954 0.673513
-6716.448242 -10161.764648 -2666.870361 -0.790918 -0.113071 0.601337
-6489.904785 -10246.000000 -2400.152588 -0.660085 -0.673025 0.333598
-6448.577637 -10136.883789 -1282.253296 0.422376 0.245796 -0.872433
-6554.606934 -9881.026367 -1162.520020 0.455641 0.210150 -0.864986
-6535.914551 -10027.364258 -1229.215942 0.414472 0.513169 -0.751549
-6638.356934 -10168.695312 -1311.111328 0.185247 -0.344737 -0.920225
-6511.039551 -10126.086914 -2534.325928 -0.647114 0.528062 0.549821
-6559.103027 -10418.025391 -1117.240112 0.062838 0.117649 -0.991058
-6551.449707 -10094.291016 -1294.206787 0.280343 0.325388 -0.903043
-6510.799805 -9844.903320 -2543.675781 -0.611652 -0.675039 0.412519
-6558.637207 -9853.689453 -2607.633301 -0.822962 0.234107 0.517594
-6606.646973 -10214.020508 -1273.388306 0.058046 -0.709769 -0.701987
-6625.688965 -9876.921875 -2745.406250 -0.639149 0.005249 0.769036
-6660.680176 -9899.444336 -1227.545410 0.541185 0.214515 -0.813044
-6634.929199 -10038.170898 -1305.011841 0.460097 0.308298 -0.832606
-6621.971680 -9839.052734 -2722.001221 -0.505478 -0.767388 0.394391
-6651.121582 -10005.776367 -2678.157227 -0.225929 0.026887 0.973754
-6751.140625 -9976.044922 -2744.798096 -0.591723 -0.042665 0.804987
-6729.099121 -9916.562500 -2788.587646 -0.426740 0.295175 0.854823
-6695.718750 -9848.061523 -2772.576660 -0.235328 -0.627461 0.742210
-6697.796387 -10379.904297 -2916.187012 -0.638234 0.013062 0.769707
-6710.976074 -10435.673828 -2898.052490 -0.369823 0.821192 0.434553
-6782.176758 -10412.954102 -2965.891602 -0.496994 0.397473 0.771355
-6726.616699 -10305.179688 -2913.341797 -0.703269 -0.325510 0.631977
-6711.535156 -10277.205078 -1212.549072 0.160497 -0.621540 -0.766747
-6817.464355 -10135.166016 -1385.025757 0.288705 -0.548235 -0.784875
-6768.772461 -10139.510742 -2727.303223 -0.842891 0.007508 0.538011
-6778.547363 -10179.241211 -1317.746582 0.125248 -0.725272 -0.676931
-6781.639648 -9952.482422 -2776.047852 -0.466323 0.535478 0.704093
-6810.845703 -9848.671875 -2792.392578 -0.419599 0.268685 0.867000
-6905.381348 -9845.278320 -2845.607422 -0.260445 -0.863552 0.431745
-6987.889648 -9839.508789 -2893.187256 -0.294046 -0.881130 0.370281
-6945.081055 -10434.854492 -1200.472168 0.283853 0.707022 -0.647694
-6907.091797 -10435.377930 -3006.922607 -0.182440 0.869411 0.459120
-6985.886230 -10282.404297 -1277.451782 0.317637 -0.546098 -0.775140
-6885.526855 -10382.738281 -1171.766724 0.273812 -0.254311 -0.927519
-7143.826660 -10404.333008 -1296.141724 0.518815 -0.187902 -0.833949
-6878.754395 -10143.905273 -2982.115234 -0.708701 -0.461074 0.533952
-6797.901367 -9958.196289 -1384.239990 0.687979 0.496689 -0.529069
-6837.061523 -10022.748047 -1493.899658 0.585864 -0.254616 -0.769341
-6889.231934 -9977.255859 -1516.968750 0.604877 0.341746 -0.719230
-6794.713379 -10224.552734 -2948.514160 -0.709128 -0.455611 0.538072
-6864.929199 -10255.847656 -3032.329590 -0.597522 -0.157781 0.786157
-6891.828125 -10370.988281 -3044.819580 -0.424635 0.283944 0.859676
-7014.569336 -10175.166992 -1376.160889 0.264809 -0.707083 -0.655629
-7172.637695 -10280.006836 -1383.796021 0.484725 -0.486251 -0.727012
-7118.645020 -10170.472656 -1437.275024 0.368389 -0.628864 -0.684683
-7211.232422 -10156.641602 -1510.181885 0.515519 -0.569872 -0.639882
-7292.029297 -10263.442383 -1489.504028 0.622852 -0.454512 -0.636708
-7286.409668 -10184.883789 -1554.273926 0.590594 -0.538377 -0.601062
-7288.017090 -10047.119141 -1677.356934 0.531327 -0.608234 -0.589618
-7420.586914 -10118.083984 -1749.835449 0.632344 -0.506088 -0.586474
-7419.638672 -10201.396484 -1684.602417 0.668630 -0.437788 -0.601032
-7386.857422 -10315.021484 -1569.695190 0.713157 -0.357372 -0.603015
-6992.194336 -9955.384766 -2937.628418 -0.723258 0.025269 0.690085
-6878.559570 -9925.130859 -2888.884766 -0.585589 0.141758 0.798090
-6951.015137 -10011.098633 -2949.066406 -0.648732 -0.477920 0.592181
-7037.289062 -10427.312500 -3058.007324 -0.072634 0.817560 0.571215
-7297.780273 -10434.142578 -3049.339111 0.021790 0.875423 0.482833
-7423.358398 -10362.360352 -3092.669678 0.200446 0.627613 0.752251
-6967.894531 -10290.841797 -3087.437744 -0.402234 0.065218 0.913175
-7034.233398 -10368.582031 -3095.232666 -0.179571 0.407361 0.895413
-6953.429199 -9995.015625 -1547.997681 0.376476 -0.598987 -0.706687
-6984.330078 -9945.200195 -1611.068359 0.746727 0.056001 -0.662740
-7061.868652 -10022.765625 -1561.420410 0.260201 -0.737999 -0.622578
-7046.461914 -10074.750977 -1512.318726 0.238746 -0.668447 -0.704367
-7062.250488 -10283.706055 -3126.831055 -0.291513 0.228675 0.928800
-7326.425293 -10321.904297 -3127.080566 0.018799 0.500473 0.865535
-6991.419434 -9888.932617 -1528.583496 0.805017 0.285928 -0.519791
-7709.475098 -10435.298828 -2603.810547 0.439863 0.894040 0.084658
-7731.149902 -10357.764648 -2781.759766 0.723716 0.629353 0.283029
-6956.240723 -10071.840820 -3020.072021 -0.708457 -0.432234 0.557878
-7055.533691 -9948.074219 -3038.532715 -0.694021 -0.414624 0.588519
-6979.085938 -10153.807617 -3087.395508 -0.603076 -0.174902 0.778252
-7152.711426 -10271.137695 -3161.016357 -0.148289 0.473006 0.868465
-7136.453613 -10433.395508 -1292.782471 0.370983 0.691824 -0.619465
-7063.843262 -9875.834961 -1662.745728 0.824030 0.020203 -0.566149
-7091.042969 -9962.559570 -1684.385620 0.353282 -0.719993 -0.597278
-7186.511230 -9979.456055 -1680.740234 0.307047 -0.793298 -0.525712
-7045.035156 -10019.971680 -3098.108887 -0.653371 -0.395703 0.645344
-7045.165527 -9842.080078 -1632.255493 0.646382 -0.682730 -0.340617
-7173.246582 -9837.828125 -3019.795166 -0.194525 -0.958068 0.210334
-7070.586914 -10126.594727 -3152.567383 -0.497940 -0.061739 0.864986
-7093.266113 -9839.711914 -1749.819702 0.358318 -0.891079 -0.278420
-7147.821777 -9926.964844 -1756.189209 0.550615 -0.307749 -0.775903
-7082.084961 -9847.882812 -2986.739746 -0.442030 -0.735435 0.513504
-7169.068359 -10080.759766 -1547.072876 0.393933 -0.653493 -0.646321
-7494.059570 -10371.436523 -1660.963623 0.809564 -0.124302 -0.573687
-7152.706055 -10206.141602 -3173.597412 -0.240944 0.203406 0.948973
-7207.898438 -10426.231445 -3051.226318 -0.028291 0.715598 0.697897
-7240.858887 -10150.407227 -3206.897949 -0.055513 0.244911 0.967925
-7252.176270 -9839.857422 -1914.361938 0.241066 -0.930143 -0.276894
-7279.904297 -10395.049805 -1399.118774 0.659902 -0.126225 -0.740623
-7296.424805 -10433.251953 -1422.987793 0.482101 0.734642 -0.477340
-7427.007812 -10417.211914 -1564.645752 0.744011 0.300699 -0.596637
-7551.142578 -9993.128906 -2020.560791 0.751457 -0.488632 -0.443312
-7480.910645 -9995.637695 -1923.201538 0.642811 -0.544237 -0.539018
-7520.744629 -10081.200195 -1903.972900 0.732047 -0.447523 -0.513596
-7255.692871 -9902.148438 -1835.273804 0.441237 -0.682394 -0.582751
-7358.864258 -9839.037109 -3125.425781 -0.023896 -0.913755 0.405499
-7807.920410 -9841.353516 -3085.177979 0.658284 -0.720145 0.219092
-7830.015625 -9919.769531 -3010.369141 0.984375 0.040986 0.171209
-7740.047852 -10158.108398 -3053.886230 0.740898 0.467666 0.481979
-7742.440430 -10245.051758 -2938.447998 0.773370 0.517350 0.366344
-7746.897461 -10379.326172 -2653.083984 0.828791 0.544420 0.129154
-7809.284180 -10245.441406 -2739.309082 0.945341 0.299631 0.128452
-7729.376465 -10144.992188 -2241.553711 0.900571 -0.195074 -0.388440
-7759.389648 -9995.389648 -2389.912109 0.912442 -0.260475 -0.315561
-7710.296875 -9842.803711 -2438.084229 0.570574 -0.772759 -0.277902
-7403.418945 -9987.166992 -3168.120117 -0.015259 -0.018616 0.999695
-7418.457031 -10062.357422 -3160.046875 -0.099185 0.045106 0.994018
-7312.070312 -9982.729492 -1770.708130 0.476424 -0.668081 -0.571520
-7750.889160 -9858.823242 -3201.177490 0.636097 -0.416181 0.649709
-7808.852539 -9892.348633 -3109.384033 0.911039 0.035340 0.410718
-7739.411133 -10042.418945 -3141.847412 0.715049 0.353069 0.603320
-7690.972168 -9990.236328 -3206.780273 0.520554 0.304392 0.797693
-7633.203613 -9979.687500 -3234.282715 0.124882 0.280007 0.951811
-7475.705078 -9999.109375 -3217.842285 -0.340678 0.126347 0.931639
-7488.624023 -10107.667969 -3210.541992 -0.175085 0.131413 0.975738
-7314.927734 -9839.244141 -1986.164429 0.153844 -0.974425 -0.163762
-7462.014648 -9841.965820 -3220.367188 -0.350414 -0.638539 0.685171
-7357.778809 -9883.265625 -3151.650635 0.525529 -0.452742 0.720267
-7343.643555 -9951.540039 -3210.325439 0.371838 -0.252815 0.893185
-7407.025391 -9879.034180 -1976.512939 0.474990 -0.723014 -0.501572
-7427.222168 -10436.927734 -1608.517944 0.222022 0.957091 -0.186071
-7475.068359 -9839.715820 -2098.251465 0.384777 -0.872585 -0.300790
-7565.374023 -9932.043945 -2138.275391 0.747917 -0.476699 -0.461867
-7565.299316 -9840.506836 -2214.102539 0.453688 -0.835414 -0.310190
-7651.352539 -10062.659180 -2149.734375 0.783532 -0.413160 -0.464034
-7632.985352 -9895.900391 -2263.841553 0.768364 -0.476852 -0.426862
-7692.167480 -9996.195312 -2268.992676 0.826197 -0.372814 -0.422315
-7555.777832 -10322.070312 -1771.241333 0.827448 -0.183020 -0.530839
-7502.535156 -10257.524414 -1735.833496 0.707144 -0.372570 -0.600909
-7593.401367 -10204.572266 -1910.001465 0.817591 -0.360729 -0.448714
-7602.409668 -10312.725586 -1855.601440 0.856349 -0.201849 -0.475265
-7608.152344 -10416.026367 -1840.311768 0.840083 0.318705 -0.438887
-7659.838867 -10388.559570 -1952.663086 0.964690 0.126621 -0.230842
-7656.357422 -10433.867188 -2017.986572 0.583148 0.789270 -0.192236
-7672.772949 -9888.314453 -3248.651611 0.384411 0.022828 0.922849
-7540.476074 -9842.921875 -3240.385742 -0.159337 -0.671010 0.724082
-7596.723145 -9892.989258 -3264.525391 -0.265938 0.144658 0.953063
-7520.204590 -10435.619141 -1719.676392 0.584368 0.730430 -0.353496
-7527.900879 -10186.253906 -1812.290039 0.732902 -0.419263 -0.535752
-7648.633301 -9842.679688 -3245.304688 0.157842 -0.749870 0.642445
-7601.933594 -10071.999023 -2043.698608 0.815210 -0.396435 -0.422163
-7573.355957 -10429.268555 -1790.199829 0.660360 0.633992 -0.402387
-7655.975586 -10276.891602 -1979.060547 0.907559 -0.198828 -0.369793
-7637.865723 -9838.334961 -2354.205566 0.352947 -0.903134 -0.244392
-7695.323242 -10341.224609 -2874.254639 0.643757 0.665029 0.378521
-7638.364258 -10161.171875 -2044.425659 0.847346 -0.328013 -0.417554
-7699.269043 -10310.969727 -2074.189941 0.929075 -0.052553 -0.366100
-7741.722656 -10422.295898 -2329.662842 0.690695 0.720786 -0.058107
-7758.913574 -10391.506836 -2497.943604 0.891507 0.452773 0.014100
-7705.300293 -10156.716797 -2161.631104 0.883969 -0.252510 -0.393414
-7706.273438 -10418.944336 -2114.876221 0.841884 0.499283 -0.204657
-7722.565430 -10316.972656 -2161.201904 0.967101 0.020905 -0.253395
-7704.114746 -10433.213867 -2224.646484 0.528062 0.838130 -0.136479
-7765.667969 -9965.735352 -2482.977783 0.923917 -0.229591 -0.306009
-7748.627441 -9842.915039 -2526.601562 0.583605 -0.772485 -0.250313
-7810.065918 -9933.452148 -2602.520508 0.941343 -0.153233 -0.300607
-7836.457031 -10088.355469 -2802.854492 0.975280 0.218238 0.034150
-7837.268066 -10105.687500 -2693.690430 0.959014 0.225257 -0.171789
-7815.537598 -10144.336914 -2655.361572 0.993988 0.076510 -0.078219
-7760.329102 -10368.435547 -2276.208008 0.947142 0.229469 -0.224128
-7761.134277 -10142.442383 -2297.278076 0.943144 -0.129276 -0.306131
-7795.526855 -9842.016602 -2646.076416 0.542375 -0.809381 -0.225135
-7807.856934 -10157.337891 -2876.598877 0.918760 0.334086 0.210273
-7789.577637 -10287.404297 -2527.019531 0.953612 0.270577 -0.131809
-7804.453125 -10063.155273 -2521.889893 0.958556 -0.088961 -0.270638
-7766.458984 -10229.453125 -2383.018311 0.986419 0.038789 -0.159459
-7785.893066 -10220.296875 -2421.358398 0.934996 0.110904 -0.336833
-7812.414551 -10251.523438 -2562.220703 0.952300 0.250862 -0.173589
-7833.925293 -9868.639648 -2702.054199 0.901395 -0.382214 -0.203436
-7831.638184 -10013.201172 -2932.491699 0.970397 0.152318 0.187384
-7806.822266 -10059.126953 -3000.647949 0.904843 0.285501 0.315775
-7857.574219 -9853.721680 -2840.093750 0.810633 -0.583209 -0.051820
-7857.960449 -9969.990234 -2831.588135 0.961455 0.030396 -0.273232
3 0 1 2
3 3 4 5
3 6 7 8
3 6 8 9
3 10 11 12
3 13 14 15
3 16 17 18
3 18 19 20
3 21 22 8
3 23 24 25
3 26 23 27
3 27 23 25
3 27 25 28
3 29 30 16
3 26 24 23
3 31 25 11
3 31 11 10
3 10 32 31
3 33 1 0
3 11 24 12
3 34 35 36
3 37 38 34
3 25 32 39
3 39 32 1
3 40 29 41
3 41 29 42
3 4 42 43
3 32 25 31
3 12 44 45
3 24 11 25
3 46 27 28
3 46 28 47
3 15 48 13
3 24 44 12
3 45 49 14
3 14 50 15
3 15 51 48
3 10 52 1
3 45 44 49
3 14 49 50
3 15 50 51
3 1 52 3
3 12 45 10
3 10 45 52
3 25 39 28
3 26 53 24
3 1 32 10
3 45 14 52
3 30 14 13
3 14 30 52
3 54 55 21
3 44 24 56
3 18 29 16
3 40 52 30
3 30 57 16
3 40 30 29
3 44 56 49
3 18 17 19
3 55 20 58
3 55 22 21
3 36 59 34
3 55 58 22
3 49 56 50
3 20 19 58
3 30 13 57
3 53 26 60
3 54 18 20
3 55 54 20
3 43 42 54
3 24 53 56
3 52 40 3
3 17 61 62
3 63 64 65
3 66 67 68
3 68 67 69
3 70 69 71
3 72 73 74
3 75 76 77
3 77 78 79
3 77 79 80
3 19 17 81
3 51 82 83
3 51 83 84
3 85 86 87
3 88 89 90
3 88 90 53
3 17 62 81
3 84 83 89
3 84 89 91
3 91 89 92
3 56 82 50
3 82 51 50
3 13 48 37
3 26 27 93
3 93 27 46
3 41 3 40
3 56 53 90
3 17 16 61
3 56 90 82
3 57 59 16
3 16 59 61
3 58 19 81
3 57 13 34
3 57 34 59
3 61 36 94
3 92 87 86
3 51 84 48
3 48 84 91
3 2 1 5
3 39 33 28
3 39 1 33
3 54 42 18
3 42 29 18
3 13 37 34
3 82 90 83
3 48 95 37
3 91 95 48
3 38 95 96
3 38 96 97
3 98 99 100
3 61 94 62
3 62 94 81
3 89 88 87
3 83 90 89
3 91 92 95
3 97 101 102
3 28 33 47
3 4 43 103
3 41 42 4
3 53 104 105
3 81 94 106
3 38 97 107
3 107 97 98
3 107 98 108
3 108 100 109
3 110 111 106
3 88 112 87
3 101 113 114
3 87 115 116
3 114 113 117
3 112 115 87
3 116 118 113
3 92 86 95
3 94 119 106
3 36 119 94
3 89 87 92
3 93 46 120
3 26 93 121
3 26 121 60
3 46 122 120
3 33 0 47
3 43 54 21
3 59 36 61
3 58 81 106
3 115 118 116
3 95 86 96
3 96 85 101
3 118 123 113
3 113 123 117
3 87 116 85
3 46 47 122
3 3 41 4
3 36 35 124
3 35 108 124
3 112 88 125
3 96 86 85
3 106 119 110
3 112 125 115
3 85 113 101
3 115 125 118
3 118 125 123
3 85 116 113
3 122 47 126
3 122 126 127
3 38 35 34
3 37 95 38
3 38 107 108
3 88 53 125
3 123 125 128
3 121 93 120
3 47 0 126
3 125 53 128
3 129 130 131
3 132 133 134
3 135 136 137
3 138 139 140
3 137 128 135
3 123 128 137
3 123 137 117
3 1 3 5
3 36 124 119
3 117 137 141
3 141 137 136
3 4 103 5
3 108 35 38
3 124 108 109
3 119 124 109
3 119 109 110
3 114 117 141
3 142 110 109
3 128 53 136
3 142 111 110
3 141 136 143
3 126 0 2
3 144 6 9
3 103 43 21
3 96 101 97
3 101 114 102
3 102 114 145
3 135 128 136
3 114 141 145
3 146 143 130
3 142 147 111
3 121 120 148
3 120 122 148
3 60 148 149
3 97 102 150
3 58 106 111
3 142 109 99
3 142 99 147
3 7 103 8
3 103 7 5
3 5 7 2
3 100 108 98
3 143 131 130
3 60 121 148
3 22 151 8
3 21 8 103
3 126 2 152
3 104 153 154
3 155 156 157
3 155 157 158
3 159 158 160
3 161 162 163
3 150 145 164
3 164 145 140
3 136 53 165
3 111 147 166
3 151 22 163
3 163 22 58
3 109 100 99
3 143 146 141
3 111 166 58
3 7 6 167
3 53 168 104
3 97 150 98
3 150 102 145
3 169 136 165
3 170 146 130
3 170 130 129
3 141 146 170
3 143 136 131
3 99 171 147
3 166 172 58
3 147 171 173
3 172 174 175
3 148 122 127
3 126 152 127
3 176 177 178
3 179 180 181
3 182 183 180
3 184 171 99
3 136 169 131
3 147 173 166
3 9 8 151
3 185 152 167
3 141 170 140
3 166 173 172
3 127 186 148
3 187 152 185
3 185 167 188
3 167 2 7
3 99 98 184
3 145 141 140
3 129 131 189
3 151 163 190
3 9 151 190
3 53 60 168
3 168 60 149
3 152 2 167
3 150 164 98
3 98 164 184
3 187 185 191
3 170 129 140
3 189 131 192
3 129 138 140
3 172 173 174
3 173 180 174
3 149 148 186
3 186 127 187
3 144 9 190
3 152 187 127
3 189 192 176
3 129 189 138
3 171 184 139
3 176 193 177
3 171 139 173
3 173 139 180
3 144 190 162
3 144 167 6
3 185 188 191
3 131 169 192
3 192 169 165
3 192 193 176
3 182 189 176
3 174 180 179
3 188 167 194
3 140 139 164
3 164 139 184
3 194 167 144
3 58 172 175
3 189 182 138
3 193 195 177
3 186 187 196
3 187 191 197
3 139 182 180
3 193 192 198
3 198 192 165
3 193 198 195
3 199 177 195
3 199 195 200
3 162 190 163
3 149 186 168
3 168 186 196
3 191 188 197
3 138 182 139
3 176 178 182
3 178 177 199
3 201 195 202
3 175 174 203
3 175 203 204
3 205 204 203
3 203 174 206
3 162 161 207
3 144 162 207
3 194 144 207
3 196 187 197
3 157 188 208
3 157 197 188
3 183 209 181
3 182 178 183
3 180 183 181
3 198 202 195
3 175 204 58
3 210 160 208
3 196 197 153
3 197 157 156
3 178 199 133
3 174 179 206
3 188 194 210
3 210 194 207
3 153 197 156
3 195 201 200
3 200 201 211
3 202 198 212
3 212 198 213
3 213 198 165
3 213 165 214
3 181 206 179
3 163 58 215
3 200 133 199
3 183 178 209
3 201 202 212
3 75 58 76
3 203 206 205
3 204 216 58
3 217 218 219
3 210 207 161
3 210 161 160
3 196 153 104
3 188 210 208
3 132 134 220
3 178 133 132
3 204 205 216
3 104 168 196
3 221 153 156
3 221 222 223
3 178 132 209
3 209 132 181
3 181 132 224
3 181 224 206
3 206 225 205
3 205 226 216
3 161 218 160
3 218 217 160
3 156 155 222
3 227 228 229
3 230 231 232
3 233 232 234
3 235 234 232
3 236 235 231
3 228 231 230
3 200 211 237
3 237 211 238
3 238 213 63
3 201 212 238
3 238 212 213
3 224 225 206
3 205 225 226
3 161 163 218
3 218 163 215
3 208 160 158
3 221 156 222
3 229 159 227
3 201 238 211
3 134 133 239
3 216 226 240
3 241 242 76
3 226 225 243
3 226 243 244
3 154 153 221
3 158 157 208
3 221 223 154
3 133 200 237
3 132 220 224
3 134 239 220
3 224 220 225
3 226 244 240
3 223 222 245
3 223 245 246
3 245 158 247
3 248 247 158
3 248 158 159
3 237 239 133
3 244 249 250
3 250 72 74
3 218 215 219
3 154 223 251
3 222 155 245
3 104 154 105
3 155 158 245
3 223 246 251
3 252 58 253
3 213 214 64
3 213 64 63
3 254 220 239
3 255 237 63
3 225 220 256
3 225 256 243
3 227 160 217
3 160 227 159
3 220 254 256
3 243 256 249
3 249 257 250
3 219 215 258
3 105 154 251
3 251 246 259
3 260 247 261
3 246 245 260
3 238 63 237
3 254 239 262
3 256 254 262
3 105 251 263
3 105 263 53
3 264 214 165
3 256 265 249
3 249 265 257
3 248 159 229
3 263 259 266
3 246 260 267
3 214 268 64
3 65 64 268
3 264 268 214
3 237 262 239
3 241 250 242
3 256 262 265
3 243 249 244
3 215 58 258
3 248 269 247
3 230 232 269
3 235 236 270
3 263 251 259
3 260 245 247
3 53 263 266
3 53 266 165
3 63 65 255
3 237 255 262
3 255 65 66
3 265 271 257
3 272 244 250
3 228 217 219
3 227 217 228
3 248 229 269
3 259 246 267
3 240 244 272
3 257 72 250
3 265 70 271
3 271 70 273
3 165 266 274
3 240 272 216
3 216 272 241
3 216 241 58
3 262 255 68
3 262 68 70
3 262 70 265
3 257 271 72
3 275 276 277
3 275 277 236
3 219 258 275
3 278 279 280
3 266 259 281
3 266 281 274
3 264 165 282
3 283 165 284
3 285 286 75
3 287 253 288
3 289 290 291
3 65 268 264
3 255 66 68
3 271 273 72
3 258 58 276
3 260 261 267
3 259 267 281
3 65 264 66
3 292 293 71
3 229 228 230
3 269 229 230
3 261 247 269
3 281 267 294
3 66 264 67
3 70 71 273
3 275 258 276
3 228 275 231
3 295 296 297
3 298 80 299
3 299 80 300
3 300 301 293
3 68 69 70
3 228 219 275
3 261 294 267
3 273 71 72
3 269 232 233
3 269 233 261
3 165 274 302
3 67 264 282
3 303 282 165
3 71 293 73
3 261 233 294
3 58 241 76
3 241 272 250
3 304 282 292
3 69 305 71
3 305 292 71
3 294 306 274
3 72 71 73
3 276 58 307
3 232 231 235
3 294 233 234
3 308 309 310
3 309 311 312
3 312 311 313
3 302 274 306
3 302 306 308
3 302 308 165
3 67 305 69
3 231 275 236
3 281 294 274
3 292 282 303
3 292 303 300
3 282 304 67
3 304 305 67
3 305 304 292
3 236 277 270
3 276 307 277
3 294 234 279
3 306 294 279
3 73 301 74
3 74 301 79
3 74 78 250
3 314 315 270
3 270 315 235
3 316 314 317
3 317 318 319
3 319 318 320
3 250 78 242
3 321 295 298
3 321 298 299
3 293 292 300
3 301 300 80
3 322 323 299
3 324 277 307
3 235 315 234
3 306 279 278
3 73 293 301
3 270 277 324
3 307 58 324
3 234 315 325
3 325 280 234
3 280 279 234
3 308 306 278
3 308 310 165
3 303 165 322
3 322 165 326
3 326 165 283
3 326 283 295
3 280 325 316
3 280 316 327
3 79 301 80
3 74 79 78
3 299 323 321
3 270 324 314
3 325 314 316
3 315 314 325
3 308 278 309
3 76 242 77
3 326 295 321
3 300 303 322
3 314 324 328
3 328 58 320
3 316 317 329
3 324 58 328
3 309 278 327
3 165 310 330
3 77 242 78
3 300 322 299
3 314 328 317
3 317 328 318
3 327 278 280
3 322 326 323
3 318 328 320
3 309 327 311
3 310 312 330
3 330 312 313
3 58 331 253
3 323 326 321
3 316 332 327
3 332 329 333
3 316 329 332
3 334 252 335
3 327 332 311
3 311 336 313
3 312 310 309
3 330 291 165
3 331 58 75
3 317 319 329
3 75 77 285
3 329 320 333
3 329 319 320
3 333 337 338
3 332 333 336
3 333 320 337
3 336 333 338
3 332 336 311
3 337 320 339
3 320 58 339
3 291 290 340
3 286 331 75
3 339 58 252
3 330 313 291
3 341 340 342
3 343 344 345
3 291 341 165
3 77 80 297
3 298 297 80
3 338 337 339
3 289 336 338
3 289 338 346
3 289 346 347
3 346 334 335
3 313 336 289
3 291 313 289
3 334 339 252
3 341 348 165
3 252 287 335
3 285 77 297
3 296 283 284
3 338 339 346
3 289 347 290
3 349 288 253
3 340 341 291
3 348 341 342
3 335 287 350
3 253 287 252
3 286 253 331
3 253 286 349
3 351 345 342
3 351 342 340
3 297 298 295
3 347 346 352
3 339 334 346
3 352 353 351
3 351 353 350
3 351 350 354
3 290 347 352
3 290 352 340
3 340 352 351
3 352 346 335
3 353 352 350
3 351 354 345
3 352 335 350
3 348 342 355
3 356 343 349
3 350 287 288
3 297 357 285
3 355 342 345
3 355 345 344
3 343 345 349
3 354 350 288
3 354 288 345
3 349 286 285
3 349 285 357
3 296 295 283
3 345 288 349
3 355 344 343
3 358 343 359
3 348 355 165
3 355 358 165
3 284 357 296
3 356 349 357
3 356 165 359
3 356 359 343
3 284 356 357
3 297 296 357
3 355 343 358
3 284 165 356
3 358 359 165
