ply
format ascii 1.0
comment Created by Blender 2.80 (sub 75) - www.blender.org, source file: 'color_and_decimate.blend'
element vertex 231
property float x
property float y
property float z
property float nx
property float ny
property float nz
element face 458
property list uchar uint vertex_indices
end_header
-5687.743652 -3200.180908 -2122.379395 -0.986084 0.034150 -0.162603
-5696.748535 -3227.816406 -2102.563477 -0.780938 0.599261 -0.176000
-5726.111328 -3236.804688 -2030.656372 -0.635273 0.704489 -0.316324
-5756.324707 -3183.344238 -1976.249512 -0.904019 -0.075838 -0.420637
-5766.188965 -3233.281250 -1970.338989 -0.740196 0.531236 -0.412122
-5772.343750 -3213.566162 -1918.904175 -0.840419 0.256294 -0.477462
-5891.814453 -3237.479736 -1810.128296 -0.046175 0.955626 -0.290902
-5725.061523 -3237.494141 -4144.869629 0.008393 0.984344 0.175909
-6213.590332 -3236.552246 -2095.547363 0.205634 0.957579 -0.201758
-6283.421387 -2818.821045 -3444.321533 0.710105 -0.418867 0.565874
-6346.204102 -2881.558594 -3413.461914 0.728324 -0.420087 0.541337
-5987.970703 -2811.750488 -3735.408691 0.697256 -0.221778 0.681600
-5942.268066 -2775.467285 -3777.946533 0.698355 -0.227271 0.678671
-6183.838867 -2785.675781 -3528.215088 0.700308 -0.301492 0.646992
-6155.012207 -2711.681396 -3533.635010 0.731223 -0.310831 0.607166
-5720.574707 -2639.540771 -3920.939697 0.202887 -0.873623 0.442244
-6161.339844 -2649.759277 -3488.878418 0.605029 -0.666372 0.435713
-5689.631836 -3067.499756 -2194.748047 -0.965728 -0.142552 -0.216865
-5700.464844 -3135.291260 -2151.968262 -0.764641 -0.332347 -0.552110
-5717.278809 -3038.781738 -2144.272217 -0.899533 -0.247719 -0.359783
-5718.667480 -3164.599609 -2038.056641 -0.883969 -0.165197 -0.437330
-5687.508789 -2880.818115 -4024.381836 -0.962127 -0.116825 0.246223
-5690.708496 -2993.259033 -2267.046875 -0.985260 -0.103122 -0.136418
-5716.966309 -2888.677979 -2246.900146 -0.907559 -0.215827 -0.360179
-5769.866211 -3065.883545 -2002.637085 -0.858913 -0.262246 -0.439863
-5858.821289 -2899.111328 -1971.039062 -0.775658 -0.276650 -0.567248
-5853.174805 -3036.412598 -1906.695923 -0.841121 -0.285012 -0.459609
-5872.204590 -3073.306152 -1835.703979 -0.586108 -0.326762 -0.741386
-5915.017090 -2914.012939 -1892.172974 -0.156224 -0.318918 -0.934782
-5949.667969 -2890.859863 -1908.844482 0.499344 -0.188147 -0.845698
-5922.638672 -2770.121826 -1946.084717 -0.241646 -0.404523 -0.882015
-5958.032715 -2764.090332 -1962.370361 0.518174 -0.305277 -0.798914
-6016.125977 -2753.456055 -2024.295654 0.672872 -0.223823 -0.705039
-6043.698730 -2862.660889 -2010.392822 0.710501 -0.276620 -0.647023
-6019.584473 -2900.414307 -1961.968750 0.637898 -0.215278 -0.739372
-6066.807617 -2952.035400 -1994.871704 0.686117 -0.188086 -0.702719
-6101.080566 -2884.997559 -2065.024902 0.695059 -0.255226 -0.672079
-6135.336426 -3004.075439 -2049.888184 0.682333 -0.243751 -0.689169
-6179.075684 -2941.938965 -2114.331543 0.698599 -0.217017 -0.681783
-6209.459961 -3038.551758 -2120.688477 0.698752 -0.246895 -0.671377
-5690.755859 -2898.660400 -2321.929688 -0.984619 -0.085543 -0.152287
-5692.108887 -2796.591797 -2371.023193 -0.979522 -0.079257 -0.185003
-5755.918945 -2880.806885 -2173.118164 -0.919523 -0.213599 -0.329875
-5754.778809 -3015.178467 -2083.027832 -0.904294 -0.239814 -0.353099
-5697.138672 -3228.209717 -4173.468750 -0.537156 0.710227 0.454939
-5689.920410 -2724.100830 -2402.555908 -0.975707 -0.115390 -0.186132
-5718.543457 -2693.922852 -2331.860107 -0.886013 -0.254402 -0.387585
-5697.293945 -2646.713379 -2436.676270 -0.726676 -0.657582 -0.198645
-5687.552246 -2674.934082 -2437.887939 -0.966521 -0.183752 -0.178991
-5697.047852 -2647.352783 -3936.965820 -0.438459 -0.702780 0.560167
-5687.656738 -3199.568115 -4174.903809 -0.920408 0.107761 0.375744
-5687.660645 -2676.093506 -3930.809082 -0.969756 -0.171209 0.173772
-5725.846191 -2637.511963 -2401.083984 -0.482925 -0.852229 -0.201147
-6142.945801 -2637.734375 -3472.419678 0.214545 -0.967376 0.134526
-5855.007324 -3174.783203 -4037.922852 0.659017 -0.404218 0.634236
-6620.520020 -3200.321289 -3286.149414 0.763817 -0.188421 0.617298
-5825.632812 -3193.293457 -4087.229004 0.723899 -0.101962 0.682302
-5726.579102 -3225.429199 -4175.750977 0.378491 0.597034 0.707266
-5699.918945 -2887.215332 -4049.041504 -0.318247 -0.389111 0.864437
-5727.614258 -2810.043701 -4009.385986 0.445143 -0.354778 0.822138
-5727.434570 -2920.075928 -4051.212158 0.554796 -0.357280 0.751335
-5781.782227 -2849.647217 -3961.378174 0.701010 -0.243629 0.670217
-5724.304688 -2711.792725 -3963.178711 0.428724 -0.415204 0.802332
-5692.445312 -3019.083496 -4108.058594 -0.550676 -0.352886 0.756432
-5724.630859 -3022.162842 -4104.809082 0.419752 -0.394299 0.817469
-5728.530762 -3119.943359 -4151.176758 0.516037 -0.382122 0.766594
-5706.799316 -3188.163818 -4197.882324 -0.085604 -0.060152 0.994507
-5755.620117 -2695.783691 -2270.904297 -0.886532 -0.182897 -0.424940
-6634.159180 -2713.748047 -2669.114014 0.634449 -0.493973 0.594501
-6622.836426 -2659.875244 -2649.927246 -0.006043 -0.697775 0.716239
-6646.970215 -2697.719971 -2636.474121 0.935179 -0.309030 -0.172857
-6596.595703 -3143.120605 -2573.116455 0.826716 -0.169256 -0.536515
-6636.992676 -3106.596436 -2645.940430 0.768700 0.049501 -0.637654
-6557.362305 -3049.976318 -2548.384766 0.765679 -0.097293 -0.635792
-6020.886719 -3095.127197 -3846.133301 0.696310 -0.239235 0.676656
-6063.535645 -3135.819824 -3809.338135 0.696097 -0.246406 0.674306
-5909.611328 -3117.657715 -1813.409546 0.280587 -0.307138 -0.909330
-5908.821289 -2980.149658 -1859.576294 -0.025483 -0.456465 -0.889370
-5839.547363 -3107.214111 -1874.983643 -0.826502 -0.269417 -0.494247
-5821.694336 -2915.909180 -2008.439331 -0.828578 -0.282327 -0.483444
-5833.050781 -2787.427734 -2071.000732 -0.822779 -0.286355 -0.490890
-5873.244629 -2690.334961 -2054.386230 -0.769982 -0.421857 -0.478652
-5871.991699 -2830.201416 -1974.473511 -0.796991 -0.250252 -0.549669
-5774.975098 -2735.254639 -2193.372070 -0.873470 -0.269601 -0.405377
-5769.371094 -2862.096924 -2124.044678 -0.891690 -0.229804 -0.389874
-5771.609863 -2651.921387 -2259.184326 -0.711509 -0.586200 -0.387371
-6522.255859 -2640.461426 -2529.828369 0.432905 -0.838527 -0.330760
-6606.607910 -2640.136963 -2618.622314 0.582751 -0.805078 -0.110385
-5802.506836 -2927.725586 -2047.694092 -0.806146 -0.300974 -0.509415
-5812.020020 -3061.382812 -1949.209595 -0.776177 -0.315836 -0.545671
-5819.139648 -2639.380127 -2209.588867 -0.465773 -0.848781 -0.250160
-5823.541992 -2656.839355 -2160.438477 -0.738548 -0.543504 -0.398877
-5814.717773 -3216.577881 -1861.232056 -0.758812 0.348552 -0.550157
-5880.976562 -3220.604004 -1773.096680 -0.200415 0.341288 -0.918302
-5968.826172 -3220.884766 -1825.120605 0.574511 0.374493 -0.727775
-5866.576172 -2648.434082 -2108.554443 -0.612751 -0.671499 -0.416639
-5933.390625 -2637.681641 -2044.759155 -0.228858 -0.939543 -0.254616
-6051.916016 -2643.991943 -2085.592773 0.468795 -0.744865 -0.474685
-6150.058105 -2639.233154 -2209.363281 0.330149 -0.872066 -0.361156
-6107.849609 -2653.418945 -2141.965820 0.669271 -0.404523 -0.623218
-6342.449219 -2638.077148 -2355.188965 0.207648 -0.948851 -0.237739
-5975.621094 -3087.281006 -1869.048218 0.629627 -0.209204 -0.748161
-6014.826172 -3165.604980 -1894.917114 0.627430 -0.230018 -0.743889
-6020.867188 -3019.849609 -1946.517212 0.631794 -0.254524 -0.732109
-6124.946289 -3079.497803 -2017.445435 0.677175 -0.198004 -0.708640
-6240.832031 -3184.907715 -2092.895996 0.713584 -0.105411 -0.692557
-6198.933105 -3093.257080 -2074.913818 0.717063 -0.238014 -0.655080
-6007.869141 -2653.559570 -2044.518433 0.474319 -0.610736 -0.633992
-6460.363770 -2651.022461 -2443.148438 0.579150 -0.510941 -0.635182
-5943.877930 -2648.694092 -2001.926025 -0.071688 -0.724296 -0.685720
-6087.793945 -2781.087891 -2080.576416 0.707541 -0.236396 -0.665944
-5980.721680 -2935.342041 -1929.515381 0.564257 -0.106265 -0.818690
-6012.149414 -3236.031982 -1893.732056 0.260903 0.926572 -0.270882
-6048.766113 -3218.133301 -1900.717285 0.649464 0.282723 -0.705832
-6070.302246 -3088.629639 -1957.430176 0.663076 -0.241981 -0.708335
-6135.830078 -3198.203613 -1995.208496 0.695242 -0.168920 -0.698599
-6203.097656 -2880.021973 -2156.536133 0.737297 -0.272317 -0.618244
-6326.194824 -2652.885742 -2314.230713 0.532060 -0.396954 -0.747856
-6396.506836 -2650.485107 -2381.793701 0.610462 -0.463546 -0.642201
-6402.228027 -2983.093262 -3408.038574 0.727897 -0.355113 0.586535
-6639.266113 -3236.732178 -3232.017822 0.178106 0.974944 0.133122
-6081.070801 -2713.742920 -2106.412598 0.767846 -0.207862 -0.605945
-6194.770020 -2793.883545 -2194.203613 0.735435 -0.215064 -0.642537
-6157.049316 -2712.973877 -2164.398926 0.670156 -0.179601 -0.720145
-6217.886230 -2649.823242 -2253.625000 0.572497 -0.365368 -0.733970
-6233.986328 -3224.490723 -2089.937012 0.602680 0.504044 -0.618580
-6648.025879 -3226.057373 -3252.857422 0.733787 0.427076 0.528336
-6241.165039 -2792.340332 -2252.874023 0.733482 -0.185492 -0.653890
-6260.473145 -2638.041748 -3255.150391 0.415937 -0.885403 0.207312
-6219.795410 -3046.435791 -3623.054199 0.692587 -0.254067 0.675100
-6227.925293 -2915.455322 -2179.353271 0.757256 -0.238014 -0.608173
-6290.076172 -3002.695312 -2220.694092 0.756645 -0.275735 -0.592792
-6313.084961 -2940.379395 -2279.613281 0.695669 -0.256081 -0.671133
-6343.835449 -2781.494385 -2357.107178 0.684774 0.006043 -0.728721
-6373.634766 -2811.483154 -2395.590332 0.683279 0.031526 -0.729453
-6399.892090 -2755.187500 -2390.048096 0.599902 0.160497 -0.783776
-6464.083496 -2747.691650 -2445.479248 0.650594 0.013916 -0.759270
-6499.738281 -2658.332520 -2472.493652 0.668569 -0.398938 -0.627522
-6499.408203 -2794.683105 -2476.471680 0.680227 0.080172 -0.728568
-6537.319336 -2699.664062 -2514.580811 0.763085 -0.106082 -0.637501
-6265.688965 -3053.195068 -2158.174072 0.700095 -0.148228 -0.698447
-6275.625977 -2713.789307 -2300.977051 0.664052 0.138218 -0.734764
-6331.041504 -2844.613037 -2319.724609 0.716666 -0.223670 -0.660543
-6238.184082 -2703.385010 -2259.019043 0.691183 -0.058321 -0.720267
-6228.239746 -2716.428711 -3436.267822 0.769280 -0.426344 0.475784
-6260.459473 -3093.036133 -3591.068604 0.691488 -0.246071 0.679159
-6566.828613 -3122.918457 -3301.211670 0.744133 -0.441023 0.501694
-6341.788086 -3236.958740 -2248.255859 0.194189 0.968413 -0.156346
-6300.842773 -2872.473877 -2285.366211 0.698111 -0.208594 -0.684896
-6239.767578 -2659.734131 -3342.190186 0.708884 -0.612171 0.350261
-6295.782715 -3129.350098 -2180.828125 0.703513 -0.229896 -0.672445
-6321.276367 -2809.537354 -3370.038330 0.759636 -0.509262 0.404401
-6425.606445 -3070.659668 -3415.909180 0.687094 -0.292611 0.664998
-6306.753906 -3222.225098 -2159.427490 0.672018 0.444288 -0.592425
-6388.429199 -3042.793701 -2318.735840 0.776360 -0.257332 -0.575304
-6359.293457 -3163.407227 -2226.965820 0.808100 -0.136662 -0.572924
-6373.441406 -3119.225098 -2275.020752 0.862606 -0.099796 -0.495895
-6459.189453 -3180.594727 -2347.200439 0.792383 -0.066927 -0.606342
-6517.282715 -3189.854736 -2432.769287 0.828181 -0.057283 -0.557482
-6492.043945 -3081.979004 -2446.869873 0.787225 -0.240089 -0.567980
-6539.302734 -3141.237305 -2488.428711 0.801172 -0.238533 -0.548814
-6523.105957 -2966.663574 -2525.295654 0.637196 -0.020386 -0.770409
-6540.811035 -2913.033447 -2528.913818 0.653066 0.068545 -0.754173
-6351.875000 -2639.254395 -3075.252930 0.275857 -0.950468 0.143101
-6308.886230 -2718.562256 -3272.768555 0.764733 -0.510819 0.392712
-6378.844727 -3224.047363 -2258.718750 0.680135 0.464370 -0.567217
-6406.989746 -3168.099854 -2287.030029 0.697073 -0.124180 -0.706137
-6355.306641 -2969.905029 -2306.100830 0.734947 -0.240425 -0.634022
-6343.222168 -2655.071533 -3136.458984 0.671529 -0.647359 0.360454
-6395.841797 -2883.996582 -3326.994385 0.889584 -0.367443 0.271310
-6384.180664 -2756.861572 -3187.869141 0.769066 -0.498581 0.399915
-6397.774414 -2854.219238 -3268.824463 0.767876 -0.497726 0.403211
-6425.553223 -3016.816162 -2386.844238 0.780023 -0.230628 -0.581652
-6427.202637 -2861.538818 -2439.876465 0.671377 -0.028321 -0.740532
-6475.394531 -2894.387939 -2476.771484 0.662008 -0.001312 -0.749474
-6530.519043 -2780.365479 -2514.834717 0.756920 0.035035 -0.652516
-6420.804199 -2640.974121 -2892.592285 0.396344 -0.918027 -0.008301
-6452.246582 -3234.011963 -2351.087402 0.532640 0.739280 -0.411939
-6449.573730 -2639.344727 -2772.573730 0.313852 -0.930418 0.189062
-6438.616699 -2646.102295 -2933.884766 0.568865 -0.822047 0.024354
-6427.752441 -2661.118896 -2999.015625 0.668996 -0.656362 0.348735
-6472.488281 -2885.420166 -3179.936523 0.772637 -0.496689 0.395367
-6466.819336 -2951.502686 -3261.066162 0.763207 -0.517655 0.386670
-6441.592773 -2805.269043 -3124.483154 0.766625 -0.504898 0.396588
-6460.961426 -2686.411865 -2852.926270 0.781274 -0.568560 0.257454
-6496.722168 -3036.715576 -3324.444336 0.728416 -0.452223 0.514664
-6761.668457 -3235.248779 -2821.343994 0.400739 0.890652 -0.214728
-6654.824219 -3233.636230 -2667.183350 0.570544 0.737754 -0.360759
-6538.534668 -3237.137695 -2509.536377 0.208930 0.969543 -0.127598
-6706.503418 -3235.206055 -3137.959961 0.566973 0.755730 0.327647
-6506.674316 -2704.072754 -2787.309326 0.670339 -0.582415 0.459761
-6490.463867 -2710.969482 -2936.584473 0.841487 -0.540208 0.005158
-6495.577148 -2786.687012 -3018.690674 0.768822 -0.485092 0.416608
-6535.940918 -2804.804443 -2955.377197 0.837214 -0.517838 0.175665
-6560.489258 -2769.802490 -2775.416016 0.680105 -0.511948 0.524705
-6515.232910 -2782.950684 -2890.078125 0.828272 -0.551927 0.096438
-6553.646484 -2888.378418 -3030.612061 0.776116 -0.493637 0.392315
-6518.542480 -2928.064453 -3140.095703 0.766869 -0.488449 0.416242
-6540.020996 -3226.501709 -2474.356201 0.697104 0.556719 -0.451704
-6605.653320 -3069.958496 -3165.618164 0.757530 -0.530168 0.380810
-6581.924316 -3107.186523 -3239.639404 0.769036 -0.480026 0.422010
-6581.082031 -2868.780029 -2889.796387 0.814814 -0.548845 0.186621
-6586.417969 -2875.724609 -2938.168457 0.843165 -0.518387 0.142521
-6577.989746 -3009.465576 -3125.300293 0.753410 -0.526383 0.393994
-6674.528320 -3052.522217 -2666.611084 0.745140 0.083407 -0.661641
-6632.496582 -3220.094971 -2610.128906 0.820246 0.322642 -0.472304
-6672.525391 -2887.175781 -2661.144531 0.827540 -0.057192 -0.558458
-6676.216309 -2809.517334 -2699.657715 0.909543 -0.366314 0.196265
-6707.900879 -2896.876953 -2744.406494 0.863521 -0.473495 0.173437
-6671.382324 -2983.169434 -2850.600830 0.743492 -0.444960 0.499191
-6637.954590 -2973.258057 -2902.335938 0.825831 -0.492508 0.274575
-6730.781250 -3112.648682 -2921.511719 0.722312 -0.527909 0.446669
-6687.484375 -3074.066650 -2956.849365 0.848933 -0.499954 0.171209
-6749.458984 -2985.285889 -2769.006592 0.941191 -0.333537 -0.053652
-6773.602539 -3070.506348 -2828.404785 0.918027 -0.384625 0.096133
-6815.185547 -3218.561768 -2894.546631 0.894620 0.431654 0.115329
-6787.770020 -3222.219971 -2943.758545 0.857448 0.212470 0.468581
-6809.813965 -3146.452393 -2857.416016 0.960753 -0.274880 -0.036836
-6621.073242 -2877.708252 -2821.306641 0.679678 -0.558000 0.476028
-6631.900391 -2977.214355 -2989.953857 0.822230 -0.511856 0.248848
-6662.121582 -3125.616699 -3124.214844 0.764244 -0.518998 0.382733
-6687.954590 -3198.888428 -3176.242188 0.846522 -0.276559 0.454848
-6677.758301 -3042.259277 -3005.655762 0.837794 -0.519852 0.166845
-6701.788086 -3116.525391 -3039.984863 0.839625 -0.468245 0.275155
-6751.492188 -3220.172852 -3070.139893 0.927946 0.225562 0.296670
-6725.033691 -2939.144287 -2742.147217 0.893429 -0.225074 -0.388684
-6744.520996 -3130.056641 -2758.298828 0.836665 0.042787 -0.545976
-6753.686035 -3216.686035 -2778.940674 0.706565 0.395032 -0.587085
-6712.924316 -3226.019287 -2749.197754 0.771935 0.198859 -0.603778
-6748.060059 -3234.330078 -2997.055176 0.553362 0.820338 0.144230
-6756.316895 -3196.030518 -2988.406494 0.913572 -0.280038 0.294870
3 0 1 2
3 3 2 4
3 5 3 4
3 6 7 8
3 9 10 11
3 11 12 13
3 13 12 14
3 15 16 14
3 17 18 19
3 20 0 2
3 18 17 0
3 0 17 21
3 17 22 21
3 19 23 22
3 19 22 17
3 24 3 5
3 25 26 27
3 28 29 30
3 30 29 31
3 32 31 33
3 33 34 35
3 36 35 37
3 36 37 38
3 38 37 39
3 23 40 22
3 22 40 21
3 41 40 23
3 42 23 43
3 43 19 20
3 43 20 3
3 1 44 2
3 41 45 21
3 45 41 46
3 41 21 40
3 47 48 45
3 45 48 21
3 1 0 44
3 2 44 7
3 47 49 48
3 0 21 50
3 0 50 44
3 48 49 51
3 48 51 21
3 15 52 53
3 54 55 56
3 56 55 57
3 58 59 60
3 51 49 21
3 59 61 60
3 49 62 59
3 58 49 59
3 49 58 21
3 63 21 58
3 63 58 64
3 63 64 65
3 56 65 54
3 66 63 65
3 66 65 56
3 50 63 66
3 21 63 50
3 66 56 57
3 44 50 66
3 58 60 64
3 7 44 57
3 44 66 57
3 20 2 3
3 0 20 18
3 20 19 18
3 46 41 67
3 46 52 45
3 52 47 45
3 68 69 70
3 71 72 73
3 47 52 49
3 49 52 15
3 54 74 75
3 49 15 62
3 76 77 27
3 78 27 26
3 24 43 3
3 6 2 7
3 79 25 80
3 30 81 82
3 23 19 43
3 83 67 42
3 83 42 84
3 67 23 42
3 85 67 83
3 41 23 67
3 67 85 46
3 85 52 46
3 52 86 87
3 88 24 89
3 84 24 88
3 24 84 43
3 80 84 88
3 43 84 42
3 85 83 90
3 90 83 91
3 85 90 52
3 92 5 4
3 92 4 6
3 78 92 93
3 27 93 76
3 76 93 94
3 89 24 92
3 92 24 5
3 88 89 79
3 80 25 82
3 80 83 84
3 61 10 60
3 92 6 93
3 78 89 92
3 79 89 26
3 6 4 2
3 79 80 88
3 91 80 95
3 80 91 83
3 52 96 97
3 52 97 98
3 98 97 99
3 52 100 86
3 62 12 59
3 93 6 94
3 26 89 78
3 25 27 77
3 25 79 26
3 59 12 61
3 64 74 65
3 27 78 93
3 77 76 101
3 101 76 102
3 82 25 28
3 28 25 77
3 30 82 28
3 82 81 80
3 81 95 80
3 91 95 90
3 103 77 101
3 104 105 106
3 104 106 37
3 37 106 39
3 96 95 81
3 96 107 97
3 95 96 90
3 100 108 86
3 14 62 15
3 109 30 31
3 31 32 107
3 32 110 97
3 32 97 107
3 30 109 81
3 109 31 107
3 109 96 81
3 90 96 52
3 61 12 11
3 28 77 103
3 28 103 111
3 28 111 29
3 111 34 31
3 96 109 107
3 61 11 10
3 102 76 94
3 6 112 94
3 111 103 35
3 31 29 111
3 15 53 16
3 65 74 54
3 102 94 113
3 113 94 112
3 103 101 114
3 114 102 113
3 114 101 102
3 114 113 115
3 34 111 35
3 32 33 110
3 110 33 36
3 116 36 38
3 100 117 118
3 33 31 34
3 55 54 75
3 112 6 8
3 52 98 100
3 60 119 64
3 57 120 7
3 35 103 37
3 37 103 114
3 37 114 104
3 33 35 36
3 121 97 110
3 121 110 122
3 123 121 122
3 97 121 99
3 98 124 100
3 110 36 122
3 122 36 116
3 12 62 14
3 11 13 9
3 113 112 125
3 113 125 115
3 104 115 105
3 104 114 115
3 121 123 99
3 120 57 126
3 125 112 8
3 115 125 105
3 13 14 16
3 123 122 127
3 98 99 123
3 52 128 53
3 64 129 74
3 74 129 75
3 130 131 132
3 133 134 135
3 108 136 137
3 137 138 139
3 86 139 87
3 87 139 70
3 116 38 130
3 130 38 39
3 130 39 140
3 116 130 122
3 127 122 130
3 141 127 133
3 133 142 134
3 124 98 123
3 124 143 117
3 117 143 141
3 117 141 135
3 16 144 13
3 129 145 75
3 146 55 75
3 39 106 105
3 7 147 8
3 143 127 141
3 124 123 143
3 143 123 127
3 133 127 142
3 148 127 130
3 128 149 53
3 9 13 144
3 16 149 144
3 53 149 16
3 146 75 145
3 150 39 105
3 39 150 140
3 9 149 151
3 146 145 152
3 144 149 9
3 105 125 153
3 130 140 131
3 154 155 156
3 157 158 159
3 159 160 73
3 161 73 162
3 130 132 148
3 124 117 100
3 118 117 135
3 127 148 142
3 52 163 128
3 149 164 151
3 140 150 131
3 150 105 153
3 153 155 150
3 125 8 153
3 156 165 166
3 132 131 167
3 163 168 128
3 128 164 149
3 9 151 10
3 60 10 119
3 119 10 169
3 153 8 147
3 131 150 155
3 131 155 154
3 132 167 142
3 132 142 148
3 141 133 135
3 128 168 164
3 164 168 170
3 164 170 171
3 164 171 151
3 64 119 129
3 152 145 129
3 153 165 155
3 165 153 147
3 167 131 154
3 156 155 165
3 167 172 173
3 154 166 172
3 172 157 159
3 142 167 173
3 173 172 174
3 134 173 135
3 138 175 139
3 173 138 135
3 135 138 136
3 52 176 163
3 169 151 171
3 151 169 10
3 129 119 152
3 55 126 57
3 165 147 177
3 177 147 7
3 154 172 167
3 100 118 108
3 173 134 142
3 52 178 176
3 176 179 163
3 163 179 180
3 163 180 168
3 181 182 171
3 181 171 170
3 168 183 170
3 165 177 166
3 166 177 157
3 154 156 166
3 172 166 157
3 184 176 178
3 168 180 183
3 170 183 181
3 169 171 119
3 152 119 185
3 7 186 187
3 177 7 188
3 118 136 108
3 135 136 118
3 86 137 139
3 138 174 162
3 162 174 161
3 173 174 138
3 189 7 120
3 182 185 171
3 171 185 119
3 136 138 137
3 174 172 161
3 184 178 190
3 191 179 176
3 179 191 180
3 192 191 193
3 194 190 68
3 184 190 195
3 191 192 180
3 192 196 197
3 197 181 183
3 197 183 192
3 180 192 183
3 152 185 146
3 157 177 198
3 157 198 158
3 198 177 188
3 172 159 161
3 161 159 73
3 137 86 108
3 175 138 162
3 184 195 176
3 176 195 191
3 185 199 200
3 185 200 146
3 158 160 159
3 52 87 178
3 195 190 194
3 193 201 202
3 191 195 193
3 197 196 203
3 197 203 182
3 182 203 199
3 197 182 181
3 185 182 199
3 178 87 68
3 178 68 190
3 195 201 193
3 192 193 196
3 71 160 158
3 160 71 73
3 73 72 204
3 198 188 205
3 73 204 206
3 205 188 187
3 187 188 7
3 68 70 207
3 207 70 206
3 207 194 68
3 208 209 210
3 211 212 209
3 209 212 210
3 209 213 214
3 215 216 217
3 217 211 214
3 201 194 218
3 195 194 201
3 193 202 196
3 71 158 205
3 158 198 205
3 139 175 70
3 175 206 70
3 206 175 162
3 162 73 206
3 71 205 72
3 87 69 68
3 208 207 206
3 201 218 210
3 196 202 219
3 199 220 221
3 203 220 199
3 146 200 55
3 69 87 70
3 194 207 208
3 194 208 218
3 210 218 208
3 210 212 219
3 219 212 222
3 202 210 219
3 201 210 202
3 196 219 203
3 220 203 219
3 221 200 199
3 200 221 55
3 55 221 126
3 220 219 222
3 72 205 187
3 222 223 220
3 220 223 224
3 221 189 126
3 126 189 120
3 220 224 221
3 225 206 204
3 225 226 213
3 225 204 226
3 213 226 214
3 214 226 227
3 226 228 227
3 186 227 228
3 204 72 226
3 72 187 226
3 226 187 228
3 206 225 208
3 187 186 228
3 208 213 209
3 229 7 189
3 209 214 211
3 212 223 222
3 189 224 229
3 213 208 225
3 212 211 230
3 223 230 224
3 230 229 224
3 223 212 230
3 221 224 189
3 7 229 186
3 229 216 215
3 229 215 186
3 230 211 216
3 230 216 229
3 211 217 216
3 214 227 217
3 217 227 215
3 215 227 186
