ply
format ascii 1.0
comment Created by Blender 2.80 (sub 75) - www.blender.org, source file: 'color_and_decimate.blend'
element vertex 360
property float x
property float y
property float z
property float nx
property float ny
property float nz
element face 716
property list uchar uint vertex_indices
end_header
-5929.363770 -3218.313232 -1679.275879 -0.815546 0.247810 -0.522904
-5895.681152 -3182.981689 -1781.843140 -0.955016 0.150548 0.255470
-5902.581055 -3236.665771 -1751.204102 -0.740074 0.670736 0.048769
-6163.591797 -3195.923828 -1469.781738 -0.492538 -0.080050 -0.866573
-6230.804688 -3233.756104 -1440.142212 -0.269204 0.616749 -0.739647
-6353.387207 -3176.542725 -1411.553345 -0.234169 -0.227851 -0.945097
-6267.353516 -3068.237305 -2158.785400 -0.711844 0.238716 0.660482
-6250.714355 -3196.597412 -2103.619629 -0.653340 0.387310 0.650441
-6202.381348 -3110.645508 -2077.205566 -0.687674 0.220161 0.691824
-6208.687012 -2891.998291 -2161.093018 -0.688803 0.318705 0.651082
-6156.165527 -2968.994141 -2082.585693 -0.691885 0.239784 0.680990
-6101.080566 -2884.997559 -2065.025146 -0.714225 0.255348 0.651631
-6087.794434 -2781.087891 -2080.576416 -0.701071 0.211463 0.680990
-6063.343750 -2902.825195 -2012.579712 -0.703299 0.214759 0.677633
-6015.695801 -2753.070557 -2024.177612 -0.679128 0.193609 0.707999
-5916.085449 -2976.984131 -1820.616455 -0.948973 -0.196204 -0.246803
-5918.432617 -3079.413330 -1832.333130 -0.792291 0.120121 0.598163
-6010.971191 -3233.257812 -1858.957397 -0.404157 0.783258 0.472365
-6002.098145 -3092.367676 -1890.915283 -0.647969 0.243263 0.721732
-6039.144531 -3168.436279 -1911.931885 -0.670125 0.271645 0.690725
-6111.982910 -3193.716797 -1974.757935 -0.653401 0.393231 0.646840
-5981.110840 -3233.003662 -1816.235474 -0.291971 0.924314 0.245735
-5997.175293 -3221.202881 -1590.808838 -0.627766 0.434400 -0.645894
-6053.273438 -3115.674561 -1592.585938 -0.607562 -0.358379 -0.708792
-5974.282715 -3094.325195 -1683.491211 -0.715812 -0.318461 -0.621387
-5983.086426 -2993.560059 -1721.504272 -0.701773 -0.325999 -0.633412
-6070.971191 -2962.288574 -1657.537720 -0.581408 -0.383404 -0.717582
-6597.701172 -3071.449463 -1450.158936 0.039186 -0.354289 -0.934294
-6436.839355 -3125.232422 -1417.667603 -0.110202 -0.390881 -0.913785
-6712.744629 -3139.247314 -1417.375977 0.078768 -0.408460 -0.909360
-6391.085938 -3237.392822 -1415.009766 -0.174444 0.816004 -0.551073
-5922.287109 -2873.645752 -1882.562256 -0.993957 -0.072451 0.082339
-5923.242188 -2960.142578 -1872.663940 -0.866512 0.114536 0.485824
-6278.147949 -3153.894531 -1453.076294 -0.263558 -0.434431 -0.861263
-5976.344727 -2812.397461 -1830.908325 -0.721183 -0.350139 -0.597705
-6023.582520 -3021.977295 -1948.236572 -0.661306 0.265908 0.701376
-5987.224121 -2928.534668 -1935.822266 -0.659658 0.153600 0.735649
-5947.722656 -2763.326660 -1898.063232 -0.859249 -0.318155 -0.400494
-5939.558105 -2751.365234 -1950.161133 -0.953429 -0.045930 0.298044
-6015.436035 -2889.930664 -1962.839600 -0.662709 0.152715 0.733116
-6065.850586 -2800.571045 -1749.394043 -0.567339 -0.425977 -0.704703
-6682.363770 -3182.320557 -1404.025146 0.123905 -0.182134 -0.975402
-6083.123047 -2646.575684 -1839.144653 -0.387799 -0.804498 -0.449873
-5982.024414 -2655.104492 -1924.329346 -0.623981 -0.690237 -0.366253
-5950.565918 -2685.532959 -1986.571289 -0.734245 0.048250 0.677145
-5980.180664 -2640.303223 -2004.424316 -0.631916 -0.680288 0.371288
-6214.295898 -2855.578613 -2189.356689 -0.716849 0.309275 0.624836
-6312.232422 -3055.727783 -2218.975098 -0.757469 0.240577 0.606861
-6339.112793 -2954.874512 -2297.417480 -0.759148 0.239296 0.605274
-6373.634766 -2811.483154 -2395.590332 -0.663198 -0.045137 0.747032
-6317.768555 -2764.900391 -2331.895752 -0.656392 -0.019196 0.754143
-6399.892090 -2755.187500 -2390.048096 -0.609821 -0.214209 0.762993
-6502.396973 -2807.387695 -2483.836914 -0.671072 -0.076113 0.737449
-6486.930176 -2654.200684 -2458.614258 -0.672994 -0.458541 0.580309
-6529.816406 -2656.886963 -2512.638672 -0.686850 -0.404157 0.604022
-7921.492676 -3126.983643 -3598.198975 -0.568651 -0.162633 0.806330
-7808.061035 -3214.157959 -3542.146973 -0.536302 0.176885 0.825251
-7834.559082 -3082.079102 -3514.962891 -0.567339 -0.170141 0.805689
-7900.600098 -3029.385010 -3560.285400 -0.581622 -0.189154 0.791131
-7960.679199 -2990.095947 -3591.423828 -0.561998 -0.171148 0.809198
-7968.047363 -2897.256592 -3582.296875 -0.586963 -0.150670 0.795434
-8065.477051 -2956.705566 -3655.813721 -0.084994 -0.182653 0.979461
-8038.955078 -2838.264160 -3623.114746 -0.398633 -0.178350 0.899564
-8045.912598 -2637.499756 -2275.959717 0.247108 -0.944700 -0.215522
-7229.940430 -2639.767334 -1824.130249 0.103275 -0.919767 -0.378552
-7296.801758 -2638.202881 -1833.053833 0.145604 -0.856319 -0.495437
-7507.316895 -2637.986328 -1942.024170 0.167486 -0.920835 -0.352092
-6251.771484 -2638.090576 -1755.642700 -0.177801 -0.880673 -0.439039
-6159.637207 -2655.961670 -1776.506348 -0.367046 -0.660665 -0.654805
-6184.272461 -2747.277832 -1708.510864 -0.389996 -0.478225 -0.786859
-6082.483398 -3236.107910 -1897.029053 -0.298410 0.894772 0.332072
-6109.532715 -3074.655762 -2001.651489 -0.658528 0.236885 0.714255
-6051.810547 -2656.985840 -2074.393066 -0.630543 -0.259346 0.731498
-6103.767578 -2690.531494 -2128.038818 -0.733665 -0.020081 0.679189
-6172.029785 -3027.004150 -1549.142212 -0.449995 -0.432936 -0.781060
-6129.738281 -2890.261475 -1657.301270 -0.455245 -0.441298 -0.773278
-6283.982422 -3018.410156 -1517.428955 -0.230934 -0.446944 -0.864223
-6284.357422 -2925.939697 -1563.220337 -0.304025 -0.457137 -0.835780
-6222.741211 -3021.388916 -1528.989502 -0.296670 -0.456038 -0.839045
-6490.166992 -2857.624023 -1556.890503 -0.099002 -0.489364 -0.866421
-6391.330566 -2838.810303 -1568.489380 -0.181494 -0.489059 -0.853145
-6493.049316 -2775.596191 -1602.079956 -0.083163 -0.433088 -0.897488
-6593.645996 -2764.669678 -1595.686646 -0.033448 -0.563707 -0.825282
-6693.304199 -2716.064209 -1627.921753 0.069063 -0.479965 -0.874538
-6277.614258 -2844.509033 -1610.781128 -0.335154 -0.473800 -0.814356
-6284.755371 -2729.400879 -1677.994629 -0.319102 -0.513962 -0.796228
-6089.781738 -2640.658203 -2087.584961 -0.310434 -0.866359 0.391156
-6137.020508 -2771.279541 -2139.147949 -0.718894 0.221961 0.658681
-6223.284180 -3116.966309 -1481.956299 -0.293405 -0.392865 -0.871517
-6170.240723 -2639.897461 -2183.772949 -0.452284 -0.793970 0.406201
-6214.623047 -2660.209229 -2242.927246 -0.600543 -0.373882 0.706748
-6241.165039 -2792.340332 -2252.874023 -0.714499 0.205420 0.668783
-6321.260254 -2862.800537 -2306.310059 -0.738823 0.220679 0.636708
-6191.008301 -3234.593262 -2014.534180 -0.337565 0.872250 0.353801
-6202.791992 -3030.422607 -2118.206787 -0.697745 0.259774 0.667562
-6336.180176 -3190.348633 -2201.393066 -0.742454 0.326762 0.584735
-6377.612793 -3235.730957 -2219.729736 -0.411481 0.871059 0.268136
-6400.325195 -3222.055176 -2273.208252 -0.663778 0.506821 0.549974
-6385.631836 -3064.137695 -2308.010498 -0.751793 0.267983 0.602466
-6425.553223 -3016.816162 -2386.844238 -0.769311 0.246467 0.589373
-6435.996094 -3146.484131 -2326.009033 -0.747368 0.212745 0.629383
-6267.354980 -2694.749756 -2293.463623 -0.608173 -0.164739 0.776482
-6288.935059 -3234.648926 -2103.736328 -0.325236 0.893246 0.310282
-8040.941406 -3237.492432 -2937.058350 0.341044 0.939817 -0.019868
-6394.575684 -3036.022705 -1471.465454 -0.193426 -0.427015 -0.883267
-6300.163086 -2639.793457 -2271.266602 -0.249733 -0.896878 0.364971
-6462.268555 -2952.570801 -1508.443115 -0.118412 -0.466292 -0.876644
-6484.179688 -2721.498047 -1620.703857 -0.081790 -0.470443 -0.878597
-6375.960449 -2677.115723 -1676.394409 -0.239296 -0.591144 -0.770226
-6887.931641 -3095.998779 -1467.676880 0.198737 -0.411451 -0.889462
-7038.207031 -3194.378906 -1465.387573 0.342998 -0.199805 -0.917814
-7065.102051 -3155.451660 -1502.387939 0.293619 -0.372143 -0.880490
-7141.942383 -2997.097412 -1603.586426 0.328715 -0.475906 -0.815729
-7253.640137 -3100.388428 -1586.590942 0.309244 -0.382244 -0.870754
-7253.946777 -2981.517578 -1647.631348 0.262337 -0.374798 -0.889187
-7330.111816 -3083.283691 -1619.853271 0.390667 -0.455550 -0.799860
-7338.377441 -2991.652344 -1664.336426 0.317270 -0.389599 -0.864589
-7477.528320 -3102.314209 -1673.062866 0.348796 -0.415632 -0.839961
-7483.199219 -3064.040771 -1699.508179 0.385907 -0.412275 -0.825251
-7414.028809 -2958.783447 -1717.410400 0.326182 -0.435255 -0.839106
-7216.943848 -2830.812256 -1703.717041 0.321116 -0.437666 -0.839808
-7368.841309 -2969.663330 -1704.730713 0.169042 -0.647328 -0.743187
-7292.244629 -2812.822754 -1741.982178 0.315897 -0.401685 -0.859523
-7223.583496 -2740.071045 -1752.328003 0.303293 -0.426618 -0.852046
-7080.080566 -2689.326660 -1726.872925 0.258461 -0.516495 -0.816309
-7058.647949 -2765.052979 -1684.161743 0.282693 -0.421735 -0.861507
-6990.674316 -2833.941406 -1624.291504 0.242866 -0.398785 -0.884274
-7098.054199 -2869.657715 -1648.842529 0.280343 -0.390820 -0.876705
-6361.935547 -2643.466064 -2327.222900 -0.356395 -0.785668 0.505631
-6399.796387 -2937.791992 -1519.542358 -0.168767 -0.421857 -0.890805
-6472.287598 -2640.715820 -1684.123169 -0.055330 -0.879696 -0.472274
-6449.307129 -2677.144043 -2421.668213 -0.712638 -0.317881 0.625355
-6450.591797 -3065.995117 -1453.804932 -0.106052 -0.400983 -0.909909
-8085.779785 -2878.088623 -2133.831055 0.891446 -0.231697 -0.389325
-8087.345215 -3198.359131 -2579.595459 0.974975 0.222205 0.005860
-8087.470703 -3190.390381 -2912.257812 0.939238 0.343211 0.003143
-6723.575195 -3236.935547 -1422.666504 0.098270 0.818995 -0.565294
-6948.239746 -3232.497070 -1442.803101 0.169958 0.601520 -0.780541
-6789.200195 -2650.714600 -1675.432617 0.098727 -0.720969 -0.685873
-6836.493652 -2638.024902 -1712.841797 0.034303 -0.978454 -0.203436
-6492.043945 -3081.979004 -2446.869873 -0.787805 0.236152 0.568804
-6475.394531 -2894.387939 -2476.771484 -0.664541 0.013245 0.747093
-6523.105957 -2966.663574 -2525.295654 -0.659047 0.019684 0.751823
-6703.142090 -2840.444580 -2730.504639 -0.813105 -0.043367 0.580462
-6671.972168 -2721.675049 -2668.495605 -0.728294 -0.095218 0.678579
-6729.991211 -2784.041016 -2743.584961 -0.670827 -0.194617 0.715598
-6427.202637 -2861.538818 -2439.876465 -0.669576 0.029725 0.742119
-6460.723145 -3220.877930 -1378.037231 -0.057375 0.265694 -0.962340
-6671.529297 -3225.180176 -1391.760620 0.199866 0.419324 -0.885525
-6456.784180 -2640.336182 -2398.999023 -0.330027 -0.893368 0.304880
-6558.016602 -2994.044434 -1465.850952 -0.000305 -0.483169 -0.875484
-6507.040527 -3235.241943 -2374.416748 -0.372662 0.888150 0.268868
-6478.283691 -3200.424072 -2371.809326 -0.756371 0.344005 0.556322
-6540.811035 -2913.033447 -2528.913818 -0.652150 -0.070162 0.754814
-6841.725098 -3193.897949 -1415.083130 0.221107 -0.070315 -0.972686
-8073.095215 -3232.046387 -1948.938965 0.664937 0.594256 -0.452376
-8070.930664 -3233.758789 -2537.034180 0.574877 0.818201 0.002167
-6563.943848 -3045.559570 -2556.156006 -0.760308 0.086917 0.643696
-6669.486816 -2886.600098 -2657.856934 -0.796167 0.024934 0.604541
-6733.858398 -2955.384766 -2751.038574 -0.917661 0.120731 0.378552
-6776.029297 -2640.182617 -2717.890869 -0.311075 -0.864101 0.395642
-6785.133789 -2715.152344 -2770.504883 -0.641041 -0.289468 0.710807
-6696.327637 -2658.042725 -2678.569580 -0.575518 -0.484237 0.658956
-6553.270508 -3215.863037 -2477.287598 -0.737327 0.466781 0.488266
-6614.256836 -2639.514893 -2579.616211 -0.329539 -0.883969 0.331614
-6555.827637 -2725.331055 -2538.985840 -0.729850 0.008301 0.683523
-6656.749512 -2957.545898 -1507.531128 0.115513 -0.485275 -0.866665
-6693.668945 -3025.727539 -1467.172852 0.139714 -0.394360 -0.908231
-6705.066406 -3082.782959 -1458.166870 0.071230 -0.402661 -0.912564
-6632.024414 -2835.382568 -1562.262207 0.078433 -0.471328 -0.878445
-6556.669434 -2896.333496 -1516.796387 -0.024018 -0.423444 -0.905576
-6790.104492 -3074.445312 -1464.696655 0.165288 -0.446760 -0.879208
-6874.048828 -3152.841309 -1455.996094 0.238838 -0.347331 -0.906796
-6863.067383 -3033.177002 -1506.395996 0.163915 -0.402875 -0.900449
-6956.301758 -2963.760742 -1556.282227 0.214637 -0.430280 -0.876797
-6997.354492 -3049.125000 -1516.524048 0.232917 -0.366314 -0.900845
-7108.817383 -3064.641113 -1555.169312 0.260598 -0.373241 -0.890347
-6596.595703 -3143.120605 -2573.116211 -0.832911 0.179754 0.523331
-6732.971680 -2883.126465 -1556.000854 0.066775 -0.408155 -0.910459
-6756.608887 -2940.316406 -1518.814941 0.070223 -0.394055 -0.916379
-6725.675293 -2830.008301 -1568.734741 0.087802 -0.485549 -0.869778
-6840.218750 -2862.954102 -1571.807373 0.181494 -0.462111 -0.868038
-6738.966797 -2789.416992 -1606.536011 0.101688 -0.474563 -0.874294
-6644.984863 -3234.099609 -2586.814209 -0.389904 0.890530 0.234321
-6690.749512 -3234.530029 -2691.311523 -0.551225 0.728019 0.407514
-6641.176270 -3113.626953 -2652.253662 -0.761010 -0.013184 0.648579
-6704.690918 -3105.203369 -2713.664551 -0.773309 -0.022553 0.633595
-6636.391113 -3197.660889 -2619.112061 -0.814295 0.324259 0.481368
-6671.130371 -3043.444824 -2658.933105 -0.760918 -0.082766 0.643513
-6733.843750 -2930.252197 -2786.513428 -0.876736 0.002228 0.480941
-6752.397461 -2998.408936 -2818.761963 -0.900601 0.059542 0.430494
-6827.288574 -2768.737061 -1620.943604 0.161626 -0.492874 -0.854915
-6944.709961 -2868.212402 -1601.450562 0.226569 -0.417219 -0.880093
-6749.717285 -3208.921875 -2772.919678 -0.774438 0.241157 0.584857
-6780.149414 -3234.667725 -2784.599365 -0.346904 0.912961 0.214698
-6837.366699 -2720.963623 -1656.059326 0.171148 -0.444288 -0.879360
-8072.261719 -3220.795166 -2814.983398 0.746910 0.664174 0.030915
-6855.016602 -2638.989014 -2800.240479 -0.402448 -0.815149 0.416578
-6796.948242 -3140.565430 -2838.079834 -0.941130 0.117557 0.316904
-6845.887695 -2905.498535 -2883.805176 -0.617573 -0.213630 0.756920
-6900.087891 -2995.597412 -1521.396118 0.177709 -0.372814 -0.910703
-7142.738281 -2837.390625 -1671.941650 0.261879 -0.416211 -0.870724
-6799.879883 -3142.039551 -2911.239014 -0.883572 -0.024354 0.467605
-6781.255859 -3083.500488 -2870.286133 -0.904324 0.043184 0.424574
-6914.661133 -3113.029785 -2994.111084 -0.484909 -0.259865 0.835047
-6880.761230 -3025.240723 -2948.317139 -0.562853 -0.215339 0.797998
-7004.779785 -2844.311768 -2966.195068 -0.463912 -0.138401 0.874996
-6983.294922 -2948.215088 -2972.238525 -0.394513 -0.192602 0.898465
-7190.291992 -2863.234375 -3067.115723 -0.433149 -0.156865 0.887539
-7158.766602 -2802.310059 -3047.968506 -0.480270 -0.080508 0.873379
-7227.683594 -2696.829346 -3077.108887 -0.419385 -0.154088 0.894620
-7292.235840 -2793.821533 -3118.584717 -0.681753 -0.136296 0.718741
-7302.604004 -2643.275391 -3109.045898 -0.409925 -0.786737 0.461501
-7347.092773 -2757.215820 -3195.362793 -0.837672 -0.133091 0.529679
-6893.280273 -2809.044922 -2896.591064 -0.582446 -0.171117 0.794641
-6998.083008 -2750.898682 -2951.641602 -0.482009 -0.132817 0.866024
-7051.967773 -2643.629150 -2961.984375 -0.352611 -0.753258 0.555162
-7078.931641 -2770.432129 -2993.958984 -0.501206 -0.100925 0.859401
-6814.491211 -3221.597168 -2876.964600 -0.952483 -0.157933 0.260323
-6960.991699 -2723.404297 -1673.135010 0.205756 -0.477432 -0.854213
-8078.036621 -2646.981689 -2288.724854 0.702719 -0.683340 -0.197882
-8086.957031 -2683.600586 -2262.539795 0.880764 -0.319071 -0.349834
-8085.964355 -2672.050537 -3595.668213 0.775414 -0.250252 0.579699
-6939.434570 -2689.591309 -2903.839111 -0.577227 -0.281075 0.766656
-6826.424316 -3231.106689 -2942.476807 -0.631031 0.658895 0.409406
-6990.425781 -3120.530518 -3025.400635 -0.428327 -0.296609 0.853511
-7052.124512 -2994.951416 -3022.425293 -0.485977 -0.250679 0.837214
-7132.168945 -2955.249756 -3062.340576 -0.491043 -0.222968 0.842097
-7069.058105 -2895.637939 -3006.974609 -0.498032 -0.168493 0.850612
-6902.885742 -3196.468018 -3016.446289 -0.564745 -0.027985 0.824763
-6986.643066 -2938.471436 -1568.863281 0.217200 -0.448500 -0.866970
-6931.139648 -2640.464111 -2868.721924 -0.352947 -0.828730 0.434248
-8082.266602 -3223.252686 -3063.663086 0.776360 0.630116 -0.013733
-6940.431152 -3234.738525 -3030.002197 -0.338755 0.763909 0.549242
-6965.964844 -2641.011719 -1732.171997 0.136723 -0.865535 -0.481765
-7103.906250 -3085.351074 -3086.678955 -0.472671 -0.280068 0.835505
-7191.799805 -3064.291504 -3122.970703 -0.525590 -0.269112 0.807031
-7064.659180 -3194.255859 -3103.491943 -0.500412 -0.142766 0.853908
-7183.515625 -3219.200928 -3180.675049 -0.579211 -0.426496 0.694662
-7112.254395 -3233.446045 -1496.377319 0.219520 0.655385 -0.722648
-7110.673828 -2640.886475 -1775.081421 0.152623 -0.885647 -0.438520
-7174.393555 -3066.828369 -1569.444946 0.311655 -0.411969 -0.856227
-7117.140625 -2654.136230 -3012.023926 -0.492569 -0.447737 0.746208
-7098.992676 -3234.126465 -3120.562500 -0.362835 0.751091 0.551500
-7174.087891 -2657.983643 -3054.844482 -0.385144 -0.462600 0.798517
-7256.567383 -2920.827148 -3123.881592 -0.641957 -0.226142 0.732597
-7289.779297 -3031.971191 -3200.512207 -0.742607 -0.260018 0.617176
-7128.302734 -3129.777100 -1518.988647 0.269021 -0.416059 -0.868618
-7223.212891 -3222.095459 -1521.196655 0.377026 0.292581 -0.878750
-7245.771484 -3200.842041 -1547.134521 0.344615 -0.458968 -0.818842
-7223.637695 -2638.604004 -3048.905762 -0.171758 -0.883450 0.435865
-7249.138672 -3107.979004 -3184.619873 -0.709067 -0.309397 0.633595
-7251.400879 -3181.925537 -3242.074707 -0.739402 -0.247261 0.626148
-7295.498535 -3234.809326 -3294.614746 -0.366131 0.669637 0.646138
-7475.983398 -3232.264404 -3318.271484 -0.255745 0.662831 0.703696
-7279.355469 -2698.926025 -1792.647217 0.286996 -0.487747 -0.824427
-7331.945312 -3236.866211 -1598.296753 0.088717 0.972716 -0.214331
-7426.646484 -2896.611328 -1758.385864 0.332713 -0.419141 -0.844722
-7517.330078 -2989.660645 -1742.785278 0.323374 -0.371136 -0.870418
-7364.080078 -2792.849365 -1774.236450 0.333903 -0.399457 -0.853755
-7713.540039 -3196.717529 -1732.291138 0.390515 -0.074831 -0.917539
-7618.812988 -3184.517578 -1704.271606 0.405896 -0.191687 -0.893582
-7587.490723 -3219.636719 -1669.878784 0.492813 0.353465 -0.795068
-7586.083008 -3235.430420 -1693.153320 0.273385 0.874355 -0.400922
-7355.899414 -2661.530762 -3187.428711 -0.855068 0.005676 0.518448
-7380.342773 -2642.998779 -3232.782471 -0.597705 -0.693564 0.402081
-7437.841797 -2639.907715 -3302.995361 -0.387982 -0.807428 0.444380
-7976.412109 -2684.594971 -3549.363037 -0.550188 -0.288400 0.783624
-7866.081055 -2766.966553 -3471.461182 -0.605853 -0.172857 0.776543
-7900.488281 -2639.985107 -3476.977295 -0.429792 -0.745445 0.509445
-7971.402344 -2638.352783 -3512.393799 -0.209479 -0.893613 0.396893
-8075.405273 -2645.188232 -3589.876953 0.338054 -0.766106 0.546556
-8052.739746 -2691.115723 -3607.008789 -0.251991 -0.265419 0.930601
-7303.281250 -3191.812500 -3305.615234 -0.391827 -0.044801 0.918912
-7487.392090 -2845.102783 -1804.808960 0.305521 -0.399731 -0.864193
-7526.842285 -2926.640381 -1772.185669 0.380444 -0.455306 -0.804926
-7842.214355 -3178.498291 -1816.788818 0.491043 -0.201483 -0.847499
-7361.887207 -3221.057373 -1578.342529 0.389508 0.346904 -0.853175
-7422.452148 -3221.654541 -1610.659790 0.337718 0.362072 -0.868801
-7469.411133 -3185.809082 -1630.229980 0.364360 -0.186712 -0.912320
-7417.779785 -3116.389160 -1655.879883 0.336741 -0.438887 -0.833033
-7339.239746 -2861.665527 -3214.137207 -0.832911 -0.177099 0.524247
-7325.477051 -2951.563965 -3221.903320 -0.795129 -0.167821 0.582720
-7348.449707 -3045.843506 -3288.274902 -0.436842 -0.165654 0.884121
-7386.170410 -2980.348389 -3305.199707 -0.073977 0.196051 0.977783
-7422.520508 -2737.311523 -3315.002197 -0.503983 -0.033448 0.863033
-7433.314941 -3153.068115 -3289.827148 -0.121555 -0.118107 0.985504
-7358.979980 -3222.207764 -3299.793701 -0.045656 -0.134678 0.989807
-7617.834473 -2952.378418 -3323.936035 -0.462874 -0.195135 0.864650
-7516.709961 -3019.977051 -3305.420410 -0.224342 -0.090426 0.970275
-7535.624512 -2903.128174 -3292.015625 -0.105533 0.007599 0.994354
-7463.931152 -2741.588623 -1847.274536 0.317698 -0.420759 -0.849696
-7419.678711 -2962.185791 -3290.549805 0.139348 0.088595 0.986267
-7406.127930 -2650.678955 -1873.673462 0.328593 -0.620197 -0.712272
-7889.386230 -3120.918457 -1869.562744 0.481643 -0.371288 -0.793786
-7535.764160 -2836.470703 -1819.956421 0.396435 -0.452956 -0.798517
-7477.021973 -2864.560547 -3308.049561 0.163182 0.063814 0.984527
-7391.672363 -2867.897949 -3309.385742 -0.479690 -0.019776 0.877194
-7526.608887 -3140.162109 -3318.543701 -0.455153 -0.187353 0.870449
-7582.466309 -3192.921143 -3379.365479 -0.492355 -0.167669 0.854060
-7399.151367 -2795.857910 -3293.644775 -0.854579 -0.182287 0.486221
-7568.973633 -3059.300293 -3327.529541 -0.448286 -0.178564 0.875851
-7537.874512 -2735.664795 -1871.146484 0.369518 -0.430372 -0.823511
-7438.591797 -2664.431152 -3341.472656 -0.348003 -0.328593 0.877987
-7511.920410 -2677.623291 -3313.906006 0.075137 -0.159917 0.984252
-7843.062012 -3042.236816 -1870.277588 0.349284 -0.290628 -0.890774
-7961.439941 -3186.928711 -1875.883179 0.513779 -0.212378 -0.831172
-7979.836914 -3112.493164 -1931.023682 0.509140 -0.378704 -0.772851
-7929.295410 -3047.666260 -1926.751709 0.508591 -0.372021 -0.776452
-8067.324219 -3090.584717 -1997.176514 0.606494 -0.374889 -0.701132
-7988.672852 -3011.393066 -1987.215698 0.538530 -0.385601 -0.749168
-7650.782227 -2639.538818 -3299.364258 -0.149754 -0.885891 0.438978
-7788.118164 -2640.081299 -3383.276855 -0.353618 -0.785058 0.508530
-7540.465820 -2687.218750 -1908.172119 0.357677 -0.579821 -0.731986
-7624.115234 -2688.184570 -3313.507080 -0.166967 -0.161565 0.972625
-7640.961914 -2797.330322 -3317.063965 -0.325938 -0.033845 0.944762
-7702.552734 -2836.387207 -3363.777344 -0.583300 -0.147221 0.798791
-7650.476562 -3237.093750 -3399.801270 -0.167089 0.959075 0.228523
-7632.186523 -2643.145264 -1986.018677 0.274148 -0.798181 -0.536363
-7840.575684 -2639.682373 -2108.098145 0.292886 -0.857173 -0.423597
-7719.739258 -2714.887939 -3353.443848 -0.500168 -0.112461 0.858577
-7802.058594 -2902.904297 -3460.248535 -0.594867 -0.197089 0.779260
-7749.017090 -2938.014893 -3420.439941 -0.608661 -0.204840 0.766503
-7614.782227 -3221.809814 -3399.199463 -0.479568 0.317515 0.818018
-7782.114258 -3181.310303 -1770.341919 0.527879 -0.198126 -0.825861
-7705.655762 -3236.063965 -1737.167236 0.256905 0.747856 -0.612079
-7645.257324 -3080.543213 -3380.992188 -0.555467 -0.186468 0.810327
-7819.143066 -3116.916504 -1820.856079 0.378643 -0.304758 -0.873897
-7633.104980 -2731.683838 -1920.407959 0.356090 -0.391308 -0.848537
-7864.949219 -2952.468018 -1928.495605 0.363109 -0.311777 -0.877987
-7795.515137 -2828.469238 -1964.926758 0.471541 -0.439283 -0.764611
-7683.919922 -2991.257080 -3394.561035 -0.584338 -0.255104 0.770348
-7815.588379 -3019.399414 -3496.565430 -0.569262 -0.158086 0.806787
-7735.024902 -2728.537598 -1976.530884 0.260292 -0.335276 -0.905423
-7751.916016 -3097.943848 -3467.959717 -0.565233 -0.212256 0.797113
-7706.745117 -2652.439697 -3342.348389 -0.444014 -0.316416 0.838282
-7736.508301 -3198.646729 -3491.985840 -0.589221 -0.024323 0.807581
-7786.019531 -2652.797119 -2058.420898 0.402234 -0.635914 -0.658589
-7742.044922 -3232.642090 -3483.735107 -0.340587 0.801935 0.490768
-7870.751953 -2807.884521 -2018.574463 0.471816 -0.413617 -0.778619
-7806.764160 -3233.269043 -1794.042969 0.379254 0.722739 -0.577715
-7782.474609 -2765.057861 -3414.118896 -0.589923 -0.168371 0.789697
-7863.152344 -2855.219238 -3489.470947 -0.595660 -0.174902 0.783929
-7892.870117 -3229.495850 -3584.572021 -0.417310 0.687460 0.594287
-8084.866211 -2872.878418 -3631.229736 0.722861 -0.155095 0.673330
-7991.427246 -2812.264160 -2090.161377 0.536515 -0.436048 -0.722465
-8019.701172 -2946.629150 -2038.865723 0.562700 -0.372570 -0.737907
-7927.243652 -3233.253906 -1856.139526 0.346995 0.684530 -0.641072
-7862.641113 -2652.808105 -3443.928223 -0.636891 -0.061678 0.768456
-7931.069336 -2788.314697 -3534.312744 -0.579302 -0.157292 0.799768
-7938.785645 -3237.117920 -3592.327393 -0.125797 0.976287 0.176061
-8002.550293 -2783.745605 -3570.070801 -0.591693 -0.147435 0.792535
-8086.894531 -3169.690186 -1975.461548 0.892148 -0.102908 -0.439802
-7971.081543 -2652.164551 -2185.104248 0.450209 -0.680990 -0.577502
-7984.383301 -3217.227539 -3659.593506 -0.480911 0.363811 0.797693
-8017.925293 -3110.308838 -3656.534424 -0.445479 -0.158452 0.881130
-8075.142090 -3230.455322 -3697.498291 0.371776 0.559771 0.740532
-8085.292480 -3006.612549 -2065.675049 0.893796 -0.214331 -0.393902
-8084.643555 -2783.839844 -2194.183838 0.893338 -0.245216 -0.376537
-8086.240723 -3182.878906 -3691.030518 0.631336 -0.037904 0.774560
3 0 1 2
3 3 4 5
3 6 7 8
3 9 10 11
3 12 11 13
3 12 13 14
3 1 15 16
3 17 16 18
3 17 18 19
3 19 18 20
3 21 1 17
3 22 23 24
3 25 24 26
3 15 0 24
3 0 15 1
3 25 15 24
3 1 16 17
3 27 28 29
3 2 30 4
3 31 15 25
3 15 32 16
3 15 31 32
3 0 2 22
3 22 2 4
3 33 3 5
3 5 4 30
3 1 21 2
3 34 31 25
3 18 32 35
3 16 32 18
3 31 36 32
3 37 38 31
3 36 38 39
3 22 24 0
3 34 25 40
3 28 41 29
3 34 37 31
3 34 40 42
3 38 37 43
3 43 44 38
3 38 44 45
3 38 45 14
3 38 36 31
3 43 45 44
3 11 12 46
3 11 46 9
3 47 9 48
3 49 50 51
3 52 53 54
3 55 56 57
3 55 57 58
3 59 60 61
3 61 60 62
3 38 14 39
3 39 14 13
3 21 17 30
3 43 37 34
3 63 64 65
3 65 66 63
3 32 36 35
3 45 67 63
3 22 3 23
3 22 4 3
3 26 24 23
3 40 25 26
3 42 43 34
3 68 42 40
3 68 40 69
3 17 19 70
3 45 43 42
3 45 42 67
3 18 35 71
3 18 71 20
3 12 72 73
3 14 45 72
3 23 74 26
3 26 74 75
3 76 77 78
3 78 77 74
3 77 79 80
3 81 79 82
3 81 82 83
3 75 84 69
3 69 84 85
3 40 26 75
3 2 21 30
3 17 70 30
3 72 45 86
3 14 72 12
3 74 23 3
3 19 20 70
3 36 39 13
3 36 13 10
3 86 45 63
3 72 86 73
3 36 10 35
3 35 10 71
3 13 11 10
3 73 87 12
3 74 3 88
3 74 88 78
3 75 69 40
3 20 71 8
3 73 89 90
3 91 92 46
3 89 73 86
3 68 69 67
3 70 20 93
3 93 30 70
3 93 20 7
3 7 20 8
3 71 10 8
3 8 94 6
3 6 95 7
3 96 95 97
3 98 99 100
3 86 63 89
3 12 87 46
3 91 90 50
3 91 50 92
3 74 77 75
3 75 77 84
3 69 85 67
3 68 67 42
3 10 94 8
3 95 6 47
3 73 90 87
3 95 47 98
3 9 46 48
3 90 91 87
3 90 101 50
3 33 88 3
3 93 102 103
3 10 9 94
3 94 9 6
3 87 91 46
3 48 46 92
3 76 78 88
3 76 88 104
3 104 88 33
3 84 77 80
3 7 102 93
3 89 63 105
3 90 89 105
3 90 105 101
3 106 76 104
3 84 107 108
3 30 93 103
3 109 110 111
3 112 113 114
3 114 113 115
3 116 117 118
3 116 118 119
3 120 121 119
3 120 122 123
3 123 124 120
3 125 126 127
3 7 95 102
3 9 47 6
3 101 128 50
3 85 108 67
3 129 76 106
3 129 77 76
3 84 81 107
3 107 130 108
3 47 48 98
3 101 105 128
3 128 131 51
3 128 51 50
3 33 5 132
3 33 132 104
3 81 84 80
3 108 85 84
3 67 108 130
3 67 130 63
3 102 95 96
3 133 134 135
3 92 50 49
3 136 103 137
3 136 30 103
3 107 83 130
3 130 83 138
3 63 130 139
3 102 96 103
3 95 98 97
3 97 98 100
3 100 99 140
3 99 141 142
3 143 144 145
3 48 92 146
3 52 146 51
3 52 51 53
3 5 30 147
3 41 147 148
3 132 5 28
3 77 129 79
3 149 128 63
3 99 48 146
3 48 99 98
3 149 131 128
3 49 146 92
3 146 49 51
3 27 150 132
3 106 104 150
3 150 104 132
3 103 96 151
3 96 97 151
3 105 63 128
3 151 97 152
3 152 100 140
3 140 99 142
3 97 100 152
3 141 52 153
3 141 153 142
3 147 30 136
3 147 136 148
3 41 148 136
3 41 136 154
3 154 136 137
3 28 5 41
3 132 28 27
3 155 103 156
3 131 149 53
3 146 141 99
3 141 146 52
3 129 106 79
3 80 79 81
3 157 153 158
3 159 158 143
3 160 161 162
3 163 140 157
3 140 142 157
3 51 131 53
3 54 164 162
3 52 54 165
3 153 52 165
3 5 147 41
3 166 106 150
3 167 150 27
3 167 27 168
3 27 29 168
3 79 169 82
3 79 106 170
3 53 149 164
3 164 149 63
3 152 140 163
3 170 106 166
3 171 172 109
3 107 81 83
3 130 138 139
3 151 152 163
3 54 53 164
3 166 150 167
3 166 167 173
3 173 171 109
3 174 175 176
3 163 157 177
3 142 153 157
3 178 166 179
3 170 169 79
3 169 170 166
3 169 166 178
3 180 181 182
3 163 183 151
3 184 185 186
3 163 177 187
3 163 187 183
3 54 144 165
3 165 144 158
3 158 144 143
3 145 144 161
3 153 165 158
3 54 162 144
3 151 183 103
3 185 188 186
3 158 188 157
3 157 185 177
3 159 189 190
3 82 169 182
3 82 182 83
3 191 83 182
3 189 159 143
3 188 158 186
3 186 158 159
3 187 177 185
3 187 185 184
3 188 185 157
3 179 166 173
3 169 180 182
3 169 178 180
3 126 191 192
3 103 183 184
3 183 187 184
3 184 193 194
3 167 168 171
3 83 191 195
3 184 186 193
3 138 83 195
3 164 160 162
3 144 162 161
3 168 29 171
3 172 171 154
3 167 171 173
3 164 63 160
3 134 156 196
3 134 196 135
3 160 63 197
3 156 103 196
3 186 159 193
3 193 159 198
3 143 199 189
3 29 41 154
3 179 173 200
3 182 181 191
3 180 178 181
3 201 116 120
3 103 184 194
3 202 203 204
3 204 203 205
3 205 206 207
3 208 209 210
3 211 212 213
3 199 143 214
3 215 216 217
3 198 159 190
3 194 193 218
3 190 203 198
3 171 29 154
3 193 198 218
3 189 199 190
3 205 190 199
3 203 190 205
3 203 202 198
3 178 179 181
3 191 126 195
3 195 126 219
3 220 221 222
3 222 221 135
3 160 197 161
3 143 145 214
3 145 161 214
3 214 161 223
3 218 198 202
3 218 202 224
3 225 204 226
3 227 228 209
3 215 223 216
3 194 224 103
3 194 218 224
3 224 202 229
3 181 179 200
3 138 195 219
3 196 103 135
3 161 197 223
3 192 181 174
3 174 230 192
3 231 197 63
3 197 231 223
3 103 232 135
3 202 204 229
3 224 229 233
3 172 154 137
3 174 200 175
3 181 200 174
3 192 230 112
3 127 112 114
3 191 181 192
3 138 234 139
3 224 233 103
3 204 205 207
3 234 219 124
3 234 138 219
3 139 234 63
3 214 223 215
3 199 214 206
3 235 236 237
3 237 236 238
3 109 172 110
3 239 137 103
3 175 200 173
3 214 215 206
3 205 199 206
3 204 225 229
3 229 225 237
3 172 137 110
3 109 111 173
3 173 111 175
3 207 228 226
3 204 207 226
3 233 229 237
3 137 239 110
3 219 126 125
3 234 124 240
3 234 240 63
3 216 231 63
3 231 216 223
3 207 206 228
3 174 176 230
3 230 176 241
3 217 242 209
3 206 215 217
3 225 226 235
3 233 243 103
3 233 237 243
3 111 110 239
3 192 112 126
3 126 112 127
3 201 125 127
3 124 219 125
3 242 244 209
3 206 217 228
3 245 246 236
3 225 235 237
3 175 111 176
3 112 230 241
3 120 125 201
3 63 240 64
3 216 242 217
3 226 227 235
3 111 247 176
3 247 111 248
3 249 247 248
3 216 63 250
3 228 217 209
3 238 251 252
3 253 254 103
3 124 125 120
3 122 120 119
3 242 216 250
3 244 250 210
3 209 244 210
3 228 227 226
3 243 237 238
3 111 239 248
3 176 247 249
3 241 113 112
3 124 123 255
3 227 209 208
3 227 208 245
3 235 227 236
3 243 238 253
3 238 252 253
3 248 239 256
3 239 103 256
3 121 116 119
3 240 255 64
3 240 124 255
3 242 250 244
3 251 238 236
3 176 249 241
3 127 114 201
3 201 114 116
3 257 119 258
3 258 119 118
3 210 250 212
3 227 245 236
3 241 249 113
3 255 123 259
3 259 123 122
3 259 122 257
3 260 258 261
3 262 261 117
3 263 261 262
3 212 250 63
3 211 210 212
3 213 212 264
3 211 208 210
3 213 264 265
3 213 265 266
3 267 268 269
3 267 269 270
3 267 270 271
3 272 271 222
3 251 246 252
3 273 253 252
3 274 275 276
3 245 208 211
3 249 248 277
3 115 277 278
3 115 278 279
3 280 279 117
3 117 261 118
3 118 261 258
3 248 256 277
3 65 64 255
3 211 281 245
3 245 281 282
3 283 282 284
3 266 285 213
3 103 243 253
3 273 283 286
3 287 286 254
3 288 289 290
3 236 246 251
3 253 273 287
3 65 255 291
3 291 255 259
3 291 259 274
3 211 213 281
3 245 282 246
3 286 292 289
3 246 283 252
3 252 283 273
3 277 113 249
3 115 113 277
3 280 115 279
3 120 116 121
3 65 293 66
3 294 291 295
3 292 296 290
3 246 282 283
3 257 122 119
3 212 63 265
3 281 213 297
3 292 297 296
3 283 292 286
3 254 286 298
3 254 298 299
3 277 256 278
3 256 103 263
3 114 115 280
3 114 280 116
3 116 280 117
3 293 65 291
3 265 264 212
3 213 300 297
3 281 297 282
3 282 297 284
3 284 297 292
3 299 298 301
3 253 287 254
3 117 279 262
3 279 278 263
3 257 275 274
3 302 293 291
3 63 220 271
3 271 220 222
3 300 213 285
3 300 285 297
3 297 285 296
3 283 284 292
3 273 286 287
3 278 256 263
3 259 257 274
3 265 63 266
3 266 303 285
3 285 303 304
3 275 257 258
3 291 274 295
3 302 291 305
3 305 291 294
3 294 306 307
3 308 309 310
3 266 63 311
3 311 63 312
3 303 266 304
3 296 285 290
3 293 302 313
3 292 290 289
3 286 289 298
3 285 304 314
3 288 315 316
3 290 285 315
3 290 315 288
3 66 293 313
3 103 254 317
3 285 314 315
3 279 263 262
3 66 318 319
3 314 320 315
3 321 322 316
3 289 301 298
3 254 299 323
3 275 324 276
3 263 103 325
3 266 311 304
3 304 311 314
3 289 288 301
3 66 319 63
3 299 301 326
3 294 295 327
3 328 313 329
3 329 313 308
3 318 313 328
3 318 328 330
3 330 328 329
3 313 318 66
3 288 331 301
3 331 322 332
3 323 317 254
3 261 263 325
3 261 325 260
3 333 318 330
3 331 288 322
3 326 331 334
3 258 324 275
3 311 335 314
3 326 334 323
3 301 331 326
3 336 323 334
3 258 260 324
3 318 333 337
3 320 314 335
3 299 326 323
3 317 323 338
3 323 336 338
3 320 316 315
3 339 333 330
3 318 337 319
3 335 312 320
3 288 316 322
3 260 325 340
3 260 340 324
3 324 340 276
3 313 302 308
3 335 311 312
3 316 320 341
3 331 332 334
3 274 276 327
3 327 295 274
3 325 103 340
3 337 333 339
3 316 341 342
3 342 321 316
3 103 338 343
3 334 332 57
3 338 336 56
3 56 55 343
3 61 62 344
3 336 334 56
3 308 302 305
3 337 339 345
3 345 346 133
3 320 312 341
3 334 57 56
3 276 340 347
3 276 347 306
3 340 103 347
3 63 270 269
3 103 317 338
3 341 312 348
3 341 348 268
3 341 268 342
3 322 321 332
3 57 332 58
3 338 56 343
3 327 276 294
3 308 305 294
3 312 269 348
3 342 268 349
3 321 342 332
3 103 343 350
3 339 330 346
3 337 345 319
3 312 63 269
3 348 269 268
3 58 332 59
3 332 342 59
3 294 276 306
3 60 349 351
3 351 349 267
3 342 60 59
3 55 58 59
3 306 155 352
3 308 294 307
3 329 308 310
3 346 329 310
3 319 345 353
3 319 353 63
3 222 135 344
3 268 267 349
3 354 355 356
3 347 103 155
3 330 329 346
3 342 349 60
3 55 59 355
3 343 55 354
3 63 353 220
3 155 156 134
3 62 272 344
3 350 343 354
3 306 347 155
3 308 307 309
3 352 307 306
3 357 310 309
3 357 309 352
3 345 339 346
3 221 345 358
3 270 63 271
3 60 351 62
3 62 351 272
3 103 350 356
3 55 355 354
3 346 310 357
3 133 357 134
3 351 267 272
3 61 344 359
3 355 59 61
3 355 61 359
3 350 354 356
3 352 309 307
3 346 357 133
3 358 345 133
3 353 221 220
3 221 353 345
3 271 272 267
3 352 155 134
3 232 103 356
3 272 222 344
3 355 359 356
3 134 357 352
3 358 133 135
3 221 358 135
3 135 232 359
3 232 356 359
3 344 135 359
