ply
format ascii 1.0
comment Created by Blender 2.80 (sub 75) - www.blender.org, source file: 'color_and_decimate.blend'
element vertex 285
property float x
property float y
property float z
property float nx
property float ny
property float nz
element face 566
property list uchar uint vertex_indices
end_header
-6692.463867 -2653.282959 -5827.149902 -0.935942 -0.350352 -0.034883
-6711.573242 -2706.268311 -5817.959473 -0.984771 0.172460 -0.020569
-6711.341797 -2657.452637 -5583.367188 -0.938871 -0.343699 -0.019288
-6727.164062 -2639.760742 -5599.210449 -0.385937 -0.922178 -0.023927
-6711.598145 -2658.233154 -5119.150879 -0.881344 -0.413282 -0.228919
-6784.871582 -2688.775146 -4998.782227 -0.842280 0.090243 -0.531388
-6748.494141 -2774.716553 -5127.289551 -0.894070 0.315867 -0.317545
-6822.052734 -2765.184814 -4987.904785 -0.809656 0.313822 -0.495895
-6906.373047 -2866.935303 -4912.878906 -0.936064 0.119236 -0.330943
-6905.765137 -2998.732178 -4876.550781 -0.794214 -0.229041 0.562761
-6908.895996 -2893.678711 -4856.170898 -0.899747 -0.197760 0.388989
-6865.825684 -2906.614014 -4825.455078 -0.359508 -0.275674 0.891476
-7377.805664 -2756.808105 -4377.967285 0.640309 0.229316 -0.733055
-7348.564941 -2664.037109 -4315.729980 0.677023 -0.158208 -0.718711
-7241.614746 -2811.476562 -4292.192383 0.539628 0.299875 -0.786676
-7148.229492 -2703.568115 -4171.480957 0.406476 0.211890 -0.888730
-6735.175293 -2698.470703 -4758.000000 -0.730430 -0.108127 0.674337
-6885.937500 -2769.162109 -4789.022949 -0.353923 -0.305887 0.883816
-6740.791016 -2806.870850 -4784.896973 -0.772912 0.006867 0.634449
-6789.970703 -2994.823486 -4838.002930 -0.762291 -0.036714 0.646138
-6766.185059 -2942.879639 -4824.502930 -0.770379 0.022736 0.637135
-6736.551758 -2847.117188 -5961.027832 -0.971984 0.233894 -0.022980
-6714.001953 -2799.308105 -5953.761230 -0.971068 0.238441 -0.011048
-6725.978027 -2842.128174 -6206.544922 -0.767998 -0.123051 0.628498
-6738.323730 -2947.112793 -6077.366211 -0.966796 0.254219 -0.024781
-6742.516602 -2966.855713 -6252.791504 -0.741997 0.040773 0.669149
-6764.173340 -3009.415527 -6259.026367 -0.833186 0.082705 0.546709
-6763.878418 -3121.261475 -6318.084961 -0.876309 0.101657 0.470840
-6761.505859 -2995.778320 -6083.149414 -0.972594 0.232154 -0.011231
-6799.541992 -3232.473877 -6404.712891 -0.508164 0.447676 0.735740
-7116.998535 -3237.430420 -5326.554199 0.005005 0.998169 -0.060121
-6826.475098 -3235.078857 -5777.432617 -0.393170 0.918485 -0.041932
-6786.664551 -3078.220215 -5524.662598 -0.972900 0.229591 -0.026399
-6789.704102 -3167.875244 -5424.890137 -0.905545 0.344951 -0.246925
-6790.705078 -3072.362305 -5355.477051 -0.904630 0.367779 -0.215217
-6761.367676 -2927.956787 -5400.655273 -0.974425 0.222175 -0.033326
-6739.250977 -2866.655273 -5274.339844 -0.953154 0.285501 -0.099765
-6738.954102 -2893.657715 -5597.662598 -0.982055 0.187384 -0.021241
-6792.106445 -3148.559814 -6352.431641 -0.580065 -0.343730 0.738456
-6954.654785 -3218.519287 -6351.218750 0.422803 0.098788 0.900784
-6826.532227 -3220.940430 -6401.243652 0.234382 -0.105594 0.966369
-7095.588379 -3233.873535 -6263.478027 0.447554 0.630757 0.633869
-7174.819824 -3236.747314 -6078.794434 0.131748 0.986785 0.094089
-6867.054688 -3064.052490 -5116.502441 -0.933653 0.277383 -0.226478
-6907.932129 -3166.769531 -5121.873535 -0.961638 0.255531 -0.099460
-6916.932617 -3092.798828 -5001.419922 -0.998657 0.009522 0.050722
-6807.967285 -3038.237305 -6278.958984 0.160070 -0.466872 0.869686
-6946.843750 -3042.598145 -6207.545410 0.422498 -0.506394 0.751671
-6914.306152 -3120.871338 -6285.489746 0.347484 -0.575732 0.740104
-6709.352051 -2707.315430 -6038.062500 -0.990600 0.136479 0.007233
-6700.719238 -2641.892090 -6125.639160 -0.560289 -0.768029 0.310129
-7322.327148 -2640.785645 -5329.844727 0.394513 -0.886990 0.239875
-6784.594727 -2637.663086 -5015.610840 -0.541429 -0.768059 -0.341868
-6922.710938 -2637.643066 -4811.167480 -0.428632 -0.903104 -0.025849
-7761.458984 -2642.476562 -4874.791016 0.505112 -0.858089 -0.092318
-7770.283203 -2714.527588 -5067.584473 0.501846 -0.805200 0.315867
-7631.848633 -2639.031006 -5106.918945 -0.161901 -0.892911 0.420057
-6758.777832 -2884.249023 -6224.393555 0.181890 -0.382702 0.905759
-6872.704590 -2842.423096 -6140.852539 0.512131 -0.417554 0.750542
-7162.579590 -2918.841553 -5844.580566 0.636769 -0.545549 0.544847
-7285.047363 -3193.310059 -6001.636719 0.539201 -0.568194 0.621570
-7035.513672 -2976.646729 -6031.075684 0.788293 -0.542802 0.289743
-6688.107910 -2682.128174 -6150.890625 -0.824549 -0.120090 0.552843
-6723.266602 -2741.469971 -6175.368164 -0.475906 -0.171941 0.862514
-6738.948242 -2657.939453 -6142.426270 0.229957 -0.623249 0.747429
-6720.682617 -2652.085693 -4564.419922 -0.949675 -0.311686 -0.030396
-6737.021973 -2707.144775 -4567.291992 -0.988220 0.151860 -0.018311
-6737.276367 -2645.841797 -4321.391113 -0.746361 -0.665365 -0.013520
-6735.812500 -2702.119629 -4089.011719 -0.819666 0.247963 -0.516373
-6750.115234 -2645.586426 -4072.391602 -0.542650 -0.598559 -0.589221
-6799.110840 -2691.442871 -4060.574951 -0.038392 0.260567 -0.964690
-6784.810547 -2756.565186 -4105.989258 -0.388623 0.458632 -0.799097
-6764.729004 -2872.953369 -4800.677246 -0.748497 -0.056063 0.660756
-6742.820312 -2807.507568 -4682.469727 -0.956725 0.289682 -0.026673
-6729.520996 -2641.584229 -4743.100098 -0.618580 -0.614612 0.489456
-6722.275879 -2751.254395 -5278.103027 -0.987091 0.153508 -0.045015
-6736.881836 -2810.827881 -5599.564941 -0.966552 0.254646 -0.030030
-6713.382324 -2750.589844 -5483.940430 -0.978149 0.204352 -0.037385
-6713.539062 -2784.486328 -5725.732422 -0.960936 0.275216 -0.028504
-6763.919434 -3055.303223 -5765.884277 -0.969909 0.242164 -0.024506
-6759.924805 -2955.467041 -5631.345703 -0.981323 0.191198 -0.020173
-6761.187500 -2982.982178 -5880.812500 -0.981536 0.189978 -0.021363
-6786.320312 -3102.143555 -5774.014160 -0.969543 0.243568 -0.025056
-6786.034180 -3130.245850 -6092.456543 -0.948668 0.315317 -0.023347
-6790.528809 -3215.289307 -5901.941406 -0.864803 0.501785 -0.017335
-6739.703613 -2919.221924 -5845.085449 -0.982086 0.187170 -0.021058
-6763.738770 -3082.302490 -5995.586914 -0.963225 0.267403 -0.025117
-7038.857910 -2770.983154 -5852.687500 0.683340 -0.484664 0.545976
-6944.000977 -2653.970703 -5886.233887 0.609394 -0.626881 0.485397
-7016.818848 -2639.374512 -5761.422852 0.385998 -0.872494 0.299478
-6971.299316 -2824.774902 -5989.656250 0.767846 -0.495407 0.406140
-6941.105469 -2796.141602 -6048.828125 0.776513 -0.519883 0.355968
-6894.494629 -2738.253418 -5997.716309 0.836360 -0.518021 0.179174
-6865.842773 -2644.702148 -6039.807129 0.630512 -0.743370 0.223212
-6845.356445 -2638.048584 -5977.183594 0.345653 -0.931089 0.116489
-6925.485352 -2736.259033 -4112.675293 0.292306 0.384198 -0.875729
-6783.916504 -2840.671631 -4116.276855 -0.475814 0.242592 -0.845393
-6818.249023 -2925.534912 -4155.789062 -0.087191 0.364086 -0.927244
-6763.281738 -2925.633789 -4584.459473 -0.972655 0.231483 -0.017945
-6750.324707 -2782.336426 -4217.604004 -0.983520 0.159246 -0.085360
-6739.387695 -2769.190674 -4446.630859 -0.989624 0.138493 -0.037477
-6761.172852 -2832.776367 -4480.461914 -0.976074 0.215247 -0.029908
-6771.302246 -2921.217529 -5224.046387 -0.883328 0.361644 -0.298166
-6765.193848 -3017.973389 -5325.390625 -0.877926 0.368816 -0.305216
-6763.236816 -3025.727539 -5509.835938 -0.973754 0.226234 -0.023988
-6838.887207 -3234.685791 -5415.801758 -0.516617 0.837764 -0.176611
-6788.953613 -3177.961182 -5654.777832 -0.946043 0.323283 -0.020722
-6958.072754 -2637.750000 -4118.972656 0.117313 -0.952544 -0.280801
-6903.475586 -2655.285645 -4065.885254 0.220832 -0.332408 -0.916898
-6768.652832 -2898.585693 -4164.773438 -0.835963 0.305979 -0.455489
-6822.236328 -3116.993164 -4303.467773 -0.696799 0.585040 -0.414960
-6809.984863 -3101.687256 -4501.516602 -0.969878 0.241005 -0.035279
-6814.469727 -3195.417480 -4404.952148 -0.825098 0.501785 -0.259651
-6797.135254 -2998.716797 -4194.927246 -0.639027 0.438765 -0.631733
-6786.887695 -2974.601807 -4590.007324 -0.967956 0.250893 -0.008911
-6774.437012 -2928.649658 -4372.937988 -0.989227 0.146184 0.004578
-6788.773926 -3041.125244 -4302.089355 -0.946104 0.305856 -0.106265
-7570.109375 -2637.976074 -5018.228027 -0.000824 -0.981384 0.192022
-7380.386230 -2638.969971 -5216.102539 0.319437 -0.918149 0.234382
-6850.862305 -3005.136963 -5150.307129 -0.906705 0.307291 -0.288766
-6860.795410 -2724.225098 -6088.887207 0.596423 -0.382214 0.705771
-6896.975098 -2637.706543 -4741.485840 -0.221503 -0.918729 0.326853
-7010.805176 -3218.370850 -4369.505371 0.004364 0.823511 -0.567248
-6856.147461 -3236.363770 -4439.653320 -0.337046 0.919675 -0.201453
-7184.523926 -3232.258057 -4396.986328 0.175451 0.820490 -0.544053
-7182.605469 -3237.472168 -5011.727051 -0.016358 0.996185 0.085513
-6838.859863 -3085.975342 -4222.673340 -0.335337 0.680441 -0.651509
-6794.687500 -3086.572754 -4709.439941 -0.991607 0.128880 0.008911
-6831.161133 -3236.286133 -4641.196777 -0.521592 0.852901 -0.021393
-6821.127930 -3229.879639 -4928.679199 -0.736198 0.562944 0.375561
-7820.312012 -3231.307617 -4792.414551 0.435865 0.744499 -0.505661
-7900.774902 -3231.598389 -4843.147949 0.356120 0.706931 -0.611042
-7939.250488 -3102.262939 -5487.835449 -0.010529 -0.804529 0.593799
-7889.904785 -3191.326660 -5622.451660 0.215430 -0.635609 0.741295
-7815.380859 -3138.528076 -5564.533203 0.211463 -0.819758 0.532182
-7876.318848 -2933.252686 -5331.557129 0.139683 -0.693869 0.706381
-7776.146973 -2810.558105 -5256.875488 0.076510 -0.613269 0.786126
-7881.196777 -2827.960693 -5183.651855 0.446944 -0.786218 0.426710
-8037.794434 -2923.465332 -5014.855957 0.742576 -0.642659 -0.188452
-8038.629883 -2973.992920 -4915.354004 0.705741 -0.234169 -0.668630
-8093.188477 -3009.507080 -4975.559082 0.813868 -0.399335 -0.422040
-6803.112305 -3106.415771 -4867.630859 -0.882168 -0.096683 0.460860
-6813.500977 -3200.321289 -4597.082520 -0.942717 0.329264 -0.053407
-6917.925293 -3215.905029 -5048.187988 -0.945463 0.278695 0.168401
-6868.432129 -3106.626221 -4918.221680 -0.708640 -0.368938 0.601398
-6856.979004 -2914.781494 -5033.422363 -0.864864 0.302499 -0.400586
-6869.429688 -2973.529541 -4171.839844 0.100284 0.338694 -0.935514
-6855.399414 -3173.466797 -4336.716797 -0.297617 0.719779 -0.627155
-7507.067871 -2749.623291 -4497.547363 0.727470 0.154210 -0.668569
-7488.251953 -2648.374268 -4448.527832 0.633778 -0.553758 -0.539994
-7444.909180 -2834.888428 -4459.092285 0.652913 0.162908 -0.739677
-7659.103027 -2783.697266 -4671.866699 0.581622 0.179846 -0.793298
-7817.409180 -2884.401855 -4791.034180 0.499008 0.128239 -0.857021
-7767.918945 -3064.091064 -4750.536621 0.589282 -0.042238 -0.806787
-7781.710449 -3215.659424 -4747.102539 0.604938 0.270669 -0.748833
-7871.462402 -3234.792236 -5647.018066 0.313395 0.622059 0.717490
-8055.549316 -3156.623291 -5568.913086 0.151769 -0.744438 0.650166
-8071.256348 -3235.269287 -5613.910645 -0.062075 0.592883 0.802850
-8115.508789 -3224.391846 -5626.941406 0.201209 0.198492 0.959197
-8172.532715 -3184.751709 -5560.601562 0.375439 -0.768456 0.518113
-8327.977539 -3189.743896 -5404.105957 0.653584 -0.688375 0.314524
-8271.458008 -3140.818604 -5333.675293 0.518174 -0.827174 0.217292
-8343.465820 -3190.334473 -5268.177246 0.773339 -0.625111 -0.105472
-8220.142578 -3080.059326 -5187.813477 0.571306 -0.817103 -0.076968
-7291.900879 -3183.589844 -4417.253906 0.431715 0.333048 -0.838221
-7195.350586 -3079.096436 -4336.066895 0.389630 0.270241 -0.880398
-7301.913086 -3233.436523 -4452.836914 0.222999 0.858913 -0.460982
-6906.633301 -2678.224609 -4818.633789 -0.957640 0.047517 -0.283975
-6938.408203 -2780.250000 -4835.993652 -0.998352 0.005554 0.057100
-6927.235352 -3234.602051 -5023.615723 -0.244484 0.962035 0.121097
-6919.222656 -3229.824707 -5263.914551 -0.439283 0.884182 -0.158666
-7075.904297 -2656.422607 -4149.136719 0.296152 -0.095065 -0.950377
-6985.815430 -2774.393799 -4157.641602 0.268563 0.272256 -0.923948
-7408.118652 -3233.095215 -4505.842285 0.300333 0.807611 -0.507462
-7653.433105 -3214.263184 -4658.835938 0.557482 0.269906 -0.785058
-7688.943359 -2910.426270 -4678.137695 0.509445 -0.029267 -0.859981
-7712.450195 -3119.930664 -4698.423828 0.608844 0.004578 -0.793237
-7067.366699 -3048.557861 -6138.166992 0.667959 -0.561296 0.488601
-7023.222656 -2947.366211 -6092.323242 0.778252 -0.542192 0.316752
-7118.546387 -3102.481689 -6073.238281 0.720328 -0.590716 0.363506
-7195.600098 -3220.234131 -6104.601074 0.918729 0.224158 0.325053
-7197.575684 -3223.795654 -6182.166992 0.874416 0.287912 0.390454
-6953.221680 -3098.987793 -4254.107422 0.151250 0.576495 -0.802942
-7003.195801 -2979.429932 -4218.848633 0.370342 0.331309 -0.867763
-7701.429199 -2640.658936 -4763.407227 0.434004 -0.879971 -0.192999
-6866.329102 -3168.147217 -5274.764160 -0.818018 0.453108 -0.354198
-7636.502930 -2639.694580 -4608.197754 0.499039 -0.647206 -0.576220
-7699.684082 -2700.671875 -4652.399414 0.709555 -0.105869 -0.696616
-7866.155273 -2840.191650 -4799.324219 0.672384 -0.203497 -0.711661
-7861.617188 -2744.139160 -4976.761719 0.669668 -0.742485 -0.015625
-8015.722168 -3234.236084 -4938.768066 0.418561 0.737724 -0.529649
-8176.332031 -3237.426025 -5073.773926 0.297891 0.836604 -0.459670
-7015.494141 -2826.206543 -4171.069336 0.293283 0.259743 -0.920042
-7488.354980 -2637.586914 -4580.675781 0.075472 -0.993866 -0.080477
-7060.839844 -3235.349365 -5159.002930 0.147313 0.989044 0.005707
-7127.611328 -3213.646973 -5081.892090 0.489364 0.748741 0.447066
-7257.731445 -3235.524170 -5183.709961 -0.128574 0.990753 -0.042726
-7134.112793 -3211.401367 -5253.331055 0.053896 0.969817 -0.237678
-7116.038086 -2690.114502 -5694.460449 0.673696 -0.532701 0.512162
-7179.062988 -2640.160889 -5549.809082 0.410291 -0.867031 0.282632
-7149.573730 -2806.728760 -5759.385254 0.714377 -0.475173 0.513627
-7138.151855 -2830.456787 -4242.992188 0.453169 0.367016 -0.812342
-7052.047852 -3126.130859 -4303.255859 0.266366 0.470931 -0.840968
-7292.368652 -2860.894287 -5629.790527 0.620838 -0.575304 0.532517
-7249.602539 -2738.448730 -5550.571777 0.708335 -0.536027 0.459212
-7341.474609 -2779.863525 -5469.328125 0.641438 -0.594104 0.485336
-7097.463867 -3198.840820 -6254.391602 0.532365 -0.412244 0.739311
-7151.227539 -2967.215332 -4293.100586 0.401379 0.254067 -0.879940
-7532.919434 -2662.396973 -4526.866699 0.651906 -0.536851 -0.535508
-7191.650879 -2644.219727 -4191.162109 0.416944 -0.621143 -0.663533
-7028.543457 -2902.288574 -5983.628906 0.670400 -0.460768 0.581561
-7226.466797 -2910.963135 -4311.700195 0.472518 0.215644 -0.854518
-7216.712402 -3212.161621 -5105.166992 -0.546007 0.801935 0.242317
-7405.671387 -2643.312012 -4389.268555 0.514664 -0.669240 -0.535905
-7553.815918 -3207.802002 -4584.721680 0.556139 0.327708 -0.763726
-7428.765625 -3161.718994 -4490.266602 0.505112 0.215339 -0.835719
-7563.718262 -2999.359619 -4585.230469 0.686178 0.016785 -0.727226
-7344.438477 -3225.974121 -5977.825195 0.549120 0.007874 0.835688
-7283.683594 -2639.310303 -4282.833984 0.280313 -0.906034 -0.316965
-7268.747070 -2649.308594 -5424.316406 0.679708 -0.575579 0.454573
-7441.428223 -2764.133545 -5310.691895 0.606159 -0.652181 0.455153
-7446.510254 -2812.588379 -5383.182617 0.586840 -0.670888 0.453291
-7231.913574 -2933.109619 -5769.022461 0.627979 -0.593585 0.503220
-7313.714355 -2997.385254 -5752.659180 0.568346 -0.631550 0.527299
-7450.503418 -3055.183350 -5696.555664 0.458724 -0.722495 0.517197
-7519.362793 -2976.837646 -5515.759766 0.480117 -0.697623 0.531724
-7583.230469 -3045.592529 -5569.047852 0.384075 -0.768059 0.512375
-7596.557617 -3235.142334 -4637.299316 0.260598 0.886746 -0.381726
-7333.482422 -3096.666992 -5852.554199 0.507248 -0.663686 0.549699
-7302.231445 -3009.544678 -4380.668457 0.541551 0.209082 -0.814234
-7353.351562 -2908.401855 -4401.876465 0.598285 0.145665 -0.787896
-7551.140137 -3232.975586 -5845.325195 0.450789 0.568072 0.688498
-7591.253418 -3139.424805 -5706.379883 0.388318 -0.765038 0.513688
-7725.329590 -3220.898193 -5726.719727 0.392102 -0.657704 0.643147
-7527.108887 -3197.378174 -5845.305664 0.464339 -0.587420 0.662770
-7409.763184 -3035.643799 -4461.549316 0.550432 0.111423 -0.827387
-7494.400879 -3088.555908 -4519.690430 0.607746 0.080782 -0.789972
-7439.900879 -2910.972656 -5522.459473 0.571429 -0.650441 0.500351
-7507.100586 -2901.190430 -4522.427246 0.673727 0.048982 -0.737327
-7547.289062 -2753.125000 -5175.205566 0.414472 -0.722190 0.553697
-7717.302734 -3234.101562 -4713.191895 0.375042 0.756890 -0.535142
-7462.260742 -3145.796387 -5810.057129 0.419660 -0.775140 0.472213
-7482.236816 -2649.918213 -5111.578125 0.667989 -0.403424 0.625263
-7521.580566 -2842.249512 -5328.763672 0.491195 -0.716971 0.494583
-7620.369141 -2924.575928 -5359.813477 0.368908 -0.746849 0.553240
-7696.939453 -2857.256592 -5234.143555 -0.081210 -0.564409 0.821467
-7853.431641 -3022.299561 -4813.234375 0.585101 -0.013001 -0.810816
-7634.873047 -2811.751709 -5196.745605 -0.006836 -0.652760 0.757500
-7724.654297 -2765.024658 -5229.077637 0.016724 -0.587512 0.809015
-7707.811523 -3134.857910 -5617.787598 0.314035 -0.786859 0.531236
-7564.937500 -2701.967773 -5085.849609 0.167425 -0.752831 0.636525
-7634.567383 -2725.844971 -4630.019531 0.591144 0.228339 -0.773522
-7606.712402 -2736.305176 -5142.149414 -0.434309 -0.535173 0.724509
-7786.065430 -2778.484863 -4737.845215 0.689566 -0.107913 -0.716086
-7749.556641 -2818.363770 -4736.118164 0.532334 0.176000 -0.827998
-7958.439453 -2916.878418 -4857.586426 0.654714 -0.246559 -0.714499
-7868.369141 -2956.464844 -4826.650879 0.496689 0.064760 -0.865505
-8135.939941 -3136.492188 -5011.045410 0.654317 -0.022431 -0.755852
-8082.648438 -3222.069580 -4976.752441 0.546098 0.361431 -0.755699
-8255.588867 -3171.590088 -5084.600586 0.676901 -0.173284 -0.715354
-7782.671387 -2952.017334 -5325.551758 0.000763 -0.699637 0.714469
-7767.145508 -2893.286865 -5287.675781 -0.327464 -0.405011 0.853633
-7709.708008 -3031.431152 -5461.883789 0.296426 -0.780847 0.549883
-7624.527344 -2685.593018 -5193.758301 -0.478378 -0.412641 0.775109
-7666.000488 -2711.971191 -5204.046387 -0.042146 -0.349376 0.936003
-7818.609863 -3050.710938 -5443.529785 0.176916 -0.770043 0.612934
-7917.535645 -3035.046387 -5391.863281 0.045991 -0.675802 0.735618
-7987.151855 -3022.993408 -5393.966797 0.198798 -0.793176 0.575610
-8004.859863 -3087.543945 -5489.026367 0.058931 -0.800684 0.596149
-7915.221680 -2804.132324 -5088.563477 0.540727 -0.800348 0.258889
-8160.270996 -3059.636230 -5086.043457 0.751579 -0.600574 -0.272713
-8114.399414 -3068.284424 -4986.832031 0.745842 -0.029237 -0.665426
-7886.563965 -3057.261230 -4827.368164 0.978973 -0.087436 -0.184240
-7975.098145 -2911.440918 -5240.905273 0.483963 -0.759087 0.435347
-7951.400391 -2997.897461 -4870.010254 0.500137 0.113437 -0.858455
-7991.108398 -3077.600586 -4917.601074 0.639699 0.088229 -0.763512
-7962.111816 -3214.920410 -4875.083984 0.608783 0.271157 -0.745506
-7981.395020 -2853.019775 -5074.119629 0.681814 -0.727500 0.076540
-8092.812988 -3002.171631 -5233.134766 0.633229 -0.731010 0.254128
-8043.242188 -2921.604004 -5132.701660 0.693197 -0.706931 0.140355
-8160.338867 -3107.286377 -5413.111816 0.481674 -0.750237 0.452834
-8147.665039 -3057.500000 -5280.886719 0.485458 -0.845485 0.222297
-8300.848633 -3226.293945 -5498.054199 0.713981 0.278878 0.642201
-8379.990234 -3233.970459 -5329.755371 0.923276 0.376354 0.076754
-8326.626953 -3225.070068 -5145.535156 0.803552 0.361766 -0.472610
3 0 1 2
3 3 2 4
3 5 6 7
3 8 9 10
3 10 9 11
3 12 13 14
3 14 13 15
3 16 17 18
3 19 20 11
3 21 22 23
3 24 25 26
3 27 28 26
3 29 30 31
3 32 33 34
3 35 36 37
3 38 39 40
3 41 42 30
3 43 44 45
3 24 23 25
3 27 26 46
3 47 48 46
3 46 26 25
3 49 1 0
3 49 0 50
3 51 52 53
3 54 55 56
3 22 49 23
3 21 23 24
3 23 57 25
3 25 57 46
3 47 46 57
3 47 57 58
3 59 60 61
3 49 50 62
3 49 62 63
3 62 64 63
3 65 66 67
3 67 68 69
3 70 68 71
3 72 73 18
3 65 16 66
3 66 16 18
3 65 74 16
3 52 4 5
3 6 75 36
3 36 75 76
3 2 3 0
3 4 75 6
3 75 77 76
3 4 2 75
3 75 2 77
3 78 2 1
3 77 2 78
3 78 1 22
3 22 1 49
3 79 80 81
3 82 83 84
3 80 37 85
3 80 85 81
3 79 81 86
3 37 76 85
3 79 86 82
3 82 86 83
3 77 78 76
3 76 21 85
3 21 76 78
3 21 78 22
3 87 88 89
3 0 3 50
3 90 91 92
3 93 64 50
3 93 50 94
3 49 63 23
3 23 63 57
3 50 64 62
3 69 68 70
3 65 67 74
3 95 96 97
3 98 72 20
3 68 67 99
3 67 66 99
3 99 66 100
3 101 100 73
3 100 66 18
3 100 18 73
3 6 5 4
3 6 36 102
3 102 35 103
3 4 52 3
3 103 35 104
3 102 36 35
3 36 76 37
3 35 80 104
3 35 37 80
3 33 31 105
3 32 106 33
3 33 106 31
3 80 79 104
3 28 81 24
3 28 24 26
3 85 21 24
3 85 24 81
3 3 94 50
3 63 64 58
3 107 69 108
3 68 99 71
3 71 99 109
3 71 109 96
3 96 109 97
3 110 111 112
3 97 109 113
3 114 115 98
3 114 98 20
3 114 20 19
3 109 115 116
3 99 101 109
3 109 101 115
3 99 100 101
3 115 101 98
3 101 72 98
3 101 73 72
3 53 117 118
3 119 6 102
3 34 103 104
3 34 104 32
3 102 103 34
3 34 33 105
3 104 79 32
3 32 82 106
3 32 79 82
3 106 84 31
3 81 28 86
3 86 28 27
3 86 27 83
3 64 120 58
3 57 63 58
3 69 107 67
3 67 107 121
3 67 121 74
3 71 96 95
3 122 123 124
3 124 123 125
3 109 116 113
3 113 116 126
3 116 111 110
3 115 114 116
3 111 116 127
3 116 114 127
3 114 19 127
3 128 129 125
3 130 125 131
3 132 133 134
3 135 136 137
3 138 139 140
3 127 19 141
3 127 141 142
3 143 144 45
3 142 141 129
3 20 72 11
3 145 119 43
3 145 43 45
3 82 84 106
3 94 3 89
3 89 3 52
3 31 84 29
3 64 93 120
3 83 27 38
3 83 38 84
3 84 38 29
3 27 46 38
3 29 38 40
3 29 40 39
3 113 146 97
3 116 110 126
3 123 128 125
3 110 112 147
3 123 112 142
3 123 142 128
3 112 111 142
3 111 127 142
3 12 148 149
3 148 150 151
3 152 153 154
3 155 133 156
3 155 156 157
3 157 156 158
3 159 156 160
3 160 161 162
3 162 161 163
3 124 164 165
3 142 129 128
3 18 17 11
3 18 11 72
3 164 124 166
3 124 125 166
3 129 141 144
3 52 5 53
3 53 5 167
3 167 7 8
3 8 168 167
3 56 117 54
3 145 6 119
3 102 34 105
3 169 170 30
3 69 70 108
3 108 70 71
3 108 71 95
3 171 95 172
3 121 17 74
3 74 17 16
3 164 166 173
3 151 174 175
3 175 176 153
3 144 141 9
3 11 9 19
3 7 167 5
3 8 7 145
3 145 7 6
3 119 102 105
3 177 178 179
3 179 180 181
3 38 46 48
3 108 95 171
3 171 172 15
3 113 126 146
3 146 126 182
3 182 183 146
3 126 110 182
3 147 112 123
3 184 54 117
3 141 19 9
3 144 9 45
3 143 129 144
3 8 145 45
3 129 143 169
3 43 185 170
3 44 170 143
3 43 170 44
3 119 105 185
3 119 185 43
3 185 105 170
3 170 105 30
3 30 105 31
3 94 89 88
3 94 88 92
3 94 92 93
3 58 120 91
3 58 178 177
3 38 48 39
3 97 172 95
3 110 147 182
3 147 123 122
3 184 186 187
3 54 188 189
3 53 167 121
3 129 169 125
3 131 125 190
3 125 191 190
3 143 45 44
3 93 92 91
3 93 91 120
3 172 97 192
3 97 146 192
3 147 122 182
3 121 168 17
3 168 121 167
3 17 168 11
3 117 53 193
3 117 193 186
3 117 186 184
3 168 10 11
3 125 173 166
3 10 168 8
3 9 8 45
3 125 194 195
3 196 197 30
3 125 169 194
3 143 170 169
3 198 199 200
3 199 59 200
3 92 88 90
3 90 88 87
3 47 58 177
3 29 41 30
3 53 121 193
3 178 58 91
3 107 108 171
3 15 192 201
3 192 146 183
3 183 182 202
3 169 30 194
3 198 89 199
3 203 204 205
3 204 203 199
3 39 48 206
3 29 39 41
3 207 183 202
3 182 122 202
3 193 208 186
3 90 61 91
3 61 178 91
3 178 61 179
3 121 107 209
3 194 197 195
3 87 89 198
3 90 87 210
3 90 210 61
3 47 206 48
3 192 183 201
3 165 202 124
3 202 122 124
3 52 199 89
3 210 87 200
3 47 177 206
3 171 209 107
3 172 192 15
3 14 201 207
3 14 207 211
3 183 207 201
3 193 149 208
3 210 59 61
3 206 41 39
3 207 202 165
3 195 197 212
3 200 87 198
3 210 200 59
3 177 179 181
3 207 165 211
3 193 213 149
3 173 214 215
3 216 214 174
3 174 176 175
3 194 30 197
3 42 180 217
3 217 180 60
3 181 206 177
3 42 41 181
3 41 206 181
3 209 171 15
3 121 209 218
3 219 51 220
3 205 220 221
3 218 209 13
3 121 218 193
3 193 218 213
3 125 195 212
3 199 51 219
3 59 222 223
3 224 223 225
3 224 225 226
3 209 15 13
3 15 201 14
3 213 12 149
3 125 227 173
3 212 197 196
3 199 52 51
3 59 199 222
3 222 199 203
3 60 59 228
3 179 61 60
3 180 42 181
3 211 165 229
3 204 199 219
3 204 219 205
3 179 60 180
3 14 211 230
3 211 229 230
3 218 13 213
3 173 227 214
3 125 212 196
3 59 223 228
3 125 196 191
3 196 30 191
3 191 231 155
3 222 203 223
3 232 233 234
3 231 233 155
3 30 231 191
3 30 42 231
3 231 217 234
3 228 234 60
3 231 42 217
3 229 165 235
3 53 118 51
3 230 229 235
3 235 165 164
3 215 164 173
3 164 215 235
3 215 236 235
3 225 203 237
3 228 223 224
3 219 220 205
3 12 14 150
3 14 230 150
3 176 154 153
3 205 237 203
3 223 203 225
3 238 236 214
3 60 234 217
3 213 13 12
3 150 230 238
3 235 236 238
3 51 118 220
3 220 118 239
3 205 221 237
3 12 150 148
3 230 235 238
3 174 240 176
3 176 240 154
3 228 224 241
3 234 241 232
3 228 241 234
3 118 242 239
3 221 220 243
3 244 243 245
3 243 244 237
3 243 237 221
3 232 224 226
3 224 232 241
3 238 214 216
3 238 216 151
3 125 240 227
3 227 240 174
3 154 130 246
3 117 242 118
3 245 247 248
3 133 249 134
3 149 148 208
3 150 238 151
3 236 215 214
3 242 117 250
3 208 251 186
3 250 117 252
3 252 117 56
3 239 252 247
3 242 250 239
3 220 239 243
3 243 239 247
3 243 247 245
3 208 148 251
3 148 151 251
3 251 151 187
3 187 151 253
3 188 254 152
3 255 188 256
3 257 190 258
3 257 191 259
3 244 245 260
3 261 245 136
3 225 262 226
3 175 153 254
3 152 154 256
3 256 154 246
3 216 174 151
3 250 252 239
3 237 244 225
3 225 244 262
3 186 251 187
3 263 56 264
3 56 263 252
3 252 263 264
3 226 249 232
3 231 234 233
3 174 214 227
3 262 244 260
3 249 226 262
3 151 175 254
3 151 254 253
3 240 130 154
3 55 248 264
3 56 55 264
3 264 248 252
3 252 248 247
3 262 260 265
3 232 249 233
3 254 153 152
3 184 253 54
3 184 187 253
3 240 125 130
3 245 248 136
3 265 266 132
3 132 266 267
3 132 267 268
3 253 254 188
3 54 189 55
3 245 261 260
3 265 134 262
3 262 134 249
3 233 249 133
3 261 136 135
3 260 135 265
3 55 189 269
3 152 256 188
3 55 269 248
3 136 248 137
3 261 135 260
3 270 271 257
3 233 133 155
3 246 131 272
3 246 130 131
3 54 253 188
3 248 269 137
3 266 265 135
3 134 265 132
3 246 272 256
3 273 135 137
3 266 135 267
3 133 132 156
3 255 256 274
3 255 274 139
3 275 257 271
3 189 188 255
3 274 131 276
3 274 276 275
3 272 131 256
3 256 131 274
3 189 138 277
3 267 135 273
3 138 255 139
3 276 131 190
3 138 189 255
3 189 277 269
3 137 269 273
3 278 273 279
3 278 279 270
3 274 275 139
3 273 269 277
3 273 277 279
3 275 190 257
3 257 258 191
3 273 278 267
3 191 155 157
3 156 132 268
3 139 275 271
3 275 276 190
3 277 138 279
3 268 280 156
3 258 190 191
3 267 278 281
3 140 139 271
3 138 140 270
3 138 270 279
3 267 280 268
3 140 271 270
3 267 281 280
3 156 159 158
3 270 163 281
3 270 281 278
3 156 280 161
3 280 281 161
3 158 159 282
3 157 158 282
3 157 282 283
3 259 270 257
3 283 191 157
3 270 259 163
3 281 163 161
3 156 161 160
3 163 259 284
3 259 191 284
3 284 191 283
3 159 160 282
3 163 284 162
3 160 283 282
3 284 283 162
3 160 162 283
