ply
format ascii 1.0
comment Created by Blender 2.80 (sub 75) - www.blender.org, source file: 'color_and_decimate.blend'
element vertex 303
property float x
property float y
property float z
property float nx
property float ny
property float nz
element face 602
property list uchar uint vertex_indices
end_header
-5855.888672 -3148.445557 -4514.657715 0.055666 0.059023 -0.996673
-6013.646484 -3038.087891 -4511.757324 -0.187658 0.161657 -0.968810
-5880.829102 -2997.892578 -4516.563965 -0.076846 -0.040284 -0.996216
-6201.754883 -2834.688965 -4323.027832 -0.342296 0.506760 -0.791192
-6100.288574 -2843.890625 -4387.698242 -0.411878 0.489334 -0.768670
-6200.993164 -2923.751709 -4394.981445 -0.361431 0.549181 -0.753471
-6761.717773 -2858.003662 -4703.254395 0.975494 -0.218879 0.021241
-6753.588867 -2855.706055 -4802.999512 0.752647 -0.317972 0.576495
-6739.434082 -2801.649902 -4764.834961 0.896359 -0.326029 0.300302
-6696.838379 -2640.795410 -4735.312988 0.523301 -0.805963 0.276589
-6554.322266 -2638.907959 -4860.644043 0.532701 -0.827998 0.174963
-6695.330078 -2637.560303 -4325.666504 0.240150 -0.970641 0.011383
-6719.105469 -2638.456299 -4074.793701 0.546800 -0.672872 -0.498184
-6600.213379 -2657.951660 -4063.077881 -0.212409 -0.292245 -0.932432
-6722.867188 -2691.056396 -4061.078613 0.562548 0.172613 -0.808496
-6660.405273 -2922.490967 -4161.409668 -0.220405 0.459548 -0.860347
-6552.748047 -2835.531006 -4156.017090 -0.300943 0.375530 -0.876583
-6518.833984 -2917.872314 -4210.083008 -0.397809 0.568377 -0.720176
-6542.534668 -2994.243652 -4282.569336 -0.365246 0.675924 -0.640065
-6415.008301 -2856.120850 -4226.710449 -0.386090 0.501846 -0.773980
-6605.792480 -2774.947266 -4962.037598 0.963286 -0.223029 -0.149236
-6564.479492 -2769.833008 -4899.728516 0.928495 -0.072726 -0.364086
-6617.223633 -2887.891113 -4955.397461 0.942778 -0.203131 -0.264290
-6660.397949 -3081.336182 -4864.335938 0.506668 -0.311441 0.803888
-6670.193359 -3052.186523 -4840.279297 0.274148 -0.454756 0.847346
-6770.187500 -3029.762451 -4856.796875 0.242836 -0.458388 0.854915
-5699.092285 -2997.132080 -4464.451172 -0.207282 -0.517441 -0.830226
-5688.547363 -3031.611572 -4503.407227 -0.983123 -0.167333 -0.073580
-5700.066895 -3193.786377 -4440.754883 0.123264 0.265877 -0.956084
-6811.490234 -3103.426514 -4501.088379 0.976135 -0.215583 0.025147
-6811.032715 -3229.328369 -4611.399902 0.757530 0.651967 0.032441
-6797.988281 -3097.639648 -4717.133789 0.990875 -0.134617 -0.001617
-6763.940918 -2927.029297 -4584.263672 0.972106 -0.234046 0.014771
-6785.732910 -2973.342529 -4594.666992 0.973418 -0.227271 0.027436
-6782.743164 -2988.721680 -4818.765137 0.782556 -0.290262 0.550707
-5687.516113 -3200.109131 -4508.905762 -0.986816 0.148595 -0.063601
-6736.328125 -2706.523682 -4583.205078 0.974395 -0.222724 0.030335
-6732.608887 -2715.612061 -4768.897461 0.746300 -0.225959 0.626057
-6617.145996 -2653.445801 -4791.782715 0.596088 0.150914 0.788568
-6788.092285 -3051.118896 -4486.226562 0.974792 -0.222205 0.018708
-5697.640137 -3227.677734 -4467.850098 -0.257118 0.593707 -0.762444
-5845.308105 -3223.530762 -4517.429199 0.149327 0.369152 -0.917264
-5977.115234 -3236.781982 -4553.953125 -0.032899 0.861293 -0.507004
-6014.926270 -3149.902344 -4515.343750 -0.061098 0.137608 -0.988586
-6058.023438 -3223.920166 -4517.315430 -0.135502 0.569292 -0.810846
-5715.248047 -2969.895996 -4496.336426 -0.554735 -0.189215 -0.810205
-6497.236816 -2722.320068 -5248.356445 0.906705 -0.414747 0.076449
-6555.038086 -2658.346436 -5073.820801 0.784112 -0.585833 0.204688
-6522.619629 -2781.455811 -5218.479004 0.923276 -0.339091 0.180303
-6521.546387 -2746.270508 -5364.442383 0.905820 -0.283731 -0.314554
-6582.244141 -2768.852783 -5447.047363 0.280313 0.064882 -0.957701
-6526.005859 -2641.765625 -5410.961426 0.753929 -0.035676 -0.655965
-5763.780762 -2759.057617 -5620.130371 -0.947233 -0.112186 0.300180
-5713.712891 -2885.354980 -5688.116699 -0.912229 -0.393963 0.112094
-5738.104980 -2791.699463 -5575.991699 -0.941527 -0.287210 0.176092
-5742.649902 -2653.562012 -5610.749023 -0.858516 -0.479476 0.181707
-5800.793457 -3080.460205 -6189.383789 -0.821863 -0.230415 0.520981
-5877.296875 -3194.790283 -6312.536621 -0.787347 0.051759 0.614277
-5790.332520 -3189.296875 -6210.670898 -0.829615 0.074648 0.553270
-5741.703613 -3237.157227 -4512.038086 0.129032 0.825373 -0.549577
-5787.019531 -3237.476074 -6166.760254 -0.475753 0.830439 0.289773
-6676.683594 -3237.428711 -4876.985840 0.073916 0.996612 0.035554
-6804.109375 -3222.330078 -4909.526855 0.582049 0.393506 0.711570
-6620.653320 -3012.846924 -4893.904297 0.951842 -0.298441 0.069796
-6670.264648 -3097.579834 -4993.219727 0.944243 -0.315928 -0.092349
-6650.948730 -3015.525391 -4955.472168 0.954039 -0.168432 -0.247841
-6602.743652 -2872.119873 -5088.643555 0.950560 -0.241249 0.195410
-6607.622559 -2975.413574 -5234.307129 0.946196 -0.318400 0.057588
-6562.167480 -2874.883057 -5201.129395 0.909360 -0.378765 0.171941
-6555.984863 -2823.742676 -5342.539551 0.947661 -0.280374 -0.152532
-6567.119141 -2868.259521 -5407.074219 0.923795 -0.194250 -0.329905
-6728.145996 -2776.268799 -5261.748535 0.408887 0.092318 -0.907895
-6725.468262 -2888.230957 -5308.578125 -0.173559 0.055452 -0.983245
-6737.767578 -2875.256836 -5377.757324 0.971496 -0.233802 -0.038545
-6682.446289 -2647.820068 -5811.486816 0.748711 -0.662313 0.026948
-6689.404297 -2665.490723 -6036.276855 0.895291 -0.443495 0.041322
-6669.143555 -2639.738770 -6152.245605 0.611682 -0.749046 0.254402
-6368.336914 -2734.927979 -6345.634766 0.324351 -0.486282 0.811335
-6531.741699 -2858.054932 -6339.223145 0.398206 -0.433241 0.808496
-6561.286133 -2989.033447 -6393.788574 0.404828 -0.426435 0.808832
-6362.088379 -2812.981201 -6398.208008 0.347056 -0.466170 0.813746
-6712.885742 -3191.380615 -4976.126465 0.980224 -0.150121 -0.128849
-6703.793945 -3224.947510 -4911.792969 0.662618 0.611469 0.432417
-6707.547363 -3219.595947 -5238.865234 0.987548 0.152165 0.039735
-6620.517090 -3019.577393 -5196.585449 0.933836 -0.340342 0.109867
-6616.886719 -3011.427490 -5421.620605 0.869533 -0.312632 -0.382275
-6605.535156 -2964.110352 -5397.461914 0.941038 -0.277963 -0.192755
-6640.730469 -2961.856201 -5470.599609 0.117924 -0.076235 -0.990081
-6643.297363 -2770.504639 -5412.093262 -0.764428 0.315073 -0.562426
-6637.474609 -2869.711426 -5455.557129 -0.513199 0.220923 -0.829341
-6657.368652 -3105.130371 -5385.584473 0.901364 -0.366131 -0.231178
-6656.520996 -3098.354980 -5206.145508 0.946593 -0.314859 0.069216
-5725.789551 -3236.390381 -6062.481445 -0.643605 0.718345 0.264077
-5688.298828 -3030.292969 -5070.593750 -0.973876 -0.226539 -0.014191
-6695.717285 -3232.381348 -5388.543457 0.715537 0.681875 -0.151799
-5697.076660 -3228.095459 -5988.159668 -0.750908 0.645253 0.140416
-6666.354004 -3137.385742 -5198.003906 0.918851 -0.386853 0.077364
-5687.551270 -2950.620117 -5711.198242 -0.970641 -0.228217 0.075838
-6682.198242 -3084.095215 -5434.765625 0.275155 -0.144078 -0.950530
-6722.341309 -3013.953857 -5416.619141 -0.517258 0.177252 -0.837245
-5688.717285 -2991.000244 -5248.786133 -0.969573 -0.235481 -0.066744
-6773.147461 -3232.779541 -6417.297363 0.644093 0.543535 0.538194
-6607.226074 -3221.939209 -6492.700195 0.384106 0.019044 0.923063
-6698.241699 -3201.388428 -6455.469238 0.371685 -0.294595 0.880337
-6711.769531 -3133.443604 -6395.373535 0.422254 -0.489639 0.762841
-6787.716309 -3190.913086 -6387.171387 0.898709 -0.172124 0.403302
-5711.874023 -2981.526367 -5117.759766 -0.960295 -0.274361 -0.050539
-5686.135742 -3183.372803 -5997.426758 -0.929594 0.036653 0.366710
-5710.978027 -2909.531250 -5362.956055 -0.966124 -0.250984 -0.059511
-5689.428711 -2934.410156 -5411.068848 -0.941008 -0.335978 -0.039857
-5706.927246 -3171.156006 -6026.452148 -0.926695 -0.058260 0.371227
-5715.826660 -2945.653320 -5845.426270 -0.903745 -0.360027 0.231513
-5797.020996 -3013.068604 -4514.674805 0.160497 -0.054994 -0.985473
-5868.780273 -2867.341309 -4516.923340 -0.096927 0.329386 -0.939177
-5797.057129 -2888.510986 -4514.284668 0.258919 0.282113 -0.923765
-5837.328613 -2962.375000 -4541.138672 -0.192083 0.146367 -0.970397
-5716.744629 -2892.047852 -4502.848145 -0.955779 -0.199042 -0.216407
-5736.426758 -2881.333740 -4472.744629 -0.282235 0.108463 -0.953185
-5715.116699 -2902.913818 -4673.711426 -0.982849 -0.179235 -0.042695
-5738.245605 -2784.568604 -4839.546387 -0.929716 0.080721 -0.359294
-5712.858887 -2802.506104 -4893.655762 -0.996979 -0.013153 -0.076357
-5726.051758 -2643.431885 -4721.112793 -0.749504 -0.647603 -0.137059
-5712.216309 -2684.641602 -4755.081055 -0.976653 0.055391 -0.207465
-5733.906738 -2705.217773 -4718.480469 -0.963073 0.178198 -0.201819
-5757.743652 -2648.675537 -4517.612793 -0.884854 -0.456069 -0.094760
-5765.458496 -2774.597900 -4432.212402 -0.630543 0.473220 -0.615192
-5748.529785 -2784.710693 -4669.346191 -0.993316 0.082125 -0.080905
-5756.199219 -2822.857422 -4590.817871 -0.973418 -0.226661 -0.032411
-5716.170410 -2652.848389 -5399.198242 -0.868526 -0.408704 0.280343
-5715.360840 -2764.540527 -5367.853027 -0.992370 -0.066958 0.103397
-5746.724609 -2638.054443 -5441.692383 -0.613392 -0.778710 0.131535
-5737.062012 -2764.104248 -5427.968262 -0.853420 -0.481246 0.200018
-5732.790527 -2984.430420 -5958.458008 -0.921628 -0.295511 0.251411
-5721.315918 -3123.245850 -6071.173340 -0.928648 -0.146886 0.340556
-5759.913574 -2820.187744 -4460.777832 0.156072 0.496139 -0.854091
-5863.027832 -2771.261230 -4458.389648 -0.037751 0.618458 -0.784875
-5776.647949 -2637.532227 -4503.397949 -0.262490 -0.964446 -0.030061
-5767.919922 -2648.130127 -4302.322754 -0.533769 -0.419111 -0.734428
-5786.045410 -2685.003174 -4311.447266 -0.071535 0.570940 -0.817835
-5809.320312 -2649.852051 -4313.076660 0.352214 0.079897 -0.932493
-5753.961426 -2839.329102 -5784.235840 -0.920835 -0.352367 0.166875
-5772.488770 -2886.404541 -5967.146484 -0.870632 -0.395550 0.292337
-5770.488281 -2750.314453 -5727.493652 -0.957762 -0.210242 0.196112
-5831.103027 -2765.088135 -5929.565918 -0.865658 -0.407086 0.291299
-5838.365723 -2785.253906 -6000.315918 -0.837062 -0.443129 0.320780
-5771.290527 -2999.207031 -6079.542480 -0.850154 -0.351726 0.391736
-5888.470703 -2641.359375 -4336.632812 -0.075930 -0.547899 -0.833064
-6301.063965 -2638.030029 -4210.746582 -0.114505 -0.951262 -0.286294
-6025.714844 -2889.207520 -4454.574219 -0.360027 0.416333 -0.834864
-6013.724121 -2968.139893 -4486.881348 -0.330760 0.309458 -0.891507
-5810.830566 -2638.786377 -5770.507812 -0.601215 -0.766472 0.225867
-5764.877441 -2652.353516 -5676.217285 -0.878719 -0.391583 0.272927
-5805.227539 -2702.778564 -5777.846680 -0.921140 -0.210120 0.327555
-5831.891602 -2652.684326 -5854.550293 -0.805444 -0.506974 0.306925
-6668.932129 -2637.535645 -5618.658203 0.225105 -0.974303 0.006867
-5841.544922 -2691.873779 -4359.423828 0.261361 0.670797 -0.694021
-5835.465332 -2977.993164 -6186.202148 -0.809564 -0.349895 0.471328
-5842.228516 -3233.291748 -6262.098633 -0.512009 0.748344 0.421644
-6000.552246 -2763.072510 -4395.514648 -0.344829 0.529710 -0.774895
-5958.063477 -2659.077148 -4305.252930 -0.288369 0.055544 -0.955870
-5924.837402 -2713.052734 -4388.841309 -0.225776 0.675039 -0.702353
-5883.341797 -2639.685303 -5919.656250 -0.288919 -0.945952 0.147221
-5913.367676 -2833.621094 -6197.195312 -0.793451 -0.403455 0.455641
-5933.956055 -3009.096924 -6354.187500 -0.740104 -0.259621 0.620319
-5899.429199 -3093.739502 -6332.436523 -0.793817 -0.137883 0.592273
-6765.061035 -3237.458008 -5832.476074 0.244942 0.969390 0.014954
-5918.896484 -2651.646973 -6025.231934 -0.740043 -0.572832 0.352336
-5930.713867 -3234.213867 -6364.864258 -0.469649 0.788995 0.396069
-5953.479980 -3164.621826 -6424.146484 -0.720328 0.032899 0.692831
-6378.533203 -3232.484863 -4512.752930 -0.062410 0.892270 -0.447157
-6533.298340 -3233.504883 -4480.941895 -0.106876 0.883236 -0.456557
-6738.626953 -2778.693848 -4463.982422 0.970397 -0.240669 0.018830
-5966.047852 -2856.255127 -6302.945801 -0.713004 -0.407880 0.570269
-6041.911621 -3233.580078 -6475.444824 -0.353130 0.809503 0.469008
-6023.694824 -3199.521240 -6479.831055 -0.606952 0.188208 0.772118
-6013.881348 -3060.003418 -6449.273926 -0.654683 -0.212622 0.725364
-6081.388184 -3057.154785 -6505.523926 -0.482376 -0.181555 0.856899
-6321.573242 -2909.503174 -6461.179688 0.314219 -0.421583 0.850581
-6218.654297 -2753.532227 -6410.061523 0.009217 -0.591876 0.805933
-6095.324707 -2649.826904 -4286.301758 -0.277871 0.601428 -0.749016
-5983.771484 -2640.920410 -6136.556641 -0.462142 -0.833430 0.302988
-5980.380371 -2791.830566 -6267.800293 -0.697134 -0.456130 0.553056
-6075.588379 -2912.722412 -6446.512695 -0.558489 -0.386944 0.733696
-6128.466797 -2779.381104 -6395.221191 -0.440748 -0.534898 0.720817
-6061.208496 -2718.147705 -4339.082520 -0.437239 0.409619 -0.800623
-6161.377930 -2751.584229 -4304.847656 -0.398846 0.394055 -0.827998
-6207.623047 -2653.879639 -4219.678223 -0.436140 -0.314097 -0.843257
-6710.845215 -2706.395020 -5835.436035 0.972411 -0.232490 0.017243
-6471.064941 -3235.787109 -6541.712402 0.215796 0.675588 0.704947
-6165.129883 -3220.482178 -6555.311523 -0.263741 0.495254 0.827723
-6209.673340 -3132.815430 -6559.097168 -0.111301 -0.293008 0.949583
-6159.540039 -3110.055908 -6538.692383 -0.229682 -0.181738 0.956114
-6462.270996 -2980.668213 -6435.106445 0.374737 -0.415113 0.828974
-6711.166016 -2747.891602 -6184.374512 0.881069 -0.255135 0.398267
-6077.976074 -2756.491455 -6348.585449 -0.574114 -0.401044 0.713797
-6167.859375 -3162.738770 -4499.410156 -0.074435 0.219703 -0.972716
-6276.769531 -3223.028320 -4514.724609 -0.066317 0.155828 -0.985534
-6367.222168 -2965.946533 -4336.553711 -0.373516 0.626667 -0.683889
-6510.152832 -3094.705566 -4398.708496 -0.249947 0.563219 -0.787561
-6639.772461 -3003.724365 -4230.323730 -0.346934 0.655354 -0.670888
-6730.889160 -3047.284912 -4221.391113 -0.199988 0.721061 -0.663350
-6761.112305 -2978.934326 -4167.406738 0.266823 0.400037 -0.876766
-6743.255859 -2743.936035 -4162.797852 0.977996 -0.131108 -0.162114
-6758.960938 -2803.649414 -4231.798828 0.984344 -0.175665 -0.012238
-6095.202148 -2638.771484 -6241.915527 -0.282907 -0.892483 0.351268
-6713.115234 -2777.247314 -5713.343750 0.966430 -0.256111 0.020051
-6308.882812 -2651.077148 -6312.843750 0.116733 -0.820338 0.559801
-6184.547852 -2650.295166 -6312.530762 -0.152287 -0.843379 0.515244
-6196.550781 -3013.014404 -6531.095215 -0.047304 -0.222205 0.973846
-6160.458496 -2936.758057 -6505.606934 -0.234931 -0.329783 0.914335
-6292.930664 -2993.518066 -6510.842773 0.227790 -0.340800 0.912107
-6215.863281 -2912.991943 -6497.971680 0.124577 -0.352580 0.927427
-6201.634766 -3085.010742 -4477.177246 -0.168310 0.279183 -0.945341
-6650.508789 -3227.373047 -4446.790039 -0.102939 0.864742 -0.491501
-6484.035156 -3128.299561 -4419.070312 -0.232490 0.495590 -0.836818
-6788.618164 -3043.526367 -4225.420898 0.720939 0.415693 -0.554460
-6784.833008 -2937.706543 -4178.695801 0.921201 -0.126286 -0.367962
-6762.098633 -2899.243896 -4151.437500 0.723869 0.101871 -0.682333
-6796.789062 -3234.611084 -4432.887207 0.394757 0.850185 -0.348308
-6813.013672 -3199.285645 -4413.548828 0.884030 0.349132 -0.310709
-6190.209473 -2820.996826 -6458.984375 -0.089389 -0.517106 0.851222
-6259.708984 -3051.126953 -4453.861328 -0.239631 0.409406 -0.880306
-6355.934082 -3018.205566 -4403.514648 -0.328104 0.584735 -0.741874
-6300.846191 -3233.392822 -6567.512207 0.000244 0.661855 0.749626
-6438.146973 -3073.274170 -6493.014160 0.332530 -0.403790 0.852260
-6407.113770 -3191.132324 -6559.761719 0.208136 -0.139988 0.968017
-6320.791992 -3082.675049 -6531.817383 0.163732 -0.315165 0.934782
-6254.990234 -2814.179199 -4291.209961 -0.437025 0.511368 -0.739891
-6308.876953 -2820.298828 -4249.274414 -0.409101 0.632832 -0.657369
-6707.370117 -2655.607422 -5571.497070 0.835231 -0.549669 0.015015
-6429.983398 -2644.089355 -6270.831543 0.203528 -0.837611 0.506912
-6714.021973 -2799.194824 -5953.451660 0.972686 -0.230873 0.022797
-6736.145020 -2817.678223 -5664.440430 0.968505 -0.248024 0.020997
-6736.811035 -2853.238525 -5973.913574 0.974975 -0.220801 0.024659
-6277.951660 -2652.651123 -4198.826660 -0.293863 -0.365398 -0.883206
-6405.058105 -2743.540527 -4175.918457 -0.360668 0.361614 -0.859706
-6713.378418 -2755.660889 -5496.117188 0.972289 -0.233345 0.012146
-6384.391602 -3179.988770 -4474.812500 -0.099155 0.369152 -0.924039
-6462.206543 -2653.568115 -4118.508789 -0.326640 -0.400769 -0.855953
-6437.227051 -2640.039795 -5279.200195 0.338298 -0.938902 -0.063234
-6551.032715 -2638.741211 -6204.655762 0.170873 -0.889248 0.424268
-6597.965332 -2640.118164 -5416.657715 -0.282479 -0.869472 -0.405164
-6536.610840 -2737.604736 -4124.527832 -0.274880 0.366405 -0.888913
-6499.746094 -2638.166992 -5147.172852 0.440504 -0.867611 0.230537
-6700.089355 -2644.612549 -5231.765625 0.303293 -0.872616 -0.382733
-6759.210938 -3111.986572 -6352.603516 0.763237 -0.438734 0.474288
-6743.744141 -2981.751221 -6278.683105 0.836848 -0.322398 0.442396
-6763.873047 -3101.711670 -6208.944336 0.955199 -0.290994 0.053713
-6647.220215 -2859.517334 -6277.211426 0.405744 -0.363292 0.838649
-6625.289551 -2756.422607 -6249.611328 0.400159 -0.361675 0.842036
-6712.864746 -2823.429199 -6207.198730 0.848292 -0.349620 0.397656
-6735.434570 -2879.555420 -6224.631348 0.885922 -0.315348 0.340068
-6642.905273 -3135.515381 -4381.586914 -0.265999 0.660390 -0.702200
-6668.789062 -2675.452637 -6190.933105 0.614582 -0.509110 0.602496
-6627.643066 -2946.319824 -6332.023438 0.456069 -0.429304 0.779504
-6584.600098 -2687.824951 -5422.197266 -0.427259 0.232124 -0.873806
-6737.249023 -2847.696533 -4111.536133 0.441725 0.173956 -0.880093
-6572.511719 -2669.774902 -4949.575684 0.930021 -0.365307 -0.039521
-6579.141602 -2813.485596 -4829.678223 0.699118 -0.113407 0.705924
-6564.039062 -2887.526123 -4887.553711 0.960387 -0.277383 -0.025666
-6574.906250 -2738.256104 -5055.592773 0.958251 -0.215827 0.187475
-6651.640137 -3022.820068 -5083.140137 0.940306 -0.316721 0.124424
-6708.020996 -2672.014160 -5201.687012 0.377483 -0.051149 -0.924589
-6786.323242 -2947.440674 -4363.020020 0.963775 -0.265999 0.017823
-6764.368164 -2908.131836 -4369.508301 0.964507 -0.263588 0.014100
-6606.680664 -2708.481689 -4812.038086 0.500320 -0.114322 0.858241
-6630.625488 -2908.514160 -4819.260254 0.381848 -0.214728 0.898923
-6720.273438 -2753.395508 -4108.449219 0.525925 0.244881 -0.814478
-6735.039062 -2658.103516 -4291.744629 0.847957 -0.529679 0.019745
-6714.552246 -2651.808838 -4544.972656 0.766015 -0.641804 0.035676
-6674.034668 -3171.174316 -4882.993652 0.671682 -0.487320 0.557970
-6655.586426 -2654.196289 -5294.627930 -0.882321 -0.275063 -0.381817
-6668.777344 -2765.387451 -5345.201660 -0.818140 0.360515 -0.447890
-6666.728027 -2670.508545 -5230.283691 -0.805689 -0.091372 -0.585223
-6773.111816 -3105.890137 -4289.738281 -0.010834 0.764397 -0.644612
-6803.166016 -3120.673584 -4861.012695 0.762291 -0.226295 0.606342
-6742.482422 -2918.768555 -4823.416992 0.232917 -0.146580 0.961364
-6703.581055 -3171.708008 -5133.512207 0.912625 -0.397961 0.093417
-6707.259277 -2738.132812 -5259.815430 0.359416 0.525895 -0.770867
-6703.621094 -2895.777588 -5384.065430 -0.833003 0.262154 -0.487167
-6730.421387 -3217.986816 -5462.387695 0.408795 -0.423139 -0.808588
-6807.307617 -3229.184814 -5477.171387 0.754143 0.533647 -0.382672
-6802.476074 -3066.655518 -4255.518555 0.863582 0.184942 -0.469039
-6777.220215 -3066.370361 -5392.701660 0.519181 0.041078 -0.853633
-6784.767578 -3168.158447 -5446.079590 0.649464 0.177496 -0.739341
-6739.268066 -2943.143066 -6069.916504 0.981658 -0.189276 0.022462
-6761.467773 -3009.399414 -6107.432617 0.982055 -0.185614 0.032960
-6756.934570 -2916.772949 -5312.968750 0.547594 0.137211 -0.825373
-6785.441406 -3074.811279 -5507.341797 0.978088 -0.207984 -0.007813
-6789.852539 -3173.725098 -5666.034180 0.992462 -0.121067 0.017762
-6799.674316 -3227.326172 -5678.050293 0.878170 0.476302 0.043672
-6787.733398 -3221.163330 -5892.621582 0.891140 0.453566 0.009796
-6759.496094 -3007.859375 -5398.949219 0.643055 0.176885 -0.745079
-6786.616699 -3145.327148 -6207.531738 0.968017 -0.248909 0.030671
-6761.702148 -2826.067871 -4469.434570 0.970824 -0.239051 0.017151
-6738.566895 -2893.306396 -5598.858887 0.981445 -0.191015 0.015564
-6785.187012 -3105.806641 -5780.865234 0.977081 -0.211402 0.024354
-6739.541504 -2918.868652 -5845.130371 0.981628 -0.189734 0.018647
-6786.539551 -3125.009521 -5992.844727 0.970336 -0.240730 0.021455
-6764.323242 -3081.358887 -5991.219727 0.968200 -0.249031 0.023072
-6760.886719 -2957.056641 -5630.279297 0.982574 -0.185369 0.011780
-6761.371094 -2983.039795 -5880.111816 0.981506 -0.190191 0.020447
-6764.054688 -3043.877441 -5747.634766 0.981079 -0.192267 0.021516
3 0 1 2
3 3 4 5
3 6 7 8
3 9 10 11
3 12 13 14
3 15 16 17
3 18 17 19
3 20 21 22
3 23 24 25
3 26 27 28
3 29 30 31
3 32 33 34
3 28 27 35
3 36 8 37
3 36 37 9
3 38 9 37
3 39 31 34
3 39 34 33
3 28 35 40
3 0 41 42
3 43 44 1
3 26 45 27
3 46 47 48
3 49 50 51
3 52 53 54
3 52 54 55
3 56 57 58
3 42 59 60
3 30 61 62
3 63 64 65
3 66 67 68
3 69 68 70
3 69 70 50
3 71 72 73
3 74 75 76
3 77 78 79
3 77 79 80
3 81 82 83
3 84 85 67
3 67 85 86
3 70 87 50
3 88 50 89
3 90 84 91
3 59 40 92
3 59 92 60
3 27 93 35
3 61 60 94
3 61 94 82
3 82 94 83
3 40 95 92
3 83 94 90
3 83 90 96
3 93 97 35
3 87 98 99
3 40 35 95
3 93 100 97
3 101 102 103
3 103 104 105
3 106 100 93
3 35 97 107
3 35 107 95
3 108 100 106
3 100 108 109
3 100 109 97
3 109 53 97
3 95 107 110
3 95 110 92
3 97 111 107
3 45 59 112
3 112 59 0
3 28 40 26
3 2 113 114
3 2 114 115
3 116 45 117
3 26 40 59
3 26 59 45
3 118 119 120
3 116 118 45
3 45 118 106
3 45 106 27
3 121 122 123
3 121 123 124
3 125 124 126
3 125 126 127
3 118 120 106
3 27 106 93
3 38 10 9
3 122 119 123
3 121 128 122
3 122 128 120
3 122 120 119
3 109 108 53
3 120 129 108
3 120 128 129
3 108 129 53
3 106 120 108
3 129 128 130
3 129 130 131
3 129 54 53
3 129 131 54
3 97 53 111
3 111 132 110
3 110 132 133
3 92 133 58
3 107 111 110
3 110 133 92
3 134 114 135
3 135 114 113
3 134 117 114
3 134 125 116
3 116 117 134
3 59 41 0
3 115 112 2
3 0 42 43
3 136 124 137
3 137 138 139
3 116 127 118
3 126 124 123
3 127 126 119
3 127 119 118
3 126 123 119
3 128 121 130
3 131 130 54
3 130 55 54
3 53 140 111
3 141 140 142
3 141 142 143
3 141 143 144
3 111 140 132
3 132 145 133
3 92 58 60
3 136 146 147
3 138 137 125
3 148 113 149
3 137 124 125
3 135 125 134
3 116 125 127
3 117 45 114
3 41 59 42
3 124 136 121
3 121 136 130
3 55 130 150
3 52 55 151
3 143 152 153
3 55 150 151
3 52 140 53
3 151 142 52
3 52 142 140
3 142 151 152
3 140 141 132
3 133 145 56
3 145 132 141
3 133 56 58
3 114 45 112
3 114 112 115
3 112 0 2
3 130 154 150
3 152 151 150
3 152 143 142
3 139 138 155
3 139 155 146
3 137 146 136
3 155 138 125
3 135 113 148
3 150 153 152
3 141 156 145
3 145 156 56
3 141 144 156
3 60 58 157
3 157 58 57
3 139 146 137
3 158 159 160
3 160 155 135
3 155 125 135
3 153 150 161
3 156 162 163
3 56 163 164
3 60 157 165
3 57 56 164
3 155 160 146
3 2 1 113
3 150 154 161
3 153 161 166
3 153 166 143
3 156 144 162
3 156 163 56
3 157 167 165
3 167 57 168
3 157 57 167
3 0 43 1
3 169 42 60
3 169 60 170
3 39 29 31
3 171 8 36
3 143 166 144
3 144 166 162
3 162 172 163
3 167 168 173
3 173 168 174
3 174 168 175
3 174 175 176
3 177 178 80
3 159 158 179
3 160 159 146
3 158 160 135
3 158 135 148
3 166 161 180
3 172 162 181
3 172 182 163
3 181 183 172
3 164 168 57
3 184 3 185
3 179 186 147
3 149 113 1
3 74 187 75
3 161 154 180
3 166 180 162
3 165 188 101
3 173 174 189
3 190 189 191
3 192 177 80
3 146 159 179
3 146 179 147
3 158 148 4
3 75 187 193
3 162 180 181
3 181 180 194
3 175 182 176
3 167 173 165
3 163 175 164
3 175 168 164
3 158 184 179
3 179 184 185
3 158 4 184
3 42 44 43
3 195 44 196
3 18 197 198
3 15 199 200
3 15 200 201
3 202 203 171
3 130 136 154
3 194 180 204
3 175 163 182
3 193 187 205
3 206 178 207
3 191 176 208
3 208 209 210
3 210 209 211
3 174 176 189
3 149 212 148
3 149 1 195
3 1 44 195
3 170 213 214
3 215 201 200
3 201 216 217
3 44 42 169
3 44 169 196
3 170 60 61
3 218 61 30
3 219 30 29
3 181 194 183
3 172 183 182
3 182 220 209
3 176 191 189
3 148 212 221
3 180 154 204
3 209 176 182
3 184 4 3
3 5 221 222
3 204 207 194
3 194 207 183
3 182 183 220
3 209 220 211
3 165 223 188
3 224 225 226
3 224 226 210
3 223 189 190
3 223 190 225
3 223 225 188
3 179 185 227
3 19 186 228
3 185 3 227
3 5 4 148
3 149 195 212
3 220 183 178
3 165 173 223
3 208 176 209
3 74 229 187
3 230 204 154
3 183 207 178
3 173 189 223
3 5 148 221
3 207 204 230
3 207 230 206
3 186 179 227
3 5 197 227
3 187 229 205
3 231 232 233
3 147 186 234
3 234 186 235
3 235 186 19
3 3 5 227
3 147 11 136
3 229 236 205
3 231 205 232
3 208 226 191
3 191 226 190
3 227 228 186
3 197 5 222
3 195 196 212
3 178 206 80
3 220 178 177
3 211 220 177
3 211 177 210
3 226 208 210
3 11 147 12
3 237 212 196
3 74 154 229
3 190 226 225
3 19 227 197
3 169 237 196
3 77 206 230
3 77 230 78
3 206 77 80
3 238 234 235
3 227 19 228
3 221 212 237
3 177 224 210
3 214 221 170
3 154 136 239
3 234 238 147
3 214 222 221
3 221 237 170
3 205 236 232
3 154 240 230
3 177 192 224
3 224 192 102
3 147 238 12
3 197 222 198
3 169 170 237
3 235 19 17
3 197 18 19
3 222 214 198
3 154 239 51
3 154 51 241
3 192 80 79
3 242 238 235
3 242 235 16
3 136 243 239
3 51 46 49
3 154 244 229
3 245 246 247
3 78 230 248
3 238 242 13
3 17 16 235
3 243 46 239
3 239 46 51
3 249 250 251
3 230 240 249
3 225 224 102
3 225 102 188
3 136 11 10
3 252 213 218
3 136 10 243
3 243 47 46
3 240 253 249
3 249 193 250
3 250 193 231
3 78 254 79
3 238 13 12
3 243 10 47
3 48 68 69
3 48 47 68
3 48 69 49
3 48 49 46
3 51 255 241
3 255 51 50
3 240 76 253
3 230 249 248
3 15 217 256
3 18 199 17
3 198 214 213
3 257 21 20
3 10 258 259
3 10 259 21
3 259 63 22
3 10 21 257
3 260 257 66
3 21 259 22
3 10 257 47
3 47 257 260
3 47 260 68
3 260 66 68
3 96 91 261
3 96 261 64
3 241 244 154
3 229 262 236
3 49 69 50
3 240 154 76
3 249 253 193
3 78 248 254
3 79 104 192
3 192 104 102
3 256 242 16
3 15 17 199
3 252 18 198
3 252 198 213
3 170 61 213
3 263 39 33
3 264 33 32
3 38 265 10
3 10 265 258
3 259 258 266
3 63 259 266
3 63 266 24
3 257 20 66
3 68 67 86
3 70 68 86
3 70 86 87
3 242 267 13
3 13 267 14
3 11 268 269
3 256 217 202
3 202 217 203
3 18 252 199
3 265 38 7
3 258 265 266
3 23 63 24
3 63 23 270
3 22 63 65
3 84 22 261
3 22 65 261
3 20 22 66
3 22 84 66
3 261 65 64
3 66 84 67
3 85 84 90
3 271 272 273
3 272 255 88
3 271 241 255
3 88 255 50
3 86 85 87
3 50 87 89
3 76 75 253
3 79 254 104
3 102 104 103
3 256 267 242
3 219 274 218
3 275 34 31
3 84 261 91
3 271 255 272
3 241 271 244
3 88 89 272
3 85 90 98
3 87 85 98
3 75 193 253
3 256 16 15
3 266 265 276
3 276 265 7
3 270 23 275
3 64 63 270
3 83 277 81
3 244 273 262
3 262 273 278
3 278 273 272
3 271 273 244
3 90 91 96
3 262 278 236
3 236 278 71
3 236 71 232
3 272 89 279
3 98 90 280
3 280 90 94
3 89 87 279
3 94 60 281
3 154 74 76
3 104 254 245
3 101 188 102
3 14 267 202
3 268 202 171
3 9 11 269
3 15 201 217
3 252 274 199
3 282 219 29
3 274 252 218
3 213 61 218
3 38 37 8
3 24 34 25
3 25 34 275
3 82 64 270
3 64 82 81
3 96 64 277
3 96 277 83
3 279 278 272
3 279 87 99
3 283 98 284
3 246 285 286
3 248 249 246
3 246 249 251
3 248 246 254
3 36 268 171
3 12 268 11
3 199 274 200
3 200 274 215
3 269 36 9
3 8 7 38
3 34 276 7
3 34 7 6
3 34 6 32
3 266 276 24
3 24 276 34
3 23 25 275
3 82 270 62
3 64 81 277
3 232 71 73
3 278 279 71
3 71 279 72
3 72 287 73
3 288 284 289
3 290 165 291
3 72 279 99
3 244 262 229
3 292 72 99
3 288 283 284
3 290 281 165
3 165 281 60
3 292 99 283
3 280 281 284
3 280 94 281
3 231 193 205
3 231 233 250
3 291 165 101
3 291 101 105
3 291 105 293
3 247 293 245
3 293 105 245
3 245 105 104
3 245 254 246
3 12 14 268
3 14 202 268
3 268 36 269
3 267 256 202
3 218 30 219
3 171 294 8
3 82 62 61
3 73 295 232
3 296 288 289
3 72 292 287
3 232 295 297
3 232 297 233
3 73 287 295
3 296 298 299
3 299 298 293
3 299 293 247
3 283 99 98
3 98 280 284
3 284 281 289
3 295 300 297
3 233 297 285
3 297 301 285
3 233 285 251
3 251 285 246
3 233 251 250
3 105 101 103
3 216 201 215
3 263 33 264
3 264 217 263
3 263 215 39
3 217 216 263
3 215 282 39
3 39 282 29
3 294 203 217
3 294 217 264
3 294 264 32
3 171 203 294
3 6 294 32
3 8 294 6
3 270 275 62
3 292 283 288
3 287 292 300
3 300 292 302
3 302 292 288
3 289 290 291
3 295 287 300
3 301 300 302
3 302 288 296
3 297 300 301
3 301 302 299
3 299 302 296
3 286 301 299
3 285 301 286
3 286 299 247
3 246 286 247
3 216 215 263
3 282 215 274
3 282 274 219
3 289 281 290
3 296 289 298
3 289 291 298
3 298 291 293
3 31 30 275
3 275 30 62
