ply
format ascii 1.0
comment Created by Blender 2.80 (sub 75) - www.blender.org, source file: 'color_and_decimate.blend'
element vertex 252
property float x
property float y
property float z
property float nx
property float ny
property float nz
element face 500
property list uchar uint vertex_indices
end_header
-5723.602539 -3794.098389 -1702.925049 -0.872707 -0.004120 -0.488174
-5729.523438 -3836.172363 -1713.867920 -0.564135 0.774529 -0.286050
-5784.649414 -3795.498047 -1611.598145 -0.666890 -0.084506 -0.740318
-5867.471191 -3723.166748 -1635.347290 0.611194 -0.150426 -0.777032
-5988.585449 -3735.275635 -1717.093140 0.608783 -0.225105 -0.760704
-5955.185059 -3682.114258 -1718.645508 0.585681 -0.212775 -0.782098
-5961.806641 -3608.043457 -1721.660156 0.614582 -0.113987 -0.780541
-5896.130371 -3534.258545 -1692.047485 0.485519 -0.181524 -0.855159
-5997.187988 -3492.471924 -1776.419678 0.670278 -0.204505 -0.713340
-6013.990234 -3603.517334 -1777.790771 0.612018 -0.165349 -0.773339
-6020.170410 -3464.106445 -1810.466187 0.582751 -0.156957 -0.797327
-6088.536621 -3239.547607 -1945.796265 0.369091 -0.836146 -0.405652
-6058.662109 -3291.726318 -1882.059692 0.632557 -0.364574 -0.683309
-6132.887695 -3349.752930 -1926.515625 0.645802 -0.206763 -0.734947
-6262.026367 -3493.587402 -2020.113403 0.695273 -0.223182 -0.683187
-6171.487793 -3466.713867 -1927.466309 0.601215 -0.310221 -0.736381
-6241.475586 -3581.130371 -1964.633057 0.694174 -0.162145 -0.701285
-6116.459961 -3544.238770 -1860.184082 0.623859 -0.159337 -0.765069
-6162.035156 -3619.545654 -1887.681641 0.651295 -0.127750 -0.747978
-6086.440430 -3641.372559 -1825.028198 0.623524 -0.159978 -0.765221
-6040.398926 -3650.258545 -1776.340820 0.451613 -0.187170 -0.872341
-6141.679199 -3711.677734 -1852.548462 0.632160 -0.215491 -0.744255
-6045.441406 -3725.069824 -1770.355713 0.601062 -0.180364 -0.778558
-6158.109863 -3805.828125 -1830.977905 0.631306 0.151189 -0.760643
-6032.840820 -3822.752441 -1745.958374 0.528703 0.458235 -0.714438
-6142.744141 -3834.696045 -1844.861572 0.292703 0.885739 -0.360179
-5725.000000 -3237.500000 -3750.000244 -0.121982 -0.984191 0.128300
-6319.963379 -3239.731689 -2173.991699 0.423597 -0.828578 -0.366039
-6380.592773 -3238.484131 -2266.404053 0.291025 -0.920194 -0.261666
-6388.205566 -3276.967773 -3787.474854 0.173986 -0.179418 0.968230
-6490.422363 -3367.014648 -3757.705078 0.714560 -0.469344 0.518723
-6535.238770 -3458.116455 -3776.035400 0.647877 -0.393017 0.652486
-6558.041992 -3394.557373 -3662.045166 0.773034 -0.517411 0.366924
-6616.803223 -3490.562500 -3668.569336 0.830317 -0.291543 0.474899
-6573.991699 -3542.121826 -3785.263916 0.665151 0.064699 0.743889
-6501.204590 -3822.062988 -3413.074219 0.750206 0.607196 0.261666
-6578.096680 -3721.569824 -3342.375977 0.839442 0.483169 0.248726
-6530.811035 -3833.771729 -3290.354492 0.483779 0.858547 0.169744
-5690.844238 -3738.422363 -1822.422363 -0.978607 -0.113865 -0.171209
-5687.228027 -3797.370361 -1780.917358 -0.962828 0.051363 -0.265114
-5690.222656 -3653.215820 -1858.438721 -0.981384 -0.077853 -0.175542
-5720.035156 -3650.124512 -1777.994873 -0.865139 -0.220069 -0.450636
-5687.500000 -3275.000244 -3750.000000 -0.983886 -0.126499 0.126255
-5690.129883 -3557.749756 -1905.889526 -0.977874 -0.098849 -0.184240
-5690.236328 -3445.880859 -1963.927124 -0.976959 -0.099338 -0.188788
-5727.054199 -3443.844971 -1874.858887 -0.867672 -0.227668 -0.441877
-5764.100098 -3647.726807 -1717.689331 -0.787255 -0.247902 -0.564562
-5771.344238 -3505.983398 -1780.487915 -0.832087 -0.224464 -0.507157
-5772.014160 -3576.436523 -1723.225098 -0.867306 -0.229225 -0.441786
-5690.176270 -3358.209229 -2015.086182 -0.977142 -0.129276 -0.168645
-5725.013672 -3343.624756 -1928.746216 -0.866909 -0.242073 -0.435682
-6193.874512 -3240.375488 -2051.566162 0.366619 -0.860195 -0.354442
-6292.175293 -3252.941895 -2135.466064 0.662069 -0.387036 -0.641743
-5692.215332 -3250.717529 -2091.831055 -0.817835 -0.565203 -0.107974
-5723.693359 -3837.469482 -3580.524414 -0.510758 0.847743 0.142949
-6258.121582 -3836.638916 -1960.369019 0.212836 0.953795 -0.211982
-6239.614746 -3816.986328 -1906.471802 0.653127 0.344035 -0.674551
-6655.419434 -3830.359619 -3038.742676 0.466964 0.827082 0.312723
-6583.101562 -3836.208008 -3127.543701 0.343852 0.928343 0.140965
-6640.211426 -3745.510986 -3157.908203 0.775811 0.489303 0.398267
-6736.382812 -3782.611816 -2968.182129 0.626240 0.542955 0.559435
-6791.751465 -3834.971436 -2851.653076 0.504654 0.853542 0.129368
-6690.554199 -3837.136963 -2948.877441 0.280557 0.942778 0.180090
-5687.780273 -3798.432861 -3538.941895 -0.963958 0.210761 0.162175
-5696.893555 -3827.932373 -3536.611328 -0.746727 0.646779 0.154973
-5696.964844 -3828.048828 -1788.012939 -0.707053 0.696890 -0.119968
-6273.413574 -3823.875000 -1948.482300 0.643666 0.481338 -0.594928
-6352.015137 -3814.161377 -2023.525391 0.664083 0.341777 -0.664937
-6336.288574 -3761.766602 -2015.040649 0.717002 -0.159001 -0.678640
-5697.199219 -3246.968018 -3776.866943 -0.577837 -0.582293 0.571856
-6619.171875 -3685.325928 -3267.120361 0.821467 0.477737 0.311289
-6361.513672 -3835.496826 -2064.097656 0.302652 0.915677 -0.264412
-6405.038574 -3808.660156 -2075.881104 0.752098 0.219062 -0.621540
-6474.582520 -3792.875732 -2180.870605 0.814447 0.068209 -0.576189
-6381.058594 -3690.998047 -2097.108398 0.746757 -0.173315 -0.642109
-6505.069824 -3726.539795 -2243.025146 0.815821 -0.123295 -0.564989
-6435.765137 -3665.136475 -2161.370850 0.770104 -0.086642 -0.631977
-6490.598145 -3636.943848 -2235.000977 0.812006 -0.122959 -0.570513
-6488.695801 -3555.534180 -2258.579346 0.808222 -0.201331 -0.553331
-6550.276855 -3623.423340 -2331.678711 0.820368 -0.150548 -0.551622
-6553.055176 -3500.752441 -2376.248535 0.822443 -0.179449 -0.539750
-6439.773926 -3835.868896 -3538.369873 0.418317 0.903226 0.095676
-6543.761230 -3686.920410 -3524.723145 0.864742 0.477432 0.155614
-6494.754883 -3764.118652 -3519.748047 0.819849 0.535508 0.202490
-6491.095215 -3752.129150 -3626.663818 0.822230 0.542467 0.172124
-6434.507324 -3832.428467 -2139.853271 0.507004 0.802301 -0.314951
-5691.332520 -3633.729004 -3772.709961 -0.812342 0.130253 0.568407
-6473.886230 -3834.795166 -2209.856445 0.386639 0.862911 -0.325327
-6390.757812 -3832.056641 -3774.417480 0.349590 0.770287 0.533280
-5721.479004 -3825.140869 -3780.786133 -0.592486 0.473922 0.651357
-6388.056641 -3797.384277 -3787.495117 0.161077 0.211158 0.964080
-5711.318359 -3744.821533 -3643.994873 -0.941465 0.289560 0.172491
-5689.130371 -3702.130859 -3634.533936 -0.976012 0.180822 0.121189
-5708.156250 -3715.334717 -3717.732422 -0.961821 0.208045 0.177740
-5727.625977 -3675.753662 -3785.871094 -0.436445 0.142125 0.888394
-5724.999512 -3274.999268 -3787.500000 -0.139653 -0.134739 0.980956
-6405.862305 -3833.951416 -3683.836914 0.400891 0.904965 0.142308
-6439.746582 -3823.214355 -3639.424316 0.666707 0.715049 0.210150
-5927.817871 -3795.906738 -1665.302368 0.574145 0.090915 -0.813654
-5822.385254 -3815.554443 -1593.275024 0.121464 0.303903 -0.944914
-5914.718262 -3834.161133 -1672.578857 0.328959 0.820093 -0.468154
-5984.413574 -3836.932373 -1741.290771 0.131901 0.976287 -0.171636
-5727.408691 -3254.939209 -1978.401855 -0.781304 -0.547960 -0.298776
-5887.037598 -3238.920410 -1771.481567 -0.075625 -0.764519 -0.640126
-5784.394531 -3251.185059 -1887.542480 -0.645039 -0.648000 -0.404920
-5823.399902 -3252.533936 -1824.180420 -0.643086 -0.603870 -0.470870
-5833.902344 -3355.134277 -1755.385864 -0.690115 -0.327525 -0.645314
-5878.325195 -3320.319336 -1735.631470 -0.082400 -0.351787 -0.932432
-5917.150879 -3390.230225 -1738.167480 0.526536 -0.174322 -0.832057
-5853.255371 -3453.482422 -1698.731201 -0.174261 -0.326121 -0.929106
-5882.314453 -3451.079102 -1701.365356 0.282754 -0.290384 -0.914151
-5992.156250 -3362.897461 -1810.929077 0.624958 -0.161992 -0.763634
-6060.719727 -3431.074707 -1836.519165 0.606342 -0.176000 -0.775445
-5727.606934 -3237.511475 -2033.256714 -0.507523 -0.846004 -0.163182
-6387.550781 -3238.009033 -3749.126221 0.156743 -0.972320 0.173193
-6393.707031 -3247.708008 -3777.853516 0.331828 -0.668111 0.665944
-5727.435059 -3834.966309 -3759.028320 -0.417219 0.895291 0.156011
-5792.983398 -3834.876465 -1609.359497 -0.373699 0.704001 -0.603900
-5782.254395 -3369.795898 -1828.698364 -0.809992 -0.306925 -0.499649
-5823.975098 -3559.476807 -1668.733032 -0.466109 -0.299936 -0.832301
-5836.670410 -3679.740234 -1613.679077 0.039308 -0.332255 -0.942351
-5776.356445 -3426.916504 -1793.999268 -0.820154 -0.265786 -0.506638
-5847.315430 -3628.846680 -1646.377563 0.518265 -0.283364 -0.806879
-6438.274414 -3766.067627 -3774.513672 0.658559 0.514542 0.549089
-6581.867188 -3833.696533 -2351.783447 0.601123 0.719657 -0.347423
-5959.960449 -3240.926758 -1815.610962 0.381146 -0.815912 -0.434675
-5954.321289 -3282.167480 -1787.230225 0.568072 -0.284463 -0.772240
-6015.995605 -3240.055908 -1891.401733 0.305643 -0.905057 -0.295724
-6594.344238 -3733.786133 -2370.079102 0.847621 -0.074129 -0.525376
-6587.402832 -3276.865479 -2502.109619 0.787500 -0.362011 -0.498733
-6543.737305 -3380.281738 -2402.706543 0.811670 -0.214454 -0.543260
-6640.020508 -3347.064941 -2572.326660 0.858394 -0.180761 -0.480056
-6541.239258 -3824.937256 -2272.489990 0.740501 0.435438 -0.511856
-6505.079102 -3701.063477 -3746.231689 0.809564 0.505875 0.297769
-6533.761719 -3625.071289 -3766.156738 0.822291 0.469649 0.321238
-6526.831543 -3663.019043 -3653.768066 0.869320 0.451521 0.200964
-6623.541016 -3836.755615 -2441.242432 0.275491 0.949644 -0.149205
-6488.902832 -3677.175781 -3784.752686 0.413068 0.252846 0.874874
-6126.311035 -3459.916504 -1903.692017 0.627430 -0.270211 -0.730247
-6196.114746 -3397.396973 -1983.176270 0.670522 -0.172735 -0.721458
-6198.991211 -3306.776367 -2002.023438 0.670980 -0.332133 -0.662893
-6252.990234 -3288.900635 -2076.742432 0.690054 -0.350261 -0.633320
-6353.363281 -3331.206787 -2180.224365 0.689596 -0.233345 -0.685537
-6438.528320 -3258.622314 -2297.168701 0.661061 -0.527177 -0.533860
-6359.997559 -3278.772217 -2193.897217 0.703970 -0.312754 -0.637593
-6404.575684 -3379.605469 -2212.240234 0.768395 -0.230445 -0.597003
-6248.131836 -3398.244873 -2024.930420 0.677969 -0.181402 -0.712333
-6329.410645 -3678.961670 -2035.206177 0.740043 -0.195685 -0.643422
-6283.856445 -3723.213867 -1969.154297 0.664937 -0.255257 -0.701865
-6303.943359 -3617.700684 -2021.047729 0.732871 -0.156133 -0.662191
-6610.502441 -3523.460449 -3679.327393 0.899228 0.317484 0.300882
-6714.235840 -3596.601807 -2642.802490 0.902310 -0.100711 -0.419141
-6756.898438 -3573.408691 -2733.845459 0.934843 -0.087069 -0.344157
-6723.504883 -3443.157959 -2714.833008 0.897610 -0.104953 -0.428083
-6298.407227 -3549.742188 -2023.283081 0.558946 -0.168187 -0.811914
-6324.629395 -3397.733154 -2104.307861 0.727866 -0.242286 -0.641438
-6339.550781 -3518.884766 -2094.248047 0.725669 -0.195807 -0.659566
-6698.589355 -3822.562256 -2564.261963 0.862941 0.330241 -0.382397
-6660.204102 -3823.831299 -2475.731689 0.812037 0.437361 -0.386334
-6741.840820 -3834.224121 -2675.940186 0.574297 0.794641 -0.196600
-6718.485840 -3826.529297 -2623.635742 0.845973 -0.419568 -0.329020
-6672.459473 -3729.499023 -2524.622070 0.894253 -0.071352 -0.441755
-6481.488281 -3243.439941 -2377.920410 0.503342 -0.803430 -0.318003
-6463.305176 -3300.763184 -2307.484375 0.763359 -0.243690 -0.598193
-6404.770508 -3596.030762 -2129.515381 0.706534 -0.154942 -0.690481
-6431.417969 -3491.109619 -2202.852295 0.774468 -0.227973 -0.590075
-6442.152344 -3405.085938 -2259.357666 0.788720 -0.203864 -0.579943
-6507.558105 -3361.883789 -2350.479248 0.818384 -0.208106 -0.535630
-6756.709961 -3794.301025 -2676.484375 0.930540 0.083193 -0.356609
-6719.758789 -3692.854492 -2637.344727 0.929075 -0.080020 -0.361064
-6483.205078 -3240.356445 -3580.647705 0.400922 -0.893124 0.203772
-6737.971191 -3240.373779 -3113.818604 0.411542 -0.900693 0.139073
-6809.184082 -3292.961182 -3010.030029 0.724143 -0.619831 0.302316
-6802.875977 -3316.041992 -3124.856201 0.800165 -0.556017 0.224830
-6833.531250 -3378.525146 -3110.021729 0.848445 -0.493667 0.190771
-6875.809082 -3400.461914 -3055.837158 0.966155 -0.247139 0.073672
-6854.221680 -3323.776123 -2973.308594 0.948546 -0.316538 -0.003723
-6842.660645 -3397.345215 -2944.076904 0.899075 0.103702 -0.425275
-6809.475586 -3430.052002 -2902.561768 0.889859 0.079043 -0.449293
-6804.588867 -3607.286621 -2862.762695 0.935667 -0.064638 -0.346843
-6828.562012 -3620.254150 -2930.241211 0.975768 0.010041 -0.218482
-6823.177246 -3728.036865 -2933.066162 0.908444 0.313974 0.275918
-6806.990723 -3815.012207 -2829.280518 0.912473 0.360179 -0.193976
-6761.592773 -3829.579346 -2752.277344 0.627613 0.753594 -0.195257
-6487.556641 -3294.394775 -3659.760742 0.746483 -0.549394 0.375347
-6462.059570 -3753.086182 -3693.379883 0.724479 0.648762 0.232795
-6490.854980 -3483.175049 -2293.000000 0.795923 -0.220496 -0.563768
-6539.497559 -3240.829102 -2475.949707 0.368999 -0.897336 -0.242042
-6759.430176 -3241.501709 -3007.759033 0.360240 -0.922727 0.137028
-6524.270508 -3239.519287 -3491.408447 0.366619 -0.907651 0.204291
-6604.113281 -3239.941650 -2576.157471 0.357372 -0.900266 -0.248543
-6658.592773 -3240.841797 -2652.335938 0.545427 -0.781884 -0.301859
-6717.892090 -3240.470459 -2775.562988 0.451186 -0.830409 -0.326792
-6556.083984 -3304.149658 -3548.094727 0.727287 -0.570818 0.380993
-6574.898438 -3614.855225 -3601.493408 0.830683 0.517685 0.204749
-6565.667480 -3376.553955 -3608.276611 0.750999 -0.519761 0.407147
-6585.630859 -3442.325928 -2436.682617 0.839717 -0.143071 -0.523789
-6696.074219 -3292.943359 -2690.717285 0.868892 -0.226508 -0.440077
-6771.476562 -3256.202148 -2815.229492 0.748741 -0.435621 -0.499588
-6739.995605 -3345.928711 -2761.538818 0.892972 -0.100070 -0.438765
-6764.501465 -3318.039062 -2819.615479 0.896329 0.067965 -0.438093
-6672.642090 -3470.583740 -3553.916748 0.916196 -0.135746 0.377026
-6564.217773 -3650.510742 -3497.720947 0.833338 0.514389 0.202277
-6602.047363 -3625.474365 -2405.467773 0.843471 -0.155217 -0.514206
-6618.793457 -3492.003174 -2495.173828 0.834712 -0.151738 -0.529313
-6789.645996 -3237.862793 -2904.405762 0.324961 -0.943052 -0.070833
-6832.602051 -3261.877686 -2923.167480 0.841823 -0.524125 -0.128788
-6644.964844 -3239.562012 -3286.880859 0.376019 -0.907407 0.187506
-6620.669434 -3250.752686 -3372.500732 0.598193 -0.727378 0.336192
-6606.161621 -3333.358398 -3491.912842 0.707694 -0.567675 0.420545
-6677.434570 -3415.200195 -3491.779053 0.741874 -0.480575 0.467574
-6672.659668 -3353.936523 -3409.499756 0.695791 -0.579455 0.424299
-6746.287598 -3429.147949 -3398.555664 0.898068 -0.021729 0.439283
-6711.306152 -3462.699951 -3454.112549 0.911985 0.231239 0.338755
-6674.200684 -3527.648193 -3394.151123 0.836940 0.504501 0.212043
-6688.092773 -3690.455078 -3128.143066 0.790582 0.440809 0.424970
-6729.025391 -3631.476562 -3107.847412 0.736686 0.486373 0.469771
-6745.409668 -3716.135986 -3003.116455 0.662435 0.473861 0.580126
-6641.938965 -3687.517822 -2463.911865 0.889981 -0.098239 -0.445235
-6638.754883 -3554.812500 -2496.394775 0.863948 -0.180792 -0.469955
-6613.640625 -3603.410889 -3468.624268 0.755028 0.616810 0.222266
-6660.492188 -3487.091064 -3597.477539 0.917142 -0.050264 0.395306
-6645.791016 -3439.535889 -2549.382324 0.877224 -0.133915 -0.460982
-6657.578125 -3635.386230 -2511.245850 0.893857 -0.123905 -0.430830
-6685.950684 -3295.674072 -3300.411621 0.695456 -0.604389 0.388592
-6648.016602 -3581.220947 -3394.895264 0.839045 0.502518 0.208441
-6690.937500 -3550.086182 -3323.088135 0.796136 0.530747 0.290536
-6653.199219 -3552.627441 -3508.573975 0.792962 0.570330 0.214148
-6693.434082 -3388.305176 -2654.875244 0.889645 -0.106998 -0.443922
-6674.829102 -3491.373047 -2599.687988 0.878994 -0.139805 -0.455794
-6705.147949 -3531.400391 -2624.696289 0.785852 -0.026124 -0.617817
-6687.589355 -3603.454590 -3223.930908 0.785668 0.515488 0.341929
-6706.453125 -3706.558838 -2587.018066 0.922300 -0.063814 -0.381115
-6730.615723 -3277.822021 -3208.140381 0.705039 -0.588977 0.394940
-6762.911133 -3469.972168 -3281.156738 0.802515 0.497147 0.329783
-6832.175293 -3647.586182 -2979.152344 0.914548 0.281289 0.290567
-6823.773438 -3372.006348 -3182.234619 0.885464 -0.350658 0.304849
-6809.596680 -3396.551514 -3270.134521 0.909268 -0.140080 0.391858
-6764.338867 -3672.103516 -2741.688965 0.927824 -0.071657 -0.366039
-6762.541504 -3460.816406 -2787.184570 0.916074 -0.097018 -0.389019
-6772.570312 -3404.824219 -2835.379639 0.896725 -0.073702 -0.436354
-6769.310547 -3573.095215 -2794.622070 0.943388 -0.081881 -0.321329
-6807.910645 -3783.441406 -2899.443848 0.846400 0.435347 0.306650
-6798.288086 -3575.613770 -3077.194580 0.716147 0.484909 0.501968
-6806.417969 -3475.011475 -3173.785889 0.791589 0.437971 0.426038
-6806.258301 -3723.193115 -2833.178955 0.963225 -0.025849 -0.267342
-6885.201172 -3458.789795 -3091.790527 0.964202 0.194952 0.179632
-6770.541992 -3412.035889 -3323.653076 0.636525 0.763512 0.108737
-6839.655273 -3561.443115 -3008.095459 0.973540 0.225654 0.035737
-6820.523926 -3504.366699 -3105.904053 0.700583 0.529221 0.478591
-6831.163086 -3490.236572 -2970.888428 0.861080 0.141789 -0.488235
-6867.719238 -3491.148193 -3070.201416 0.893490 0.432661 0.120060
3 0 1 2
3 3 4 5
3 5 6 7
3 8 9 10
3 11 12 13
3 14 15 16
3 15 17 18
3 18 17 19
3 20 19 9
3 21 22 23
3 23 24 25
3 26 27 28
3 29 30 31
3 32 33 34
3 35 36 37
3 38 39 0
3 40 38 41
3 41 38 0
3 38 40 42
3 43 40 41
3 40 43 42
3 38 42 39
3 44 43 45
3 45 43 41
3 41 46 47
3 47 46 48
3 43 44 42
3 49 44 50
3 50 44 45
3 44 49 42
3 51 52 27
3 49 53 42
3 54 55 25
3 25 55 56
3 57 58 59
3 60 61 62
3 63 64 39
3 63 39 42
3 62 54 57
3 65 54 1
3 54 58 57
3 56 55 66
3 67 68 66
3 53 69 42
3 59 58 37
3 70 37 36
3 66 55 67
3 58 54 37
3 55 54 71
3 55 71 67
3 72 73 74
3 73 75 76
3 76 75 77
3 78 77 79
3 78 79 80
3 54 81 37
3 82 83 84
3 71 85 72
3 37 81 35
3 69 86 42
3 39 64 65
3 71 54 85
3 85 87 73
3 88 89 90
3 65 64 54
3 54 87 85
3 64 63 54
3 54 63 91
3 42 92 63
3 91 92 93
3 91 93 89
3 92 42 86
3 92 86 93
3 93 86 94
3 86 69 95
3 86 95 94
3 94 95 90
3 63 92 91
3 54 96 81
3 96 97 81
3 54 88 96
3 41 0 46
3 1 0 65
3 98 99 100
3 98 100 24
3 100 54 101
3 24 101 25
3 65 0 39
3 45 41 47
3 50 102 49
3 103 104 105
3 105 106 103
3 103 106 107
3 108 107 109
3 108 109 110
3 111 112 12
3 102 113 49
3 49 113 53
3 53 113 69
3 69 113 26
3 69 26 114
3 69 114 115
3 54 91 89
3 54 89 116
3 93 94 89
3 94 90 89
3 1 54 117
3 117 100 99
3 104 50 118
3 113 11 26
3 116 89 88
3 0 2 46
3 2 1 117
3 119 46 120
3 117 54 100
3 47 121 45
3 45 118 50
3 121 118 45
3 102 50 104
3 102 104 113
3 54 116 88
3 2 117 99
3 46 2 120
3 48 46 119
3 122 120 3
3 47 48 119
3 109 119 122
3 109 122 7
3 104 118 105
3 105 118 106
3 107 106 109
3 104 103 113
3 88 90 123
3 120 2 99
3 119 120 122
3 7 122 5
3 121 106 118
3 121 119 106
3 119 121 47
3 54 124 87
3 95 69 29
3 95 29 90
3 99 3 120
3 99 98 3
3 3 98 4
3 106 119 109
3 125 126 12
3 127 12 11
3 110 109 7
3 103 107 126
3 126 107 108
3 126 108 111
3 128 79 75
3 129 130 131
3 5 122 3
3 87 124 132
3 22 4 24
3 110 7 8
3 100 101 24
3 125 103 126
3 133 134 135
3 4 98 24
3 111 108 10
3 103 125 113
3 54 136 124
3 9 6 5
3 8 7 9
3 9 7 6
3 108 110 10
3 110 8 10
3 10 9 17
3 113 125 127
3 113 127 11
3 69 115 29
3 90 137 123
3 123 137 133
3 9 5 22
3 9 22 20
3 5 4 22
3 12 126 111
3 127 125 12
3 90 29 137
3 112 111 10
3 54 25 101
3 22 24 23
3 9 19 17
3 19 22 21
3 20 22 19
3 10 17 112
3 112 17 138
3 138 15 139
3 138 139 13
3 13 12 138
3 138 12 112
3 11 140 51
3 141 142 52
3 143 144 145
3 19 21 18
3 11 13 140
3 11 51 26
3 137 29 34
3 138 17 15
3 51 140 141
3 137 34 134
3 15 18 16
3 140 13 139
3 140 139 146
3 23 25 56
3 18 21 147
3 147 21 148
3 21 23 56
3 21 56 148
3 51 141 52
3 52 142 144
3 18 147 16
3 16 149 14
3 139 15 14
3 26 51 27
3 134 34 150
3 134 150 135
3 151 152 153
3 146 139 14
3 140 146 141
3 148 56 66
3 148 68 147
3 148 66 68
3 14 149 154
3 146 14 155
3 155 14 156
3 156 14 154
3 141 146 155
3 141 155 142
3 136 157 158
3 16 147 149
3 29 31 34
3 34 31 32
3 68 67 72
3 68 72 74
3 27 52 144
3 136 54 159
3 136 159 157
3 157 159 160
3 158 157 161
3 154 149 156
3 28 144 143
3 28 143 162
3 162 143 163
3 149 147 74
3 147 68 74
3 67 71 72
3 164 76 77
3 156 74 164
3 156 149 74
3 165 155 156
3 142 145 144
3 142 155 145
3 27 144 28
3 155 165 145
3 145 165 166
3 163 166 167
3 160 168 169
3 26 170 114
3 164 74 76
3 73 72 85
3 164 165 156
3 165 164 78
3 145 166 143
3 143 166 163
3 26 28 162
3 171 172 173
3 173 172 174
3 175 176 177
3 178 179 180
3 180 179 181
3 182 183 61
3 96 88 123
3 76 74 73
3 160 159 168
3 115 170 184
3 115 184 30
3 185 97 96
3 114 170 115
3 185 96 123
3 185 123 133
3 185 133 84
3 84 133 135
3 29 115 30
3 164 77 78
3 165 186 166
3 186 165 78
3 167 130 162
3 26 162 187
3 172 171 188
3 26 189 170
3 35 81 83
3 83 81 84
3 84 81 97
3 185 84 97
3 73 87 132
3 167 166 186
3 167 186 130
3 167 162 163
3 26 187 190
3 26 191 192
3 54 183 159
3 30 184 31
3 75 73 132
3 130 186 80
3 80 186 78
3 162 130 129
3 162 129 187
3 170 189 193
3 82 84 194
3 194 84 135
3 170 193 184
3 184 193 195
3 184 32 31
3 133 137 134
3 77 75 79
3 130 80 196
3 192 191 197
3 198 199 200
3 26 188 171
3 36 83 82
3 83 36 35
3 193 201 195
3 202 82 194
3 33 150 34
3 184 195 32
3 75 132 128
3 128 132 124
3 80 203 204
3 79 203 80
3 26 205 188
3 172 188 206
3 176 206 177
3 26 207 189
3 189 207 208
3 209 189 208
3 202 36 82
3 189 209 193
3 210 211 212
3 213 212 214
3 215 216 217
3 32 195 33
3 194 135 150
3 79 128 203
3 128 124 158
3 158 124 136
3 203 218 219
3 196 80 204
3 130 196 131
3 187 129 190
3 26 190 191
3 183 54 61
3 59 37 70
3 36 202 220
3 220 202 194
3 209 211 210
3 209 201 193
3 33 195 221
3 203 128 218
3 203 219 204
3 196 204 222
3 219 218 223
3 196 222 131
3 222 204 219
3 131 197 191
3 129 131 191
3 224 208 207
3 225 70 36
3 225 214 226
3 36 220 225
3 209 208 211
3 220 194 150
3 195 201 221
3 227 220 150
3 227 150 221
3 218 128 158
3 129 191 190
3 131 228 197
3 229 230 153
3 188 205 206
3 54 62 61
3 231 70 225
3 231 59 70
3 26 171 207
3 220 227 225
3 209 210 201
3 221 150 33
3 223 229 219
3 219 229 222
3 223 218 161
3 218 158 161
3 131 222 228
3 228 222 229
3 229 223 151
3 230 229 151
3 228 229 153
3 57 215 217
3 57 60 62
3 215 57 59
3 231 215 59
3 226 231 225
3 224 211 208
3 213 227 201
3 214 225 227
3 214 227 213
3 227 221 201
3 169 232 160
3 223 161 232
3 161 157 232
3 232 157 160
3 232 151 223
3 197 228 199
3 57 217 60
3 207 171 233
3 207 233 224
3 231 226 234
3 234 226 212
3 213 201 210
3 151 232 169
3 230 151 153
3 228 153 199
3 192 197 199
3 26 192 205
3 205 198 206
3 235 217 216
3 236 173 174
3 174 176 175
3 216 215 231
3 212 211 237
3 210 212 213
3 152 151 238
3 151 169 238
3 169 168 238
3 153 239 199
3 199 239 240
3 199 240 200
3 200 240 177
3 200 177 206
3 152 238 241
3 153 152 239
3 192 199 198
3 60 242 61
3 216 243 235
3 244 216 231
3 233 173 224
3 224 237 211
3 226 214 212
3 168 159 183
3 168 183 238
3 238 183 182
3 238 182 245
3 245 242 181
3 239 152 241
3 245 182 242
3 241 238 179
3 198 205 192
3 60 217 181
3 181 217 235
3 181 235 180
3 243 216 244
3 233 171 173
3 246 244 236
3 244 231 234
3 244 234 237
3 237 234 247
3 237 224 236
3 212 237 247
3 234 212 247
3 245 179 238
3 198 200 206
3 240 178 177
3 240 239 178
3 239 241 178
3 178 241 179
3 242 60 181
3 248 235 243
3 243 244 249
3 173 236 224
3 244 237 236
3 182 61 242
3 179 245 181
3 250 178 180
3 250 180 235
3 250 235 248
3 178 250 177
3 174 175 246
3 243 249 251
3 243 251 248
3 250 248 177
3 206 176 172
3 177 248 175
3 175 248 251
3 172 176 174
3 251 249 246
3 246 249 244
3 236 174 246
3 246 175 251
