ply
format ascii 1.0
comment Created by Blender 2.80 (sub 75) - www.blender.org, source file: 'color_and_decimate.blend'
element vertex 356
property float x
property float y
property float z
property float nx
property float ny
property float nz
element face 708
property list uchar uint vertex_indices
end_header
-7891.062500 -4437.409668 -2983.872314 -0.065004 0.990112 0.124119
-7734.742188 -4437.500000 -2151.537109 -0.000702 0.999969 0.000183
-7710.687500 -4436.627441 -2917.474609 -0.184454 0.926420 0.328135
-7752.045898 -4423.907227 -2956.216553 -0.316538 0.655721 0.685415
-7048.586914 -4346.851074 -1072.949341 -0.569964 -0.277535 -0.773339
-7041.010254 -4256.350098 -1122.646362 -0.833338 -0.110660 -0.541520
-7045.972168 -4427.049316 -1074.832153 -0.655019 0.526414 -0.542009
-7086.882812 -4382.317871 -1059.017212 0.068026 -0.101535 -0.992492
-7128.651367 -4426.526855 -1073.045776 0.245582 0.512101 -0.823054
-7076.222656 -4437.661621 -1085.554321 -0.104312 0.939848 -0.325205
-7207.119141 -4400.055664 -1109.034668 0.245064 0.037080 -0.968780
-7041.113281 -4156.806641 -1135.169189 -0.730094 -0.273232 -0.626301
-7076.598633 -4179.244141 -1117.093750 0.032899 -0.329356 -0.943602
-7075.249512 -4265.687988 -1110.131226 -0.063478 -0.219184 -0.973601
-7307.902344 -4416.152344 -1116.054199 0.403943 0.275094 -0.872402
-7223.629395 -4436.989746 -1126.304565 0.103427 0.863369 -0.493820
-7345.841797 -4436.763184 -1175.478394 0.136509 0.942534 -0.304849
-7037.577637 -4400.075195 -2612.341064 -0.891873 0.298624 0.339640
-7364.125000 -4412.718750 -1158.708740 0.277810 0.269051 -0.922178
-7436.635742 -4425.895508 -1177.852051 0.321696 0.511002 -0.797082
-7413.611816 -4398.821777 -1165.294678 0.333598 -0.034425 -0.942076
-7472.537598 -4372.216309 -1207.974121 0.331370 -0.235237 -0.913694
-7488.631836 -4326.473633 -1219.448608 0.359600 -0.259346 -0.896329
-7390.303223 -4199.564453 -1217.543091 0.339702 -0.282022 -0.897214
-7389.916504 -4043.982422 -1268.739014 0.379376 -0.307291 -0.872707
-7480.994141 -4167.870605 -1269.816528 0.344127 -0.278695 -0.896573
-7475.012695 -4079.401611 -1307.760742 0.349986 -0.283608 -0.892788
-7478.632812 -3928.826416 -1354.241699 0.359722 -0.315012 -0.878262
-7567.398926 -3971.639893 -1369.178833 0.386029 -0.287362 -0.876553
-7493.041016 -3876.036377 -1370.671997 0.303323 -0.471725 -0.827906
-7559.141602 -3892.786377 -1406.794556 0.410993 -0.429640 -0.804010
-7659.354492 -4026.951904 -1402.136963 0.405927 -0.295358 -0.864834
-7652.317383 -4157.577148 -1354.647583 0.372082 -0.277505 -0.885708
-7642.371582 -4234.189941 -1319.673218 0.377056 -0.277688 -0.883572
-7726.220703 -4264.894531 -1357.477417 0.381451 -0.308664 -0.871303
-7781.253418 -4386.189453 -1319.181030 0.426649 -0.078188 -0.900998
-7725.089844 -4385.729980 -1304.714600 0.357311 -0.094760 -0.929136
-7514.231445 -4437.012695 -1229.371826 0.107028 0.964049 -0.243171
-7610.872559 -4416.149414 -1258.504639 0.286569 -0.199530 -0.937010
-7563.913574 -4422.574707 -1223.019775 0.500107 0.422590 -0.755821
-7038.610840 -3998.042725 -1189.677124 -0.768273 -0.207129 -0.605640
-7051.102051 -4108.230469 -1164.058838 0.348430 -0.281075 -0.894162
-7087.306641 -4025.292236 -1165.635742 0.034272 -0.294626 -0.954985
-7133.092773 -4147.907227 -1160.715210 0.197302 -0.213477 -0.956786
-7234.861816 -4190.450195 -1165.089600 0.277169 -0.217048 -0.935972
-7037.501465 -3875.249512 -1252.869141 -0.985717 -0.147374 -0.081301
-7155.411621 -4207.553711 -1154.143677 0.383160 -0.336375 -0.860225
-7253.582031 -4126.536133 -1198.716309 0.320719 -0.274606 -0.906461
-7069.472168 -3838.973877 -1224.356201 -0.105655 -0.735435 -0.669271
-7046.432617 -3847.728760 -1231.570801 -0.679464 -0.558489 -0.475814
-7086.901367 -3938.351562 -1208.206787 0.093387 -0.262886 -0.960265
-7205.649414 -3983.148438 -1217.353882 0.306253 -0.295419 -0.904904
-7205.533691 -4066.264160 -1207.177490 0.293802 -0.302591 -0.906674
-7292.077148 -4079.917969 -1219.263916 0.353374 -0.302988 -0.885037
-7311.092773 -4204.410156 -1208.768555 0.330149 -0.232521 -0.914823
-7311.766602 -4026.311523 -1254.461060 0.320444 -0.274972 -0.906461
-7381.379395 -4128.293945 -1256.513550 0.377880 -0.298807 -0.876278
-7047.137207 -4428.185059 -2590.671631 -0.701498 0.703879 0.111362
-7072.081543 -4436.111816 -2621.564453 -0.366161 0.816858 0.445692
-7037.263184 -3876.485840 -2832.488525 -0.988861 -0.066775 0.132817
-7051.922852 -4328.895996 -2665.893066 -0.691092 0.338878 0.638356
-7054.077637 -4268.914551 -2705.653809 -0.615772 0.222449 0.755852
-7050.024414 -4204.215820 -2713.208496 -0.665090 0.275124 0.694205
-7266.960938 -4396.177734 -2717.001953 -0.301492 0.359752 0.882962
-7121.377441 -4243.353516 -2720.705566 -0.359539 0.394208 0.845759
-7284.711426 -4253.632812 -2779.781738 -0.420148 0.386670 0.820917
-7209.551758 -4280.969727 -2751.436768 -0.372539 0.402753 0.836055
-7191.890625 -4187.090820 -2787.984375 -0.344127 0.424238 0.837581
-7141.601074 -3944.302246 -2879.067139 -0.478164 0.367473 0.797662
-7049.728027 -3881.687988 -2868.923828 -0.734153 0.242042 0.634358
-7172.611816 -3874.318848 -2953.837891 -0.528336 0.161901 0.833430
-8133.993164 -3849.971680 -1717.969116 0.416761 -0.616321 -0.668142
-8179.991699 -3940.577881 -1708.734009 0.511216 -0.327403 -0.794610
-8279.782227 -3920.214355 -1777.921265 0.457778 -0.375317 -0.805933
-8259.955078 -3985.873535 -1736.046387 0.441725 -0.373699 -0.815577
-8193.429688 -4047.707275 -1663.972778 0.457350 -0.372692 -0.807367
-8401.126953 -4191.448730 -1714.378052 0.762169 -0.346568 -0.546770
-8253.980469 -4056.272949 -1703.844849 0.467788 -0.405042 -0.785546
-8348.658203 -4103.369629 -1719.635498 0.456587 -0.331431 -0.825617
-7047.178711 -3846.806396 -2874.333984 -0.697806 -0.493545 0.519059
-7037.614746 -4248.289551 -2668.075195 -0.981017 0.070376 0.180639
-7057.526855 -4160.329590 -2739.443359 -0.568926 0.327952 0.754143
-7039.273926 -4077.893799 -2749.726074 -0.911283 0.189489 0.365520
-7092.702148 -4090.833252 -2785.375732 -0.442946 0.389447 0.807520
-7038.977051 -3987.680420 -2795.808838 -0.905148 0.186193 0.382061
-7051.042480 -4033.896240 -2798.508301 -0.616932 0.274911 0.737388
-7104.679688 -4030.497070 -2819.131104 -0.419172 0.411847 0.809076
-7052.670898 -3942.888916 -2843.054443 -0.681875 0.322520 0.656514
-7369.563477 -4317.951660 -1170.767090 0.386731 -0.354381 -0.851344
-7251.455566 -3961.829834 -1256.791138 0.309244 -0.306772 -0.900113
-7264.788574 -3839.168701 -1317.428833 0.154515 -0.937956 -0.310373
-7079.058105 -3837.499756 -2865.638428 -0.154515 -0.975890 0.153996
-7104.248535 -3849.770996 -2902.933105 -0.520005 -0.433760 0.735771
-7174.394043 -3996.077637 -2881.926514 -0.468886 0.462233 0.752617
-7217.299805 -4041.458008 -2872.926758 -0.473830 0.468947 0.745323
-7221.983398 -4127.531250 -2835.052246 -0.447188 0.429487 0.784539
-7145.649414 -3853.274658 -1261.242188 0.401135 -0.241829 -0.883480
-7158.758301 -4435.811035 -2658.703369 -0.229438 0.862239 0.451521
-7180.576172 -3839.612305 -2953.422363 -0.333323 -0.734123 0.591540
-7203.470703 -3960.288330 -2926.777344 -0.504257 0.438581 0.743858
-7365.080566 -4126.937988 -2924.786621 -0.495956 0.437819 0.749870
-7228.173828 -4422.635254 -2706.122314 -0.215186 0.565508 0.796136
-7295.170410 -3891.580566 -3017.317627 -0.570574 0.228004 0.788934
-7385.955566 -4010.351807 -3005.781250 -0.516404 0.443068 0.732780
-7399.031738 -4085.602295 -2970.717529 -0.529710 0.428816 0.731773
-7324.825195 -4436.972168 -2712.884033 -0.179571 0.938139 0.295969
-7225.406738 -3852.007568 -1270.307007 0.173559 -0.652364 -0.737754
-7293.836426 -3931.965332 -1269.220581 0.341594 -0.281320 -0.896725
-7348.240234 -3840.505127 -1329.290527 0.214179 -0.812006 -0.542894
-7407.045410 -3874.833740 -3117.898926 -0.584735 0.282479 0.760430
-7333.956543 -3881.891113 -3060.748291 -0.656331 0.279366 0.700797
-7332.088867 -3848.772461 -3062.112061 -0.626392 -0.483016 0.611774
-7309.052246 -3874.345459 -1304.192749 0.323405 -0.423902 -0.845973
-7382.109863 -3977.959473 -1307.140503 0.371166 -0.291665 -0.881558
-7411.920410 -3917.636963 -1317.400146 0.344737 -0.306803 -0.887112
-7301.805664 -3842.566895 -3016.129883 -0.407056 -0.779138 0.476638
-7306.718262 -4354.087402 -2765.349121 -0.456496 0.367138 0.810419
-7402.339844 -4286.894043 -2852.913574 -0.464675 0.450880 0.762047
-8374.045898 -3837.503906 -1891.852783 0.311350 -0.894467 -0.320841
-7369.454102 -3837.928955 -3060.307861 -0.136601 -0.978423 0.154973
-7396.977539 -3839.421143 -1370.585815 0.209143 -0.906400 -0.366924
-7452.484863 -4434.170410 -2791.862793 -0.176702 0.893918 0.411878
-7447.833008 -4176.881348 -2954.084473 -0.444746 0.478439 0.757134
-7455.314453 -4120.750488 -2994.987793 -0.472762 0.467544 0.746879
-7349.121582 -4424.025879 -2754.043457 -0.381390 0.668050 0.638905
-7485.546875 -4396.018555 -2838.828857 -0.304666 0.495682 0.813288
-7565.127930 -4434.569336 -2835.444580 -0.203375 0.884976 0.418836
-7536.881836 -4347.672852 -2875.794434 -0.371746 0.483200 0.792627
-7470.920410 -4226.068848 -1257.163208 0.344951 -0.293466 -0.891537
-7443.934570 -3998.865723 -3056.247314 -0.482315 0.467910 0.740532
-7461.679199 -3958.009033 -3094.167236 -0.489364 0.536912 0.687155
-7542.463379 -4052.548340 -3078.074219 -0.510086 0.439436 0.739372
-7647.771973 -3948.860107 -3260.180908 -0.508621 0.647847 0.567034
-7556.876953 -3994.213867 -3125.936279 -0.522111 0.533189 0.665639
-7519.924805 -3883.945557 -3204.693604 -0.605945 0.403607 0.685476
-7643.913574 -3879.723877 -3337.898926 -0.646107 0.492294 0.583209
-7760.606445 -3936.520264 -3386.196533 -0.514512 0.704367 0.488968
-7824.974121 -4131.386719 -3254.791504 -0.409375 0.587603 0.697928
-7692.216797 -4059.507080 -3195.212402 -0.520341 0.408368 0.749962
-7766.232422 -4022.275635 -3280.312500 -0.574541 0.547899 0.607990
-7487.985840 -4024.326172 -1320.122070 0.349467 -0.259163 -0.900357
-7528.939941 -3838.412354 -1427.570923 0.193854 -0.891537 -0.409284
-7758.005859 -4016.715820 -1455.993774 0.392651 -0.250252 -0.884945
-7776.283691 -4118.555176 -1421.902954 0.391156 -0.304392 -0.868496
-7844.123535 -4136.644043 -1453.533325 0.422559 -0.365734 -0.829218
-7867.997070 -4219.255371 -1419.435547 0.394208 -0.329691 -0.857814
-7957.016113 -4271.917480 -1452.565674 0.400067 -0.303415 -0.864772
-7820.056641 -4236.282227 -1403.896118 0.355510 -0.296030 -0.886532
-7927.865723 -4340.054199 -1410.333496 0.429487 -0.385998 -0.816401
-7793.117676 -4273.367188 -1373.548706 0.351970 -0.314158 -0.881680
-7890.505859 -4378.246094 -1366.854980 0.351146 -0.236946 -0.905820
-7718.633301 -4173.321289 -1369.311401 0.392987 -0.298257 -0.869808
-7640.374512 -4070.840332 -1372.787476 0.381909 -0.278756 -0.881130
-7573.416504 -4065.191162 -1355.887939 0.390423 -0.301889 -0.869716
-7441.487305 -4261.731934 -2896.725098 -0.427534 0.519303 0.739921
-7456.250488 -3850.431885 -3156.728271 -0.548173 -0.500412 0.670095
-7574.035645 -3843.482910 -3267.536621 -0.551378 -0.664663 0.504135
-7633.467773 -3848.582275 -3343.657227 -0.689688 -0.430616 0.582080
-7478.997070 -3838.259521 -3144.820068 -0.137303 -0.977538 0.159825
-7502.361328 -3941.650146 -3146.515869 -0.457808 0.603198 0.653096
-7526.160645 -4289.577148 -1255.884277 0.332347 -0.260079 -0.906552
-7622.924805 -3846.319336 -1451.406006 0.263894 -0.475814 -0.838984
-7565.137695 -4210.490723 -2984.116699 -0.386700 0.563524 0.729972
-7548.625977 -4121.523438 -3043.522461 -0.500046 0.486099 0.716666
-7552.898926 -4188.135254 -1303.489624 0.376690 -0.302286 -0.875607
-7588.806152 -4294.059082 -1269.033569 0.369091 -0.279641 -0.886288
-7665.009766 -4319.468750 -1306.258911 0.349101 -0.286569 -0.892178
-7569.339844 -4122.256348 -1320.096558 0.378094 -0.304941 -0.874081
-7573.372070 -4283.116699 -2940.221436 -0.369976 0.490921 0.788720
-7729.011230 -4435.270508 -1316.462646 0.271920 0.807367 -0.523637
-7859.343750 -3954.430420 -3471.159668 -0.516343 0.769585 0.375591
-7747.265625 -3877.041748 -3461.099121 -0.678365 0.512589 0.526322
-7687.893066 -3838.940430 -1476.026489 0.255806 -0.804865 -0.535447
-7647.169434 -4255.418457 -2986.300293 -0.379894 0.552599 0.741783
-7718.677734 -4343.697754 -2975.363281 -0.404065 0.405560 0.819880
-7860.714355 -4423.519043 -3010.322510 -0.352458 0.767296 0.535691
-7612.020996 -4126.899902 -3096.805664 -0.511002 0.504593 0.695853
-7633.093262 -4028.762451 -3172.686768 -0.547197 0.501511 0.670064
-7693.505859 -4177.780273 -3106.171143 -0.422926 0.645131 0.636311
-7661.891602 -3837.695312 -3316.725342 -0.074618 -0.994232 0.076724
-7636.862305 -3892.604736 -1432.732910 0.328959 -0.337077 -0.882107
-7646.113770 -4419.533691 -2900.937988 -0.408765 0.593768 0.693014
-7732.953613 -4108.665527 -3198.416748 -0.532548 0.514542 0.671987
-7765.238770 -4207.021973 -3119.728516 -0.435133 0.697195 0.569659
-7717.244629 -3994.819336 -3254.847656 -0.522294 0.596789 0.609088
-7680.950684 -4421.164062 -1272.868652 0.391064 0.321482 -0.862362
-7716.951172 -4029.610352 -1421.011963 0.425459 -0.294412 -0.855739
-7727.957520 -4126.811523 -1403.713501 0.426008 -0.325907 -0.843959
-7981.420898 -4398.899902 -1407.713989 0.435163 -0.296701 -0.850032
-7711.559082 -4238.885254 -3035.954346 -0.400006 0.638417 0.657552
-7725.570801 -3844.438477 -3445.699951 -0.617023 -0.623096 0.480636
-7936.539062 -4426.394531 -1380.247925 0.343059 0.492569 -0.799768
-8076.149414 -4424.771484 -1448.592407 0.307413 0.379070 -0.872799
-8034.948730 -4356.762695 -1456.363647 0.296793 -0.270547 -0.915799
-8145.402832 -4398.130859 -1467.441284 0.417768 -0.160222 -0.894284
-7794.145996 -3991.257324 -1469.770874 0.425520 -0.282754 -0.859615
-7899.786133 -4072.183350 -1503.409546 0.389996 -0.285867 -0.875301
-7831.189941 -3839.044189 -1562.610840 0.268868 -0.869961 -0.413282
-7752.138672 -3850.544434 -1509.938721 0.447401 -0.370647 -0.813868
-8304.631836 -4424.370117 -3391.402344 -0.418653 0.807154 0.416150
-8025.573242 -4432.132812 -3105.305664 -0.285012 0.893551 0.346843
-8290.610352 -4332.085449 -3471.639648 -0.637501 0.576617 0.510910
-8283.683594 -4146.440430 -3819.034668 -0.627857 0.758995 0.172338
-8369.528320 -4263.612793 -3724.458496 -0.523972 0.750328 0.402997
-8233.897461 -4121.367676 -3781.753418 -0.632771 0.758904 0.153752
-8295.216797 -4155.346680 -3907.030762 -0.642781 0.765069 0.038026
-8258.682617 -4120.276855 -4021.661133 -0.722556 0.684347 0.097537
-8285.840820 -4146.593750 -4108.240234 -0.706229 0.574725 0.413404
-8318.079102 -4161.306641 -4128.389160 -0.629261 0.545885 0.553178
-8369.828125 -4200.961426 -4153.878906 -0.302194 0.725486 0.618305
-8376.682617 -4211.835938 -3920.480957 -0.597736 0.781457 0.178899
-7925.490234 -3839.068848 -3793.079102 -0.334605 -0.841060 0.425031
-7829.937988 -3838.553711 -3566.465332 -0.175207 -0.981170 0.080966
-7868.799316 -3851.418945 -3755.642822 -0.892575 -0.238380 0.382702
-7831.889648 -3849.187500 -3632.015137 -0.917997 -0.173925 0.356334
-8072.968262 -4059.192871 -3582.041748 -0.536912 0.779443 0.322703
-7979.600586 -3988.481934 -3568.245361 -0.556719 0.751915 0.353038
-7972.238770 -3962.794922 -3620.964600 -0.553148 0.780145 0.292184
-7837.338867 -4395.636230 -1352.056641 0.317850 -0.045503 -0.947020
-7812.011719 -4433.855957 -1350.191772 0.229133 0.795953 -0.560289
-7823.092285 -3972.083008 -1502.166870 0.448164 -0.317087 -0.835810
-7789.882324 -3849.234619 -3540.072510 -0.808557 -0.217536 0.546709
-7982.537109 -4054.516602 -1555.577148 0.414991 -0.295358 -0.860530
-7990.222656 -4134.571289 -1519.530884 0.416486 -0.335307 -0.845027
-8054.449707 -4147.032715 -1556.588623 0.429151 -0.370098 -0.823878
-8299.204102 -4401.760254 -1553.909058 0.392560 -0.194830 -0.898831
-8402.957031 -4427.992188 -1590.870483 0.693808 0.455092 -0.558092
-8371.696289 -4438.075684 -3390.244141 0.063967 0.995666 0.067354
-8402.637695 -4428.342773 -3474.432373 0.518876 0.821192 0.237373
-8230.992188 -4437.412598 -3289.115479 -0.178655 0.965880 0.187353
-8412.136719 -3874.344482 -1886.309082 0.857295 -0.334910 -0.390973
-8412.500000 -3875.334717 -4061.010986 0.914914 -0.244575 0.321024
-8402.989258 -3846.895752 -1908.423096 0.686148 -0.704672 -0.180548
-8412.421875 -4398.810059 -3489.628174 0.969451 0.225013 0.097598
-7921.063477 -4425.346680 -3055.024170 -0.351207 0.761101 0.545274
-7874.979004 -4346.196777 -3077.950684 -0.508255 0.518815 0.687368
-8120.322754 -4436.327148 -3178.799072 -0.090854 0.992706 0.078829
-8373.284180 -4428.357422 -3467.292969 -0.331584 0.876827 0.348094
-8375.362305 -4380.495117 -3547.883301 -0.494461 0.687033 0.532395
-8401.487305 -4387.998535 -3550.807373 0.394391 0.742607 0.541246
-7807.968750 -4248.358398 -3098.198486 -0.488968 0.616443 0.617145
-7982.396973 -4436.990723 -1429.904419 0.090091 0.977477 -0.190710
-7902.525391 -4150.876465 -1467.924438 0.370586 -0.340587 -0.864071
-7796.640137 -3857.532959 -1520.312134 0.347362 -0.518937 -0.781030
-7908.255371 -3932.011719 -1558.566895 0.466384 -0.350475 -0.812159
-7886.998535 -3985.267334 -1521.280884 0.426405 -0.293558 -0.855525
-7857.798340 -4197.419434 -3208.116455 -0.443678 0.683767 0.579302
-7865.845215 -4239.562988 -3159.815186 -0.444441 0.650319 0.616047
-7864.063965 -3977.471436 -3424.737549 -0.541246 0.699149 0.467086
-7812.711426 -3891.757812 -3523.320312 -0.614124 0.668325 0.419691
-7937.624023 -4177.376465 -3295.505127 -0.471206 0.661550 0.583331
-7982.869141 -4119.927734 -3399.445801 -0.492355 0.658040 0.569689
-8007.252930 -4170.900391 -3349.882812 -0.468886 0.670370 0.575060
-7845.825684 -4079.812256 -3304.300293 -0.546892 0.554979 0.626789
-7923.742188 -4037.822021 -3426.633057 -0.581835 0.618275 0.528336
-7853.144531 -3875.600342 -3623.487305 -0.637379 0.704672 0.311655
-7933.354004 -3837.962402 -1629.524780 0.121342 -0.964263 -0.235389
-7957.600586 -4349.217285 -3141.799072 -0.460036 0.569109 0.681478
-7908.126465 -4247.043945 -3174.113281 -0.428419 0.603961 0.672048
-7976.261230 -4219.956543 -3269.475342 -0.503891 0.647877 0.571215
-8033.130859 -4071.956543 -3497.833740 -0.538347 0.701132 0.467483
-8411.972656 -4203.521484 -3874.895264 0.970428 0.236457 0.048311
-8391.086914 -4243.587891 -3860.447998 0.123692 0.967498 0.220435
-8400.265625 -4207.764648 -4007.166260 0.327433 0.943419 0.051973
-7884.574219 -3882.433838 -3679.966064 -0.614399 0.768273 0.179571
-7929.183105 -3853.096924 -1600.397949 0.358196 -0.603992 -0.711936
-8134.532715 -3997.894531 -1658.846069 0.505448 -0.359996 -0.784143
-8118.085938 -3920.129150 -1669.797607 0.426038 -0.303964 -0.852077
-8049.654785 -3890.393799 -1656.991455 0.476028 -0.417188 -0.774132
-8068.280762 -3968.589355 -1620.665283 0.473708 -0.366588 -0.800714
-8144.724609 -4093.963623 -1617.165039 0.470107 -0.327708 -0.819483
-7980.806641 -4176.963867 -1504.635376 0.400250 -0.367321 -0.839534
-7982.252441 -3854.202148 -1622.902832 0.376202 -0.598804 -0.707022
-8412.242188 -4399.823242 -1610.244019 0.908658 -0.060183 -0.413160
-8047.962402 -3991.422119 -3682.655273 -0.571245 0.780999 0.252297
-7976.494629 -3937.941406 -3719.853027 -0.521378 0.840114 0.149388
-8041.414062 -3966.942627 -3777.268311 -0.597674 0.792230 0.122868
-7920.322266 -3899.768066 -3790.588623 -0.662831 0.650990 0.369854
-8265.773438 -3838.207764 -1821.293701 0.152043 -0.955626 -0.252205
-7998.916992 -4338.510254 -3173.431152 -0.515152 0.570269 0.639821
-7940.617676 -3874.233154 -3825.824463 -0.639515 -0.102206 0.761925
-8282.313477 -4435.439453 -1543.455933 0.332377 0.727348 -0.600391
-8132.058594 -4436.432617 -1488.530151 0.112980 0.953398 -0.279641
-8009.205078 -4022.096924 -1569.775146 0.414502 -0.310373 -0.855464
-8020.832520 -3980.290771 -1600.273804 0.405377 -0.335521 -0.850337
-8028.908691 -3838.622314 -1673.043945 0.268227 -0.869198 -0.415296
-8411.808594 -3995.640381 -4099.172363 0.863948 -0.078188 0.497421
-8407.798828 -4196.390625 -4154.281250 0.626484 0.560167 0.541917
-8295.555664 -4115.466309 -4122.409668 -0.530747 -0.039705 0.846583
-8005.607910 -3838.935547 -3842.066895 -0.257881 -0.896329 0.360576
-7977.171875 -3910.199707 -3850.158447 -0.675802 0.412275 0.610950
-8212.933594 -4423.230957 -1500.345459 0.363994 0.320139 -0.874630
-8066.950195 -4128.296387 -3451.248779 -0.528733 0.668813 0.522568
-8164.835449 -4155.294922 -3541.394287 -0.626942 0.668630 0.399792
-8257.781250 -4254.336426 -3517.667725 -0.638478 0.631336 0.440107
-8401.570312 -4265.979980 -3744.590088 0.274239 0.893002 0.356731
-8377.366211 -4241.273438 -3800.861572 -0.614399 0.769005 0.176366
-8392.708984 -3841.541016 -4062.672607 0.263588 -0.793634 0.548296
-8403.087891 -3847.020020 -4049.850342 0.769311 -0.623432 0.139500
-8218.880859 -4085.407959 -3928.547852 -0.642659 0.764702 0.046663
-8189.953613 -4056.851074 -4033.362305 -0.711600 0.587939 0.384564
-8081.061523 -4001.196777 -3791.154785 -0.563189 0.821558 0.088473
-8141.981445 -4037.477783 -3779.442139 -0.595325 0.784478 0.173650
-8100.027344 -4077.656494 -3571.691406 -0.539079 0.761498 0.359813
-8156.951660 -4088.953857 -3646.090820 -0.539689 0.820093 0.190100
-8180.810059 -4096.936523 -3698.445557 -0.632771 0.735984 0.240516
-8258.814453 -4185.239746 -3672.629639 -0.674398 0.671712 0.306467
-8039.698242 -3935.713379 -3912.024902 -0.683187 0.005188 0.730216
-8050.644531 -3853.438477 -3890.418945 -0.459761 -0.551927 0.695639
-8128.983887 -3876.247803 -3950.948730 -0.483108 -0.459578 0.745232
-8134.014160 -3839.559082 -3918.816162 -0.204932 -0.915311 0.346660
-8095.070801 -4132.062988 -1576.460693 0.405988 -0.309763 -0.859767
-8353.049805 -4401.256348 -1569.274292 0.375042 -0.129521 -0.917875
-8412.394531 -4306.534180 -1685.387085 0.980712 -0.092349 -0.172185
-8046.221680 -3963.352051 -3905.871826 -0.718894 0.583697 0.377422
-8148.873535 -4023.029297 -3878.389160 -0.560991 0.824702 0.071657
-8096.067871 -4002.971191 -3926.506104 -0.557634 0.786218 0.266182
-8144.044922 -4010.523193 -4000.960938 -0.765984 0.422376 0.484603
-8266.213867 -3852.153809 -1797.431519 0.405866 -0.595233 -0.693472
-8364.560547 -4326.988770 -3594.100586 -0.544908 0.693991 0.470565
-8251.293945 -4400.841797 -1519.434937 0.492752 -0.201727 -0.846461
-8181.270508 -3841.480225 -1760.744019 0.277871 -0.867000 -0.413556
-8411.583984 -4277.065430 -3690.074463 0.985168 0.163244 0.052828
-8181.885254 -4062.491211 -3838.063721 -0.684835 0.719718 0.113834
-8108.767090 -3964.193604 -3975.634766 -0.679769 0.002533 0.733390
-8155.554199 -3980.174316 -4011.705811 -0.553758 -0.195929 0.809259
-8230.836914 -3841.137695 -3995.137451 -0.280068 -0.812037 0.511979
-8372.822266 -4062.611328 -1762.169312 0.584155 -0.370922 -0.721915
-8156.094238 -4157.611816 -1604.414429 0.412458 -0.367809 -0.833399
-8235.477539 -4126.323730 -3731.729004 -0.624836 0.752495 0.207984
-8189.362305 -4028.463867 -4047.701172 -0.596026 0.016053 0.802789
-8247.171875 -4070.526611 -4081.022461 -0.670614 0.139561 0.728538
-8400.000000 -4299.022461 -1658.739014 0.748405 -0.315897 -0.583148
-8397.705078 -4351.512695 -1619.010742 0.633717 -0.393933 -0.665731
-8340.850586 -4342.505371 -1604.486206 0.379131 -0.430036 -0.819330
-8205.043945 -4107.098145 -1654.262207 0.424116 -0.342387 -0.838374
-8228.254883 -4201.700684 -3578.745605 -0.652760 0.675771 0.342326
-8331.779297 -3854.986084 -4053.782471 -0.328410 -0.580584 0.744987
-8288.258789 -3840.861084 -4010.036133 -0.060762 -0.977630 0.201270
-8393.556641 -3925.252686 -4107.010254 0.292673 -0.304727 0.906339
-8287.104492 -3967.911377 -4070.518066 -0.445265 -0.314249 0.838404
-8343.427734 -3989.239258 -1772.902588 0.488815 -0.384869 -0.782861
-8407.317383 -4328.302734 -3614.604980 0.605396 0.675253 0.421308
-8372.551758 -4296.764160 -3678.912842 -0.389569 0.824671 0.410047
-8311.763672 -4255.362793 -3623.781250 -0.679617 0.670217 0.298135
-8243.708984 -3945.676025 -4042.642090 -0.416456 -0.316813 0.852138
-8397.833008 -4245.445312 -1671.614258 0.675161 -0.276833 -0.683737
-8330.334961 -3981.141357 -4106.466309 -0.379101 -0.319559 0.868404
-8370.414062 -4012.191895 -4120.258301 0.041139 -0.222236 0.974120
-8375.039062 -4437.407715 -1604.039795 0.161657 0.981201 -0.105136
-8395.740234 -3970.305664 -1824.384033 0.679434 -0.337230 -0.651601
-8411.301758 -4059.578613 -1799.690430 0.906064 -0.178716 -0.383465
-8410.826172 -4144.742188 -1762.819336 0.927824 -0.191260 -0.320170
-8364.570312 -4140.404785 -4157.052246 -0.279733 -0.103519 0.954466
-8399.326172 -4157.942871 -4163.534180 0.419660 -0.062136 0.905515
-8410.293945 -3943.442871 -1862.384033 0.972655 -0.073885 -0.220099
3 0 1 2
3 0 2 3
3 4 5 6
3 4 6 7
3 7 6 8
3 6 9 8
3 5 4 7
3 10 7 8
3 11 5 12
3 12 5 13
3 12 13 14
3 14 15 16
3 5 11 17
3 14 16 18
3 18 19 20
3 21 22 23
3 24 25 26
3 27 28 29
3 30 28 31
3 32 33 34
3 35 33 36
3 37 38 39
3 39 22 21
3 5 17 6
3 40 41 42
3 42 41 43
3 44 43 18
3 44 18 20
3 40 45 17
3 41 40 11
3 11 40 17
3 46 43 12
3 42 44 47
3 48 49 50
3 51 50 52
3 53 52 47
3 47 54 23
3 23 54 21
3 49 40 50
3 55 56 24
3 49 45 40
3 6 17 57
3 9 57 58
3 9 58 1
3 45 49 59
3 6 57 9
3 58 17 60
3 61 62 63
3 63 62 64
3 65 66 67
3 68 69 70
3 71 72 73
3 73 72 74
3 75 76 77
3 77 76 78
3 49 79 59
3 17 80 60
3 17 45 80
3 60 80 61
3 80 62 61
3 62 81 64
3 80 82 62
3 62 82 81
3 64 81 66
3 81 82 83
3 81 83 67
3 81 67 66
3 80 45 82
3 82 84 85
3 86 85 84
3 86 84 87
3 45 84 82
3 57 17 58
3 45 59 84
3 84 59 87
3 59 69 87
3 82 85 83
3 59 79 69
3 13 5 7
3 13 7 10
3 41 11 12
3 42 43 44
3 88 44 20
3 50 40 42
3 55 89 53
3 48 90 91
3 49 48 79
3 79 48 91
3 83 86 67
3 79 91 92
3 69 92 70
3 87 69 68
3 86 87 93
3 93 94 86
3 86 94 95
3 79 92 69
3 41 12 43
3 96 48 51
3 15 9 1
3 97 58 60
3 86 83 85
3 13 10 14
3 52 42 47
3 48 50 51
3 48 96 90
3 87 68 93
3 70 92 98
3 99 70 100
3 50 42 52
3 60 61 97
3 97 61 101
3 61 63 101
3 92 91 98
3 70 102 100
3 100 102 103
3 100 103 104
3 10 8 15
3 15 8 9
3 1 58 97
3 43 46 18
3 101 63 105
3 89 51 53
3 106 96 89
3 106 89 107
3 107 89 55
3 107 55 24
3 96 106 90
3 89 96 51
3 90 108 91
3 86 95 67
3 94 93 99
3 68 70 99
3 68 99 93
3 70 98 102
3 109 110 111
3 51 52 53
3 112 113 114
3 112 114 108
3 64 66 63
3 98 115 102
3 10 15 14
3 46 12 14
3 112 106 107
3 63 66 116
3 66 65 116
3 95 94 100
3 95 100 117
3 95 65 67
3 115 98 118
3 115 118 119
3 54 44 21
3 15 1 16
3 106 112 90
3 91 108 120
3 97 101 105
3 105 121 1
3 122 104 123
3 94 99 100
3 21 44 88
3 46 14 18
3 47 44 54
3 53 56 55
3 107 24 113
3 63 124 105
3 63 116 124
3 125 126 121
3 121 126 1
3 95 117 65
3 117 127 125
3 125 127 126
3 102 115 110
3 37 16 1
3 105 1 97
3 53 47 23
3 56 23 128
3 108 90 112
3 91 118 98
3 115 111 110
3 112 107 113
3 65 117 116
3 129 110 130
3 131 129 130
3 132 133 134
3 132 135 136
3 137 138 139
3 115 119 111
3 18 16 19
3 21 19 39
3 16 37 19
3 21 88 20
3 56 53 23
3 27 108 114
3 116 125 124
3 124 125 121
3 102 110 129
3 102 129 103
3 24 56 25
3 24 26 113
3 140 113 26
3 108 27 120
3 120 27 29
3 120 29 141
3 142 143 144
3 144 145 146
3 145 147 148
3 148 149 150
3 149 147 151
3 151 152 153
3 120 141 91
3 125 116 117
3 100 154 117
3 100 104 122
3 103 129 123
3 130 110 109
3 134 155 156
3 156 157 135
3 111 119 155
3 109 111 155
3 56 128 25
3 113 140 114
3 105 124 121
3 154 100 122
3 119 118 158
3 159 109 134
3 134 109 155
3 29 30 141
3 104 103 123
3 155 119 158
3 130 109 159
3 21 20 19
3 19 37 39
3 128 23 22
3 128 22 160
3 114 140 27
3 141 30 161
3 154 127 117
3 162 123 163
3 131 130 133
3 38 22 39
3 164 25 165
3 164 165 166
3 25 128 160
3 25 160 165
3 153 140 167
3 140 26 164
3 140 164 167
3 32 167 33
3 27 140 153
3 154 122 168
3 154 168 127
3 122 123 162
3 122 162 168
3 123 129 163
3 130 159 133
3 160 22 38
3 37 1 169
3 26 25 164
3 131 163 129
3 159 134 133
3 170 136 171
3 155 158 156
3 167 164 33
3 27 153 28
3 141 172 91
3 156 158 118
3 28 153 152
3 30 29 28
3 168 162 173
3 168 173 174
3 168 174 3
3 3 175 0
3 176 131 177
3 176 177 178
3 156 118 179
3 132 134 135
3 33 164 166
3 33 166 36
3 153 167 32
3 180 161 30
3 127 181 126
3 127 168 181
3 163 176 162
3 162 176 178
3 131 176 163
3 133 177 131
3 177 182 178
3 177 138 182
3 183 182 137
3 133 132 177
3 177 132 184
3 157 156 179
3 156 135 134
3 165 160 185
3 185 160 38
3 38 37 185
3 36 185 169
3 37 169 185
3 31 28 152
3 181 168 3
3 181 3 2
3 162 178 173
3 165 185 166
3 153 32 151
3 143 145 144
3 180 30 186
3 141 161 172
3 126 181 2
3 138 177 184
3 31 152 187
3 31 187 186
3 186 187 143
3 180 186 142
3 30 31 186
3 186 143 142
3 161 180 172
3 188 148 150
3 2 1 126
3 173 178 189
3 173 189 175
3 190 157 179
3 185 36 166
3 187 151 147
3 32 34 151
3 151 34 149
3 149 34 150
3 188 191 192
3 193 188 192
3 193 192 194
3 172 180 195
3 195 180 142
3 196 195 144
3 172 197 91
3 157 190 135
3 36 169 35
3 187 152 151
3 198 172 195
3 3 174 175
3 199 200 201
3 202 203 204
3 205 206 207
3 208 209 210
3 118 211 212
3 212 211 213
3 212 213 214
3 215 216 217
3 189 178 183
3 138 184 139
3 139 184 136
3 132 136 184
3 136 135 171
3 190 179 118
3 190 118 212
3 190 171 135
3 33 35 218
3 34 33 218
3 34 218 150
3 150 218 191
3 169 1 219
3 195 142 144
3 198 195 220
3 172 198 197
3 174 173 175
3 178 182 183
3 182 138 137
3 190 221 171
3 219 35 169
3 35 219 218
3 187 147 143
3 222 223 224
3 225 224 223
3 226 227 228
3 1 229 227
3 230 231 232
3 226 228 233
3 234 235 200
3 236 200 229
3 237 238 239
3 237 239 228
3 228 239 233
3 189 183 240
3 143 147 145
3 219 1 241
3 242 144 146
3 197 243 244
3 243 198 220
3 243 220 245
3 243 197 198
3 189 240 235
3 183 246 247
3 136 248 139
3 171 249 170
3 221 190 212
3 221 249 171
3 147 149 148
3 240 183 247
3 137 246 183
3 250 251 252
3 137 139 253
3 139 248 254
3 136 170 248
3 249 221 255
3 255 221 214
3 221 212 214
3 218 219 191
3 195 196 220
3 244 243 245
3 245 220 196
3 245 196 223
3 197 256 91
3 175 189 235
3 175 235 234
3 257 240 247
3 257 247 258
3 258 246 259
3 250 246 253
3 137 253 246
3 251 253 260
3 260 253 254
3 260 216 215
3 261 262 263
3 263 262 210
3 210 205 208
3 208 205 207
3 214 213 264
3 265 197 244
3 266 267 268
3 266 268 269
3 75 266 270
3 247 246 258
3 139 254 253
3 205 262 202
3 264 255 214
3 217 255 264
3 255 217 249
3 146 145 148
3 196 144 242
3 196 242 271
3 244 245 222
3 222 245 223
3 256 265 272
3 197 265 256
3 231 273 233
3 233 273 226
3 175 234 0
3 240 257 235
3 248 170 216
3 170 249 217
3 274 275 276
3 213 277 264
3 188 150 191
3 191 219 241
3 223 196 271
3 118 91 278
3 279 258 259
3 246 250 259
3 250 253 251
3 254 248 216
3 170 217 216
3 264 277 275
3 213 211 280
3 213 280 277
3 148 188 193
3 242 193 194
3 281 282 1
3 241 1 282
3 242 146 193
3 283 244 222
3 265 244 284
3 256 285 91
3 257 258 279
3 286 261 287
3 287 263 209
3 207 288 208
3 211 289 280
3 280 290 277
3 191 241 192
3 291 271 242
3 284 244 283
3 265 284 272
3 0 234 200
3 235 257 200
3 259 292 279
3 257 279 200
3 250 252 259
3 259 252 292
3 292 293 294
3 261 295 262
3 262 295 296
3 260 254 216
3 264 275 217
3 217 275 274
3 261 263 287
3 297 118 298
3 277 290 276
3 299 300 205
3 205 300 206
3 277 276 275
3 274 301 302
3 303 215 304
3 304 305 306
3 307 308 309
3 309 308 310
3 310 289 118
3 280 289 308
3 146 148 193
3 283 222 224
3 283 224 311
3 311 224 225
3 311 225 312
3 313 273 231
3 272 285 256
3 263 210 209
3 276 290 314
3 315 316 317
3 280 308 290
3 290 307 314
3 194 192 291
3 285 272 268
3 278 318 118
3 1 0 200
3 1 200 236
3 201 294 319
3 251 292 252
3 292 260 293
3 251 260 292
3 274 215 217
3 211 118 289
3 290 308 307
3 241 282 192
3 291 242 194
3 284 283 311
3 284 311 269
3 269 311 270
3 272 269 268
3 269 272 284
3 274 276 301
3 302 305 274
3 308 289 310
3 225 320 281
3 281 320 291
3 312 225 226
3 291 223 271
3 91 321 278
3 278 321 318
3 1 236 229
3 200 279 292
3 237 199 201
3 231 322 261
3 261 322 295
3 260 215 303
3 260 303 293
3 302 301 315
3 302 315 323
3 323 300 299
3 276 314 301
3 307 309 324
3 324 309 325
3 325 309 326
3 314 307 324
3 316 314 324
3 316 324 317
3 320 223 291
3 267 285 268
3 71 285 267
3 71 267 72
3 91 285 321
3 314 316 301
3 301 316 315
3 192 282 291
3 225 223 320
3 266 269 270
3 72 267 266
3 74 77 78
3 327 74 78
3 285 71 321
3 303 304 293
3 215 274 305
3 328 270 311
3 215 305 304
3 204 329 305
3 203 329 204
3 300 317 330
3 300 330 331
3 207 331 288
3 317 325 330
3 317 324 325
3 332 270 333
3 333 334 312
3 75 270 335
3 71 73 321
3 199 229 200
3 336 293 304
3 305 302 204
3 315 317 323
3 323 317 300
3 337 338 297
3 337 297 339
3 337 339 340
3 328 311 334
3 74 72 266
3 74 266 75
3 341 73 74
3 341 74 327
3 231 342 322
3 322 342 295
3 295 342 343
3 201 200 292
3 292 294 201
3 294 293 336
3 302 323 204
3 326 310 118
3 310 326 309
3 225 281 226
3 291 282 281
3 328 334 270
3 270 334 333
3 74 75 77
3 318 321 73
3 118 232 298
3 304 344 336
3 304 306 344
3 306 305 329
3 204 323 299
3 204 299 202
3 325 326 345
3 206 300 331
3 206 331 207
3 330 325 345
3 330 345 340
3 330 340 331
3 335 346 75
3 335 270 332
3 335 332 346
3 229 199 227
3 319 294 344
3 329 203 306
3 202 299 205
3 326 338 337
3 345 326 337
3 345 337 340
3 331 347 288
3 288 347 348
3 226 281 349
3 349 281 1
3 334 311 312
3 350 341 351
3 351 341 327
3 351 352 231
3 231 233 342
3 344 294 336
3 296 203 202
3 296 202 262
3 339 231 286
3 261 286 231
3 340 347 331
3 208 353 209
3 76 346 313
3 76 313 352
3 333 273 313
3 76 75 346
3 73 341 350
3 298 232 231
3 237 201 238
3 319 238 201
3 344 306 343
3 343 306 203
3 340 339 347
3 347 339 348
3 348 339 286
3 208 288 353
3 352 351 78
3 78 351 327
3 318 350 230
3 350 318 73
3 118 318 230
3 342 233 239
3 199 237 227
3 227 237 228
3 203 296 295
3 210 262 205
3 326 118 338
3 298 231 297
3 297 231 339
3 333 312 273
3 273 312 226
3 349 1 227
3 238 319 342
3 238 342 239
3 342 319 343
3 319 344 343
3 343 203 295
3 118 297 338
3 348 286 354
3 288 348 353
3 353 348 354
3 332 333 313
3 78 76 352
3 118 230 232
3 230 350 355
3 349 227 226
3 209 353 354
3 287 354 286
3 209 354 287
3 346 332 313
3 352 313 231
3 350 351 355
3 355 351 231
3 230 355 231
