ply
format ascii 1.0
comment Created by Blender 2.80 (sub 75) - www.blender.org, source file: 'color_and_decimate.blend'
element vertex 184
property float x
property float y
property float z
property float nx
property float ny
property float nz
element face 364
property list uchar uint vertex_indices
end_header
-5697.437988 -4387.546387 -3788.952148 -0.451216 -0.385022 -0.805048
-5695.413086 -4430.454590 -3799.620605 -0.611408 0.626759 -0.483016
-5759.800781 -4423.233887 -3792.919434 0.045808 -0.145726 -0.988250
-6431.700684 -4437.439941 -4301.846191 0.537767 0.817347 -0.206641
-5702.547852 -4433.607910 -4543.151367 -0.615894 0.785852 0.055696
-5777.238770 -4435.216797 -4693.248047 -0.367260 0.920713 0.131779
-6503.994141 -4283.779785 -4541.283203 0.939543 -0.328349 -0.097049
-6506.034180 -4273.713379 -4667.909180 0.942320 -0.320231 0.097201
-6448.411133 -4160.151855 -4573.813477 0.893857 -0.434980 -0.108463
-6429.754883 -4132.995605 -4673.381836 0.966155 -0.199286 -0.163701
-6457.833984 -3965.587891 -4624.705566 0.952269 0.252907 -0.170782
-6416.726562 -4041.737061 -4643.191406 0.906613 0.177801 -0.382641
-6487.163574 -4035.894531 -4734.645020 0.979492 -0.165319 0.115055
-6414.953613 -3837.743408 -4727.476562 0.367321 -0.912320 0.180853
-6456.915527 -3850.505127 -4673.028320 0.813532 -0.552080 0.182531
-6378.549316 -3851.825684 -4821.106445 0.779473 -0.415815 0.468490
-6306.324219 -4129.685547 -4950.071777 0.817408 -0.106937 0.565996
-6399.627930 -4117.748535 -4829.200684 0.666158 -0.198584 0.718863
-6285.447754 -4246.726562 -5010.803223 0.821314 -0.139470 0.553117
-5692.588379 -4283.230469 -3903.569580 -0.687551 -0.273232 -0.672719
-5762.758301 -4344.364746 -3891.356445 0.066469 -0.633351 -0.770959
-6149.115723 -4331.273438 -3742.119873 0.225867 -0.736290 -0.637837
-5999.191406 -4309.659668 -3893.602539 -0.035493 -0.737785 -0.674093
-6030.473145 -4415.695312 -3705.277344 -0.543321 -0.132145 -0.829035
-6116.903809 -4420.724609 -3647.367188 0.090060 0.224586 -0.970275
-5740.256348 -4197.319824 -3934.438232 0.152348 -0.780023 -0.606891
-5699.124512 -4188.721191 -3867.368164 -0.163488 -0.442213 -0.881863
-5757.026855 -4243.679688 -3934.968506 -0.042421 -0.117649 -0.992126
-5840.582031 -4280.537598 -3904.400635 -0.123417 -0.320963 -0.938994
-5690.491211 -4181.403320 -4172.996094 -0.786187 -0.554857 -0.272011
-5810.459961 -4363.244141 -3853.556152 -0.147557 -0.679495 -0.718650
-5794.035156 -4036.298828 -3780.017822 -0.786676 0.162694 -0.595477
-5848.607422 -4103.756836 -3746.239502 -0.372967 0.651570 -0.660512
-5817.466797 -3915.358643 -3741.060303 -0.488601 -0.017853 -0.872311
-6057.923828 -4064.146240 -3738.702637 0.206977 0.530015 -0.822291
-5978.686523 -4107.245117 -3752.147949 0.122593 0.798242 -0.589709
-5869.209961 -4118.548340 -3836.409912 -0.337199 0.877682 -0.340465
-6017.758789 -4119.184570 -3890.181152 0.241646 0.834071 -0.495865
-5708.319824 -3991.711426 -4089.660156 -0.908475 0.345683 -0.234748
-5719.924316 -4128.689941 -4201.851562 -0.722800 0.128849 -0.678884
-5717.874023 -4064.638916 -4020.375000 -0.823481 0.560900 -0.084902
-5687.537598 -4123.952148 -4308.956055 -0.998413 0.000000 -0.056215
-5820.892090 -4166.679688 -4081.627441 -0.792138 -0.598804 -0.117893
-5789.870117 -4140.921875 -4218.408203 -0.495682 0.175512 -0.850551
-5765.195312 -4185.555664 -4192.736328 -0.191961 -0.808679 -0.555986
-5687.678223 -4372.868652 -4636.537598 -0.915860 0.363994 0.169317
-5691.455566 -3851.037598 -3925.855469 -0.944426 -0.258858 -0.202429
-5687.500000 -3875.000244 -5325.000000 -0.985534 -0.130070 0.108615
-5830.337891 -4127.127441 -4051.552002 -0.926695 0.370006 -0.065401
-5824.537109 -4115.333008 -3943.756592 -0.812586 0.550462 -0.191473
-5715.012207 -4037.646240 -3863.474854 -0.807154 0.425428 -0.409223
-5697.021484 -3848.134521 -5354.616699 -0.556993 -0.541124 0.629994
-5755.040527 -4043.833496 -5359.568848 -0.306009 0.252449 0.917905
-6040.089844 -3874.655029 -5362.307129 0.246590 -0.206519 0.946837
-5782.092285 -4149.799805 -5355.049805 -0.618580 0.233039 0.750328
-5753.755371 -4154.029297 -5239.183105 -0.746940 0.555589 0.365154
-5796.534668 -4258.207031 -5180.101562 -0.880764 0.410962 0.235206
-5789.757812 -4344.060547 -5038.145020 -0.921537 0.334178 0.197577
-5806.687988 -4432.609863 -4959.574707 -0.546800 0.827601 0.126621
-5770.953125 -4420.350586 -4839.434082 -0.826014 0.557695 0.081484
-5753.584473 -4339.741699 -4844.315430 -0.855953 0.466903 0.222022
-5689.959961 -4255.281250 -4867.916016 -0.934812 0.327952 0.136174
-5689.467285 -4114.675293 -5220.576172 -0.860500 0.424360 0.281777
-5689.699707 -4210.470703 -4990.371094 -0.904508 0.392346 0.167028
-5698.817871 -4177.580078 -5100.803711 -0.731712 0.632527 0.253914
-5747.449707 -4235.008301 -5048.270020 -0.760735 0.602344 0.241737
-5691.306641 -4020.742920 -5343.834473 -0.740837 0.278329 0.611286
-5774.524414 -3855.360596 -3818.025391 -0.685141 0.394024 -0.612598
-5777.201660 -4046.066406 -3812.779541 -0.737358 0.477462 -0.477767
-5713.088379 -3838.075684 -3855.461914 -0.657308 -0.620533 -0.427595
-5799.069824 -4121.197754 -4154.979004 -0.662587 0.691549 -0.287576
-5725.000000 -3837.500000 -5325.000488 -0.144536 -0.982330 0.118686
-6039.219238 -3838.044189 -5344.380371 0.167455 -0.810938 0.560625
-6150.273926 -3853.606934 -5292.125488 0.684805 -0.508530 0.521897
-6108.116699 -4003.338867 -5324.759766 0.725944 0.045106 0.686239
-6154.930664 -3975.708740 -5232.476074 0.932707 0.079867 0.351665
-5808.661133 -3843.698242 -3750.391113 -0.444014 -0.614215 -0.652333
-6366.296387 -3846.660400 -3772.817627 0.711753 -0.377453 -0.592334
-6392.211426 -3841.477051 -3991.189453 0.398846 -0.886410 -0.234809
-6404.043945 -3870.340820 -3992.758789 0.737083 0.075076 -0.671590
-6376.729004 -3851.825928 -3872.121094 0.927732 0.333201 -0.168157
-6291.940918 -3956.245605 -3799.818359 0.650227 0.675619 -0.347392
-6303.306152 -3970.019531 -3992.753418 0.510422 0.656301 -0.555589
-6210.148438 -4114.000488 -4027.911865 0.249184 -0.043184 -0.967467
-6270.371094 -4044.821533 -4038.071533 0.255806 0.231819 -0.938505
-6190.984375 -4068.020264 -3977.479492 0.622028 0.643605 -0.445845
-6265.890137 -4152.304688 -3995.069092 0.413099 -0.196112 -0.889279
-6269.654785 -4191.651855 -4024.048828 0.917997 0.088076 -0.386639
-6317.092285 -4092.565918 -4021.089844 0.624744 0.084628 -0.776208
-6316.594238 -4104.930664 -4198.154297 0.974609 0.131108 -0.181341
-6363.861328 -4211.945312 -4237.419922 0.832972 -0.423139 -0.356456
-6348.761719 -4082.173096 -4308.435059 0.979980 0.038148 -0.195288
-5831.672852 -4159.278320 -3922.430664 -0.771050 -0.153996 -0.617817
-5874.999023 -4318.720703 -5361.666016 -0.477340 0.164006 0.863247
-6043.837891 -4420.375000 -5359.646973 0.204352 0.509476 0.835841
-5882.253906 -4431.875488 -5346.948730 -0.474410 0.658467 0.584216
-6106.661133 -4437.338379 -5309.959473 0.465468 0.744346 0.478805
-6174.548340 -4423.011230 -5215.961426 0.834559 0.209449 0.509507
-6247.689453 -4435.872070 -5086.467773 0.494858 0.788812 0.364483
-6316.900391 -4419.119629 -5022.932617 0.757591 0.329661 0.563280
-6358.324707 -4435.311035 -4931.020508 0.404797 0.859127 0.313028
-5826.229004 -4294.375000 -5272.398926 -0.907865 0.332041 0.255898
-6110.672852 -4362.496582 -5325.751465 0.703696 0.034608 0.709616
-6097.588867 -4115.725586 -3927.493164 0.445387 0.756249 -0.479263
-6194.292969 -4031.127197 -3813.045166 0.548784 0.812494 -0.196600
-6212.988281 -3839.836426 -3770.312256 0.169225 -0.786157 -0.594378
-6262.455078 -3979.535156 -3881.549805 0.581622 0.806909 -0.102725
-5864.288574 -4422.699707 -3788.459473 -0.136296 -0.258919 -0.956206
-5939.960449 -4436.587402 -3788.452148 -0.081362 0.977020 -0.196966
-5832.495605 -4429.954102 -5105.452148 -0.599292 0.789666 0.131169
-5851.405762 -4367.483398 -5289.011719 -0.931761 0.228950 0.281716
-5890.382324 -4197.274902 -3901.859375 -0.056856 0.287759 -0.955992
-5937.344727 -4236.864746 -3915.206787 0.211188 -0.012574 -0.977355
-5931.913086 -4355.862305 -3850.156250 -0.131443 -0.743858 -0.655263
-5987.575195 -4384.650391 -3762.416260 0.347484 -0.919156 -0.185430
-6178.707520 -4433.860840 -3754.140625 0.350993 0.896268 -0.271004
-6167.556152 -3852.023682 -3741.562012 0.194922 -0.488388 -0.850551
-6159.592285 -4260.104492 -5222.335449 0.875057 -0.063692 0.479781
-6152.570801 -4046.832520 -3738.610840 0.321177 0.671773 -0.667470
-6186.872559 -4358.797852 -5177.625000 0.843623 -0.115879 0.524216
-6015.432129 -4238.144531 -3962.827148 0.306436 -0.184393 -0.933836
-6122.476562 -4298.516113 -3893.612305 -0.311167 -0.841639 -0.441328
-6163.635254 -4227.573242 -3965.964600 -0.113041 -0.630482 -0.767907
-6114.906738 -4166.127930 -5272.325684 0.909574 -0.006623 0.415418
-6211.956055 -3837.660156 -5089.276855 0.257118 -0.960204 0.108798
-6173.540039 -4298.785156 -3783.547607 0.250526 -0.758202 -0.601917
-6216.168945 -4348.413574 -3832.625488 0.785333 -0.410688 -0.463210
-6195.600586 -4259.371094 -3882.376709 0.388165 -0.761589 -0.518906
-6286.096680 -4414.130371 -3882.405518 0.824061 0.097354 -0.558031
-6276.570801 -4277.730469 -3996.498779 0.835231 -0.323557 -0.444563
-6191.332520 -4212.528320 -5150.125000 0.871822 -0.059847 0.486129
-6495.643555 -4436.314941 -4427.712402 0.680074 0.720237 -0.136784
-6469.793945 -4435.305664 -4867.576660 0.513108 0.626820 0.586291
-6508.603516 -4432.018066 -4557.497559 0.700125 0.706168 -0.105411
-6262.287598 -4377.194336 -5085.144043 0.802515 -0.031709 0.595752
-6105.308594 -4157.985840 -3969.956787 0.398053 0.229255 -0.888211
-6517.173828 -4428.429199 -4724.338867 0.788537 0.610736 0.071932
-6212.739746 -4165.515625 -5107.807129 0.870724 -0.038423 0.490219
-6216.132324 -3992.475586 -3765.389648 0.530778 0.430708 -0.729881
-6543.095215 -4390.144531 -4602.242188 0.979308 -0.032319 -0.199744
-6237.816895 -3940.936768 -5052.032715 0.925993 0.034608 0.375896
-6211.233398 -3931.085205 -5126.037598 0.902280 0.111118 0.416517
-6227.704102 -3852.530762 -5114.000977 0.838374 -0.424146 0.342296
-6280.800781 -3851.539307 -4971.113770 0.873592 -0.071535 0.481307
-6169.892578 -3966.664551 -5181.300781 0.893582 0.100070 0.437574
-6245.208008 -4217.449707 -3933.270020 0.492141 -0.456648 -0.741111
-6521.835938 -4348.737305 -4599.939453 0.979186 -0.196204 -0.051851
-6255.814941 -4113.490234 -5034.671875 0.852901 -0.060854 0.518448
-6510.698242 -4416.996094 -4819.305664 0.885647 0.328227 0.328410
-6357.336426 -3961.941650 -4839.907715 0.833491 -0.087100 0.545610
-6266.309082 -3946.992432 -4967.721680 0.814020 -0.080172 0.575213
-6306.971191 -4011.682861 -4937.651855 0.840999 -0.093539 0.532853
-6330.165527 -4319.889160 -4968.854980 0.787500 -0.195837 0.584338
-6315.403809 -4434.891113 -3952.681885 0.334422 0.909360 -0.247353
-6360.619141 -4032.527832 -4032.090820 0.604846 0.555864 -0.570238
-6388.697266 -4418.722656 -4027.619385 0.831935 0.135044 -0.538133
-6311.685059 -4209.269531 -4122.042969 0.923795 -0.185827 -0.334697
-6358.716309 -4301.021973 -4117.649414 0.745811 -0.504440 -0.435041
-6421.003418 -4433.979004 -4100.892090 0.697287 0.677023 -0.235359
-6437.003418 -4379.598633 -4140.196289 0.941893 -0.184820 -0.280435
-6448.738281 -3842.065186 -4031.932373 0.664022 -0.663839 -0.343974
-6370.287109 -4001.531494 -4189.733398 0.836360 0.548143 -0.003967
-6364.266113 -4149.871582 -4337.167480 0.897641 -0.356609 -0.258827
-6418.269531 -3918.412354 -4733.327148 0.781243 -0.154637 0.604755
-6484.290039 -4119.331055 -4780.443359 0.929533 -0.215033 0.299509
-6488.294434 -4256.716797 -4823.565430 0.834132 -0.197058 0.515091
-6482.345215 -4267.835938 -4750.841309 0.974853 -0.221686 0.021424
-6383.355469 -4258.559570 -4878.290527 0.677389 -0.205725 0.706229
-6430.263672 -4205.913086 -4822.040527 0.283425 -0.137516 0.949065
-6400.860840 -4384.520020 -4904.336426 0.658376 -0.119816 0.743065
-6455.882324 -3936.909424 -4025.024170 0.801782 0.382733 -0.458968
-6369.576172 -4090.062988 -4452.749512 0.954863 -0.224036 -0.194952
-6443.602051 -4203.221680 -4410.948242 0.824030 -0.504562 -0.257607
-6463.870605 -3901.757324 -4149.170898 0.969451 0.244728 0.015992
-6461.900879 -3899.329834 -4437.761230 0.958251 0.282693 -0.042360
-6367.577148 -3996.907471 -4378.415039 0.917631 0.391430 -0.068331
-6393.649414 -3967.894531 -4470.156250 0.833735 0.529252 -0.157262
-6387.468750 -4037.481445 -4570.189453 0.947661 0.070254 -0.311441
-6454.777344 -4006.472656 -4741.562500 0.746086 -0.392560 0.537797
-6404.412598 -3959.312012 -4111.868164 0.729972 0.677450 0.090335
-6438.561035 -4278.007812 -4297.215332 0.862819 -0.352763 -0.362041
-6476.356445 -4419.660156 -4345.465332 0.819758 0.360607 -0.444838
-6481.605469 -4322.288086 -4351.624512 0.902921 -0.167058 -0.395978
-6508.111328 -4344.948242 -4436.586914 0.976470 -0.099857 -0.191046
3 0 1 2
3 3 4 5
3 6 7 8
3 8 7 9
3 10 11 12
3 13 14 15
3 16 17 18
3 19 0 20
3 21 22 23
3 23 24 21
3 0 19 1
3 25 26 19
3 25 19 27
3 27 20 28
3 19 26 29
3 28 20 30
3 31 32 33
3 33 32 34
3 35 36 37
3 38 39 40
3 29 39 41
3 42 43 44
3 19 29 45
3 19 45 1
3 1 45 4
3 38 46 41
3 38 41 39
3 46 47 41
3 45 29 41
3 40 48 49
3 40 49 50
3 46 51 47
3 52 53 54
3 55 52 54
3 55 54 56
3 57 58 59
3 60 45 61
3 60 59 5
3 41 61 45
3 41 47 61
3 47 62 63
3 63 62 64
3 63 60 61
3 47 63 61
3 65 63 64
3 65 64 56
3 66 51 52
3 52 62 66
3 64 62 55
3 64 55 56
3 62 52 55
3 66 47 51
3 51 53 52
3 47 66 62
3 3 1 4
3 67 68 31
3 67 31 33
3 50 69 38
3 48 70 42
3 69 50 67
3 50 68 67
3 48 40 70
3 50 38 40
3 40 39 70
3 25 27 28
3 69 46 38
3 27 19 20
3 26 25 29
3 29 25 44
3 39 29 44
3 45 5 4
3 46 69 71
3 46 71 51
3 63 65 60
3 51 71 72
3 72 73 53
3 53 73 74
3 74 73 75
3 76 67 33
3 0 2 20
3 20 2 30
3 69 67 76
3 71 77 78
3 79 80 81
3 82 79 81
3 83 84 85
3 86 87 88
3 89 90 91
3 43 39 44
3 45 60 5
3 65 56 57
3 69 76 71
3 42 92 49
3 42 49 48
3 39 43 70
3 5 59 58
3 5 58 3
3 59 60 57
3 60 65 57
3 93 94 95
3 96 97 98
3 98 99 100
3 101 54 93
3 96 94 102
3 96 102 97
3 54 53 93
3 34 103 104
3 104 103 85
3 71 105 77
3 78 77 80
3 82 81 106
3 30 2 107
3 2 1 108
3 108 1 3
3 68 50 49
3 25 92 44
3 44 92 42
3 42 70 43
3 58 96 3
3 109 110 95
3 56 54 101
3 32 31 68
3 32 68 36
3 36 92 111
3 37 111 112
3 107 2 108
3 36 68 49
3 92 25 111
3 111 25 28
3 111 28 112
3 58 57 109
3 57 101 109
3 57 56 101
3 113 30 107
3 114 107 23
3 23 107 108
3 108 3 115
3 92 36 49
3 23 108 24
3 112 28 22
3 109 101 110
3 93 110 101
3 76 33 116
3 116 33 34
3 34 32 35
3 76 116 105
3 113 107 114
3 28 30 113
3 28 113 22
3 58 109 96
3 110 93 95
3 51 72 53
3 97 102 117
3 35 32 36
3 109 95 96
3 93 53 94
3 118 34 104
3 104 85 106
3 36 111 37
3 117 119 97
3 120 121 122
3 95 94 96
3 102 123 117
3 116 34 118
3 112 22 120
3 72 71 124
3 113 114 23
3 121 21 125
3 125 21 126
3 127 128 129
3 119 117 130
3 76 105 71
3 35 37 103
3 131 3 132
3 131 132 133
3 119 130 134
3 24 108 115
3 24 115 128
3 24 128 21
3 34 35 103
3 22 113 23
3 22 21 121
3 120 22 121
3 37 112 120
3 94 53 102
3 135 37 120
3 53 74 102
3 74 123 102
3 122 121 125
3 122 125 127
3 37 135 103
3 120 122 135
3 132 136 133
3 72 124 73
3 130 137 18
3 130 18 134
3 116 118 138
3 138 104 81
3 81 104 106
3 133 136 139
3 123 74 75
3 140 141 142
3 140 142 143
3 117 144 130
3 105 116 138
3 118 104 138
3 85 103 135
3 135 122 83
3 83 122 86
3 143 142 124
3 117 75 144
3 86 122 145
3 139 136 146
3 130 144 141
3 137 141 140
3 130 141 137
3 137 147 18
3 75 117 123
3 73 144 75
3 134 97 119
3 77 138 81
3 21 128 126
3 85 135 83
3 3 100 132
3 132 148 136
3 124 142 73
3 142 141 73
3 73 141 144
3 80 77 81
3 125 126 127
3 106 85 82
3 127 145 122
3 96 98 3
3 3 98 100
3 136 7 146
3 146 7 6
3 149 143 15
3 150 143 151
3 151 140 150
3 151 143 149
3 140 147 137
3 98 97 134
3 98 134 99
3 99 134 152
3 77 105 138
3 128 115 153
3 153 115 3
3 128 127 126
3 145 127 129
3 86 145 87
3 85 84 82
3 83 86 84
3 71 13 124
3 147 140 151
3 136 148 7
3 87 145 129
3 84 86 88
3 84 88 154
3 124 13 143
3 143 150 140
3 151 16 147
3 18 152 134
3 128 153 155
3 156 129 157
3 82 84 154
3 129 155 157
3 156 87 129
3 129 128 155
3 155 158 159
3 87 156 88
3 88 156 89
3 156 157 90
3 13 15 143
3 147 16 18
3 71 78 160
3 158 153 3
3 88 89 154
3 154 89 161
3 161 89 91
3 156 90 89
3 91 90 162
3 163 149 15
3 151 149 17
3 17 164 165
3 165 164 166
3 166 9 7
3 151 17 16
3 167 18 17
3 167 17 168
3 18 167 152
3 100 169 132
3 152 169 99
3 79 78 80
3 79 82 170
3 170 82 154
3 153 158 155
3 159 158 3
3 171 162 172
3 160 173 174
3 161 91 175
3 91 162 175
3 175 162 171
3 175 171 176
3 177 8 11
3 17 149 178
3 169 152 167
3 99 169 100
3 179 170 154
3 179 154 161
3 179 161 173
3 173 175 174
3 90 157 159
3 161 175 173
3 180 159 3
3 180 3 181
3 174 176 10
3 177 11 10
3 176 171 177
3 8 177 171
3 176 177 10
3 163 178 149
3 148 165 166
3 78 79 160
3 157 155 159
3 90 159 180
3 71 160 13
3 162 90 172
3 172 90 180
3 174 10 14
3 14 10 178
3 174 175 176
3 11 8 9
3 178 163 14
3 14 163 15
3 165 168 17
3 79 170 160
3 160 170 173
3 179 173 170
3 182 180 181
3 182 181 131
3 131 181 3
3 13 160 14
3 183 182 131
3 172 182 6
3 172 180 182
3 171 172 8
3 8 172 6
3 11 9 164
3 178 164 17
3 169 167 132
3 132 167 165
3 14 160 174
3 178 10 12
3 12 11 164
3 9 166 164
3 178 12 164
3 167 168 165
3 183 6 182
3 183 131 146
3 166 7 148
3 165 148 132
3 131 133 146
3 6 183 146
3 133 139 146
