ply
format ascii 1.0
comment Created by Blender 2.80 (sub 75) - www.blender.org, source file: 'color_and_decimate.blend'
element vertex 256
property float x
property float y
property float z
property float nx
property float ny
property float nz
element face 512
property list uchar uint vertex_indices
end_header
-6103.759766 -4439.803711 -5457.474121 -0.780786 -0.623676 -0.036775
-6112.770996 -4487.290527 -5384.911133 -0.958220 0.158818 -0.237800
-6163.379395 -4455.458008 -5264.320312 -0.829188 -0.379589 -0.410260
-6216.253418 -4606.748535 -5264.845215 -0.697562 0.661855 -0.274422
-6226.950684 -4488.989746 -5163.217285 -0.837031 0.034150 -0.546068
-6460.111816 -4665.972656 -5245.859863 -0.042848 0.989380 -0.138829
-6370.277344 -4687.080078 -5402.825684 -0.943754 0.175329 -0.280221
-6559.289551 -4687.059082 -5289.992188 0.217841 0.921903 -0.320261
-6566.757812 -4694.081055 -5467.396973 0.128971 0.985626 -0.108829
-6569.297363 -4688.097656 -5672.610352 -0.163579 0.986053 0.029664
-6643.827637 -4711.313477 -5794.048828 -0.356243 0.934202 -0.018159
-6610.875488 -4691.110352 -5887.820801 -0.300729 0.953429 0.022584
-6167.500000 -4582.929199 -5370.754883 -0.739830 0.659536 -0.132847
-6162.265625 -4571.538574 -5487.233887 -0.714805 0.695273 0.074984
-6364.280273 -4668.956543 -5702.187500 -0.467971 0.860836 0.199866
-6301.182129 -4561.784180 -5883.778809 -0.573809 0.768242 0.283731
-6381.279785 -4648.388672 -5818.474609 -0.535478 0.809870 0.239479
-6451.606445 -4687.089355 -5792.990234 -0.197180 0.975829 0.093936
-6193.607422 -4580.710449 -5557.539062 -0.607166 0.780908 0.146519
-6266.508301 -4636.383789 -5484.034668 -0.501236 0.864925 0.024689
-6114.393066 -4480.229004 -5655.480957 -0.966491 0.198462 0.162755
-6246.183105 -4493.301758 -5948.685059 -0.684896 0.586840 0.431806
-6175.429199 -4485.020508 -5849.318359 -0.810602 0.464949 0.355968
-6199.847168 -4437.710449 -5922.795898 -0.715201 -0.547899 0.433882
-6721.914062 -4456.979492 -5479.892090 0.752770 0.553636 -0.356029
-6706.412109 -4446.395020 -5378.144531 0.828455 -0.557298 -0.055086
-6687.753906 -4552.576172 -5480.583984 0.784051 0.382733 -0.488601
-6328.604004 -4661.139160 -5256.348633 -0.271737 0.955687 -0.113102
-6379.313965 -4649.296875 -5116.298340 -0.338267 0.899503 -0.276406
-6269.735352 -4571.672363 -5143.899902 -0.726890 0.468520 -0.502060
-6358.635742 -4580.266113 -5023.823242 -0.649831 0.478622 -0.590381
-6532.758789 -4660.746094 -5089.157227 0.248024 0.928343 -0.276772
-6625.478027 -4648.363281 -5198.071777 0.253639 0.967101 0.017823
-6145.102539 -4443.539551 -5776.267090 -0.798395 -0.557787 0.226691
-6616.103027 -4440.121582 -5115.554199 -0.329508 -0.894650 -0.301584
-6712.040039 -4444.219727 -5284.601074 0.545701 -0.762139 0.348308
-6699.758789 -4490.665527 -5292.156738 0.814478 0.411817 0.408673
-6630.202637 -4580.430664 -5359.424316 0.893124 0.447645 -0.043886
-6197.537109 -4560.415527 -5683.693848 -0.631031 0.749290 0.200751
-6345.291992 -4681.124512 -5590.353027 -0.354839 0.932493 0.067263
-6262.372559 -4438.177246 -5141.438477 -0.468459 -0.826319 -0.312571
-6563.797363 -4441.365234 -5109.084961 0.406720 -0.851955 -0.329722
-6798.603027 -4468.453613 -5214.057129 0.329569 0.336253 0.882199
-6799.532715 -4650.707520 -5209.680664 -0.790063 0.409772 0.455885
-6840.948242 -4695.644043 -5175.154785 -0.132359 0.655293 -0.743675
-6790.671875 -4637.709961 -5122.507812 0.044069 0.911557 -0.408765
-6816.328125 -4458.181641 -5025.135254 0.382488 -0.114719 -0.916776
-6943.435547 -4457.584961 -5091.907227 0.588305 -0.355480 -0.726279
-6773.418457 -4439.328613 -5017.960938 0.228462 -0.702689 -0.673788
-6664.390137 -4447.337891 -4956.656738 0.083712 -0.561022 -0.823542
-6628.840332 -4588.522949 -4969.692871 -0.396222 0.477584 -0.784112
-6611.139160 -4616.547363 -5093.663086 -0.521348 0.639119 -0.565386
-6608.389648 -4532.918945 -5144.405762 -0.321604 -0.137486 -0.936827
-6566.588379 -4623.275391 -5082.858887 0.765191 0.419294 -0.488510
-6618.897461 -4453.489746 -4972.414062 -0.692740 -0.509384 -0.510453
-6781.425781 -4439.829590 -5564.271484 0.322611 -0.808924 -0.491440
-7466.797363 -4437.592773 -6591.161621 0.110538 -0.734733 0.669271
-6777.114746 -4519.089355 -5555.978027 0.527696 0.123051 -0.840449
-6898.695801 -4441.531738 -5595.827148 -0.090518 -0.837855 -0.538285
-6826.809570 -4591.709961 -5582.899414 0.040956 -0.080569 -0.995880
-6326.969727 -4449.367188 -6103.028809 -0.730155 -0.267830 0.628590
-7131.107910 -4546.951660 -5562.861816 0.778252 0.521836 -0.349254
-7070.161133 -4627.625000 -5487.875488 0.865535 0.448225 -0.223334
-7117.307617 -4637.540039 -5617.648438 0.798669 0.325999 -0.505783
-7036.924316 -4740.530273 -5554.056152 0.842341 0.334574 -0.422498
-7122.151367 -4771.264648 -5669.330566 0.678884 0.193274 -0.708304
-7257.454102 -4607.174316 -5745.734375 0.551469 0.228614 -0.802240
-7231.981445 -4774.298828 -5757.818359 0.557512 0.176244 -0.811212
-8125.853027 -4728.434570 -5928.762695 0.862056 -0.402844 -0.307443
-8146.582520 -4776.773438 -6001.419434 0.881008 -0.396191 0.258492
-8083.650879 -4640.827148 -5912.916016 0.876980 -0.410810 -0.249153
-8007.450684 -4601.452148 -5832.583008 0.151067 0.159917 -0.975494
-7973.149902 -4450.145996 -5887.488770 0.561480 -0.775658 -0.288217
-7911.199707 -4457.568359 -5838.489258 0.039827 -0.549516 -0.834498
-7442.157715 -4514.942383 -6615.227051 0.509293 0.110599 0.853420
-7436.334961 -4575.247559 -6590.943359 0.066347 0.214026 0.974548
-7244.604980 -4610.360840 -6580.053711 -0.053743 0.427595 0.902341
-6477.769531 -4683.349121 -5903.205566 -0.307016 0.928312 0.209571
-6398.202148 -4603.918945 -5977.798340 -0.507645 0.773553 0.379254
-6319.078125 -4493.142090 -6060.312500 -0.653768 0.564379 0.503983
-6862.340332 -4441.411621 -5203.710449 -0.164647 -0.883236 0.439009
-7096.932617 -4442.327148 -5286.299805 0.663076 -0.663076 -0.347301
-6551.081543 -4600.861816 -4976.899902 0.643727 0.551958 -0.530015
-6417.350586 -4623.304688 -5013.427246 -0.318094 0.767418 -0.556627
-6323.989746 -4462.153320 -5023.675781 -0.734519 -0.326914 -0.594623
-6552.986328 -4441.324219 -4928.623047 0.676962 -0.555467 -0.482833
-6494.134277 -4558.097168 -4927.577148 0.034486 0.492935 -0.869350
-6504.280762 -4568.566895 -6130.442383 -0.486343 0.751671 0.445448
-6964.500977 -4646.850586 -6464.416504 -0.310221 0.753136 0.580096
-7054.066406 -4599.993652 -6554.635254 -0.256111 0.637928 0.726218
-7127.996094 -4697.533691 -6483.109863 -0.270669 0.763146 0.586779
-6390.834473 -4438.198242 -6147.046875 -0.196722 -0.965148 0.172491
-6540.624512 -4488.740234 -6293.549805 -0.639058 0.563616 0.523362
-6632.819336 -4587.810547 -6265.277344 -0.530717 0.742119 0.409345
-6577.777344 -4453.277344 -6402.474121 -0.709159 -0.268044 0.652058
-6693.053223 -4554.793457 -6409.370117 -0.493881 0.690542 0.528398
-7603.218262 -4890.802734 -5860.656738 0.478774 -0.371715 -0.795312
-7693.384277 -5010.020020 -5838.948242 0.428266 0.023774 -0.903317
-7742.288086 -5032.636719 -5869.321777 0.100131 0.735649 -0.669881
-7019.309570 -4441.878906 -5526.740234 -0.368572 -0.906796 -0.204505
-7182.527832 -4439.844238 -5511.670898 0.682455 -0.682363 -0.261910
-7144.013672 -4483.842773 -5408.433105 0.908078 0.283578 -0.308115
-6414.022461 -4462.654785 -4920.216309 -0.568346 -0.280038 -0.773644
-6602.470215 -4657.252930 -5268.910156 0.561327 0.826777 -0.036073
-6486.542480 -4446.422852 -4887.760742 0.027802 -0.468154 -0.883175
-6615.179199 -4685.089355 -6035.496094 -0.438948 0.854366 0.278085
-6630.794434 -4639.247070 -6155.250977 -0.510849 0.776543 0.368725
-6570.033203 -4439.784180 -6357.109375 -0.540849 -0.800165 0.259163
-6654.940918 -4633.437012 -5059.078613 -0.173284 0.938566 -0.298349
-6609.596680 -4670.819336 -5462.729004 0.637257 0.660909 -0.396313
-6748.079590 -4662.765625 -6251.224121 -0.435163 0.805383 0.402417
-6796.392578 -4601.902344 -6428.645020 -0.405988 0.740654 0.535295
-6670.633789 -4618.100586 -5206.489258 0.431776 0.661824 0.612781
-6682.857422 -4710.813477 -5558.218750 0.185766 0.864589 -0.466811
-6842.118652 -4942.180664 -5856.147461 -0.609973 0.723533 0.323038
-6777.871094 -4799.565918 -5944.180176 -0.724204 0.671438 0.157018
-6844.383301 -4853.212402 -6001.556152 -0.592181 0.686361 0.422132
-6781.712891 -4716.185059 -5579.683594 -0.503708 0.464156 -0.728538
-6754.754883 -4750.710938 -5754.458008 -0.652760 0.744743 -0.138615
-6689.481445 -4738.250488 -5981.043945 -0.501694 0.857753 0.111850
-6707.770996 -4701.850098 -6131.057129 -0.462996 0.815363 0.347453
-6821.661621 -4766.503906 -6122.175781 -0.464858 0.795160 0.389386
-7565.626465 -4646.931152 -6564.666504 0.069155 0.148595 0.986450
-7597.787109 -4456.768555 -6572.805664 0.186254 -0.258003 0.947996
-7754.874512 -4610.978027 -6563.206543 0.430708 -0.047548 0.901212
-7808.402832 -4567.520508 -6497.985840 0.686850 -0.255837 0.680258
-7772.816895 -4441.200684 -6473.675781 0.403882 -0.826136 0.392865
-6661.188477 -4464.128906 -6463.433594 -0.604816 -0.084964 0.791772
-6730.371582 -4611.447266 -5035.687500 0.342326 0.647725 -0.680593
-6849.370605 -4597.815430 -5105.940918 0.474532 0.502701 -0.722556
-6760.815430 -4457.193848 -6534.771973 -0.536210 -0.209113 0.817743
-6866.267090 -4656.856445 -5559.542480 -0.437849 -0.280465 -0.854152
-6808.614258 -4560.316895 -5214.548340 -0.298105 -0.047884 0.953307
-6855.394531 -4830.917480 -5290.553711 -0.291482 0.885647 -0.361431
-6902.733398 -4772.185547 -5239.224121 0.446730 0.511673 -0.733879
-6813.563965 -4784.720215 -5283.182617 -0.954009 0.293802 -0.058992
-6785.455566 -4793.272949 -5697.610352 -0.976959 0.202155 -0.067995
-6892.510254 -4440.817871 -6596.042969 -0.247963 -0.656941 0.711966
-7057.601562 -4958.176270 -5676.704590 0.708457 -0.044160 -0.704337
-6985.894531 -4832.920410 -5514.885742 0.804346 0.437666 -0.401776
-6944.497070 -4888.481934 -5520.389160 0.333171 0.583575 -0.740532
-6886.153809 -5001.333496 -5751.769043 -0.400128 0.909696 0.110904
-6931.776855 -5011.687988 -5566.057129 -0.080386 0.824061 -0.560717
-6834.448730 -4967.698730 -5577.552734 -0.621174 0.644124 -0.446303
-7402.442871 -4441.872559 -5810.515625 0.375042 -0.700888 -0.606647
-7511.740723 -4444.749023 -5862.590820 0.142308 -0.745567 -0.651021
-6907.745605 -4705.999023 -6325.109863 -0.370586 0.817621 0.440596
-6787.354492 -4904.746582 -5627.092285 -0.940886 0.288919 -0.176733
-6791.366699 -4924.868164 -5744.285645 -0.878933 0.471206 0.073611
-6819.812988 -4824.668945 -5502.073730 -0.866054 0.104373 -0.488876
-8221.589844 -5036.001953 -5938.945801 0.574419 0.621235 -0.533006
-8126.221191 -5034.318359 -6202.874512 0.328867 0.931303 0.156438
-8249.338867 -5024.468262 -5973.144043 0.928831 0.309915 -0.202948
-8120.396973 -5017.977539 -6256.137207 0.894772 0.261849 0.361644
-6940.547852 -4690.846191 -5250.461426 0.724815 0.384686 -0.571520
-7016.402344 -4439.041992 -5345.758789 -0.347850 -0.922117 0.169225
-6943.163086 -4488.295410 -5304.737305 -0.688192 -0.371990 0.622852
-6888.723145 -4677.013184 -5335.370117 -0.831141 -0.347056 0.434400
-6945.031250 -4833.104004 -5341.067383 0.607624 0.754875 -0.246834
-6883.838867 -4715.310547 -5514.990234 -0.749962 -0.454024 -0.481002
-6874.589355 -4763.870605 -5403.456543 -0.926878 -0.356029 0.118717
-6838.068848 -4870.137207 -5523.866211 -0.537767 0.574023 -0.617450
-7066.509766 -5033.918457 -5648.534180 0.407300 0.675588 -0.614551
-7012.305176 -5009.659668 -5587.788086 0.504349 0.599872 -0.621082
-6979.776367 -5018.495117 -5702.626953 -0.207343 0.977569 -0.036470
-8097.221680 -4808.547363 -5863.926758 0.370159 0.010498 -0.928892
-8004.164062 -4929.013672 -5885.859863 0.606494 0.466445 -0.643849
-8138.275879 -4826.611328 -5886.709961 0.526383 -0.113376 -0.842616
-8087.082031 -5029.006836 -5893.078613 0.086337 0.660237 -0.746055
-8189.778320 -4938.463867 -5912.614746 0.640614 -0.021058 -0.767541
-8147.467285 -4887.969727 -6076.938477 0.855922 -0.342692 0.387188
-8233.655273 -4974.412109 -5995.949219 0.956420 -0.280374 0.081240
-6879.437500 -4550.160645 -6535.941406 -0.325968 0.631184 0.703787
-6867.917480 -4830.227539 -5428.445312 -0.610492 0.724021 -0.320994
-6964.911621 -4822.722168 -5420.722168 0.642415 0.705496 -0.299203
-7097.360352 -4861.027344 -5665.962891 -0.025483 0.055147 -0.998138
-7138.786621 -4929.997070 -5742.020996 0.588702 0.040681 -0.807306
-7413.370117 -5035.157715 -5806.586426 0.143315 0.654195 -0.742607
-7273.976562 -4918.920898 -5811.561523 0.299356 -0.122318 -0.946257
-7314.186523 -5025.771484 -5761.925781 0.342540 0.174413 -0.923154
-7317.111816 -4442.119141 -5748.667969 0.464644 -0.722526 -0.511887
-6940.597168 -4481.558594 -6612.615234 -0.183172 0.138279 0.973296
-6944.931152 -4630.484863 -5457.177734 -0.901334 -0.432813 -0.015168
-6990.374512 -4520.809082 -5490.303223 -0.886990 -0.426405 -0.177190
-6996.419434 -5004.839844 -5873.076172 -0.297037 0.922208 0.247536
-7003.758301 -4958.210449 -5997.112793 -0.369854 0.805017 0.463790
-7147.180176 -4951.041016 -6112.888184 -0.448805 0.736808 0.505570
-7037.571289 -4852.714844 -6139.024414 -0.387982 0.772576 0.502548
-6997.896484 -4792.403320 -6238.984375 -0.341319 0.835902 0.429792
-7278.514648 -4531.718750 -5726.640137 0.664174 0.310251 -0.680135
-7414.003418 -4542.672852 -5826.700684 0.430921 0.063173 -0.900143
-7017.621582 -4580.289062 -5250.203613 0.721427 0.471480 -0.507157
-6968.952637 -4539.821777 -5386.729980 -0.863704 -0.413739 0.287698
-7288.428223 -5003.674805 -6159.432617 -0.391369 0.834681 0.387402
-7073.742676 -4750.299316 -6369.916016 -0.328806 0.806421 0.491440
-7110.562988 -5032.005859 -5882.089844 -0.145604 0.982696 0.114261
-7275.439941 -5037.378906 -6036.974609 -0.151433 0.979430 0.133122
-7092.619629 -4536.657715 -6610.208008 -0.090640 0.347392 0.933317
-7273.863281 -4720.630859 -6516.216309 -0.242042 0.668264 0.703391
-7083.895508 -4482.258789 -5262.722168 0.827357 0.211463 -0.520280
-7038.436523 -4657.395508 -5408.938965 0.841823 0.455000 -0.290231
-7250.817383 -4444.675293 -5643.243652 0.719932 -0.573901 -0.390271
-7185.887695 -4603.517090 -5690.806152 0.667776 0.343852 -0.660146
-7174.671387 -5031.981934 -5725.813477 0.341288 0.612415 -0.713034
-7176.907715 -4962.964355 -5756.042969 0.408094 -0.299264 -0.862484
-7139.781250 -4822.887207 -6281.989258 -0.410321 0.810816 0.417310
-7194.610352 -4473.937012 -5557.112793 0.803858 0.426435 -0.414624
-7264.941895 -4882.312988 -6305.171875 -0.465224 0.688559 0.556230
-7388.887207 -4712.065430 -6556.609863 -0.138035 0.432630 0.890927
-7530.728027 -4742.937500 -6558.690430 -0.041017 0.258675 0.965087
-7676.762207 -4734.216309 -6562.167969 0.138524 0.271706 0.952330
-7385.709473 -4931.767578 -6363.702637 -0.459334 0.642842 0.612964
-7414.787109 -5037.210938 -6206.450195 -0.159154 0.971313 0.176580
-7362.141113 -4825.899902 -6432.541992 -0.370373 0.649983 0.663533
-7348.360840 -4662.039062 -5807.008789 0.401318 0.083438 -0.912107
-7422.850586 -4996.385742 -6303.775879 -0.385296 0.795099 0.468307
-7368.617676 -4895.640137 -5816.791016 0.178320 -0.036470 -0.983276
-7427.270508 -4915.087891 -5835.607910 0.197302 -0.115360 -0.973510
-7561.801270 -5019.347168 -5819.113770 0.140996 0.247017 -0.958678
-7601.975586 -5033.175293 -6364.716797 -0.169256 0.925138 0.339702
-7538.583984 -4946.221680 -6448.302246 -0.339305 0.624348 0.703574
-7538.365234 -4845.060059 -6511.442383 -0.201575 0.480880 0.853267
-7550.753906 -4608.034180 -6586.289551 0.296152 0.230537 0.926878
-7484.585449 -4757.938965 -5846.489258 0.187750 -0.029023 -0.981780
-7672.894531 -4444.571777 -6548.873535 0.279244 -0.717154 0.638508
-7666.136230 -4974.951660 -6465.456055 -0.134587 0.617176 0.775201
-7792.891113 -5035.741699 -6417.138184 -0.045045 0.920713 0.387585
-7624.020020 -4832.692871 -6516.359375 0.024201 0.296793 0.954619
-7939.248535 -5019.312988 -5865.880371 0.163152 0.494217 -0.853877
-7985.725098 -5031.863770 -5895.478027 0.167486 0.841090 -0.514237
-7779.868164 -4886.913574 -6510.038574 0.151708 0.221198 0.963347
-7791.581055 -4767.824219 -6510.022461 0.417066 0.073275 0.905881
-7907.582520 -4779.381348 -6441.041992 0.534043 -0.215766 0.817438
-7923.130859 -4610.330078 -6388.541504 0.734397 -0.230079 0.638508
-7953.418457 -4704.266602 -6383.051758 0.770531 -0.250435 0.586077
-8054.417969 -4863.257324 -6327.560059 0.847468 -0.324839 0.419752
-8006.967773 -4581.378906 -6138.678223 0.842280 -0.461074 0.279183
-8056.785645 -4639.444336 -6080.126465 0.872372 -0.427259 0.237434
-7883.038086 -4883.397461 -6469.822754 0.292734 0.005585 0.956145
-8006.510254 -4533.550781 -6010.087891 0.832392 -0.530717 0.159429
-8097.501465 -4723.458008 -6062.465332 0.867946 -0.394299 0.301950
-7876.755859 -4450.808594 -6359.180176 0.588336 -0.751488 0.298441
-7934.166992 -4438.281250 -6038.549316 0.454817 -0.886227 0.087863
-7813.375977 -4447.355469 -5864.407715 -0.034303 -0.704581 -0.708762
-7886.819824 -4439.940430 -6206.058594 0.445998 -0.885556 0.129765
-7822.484375 -4968.195312 -6467.311523 0.084719 0.285623 0.954558
-7942.026855 -5012.646973 -6453.395020 0.217170 0.525864 0.822352
-7954.573730 -4882.632324 -6453.541016 0.464187 -0.169713 0.869289
-8070.940918 -4973.603516 -6383.499512 0.793115 -0.034425 0.608081
-8054.316406 -4675.282227 -5861.994629 0.432447 -0.104556 -0.895566
-8185.413574 -4828.292480 -5936.686035 0.911802 -0.348094 -0.217719
-8044.162598 -5035.518066 -6387.289062 0.449385 0.742821 0.496231
-7958.387695 -4610.695312 -6338.484375 0.941557 -0.200751 0.270394
-8014.786133 -4823.273926 -6368.851562 0.768578 -0.286416 0.572039
-7962.852539 -4529.473633 -6186.076660 0.818140 -0.505448 0.274026
-8093.929688 -4808.471680 -6145.462891 0.894192 -0.301218 0.331126
3 0 1 2
3 2 3 4
3 5 6 7
3 8 9 10
3 10 9 11
3 12 1 13
3 14 15 16
3 17 9 8
3 13 18 19
3 13 1 20
3 1 0 20
3 13 20 18
3 21 22 23
3 24 25 26
3 3 27 28
3 3 28 29
3 29 28 30
3 31 5 32
3 0 33 20
3 2 1 12
3 23 34 35
3 23 35 25
3 25 36 37
3 33 0 23
3 20 38 18
3 3 2 12
3 12 13 19
3 6 17 8
3 35 36 25
3 5 39 6
3 20 22 38
3 20 33 22
3 22 21 15
3 33 23 22
3 4 40 2
3 23 0 40
3 40 41 23
3 36 35 42
3 43 44 45
3 46 47 48
3 48 49 50
3 51 52 53
3 54 34 52
3 29 4 3
3 23 41 34
3 55 56 23
3 55 24 57
3 58 57 59
3 2 40 0
3 12 19 3
3 19 18 39
3 39 18 38
3 39 38 14
3 38 22 15
3 38 15 14
3 23 60 21
3 61 62 63
3 63 64 65
3 66 65 67
3 68 69 70
3 71 70 72
3 73 71 72
3 74 75 76
3 77 11 9
3 3 19 27
3 78 21 79
3 80 48 81
3 81 48 47
3 19 39 27
3 27 39 5
3 82 83 31
3 82 31 53
3 84 40 4
3 40 85 41
3 21 60 79
3 86 83 82
3 30 84 29
3 29 84 4
3 30 28 83
3 28 27 5
3 28 5 31
3 15 78 77
3 77 78 87
3 15 21 78
3 78 79 87
3 88 89 90
3 60 23 91
3 87 79 92
3 93 92 94
3 93 94 95
3 96 97 98
3 58 99 100
3 100 81 101
3 102 84 30
3 30 83 102
3 102 83 86
3 84 102 40
3 32 5 103
3 39 14 17
3 17 14 16
3 16 15 77
3 40 104 85
3 102 104 40
3 102 86 104
3 83 28 31
3 6 39 17
3 16 77 17
3 105 87 106
3 79 60 92
3 60 91 107
3 104 86 82
3 104 82 85
3 17 77 9
3 107 91 56
3 56 91 23
3 60 107 92
3 41 82 53
3 5 7 103
3 6 8 7
3 87 105 77
3 77 105 11
3 87 92 93
3 85 82 41
3 51 108 50
3 106 87 93
3 92 107 94
3 53 31 32
3 53 32 51
3 51 32 108
3 34 41 52
3 41 53 52
3 7 109 103
3 103 37 36
3 37 109 26
3 24 26 57
3 26 109 57
3 109 7 8
3 110 93 111
3 50 54 51
3 54 50 49
3 54 52 51
3 45 32 112
3 45 112 43
3 103 36 112
3 37 103 109
3 113 8 10
3 114 115 116
3 117 10 118
3 118 10 119
3 105 106 120
3 54 49 34
3 103 112 32
3 8 113 109
3 11 105 119
3 116 115 121
3 122 123 124
3 125 124 126
3 105 120 119
3 94 127 95
3 127 94 107
3 49 48 34
3 128 46 48
3 128 108 45
3 108 32 45
3 112 36 42
3 34 48 35
3 37 26 25
3 23 25 55
3 10 11 119
3 106 93 120
3 128 50 108
3 128 45 129
3 55 25 24
3 117 113 10
3 93 110 120
3 127 107 130
3 95 127 130
3 48 50 128
3 109 113 57
3 113 131 59
3 119 121 115
3 111 93 95
3 112 42 132
3 112 132 43
3 133 134 44
3 133 44 135
3 57 113 59
3 113 117 131
3 118 115 136
3 118 119 115
3 119 120 121
3 130 107 137
3 137 107 56
3 95 130 111
3 46 128 129
3 138 139 140
3 141 142 143
3 136 117 118
3 56 144 145
3 120 146 121
3 45 44 129
3 35 80 42
3 42 80 132
3 55 57 58
3 147 148 143
3 147 149 117
3 117 136 147
3 147 136 148
3 148 115 114
3 148 141 143
3 136 115 148
3 150 151 152
3 152 151 153
3 35 48 80
3 154 44 134
3 80 155 156
3 135 44 43
3 43 157 135
3 133 158 134
3 131 149 159
3 159 149 160
3 149 147 161
3 161 143 142
3 161 147 143
3 131 117 149
3 56 55 58
3 162 163 164
3 148 114 141
3 120 110 146
3 110 111 146
3 165 166 167
3 167 168 169
3 169 168 150
3 170 171 153
3 111 130 172
3 46 129 47
3 135 157 160
3 133 135 173
3 173 135 160
3 160 149 173
3 149 161 173
3 140 139 174
3 67 65 175
3 67 175 176
3 177 178 179
3 141 163 142
3 56 180 144
3 111 88 146
3 172 130 181
3 130 137 181
3 132 80 156
3 156 157 43
3 158 173 174
3 58 131 99
3 182 183 159
3 58 59 131
3 184 185 186
3 184 114 185
3 187 116 188
3 121 188 116
3 44 154 129
3 132 156 43
3 158 133 173
3 173 161 140
3 173 140 174
3 161 142 140
3 99 155 81
3 144 189 190
3 141 164 163
3 111 172 88
3 154 191 129
3 155 80 81
3 157 192 182
3 157 182 160
3 160 182 159
3 183 131 159
3 184 186 193
3 141 114 184
3 185 114 116
3 146 88 194
3 129 191 47
3 154 158 174
3 156 192 157
3 134 158 154
3 131 183 99
3 192 183 182
3 195 184 193
3 195 193 196
3 121 146 188
3 89 197 198
3 47 199 81
3 199 200 101
3 101 200 62
3 64 62 200
3 140 142 163
3 56 201 180
3 141 184 164
3 186 185 187
3 88 172 181
3 89 181 197
3 191 154 200
3 154 174 200
3 192 155 183
3 155 192 156
3 200 174 139
3 58 100 56
3 56 100 201
3 185 116 187
3 146 194 188
3 181 89 88
3 155 99 183
3 200 139 64
3 64 139 138
3 138 175 65
3 64 138 65
3 140 163 138
3 189 202 66
3 163 162 138
3 162 203 138
3 138 203 204
3 164 184 195
3 88 90 194
3 47 191 199
3 199 191 200
3 99 81 100
3 162 164 195
3 162 195 203
3 179 203 177
3 205 187 188
3 188 194 205
3 197 181 74
3 63 62 64
3 201 100 206
3 202 189 61
3 61 189 206
3 176 138 204
3 198 194 90
3 138 176 175
3 81 199 101
3 101 62 61
3 101 61 206
3 63 202 61
3 203 195 177
3 177 195 196
3 187 205 207
3 205 194 207
3 187 207 186
3 90 89 198
3 181 137 74
3 197 74 76
3 100 101 206
3 63 65 202
3 208 198 76
3 209 208 122
3 209 122 210
3 198 197 76
3 67 176 178
3 178 176 204
3 211 186 207
3 137 56 74
3 202 65 66
3 204 203 179
3 198 207 194
3 196 193 212
3 207 198 213
3 206 189 201
3 180 189 144
3 189 66 190
3 66 214 190
3 66 67 214
3 178 204 179
3 186 211 193
3 193 211 215
3 98 177 196
3 201 189 180
3 67 178 214
3 214 178 216
3 216 178 177
3 216 177 217
3 217 177 218
3 193 215 212
3 219 215 220
3 221 213 208
3 221 208 209
3 56 123 222
3 222 76 75
3 76 222 122
3 145 190 223
3 214 217 190
3 190 217 223
3 198 208 213
3 144 190 145
3 214 216 217
3 207 213 211
3 123 56 224
3 211 213 221
3 219 212 215
3 215 211 220
3 224 56 126
3 211 221 220
3 76 122 208
3 220 225 219
3 219 226 196
3 75 74 56
3 223 97 96
3 209 227 221
3 223 217 97
3 145 228 165
3 165 228 166
3 166 228 229
3 168 229 196
3 228 98 229
3 145 98 228
3 98 196 229
3 145 223 96
3 145 96 98
3 212 219 196
3 230 227 231
3 232 231 233
3 232 233 234
3 235 236 237
3 220 221 225
3 238 231 232
3 75 56 222
3 236 239 237
3 69 240 70
3 225 221 230
3 218 177 98
3 217 218 97
3 126 56 241
3 221 227 230
3 238 230 231
3 56 145 242
3 242 145 243
3 242 243 72
3 231 210 124
3 218 98 97
3 227 209 210
3 227 210 231
3 222 123 122
3 169 150 171
3 56 244 241
3 225 230 245
3 245 230 238
3 123 224 124
3 210 122 124
3 224 126 124
3 226 219 225
3 225 245 246
3 246 247 248
3 248 247 235
3 243 145 249
3 249 145 165
3 167 169 250
3 56 242 244
3 71 243 249
3 246 226 225
3 233 125 241
3 124 125 233
3 231 124 233
3 241 125 126
3 73 243 71
3 243 73 72
3 226 251 196
3 245 238 246
3 233 241 252
3 247 232 253
3 238 247 246
3 241 244 252
3 244 254 252
3 234 233 252
3 253 235 247
3 226 246 251
3 251 153 151
3 232 247 238
3 254 244 242
3 254 242 236
3 170 153 255
3 168 166 229
3 254 234 252
3 234 254 253
3 253 254 236
3 232 234 253
3 251 246 248
3 72 239 242
3 236 242 239
3 167 166 168
3 239 72 70
3 237 239 70
3 235 237 255
3 255 240 69
3 253 236 235
3 71 249 70
3 255 237 240
3 70 249 68
3 237 70 240
3 235 255 248
3 151 196 251
3 153 248 255
3 249 165 68
3 68 165 167
3 153 251 248
3 250 68 167
3 170 255 69
3 250 69 68
3 168 196 150
3 196 151 150
3 69 250 170
3 169 171 250
3 250 171 170
3 171 152 153
3 150 152 171
