ply
format ascii 1.0
comment Created by Blender 2.80 (sub 75) - www.blender.org, source file: 'color_and_decimate.blend'
element vertex 203
property float x
property float y
property float z
property float nx
property float ny
property float nz
element face 402
property list uchar uint vertex_indices
end_header
-8273.385742 -4922.318848 -6063.569336 -0.753868 0.416517 -0.508103
-8340.348633 -4843.198730 -5937.119141 -0.628437 0.400800 -0.666616
-8220.551758 -4860.564453 -6101.907715 -0.810297 0.439131 -0.388012
-8217.522461 -5028.723633 -6368.740234 -0.723563 0.689566 0.029939
-8207.692383 -4874.995605 -6413.228516 -0.885037 0.205542 0.417646
-8234.454102 -4797.709961 -6476.764160 -0.774224 -0.006806 0.632832
-8230.541992 -4987.903320 -6479.009277 -0.961608 0.076998 0.263283
-8506.427734 -4757.537109 -6489.095703 0.556566 -0.436201 0.707053
-8598.710938 -4751.752930 -6436.354980 0.374859 -0.479781 0.793237
-8669.505859 -4876.258789 -6492.532227 0.223792 -0.626484 0.746605
-8484.085938 -4654.744629 -6459.905762 0.602252 -0.354289 0.715354
-8597.508789 -4667.996582 -6389.732422 0.441298 -0.415937 0.795129
-8430.058594 -4545.139648 -6450.478516 0.609912 -0.418714 0.672781
-8410.140625 -4457.876465 -6411.987793 0.613666 0.009857 0.789483
-8601.202148 -4585.070312 -6350.641113 0.462233 -0.361797 0.809564
-8511.349609 -4437.541504 -5724.862305 -0.083102 -0.981140 -0.174444
-8507.170898 -4446.476074 -6349.153809 0.315744 -0.804376 0.503220
-8319.070312 -4439.655762 -6491.426758 0.039583 -0.719718 0.693106
-8010.986816 -4475.890625 -6157.623535 -0.999420 0.032563 -0.008179
-8059.673340 -4507.493164 -6312.110352 -0.896146 0.191534 0.400250
-8050.977539 -4537.898926 -6174.865234 -0.880703 0.473373 0.015015
-8032.929688 -4441.618164 -6038.293945 -0.780389 -0.507614 -0.365062
-8036.406250 -4439.230469 -6267.854004 -0.725120 -0.642232 0.248390
-8065.777344 -4543.612305 -6080.720703 -0.834315 0.471175 -0.286050
-8990.305664 -4503.337891 -6134.144043 0.567736 -0.567095 0.596667
-8976.785156 -4437.596680 -6104.072266 0.342906 -0.860897 0.375805
-9110.114258 -4440.556152 -5987.315918 0.268105 -0.895108 0.356182
-9153.673828 -4543.795898 -6099.097656 0.459883 -0.627430 0.628346
-9270.297852 -4826.199219 -6181.520508 0.659139 -0.383374 0.646931
-9200.620117 -4672.119629 -6148.392090 0.591327 -0.442946 0.673849
-9386.318359 -4770.584961 -6027.367188 0.692557 -0.359996 0.625080
-9363.625000 -4863.098633 -6095.286621 0.687979 -0.328654 0.647023
-9420.072266 -4978.727539 -6097.850586 0.740654 -0.152440 0.654317
-8913.890625 -4573.702637 -6190.756348 -0.079226 -0.289376 0.953917
-8793.277344 -4684.518066 -6305.208008 0.269173 -0.563219 0.781213
-8790.079102 -4565.272949 -6238.518066 0.421155 -0.379711 0.823634
-8968.039062 -4560.034180 -6212.693359 0.067843 -0.442763 0.894040
-8885.322266 -4451.399902 -6205.391602 -0.133702 -0.537309 0.832698
-8716.476562 -4518.924316 -6268.745117 0.459212 -0.308145 0.833155
-8698.069336 -4441.433105 -6241.232422 0.261757 -0.833186 0.487075
-8835.421875 -4446.573242 -6167.031250 0.042940 -0.876278 0.479812
-8104.191895 -4438.699707 -6376.301758 -0.529191 -0.711142 0.462783
-8596.164062 -4443.685547 -6293.920410 0.251228 -0.829341 0.499039
-8093.631836 -4633.543945 -6225.461914 -0.931059 0.362835 0.038362
-8147.785645 -4620.498047 -6387.656738 -0.761773 0.182226 0.621662
-8168.064453 -4701.055176 -6403.415527 -0.840968 0.107730 0.530229
-8133.745605 -4728.696777 -6282.061035 -0.929868 0.340220 0.139866
-8127.768555 -4566.761230 -5984.860840 -0.745628 0.409742 -0.525468
-8187.194824 -4487.412109 -5868.256836 -0.636280 0.130772 -0.760277
-8151.469238 -4439.589844 -5905.784180 -0.512070 -0.696890 -0.502060
-9340.910156 -4455.243164 -5809.091797 0.432386 -0.826258 0.361003
-9434.867188 -4487.233398 -5733.434570 0.659383 -0.671621 0.337809
-9328.632812 -4533.786133 -5925.037598 0.615497 -0.566057 0.548357
-9419.184570 -4617.851562 -5891.976562 0.696158 -0.445418 0.562944
-8112.821777 -4677.937988 -6179.291016 -0.914304 0.390515 -0.107212
-8119.264648 -4484.076660 -6404.195801 -0.643788 -0.032991 0.764489
-8298.285156 -4665.709961 -5877.016602 -0.572497 0.372356 -0.730430
-8347.320312 -4615.889648 -5825.456543 -0.405835 0.317637 -0.856929
-8328.659180 -4476.657227 -5772.820312 -0.453230 0.192663 -0.870296
-8128.946289 -4654.361328 -6067.694824 -0.898984 0.326243 -0.292154
-8168.109375 -4799.125977 -6160.358398 -0.886410 0.422834 -0.188330
-8172.911133 -4815.320312 -6355.729004 -0.937376 0.246712 0.245796
-8259.346680 -4571.579102 -6467.614746 -0.566118 -0.081759 0.820215
-8299.593750 -4650.962402 -6525.067383 -0.509659 -0.150578 0.847072
-8331.561523 -4551.716309 -6515.936523 -0.386975 -0.161870 0.907743
-8232.304688 -4451.320801 -6453.083984 -0.435743 -0.288583 0.852535
-8175.955566 -4723.093750 -6046.521973 -0.768151 0.425245 -0.478591
-8194.151367 -4907.590820 -6305.941895 -0.730674 0.664541 0.156346
-8214.546875 -4937.887695 -6233.384277 -0.918149 0.338176 -0.206397
-8259.170898 -5030.673340 -6547.192871 -0.644185 0.636280 0.424451
-8663.044922 -5037.483398 -6602.928223 0.059725 0.964232 0.258156
-8753.903320 -4987.336914 -6592.211914 0.243934 -0.490493 0.836573
-8968.494141 -5018.917480 -6523.114258 0.223395 0.168645 0.959990
-8732.951172 -5025.080566 -6610.067871 0.260109 0.411481 0.873501
-9059.789062 -5037.272949 -6466.829102 0.224219 0.943815 0.242683
-8604.708008 -4927.948242 -6561.856934 0.312021 -0.627949 0.712943
-8506.527344 -4840.637695 -6554.006348 0.531968 -0.510453 0.675558
-8746.906250 -4787.574219 -6406.708984 0.209265 -0.610614 0.763756
-8639.774414 -5014.752930 -5827.949707 -0.378033 0.527451 -0.760826
-8543.952148 -5033.824219 -5896.489746 -0.289560 0.838954 -0.460707
-8818.632812 -5036.479980 -5762.878418 -0.241432 0.872921 -0.423872
-8363.582031 -4727.686523 -6572.054688 -0.339763 -0.270608 0.900693
-8328.784180 -4888.733398 -6568.520508 -0.599292 -0.278848 0.750359
-8393.489258 -4814.817871 -6607.059082 -0.374065 -0.289956 0.880886
-8330.877930 -4984.660156 -6615.647949 -0.650716 -0.060121 0.756920
-8415.301758 -4977.716309 -6683.979980 -0.392376 -0.285287 0.874416
-8305.636719 -4446.265137 -5785.273438 -0.454604 -0.569414 -0.684866
-9210.617188 -4466.729004 -5962.029297 0.401654 -0.769250 0.496872
-8257.257812 -4773.395996 -5974.738770 -0.692068 0.400983 -0.600177
-8259.051758 -4879.118164 -6523.519531 -0.705863 -0.187536 0.683065
-8363.416016 -5033.993652 -6631.307129 -0.418439 0.766167 0.487716
-8396.956055 -4591.053223 -5805.118164 -0.313608 0.311472 -0.897000
-9396.916992 -4438.469727 -5669.361328 0.332255 -0.933195 0.136876
-8268.047852 -5037.205078 -6222.632812 -0.509049 0.843074 -0.173284
-8503.546875 -4578.842773 -5751.943848 -0.410382 0.349315 -0.842341
-8489.297852 -4714.197266 -5794.973633 -0.382336 0.230659 -0.894742
-8291.060547 -5026.114746 -6138.815918 -0.641530 0.691641 -0.331675
-8388.420898 -4607.115234 -6542.099121 0.266152 -0.340648 0.901700
-8414.499023 -4714.566895 -6571.148926 0.325175 -0.396008 0.858730
-8403.972656 -5033.926270 -6006.640137 -0.388592 0.835566 -0.388287
-8627.263672 -4731.190918 -5734.944336 -0.424299 0.235878 -0.874233
-9541.942383 -4575.421387 -5648.068848 0.768700 -0.532060 0.354900
-8388.898438 -4785.135254 -5872.872559 -0.530656 0.350505 -0.771691
-8517.232422 -4856.330566 -5819.633789 -0.419111 0.316874 -0.850795
-8441.954102 -4938.188965 -5900.304199 -0.536027 0.425794 -0.728935
-8459.909180 -5030.714355 -6726.205566 -0.030610 0.379559 0.924619
-8642.801758 -4991.623047 -6621.040039 0.178564 -0.581713 0.793542
-8573.155273 -5017.622559 -6653.838379 0.444472 -0.345164 0.826594
-8496.049805 -4951.155273 -6658.796387 0.361888 -0.516160 0.776269
-8437.199219 -4856.713867 -6629.662598 0.260628 -0.460372 0.848567
-8533.615234 -4452.822266 -5678.213867 -0.501267 -0.312510 -0.806848
-8521.279297 -4486.705566 -5694.135742 -0.383648 0.339885 -0.858638
-8680.923828 -4630.144531 -5675.978027 -0.462050 0.334300 -0.821406
-8852.299805 -4782.388184 -5632.598145 -0.554796 0.369549 -0.745384
-8740.921875 -4595.685059 -5623.213867 -0.567186 0.460707 -0.682638
-8857.397461 -4639.504883 -5534.909180 -0.677969 0.505966 -0.533219
-8703.294922 -4485.504883 -5553.680664 -0.663991 0.426496 -0.614124
-9470.464844 -4441.281738 -5467.693359 0.432539 -0.814600 -0.386395
-8566.697266 -4826.691406 -5791.177734 -0.404096 0.271218 -0.873562
-8669.864258 -4804.967773 -5728.353516 -0.399243 0.235389 -0.886074
-8660.844727 -4879.171387 -5761.063965 -0.417768 0.340312 -0.842372
-8698.921875 -4443.443848 -5543.734375 -0.556230 -0.649373 -0.518540
-8712.044922 -4746.795898 -5701.800293 -0.417920 0.257881 -0.871090
-9549.866211 -4504.987793 -5506.357910 0.734306 -0.678762 0.000793
-8950.388672 -4811.232910 -5559.515625 -0.673940 0.455000 -0.581988
-8979.075195 -4971.211426 -5632.879883 -0.539232 0.472365 -0.697165
-8802.897461 -4888.080566 -5700.986328 -0.420148 0.308664 -0.853328
-8932.860352 -5023.349121 -5699.419434 -0.490677 0.163182 -0.855892
-8850.240234 -5007.984375 -5719.828613 -0.349803 0.476119 -0.806787
-9076.427734 -5034.974609 -5613.260254 -0.304788 0.908414 -0.286019
-8772.350586 -4867.213867 -6475.064453 0.131962 -0.667806 0.732536
-8875.351562 -4914.091797 -6489.697754 0.263283 -0.595447 0.758995
-8929.379883 -4596.008301 -5371.577637 -0.572954 0.460768 -0.677755
-8803.222656 -4494.337891 -5416.968750 -0.700003 0.509232 -0.500626
-8809.291016 -4453.510742 -5372.850586 -0.648823 -0.337352 -0.682058
-8882.324219 -4768.688965 -6360.458008 0.138188 -0.635395 0.759697
-8961.114258 -4821.569824 -6390.505859 0.086734 -0.601978 0.793756
-9037.832031 -4840.812012 -6403.745605 0.311045 -0.545274 0.778375
-9029.571289 -4986.784668 -6510.870605 0.313273 -0.420179 0.851619
-8987.791016 -4513.381836 -5305.020020 -0.029420 0.062288 -0.997620
-8957.607422 -4667.363281 -5398.378418 -0.641591 0.477737 -0.600085
-9023.880859 -4648.552246 -5341.972168 -0.273080 0.272744 -0.922483
-9002.552734 -4734.507324 -5406.429688 -0.626576 0.470382 -0.621357
-9085.241211 -4849.055176 -5408.517090 -0.606555 0.430891 -0.668111
-9162.850586 -4887.030762 -5363.289062 -0.358684 0.170995 -0.917631
-9209.253906 -4847.835938 -5340.363281 0.641469 0.696036 -0.322489
-9390.466797 -5020.781250 -5367.124023 0.222571 0.446730 -0.866512
-9246.283203 -5036.750488 -5375.280273 -0.217994 0.724998 -0.653310
-9482.525391 -5032.968750 -5411.868652 0.185430 0.696982 -0.692648
-8901.651367 -4440.808594 -5335.880371 -0.226539 -0.689840 -0.687582
-9126.087891 -4440.067383 -5371.218262 0.156255 -0.800989 -0.577899
-9191.215820 -4452.833984 -5368.435547 0.152532 -0.483352 -0.861995
-9278.437500 -4438.574707 -5424.769043 0.144078 -0.890225 -0.432112
-9068.725586 -4973.536133 -5548.062012 -0.668905 0.523911 -0.527299
-8953.900391 -4681.647461 -6283.366211 0.022065 -0.633534 0.773370
-9036.358398 -4680.757812 -6286.965332 0.270974 -0.574633 0.772210
-9220.030273 -4713.245117 -5359.719727 0.250313 -0.069277 -0.965667
-9184.043945 -4737.412109 -5338.516602 0.222297 -0.055788 -0.973357
-8993.901367 -4450.046387 -5328.977539 0.073489 -0.660176 -0.747459
-9070.873047 -4462.815430 -5337.756348 0.277383 -0.340159 -0.898495
-9021.914062 -5026.958008 -6525.277344 0.198889 0.517075 0.832484
-9112.767578 -4691.260254 -6232.766113 0.557207 -0.460768 0.690786
-9159.170898 -4803.048340 -6268.415527 0.592395 -0.451460 0.667257
-9137.957031 -4899.929199 -6353.899414 0.632221 -0.405133 0.660360
-9275.258789 -4642.847168 -5366.336426 0.223212 -0.097324 -0.969878
-9370.039062 -4621.926270 -5408.906250 0.223945 -0.084811 -0.970885
-9314.366211 -4487.090820 -5410.493652 0.200262 -0.220405 -0.954619
-9442.184570 -4600.677246 -5414.479980 0.226112 -0.080325 -0.970763
-9386.635742 -4451.708496 -5419.129395 0.180059 -0.566790 -0.803919
-9510.761719 -4566.492188 -5446.184082 0.321970 -0.168706 -0.931578
-9142.919922 -5023.257812 -5491.458496 -0.616535 0.648579 -0.446272
-9211.671875 -5015.796387 -6344.343750 0.702597 0.206977 0.680776
-9229.762695 -4534.527832 -6023.479004 0.517441 -0.604755 0.605396
-9341.981445 -5035.380859 -6181.043457 0.527177 0.709708 0.467299
-9551.194336 -4708.481445 -5448.465820 0.348338 -0.054476 -0.935759
-9695.335938 -5034.780762 -5502.866699 0.318705 0.764397 -0.560411
-9298.763672 -4970.225586 -6228.818359 0.730155 -0.219794 0.646931
-9302.853516 -4618.937500 -6026.242188 0.646168 -0.442763 0.621601
-9498.921875 -4807.319824 -5415.164062 0.279977 -0.053255 -0.958495
-9603.578125 -4590.645508 -5466.823242 0.671773 -0.379711 -0.636006
-9329.708008 -4839.249512 -5365.138672 0.205969 -0.046815 -0.977416
-9428.783203 -4822.600098 -5407.386230 0.243568 -0.058565 -0.968078
-9543.279297 -5035.584473 -5933.992676 0.490738 0.787408 0.372997
-9503.949219 -4994.422363 -6002.610352 0.782281 -0.011872 0.622791
-9502.104492 -4902.127930 -5955.785156 0.742302 -0.308237 0.594928
-9575.704102 -4919.634277 -5870.610352 0.796014 -0.276437 0.538408
-9587.236328 -4857.714844 -5458.281738 0.340098 -0.070711 -0.937712
-9655.118164 -4718.846680 -5471.861328 0.530931 -0.211554 -0.820551
-9486.671875 -4801.766113 -5925.355469 0.746239 -0.338267 0.573290
-9572.590820 -4747.832520 -5762.388672 0.802179 -0.369182 0.469253
-9639.760742 -5010.279297 -5463.695801 0.465896 0.121891 -0.876370
-9554.634766 -5017.533203 -5419.533203 0.306955 0.369091 -0.877224
-9512.932617 -4616.845215 -5760.645020 0.773492 -0.441481 0.454695
-9647.251953 -4656.077637 -5518.693359 0.889584 -0.453322 0.055818
-9665.104492 -4822.023438 -5651.354004 0.814020 -0.381329 0.438063
-9640.257812 -4914.626465 -5760.676270 0.811090 -0.306162 0.498367
-9644.266602 -5021.138672 -5807.006348 0.809992 0.221778 0.542833
-9743.762695 -4894.228516 -5518.263672 0.762291 -0.163701 -0.626148
-9702.855469 -4760.026855 -5507.858398 0.904080 -0.369030 -0.215430
-9722.695312 -4995.323242 -5682.139648 0.855373 -0.179785 0.485763
-9741.750977 -4864.525391 -5549.553711 0.924741 -0.347942 0.154180
-9792.316406 -5024.517090 -5532.953125 0.832148 0.456435 -0.314920
-9738.495117 -5029.443359 -5656.549805 0.658437 0.691855 0.296213
3 0 1 2
3 3 4 5
3 3 5 6
3 7 8 9
3 8 7 10
3 11 10 12
3 12 13 14
3 15 16 17
3 18 19 20
3 21 22 18
3 23 21 18
3 23 18 20
3 24 25 26
3 24 26 27
3 28 29 30
3 31 30 32
3 33 34 35
3 36 37 25
3 38 39 40
3 38 40 35
3 22 15 41
3 41 15 17
3 16 15 42
3 42 39 38
3 18 22 19
3 20 19 43
3 44 45 46
3 22 41 19
3 21 47 48
3 21 49 15
3 50 51 52
3 52 51 53
3 47 23 54
3 54 23 43
3 21 15 22
3 23 20 43
3 44 19 55
3 41 55 19
3 49 21 48
3 21 23 47
3 54 43 46
3 43 19 46
3 46 19 44
3 48 56 57
3 57 58 48
3 48 58 49
3 47 54 59
3 54 46 60
3 60 46 61
3 44 55 62
3 44 62 63
3 63 62 64
3 45 61 46
3 55 41 65
3 47 59 66
3 67 60 61
3 68 67 4
3 59 54 60
3 3 6 69
3 3 69 70
3 71 72 73
3 73 72 74
3 75 76 9
3 9 8 77
3 47 66 56
3 68 4 3
3 66 59 60
3 61 45 5
3 78 79 80
3 2 60 67
3 2 67 68
3 67 61 4
3 45 44 63
3 5 81 82
3 82 81 83
3 82 83 84
3 84 83 85
3 55 65 62
3 45 63 5
3 86 49 58
3 87 26 50
3 48 47 56
3 66 88 56
3 56 88 1
3 88 66 2
3 2 66 60
3 6 89 69
3 69 84 90
3 61 5 4
3 91 58 57
3 26 25 92
3 26 92 50
3 0 2 68
3 0 68 93
3 68 3 93
3 65 41 17
3 13 16 14
3 14 38 35
3 5 89 6
3 70 69 90
3 94 91 95
3 88 2 1
3 96 0 93
3 65 17 64
3 10 97 12
3 81 63 98
3 89 5 82
3 49 86 15
3 91 57 95
3 0 96 99
3 93 3 70
3 17 12 97
3 65 64 62
3 5 63 81
3 89 82 84
3 69 89 84
3 58 91 94
3 94 95 100
3 51 92 101
3 56 102 57
3 102 56 1
3 1 0 99
3 57 103 95
3 1 99 104
3 96 93 99
3 63 64 97
3 74 70 73
3 90 84 85
3 90 85 105
3 106 107 75
3 17 97 64
3 63 97 98
3 70 90 105
3 108 85 109
3 108 75 107
3 57 102 103
3 17 13 12
3 81 98 83
3 15 86 110
3 110 86 58
3 103 104 79
3 103 79 78
3 102 1 104
3 17 16 13
3 97 10 98
3 98 10 7
3 83 98 109
3 85 83 109
3 110 58 111
3 112 113 114
3 114 115 116
3 25 117 92
3 104 99 79
3 12 14 11
3 109 98 76
3 85 108 105
3 105 107 70
3 118 103 78
3 95 103 118
3 102 104 103
3 98 7 76
3 94 111 58
3 100 95 118
3 76 7 9
3 108 109 76
3 105 108 107
3 79 93 70
3 79 99 93
3 10 11 8
3 110 111 112
3 110 112 114
3 76 75 108
3 111 94 112
3 100 118 119
3 119 118 120
3 116 110 114
3 110 121 15
3 16 42 14
3 121 110 116
3 112 94 100
3 80 79 70
3 14 42 38
3 107 106 73
3 70 107 73
3 112 100 122
3 120 118 78
3 11 14 34
3 75 9 71
3 92 123 101
3 124 113 125
3 100 119 122
3 122 119 126
3 127 126 128
3 127 80 129
3 126 119 120
3 126 120 128
3 15 39 42
3 71 130 131
3 15 121 25
3 92 117 123
3 120 78 80
3 34 77 11
3 11 77 8
3 75 71 106
3 73 106 71
3 132 133 115
3 121 116 133
3 14 35 34
3 134 121 133
3 112 122 113
3 77 130 9
3 9 130 71
3 133 116 115
3 113 122 126
3 128 120 80
3 130 34 135
3 77 34 130
3 136 137 72
3 72 137 138
3 127 128 80
3 15 40 39
3 139 134 132
3 140 141 132
3 140 142 141
3 143 144 145
3 146 147 148
3 121 134 149
3 149 150 25
3 150 151 152
3 121 149 25
3 115 114 113
3 115 113 124
3 142 124 153
3 113 126 125
3 130 135 131
3 40 33 35
3 136 154 155
3 154 135 34
3 149 134 139
3 139 132 141
3 156 157 145
3 150 149 158
3 150 158 159
3 134 133 132
3 126 127 125
3 15 25 40
3 36 24 27
3 34 33 154
3 132 115 140
3 40 25 37
3 40 37 33
3 71 131 72
3 124 140 115
3 135 136 131
3 131 136 72
3 158 149 139
3 140 124 142
3 129 80 70
3 33 37 36
3 33 36 155
3 154 33 155
3 158 139 159
3 153 124 125
3 36 25 24
3 135 154 136
3 137 136 155
3 125 127 129
3 138 160 72
3 72 160 74
3 139 141 159
3 159 141 157
3 142 153 143
3 125 129 153
3 150 159 156
3 141 142 143
3 150 152 25
3 155 27 161
3 28 162 29
3 155 36 27
3 137 155 162
3 138 137 163
3 164 165 166
3 166 167 168
3 168 167 169
3 141 143 145
3 153 170 143
3 170 153 129
3 160 138 171
3 160 171 74
3 159 157 156
3 150 156 164
3 27 26 172
3 27 29 161
3 74 171 173
3 161 162 155
3 162 163 137
3 141 145 157
3 151 150 164
3 143 147 144
3 129 70 147
3 167 174 169
3 147 143 170
3 170 129 147
3 175 147 70
3 26 87 172
3 163 162 28
3 163 28 176
3 138 163 176
3 176 171 138
3 29 172 177
3 161 29 162
3 165 178 167
3 169 174 179
3 156 144 180
3 152 151 166
3 166 151 164
3 27 172 29
3 181 180 148
3 156 180 164
3 165 164 181
3 165 181 178
3 145 144 156
3 175 70 182
3 70 173 182
3 183 184 185
3 184 32 30
3 30 31 28
3 31 32 176
3 32 173 176
3 70 74 173
3 168 169 117
3 87 50 52
3 172 87 52
3 176 28 31
3 144 147 146
3 144 146 180
3 172 52 177
3 177 30 29
3 173 171 176
3 164 180 181
3 166 165 167
3 178 186 174
3 179 186 187
3 168 152 166
3 185 188 189
3 167 178 174
3 174 186 179
3 186 190 187
3 25 152 117
3 30 52 53
3 177 52 30
3 152 168 117
3 92 51 50
3 184 188 185
3 180 146 148
3 30 53 188
3 181 148 178
3 178 148 191
3 178 191 190
3 178 190 186
3 192 53 51
3 32 183 173
3 179 193 123
3 148 175 191
3 148 147 175
3 51 101 192
3 188 184 30
3 32 184 183
3 173 183 182
3 117 169 179
3 123 117 179
3 53 192 189
3 53 189 188
3 192 101 189
3 179 187 193
3 193 194 189
3 101 123 193
3 101 193 189
3 191 175 190
3 189 195 185
3 185 196 183
3 183 196 182
3 190 175 197
3 187 197 198
3 189 194 195
3 195 196 185
3 194 193 198
3 196 195 199
3 198 197 200
3 187 190 197
3 197 201 200
3 187 198 193
3 199 202 196
3 196 202 182
3 194 199 195
3 197 175 201
3 201 199 200
3 201 175 182
3 201 182 202
3 198 200 194
3 194 200 199
3 202 199 201
