ply
format ascii 1.0
comment Created by Blender 2.80 (sub 75) - www.blender.org, source file: 'color_and_decimate.blend'
element vertex 297
property float x
property float y
property float z
property float nx
property float ny
property float nz
element face 590
property list uchar uint vertex_indices
end_header
-8976.731445 -5042.494629 -3808.221436 -0.630085 -0.727378 -0.271737
-8959.075195 -5094.115723 -3817.693604 -0.993072 0.092502 -0.072268
-9001.420898 -5161.712891 -3734.469727 -0.867977 -0.093997 -0.487594
-9202.908203 -5221.302734 -4359.562012 -0.904996 0.402936 0.136265
-9222.948242 -5264.510254 -4402.110840 -0.921262 0.379315 0.085940
-9207.087891 -5307.776855 -4223.250488 -0.917020 0.330210 0.223609
-9106.059570 -5384.966797 -3773.933594 -0.888546 0.342051 0.305673
-9066.079102 -5520.807129 -3584.287598 -0.915128 0.301309 0.267769
-9058.091797 -5289.958984 -3774.001709 -0.846767 0.432417 0.309793
-9071.905273 -5239.867188 -3650.649170 -0.570574 -0.321238 -0.755791
-9016.268555 -5316.769043 -3667.358398 -0.976318 0.137883 -0.166631
-9045.857422 -5363.076660 -3614.192871 -0.684378 -0.244758 -0.686758
-9120.385742 -5054.510742 -3697.653809 -0.513169 -0.452132 -0.729514
-9224.853516 -5145.571777 -3583.651611 -0.539354 -0.350261 -0.765740
-9259.628906 -5043.040527 -3609.605225 -0.320200 -0.828272 -0.459761
-9003.832031 -5165.378906 -3811.833252 -0.865169 0.457045 0.206244
-9042.863281 -5155.854980 -3932.425537 -0.851405 0.444288 0.278664
-9141.741211 -5343.028320 -3950.189209 -0.874783 0.418287 0.244392
-9067.477539 -5258.978027 -3922.745361 -0.879299 0.392712 0.269387
-9134.765625 -5296.110352 -4013.220215 -0.874874 0.391675 0.284890
-10274.026367 -5037.542969 -3768.339355 0.494705 -0.867763 -0.046632
-8996.591797 -5040.936523 -3947.770264 -0.679525 -0.711142 0.180151
-9076.041992 -5040.860352 -4172.483887 -0.538194 -0.820551 0.192297
-9040.865234 -5050.332031 -4089.150391 -0.932340 -0.054201 0.357402
-9168.535156 -5395.413086 -4015.174072 -0.885128 0.373791 0.277078
-9021.399414 -5080.098145 -4037.007080 -0.875118 0.297555 0.381573
-9187.874023 -5514.025879 -3924.333252 -0.899441 0.347423 0.265084
-9227.823242 -5536.592773 -4028.254883 -0.904416 0.337962 0.260353
-9251.566406 -5631.381348 -3943.553467 -0.516495 0.844691 0.140263
-9205.698242 -5426.386230 -4055.372559 -0.868068 0.375866 0.324259
-9169.274414 -5592.537598 -3781.098145 -0.897641 0.395703 0.193915
-9156.659180 -5501.931152 -3812.979492 -0.907041 0.313211 0.281259
-9217.533203 -5633.208496 -3829.285889 -0.464553 0.866390 0.183020
-9121.231445 -5417.841309 -3817.415771 -0.922819 0.265419 0.279153
-9084.814453 -5151.537598 -4047.621094 -0.844417 0.437208 0.309427
-9120.065430 -5217.819824 -4088.503906 -0.886441 0.390759 0.248024
-9099.969727 -5124.958496 -4151.693359 -0.869930 0.440779 0.221076
-9146.320312 -5199.344727 -4195.510742 -0.894192 0.385907 0.226814
-9242.037109 -5450.903809 -4148.408203 -0.934874 0.271401 0.228706
-9217.749023 -5372.952637 -4229.522461 -0.928251 0.351238 0.122166
-9169.578125 -5457.285156 -3487.831787 -0.549394 -0.328379 -0.768303
-9048.050781 -5420.874512 -3596.756592 -0.944060 -0.004913 -0.329722
-9071.985352 -5577.073242 -3505.350098 -0.877041 -0.023591 -0.479781
-9178.625977 -5595.108887 -3423.084717 -0.608631 -0.005249 -0.793390
-9251.414062 -5633.522461 -3378.299561 -0.382977 0.761956 -0.522202
-9356.847656 -5601.828613 -3293.904785 -0.576556 -0.047731 -0.815638
-9424.446289 -5637.314941 -4787.599609 -0.270333 0.802026 0.532548
-10446.431641 -5637.482422 -3814.355469 0.223182 0.974395 -0.027100
-9375.286133 -5635.729980 -4333.142090 -0.385662 0.921049 0.053774
-10462.130859 -5625.027832 -4702.025879 0.838771 0.509232 0.192602
-10413.375000 -5637.362305 -4817.392578 0.352611 0.928617 0.115268
-10401.767578 -5619.900391 -4915.102539 0.852504 0.338939 0.397900
-10339.181641 -5450.696777 -4910.966797 0.855617 -0.374828 0.356853
-10250.273438 -5276.056641 -4904.928711 0.805109 -0.459029 0.375561
-10287.959961 -5284.308105 -4817.869141 0.834223 -0.457595 0.307657
-10460.301758 -5476.078613 -4520.876465 0.939604 -0.326151 0.103671
-10459.851562 -5431.291016 -4388.097656 0.964904 -0.258827 0.044221
-10458.354492 -5430.500488 -4065.463623 0.965026 -0.260506 -0.028809
-10459.155273 -5481.706055 -3926.643066 0.972106 -0.220099 -0.080935
-10495.472656 -5632.034668 -4036.349854 0.722251 0.688223 -0.068331
-10465.129883 -5628.460449 -3820.586914 0.863155 0.496841 -0.089816
-9112.882812 -5623.699219 -3573.998535 -0.752251 0.522050 0.401929
-9170.104492 -5635.577637 -3655.040771 -0.406293 0.894162 0.187994
-9082.228516 -5634.458984 -3502.835449 -0.694052 0.672628 -0.256539
-9342.746094 -5488.291992 -3352.746582 -0.542039 -0.331919 -0.771996
-9094.459961 -5072.611328 -4255.496582 -0.961821 0.114750 0.248360
-10346.597656 -5637.409180 -3243.262207 0.389111 0.911222 -0.135105
-9511.839844 -5452.932129 -3250.466309 -0.535661 -0.337779 -0.773919
-9245.510742 -5261.894043 -3517.958984 -0.540880 -0.333171 -0.772271
-9130.849609 -5037.747559 -4341.343750 -0.524308 -0.848445 0.071963
-9168.734375 -5284.245605 -4157.499023 -0.879086 0.385113 0.280801
-9115.524414 -5084.522461 -4361.090332 -0.961119 0.191595 0.198675
-9158.118164 -5175.118164 -4289.183105 -0.853908 0.468123 0.227271
-9121.521484 -5055.550293 -4419.912109 -0.984649 -0.155400 0.079104
-9122.751953 -5058.687988 -4620.120605 -0.953734 -0.296945 -0.046754
-9116.655273 -5098.490723 -4745.687988 -0.839167 0.249214 0.483383
-9157.887695 -5129.448730 -4652.074707 -0.878262 0.465712 -0.108310
-9206.948242 -5226.627930 -4634.258789 -0.913358 0.395917 -0.094821
-9114.150391 -5046.427734 -4741.069336 -0.682089 -0.581469 0.443403
-9161.891602 -5171.691895 -4751.448242 -0.699484 0.394055 0.596149
-9180.963867 -5090.083008 -4767.989746 -0.320048 -0.142460 0.936613
-9274.470703 -5271.688477 -4767.061523 -0.486618 0.197668 0.850917
-9259.696289 -5169.702148 -4797.259277 -0.443953 0.169805 0.879788
-9335.879883 -5302.654785 -4808.333496 -0.368511 0.123753 0.921323
-9374.290039 -5401.426758 -4812.906250 -0.437361 0.107669 0.892788
-9423.457031 -5257.815430 -4816.348145 -0.254830 0.042055 0.966063
-9435.908203 -5356.613770 -4838.155762 -0.277627 -0.016694 0.960509
-9934.404297 -5632.473633 -4875.658691 -0.164495 0.808649 0.564776
-9858.631836 -5558.891113 -4887.743652 -0.201331 0.236610 0.950499
-9960.569336 -5538.012207 -4908.092773 -0.178350 0.126316 0.975799
-10286.764648 -5453.174316 -5004.394531 0.324503 -0.159215 0.932371
-10205.253906 -5480.511719 -4970.496094 -0.286233 0.140233 0.947813
-10233.820312 -5340.598633 -5004.435547 0.322214 -0.198492 0.925596
-10162.253906 -5336.469727 -4976.794434 -0.277108 0.109745 0.954527
-9532.625000 -5626.602051 -3177.046143 -0.495132 0.490555 -0.717032
-9615.376953 -5637.396973 -3139.852051 -0.153081 0.965758 -0.209449
-9164.977539 -5142.868652 -4380.141602 -0.856471 0.495804 0.143468
-9161.697266 -5037.563477 -4733.898926 -0.133854 -0.909421 0.393719
-9491.363281 -5494.079102 -4827.173340 -0.144383 0.046724 0.988403
-9677.962891 -5612.021484 -4861.501953 -0.133427 0.446791 0.884610
-9623.583008 -5634.128906 -4824.834473 -0.143010 0.842952 0.518601
-10301.597656 -5085.937500 -3723.053467 0.893063 -0.439833 -0.094699
-10235.467773 -5039.142578 -3555.649170 0.505997 -0.852016 -0.134068
-10296.381836 -5102.460449 -3632.007080 0.881375 -0.429121 -0.197455
-10318.855469 -5159.523926 -3671.839600 0.927274 -0.353984 -0.121708
-10318.207031 -5106.641602 -3900.314453 0.929136 -0.362743 -0.071230
-9192.643555 -5242.401855 -4743.764160 -0.795282 0.347575 0.496628
-9294.506836 -5090.154297 -4812.293457 -0.231422 -0.254219 0.939024
-9393.955078 -5099.422363 -4822.069824 -0.181402 -0.137120 0.973785
-9395.888672 -5152.839355 -4825.113281 -0.187201 0.042634 0.981384
-9293.323242 -5348.244629 -3448.383057 -0.540971 -0.330973 -0.773156
-9303.374023 -5476.902344 -4604.996582 -0.944243 0.321726 -0.069704
-9333.439453 -5589.704102 -4623.236816 -0.883267 0.461592 -0.081973
-9321.324219 -5522.088379 -4487.375488 -0.965056 0.261666 0.012726
-9326.429688 -5576.322754 -4328.218750 -0.895962 0.426588 0.123447
-9291.567383 -5448.825684 -4397.373535 -0.938444 0.333323 0.090396
-9307.588867 -5532.965332 -4271.083008 -0.912961 0.366802 0.178716
-9692.634766 -5595.906250 -3061.181885 -0.566240 -0.095767 -0.818628
-9829.383789 -5632.395508 -2975.422363 -0.448408 0.625385 -0.638569
-9255.027344 -5364.828613 -4338.123047 -0.900967 0.382244 0.205206
-9269.241211 -5372.833984 -4510.179199 -0.949583 0.313334 -0.007538
-9249.918945 -5308.856445 -4506.713379 -0.928739 0.370678 -0.002838
-9261.583008 -5371.429199 -4591.516602 -0.934202 0.344523 -0.092380
-9219.060547 -5312.984863 -4742.709473 -0.819971 0.331065 0.466872
-9259.323242 -5354.714355 -4691.849609 -0.887722 0.459181 -0.032197
-9262.467773 -5406.077148 -4756.916992 -0.737785 0.213782 0.640248
-9265.345703 -5445.785156 -4717.664551 -0.938963 0.343974 -0.003296
-9329.314453 -5424.550781 -4769.854492 -0.482406 0.149266 0.863094
-9307.205078 -5527.525879 -4741.798828 -0.853816 0.230445 0.466750
-9319.482422 -5636.153809 -4090.757812 -0.139500 0.989349 0.040895
-9272.245117 -5624.126465 -4048.934570 -0.675863 0.703940 0.218238
-9269.970703 -5472.277832 -4262.626953 -0.903653 0.363750 0.225898
-9396.083008 -5207.193359 -3436.400879 -0.534318 -0.336619 -0.775353
-9414.578125 -5039.265625 -3515.796875 -0.270943 -0.891110 -0.363933
-9323.561523 -5633.687500 -4142.102539 -0.448988 0.877804 0.166845
-9319.768555 -5603.799805 -4259.695801 -0.871181 0.468490 0.146641
-10245.104492 -5178.110840 -4769.451660 0.826533 -0.480789 0.292673
-10171.140625 -5101.192383 -4843.857910 0.784204 -0.528306 0.325388
-10191.809570 -5056.278320 -4709.958496 0.724906 -0.638691 0.257973
-9371.616211 -5039.800781 -4797.498047 -0.114628 -0.835078 0.538011
-9385.514648 -5092.476074 -3493.611084 -0.516434 -0.429670 -0.740684
-9371.750977 -5634.132324 -4610.115234 -0.439314 0.897916 -0.026948
-9318.512695 -5595.598145 -4741.223145 -0.836543 0.401837 0.372387
-9386.930664 -5525.595215 -4806.196777 -0.438215 0.128117 0.889676
-9544.061523 -5118.995605 -4849.240234 -0.133213 0.011597 0.990997
-9723.502930 -5474.434082 -4863.729492 -0.112400 0.022767 0.993378
-9810.327148 -5582.820312 -4865.703613 -0.112857 0.271615 0.955748
-9949.321289 -5454.827148 -2943.639160 -0.540056 -0.335154 -0.771996
-9821.381836 -5544.270508 -2996.233154 -0.538408 -0.348277 -0.767327
-9962.757812 -5597.330078 -2872.194580 -0.566607 -0.055635 -0.822077
-9351.900391 -5635.223633 -4739.791504 -0.492141 0.825556 0.276040
-9705.676758 -5041.315918 -4861.159180 -0.105930 -0.748894 0.654134
-10084.979492 -5039.084961 -4941.184082 0.256081 -0.847652 0.464614
-10132.619141 -5040.646484 -4817.716309 0.437635 -0.883175 0.168615
-9446.083008 -5357.193359 -3336.400879 -0.534227 -0.335795 -0.775750
-9486.599609 -5603.496582 -4831.500488 -0.155950 0.317637 0.935270
-9479.195312 -5055.211914 -4844.478027 -0.176305 -0.443617 0.878689
-9828.069336 -5428.937500 -4892.774414 -0.223609 0.062655 0.972655
-9731.996094 -5212.196777 -4888.122559 -0.243812 -0.074221 0.966948
-9784.496094 -5195.706543 -4889.834961 -0.236457 -0.036134 0.970946
-9523.716797 -5056.052734 -3414.356934 -0.468215 -0.575182 -0.670736
-9583.323242 -5212.777344 -4857.009277 -0.123295 -0.018921 0.992157
-9578.833984 -5440.460938 -4838.499512 -0.264565 0.127781 0.955840
-9512.125977 -5307.095703 -4844.734863 -0.186560 -0.047761 0.981262
-9504.814453 -5588.696289 -3193.736328 -0.558641 -0.162450 -0.813318
-9511.741211 -5188.997559 -3366.265381 -0.535569 -0.334452 -0.775414
-9553.567383 -5290.158203 -3293.436523 -0.537522 -0.337931 -0.772546
-9644.052734 -5380.088379 -3189.152344 -0.536241 -0.333934 -0.775170
-9659.309570 -5039.089844 -3344.816895 -0.264016 -0.887936 -0.376629
-10465.267578 -5546.243164 -3938.869385 0.960265 -0.252754 -0.118107
-10486.012695 -5593.514160 -3923.147217 0.960631 -0.178777 -0.212561
-10468.802734 -5502.786621 -4081.084961 0.924802 -0.378063 -0.042329
-10483.469727 -5589.589355 -4607.076660 0.983673 -0.092074 0.154515
-10511.278320 -5594.708984 -4440.857422 0.997406 -0.050356 0.051027
-10510.595703 -5584.764648 -4135.644531 0.994446 -0.100070 -0.031983
-10495.641602 -5634.569824 -4517.257812 0.699728 0.706412 0.106357
-9597.804688 -5371.289551 -4862.020996 -0.138249 0.069247 0.987945
-9605.746094 -5524.813477 -3155.754639 -0.530839 -0.348766 -0.772362
-10135.187500 -5138.001465 -4972.930176 0.445021 -0.285348 0.848811
-9693.300781 -5191.101074 -3237.019287 -0.540391 -0.330790 -0.773614
-9604.236328 -5051.806152 -4857.579590 -0.098209 -0.345744 0.933164
-9698.042969 -5155.308105 -4865.416992 -0.183538 -0.061373 0.981079
-9839.561523 -5229.374023 -4911.521484 -0.279061 0.105045 0.954497
-9896.619141 -5334.812500 -4910.664551 -0.180151 0.028596 0.983215
-9636.083008 -5090.441895 -3319.795654 -0.518662 -0.425459 -0.741569
-9680.566406 -5280.447754 -4865.448730 -0.115665 0.047731 0.992126
-9747.925781 -5340.057617 -4863.944824 -0.284829 0.110935 0.952116
-9837.191406 -5042.235352 -4887.188477 -0.113224 -0.851741 0.511521
-9773.716797 -5056.052734 -3239.356934 -0.475417 -0.558977 -0.679312
-9895.008789 -5040.342285 -3174.425049 -0.283151 -0.859798 -0.424909
-9961.320312 -5281.725586 -4914.099609 -0.214972 -0.004639 0.976592
-10068.166992 -5376.773926 -4954.822266 -0.268014 0.099796 0.958220
-10043.964844 -5482.029297 -4924.302246 -0.235817 0.158177 0.958831
-9771.455078 -5479.308594 -3059.699219 -0.538560 -0.338847 -0.771416
-9742.027344 -5316.563965 -3151.526611 -0.534776 -0.332347 -0.776849
-9778.567383 -5390.158203 -3093.436523 -0.537706 -0.337840 -0.772454
-9808.108398 -5206.671387 -3149.416748 -0.540452 -0.330851 -0.773553
-9933.093750 -5327.509766 -3011.275391 -0.543107 -0.335215 -0.769799
-9875.138672 -5105.040039 -3147.927246 -0.519395 -0.384442 -0.763146
-10082.970703 -5098.534180 -3033.732422 0.434065 -0.591571 -0.679403
-10042.379883 -5169.504395 -3001.867920 -0.397870 -0.421735 -0.814722
-10105.442383 -5332.592285 -2888.121094 -0.092654 -0.486984 -0.868465
-10145.625977 -5359.316406 -2890.513428 0.692618 -0.462966 -0.553087
-10186.442383 -5551.800293 -2807.509766 0.844752 -0.320292 -0.428694
-10188.796875 -5262.240723 -3101.845703 0.878780 -0.354595 -0.319315
-10253.547852 -5226.381836 -3293.700439 0.885952 -0.387463 -0.254769
-10215.956055 -5237.643066 -3204.553711 0.848170 -0.393384 -0.354717
-10216.345703 -5616.299316 -2830.359619 0.865200 0.263710 -0.426435
-10267.819336 -5550.556152 -3019.915283 0.924131 -0.215552 -0.315378
-9869.339844 -5633.898926 -4847.610352 -0.104221 0.881466 0.460585
-9846.879883 -5081.570312 -4908.540039 -0.244362 -0.182684 0.952300
-10319.149414 -5221.413574 -3549.644775 0.906430 -0.373608 -0.196875
-10358.723633 -5251.062500 -3640.591797 0.945585 -0.295236 -0.136601
-10357.784180 -5213.704590 -3797.353760 0.947783 -0.311716 -0.067110
-10266.646484 -5629.685547 -2986.148926 0.721824 0.643727 -0.254067
-10315.899414 -5616.280273 -3099.844238 0.920103 0.167516 -0.353984
-9977.964844 -5044.995117 -4931.026367 -0.183660 -0.739189 0.647908
-9938.056641 -5154.328125 -4929.655273 -0.248207 0.066958 0.966369
-10034.060547 -5223.145020 -4945.396973 -0.298898 0.060488 0.952330
-10106.415039 -5254.832520 -4971.164551 -0.295755 0.008545 0.955199
-9890.379883 -5486.635742 -4889.449219 -0.380566 0.368145 0.848292
-9938.177734 -5220.891113 -3055.007324 -0.538347 -0.343059 -0.769707
-10302.652344 -5477.491699 -3175.111328 0.895260 -0.303354 -0.326243
-10144.413086 -5454.756348 -2813.169189 0.191778 -0.480605 -0.855678
-10164.966797 -5617.421875 -2731.093018 0.255501 0.268044 -0.928892
-10233.385742 -5635.336914 -2891.769775 0.674734 0.710166 -0.200873
-10140.461914 -5634.226562 -2759.919189 -0.141942 0.869503 -0.473067
-10031.835938 -5043.053223 -3070.281982 -0.061068 -0.815729 -0.575182
-10098.901367 -5040.584961 -3163.895508 0.448927 -0.867916 -0.212470
-10145.403320 -5040.736816 -3275.687012 0.513962 -0.834468 -0.198645
-10166.190430 -5154.236816 -3164.614502 0.824122 -0.427351 -0.371685
-10205.142578 -5116.341797 -3321.414795 0.836116 -0.439680 -0.327921
-10409.711914 -5635.041504 -3475.362793 0.608600 0.785943 -0.108829
-10408.046875 -5615.660645 -3371.355713 0.925840 0.279855 -0.253914
-10189.396484 -5259.509766 -4996.276367 0.295511 -0.263039 0.918393
-10098.894531 -5632.021973 -4908.855957 -0.150609 0.795038 0.587512
-10409.582031 -5504.705566 -4787.750977 0.866207 -0.401685 0.297128
-10362.214844 -5584.840332 -4977.947266 0.684255 -0.013855 0.729087
-10362.769531 -5454.769043 -4838.803223 0.862056 -0.396039 0.316141
-10186.961914 -5621.400391 -4944.537109 -0.240028 0.507950 0.827235
-9998.523438 -5613.722168 -4907.544434 -0.162908 0.367382 0.915677
-10011.374023 -5100.732422 -4961.225098 -0.507492 -0.019623 0.861415
-10042.039062 -5491.287598 -2865.398193 -0.523850 -0.333262 -0.783898
-10422.354492 -5595.033203 -3482.195557 0.985565 0.013215 -0.168706
-10271.299805 -5257.875977 -3328.219238 0.890988 -0.354930 -0.283090
-10305.922852 -5357.943359 -3305.366943 0.885311 -0.339457 -0.317698
-10337.209961 -5402.794922 -3359.844971 0.916471 -0.288461 -0.277200
-10351.780273 -5536.807617 -3264.972900 0.936674 -0.255806 -0.239113
-10364.722656 -5618.811035 -3245.762207 0.923856 0.241951 -0.296426
-10091.894531 -5084.787598 -4983.055176 0.181066 -0.321879 0.929289
-10150.353516 -5224.157227 -3037.621582 0.851497 -0.407422 -0.329997
-10454.502930 -5624.276855 -3612.102783 0.888119 0.436323 -0.144353
-10423.447266 -5525.834473 -3609.410645 0.966338 -0.211676 -0.146153
-10254.051758 -5114.266113 -3452.963379 0.848476 -0.459120 -0.263161
-10302.280273 -5189.236816 -3493.896973 0.912870 -0.368694 -0.175207
-10356.616211 -5372.615234 -3441.883545 0.903592 -0.326609 -0.277139
-10367.932617 -5299.979492 -3693.981934 0.949767 -0.294900 -0.104587
-10375.661133 -5418.729004 -3475.786377 0.924833 -0.302499 -0.230537
-10420.820312 -5448.945801 -3746.992920 0.959716 -0.268075 -0.084017
-10457.115234 -5538.714844 -3752.732178 0.974273 -0.201788 -0.100192
-10420.906250 -5400.063965 -3866.673828 0.958922 -0.271493 -0.082186
-10219.874023 -5041.469727 -4582.066406 0.472365 -0.870388 0.138676
-10350.453125 -5634.915039 -4966.956055 0.266396 0.757866 0.595477
-10191.024414 -5050.188965 -3387.098633 0.767296 -0.584399 -0.264046
-10260.369141 -5038.890137 -4384.012695 0.387249 -0.919218 0.071017
-10287.041016 -5141.551758 -4581.483398 0.848048 -0.482345 0.219398
-10298.380859 -5044.193359 -4212.781738 0.662893 -0.748436 0.019501
-10259.508789 -5054.565918 -4476.349121 0.754631 -0.634053 0.168615
-10309.124023 -5140.682617 -4459.055664 0.860866 -0.471023 0.192389
-10329.806641 -5242.133789 -4619.077148 0.857234 -0.457717 0.235786
-10311.568359 -5090.884277 -4339.426758 0.846797 -0.518693 0.117618
-10314.873047 -5569.652344 -4997.295898 0.034822 0.193152 0.980529
-10368.589844 -5205.062012 -4057.625488 0.929472 -0.365368 -0.050417
-10409.089844 -5282.470703 -4034.516846 0.947600 -0.314280 -0.056734
-10364.657227 -5190.937012 -4235.596680 0.897153 -0.440687 0.029786
-10416.530273 -5348.026855 -4386.262207 0.948943 -0.309427 0.060823
-10304.649414 -5052.042480 -3908.354980 0.803827 -0.592486 -0.052522
-10367.221680 -5244.200684 -3881.360352 0.945006 -0.317667 -0.077486
-10406.069336 -5319.515137 -3920.569824 0.950957 -0.298074 -0.082583
-10354.109375 -5144.358398 -4094.341553 0.251015 -0.936705 0.243934
-10418.584961 -5357.439453 -4021.246094 0.956175 -0.288247 -0.051180
-10410.296875 -5288.725586 -4301.758301 0.944029 -0.323801 0.062502
-10357.239258 -5185.979492 -4367.274902 0.927488 -0.358745 0.104984
-10350.084961 -5351.151367 -4753.863281 0.858058 -0.421461 0.293374
-10467.031250 -5503.555176 -4450.560547 0.949553 -0.311930 0.032258
-10396.738281 -5411.660645 -4681.572754 0.900449 -0.368542 0.230934
-10421.878906 -5486.586914 -4679.229492 0.897183 -0.390851 0.205573
-10459.662109 -5582.487793 -4739.051758 0.955443 -0.144749 0.257179
-10363.199219 -5250.397461 -4499.515625 0.872005 -0.458357 0.171636
-10409.227539 -5380.087891 -4582.692871 0.903806 -0.385174 0.186316
-10408.740234 -5348.562988 -3799.881836 0.947020 -0.309427 -0.086032
-10368.802734 -5240.199707 -4358.084961 0.915983 -0.389325 0.096713
-10418.930664 -5395.104980 -4496.574707 0.922788 -0.371410 0.102420
-10406.015625 -5313.926758 -4441.725098 0.927213 -0.361187 0.098788
-10408.371094 -5485.167969 -3507.027100 0.951598 -0.241554 -0.189978
-10407.422852 -5390.950195 -3648.959473 0.934477 -0.325510 -0.144047
-10420.508789 -5463.889160 -3663.227295 0.973144 -0.205176 -0.104312
3 0 1 2
3 3 4 5
3 6 7 8
3 9 10 11
3 12 13 14
3 15 16 8
3 17 18 19
3 0 20 21
3 21 22 23
3 15 1 16
3 0 21 1
3 17 19 24
3 0 2 12
3 0 12 14
3 2 1 15
3 21 25 1
3 1 25 16
3 26 27 28
3 26 29 27
3 2 10 9
3 10 2 15
3 30 31 26
3 30 26 32
3 10 15 8
3 8 18 6
3 6 17 33
3 34 25 23
3 16 25 34
3 35 36 37
3 38 5 39
3 21 23 25
3 40 41 42
3 42 43 40
3 43 44 45
3 46 47 48
3 49 50 51
3 52 53 54
3 55 56 57
3 55 57 58
3 59 60 47
3 11 10 41
3 61 6 33
3 41 8 7
3 10 8 41
3 18 34 19
3 31 62 61
3 42 7 63
3 42 41 7
3 63 7 61
3 43 45 64
3 0 14 20
3 21 20 22
3 8 16 18
3 18 16 34
3 19 34 35
3 34 23 36
3 36 23 65
3 23 22 65
3 42 63 44
3 63 66 44
3 64 45 67
3 63 61 62
3 63 62 66
3 40 11 41
3 9 11 68
3 13 9 68
3 6 61 7
3 9 12 2
3 18 17 6
3 65 22 69
3 42 44 43
3 12 9 13
3 61 33 31
3 33 17 31
3 19 70 24
3 27 29 38
3 34 36 35
3 36 65 37
3 65 71 72
3 37 65 72
3 65 69 71
3 69 73 71
3 74 75 76
3 74 76 73
3 77 4 3
3 74 78 75
3 76 75 79
3 75 78 80
3 75 80 79
3 81 82 83
3 84 85 86
3 87 88 89
3 90 91 92
3 92 91 93
3 94 44 95
3 62 31 30
3 31 17 26
3 19 37 70
3 35 37 19
3 71 96 72
3 71 73 96
3 73 69 97
3 73 97 74
3 74 97 78
3 81 80 82
3 83 85 84
3 98 99 100
3 68 11 40
3 101 102 103
3 101 104 105
3 22 20 69
3 62 30 32
3 32 26 28
3 26 17 24
3 26 24 29
3 24 70 29
3 70 37 72
3 70 72 5
3 3 72 96
3 96 73 76
3 3 96 77
3 96 76 77
3 79 106 76
3 76 106 77
3 80 97 107
3 107 108 109
3 78 97 80
3 110 68 40
3 44 66 95
3 70 38 29
3 70 5 38
3 72 3 5
3 106 79 80
3 111 112 113
3 113 114 115
3 115 114 116
3 110 40 64
3 117 94 118
3 118 94 95
3 62 32 66
3 39 5 4
3 39 4 119
3 115 120 111
3 120 121 122
3 4 77 121
3 122 123 124
3 121 77 122
3 122 77 123
3 123 77 106
3 123 125 124
3 124 125 126
3 106 80 81
3 127 81 83
3 127 83 84
3 128 126 125
3 80 107 82
3 40 43 64
3 47 28 129
3 28 27 130
3 38 39 119
3 119 131 38
3 4 121 119
3 124 126 122
3 106 81 123
3 123 81 125
3 68 110 132
3 14 133 20
3 32 28 66
3 66 28 47
3 130 27 131
3 130 131 134
3 27 38 131
3 134 116 135
3 131 116 134
3 131 119 115
3 119 120 115
3 119 121 120
3 136 137 138
3 97 139 107
3 107 139 108
3 68 140 13
3 14 13 140
3 129 28 130
3 129 130 134
3 131 115 116
3 115 111 113
3 111 120 122
3 111 122 128
3 128 122 126
3 81 127 125
3 85 107 109
3 82 107 83
3 132 140 68
3 133 14 140
3 97 69 20
3 129 134 47
3 135 116 114
3 114 112 48
3 48 141 46
3 114 113 112
3 48 112 141
3 112 111 142
3 142 111 128
3 127 84 143
3 143 84 98
3 125 127 128
3 128 127 142
3 109 108 144
3 145 88 146
3 45 44 94
3 147 148 149
3 48 135 114
3 134 135 48
3 141 112 150
3 150 112 142
3 151 139 20
3 152 20 153
3 107 85 83
3 64 154 110
3 154 132 110
3 134 48 47
3 46 150 142
3 143 98 155
3 127 143 142
3 108 156 144
3 142 143 46
3 108 139 156
3 157 158 159
3 154 64 67
3 133 140 160
3 46 141 150
3 161 109 144
3 86 162 98
3 98 162 99
3 98 84 86
3 143 155 46
3 85 109 163
3 85 163 86
3 164 45 94
3 164 67 45
3 132 154 165
3 165 154 166
3 167 166 67
3 140 132 165
3 133 168 20
3 154 67 166
3 165 160 140
3 169 170 171
3 172 173 49
3 170 174 171
3 170 59 174
3 174 59 173
3 173 59 175
3 59 47 175
3 175 49 173
3 46 100 47
3 163 109 161
3 162 176 99
3 99 176 145
3 99 145 146
3 67 164 177
3 156 139 151
3 178 152 137
3 46 155 100
3 177 164 117
3 179 166 167
3 133 160 168
3 97 20 139
3 156 151 180
3 156 180 144
3 158 181 159
3 159 182 183
3 86 163 176
3 184 160 165
3 161 181 185
3 186 158 157
3 86 176 162
3 155 98 100
3 163 161 176
3 164 94 117
3 168 160 184
3 181 158 185
3 157 183 89
3 186 185 158
3 167 67 177
3 165 166 179
3 180 151 181
3 144 180 181
3 144 181 161
3 157 159 183
3 187 151 20
3 153 137 152
3 184 179 188
3 168 188 189
3 184 165 179
3 181 151 159
3 183 182 190
3 183 191 192
3 161 185 176
3 117 193 177
3 167 194 179
3 168 184 188
3 167 193 195
3 167 177 193
3 167 195 194
3 179 194 196
3 185 186 176
3 193 117 148
3 197 194 195
3 188 179 198
3 188 198 189
3 199 200 201
3 202 203 204
3 205 206 207
3 205 207 208
3 100 99 209
3 100 209 47
3 159 151 210
3 176 186 145
3 211 212 104
3 104 213 105
3 151 187 210
3 159 210 182
3 182 210 190
3 148 117 149
3 214 66 215
3 214 95 66
3 179 196 198
3 187 20 216
3 216 20 152
3 186 157 145
3 210 217 190
3 191 218 219
3 157 89 220
3 168 189 20
3 146 209 99
3 145 157 88
3 88 157 220
3 88 220 89
3 117 118 149
3 193 148 147
3 198 196 221
3 214 222 208
3 195 193 197
3 197 193 147
3 203 223 224
3 146 88 209
3 225 226 95
3 196 197 221
3 197 196 194
3 209 88 87
3 183 192 89
3 20 227 228
3 229 230 206
3 229 206 231
3 47 232 66
3 66 232 233
3 210 187 216
3 219 178 234
3 149 118 226
3 47 87 235
3 47 235 50
3 236 237 238
3 238 237 52
3 191 239 192
3 240 87 89
3 198 227 189
3 47 209 87
3 217 210 216
3 217 216 218
3 218 216 241
3 147 149 242
3 118 95 226
3 221 227 198
3 189 227 20
3 232 243 233
3 190 191 183
3 89 235 240
3 221 197 200
3 227 221 200
3 244 222 245
3 246 247 248
3 249 241 152
3 89 192 235
3 217 218 190
3 242 201 147
3 197 147 201
3 218 191 190
3 216 152 241
3 199 201 202
3 200 197 201
3 227 200 199
3 227 199 228
3 240 235 87
3 241 249 178
3 241 178 218
3 218 178 219
3 149 224 223
3 224 149 226
3 242 149 223
3 201 242 223
3 204 203 206
3 199 250 204
3 228 199 204
3 232 251 243
3 199 202 250
3 228 204 230
3 228 229 20
3 243 251 252
3 235 192 239
3 219 93 191
3 201 223 202
3 253 244 254
3 254 246 211
3 212 255 256
3 256 255 257
3 228 230 229
3 229 102 20
3 258 259 260
3 260 259 58
3 20 261 153
3 235 239 262
3 152 178 249
3 191 93 91
3 234 93 219
3 207 224 226
3 207 206 203
3 202 223 203
3 202 204 250
3 231 205 244
3 254 244 245
3 254 245 246
3 211 246 255
3 231 206 205
3 229 231 263
3 103 211 104
3 263 102 229
3 153 261 138
3 153 138 137
3 50 235 262
3 50 262 51
3 178 137 234
3 239 191 91
3 203 224 207
3 226 225 207
3 204 206 230
3 225 95 214
3 231 253 263
3 102 211 103
3 263 253 102
3 101 103 104
3 20 264 261
3 261 265 138
3 137 136 53
3 137 53 234
3 234 53 92
3 234 92 93
3 207 225 208
3 208 225 214
3 231 244 253
3 20 266 264
3 232 47 251
3 261 264 267
3 267 268 265
3 261 267 265
3 265 269 136
3 138 265 136
3 136 54 53
3 208 244 205
3 208 222 244
3 253 254 102
3 102 101 20
3 267 264 270
3 251 47 60
3 251 60 259
3 251 259 252
3 90 53 52
3 262 239 271
3 271 239 91
3 53 90 92
3 245 222 246
3 246 222 215
3 246 215 247
3 102 254 211
3 272 273 274
3 275 57 56
3 20 276 266
3 264 266 270
3 136 269 54
3 271 91 90
3 271 90 237
3 222 214 215
3 212 211 255
3 20 101 105
3 277 278 273
3 276 20 105
3 279 213 277
3 275 280 57
3 279 277 272
3 281 273 275
3 275 273 280
3 279 272 274
3 274 273 281
3 266 276 105
3 55 275 56
3 274 105 279
3 266 105 270
3 270 105 274
3 270 274 282
3 270 268 267
3 268 269 265
3 269 283 54
3 173 172 284
3 238 285 236
3 286 55 287
3 238 54 283
3 54 238 52
3 215 66 248
3 215 248 247
3 246 248 257
3 255 246 257
3 104 212 213
3 105 213 279
3 272 277 273
3 270 282 268
3 268 282 288
3 269 268 288
3 238 283 285
3 286 285 289
3 284 172 55
3 52 237 90
3 262 271 237
3 213 212 277
3 277 212 256
3 277 256 290
3 278 260 280
3 277 290 278
3 278 290 260
3 291 274 281
3 292 275 55
3 274 291 282
3 282 291 288
3 291 281 293
3 291 293 288
3 269 288 289
3 269 285 283
3 47 50 175
3 175 50 49
3 172 49 287
3 172 287 55
3 237 51 262
3 257 248 233
3 233 248 66
3 257 233 294
3 257 294 295
3 257 295 256
3 256 295 290
3 290 295 258
3 293 289 288
3 269 289 285
3 51 236 287
3 237 236 51
3 294 233 243
3 294 243 252
3 294 252 296
3 295 294 296
3 295 296 258
3 290 258 260
3 259 169 58
3 273 278 280
3 280 260 57
3 281 275 293
3 275 292 293
3 293 292 289
3 286 289 55
3 285 286 236
3 51 287 49
3 296 252 259
3 296 259 258
3 60 170 169
3 57 260 58
3 289 292 55
3 236 286 287
3 259 60 169
3 58 169 171
3 58 171 55
3 55 171 284
3 170 60 59
3 171 174 284
3 284 174 173
