ply
format ascii 1.0
comment Created by Blender 2.80 (sub 75) - www.blender.org, source file: 'color_and_decimate.blend'
element vertex 246
property float x
property float y
property float z
property float nx
property float ny
property float nz
element face 488
property list uchar uint vertex_indices
end_header
-8284.247070 -5038.792969 -6212.143555 -0.601489 -0.754875 -0.261361
-8238.100586 -5059.113770 -6303.812500 -0.904538 -0.395581 -0.159001
-8268.732422 -5090.645020 -6230.210938 -0.901730 0.149754 -0.405469
-8335.283203 -5054.895996 -6089.265137 -0.727653 -0.359569 -0.584094
-8323.359375 -5162.148438 -6186.447754 -0.767754 0.411206 -0.491348
-9450.315430 -5255.866699 -6167.815918 0.764611 -0.226539 0.603351
-9456.268555 -5383.570312 -6215.848633 0.787500 -0.263863 0.556932
-9372.033203 -5380.878418 -6333.766602 0.781274 -0.309244 0.542161
-8257.828125 -5201.276855 -6490.500488 -0.985809 0.167669 0.003449
-8262.183594 -5179.115234 -6555.497559 -0.982543 0.041719 0.181249
-8265.371094 -5356.800781 -6539.668457 -0.961364 0.212134 -0.175298
-8301.808594 -5543.277344 -6724.737793 -0.935942 0.352062 -0.001099
-8297.094727 -5500.615723 -6826.561035 -0.921995 0.360820 0.140263
-8330.047852 -5561.990723 -6883.663574 -0.877102 0.432966 0.207862
-9213.275391 -5636.949219 -6755.267090 0.215827 0.970916 0.103580
-9056.652344 -5635.990723 -7043.500977 0.592700 0.671896 0.444105
-9178.528320 -5625.594727 -6877.125977 0.811121 0.348979 0.469283
-8241.401367 -5052.337402 -6512.399414 -0.795556 -0.582690 0.165868
-8238.440430 -5147.018555 -6511.907227 -0.970367 0.147923 0.190954
-8263.818359 -5439.329590 -6661.634277 -0.968871 0.232887 -0.083865
-8262.759766 -5423.312500 -6830.644043 -0.972381 0.053804 0.227027
-8472.739258 -5637.481445 -7117.974609 -0.375011 0.912259 0.164586
-8843.302734 -5636.554199 -7237.185059 0.399609 0.698233 0.593951
-8269.233398 -5206.568848 -6620.154297 -0.915708 -0.214728 0.339610
-8270.509766 -5322.397461 -6732.312988 -0.789270 -0.454299 0.413038
-8324.655273 -5472.680176 -7003.074219 -0.924955 0.193182 0.327280
-8371.750977 -5509.008301 -7102.622559 -0.871456 0.233894 0.431074
-8414.378906 -5633.958984 -7005.333008 -0.529862 0.827967 0.183447
-8433.418945 -5564.291016 -7178.064453 -0.809320 0.348582 0.472701
-8273.813477 -5058.822266 -6588.722656 -0.780725 -0.412366 0.469405
-8266.157227 -5219.735352 -6361.770508 -0.923093 0.302713 -0.237098
-8323.791992 -5546.673828 -6598.742676 -0.845485 0.441969 -0.299600
-9318.176758 -5080.520996 -6263.520020 0.708213 -0.396649 0.584033
-9312.185547 -5039.759766 -6229.149414 0.356853 -0.879727 0.314158
-9406.932617 -5056.770508 -6144.690430 0.651234 -0.532212 0.540910
-9434.786133 -5152.206055 -6151.303711 0.750481 -0.238685 0.616230
-9525.268555 -5359.408203 -6106.899414 0.791314 -0.215796 0.572008
-9583.551758 -5289.757812 -6012.230957 0.800653 -0.169561 0.574572
-9590.940430 -5364.061523 -6015.676270 0.806940 -0.156163 0.569567
-8609.839844 -5507.071289 -6206.916992 -0.570727 0.514115 -0.640248
-8796.948242 -5439.565430 -5975.559570 -0.602557 0.440962 -0.665151
-8610.298828 -5360.890625 -6087.746582 -0.516861 0.545885 -0.659413
-8538.441406 -5344.512695 -6121.365723 -0.512406 0.564501 -0.647084
-8307.446289 -5037.861328 -6600.955078 -0.347636 -0.882656 0.316294
-8323.000977 -5293.610840 -6318.981445 -0.788202 0.455458 -0.413862
-8323.343750 -5395.305176 -6432.746094 -0.814234 0.429456 -0.390576
-8284.061523 -5422.419922 -6888.416504 -0.966582 -0.029267 0.254585
-8380.197266 -5238.238281 -6899.943359 -0.645924 -0.658406 0.386273
-8403.879883 -5288.833984 -6997.949707 -0.327036 -0.715110 0.617756
-8316.640625 -5360.058594 -6984.892578 -0.847224 -0.368389 0.382641
-8342.635742 -5277.168457 -6811.968750 -0.835810 -0.465285 0.291391
-8374.633789 -5157.839844 -6732.277832 -0.758995 -0.422956 0.494949
-8415.392578 -5200.225098 -6100.051758 -0.629231 0.471145 -0.618091
-8390.873047 -5312.988281 -6230.189941 -0.663381 0.525101 -0.533067
-8469.549805 -5451.108398 -6285.054688 -0.617847 0.535722 -0.575518
-9572.992188 -5037.547852 -5901.129883 0.369182 -0.903165 0.219001
-8704.238281 -5040.758301 -6652.986328 0.125248 -0.917692 0.376995
-8964.759766 -5039.311035 -6531.709961 0.086642 -0.935545 0.342357
-8844.828125 -5061.516602 -6621.139648 0.314158 -0.715232 0.624256
-8443.875977 -5135.422852 -6028.317871 -0.595935 0.455519 -0.661275
-9515.490234 -5058.574219 -6015.840820 0.669362 -0.530015 0.520585
-9576.626953 -5170.482910 -5976.545410 0.796655 -0.222358 0.562029
-9507.999023 -5207.665039 -6085.127930 0.762627 -0.235328 0.602496
-8335.659180 -5634.006836 -6721.264160 -0.612018 0.790216 -0.030732
-8361.723633 -5629.769531 -6836.653809 -0.711447 0.675832 0.192419
-9176.861328 -5366.466797 -6614.030762 0.726981 -0.448225 0.520096
-9219.830078 -5581.491211 -6760.126465 0.809259 -0.388928 0.440230
-9112.938477 -5490.542969 -6831.363281 0.693411 -0.567614 0.443800
-8375.901367 -5490.822266 -6445.499512 -0.720115 0.505081 -0.475661
-8396.389648 -5040.855957 -6686.695312 -0.360179 -0.842616 0.400250
-9270.041016 -5503.457520 -6591.097656 0.786767 -0.425153 0.447432
-9312.226562 -5591.427246 -6600.974121 0.865841 -0.207434 0.455214
-8661.556641 -5275.805664 -6946.279785 0.261452 -0.744835 0.613849
-8656.081055 -5116.236328 -6751.169922 0.239265 -0.738945 0.629841
-8756.924805 -5282.300293 -6904.536133 0.356548 -0.738670 0.572008
-8850.256836 -5304.875977 -6864.016113 0.273293 -0.834223 0.478866
-8829.790039 -5345.509277 -6941.217285 0.135472 -0.851680 0.506211
-8924.761719 -5318.791016 -6903.001465 0.356883 -0.793329 0.493149
-8373.412109 -5420.409180 -7101.975586 -0.697409 -0.353496 0.623402
-8858.113281 -5599.217285 -7225.339844 0.510269 -0.373272 0.774743
-8813.540039 -5405.551758 -7075.768555 0.304453 -0.788415 0.534501
-8949.411133 -5617.291992 -7167.175781 0.661977 0.070528 0.746178
-9043.752930 -5592.018066 -7057.263184 0.720634 -0.373547 0.584033
-8430.380859 -5473.932617 -7185.404297 -0.505234 -0.370525 0.779351
-8443.171875 -5391.982910 -7111.396484 -0.180578 -0.698386 0.692526
-8558.970703 -5268.624023 -6043.472656 -0.503281 0.548082 -0.668020
-8676.337891 -5312.690430 -5992.132324 -0.548265 0.527848 -0.648640
-9681.654297 -5364.345215 -5892.873047 0.776971 -0.184545 0.601856
-9679.929688 -5502.534668 -5930.068359 0.786004 -0.176946 0.592334
-9589.375000 -5511.991211 -6079.231445 0.821467 -0.222022 0.525193
-8881.154297 -5222.011230 -6743.770996 0.457961 -0.642567 0.614307
-8947.705078 -5192.860352 -6666.050293 0.274453 -0.638997 0.718558
-9020.180664 -5234.941895 -6697.677246 0.410627 -0.613239 0.674734
-8961.989258 -5305.829102 -6771.381836 0.238533 -0.824122 0.513688
-8389.458008 -5624.119629 -6565.224121 -0.578875 0.747887 -0.324809
-8563.707031 -5040.324707 -6680.266113 0.102084 -0.956603 0.272866
-8469.375000 -5058.864746 -5957.928711 -0.639027 -0.174566 -0.749077
-8441.804688 -5546.873047 -6416.668945 -0.675314 0.531877 -0.510880
-9539.256836 -5637.060059 -6162.202148 0.282998 0.943632 0.171514
-9469.062500 -5618.497559 -6323.772461 0.854122 0.190283 0.483963
-9565.711914 -5619.820801 -6160.317871 0.803369 0.335185 0.492141
-9359.091797 -5635.767090 -6500.796875 0.522843 0.793420 0.311533
-9301.693359 -5625.511719 -6620.682617 0.822352 0.346385 0.451338
-8583.930664 -5339.609863 -7051.298340 0.140965 -0.745659 0.651204
-8694.996094 -5410.443359 -7088.695312 0.079501 -0.869289 0.487838
-8937.960938 -5485.316895 -7040.568359 0.569231 -0.603015 0.558824
-8562.682617 -5040.507812 -5899.711914 -0.359264 -0.697287 -0.620228
-9588.752930 -5058.784668 -5911.839355 0.748833 -0.487960 0.448469
-8586.783203 -5236.442871 -6921.381836 0.182592 -0.758293 0.625782
-8503.401367 -5637.062012 -6432.493164 -0.368908 0.879604 -0.300211
-8431.576172 -5127.453613 -6800.060547 -0.451399 -0.656362 0.604480
-8478.053711 -5537.134277 -7237.899902 -0.515122 -0.278268 0.810663
-8846.478516 -5634.787109 -6074.584961 -0.369640 0.879940 -0.298349
-8464.082031 -5048.076172 -6744.800293 -0.096683 -0.845576 0.524979
-8533.993164 -5148.133301 -6832.235840 0.123783 -0.755333 0.643513
-8478.199219 -5196.325684 -6902.784668 -0.067660 -0.775780 0.627338
-8502.711914 -5515.519043 -6299.251953 -0.615650 0.504440 -0.605365
-8521.318359 -5393.915039 -7121.276855 0.010712 -0.722404 0.691336
-8737.404297 -5418.551758 -7149.971680 0.164281 -0.825709 0.539598
-8678.160156 -5459.165039 -7203.063965 0.049623 -0.782159 0.621052
-8508.329102 -5630.879395 -7251.358887 -0.530259 0.733757 0.424696
-8537.810547 -5583.061523 -7292.907715 -0.621815 -0.266121 0.736534
-8588.924805 -5500.419922 -7218.228516 -0.249702 -0.783502 0.568957
-8566.523438 -5176.118164 -5964.750977 -0.521165 0.511521 -0.683157
-8624.794922 -5459.457520 -7169.728516 -0.083377 -0.820978 0.564776
-8587.384766 -5593.042480 -7342.223633 -0.085788 -0.263436 0.960845
-8614.956055 -5516.637207 -7278.172363 -0.103366 -0.727592 0.678152
-8601.799805 -5630.785645 -7342.346191 -0.042787 0.540727 0.840083
-8709.159180 -5192.334961 -5880.594238 -0.415326 0.415998 -0.808954
-8573.458984 -5083.418457 -5892.985352 -0.500137 0.246223 -0.830164
-8795.668945 -5349.123047 -5920.412598 -0.536729 0.433607 -0.723777
-8669.446289 -5618.201660 -6238.368652 -0.576312 0.572741 -0.582904
-8700.931641 -5040.871582 -5832.484375 -0.316050 -0.716361 -0.621998
-9676.374023 -5062.176758 -5777.406250 0.758080 -0.383740 0.527299
-9639.780273 -5089.147461 -5850.262695 0.797082 -0.309793 0.518296
-9836.183594 -5454.135742 -5714.905762 0.818781 -0.208808 0.534745
-9815.059570 -5347.516113 -5713.490723 0.832881 -0.194739 0.518021
-9872.558594 -5293.251953 -5584.850098 0.969543 -0.239479 0.050783
-9909.287109 -5451.285156 -5550.097168 0.742637 -0.251717 -0.620563
-9854.780273 -5344.705078 -5531.609375 0.614429 -0.153905 -0.773766
-9806.330078 -5381.359863 -5507.902344 0.409345 -0.092044 -0.907712
-9799.662109 -5510.839844 -5490.756348 0.348125 -0.103854 -0.931669
-9720.551758 -5451.751953 -5459.552246 0.406201 -0.090976 -0.909207
-9660.711914 -5537.648438 -5426.300293 0.335704 -0.056246 -0.940275
-9774.123047 -5625.107422 -5467.502930 0.360302 0.513474 -0.778771
-8784.249023 -5146.665527 -6733.104004 0.320261 -0.669027 0.670675
-8711.650391 -5083.545898 -5825.958496 -0.433485 0.207556 -0.876888
-8806.130859 -5179.174316 -5827.878418 -0.409894 0.361431 -0.837428
-8862.471680 -5264.521484 -5833.741211 -0.480850 0.340526 -0.807947
-9088.545898 -5605.382812 -5781.346680 -0.624836 0.435499 -0.648000
-8887.247070 -5623.194336 -5997.992676 -0.552446 0.671682 -0.493545
-9244.537109 -5635.725586 -5663.127441 -0.239845 0.946928 -0.213904
-9262.083984 -5618.085449 -5608.186523 -0.648518 0.502213 -0.571978
-8837.835938 -5054.817383 -5756.951172 -0.429334 -0.131199 -0.893551
-8696.989258 -5544.854492 -6153.503418 -0.611042 0.488937 -0.622517
-8749.676758 -5621.478027 -7302.263184 0.390210 0.182806 0.902371
-8755.821289 -5511.403809 -7200.417969 0.388379 -0.582110 0.714316
-8796.736328 -5534.702148 -6042.066406 -0.653279 0.451735 -0.607532
-8928.028320 -5512.090820 -5895.424805 -0.643513 0.331645 -0.689840
-8971.644531 -5107.700195 -6591.621094 0.181677 -0.635456 0.750420
-8875.693359 -5359.428223 -6972.715820 0.301675 -0.775597 0.554430
-8989.952148 -5400.827637 -6890.185547 0.650929 -0.526872 0.546464
-9043.586914 -5037.656738 -5673.991211 -0.191931 -0.953856 -0.230811
-9737.380859 -5040.732422 -5670.324219 0.510819 -0.808527 0.292062
-9794.230469 -5123.983398 -5635.617188 0.845119 -0.322184 0.426496
-9751.524414 -5211.892090 -5756.814941 0.790033 -0.256294 0.556841
-9838.609375 -5159.687988 -5548.964844 0.909574 -0.255165 -0.327921
-9798.525391 -5226.679199 -5516.255859 0.447981 -0.101169 -0.888272
-9666.053711 -5364.196777 -5445.435547 0.376507 -0.086215 -0.922361
-8907.328125 -5207.284668 -5787.471680 -0.461989 0.311777 -0.830256
-9802.451172 -5637.249512 -5795.712891 0.576373 0.744926 0.335887
-9375.705078 -5631.880859 -5491.300781 -0.482925 0.806543 -0.340953
-9548.240234 -5581.415527 -5364.667969 0.372570 0.019654 -0.927763
-9584.589844 -5509.653809 -5407.378418 0.430097 -0.093265 -0.897916
-9500.593750 -5419.294922 -5365.781738 0.303018 -0.065523 -0.950713
-8960.083984 -5179.327148 -5748.693359 -0.480850 0.290536 -0.827235
-8965.189453 -5420.035645 -5824.593750 -0.584674 0.300607 -0.753502
-9608.941406 -5633.872559 -5406.416992 0.272958 0.716086 -0.642384
-9582.683594 -5397.190918 -5411.425293 0.387707 -0.079073 -0.918363
-8963.492188 -5061.053711 -5697.951660 -0.477737 -0.060396 -0.876400
-9049.241211 -5171.257324 -5691.178223 -0.570086 0.286019 -0.770165
-9048.412109 -5395.832520 -5756.698730 -0.601398 0.228156 -0.765648
-9024.012695 -5119.081055 -6601.446289 0.325571 -0.584490 0.743187
-9107.813477 -5529.297363 -6900.577637 0.691580 -0.551439 0.466445
-9086.606445 -5060.756348 -5597.584473 -0.770501 -0.017029 -0.637165
-9112.676758 -5354.526855 -5690.136230 -0.643055 0.190619 -0.741691
-9118.887695 -5267.625977 -5665.580566 -0.635975 0.208869 -0.742882
-9219.501953 -5447.253418 -5613.528320 -0.714652 0.180700 -0.675710
-9089.190430 -5486.417969 -5746.796387 -0.655812 0.211249 -0.724723
-9230.989258 -5525.266602 -5617.901855 -0.719596 0.162725 -0.675039
-9801.333008 -5636.684570 -5510.073242 0.181921 0.942961 -0.278756
-9040.514648 -5041.166504 -6532.192871 0.277566 -0.825983 0.490555
-9019.532227 -5325.937500 -6794.549805 0.567278 -0.637867 0.520829
-9099.001953 -5589.396973 -6972.740234 0.739738 -0.389386 0.548723
-9153.283203 -5178.863281 -5597.500000 -0.727775 0.336283 -0.597674
-9214.312500 -5315.105957 -5579.556641 -0.749352 0.229316 -0.621143
-9332.314453 -5358.739746 -5437.917480 -0.709372 0.202857 -0.674978
-9228.960938 -5373.012695 -5578.859863 -0.741935 0.200751 -0.639668
-9139.418945 -5178.741211 -6530.752441 0.679067 -0.399609 0.615711
-9087.280273 -5378.740234 -6738.931641 0.685202 -0.515610 0.514389
-9079.564453 -5256.679199 -6640.199707 0.671682 -0.449263 0.589007
-9899.286133 -5580.308105 -5512.395508 0.368572 0.010407 -0.929502
-9349.782227 -5292.450195 -5395.450195 -0.531602 0.329112 -0.780419
-9286.181641 -5213.702148 -5413.515625 -0.649342 0.326609 -0.686758
-9721.749023 -5039.238281 -5523.805664 0.249184 -0.844356 -0.474258
-9805.886719 -5054.862793 -5540.138184 0.692099 -0.626545 -0.358287
-9216.455078 -5083.911621 -5418.069824 -0.740532 0.181921 -0.646870
-9224.858398 -5041.719238 -5412.849121 -0.491348 -0.711570 -0.502182
-9209.580078 -5054.412109 -6375.665527 0.591693 -0.613849 0.522507
-9192.728516 -5258.326660 -6507.918457 0.751610 -0.358928 0.553362
-9238.468750 -5168.301758 -6400.994629 0.745781 -0.310190 0.589526
-9256.866211 -5372.147949 -6497.071289 0.767785 -0.380749 0.515244
-9308.961914 -5252.858398 -6348.551270 0.768792 -0.293710 0.568011
-9362.828125 -5202.108887 -5363.853516 -0.281808 0.127415 -0.950957
-9532.877930 -5038.914062 -5425.054199 0.209693 -0.742485 -0.636158
-9632.557617 -5050.436035 -5467.396973 0.406903 -0.404096 -0.819208
-9270.506836 -5059.749023 -5366.300293 -0.339213 -0.386578 -0.857570
-9387.314453 -5059.027344 -5364.502930 0.126102 -0.552019 -0.824213
-9514.270508 -5209.304199 -5403.399414 0.315806 -0.088595 -0.944670
-9442.140625 -5303.519043 -5357.747070 0.005005 0.012360 -0.999908
-9426.733398 -5516.035645 -6331.940918 0.803735 -0.315897 0.504135
-9338.274414 -5451.001465 -6431.434082 0.793329 -0.354411 0.494949
-9350.720703 -5545.693848 -6477.810547 0.809412 -0.379589 0.448012
-9326.165039 -5488.528809 -5497.878906 -0.759819 0.206763 -0.616321
-9344.074219 -5174.922852 -6270.883789 0.757256 -0.248024 0.604144
-9414.389648 -5441.389648 -5375.937500 -0.674398 0.055361 -0.736259
-9394.266602 -5562.104492 -5426.107910 -0.861690 0.132603 -0.489761
-9417.294922 -5613.516113 -6417.505859 0.867611 0.008728 0.497116
-9430.663086 -5627.843750 -5361.588867 -0.433546 0.597919 -0.674123
-9504.032227 -5506.847656 -6210.291992 0.809442 -0.260598 0.526139
-9460.669922 -5610.797852 -5342.348145 -0.411725 -0.277627 -0.867977
-9475.592773 -5055.454102 -5408.583008 0.383496 0.224464 -0.895810
-9579.688477 -5169.331055 -5418.748047 0.321940 -0.096438 -0.941801
-9892.477539 -5578.647949 -5681.331543 0.825770 -0.050264 0.561724
-9664.028320 -5221.500000 -5864.036621 0.785913 -0.223853 0.576342
-9674.038086 -5622.994629 -5974.109375 0.822565 -0.053102 0.566149
-9785.873047 -5619.471680 -5843.609863 0.795038 0.260781 0.547594
-9800.607422 -5533.143066 -5798.253418 0.801019 -0.148717 0.579852
-9760.080078 -5341.766602 -5787.906738 0.784112 -0.191534 0.590289
-9744.286133 -5457.566895 -5848.063477 0.763817 -0.174169 0.621448
-9637.208008 -5584.674316 -6032.700684 0.852351 -0.140599 0.503647
-9684.038086 -5226.422852 -5464.216797 0.416486 -0.077212 -0.905820
-9736.239258 -5111.798828 -5502.527832 0.397168 -0.189093 -0.898038
-9959.689453 -5627.580078 -5536.806152 0.730613 0.510483 -0.453352
-9938.990234 -5633.537109 -5601.862793 0.631519 0.716086 0.297281
-9958.556641 -5577.317871 -5577.218262 0.979400 -0.134678 0.150334
3 0 1 2
3 3 2 4
3 5 6 7
3 8 9 10
3 11 12 13
3 14 15 16
3 1 17 18
3 1 18 8
3 19 9 20
3 15 21 22
3 8 18 9
3 9 23 24
3 9 24 20
3 13 12 25
3 13 25 26
3 13 26 27
3 27 28 21
3 18 17 9
3 17 29 9
3 9 29 23
3 0 2 3
3 2 1 30
3 31 10 19
3 31 19 11
3 30 1 8
3 2 30 4
3 32 33 34
3 32 34 35
3 36 37 38
3 39 40 41
3 39 41 42
3 1 0 17
3 17 0 43
3 30 8 10
3 44 30 10
3 44 10 45
3 10 9 19
3 17 43 29
3 19 20 12
3 20 46 12
3 47 48 49
3 47 49 50
3 51 50 23
3 46 24 50
3 20 24 46
3 46 25 12
3 52 4 53
3 42 53 39
3 39 53 54
3 0 55 43
3 56 57 58
3 11 19 12
3 59 3 4
3 59 4 52
3 35 34 60
3 35 60 61
3 61 62 35
3 62 5 35
3 4 44 53
3 44 4 30
3 63 64 27
3 65 66 67
3 45 10 31
3 45 31 68
3 29 69 51
3 63 31 11
3 66 70 71
3 23 50 24
3 63 11 13
3 63 13 64
3 46 50 49
3 72 73 74
3 74 73 75
3 76 75 77
3 25 46 49
3 25 49 78
3 79 80 81
3 82 15 81
3 27 26 28
3 83 78 84
3 25 78 26
3 85 59 52
3 40 86 41
3 34 33 60
3 38 87 88
3 38 88 89
3 53 44 45
3 53 45 68
3 43 55 69
3 90 58 91
3 91 92 93
3 43 69 29
3 94 31 63
3 29 51 23
3 95 69 55
3 96 3 59
3 33 55 60
3 53 68 54
3 68 97 54
3 98 99 100
3 68 31 94
3 101 14 102
3 51 47 50
3 48 78 49
3 84 48 103
3 76 80 104
3 80 105 81
3 84 78 48
3 106 3 96
3 55 107 60
3 3 106 0
3 0 106 55
3 52 53 42
3 97 68 94
3 21 63 27
3 13 27 64
3 72 103 108
3 26 78 83
3 97 94 109
3 69 110 51
3 110 47 51
3 21 15 14
3 28 83 111
3 26 83 28
3 94 63 109
3 112 109 21
3 113 69 95
3 69 113 110
3 110 113 114
3 110 115 47
3 48 47 115
3 52 42 85
3 54 97 116
3 116 97 109
3 63 21 109
3 115 110 114
3 48 115 103
3 117 84 103
3 104 118 119
3 120 21 28
3 84 117 83
3 121 111 122
3 122 111 83
3 28 111 120
3 120 111 121
3 59 85 123
3 113 95 73
3 22 21 120
3 122 83 124
3 125 126 127
3 121 122 126
3 121 126 125
3 128 129 130
3 129 106 96
3 59 123 96
3 85 42 41
3 131 116 109
3 114 113 73
3 103 115 108
3 117 103 124
3 83 117 124
3 120 121 125
3 120 125 127
3 129 96 123
3 116 131 54
3 54 131 39
3 114 108 115
3 120 127 22
3 55 106 132
3 55 133 134
3 135 136 137
3 138 139 140
3 141 142 143
3 141 143 144
3 86 123 85
3 108 114 72
3 123 86 130
3 40 130 86
3 95 55 56
3 73 95 56
3 145 58 90
3 93 90 91
3 124 119 126
3 146 129 128
3 146 128 147
3 147 128 148
3 149 150 151
3 149 151 152
3 153 146 147
3 130 129 123
3 85 41 86
3 114 73 72
3 122 124 126
3 132 106 129
3 39 131 154
3 104 124 103
3 127 126 155
3 132 129 146
3 119 124 104
3 126 156 155
3 39 154 40
3 73 145 75
3 103 72 104
3 118 104 80
3 119 118 156
3 119 156 126
3 157 112 150
3 131 109 112
3 72 76 104
3 22 127 155
3 40 154 157
3 154 131 112
3 132 146 153
3 148 128 130
3 112 157 154
3 56 145 73
3 72 74 76
3 118 80 156
3 156 79 155
3 155 79 22
3 40 157 158
3 56 55 57
3 91 58 159
3 56 58 145
3 75 145 90
3 74 75 76
3 160 77 161
3 80 76 160
3 156 80 79
3 22 79 81
3 22 81 15
3 132 153 162
3 163 164 165
3 139 166 167
3 140 167 168
3 153 147 169
3 151 170 171
3 172 173 174
3 80 160 105
3 175 153 169
3 169 147 148
3 130 40 176
3 112 21 151
3 151 21 170
3 172 177 173
3 173 177 143
3 178 143 168
3 168 142 140
3 76 77 160
3 132 162 55
3 176 169 148
3 148 130 176
3 90 93 75
3 179 153 175
3 180 179 175
3 153 179 162
3 55 163 133
3 176 181 169
3 158 176 40
3 158 157 149
3 169 181 175
3 157 150 149
3 177 144 143
3 57 159 58
3 159 182 92
3 75 93 77
3 105 160 183
3 81 105 82
3 184 179 180
3 55 162 163
3 175 185 186
3 185 181 187
3 187 188 189
3 181 176 188
3 176 158 188
3 177 170 190
3 177 190 144
3 191 182 159
3 77 93 192
3 161 183 160
3 193 105 183
3 194 186 195
3 196 195 197
3 57 55 191
3 182 191 198
3 159 57 191
3 91 159 92
3 93 92 192
3 192 92 199
3 77 192 161
3 82 105 193
3 175 186 180
3 161 192 199
3 162 179 184
3 194 184 180
3 185 175 181
3 149 188 158
3 200 92 182
3 92 200 199
3 180 186 194
3 151 150 112
3 141 201 140
3 161 199 67
3 161 67 183
3 195 202 203
3 182 198 200
3 199 200 65
3 82 193 15
3 15 193 16
3 163 162 204
3 163 205 164
3 184 206 207
3 206 184 194
3 163 204 205
3 188 187 181
3 188 149 189
3 191 208 198
3 209 198 210
3 211 210 212
3 21 101 98
3 198 65 200
3 67 199 65
3 183 16 193
3 184 207 162
3 194 203 206
3 194 195 203
3 186 197 195
3 185 197 186
3 185 187 197
3 198 208 210
3 198 209 65
3 67 66 183
3 213 206 203
3 214 215 204
3 152 189 149
3 33 208 191
3 65 209 211
3 207 206 216
3 55 33 191
3 32 208 33
3 70 65 211
3 101 99 98
3 65 70 66
3 66 16 183
3 217 216 213
3 218 217 219
3 162 207 214
3 171 170 177
3 209 210 211
3 211 212 7
3 7 220 221
3 221 220 222
3 21 14 101
3 16 66 102
3 16 102 14
3 217 213 219
3 207 216 217
3 207 217 214
3 216 206 213
3 195 196 202
3 223 189 152
3 210 208 32
3 70 211 221
3 66 71 102
3 213 203 202
3 213 202 219
3 223 197 187
3 187 189 223
3 32 224 210
3 212 210 224
3 211 7 221
3 219 196 225
3 223 196 197
3 223 225 196
3 223 152 171
3 171 152 151
3 221 222 70
3 70 222 71
3 226 225 223
3 224 32 35
3 71 101 102
3 202 196 219
3 226 223 171
3 222 220 227
3 228 172 174
3 21 98 170
3 224 5 212
3 7 212 5
3 99 220 229
3 222 227 71
3 227 101 71
3 228 225 226
3 228 230 172
3 228 226 171
3 214 217 231
3 35 5 224
3 7 6 229
3 101 227 99
3 219 228 174
3 219 225 228
3 230 228 177
3 231 217 218
3 228 171 177
3 36 38 89
3 7 229 220
3 227 220 99
3 232 231 218
3 5 62 36
3 36 6 5
3 229 6 36
3 214 231 232
3 233 135 137
3 99 229 100
3 172 230 177
3 37 62 61
3 37 61 234
3 36 62 37
3 170 235 236
3 170 236 237
3 233 237 135
3 229 36 89
3 219 174 178
3 232 218 178
3 218 219 178
3 60 107 61
3 87 238 239
3 239 238 135
3 170 98 235
3 178 173 143
3 178 174 173
3 215 214 232
3 214 204 162
3 134 107 55
3 61 134 234
3 87 234 165
3 87 165 238
3 238 136 135
3 98 100 235
3 235 100 240
3 235 240 88
3 229 89 100
3 100 89 240
3 107 134 61
3 37 234 87
3 240 89 88
3 168 143 142
3 232 178 241
3 241 178 168
3 215 232 242
3 37 87 38
3 242 232 241
3 234 134 133
3 235 88 237
3 204 215 242
3 234 133 165
3 87 239 88
3 242 241 167
3 205 242 167
3 205 167 166
3 144 190 201
3 201 190 243
3 238 165 136
3 168 167 241
3 205 204 242
3 164 166 137
3 133 163 165
3 237 236 235
3 237 239 135
3 239 237 88
3 142 141 140
3 165 164 136
3 164 137 136
3 144 201 141
3 167 140 139
3 205 166 164
3 170 244 190
3 170 237 233
3 170 233 244
3 245 233 137
3 245 137 138
3 166 139 137
3 139 138 137
3 190 244 243
3 140 201 138
3 244 233 245
3 138 243 245
3 243 138 201
3 244 245 243
