ply
format ascii 1.0
comment Created by Blender 2.80 (sub 75) - www.blender.org, source file: 'color_and_decimate.blend'
element vertex 286
property float x
property float y
property float z
property float nx
property float ny
property float nz
element face 568
property list uchar uint vertex_indices
end_header
-5727.380371 -5635.693848 -2728.432617 0.054964 0.873012 -0.484512
-5692.838379 -5621.798340 -2706.991211 -0.471206 0.198279 -0.859432
-5701.828125 -5633.145508 -3493.171631 -0.465896 0.867092 0.176244
-6178.244629 -5634.553223 -3429.939697 0.366283 0.892178 -0.264260
-6052.012695 -5634.916992 -3501.787109 -0.062899 0.996490 0.054720
-6312.691895 -5636.750488 -3564.412354 0.447035 0.806787 -0.386273
-6614.263672 -5349.325195 -3485.471436 0.988922 -0.009369 -0.147923
-6636.346680 -5260.125000 -3653.384521 0.964843 -0.207556 -0.161077
-6603.407715 -5223.254883 -3604.589355 0.983062 -0.181280 -0.026185
-6637.203125 -5284.223633 -3495.605469 0.762383 -0.018769 -0.646840
-6618.590332 -5205.931152 -3526.624756 0.997284 -0.073305 -0.001343
-6609.310547 -5174.517090 -3456.236816 0.949767 -0.234931 -0.206702
-5956.445801 -5040.135742 -4472.585938 0.047304 -0.996826 0.063662
-5839.979004 -5037.543945 -3102.891602 -0.117740 -0.945952 -0.302072
-6003.488770 -5042.263672 -4545.126465 -0.507279 -0.845668 0.165685
-6473.725098 -5041.348633 -4769.173340 0.493210 -0.709311 0.503555
-6529.764160 -5080.964355 -4719.879395 0.793420 0.037080 0.607501
-6338.577148 -5081.139648 -4896.186035 0.547929 0.165349 0.819971
-6220.062500 -5191.121582 -4872.187500 0.051088 0.574511 0.816889
-6284.362793 -5169.638184 -4875.152344 0.173345 0.405286 0.897580
-6177.289551 -5290.347168 -4800.548340 -0.205023 0.656301 0.726066
-5694.330566 -5521.970703 -2791.760498 -0.802240 -0.205573 -0.560442
-5816.445801 -5629.914062 -2763.941895 -0.164861 0.874966 -0.455245
-5794.687500 -5546.121582 -2751.137207 -0.507981 -0.062014 -0.859096
-5687.923340 -5605.746582 -3542.222412 -0.787286 0.599536 0.143712
-5689.917969 -5388.687988 -2886.665527 -0.925443 -0.203742 -0.319407
-5753.350098 -5406.063477 -2798.633545 -0.332377 -0.457381 -0.824793
-5837.622559 -5458.258301 -2772.679932 -0.368145 -0.443159 -0.817316
-5884.183105 -5626.209473 -2657.808594 -0.486038 0.566240 -0.665670
-6132.786621 -5637.324707 -3207.156982 0.271157 0.914426 0.300424
-6109.079590 -5637.220215 -2596.905273 -0.121464 0.787317 -0.604419
-6547.272461 -5477.463867 -3103.159180 0.934507 -0.006836 -0.355785
-6569.129883 -5525.760742 -3202.711182 0.957701 0.265694 -0.110385
-6576.928223 -5298.211426 -3239.644287 0.915494 -0.194617 -0.352031
-6065.094238 -5215.174805 -2849.936523 -0.218085 -0.587390 -0.779351
-5963.381348 -5241.306641 -2852.774170 -0.205451 -0.589007 -0.781549
-5974.106445 -5397.011230 -2739.071289 -0.247871 -0.534074 -0.808252
-6143.650879 -5288.651855 -2771.578857 -0.241615 -0.573656 -0.782617
-6208.996582 -5402.784180 -2664.289307 -0.145726 -0.541093 -0.828211
-6250.631836 -5259.591797 -2759.125000 0.129124 -0.623829 -0.770775
-6287.765625 -5365.313477 -2690.612793 0.414594 -0.526536 -0.742180
-6309.248047 -5271.187500 -2794.202881 0.687460 -0.481826 -0.543321
-6375.236816 -5313.423340 -2879.171387 0.804285 -0.358837 -0.473586
-6384.645508 -5498.328125 -2774.288818 0.907743 -0.148930 -0.392132
-6452.310059 -5451.934082 -2913.424805 0.874966 -0.160070 -0.456923
-5687.588379 -5224.140625 -3008.350342 -0.935789 -0.197638 -0.291849
-5747.858887 -5278.572266 -2890.063721 -0.378155 -0.543626 -0.749290
-5740.781738 -5168.325684 -2974.315918 -0.349101 -0.585253 -0.731803
-6002.124023 -5612.765625 -3539.953857 -0.171239 0.967162 0.187750
-5712.121582 -5610.993164 -3679.807129 -0.345592 0.914151 0.211737
-5994.586914 -5613.904297 -3690.717041 -0.224372 0.960936 0.161962
-6077.104004 -5634.643066 -3789.481201 -0.211097 0.960570 0.180883
-5887.363770 -5256.892578 -2863.727539 -0.389691 -0.556810 -0.733512
-5825.770020 -5284.995117 -2888.353271 -0.230445 -0.583026 -0.779046
-5701.777832 -5041.933105 -3111.192139 -0.524033 -0.790460 -0.317057
-5687.519531 -5076.357910 -3107.820801 -0.937193 -0.254616 -0.238350
-5694.535645 -5583.489258 -3725.700684 -0.772668 0.613453 0.163060
-5990.190918 -5589.722168 -3734.430420 -0.374798 0.889523 0.261177
-6035.542480 -5590.338379 -3874.831299 -0.128391 0.982147 0.137303
-6509.299805 -5418.207031 -4314.896484 0.531816 0.744926 0.402753
-6550.214355 -5393.317871 -4363.936035 0.676565 0.701926 0.222480
-6604.970215 -5363.031738 -4252.065918 0.925626 0.228248 0.301798
-6074.173828 -5531.435547 -4244.372070 -0.095096 0.982696 0.158757
-6208.295410 -5516.291992 -4312.911621 0.012482 0.990936 0.133671
-6369.729980 -5534.622070 -4235.963379 0.172521 0.962615 0.208716
-6470.034668 -5517.303711 -4219.945312 0.301523 0.863613 0.404004
-6231.751465 -5511.199707 -4444.911133 0.055208 0.840907 0.538347
-6396.474121 -5496.875000 -4348.226562 0.427869 0.783868 0.449934
-6183.674805 -5448.385254 -4571.902832 -0.644978 0.761773 0.060610
-6180.451172 -5409.077637 -4493.293457 -0.646046 0.580340 0.495773
-6147.832031 -5351.608398 -4478.276855 -0.778283 0.477248 0.407971
-5696.101562 -5580.790039 -3840.860352 -0.695791 0.715964 0.056825
-5711.460449 -5560.442383 -3979.367676 -0.400739 0.883877 0.241096
-5691.701660 -5515.647461 -4059.039062 -0.781976 0.554369 0.284829
-5818.644043 -5504.714844 -4140.275391 -0.203223 0.885403 0.417982
-5930.677246 -5554.520508 -4074.055176 -0.089694 0.967742 0.235389
-5694.726562 -5462.245605 -4160.864258 -0.771081 0.570421 0.282846
-6058.306152 -5508.754395 -4433.302246 -0.070132 0.918210 0.389782
-5891.645020 -5463.308105 -4264.060059 -0.337138 0.905484 0.257729
-5946.480957 -5475.566895 -4482.200195 0.080111 0.635548 0.767846
-5970.009766 -5424.690430 -4408.211426 0.165380 -0.847804 0.503830
-6058.726074 -5429.641113 -4483.654785 -0.255104 -0.411664 0.874874
-6061.587891 -5265.370117 -4438.743164 -0.780572 0.556444 -0.284646
-6033.478027 -5224.332520 -4408.630371 -0.052431 0.815577 -0.576250
-5891.977539 -5259.197754 -4422.054199 0.113010 0.990722 -0.075228
-6005.859863 -5330.755859 -4243.448242 -0.023774 -0.920927 0.388928
-6063.729004 -5275.327637 -4149.957520 -0.331034 -0.934172 0.133091
-6050.976074 -5359.260742 -4343.001465 -0.750847 -0.559679 0.350658
-6132.437012 -5250.895508 -4076.593506 -0.613697 -0.427381 0.663839
-6173.215820 -5258.674805 -4209.161133 -0.535417 -0.842097 0.064516
-6135.652832 -5257.214355 -4367.377441 -0.531358 -0.573199 -0.623737
-6176.420898 -5227.500000 -4335.923340 -0.856349 0.179083 -0.484268
-6195.309570 -5206.603027 -4198.212891 -0.887051 0.442274 0.132237
-5817.091797 -5418.123047 -4357.106934 -0.376446 0.920042 0.108524
-5815.410156 -5401.829102 -4476.080566 -0.825312 0.360668 0.434431
-5862.685059 -5442.107422 -4591.684570 -0.104282 0.215979 0.970794
-5689.811523 -5392.953125 -4292.120605 -0.845271 0.481338 0.231910
-5836.838867 -5366.105957 -4494.194336 -0.209204 -0.757805 0.618000
-5894.749023 -5391.593750 -4488.378418 0.587725 -0.677572 0.442030
-5694.609863 -5388.580078 -4362.310059 -0.853755 0.368816 0.367473
-5691.020996 -5277.354492 -4319.844238 -0.962249 0.183752 0.200690
-5729.924805 -5295.751953 -4340.920898 -0.338328 0.399853 0.851833
-5714.297852 -5282.871094 -4460.601074 -0.426801 0.895260 0.127750
-5702.014648 -5041.515625 -4741.557129 -0.666341 -0.680441 0.304849
-5689.169922 -5107.568848 -4425.275391 -0.998321 -0.053255 0.021943
-5695.089844 -5247.694336 -4523.901367 -0.911191 0.368725 0.183630
-5701.367676 -5145.501465 -4497.145020 -0.986267 -0.017182 0.164159
-5835.282715 -5133.763672 -4865.409180 0.109500 0.391308 0.913694
-5885.175781 -5118.942871 -4774.123535 0.751823 -0.152074 0.641530
-5826.727051 -5167.977539 -4786.437500 -0.126743 0.582995 0.802484
-5710.307617 -5147.067383 -4795.757324 -0.680960 0.430616 0.592303
-5777.334961 -5331.375977 -4419.475098 -0.302622 -0.758049 0.577685
-5720.593750 -5172.164062 -4638.468262 -0.869533 0.451704 0.199500
-5731.367676 -5245.635742 -4656.343750 -0.779199 0.484787 0.397229
-5758.007324 -5261.940430 -4644.660645 -0.242958 0.960906 0.132572
-6018.097168 -5263.203613 -4744.054199 -0.058199 0.972015 0.227485
-5692.150879 -5150.068848 -4688.781250 -0.882199 0.464400 0.077486
-5979.109375 -5042.871582 -4727.638184 -0.640248 -0.759636 -0.113956
-6593.213379 -5037.720703 -4566.019531 0.477371 -0.874599 0.084536
-5859.706543 -5301.796875 -4268.474121 0.368511 -0.817377 0.442793
-5766.927734 -5267.752441 -4312.334473 0.525864 0.610797 0.591876
-5909.356445 -5334.683105 -4333.300781 0.349925 -0.863155 0.363994
-5895.485352 -5039.230957 -4672.556152 0.370006 -0.911557 0.179205
-5890.903320 -5045.342773 -4851.709961 0.540757 -0.495376 0.679800
-5835.231934 -5248.988281 -4797.619141 -0.550707 0.491623 0.674520
-6307.025879 -5565.247070 -4009.302490 -0.069521 0.972228 0.223457
-6071.561035 -5561.143555 -4099.551758 -0.068880 0.991760 0.107883
-5873.282227 -5587.009277 -3923.954834 -0.093051 0.965239 0.244209
-5874.440430 -5565.486328 -3969.543945 -0.053377 0.955351 0.290536
-5952.399902 -5511.174805 -4198.464355 -0.247505 0.925687 0.285989
-6200.887207 -5541.640137 -4191.784668 -0.021729 0.968291 0.248848
-5887.325684 -5510.377441 -2696.716553 -0.427137 -0.421583 -0.799829
-5888.880371 -5269.921387 -4203.490234 0.879696 0.062655 0.471328
-5931.070801 -5256.273926 -4861.944824 0.078158 0.369945 0.925748
-5961.279297 -5613.959961 -2618.867432 -0.322001 0.156621 -0.933683
-6021.706055 -5043.404297 -2994.643311 -0.134465 -0.879421 -0.456618
-5895.817871 -5042.625000 -3039.286621 -0.319865 -0.826075 -0.463912
-5972.554688 -5293.386719 -4149.222168 0.187353 -0.874325 0.447645
-6107.244629 -5467.674316 -2655.260742 -0.244087 -0.498337 -0.831874
-6470.117188 -5632.728027 -2964.449951 0.640614 0.726005 -0.249947
-6382.904297 -5631.330566 -2741.544922 0.687399 0.667714 -0.285653
-6234.768066 -5635.181641 -3160.315918 0.002716 0.955077 0.296243
-6432.758789 -5579.667969 -3292.701416 0.008087 0.820948 0.570910
-6468.654785 -5543.167480 -3374.219238 0.121769 0.955657 0.268044
-6576.354004 -5474.864746 -3386.460938 0.783288 0.621448 0.015625
-6537.687012 -5566.833008 -3269.806641 0.594348 0.718467 0.361217
-6608.041504 -5483.662109 -3507.751709 0.969024 0.064150 -0.238350
-6634.314453 -5410.863281 -3532.954590 0.983795 0.135075 -0.117832
-6437.688965 -5513.906738 -3415.251709 -0.178076 0.948790 0.260811
-6613.633789 -5528.232910 -3520.240479 0.632649 0.741447 -0.223579
-6567.445312 -5519.546387 -3572.385254 -0.108768 0.993866 0.019135
-6647.972168 -5533.948730 -3632.270752 0.622944 0.770318 -0.135929
-6186.457031 -5464.482422 -3365.025635 -0.250649 0.799463 0.545885
-6340.689941 -5498.882812 -3414.317871 -0.292306 0.906949 0.303201
-6216.716797 -5579.446777 -3218.071289 -0.010346 0.729972 0.683370
-6128.185547 -5629.361328 -3338.470215 0.861599 0.488601 -0.137303
-6087.691406 -5542.786621 -3330.844482 0.928861 -0.169408 0.329356
-6134.523438 -5552.028809 -3253.719727 0.426191 0.568285 0.703818
-6103.367676 -5489.933594 -3321.735107 0.383251 0.538560 0.750359
-6079.261719 -5384.579590 -3430.471191 -0.033448 0.749107 0.661550
-6277.842285 -5440.699707 -3490.499268 -0.529557 0.848231 -0.002075
-6236.291992 -5407.919922 -3549.751709 -0.785302 0.611530 -0.096438
-6249.534668 -5474.912109 -3552.028076 -0.453108 -0.138066 -0.880673
-6150.283203 -5484.178711 -3564.759521 0.149632 -0.761986 -0.630055
-6241.704102 -5593.164062 -3479.264893 0.578326 -0.187841 -0.793847
-6027.426270 -5445.286133 -3410.702393 0.853511 0.013642 0.520859
-6032.490723 -5383.533203 -3650.242676 0.451796 -0.780084 -0.432783
-6046.528320 -5482.193848 -3477.764160 0.687063 -0.687918 -0.233741
-5922.174805 -5180.866211 -3897.859375 0.912595 0.196081 -0.358684
-5927.251465 -5275.539551 -3703.935791 0.829035 -0.519486 -0.206854
-5990.941406 -5262.559082 -3854.410156 0.440046 -0.848994 -0.292428
-5976.528320 -5165.906738 -3683.782227 -0.120060 0.925260 0.359783
-6117.897461 -5252.252930 -3726.508545 -0.768609 0.627216 0.125736
-6053.227051 -5271.111328 -3588.448730 -0.421461 0.775170 0.470565
-5909.036133 -5174.798828 -3685.323486 0.735954 0.615680 0.281533
-5919.891113 -5256.922852 -3608.278076 0.856746 0.210273 0.470870
-5952.504883 -5191.350098 -4125.265137 0.567522 0.786126 0.244667
-5966.178223 -5238.028809 -4069.046387 0.540941 -0.206458 0.815302
-6057.109375 -5189.786133 -4038.783691 -0.080447 0.496689 0.864162
-5978.577637 -5190.172363 -4258.150391 0.323038 0.941649 -0.094455
-5983.638184 -5114.510254 -4674.813965 -0.494247 -0.857723 0.141484
-5953.852539 -5342.384766 -3583.498047 0.890286 -0.449477 0.072817
-6117.206055 -5282.184570 -3809.701904 -0.861629 -0.332865 -0.383068
-6064.897461 -5285.670898 -3843.828369 0.020051 -0.926115 -0.376629
-6110.085938 -5384.563965 -3682.106689 -0.006104 -0.802820 -0.596149
-5984.689453 -5157.059082 -3949.417480 0.201422 0.814753 -0.543626
-6001.165527 -5097.052246 -4572.628906 -0.499588 -0.843471 0.197272
-5955.256348 -5129.312988 -4746.083496 -0.468429 -0.659932 0.587390
-5956.170410 -5060.321289 -4872.037109 -0.881710 -0.283822 0.376843
-6080.976562 -5229.888672 -4809.931152 -0.396588 0.597095 0.697256
-6285.200195 -5521.480469 -2587.145508 0.315806 -0.408368 -0.856410
-6303.033203 -5628.942383 -2556.057129 0.403333 0.470870 -0.784570
-6349.144043 -5478.611816 -2687.545654 0.839900 -0.259896 -0.476424
-6331.186035 -5630.944336 -2613.663086 0.684408 0.654592 -0.320994
-6178.342773 -5342.296387 -3635.237061 -0.837336 0.543840 -0.055300
-6141.656738 -5353.922363 -3530.328857 -0.491989 0.762444 0.420209
-5999.489258 -5312.086914 -3510.528809 0.350719 0.643391 0.680441
-5973.925293 -5373.973633 -3500.001953 0.927641 -0.058168 0.368877
-6045.981934 -5164.728516 -3809.235596 -0.409894 0.907376 0.092898
-6058.949219 -5238.891602 -3985.079346 -0.148167 -0.471236 -0.869442
-5988.529785 -5207.396484 -3971.880371 0.475356 -0.212775 -0.853664
-6090.864746 -5202.582031 -3967.858154 -0.726768 0.347758 -0.592303
-6040.317383 -5246.062988 -4771.113770 -0.138127 0.614978 0.776330
-6226.804688 -5054.520996 -2921.320068 0.133213 -0.804865 -0.578265
-6317.157715 -5038.964355 -3032.342529 0.394055 -0.865230 -0.309946
-6100.152832 -5189.766602 -4300.832520 -0.138676 0.968902 -0.204840
-6001.046875 -5086.940918 -4909.564941 -0.545213 0.397870 0.737815
-6069.000977 -5314.658203 -4438.005371 -0.847835 0.483902 0.216773
-6071.187012 -5298.333984 -4707.881348 -0.522385 0.811823 0.260781
-6138.036621 -5371.998535 -4644.668457 -0.628010 0.734733 0.256386
-6035.264648 -5040.728027 -4932.004395 -0.315134 -0.613392 0.724143
-6157.942383 -5365.986328 -3686.864014 -0.663594 -0.433760 -0.609455
-6167.243164 -5590.577637 -3934.750732 -0.048189 0.938902 0.340709
-6212.103027 -5437.332031 -4482.955566 -0.329600 0.832606 0.445051
-6157.500000 -5075.678223 -4959.154297 -0.021210 0.089053 0.995788
-6153.225098 -5588.699707 -2577.558594 -0.196417 -0.147862 -0.969298
-6163.864746 -5156.140625 -2860.367432 -0.178350 -0.606098 -0.775109
-6270.833984 -5560.815918 -4153.144531 0.000427 0.963591 0.267312
-6273.077148 -5612.265137 -3884.734863 -0.034516 0.953154 0.300394
-6406.099121 -5608.559082 -3948.143799 -0.083560 0.976592 0.198065
-6425.760742 -5609.645996 -3855.632080 0.568682 0.804010 -0.173589
-6524.459473 -5611.581055 -4015.781738 0.170293 0.946196 0.275094
-6544.934082 -5607.357910 -3939.060303 0.385418 0.814020 -0.434462
-6362.022461 -5505.711914 -3522.113281 -0.118046 0.897153 -0.425611
-6266.676758 -5429.159180 -4691.054688 -0.098758 0.768761 0.631825
-6274.456543 -5042.493164 -4939.913574 0.296854 -0.497818 0.814875
-6324.291992 -5540.372070 -3535.723633 0.345134 0.184301 -0.920255
-6486.241699 -5334.639648 -4568.250488 0.711112 0.538774 0.451643
-6385.346680 -5396.383301 -4659.800781 0.606983 0.576403 0.547075
-6436.940430 -5223.791016 -4711.701660 0.677236 0.413526 0.608509
-6282.187012 -5494.807617 -4554.919922 -0.041902 0.998901 -0.020234
-6305.000977 -5463.577637 -4469.204102 0.230262 0.957305 0.174596
-6390.917969 -5424.644531 -4428.448242 0.453383 0.852626 0.259682
-6284.067383 -5171.594238 -2852.098389 0.466170 -0.581744 -0.666494
-6440.401855 -5194.148926 -3061.768066 0.772759 -0.395795 -0.496109
-6324.968262 -5474.178711 -4628.872559 0.274026 0.873623 0.402051
-6329.121582 -5291.196289 -4793.810547 0.391095 0.517899 0.760765
-6417.557129 -5633.366699 -3820.392578 0.688314 0.724631 -0.032746
-6436.977051 -5624.273438 -2869.919922 0.910733 0.185430 -0.368938
-6420.923828 -5042.070801 -3171.236328 0.452010 -0.841853 -0.294778
-6450.855957 -5638.026367 -3232.305420 0.128300 0.904599 0.406415
-6360.216797 -5633.840820 -3723.454590 0.457503 0.885525 -0.080416
-6524.940430 -5566.419434 -4101.895996 0.267891 0.864956 0.424268
-6549.794434 -5457.343750 -4235.869141 0.615925 0.604205 0.505478
-6610.550293 -5536.242188 -4049.020996 0.731162 0.571154 0.373058
-6630.709961 -5353.768066 -3882.593750 0.983734 -0.176763 -0.031556
-6623.255859 -5333.986816 -4104.711426 0.981872 0.089419 0.167089
-6637.374512 -5261.823730 -4132.519043 0.961058 0.103030 0.256355
-6577.972656 -5111.192871 -3694.111084 0.956999 -0.277108 0.085574
-6539.199219 -5039.348633 -3718.921875 0.330363 -0.942778 0.044404
-6609.635254 -5049.615723 -3644.330811 0.788232 -0.577776 0.211707
-6604.994141 -5056.978516 -4587.745117 0.905362 -0.263649 0.332835
-6409.236328 -5564.832520 -3620.418945 0.565386 0.754753 -0.332652
-6412.349121 -5546.749023 -3803.412109 0.723289 0.636372 -0.268014
-6442.181641 -5410.152344 -4511.129883 0.531907 0.826563 0.183966
-6567.467285 -5254.980469 -4522.789062 0.829890 0.417249 0.370373
-6492.328613 -5420.857910 -3002.512207 0.882565 -0.160039 -0.442061
-6491.650879 -5305.475586 -3071.458252 0.841090 -0.284585 -0.459944
-6518.321777 -5517.960938 -3627.870605 0.117924 0.992187 -0.040559
-6493.580566 -5039.988770 -3310.451172 0.509537 -0.835292 -0.206427
-6546.666016 -5038.957520 -3469.599609 0.510269 -0.843715 -0.166540
-6525.896973 -5540.590332 -3921.733643 0.267495 0.604724 -0.750145
-6523.215820 -5512.146973 -3855.264893 0.089022 0.970153 -0.225440
-6524.786133 -5630.753418 -3119.585938 0.665365 0.739769 -0.100070
-6502.010254 -5126.014160 -3217.972900 0.818354 -0.408094 -0.404584
-6540.761230 -5208.206055 -4605.434082 0.762108 0.397778 0.510758
-6614.803711 -5560.993652 -3929.658936 0.440626 0.871578 -0.214850
-6611.602051 -5523.244141 -3784.350830 -0.123844 0.991882 -0.028535
-6661.588867 -5387.686035 -4020.631836 0.959227 -0.193365 0.206030
-6562.008301 -5139.029297 -3368.339844 0.871609 -0.380505 -0.308939
-6660.368652 -5524.348145 -3966.155762 0.868831 0.470534 0.153874
-6607.743652 -5304.062500 -3329.967529 0.969604 -0.116550 -0.215094
-6659.353516 -5453.988281 -3660.213379 0.933622 -0.288156 -0.212806
-6600.267090 -5044.608887 -3848.314209 0.554735 -0.819819 -0.141728
-6607.917480 -5454.498535 -3337.729248 0.951323 0.307688 0.016572
-6610.361328 -5046.245605 -4179.398438 0.633992 -0.760613 0.139653
-6659.961914 -5416.769043 -3818.135986 0.952635 -0.293069 -0.081088
-6591.515625 -5301.224609 -4297.781738 0.968291 0.171667 0.181433
-6609.329590 -5289.382812 -4179.645508 0.973083 0.040498 0.226783
-6611.805664 -5200.062012 -4455.010742 0.964446 0.218482 0.148564
-6636.090820 -5145.678223 -3818.786621 0.965941 -0.216803 -0.141087
-6619.643066 -5398.278809 -3684.524414 0.988830 -0.134007 -0.064974
-6608.705566 -5228.558594 -4256.306152 0.995941 0.083651 0.032594
-6633.912109 -5062.458984 -3981.922363 0.862026 -0.506058 -0.027161
-6634.096680 -5054.788574 -4142.072754 0.816889 -0.546007 0.185827
-6636.863770 -5343.962891 -3699.695801 0.989685 0.141911 0.019379
3 0 1 2
3 3 4 5
3 6 7 8
3 6 8 9
3 9 10 6
3 6 10 11
3 12 13 14
3 15 16 17
3 18 19 20
3 21 22 23
3 21 1 22
3 21 24 1
3 25 21 26
3 26 23 27
3 28 23 22
3 28 22 29
3 28 29 30
3 31 32 33
3 34 35 36
3 37 38 39
3 39 40 41
3 42 43 44
3 21 25 24
3 45 25 46
3 46 25 26
3 25 45 24
3 47 45 46
3 48 24 49
3 4 50 51
3 4 51 5
3 52 13 53
3 54 55 47
3 24 45 56
3 24 56 49
3 49 56 50
3 50 56 57
3 50 57 58
3 50 58 51
3 59 60 61
3 62 63 64
3 65 63 66
3 65 66 67
3 68 69 70
3 45 55 56
3 1 24 2
3 55 71 56
3 72 73 74
3 72 74 75
3 71 55 73
3 71 73 72
3 73 76 74
3 77 78 79
3 79 80 81
3 82 83 84
3 85 86 87
3 88 89 90
3 91 89 92
3 91 83 90
3 90 83 82
3 74 76 78
3 73 55 76
3 93 94 95
3 78 76 96
3 97 98 95
3 93 96 99
3 55 96 76
3 55 100 96
3 101 100 102
3 54 103 55
3 55 104 105
3 55 105 100
3 100 105 102
3 104 106 105
3 55 103 104
3 107 108 109
3 107 110 103
3 96 100 101
3 96 101 99
3 94 99 97
3 97 99 111
3 106 112 105
3 105 112 113
3 102 105 114
3 114 115 84
3 104 112 106
3 104 116 112
3 104 103 116
3 117 14 118
3 103 110 116
3 55 45 47
3 119 101 120
3 119 121 111
3 109 110 107
3 122 108 123
3 1 0 22
3 22 0 29
3 29 0 2
3 21 23 26
3 53 27 52
3 4 24 48
3 2 24 4
3 54 13 103
3 103 13 122
3 120 101 114
3 114 101 102
3 99 94 93
3 101 111 99
3 105 113 114
3 112 124 113
3 116 110 112
3 26 27 53
3 53 46 26
3 47 46 53
3 54 47 13
3 48 49 50
3 125 72 75
3 125 75 126
3 56 71 57
3 57 71 127
3 57 127 58
3 128 127 71
3 128 71 72
3 75 129 126
3 126 62 130
3 129 74 78
3 78 96 93
3 101 119 111
3 111 121 97
3 114 113 124
3 123 103 122
3 123 108 107
3 103 123 107
3 27 23 131
3 132 120 84
3 120 114 84
3 124 109 108
3 124 112 109
3 109 112 110
3 131 36 52
3 52 36 35
3 13 47 53
3 94 97 95
3 114 124 133
3 131 23 28
3 131 28 134
3 29 2 4
3 131 52 27
3 135 35 34
3 136 13 52
3 13 12 122
3 74 129 75
3 120 132 119
3 119 132 137
3 119 137 85
3 119 85 121
3 78 93 95
3 78 95 79
3 97 121 98
3 98 121 80
3 108 133 124
3 36 131 134
3 36 134 138
3 139 140 30
3 13 136 135
3 30 29 141
3 142 143 144
3 142 144 145
3 144 146 147
3 143 148 149
3 149 150 151
3 152 153 154
3 29 155 156
3 157 156 158
3 152 159 160
3 160 159 161
3 162 163 164
3 158 156 165
3 163 166 167
3 29 4 155
3 168 169 170
3 171 172 173
3 169 174 175
3 62 77 63
3 132 176 177
3 177 176 178
3 177 178 88
3 137 132 177
3 84 179 132
3 132 179 176
3 180 108 122
3 135 52 35
3 169 175 181
3 182 183 184
3 174 169 168
3 174 168 185
3 129 77 62
3 137 86 85
3 98 79 95
3 115 114 133
3 122 186 180
3 187 188 189
3 190 191 192
3 192 191 193
3 135 136 52
3 171 175 174
3 173 194 195
3 181 175 196
3 181 196 197
3 174 185 198
3 174 198 171
3 182 199 183
3 183 199 170
3 200 168 170
3 200 199 185
3 185 199 201
3 185 168 200
3 186 12 14
3 176 179 178
3 179 84 83
3 85 87 80
3 85 80 121
3 80 79 98
3 122 12 186
3 108 180 187
3 187 133 108
3 202 187 189
3 134 28 30
3 135 203 204
3 167 197 165
3 175 171 196
3 196 171 173
3 169 181 166
3 169 166 183
3 201 199 182
3 179 83 205
3 205 83 91
3 80 87 81
3 180 117 187
3 189 188 206
3 202 133 187
3 117 188 187
3 193 30 140
3 34 36 37
3 197 167 181
3 181 167 166
3 129 78 77
3 69 81 70
3 207 208 209
3 84 115 82
3 82 208 207
3 82 115 208
3 117 180 14
3 14 180 186
3 202 115 133
3 117 210 188
3 165 197 196
3 196 173 159
3 182 184 211
3 171 198 172
3 183 170 169
3 127 128 212
3 170 199 200
3 198 185 201
3 137 88 86
3 177 88 137
3 126 129 62
3 77 79 213
3 77 213 66
3 117 118 210
3 18 189 214
3 188 210 206
3 206 210 214
3 138 134 215
3 215 134 30
3 216 34 37
3 13 135 204
3 159 165 196
3 165 159 158
3 159 173 195
3 4 48 50
3 172 198 201
3 126 130 217
3 58 127 212
3 179 205 178
3 178 205 92
3 70 81 87
3 208 20 209
3 208 115 202
3 135 34 203
3 156 167 165
3 155 4 3
3 173 172 194
3 166 184 183
3 172 201 182
3 128 72 125
3 128 125 212
3 86 82 87
3 87 82 207
3 213 81 69
3 202 189 20
3 189 206 214
3 37 36 138
3 203 34 216
3 14 13 118
3 157 158 152
3 167 156 155
3 184 166 163
3 184 163 211
3 211 163 162
3 218 219 220
3 219 221 222
3 58 212 51
3 86 88 82
3 82 88 90
3 87 207 70
3 79 81 213
3 207 209 70
3 70 209 68
3 189 18 20
3 138 215 38
3 215 30 191
3 156 157 29
3 158 159 152
3 223 153 160
3 212 125 218
3 91 90 89
3 63 77 66
3 209 20 224
3 208 202 20
3 210 225 214
3 38 37 138
3 155 164 167
3 159 195 161
3 155 3 164
3 164 226 162
3 162 226 223
3 167 164 163
3 194 172 182
3 194 182 211
3 178 92 88
3 227 228 229
3 210 118 225
3 216 37 39
3 157 154 29
3 195 194 161
3 88 92 89
3 205 91 92
3 69 68 213
3 209 224 68
3 190 215 191
3 29 154 141
3 218 51 212
3 68 224 230
3 231 230 232
3 68 230 213
3 38 215 190
3 203 216 233
3 233 216 39
3 233 39 41
3 152 154 157
3 162 161 211
3 194 211 161
3 39 38 40
3 234 204 233
3 154 148 142
3 142 148 143
3 164 3 5
3 164 5 226
3 213 231 66
3 230 224 235
3 20 236 224
3 20 19 236
3 30 193 191
3 40 38 190
3 233 204 203
3 152 160 153
3 160 161 162
3 160 162 223
3 51 218 237
3 237 218 220
3 130 62 64
3 230 231 213
3 18 17 19
3 225 17 214
3 214 17 18
3 43 140 238
3 218 125 219
3 125 126 217
3 65 130 64
3 66 231 67
3 228 224 236
3 42 192 43
3 40 190 192
3 41 40 192
3 41 192 42
3 13 204 239
3 240 141 154
3 154 153 148
3 241 5 51
3 125 242 219
3 242 65 243
3 243 61 244
3 245 246 247
3 248 249 250
3 242 125 217
3 230 235 232
3 15 251 16
3 235 224 228
3 118 15 225
3 41 42 233
3 226 5 252
3 226 252 223
3 5 241 252
3 252 241 253
3 253 241 237
3 241 51 237
3 232 254 60
3 60 227 255
3 231 232 67
3 15 118 251
3 236 19 17
3 192 193 140
3 192 140 43
3 256 139 31
3 42 257 234
3 154 142 240
3 148 153 223
3 236 229 228
3 238 140 139
3 30 141 240
3 234 233 42
3 204 234 239
3 223 252 258
3 220 253 237
3 130 65 217
3 63 65 64
3 254 232 235
3 254 235 228
3 236 17 229
3 225 15 17
3 43 238 44
3 13 239 259
3 259 260 13
3 252 253 258
3 253 220 261
3 253 261 262
3 67 232 59
3 17 16 229
3 256 44 139
3 257 42 44
3 67 243 65
3 227 254 228
3 238 139 44
3 44 256 257
3 263 139 30
3 263 30 240
3 239 234 264
3 264 259 239
3 240 142 145
3 223 258 148
3 242 217 65
3 67 59 243
3 232 60 59
3 229 265 227
3 234 257 264
3 260 249 13
3 258 253 262
3 262 266 267
3 261 220 222
3 246 268 244
3 222 220 219
3 221 219 242
3 60 254 227
3 139 263 31
3 257 33 264
3 264 33 269
3 31 257 256
3 259 264 269
3 257 31 33
3 263 240 145
3 259 269 260
3 267 270 151
3 227 265 255
3 265 229 16
3 263 32 31
3 32 263 145
3 271 11 269
3 144 143 149
3 144 149 146
3 260 250 249
3 149 148 150
3 150 148 258
3 150 258 262
3 267 266 270
3 151 270 272
3 262 261 266
3 261 222 266
3 249 273 13
3 243 59 61
3 33 32 274
3 274 32 145
3 274 145 144
3 33 271 269
3 10 8 250
3 150 262 267
3 249 248 273
3 13 275 118
3 270 276 272
3 222 221 266
3 266 221 244
3 244 242 243
3 242 244 221
3 61 277 278
3 251 279 255
3 255 279 277
3 255 277 60
3 251 255 265
3 265 16 251
3 33 274 271
3 260 269 11
3 11 250 260
3 250 8 248
3 151 150 267
3 248 7 280
3 272 276 281
3 13 273 275
3 266 244 270
3 278 277 282
3 277 61 60
3 271 274 6
3 6 274 144
3 6 144 147
3 11 271 6
3 7 6 147
3 250 11 10
3 10 9 8
3 147 146 281
3 146 149 272
3 272 149 151
3 8 7 248
3 273 248 280
3 246 244 61
3 283 280 247
3 273 280 283
3 278 275 284
3 278 284 247
3 273 283 275
3 275 283 284
3 278 246 61
3 275 282 279
3 275 278 282
3 282 277 279
3 118 275 251
3 251 275 279
3 7 147 285
3 285 147 281
3 272 281 146
3 280 7 247
3 7 285 247
3 285 245 247
3 285 281 245
3 245 281 276
3 246 245 268
3 244 268 270
3 283 247 284
3 246 278 247
3 245 276 268
3 276 270 268
