ply
format ascii 1.0
comment Created by Blender 2.80 (sub 75) - www.blender.org, source file: 'color_and_decimate.blend'
element vertex 205
property float x
property float y
property float z
property float nx
property float ny
property float nz
element face 410
property list uchar uint vertex_indices
end_header
-7306.131348 -6177.385254 -3957.604492 0.813929 0.116153 0.569201
-7365.673828 -6184.748535 -3942.339844 0.009491 0.899869 0.436018
-7352.490234 -6231.311035 -3923.948486 0.578906 0.802789 0.142613
-7436.455566 -6224.038574 -4060.214111 0.950591 0.179022 -0.253609
-6539.261719 -6237.416016 -4779.604492 -0.230018 0.966643 -0.112491
-6339.335449 -6229.359863 -5118.467285 -0.644917 0.700003 -0.306619
-6460.017090 -6231.216309 -5225.076172 -0.114811 0.765984 0.632466
-6282.014160 -6078.199707 -5230.063477 -0.816126 -0.540391 0.204657
-6250.985352 -6230.905273 -5309.834473 -0.642415 0.543504 0.540239
-6317.464355 -6069.115723 -5231.891113 0.175237 -0.691275 0.700980
-6270.590820 -6185.158203 -5312.776855 -0.239082 -0.292093 0.925993
-6324.332031 -6024.203613 -5148.912598 -0.611652 -0.785668 0.092502
-7139.420410 -6237.254395 -4695.146973 0.012177 0.999817 -0.014405
-7431.221680 -6232.560059 -4256.375488 0.927183 0.341441 0.153966
-6352.206543 -5992.448242 -5094.719727 -0.666646 -0.724326 0.175665
-6379.458984 -5950.695801 -5035.797852 -0.801599 -0.563738 0.198950
-6445.355957 -6219.523926 -4898.649902 -0.794214 0.452498 -0.405469
-6431.096191 -5917.989258 -4926.256836 -0.918546 -0.084567 -0.386151
-6728.512207 -5930.349121 -5075.369141 -0.107852 -0.644032 0.757317
-6691.214844 -5841.228027 -5002.169922 0.087863 -0.854488 0.511948
-6796.500000 -5871.791992 -4997.629395 0.081179 -0.801935 0.591815
-6819.899902 -5946.109375 -5109.453125 -0.102756 -0.709128 0.697531
-6952.256836 -5867.295410 -5025.745117 0.249916 -0.851009 0.461837
-6958.884766 -6023.649902 -5189.634766 0.162481 -0.575060 0.801782
-6979.933105 -6122.472656 -5228.238770 0.120884 -0.408399 0.904752
-7107.429688 -6181.839355 -5226.871582 0.546648 -0.256111 0.797204
-6891.035156 -6215.194336 -5285.335938 0.094394 0.204901 0.974212
-6383.417480 -6076.561523 -5188.328613 0.233985 -0.629322 0.741050
-6945.214355 -5973.283203 -3886.848145 -0.901089 -0.024171 -0.432936
-6882.763184 -6232.205078 -4008.277344 -0.625813 0.709372 -0.324168
-6954.302246 -6230.058105 -3862.484375 -0.657979 0.689688 -0.302225
-6880.489258 -6032.206543 -4012.413086 -0.895321 -0.013703 -0.445204
-6919.063965 -5776.468262 -3951.932617 -0.685842 -0.623493 -0.375256
-6830.883301 -5779.540039 -4126.867676 -0.770806 -0.527116 -0.357707
-6974.191895 -5760.534180 -4008.718018 -0.008637 -0.995636 -0.092868
-7029.312988 -5761.726074 -3846.808350 0.056124 -0.975433 -0.212867
-7008.368164 -5760.427734 -4273.006348 0.252174 -0.967650 0.006745
-7137.382812 -5816.331055 -4060.819824 0.501419 -0.857418 -0.115757
-7153.792480 -5820.226074 -4355.536133 0.521409 -0.829310 0.200781
-7055.315918 -5772.509766 -4406.324707 0.390912 -0.913907 0.109256
-6527.033691 -6219.578613 -4734.525879 -0.775842 0.500229 -0.384411
-6523.373047 -5869.412109 -4741.038086 -0.897885 -0.159978 -0.410047
-6421.994141 -5879.840820 -5008.996094 -0.798120 -0.104587 0.593310
-6414.642090 -5819.700684 -4997.366699 -0.758599 -0.619739 0.200995
-6572.930176 -5918.315430 -5014.749023 -0.203803 -0.071230 0.976409
-7345.155273 -6160.533203 -4092.800537 -0.151982 -0.378277 -0.913114
-7279.296387 -6159.271973 -3987.518555 0.346355 -0.372173 0.861080
-6663.836426 -6183.919434 -4452.690918 -0.897031 0.017182 -0.441572
-6598.771484 -6219.968262 -4589.973633 -0.829371 0.405194 -0.384625
-6704.651367 -6232.594727 -4375.344727 -0.627461 0.711997 -0.315165
-6619.199707 -5976.202637 -5061.300781 -0.183020 -0.637776 0.748131
-6544.541504 -5857.040527 -5039.244141 0.094577 -0.298349 0.949736
-6587.222656 -5819.320312 -4613.663574 -0.905789 -0.162694 -0.391217
-6562.338867 -5819.456543 -4899.408691 0.022553 -0.990020 0.139042
-6489.336914 -5829.191895 -5062.355469 0.015839 -0.363994 0.931242
-6537.720215 -6101.542969 -5211.774414 -0.010895 -0.682699 0.730583
-6634.612305 -6051.108398 -5146.377930 -0.095492 -0.747398 0.657460
-6539.302246 -6143.728516 -5242.389648 -0.158422 -0.512345 0.844020
-6511.442871 -6195.220215 -5275.525879 -0.512680 -0.196265 0.835810
-6527.509766 -5811.722168 -4789.385254 -0.585315 -0.802393 -0.116398
-6639.210938 -5775.248535 -4512.213867 -0.691336 -0.618091 -0.374096
-6589.968262 -6234.269531 -5289.210938 -0.074557 0.590472 0.803583
-6690.998047 -5782.834961 -4407.135742 -0.746025 -0.525986 -0.408338
-6725.485352 -6116.079102 -4336.166016 -0.900967 -0.061403 -0.429456
-6807.130371 -6221.608398 -4155.581543 -0.889676 0.151372 -0.430708
-7096.286133 -6237.205566 -5234.699219 0.382916 0.635945 0.670003
-6826.517090 -6054.750000 -4126.162109 -0.902799 -0.022217 -0.429426
-6772.778320 -6100.208984 -4235.321289 -0.902768 -0.018616 -0.429670
-6578.975098 -5754.113770 -4703.819336 -0.520585 -0.851558 0.061464
-6775.312012 -6080.374023 -5204.354004 -0.071322 -0.585803 0.807276
-6761.672852 -6194.375488 -5280.107422 0.000977 -0.403119 0.915128
-6613.415527 -5736.481934 -4623.683594 -0.283792 -0.958251 -0.034303
-6717.309082 -5807.947754 -4866.376465 -0.043916 -0.969329 0.241737
-6875.348145 -5814.910645 -4898.465820 0.038331 -0.918271 0.394086
-6749.965332 -5789.435059 -4290.495117 -0.776482 -0.503525 -0.378796
-6677.972656 -5759.137207 -4583.764648 0.029084 -0.990020 -0.137761
-6790.624023 -5774.296387 -4753.340820 -0.065310 -0.969054 0.237983
-6977.885742 -5766.659668 -4676.227051 0.438948 -0.888607 0.132878
-6966.371582 -5761.306641 -4555.446289 0.371624 -0.925565 0.072024
-7080.743652 -5825.222656 -4546.744141 0.590503 -0.784692 0.188513
-7069.440918 -6236.740234 -3634.469238 -0.623096 0.718863 -0.308115
-7381.051758 -6234.837402 -3808.898926 0.008637 0.996948 0.077273
-7554.151855 -6235.565430 -3706.496826 0.456740 0.780541 -0.426679
-7078.873047 -5945.246094 -3607.316650 -0.633686 -0.378979 -0.674337
-7135.063477 -6037.383301 -3495.701660 -0.644368 -0.426038 -0.634999
-7151.660156 -5982.559082 -3557.860107 0.210608 -0.787439 -0.579272
-7207.323242 -5915.619141 -3973.864502 0.614124 -0.767907 -0.181951
-7260.808594 -5962.562988 -3864.802734 0.459334 -0.874111 -0.157720
-7313.550293 -5956.152832 -3984.408447 0.220740 -0.951842 -0.212622
-7315.275391 -5917.302246 -4123.372070 0.487808 -0.868648 -0.086276
-7437.822266 -5966.205566 -4099.781738 0.441816 -0.891995 0.095248
-7375.529785 -5969.670410 -4273.286621 0.504654 -0.832759 0.227546
-7305.900391 -5929.022949 -4264.323730 0.593860 -0.785180 0.175451
-6753.313965 -5757.294434 -4558.704102 -0.124546 -0.991607 0.034181
-6876.010742 -5741.792480 -4670.889648 0.012055 -0.990356 0.137883
-6926.533203 -5778.841797 -4799.783691 0.218879 -0.927000 0.304483
-6800.622559 -5738.979492 -4399.059082 -0.200629 -0.976592 -0.077425
-6945.438477 -5844.458984 -4947.443359 0.218299 -0.920316 0.324534
-7492.350098 -6231.515625 -3478.351074 0.784509 0.430006 -0.446730
-7469.079102 -6183.485352 -3493.691895 0.635823 -0.691397 -0.342998
-7512.317383 -6224.465820 -3613.238281 0.615711 -0.764763 -0.189703
-6922.652344 -5734.993164 -4123.229492 -0.047121 -0.991546 -0.120853
-6942.692871 -5741.823730 -4418.563965 0.214423 -0.976012 0.037263
-7221.709473 -6234.962402 -3338.205811 -0.571306 0.679983 -0.459517
-7394.200684 -6219.192871 -3394.366699 0.600726 0.136296 -0.787713
-7215.125977 -5826.877930 -4240.374023 0.473342 -0.874020 0.109409
-7003.877441 -5966.460938 -3756.054932 -0.901578 -0.030335 -0.431501
-7002.225586 -6220.828125 -3761.768311 -0.889859 0.101688 -0.444716
-7270.775879 -6225.144043 -3275.019775 0.070742 0.263863 -0.961943
-6994.900391 -5792.145508 -3802.313965 -0.629627 -0.578265 -0.518784
-7204.873047 -6106.957031 -4934.336914 0.816614 -0.521897 0.246406
-7274.932617 -6194.318848 -4898.474121 0.883053 -0.292917 0.366527
-7208.171875 -6209.016602 -5100.455078 0.886624 -0.030000 0.461470
-7208.858887 -6234.188965 -5081.291504 0.609729 0.748222 0.261422
-7054.876465 -5854.504395 -4797.505859 0.641072 -0.731376 0.232551
-7154.308594 -6113.457031 -5119.527344 0.731132 -0.498703 0.465499
-7220.583984 -5834.218750 -4128.741211 0.500076 -0.837336 -0.220771
-7128.040527 -5816.357422 -3775.736328 0.529191 -0.799860 -0.283029
-7102.058105 -5969.835938 -4950.118652 0.702170 -0.658681 0.270211
-7153.545898 -6006.669434 -4864.173340 0.786279 -0.582049 0.207282
-7060.544922 -6000.417480 -5097.179199 0.560564 -0.657186 0.503830
-7044.112305 -5799.532227 -3774.017090 -0.019074 -0.848231 -0.529252
-7079.233398 -5870.750977 -3670.523438 -0.054201 -0.742546 -0.667562
-7286.334473 -5964.645508 -4445.458496 0.628224 -0.722404 0.288827
-7148.750000 -5926.008789 -4674.800293 0.709098 -0.661641 0.243660
-7119.999512 -6220.471191 -3525.795166 -0.881130 0.137455 -0.452376
-7060.520508 -6067.505371 -4510.278809 0.607593 0.711386 -0.353160
-7062.203613 -6103.205566 -4512.691406 0.890408 -0.425214 -0.162206
-7127.074707 -6143.592773 -4578.099121 -0.002777 -0.245949 -0.969268
-7208.310547 -6112.465332 -4445.517090 -0.540147 0.743614 -0.393963
-7289.992676 -6155.807129 -4392.894531 -0.698691 -0.281350 -0.657735
-7322.672852 -6186.465820 -4458.076660 0.454970 0.845424 0.279672
-7388.795898 -6200.771484 -4385.535156 -0.432203 0.871944 -0.229926
-7376.217773 -6162.091309 -4309.254395 -0.457961 0.870937 -0.178014
-7213.109375 -6117.598145 -4326.559570 0.419996 -0.893094 0.161016
-7149.253906 -6106.433594 -4277.983398 0.441969 -0.896817 0.019227
-7161.955566 -6059.125977 -5011.221191 0.786493 -0.558306 0.263985
-7101.728027 -6100.356934 -4045.922119 0.520646 -0.217566 0.825556
-7184.619629 -6063.471680 -4115.580566 -0.218024 0.938322 0.268319
-7258.924316 -6105.467773 -4097.065430 -0.272347 0.948515 0.161626
-7083.946289 -6073.243652 -4079.399170 0.858943 0.414838 0.300119
-7119.455566 -6072.150391 -4292.040527 0.885159 0.445174 0.135105
-7328.522461 -6119.815430 -4200.211914 -0.594226 0.804163 0.012329
-7299.266602 -6122.953125 -4031.993408 -0.336283 0.880245 0.334758
-7176.960938 -6121.821777 -3992.405029 0.792779 0.295144 0.533219
-7192.489746 -6155.183594 -3979.303223 0.580645 -0.555986 0.594714
-7271.397949 -6145.780273 -4069.978516 0.263894 -0.959227 -0.100894
-7141.207031 -6157.337402 -4524.293945 0.194922 -0.980102 -0.037294
-7393.479492 -6074.863770 -4480.230957 0.557268 -0.736045 0.384259
-7426.085449 -6193.500000 -4638.554199 0.625477 -0.622364 0.470504
-7300.302246 -6072.665039 -4617.758301 0.657521 -0.666860 0.350536
-7221.136719 -5941.604980 -3774.088867 0.696219 -0.707938 -0.118595
-7189.793457 -6063.893555 -4322.919434 -0.295877 0.951292 -0.086428
-7238.789062 -6096.669922 -4301.573730 -0.486221 0.866726 -0.111209
-7442.329102 -6182.759277 -4230.088867 -0.316172 0.945677 -0.075594
-7185.757324 -6092.447266 -3409.062012 -0.341380 -0.613941 -0.711692
-7199.371582 -5941.326172 -3673.403320 0.579150 -0.741295 -0.339122
-7190.983887 -6114.784180 -4082.765137 0.274361 -0.960448 -0.047304
-7280.752930 -6156.303223 -4289.015625 0.299600 -0.952391 0.056001
-7210.561035 -6039.871094 -4745.283691 0.733268 -0.621632 0.275430
-7221.168945 -6129.979004 -3359.476807 -0.170507 -0.683920 -0.709342
-7315.730469 -6035.922363 -3708.395508 0.577471 -0.789239 -0.208777
-7367.358887 -6035.000977 -3814.508057 0.386853 -0.859096 -0.335063
-7253.740723 -6199.299316 -4554.227539 0.428694 0.889889 0.155797
-7324.878906 -6236.607910 -4606.110840 -0.100864 0.984527 -0.143254
-7298.987793 -6233.824707 -4841.835938 0.534349 0.784173 0.315409
-7379.165527 -6218.126953 -4728.194336 0.719932 -0.469131 0.511460
-7259.798340 -6225.203613 -4535.696777 0.707755 0.508255 0.490616
-7355.428223 -6088.328613 -3585.634521 0.530503 -0.790704 -0.305490
-7311.169434 -6124.140625 -4706.654785 0.681112 -0.647114 0.342479
-7404.676758 -6129.584473 -3540.344238 0.465865 -0.841243 -0.274331
-7451.212891 -5977.409180 -3952.724854 0.314798 -0.912168 -0.262307
-7369.635254 -6175.098145 -4233.958496 0.684011 0.106662 0.721610
-7358.940430 -6189.527344 -4362.625977 0.632038 -0.748253 0.201514
-7368.582520 -6223.707031 -4412.205566 0.835109 0.360698 0.415296
-7389.786621 -6164.662598 -4067.985840 -0.335246 0.938078 0.087161
-7348.613770 -6154.384277 -4222.393555 -0.751091 -0.460738 0.472793
-7556.751465 -6232.039551 -4509.429199 0.704276 0.506211 0.497665
-7483.439941 -6140.135742 -3736.445557 0.444624 -0.731864 -0.516373
-7465.089844 -6071.775879 -3812.141357 0.232459 -0.810541 -0.537522
-7446.965820 -6207.411621 -4036.432617 -0.296518 0.884030 0.361309
-7555.720703 -6234.108398 -4036.293701 -0.152257 0.987610 0.037385
-7461.101562 -6234.917969 -4429.096680 -0.160466 0.983062 -0.088290
-7512.673340 -6231.217773 -3931.905762 -0.148839 0.986755 0.064089
-7573.098145 -6028.378906 -4010.471680 0.423078 -0.905789 -0.022889
-7470.169434 -6010.114258 -4187.708984 0.509140 -0.833186 0.215735
-7518.890137 -6070.163574 -4301.107910 0.541368 -0.776452 0.322459
-7558.150391 -6198.128418 -3715.984375 0.495590 -0.493118 -0.714957
-7538.697266 -6073.430176 -3814.466553 0.179174 -0.795556 -0.578753
-7858.734375 -6235.640137 -3884.579590 0.885617 0.415143 -0.208075
-7559.745605 -6237.078613 -4250.474121 -0.158574 0.986602 -0.038118
-7623.808594 -6100.793457 -4187.740234 0.535081 -0.787378 0.306070
-7651.072266 -6069.832520 -4047.811523 0.520371 -0.842341 0.140049
-7524.519531 -6178.863770 -4512.224609 0.641438 -0.596149 0.482803
-7598.327148 -6188.522461 -4398.149414 0.616565 -0.665731 0.420209
-7639.248047 -6068.768066 -3851.995605 0.359325 -0.837886 -0.410840
-7756.149902 -6133.725586 -3946.928467 0.555864 -0.830287 -0.039705
-7717.654785 -6145.546875 -3832.638428 0.455214 -0.706046 -0.542405
-7801.110840 -6227.541992 -3798.784912 0.591632 0.282266 -0.755150
-7713.657227 -6232.447754 -4308.447266 0.726127 0.423872 0.541307
-7850.449219 -6230.695312 -4076.871094 0.892819 0.370006 0.256722
-7746.972168 -6181.701660 -4201.912109 0.637226 -0.671133 0.378796
-7819.708984 -6187.786621 -4057.365723 0.673055 -0.724448 0.148747
-7747.715820 -6144.734863 -4049.409424 0.536180 -0.827326 0.167272
-7818.717285 -6180.986816 -3877.336914 0.656636 -0.708823 -0.257515
3 0 1 2
3 0 2 3
3 4 5 6
3 5 7 8
3 7 9 10
3 7 5 11
3 12 13 2
3 8 6 5
3 7 10 8
3 14 5 15
3 15 16 17
3 18 19 20
3 18 20 21
3 21 22 23
3 24 25 26
3 9 27 10
3 10 27 6
3 11 5 14
3 7 11 9
3 28 29 30
3 31 32 33
3 34 35 36
3 37 38 39
3 27 9 11
3 40 41 16
3 42 17 43
3 42 44 15
3 15 5 16
3 27 11 14
3 3 45 0
3 0 45 46
3 10 6 8
3 47 48 49
3 16 5 4
3 27 15 50
3 50 15 44
3 44 51 18
3 18 51 19
3 17 16 41
3 48 52 41
3 43 53 54
3 51 54 53
3 42 15 17
3 14 15 27
3 55 27 56
3 27 55 57
3 6 27 57
3 6 57 58
3 41 40 48
3 42 43 54
3 43 17 41
3 43 59 53
3 42 54 51
3 60 48 47
3 60 52 48
3 59 43 41
3 27 50 56
3 6 61 4
3 62 47 63
3 29 64 49
3 16 4 40
3 2 13 3
3 51 44 42
3 4 61 65
3 61 6 58
3 66 67 64
3 41 68 59
3 69 55 56
3 70 69 24
3 70 24 26
3 48 40 4
3 52 71 68
3 68 41 52
3 53 59 72
3 19 53 73
3 19 73 20
3 53 19 51
3 60 47 62
3 62 63 74
3 48 4 49
3 75 71 60
3 59 68 76
3 77 78 79
3 50 44 18
3 55 69 57
3 80 81 82
3 83 84 85
3 86 87 88
3 89 90 91
3 89 91 92
3 52 60 71
3 68 71 75
3 68 93 76
3 74 63 67
3 33 67 66
3 68 75 93
3 76 93 94
3 61 26 65
3 72 59 76
3 18 56 50
3 57 69 70
3 57 70 58
3 58 70 61
3 2 81 80
3 12 49 4
3 76 95 73
3 67 47 49
3 47 67 63
3 75 60 93
3 53 72 73
3 67 49 64
3 74 67 33
3 62 96 60
3 60 96 93
3 49 12 29
3 12 2 80
3 74 96 62
3 72 76 73
3 20 97 22
3 56 18 69
3 69 18 21
3 80 82 98
3 99 98 100
3 74 33 101
3 74 101 96
3 96 101 102
3 20 73 97
3 24 23 25
3 12 4 65
3 61 70 26
3 76 94 95
3 95 94 77
3 69 21 23
3 69 23 24
3 103 98 104
3 64 29 31
3 66 31 33
3 64 31 66
3 36 35 39
3 38 37 105
3 98 82 100
3 93 96 94
3 21 20 22
3 31 29 28
3 103 80 98
3 101 34 36
3 97 73 95
3 28 30 106
3 106 30 107
3 103 104 108
3 30 29 12
3 32 28 109
3 32 31 28
3 33 32 101
3 101 32 34
3 96 102 94
3 94 102 78
3 94 78 77
3 110 111 112
3 112 111 113
3 109 28 106
3 83 106 80
3 80 106 107
3 32 35 34
3 95 114 97
3 26 25 65
3 25 115 112
3 109 106 83
3 30 12 80
3 37 116 105
3 39 117 37
3 101 36 102
3 102 36 78
3 78 36 39
3 95 77 114
3 22 97 114
3 118 114 119
3 120 23 22
3 117 121 122
3 35 109 121
3 109 35 32
3 39 38 123
3 79 123 124
3 107 30 80
3 114 77 124
3 22 114 118
3 120 22 118
3 122 109 83
3 122 121 109
3 35 121 117
3 78 39 79
3 65 25 112
3 125 83 80
3 39 35 117
3 126 127 128
3 129 128 130
3 131 132 133
3 134 127 135
3 77 79 124
3 120 118 136
3 23 120 25
3 84 83 125
3 137 138 139
3 135 140 137
3 141 127 126
3 142 45 143
3 144 145 146
3 147 130 128
3 127 147 128
3 148 149 150
3 120 115 25
3 113 65 112
3 83 85 122
3 37 117 151
3 37 151 86
3 140 141 138
3 138 152 153
3 139 153 142
3 154 133 132
3 140 135 141
3 133 142 130
3 141 152 138
3 142 153 129
3 141 126 152
3 141 135 127
3 147 127 134
3 128 129 126
3 118 119 136
3 155 84 125
3 155 125 103
3 125 80 103
3 122 85 156
3 156 117 122
3 137 140 138
3 157 137 144
3 137 157 135
3 152 126 129
3 114 124 119
3 136 119 110
3 120 136 115
3 155 85 84
3 117 156 151
3 144 137 139
3 147 158 130
3 147 134 158
3 39 123 79
3 119 124 159
3 115 136 112
3 103 160 155
3 155 160 104
3 151 161 162
3 151 156 161
3 86 151 87
3 145 144 46
3 46 144 143
3 144 146 157
3 135 157 134
3 129 153 152
3 163 12 164
3 164 65 165
3 166 165 111
3 12 163 167
3 167 163 131
3 119 159 110
3 168 155 104
3 116 37 89
3 138 153 139
3 38 105 92
3 159 150 169
3 165 65 113
3 159 169 110
3 136 110 112
3 108 160 103
3 168 104 170
3 155 168 156
3 156 85 155
3 87 162 171
3 37 86 89
3 143 144 139
3 134 157 158
3 130 158 172
3 130 172 173
3 130 173 131
3 124 150 159
3 166 169 149
3 110 169 111
3 87 151 162
3 145 46 146
3 146 46 45
3 143 139 142
3 105 89 92
3 123 92 91
3 116 89 105
3 157 146 158
3 92 123 38
3 13 12 167
3 13 167 174
3 124 123 150
3 12 65 164
3 111 165 113
3 0 143 175
3 86 88 89
3 158 146 176
3 158 176 172
3 142 129 130
3 133 130 131
3 123 148 150
3 149 169 150
3 177 165 166
3 177 166 149
3 168 170 100
3 156 168 161
3 0 46 143
3 143 45 175
3 45 142 176
3 146 45 176
3 172 176 133
3 172 133 154
3 173 13 174
3 131 174 167
3 164 165 177
3 169 166 111
3 104 160 108
3 161 178 179
3 180 175 181
3 181 175 154
3 2 1 81
3 1 0 175
3 176 142 133
3 172 13 173
3 91 148 123
3 131 173 174
3 132 131 182
3 163 164 131
3 131 164 182
3 162 179 171
3 180 1 175
3 89 88 171
3 89 171 90
3 161 168 178
3 161 179 162
3 81 1 183
3 171 184 90
3 87 171 88
3 154 175 172
3 175 45 172
3 45 3 172
3 104 98 99
3 170 99 100
3 104 99 170
3 168 100 178
3 3 13 172
3 91 185 186
3 178 100 187
3 187 100 82
3 179 178 188
3 188 178 187
3 189 181 190
3 183 1 180
3 91 90 185
3 91 186 148
3 171 188 184
3 190 154 132
3 190 132 182
3 191 186 192
3 190 182 177
3 148 186 193
3 194 193 186
3 148 193 149
3 82 81 183
3 184 188 195
3 195 196 192
3 179 188 171
3 183 180 181
3 181 154 190
3 182 164 177
3 197 187 198
3 82 183 181
3 82 181 189
3 90 184 185
3 190 177 199
3 190 199 200
3 177 149 193
3 185 184 192
3 185 192 186
3 194 186 191
3 188 187 195
3 189 190 200
3 194 177 193
3 194 191 201
3 200 199 201
3 200 201 202
3 187 82 198
3 195 187 197
3 177 194 199
3 184 195 192
3 191 192 203
3 197 196 195
3 196 203 192
3 201 199 194
3 198 82 189
3 191 203 202
3 191 202 201
3 203 196 202
3 204 197 198
3 197 204 196
3 196 204 202
3 198 189 204
3 204 189 200
3 204 200 202
