ply
format ascii 1.0
comment Created by Blender 2.80 (sub 75) - www.blender.org, source file: 'color_and_decimate.blend'
element vertex 220
property float x
property float y
property float z
property float nx
property float ny
property float nz
element face 436
property list uchar uint vertex_indices
end_header
-5788.559082 -6675.424805 -660.738159 -0.767998 -0.074557 -0.636067
-5730.273926 -6723.725098 -731.906555 -0.863338 -0.100558 -0.494491
-5719.711426 -6788.957031 -717.859253 -0.866085 0.046541 -0.497665
-5815.614258 -6795.415039 -615.689453 -0.806330 0.107273 -0.581652
-5821.312500 -6837.464844 -633.115540 -0.435591 0.839900 -0.323649
-5872.029297 -6813.398926 -515.728394 -0.719901 0.382000 -0.579455
-5992.753906 -6792.361328 -391.667175 -0.628712 0.099918 -0.771172
-5868.128418 -6702.767578 -557.622314 -0.812281 -0.065249 -0.579547
-5939.094238 -6589.862305 -474.630035 -0.705466 -0.174932 -0.686758
-5888.709961 -6666.965332 -522.527649 -0.802301 -0.035524 -0.595843
-6021.945801 -6672.503418 -392.361359 -0.559221 -0.148106 -0.815638
-6072.011230 -6714.565918 -361.419495 -0.444258 -0.142247 -0.884518
-6905.775879 -6633.438965 -727.204407 0.920927 -0.352519 0.166082
-6908.727539 -6721.558105 -939.186584 0.941832 -0.279183 0.187048
-6867.266113 -6602.426758 -855.633484 0.947691 -0.287088 0.139286
-6861.312500 -6421.917969 -385.202789 0.853114 -0.352855 -0.384228
-6902.949707 -6539.085449 -531.816711 0.908536 -0.398022 0.126896
-6865.411133 -6460.471680 -531.650635 0.959929 -0.268624 0.079714
-5872.187500 -6700.908203 -1815.909546 0.078097 0.407575 0.909818
-5738.704590 -6708.787598 -1826.651245 -0.188330 0.445326 0.875301
-5901.708984 -6606.325195 -1882.068726 0.225684 0.504746 0.833216
-5963.969727 -6635.430664 -1834.351685 0.436659 0.462996 0.771325
-5852.085938 -6778.265137 -1795.179077 0.095676 0.511734 0.853786
-5717.603027 -6791.509766 -1773.766235 -0.677175 0.436384 0.592395
-5734.391113 -6836.518555 -1738.898315 -0.380291 0.840327 0.386212
-5687.934082 -6575.096680 -833.914978 -0.985687 -0.009186 -0.168310
-5687.533203 -6689.161621 -1673.413696 -0.965026 0.137974 0.222785
-5692.307617 -6824.290527 -801.900696 -0.831996 0.535569 -0.144597
-6905.882324 -6834.994141 -846.459167 0.610462 0.788324 0.076388
-6676.979004 -6837.483887 -318.273499 0.068117 0.965758 -0.250252
-6872.181641 -6833.982422 -1125.468750 0.593768 0.780419 0.195807
-6908.838379 -6820.729492 -1043.395142 0.909360 0.373791 0.182470
-5708.815430 -6549.128418 -778.061096 -0.898373 -0.085543 -0.430769
-5723.310059 -6558.250977 -741.439697 -0.829737 -0.210852 -0.516739
-6916.647461 -6768.326660 -845.063232 0.991516 0.035493 0.124973
-6934.963867 -6776.040039 -779.578064 0.977966 -0.046358 0.203467
-5727.009277 -6355.004395 -767.631775 -0.812860 -0.084964 -0.576189
-5797.766113 -6485.231934 -688.546143 -0.769036 -0.114902 -0.628773
-5856.096680 -6602.000488 -582.725952 -0.802423 -0.092502 -0.589496
-5730.119141 -6837.163574 -734.085144 -0.514420 0.796533 -0.317545
-5689.244629 -6374.092285 -841.549683 -0.972320 -0.033723 -0.231147
-5723.408691 -6239.389160 -810.445190 -0.562365 -0.755058 -0.337016
-5688.711426 -6254.867188 -862.913818 -0.848354 -0.503677 -0.162969
-5797.370605 -6269.320801 -700.255981 -0.728294 -0.287393 -0.622059
-5693.454102 -6824.179199 -1614.243774 -0.799676 0.597369 0.060183
-5918.524414 -6837.012695 -1736.486328 0.187414 0.851497 0.489700
-5710.005859 -6657.504883 -1731.408813 -0.894681 0.284280 0.344523
-5720.501465 -6629.669434 -1858.112793 -0.698691 0.367229 0.613910
-5688.700684 -6578.500000 -1781.148926 -0.944914 0.220283 0.242012
-5708.614258 -6570.149902 -1829.067871 -0.941679 0.179083 0.284890
-5724.286621 -6563.666016 -1911.275024 -0.623920 0.346965 0.700217
-5693.231934 -6383.561035 -1888.231445 -0.982879 0.086734 0.162511
-5721.038574 -6387.134766 -1978.497437 -0.674490 0.334269 0.658223
-5733.659668 -6479.453613 -1946.102661 -0.559679 0.337260 0.756951
-5909.487305 -6497.867188 -1938.375000 0.245857 0.508347 0.825282
-5837.877441 -6447.872070 -1967.745850 -0.129124 0.570605 0.810999
-5694.049316 -6250.321777 -1950.092163 -0.837031 -0.527451 0.145390
-6005.019531 -6350.013184 -1999.484131 0.413831 0.497024 0.762658
-5951.802734 -6310.060059 -2026.346680 0.197180 0.314890 0.928404
-6028.533203 -6281.569336 -2031.312012 0.381664 0.141179 0.913419
-5948.141602 -6246.479492 -2029.277466 0.118351 -0.468551 0.875454
-6044.371582 -6239.619141 -2014.431152 0.366619 -0.694388 0.619190
-6152.657715 -6241.639160 -1912.995850 0.513291 -0.585955 0.627003
-6114.439453 -6279.150879 -1939.407104 0.641255 0.319376 0.697653
-5727.191406 -6277.312012 -2041.846802 -0.591632 0.100894 0.799829
-5802.978027 -6337.516113 -2019.141357 -0.134281 0.449629 0.883053
-5864.150879 -6407.986328 -2009.704834 -0.022950 0.449995 0.892697
-5882.547852 -6428.675293 -557.794861 -0.787164 -0.127598 -0.603381
-5967.404297 -6524.157715 -469.908966 -0.652577 -0.111850 -0.749382
-5951.389160 -6376.448730 -488.759430 -0.644734 -0.147862 -0.749931
-5734.751465 -6238.191406 -2037.712036 -0.397870 -0.685781 0.609394
-6339.675293 -6237.704102 -1708.410645 0.584246 -0.738182 0.337199
-5830.259766 -6298.530762 -2052.777344 -0.022004 0.216926 0.975921
-6120.503906 -6825.827637 -1574.442871 0.505081 0.687094 0.522263
-6192.277344 -6835.599121 -1483.733521 0.344523 0.881527 0.322733
-6945.091309 -6826.022949 -678.576477 0.858272 0.504135 0.095828
-5833.804199 -6549.132324 -626.053650 -0.807886 -0.098575 -0.581011
-5878.926270 -6237.590820 -634.437805 -0.405103 -0.838130 -0.365246
-5920.033691 -6289.715332 -2056.440430 0.213569 0.100742 0.971709
-5841.864258 -6400.408203 -629.644104 -0.816095 -0.082156 -0.572039
-5868.463867 -6289.536621 -614.620422 -0.750267 -0.232978 -0.618671
-6053.797852 -6395.516113 -418.231415 -0.421735 -0.177068 -0.889248
-6079.537598 -6589.263672 -374.948608 -0.396008 -0.150853 -0.905728
-6303.811035 -6699.255859 -310.737335 -0.095279 -0.193213 -0.976501
-6161.719238 -6696.949219 -315.851562 -0.287484 -0.122379 -0.949919
-6183.227051 -6822.852539 -311.080750 -0.277535 -0.131382 -0.951659
-6304.244629 -6796.411133 -263.252655 -0.192633 -0.062075 -0.979278
-6017.306152 -6675.459473 -1766.516357 0.586566 0.422864 0.690695
-6047.686523 -6498.100586 -1852.893433 0.554979 0.437605 0.707419
-6116.552246 -6575.847168 -1730.488403 0.589923 0.437574 0.678579
-6170.186035 -6500.697754 -1740.425781 0.608203 0.462233 0.645283
-5942.465820 -6281.443848 -523.458496 -0.619861 -0.397839 -0.676351
-6051.036133 -6239.708984 -474.132446 -0.312479 -0.798914 -0.513871
-6262.103516 -6551.289551 -312.837921 -0.174841 -0.261879 -0.949095
-6583.730469 -6687.142578 -310.699982 0.078066 -0.196509 -0.977355
-6472.255371 -6745.343750 -266.814911 0.003662 -0.368786 -0.929472
-6627.278809 -6816.405762 -262.571503 0.239662 0.331614 -0.912442
-6732.251953 -6822.517578 -311.203186 0.084597 0.252083 -0.963988
-6098.643555 -6502.819824 -386.089355 -0.293130 -0.161901 -0.942228
-6184.790527 -6523.509277 -357.581146 -0.283944 -0.197882 -0.938169
-6071.889648 -6832.550293 -344.895966 -0.350902 0.633686 -0.689383
-6157.480469 -6336.215332 -406.542633 -0.267647 -0.195074 -0.943541
-6165.427734 -6420.881836 -364.253174 -0.325266 -0.218970 -0.919889
-5956.178223 -6800.366211 -1749.392212 0.155644 0.337626 0.928312
-6123.618164 -6353.352051 -1889.581055 0.571429 0.474776 0.669332
-6353.406738 -6237.588867 -991.567505 0.067171 -0.991791 0.108737
-6706.405762 -6643.904297 -314.023041 0.115177 -0.238472 -0.964263
-6492.034668 -6535.640625 -313.458862 0.068789 -0.274789 -0.959014
-6036.451660 -6818.312012 -1659.537964 0.541215 0.593799 0.595355
-6129.898926 -6713.307617 -1643.112305 0.621509 0.421552 0.660268
-6135.053711 -6247.636719 -421.253265 -0.197394 -0.683248 -0.702963
-6757.453125 -6237.399902 -450.608459 0.090518 -0.983032 -0.159490
-6457.184082 -6833.140625 -1231.735474 0.087771 0.929411 0.358440
-6078.772461 -6444.038086 -1856.966064 0.718375 0.495285 0.488418
-6288.650879 -6353.621094 -365.246368 -0.046937 -0.259224 -0.964660
-6506.176758 -6447.617188 -360.753906 0.055879 -0.229804 -0.971618
-6305.097656 -6446.909180 -359.292053 -0.038301 -0.303018 -0.952178
-6804.531738 -6249.784180 -421.433716 0.491714 -0.643422 -0.586688
-6294.048828 -6820.451172 -1395.705933 0.665883 0.373516 0.645772
-6269.254395 -6836.547363 -280.452972 -0.181036 0.733055 -0.655599
-6202.295410 -6581.518555 -1662.951172 0.702109 0.339549 0.625874
-6235.270020 -6271.969238 -1857.615234 0.678182 0.130009 0.723258
-6521.266602 -6423.384766 -1358.846558 0.198370 -0.852748 0.483108
-6629.609375 -6376.301758 -1280.123047 -0.055696 -0.882809 0.466353
-6670.633789 -6419.176270 -1367.273560 -0.005585 -0.824000 0.566515
-6228.992676 -6758.111816 -1517.898804 0.680197 0.405652 0.610523
-6258.611816 -6699.859375 -1511.546143 0.711417 0.375835 0.593799
-6231.568359 -6412.145020 -1745.640137 0.662374 0.406537 0.629231
-6784.227051 -6303.611328 -1129.882080 0.749596 -0.600482 0.278298
-6789.170898 -6393.000977 -1055.434814 0.967986 -0.225990 0.109012
-6786.071289 -6520.497559 -1286.815796 0.952300 -0.159551 0.260018
-6810.713867 -6521.652832 -1229.678223 0.932676 -0.284707 0.221381
-6777.916504 -6691.107910 -1384.086060 0.530931 0.197028 0.824152
-6765.950684 -6600.228027 -1392.265869 0.897092 0.056764 0.438154
-6847.329102 -6679.032715 -1123.079590 0.960753 -0.204108 0.187811
-6815.066406 -6657.139648 -1210.635986 0.967834 -0.158544 0.195166
-6834.971191 -6606.324219 -1148.421875 0.794427 -0.417524 0.441054
-6253.664062 -6597.074219 -1580.410400 0.701804 0.382092 0.601184
-6894.523926 -6713.596191 -313.186157 0.131626 -0.231025 -0.963988
-6965.209961 -6835.211426 -322.281403 0.498489 0.661946 -0.559709
-6271.168945 -6248.059570 -1815.056885 0.735954 -0.404462 0.542894
-6323.553223 -6368.562988 -1668.907104 0.699454 0.414960 0.581805
-6772.547852 -6241.871582 -1006.118469 0.569048 -0.807733 0.154057
-6788.899902 -6288.873535 -809.419495 0.952635 -0.300607 0.045625
-6286.315430 -6239.421875 -1151.421021 0.218879 -0.974517 0.048555
-6354.746582 -6240.338379 -1438.925171 0.494064 -0.861629 -0.115909
-6323.352539 -6626.974121 -1493.285278 0.672842 0.434858 0.598468
-6329.598145 -6473.785156 -1588.323120 0.697256 0.412214 0.586383
-6491.075684 -6366.886719 -364.568176 0.068606 -0.270119 -0.960356
-6355.539551 -6711.470215 -1370.830444 0.628590 0.387127 0.674520
-6396.129883 -6527.036621 -1464.817383 0.657338 0.403180 0.636647
-6544.358887 -6665.766602 -1324.944336 -0.212561 0.435072 0.874905
-6453.361328 -6749.304688 -1284.524048 0.310495 0.444929 0.839991
-6529.042969 -6582.789062 -1363.388550 -0.028138 0.504318 0.863033
-6663.981445 -6568.975586 -1433.703247 -0.294046 0.443617 0.846583
-6728.872070 -6619.894531 -1425.533447 0.174108 0.389691 0.904324
-6783.946777 -6377.761230 -1270.069580 0.784051 -0.507218 0.357646
-6752.075684 -6376.360840 -1299.935913 0.191107 -0.921873 0.337046
-6777.213867 -6243.481934 -635.977539 0.470138 -0.880703 0.057314
-6811.261719 -6427.752930 -1024.014771 0.955870 -0.260170 0.136204
-6808.383789 -6753.680176 -1354.000732 0.590686 0.209021 0.779351
-6675.542969 -6753.957031 -1340.171021 -0.222419 0.458571 0.860347
-6378.916016 -6290.905762 -1172.651855 0.382031 -0.890591 0.246620
-6423.933594 -6282.937012 -1081.020752 0.151036 -0.925871 0.346324
-6448.200684 -6357.776855 -1288.530518 0.557329 -0.809290 0.185461
-6340.179688 -6250.018066 -1373.568359 0.885861 -0.427992 -0.178899
-6402.217773 -6280.186523 -1576.350464 0.814997 -0.565752 0.125248
-6364.181641 -6279.698242 -1682.161743 0.868221 0.038881 0.494613
-6470.178223 -6260.397461 -414.812164 0.035768 -0.443648 -0.895474
-6960.894531 -6632.438965 -386.183228 0.948180 -0.245827 -0.201178
-6965.534180 -6828.133301 -469.468689 0.743706 0.665242 0.065645
-6955.267090 -6673.284668 -487.514191 0.977691 -0.173009 0.119022
-6934.798340 -6679.638672 -640.166504 0.970916 -0.197729 0.134770
-6909.991699 -6582.300781 -623.125671 0.920530 -0.359142 0.153630
-6867.098633 -6522.285645 -694.975281 0.942473 -0.308481 0.128605
-6952.997070 -6758.888672 -566.146057 0.991028 -0.072970 0.111911
-6809.354492 -6348.017090 -864.299744 0.943114 -0.316233 0.102359
-6424.880371 -6615.238281 -1393.254639 0.529191 0.432783 0.729789
-6448.522949 -6560.379883 -1396.120972 0.414380 0.393292 0.820704
-6499.343262 -6450.933594 -1437.832397 0.604724 -0.258980 0.753136
-6752.404785 -6418.323242 -1357.570679 0.591571 -0.619892 0.515488
-6469.121094 -6419.083984 -1469.325195 0.887234 -0.010956 0.461165
-6416.661621 -6326.740234 -1578.924805 0.888180 0.002045 0.459456
-6827.849121 -6611.390625 -361.735535 0.104007 -0.295450 -0.949644
-6949.259766 -6685.809082 -339.690704 0.677725 -0.319865 -0.662038
-6449.238770 -6358.848633 -1500.181396 0.919340 -0.374950 0.119022
-6658.644043 -6428.350586 -364.903229 0.047304 -0.236030 -0.970580
-6987.205078 -6763.620117 -325.239777 0.848292 -0.141514 -0.510208
-6822.868164 -6470.876953 -960.692627 0.970611 -0.213782 0.110416
-6487.660156 -6331.439941 -1179.962646 0.131626 -0.908719 0.396039
-6578.999023 -6286.758301 -1097.181763 -0.036103 -0.914426 0.403119
-6625.751953 -6332.593750 -1195.533325 -0.065157 -0.895199 0.440809
-6653.231934 -6822.873047 -1297.925659 -0.213782 0.690542 0.690970
-6537.522949 -6753.821777 -1281.812988 -0.139866 0.389721 0.910215
-6578.548828 -6474.596680 -1442.260010 -0.232948 -0.374126 0.897610
-6539.098633 -6475.757324 -1421.037964 0.238563 -0.963347 0.122623
-6909.355957 -6530.609375 -374.940277 0.679891 -0.335612 -0.651967
-6679.117188 -6256.145996 -1024.210083 -0.039369 -0.894772 0.444777
-6804.258789 -6260.893066 -617.559814 0.791681 -0.602588 0.100375
-6821.505859 -6391.117188 -754.741272 0.955992 -0.271249 0.111728
-6817.371094 -6417.483887 -839.127380 0.970244 -0.224555 0.090152
-6855.333496 -6527.384277 -866.564941 0.964080 -0.240181 0.113163
-6854.109375 -6566.267090 -930.629822 0.967772 -0.207862 0.142094
-6845.354004 -6818.068848 -1291.697632 0.795068 0.431654 0.426038
-6794.548340 -6835.170410 -1303.476440 0.124882 0.849910 0.511887
-6599.417969 -6835.492188 -1255.934570 -0.160100 0.896786 0.412458
-6649.074219 -6340.123047 -410.391693 0.072024 -0.305826 -0.949339
-6750.988281 -6271.194824 -1089.209961 0.120182 -0.898404 0.422315
-6866.772461 -6700.916504 -1028.778931 0.930906 -0.296976 0.212561
-6854.376953 -6455.302734 -652.876648 0.967437 -0.226539 0.112644
-6836.623047 -6350.097168 -618.000000 0.941862 -0.292795 0.164678
-6857.628418 -6382.958008 -545.867065 0.970306 -0.232551 0.066073
-6847.392578 -6435.584473 -364.116882 0.298685 -0.281503 -0.911863
-6847.314453 -6339.259277 -415.789734 0.729606 -0.416486 -0.542375
-6927.506836 -6563.388184 -445.474701 0.915525 -0.391034 0.094028
-6708.433594 -6488.711426 -1476.833984 0.060121 -0.302591 0.951201
-6759.131348 -6504.241699 -1458.429932 0.709250 -0.132725 0.692312
-6765.020996 -6317.102051 -1203.688354 0.310221 -0.865963 0.392224
-6864.790039 -6782.229980 -1173.693115 0.965392 -0.148106 0.214606
-6816.313477 -6505.561523 -1056.968262 0.961180 -0.223609 0.161473
3 0 1 2
3 3 4 5
3 5 6 7
3 8 9 10
3 6 11 10
3 6 10 9
3 12 13 14
3 15 16 17
3 18 19 20
3 18 21 22
3 19 22 23
3 23 22 24
3 25 26 27
3 28 29 30
3 28 30 31
3 27 32 25
3 32 27 33
3 27 1 33
3 28 31 34
3 34 31 13
3 27 2 1
3 35 28 34
3 36 32 37
3 38 9 8
3 39 27 24
3 39 24 4
3 25 40 26
3 40 25 32
3 40 32 36
3 41 42 36
3 43 36 37
3 40 42 26
3 27 26 44
3 42 40 36
3 27 44 24
3 4 24 45
3 44 23 24
3 46 47 23
3 23 47 19
3 26 42 48
3 26 48 46
3 46 48 49
3 46 49 47
3 50 20 47
3 48 42 51
3 51 52 53
3 50 54 20
3 44 26 46
3 44 46 23
3 53 52 55
3 42 56 51
3 51 56 52
3 57 58 59
3 59 58 60
3 59 60 61
3 59 61 62
3 59 62 63
3 48 51 49
3 52 64 65
3 52 65 66
3 49 53 50
3 2 27 39
3 67 68 69
3 42 41 56
3 56 41 70
3 61 71 62
3 49 50 47
3 47 20 19
3 49 51 53
3 52 56 64
3 64 70 72
3 72 70 60
3 52 66 55
3 73 74 45
3 56 70 64
3 65 64 72
3 75 28 35
3 33 0 76
3 76 0 38
3 38 7 9
3 33 1 0
3 37 32 33
3 43 41 36
3 41 77 70
3 70 77 71
3 65 78 58
3 0 3 7
3 0 2 3
3 4 2 39
3 2 4 3
3 79 37 76
3 80 43 79
3 81 68 82
3 83 84 85
3 83 85 86
3 24 22 45
3 45 22 21
3 45 21 87
3 70 71 61
3 43 37 79
3 41 43 77
3 87 88 89
3 90 89 88
3 50 53 54
3 55 54 53
3 67 38 68
3 67 79 38
3 79 76 38
3 68 38 8
3 76 37 33
3 19 18 22
3 65 72 78
3 7 38 0
3 77 43 80
3 77 91 92
3 92 69 81
3 93 83 94
3 94 95 96
3 96 29 97
3 70 61 60
3 65 58 66
3 5 7 3
3 80 79 69
3 69 79 67
3 98 81 82
3 98 82 99
3 11 6 100
3 11 100 84
3 84 100 85
3 91 80 69
3 81 98 101
3 101 98 102
3 102 98 99
3 55 66 54
3 66 58 57
3 78 72 60
3 9 7 6
3 6 5 100
3 5 4 100
3 91 77 80
3 69 68 81
3 45 87 103
3 21 18 20
3 54 66 57
3 104 54 57
3 58 78 60
3 8 10 82
3 77 92 105
3 8 82 68
3 106 107 94
3 108 45 103
3 87 108 103
3 88 21 20
3 54 104 20
3 20 104 88
3 91 69 92
3 45 108 73
3 87 21 88
3 109 108 87
3 4 45 74
3 73 108 109
3 104 57 63
3 82 10 11
3 92 81 110
3 105 92 111
3 4 74 112
3 57 59 63
3 88 113 90
3 104 113 88
3 82 11 99
3 101 102 114
3 115 116 107
3 110 81 101
3 92 110 111
3 111 110 117
3 74 118 112
3 87 89 109
3 85 119 86
3 85 100 119
3 100 4 119
3 119 4 29
3 89 90 120
3 90 113 104
3 104 63 121
3 99 84 93
3 84 99 11
3 122 123 124
3 73 109 125
3 109 126 125
3 126 109 120
3 89 120 109
3 104 127 90
3 62 121 63
3 102 99 116
3 114 102 115
3 106 94 97
3 128 129 130
3 130 131 132
3 130 132 133
3 134 135 136
3 74 73 125
3 126 120 137
3 83 86 95
3 96 119 29
3 106 97 138
3 138 97 139
3 130 129 131
3 62 71 140
3 104 121 141
3 118 125 126
3 140 121 62
3 95 86 96
3 84 83 93
3 110 101 114
3 105 111 142
3 128 143 129
3 77 144 145
3 77 145 71
3 74 125 118
3 126 137 146
3 137 120 90
3 147 90 127
3 137 90 147
3 127 104 141
3 116 99 93
3 94 83 95
3 148 114 115
3 118 126 149
3 150 146 147
3 151 152 153
3 153 154 155
3 132 155 133
3 156 157 123
3 102 116 115
3 142 158 143
3 142 143 128
3 129 159 131
3 131 159 135
3 131 135 160
3 132 160 161
3 77 105 144
3 146 137 147
3 116 93 107
3 107 93 94
3 144 105 162
3 162 105 163
3 144 162 164
3 144 164 165
3 71 145 166
3 71 167 121
3 144 165 145
3 146 149 126
3 147 127 141
3 167 141 121
3 140 71 121
3 86 119 96
3 168 110 114
3 169 170 171
3 171 172 173
3 172 12 173
3 173 12 174
3 139 29 170
3 170 175 171
3 174 12 14
3 175 75 172
3 172 75 35
3 172 35 34
3 170 75 175
3 29 28 170
3 170 28 75
3 129 143 176
3 129 176 159
3 118 152 112
3 177 150 178
3 179 178 150
3 156 180 157
3 177 149 146
3 150 147 141
3 181 141 182
3 168 114 148
3 183 138 184
3 111 158 142
3 118 149 152
3 145 185 166
3 182 185 181
3 177 146 150
3 186 115 183
3 184 138 187
3 176 188 159
3 189 163 190
3 189 190 191
3 161 192 151
3 151 192 193
3 179 150 181
3 167 182 141
3 71 166 167
3 167 166 182
3 162 163 189
3 164 162 189
3 177 153 152
3 149 177 152
3 165 164 185
3 185 164 181
3 178 179 194
3 194 179 195
3 194 195 124
3 145 165 185
3 166 185 182
3 196 183 184
3 196 184 169
3 164 179 181
3 150 141 181
3 163 197 190
3 179 164 122
3 177 178 153
3 158 198 143
3 143 198 199
3 143 199 176
3 176 199 200
3 200 201 188
3 188 202 134
3 203 204 160
3 105 197 163
3 112 152 205
3 205 152 193
3 164 189 122
3 122 189 191
3 122 191 123
3 178 194 153
3 195 179 122
3 168 148 206
3 4 112 29
3 151 193 152
3 190 197 207
3 207 197 142
3 207 142 128
3 112 205 29
3 14 208 202
3 14 202 201
3 209 210 211
3 148 115 186
3 148 186 206
3 212 186 183
3 212 183 196
3 105 142 197
3 192 161 204
3 205 204 29
3 29 204 30
3 122 124 195
3 107 106 115
3 213 206 186
3 213 186 212
3 214 196 169
3 214 169 171
3 205 193 192
3 117 168 206
3 151 153 161
3 194 154 153
3 154 215 155
3 94 96 97
3 110 168 117
3 191 190 207
3 161 153 155
3 161 155 132
3 133 216 130
3 130 216 180
3 194 215 154
3 117 206 213
3 15 196 214
3 16 214 171
3 16 171 173
3 158 111 117
3 158 117 198
3 198 211 210
3 128 191 207
3 124 123 157
3 115 106 183
3 213 212 15
3 198 117 211
3 191 128 217
3 191 217 123
3 124 157 180
3 124 180 194
3 194 180 215
3 133 155 216
3 97 29 139
3 156 123 217
3 205 192 204
3 30 204 203
3 30 203 218
3 208 134 202
3 204 161 160
3 155 215 216
3 106 138 183
3 215 180 216
3 156 217 128
3 187 138 139
3 128 130 156
3 156 130 180
3 210 199 198
3 176 200 188
3 159 188 219
3 159 219 135
3 219 136 135
3 135 203 160
3 160 132 131
3 117 213 211
3 210 209 199
3 199 201 200
3 199 209 201
3 201 202 188
3 136 188 134
3 219 188 136
3 134 218 203
3 134 203 135
3 15 214 16
3 213 15 211
3 211 15 17
3 211 17 209
3 17 16 174
3 17 174 209
3 209 174 201
3 174 14 201
3 134 208 218
3 212 196 15
3 16 173 174
3 13 208 14
3 13 31 208
3 208 31 218
3 30 218 31
3 12 172 13
3 13 172 34
3 187 139 170
3 172 171 175
3 169 184 170
3 184 187 170
