ply
format ascii 1.0
comment Created by Blender 2.80 (sub 75) - www.blender.org, source file: 'color_and_decimate.blend'
element vertex 277
property float x
property float y
property float z
property float nx
property float ny
property float nz
element face 550
property list uchar uint vertex_indices
end_header
-5879.083008 -6837.204590 -2153.954590 -0.173070 0.900998 -0.397748
-5730.706055 -6829.091309 -2278.175293 -0.715354 0.660543 0.227851
-5840.765137 -6836.358887 -2400.918945 -0.218574 0.741539 0.634266
-6298.675293 -6829.220215 -2318.401611 0.135838 0.704001 0.697043
-6387.490723 -6822.895508 -2295.872314 0.260689 0.493454 0.829737
-6568.649902 -6833.785156 -2211.738281 0.238563 0.796136 0.556047
-6469.364746 -6819.768555 -2270.172119 0.311197 0.484054 0.817805
-6563.865723 -6672.418457 -2254.799316 0.283670 0.105533 0.953063
-6511.242676 -6623.414551 -2268.302734 0.189520 0.350169 0.917295
-6646.015137 -6641.223633 -2234.639648 0.148747 0.482772 0.863002
-6882.577637 -6737.545410 -2502.028809 -0.182257 -0.000122 -0.983245
-6795.198730 -6653.756836 -2516.511475 -0.299722 0.230018 -0.925871
-6849.049805 -6807.474121 -2495.780029 -0.239143 0.307810 -0.920865
-6892.047363 -6833.296387 -2660.633301 -0.124210 0.914060 0.386059
-6678.946777 -6792.219238 -2688.736816 -0.230171 0.713858 0.661336
-6784.879883 -6723.726562 -2719.479492 -0.094729 0.609851 0.786828
-6996.247070 -6530.713867 -2734.500244 0.295389 -0.303568 0.905820
-7254.446289 -6640.589355 -2722.381592 0.203650 -0.426649 0.881161
-7357.090820 -6725.092773 -2735.740723 0.090487 -0.188818 0.977813
-7302.466309 -6835.347168 -1647.251587 0.230659 0.534440 -0.813105
-7432.063965 -6817.965820 -1676.828125 0.333201 0.085543 -0.938932
-7264.208496 -6712.558594 -1697.099121 0.259407 -0.551103 -0.793054
-5726.776367 -6720.933594 -2179.053711 -0.651143 -0.653829 -0.385357
-5719.580078 -6821.710449 -2146.341064 -0.656240 0.480331 -0.581866
-5786.991699 -6748.010254 -2139.758545 -0.070376 -0.421308 -0.904172
-5842.172363 -6778.189453 -2421.568359 -0.178320 -0.418226 0.890652
-5781.089355 -6771.932617 -2369.808105 -0.566301 -0.382214 0.730186
-5890.543945 -6757.294434 -2302.773193 -0.334422 -0.725913 0.600971
-5926.492676 -6758.400391 -2361.123779 -0.139927 -0.497208 0.856258
-5982.036133 -6820.726562 -2376.806396 0.203223 -0.024506 0.978820
-5870.088379 -6796.750000 -2137.652588 -0.330760 0.018403 -0.943510
-5725.894043 -6716.680664 -2279.708496 -0.679983 -0.655599 0.328257
-5878.876953 -6714.227051 -2267.732910 -0.678304 -0.526383 0.512650
-6240.293945 -6669.646484 -2335.043701 0.108493 0.076388 0.991150
-6176.913086 -6831.636230 -2334.353516 0.154607 0.734855 0.660329
-6153.965332 -6653.798828 -2339.454834 0.347301 0.292154 0.891049
-6365.009766 -6580.391602 -2317.223145 0.175970 0.522752 0.834101
-6384.335449 -6526.684082 -2403.814697 0.029664 0.889859 0.455245
-6534.258789 -6517.318848 -2407.182617 -0.113834 0.957152 0.266213
-6635.442871 -6536.709473 -2531.577393 -0.409406 0.801386 -0.436048
-6674.334961 -6641.951172 -2552.902588 -0.305551 0.071718 -0.949461
-5861.378418 -6704.614258 -2191.061279 -0.584765 -0.625599 -0.516373
-6034.805664 -6615.263184 -2090.570557 -0.509995 -0.376629 -0.773309
-6193.757324 -6548.781738 -2010.175415 -0.501267 -0.416547 -0.758415
-6039.700684 -6494.696289 -2146.913818 -0.472701 -0.379742 -0.795190
-6246.975098 -6408.392578 -2063.079590 -0.445296 -0.459517 -0.768456
-5813.046875 -6535.403320 -2232.087891 -0.813288 0.188208 -0.550523
-5855.450195 -6585.203613 -2206.822266 -0.836940 0.059481 -0.544023
-5967.737305 -6476.246582 -2192.553955 -0.393353 -0.334208 -0.856471
-5804.136230 -6468.899414 -2263.112549 -0.795892 -0.212531 -0.566851
-5795.923340 -6426.257812 -2342.396484 -0.908841 -0.106418 0.403302
-5799.808594 -6520.343750 -2348.505859 -0.793970 0.345347 0.500259
-5877.989258 -6507.204102 -2379.173828 -0.347087 0.256417 0.902066
-5921.267090 -6377.736328 -2406.421631 -0.525376 0.212317 0.823939
-5823.182129 -6320.621582 -2354.073486 -0.949919 -0.298288 0.092837
-5851.547363 -6280.368164 -2402.444092 -0.812708 -0.099185 0.574114
-5871.039551 -6238.748047 -2394.197754 -0.554277 -0.827662 0.087741
-5955.537598 -6241.259766 -2474.407959 -0.392132 -0.798669 0.456404
-6116.895020 -6239.939941 -2243.784180 -0.235298 -0.870205 -0.432844
-6800.944824 -6683.157227 -2764.045166 -0.033326 0.432539 0.900967
-6556.240234 -6698.811523 -2738.105469 -0.177252 0.672445 0.718558
-6664.943359 -6608.925781 -2771.421143 -0.058870 0.410504 0.909940
-6482.860840 -6598.245117 -2808.615479 -0.192450 0.410993 0.891079
-5891.597656 -6599.406250 -2336.731201 -0.642537 0.341990 0.685659
-6047.525879 -6459.198730 -2466.953369 -0.347606 0.391949 0.851772
-6092.731445 -6415.048340 -2506.597656 -0.490066 0.565539 0.663289
-5986.768555 -6726.782227 -2067.375977 -0.566240 -0.288522 -0.772057
-6049.585449 -6358.599609 -2203.179932 -0.432325 -0.434248 -0.790246
-5967.252930 -6259.787598 -2305.325439 -0.363842 -0.636586 -0.679922
-5872.017578 -6275.375488 -2339.015381 -0.490066 -0.614124 -0.618580
-6005.333496 -6515.857422 -2421.980469 -0.183142 0.586261 0.789117
-6152.544922 -6503.197754 -2454.235596 -0.078219 0.822718 0.563005
-6017.241211 -6818.847168 -2020.121338 -0.530503 0.384075 -0.755669
-5935.117676 -6619.955566 -2149.094727 -0.532517 -0.284951 -0.796991
-5970.594727 -6573.895020 -2364.694580 -0.160436 0.341502 0.926054
-6014.166992 -6272.566406 -2535.753906 -0.690237 0.196173 0.696432
-6220.673340 -6837.449219 -1917.208984 -0.176153 0.954161 -0.241829
-6851.603516 -6836.037598 -2100.577148 0.059969 0.916074 0.396435
-6692.545898 -6825.938965 -2161.074707 0.336802 0.103092 0.935911
-6074.646973 -6716.682617 -2361.613281 0.100925 0.034822 0.994263
-6580.142090 -6237.556152 -2738.933105 0.152806 -0.883694 0.442396
-6045.848145 -6345.526855 -2529.073975 -0.636372 0.436964 0.635639
-6101.668945 -6257.489746 -2633.995361 -0.695120 -0.303354 0.651723
-6122.399414 -6820.967285 -2358.548096 0.227302 0.381664 0.895901
-6106.038086 -6238.234863 -2601.347412 -0.197668 -0.959197 0.202094
-6194.940430 -6582.667480 -2361.216797 0.123722 0.515702 0.847743
-6147.678711 -6710.415527 -1966.307861 -0.536393 -0.311197 -0.784478
-6996.827148 -6836.907227 -2106.335938 -0.059847 0.909818 0.410657
-6184.600098 -6815.816895 -1906.534912 -0.526231 0.317972 -0.788629
-6152.679199 -6423.144043 -2588.918213 -0.502152 0.864742 0.002838
-6204.617676 -6244.211426 -2721.217041 -0.408979 -0.691397 0.595508
-6179.001465 -6299.624023 -2706.492432 -0.659322 0.135533 0.739494
-6336.894531 -6239.433105 -2136.917480 -0.217689 -0.895413 -0.388348
-6211.054199 -6440.561035 -2536.215820 -0.264382 0.944548 0.194586
-6196.031250 -6455.741211 -2648.412109 -0.697104 0.628315 0.345256
-6225.783203 -6335.848145 -2112.462402 -0.365368 -0.495743 -0.787835
-6346.717285 -6467.267090 -2505.942383 -0.034822 0.948424 0.315043
-6426.337402 -6462.200195 -2552.931152 -0.224097 0.959777 -0.169073
-6458.862793 -6508.325195 -2450.595703 -0.077486 0.953001 0.292825
-6298.416992 -6566.846191 -2344.549805 0.211951 0.681753 0.700156
-6235.647461 -6474.910156 -2603.573486 -0.402753 0.858058 -0.318552
-6504.907715 -6542.950195 -2609.225586 -0.256111 0.375622 -0.890652
-6601.273438 -6692.871094 -2569.549316 -0.410596 0.316141 -0.855220
-6585.997559 -6542.250000 -2571.312256 -0.402722 0.517106 -0.755211
-6720.502441 -6728.663086 -2526.739746 -0.345073 0.148991 -0.926633
-6253.857910 -6352.304199 -2742.774414 -0.616688 0.314951 0.721427
-6331.310059 -6342.273926 -2812.436768 -0.422773 0.050783 0.904782
-6313.178223 -6544.909668 -2693.123535 -0.647694 0.668813 0.364910
-6367.135742 -6511.388672 -2787.411865 -0.521622 0.377636 0.765007
-6339.036133 -6676.490723 -1849.365601 -0.533616 -0.358531 -0.765954
-6284.724121 -6821.489258 -1842.671997 -0.564653 0.314737 -0.762902
-6402.628906 -6289.117188 -2043.410034 -0.392285 -0.602191 -0.695303
-6371.079590 -6435.643066 -1972.425537 -0.434278 -0.472671 -0.766778
-6386.925781 -6519.874023 -1910.747681 -0.461318 -0.475234 -0.749199
-6452.559082 -6595.755371 -1817.375610 -0.473342 -0.453352 -0.755242
-6454.618652 -6776.441406 -1716.509766 -0.564165 -0.231880 -0.792413
-7216.464355 -6306.234863 -2419.418213 0.404035 -0.827113 0.390637
-7272.611328 -6284.228516 -2270.601074 0.399884 -0.908628 0.120182
-7375.666992 -6333.479492 -2289.506836 0.423536 -0.891049 0.163091
-7318.917969 -6306.586914 -2145.810059 0.418470 -0.880703 -0.221778
-7472.709473 -6382.121094 -2167.626709 0.460036 -0.876278 -0.143101
-6967.264160 -6515.151855 -1775.881104 0.161321 -0.627552 -0.761650
-6987.081055 -6423.791504 -1852.881348 0.130985 -0.624043 -0.770287
-6874.531250 -6529.321777 -1740.213745 0.100528 -0.620777 -0.777490
-6713.026367 -6541.861816 -1725.018066 -0.131413 -0.583758 -0.801202
-6576.161133 -6513.466309 -1795.892822 -0.373150 -0.540544 -0.754021
-6583.104980 -6668.830566 -1685.349365 -0.415998 -0.461287 -0.783654
-6385.011230 -6498.301758 -2609.283447 -0.184210 0.601917 -0.777001
-6352.566406 -6583.893555 -2662.905029 -0.575762 0.721091 -0.385296
-6495.546875 -6828.713867 -1683.697510 -0.455855 0.562181 -0.690023
-6747.871094 -6359.183105 -1878.571289 -0.032044 -0.633381 -0.773156
-6696.522461 -6240.800293 -1980.837524 -0.051485 -0.898007 -0.436933
-6597.352051 -6266.727051 -1972.957886 -0.230476 -0.716483 -0.658406
-6641.161621 -6423.452637 -1842.027588 -0.227821 -0.612720 -0.756706
-6500.546875 -6377.685547 -1941.218628 -0.382885 -0.520585 -0.763115
-6394.142090 -6634.068848 -2306.530029 0.284127 0.047517 0.957579
-6520.648438 -6690.001465 -2615.054199 -0.541642 0.517960 -0.662038
-6395.600586 -6308.923828 -2833.989014 0.008484 -0.136052 0.990661
-6382.236816 -6242.965332 -2805.730469 -0.093570 -0.751518 0.653005
-6479.078125 -6369.466797 -2819.354980 0.024110 -0.007416 0.999664
-6453.014160 -6665.268555 -2723.560303 -0.546678 0.777154 0.311624
-6684.742676 -6835.860840 -1582.707764 -0.233924 0.605182 -0.760888
-6581.775391 -6779.760254 -1634.880737 -0.436079 -0.201331 -0.877071
-6711.781250 -6682.946777 -1631.922974 -0.147954 -0.474807 -0.867550
-7033.278320 -6607.317871 -1710.389160 0.172185 -0.599872 -0.781304
-7006.741699 -6714.056641 -1634.309326 0.135075 -0.505875 -0.851955
-7106.951660 -6698.511719 -1658.415405 0.177526 -0.543535 -0.820368
-7668.141602 -6626.605957 -1946.660767 0.449477 -0.633442 -0.629810
-7630.158691 -6730.075195 -1837.875854 0.393139 -0.589709 -0.705435
-7778.865234 -6790.698242 -1876.181885 0.531388 -0.395093 -0.749321
-7003.066406 -6837.265625 -1585.144043 0.058351 0.728660 -0.682333
-6609.652832 -6527.032715 -2811.208984 0.032594 0.156102 0.987182
-6621.464844 -6352.401855 -2808.175537 0.187445 -0.321116 0.928281
-6790.207031 -6470.888184 -2811.446289 0.369488 -0.135594 0.919279
-6581.204102 -6558.279297 -2317.271240 -0.011017 0.853389 0.521104
-6696.856445 -6555.481445 -2389.133301 -0.131779 0.989502 0.058779
-6629.117676 -6536.025391 -2468.181396 -0.220313 0.973205 0.065310
-6532.432617 -6507.933105 -2533.538330 -0.322123 0.945463 -0.048067
-6800.501465 -6749.441406 -1603.644409 0.036714 -0.488662 -0.871670
-6955.136230 -6791.132812 -1577.280518 0.067965 -0.247353 -0.966521
-7099.997070 -6821.903809 -1594.008057 0.176977 0.097842 -0.979308
-7059.064941 -6253.438965 -2030.059692 0.219459 -0.861232 -0.458357
-7196.188965 -6375.162109 -1943.747437 0.290384 -0.697012 -0.655599
-7244.260254 -6333.186523 -2036.733032 0.347942 -0.799158 -0.490127
-6877.199707 -6240.466309 -1992.854492 0.065523 -0.934049 -0.351054
-7136.131836 -6238.851074 -2120.363770 0.214850 -0.955290 -0.203009
-6543.923340 -6736.036621 -2664.835938 -0.532182 0.846553 -0.010071
-6803.347656 -6613.375000 -2798.995117 0.539689 0.294748 0.788537
-6872.501465 -6265.422363 -2628.784424 0.297372 -0.745170 0.596881
-6871.812500 -6365.756348 -2709.661377 0.367382 -0.524094 0.768334
-6782.299805 -6241.779785 -2635.459473 0.232093 -0.874752 0.425306
-6831.412598 -6837.248047 -2527.417236 -0.257149 0.867336 -0.426069
-6710.474121 -6829.166504 -2642.812988 -0.336619 0.940184 0.051851
-6745.698730 -6795.221191 -1572.545410 -0.075381 -0.156529 -0.984771
-6749.250977 -6714.988281 -2182.469971 0.107486 0.405957 0.907529
-6768.554688 -6437.311035 -1806.326660 0.016266 -0.667165 -0.744713
-6987.676758 -6238.819824 -2491.226562 0.190497 -0.958739 0.210974
-7153.179199 -6242.026855 -2335.181396 0.255776 -0.951842 0.169042
-6687.633789 -6261.641602 -2717.615967 0.320200 -0.677023 0.662618
-6855.266113 -6609.445801 -2261.287354 -0.178961 0.797906 0.575579
-6769.228516 -6571.488770 -2298.941895 -0.113224 0.904538 0.411023
-6917.476074 -6597.226074 -2390.320801 -0.363445 0.922666 -0.128666
-6895.426270 -6753.560059 -2161.792969 -0.020753 0.576373 0.816889
-6795.878418 -6564.012695 -2382.693848 -0.938536 0.336772 0.075503
-6788.266113 -6584.864258 -2472.237793 -0.345897 0.816248 -0.462661
-7080.065918 -6304.625488 -2532.867188 0.379009 -0.772881 0.508896
-6832.361816 -6429.481445 -2768.795410 0.422285 -0.354808 0.834101
-6913.656738 -6666.105957 -1644.347900 0.091250 -0.488083 -0.868007
-6879.791016 -6294.165039 -1926.044800 0.100253 -0.638295 -0.763207
-7364.784180 -6835.758789 -2329.552734 -0.035676 0.999329 -0.004181
-7319.934570 -6833.991699 -2407.082764 -0.160833 0.985504 -0.053926
-7944.317383 -6837.346680 -2674.638428 0.167058 0.674276 0.719291
-6872.770996 -6352.969727 -1896.067505 0.096438 -0.530045 -0.842433
-6923.800293 -6765.789062 -2736.601562 -0.221870 0.526017 0.821009
-7011.980469 -6734.777832 -2760.925293 0.120457 0.122593 0.985107
-6966.307617 -6632.809570 -2288.163818 -0.388043 0.854671 0.344829
-7013.654785 -6743.998535 -2187.042236 -0.219642 0.665426 0.713370
-7170.315918 -6755.733887 -2261.495605 -0.444075 0.835627 0.323191
-7100.712891 -6694.062012 -2328.292480 -0.487197 0.873165 0.013550
-7131.173340 -6730.435547 -2403.743408 -0.505356 0.774804 -0.379803
-7061.200195 -6722.689453 -2228.961670 -0.379101 0.702994 0.601703
-6950.778809 -6651.867676 -2458.630859 -0.393292 0.572802 -0.719138
-7015.300293 -6825.898926 -2474.225830 -0.106876 0.595874 -0.795923
-7173.791016 -6829.936035 -2464.905518 -0.156041 0.875179 -0.457900
-6922.950195 -6521.106934 -2760.004395 0.237281 -0.180609 0.954466
-7005.153320 -6375.929688 -2652.333984 0.353740 -0.555650 0.752373
-7004.120117 -6832.493652 -2724.379883 -0.084201 0.789483 0.607929
-7048.612793 -6341.872559 -1925.046997 0.191687 -0.660909 -0.725547
-6990.737305 -6282.723145 -2569.951904 0.392651 -0.739219 0.547105
-7089.723633 -6768.746582 -2738.588867 0.060915 0.114536 0.991546
-7142.832520 -6835.088379 -2140.029785 -0.130131 0.939634 0.316416
-7181.397461 -6397.464355 -2594.214844 0.350261 -0.690115 0.633259
-7299.333496 -6829.641602 -2235.157471 -0.188360 0.977935 0.090060
-7174.669434 -6461.738770 -2647.038818 0.251625 -0.514481 0.819727
-7296.260254 -6522.200195 -2649.869629 0.254921 -0.568194 0.782373
-7112.150391 -6503.252930 -2681.668701 0.238258 -0.453078 0.859004
-7121.800293 -6459.472168 -1853.789795 0.201788 -0.612537 -0.764214
-7571.062500 -6837.308105 -1750.380615 0.311655 0.728782 -0.609668
-7469.291016 -6600.894043 -1865.371948 0.330363 -0.613971 -0.716819
-7310.551270 -6523.537109 -1865.246826 0.285257 -0.608997 -0.740074
-7345.560059 -6630.273926 -1791.397705 0.273568 -0.610004 -0.743645
-7180.671875 -6579.967285 -1772.902710 0.239601 -0.604572 -0.759606
-7188.679688 -6788.310059 -1618.244751 0.246956 -0.326212 -0.912442
-7512.402832 -6437.875977 -2061.619385 0.441237 -0.785699 -0.433515
-7394.088867 -6380.731445 -2061.002686 0.390851 -0.807306 -0.442061
-7530.962402 -6527.407227 -1957.746948 0.400372 -0.674978 -0.619709
-7239.772461 -6268.458496 -2146.422607 0.369091 -0.903867 -0.216285
-7769.091309 -6834.173828 -2701.929688 0.076724 0.696646 0.713279
-7579.701660 -6820.270996 -2735.101318 0.099063 0.374157 0.922025
-7463.771973 -6703.729492 -1772.682739 0.317209 -0.594409 -0.738914
-7606.605957 -6801.147461 -1766.517212 0.439222 -0.295999 -0.848170
-7261.126465 -6386.932617 -2526.804688 0.361003 -0.776116 0.516984
-7380.285645 -6445.320801 -2537.044189 0.346934 -0.771203 0.533708
-7316.977051 -6416.748535 -1957.489624 0.330210 -0.703360 -0.629444
-7316.480469 -6369.586914 -2463.841553 0.344401 -0.799829 0.491562
-7490.945801 -6393.892090 -2303.377686 0.421003 -0.888180 0.184027
-7458.960449 -6676.040039 -2697.315674 0.181738 -0.440870 0.878964
-7597.443848 -6740.173828 -2705.028809 0.158879 -0.411084 0.897610
-7476.782715 -6576.352539 -2632.091064 0.271493 -0.636677 0.721732
-7704.799805 -6693.745605 -2650.889160 0.226020 -0.610187 0.759301
-7601.657715 -6602.680176 -2606.058838 0.281991 -0.712424 0.642537
-7747.688477 -6620.947754 -2562.725098 0.313303 -0.760888 0.568224
-7592.306152 -6521.813477 -2505.672852 0.241951 -0.843410 0.479659
-8093.616211 -6828.085938 -2098.718018 0.648762 0.411878 -0.639882
-7913.904785 -6795.885254 -1970.943237 0.563097 -0.345866 -0.750511
-7899.297852 -6835.600098 -1958.529785 0.427412 0.689444 -0.584735
-7570.719238 -6433.125488 -2322.839355 0.409436 -0.896207 0.170660
-7588.519043 -6479.828125 -2425.541016 0.361492 -0.843593 0.397015
-7589.103027 -6447.903809 -2167.143555 0.437025 -0.891812 -0.116733
-7749.765137 -6520.799805 -2342.906738 0.407605 -0.897519 0.168065
-7760.808105 -6593.746582 -2065.791748 0.481979 -0.719291 -0.500259
-7669.242188 -6483.234863 -2162.025635 0.454115 -0.861476 -0.227149
-7784.584473 -6541.010254 -2195.579590 0.496750 -0.841395 -0.212653
-7758.104492 -6799.443848 -2709.369873 0.072390 -0.125858 0.989380
-7906.529785 -6790.940430 -2679.491455 0.236396 -0.404065 0.883633
-7720.633789 -6834.145020 -1825.279297 0.450240 0.538682 -0.712058
-7676.529297 -6564.018066 -2521.020508 0.331370 -0.814142 0.476760
-7903.595703 -6673.372559 -2552.981689 0.327799 -0.790826 0.516831
-7868.682129 -6576.399902 -2363.136475 0.436872 -0.886319 0.153356
-8041.163574 -6723.759277 -2164.589844 0.541734 -0.722983 -0.428694
-8142.010742 -6794.482910 -2184.636230 0.684439 -0.542070 -0.487503
-8150.577148 -6744.362793 -2291.357910 0.597095 -0.761925 -0.250771
-7987.698730 -6639.280273 -2353.419922 0.382092 -0.919034 0.096683
-8054.804688 -6663.852539 -2368.928467 0.476119 -0.876400 0.071902
-8204.663086 -6833.116211 -2248.375000 0.782037 0.456191 -0.424543
-8259.893555 -6831.891602 -2430.376709 0.922239 0.377667 0.082553
-8223.010742 -6784.527832 -2348.440918 0.775414 -0.604236 -0.183294
-7912.159668 -6723.557617 -2039.169678 0.498245 -0.640309 -0.584582
-7924.378906 -6651.866211 -2144.651367 0.511643 -0.757439 -0.405560
-7898.330078 -6614.173340 -2199.513672 0.508377 -0.825587 -0.244758
-7887.786133 -6628.281250 -2470.712891 0.392590 -0.844813 0.363475
-8067.169922 -6724.092285 -2526.290771 0.352611 -0.838221 0.415967
-8164.201660 -6792.298340 -2564.506348 0.505936 -0.628437 0.590808
-8076.979492 -6824.147461 -2640.940918 0.432264 0.204291 0.878262
-8223.212891 -6829.660156 -2536.986084 0.785394 0.349803 0.510636
-8205.324219 -6778.671875 -2469.084229 0.618519 -0.757866 0.207404
-8104.352539 -6709.749023 -2414.648926 0.504013 -0.846614 0.170782
3 0 1 2
3 3 4 5
3 5 4 6
3 7 8 9
3 10 11 12
3 13 14 15
3 16 17 18
3 19 20 21
3 22 23 24
3 25 26 27
3 25 27 28
3 25 28 29
3 24 23 30
3 30 23 0
3 22 31 23
3 31 32 26
3 33 34 35
3 36 37 38
3 39 40 11
3 31 1 23
3 0 23 1
3 22 41 31
3 1 31 26
3 1 26 2
3 2 26 25
3 41 22 24
3 42 43 44
3 44 43 45
3 46 47 48
3 49 50 46
3 46 50 51
3 51 50 52
3 53 50 54
3 55 56 57
3 57 56 58
3 59 60 61
3 62 61 60
3 63 51 52
3 64 53 65
3 49 54 50
3 66 41 30
3 31 41 32
3 46 67 68
3 46 51 63
3 47 46 63
3 69 49 68
3 54 49 69
3 2 25 29
3 41 24 30
3 47 63 41
3 49 46 68
3 54 55 53
3 26 32 27
3 32 63 28
3 69 56 54
3 70 71 37
3 52 50 53
3 52 53 64
3 56 55 54
3 30 0 72
3 66 30 72
3 73 47 41
3 41 66 73
3 63 32 41
3 56 68 58
3 74 52 70
3 70 52 64
3 52 74 63
3 48 47 73
3 67 46 48
3 27 32 28
3 69 68 56
3 55 57 75
3 53 55 75
3 73 66 42
3 76 5 77
3 77 5 78
3 76 0 3
3 76 3 5
3 5 7 9
3 79 35 34
3 63 74 28
3 57 58 80
3 81 75 82
3 48 73 44
3 75 81 53
3 29 28 83
3 29 83 34
3 84 57 80
3 42 44 73
3 79 85 35
3 28 74 83
3 2 29 34
3 2 34 0
3 74 70 85
3 53 81 65
3 75 57 82
3 66 72 86
3 66 86 42
3 87 76 77
3 48 44 67
3 58 68 67
3 74 85 79
3 74 79 83
3 57 84 82
3 0 76 72
3 70 64 71
3 86 72 88
3 88 72 76
3 43 42 86
3 83 79 34
3 65 81 89
3 82 90 91
3 80 58 92
3 70 37 85
3 65 89 93
3 94 89 81
3 94 81 82
3 94 82 91
3 67 44 45
3 58 67 95
3 64 65 93
3 64 93 71
3 71 93 96
3 97 98 96
3 82 84 90
3 67 45 95
3 85 99 35
3 89 94 100
3 101 102 103
3 40 102 104
3 94 91 105
3 106 91 90
3 58 95 92
3 34 33 3
3 107 94 108
3 108 94 105
3 105 91 106
3 86 88 109
3 88 76 110
3 111 43 112
3 111 45 43
3 34 3 0
3 71 98 37
3 99 37 36
3 89 100 93
3 43 86 109
3 43 109 113
3 114 109 115
3 116 117 118
3 118 119 120
3 121 122 123
3 124 125 126
3 35 99 33
3 99 36 33
3 96 100 97
3 103 97 127
3 100 94 128
3 108 105 106
3 110 129 115
3 109 88 110
3 112 43 113
3 130 131 132
3 130 132 133
3 133 132 134
3 133 134 125
3 113 134 112
3 33 36 3
3 3 36 135
3 99 85 37
3 71 96 98
3 113 109 114
3 45 92 95
3 84 80 90
3 3 135 4
3 96 93 100
3 128 94 107
3 92 45 111
3 101 127 136
3 137 138 139
3 90 138 106
3 115 109 110
3 90 80 138
3 100 128 127
3 107 108 140
3 129 110 76
3 129 76 141
3 92 111 132
3 132 111 134
3 4 135 6
3 138 137 106
3 115 142 126
3 126 143 124
3 144 145 146
3 147 148 149
3 150 141 87
3 141 76 87
3 37 98 38
3 100 127 97
3 151 152 153
3 106 137 139
3 111 112 134
3 140 128 107
3 62 108 106
3 8 36 154
3 154 36 38
3 155 154 156
3 135 8 6
3 98 97 157
3 136 127 128
3 101 136 102
3 128 140 136
3 108 62 140
3 139 138 152
3 115 129 142
3 158 159 145
3 160 150 19
3 161 162 163
3 113 114 125
3 80 92 131
3 80 164 165
3 6 8 7
3 6 7 5
3 8 135 36
3 103 127 101
3 136 140 166
3 139 152 151
3 113 125 134
3 103 157 97
3 140 60 166
3 62 60 140
3 152 138 80
3 151 153 167
3 106 139 151
3 62 106 151
3 132 131 92
3 168 169 170
3 103 102 40
3 171 102 172
3 125 115 126
3 125 114 115
3 173 141 150
3 173 150 159
3 131 164 80
3 38 157 39
3 38 98 157
3 157 103 39
3 60 14 172
3 172 166 60
3 62 151 61
3 174 5 9
3 154 38 156
3 166 172 136
3 136 172 102
3 142 129 141
3 143 142 173
3 133 125 124
3 156 38 39
3 60 59 15
3 133 124 175
3 175 123 130
3 170 80 176
3 177 80 165
3 8 154 9
3 11 40 104
3 152 80 178
3 143 126 142
3 103 40 39
3 141 173 142
3 133 175 130
3 174 78 5
3 179 180 181
3 78 174 182
3 156 39 155
3 180 183 184
3 9 154 180
3 39 184 155
3 155 184 183
3 102 171 104
3 178 80 170
3 185 176 177
3 14 60 15
3 152 186 153
3 9 180 179
3 180 155 183
3 154 155 180
3 184 39 11
3 143 158 187
3 173 158 143
3 188 131 130
3 78 182 77
3 104 171 12
3 189 190 191
3 178 186 152
3 59 61 167
3 167 61 151
3 175 124 123
3 188 130 192
3 11 104 12
3 13 59 193
3 193 59 194
3 143 187 124
3 124 187 123
3 164 131 188
3 77 182 87
3 174 9 179
3 171 172 13
3 172 14 13
3 13 15 59
3 170 176 168
3 178 170 169
3 178 169 186
3 187 158 145
3 150 160 159
3 174 179 182
3 179 181 195
3 167 153 186
3 173 159 158
3 159 160 145
3 192 130 122
3 182 196 87
3 197 198 199
3 195 198 200
3 180 184 181
3 184 11 201
3 10 12 202
3 11 10 202
3 201 203 199
3 203 202 171
3 59 204 194
3 201 11 202
3 169 168 205
3 167 186 59
3 59 186 204
3 121 123 144
3 130 123 122
3 164 188 161
3 182 179 196
3 181 201 199
3 181 184 201
3 206 13 193
3 186 169 204
3 188 192 207
3 207 192 122
3 208 176 185
3 168 208 205
3 144 187 145
3 123 187 144
3 164 161 165
3 179 195 196
3 195 181 199
3 176 80 177
3 201 202 203
3 12 171 202
3 168 176 208
3 193 194 206
3 196 195 200
3 169 205 16
3 16 204 169
3 209 204 16
3 204 209 194
3 161 188 207
3 87 196 210
3 211 205 185
3 171 13 206
3 121 144 122
3 197 199 190
3 197 190 212
3 213 214 17
3 205 215 16
3 18 209 16
3 146 145 160
3 122 216 207
3 210 196 197
3 198 195 199
3 208 185 205
3 206 194 209
3 19 150 217
3 217 150 87
3 122 144 216
3 218 219 220
3 200 198 197
3 16 215 17
3 171 206 191
3 221 144 146
3 221 146 222
3 217 87 210
3 223 224 225
3 207 162 161
3 185 177 116
3 205 213 215
3 146 160 222
3 216 144 221
3 162 207 216
3 161 163 165
3 165 163 226
3 196 200 197
3 205 211 213
3 206 227 191
3 222 160 19
3 162 216 221
3 162 221 219
3 185 116 211
3 203 191 190
3 203 171 191
3 215 213 17
3 209 228 206
3 206 228 227
3 210 197 212
3 209 18 228
3 148 229 230
3 222 21 221
3 199 203 190
3 116 231 211
3 226 163 119
3 177 226 117
3 165 226 177
3 210 212 217
3 224 223 120
3 214 231 232
3 214 213 211
3 21 222 19
3 162 219 233
3 163 162 233
3 163 233 224
3 177 117 116
3 231 116 118
3 234 231 118
3 220 221 21
3 219 221 220
3 226 119 117
3 212 190 189
3 214 211 231
3 163 224 119
3 117 119 118
3 235 231 234
3 17 214 236
3 17 236 18
3 217 212 189
3 220 21 229
3 229 21 20
3 119 224 120
3 219 218 233
3 18 236 228
3 228 236 237
3 237 238 239
3 239 240 241
3 234 118 235
3 231 235 232
3 214 232 238
3 20 19 217
3 220 229 218
3 217 189 191
3 118 120 235
3 238 242 240
3 236 238 237
3 236 214 238
3 243 244 245
3 218 225 233
3 233 225 224
3 235 120 246
3 232 235 246
3 238 232 247
3 230 20 217
3 148 218 229
3 246 248 249
3 232 246 247
3 230 229 20
3 225 218 147
3 120 223 248
3 120 248 246
3 242 238 247
3 147 149 250
3 238 240 239
3 225 250 251
3 251 250 252
3 248 223 251
3 253 254 227
3 149 255 245
3 218 148 147
3 225 251 223
3 248 251 249
3 242 256 240
3 230 217 255
3 225 147 250
3 246 249 247
3 257 254 239
3 257 239 241
3 242 247 249
3 242 249 256
3 256 249 258
3 240 256 241
3 237 239 253
3 259 260 261
3 149 148 230
3 149 230 255
3 228 237 227
3 249 251 252
3 237 253 227
3 257 262 263
3 255 217 245
3 249 252 258
3 253 239 254
3 227 254 191
3 264 265 266
3 250 267 268
3 250 269 252
3 149 245 244
3 149 267 250
3 256 258 241
3 149 244 267
3 269 250 268
3 270 241 258
3 267 244 243
3 267 243 259
3 245 217 191
3 241 270 257
3 252 269 258
3 269 268 263
3 263 268 259
3 263 259 261
3 258 262 270
3 269 262 258
3 270 262 257
3 257 271 254
3 271 272 273
3 191 273 274
3 265 274 275
3 275 276 266
3 266 276 261
3 268 267 259
3 243 245 191
3 262 269 263
3 266 265 275
3 254 271 273
3 191 254 273
3 243 191 264
3 257 263 276
3 271 257 276
3 243 260 259
3 191 274 265
3 261 276 263
3 272 271 275
3 264 260 243
3 261 260 264
3 264 191 265
3 276 275 271
3 272 274 273
3 261 264 266
3 272 275 274
