ply
format ascii 1.0
comment Created by Blender 2.80 (sub 75) - www.blender.org, source file: 'color_and_decimate.blend'
element vertex 140
property float x
property float y
property float z
property float nx
property float ny
property float nz
element face 276
property list uchar uint vertex_indices
end_header
-5879.965332 -6556.283203 -2367.338623 0.152532 -0.134495 -0.979095
-5758.327637 -6527.719238 -2333.746826 -0.230659 -0.005463 -0.972991
-5767.540527 -6612.035645 -2364.804443 -0.483383 0.418958 -0.768609
-6051.100098 -6818.708496 -2362.196777 -0.114872 0.587359 -0.801111
-6860.322266 -6678.187012 -2844.500977 0.810938 -0.532304 0.242866
-6875.300293 -6825.306152 -2860.662842 0.467666 0.500290 0.728660
-6763.479980 -6741.639160 -2920.875977 0.456526 0.042879 0.888638
-6543.923340 -6736.036621 -2664.835938 0.551408 -0.833857 -0.024934
-6449.062500 -6660.926758 -2723.547363 0.537004 -0.772851 -0.338023
-6538.271484 -6694.867676 -2604.902832 0.522904 -0.463057 0.715598
-6385.011230 -6498.301758 -2609.283447 0.222877 -0.653005 0.723777
-6503.110840 -6541.380371 -2609.118652 0.230506 -0.390027 0.891446
-6572.217285 -6514.974121 -2526.557861 0.305704 -0.939879 0.152104
-6607.311035 -6548.689453 -2565.597900 0.416089 -0.529801 0.739006
-6412.719727 -6458.666504 -2537.433594 0.198950 -0.978576 0.052705
-6398.374512 -6629.396973 -2306.731689 -0.258583 -0.101932 -0.960570
-6418.177246 -6818.911133 -2295.053467 -0.340129 0.295053 -0.892850
-6507.937500 -6626.281250 -2268.858398 -0.221686 -0.356822 -0.907468
-6330.174316 -6565.572754 -2340.138916 -0.198065 -0.737877 -0.645161
-6531.225098 -6524.849121 -2384.611816 0.040498 -0.934721 -0.353038
-6800.182129 -6562.075195 -2339.912354 0.187078 -0.966308 -0.176672
-6806.808105 -6589.536133 -2467.095215 0.323435 -0.798242 0.508072
-6685.532227 -6563.776367 -2515.669189 0.428755 -0.808069 0.403882
-5773.082520 -6679.380371 -2443.674072 -0.883602 0.464644 -0.057680
-5782.929688 -6494.842285 -2614.178467 -0.892605 0.206091 0.400922
-5837.020508 -6605.525879 -2645.738037 -0.863308 0.239326 0.444288
-6117.161133 -6532.598145 -2996.193848 -0.642750 0.135166 0.754021
-6143.093750 -6662.979492 -2990.470703 -0.551317 0.248573 0.796381
-6003.533691 -6567.580078 -2888.115723 -0.697775 0.191290 0.690268
-5897.517090 -6252.917969 -2826.095215 -0.691855 -0.451491 0.563433
-5929.582031 -6355.227539 -2861.558594 -0.734336 0.098514 0.671560
-5822.515625 -6333.686035 -2732.409668 -0.844539 0.016358 0.535203
-5825.107422 -6238.655762 -2703.526367 -0.556352 -0.765862 0.322306
-5755.571289 -6259.162598 -2588.516602 -0.851558 -0.400342 0.338389
-5767.231445 -6400.010254 -2382.714600 -0.353832 -0.305551 -0.883969
-5708.168457 -6514.749023 -2379.390137 -0.941557 0.064760 -0.330515
-5763.151367 -6417.141602 -2593.735596 -0.912931 0.120426 0.389874
-5882.137207 -6834.401367 -2569.400146 -0.552416 0.810724 0.193670
-5864.169922 -6684.154297 -2664.578125 -0.858119 0.263558 0.440565
-5962.214355 -6830.664551 -2740.933838 -0.514969 0.774926 0.366436
-5702.996094 -6361.811035 -2474.000000 -0.990570 -0.115452 -0.073733
-5762.450195 -6293.118652 -2422.708984 -0.519303 -0.474441 -0.710746
-5910.283691 -6693.487793 -2374.749268 -0.536912 0.834590 -0.123112
-5937.514648 -6836.597656 -2416.799072 -0.236183 0.824854 -0.513596
-5850.636230 -6384.778809 -2380.871826 0.134892 -0.194159 -0.971618
-5861.082520 -6243.572754 -2423.589355 0.113132 -0.751854 -0.649495
-5747.106934 -6241.968262 -2511.569580 -0.613971 -0.783532 -0.095187
-5985.838867 -6239.406250 -2535.103027 0.385327 -0.823267 -0.416791
-5885.769043 -6535.505859 -2755.854492 -0.794610 0.190588 0.576373
-5970.520996 -6478.918945 -2875.098145 -0.714469 0.163793 0.680197
-6190.992676 -6606.191895 -2345.031494 -0.104801 -0.365001 -0.925077
-6139.261230 -6816.450684 -2352.960693 -0.124882 0.477157 -0.869869
-5990.654297 -6502.272461 -2431.947266 0.275063 -0.448256 -0.850520
-6330.007324 -6837.393555 -2351.679199 -0.062288 0.969634 -0.236427
-6148.522461 -6834.592285 -2924.153320 -0.368450 0.795526 0.480972
-5864.882812 -6827.245117 -2445.594238 -0.563616 0.714743 -0.414045
-6106.028320 -6257.050293 -2643.481445 0.680715 -0.356090 -0.640126
-6152.675781 -6239.194824 -2703.825928 0.401624 -0.816828 -0.414045
-6263.767090 -6441.115723 -2724.436279 0.648335 -0.382672 -0.658162
-6371.938965 -6491.187500 -2807.207520 0.433973 -0.323252 -0.840907
-6340.408203 -6248.437988 -2827.569824 0.394635 0.193793 -0.898160
-5940.208984 -6379.351074 -2415.726318 0.483932 -0.229926 -0.844325
-5936.136230 -6681.015137 -2777.454102 -0.766137 0.231452 0.599506
-6092.731445 -6415.048340 -2506.597412 0.465835 -0.605518 -0.645222
-6285.021484 -6818.728516 -2328.139648 -0.172185 0.507981 -0.843959
-6284.574707 -6633.797363 -2318.526123 -0.173925 -0.144688 -0.974059
-6028.564453 -6243.035156 -2964.797852 -0.475631 -0.649953 0.592700
-6047.384277 -6733.612305 -2879.738281 -0.679739 0.256142 0.687246
-6094.491211 -6338.434570 -2598.378906 0.694601 -0.386456 -0.606739
-6070.879395 -6383.706543 -2985.889893 -0.607410 0.087710 0.789514
-6173.230469 -6238.665527 -3048.032715 -0.301737 -0.712668 0.633259
-6113.066406 -6485.200684 -2467.238525 0.120273 -0.741081 -0.660543
-6354.054199 -6793.778320 -3028.612549 -0.035279 0.436964 0.898770
-6282.667480 -6680.537109 -3056.768066 -0.259987 0.310739 0.914243
-6414.952148 -6599.537598 -3076.916992 0.112003 0.198706 0.973601
-6282.162598 -6589.901367 -3075.565186 -0.226814 0.230171 0.946318
-6306.914062 -6495.283691 -3108.877930 -0.164281 0.152989 0.974456
-6436.148926 -6429.668945 -3109.066895 0.309244 -0.018189 0.950804
-6176.258789 -6473.587891 -3055.435547 -0.505234 0.105502 0.856502
-6182.798340 -6450.055176 -2622.084473 0.641530 -0.725822 -0.248115
-6262.422363 -6243.083984 -2790.767822 0.319041 -0.810266 -0.491562
-6266.333984 -6832.297363 -2996.466797 -0.206793 0.750237 0.627949
-6432.530762 -6510.564453 -2433.363525 0.036714 -0.916776 -0.397687
-6211.226562 -6440.623535 -2536.282959 0.193304 -0.963408 -0.185614
-6693.458496 -6835.968262 -2666.038330 0.477035 0.753258 -0.452742
-6514.006348 -6833.354492 -2990.762695 0.153844 0.760949 0.630268
-6651.104492 -6835.309570 -2946.539795 0.210944 0.756706 0.618732
-6246.828125 -6299.043457 -3091.441650 -0.267922 -0.252083 0.929838
-6235.647461 -6474.910156 -2603.573486 0.329905 -0.833338 0.443464
-6334.765625 -6576.146973 -2674.527832 0.659688 -0.742698 0.114811
-6706.328125 -6454.447266 -2896.850586 0.820612 -0.547349 0.164159
-6593.237793 -6336.743652 -2964.248047 0.715049 -0.549394 0.432203
-6507.127441 -6241.297852 -2935.554443 0.458876 -0.886654 -0.056856
-6656.952637 -6413.168945 -2856.135986 0.544389 -0.600787 -0.585376
-6443.600098 -6243.325684 -2866.494385 0.232246 -0.796594 -0.558061
-6455.927734 -6669.453613 -3060.184570 0.216803 0.265786 0.939299
-6435.723145 -6244.104004 -3068.446045 0.318461 -0.729820 0.604907
-6340.527344 -6309.304688 -3112.779053 -0.017884 -0.313273 0.949461
-7197.335938 -6836.040039 -2448.181641 0.363903 0.491897 0.790918
-6873.361328 -6834.323242 -2462.877930 0.164037 0.869778 0.465346
-6685.396973 -6818.818359 -2623.316406 0.527635 -0.761773 0.375866
-6665.652832 -6712.426270 -2548.790039 0.382763 -0.262368 0.885769
-6567.588867 -6700.854004 -2737.434326 0.179510 -0.642598 -0.744835
-6932.424805 -6775.499512 -2741.281982 0.542222 -0.634724 -0.550493
-6878.821289 -6823.238281 -2679.260742 0.295541 0.293283 -0.909177
-7002.310547 -6835.156250 -2762.208008 0.935423 0.346904 -0.067598
-6406.456543 -6328.962402 -2832.202881 0.193213 -0.194861 -0.961577
-6614.161133 -6453.772949 -3009.340576 0.593493 -0.205023 0.778252
-6512.432129 -6518.888184 -3061.676514 0.407758 0.116703 0.905576
-6687.118652 -6517.479004 -2814.211182 0.292611 -0.422163 -0.857967
-6476.731934 -6577.108398 -2810.283936 0.181249 -0.367595 -0.912137
-6647.782715 -6612.366699 -2983.939941 0.468215 0.073519 0.880520
-6628.949219 -6638.831055 -2241.437500 -0.165838 -0.434400 -0.885311
-6584.352051 -6565.667480 -2301.384277 -0.074465 -0.806665 -0.586261
-6759.687012 -6595.191895 -2910.807861 0.638569 -0.189062 0.745964
-6577.479980 -6817.202148 -2216.889160 -0.386212 0.244148 -0.889492
-6572.940430 -6687.372070 -3011.251465 0.452559 0.238075 0.859340
-6679.091797 -6606.147949 -2771.749512 0.010559 -0.400983 -0.916013
-6697.981445 -6555.163574 -2394.741943 0.131230 -0.990143 -0.048555
-6723.220215 -6834.023926 -2167.994385 -0.195318 0.632740 -0.749290
-6795.198730 -6653.756836 -2516.511475 0.308756 -0.255745 0.916105
-6792.738281 -6698.231445 -2744.677246 0.291360 -0.580218 -0.760521
-6913.387207 -6734.131836 -2810.076660 0.745445 -0.622822 0.237312
-6861.122559 -6614.203125 -2258.003662 0.178045 -0.786004 -0.591998
-6752.716797 -6716.946777 -2180.261963 -0.131474 -0.393658 -0.909787
-6824.120605 -6814.153809 -2507.146973 0.511795 0.071200 0.856136
-6948.911621 -6781.022949 -2148.956787 0.058962 -0.390393 -0.918729
-6819.800781 -6784.520020 -2152.677734 -0.103427 -0.129124 -0.986206
-6997.014648 -6832.414062 -2139.286865 0.088321 0.579180 -0.810389
-6920.819824 -6598.191406 -2396.627930 0.387494 -0.907071 0.164434
-6903.231934 -6733.691406 -2497.086426 0.283883 0.006439 0.958831
-7023.166992 -6820.146484 -2462.702637 0.088443 0.200659 0.975646
-6944.521484 -6653.320801 -2461.687744 0.388745 -0.534349 0.750511
-6982.047363 -6640.120117 -2286.248535 0.396649 -0.850703 -0.344859
-7243.205078 -6834.065918 -2222.422119 0.636616 0.448775 -0.627125
-7097.514160 -6797.350098 -2164.842529 0.343974 -0.323038 -0.881649
-7101.976074 -6708.878418 -2405.737793 0.505051 -0.772149 0.385571
-7127.516113 -6717.768066 -2301.977783 0.486435 -0.849239 -0.205206
-7244.940918 -6793.966309 -2253.890869 0.695334 -0.615162 -0.371563
-7288.535156 -6821.026855 -2393.428223 0.919462 0.141820 0.366619
3 0 1 2
3 3 0 2
3 4 5 6
3 7 8 9
3 9 10 11
3 12 13 14
3 15 16 17
3 15 17 18
3 18 17 19
3 20 21 22
3 23 24 25
3 26 27 28
3 29 30 31
3 32 31 33
3 34 35 1
3 23 35 36
3 36 24 23
3 37 38 39
3 2 35 23
3 40 35 34
3 40 36 35
3 41 40 34
3 1 35 2
3 42 43 3
3 41 34 44
3 41 45 46
3 45 47 32
3 41 46 40
3 46 33 40
3 36 31 24
3 24 31 48
3 40 33 36
3 48 31 49
3 36 33 31
3 25 24 48
3 44 34 0
3 50 3 51
3 34 1 0
3 44 0 52
3 46 45 32
3 38 23 25
3 46 32 33
3 53 39 54
3 2 42 3
3 51 3 43
3 51 43 53
3 43 2 23
3 43 23 55
3 2 43 42
3 41 44 45
3 43 55 37
3 55 23 37
3 37 23 38
3 47 56 57
3 58 59 60
3 31 32 29
3 50 0 3
3 45 44 61
3 32 47 57
3 38 62 39
3 25 48 38
3 38 48 62
3 48 28 62
3 63 61 52
3 52 0 50
3 50 64 65
3 61 44 52
3 66 29 32
3 31 30 49
3 30 29 66
3 39 62 67
3 66 32 57
3 68 56 61
3 47 45 61
3 48 49 28
3 49 26 28
3 37 39 43
3 69 66 70
3 61 63 68
3 39 53 43
3 27 62 28
3 30 69 49
3 61 56 47
3 54 39 67
3 67 62 27
3 66 69 30
3 71 63 52
3 66 57 70
3 18 50 65
3 56 68 57
3 72 27 73
3 74 75 76
3 74 76 77
3 26 49 78
3 26 78 27
3 68 63 79
3 80 57 58
3 49 69 78
3 69 70 78
3 64 50 51
3 64 51 53
3 67 27 54
3 54 27 81
3 71 52 82
3 63 71 83
3 63 83 79
3 68 79 58
3 54 81 84
3 84 85 86
3 82 52 50
3 57 80 70
3 53 54 84
3 73 27 78
3 78 70 87
3 57 68 58
3 78 76 75
3 79 88 89
3 79 83 88
3 78 87 76
3 79 89 58
3 80 58 60
3 81 27 72
3 90 91 92
3 93 92 94
3 72 73 95
3 78 75 73
3 50 18 82
3 83 71 14
3 14 71 82
3 14 13 10
3 81 85 84
3 70 96 87
3 87 96 97
3 87 97 76
3 76 97 77
3 65 64 15
3 15 64 16
3 98 53 99
3 53 84 99
3 100 9 101
3 83 14 88
3 84 100 99
3 9 100 7
3 100 84 102
3 103 104 105
3 70 80 94
3 64 53 16
3 89 88 10
3 59 89 8
3 58 89 59
3 60 59 106
3 60 106 94
3 77 107 108
3 106 59 109
3 94 106 93
3 82 19 12
3 80 60 94
3 81 72 85
3 18 65 15
3 59 8 110
3 109 59 110
3 111 108 107
3 73 75 74
3 73 74 95
3 17 16 112
3 19 17 113
3 88 14 10
3 19 82 18
3 90 114 107
3 70 94 92
3 70 92 96
3 77 97 96
3 16 53 115
3 10 13 11
3 10 9 89
3 89 9 8
3 72 116 85
3 72 95 116
3 74 77 108
3 82 12 14
3 110 102 117
3 8 102 110
3 74 108 95
3 12 19 118
3 12 118 22
3 53 119 115
3 77 96 91
3 7 102 8
3 92 91 96
3 95 108 111
3 116 95 111
3 91 107 77
3 16 115 112
3 22 21 120
3 9 11 13
3 7 100 102
3 9 13 101
3 109 117 121
3 4 121 122
3 121 117 102
3 109 93 106
3 92 93 90
3 113 123 20
3 113 118 19
3 12 22 13
3 6 86 111
3 116 111 85
3 85 111 86
3 91 90 107
3 90 93 4
3 4 93 109
3 115 124 112
3 17 112 113
3 118 113 20
3 121 84 104
3 109 110 117
3 124 115 119
3 100 101 125
3 111 107 114
3 6 111 114
3 126 124 127
3 126 127 128
3 129 21 20
3 113 112 123
3 13 22 120
3 120 130 125
3 101 13 120
3 102 84 121
3 119 127 124
3 104 84 105
3 53 98 119
3 118 20 22
3 84 86 105
3 105 86 5
3 4 109 121
3 86 6 5
3 101 120 125
3 99 100 125
3 4 114 90
3 127 119 128
3 119 98 128
3 131 99 130
3 4 6 114
3 123 124 126
3 124 123 112
3 21 132 120
3 5 4 122
3 129 123 133
3 123 129 20
3 103 121 104
3 21 129 132
3 130 99 125
3 122 121 103
3 134 128 98
3 123 126 135
3 132 130 120
3 105 5 122
3 122 103 105
3 132 129 136
3 131 130 132
3 123 135 133
3 129 133 136
3 126 128 135
3 135 128 134
3 133 137 136
3 132 136 98
3 98 99 131
3 135 134 138
3 132 98 131
3 98 139 134
3 135 137 133
3 137 135 138
3 98 136 139
3 137 138 136
3 136 138 139
3 134 139 138
