ply
format ascii 1.0
comment Created by Blender 2.80 (sub 75) - www.blender.org, source file: 'color_and_decimate.blend'
element vertex 237
property float x
property float y
property float z
property float nx
property float ny
property float nz
element face 470
property list uchar uint vertex_indices
end_header
-6965.232422 -6854.333008 -1243.728149 -0.971770 -0.220130 -0.084628
-6962.222168 -7033.556152 -1256.562866 -0.741997 0.213599 0.635426
-6963.158691 -7009.594727 -1099.944092 -0.981658 -0.017945 -0.189673
-6967.191895 -6852.530762 -1105.653931 -0.844386 -0.496292 -0.201636
-6993.751953 -6842.739258 -1062.655884 -0.771264 -0.614460 -0.165960
-6986.225586 -7095.202148 -1036.652588 -0.972991 -0.038667 -0.227454
-6988.095703 -7061.714355 -916.473450 -0.980102 -0.042207 -0.193854
-7036.058594 -7213.942383 -665.226074 -0.974548 -0.013550 -0.223670
-7036.851562 -6972.958008 -696.407043 -0.978912 -0.046388 -0.198798
-7013.836914 -7203.021973 -714.329590 -0.974059 -0.024110 -0.224952
-7105.727539 -7276.176758 -265.852692 -0.333445 -0.194525 -0.922452
-7067.532227 -7423.060059 -324.089355 -0.850551 0.469253 -0.237312
-7100.324707 -7434.473633 -274.552063 -0.406995 0.637349 -0.654286
-7333.644531 -7236.967285 -1257.581909 -0.207221 0.297739 0.931852
-7218.666992 -7116.624512 -1266.947876 -0.185430 0.360790 0.913999
-7389.012695 -7210.455566 -1266.154541 -0.264412 0.371838 0.889828
-7268.270508 -7085.997559 -1303.341187 -0.202277 0.381634 0.901883
-7236.670410 -6876.855957 -1388.842285 -0.208350 0.219245 0.953154
-7405.343750 -6873.127441 -1443.532227 -0.312479 0.173742 0.933866
-7454.277344 -7028.496094 -1366.543213 -0.246284 0.419996 0.873440
-7512.155273 -6982.357422 -1417.183838 -0.330760 0.474013 0.816004
-7549.377930 -6883.130371 -1489.860352 -0.350780 0.247200 0.903226
-7628.744629 -7028.053223 -1441.032227 -0.326914 0.438246 0.837275
-7682.012695 -6975.525879 -1486.851929 -0.346965 0.473617 0.809473
-8369.860352 -6837.518066 -1380.354858 0.249306 -0.946440 0.205084
-7606.022949 -6839.614746 -1511.752930 -0.264809 -0.722739 0.638325
-7451.033691 -6837.818359 -1453.295288 -0.205786 -0.748741 0.630085
-8600.888672 -6995.874023 -758.093384 0.457350 -0.171667 -0.872524
-8489.516602 -6842.619629 -738.986511 0.244148 -0.773370 -0.585009
-8548.673828 -7025.989258 -719.083923 0.372387 -0.148106 -0.916166
-8625.578125 -7197.107422 -732.651184 0.404401 -0.123630 -0.906156
-8694.743164 -7147.595703 -777.241699 0.437971 -0.138249 -0.888272
-8755.822266 -7186.723145 -955.088440 0.779168 0.025361 0.626270
-8722.850586 -7396.654785 -988.981018 0.772973 0.266182 0.575854
-8639.744141 -7327.888184 -1074.152100 0.820948 0.081332 0.565142
-8564.681641 -7075.226562 -1173.808716 0.833461 0.048860 0.550371
-8521.533203 -7237.376953 -1239.694946 0.816889 0.039766 0.575396
-8556.483398 -7029.147949 -1204.626831 0.829035 0.026215 0.558550
-8480.949219 -6860.544922 -1297.889893 0.708426 -0.401410 0.580493
-8468.278320 -6996.250488 -1294.983765 0.824519 0.046846 0.563829
-8431.273438 -7080.181152 -1354.633301 0.813379 0.038118 0.580432
-6959.703125 -6941.669434 -1303.631836 -0.516587 0.342906 0.784539
-7068.350098 -6987.832520 -1305.742188 -0.194098 0.397748 0.896695
-6968.616211 -6990.995117 -1266.373657 -0.702109 0.279183 0.655019
-6935.268555 -6890.985352 -1301.375854 -0.945036 0.022065 0.326182
-7012.839355 -7427.914551 -813.590820 -0.677816 0.723197 -0.132176
-6991.064941 -7296.122070 -876.384277 -0.973571 -0.022370 -0.227180
-6991.789551 -7419.529785 -856.849976 -0.877895 0.430616 -0.209296
-7016.565430 -7420.032227 -684.992615 -0.871029 0.435926 -0.226356
-7043.080078 -7430.744629 -636.405212 -0.664571 0.736167 -0.127842
-7038.162109 -7202.293945 -535.711304 -0.975951 -0.014557 -0.217414
-7042.713867 -7422.230957 -509.570312 -0.876736 0.435804 -0.203375
-6967.335938 -7420.737305 -1033.863159 -0.858943 0.478927 -0.181036
-6963.773926 -7243.774414 -1061.347290 -0.974425 -0.033082 -0.222144
-6963.019043 -7361.359375 -1145.859253 -0.879910 0.201972 0.430036
-7037.644043 -7418.958496 -1157.152832 -0.232276 0.259560 0.937346
-6975.614746 -7430.445312 -1146.300781 -0.557726 0.630604 0.539628
-6983.599121 -7272.971680 -1211.747192 -0.530106 0.148503 0.834803
-6988.585938 -7428.093262 -987.214966 -0.668874 0.730674 -0.136662
-7012.136230 -7041.008789 -859.275940 -0.981689 -0.047853 -0.184240
-7014.805176 -6855.937500 -770.171936 -0.882412 -0.441755 -0.161748
-6968.904785 -7119.400879 -1208.763550 -0.807459 0.206427 0.552599
-6992.309082 -6852.373047 -934.531860 -0.867397 -0.446028 -0.220557
-7205.999512 -7420.003418 -266.825500 0.243171 0.408856 -0.879574
-7146.453125 -7437.451172 -1171.586548 -0.106479 0.936613 0.333750
-7198.369629 -7421.920410 -1207.115845 -0.065127 0.535722 0.841853
-7435.650391 -7431.861816 -1206.317017 -0.159551 0.851466 0.499496
-8647.044922 -7436.891602 -1042.647705 0.464797 0.795618 0.388470
-8395.372070 -7437.380859 -1352.330566 0.497665 0.791925 0.353710
-8511.123047 -7416.991699 -1225.199097 0.763451 0.293832 0.575121
-8597.455078 -7417.667480 -1137.803833 0.676809 0.477218 0.560503
-6969.520996 -6838.909180 -1332.380859 -0.520035 -0.567583 0.638234
-7092.587402 -6861.577637 -1363.962036 -0.237678 0.134587 0.961943
-7098.339355 -6939.437988 -1319.242065 -0.185949 0.362011 0.913419
-7374.387695 -7081.411621 -1317.680054 -0.221076 0.360973 0.905972
-7068.436035 -7433.515137 -460.477295 -0.637989 0.759117 -0.128941
-7063.371582 -7274.843262 -340.738190 -0.963134 -0.037843 -0.266243
-7023.801270 -6837.556152 -889.599121 -0.579028 -0.802820 -0.141942
-7045.247070 -6843.050781 -713.683899 -0.919340 -0.357006 -0.165227
-7065.735352 -7105.046387 -367.654266 -0.953276 -0.023347 -0.301157
-7061.707031 -7183.480469 -483.915619 -0.977966 -0.020325 -0.207648
-7038.854004 -6855.322754 -590.238403 -0.876034 -0.443556 -0.189184
-7070.789551 -6838.695801 -544.678101 -0.561083 -0.812494 -0.158147
-7060.766113 -6971.976562 -523.424561 -0.972930 -0.055818 -0.224189
-7062.700195 -6918.555176 -395.723022 -0.972716 -0.099033 -0.209662
-7095.652832 -7153.012695 -319.621063 -0.544145 -0.113102 -0.831324
-7282.459961 -7380.152832 -311.752777 0.221290 0.004517 -0.975188
-7295.394043 -7436.401855 -325.737854 0.112735 0.832850 -0.541856
-7468.358398 -7420.753906 -316.567627 0.232368 0.457503 -0.858272
-7704.153320 -7262.470703 -410.299500 0.244697 -0.101169 -0.964293
-7767.765137 -7433.094727 -413.329224 0.199591 0.753655 -0.626209
-7780.378418 -7243.845703 -414.727142 0.235389 -0.091098 -0.967589
-7860.805176 -7185.913574 -460.461456 0.219764 -0.092746 -0.971099
-8016.543945 -7386.920898 -464.008881 0.299478 0.138371 -0.943999
-7932.555664 -7170.039551 -464.718109 0.256203 -0.111118 -0.960204
-8067.216797 -7286.025391 -506.391296 0.285592 -0.086550 -0.954405
-8033.491699 -7198.303223 -509.916656 0.263100 -0.122715 -0.956908
-8105.945801 -7214.214355 -514.756836 0.279885 -0.109653 -0.953734
-8379.735352 -6842.646484 -683.781067 0.245613 -0.742851 -0.622761
-8469.699219 -6963.924805 -706.866821 0.394787 -0.176214 -0.901700
-7129.604004 -7197.689453 -1213.183716 -0.148289 0.272011 0.950774
-7295.176758 -6839.229980 -1400.720337 -0.189886 -0.766320 0.613727
-7081.447266 -6839.551270 -395.888062 -0.617908 -0.769250 -0.162511
-7355.780762 -7045.415039 -361.079681 0.215369 -0.138462 -0.966643
-7207.285645 -6978.028809 -313.227722 0.213141 -0.164495 -0.963042
-7357.843262 -7212.178223 -313.505981 0.225501 -0.128910 -0.965667
-7105.934082 -6851.634766 -315.470764 -0.345134 -0.579730 -0.738060
-7149.639648 -7190.578125 -309.510315 0.083438 -0.165105 -0.982727
-7399.994141 -7041.626953 -1353.404419 -0.217627 0.427717 0.877285
-7247.031738 -6896.068848 -360.034546 0.201788 -0.261910 -0.943754
-7209.856934 -6841.255371 -375.130829 0.132389 -0.879177 -0.457717
-7529.146973 -7422.429688 -1257.506592 -0.159215 0.568468 0.807123
-7426.944336 -7186.904785 -1306.898926 -0.276772 0.370830 0.886471
-7499.842285 -7054.153809 -364.361298 0.235939 -0.126499 -0.963469
-7625.472656 -7298.644531 -363.384735 0.252785 -0.104892 -0.961791
-7299.471191 -7282.800781 -1217.210449 -0.241218 0.343303 0.907712
-7394.728027 -6853.739258 -363.931274 0.142857 -0.578600 -0.802972
-7496.650879 -6842.022949 -419.359467 0.161626 -0.809534 -0.564348
-7557.802734 -7434.856934 -368.149109 0.132633 0.795160 -0.591693
-8003.954102 -7437.338867 -483.980011 0.140080 0.813257 -0.564745
-7455.611816 -7210.979980 -359.858704 0.227210 -0.134404 -0.964507
-7541.233887 -7372.705566 -358.471283 0.235725 -0.035035 -0.971160
-7531.894531 -7182.018066 -1320.913574 -0.245216 0.290597 0.924863
-7554.286133 -7287.722656 -1307.086426 -0.277352 0.308176 0.909970
-7763.858887 -7432.276855 -1313.519043 -0.215278 0.863643 0.455763
-7694.301758 -7283.306152 -1353.944702 -0.352245 0.350108 0.867916
-7809.848633 -7425.363281 -1349.921143 -0.251564 0.701987 0.666250
-7909.531250 -7435.131836 -1384.031128 -0.260903 0.859035 0.440382
-7625.123047 -7432.367676 -1262.643677 -0.199286 0.868435 0.453932
-7681.067383 -7422.385254 -1304.269409 -0.225440 0.574084 0.787133
-7661.140137 -7001.871094 -414.702576 0.221992 -0.132633 -0.965972
-7579.598145 -7027.645996 -410.988434 0.241401 -0.136265 -0.960784
-7856.919434 -7424.011230 -419.202271 0.225043 0.595477 -0.771203
-8167.951172 -7388.968750 -517.350830 0.352580 0.129002 -0.926817
-8208.631836 -7258.905273 -558.049683 0.293863 -0.083804 -0.952147
-8440.621094 -7074.548340 -666.726074 0.363353 -0.134251 -0.921903
-8525.515625 -7128.246094 -706.425842 0.395947 -0.120792 -0.910276
-7589.384277 -6853.994141 -416.726349 0.174902 -0.524827 -0.833033
-7676.606934 -6840.244141 -471.709137 0.166906 -0.832911 -0.527604
-7639.824219 -7141.696289 -1383.691284 -0.385998 0.404614 0.829005
-7677.161621 -7422.441406 -367.571381 0.259102 0.447218 -0.856044
-7832.412109 -7359.350586 -1369.238037 -0.348369 0.282785 0.893674
-7741.413086 -6960.113770 -458.891632 0.207678 -0.156590 -0.965575
-7839.905762 -6972.869629 -463.863861 0.243263 -0.131260 -0.961028
-7783.751953 -6841.722656 -1590.425293 -0.309244 -0.769768 0.558397
-7741.561523 -6885.420898 -1574.397339 -0.407453 0.240699 0.880917
-7771.044922 -7238.745117 -1403.390259 -0.390088 0.403974 0.827418
-7888.369629 -7278.555176 -1433.543213 -0.419599 0.391156 0.819086
-7994.674805 -7432.462402 -1420.506958 -0.261025 0.828791 0.494919
-7792.188477 -6850.825684 -469.597626 0.181860 -0.580737 -0.793481
-7863.739258 -6842.689453 -513.105408 0.192236 -0.804224 -0.562334
-7718.482910 -7085.938477 -1443.239014 -0.327921 0.379070 0.865291
-7778.758301 -7043.271973 -1495.324097 -0.410169 0.423841 0.807520
-7881.928223 -7163.387207 -1496.251709 -0.402844 0.377911 0.833583
-8230.328125 -7430.663086 -1552.632812 0.133610 0.688284 0.713004
-8155.392090 -7436.363770 -1500.886597 -0.229072 0.857479 0.460646
-8269.298828 -7362.765625 -1535.619629 0.709037 0.106021 0.697104
-8303.311523 -7133.292969 -1507.984253 0.819910 0.056734 0.569628
-8301.129883 -7238.784180 -1487.228027 0.838008 0.038881 0.544237
-7927.553223 -6950.451660 -510.557434 0.255501 -0.149419 -0.955168
-8247.968750 -6849.558105 -1570.191406 0.643544 -0.542375 0.540025
-8355.344727 -6863.950684 -1456.868652 0.779717 -0.361950 0.510880
-8378.401367 -7413.691406 -1406.226929 0.768975 0.343944 0.538835
-7893.766602 -6858.778320 -1662.774048 -0.488662 0.089846 0.867824
-7828.746094 -6930.092285 -1582.303711 -0.381909 0.481796 0.788629
-7945.003906 -6841.531250 -521.861084 0.141514 -0.725455 -0.673544
-8374.813477 -6857.174316 -1412.308350 0.738639 -0.432020 0.517380
-8016.441406 -7229.797852 -1527.236450 -0.420850 0.383892 0.821863
-8061.149902 -7154.521973 -1586.187378 -0.433393 0.414197 0.800348
-7928.230469 -7384.147461 -460.867218 0.271828 -0.076083 -0.959319
-8096.812988 -7309.570312 -1528.862793 -0.386425 0.357341 0.850246
-8056.512207 -7056.215332 -515.053955 0.303262 -0.124943 -0.944670
-8124.109375 -7046.645020 -559.447632 0.315806 -0.122288 -0.940886
-7980.740234 -7007.797363 -1622.589966 -0.456557 0.457472 0.763054
-8165.783203 -7260.855469 -1591.226929 -0.425398 0.418836 0.802210
-8169.533691 -7171.784180 -1639.746704 0.153874 0.335582 0.929350
-8206.142578 -7282.286133 -1600.757935 0.186193 0.257973 0.948027
-7963.710938 -6844.779785 -1699.778198 -0.385388 -0.569475 0.726035
-8069.343262 -6840.924805 -1762.054688 -0.030915 -0.640278 0.767510
-8218.498047 -7124.768066 -565.459656 0.300607 -0.101016 -0.948363
-8269.828125 -7274.351562 -566.272156 0.316385 -0.097079 -0.943632
-8084.183105 -7415.246582 -1488.906372 -0.353130 0.514786 0.781182
-8056.804688 -6898.621094 -557.270386 0.314341 -0.135472 -0.939573
-8093.564453 -6842.726074 -571.336182 0.225257 -0.723014 -0.653035
-8085.062500 -7424.067383 -512.184326 0.319865 0.044923 -0.946379
-8165.922363 -6838.627441 -623.033752 0.185644 -0.873012 -0.450942
-8139.752441 -6853.093262 -1698.294922 0.704642 -0.359386 0.611774
-8177.527344 -7110.274414 -1658.739990 0.591510 0.246071 0.767815
-8229.626953 -7046.850098 -1584.254395 0.794000 0.063173 0.604602
-8092.833496 -6896.631836 -1769.304321 0.191717 0.251259 0.948729
-8109.888672 -6964.022461 -1717.926392 0.142277 0.342235 0.928770
-8711.901367 -6840.945312 -995.303040 0.554460 -0.753075 0.354167
-8603.335938 -6851.920898 -1137.282104 0.775079 0.033937 0.630940
-8194.087891 -7021.094238 -568.975708 0.280526 -0.133702 -0.950468
-8218.528320 -6992.595703 -1617.509644 0.828059 0.032258 0.559648
-8222.958008 -7434.654785 -557.393494 0.209693 0.750145 -0.627094
-8297.139648 -6843.097656 -657.886230 0.285226 -0.801141 -0.526078
-8215.049805 -6926.361816 -606.657166 0.287820 -0.210181 -0.934324
-8668.578125 -7041.801270 -1067.663696 0.828547 0.046022 0.557970
-8638.683594 -7245.209473 -1097.241699 0.838221 0.051180 0.542894
-8252.889648 -6857.915039 -618.104736 0.270028 -0.480605 -0.834315
-8702.948242 -6862.101562 -1033.766357 0.845820 -0.242012 0.475356
-8347.611328 -7297.723145 -605.953003 0.358867 -0.092929 -0.928739
-8318.261719 -7418.254883 -567.070923 0.381573 0.357006 -0.852596
-8368.978516 -7434.502441 -613.096008 0.239601 0.775933 -0.583514
-8435.113281 -7421.912109 -620.374390 0.309915 0.343455 -0.886532
-8395.134766 -7251.506836 -618.590881 0.368084 -0.111026 -0.923124
-8474.347656 -7301.428711 -657.849609 0.343303 -0.086612 -0.935209
-8297.064453 -7144.261230 -606.963928 0.346110 -0.097079 -0.933134
-8318.378906 -7036.117676 -617.021912 0.428358 -0.155278 -0.890133
-8523.387695 -7325.558594 -665.530457 0.326701 -0.078036 -0.941862
-8568.711914 -7278.532227 -703.347900 0.424177 -0.159154 -0.891446
-8400.846680 -7086.147461 -656.767456 0.369976 -0.138768 -0.918607
-8688.026367 -7026.641113 -1025.743896 0.835566 0.044496 0.547563
-8800.730469 -6987.351074 -909.300964 0.875881 0.041810 0.480636
-8485.078125 -7411.838867 -1275.458496 0.724357 0.406323 0.556932
-8424.806641 -7250.028809 -1338.693604 0.817499 0.048402 0.573840
-8338.808594 -7052.827637 -1449.579224 0.822993 0.049532 0.565874
-8662.359375 -6838.033203 -832.201904 0.159673 -0.950346 -0.267037
-8810.289062 -6849.856934 -889.640137 0.817042 -0.567309 -0.102634
-8645.298828 -7388.192383 -716.091309 0.452467 0.054201 -0.890103
-8713.620117 -7391.408203 -753.414490 0.463546 0.064089 -0.883724
-8746.108398 -7297.639160 -780.905579 0.450942 -0.097354 -0.887204
-8530.471680 -7433.250000 -668.227844 0.282632 0.695822 -0.660207
-8593.561523 -6850.946289 -771.304749 0.334208 -0.540727 -0.771935
-8692.865234 -7435.855957 -756.531860 0.270638 0.803003 -0.530931
-8538.374023 -7273.589844 -1200.129639 0.809748 0.043184 0.585162
-8667.994141 -6958.358398 -799.950989 0.404797 -0.130528 -0.905026
-8740.983398 -7034.284180 -815.942200 0.457198 -0.167272 -0.873470
-8825.333008 -7431.199707 -815.687256 0.688650 0.612812 -0.387524
-8707.487305 -6861.292969 -823.812378 0.416059 -0.442305 -0.794488
-8809.587891 -6991.833984 -874.368713 0.953978 -0.067751 -0.292093
-8739.038086 -7413.569824 -947.979065 0.756676 0.367260 0.540849
-8816.409180 -7224.588867 -824.626282 0.766991 -0.097629 -0.634175
-8823.413086 -7192.359863 -857.967468 0.986847 -0.044923 0.155217
-8800.179688 -7036.314941 -847.680603 0.670278 -0.213721 -0.710624
-8829.659180 -7419.273926 -852.428833 0.816523 0.474868 0.328227
3 0 1 2
3 0 2 3
3 4 3 5
3 4 5 6
3 7 8 9
3 10 11 12
3 13 1 14
3 15 14 16
3 17 18 19
3 19 18 20
3 20 18 21
3 22 21 23
3 24 25 26
3 27 28 29
3 27 29 30
3 27 30 31
3 32 33 34
3 35 36 37
3 38 39 40
3 41 42 43
3 43 44 41
3 45 46 47
3 9 48 49
3 50 49 51
3 52 53 54
3 55 56 54
3 55 54 57
3 1 43 14
3 58 53 52
3 52 54 56
3 6 46 59
3 59 46 45
3 53 58 5
3 5 58 6
3 60 59 9
3 53 2 61
3 53 61 54
3 54 61 57
3 2 53 5
3 52 56 58
3 4 6 62
3 63 10 12
3 64 65 66
3 67 68 69
3 67 69 70
3 2 1 61
3 3 2 5
3 1 0 43
3 43 0 44
3 0 71 44
3 44 71 72
3 16 73 74
3 7 9 49
3 7 49 50
3 75 50 51
3 76 75 11
3 46 6 58
3 47 46 58
3 60 9 8
3 47 58 45
3 77 62 6
3 77 6 59
3 60 77 59
3 78 60 8
3 79 80 76
3 58 56 64
3 3 4 71
3 3 71 0
3 44 73 41
3 49 45 64
3 48 45 49
3 78 8 81
3 82 83 84
3 79 76 85
3 86 87 88
3 89 90 91
3 92 93 94
3 94 95 96
3 96 95 97
3 98 99 28
3 9 59 45
3 48 9 45
3 45 58 64
3 62 77 4
3 4 77 71
3 65 55 57
3 61 1 100
3 73 42 41
3 72 73 44
3 50 75 80
3 50 83 81
3 50 81 7
3 51 49 75
3 82 81 83
3 75 49 64
3 81 8 7
3 60 78 77
3 72 71 101
3 64 56 55
3 11 75 12
3 12 75 87
3 84 83 80
3 50 80 83
3 80 79 84
3 84 102 82
3 76 80 75
3 81 82 78
3 64 55 65
3 42 73 16
3 10 85 76
3 10 76 11
3 103 104 105
3 106 84 79
3 85 106 79
3 85 107 106
3 106 107 104
3 104 107 105
3 106 102 84
3 82 77 78
3 57 61 100
3 107 85 10
3 107 10 86
3 43 42 14
3 72 17 108
3 106 109 110
3 106 104 109
3 107 86 105
3 42 16 14
3 108 17 19
3 86 10 63
3 63 12 87
3 106 110 102
3 102 110 82
3 87 75 64
3 65 100 66
3 66 13 111
3 100 1 13
3 57 100 65
3 13 14 15
3 112 16 74
3 73 72 108
3 72 101 17
3 86 63 87
3 113 103 114
3 100 13 115
3 109 103 116
3 116 103 113
3 110 116 117
3 82 110 77
3 100 115 66
3 73 108 74
3 109 104 103
3 87 118 88
3 119 64 66
3 110 109 116
3 87 64 118
3 17 101 18
3 103 120 114
3 71 77 101
3 105 86 88
3 105 88 121
3 77 110 117
3 16 112 15
3 101 26 18
3 105 120 103
3 120 105 121
3 115 13 66
3 112 122 123
3 124 122 125
3 126 127 68
3 13 15 128
3 13 128 111
3 120 121 114
3 128 129 124
3 128 124 119
3 18 26 21
3 130 89 91
3 15 112 123
3 74 108 122
3 112 74 122
3 117 116 113
3 117 113 131
3 128 15 123
3 121 88 118
3 119 124 68
3 91 90 132
3 95 133 97
3 97 133 134
3 99 135 136
3 99 136 29
3 137 117 131
3 137 131 130
3 138 117 137
3 77 26 101
3 66 111 128
3 123 122 124
3 123 124 129
3 122 108 19
3 19 20 139
3 114 121 140
3 131 113 89
3 117 138 77
3 119 66 128
3 128 123 129
3 122 19 139
3 122 139 125
3 126 125 141
3 126 141 127
3 21 22 20
3 21 26 25
3 121 118 140
3 114 140 90
3 130 131 89
3 125 139 141
3 89 113 114
3 140 118 90
3 118 64 90
3 20 22 139
3 138 137 130
3 138 130 142
3 143 142 94
3 25 144 21
3 21 144 145
3 21 145 23
3 89 114 90
3 142 130 92
3 139 22 146
3 127 147 148
3 127 148 68
3 138 149 150
3 22 151 146
3 146 151 147
3 152 153 151
3 23 151 22
3 151 23 152
3 154 68 155
3 148 155 68
3 156 157 158
3 130 91 92
3 149 138 142
3 149 142 143
3 143 94 159
3 159 94 96
3 138 150 77
3 77 24 26
3 139 146 141
3 147 127 141
3 160 24 161
3 156 162 154
3 145 152 23
3 90 64 132
3 132 64 119
3 125 126 124
3 145 144 163
3 145 163 164
3 142 92 94
3 77 150 165
3 141 146 147
3 147 151 153
3 24 166 161
3 167 152 164
3 167 164 168
3 25 24 144
3 164 152 145
3 91 169 92
3 94 93 95
3 150 149 143
3 150 143 159
3 152 167 153
3 170 154 155
3 91 132 169
3 171 97 172
3 92 169 93
3 150 159 171
3 68 124 126
3 166 24 38
3 168 164 173
3 174 175 176
3 144 24 177
3 178 24 160
3 179 134 180
3 165 150 171
3 164 163 173
3 163 144 177
3 169 132 119
3 147 167 181
3 181 167 170
3 169 119 93
3 165 171 182
3 77 165 183
3 119 184 93
3 93 184 95
3 159 96 171
3 171 96 97
3 183 185 77
3 77 185 24
3 153 167 147
3 177 24 178
3 186 178 160
3 175 187 188
3 175 188 176
3 170 167 174
3 177 189 190
3 177 178 189
3 165 182 183
3 24 191 38
3 38 191 192
3 39 192 37
3 147 181 148
3 167 168 174
3 163 177 190
3 183 182 193
3 163 175 173
3 163 190 175
3 175 190 187
3 187 194 188
3 95 184 133
3 184 195 133
3 172 182 171
3 182 172 193
3 24 185 196
3 184 119 195
3 197 183 193
3 193 172 179
3 119 68 195
3 35 192 198
3 148 181 155
3 35 198 199
3 181 170 155
3 173 175 168
3 189 178 186
3 183 197 185
3 185 197 200
3 192 201 198
3 170 174 176
3 168 175 174
3 189 186 190
3 172 97 134
3 202 203 204
3 202 204 205
3 202 205 206
3 206 205 207
3 192 191 201
3 154 170 176
3 190 186 187
3 172 134 179
3 179 180 208
3 204 195 68
3 209 193 208
3 185 200 196
3 186 160 194
3 186 194 187
3 133 195 134
3 134 195 180
3 210 211 136
3 180 203 202
3 156 176 157
3 208 202 206
3 195 203 180
3 193 179 208
3 195 204 203
3 200 197 209
3 200 209 196
3 209 197 193
3 24 196 98
3 188 157 176
3 176 156 154
3 160 188 194
3 208 180 202
3 206 212 209
3 213 191 214
3 37 36 39
3 69 68 215
3 215 216 36
3 36 216 39
3 215 68 216
3 40 162 217
3 68 154 162
3 162 158 217
3 196 209 212
3 24 218 191
3 191 218 219
3 191 219 214
3 188 161 157
3 160 161 188
3 211 220 30
3 30 221 31
3 157 217 158
3 209 208 206
3 161 217 157
3 158 162 156
3 220 221 30
3 31 221 222
3 196 135 98
3 212 135 196
3 98 28 24
3 217 166 40
3 161 166 217
3 206 207 212
3 205 204 223
3 204 68 223
3 216 68 162
3 98 135 99
3 24 28 218
3 40 166 38
3 40 216 162
3 99 29 28
3 28 224 218
3 39 216 40
3 205 223 207
3 207 223 210
3 135 212 210
3 210 212 207
3 223 68 67
3 136 135 210
3 225 223 67
3 36 226 215
3 226 69 215
3 223 220 210
3 136 30 29
3 38 192 39
3 35 226 36
3 136 211 30
3 28 27 224
3 224 27 227
3 227 27 228
3 226 70 69
3 211 210 220
3 228 27 31
3 199 70 226
3 67 34 33
3 35 199 226
3 37 192 35
3 220 223 225
3 220 225 221
3 221 225 229
3 230 224 227
3 230 227 228
3 199 34 70
3 70 34 67
3 224 230 218
3 231 230 228
3 198 213 199
3 213 34 199
3 213 201 191
3 34 213 32
3 67 33 232
3 201 213 198
3 222 221 229
3 233 31 222
3 228 31 233
3 229 225 67
3 229 67 232
3 218 230 219
3 213 214 32
3 32 232 33
3 234 235 233
3 235 231 228
3 219 231 214
3 232 236 229
3 232 234 236
3 233 229 234
3 234 229 236
3 233 222 229
3 235 228 233
3 230 231 219
3 214 231 32
3 231 234 32
3 234 232 32
3 231 235 234
