ply
format ascii 1.0
comment Created by Blender 2.80 (sub 75) - www.blender.org, source file: 'color_and_decimate.blend'
element vertex 502
property float x
property float y
property float z
property float nx
property float ny
property float nz
element face 1004
property list uchar uint vertex_indices
end_header
-7312.957031 -7389.484863 -6172.485352 -0.967284 -0.029572 -0.251900
-7331.234863 -7436.512695 -6177.769043 -0.559435 0.821680 -0.108890
-7348.695312 -7404.251953 -6080.023926 -0.791345 0.201758 -0.577074
-7724.000977 -7420.315918 -5788.738281 -0.580615 0.245979 -0.776116
-7898.549316 -7435.127441 -5671.474609 -0.382000 0.744285 -0.547807
-7848.944824 -7411.062500 -5693.862793 -0.544450 0.150029 -0.825251
-7994.893066 -7039.220215 -5637.646484 -0.769494 -0.025025 -0.638142
-8006.977051 -7173.728516 -5589.385254 -0.672262 -0.158300 -0.723167
-8084.981445 -7215.373535 -5508.663574 -0.691824 -0.023560 -0.721671
-8080.922363 -6988.029785 -5511.072754 -0.790185 0.087405 -0.606555
-8195.805664 -6988.639648 -5360.168945 -0.698111 0.133305 -0.703421
-8026.663086 -6849.828613 -5556.077148 -0.671743 -0.536790 -0.510483
-8306.342773 -6842.218750 -5437.261230 -0.474349 -0.838008 -0.269601
-8306.120117 -6922.905273 -5393.267578 -0.675466 -0.434645 -0.595630
-8358.303711 -6838.862793 -5255.584961 -0.713706 -0.676321 -0.182043
-8393.708984 -7018.408691 -5255.155762 -0.761803 0.064913 -0.644490
-8481.398438 -7039.725098 -5126.715332 -0.735618 0.297403 -0.608570
-8418.744141 -6890.303223 -5115.446289 -0.786035 0.041017 -0.616779
-8552.615234 -6853.628906 -4997.156250 -0.549242 -0.504807 -0.665914
-8652.160156 -6837.832031 -4939.124023 -0.437147 -0.732322 -0.522050
-9441.375000 -7305.048340 -5736.789062 0.767144 -0.577654 -0.278848
-9444.656250 -7199.868652 -5595.034180 0.966735 -0.221076 0.128391
-9474.654297 -7332.562500 -5712.224609 -0.273476 -0.915952 -0.293588
-9480.248047 -7302.144531 -5744.685059 -0.722068 -0.412793 -0.555132
-9450.871094 -7231.551270 -5808.251953 -0.287301 -0.783624 -0.550737
-9454.159180 -7189.320801 -5691.804688 -0.991089 0.103122 -0.084170
-9306.311523 -6986.152344 -6394.600586 0.846828 -0.313822 0.429395
-9347.328125 -7129.225098 -6409.585449 0.869961 -0.249611 0.425245
-9289.586914 -7088.867676 -6499.075195 0.861385 -0.271493 0.429243
-9210.049805 -6846.227539 -6470.574707 0.529649 -0.802881 0.273476
-7316.241211 -7427.929199 -6434.638672 -0.734336 0.651662 0.189886
-7316.190430 -7308.041016 -6265.311035 -0.945921 -0.294595 -0.135594
-8035.531250 -7322.676758 -6563.673828 0.130222 0.920286 0.368877
-7973.860840 -7356.450684 -6496.424805 0.070956 0.952513 0.296030
-7964.540527 -7324.541504 -6718.795410 0.338054 0.929472 0.147404
-8084.077148 -7283.732422 -6642.760742 0.321268 0.872280 0.368603
-8018.324707 -7297.250488 -6780.586426 0.492264 0.842891 0.217139
-7510.957520 -7437.372559 -5960.749023 -0.389599 0.769951 -0.505295
-7721.507324 -7436.007812 -6415.867676 0.145878 0.961974 0.230781
-7874.146484 -7435.794434 -6346.258789 0.015381 0.976562 0.214637
-7994.343262 -7435.712402 -6374.184570 -0.068270 0.953429 0.293680
-8330.678711 -7437.457520 -5878.027832 -0.093905 0.976409 -0.194281
-8002.618652 -7386.049805 -6436.211914 -0.133244 0.816980 0.561022
-7855.874023 -7363.642578 -6467.864746 0.096469 0.940794 0.324900
-7731.838867 -7392.513672 -6482.374023 0.314249 0.868221 0.383892
-7894.590820 -7360.539062 -6651.302246 0.178137 0.980071 0.087710
-7313.086426 -7316.890137 -6447.946289 -0.956389 -0.176733 0.232521
-7366.156250 -7386.044434 -6530.990234 -0.700644 0.304086 0.645436
-7418.075195 -7435.445312 -6536.878418 -0.322398 0.836024 0.443953
-7540.662598 -7435.677246 -6591.293945 -0.036897 0.910703 0.411359
-7391.075684 -7192.393066 -6228.176758 -0.836482 -0.422864 -0.348491
-7352.708984 -7225.517578 -6385.431152 -0.922819 -0.385113 0.007782
-7368.147461 -7274.007812 -6551.329102 -0.839595 -0.053835 0.540483
-7457.123535 -7394.825684 -5990.371094 -0.623096 -0.074831 -0.778527
-7452.138184 -7326.299805 -6029.511719 -0.658315 -0.386395 -0.645985
-7896.827148 -7243.840332 -5671.012695 -0.650502 -0.153264 -0.743828
-7996.455078 -7289.705078 -5589.752441 -0.634236 -0.077181 -0.769250
-7928.346191 -7083.083496 -5702.221191 -0.744163 -0.181036 -0.642964
-7386.897461 -7138.716309 -6353.589844 -0.952147 -0.296365 -0.074190
-7383.839355 -7146.781250 -6520.341309 -0.965423 -0.222724 0.135258
-7531.129395 -7269.774414 -6684.944336 -0.579730 0.340617 0.740165
-7516.704102 -7389.139648 -6622.170410 -0.430464 0.499222 0.751946
-7412.971191 -7206.492676 -6603.020996 -0.796716 0.115818 0.593127
-8190.263184 -7109.559082 -5395.062012 -0.750023 0.082766 -0.656178
-8291.152344 -7163.523438 -5294.383789 -0.743767 0.100681 -0.660756
-8307.622070 -7068.396484 -5254.302246 -0.528611 -0.339091 -0.778161
-8270.507812 -6954.672363 -5296.259277 0.178411 -0.360302 -0.915586
-7413.903809 -7066.531250 -6662.507324 -0.920591 0.139286 0.364788
-7567.871582 -7078.353516 -6819.705566 -0.598315 0.384655 0.702841
-7727.528320 -7145.821289 -6905.151367 -0.518509 0.399640 0.755882
-7728.453613 -6991.900391 -6982.988770 -0.492416 0.368542 0.788446
-7866.479004 -7129.031738 -6995.703125 -0.477004 0.376263 0.794275
-7860.928711 -7019.344727 -7044.210938 -0.475753 0.363292 0.801019
-7523.296387 -7154.198242 -6046.819336 -0.703940 -0.405469 -0.583117
-7595.612793 -7088.223633 -6020.023926 -0.635365 -0.455214 -0.623737
-7525.161621 -7030.975098 -6154.213379 -0.753471 -0.398419 -0.522965
-8018.688965 -7396.057617 -5557.036133 -0.615406 0.180456 -0.767266
-8094.444824 -7433.174805 -5522.891113 -0.342112 0.783105 -0.519272
-8152.449219 -7364.011230 -5448.065918 -0.595203 0.260842 -0.760033
-8229.479492 -7338.068848 -5382.312988 -0.645070 0.206091 -0.735771
-8250.463867 -7261.639648 -5338.594727 -0.734306 0.118595 -0.668325
-8356.920898 -7170.314941 -5204.120605 -0.611499 0.147557 -0.777337
-8399.155273 -7080.095215 -5174.966797 -0.166295 -0.287271 -0.943266
-8496.149414 -7407.601074 -5195.420410 -0.327799 0.779351 -0.533952
-8433.271484 -7342.745605 -5190.956543 -0.478408 -0.230171 -0.847407
-8333.516602 -7419.158203 -5333.319824 -0.492416 0.660390 -0.566881
-8580.662109 -7432.290039 -5257.723145 -0.019776 0.989868 -0.140446
-8485.026367 -7436.689453 -5246.400879 -0.122318 0.936369 -0.328959
-8953.440430 -7437.500000 -6007.895020 -0.000488 0.999969 0.000763
-7415.928711 -7034.779785 -6336.550781 -0.923490 -0.278420 -0.263802
-7414.036621 -6855.458008 -6451.743652 -0.810694 -0.568133 -0.141362
-7470.712402 -6838.512207 -6374.651367 -0.498611 -0.823908 -0.269295
-7480.500000 -6961.862305 -6276.563965 -0.822626 -0.295724 -0.485580
-7423.134277 -6846.439453 -6801.757324 -0.734489 -0.533952 0.418775
-7631.765137 -6882.552734 -6970.754395 -0.593554 0.142277 0.792108
-7500.999023 -6985.541504 -6815.637695 -0.649953 0.364910 0.666616
-7604.383301 -6844.904297 -6139.586426 -0.518509 -0.769189 -0.373424
-8926.957031 -6837.510254 -6412.429199 0.023041 -0.999725 -0.000397
-7563.366211 -7291.740234 -5943.636719 -0.643208 -0.254372 -0.722190
-7587.108887 -6920.719727 -6134.880859 -0.773492 -0.241066 -0.586108
-7507.537109 -6862.932129 -6273.689453 -0.792077 -0.411145 -0.451094
-7624.703125 -7209.308594 -6793.060547 -0.543626 0.430250 0.720634
-8218.814453 -7436.310059 -5462.751953 -0.249611 0.911344 -0.327280
-7537.854004 -6840.693848 -6888.445312 -0.398114 -0.779412 0.483688
-7654.616211 -7381.310547 -5842.751953 -0.622150 -0.075961 -0.779168
-7608.999023 -7196.993164 -5940.931641 -0.635151 -0.346904 -0.690054
-8217.381836 -7435.152344 -5719.447266 0.481704 0.872372 0.082858
-8325.584961 -7433.477539 -5535.749512 0.271493 0.800470 0.534349
-7632.520508 -7359.310547 -6712.841797 -0.271493 0.773553 0.572619
-7667.393066 -6991.264648 -6019.479004 -0.715079 -0.285287 -0.638142
-7713.039062 -7299.244141 -5811.646484 -0.623676 -0.173833 -0.762078
-7706.387695 -6837.553223 -6992.964355 -0.139317 -0.968444 0.206580
-7708.067871 -7066.479492 -5933.743164 -0.650441 -0.373241 -0.661489
-7769.896973 -7206.279297 -5790.281738 -0.604694 -0.291116 -0.741325
-7702.368164 -6841.807129 -6008.554688 -0.520585 -0.756096 -0.396588
-7713.940918 -6853.677734 -7031.469727 -0.512650 -0.322153 0.795831
-7895.983398 -7039.107910 -5762.318848 -0.772546 -0.154820 -0.615772
-7825.998047 -6962.763184 -5851.140137 -0.736900 -0.077853 -0.671468
-8300.052734 -7341.475098 -5555.912109 0.845515 0.470717 0.251930
-8318.069336 -7361.068359 -5489.489746 0.814966 -0.235420 0.529466
-8372.585938 -7422.643066 -5547.065430 -0.616260 -0.749321 0.242317
-8392.810547 -7334.512207 -5393.281250 -0.019440 -0.868831 0.494675
-8416.796875 -7342.433105 -5489.785156 -0.975127 0.217078 -0.044099
-8390.303711 -7307.671387 -5353.972656 0.976562 0.170873 0.130711
-8370.284180 -7309.394043 -5417.437988 0.599963 0.764183 0.236641
-7784.664551 -7359.669922 -6826.724609 -0.207984 0.845698 0.491409
-7829.138184 -7235.681641 -6924.126953 -0.476485 0.426374 0.768853
-7860.677246 -7329.679688 -6879.926758 -0.064943 0.848933 0.524461
-7924.293457 -7305.307129 -6936.516113 0.054262 0.818567 0.571795
-7810.651855 -7282.094238 -5739.277344 -0.618549 -0.163793 -0.768456
-7838.064453 -6852.742676 -5833.829590 -0.770318 -0.157262 -0.617939
-7931.799316 -6863.811523 -5704.025879 -0.788446 -0.223334 -0.573077
-7810.570312 -6845.293457 -7089.853516 -0.394177 -0.551927 0.734825
-8015.422363 -6903.582520 -7131.255371 0.677877 -0.029176 0.734581
-8084.060059 -6983.086914 -7013.656738 0.850856 0.089877 0.517594
-7977.828613 -7008.550293 -7122.266113 0.089908 0.328776 0.940092
-8215.671875 -7433.061523 -5862.776855 0.120945 0.971587 -0.203406
-8260.674805 -7353.141113 -5715.412109 0.600665 0.796869 -0.064455
-7986.726074 -7239.552246 -6985.670898 0.477981 0.646443 0.594623
-8008.282715 -7078.346191 -7092.007812 0.424512 0.367687 0.827387
-8080.380859 -7097.468262 -6958.670410 0.800653 0.349132 0.486831
-8057.720703 -6854.700195 -7037.263184 0.703116 -0.591815 0.394147
-7978.350586 -6837.705078 -5666.219727 -0.352794 -0.911863 -0.209754
-7954.615234 -6847.542969 -7165.686523 0.028993 -0.519517 0.853938
-8081.118164 -6839.392090 -6935.540039 0.386395 -0.908017 0.161809
-7959.420898 -7203.073730 -7017.937012 -0.152959 0.517350 0.841975
-8300.120117 -7365.295410 -5795.713379 -0.145878 0.889645 -0.432691
-8393.751953 -7431.521973 -5735.756348 -0.388409 0.912656 -0.127140
-8212.415039 -7433.025879 -6489.524902 -0.191382 0.906308 0.376720
-8150.517578 -7390.419434 -6500.350586 -0.265572 0.711234 0.650838
-8062.823242 -7228.713379 -6852.320801 0.706229 0.630116 0.322733
-8197.525391 -6916.388672 -5353.913574 -0.760857 -0.084689 -0.643330
-8249.131836 -6846.130371 -5326.674805 0.341350 -0.886166 -0.313273
-8307.416016 -7190.317871 -6699.968262 -0.248390 0.509262 0.823969
-8183.987305 -7194.726074 -6686.815918 0.366771 0.564928 0.739128
-8199.598633 -7122.333008 -6699.050293 0.376598 0.464766 0.801324
-8498.441406 -6892.958496 -6913.653320 -0.177557 0.041719 0.983215
-8403.774414 -6844.477539 -6876.166016 -0.290750 -0.640431 0.710807
-8577.895508 -6844.734375 -6913.313965 -0.209876 -0.708853 0.673391
-9068.837891 -6890.978516 -6373.408203 -0.259133 -0.937254 -0.233192
-9076.732422 -6838.268555 -6298.236328 -0.046052 -0.997528 0.052919
-9088.326172 -6839.395996 -6377.096680 -0.268044 -0.951292 -0.152196
-9207.814453 -6841.380859 -6172.196777 0.031465 -0.999481 0.004913
-9437.688477 -6842.354980 -5980.968262 0.512650 -0.820063 0.254311
-9510.403320 -6849.501953 -5851.853516 0.869686 0.014008 0.493393
-9506.139648 -6994.882812 -5961.686523 0.871914 -0.264046 0.412275
-9614.135742 -7191.202148 -5791.583496 0.877316 -0.033876 0.478683
-9605.770508 -7065.815918 -5789.957520 0.877163 -0.162694 0.451735
-9654.962891 -7118.234375 -5717.998047 0.995422 -0.095370 -0.003479
-9660.878906 -7220.174316 -5715.854492 0.998138 0.060640 -0.003388
-9628.245117 -7235.774414 -5660.334473 0.828608 0.253700 -0.498978
-9568.335938 -7236.062988 -5581.399414 0.789758 0.355571 -0.499832
-9535.759766 -7350.508789 -5641.642090 0.725425 0.337779 -0.599689
-9491.986328 -7338.196289 -5562.114258 -0.270821 0.731925 -0.625233
-9501.436523 -7419.898438 -5627.375000 -0.225166 0.702841 -0.674734
-9464.344727 -7341.287598 -5643.058105 0.981628 0.173284 -0.079531
-9473.949219 -7207.738281 -5518.708496 0.968932 -0.229987 0.090823
-8240.179688 -6859.181641 -5302.430176 -0.142918 -0.597705 -0.788842
-8137.236328 -7126.301758 -5462.383301 -0.729698 0.031800 -0.683004
-8314.174805 -6986.843262 -5331.060547 0.381054 -0.705161 -0.597919
-8263.380859 -6933.497559 -5396.718262 0.579638 -0.752068 -0.313639
-8252.823242 -6910.086914 -5452.110840 0.153508 -0.894436 -0.419965
-8196.039062 -6838.873535 -5421.182129 0.234596 -0.971191 -0.041597
-8221.258789 -6839.451660 -5574.913574 0.020234 -0.997894 -0.061373
-8224.015625 -7293.605469 -6616.515625 -0.139470 0.625355 0.767754
-8163.406250 -7125.931152 -6819.293457 0.828822 0.369884 0.419721
-8144.703125 -6886.604004 -6878.426270 0.885098 -0.317331 0.340342
-8160.063965 -7012.331543 -6865.201172 0.893033 0.059145 0.446059
-8200.632812 -6839.648438 -6763.184082 0.025849 -0.696860 0.716727
-8339.804688 -7435.324707 -6550.214355 -0.189245 0.889859 0.415052
-8165.666504 -6852.522461 -6766.090820 0.617725 0.302438 0.725883
-8270.730469 -6867.812500 -6814.662598 -0.463790 -0.108158 0.879299
-8203.954102 -7079.320312 -6729.789551 0.328929 0.462264 0.823450
-8209.515625 -6940.822266 -6771.705078 0.120365 -0.047426 0.991577
-8340.144531 -7320.681641 -6636.350098 -0.297952 0.524400 0.797601
-8548.389648 -7137.028320 -6817.128906 -0.120792 0.434339 0.892575
-8633.065430 -7218.757812 -6764.707520 -0.029908 0.321543 0.946410
-8528.393555 -7288.877930 -6761.248047 -0.257576 0.384075 0.886624
-8472.468750 -7141.528809 -6786.387695 -0.301950 0.464949 0.832240
-8371.833984 -7080.598145 -6809.826172 -0.240547 0.456008 0.856838
-8285.180664 -7051.095703 -6799.761719 -0.358135 0.314097 0.879238
-8800.887695 -6995.362305 -5556.682129 -0.835963 -0.505936 -0.212531
-8792.717773 -6990.490723 -5528.750000 -0.113071 -0.451399 0.885098
-8846.826172 -6842.781250 -5491.319336 -0.640645 -0.686728 -0.343425
-8815.485352 -6838.178223 -5556.987793 -0.520310 -0.770196 -0.368786
-9059.635742 -6837.509277 -5324.830566 -0.067293 -0.997650 0.011841
-9341.880859 -6842.408691 -5471.336426 0.440352 -0.897183 0.033662
-9321.296875 -6840.963867 -5685.342773 0.427076 -0.903470 0.036409
-9363.416016 -6884.143555 -5629.097656 0.921079 -0.387585 0.036775
-9367.196289 -6945.180664 -5610.414551 0.949583 -0.310160 0.045473
-9413.662109 -7017.567383 -5604.267578 0.960112 -0.260537 -0.101321
-9400.889648 -6988.421875 -5751.090820 -0.562395 -0.807154 0.179357
-9378.758789 -6944.559082 -5812.050781 0.082217 0.893704 -0.441023
-9406.107422 -7023.268066 -5859.615234 -0.978423 0.171300 -0.115329
-9400.481445 -7061.573242 -5851.187988 -0.273812 -0.838404 0.471206
-9391.591797 -7126.582031 -5987.050293 -0.057863 -0.740898 -0.669088
-9373.370117 -7031.564453 -5968.938965 0.230110 0.442396 -0.866787
-9376.623047 -6892.754883 -5719.115723 -0.683370 -0.423353 -0.594745
-9409.094727 -6922.240234 -5638.338379 -0.956999 0.264809 -0.118137
-9411.437500 -6976.634766 -5611.524414 -0.981933 0.140446 -0.126560
-9415.050781 -6951.958008 -5499.097168 -0.936949 0.325968 -0.125828
-9499.807617 -7166.450684 -5455.614258 -0.062990 0.349620 -0.934751
-9464.862305 -7083.849121 -5423.978516 -0.528825 0.204138 -0.823786
-9478.923828 -7161.399902 -5519.986328 -0.950987 0.237587 -0.197790
-8437.606445 -7006.518555 -6860.736816 -0.276284 0.329203 0.902921
-8322.528320 -7324.039551 -5625.934082 -0.001282 0.992615 -0.121067
-8374.242188 -7355.533691 -5630.120605 -0.825251 0.534196 -0.183111
-8383.154297 -6917.442383 -5245.560547 -0.909421 0.203864 -0.362468
-8625.496094 -6838.197266 -5765.422852 0.007080 -0.999878 -0.013672
-8726.517578 -6841.696289 -5594.225586 0.526658 -0.777520 0.343547
-8773.083008 -6863.724121 -5552.807617 0.754357 -0.311197 0.577990
-8820.435547 -6863.859863 -5479.846680 0.791192 0.027955 0.610889
-8824.434570 -7044.082520 -5502.120117 0.307596 0.223701 -0.924833
-8826.535156 -7137.925781 -5505.418457 -0.006195 -0.457869 -0.888974
-8777.074219 -7079.784668 -5550.732422 0.531114 0.270913 -0.802789
-8781.762695 -7104.840820 -5513.992676 0.915799 -0.352000 0.193274
-8438.895508 -7315.500977 -6678.668945 -0.435347 0.463118 0.771966
-8385.614258 -7265.745605 -5209.959473 0.022248 0.068270 -0.997406
-8367.212891 -7049.072266 -5279.587402 -0.438032 -0.585894 -0.681753
-8409.931641 -7296.250977 -5361.417480 -0.496841 0.694845 -0.519913
-8424.708008 -7331.656250 -5290.910156 0.129215 -0.974670 -0.182440
-8409.184570 -7294.351074 -5227.924805 0.914609 -0.377361 -0.145054
-8418.676758 -7245.359375 -5269.890625 0.663900 0.483108 -0.570757
-8856.768555 -6853.669922 -5439.338379 0.520402 -0.573443 0.632679
-8819.983398 -7091.853516 -5469.830566 0.788537 -0.004120 0.614948
-8850.605469 -6993.391113 -5448.194824 -0.188543 0.028474 0.981628
-8856.609375 -7167.245605 -5453.217285 -0.827082 0.042207 0.560472
-8885.139648 -7083.530273 -5415.285645 -0.605182 -0.129002 0.785546
-8863.782227 -7020.373047 -5470.481445 -0.916990 0.096591 -0.386944
-9380.365234 -6923.129883 -5442.252930 0.901425 -0.419233 0.107761
-8816.512695 -7433.522461 -6683.496094 -0.137059 0.917356 0.373669
-8689.340820 -7344.352051 -6726.197754 -0.049867 0.492904 0.868648
-8835.181641 -7284.822266 -6805.366211 -0.455916 0.513077 0.727226
-8357.333984 -6846.267578 -5203.192383 -0.858608 -0.417890 -0.296854
-8442.767578 -7060.353027 -5180.882812 -0.642598 0.031159 -0.765557
-8451.094727 -7252.486816 -5281.087402 -0.536271 0.472976 -0.699057
-8534.950195 -7155.680664 -5121.720703 -0.778710 0.226814 -0.584918
-8487.573242 -7315.556641 -5240.694824 -0.738273 -0.481582 -0.472213
-8618.393555 -7029.669434 -6874.689453 -0.232673 0.435804 0.869411
-8802.115234 -6986.764648 -6981.944336 -0.200812 0.299905 0.932554
-8953.039062 -7051.625000 -6982.153809 0.176916 0.024995 0.983886
-9000.253906 -7120.216309 -6967.675293 0.242470 0.097018 0.965270
-8451.456055 -7435.870117 -6602.868164 -0.222114 0.893918 0.389264
-8585.540039 -7393.026855 -5102.589844 -0.307352 0.874691 -0.374676
-8643.708008 -7207.129883 -4981.164551 -0.812555 0.003418 -0.582842
-8604.160156 -7352.524902 -5014.617676 -0.697317 0.401288 -0.593860
-8686.060547 -7333.962402 -4922.059082 -0.737663 0.404645 -0.540422
-8760.394531 -7115.608887 -4802.078125 -0.845363 -0.174047 -0.504990
-8757.319336 -7274.226562 -4802.390625 -0.875851 0.112796 -0.469161
-8767.365234 -7135.232910 -4730.278320 -0.844081 -0.298532 -0.445387
-9506.965820 -7415.600586 -5297.473633 0.943480 0.217780 0.249794
-9521.031250 -7278.487305 -5212.344727 0.962218 -0.086428 0.258187
-9550.602539 -7414.162598 -5177.183105 0.917234 0.290597 0.272317
-8522.041016 -7346.337402 -5121.147949 -0.765221 -0.028077 -0.643147
-8976.290039 -6840.764648 -5299.127930 0.008789 -0.969024 0.246773
-8572.625977 -6926.160645 -4984.484863 -0.632252 0.104770 -0.767632
-8644.525391 -7001.349121 -4900.385254 -0.753075 -0.134526 -0.644002
-8626.901367 -7033.905762 -4973.618164 -0.792230 0.262459 -0.550859
-8675.013672 -7113.425293 -4935.029297 -0.823328 0.184820 -0.536607
-8700.313477 -7042.794922 -4817.320312 -0.403027 -0.214026 -0.889767
-8542.261719 -7429.097656 -6689.261230 -0.197119 0.795221 0.573351
-9430.644531 -6847.224121 -5056.372070 0.558123 -0.819636 0.129063
-9356.954102 -6841.016602 -5260.919922 0.401196 -0.911161 0.093844
-9446.590820 -6844.465820 -4865.119629 0.518662 -0.850978 0.082430
-9500.130859 -6840.100586 -4700.332031 0.644826 -0.756096 0.111698
-9516.989258 -6974.037109 -4782.657715 0.866146 -0.495956 0.061464
-8562.240234 -7287.818359 -5111.898438 -0.837458 -0.136753 -0.529099
-8741.520508 -7288.914551 -6762.957520 -0.285745 0.345073 0.894009
-8678.035156 -7124.751465 -6825.998047 -0.253426 0.520005 0.815668
-8699.958008 -6953.066406 -4916.023438 -0.554308 -0.221351 -0.802301
-8781.875977 -7056.137695 -4843.873535 -0.550737 -0.407117 -0.728629
-8759.753906 -6949.083008 -4843.379883 -0.824824 0.279763 -0.491256
-8803.597656 -7031.335938 -4785.238770 -0.956236 -0.056307 -0.287088
-9537.007812 -7436.547363 -5155.897461 0.424207 0.898343 0.114017
-9416.513672 -7437.075195 -4516.459473 -0.232154 0.802637 -0.549394
-9453.367188 -7433.733398 -5454.159180 0.581133 0.805933 0.112796
-9508.808594 -7226.094238 -5264.683594 0.949431 -0.180395 0.256905
-9487.785156 -7419.860352 -5396.923340 0.836665 0.489822 0.245033
-9477.042969 -7301.233398 -5427.019531 0.959441 -0.131718 0.249153
-9482.260742 -7429.273926 -5709.225098 -0.015107 0.957213 -0.288888
-9416.553711 -7435.062988 -5676.165527 0.274911 0.955046 -0.110782
-9463.797852 -7415.761230 -5575.976074 0.864498 0.490768 0.108280
-9528.828125 -7437.273926 -6052.184570 0.375134 0.923582 0.078829
-8723.177734 -7387.901855 -4990.893555 -0.485061 0.830653 -0.273293
-8754.477539 -7371.667969 -4863.394043 -0.758538 0.544511 -0.357860
-8798.090820 -7435.353516 -4937.674316 -0.351756 0.930113 -0.105472
-8797.599609 -7352.797363 -4746.246094 -0.697714 0.301492 -0.649800
-8837.142578 -7435.254395 -4762.669922 -0.411908 0.804468 -0.427961
-8942.133789 -7105.154297 -4617.405762 -0.373943 0.233894 -0.897458
-9074.455078 -7202.681152 -4588.684570 -0.369396 0.238411 -0.898160
-9011.786133 -7025.694824 -4568.128906 -0.368999 0.235084 -0.899167
-9521.725586 -6840.970703 -4337.612793 0.236000 -0.797204 -0.555650
-9515.050781 -6892.958984 -4323.242676 -0.150731 0.020783 -0.988342
-9558.580078 -6880.107910 -4327.355957 0.707877 -0.290109 -0.643971
-9640.834961 -7365.692871 -4830.396484 0.945219 -0.048189 0.322825
-9642.687500 -7436.725586 -4784.825195 0.665395 0.735893 0.125156
-9618.959961 -7422.310059 -4866.701660 0.958434 -0.094333 0.269234
-8669.454102 -7395.885742 -5125.846680 -0.298349 0.892575 -0.338023
-8877.458984 -6840.923828 -6960.815918 0.267342 -0.774071 0.573840
-9054.255859 -6844.542480 -6744.436523 0.461867 -0.852596 0.244362
-9047.780273 -7035.080078 -6931.311523 0.596057 -0.212806 0.774194
-9097.720703 -7265.115234 -6906.501953 0.393902 0.133030 0.909452
-8983.601562 -7205.784180 -6946.853027 -0.109622 0.340495 0.933805
-8669.857422 -6879.248047 -6975.248535 -0.394757 -0.002106 0.918760
-8762.808594 -7012.619141 -6956.258789 -0.354778 0.440626 0.824580
-8683.223633 -6839.637695 -6963.081055 -0.168004 -0.805719 0.567919
-8646.456055 -6944.997070 -5686.688965 0.918180 0.057436 0.391949
-8695.371094 -6863.925781 -5671.050781 0.833216 -0.119633 0.539781
-8700.856445 -6939.905762 -5644.701172 0.370647 -0.521805 0.768303
-8650.711914 -7033.885254 -5671.465332 0.961303 -0.119297 -0.248268
-8685.202148 -7013.888672 -5668.499023 -0.652333 0.273354 0.706900
-8699.253906 -7076.229004 -5624.612793 -0.061830 -0.952300 0.298746
-8734.762695 -7019.899902 -5593.544922 0.728080 0.161992 0.666036
-8650.228516 -6879.614746 -5734.608398 0.488083 0.163488 -0.857326
-8698.315430 -6948.788574 -5685.502930 -0.773156 -0.216071 -0.596240
-8681.582031 -7051.317383 -5671.735352 -0.275613 -0.617359 -0.736778
-8990.285156 -6859.706543 -6883.527832 0.544115 -0.681814 0.488907
-9145.655273 -6837.852051 -4488.681641 -0.226142 -0.784417 -0.577502
-8752.613281 -6859.036621 -5617.367676 -0.726524 -0.152104 -0.670064
-9350.618164 -6882.240234 -5755.104004 0.213538 -0.967620 -0.134495
-9369.483398 -6952.122070 -5756.724609 0.983062 -0.183020 0.005829
-9371.748047 -7024.271484 -5857.138184 0.951750 -0.254372 0.171453
-9352.109375 -6920.110840 -5895.889648 -0.952788 0.186499 -0.239479
-9324.194336 -6910.796875 -5926.237793 0.644948 0.465499 -0.606067
-9357.043945 -7018.807129 -6019.151367 -0.501175 -0.796014 -0.339305
-9350.218750 -6938.582520 -5902.687012 -0.235481 -0.811457 0.534806
-8768.000977 -7436.747070 -5072.569336 -0.228187 0.966552 -0.117008
-8742.231445 -7044.521484 -5586.510742 -0.105350 -0.942564 0.316904
-8821.811523 -7178.715332 -6879.177734 -0.452345 0.504044 0.735710
-8741.301758 -6852.890137 -4770.822266 -0.831080 0.374401 -0.411206
-8809.725586 -7126.557617 -4679.006836 -0.710105 0.061373 -0.701376
-8739.189453 -6925.925781 -5593.602539 0.840052 -0.135960 0.525132
-8755.981445 -6966.783691 -5604.296875 -0.217322 -0.188116 -0.957793
-8742.320312 -7125.000000 -5575.000000 -0.114444 -0.765893 0.632679
-8724.511719 -7122.054199 -5579.309570 -0.116581 -0.760949 0.638203
-8723.666016 -7129.586914 -5573.717773 -0.117161 -0.760674 0.638417
-9578.990234 -6846.507812 -5736.540527 0.673910 -0.723533 0.149388
-9550.077148 -7060.182617 -5897.169434 0.895474 -0.174932 0.409223
-8814.668945 -6883.502930 -6999.947266 0.049379 -0.258370 0.964751
-8818.802734 -6843.885254 -4609.230957 -0.640004 -0.468490 -0.608966
-9137.383789 -6992.503906 -6749.981934 0.844264 -0.383984 0.373760
-9155.103516 -6840.995605 -6563.478516 0.483322 -0.838038 0.253121
-9188.830078 -7021.119629 -6658.093262 0.858669 -0.317423 0.402356
-8813.448242 -6924.548340 -4705.487793 -0.879330 0.241981 -0.410108
-8885.538086 -6929.857422 -4595.336426 -0.532334 0.175085 -0.828211
-8826.057617 -7039.726562 -4649.715820 -0.724601 0.059542 -0.686544
-8963.078125 -7265.366211 -4650.449219 -0.373028 0.245094 -0.894833
-8983.060547 -7428.673340 -4688.895996 -0.241066 0.783532 -0.572649
-9142.412109 -7431.453125 -4624.434082 -0.247200 0.787805 -0.564104
-9337.524414 -7084.844238 -4449.098145 -0.367565 0.235145 -0.899747
-9243.250000 -7166.613281 -4509.202148 -0.372845 0.231300 -0.898587
-9392.053711 -7263.254395 -4473.043457 -0.368328 0.247078 -0.896237
-9449.796875 -7029.723145 -4389.179688 -0.343944 0.237129 -0.908536
-9313.464844 -6898.626465 -4410.362305 -0.393384 0.081057 -0.915769
-8802.315430 -7229.768066 -5490.699219 0.575060 -0.383831 -0.722465
-8813.204102 -7188.545898 -5465.239746 0.997864 0.061892 0.020478
-8845.299805 -7244.547363 -5415.346680 -0.201636 -0.627400 0.752098
-8847.351562 -7211.679688 -5463.170898 -0.744255 -0.326273 -0.582751
-8968.767578 -6840.951172 -4557.048340 -0.296030 -0.730033 -0.615925
-9509.487305 -6838.300781 -4568.456543 0.515213 -0.848109 0.123508
-9556.724609 -7009.683105 -4659.244141 0.941221 -0.320505 0.106571
-9516.283203 -6924.862793 -4669.146484 0.942259 -0.293497 0.161168
-9568.795898 -7226.420898 -5014.761230 0.951598 -0.172094 0.254524
-9608.807617 -7305.829102 -4961.209961 0.965697 -0.084384 0.245491
-9569.099609 -7417.719238 -5080.021973 0.948576 0.166387 0.269265
-8912.547852 -7433.777344 -6756.898438 -0.313608 0.872646 0.374248
-8915.447266 -7282.818359 -6875.975586 -0.477004 0.457198 0.750603
-9227.865234 -7296.292480 -4548.988770 -0.370312 0.248299 -0.895077
-9418.107422 -7187.465332 -5813.482422 0.965789 -0.253334 -0.054903
-9413.319336 -7104.236816 -5608.049805 0.953246 -0.291665 0.078646
-8994.388672 -7432.793945 -6836.024902 -0.245827 0.816279 0.522721
-9012.666016 -6881.771973 -4529.877930 -0.391980 0.004944 -0.919950
-9273.511719 -7423.442383 -4566.946777 -0.348125 0.350139 -0.869564
-8965.480469 -6877.729980 -5348.158203 0.070345 -0.985290 0.155675
-9006.989258 -6863.882324 -5340.226074 -0.413160 -0.910550 -0.013215
-9051.194336 -7356.770020 -6892.704102 0.006134 0.410291 0.911924
-9070.321289 -6974.913086 -6882.456055 0.731773 -0.391827 0.557604
-9148.323242 -7072.361328 -4524.654297 -0.372112 0.236946 -0.897397
-9485.559570 -7199.633301 -4419.161133 -0.345836 0.238075 -0.907559
-9412.622070 -6858.819824 -4361.679199 -0.361217 -0.255257 -0.896847
-9009.784180 -6860.768555 -6389.943359 0.166601 -0.871853 -0.460494
-9163.217773 -6891.048828 -4468.706543 -0.370037 0.008423 -0.928953
-9620.100586 -7416.515137 -4419.200195 0.414930 0.487228 -0.768364
-9565.332031 -7192.259766 -4386.293945 0.364666 0.140965 -0.920377
-9624.886719 -7322.706543 -4412.477539 0.652058 -0.043947 -0.756859
-9608.020508 -7233.934082 -4440.583496 0.905972 -0.349437 -0.238929
-9263.226562 -6837.734863 -5920.954590 0.248512 -0.965941 0.071749
-9464.815430 -7415.711914 -6287.750488 0.900143 0.192511 0.390698
-9437.342773 -7285.003418 -6292.446777 0.909787 -0.179174 0.374340
-9464.672852 -7313.899902 -6233.522949 0.908261 -0.194922 0.370190
-9399.869141 -7435.328613 -6416.095703 0.652730 0.712424 0.257607
-9275.128906 -7433.764648 -6660.114258 0.539354 0.824000 0.173437
-9349.713867 -7419.630371 -6549.936523 0.843928 0.285775 0.453993
-9307.269531 -7369.950195 -6600.844238 0.890927 -0.150212 0.428541
-9273.031250 -7408.885254 -6733.062500 0.828913 0.388440 0.402448
-9202.428711 -7312.840332 -6841.249512 0.697409 0.014405 0.716483
-9250.199219 -7275.977539 -6754.728027 0.904294 -0.209601 0.371838
-9130.736328 -7185.906738 -6882.396484 0.653890 -0.107822 0.748833
-9155.754883 -7435.719238 -6838.230469 0.303232 0.755150 0.581164
-9561.061523 -6880.652344 -4489.051270 0.895962 -0.438826 0.068117
-9294.939453 -6842.038086 -6277.468750 0.497635 -0.841029 0.212043
-9258.196289 -6868.217773 -6399.618652 0.811762 -0.430372 0.394665
-9317.962891 -6840.525879 -4414.775879 -0.279031 -0.745293 -0.605518
-9607.093750 -7437.027344 -4453.131348 0.223853 0.927519 -0.299264
-9169.937500 -7149.091797 -6830.162109 0.826472 -0.255806 0.501450
-9202.620117 -7143.710938 -6713.253418 0.876827 -0.343211 0.336619
-9584.158203 -7102.200195 -4572.974121 0.980834 -0.194678 0.006745
-9574.391602 -7091.043945 -4872.321777 0.948912 -0.279153 0.146916
-9607.718750 -7155.457520 -4805.437012 0.958525 -0.274117 0.077792
-9260.106445 -6851.157227 -6045.712402 0.053285 -0.996338 -0.066744
-9262.325195 -7172.318848 -6600.537109 0.896756 -0.234077 0.375500
-9655.820312 -7416.275879 -4554.342285 0.897397 0.426466 -0.112980
-9375.910156 -6848.907227 -6122.332520 0.549699 -0.791101 0.268288
-9567.707031 -7011.644531 -4460.708984 0.979553 -0.198950 0.029298
-9620.402344 -7218.448242 -4703.453613 0.971191 -0.237678 0.015564
-9616.181641 -7302.137207 -4870.557129 0.983428 -0.094943 0.154332
-9627.524414 -7290.772461 -4541.565918 0.970641 -0.223212 -0.089297
-9297.078125 -6865.169922 -5958.831055 -0.070589 -0.995941 -0.055422
-9306.788086 -6843.562012 -6003.793945 -0.236457 -0.961119 -0.142491
-9318.899414 -6861.749512 -5895.594238 -0.028352 -0.979797 -0.197882
-9370.457031 -6840.830566 -5800.036621 -0.555376 -0.827540 -0.081881
-9308.007812 -6932.940918 -6027.376953 0.368450 0.674459 -0.639760
-9599.002930 -7436.094727 -4965.722168 0.685476 0.712485 0.149815
-9317.263672 -6987.396484 -6017.091309 0.767937 -0.551012 -0.326487
-9386.548828 -7002.556641 -6241.290039 0.878811 -0.296854 0.373516
-9609.349609 -7177.203125 -4630.614258 0.848445 -0.523759 -0.075777
-9616.202148 -7080.030273 -5668.410645 0.972503 -0.009583 -0.232612
-9639.278320 -7121.952637 -5602.724121 0.957884 0.135716 -0.252998
-9400.763672 -7146.264160 -6301.038574 0.887356 -0.234474 0.396924
-9397.333984 -7363.702148 -6430.032227 0.924589 -0.095126 0.368847
-9402.265625 -6913.124512 -5315.564453 0.898099 -0.415204 0.144780
-9414.565430 -6994.402344 -5483.985352 0.967437 -0.244179 0.066286
-9425.571289 -7037.533203 -5652.464844 0.137181 0.815088 -0.562853
-9440.652344 -7030.453613 -5553.974609 -0.866909 0.460952 -0.189642
-9469.801758 -7011.152344 -5404.160645 -0.043275 0.536241 -0.842921
-9462.203125 -7113.317871 -5676.329102 -0.971252 0.200690 -0.127964
-9433.343750 -6839.800781 -5327.395996 -0.168035 -0.709128 -0.684713
-9393.315430 -6857.358398 -5510.996094 -0.966033 -0.241005 -0.092929
-9559.099609 -7009.604492 -4349.570801 0.466445 0.003998 -0.884518
-9591.108398 -7177.029785 -4513.702148 0.959502 -0.260109 -0.107913
-9418.047852 -6896.243652 -5332.617188 -0.766747 0.269967 -0.582385
-9452.096680 -6889.938477 -5315.120605 0.369793 0.117862 -0.921567
-9448.879883 -6950.737305 -5374.116699 -0.115970 0.711600 -0.692923
-9416.024414 -6949.669922 -6123.744629 0.856044 -0.339518 0.389660
-9438.502930 -7075.001465 -5373.627441 0.944762 -0.295572 0.141453
-9414.188477 -6974.205566 -5283.893066 0.942869 -0.286081 0.170598
-9465.085938 -6988.858398 -5146.454102 0.888455 -0.356456 0.289071
-9462.418945 -7212.057617 -5391.694824 0.978729 -0.177831 0.102268
-9541.118164 -7069.400879 -5498.033203 0.729148 0.170965 -0.662618
-9500.876953 -6910.482422 -5417.075684 0.722526 0.171880 -0.669576
-9443.503906 -7102.035645 -5507.570801 0.864040 -0.496567 0.082400
-9426.564453 -7096.906738 -5772.354004 0.150578 0.809137 -0.567949
-9566.499023 -6846.539062 -5650.652344 0.515244 -0.855464 0.051912
-9431.804688 -7194.542969 -5876.683105 0.030091 -0.141148 -0.989502
-9501.100586 -6964.370605 -5014.847168 0.885830 -0.408918 0.219184
-9609.925781 -7434.023926 -5747.503418 0.642903 0.741172 -0.193091
-9457.145508 -7051.255371 -6125.437012 0.891903 -0.269539 0.363048
-9484.471680 -7095.854980 -6072.059570 0.920377 -0.204138 0.333476
-9560.093750 -7413.857422 -6034.314941 0.905545 0.396924 0.149602
-9567.519531 -7391.923828 -5922.529785 0.971099 -0.002167 0.238655
-9593.135742 -7424.229492 -5848.207031 0.895596 0.359111 0.262520
-9474.985352 -6903.895996 -4844.806641 0.860958 -0.504471 0.064699
-9508.430664 -6928.693359 -4889.177734 0.683889 -0.721580 0.107608
-9546.645508 -7091.756348 -5007.561035 0.938627 -0.251808 0.235694
-9554.583008 -6856.756836 -5456.701660 0.513413 0.558580 -0.651418
-9512.876953 -7422.980957 -6152.428223 0.858058 0.427808 0.284066
-9551.719727 -7215.817871 -5099.415527 0.928739 -0.211982 0.304056
-9641.838867 -6978.135742 -5550.507324 0.965178 0.041963 -0.258187
-9477.966797 -7253.630859 -5510.825684 -0.787103 0.306528 -0.535203
-9530.290039 -7266.718750 -5502.746094 0.482467 0.502091 -0.717704
-9518.642578 -7215.399414 -6038.363770 0.916654 -0.180029 0.356761
-9556.205078 -7195.307129 -5950.067871 0.952574 -0.138401 0.270943
-9566.100586 -7232.724609 -5888.474609 0.946776 -0.081240 0.311411
-9509.776367 -7371.873047 -6164.577637 0.955412 -0.093539 0.279946
-9613.976562 -6909.520508 -5587.734375 0.925108 -0.278085 0.258400
-9600.069336 -6925.350098 -5691.383301 0.899472 -0.384106 0.208197
-9636.759766 -6965.910156 -5673.398926 0.965148 -0.246681 0.087069
-9556.186523 -7023.168945 -4861.683105 0.922666 -0.379345 0.068819
-9632.184570 -6849.478516 -5495.919434 0.758476 -0.509873 -0.405805
-9634.492188 -7351.594238 -5737.151855 0.959410 0.230720 -0.162023
-9585.333008 -7034.398438 -4361.173828 0.810572 -0.206275 -0.548051
-9667.347656 -7346.927246 -4711.638672 0.992096 -0.105014 0.068392
3 0 1 2
3 3 4 5
3 6 7 8
3 6 8 9
3 9 10 11
3 12 13 14
3 15 16 17
3 14 18 19
3 20 21 22
3 20 23 24
3 24 23 25
3 26 27 28
3 29 26 28
3 0 30 1
3 0 31 30
3 32 33 34
3 35 34 36
3 31 0 2
3 37 38 39
3 39 40 37
3 37 40 41
3 1 30 37
3 42 40 43
3 42 43 33
3 43 39 44
3 33 43 45
3 31 46 30
3 30 46 47
3 37 48 49
3 2 1 37
3 3 37 4
3 50 51 31
3 31 51 46
3 46 51 52
3 46 52 47
3 30 47 48
3 53 2 37
3 50 2 54
3 2 50 31
3 5 4 55
3 55 56 7
3 57 7 6
3 50 58 51
3 58 59 51
3 51 59 52
3 47 52 60
3 47 60 61
3 52 59 62
3 63 64 65
3 10 63 66
3 52 62 60
3 30 48 37
3 62 67 68
3 69 70 71
3 71 70 72
3 47 61 48
3 2 53 54
3 73 74 75
3 76 77 78
3 63 78 79
3 63 79 80
3 65 81 82
3 83 84 85
3 86 87 88
3 50 89 58
3 90 89 91
3 91 89 92
3 58 89 67
3 58 67 59
3 89 90 67
3 59 67 62
3 93 67 90
3 93 94 95
3 95 67 93
3 91 96 97
3 73 54 98
3 92 89 75
3 75 89 50
3 75 50 73
3 90 91 93
3 48 61 49
3 67 95 68
3 50 54 73
3 99 92 75
3 92 100 91
3 96 100 99
3 91 97 93
3 60 68 101
3 62 68 60
3 85 102 87
3 100 92 99
3 93 97 103
3 93 103 94
3 37 3 104
3 54 53 104
3 54 104 98
3 73 98 105
3 77 4 102
3 68 94 70
3 53 37 104
3 4 106 102
3 102 107 87
3 100 96 91
3 60 108 61
3 68 95 94
3 99 75 109
3 37 106 4
3 37 49 38
3 38 49 44
3 49 61 108
3 109 75 74
3 104 110 98
3 111 103 97
3 105 98 110
3 74 73 105
3 112 74 105
3 109 74 112
3 105 110 113
3 96 99 114
3 114 99 109
3 102 106 107
3 94 103 115
3 96 114 97
3 68 70 69
3 115 103 111
3 113 112 105
3 116 117 112
3 107 118 119
3 107 119 120
3 120 121 122
3 123 121 124
3 49 108 44
3 44 108 43
3 108 60 125
3 101 69 126
3 127 128 36
3 101 68 69
3 101 126 60
3 104 3 110
3 110 3 5
3 110 5 129
3 109 112 117
3 130 109 117
3 130 116 131
3 108 125 43
3 45 125 127
3 60 126 125
3 94 115 70
3 115 132 72
3 114 109 130
3 133 134 135
3 70 115 72
3 115 111 132
3 129 113 110
3 113 116 112
3 38 44 39
3 128 127 126
3 37 136 106
3 106 136 137
3 69 71 126
3 138 139 140
3 127 125 126
3 141 134 133
3 113 129 116
3 116 129 57
3 117 116 130
3 11 6 9
3 130 142 114
3 43 40 39
3 143 132 144
3 143 144 141
3 143 133 135
3 55 129 5
3 55 57 129
3 116 57 131
3 131 142 130
3 45 43 125
3 71 72 135
3 145 139 138
3 72 132 135
3 57 6 131
3 34 45 127
3 126 145 128
3 145 126 71
3 145 135 139
3 132 143 135
3 55 4 76
3 55 7 57
3 131 6 11
3 11 142 131
3 142 97 114
3 143 141 133
3 136 41 146
3 33 45 34
3 138 128 145
3 145 71 135
3 7 56 8
3 146 41 147
3 148 40 149
3 34 127 36
3 36 128 150
3 138 150 128
3 132 111 144
3 76 4 77
3 76 56 55
3 37 41 136
3 34 35 32
3 139 135 134
3 11 151 152
3 153 154 155
3 156 157 158
3 159 160 161
3 161 160 162
3 163 164 165
3 166 167 168
3 169 168 170
3 170 171 172
3 172 171 173
3 174 173 22
3 175 22 176
3 63 65 66
3 10 66 177
3 8 78 178
3 63 80 64
3 66 65 179
3 180 13 181
3 41 88 147
3 33 32 42
3 42 32 149
3 138 140 150
3 151 11 10
3 142 182 183
3 56 76 78
3 56 78 8
3 178 78 63
3 64 81 65
3 140 139 134
3 183 182 181
3 183 181 12
3 42 149 40
3 35 184 32
3 36 154 35
3 185 36 150
3 144 186 141
3 140 134 187
3 134 141 186
3 142 11 182
3 178 9 8
3 111 188 144
3 41 40 148
3 184 149 32
3 149 184 189
3 149 189 148
3 187 186 190
3 191 188 157
3 140 187 185
3 11 152 182
3 9 178 63
3 111 97 188
3 144 188 190
3 35 154 184
3 154 36 185
3 144 190 186
3 185 150 140
3 185 192 155
3 185 155 154
3 134 186 187
3 63 10 9
3 79 78 85
3 77 102 78
3 193 192 187
3 192 185 187
3 152 180 181
3 189 184 194
3 195 196 197
3 198 153 199
3 155 192 200
3 190 188 193
3 190 193 187
3 180 66 179
3 10 177 151
3 177 152 151
3 182 152 181
3 184 154 153
3 192 193 200
3 153 200 199
3 193 191 200
3 188 191 193
3 85 78 102
3 201 202 203
3 201 203 204
3 205 206 207
3 206 208 207
3 209 210 211
3 211 212 213
3 214 213 215
3 216 213 212
3 217 212 211
3 218 219 220
3 221 222 223
3 223 23 22
3 22 23 20
3 148 189 41
3 199 224 198
3 152 177 66
3 152 66 180
3 180 179 13
3 225 118 137
3 118 225 124
3 124 225 122
3 137 118 106
3 225 146 226
3 107 106 118
3 225 137 146
3 136 146 137
3 189 88 41
3 155 200 153
3 191 224 199
3 13 227 14
3 13 12 181
3 228 19 229
3 230 229 231
3 230 231 232
3 233 232 234
3 233 234 235
3 142 183 97
3 225 226 122
3 184 153 194
3 194 153 236
3 237 64 80
3 65 238 179
3 79 85 84
3 119 118 124
3 239 122 121
3 239 121 240
3 240 121 123
3 241 123 242
3 197 236 198
3 191 199 200
3 237 80 79
3 227 13 238
3 13 179 238
3 231 243 244
3 244 243 245
3 246 247 248
3 248 245 243
3 248 243 203
3 204 203 205
3 208 249 209
3 124 121 119
3 119 121 120
3 12 228 183
3 122 226 120
3 107 147 88
3 226 146 147
3 250 251 252
3 157 188 97
3 17 253 227
3 17 227 15
3 81 237 82
3 16 254 255
3 16 255 256
3 65 82 238
3 238 82 254
3 238 254 15
3 81 64 237
3 241 84 240
3 240 84 257
3 241 237 84
3 79 84 237
3 227 253 14
3 227 238 15
3 239 124 122
3 124 239 123
3 239 240 257
3 231 229 243
3 107 120 147
3 183 228 97
3 153 198 236
3 195 224 258
3 259 260 261
3 224 157 156
3 224 191 157
3 14 228 12
3 226 147 120
3 189 194 262
3 236 262 194
3 14 253 18
3 237 242 82
3 82 242 255
3 82 255 254
3 237 241 242
3 83 263 84
3 264 265 266
3 267 268 269
3 270 271 272
3 263 273 84
3 241 240 123
3 85 87 83
3 242 123 239
3 255 242 239
3 255 239 257
3 229 274 243
3 253 17 18
3 18 17 275
3 276 275 277
3 276 278 279
3 267 279 278
3 254 16 15
3 229 19 274
3 87 107 88
3 236 280 262
3 198 224 195
3 157 97 158
3 205 281 282
3 275 17 16
3 228 14 19
3 88 189 262
3 84 273 257
3 256 255 257
3 280 236 197
3 283 284 285
3 83 87 86
3 286 256 257
3 280 197 251
3 251 197 287
3 197 198 195
3 195 288 196
3 156 258 224
3 281 205 283
3 277 275 16
3 286 257 273
3 289 275 276
3 289 279 290
3 291 290 292
3 265 273 263
3 286 265 264
3 293 294 88
3 293 295 270
3 296 297 298
3 293 88 295
3 298 297 295
3 295 297 270
3 22 175 299
3 295 88 300
3 295 301 298
3 295 300 301
3 300 299 175
3 88 302 300
3 262 280 88
3 88 280 250
3 197 196 287
3 195 258 288
3 18 275 19
3 19 275 289
3 277 16 278
3 16 256 278
3 278 256 264
3 264 256 286
3 265 286 273
3 263 303 265
3 304 303 305
3 306 304 307
3 308 309 310
3 311 312 313
3 314 315 316
3 317 263 86
3 263 83 86
3 277 278 276
3 264 266 278
3 318 97 319
3 261 320 321
3 261 321 322
3 158 258 156
3 258 323 324
3 158 325 323
3 158 323 258
3 278 266 267
3 303 263 317
3 326 327 328
3 329 326 330
3 331 329 332
3 333 329 334
3 330 334 335
3 326 329 333
3 158 97 325
3 318 319 336
3 325 97 318
3 19 289 291
3 205 337 283
3 266 265 303
3 326 328 330
3 330 328 334
3 228 327 333
3 333 327 326
3 229 327 228
3 334 329 335
3 228 333 338
3 207 208 339
3 339 208 217
3 217 208 340
3 341 340 211
3 341 211 214
3 228 204 97
3 342 343 344
3 342 344 345
3 287 288 252
3 288 258 324
3 279 267 290
3 276 279 289
3 317 346 303
3 86 88 346
3 332 329 330
3 347 330 331
3 331 330 335
3 331 335 329
3 228 338 204
3 196 288 287
3 348 288 324
3 349 19 291
3 268 267 266
3 268 350 269
3 268 266 304
3 266 303 304
3 346 317 86
3 334 351 352
3 353 354 355
3 331 332 347
3 327 229 351
3 327 351 328
3 351 334 328
3 338 333 352
3 352 333 334
3 164 356 357
3 164 357 165
3 251 287 252
3 358 318 320
3 325 358 323
3 19 359 205
3 349 359 19
3 291 289 290
3 305 303 346
3 305 346 88
3 355 354 353
3 352 351 332
3 347 332 351
3 347 352 330
3 230 351 229
3 332 330 352
3 280 251 250
3 360 319 361
3 360 361 362
3 323 259 324
3 325 318 358
3 323 358 259
3 306 268 304
3 363 349 291
3 230 202 351
3 347 351 202
3 347 202 201
3 347 201 352
3 214 211 213
3 338 352 204
3 204 352 201
3 208 209 340
3 319 97 361
3 363 364 359
3 363 365 364
3 350 306 366
3 366 306 367
3 363 359 349
3 350 268 306
3 269 350 267
3 292 363 291
3 350 292 267
3 267 292 290
3 366 368 309
3 369 370 371
3 369 372 373
3 374 375 376
3 375 374 377
3 244 235 232
3 230 232 202
3 232 235 234
3 288 348 252
3 365 363 350
3 350 363 292
3 304 305 307
3 377 376 246
3 246 376 375
3 231 244 232
3 235 244 233
3 233 244 375
3 377 233 375
3 203 202 232
3 308 350 366
3 378 337 205
3 379 380 381
3 382 383 384
3 367 307 88
3 367 368 366
3 247 246 244
3 374 376 377
3 244 246 375
3 203 232 248
3 248 232 233
3 248 233 246
3 377 246 233
3 385 250 252
3 252 386 385
3 259 358 260
3 378 359 364
3 359 378 205
3 308 365 350
3 305 88 307
3 309 368 387
3 247 244 245
3 245 248 247
3 250 385 88
3 348 386 252
3 348 324 322
3 310 364 308
3 367 306 307
3 367 88 368
3 205 282 206
3 206 282 208
3 388 389 24
3 385 386 390
3 348 322 386
3 318 336 320
3 324 259 261
3 322 324 261
3 378 364 391
3 364 365 308
3 368 392 387
3 260 358 320
3 368 294 392
3 243 393 203
3 203 393 394
3 203 394 205
3 282 249 208
3 243 274 393
3 204 205 97
3 386 322 390
3 390 322 395
3 320 336 396
3 391 310 397
3 391 364 310
3 308 366 309
3 371 398 369
3 399 372 312
3 274 394 393
3 97 400 161
3 88 385 390
3 88 294 368
3 387 294 371
3 274 19 205
3 274 205 394
3 97 160 400
3 336 319 396
3 395 322 321
3 401 391 397
3 371 402 398
3 403 398 404
3 403 404 405
3 97 205 406
3 400 160 159
3 161 400 159
3 97 29 361
3 260 320 261
3 378 401 337
3 378 391 401
3 310 309 397
3 407 408 409
3 302 88 410
3 97 161 29
3 410 88 411
3 410 411 412
3 412 411 413
3 413 411 414
3 414 415 416
3 416 415 417
3 88 418 411
3 411 418 414
3 88 390 418
3 390 395 418
3 418 395 321
3 417 320 396
3 379 419 380
3 294 402 371
3 319 360 396
3 320 417 321
3 397 309 387
3 29 420 421
3 337 422 379
3 294 315 423
3 97 406 162
3 97 162 160
3 161 162 420
3 161 420 29
3 396 360 424
3 396 424 417
3 321 417 415
3 361 29 362
3 362 425 360
3 425 424 360
3 418 321 415
3 373 401 369
3 29 421 26
3 416 417 424
3 418 415 414
3 337 401 373
3 380 426 427
3 427 426 428
3 401 397 369
3 397 370 369
3 397 387 370
3 162 406 429
3 413 28 27
3 362 28 425
3 425 28 430
3 416 430 414
3 425 416 424
3 422 337 373
3 402 423 431
3 402 431 404
3 420 162 432
3 29 28 362
3 414 430 413
3 425 430 416
3 419 433 380
3 428 434 435
3 428 435 383
3 431 436 404
3 205 207 406
3 429 437 438
3 406 437 429
3 429 438 162
3 430 28 413
3 370 387 371
3 406 207 439
3 437 406 439
3 437 439 440
3 343 441 344
3 387 392 294
3 294 442 315
3 315 442 316
3 439 207 339
3 439 339 343
3 343 345 443
3 443 345 344
3 438 440 163
3 443 441 343
3 441 443 344
3 432 162 163
3 420 444 421
3 26 421 444
3 26 444 27
3 422 373 399
3 379 311 313
3 379 313 419
3 380 433 426
3 428 445 434
3 337 379 284
3 440 339 217
3 446 447 170
3 439 342 440
3 339 345 343
3 343 342 439
3 437 440 438
3 438 163 162
3 420 432 444
3 27 448 449
3 449 448 408
3 413 27 412
3 249 450 451
3 282 450 249
3 219 210 452
3 219 452 453
3 454 453 455
3 454 455 222
3 440 456 356
3 457 217 218
3 339 440 342
3 217 340 212
3 163 440 356
3 163 356 164
3 339 342 345
3 340 341 212
3 341 214 215
3 212 341 216
3 216 341 215
3 27 444 448
3 27 449 412
3 412 449 410
3 422 311 379
3 419 313 458
3 428 459 445
3 314 316 435
3 450 282 281
3 457 460 456
3 456 460 461
3 461 460 462
3 457 218 220
3 249 451 209
3 209 451 210
3 452 210 389
3 457 440 217
3 211 210 219
3 211 219 218
3 218 217 211
3 209 211 340
3 216 215 213
3 432 463 444
3 444 463 448
3 372 399 373
3 337 284 283
3 464 465 466
3 464 466 467
3 450 281 465
3 294 293 442
3 442 293 384
3 450 465 451
3 468 469 221
3 462 460 220
3 470 464 21
3 465 389 451
3 451 389 210
3 460 457 220
3 465 464 389
3 464 470 389
3 457 456 440
3 453 220 219
3 24 470 21
3 452 389 471
3 456 472 356
3 389 388 471
3 455 25 222
3 473 24 455
3 455 24 25
3 471 388 473
3 388 24 473
3 163 463 432
3 408 410 449
3 422 399 311
3 458 433 419
3 426 459 428
3 458 372 403
3 372 398 403
3 466 281 474
3 281 466 465
3 464 467 176
3 456 461 469
3 21 464 176
3 454 462 220
3 454 220 453
3 455 453 452
3 389 470 24
3 301 300 175
3 21 20 24
3 174 299 475
3 452 471 455
3 476 463 163
3 476 477 408
3 409 408 477
3 478 479 302
3 302 479 480
3 302 480 475
3 463 476 448
3 476 408 448
3 410 408 407
3 372 369 398
3 481 283 285
3 283 481 474
3 283 474 281
3 482 481 285
3 296 466 474
3 474 483 296
3 296 483 271
3 466 296 298
3 296 271 270
3 469 461 462
3 467 466 298
3 484 456 469
3 467 301 176
3 176 301 175
3 298 301 467
3 223 222 25
3 21 176 22
3 299 300 302
3 473 455 471
3 477 163 165
3 163 477 476
3 302 410 485
3 485 410 407
3 311 399 312
3 312 372 458
3 481 482 474
3 271 483 486
3 384 272 382
3 297 296 270
3 462 454 469
3 484 469 487
3 469 454 222
3 469 222 221
3 221 223 488
3 173 488 22
3 221 489 468
3 468 171 447
3 171 489 173
3 488 223 22
3 221 488 489
3 488 173 489
3 174 22 299
3 223 25 23
3 299 302 475
3 478 490 491
3 478 492 479
3 477 490 493
3 493 490 485
3 485 490 478
3 477 493 409
3 407 493 485
3 493 407 409
3 423 402 294
3 379 381 284
3 284 381 285
3 270 272 293
3 469 468 487
3 468 447 487
3 468 489 171
3 472 494 495
3 495 496 167
3 173 174 172
3 490 357 491
3 357 490 165
3 165 490 477
3 478 491 492
3 479 492 166
3 479 166 480
3 313 312 458
3 398 402 404
3 405 404 436
3 381 380 285
3 482 285 497
3 482 497 474
3 474 497 483
3 271 486 272
3 293 272 384
3 484 498 456
3 472 456 498
3 499 170 172
3 478 302 485
3 458 500 433
3 458 403 500
3 285 380 497
3 497 380 427
3 423 315 431
3 486 382 272
3 497 427 483
3 483 427 382
3 483 382 486
3 487 447 446
3 472 498 494
3 172 174 499
3 472 495 356
3 356 167 357
3 357 492 491
3 433 500 426
3 500 403 459
3 459 403 405
3 500 459 426
3 427 428 383
3 382 427 383
3 384 383 442
3 484 487 498
3 168 496 446
3 475 499 174
3 492 167 166
3 167 492 357
3 166 169 499
3 459 405 445
3 445 405 436
3 501 436 431
3 445 436 434
3 434 501 314
3 431 315 501
3 383 435 442
3 435 316 442
3 447 171 170
3 496 494 446
3 494 487 446
3 495 494 496
3 356 495 167
3 475 480 499
3 499 480 166
3 436 501 434
3 434 314 435
3 314 501 315
3 498 487 494
3 446 170 168
3 168 167 496
3 169 170 499
3 168 169 166
