ply
format ascii 1.0
comment Created by Blender 2.80 (sub 75) - www.blender.org, source file: 'color_and_decimate.blend'
element vertex 416
property float x
property float y
property float z
property float nx
property float ny
property float nz
element face 828
property list uchar uint vertex_indices
end_header
-5829.652832 -7435.026855 -2209.804932 -0.518174 0.804804 0.289407
-5763.981445 -7393.078613 -2124.884277 -0.906705 0.404248 0.120090
-5850.201172 -7370.301270 -2286.336914 -0.795495 0.249702 0.552080
-5768.398926 -7191.985840 -2213.210938 -0.833979 0.228706 0.502121
-5826.144043 -7123.618652 -2319.333252 -0.735832 0.200354 0.646809
-5835.511719 -7251.531738 -2290.603271 -0.792657 0.154149 0.589831
-5881.333496 -7225.167969 -2344.758545 -0.757805 0.114719 0.642293
-5746.796875 -7243.769043 -2073.217285 -0.517014 0.016846 -0.855800
-5724.826172 -7079.917480 -2105.972656 -0.783227 -0.062899 -0.618519
-5714.727539 -7175.277344 -2127.005615 -0.985595 0.168950 0.004089
-5748.546387 -7306.903320 -2086.827637 -0.890805 0.207556 -0.404187
-5752.125488 -6998.750488 -2099.334717 -0.242012 -0.105777 -0.964476
-5850.849609 -7215.906738 -2082.514648 0.402081 -0.039613 -0.914731
-5718.113770 -6855.140137 -2137.443848 -0.647114 -0.598987 -0.471572
-6244.571289 -7420.532227 -1938.557129 -0.413526 0.690939 -0.592914
-6295.452148 -7291.638672 -1843.147461 -0.598132 0.279763 -0.750938
-6151.833984 -7248.179688 -1936.089478 -0.533280 0.251869 -0.807550
-6377.617676 -6854.812988 -2301.729736 0.291452 -0.191076 0.937284
-6481.276855 -6846.229492 -2265.330322 0.306345 -0.674245 0.671926
-6430.101074 -6947.129883 -2285.558838 0.307230 -0.056459 0.949950
-6543.324707 -7098.778320 -2238.052734 0.507736 -0.067568 0.858852
-6581.207031 -6859.735352 -2214.882324 0.476150 -0.135838 0.868770
-6629.459473 -7141.264648 -2184.699219 0.511032 -0.097324 0.853999
-6746.522949 -7148.734863 -2124.487793 0.451735 -0.061892 0.889981
-6815.551270 -7265.157715 -2098.476562 0.460524 -0.160710 0.872951
-6670.423828 -7257.074707 -2186.429688 0.500229 -0.191626 0.844386
-6695.133789 -7410.187012 -2209.687012 0.503586 0.223914 0.834407
-6842.161133 -7351.025391 -2111.233154 0.511307 -0.146489 0.846797
-6849.985840 -7432.726074 -2100.488281 0.299020 0.748680 0.591632
-6938.438477 -7411.168457 -2069.269043 0.415845 0.180883 0.891232
-7563.632812 -7292.901367 -1468.440063 0.274331 -0.279672 -0.920042
-7623.351562 -7279.707520 -1503.136230 0.343059 -0.351054 -0.871212
-7421.361328 -7128.413574 -1501.631470 0.296182 -0.414991 -0.860256
-7503.156250 -7104.249023 -1537.878662 0.284158 -0.387463 -0.876980
-7389.506836 -7030.208008 -1535.446289 0.246162 -0.429029 -0.869076
-6306.187988 -6838.431152 -2317.780273 0.187170 -0.755669 0.627613
-6055.701660 -7051.117188 -2465.683838 0.191290 -0.382122 0.904080
-6008.459473 -7056.431641 -2467.550293 -0.306375 -0.208869 0.928709
-6042.674316 -6951.178223 -2413.477295 0.209387 -0.406751 0.889187
-6515.583984 -7251.815918 -2275.407227 0.504379 -0.241951 0.828852
-6599.228027 -7294.031738 -2238.877930 0.513810 -0.210517 0.831660
-5709.945801 -7074.754395 -2154.536621 -0.995300 0.065371 0.071078
-5746.069336 -7034.824707 -2247.232666 -0.836726 0.165014 0.522111
-6078.260254 -7351.644531 -2508.328857 -0.340587 0.166631 0.925291
-6044.922852 -7434.613281 -2453.809570 -0.373730 0.781121 0.500137
-5993.137207 -7316.928711 -2443.423340 -0.606708 0.133610 0.783593
-6227.064453 -7434.662598 -2508.885010 0.131596 0.676595 0.724448
-6232.372070 -7373.336914 -2511.474854 0.306894 -0.125614 0.943388
-5882.260742 -6943.892578 -2107.797852 -0.344035 -0.149785 -0.926908
-5877.973633 -7113.556641 -2101.035645 -0.146794 -0.047670 -0.988006
-6000.868164 -7142.234375 -2004.475952 -0.604419 0.093234 -0.791162
-5908.779297 -7116.936035 -2085.138916 -0.565447 0.030305 -0.824213
-6088.625488 -7254.206543 -1976.707275 -0.486587 0.233650 -0.841762
-5713.449707 -6890.367676 -2225.265137 -0.961730 -0.090457 0.258583
-5945.517090 -6855.435059 -2065.423340 -0.562212 -0.535752 -0.629963
-6019.555176 -6914.007812 -1989.969971 -0.602008 -0.118015 -0.789697
-6327.149902 -7216.450195 -1798.481934 -0.650716 0.188574 -0.735496
-6251.996582 -7116.495117 -1835.260376 -0.585498 0.104923 -0.803827
-5801.111328 -6977.941895 -2333.129395 -0.737205 0.164953 0.655202
-6950.991211 -6837.558594 -1563.431519 0.010468 -0.859615 -0.510758
-6156.733398 -6838.064941 -1936.279419 -0.211005 -0.933134 -0.291025
-5740.049805 -6839.433594 -2262.055176 -0.610187 -0.760674 0.221351
-5774.338379 -6853.701660 -2338.635742 -0.653432 -0.478103 0.586840
-5899.902344 -6941.461426 -2430.004395 -0.384716 0.163427 0.908414
-5892.013672 -6863.553223 -2441.852051 -0.156774 -0.443587 0.882382
-6268.092773 -7437.492676 -1976.149414 -0.095798 0.985595 -0.139164
-5923.290527 -7437.160645 -2125.848877 -0.069094 0.895779 -0.439009
-5936.727539 -7434.338867 -2355.232666 -0.400678 0.808344 0.431288
-5989.109863 -7423.832520 -2410.563965 -0.444563 0.740257 0.504318
-5787.127441 -6874.051758 -2113.468750 -0.023652 -0.457411 -0.888913
-5935.960449 -6837.776855 -2386.009766 0.125645 -0.897183 0.423322
-5872.888184 -6838.572266 -2157.424561 -0.114078 -0.921995 -0.369976
-5838.505859 -7419.886230 -2063.237305 0.232856 0.387616 -0.891903
-5795.135742 -7431.354980 -2072.886475 -0.457076 0.677084 -0.576708
-5913.859375 -7089.818359 -2413.783936 -0.518876 0.092837 0.849757
-5954.771484 -6992.412109 -2426.080566 -0.162572 -0.087710 0.982788
-5981.274414 -6899.847168 -2400.817383 0.253822 -0.340892 0.905148
-6355.865723 -6987.741699 -2316.301270 0.398053 -0.110691 0.910642
-6275.356445 -6980.125977 -2356.705811 0.277078 -0.129734 0.952025
-5922.602051 -7326.693848 -2388.993896 -0.690939 0.174505 0.701498
-5877.159180 -7301.456543 -2114.406982 0.220862 0.047212 -0.974151
-5914.579102 -7320.373535 -2095.492188 -0.551256 0.158483 -0.819117
-6159.317871 -7002.382324 -2395.654785 0.394726 -0.360942 0.844905
-6078.610352 -6855.355957 -2365.816895 0.186804 -0.220954 0.957213
-6248.375488 -7037.247070 -2366.512695 0.328196 -0.193854 0.924467
-6008.398438 -7272.283203 -2023.415283 -0.510300 0.168493 -0.843318
-5975.642578 -7413.471191 -2072.374023 -0.445814 0.456923 -0.769677
-6146.251465 -7423.449219 -2003.623413 -0.355815 0.633686 -0.686850
-6189.482910 -6851.278320 -2347.964844 0.165838 -0.353221 0.920713
-6038.466797 -7174.786621 -2490.089355 -0.413495 -0.042756 0.909482
-6112.656250 -7193.186035 -2504.107666 0.185492 -0.243263 0.952025
-6128.887695 -7137.223633 -1917.618774 -0.548296 0.146428 -0.823359
-6247.685059 -7296.530273 -2461.225098 0.507431 -0.374340 0.776086
-6122.769531 -7004.766113 -1912.397217 -0.580645 0.000580 -0.814142
-6110.269531 -6860.085449 -1939.901611 -0.508866 -0.463393 -0.725455
-6355.160156 -7103.708984 -2336.156494 0.420606 -0.181555 0.888852
-6239.599121 -6903.173340 -1838.785645 -0.553270 -0.179357 -0.813440
-6340.458984 -6928.472656 -1761.018921 -0.626698 -0.132145 -0.767968
-6229.203613 -7176.137695 -2419.515869 0.471206 -0.320505 0.821711
-6313.565918 -6841.473145 -1818.211792 -0.340922 -0.803583 -0.487808
-6371.110352 -7400.391113 -2435.109863 0.541429 -0.027039 0.840266
-6385.531250 -7279.991211 -2369.669189 0.511887 -0.302499 0.804010
-6650.789062 -7266.779785 -1527.908203 -0.576800 0.166265 -0.799738
-6611.259766 -7177.515137 -1530.041504 -0.556230 0.124149 -0.821680
-6531.224121 -7213.051758 -1607.244019 -0.646352 0.202857 -0.735557
-6411.149902 -7427.865234 -1826.003052 -0.571551 0.535569 -0.621662
-6427.871094 -7428.114746 -2388.775879 0.448103 0.631214 0.633015
-6446.915039 -7103.639160 -2292.339355 0.445174 -0.110782 0.888546
-6532.980469 -7132.587891 -1579.796753 -0.627247 0.069582 -0.775689
-6357.410156 -7156.174316 -1752.707886 -0.664449 0.127079 -0.736412
-6475.255371 -6989.600586 -1638.883301 -0.629810 -0.118015 -0.767693
-6468.506348 -7302.679688 -1687.923096 -0.662252 0.294626 -0.688894
-6404.188965 -6866.831055 -1726.929443 -0.579455 -0.358501 -0.731895
-6587.607910 -7437.027344 -2248.098877 0.208502 0.931181 0.298990
-6452.545410 -7243.996094 -2314.431641 0.518845 -0.221534 0.825617
-6507.844238 -6845.958984 -1660.542847 -0.361827 -0.767205 -0.529557
-6573.516602 -6967.833496 -1570.444580 -0.492813 -0.223853 -0.840815
-6531.180176 -7412.763184 -1695.155762 -0.616535 0.484970 -0.620197
-6644.410645 -6859.780273 -2178.883789 0.469588 -0.069430 0.880123
-6724.529297 -6971.306641 -2134.934326 0.414411 0.050630 0.908658
-7055.111328 -7372.446777 -2014.724731 0.324198 0.049287 0.944670
-7050.742676 -7436.194336 -1998.739990 0.167089 0.816095 0.553178
-7417.983398 -7436.830566 -1981.968506 -0.079318 0.786889 0.611927
-7444.957031 -7434.141113 -1418.465698 0.087222 0.717673 -0.690848
-7516.136230 -7420.362793 -1420.870850 0.242073 0.260018 -0.934751
-7649.759766 -7428.384277 -1465.970947 0.262337 0.590014 -0.763543
-6534.556641 -7412.726074 -2315.233398 0.576800 0.191961 0.793970
-7128.609863 -7025.898438 -1475.223755 0.130314 -0.437819 -0.889553
-7131.739746 -7116.259277 -1438.018311 0.100162 -0.380932 -0.919126
-7319.116699 -7170.780273 -1455.065674 0.174230 -0.310129 -0.934568
-6792.661621 -7047.491699 -2100.813477 0.424085 0.026795 0.905209
-6826.502930 -6927.625000 -2101.623779 0.212836 0.196051 0.957213
-6862.704102 -7017.981934 -2068.237061 0.272195 0.150334 0.950407
-6872.560547 -7193.400391 -2067.369629 0.412946 -0.058260 0.908872
-6906.549805 -7071.281250 -2055.880127 0.262368 0.120945 0.957335
-6950.666016 -7288.188965 -2047.251831 0.386303 -0.131626 0.912900
-6712.940430 -7433.482910 -1537.190674 -0.356517 0.818415 -0.450636
-6953.183594 -7237.408203 -1409.659546 -0.117161 -0.121342 -0.985656
-6947.469727 -7418.072754 -1400.328369 -0.165380 0.403699 -0.899808
-7007.923340 -7252.720703 -1387.124146 -0.105655 -0.413800 -0.904202
-7174.124512 -7373.206543 -1383.404785 0.026826 -0.205695 -0.978240
-7299.231934 -7327.764160 -1396.075073 0.126255 -0.176183 -0.976196
-7369.572754 -7286.995117 -1417.240356 0.209082 -0.259285 -0.942869
-7447.419434 -7233.208008 -1460.322754 0.267251 -0.354472 -0.896023
-6777.561523 -6839.000977 -2099.942871 0.069735 -0.967711 0.242134
-6623.186523 -6862.315430 -1581.000366 -0.306803 -0.518387 -0.798181
-6739.632324 -6839.164062 -1562.361084 -0.113254 -0.847957 -0.517777
-6601.544922 -7337.578125 -1572.522583 -0.616352 0.289682 -0.732200
-6856.196289 -7371.271973 -1415.837402 -0.326151 0.117191 -0.938017
-6851.249023 -7433.504883 -1440.140259 -0.269173 0.784845 -0.558153
-6794.511230 -6853.096191 -2120.942139 0.293252 -0.516007 0.804773
-6972.689941 -7150.781738 -2016.041260 0.264382 0.041353 0.963500
-7072.828125 -7435.995605 -1394.805542 -0.081881 0.751640 -0.654439
-7129.859863 -7418.149902 -1359.228027 -0.309915 0.106235 -0.944792
-6997.249512 -6968.733887 -2066.092285 0.082583 0.387585 0.918119
-7285.370117 -7257.648926 -1990.591064 -0.105441 0.142216 0.984191
-7154.664062 -7420.312500 -1989.947021 0.073763 -0.101901 0.992035
-7797.709473 -7436.843750 -1540.160645 0.281991 0.739647 -0.611011
-7857.553711 -7371.680664 -1563.058350 0.440016 -0.169378 -0.881832
-7758.391602 -7374.735352 -1516.164307 0.396680 -0.164434 -0.903073
-7658.520996 -7190.022461 -1551.816772 0.331889 -0.385662 -0.860866
-6636.318359 -7073.017578 -1515.235229 -0.468947 -0.124729 -0.874355
-6739.059570 -6919.747070 -1514.185913 -0.204901 -0.378491 -0.902615
-6932.571777 -6889.087402 -2106.479736 0.011048 0.230567 0.972961
-8101.929199 -6842.041992 -2080.392578 0.326395 -0.874233 -0.359355
-8216.548828 -6914.610840 -2118.790771 0.585101 -0.616260 -0.527085
-8214.970703 -6839.470703 -2223.763428 0.337107 -0.908811 -0.245735
-8364.079102 -6911.735840 -2313.236572 0.617512 -0.710837 -0.336619
-8327.749023 -6856.810547 -2394.223145 0.480148 -0.872738 -0.088046
-8368.583008 -6884.768555 -2483.153320 0.538896 -0.840846 0.050020
-8446.230469 -6951.785645 -2581.877686 0.517136 -0.840663 0.160680
-8239.872070 -6837.880371 -2584.334717 0.250526 -0.940703 0.228584
-6933.437500 -6840.027832 -2656.541748 -0.299844 -0.624805 0.720878
-6925.245117 -6840.499023 -2477.498535 -0.239479 -0.728080 -0.642232
-8062.231934 -6837.575195 -2677.713623 0.106967 -0.916868 0.384564
-7206.623535 -6840.482422 -2476.465576 -0.086123 -0.818201 -0.568407
-7106.992676 -6840.250000 -2100.930664 -0.027131 -0.952300 0.303934
-7418.138184 -6837.618164 -1659.069824 0.165380 -0.861721 -0.479629
-6881.648926 -7163.669434 -1417.274292 -0.149815 -0.179876 -0.972198
-6736.432617 -7064.681641 -1463.512207 -0.312235 -0.243873 -0.918149
-6713.190430 -7231.223145 -1475.042847 -0.428846 0.081301 -0.899686
-6761.133789 -7368.179199 -1466.016724 -0.509751 0.232673 -0.828242
-6789.040527 -7150.826660 -1449.620483 -0.275033 -0.065401 -0.959197
-7012.775391 -6944.563965 -1505.104248 0.050722 -0.454237 -0.889401
-7093.781738 -6850.184570 -1563.702271 0.114994 -0.707419 -0.697348
-7252.145508 -6839.070312 -1619.188354 0.132786 -0.840510 -0.525254
-7886.797852 -6839.534180 -1932.512939 0.213599 -0.926969 -0.308329
-8025.540527 -6840.266602 -2026.890747 0.271859 -0.903134 -0.332224
-6790.711914 -6968.508301 -1495.279419 -0.103885 -0.341380 -0.934141
-6865.971191 -7057.201172 -1454.566040 -0.059908 -0.329478 -0.942228
-7376.409180 -7429.309082 -1397.896851 0.164251 0.586871 -0.792810
-7733.576660 -6839.200684 -1812.967651 0.247017 -0.894192 -0.373302
-6815.494141 -6852.329590 -2555.755859 -0.813349 -0.330638 -0.478622
-6791.487793 -6843.519531 -2639.049561 -0.794031 -0.301370 0.527879
-6836.265625 -6902.256836 -2579.443115 -0.747215 0.658925 -0.086245
-7167.991211 -7173.458984 -1415.508545 0.104160 -0.285775 -0.952605
-7138.170410 -7235.627930 -1409.978760 0.061464 -0.223090 -0.972839
-7119.505859 -7303.585938 -1988.109131 0.202887 0.001862 0.979186
-7613.041504 -7425.657715 -2048.492432 -0.294290 0.478408 0.827326
-7445.622559 -7256.093750 -2028.618896 -0.302469 0.325449 0.895871
-7686.717285 -7437.209961 -2065.121338 -0.230995 0.829432 0.508560
-7547.454102 -7201.256348 -2099.050293 -0.374279 0.423048 0.825159
-6892.211914 -6939.011719 -2601.630371 -0.444441 0.672506 0.591723
-7081.912598 -7116.670898 -2491.859375 -0.666494 0.630787 -0.397290
-7039.051758 -7071.961426 -2546.423828 -0.610584 0.750877 0.251625
-7230.104492 -7237.370605 -2514.959961 -0.535874 0.786248 0.307627
-7117.312500 -7075.151855 -2578.666260 -0.334239 0.569781 0.750725
-6956.583984 -6887.940430 -2651.462158 -0.408246 0.425428 0.807642
-6932.626465 -6992.777832 -2528.805908 -0.646565 0.708243 -0.283334
-7549.900879 -6842.087402 -1710.921509 0.252754 -0.783013 -0.568316
-7069.752930 -7068.124512 -2013.812744 0.035524 0.291330 0.955931
-6926.861816 -6892.970703 -2463.851318 -0.405286 0.089999 -0.909726
-7818.850586 -7322.089355 -2482.154297 0.157445 0.223212 -0.961943
-7765.338379 -7345.840332 -2464.669922 0.096591 0.228584 -0.968688
-7836.495605 -7435.786621 -2504.060547 0.019044 0.795160 -0.606067
-8949.100586 -7424.755859 -3333.878174 0.421216 0.063540 0.904721
-8912.864258 -7409.962891 -3295.348633 0.111789 -0.908261 0.403180
-9027.706055 -7432.846191 -3240.992188 0.806024 0.256081 0.533555
-8949.640625 -7337.911133 -2954.893311 0.539842 -0.841762 0.000488
-8976.998047 -7359.096680 -3060.552979 0.448378 -0.883999 0.132054
-8826.373047 -7283.697754 -3022.205322 0.343181 -0.898801 0.272652
-8735.391602 -7255.979492 -3036.454590 0.222907 -0.859676 0.459578
-8698.687500 -7196.602051 -2914.522461 0.361339 -0.865535 0.346721
-8794.461914 -7229.000977 -2849.074463 0.525498 -0.837092 0.151891
-8429.507812 -7300.631836 -2004.721313 0.602374 -0.468947 -0.645894
-8330.980469 -7215.197754 -1982.089722 0.581195 -0.470412 -0.663991
-8242.859375 -7301.053711 -1850.638184 0.559801 -0.417554 -0.715690
-8018.161621 -7238.495605 -1723.608521 0.490646 -0.407331 -0.770287
-8138.217285 -7254.289062 -1792.738403 0.546464 -0.414991 -0.727378
-7997.349609 -7129.852051 -1768.520020 0.506455 -0.456343 -0.731559
-7044.786621 -7051.246094 -1456.693848 0.030580 -0.360729 -0.932157
-7106.532715 -6955.148438 -2074.363281 -0.063051 0.432569 0.899350
-7136.172363 -6858.193359 -2125.100342 -0.265786 -0.053407 0.962523
-7300.258789 -7052.262695 -2069.178955 -0.295663 0.442335 0.846675
-7187.948730 -6967.842773 -2074.168213 -0.167211 0.333354 0.927824
-7365.895508 -6996.663574 -2135.534424 -0.374645 0.519608 0.767846
-7568.182617 -7060.538574 -2195.820557 -0.449263 0.602008 0.660085
-7567.720215 -6985.614258 -2298.680420 -0.561937 0.792047 0.238380
-7705.083496 -7122.282715 -2238.864014 -0.512223 0.647664 0.564013
-7383.773926 -6841.091309 -2389.007812 -0.493484 -0.721366 -0.485855
-7239.657715 -6897.341797 -2459.210693 -0.165929 0.017212 -0.985961
-7307.358887 -6855.590332 -2426.840332 -0.385723 0.169225 -0.906949
-7296.706055 -7170.652832 -2014.377563 -0.228401 0.329020 0.916257
-7119.916504 -7162.688477 -1993.542358 0.103275 0.126835 0.986511
-7039.485352 -7011.192871 -2463.194092 -0.328562 0.322733 -0.887600
-7051.283203 -6845.966309 -2730.614502 -0.318613 -0.459731 0.828913
-7196.475586 -6956.759766 -1528.258423 0.174749 -0.474624 -0.862636
-7306.354492 -7103.434082 -1467.805298 0.207984 -0.388287 -0.897732
-7251.172363 -7241.145508 -2463.527832 -0.359539 0.566454 -0.741508
-7157.001465 -6994.132812 -2693.595703 -0.452040 0.601398 0.658742
-7501.128418 -7311.609863 -2462.710205 -0.093478 0.340281 -0.935636
-7507.900391 -7085.045410 -2460.398438 -0.122013 0.179449 -0.976165
-7108.266602 -7007.025879 -2630.273193 -0.423322 0.658650 0.622028
-7217.701660 -7093.811035 -2610.394531 -0.450667 0.630482 0.631947
-7400.426758 -7157.325195 -2718.587891 -0.449690 0.531236 0.718009
-8265.797852 -7112.187012 -2880.943359 -0.145573 -0.514695 0.844905
-8327.217773 -7029.657715 -2808.821289 0.082125 -0.706381 0.703024
-8432.228516 -7050.516113 -2811.623291 0.201605 -0.797723 0.568285
-8352.725586 -7107.384766 -2885.302490 -0.074740 -0.690115 0.719810
-8465.113281 -7142.884277 -2912.672119 0.051119 -0.722312 0.689627
-7251.515137 -7004.336914 -2735.182129 -0.216895 0.249702 0.943693
-7452.889160 -7167.287109 -2735.037842 -0.196783 0.236457 0.951476
-7543.895996 -7313.791992 -2696.086182 -0.607257 0.578417 0.544603
-7430.603516 -7331.767578 -2559.450439 -0.572588 0.623798 0.531968
-7325.872070 -7212.766602 -2586.048828 -0.484176 0.606739 0.630390
-7386.672363 -7157.735840 -2057.645020 -0.331736 0.398022 0.855251
-8249.493164 -6889.024414 -2664.931396 0.317270 -0.772637 0.549852
-7316.515625 -6851.521973 -2736.569824 -0.050813 -0.579516 0.813349
-7672.862305 -7430.553711 -2732.370850 -0.246437 0.702078 0.668050
-7836.826172 -7416.721680 -2756.338135 -0.075320 0.369304 0.926237
-7918.942871 -7437.090332 -2743.554199 -0.128758 0.889157 0.439070
-7277.157715 -6884.845215 -2172.502441 -0.383038 0.356822 0.852016
-7813.718262 -7247.930664 -2461.070312 -0.180029 0.387585 -0.904050
-7504.230469 -7102.689941 -2738.374268 -0.151341 0.174139 0.972991
-7298.273926 -6901.236816 -1581.577759 0.221259 -0.534379 -0.815729
-7274.822266 -6842.319336 -2177.945801 -0.309030 -0.669424 0.675497
-7721.924805 -7259.620605 -2738.248047 -0.463301 0.314524 0.828486
-7548.016113 -7432.003418 -2011.503174 -0.212561 0.820124 0.531205
-7261.844238 -6965.512695 -1534.666138 0.172094 -0.428266 -0.887082
-7377.996582 -7320.466309 -2513.427490 -0.470717 0.882260 -0.000092
-7355.863281 -7293.779297 -2471.934814 -0.238289 0.687338 -0.686087
-7516.155762 -7424.630371 -2541.337158 -0.444411 0.878872 -0.173254
-7620.607910 -7433.628418 -2645.100098 -0.335185 0.909055 0.247444
-7356.604980 -6886.492676 -2210.849854 -0.503861 0.531114 0.681173
-7552.694824 -7052.728027 -1577.963135 0.309610 -0.445631 -0.839961
-7504.739258 -7044.976074 -2760.780273 -0.228095 0.198706 0.953124
-7665.169434 -7157.139648 -2761.604980 -0.137669 0.173406 0.975158
-7424.928223 -7120.874512 -2086.026855 -0.355785 0.423139 0.833277
-7389.562988 -6881.219238 -2762.135742 -0.196814 -0.190619 0.961699
-7491.825195 -7013.885742 -2188.037109 -0.449965 0.593432 0.667318
-7386.278809 -6843.729492 -2270.430420 -0.924284 -0.252785 0.285897
-7409.156250 -6883.344727 -2385.154785 -0.616993 0.622913 -0.480911
-7896.425293 -7376.808105 -2765.268066 -0.242866 0.159215 0.956877
-8019.046875 -7433.543945 -2805.832764 -0.260170 0.750298 0.607715
-7426.797852 -6882.546875 -2298.766113 -0.661916 0.726646 0.183813
-7542.547363 -7022.442871 -2428.460449 -0.321238 0.471267 -0.821375
-7947.358887 -7390.767090 -2489.402344 -0.064913 0.477828 -0.876034
-8048.479004 -7437.102051 -2527.123291 -0.099734 0.950530 -0.294107
-8155.937988 -7434.072754 -2436.520264 -0.186254 0.979430 -0.077456
-8020.805664 -7346.023438 -2442.563965 -0.401563 0.703360 -0.586505
-8603.056641 -7386.539551 -2112.470459 0.691061 -0.332194 -0.641896
-8437.147461 -7420.136719 -1938.825562 0.651692 0.267739 -0.709616
-7936.271973 -7253.638184 -2372.165039 -0.637013 0.770653 -0.016388
-7607.413574 -7331.364258 -2467.324463 -0.057253 0.298715 -0.952605
-7593.492188 -6973.812988 -1641.223022 0.310221 -0.489731 -0.814783
-7715.205566 -7074.060059 -1634.957764 0.383068 -0.433943 -0.815424
-7841.659180 -7188.715820 -2397.231201 -0.536241 0.750542 -0.386090
-7733.402832 -7125.483887 -2412.502686 -0.425123 0.661794 -0.617481
-7662.666016 -7432.353027 -2501.966309 -0.075167 0.799524 -0.595874
-7885.228516 -7208.632812 -2763.561279 -0.269143 0.149724 0.951353
-8002.891602 -7361.570312 -2813.505371 -0.307810 0.097568 0.946410
-7546.235352 -6978.187500 -2387.833496 -0.511765 0.754418 -0.410962
-7970.459961 -7433.393066 -1620.099121 0.362499 0.675344 -0.642232
-7776.188965 -7431.216797 -2116.185059 -0.276345 0.795465 0.539293
-8410.923828 -7437.381836 -1948.150513 0.204779 0.954985 -0.214484
-7841.938477 -7289.767578 -2213.266602 -0.506943 0.382611 0.772362
-7655.818848 -7248.883789 -2122.056396 -0.411481 0.405286 0.816309
-7730.592285 -7039.009277 -2763.533203 -0.097293 -0.010163 0.995178
-7936.373535 -7211.652344 -2787.236572 -0.360027 0.057314 0.931150
-7709.119141 -7079.195312 -2342.704590 -0.589129 0.808008 0.002655
-7801.177734 -6843.936523 -2724.277344 0.044221 -0.848018 0.528062
-7697.479004 -6883.166016 -2758.663086 0.022767 -0.393445 0.919034
-8034.398438 -7382.730469 -1659.317505 0.526597 -0.185644 -0.829585
-8190.872070 -7417.310059 -1757.994263 0.568896 0.019501 -0.822138
-8093.741211 -7433.845215 -1701.058228 0.353038 0.738639 -0.574206
-7784.023926 -7037.977051 -2787.308838 -0.297067 -0.121128 0.947111
-7661.906738 -6961.998535 -1672.289917 0.342418 -0.490585 -0.801263
-7698.460449 -6899.616211 -1732.964966 0.390027 -0.582018 -0.713492
-7901.117188 -6931.457031 -2761.704346 0.006104 -0.380535 0.924711
-7778.508789 -7212.325684 -1593.124390 0.409345 -0.395337 -0.822260
-7942.278809 -7008.669922 -2785.138184 -0.283975 -0.072481 0.956053
-7987.427734 -7038.031250 -2809.417236 -0.196478 -0.188910 0.962127
-8075.688965 -7078.474121 -2818.560791 -0.138218 -0.191900 0.971618
-8129.011230 -7362.118652 -2866.734863 -0.482711 -0.004608 0.875759
-8223.639648 -7308.767578 -2925.735107 -0.538102 -0.161901 0.827143
-8181.003906 -7432.837402 -2893.274658 -0.382458 0.735099 0.559740
-8250.560547 -7411.133789 -2958.344971 -0.624897 0.157872 0.764550
-8696.980469 -7326.037109 -3155.185303 0.013398 -0.852016 0.523301
-8789.556641 -7357.833496 -3199.582520 0.035524 -0.921720 0.386151
-8642.972656 -7388.004883 -3239.709717 -0.318064 -0.657308 0.683157
-8781.239258 -7377.661621 -3268.502197 -0.046236 -0.799615 0.598682
-8679.441406 -7426.874023 -3288.441650 -0.278603 0.331523 0.901334
-8559.920898 -7436.905273 -3205.625732 -0.411451 0.621570 0.666555
-9041.921875 -7434.334961 -3104.098389 0.793970 0.604389 0.065432
-7801.096680 -7038.452637 -1697.537109 0.446669 -0.459822 -0.767449
-7852.002441 -6920.498535 -1814.936523 0.464370 -0.580584 -0.668752
-7825.234863 -7176.343262 -2298.770508 -0.606891 0.747856 0.268990
-7829.706543 -7227.534668 -2231.423584 -0.472304 0.487228 0.734489
-7970.925293 -7303.464844 -2319.804199 -0.644673 0.617115 0.451125
-7981.828613 -6852.271484 -2709.099854 0.083071 -0.676077 0.732109
-8160.778809 -6943.707520 -2759.753418 0.152623 -0.588336 0.794061
-7905.170410 -7258.852051 -1641.336182 0.459578 -0.385846 -0.799921
-7891.970215 -7161.884277 -1686.207153 0.462478 -0.418683 -0.781518
-7864.594727 -7432.598633 -2165.482178 -0.286233 0.820338 0.495041
-8302.165039 -6954.683594 -2179.164307 0.624805 -0.631367 -0.459273
-8087.652344 -7240.012695 -2846.237549 -0.402081 -0.071932 0.912748
-8156.428711 -7107.366699 -2855.859619 -0.228950 -0.392773 0.890652
-8174.836426 -7188.803223 -2871.005371 -0.352580 -0.159795 0.922025
-7990.238281 -6887.059082 -1941.769653 0.466323 -0.634846 -0.615986
-8007.400391 -6982.556152 -1879.182129 0.516373 -0.509476 -0.688284
-8128.825684 -6950.627441 -2001.982544 0.543046 -0.556475 -0.628773
-7984.974121 -7433.764160 -2232.121338 -0.298990 0.870540 0.390790
-8085.279297 -7428.674805 -2325.088623 -0.343913 0.899930 0.268014
-8185.532715 -7166.231934 -1893.188599 0.563158 -0.465621 -0.682638
-8142.480957 -7045.160156 -1937.336182 0.548875 -0.482681 -0.682424
-8212.792969 -6983.493164 -2776.444092 0.115146 -0.627705 0.769860
-8948.568359 -7437.479980 -2641.873047 0.317942 0.938963 -0.131291
-8704.122070 -7419.590332 -2211.494385 0.770806 0.250526 -0.585681
-8298.182617 -7434.479980 -1838.369141 0.410230 0.714560 -0.566607
-8724.899414 -7436.021973 -2271.818115 0.598498 0.724357 -0.342112
-8264.666992 -7039.445801 -2048.604980 0.574694 -0.509323 -0.640522
-8377.000000 -7411.740234 -3059.273193 -0.619526 0.090030 0.779778
-8435.790039 -7281.854004 -3034.402100 -0.365795 -0.536790 0.760277
-8341.067383 -7398.589355 -1868.455444 0.589404 -0.222388 -0.776574
-8507.748047 -7109.645996 -2255.463135 0.718070 -0.522385 -0.459792
-8636.143555 -7220.419922 -2308.982178 0.690603 -0.536119 -0.485366
-8614.258789 -7114.340332 -2410.200439 0.692434 -0.631825 -0.348247
-8689.566406 -7159.778809 -2478.254883 0.702078 -0.653279 -0.283303
-8378.705078 -7131.475586 -2083.737793 0.615955 -0.482040 -0.623035
-8473.500977 -7101.823730 -2206.138184 0.664174 -0.538163 -0.518845
-8321.732422 -7002.929688 -2131.718750 0.764855 -0.531785 -0.363567
-8277.835938 -7222.778809 -2926.414062 -0.369213 -0.349803 0.860958
-8353.794922 -6937.229004 -2673.890625 0.322916 -0.845637 0.424940
-8379.351562 -7435.578613 -3042.933838 -0.318491 0.872372 0.370800
-8462.606445 -6993.319824 -2691.502930 0.419843 -0.832575 0.361278
-8486.342773 -6980.929199 -2425.056885 0.641072 -0.749474 -0.165136
-8730.653320 -7366.141113 -2289.179932 0.758965 -0.356120 -0.545091
-8605.055664 -7301.393555 -2197.758789 0.668142 -0.494186 -0.556169
-8533.045898 -7220.761719 -2175.985352 0.667928 -0.475021 -0.572863
-8499.985352 -7036.984863 -2327.724121 0.673605 -0.623890 -0.396222
-8577.169922 -7040.872070 -2530.673340 0.641194 -0.763726 -0.074496
-8586.455078 -7062.025879 -2698.473145 0.508316 -0.826197 0.242866
-8546.971680 -7298.402344 -3091.364746 -0.172857 -0.738212 0.651997
-8494.753906 -7393.276855 -3156.342773 -0.547319 -0.307749 0.778252
-8487.472656 -7210.865723 -2987.250488 -0.123142 -0.727836 0.674581
-8569.859375 -7038.200684 -2621.001221 0.572161 -0.815271 0.088992
-8576.318359 -7180.409668 -2938.719238 0.136540 -0.815729 0.562029
-8583.067383 -7100.585938 -2816.042236 0.356029 -0.855251 0.376446
-8691.116211 -7135.164551 -2669.364746 0.616230 -0.786889 0.032075
-8879.767578 -7431.182617 -2461.360107 0.734092 0.528733 -0.426038
-8830.967773 -7394.479980 -2392.865723 0.756218 -0.055818 -0.651875
-8705.016602 -7156.367676 -2572.780518 0.676687 -0.728599 -0.105930
-8690.284180 -7148.301270 -2781.585693 0.493637 -0.853053 0.169042
-8945.988281 -7366.107910 -3186.307373 0.333750 -0.894070 0.298685
-8790.781250 -7328.919922 -2420.075439 0.697195 -0.568712 -0.436415
-8831.895508 -7292.812988 -2533.435303 0.714286 -0.616840 -0.330576
-8817.828125 -7249.171387 -2636.341064 0.664846 -0.735527 -0.130192
-8874.317383 -7332.294922 -3128.497559 0.210181 -0.923826 0.319895
-8868.705078 -7281.430664 -2797.126221 0.657308 -0.753441 0.014679
-8824.485352 -7233.548340 -2764.792480 0.344493 -0.938292 -0.030396
-8960.678711 -7383.679688 -2643.819092 0.841487 -0.450514 -0.298135
-8881.117188 -7296.926758 -2925.139160 0.523606 -0.847102 0.090518
-8981.515625 -7363.230469 -2804.664062 0.673940 -0.715262 -0.184790
-9010.387695 -7422.398926 -2742.069336 0.942045 0.239601 -0.234748
-9037.045898 -7388.589844 -3029.270996 0.827509 -0.561357 0.005554
-9036.580078 -7424.235352 -2901.463379 0.958953 0.255379 -0.123051
3 0 1 2
3 3 4 5
3 5 4 6
3 7 8 9
3 10 9 3
3 8 7 11
3 11 7 12
3 7 9 10
3 1 10 3
3 13 8 11
3 14 15 16
3 17 18 19
3 20 21 22
3 23 24 25
3 26 25 27
3 28 27 29
3 30 31 32
3 32 31 33
3 32 33 34
3 35 18 17
3 36 37 38
3 39 20 40
3 40 20 22
3 8 13 41
3 41 42 9
3 9 42 3
3 43 44 45
3 46 43 47
3 8 41 9
3 48 11 49
3 50 48 51
3 16 50 52
3 13 53 41
3 54 48 55
3 56 57 15
3 42 53 58
3 59 35 60
3 13 61 53
3 53 62 58
3 63 62 64
3 53 61 62
3 41 53 42
3 65 66 67
3 65 67 68
3 65 68 44
3 13 11 69
3 69 11 48
3 70 71 35
3 7 10 72
3 73 10 1
3 10 73 72
3 49 11 12
3 13 71 61
3 4 42 58
3 3 42 4
3 58 74 4
3 12 7 72
3 1 0 73
3 71 13 69
3 0 67 66
3 3 5 1
3 1 5 2
3 62 61 70
3 62 63 58
3 0 2 67
3 37 75 76
3 37 76 38
3 77 78 35
3 69 48 71
3 73 0 66
3 71 70 61
3 5 6 79
3 58 63 74
3 12 72 80
3 12 80 49
3 49 80 51
3 51 80 81
3 71 48 54
3 2 5 79
3 62 70 64
3 63 64 75
3 51 48 49
3 81 80 66
3 80 72 66
3 66 72 73
3 82 83 84
3 6 4 74
3 48 50 55
3 51 85 50
3 85 86 87
3 51 81 85
3 66 87 86
3 88 70 35
3 78 88 35
3 2 79 67
3 68 67 79
3 74 79 6
3 43 89 90
3 74 63 75
3 71 54 60
3 71 60 35
3 66 86 81
3 76 64 70
3 64 76 75
3 75 37 89
3 74 75 45
3 74 45 79
3 50 91 55
3 76 70 83
3 76 83 38
3 90 92 47
3 45 68 79
3 89 37 90
3 75 89 45
3 55 91 93
3 50 85 52
3 60 54 94
3 54 55 94
3 50 16 91
3 85 81 86
3 37 36 90
3 68 45 44
3 87 66 65
3 52 85 87
3 52 87 14
3 38 83 82
3 89 43 45
3 93 91 57
3 70 88 83
3 38 82 36
3 95 84 78
3 95 78 77
3 93 94 55
3 96 57 97
3 83 88 84
3 84 88 78
3 98 36 82
3 90 47 43
3 94 99 60
3 60 99 59
3 36 98 90
3 44 43 46
3 96 94 93
3 94 96 99
3 52 14 16
3 90 98 92
3 96 97 99
3 93 57 96
3 91 16 57
3 65 44 46
3 15 57 16
3 87 65 14
3 98 82 84
3 100 92 101
3 98 84 101
3 47 92 100
3 102 103 104
3 105 15 14
3 105 14 65
3 106 46 100
3 95 77 107
3 20 107 18
3 92 98 101
3 108 104 103
3 97 109 110
3 110 109 108
3 97 57 109
3 104 109 56
3 104 56 111
3 84 95 101
3 47 100 46
3 99 97 112
3 109 57 56
3 113 65 46
3 113 46 106
3 35 17 77
3 101 95 114
3 115 112 110
3 115 110 116
3 97 110 112
3 111 56 15
3 111 15 105
3 59 18 35
3 17 19 77
3 95 107 114
3 111 105 117
3 18 21 20
3 118 119 22
3 29 120 121
3 65 122 123
3 124 123 125
3 21 118 22
3 107 77 19
3 107 19 18
3 126 100 101
3 106 100 126
3 99 115 59
3 121 65 28
3 65 113 28
3 25 40 22
3 22 119 23
3 40 26 126
3 40 114 39
3 113 106 126
3 109 104 108
3 99 112 115
3 127 128 129
3 130 131 132
3 133 132 134
3 24 133 135
3 107 39 114
3 101 114 126
3 136 117 105
3 105 65 136
3 137 138 139
3 139 140 141
3 142 124 143
3 59 144 18
3 18 144 21
3 21 144 118
3 145 116 146
3 111 117 147
3 148 149 138
3 118 150 119
3 133 151 135
3 107 20 39
3 145 115 116
3 111 147 104
3 115 146 59
3 136 65 149
3 138 152 139
3 139 152 140
3 140 152 153
3 118 144 150
3 132 154 134
3 155 122 156
3 157 158 159
3 31 159 160
3 114 40 126
3 108 116 110
3 116 161 162
3 116 108 161
3 115 145 146
3 131 150 163
3 131 163 132
3 132 163 154
3 161 108 103
3 104 147 102
3 147 117 136
3 149 65 152
3 149 152 138
3 164 165 166
3 166 167 168
3 168 167 169
3 169 170 171
3 172 173 174
3 174 173 175
3 144 59 176
3 176 59 177
3 126 26 113
3 178 148 137
3 179 180 181
3 179 181 182
3 137 148 138
3 161 180 179
3 178 182 148
3 182 181 148
3 161 103 180
3 103 102 180
3 146 162 183
3 146 183 59
3 59 184 185
3 147 181 102
3 177 186 187
3 146 116 162
3 147 136 181
3 119 150 130
3 25 22 23
3 26 40 25
3 161 188 162
3 189 179 182
3 180 102 181
3 152 190 153
3 23 119 130
3 181 149 148
3 179 188 161
3 152 65 190
3 153 190 140
3 113 26 28
3 149 181 136
3 177 191 186
3 133 134 151
3 151 120 135
3 150 131 130
3 23 130 24
3 25 24 27
3 192 193 194
3 195 178 137
3 196 137 139
3 188 179 189
3 195 137 196
3 183 162 188
3 156 197 155
3 125 122 157
3 150 144 163
3 198 199 200
3 200 199 201
3 130 133 24
3 26 27 28
3 194 193 202
3 203 204 205
3 205 204 206
3 182 178 189
3 130 132 133
3 28 29 121
3 192 173 193
3 193 172 202
3 202 172 207
3 192 194 208
3 189 178 128
3 128 178 195
3 191 177 209
3 151 134 210
3 192 211 173
3 212 213 214
3 215 216 217
3 218 219 220
3 221 222 223
3 224 225 226
3 227 228 229
3 193 173 172
3 188 189 230
3 230 189 128
3 142 195 196
3 142 196 141
3 140 190 141
3 27 24 29
3 29 24 135
3 231 163 232
3 233 234 235
3 236 237 238
3 174 175 239
3 173 211 240
3 173 240 175
3 175 240 241
3 192 208 211
3 210 242 243
3 211 244 240
3 208 202 204
3 204 202 206
3 208 194 202
3 190 65 123
3 190 123 141
3 134 154 210
3 163 144 232
3 208 204 244
3 207 172 245
3 183 188 230
3 151 210 120
3 210 243 120
3 144 176 232
3 244 211 208
3 202 207 206
3 246 247 32
3 32 247 143
3 32 143 30
3 142 123 124
3 120 243 197
3 240 244 248
3 249 207 245
3 183 230 127
3 59 183 184
3 184 183 246
3 246 183 127
3 59 185 177
3 135 120 29
3 154 163 231
3 154 231 210
3 203 244 204
3 197 243 155
3 210 231 233
3 210 233 242
3 244 203 248
3 250 251 240
3 240 248 250
3 207 252 206
3 252 207 249
3 127 230 128
3 120 156 121
3 123 122 125
3 120 197 156
3 231 232 234
3 253 249 254
3 245 172 174
3 255 256 257
3 255 257 258
3 258 257 259
3 254 260 261
3 254 262 263
3 254 263 264
3 242 233 265
3 171 266 174
3 260 245 267
3 268 269 270
3 268 270 214
3 139 141 196
3 247 127 129
3 124 125 143
3 231 234 233
3 232 271 234
3 251 250 272
3 260 267 273
3 260 273 261
3 249 245 260
3 185 184 274
3 275 176 177
3 248 203 205
3 205 206 253
3 171 170 266
3 261 273 268
3 268 273 276
3 246 127 247
3 274 184 246
3 243 242 155
3 155 242 277
3 271 232 275
3 252 253 206
3 268 276 269
3 128 195 129
3 278 274 246
3 274 278 34
3 65 121 122
3 122 121 156
3 232 176 275
3 248 205 279
3 248 279 280
3 279 263 281
3 281 262 282
3 262 261 268
3 252 249 253
3 278 246 32
3 278 32 34
3 283 271 275
3 171 168 169
3 279 205 264
3 264 253 254
3 253 264 205
3 249 260 254
3 177 274 34
3 284 33 160
3 235 234 271
3 267 285 273
3 273 285 286
3 129 195 142
3 265 233 287
3 267 288 285
3 185 274 177
3 242 199 277
3 235 289 287
3 290 275 177
3 283 275 290
3 291 239 241
3 279 264 263
3 276 286 269
3 270 292 293
3 247 129 143
3 233 235 287
3 235 271 283
3 235 283 289
3 289 283 237
3 291 294 239
3 294 283 290
3 241 239 175
3 174 239 177
3 129 142 143
3 242 265 199
3 174 177 187
3 174 164 166
3 241 240 251
3 241 251 295
3 272 213 212
3 212 214 296
3 297 298 299
3 300 224 301
3 299 298 302
3 248 280 250
3 250 303 272
3 303 213 272
3 285 288 286
3 141 123 142
3 304 284 305
3 187 164 174
3 283 294 237
3 290 239 294
3 306 307 272
3 280 279 250
3 303 250 281
3 303 281 308
3 214 282 268
3 269 286 309
3 269 309 292
3 270 293 297
3 291 241 295
3 292 310 293
3 291 295 311
3 262 254 261
3 177 34 284
3 157 312 158
3 155 277 122
3 265 287 201
3 265 201 199
3 200 313 314
3 315 313 316
3 315 316 238
3 238 316 236
3 290 177 239
3 294 291 311
3 281 263 262
3 286 317 309
3 309 318 292
3 292 318 310
3 34 33 284
3 304 177 284
3 157 200 312
3 237 294 311
3 237 311 319
3 250 279 281
3 245 174 267
3 286 288 317
3 30 143 125
3 209 177 304
3 287 289 236
3 201 236 316
3 267 320 288
3 288 320 321
3 122 277 157
3 158 312 322
3 277 199 198
3 323 322 324
3 287 236 201
3 289 237 236
3 308 281 282
3 317 325 309
3 309 325 318
3 209 304 326
3 209 326 327
3 277 198 200
3 288 328 317
3 31 30 125
3 201 316 200
3 319 311 307
3 273 286 276
3 31 160 33
3 284 160 305
3 305 160 329
3 209 327 191
3 295 251 307
3 282 262 268
3 267 174 320
3 317 328 325
3 325 330 318
3 310 331 332
3 333 334 335
3 335 334 336
3 337 338 339
3 339 338 340
3 341 216 215
3 341 215 217
3 342 217 343
3 326 304 305
3 327 326 344
3 307 311 295
3 308 282 214
3 288 321 328
3 327 344 345
3 157 277 200
3 238 346 347
3 346 302 348
3 346 348 347
3 237 319 238
3 251 272 307
3 321 320 328
3 349 174 350
3 158 160 159
3 191 327 345
3 316 313 200
3 31 125 159
3 326 305 344
3 303 308 214
3 303 214 213
3 269 292 270
3 125 157 159
3 329 160 158
3 329 158 322
3 315 238 347
3 346 238 319
3 305 329 351
3 344 305 352
3 344 352 229
3 315 347 348
3 346 319 306
3 325 328 330
3 318 330 331
3 313 315 353
3 307 306 319
3 166 354 167
3 191 345 186
3 355 356 357
3 310 332 355
3 272 212 296
3 272 296 299
3 305 351 352
3 344 229 345
3 358 345 359
3 187 360 164
3 302 346 306
3 174 349 320
3 320 349 328
3 351 329 322
3 352 351 227
3 296 214 297
3 214 270 297
3 310 355 293
3 293 355 333
3 293 333 335
3 314 313 353
3 315 361 353
3 362 348 298
3 302 306 299
3 299 306 272
3 330 328 331
3 312 200 324
3 345 358 186
3 361 315 348
3 356 255 357
3 229 363 359
3 358 359 364
3 358 364 360
3 359 345 229
3 187 358 360
3 187 186 358
3 331 328 350
3 355 332 356
3 318 331 310
3 361 348 362
3 331 350 365
3 322 312 324
3 229 352 227
3 314 353 361
3 314 361 362
3 314 362 366
3 348 302 298
3 299 296 297
3 328 349 350
3 228 227 322
3 228 322 323
3 227 351 322
3 366 362 298
3 301 314 367
3 301 367 300
3 331 365 256
3 331 256 332
3 332 256 356
3 256 255 356
3 324 200 368
3 363 229 228
3 314 366 369
3 368 200 314
3 359 363 364
3 164 360 165
3 360 370 165
3 314 369 367
3 355 357 333
3 333 357 334
3 371 336 334
3 371 334 372
3 228 323 226
3 363 228 226
3 298 297 366
3 266 350 174
3 323 324 368
3 366 293 335
3 226 323 373
3 226 373 224
3 363 226 225
3 374 375 376
3 376 375 377
3 363 225 370
3 364 363 370
3 378 379 354
3 165 370 380
3 354 380 378
3 370 360 364
3 166 165 354
3 297 293 366
3 357 255 381
3 334 357 381
3 166 171 174
3 266 365 350
3 373 323 368
3 378 370 225
3 266 382 365
3 365 382 256
3 335 336 383
3 383 336 371
3 165 380 354
3 166 168 171
3 380 370 378
3 167 354 379
3 266 170 382
3 255 258 381
3 372 258 259
3 382 170 384
3 256 382 257
3 366 335 383
3 258 372 381
3 334 381 372
3 170 169 385
3 367 386 387
3 367 387 300
3 382 384 257
3 301 373 368
3 301 368 314
3 224 373 301
3 378 225 388
3 379 388 374
3 167 379 389
3 385 376 390
3 384 391 257
3 225 224 388
3 167 389 385
3 167 385 169
3 366 342 343
3 372 392 393
3 371 372 393
3 378 388 379
3 372 259 394
3 379 374 389
3 384 395 391
3 396 397 222
3 257 391 397
3 220 337 221
3 342 371 393
3 371 342 383
3 388 224 387
3 257 397 396
3 372 394 392
3 366 383 342
3 389 374 376
3 170 395 384
3 257 396 259
3 259 396 394
3 393 392 339
3 339 392 337
3 224 300 387
3 374 388 375
3 385 389 376
3 391 395 398
3 385 390 170
3 390 395 170
3 387 375 388
3 342 393 339
3 394 396 221
3 394 221 392
3 342 339 341
3 369 399 386
3 386 399 400
3 398 397 391
3 392 221 337
3 376 377 390
3 390 401 395
3 401 398 395
3 398 402 397
3 397 402 222
3 222 402 223
3 396 222 221
3 340 403 216
3 375 387 386
3 375 386 404
3 401 377 405
3 390 377 401
3 398 223 402
3 369 366 399
3 339 340 341
3 404 386 400
3 377 404 405
3 377 375 404
3 341 340 216
3 398 406 223
3 406 398 401
3 407 219 403
3 337 407 338
3 369 386 367
3 401 405 406
3 338 407 403
3 342 341 217
3 408 409 410
3 406 409 223
3 223 408 411
3 411 218 220
3 220 223 411
3 407 337 220
3 409 408 223
3 223 220 221
3 410 404 400
3 411 408 412
3 411 412 218
3 404 410 405
3 408 410 413
3 406 410 409
3 407 220 219
3 338 403 340
3 399 410 400
3 405 410 406
3 219 414 403
3 399 413 410
3 413 366 415
3 412 408 413
3 399 366 413
3 412 415 218
3 218 415 414
3 414 219 218
3 403 217 216
3 413 415 412
3 415 366 343
3 403 414 217
3 217 414 343
3 414 415 343
